<svg xmlns="http://www.w3.org/2000/svg" viewBox="0 0 263.2 90.05"><defs><style>.cls-1{fill:#252526;}</style></defs><g id="Layer_2" data-name="Layer 2"><g id="Layer_1-2" data-name="Layer 1"><path class="cls-1" d="M70.69,90.05a2.48,2.48,0,0,1-2.45-3L72.38,65,57,62.79a2,2,0,0,1-.48-.12l-.14,0-13.5,3.82a2.29,2.29,0,0,1-.68.1,2.45,2.45,0,0,1-1.27-.35L26,57.43,1.36,44.83A2.48,2.48,0,0,1,.07,42L4.46,23.54a1.21,1.21,0,0,0,0-.18l0-.05A2.18,2.18,0,0,1,4.64,23l0,0a2.25,2.25,0,0,1,.12-.21l0,0,.14-.2,0-.06.16-.17,0,0,.22-.19,0,0,23-16.86,0,0L28.71,5l0,0,.3-.13h0l.3-.08h0l.22,0L74.92,0h.39a2.62,2.62,0,0,1,.62.12l.08,0a.85.85,0,0,1,.22.09l.13,0,7,3.71.1,0,16.3,9.57.06,0,.14.09a3.42,3.42,0,0,1,.4.36l0,.05a1,1,0,0,1,.13.16l0,.07s.07.1.1.16,0,0,0,.08.05.11.08.16l0,.06,4.73,11.89,9.27,14.93a2.51,2.51,0,0,1,.06,2.54l-8.08,14.43,0,0-.12.19-.06.08-.15.17-.06.07-.22.19-.09.06a.91.91,0,0,1-.16.11l-.1.06-.08,0-16,7.87-1.9,7.72A2.58,2.58,0,0,1,87,76.53l-14.7,12.9A2.49,2.49,0,0,1,70.69,90.05Zm3.79-9.14,8.67-7.62,1.39-5.63-7.25-1.75Zm6.54-36L78.18,61,86,62.86l6.87-18.48L85.53,32ZM31.4,54.81l11.09,6.55,12.75-3.61,5.5-14.32L46.87,40.82Zm60.66,6L101,56.45l-4.7-6.91ZM60.4,58.24l12.88,1.81,2.43-13.77-10-1.91ZM98.46,43.91l6,8.77,5.39-9.63-6.2-10ZM5.38,41.28l19.17,9.79-.47-13.4L8.52,28.06Zm24.13,8.5,10.73-9.7L29.12,39ZM66.35,39.41l10.6,2,4.63-13.33L64.29,25.67Zm21.87-12.7,7.14,12.11,5.25-11-3.19-8Zm-37,9.84,10,1.87L59.6,28ZM29.3,34l15.87,1.53L57.12,23.43,32,11Zm-18-10.07L24.5,32.06l2.25-19.42Zm54.31-3.12L82,23.13,79.93,7.82,76,5.74Zm21.18.67L94,16,85.4,11ZM38.76,8.82,60.49,19.53l9.57-14Z"></path><path class="cls-1" d="M136.44,31.27a5.63,5.63,0,0,1,2.27,2,5.09,5.09,0,0,1,.85,2.88A4.8,4.8,0,0,1,137.75,40a7.12,7.12,0,0,1-4.7,1.5h-9.81V22H133a6.62,6.62,0,0,1,4.35,1.4A4.42,4.42,0,0,1,139,27a4.62,4.62,0,0,1-.69,2.44A5.7,5.7,0,0,1,136.44,31.27Zm-3.91-2.17a1.42,1.42,0,0,0,0-2,1.6,1.6,0,0,0-1.13-.39h-2.09v2.79h2.09A1.64,1.64,0,0,0,132.53,29.1Zm-1,7.65a1.84,1.84,0,0,0,1.23-.41,1.36,1.36,0,0,0,.47-1.07,1.34,1.34,0,0,0-.47-1.07,1.84,1.84,0,0,0-1.23-.4h-2.23v3Z"></path><path class="cls-1" d="M152,41.51l-2.5-5.29h-1.33v5.29h-6.46V22h9.09a7.76,7.76,0,0,1,5.58,2,7,7,0,0,1,2.15,5.35,6.44,6.44,0,0,1-.71,3,6.28,6.28,0,0,1-2,2.26l3.4,6.83Zm-3.83-13.95v3.7h1.59a2.1,2.1,0,0,0,1.5-.53,1.88,1.88,0,0,0,0-2.66,2.13,2.13,0,0,0-1.5-.51Z"></path><path class="cls-1" d="M174.09,41.51l-.83-2.71h-6.2l-.87,2.71h-7L167,22h6.52l7.83,19.5Zm-2-7.23-1.9-5.37-1.9,5.37Z"></path><path class="cls-1" d="M182.56,41.51V22h6.62v19.5Z"></path><path class="cls-1" d="M204.4,22h6.18v19.5h-5.29l-6.88-9.22v9.22h-6.17V22h5.48l6.68,8.83Z"></path><path class="cls-1" d="M147.56,47.1a11.41,11.41,0,0,1,5.38,1.22,8.88,8.88,0,0,1,3.64,3.44,9.92,9.92,0,0,1,1.29,5.08,9.28,9.28,0,0,1-2.86,7,10.39,10.39,0,0,1-7.45,2.72h-8.34V47.1Zm-.44,13.64a4.2,4.2,0,0,0,3-1.05,4.2,4.2,0,0,0,0-5.69,4.17,4.17,0,0,0-3-1.06h-1.39v7.8Z"></path><path class="cls-1" d="M170.27,67.15a13.38,13.38,0,0,1-4.56-.75,10.24,10.24,0,0,1-3.53-2.09,9.28,9.28,0,0,1-2.25-3.25,11.5,11.5,0,0,1,0-8.43,9.42,9.42,0,0,1,2.25-3.26,10.22,10.22,0,0,1,3.53-2.08,13.38,13.38,0,0,1,4.56-.75,12.65,12.65,0,0,1,5.84,1.28A9.34,9.34,0,0,1,180,51.44a11.27,11.27,0,0,1,0,10.81,9.34,9.34,0,0,1-3.92,3.62A12.78,12.78,0,0,1,170.27,67.15ZM167.2,60a4.56,4.56,0,0,0,6.14,0,4.33,4.33,0,0,0,1.17-3.16,4.28,4.28,0,0,0-1.17-3.14,4.56,4.56,0,0,0-6.14,0A4.31,4.31,0,0,0,166,56.84,4.36,4.36,0,0,0,167.2,60Z"></path><path class="cls-1" d="M195.74,47.1h6.18V66.59h-5.29l-6.88-9.22v9.22h-6.17V47.1h5.47l6.69,8.82Z"></path><path class="cls-1" d="M215.21,67.15a13.28,13.28,0,0,1-4.55-.75,10.06,10.06,0,0,1-3.53-2.09,9,9,0,0,1-2.25-3.25,11.5,11.5,0,0,1,0-8.43,9.16,9.16,0,0,1,2.25-3.26,10,10,0,0,1,3.53-2.08,13.28,13.28,0,0,1,4.55-.75,12.72,12.72,0,0,1,5.85,1.28A9.32,9.32,0,0,1,225,51.44a11.2,11.2,0,0,1,0,10.81,9.32,9.32,0,0,1-3.91,3.62A12.85,12.85,0,0,1,215.21,67.15ZM212.15,60a4.54,4.54,0,0,0,6.13,0,4.33,4.33,0,0,0,1.17-3.16,4.28,4.28,0,0,0-1.17-3.14,4.54,4.54,0,0,0-6.13,0A4.28,4.28,0,0,0,211,56.84,4.33,4.33,0,0,0,212.15,60Z"></path><path class="cls-1" d="M238.81,66.59l-2.5-5.29H235v5.29h-6.46V47.1h9.09a7.8,7.8,0,0,1,5.58,2,7.06,7.06,0,0,1,2.15,5.35,6.3,6.3,0,0,1-2.71,5.29l3.4,6.82Zm-3.83-14v3.7h1.59a2.09,2.09,0,0,0,1.5-.52,1.76,1.76,0,0,0,.55-1.34,1.71,1.71,0,0,0-.55-1.33,2.13,2.13,0,0,0-1.5-.51Z"></path><path class="cls-1" d="M255,67.15a9.12,9.12,0,0,1-6-1.79,6.08,6.08,0,0,1-2.16-5h6.83a1.37,1.37,0,0,0,.36,1,1.27,1.27,0,0,0,1,.37,1.37,1.37,0,0,0,.9-.29,1,1,0,0,0,.35-.8,1,1,0,0,0-.2-.62,1.47,1.47,0,0,0-.61-.46c-.27-.12-.55-.23-.85-.33l-1.09-.3-.09,0-.08,0a16.44,16.44,0,0,1-3.29-1.1,5.2,5.2,0,0,1-2.93-4.61c0-.17,0-.33,0-.51a5.47,5.47,0,0,1,2-4.54,8.86,8.86,0,0,1,5.71-1.64,8.57,8.57,0,0,1,5.63,1.68,5.73,5.73,0,0,1,2,4.67h-6.57a1.21,1.21,0,0,0-.29-.87,1,1,0,0,0-.8-.3,1.17,1.17,0,0,0-.78.24.81.81,0,0,0-.28.65,1,1,0,0,0,.19.58,1.69,1.69,0,0,0,.66.46,6.1,6.1,0,0,0,.82.33l1.13.32.15,0c.75.2,1.34.37,1.77.5a11.54,11.54,0,0,1,1.67.7,5.45,5.45,0,0,1,1.58,1.09,5.65,5.65,0,0,1,1,1.59A6.47,6.47,0,0,1,261,65.4,9.34,9.34,0,0,1,255,67.15Z"></path></g></g></svg>