<svg id="svg" version="1.1" xmlns="http://www.w3.org/2000/svg" xmlns:xlink="http://www.w3.org/1999/xlink" width="400" height="100.23866348448688" viewBox="0, 0, 400,100.23866348448688">
	<g id="svgg">
		<path id="path0" d="M0.000 27.667 L -0.000 54.417 16.125 54.364 C 31.884 54.313,32.258 54.304,32.583 53.984 C 32.954 53.621,33.194 2.698,32.829 1.739 C 32.510 0.901,32.838 0.917,15.875 0.917 L 0.000 0.917 0.000 27.667 M178.833 0.953 C 178.421 0.991,178.019 1.085,177.940 1.163 C 177.812 1.288,177.773 54.162,177.901 54.289 C 178.043 54.432,270.033 54.312,270.410 54.169 L 270.833 54.008 270.833 46.016 C 270.833 38.973,270.802 37.993,270.571 37.762 C 270.335 37.526,267.452 37.500,241.321 37.500 C 213.459 37.500,212.321 37.488,212.028 37.195 C 211.593 36.760,211.485 23.719,211.911 23.068 L 212.172 22.671 238.489 22.627 C 252.963 22.603,264.843 22.546,264.890 22.499 C 265.036 22.353,265.090 8.034,264.944 7.889 C 264.868 7.813,253.010 7.730,238.593 7.706 C 212.550 7.663,212.379 7.660,212.077 7.327 C 211.811 7.033,211.768 6.633,211.736 4.145 C 211.712 2.276,211.634 1.234,211.508 1.108 C 211.324 0.924,180.760 0.779,178.833 0.953 M0.458 69.121 C 0.756 69.158,1.244 69.158,1.542 69.121 C 1.840 69.084,1.596 69.053,1.000 69.053 C 0.404 69.053,0.160 69.084,0.458 69.121 M4.713 69.123 C 5.152 69.157,5.827 69.157,6.213 69.122 C 6.600 69.087,6.242 69.059,5.417 69.059 C 4.592 69.060,4.275 69.088,4.713 69.123 M105.708 69.125 C 159.677 69.148,247.990 69.148,301.958 69.125 C 355.927 69.102,311.771 69.083,203.833 69.083 C 95.896 69.083,51.740 69.102,105.708 69.125 M288.500 79.845 C 288.179 79.924,287.242 80.075,286.417 80.180 C 285.381 80.312,284.736 80.488,284.333 80.751 C 284.012 80.960,283.469 81.220,283.125 81.328 C 282.781 81.437,282.500 81.587,282.500 81.662 C 282.500 81.737,282.144 82.029,281.708 82.310 C 280.951 82.799,280.355 83.463,279.370 84.917 C 278.955 85.530,278.914 85.738,278.863 87.515 C 278.804 89.532,278.859 89.779,279.675 91.167 C 280.219 92.093,282.676 94.167,283.230 94.167 C 283.347 94.167,283.786 94.394,284.206 94.672 C 284.864 95.108,285.197 95.198,286.610 95.322 C 287.512 95.401,288.719 95.564,289.292 95.683 C 290.111 95.854,290.452 95.858,290.885 95.701 C 291.188 95.591,291.919 95.453,292.510 95.394 C 294.432 95.201,298.667 92.968,298.667 92.146 C 298.667 92.080,298.854 91.803,299.082 91.532 L 299.497 91.038 299.124 90.938 C 298.454 90.759,297.363 90.828,297.126 91.065 C 296.998 91.192,296.707 91.519,296.478 91.791 C 296.249 92.062,295.842 92.422,295.573 92.590 C 295.304 92.758,294.926 93.033,294.734 93.203 C 294.541 93.372,293.932 93.583,293.379 93.672 C 292.826 93.761,292.012 93.994,291.570 94.190 C 290.713 94.569,288.048 94.552,287.581 94.165 C 287.469 94.072,286.862 93.863,286.231 93.701 C 284.742 93.318,282.725 92.015,282.394 91.221 C 282.267 90.916,282.097 90.667,282.018 90.667 C 281.225 90.667,281.133 85.660,281.913 84.932 C 282.119 84.740,282.337 84.425,282.397 84.231 C 282.636 83.472,284.748 82.049,285.948 81.840 C 286.556 81.734,287.264 81.539,287.521 81.406 C 288.361 80.971,290.810 80.900,291.681 81.285 C 292.092 81.467,292.725 81.668,293.089 81.731 C 293.934 81.879,294.667 82.167,294.667 82.351 C 294.667 82.430,295.023 82.676,295.458 82.899 C 295.894 83.122,296.508 83.573,296.824 83.902 C 297.314 84.412,297.507 84.500,298.138 84.500 L 298.877 84.500 298.780 83.902 C 298.535 82.393,295.269 80.411,292.618 80.162 C 291.795 80.085,291.042 79.942,290.944 79.844 C 290.737 79.637,289.340 79.637,288.500 79.845 M313.333 79.833 C 313.196 79.922,312.783 80.000,312.417 80.006 C 311.227 80.026,309.284 80.447,309.078 80.729 C 308.970 80.877,308.566 81.109,308.180 81.245 C 307.794 81.382,307.266 81.644,307.006 81.829 C 306.747 82.013,306.388 82.221,306.208 82.291 C 303.242 83.436,302.548 91.031,305.292 92.317 C 305.498 92.414,305.667 92.567,305.667 92.658 C 305.667 92.865,307.401 93.984,308.079 94.215 C 308.356 94.309,308.789 94.557,309.040 94.764 C 309.350 95.021,309.805 95.172,310.457 95.235 C 310.985 95.286,312.129 95.436,313.000 95.569 C 314.141 95.742,314.816 95.765,315.417 95.650 C 315.875 95.562,316.740 95.420,317.339 95.334 C 319.882 94.969,324.028 92.267,324.404 90.730 C 324.468 90.466,324.713 89.970,324.948 89.628 C 325.522 88.791,325.473 86.359,324.867 85.588 C 324.665 85.331,324.500 84.962,324.500 84.768 C 324.500 84.428,322.883 82.758,321.698 81.873 C 321.132 81.451,319.058 80.545,318.167 80.332 C 315.749 79.752,313.775 79.548,313.333 79.833 M336.751 80.172 C 334.366 80.346,334.030 80.419,333.547 80.870 C 332.888 81.485,331.588 81.487,331.271 80.873 C 330.995 80.341,330.705 80.167,330.090 80.167 C 329.253 80.167,329.250 80.196,329.250 87.864 L 329.250 95.010 329.902 95.185 C 330.384 95.315,330.652 95.308,330.930 95.159 L 331.306 94.958 331.278 90.687 C 331.241 85.099,331.433 84.329,333.217 82.888 C 334.172 82.116,334.499 81.950,335.300 81.833 C 335.822 81.756,336.578 81.575,336.979 81.430 C 337.879 81.105,339.038 81.093,340.012 81.398 C 340.418 81.525,341.064 81.714,341.448 81.818 C 342.642 82.142,343.683 83.112,344.209 84.391 L 344.667 85.507 344.667 90.247 C 344.667 95.499,344.648 95.412,345.752 95.212 C 346.622 95.055,346.618 95.069,346.646 91.180 C 346.660 89.172,346.738 87.203,346.820 86.806 C 347.303 84.448,347.395 84.175,347.897 83.594 C 348.186 83.259,348.580 82.895,348.773 82.785 C 348.965 82.674,349.313 82.448,349.545 82.283 C 349.777 82.118,350.481 81.904,351.109 81.807 C 351.736 81.711,352.339 81.560,352.447 81.472 C 352.837 81.155,354.436 81.111,355.277 81.395 C 355.721 81.544,356.395 81.742,356.776 81.835 C 357.915 82.114,358.741 82.911,359.364 84.333 L 359.911 85.583 359.970 90.250 C 360.034 95.382,360.043 95.424,360.989 95.250 C 361.881 95.086,361.877 95.099,361.905 91.552 C 361.942 86.929,361.695 83.982,361.228 83.472 C 361.032 83.258,360.758 82.858,360.619 82.583 C 359.738 80.847,356.167 79.661,353.083 80.080 C 352.717 80.130,351.637 80.244,350.683 80.334 C 349.289 80.465,348.907 80.559,348.729 80.813 C 348.607 80.986,348.300 81.180,348.046 81.243 C 347.791 81.306,347.384 81.547,347.140 81.779 C 346.545 82.344,345.635 82.351,345.027 81.795 C 343.467 80.369,340.918 79.869,336.751 80.172 M374.508 80.170 C 372.399 80.345,372.015 80.433,371.579 80.840 C 371.393 81.013,370.924 81.267,370.536 81.404 C 369.764 81.676,369.847 81.728,369.229 80.583 C 368.901 79.975,367.346 80.137,367.082 80.807 C 366.990 81.039,366.980 87.443,367.062 93.492 L 367.083 95.068 367.625 95.180 C 367.923 95.241,368.410 95.241,368.708 95.181 L 369.250 95.070 369.289 90.743 C 369.339 85.056,369.363 84.869,370.183 83.833 C 370.545 83.375,370.907 83.000,370.988 83.000 C 371.069 83.000,371.449 82.737,371.833 82.417 C 372.368 81.970,372.683 81.833,373.179 81.833 C 373.535 81.833,374.328 81.669,374.941 81.467 C 376.044 81.105,376.075 81.104,377.710 81.383 C 381.955 82.108,382.667 83.420,382.667 90.522 C 382.667 95.437,382.565 94.983,383.724 95.242 C 384.649 95.448,384.667 95.361,384.667 90.659 L 384.667 86.359 385.185 85.065 C 385.853 83.396,385.972 83.218,386.624 82.909 C 386.923 82.767,387.351 82.467,387.576 82.242 C 387.843 81.975,388.175 81.833,388.534 81.831 C 388.836 81.830,389.559 81.680,390.140 81.498 C 391.462 81.083,392.285 81.080,393.572 81.485 C 394.128 81.659,394.893 81.885,395.272 81.985 C 396.182 82.227,397.267 83.581,397.426 84.672 C 397.486 85.082,397.639 85.787,397.767 86.239 C 397.937 86.838,398.000 88.135,398.000 91.024 C 398.000 95.496,397.950 95.333,399.322 95.333 L 400.000 95.333 400.000 89.678 L 400.000 84.023 399.632 83.970 C 399.364 83.931,399.173 83.683,398.924 83.051 C 398.561 82.128,398.320 81.897,396.750 80.964 C 395.410 80.167,393.116 79.866,390.533 80.147 C 389.591 80.249,388.451 80.333,388.000 80.333 C 387.407 80.333,387.097 80.422,386.881 80.652 C 386.718 80.827,386.272 81.095,385.891 81.247 C 385.511 81.399,385.164 81.657,385.122 81.821 C 384.949 82.482,383.531 82.349,382.785 81.603 C 382.545 81.363,382.256 81.167,382.143 81.167 C 382.030 81.167,381.783 81.025,381.594 80.852 C 380.884 80.201,377.755 79.900,374.508 80.170 M316.005 81.261 C 316.507 81.405,317.320 81.637,317.812 81.776 C 321.491 82.815,323.438 85.761,322.664 89.116 C 322.399 90.264,321.017 92.227,320.167 92.662 C 319.846 92.827,319.286 93.120,318.923 93.314 C 318.560 93.508,318.129 93.667,317.965 93.667 C 317.802 93.667,317.199 93.831,316.626 94.032 C 313.872 94.998,309.880 94.013,307.711 91.833 C 306.422 90.538,306.352 90.434,306.238 89.667 C 306.177 89.254,306.024 88.751,305.897 88.548 C 305.606 88.081,305.605 87.606,305.894 87.033 C 306.019 86.786,306.164 86.247,306.217 85.835 C 306.271 85.413,306.444 84.977,306.615 84.835 C 306.781 84.697,307.128 84.259,307.386 83.862 C 307.654 83.450,308.089 83.043,308.399 82.913 C 308.698 82.788,309.040 82.569,309.158 82.427 C 309.277 82.284,309.752 82.055,310.214 81.918 C 310.677 81.781,311.175 81.560,311.321 81.428 C 311.572 81.201,312.297 81.103,314.255 81.031 C 314.717 81.014,315.504 81.118,316.005 81.261 " stroke="none" fill="#0f5357" fill-rule="evenodd">
		</path>
		<path id="path1" d="M310.083 0.791 C 308.469 0.925,307.805 1.207,307.468 1.906 C 306.954 2.973,306.369 4.017,306.118 4.312 C 305.992 4.461,305.787 4.846,305.663 5.167 C 305.540 5.487,305.134 6.190,304.761 6.728 C 303.835 8.065,303.672 8.365,303.669 8.739 C 303.668 8.917,303.523 9.217,303.348 9.406 C 303.173 9.595,302.644 10.500,302.174 11.417 C 301.703 12.333,301.062 13.533,300.751 14.083 C 300.439 14.633,300.037 15.394,299.856 15.773 C 299.675 16.153,299.465 16.490,299.389 16.523 C 299.312 16.556,299.077 16.921,298.865 17.333 C 298.653 17.746,298.230 18.533,297.924 19.083 C 297.618 19.633,297.201 20.440,296.997 20.875 C 296.793 21.310,296.570 21.667,296.502 21.667 C 296.434 21.667,296.252 21.998,296.098 22.402 C 295.943 22.806,295.718 23.175,295.596 23.222 C 295.475 23.269,295.324 23.579,295.262 23.913 C 295.199 24.246,295.001 24.665,294.822 24.845 C 294.642 25.024,294.372 25.489,294.221 25.877 C 294.069 26.266,293.808 26.718,293.639 26.881 C 293.471 27.045,293.333 27.279,293.333 27.400 C 293.333 27.521,293.135 27.912,292.894 28.268 C 292.652 28.625,292.377 29.141,292.284 29.416 C 292.190 29.692,291.938 30.129,291.723 30.388 C 291.509 30.647,291.333 30.960,291.333 31.083 C 291.333 31.207,291.161 31.520,290.949 31.779 C 290.738 32.038,290.240 32.908,289.843 33.713 C 289.446 34.517,289.048 35.221,288.958 35.276 C 288.869 35.331,288.625 35.763,288.416 36.236 C 288.206 36.710,287.922 37.190,287.784 37.305 C 287.646 37.420,287.482 37.717,287.420 37.965 C 287.358 38.213,287.209 38.529,287.088 38.667 C 286.967 38.804,286.498 39.629,286.045 40.500 C 285.119 42.281,284.735 42.969,284.246 43.727 C 284.060 44.015,283.805 44.568,283.678 44.956 C 283.552 45.344,283.310 45.787,283.141 45.940 C 282.972 46.093,282.833 46.308,282.833 46.417 C 282.833 46.527,282.626 46.909,282.373 47.267 C 282.120 47.624,281.587 48.573,281.189 49.375 C 280.790 50.177,280.403 50.833,280.329 50.833 C 280.254 50.833,280.110 51.084,280.009 51.390 C 279.908 51.696,279.640 52.198,279.413 52.505 C 278.958 53.122,278.875 53.856,279.227 54.148 C 279.403 54.294,309.082 54.468,312.530 54.343 C 312.847 54.332,313.833 52.964,313.833 52.536 C 313.833 52.381,314.016 51.879,314.239 51.419 C 314.462 50.959,314.914 49.946,315.243 49.167 C 315.573 48.387,316.025 47.375,316.248 46.917 C 316.471 46.458,316.699 45.843,316.755 45.549 C 316.811 45.256,316.999 44.835,317.173 44.613 C 317.347 44.392,317.625 43.845,317.791 43.397 C 318.357 41.871,316.710 41.985,337.996 41.996 C 350.420 42.003,356.801 42.064,357.132 42.179 C 357.631 42.354,358.834 44.462,359.100 45.631 C 359.156 45.880,359.534 46.772,359.940 47.614 C 360.345 48.456,360.825 49.576,361.007 50.103 C 361.188 50.629,361.454 51.190,361.598 51.350 C 361.743 51.509,361.949 51.927,362.057 52.278 C 362.166 52.629,362.478 53.233,362.752 53.619 L 363.250 54.321 379.583 54.358 C 397.858 54.399,396.618 54.414,397.125 54.144 C 397.725 53.824,397.442 52.352,396.487 50.833 C 395.817 49.768,395.000 48.357,395.000 48.265 C 395.000 48.209,394.775 47.853,394.500 47.474 C 394.225 47.094,394.000 46.691,394.000 46.579 C 394.000 46.466,393.891 46.284,393.759 46.174 C 393.626 46.064,393.389 45.623,393.231 45.195 C 393.073 44.767,392.816 44.267,392.659 44.083 C 392.503 43.900,392.280 43.450,392.164 43.083 C 392.048 42.717,391.854 42.358,391.732 42.287 C 391.611 42.215,391.163 41.465,390.736 40.620 C 390.310 39.775,389.835 38.896,389.681 38.667 C 389.527 38.438,389.305 38.063,389.187 37.833 C 389.070 37.604,388.721 36.967,388.411 36.417 C 388.101 35.867,387.683 35.079,387.482 34.667 C 387.281 34.254,386.799 33.429,386.412 32.833 C 386.025 32.237,385.620 31.475,385.512 31.138 C 385.404 30.802,385.211 30.440,385.083 30.333 C 384.955 30.227,384.761 29.865,384.651 29.528 C 384.541 29.192,384.282 28.712,384.074 28.463 C 383.866 28.213,383.608 27.744,383.501 27.421 C 383.395 27.098,383.234 26.833,383.145 26.833 C 383.055 26.833,382.802 26.428,382.583 25.932 C 382.364 25.436,382.105 24.982,382.009 24.922 C 381.912 24.862,381.750 24.485,381.649 24.084 C 381.548 23.682,381.323 23.225,381.149 23.068 C 380.976 22.910,380.833 22.691,380.833 22.580 C 380.833 22.470,380.608 22.096,380.333 21.750 C 380.058 21.404,379.833 21.035,379.833 20.930 C 379.833 20.825,379.590 20.353,379.292 19.882 C 378.382 18.444,378.103 17.941,377.877 17.333 C 377.758 17.012,377.557 16.672,377.431 16.578 C 377.304 16.483,377.084 16.145,376.942 15.828 C 376.799 15.510,376.441 14.838,376.146 14.333 C 375.851 13.829,375.200 12.629,374.699 11.667 C 374.198 10.704,373.654 9.744,373.489 9.534 C 373.325 9.323,373.143 8.937,373.085 8.676 C 373.028 8.415,372.838 8.072,372.663 7.914 C 372.489 7.756,372.259 7.354,372.152 7.022 C 372.046 6.689,371.830 6.267,371.673 6.083 C 371.516 5.900,371.284 5.487,371.158 5.167 C 371.032 4.846,370.776 4.343,370.589 4.048 C 369.681 2.617,369.370 2.047,369.274 1.645 C 369.077 0.811,365.826 0.714,342.750 0.856 C 339.140 0.878,339.049 0.934,339.849 2.646 C 340.133 3.253,340.538 4.125,340.751 4.583 C 340.964 5.042,341.369 5.896,341.652 6.482 C 341.935 7.068,342.167 7.677,342.167 7.836 C 342.167 7.996,342.272 8.213,342.400 8.320 C 342.529 8.426,342.684 8.717,342.744 8.965 C 342.805 9.213,343.075 9.886,343.344 10.459 C 343.613 11.032,343.833 11.604,343.833 11.730 C 343.833 11.856,343.942 12.049,344.075 12.159 C 344.207 12.269,344.445 12.710,344.603 13.138 C 344.762 13.566,345.058 14.217,345.262 14.583 C 345.467 14.950,345.683 15.485,345.742 15.771 C 345.802 16.058,346.034 16.541,346.259 16.845 C 346.483 17.149,346.667 17.485,346.667 17.592 C 346.667 17.699,346.881 18.191,347.144 18.685 C 347.407 19.179,347.679 19.771,347.750 20.000 C 347.821 20.229,348.017 20.593,348.185 20.809 C 348.354 21.024,348.539 21.474,348.597 21.809 C 348.655 22.143,348.895 22.702,349.130 23.050 C 349.761 23.986,349.851 25.371,349.304 25.730 C 348.607 26.187,326.972 26.048,326.514 25.583 C 326.021 25.083,326.636 23.068,327.840 21.242 C 328.018 20.972,328.165 20.629,328.166 20.482 C 328.166 20.334,328.381 19.772,328.642 19.232 C 328.904 18.692,329.354 17.762,329.642 17.167 C 329.931 16.571,330.167 15.962,330.167 15.814 C 330.167 15.666,330.309 15.363,330.484 15.142 C 330.658 14.920,330.884 14.432,330.985 14.058 C 331.085 13.683,331.307 13.198,331.478 12.980 C 331.648 12.762,331.845 12.396,331.914 12.167 C 332.086 11.602,332.905 9.762,333.416 8.792 C 333.646 8.356,333.833 7.860,333.833 7.690 C 333.833 7.519,334.032 7.088,334.274 6.732 C 334.516 6.375,334.827 5.746,334.964 5.333 C 335.101 4.921,335.307 4.471,335.422 4.333 C 335.720 3.976,336.500 1.956,336.500 1.540 C 336.500 1.149,334.874 0.551,334.355 0.751 C 334.206 0.809,330.933 0.836,327.083 0.811 C 317.510 0.750,310.683 0.742,310.083 0.791 " stroke="none" fill="#e31f2d" fill-rule="evenodd">
		</path>
		<path id="path2" d="M57.856 0.959 C 57.605 2.088,57.482 50.587,57.724 52.565 C 58.029 55.055,55.694 54.862,84.548 54.777 C 110.576 54.701,118.547 54.513,121.083 53.917 C 121.725 53.767,123.112 53.539,124.167 53.411 C 125.221 53.284,126.496 53.065,127.000 52.925 C 127.504 52.785,128.667 52.598,129.583 52.509 C 130.500 52.421,131.587 52.229,132.000 52.084 C 132.412 51.938,133.682 51.595,134.821 51.323 C 136.228 50.987,137.071 50.692,137.447 50.404 C 137.753 50.172,138.396 49.846,138.876 49.680 C 140.140 49.245,141.985 48.286,142.900 47.587 C 143.336 47.254,143.950 46.860,144.263 46.710 C 144.577 46.561,144.833 46.379,144.833 46.306 C 144.833 46.233,145.144 46.015,145.524 45.821 C 145.904 45.627,146.972 44.793,147.899 43.968 C 148.825 43.142,149.996 42.204,150.500 41.882 C 151.694 41.120,152.244 40.601,152.930 39.583 C 153.239 39.125,153.633 38.563,153.804 38.333 C 154.569 37.312,155.917 35.152,156.717 33.667 C 156.939 33.254,157.215 32.519,157.329 32.032 C 157.444 31.545,157.724 30.926,157.951 30.656 C 158.255 30.295,158.404 29.853,158.513 28.988 C 158.594 28.341,158.778 27.423,158.922 26.947 C 159.552 24.863,160.081 16.827,159.690 15.273 C 159.583 14.848,159.424 13.072,159.337 11.326 C 159.201 8.597,159.134 8.095,158.859 7.745 C 158.683 7.521,158.485 6.980,158.420 6.544 C 158.356 6.107,158.125 5.360,157.908 4.884 C 157.691 4.408,157.425 3.514,157.318 2.898 C 157.156 1.970,157.013 1.659,156.478 1.079 C 156.123 0.694,155.833 0.294,155.833 0.190 C 155.833 0.049,151.389 0.000,138.667 0.000 C 122.679 0.000,121.500 0.019,121.500 0.281 C 121.500 0.435,121.342 0.730,121.150 0.935 C 120.725 1.387,120.911 2.202,121.583 2.833 C 121.807 3.044,122.079 3.486,122.186 3.816 C 122.294 4.146,122.521 4.678,122.691 4.998 C 122.861 5.317,123.000 5.738,123.000 5.933 C 123.000 6.127,123.194 6.573,123.431 6.923 C 123.669 7.272,123.961 8.014,124.081 8.571 C 124.201 9.128,124.466 10.181,124.670 10.912 C 125.018 12.160,125.042 12.593,125.062 17.996 L 125.083 23.750 124.638 24.583 C 124.379 25.067,124.113 25.940,124.005 26.664 C 123.881 27.490,123.705 28.032,123.482 28.269 C 123.297 28.466,123.043 28.969,122.917 29.387 C 122.634 30.328,120.374 33.219,119.618 33.606 C 119.324 33.757,118.764 34.098,118.375 34.365 C 117.401 35.031,114.621 36.166,113.959 36.168 C 113.661 36.169,112.517 36.359,111.417 36.590 C 107.575 37.398,93.412 37.564,92.729 36.810 C 92.455 36.507,92.432 35.565,92.386 22.368 C 92.324 4.982,92.265 1.817,91.982 0.792 L 91.764 -0.000 74.916 -0.000 L 58.069 0.000 57.856 0.959 M307.833 0.186 C 307.833 0.289,307.608 0.630,307.332 0.944 C 307.056 1.258,306.613 1.947,306.346 2.476 C 306.079 3.004,305.747 3.531,305.608 3.646 C 305.469 3.762,305.309 4.067,305.252 4.324 C 305.195 4.582,304.968 5.038,304.746 5.338 C 304.525 5.639,304.033 6.492,303.653 7.234 C 302.595 9.300,302.189 10.056,301.960 10.379 C 301.844 10.542,301.600 10.969,301.417 11.327 C 301.233 11.685,300.777 12.527,300.404 13.198 C 300.030 13.868,299.624 14.679,299.502 15.000 C 299.379 15.321,299.157 15.733,299.008 15.917 C 298.858 16.100,298.606 16.512,298.446 16.833 C 298.286 17.154,298.035 17.642,297.888 17.917 C 297.396 18.835,297.181 19.245,296.797 19.993 C 296.588 20.402,296.293 20.863,296.142 21.018 C 295.991 21.173,295.815 21.551,295.750 21.858 C 295.686 22.165,295.493 22.529,295.321 22.667 C 295.148 22.804,294.620 23.667,294.147 24.583 C 293.674 25.500,293.132 26.550,292.942 26.917 C 292.753 27.283,292.510 27.658,292.401 27.750 C 292.166 27.949,290.833 30.676,290.833 30.958 C 290.833 31.066,290.697 31.228,290.530 31.317 C 290.363 31.407,290.122 31.803,289.994 32.198 C 289.867 32.593,289.628 33.015,289.464 33.134 C 289.301 33.254,289.167 33.487,289.167 33.651 C 289.167 33.816,288.982 34.206,288.757 34.517 C 288.532 34.828,288.237 35.325,288.101 35.621 C 287.965 35.917,287.696 36.328,287.504 36.534 C 287.311 36.741,287.109 37.099,287.055 37.330 C 287.001 37.561,286.818 37.903,286.648 38.091 C 286.479 38.278,286.253 38.690,286.147 39.007 C 286.041 39.324,285.823 39.733,285.664 39.917 C 285.505 40.100,285.285 40.530,285.175 40.873 C 285.065 41.215,284.910 41.536,284.830 41.585 C 284.680 41.678,283.667 43.130,283.667 43.251 C 283.667 43.421,281.915 46.845,281.408 47.667 C 281.097 48.171,280.698 48.883,280.522 49.250 C 280.346 49.617,280.044 50.047,279.851 50.207 C 279.658 50.366,279.500 50.637,279.500 50.808 C 279.500 50.980,279.320 51.385,279.100 51.710 C 278.880 52.034,278.647 52.475,278.583 52.691 C 278.518 52.907,278.359 53.252,278.229 53.458 C 278.006 53.811,278.018 53.833,278.418 53.833 C 278.679 53.833,278.878 53.721,278.931 53.542 C 278.979 53.381,279.126 53.063,279.257 52.833 C 279.388 52.604,279.657 52.079,279.855 51.667 C 280.052 51.254,280.272 50.894,280.344 50.865 C 280.416 50.837,280.798 50.162,281.193 49.365 C 281.589 48.569,282.120 47.624,282.373 47.267 C 282.626 46.909,282.833 46.527,282.833 46.417 C 282.833 46.308,282.972 46.093,283.141 45.940 C 283.310 45.787,283.552 45.344,283.678 44.956 C 283.805 44.568,284.060 44.015,284.246 43.727 C 284.735 42.969,285.119 42.281,286.045 40.500 C 286.498 39.629,286.967 38.804,287.088 38.667 C 287.209 38.529,287.358 38.213,287.420 37.965 C 287.482 37.717,287.646 37.420,287.784 37.305 C 287.922 37.190,288.206 36.710,288.416 36.236 C 288.625 35.763,288.869 35.331,288.958 35.276 C 289.048 35.221,289.446 34.517,289.843 33.713 C 290.240 32.908,290.738 32.038,290.949 31.779 C 291.161 31.520,291.333 31.207,291.333 31.083 C 291.333 30.960,291.509 30.647,291.723 30.388 C 291.938 30.129,292.190 29.692,292.284 29.416 C 292.377 29.141,292.652 28.625,292.894 28.268 C 293.135 27.912,293.333 27.521,293.333 27.400 C 293.333 27.279,293.471 27.045,293.639 26.881 C 293.808 26.718,294.069 26.266,294.221 25.877 C 294.372 25.489,294.642 25.024,294.822 24.845 C 295.001 24.665,295.199 24.246,295.262 23.913 C 295.324 23.579,295.475 23.269,295.596 23.222 C 295.718 23.175,295.943 22.806,296.098 22.402 C 296.252 21.998,296.434 21.667,296.502 21.667 C 296.570 21.667,296.793 21.310,296.997 20.875 C 297.201 20.440,297.618 19.633,297.924 19.083 C 298.230 18.533,298.653 17.746,298.865 17.333 C 299.077 16.921,299.312 16.556,299.389 16.523 C 299.465 16.490,299.675 16.153,299.856 15.773 C 300.037 15.394,300.439 14.633,300.751 14.083 C 301.062 13.533,301.703 12.333,302.174 11.417 C 302.644 10.500,303.173 9.595,303.348 9.406 C 303.523 9.217,303.668 8.917,303.669 8.739 C 303.672 8.365,303.835 8.065,304.761 6.728 C 305.134 6.190,305.540 5.487,305.663 5.167 C 305.787 4.846,305.992 4.461,306.118 4.312 C 306.368 4.018,306.952 2.976,307.466 1.912 C 308.023 0.758,309.103 0.698,327.121 0.813 C 330.992 0.838,334.239 0.809,334.336 0.748 C 334.433 0.688,334.893 0.737,335.357 0.856 C 336.136 1.055,336.220 1.047,336.434 0.754 C 337.007 -0.030,337.566 0.000,322.250 0.000 C 311.736 0.000,307.833 0.050,307.833 0.186 M338.839 0.651 C 338.575 1.451,338.726 2.387,339.188 2.818 C 339.375 2.992,339.601 3.460,339.691 3.859 C 339.780 4.257,339.992 4.733,340.162 4.917 C 340.331 5.100,340.552 5.557,340.651 5.932 C 340.751 6.307,340.973 6.742,341.146 6.898 C 341.319 7.054,341.508 7.481,341.566 7.846 C 341.624 8.211,341.851 8.864,342.070 9.296 C 343.290 11.710,344.325 13.983,344.419 14.458 C 344.478 14.756,344.679 15.107,344.866 15.237 C 345.074 15.383,345.263 15.783,345.353 16.269 C 345.435 16.706,345.645 17.218,345.819 17.407 C 345.994 17.596,346.219 18.059,346.319 18.437 C 346.419 18.814,346.640 19.302,346.810 19.520 C 346.979 19.738,347.215 20.217,347.333 20.583 C 347.452 20.950,347.688 21.429,347.858 21.647 C 348.028 21.866,348.167 22.309,348.167 22.632 C 348.167 23.001,348.321 23.421,348.583 23.765 C 349.062 24.392,349.088 24.619,348.738 25.083 C 348.484 25.419,329.518 25.724,327.875 25.419 C 327.250 25.303,327.147 24.779,327.584 23.939 C 327.721 23.677,327.833 23.217,327.833 22.918 C 327.833 22.619,327.943 22.283,328.077 22.172 C 328.211 22.061,328.369 21.808,328.428 21.610 C 328.487 21.412,328.973 20.338,329.507 19.224 C 330.042 18.109,330.532 16.909,330.597 16.557 C 330.662 16.205,330.891 15.705,331.107 15.446 C 331.323 15.186,331.502 14.886,331.505 14.779 C 331.508 14.671,331.733 14.135,332.005 13.588 C 332.277 13.040,332.500 12.504,332.500 12.396 C 332.500 12.289,332.725 11.773,333.000 11.250 C 333.275 10.727,333.500 10.206,333.500 10.092 C 333.500 9.978,333.645 9.753,333.823 9.593 C 334.001 9.432,334.229 8.916,334.329 8.446 C 334.430 7.976,334.650 7.440,334.819 7.254 C 334.987 7.068,335.251 6.529,335.405 6.054 C 335.559 5.580,335.787 5.107,335.913 5.003 C 336.038 4.899,336.191 4.515,336.253 4.149 C 336.315 3.783,336.522 3.338,336.712 3.160 C 337.094 2.804,337.082 2.759,336.559 2.598 C 336.249 2.503,336.166 2.593,335.935 3.272 C 335.788 3.703,335.565 4.174,335.440 4.320 C 335.315 4.465,335.101 4.921,334.964 5.333 C 334.827 5.746,334.516 6.375,334.274 6.732 C 334.032 7.088,333.833 7.519,333.833 7.690 C 333.833 7.860,333.646 8.356,333.416 8.792 C 332.905 9.762,332.086 11.602,331.914 12.167 C 331.845 12.396,331.648 12.762,331.478 12.980 C 331.307 13.198,331.085 13.683,330.985 14.058 C 330.884 14.432,330.658 14.920,330.484 15.142 C 330.309 15.363,330.167 15.666,330.167 15.814 C 330.167 15.962,329.931 16.571,329.642 17.167 C 329.354 17.762,328.904 18.692,328.642 19.232 C 328.381 19.772,328.166 20.334,328.166 20.482 C 328.165 20.629,328.018 20.972,327.840 21.242 C 326.636 23.068,326.021 25.083,326.514 25.583 C 326.971 26.047,348.608 26.186,349.305 25.729 C 349.851 25.371,349.761 23.986,349.130 23.050 C 348.895 22.702,348.655 22.143,348.597 21.809 C 348.539 21.474,348.354 21.024,348.185 20.809 C 348.017 20.593,347.821 20.229,347.750 20.000 C 347.679 19.771,347.407 19.179,347.144 18.685 C 346.881 18.191,346.667 17.699,346.667 17.592 C 346.667 17.485,346.483 17.149,346.259 16.845 C 346.034 16.541,345.802 16.058,345.742 15.771 C 345.683 15.485,345.467 14.950,345.262 14.583 C 345.058 14.217,344.762 13.566,344.603 13.138 C 344.445 12.710,344.207 12.269,344.075 12.159 C 343.942 12.049,343.833 11.856,343.833 11.730 C 343.833 11.604,343.613 11.032,343.344 10.459 C 343.075 9.886,342.805 9.213,342.744 8.965 C 342.684 8.717,342.529 8.426,342.400 8.320 C 342.272 8.213,342.167 7.996,342.167 7.836 C 342.167 7.677,341.935 7.068,341.652 6.482 C 340.831 4.782,340.382 3.818,339.935 2.790 C 339.705 2.261,339.400 1.785,339.258 1.730 C 338.868 1.580,338.947 1.347,339.458 1.136 C 340.058 0.888,342.782 0.839,356.370 0.832 C 368.621 0.825,369.087 0.855,369.274 1.645 C 369.370 2.047,369.681 2.617,370.589 4.048 C 370.776 4.343,371.032 4.846,371.158 5.167 C 371.284 5.487,371.516 5.900,371.673 6.083 C 371.830 6.267,372.046 6.689,372.152 7.022 C 372.259 7.354,372.489 7.756,372.663 7.914 C 372.838 8.072,373.028 8.415,373.085 8.676 C 373.143 8.937,373.325 9.323,373.489 9.534 C 373.654 9.744,374.198 10.704,374.699 11.667 C 375.200 12.629,375.851 13.829,376.146 14.333 C 376.441 14.838,376.799 15.510,376.942 15.828 C 377.084 16.145,377.304 16.483,377.431 16.578 C 377.557 16.672,377.758 17.012,377.877 17.333 C 378.103 17.941,378.382 18.444,379.292 19.882 C 379.590 20.353,379.833 20.825,379.833 20.930 C 379.833 21.035,380.058 21.404,380.333 21.750 C 380.608 22.096,380.833 22.470,380.833 22.580 C 380.833 22.691,380.976 22.910,381.149 23.068 C 381.323 23.225,381.548 23.682,381.649 24.084 C 381.750 24.485,381.912 24.862,382.009 24.922 C 382.105 24.982,382.364 25.436,382.583 25.932 C 382.802 26.428,383.055 26.833,383.145 26.833 C 383.234 26.833,383.395 27.098,383.501 27.421 C 383.608 27.744,383.866 28.213,384.074 28.463 C 384.282 28.712,384.541 29.192,384.651 29.528 C 384.761 29.865,384.955 30.227,385.083 30.333 C 385.211 30.440,385.404 30.802,385.512 31.138 C 385.620 31.475,386.025 32.237,386.412 32.833 C 386.799 33.429,387.281 34.254,387.482 34.667 C 387.683 35.079,388.101 35.867,388.411 36.417 C 388.721 36.967,389.070 37.604,389.187 37.833 C 389.305 38.063,389.527 38.438,389.681 38.667 C 389.835 38.896,390.310 39.775,390.736 40.620 C 391.163 41.465,391.611 42.215,391.732 42.287 C 391.854 42.358,392.048 42.717,392.164 43.083 C 392.280 43.450,392.503 43.900,392.659 44.083 C 392.816 44.267,393.073 44.767,393.231 45.195 C 393.389 45.623,393.626 46.064,393.759 46.174 C 393.891 46.284,394.000 46.466,394.000 46.579 C 394.000 46.691,394.225 47.094,394.500 47.474 C 394.775 47.853,395.000 48.209,395.000 48.265 C 395.000 48.374,396.034 50.144,396.500 50.833 C 396.655 51.063,396.883 51.530,397.006 51.872 C 397.210 52.435,397.257 52.470,397.507 52.244 C 397.777 52.000,397.267 50.456,396.820 50.163 C 396.747 50.116,396.543 49.740,396.367 49.328 C 396.190 48.916,395.923 48.477,395.773 48.352 C 395.623 48.228,395.500 48.039,395.500 47.932 C 395.500 47.724,394.575 46.192,394.023 45.486 C 393.838 45.249,393.636 44.836,393.574 44.569 C 393.511 44.302,393.338 43.898,393.189 43.672 C 392.916 43.258,392.805 43.053,391.226 40.017 C 390.754 39.110,390.210 38.210,390.017 38.017 C 389.825 37.825,389.667 37.548,389.667 37.402 C 389.667 37.099,388.680 35.667,388.472 35.667 C 388.396 35.667,388.333 35.546,388.333 35.399 C 388.333 35.091,387.580 33.538,386.723 32.083 C 386.400 31.533,386.017 30.783,385.872 30.417 C 385.727 30.050,385.472 29.571,385.304 29.353 C 385.137 29.134,385.000 28.818,385.000 28.650 C 385.000 28.482,384.775 28.089,384.500 27.775 C 384.225 27.462,384.000 27.090,384.000 26.949 C 384.000 26.808,383.827 26.480,383.615 26.221 C 383.404 25.962,382.941 25.150,382.586 24.417 C 382.232 23.683,381.768 22.871,381.555 22.612 C 381.341 22.353,381.167 22.007,381.167 21.843 C 381.167 21.680,380.942 21.263,380.667 20.917 C 380.392 20.571,380.167 20.196,380.167 20.083 C 380.167 19.971,379.942 19.596,379.667 19.250 C 379.392 18.904,379.167 18.533,379.167 18.426 C 379.167 18.319,378.983 17.983,378.759 17.678 C 378.534 17.374,378.305 16.915,378.248 16.658 C 378.191 16.400,378.034 16.098,377.899 15.985 C 377.764 15.873,377.273 15.024,376.808 14.099 C 376.344 13.174,375.907 12.379,375.839 12.333 C 375.770 12.287,375.555 11.912,375.360 11.500 C 375.165 11.088,374.745 10.300,374.427 9.750 C 374.109 9.200,373.739 8.523,373.605 8.247 C 373.471 7.970,373.212 7.609,373.030 7.444 C 372.848 7.280,372.652 6.889,372.593 6.577 C 372.535 6.265,372.313 5.801,372.101 5.547 C 371.889 5.292,371.623 4.803,371.512 4.460 C 371.400 4.117,371.212 3.779,371.094 3.710 C 370.976 3.640,370.715 3.246,370.515 2.833 C 369.971 1.715,369.562 1.012,369.265 0.684 C 369.119 0.522,369.000 0.303,369.000 0.195 C 369.000 0.047,365.357 0.000,354.027 0.000 L 339.053 0.000 338.839 0.651 M319.549 42.012 C 318.533 42.221,318.102 42.560,317.792 43.397 C 317.625 43.845,317.347 44.392,317.173 44.613 C 316.999 44.835,316.811 45.256,316.755 45.549 C 316.699 45.843,316.471 46.458,316.248 46.917 C 316.025 47.375,315.573 48.387,315.243 49.167 C 314.914 49.946,314.462 50.959,314.239 51.419 C 314.016 51.879,313.833 52.381,313.833 52.536 C 313.833 52.964,312.847 54.332,312.530 54.343 C 309.491 54.453,279.395 54.295,279.268 54.168 C 278.935 53.835,277.966 53.959,278.154 54.310 C 278.677 55.287,277.675 55.232,295.833 55.275 C 306.940 55.301,312.564 55.257,312.863 55.142 C 313.379 54.943,314.094 53.975,314.261 53.250 C 314.324 52.975,314.519 52.513,314.693 52.223 C 314.867 51.933,315.120 51.323,315.255 50.868 C 315.390 50.412,315.609 49.950,315.742 49.840 C 315.875 49.730,316.069 49.365,316.175 49.028 C 316.281 48.692,316.547 48.046,316.767 47.592 C 316.987 47.139,317.167 46.660,317.167 46.529 C 317.167 46.398,317.383 45.906,317.647 45.437 C 317.911 44.967,318.213 44.313,318.318 43.983 C 318.676 42.860,317.636 42.925,336.583 42.833 C 357.666 42.731,356.832 42.666,357.672 44.474 C 357.871 44.901,358.169 45.400,358.336 45.583 C 358.503 45.767,358.694 46.217,358.760 46.583 C 358.827 46.950,359.095 47.654,359.357 48.148 C 359.619 48.643,359.833 49.139,359.833 49.251 C 359.833 49.363,359.972 49.634,360.142 49.853 C 360.312 50.071,360.580 50.643,360.738 51.123 C 360.896 51.603,361.089 52.036,361.167 52.084 C 361.245 52.132,361.399 52.443,361.508 52.775 C 361.667 53.256,362.296 54.351,362.571 54.626 C 362.667 54.723,362.476 53.753,362.333 53.417 C 362.255 53.233,362.146 52.810,362.091 52.475 C 362.036 52.141,361.840 51.675,361.656 51.441 C 361.471 51.206,361.176 50.594,360.999 50.080 C 360.822 49.566,360.345 48.456,359.940 47.614 C 359.534 46.772,359.156 45.880,359.100 45.631 C 358.792 44.279,357.625 42.334,357.017 42.161 C 356.377 41.979,320.408 41.836,319.549 42.012 M363.715 54.539 C 363.058 55.388,361.898 55.335,380.161 55.288 C 389.410 55.264,397.011 55.208,397.053 55.164 C 397.094 55.120,397.065 54.917,396.988 54.715 L 396.849 54.346 380.364 54.337 C 367.242 54.329,363.846 54.371,363.715 54.539 " stroke="none" fill="#f7bb66" fill-rule="evenodd">
		</path>
		<path id="path3" d="M33.431 0.458 C 33.713 1.408,33.698 54.010,33.416 54.441 C 32.793 55.391,33.756 55.340,16.566 55.338 C 7.867 55.337,0.581 55.382,0.375 55.438 L -0.000 55.539 -0.000 61.603 L 0.000 67.667 200.000 67.667 L 400.000 67.667 400.000 33.833 L 400.000 0.000 384.500 0.000 C 368.336 0.000,368.635 -0.013,369.265 0.684 C 369.562 1.012,369.971 1.715,370.515 2.833 C 370.715 3.246,370.976 3.640,371.094 3.710 C 371.212 3.779,371.400 4.117,371.512 4.460 C 371.623 4.803,371.889 5.292,372.101 5.547 C 372.313 5.801,372.535 6.265,372.593 6.577 C 372.652 6.889,372.848 7.280,373.030 7.444 C 373.212 7.609,373.471 7.970,373.605 8.247 C 373.739 8.523,374.109 9.200,374.427 9.750 C 374.745 10.300,375.165 11.088,375.360 11.500 C 375.555 11.912,375.770 12.287,375.839 12.333 C 375.907 12.379,376.344 13.174,376.808 14.099 C 377.273 15.024,377.764 15.873,377.899 15.985 C 378.034 16.098,378.191 16.400,378.248 16.658 C 378.305 16.915,378.534 17.374,378.759 17.678 C 378.983 17.983,379.167 18.319,379.167 18.426 C 379.167 18.533,379.392 18.904,379.667 19.250 C 379.942 19.596,380.167 19.971,380.167 20.083 C 380.167 20.196,380.392 20.571,380.667 20.917 C 380.942 21.263,381.167 21.680,381.167 21.843 C 381.167 22.007,381.341 22.353,381.555 22.612 C 381.768 22.871,382.232 23.683,382.586 24.417 C 382.941 25.150,383.404 25.962,383.615 26.221 C 383.827 26.480,384.000 26.808,384.000 26.949 C 384.000 27.090,384.225 27.462,384.500 27.775 C 384.775 28.089,385.000 28.482,385.000 28.650 C 385.000 28.818,385.136 29.134,385.303 29.353 C 385.470 29.571,385.709 30.012,385.835 30.333 C 385.961 30.654,386.331 31.388,386.657 31.964 C 387.817 34.013,388.316 34.924,388.588 35.489 C 388.740 35.804,389.044 36.299,389.265 36.588 C 389.486 36.878,389.667 37.239,389.667 37.391 C 389.667 37.542,389.825 37.825,390.017 38.017 C 390.210 38.210,390.754 39.110,391.226 40.017 C 392.805 43.053,392.916 43.258,393.189 43.672 C 393.338 43.898,393.511 44.302,393.574 44.569 C 393.636 44.836,393.838 45.249,394.023 45.486 C 394.575 46.192,395.500 47.724,395.500 47.932 C 395.500 48.039,395.623 48.228,395.773 48.352 C 395.923 48.477,396.183 48.899,396.351 49.291 C 396.519 49.682,396.741 50.096,396.846 50.210 C 397.032 50.413,397.204 50.727,398.305 52.883 C 398.847 53.942,398.854 53.981,398.574 54.408 C 398.016 55.259,398.667 55.228,380.315 55.283 L 363.047 55.335 362.379 54.360 C 362.011 53.824,361.620 53.112,361.509 52.779 C 361.399 52.445,361.245 52.132,361.167 52.084 C 361.089 52.036,360.896 51.603,360.738 51.123 C 360.580 50.643,360.312 50.071,360.142 49.853 C 359.972 49.634,359.833 49.363,359.833 49.251 C 359.833 49.139,359.619 48.643,359.357 48.148 C 359.095 47.654,358.827 46.950,358.760 46.583 C 358.694 46.217,358.503 45.767,358.336 45.583 C 358.169 45.400,357.871 44.901,357.672 44.474 C 356.832 42.666,357.666 42.731,336.583 42.833 C 317.636 42.925,318.676 42.860,318.318 43.983 C 318.213 44.313,317.911 44.967,317.647 45.437 C 317.383 45.906,317.167 46.398,317.167 46.529 C 317.167 46.660,316.987 47.139,316.767 47.592 C 316.547 48.046,316.281 48.692,316.175 49.028 C 316.069 49.365,315.875 49.730,315.742 49.840 C 315.609 49.950,315.390 50.412,315.255 50.868 C 315.120 51.323,314.867 51.933,314.693 52.223 C 314.519 52.513,314.324 52.975,314.261 53.250 C 314.094 53.975,313.379 54.943,312.863 55.142 C 312.564 55.257,306.932 55.302,295.828 55.277 L 279.239 55.241 278.713 54.866 C 278.062 54.403,277.909 53.965,278.224 53.466 C 278.357 53.256,278.518 52.907,278.583 52.691 C 278.647 52.475,278.880 52.034,279.100 51.710 C 279.320 51.385,279.500 50.980,279.500 50.808 C 279.500 50.637,279.658 50.366,279.851 50.207 C 280.044 50.047,280.346 49.617,280.522 49.250 C 280.698 48.883,281.097 48.171,281.408 47.667 C 281.915 46.845,283.667 43.421,283.667 43.251 C 283.667 43.130,284.680 41.678,284.830 41.585 C 284.910 41.536,285.065 41.215,285.175 40.873 C 285.285 40.530,285.505 40.100,285.664 39.917 C 285.823 39.733,286.041 39.324,286.147 39.007 C 286.253 38.690,286.479 38.278,286.648 38.091 C 286.818 37.903,287.001 37.561,287.055 37.330 C 287.109 37.099,287.311 36.741,287.504 36.534 C 287.696 36.328,287.965 35.917,288.101 35.621 C 288.237 35.325,288.532 34.828,288.757 34.517 C 288.982 34.206,289.167 33.816,289.167 33.651 C 289.167 33.487,289.301 33.254,289.464 33.134 C 289.628 33.015,289.867 32.593,289.994 32.198 C 290.122 31.803,290.363 31.407,290.530 31.317 C 290.697 31.228,290.833 31.066,290.833 30.958 C 290.833 30.676,292.166 27.949,292.401 27.750 C 292.510 27.658,292.753 27.283,292.942 26.917 C 293.132 26.550,293.674 25.500,294.147 24.583 C 294.620 23.667,295.148 22.804,295.321 22.667 C 295.493 22.529,295.686 22.165,295.750 21.858 C 295.815 21.551,295.991 21.173,296.142 21.018 C 296.293 20.863,296.588 20.402,296.797 19.993 C 297.007 19.584,297.288 19.044,297.422 18.792 C 297.557 18.540,297.777 18.127,297.911 17.875 C 298.046 17.623,298.286 17.154,298.446 16.833 C 298.606 16.512,298.858 16.100,299.008 15.917 C 299.157 15.733,299.379 15.321,299.502 15.000 C 299.624 14.679,300.030 13.868,300.404 13.198 C 300.777 12.527,301.233 11.685,301.417 11.327 C 301.600 10.969,301.844 10.542,301.960 10.379 C 302.189 10.056,302.595 9.300,303.653 7.234 C 304.033 6.492,304.525 5.639,304.746 5.338 C 304.968 5.038,305.195 4.582,305.252 4.324 C 305.309 4.067,305.469 3.762,305.608 3.646 C 305.747 3.531,306.079 3.004,306.346 2.476 C 306.613 1.947,307.056 1.258,307.332 0.944 C 307.608 0.630,307.833 0.289,307.833 0.186 C 307.833 0.049,295.131 0.000,259.953 0.000 L 212.073 0.000 212.133 2.792 C 212.167 4.327,212.249 5.808,212.316 6.083 L 212.438 6.583 238.427 6.667 C 266.596 6.757,265.225 6.710,265.563 7.591 C 265.801 8.211,265.677 22.423,265.430 22.760 C 265.198 23.077,264.683 23.085,238.722 23.167 L 212.250 23.250 212.250 29.945 C 212.250 33.627,212.293 36.682,212.345 36.734 C 212.397 36.786,225.447 36.835,241.345 36.843 C 269.833 36.858,271.322 36.885,271.341 37.388 C 271.517 42.041,271.293 54.475,271.026 54.832 L 270.714 55.250 224.234 55.250 L 177.754 55.250 177.549 54.822 C 177.325 54.354,177.209 1.612,177.430 0.542 L 177.542 0.000 166.688 0.000 C 158.684 0.000,155.833 0.050,155.833 0.190 C 155.833 0.294,156.123 0.694,156.478 1.079 C 157.013 1.659,157.156 1.970,157.318 2.898 C 157.425 3.514,157.691 4.408,157.908 4.884 C 158.125 5.360,158.356 6.107,158.420 6.544 C 158.485 6.980,158.683 7.521,158.859 7.745 C 159.134 8.095,159.201 8.597,159.337 11.326 C 159.424 13.072,159.583 14.848,159.690 15.273 C 160.081 16.827,159.552 24.863,158.922 26.947 C 158.778 27.423,158.594 28.341,158.513 28.988 C 158.404 29.853,158.255 30.295,157.951 30.656 C 157.724 30.926,157.444 31.545,157.329 32.032 C 157.215 32.519,156.939 33.254,156.717 33.667 C 155.917 35.152,154.569 37.312,153.804 38.333 C 153.633 38.563,153.239 39.125,152.930 39.583 C 152.244 40.601,151.694 41.120,150.500 41.882 C 149.996 42.204,148.825 43.142,147.899 43.968 C 146.972 44.793,145.904 45.627,145.524 45.821 C 145.144 46.015,144.833 46.233,144.833 46.306 C 144.833 46.379,144.577 46.561,144.263 46.710 C 143.950 46.860,143.336 47.254,142.900 47.587 C 141.985 48.286,140.140 49.245,138.876 49.680 C 138.396 49.846,137.753 50.172,137.447 50.404 C 137.071 50.692,136.228 50.987,134.821 51.323 C 133.682 51.595,132.412 51.938,132.000 52.084 C 131.587 52.229,130.500 52.421,129.583 52.509 C 128.667 52.598,127.504 52.785,127.000 52.925 C 126.496 53.065,125.221 53.284,124.167 53.411 C 123.112 53.539,121.725 53.767,121.083 53.917 C 118.547 54.513,110.576 54.701,84.548 54.777 C 55.694 54.862,58.029 55.055,57.724 52.565 C 57.510 50.820,57.604 1.687,57.822 1.112 C 58.286 -0.107,59.460 0.000,45.647 0.000 L 33.294 0.000 33.431 0.458 M91.903 0.458 C 92.239 1.884,92.320 5.304,92.370 20.112 C 92.421 35.563,92.441 36.492,92.723 36.804 C 93.411 37.564,107.553 37.402,111.417 36.590 C 112.517 36.359,113.661 36.169,113.959 36.168 C 114.621 36.166,117.401 35.031,118.375 34.365 C 118.764 34.098,119.324 33.757,119.618 33.606 C 120.374 33.219,122.634 30.328,122.917 29.387 C 123.043 28.969,123.297 28.466,123.482 28.269 C 123.705 28.032,123.881 27.490,124.005 26.664 C 124.113 25.940,124.379 25.067,124.638 24.583 L 125.083 23.750 125.062 17.996 C 125.042 12.593,125.018 12.160,124.670 10.912 C 124.466 10.181,124.201 9.128,124.081 8.571 C 123.961 8.014,123.669 7.272,123.431 6.923 C 123.194 6.573,123.000 6.127,123.000 5.933 C 123.000 5.738,122.861 5.317,122.691 4.998 C 122.521 4.678,122.294 4.146,122.186 3.816 C 122.079 3.486,121.807 3.044,121.583 2.833 C 120.911 2.202,120.725 1.387,121.150 0.935 C 122.080 -0.056,122.949 0.000,106.647 0.000 L 91.794 0.000 91.903 0.458 M337.216 0.708 C 337.344 1.673,337.112 2.788,336.703 3.168 C 336.517 3.341,336.315 3.783,336.253 4.149 C 336.191 4.515,336.038 4.899,335.913 5.003 C 335.787 5.107,335.559 5.580,335.405 6.054 C 335.251 6.529,334.987 7.068,334.819 7.254 C 334.650 7.440,334.430 7.976,334.329 8.446 C 334.229 8.916,334.001 9.432,333.823 9.593 C 333.645 9.753,333.500 9.978,333.500 10.092 C 333.500 10.206,333.275 10.727,333.000 11.250 C 332.725 11.773,332.500 12.289,332.500 12.396 C 332.500 12.504,332.277 13.040,332.005 13.588 C 331.733 14.135,331.508 14.671,331.505 14.779 C 331.502 14.886,331.323 15.186,331.107 15.446 C 330.891 15.705,330.662 16.205,330.597 16.557 C 330.532 16.909,330.042 18.109,329.507 19.224 C 328.973 20.338,328.487 21.412,328.428 21.610 C 328.369 21.808,328.211 22.061,328.077 22.172 C 327.943 22.283,327.833 22.619,327.833 22.918 C 327.833 23.217,327.721 23.677,327.584 23.939 C 327.147 24.779,327.250 25.303,327.875 25.419 C 329.518 25.724,348.484 25.419,348.738 25.083 C 349.088 24.619,349.062 24.392,348.583 23.765 C 348.321 23.421,348.167 23.001,348.167 22.632 C 348.167 22.309,348.028 21.866,347.858 21.647 C 347.688 21.429,347.452 20.950,347.333 20.583 C 347.215 20.217,346.979 19.738,346.810 19.520 C 346.640 19.302,346.419 18.814,346.319 18.437 C 346.219 18.059,345.994 17.596,345.819 17.407 C 345.645 17.218,345.435 16.706,345.353 16.269 C 345.263 15.783,345.074 15.383,344.866 15.237 C 344.679 15.107,344.478 14.756,344.419 14.458 C 344.325 13.983,343.290 11.710,342.070 9.296 C 341.851 8.864,341.624 8.211,341.566 7.846 C 341.508 7.481,341.319 7.054,341.146 6.898 C 340.973 6.742,340.751 6.307,340.651 5.932 C 340.552 5.557,340.331 5.100,340.162 4.917 C 339.992 4.733,339.780 4.257,339.691 3.859 C 339.601 3.460,339.375 2.992,339.188 2.818 C 338.747 2.407,338.567 1.424,338.810 0.753 C 339.084 -0.005,339.089 0.000,338.061 -0.000 L 337.121 -0.000 337.216 0.708 M0.000 85.000 L 0.000 100.167 200.000 100.167 L 400.000 100.167 400.000 98.167 L 400.000 96.167 399.521 96.167 C 398.904 96.167,397.687 95.737,397.293 95.380 C 397.009 95.123,396.988 94.790,397.012 90.926 C 397.066 82.387,396.376 81.606,389.386 82.307 C 388.382 82.408,388.121 82.501,387.769 82.880 C 387.538 83.130,387.289 83.336,387.216 83.340 C 386.653 83.369,385.972 84.346,385.813 85.354 C 385.364 88.194,385.174 92.457,385.416 94.250 C 385.497 94.851,385.443 94.983,384.865 95.595 L 384.223 96.274 383.153 95.875 C 382.565 95.656,382.021 95.416,381.945 95.341 C 381.868 95.267,381.787 92.928,381.763 90.145 C 381.715 84.320,381.748 84.484,380.374 83.339 C 378.786 82.015,373.672 81.661,372.536 82.797 C 372.333 83.000,372.106 83.167,372.033 83.167 C 371.671 83.167,370.681 84.328,370.514 84.947 C 370.413 85.322,370.216 85.723,370.076 85.840 C 369.857 86.022,369.823 86.705,369.842 90.646 L 369.863 95.240 369.476 95.553 C 368.937 95.990,366.914 95.897,366.565 95.420 C 366.278 95.027,366.220 81.375,366.502 80.565 C 366.961 79.248,369.084 79.057,369.667 80.280 C 369.952 80.880,370.683 80.888,371.163 80.298 C 371.326 80.097,371.774 79.933,372.417 79.840 C 372.967 79.760,373.642 79.583,373.917 79.447 C 374.722 79.049,377.406 78.934,378.500 79.252 C 379.004 79.398,379.942 79.631,380.583 79.771 C 381.255 79.916,381.863 80.155,382.016 80.332 C 382.163 80.502,382.572 80.762,382.926 80.910 C 383.280 81.058,383.709 81.329,383.880 81.511 C 384.188 81.842,384.192 81.842,384.662 81.339 C 384.921 81.061,385.248 80.833,385.387 80.833 C 385.527 80.833,385.876 80.636,386.162 80.395 C 386.584 80.040,386.938 79.931,388.021 79.822 C 388.756 79.747,389.467 79.597,389.599 79.487 C 390.096 79.075,392.721 78.980,393.784 79.335 C 394.315 79.513,394.984 79.660,395.271 79.663 C 395.900 79.668,397.186 80.097,397.417 80.379 C 397.508 80.492,397.861 80.712,398.201 80.869 C 398.817 81.153,399.188 81.673,399.396 82.542 C 399.457 82.794,399.617 83.000,399.753 83.000 C 399.967 83.000,400.000 82.120,400.000 76.417 L 400.000 69.833 200.000 69.833 L 0.000 69.833 0.000 85.000 M292.515 79.314 C 293.194 79.487,294.162 79.714,294.667 79.819 C 296.675 80.236,299.522 82.524,299.887 84.015 C 300.250 85.495,297.537 85.651,296.059 84.236 C 295.621 83.815,295.034 83.357,294.756 83.216 C 294.478 83.076,294.100 82.828,293.917 82.666 C 293.698 82.473,293.037 82.298,292.000 82.160 C 288.172 81.651,285.698 82.153,284.019 83.781 C 283.800 83.993,283.489 84.167,283.327 84.167 C 283.146 84.167,282.961 84.372,282.846 84.701 C 282.744 84.995,282.496 85.410,282.295 85.624 C 281.692 86.266,281.751 89.239,282.382 89.989 C 282.630 90.284,282.833 90.672,282.833 90.850 C 282.833 91.047,283.005 91.240,283.268 91.340 C 283.507 91.431,283.974 91.729,284.306 92.003 C 284.638 92.276,284.981 92.500,285.069 92.500 C 285.157 92.500,285.385 92.647,285.576 92.826 C 285.873 93.105,288.575 93.556,289.750 93.523 C 291.195 93.482,293.642 93.093,293.917 92.861 C 294.100 92.706,294.493 92.445,294.791 92.280 C 295.089 92.116,295.664 91.631,296.070 91.201 L 296.808 90.420 298.137 90.360 C 299.685 90.290,300.301 90.625,300.014 91.381 C 299.760 92.047,298.825 93.326,298.446 93.525 C 298.247 93.629,297.802 93.966,297.458 94.274 C 297.114 94.582,296.751 94.833,296.651 94.833 C 296.551 94.833,296.284 94.979,296.058 95.157 C 295.831 95.335,295.220 95.570,294.698 95.679 C 294.177 95.788,293.241 96.026,292.618 96.207 C 291.029 96.670,287.138 96.578,286.000 96.051 C 285.587 95.860,284.940 95.653,284.562 95.591 C 284.143 95.522,283.736 95.319,283.521 95.072 C 283.301 94.819,282.989 94.667,282.691 94.667 C 280.668 94.667,278.100 90.788,278.111 87.750 C 278.123 84.665,280.708 80.833,282.777 80.833 C 282.936 80.833,283.257 80.654,283.491 80.434 C 283.735 80.206,284.303 79.955,284.822 79.846 C 285.320 79.742,285.822 79.579,285.937 79.483 C 286.576 78.953,290.682 78.848,292.515 79.314 M316.928 79.181 C 318.288 79.430,319.802 79.949,320.500 80.405 C 320.821 80.614,321.327 80.881,321.625 80.997 C 321.923 81.112,322.167 81.268,322.167 81.343 C 322.167 81.418,322.471 81.650,322.842 81.858 C 323.481 82.218,325.000 83.860,325.000 84.193 C 325.000 84.277,325.169 84.575,325.375 84.854 C 325.999 85.697,325.941 89.668,325.292 90.606 C 325.040 90.970,324.833 91.339,324.832 91.426 C 324.829 91.946,321.815 94.667,321.243 94.667 C 321.138 94.667,320.840 94.848,320.582 95.071 C 319.148 96.302,311.259 97.032,310.316 96.020 C 310.160 95.852,309.739 95.668,309.382 95.610 C 308.989 95.548,308.588 95.341,308.367 95.087 C 308.114 94.795,307.833 94.667,307.449 94.667 C 307.052 94.667,306.761 94.526,306.417 94.167 C 306.153 93.892,305.860 93.667,305.766 93.667 C 305.377 93.667,303.492 91.421,303.322 90.756 C 303.136 90.029,303.108 89.960,302.746 89.333 C 302.368 88.679,302.416 86.485,302.820 85.972 C 302.995 85.748,303.195 85.270,303.262 84.908 C 303.443 83.940,305.181 81.833,305.797 81.833 C 305.979 81.833,306.239 81.665,306.374 81.458 C 306.509 81.252,306.912 80.981,307.268 80.855 C 307.625 80.730,308.078 80.480,308.275 80.300 C 308.473 80.120,308.960 79.931,309.359 79.881 C 309.757 79.831,310.212 79.678,310.368 79.542 C 310.975 79.014,314.850 78.801,316.928 79.181 M341.301 79.429 C 341.640 79.571,342.288 79.759,342.741 79.846 C 343.195 79.933,343.720 80.144,343.908 80.315 C 344.096 80.486,344.535 80.717,344.883 80.828 C 345.232 80.940,345.606 81.174,345.715 81.349 C 345.964 81.747,346.199 81.753,346.441 81.365 C 346.545 81.199,346.950 80.968,347.342 80.851 C 347.733 80.733,348.175 80.488,348.323 80.305 C 348.538 80.039,348.891 79.947,350.088 79.847 C 350.969 79.773,351.817 79.600,352.152 79.426 C 352.983 78.994,354.441 78.901,355.229 79.231 C 355.584 79.379,356.076 79.500,356.323 79.500 C 357.003 79.500,359.150 80.101,359.469 80.380 C 359.623 80.516,359.983 80.744,360.268 80.889 C 360.566 81.039,360.880 81.385,361.007 81.700 C 361.128 82.003,361.396 82.455,361.602 82.707 C 361.839 82.997,362.019 83.513,362.096 84.123 C 362.161 84.651,362.355 85.350,362.525 85.677 C 362.802 86.208,362.835 86.722,362.845 90.645 C 362.859 95.781,362.940 95.546,360.997 95.982 C 360.126 96.178,358.884 95.167,359.225 94.540 C 359.611 93.831,359.122 85.865,358.591 84.190 C 358.539 84.027,358.068 83.524,357.544 83.072 L 356.591 82.250 353.624 82.262 C 350.843 82.274,350.629 82.297,350.204 82.636 C 349.954 82.834,349.506 83.106,349.208 83.240 C 348.910 83.374,348.667 83.559,348.667 83.651 C 348.667 83.744,348.460 84.011,348.208 84.245 L 347.750 84.669 347.667 89.876 C 347.572 95.786,347.669 95.383,346.233 95.826 L 345.147 96.162 344.480 95.545 C 343.981 95.083,343.839 94.843,343.916 94.589 C 344.189 93.684,344.019 87.397,343.676 85.711 C 343.239 83.567,343.241 83.571,342.631 83.318 C 342.349 83.202,341.936 82.937,341.713 82.730 C 340.819 81.902,335.827 81.985,334.500 82.850 C 332.228 84.331,332.138 84.642,332.179 90.890 L 332.207 95.083 331.645 95.473 C 330.918 95.978,329.196 95.937,328.662 95.403 C 328.198 94.939,328.119 81.232,328.575 80.349 C 328.882 79.756,329.769 79.304,330.197 79.523 C 330.352 79.602,330.614 79.668,330.781 79.670 C 330.947 79.671,331.409 79.893,331.807 80.163 L 332.531 80.654 332.974 80.336 C 333.217 80.161,333.904 79.932,334.500 79.827 C 335.096 79.723,335.689 79.550,335.817 79.444 C 336.394 78.966,340.176 78.956,341.301 79.429 M313.083 82.022 C 312.717 82.090,311.854 82.221,311.167 82.313 C 310.208 82.442,309.863 82.561,309.688 82.824 C 309.562 83.012,309.350 83.167,309.217 83.167 C 308.966 83.167,307.899 84.218,307.167 85.186 C 306.776 85.703,306.750 85.860,306.750 87.750 C 306.750 89.640,306.776 89.797,307.167 90.312 C 307.915 91.298,308.996 92.333,309.277 92.333 C 309.428 92.333,309.794 92.518,310.089 92.743 C 311.312 93.676,318.208 93.667,318.567 92.733 C 318.618 92.600,319.006 92.343,319.429 92.162 C 321.418 91.309,322.684 87.989,321.746 86.083 C 321.521 85.625,321.336 85.172,321.335 85.076 C 321.332 84.720,320.122 83.636,319.366 83.312 C 318.936 83.127,318.463 82.867,318.316 82.734 C 317.839 82.303,314.226 81.811,313.083 82.022 " stroke="none" fill="#f9fbfa" fill-rule="evenodd">
		</path>
		<path id="path4" d="M0.000 0.417 C 0.000 0.955,-1.280 0.917,16.750 0.917 C 32.777 0.917,32.511 0.903,32.829 1.739 C 33.194 2.698,32.954 53.620,32.583 53.991 C 32.255 54.318,32.020 54.324,18.083 54.333 C 10.292 54.338,3.035 54.388,1.958 54.446 L 0.000 54.550 -0.000 54.983 L -0.000 55.417 16.042 55.375 C 24.865 55.352,32.185 55.333,32.308 55.333 C 32.432 55.333,32.788 55.078,33.100 54.767 L 33.667 54.200 33.667 27.852 C 33.667 7.797,33.619 1.325,33.465 0.752 L 33.264 0.000 16.632 0.000 L 0.000 0.000 0.000 0.417 M177.409 0.625 C 177.134 1.706,177.364 54.719,177.646 55.058 C 177.858 55.314,181.271 55.331,224.294 55.292 L 270.714 55.250 271.026 54.832 C 271.293 54.475,271.517 42.041,271.341 37.388 C 271.322 36.885,269.833 36.858,241.345 36.843 C 225.447 36.835,212.397 36.786,212.345 36.734 C 212.293 36.682,212.250 33.627,212.250 29.945 L 212.250 23.250 238.722 23.167 C 264.683 23.085,265.198 23.077,265.430 22.760 C 265.854 22.180,265.774 7.774,265.344 7.344 C 264.671 6.671,264.568 6.669,238.135 6.668 C 217.825 6.667,212.492 6.624,212.388 6.458 C 212.316 6.344,212.206 4.862,212.145 3.167 C 212.084 1.471,212.026 0.065,212.017 0.042 C 212.008 0.019,204.253 0.000,194.784 0.000 L 177.569 0.000 177.409 0.625 M336.479 0.589 C 336.331 0.907,336.281 1.167,336.369 1.167 C 336.457 1.167,336.503 1.485,336.473 1.875 C 336.390 2.918,337.072 3.042,337.211 2.009 C 337.433 0.357,336.990 -0.502,336.479 0.589 M211.508 1.108 C 211.634 1.234,211.712 2.276,211.736 4.145 C 211.768 6.633,211.811 7.033,212.077 7.327 C 212.379 7.660,212.550 7.663,238.593 7.706 C 253.010 7.730,264.868 7.813,264.944 7.889 C 265.090 8.034,265.036 22.353,264.890 22.499 C 264.843 22.546,252.963 22.603,238.489 22.627 L 212.172 22.671 211.911 23.068 C 211.485 23.719,211.593 36.760,212.028 37.195 C 212.321 37.488,213.459 37.500,241.321 37.500 C 267.452 37.500,270.335 37.526,270.571 37.762 C 270.802 37.993,270.833 38.973,270.833 46.016 L 270.833 54.008 270.410 54.169 C 270.033 54.312,178.043 54.432,177.901 54.289 C 177.773 54.162,177.812 1.288,177.940 1.163 C 178.297 0.810,211.157 0.757,211.508 1.108 M388.336 35.292 C 388.334 35.498,388.408 35.667,388.500 35.667 C 388.709 35.667,388.709 35.490,388.500 35.167 C 388.369 34.965,388.338 34.988,388.336 35.292 M397.540 52.193 C 397.419 52.314,397.384 52.656,397.446 53.107 C 397.527 53.702,397.485 53.878,397.202 54.122 C 396.541 54.690,397.197 55.430,397.987 55.007 C 398.785 54.580,398.891 54.057,398.398 52.989 C 397.917 51.946,397.849 51.884,397.540 52.193 M362.173 53.115 C 362.170 53.224,362.242 53.360,362.333 53.417 C 362.425 53.473,362.500 53.706,362.500 53.935 C 362.500 55.040,363.171 55.609,363.558 54.833 C 363.792 54.365,363.788 54.333,363.487 54.333 C 363.311 54.333,363.167 54.274,363.167 54.202 C 363.167 53.982,362.181 52.903,362.173 53.115 M278.417 53.833 L 277.917 53.961 278.458 53.980 C 278.756 53.991,279.000 53.925,279.000 53.833 C 279.000 53.742,278.981 53.676,278.958 53.686 C 278.935 53.697,278.692 53.763,278.417 53.833 M0.000 68.325 L 0.000 68.984 1.042 69.043 L 2.083 69.102 1.042 69.135 C 0.122 69.163,0.000 69.206,0.000 69.500 C 0.000 69.833,0.111 69.833,200.000 69.833 C 399.875 69.833,400.000 69.833,400.000 69.500 C 400.000 69.167,399.861 69.167,203.792 69.125 L 7.583 69.083 203.792 69.042 L 400.000 69.000 400.000 68.333 L 400.000 67.667 200.000 67.667 L 0.000 67.667 0.000 68.325 M6.213 69.122 C 5.827 69.157,5.152 69.157,4.713 69.123 C 4.275 69.088,4.592 69.060,5.417 69.059 C 6.242 69.059,6.600 69.087,6.213 69.122 M286.949 79.174 C 286.508 79.248,286.053 79.387,285.937 79.483 C 285.822 79.579,285.320 79.742,284.822 79.846 C 284.303 79.955,283.735 80.206,283.491 80.434 C 283.257 80.654,282.936 80.833,282.777 80.833 C 280.708 80.833,278.123 84.665,278.111 87.750 C 278.100 90.788,280.668 94.667,282.691 94.667 C 282.989 94.667,283.301 94.819,283.521 95.072 C 283.736 95.319,284.143 95.522,284.562 95.591 C 284.940 95.653,285.587 95.860,286.000 96.051 C 287.138 96.578,291.029 96.670,292.618 96.207 C 293.241 96.026,294.177 95.788,294.698 95.679 C 295.220 95.570,295.831 95.335,296.058 95.157 C 296.284 94.979,296.551 94.833,296.651 94.833 C 296.751 94.833,297.114 94.582,297.458 94.274 C 297.802 93.966,298.247 93.629,298.446 93.525 C 298.825 93.326,299.760 92.047,300.014 91.381 C 300.301 90.625,299.685 90.290,298.137 90.360 L 296.808 90.420 296.070 91.201 C 295.664 91.631,295.089 92.116,294.791 92.280 C 294.493 92.445,294.100 92.706,293.917 92.861 C 293.642 93.093,291.195 93.482,289.750 93.523 C 288.575 93.556,285.873 93.105,285.576 92.826 C 285.385 92.647,285.157 92.500,285.069 92.500 C 284.981 92.500,284.638 92.276,284.306 92.003 C 283.974 91.729,283.507 91.431,283.268 91.340 C 283.005 91.240,282.833 91.047,282.833 90.850 C 282.833 90.672,282.630 90.284,282.382 89.989 C 281.751 89.239,281.692 86.266,282.295 85.624 C 282.496 85.410,282.744 84.995,282.846 84.701 C 282.961 84.372,283.146 84.167,283.327 84.167 C 283.489 84.167,283.800 83.993,284.019 83.781 C 285.698 82.153,288.172 81.651,292.000 82.160 C 293.037 82.298,293.698 82.473,293.917 82.666 C 294.100 82.828,294.478 83.076,294.756 83.216 C 295.034 83.357,295.621 83.815,296.059 84.236 C 297.537 85.651,300.250 85.495,299.887 84.015 C 299.522 82.524,296.675 80.236,294.667 79.819 C 294.162 79.714,293.194 79.487,292.515 79.314 C 291.206 78.981,288.502 78.913,286.949 79.174 M311.202 79.164 C 310.900 79.236,310.525 79.406,310.368 79.542 C 310.212 79.678,309.757 79.831,309.359 79.881 C 308.960 79.931,308.473 80.120,308.275 80.300 C 308.078 80.480,307.625 80.730,307.268 80.855 C 306.912 80.981,306.509 81.252,306.374 81.458 C 306.239 81.665,305.979 81.833,305.797 81.833 C 305.181 81.833,303.443 83.940,303.262 84.908 C 303.195 85.270,302.995 85.748,302.820 85.972 C 302.416 86.485,302.368 88.679,302.746 89.333 C 303.108 89.960,303.136 90.029,303.322 90.756 C 303.492 91.421,305.377 93.667,305.766 93.667 C 305.860 93.667,306.153 93.892,306.417 94.167 C 306.761 94.526,307.052 94.667,307.449 94.667 C 307.833 94.667,308.114 94.795,308.367 95.087 C 308.588 95.341,308.989 95.548,309.382 95.610 C 309.739 95.668,310.160 95.852,310.316 96.020 C 311.259 97.032,319.148 96.302,320.582 95.071 C 320.840 94.848,321.138 94.667,321.243 94.667 C 321.815 94.667,324.829 91.946,324.832 91.426 C 324.833 91.339,325.040 90.970,325.292 90.606 C 325.941 89.668,325.999 85.697,325.375 84.854 C 325.169 84.575,325.000 84.277,325.000 84.193 C 325.000 83.860,323.481 82.218,322.842 81.858 C 322.471 81.650,322.167 81.418,322.167 81.343 C 322.167 81.268,321.923 81.112,321.625 80.997 C 321.327 80.881,320.821 80.614,320.500 80.405 C 318.751 79.261,313.658 78.582,311.202 79.164 M336.984 79.139 C 336.471 79.200,335.946 79.337,335.817 79.444 C 335.689 79.550,335.096 79.723,334.500 79.827 C 333.904 79.932,333.217 80.161,332.974 80.336 L 332.531 80.654 331.807 80.163 C 331.409 79.893,330.947 79.671,330.781 79.670 C 330.614 79.668,330.352 79.602,330.197 79.523 C 329.769 79.304,328.882 79.756,328.575 80.349 C 328.119 81.232,328.198 94.939,328.662 95.403 C 329.196 95.937,330.918 95.978,331.645 95.473 L 332.207 95.083 332.179 90.890 C 332.138 84.642,332.228 84.331,334.500 82.850 C 335.827 81.985,340.819 81.902,341.713 82.730 C 341.936 82.937,342.349 83.202,342.631 83.318 C 343.241 83.571,343.239 83.567,343.676 85.711 C 344.019 87.397,344.189 93.684,343.916 94.589 C 343.839 94.843,343.981 95.083,344.480 95.545 L 345.147 96.162 346.233 95.826 C 347.669 95.383,347.572 95.786,347.667 89.876 L 347.750 84.669 348.208 84.245 C 348.460 84.011,348.667 83.744,348.667 83.651 C 348.667 83.559,348.910 83.374,349.208 83.240 C 349.506 83.106,349.954 82.834,350.204 82.636 C 350.629 82.297,350.843 82.274,353.624 82.262 L 356.591 82.250 357.544 83.072 C 358.068 83.524,358.539 84.027,358.591 84.190 C 358.835 84.959,359.029 86.451,359.161 88.583 C 359.429 92.875,359.442 94.141,359.225 94.540 C 358.884 95.167,360.126 96.178,360.997 95.982 C 362.940 95.546,362.859 95.781,362.845 90.645 C 362.835 86.722,362.802 86.208,362.525 85.677 C 362.355 85.350,362.161 84.651,362.096 84.123 C 362.019 83.513,361.839 82.997,361.602 82.707 C 361.396 82.455,361.128 82.003,361.007 81.700 C 360.880 81.385,360.566 81.039,360.268 80.889 C 359.983 80.744,359.623 80.516,359.469 80.380 C 359.150 80.101,357.003 79.500,356.323 79.500 C 356.076 79.500,355.584 79.379,355.229 79.231 C 354.441 78.901,352.983 78.994,352.152 79.426 C 351.817 79.600,350.969 79.773,350.088 79.847 C 348.891 79.947,348.538 80.039,348.323 80.305 C 348.175 80.488,347.733 80.733,347.342 80.851 C 346.950 80.968,346.545 81.199,346.441 81.365 C 346.199 81.753,345.964 81.747,345.715 81.349 C 345.606 81.174,345.232 80.940,344.883 80.828 C 344.535 80.717,344.096 80.486,343.908 80.315 C 343.720 80.144,343.195 79.933,342.741 79.846 C 342.288 79.759,341.640 79.571,341.301 79.429 C 340.588 79.129,338.336 78.978,336.984 79.139 M375.136 79.161 C 374.523 79.224,373.909 79.368,373.772 79.482 C 373.635 79.596,373.049 79.756,372.470 79.837 C 371.776 79.935,371.330 80.092,371.163 80.298 C 370.683 80.888,369.952 80.880,369.667 80.280 C 369.084 79.057,366.961 79.248,366.502 80.565 C 366.220 81.375,366.278 95.027,366.565 95.420 C 366.914 95.897,368.937 95.990,369.476 95.553 L 369.863 95.240 369.842 90.646 C 369.823 86.705,369.857 86.022,370.076 85.840 C 370.216 85.723,370.413 85.322,370.514 84.947 C 370.681 84.328,371.671 83.167,372.033 83.167 C 372.106 83.167,372.333 83.000,372.536 82.797 C 373.672 81.661,378.786 82.015,380.374 83.339 C 381.748 84.484,381.715 84.320,381.763 90.145 C 381.787 92.928,381.868 95.267,381.945 95.341 C 382.021 95.416,382.565 95.656,383.153 95.875 L 384.223 96.274 384.865 95.595 C 385.443 94.983,385.497 94.851,385.416 94.250 C 385.174 92.457,385.364 88.194,385.813 85.354 C 385.972 84.346,386.653 83.369,387.216 83.340 C 387.289 83.336,387.538 83.130,387.769 82.880 C 388.241 82.371,389.359 82.188,392.000 82.187 C 394.426 82.186,394.855 82.316,395.883 83.361 C 397.002 84.498,397.051 84.824,397.012 90.926 C 396.983 95.637,396.926 95.420,398.321 95.912 C 399.448 96.310,400.000 96.257,400.000 95.750 C 400.000 95.374,399.934 95.333,399.322 95.333 C 397.950 95.333,398.000 95.496,398.000 91.024 C 398.000 88.135,397.937 86.838,397.767 86.239 C 397.639 85.787,397.486 85.082,397.426 84.672 C 397.267 83.581,396.182 82.227,395.272 81.985 C 394.893 81.885,394.128 81.659,393.572 81.485 C 392.285 81.080,391.462 81.083,390.140 81.498 C 389.559 81.680,388.836 81.830,388.534 81.831 C 388.175 81.833,387.843 81.975,387.576 82.242 C 387.351 82.467,386.923 82.767,386.624 82.909 C 385.972 83.218,385.853 83.396,385.185 85.065 L 384.667 86.359 384.667 90.659 C 384.667 95.361,384.649 95.448,383.724 95.242 C 382.565 94.983,382.667 95.437,382.667 90.522 C 382.667 83.420,381.955 82.108,377.710 81.383 C 376.075 81.104,376.044 81.105,374.941 81.467 C 374.328 81.669,373.535 81.833,373.179 81.833 C 372.683 81.833,372.368 81.970,371.833 82.417 C 371.449 82.737,371.069 83.000,370.988 83.000 C 370.907 83.000,370.545 83.375,370.183 83.833 C 369.363 84.869,369.339 85.056,369.289 90.743 L 369.250 95.070 368.708 95.181 C 368.410 95.241,367.923 95.241,367.625 95.180 L 367.083 95.068 367.062 93.492 C 366.980 87.443,366.990 81.039,367.082 80.807 C 367.346 80.137,368.901 79.975,369.229 80.583 C 369.847 81.728,369.764 81.676,370.536 81.404 C 370.924 81.267,371.402 81.004,371.600 80.818 C 372.647 79.834,380.703 79.860,381.599 80.850 C 381.756 81.024,381.989 81.167,382.117 81.167 C 382.244 81.167,382.545 81.363,382.785 81.603 C 383.531 82.349,384.949 82.482,385.122 81.821 C 385.164 81.657,385.511 81.399,385.891 81.247 C 386.272 81.095,386.718 80.827,386.881 80.652 C 387.097 80.422,387.407 80.333,388.000 80.333 C 388.451 80.333,389.591 80.249,390.533 80.147 C 393.116 79.866,395.410 80.167,396.750 80.964 C 398.320 81.897,398.561 82.128,398.924 83.051 C 399.342 84.111,400.000 84.393,400.000 83.512 C 400.000 83.171,399.918 83.000,399.753 83.000 C 399.617 83.000,399.457 82.794,399.396 82.542 C 399.188 81.673,398.817 81.153,398.201 80.869 C 397.861 80.712,397.508 80.492,397.417 80.379 C 397.186 80.097,395.900 79.668,395.271 79.663 C 394.984 79.660,394.315 79.513,393.784 79.335 C 392.721 78.980,390.096 79.075,389.599 79.487 C 389.467 79.597,388.756 79.747,388.021 79.822 C 386.938 79.931,386.584 80.040,386.162 80.395 C 385.876 80.636,385.527 80.833,385.387 80.833 C 385.248 80.833,384.921 81.061,384.662 81.339 C 384.192 81.842,384.188 81.842,383.880 81.511 C 383.709 81.329,383.280 81.058,382.926 80.910 C 382.572 80.762,382.163 80.502,382.016 80.332 C 381.863 80.155,381.255 79.916,380.583 79.771 C 379.942 79.631,379.007 79.401,378.505 79.259 C 377.553 78.988,376.987 78.972,375.136 79.161 M290.944 79.844 C 291.042 79.942,291.795 80.085,292.618 80.162 C 295.269 80.411,298.535 82.393,298.780 83.902 L 298.877 84.500 298.138 84.500 C 297.507 84.500,297.314 84.412,296.824 83.902 C 296.508 83.573,295.894 83.122,295.458 82.899 C 295.023 82.676,294.667 82.430,294.667 82.351 C 294.667 82.167,293.934 81.879,293.089 81.731 C 292.725 81.668,292.092 81.467,291.681 81.285 C 290.810 80.900,288.361 80.971,287.521 81.406 C 287.264 81.539,286.556 81.734,285.948 81.840 C 284.748 82.049,282.636 83.472,282.397 84.231 C 282.337 84.425,282.119 84.740,281.913 84.932 C 281.133 85.660,281.225 90.667,282.018 90.667 C 282.097 90.667,282.267 90.916,282.394 91.221 C 282.725 92.015,284.742 93.318,286.231 93.701 C 286.862 93.863,287.469 94.072,287.581 94.165 C 288.048 94.552,290.713 94.569,291.570 94.190 C 292.012 93.994,292.826 93.761,293.379 93.672 C 293.932 93.583,294.541 93.372,294.734 93.203 C 294.926 93.033,295.304 92.758,295.573 92.590 C 295.842 92.422,296.249 92.062,296.478 91.791 C 296.707 91.519,296.998 91.192,297.126 91.065 C 297.363 90.828,298.454 90.759,299.124 90.938 L 299.497 91.038 299.082 91.532 C 298.854 91.803,298.667 92.080,298.667 92.146 C 298.667 92.968,294.432 95.201,292.510 95.394 C 291.919 95.453,291.188 95.591,290.885 95.701 C 290.452 95.858,290.111 95.854,289.292 95.683 C 288.719 95.564,287.512 95.401,286.610 95.322 C 285.197 95.198,284.864 95.108,284.206 94.672 C 283.786 94.394,283.347 94.167,283.230 94.167 C 282.676 94.167,280.219 92.093,279.675 91.167 C 278.859 89.779,278.804 89.532,278.863 87.515 C 278.914 85.738,278.955 85.530,279.370 84.917 C 280.355 83.463,280.951 82.799,281.708 82.310 C 282.144 82.029,282.500 81.737,282.500 81.662 C 282.500 81.587,282.781 81.437,283.125 81.328 C 283.469 81.220,284.012 80.960,284.333 80.751 C 284.736 80.488,285.381 80.312,286.417 80.180 C 287.242 80.075,288.179 79.924,288.500 79.845 C 289.340 79.637,290.737 79.637,290.944 79.844 M316.137 79.929 C 318.698 80.394,320.613 81.063,321.698 81.873 C 322.883 82.758,324.500 84.428,324.500 84.768 C 324.500 84.962,324.665 85.331,324.867 85.588 C 325.473 86.359,325.522 88.791,324.948 89.628 C 324.713 89.970,324.468 90.466,324.404 90.730 C 324.028 92.267,319.882 94.969,317.339 95.334 C 316.740 95.420,315.875 95.562,315.417 95.650 C 314.816 95.765,314.141 95.742,313.000 95.569 C 312.129 95.436,310.985 95.286,310.457 95.235 C 309.805 95.172,309.350 95.021,309.040 94.764 C 308.789 94.557,308.356 94.309,308.079 94.215 C 307.401 93.984,305.667 92.865,305.667 92.658 C 305.667 92.567,305.498 92.414,305.292 92.317 C 303.864 91.648,303.037 87.952,303.766 85.500 C 304.046 84.554,305.587 82.531,306.208 82.291 C 306.388 82.221,306.747 82.013,307.006 81.829 C 307.266 81.644,307.794 81.382,308.180 81.245 C 308.566 81.109,308.970 80.877,309.078 80.729 C 309.284 80.447,311.227 80.026,312.417 80.006 C 312.783 80.000,313.196 79.922,313.333 79.833 C 313.691 79.602,314.483 79.629,316.137 79.929 M342.083 80.341 C 343.027 80.588,344.505 81.318,345.027 81.795 C 345.635 82.351,346.545 82.344,347.140 81.779 C 347.384 81.547,347.791 81.306,348.046 81.243 C 348.300 81.180,348.607 80.986,348.729 80.813 C 348.907 80.559,349.289 80.465,350.683 80.334 C 351.637 80.244,352.717 80.130,353.083 80.080 C 356.167 79.661,359.738 80.847,360.619 82.583 C 360.758 82.858,361.032 83.258,361.228 83.472 C 361.695 83.982,361.942 86.929,361.905 91.552 C 361.877 95.099,361.881 95.086,360.989 95.250 C 360.043 95.424,360.034 95.382,359.970 90.250 L 359.911 85.583 359.364 84.333 C 358.741 82.911,357.915 82.114,356.776 81.835 C 356.395 81.742,355.721 81.544,355.277 81.395 C 354.436 81.111,352.837 81.155,352.447 81.472 C 352.339 81.560,351.736 81.711,351.109 81.807 C 350.481 81.904,349.777 82.118,349.545 82.283 C 349.313 82.448,348.965 82.674,348.773 82.785 C 348.580 82.895,348.186 83.259,347.897 83.594 C 347.395 84.175,347.303 84.448,346.820 86.806 C 346.738 87.203,346.660 89.172,346.646 91.180 C 346.618 95.069,346.622 95.055,345.752 95.212 C 344.648 95.412,344.667 95.499,344.667 90.247 L 344.667 85.507 344.209 84.391 C 343.683 83.112,342.642 82.142,341.448 81.818 C 341.064 81.714,340.418 81.525,340.012 81.398 C 339.038 81.093,337.879 81.105,336.979 81.430 C 336.578 81.575,335.822 81.756,335.300 81.833 C 334.499 81.950,334.172 82.116,333.217 82.888 C 331.433 84.329,331.241 85.099,331.278 90.687 L 331.306 94.958 330.930 95.159 C 330.652 95.308,330.384 95.315,329.902 95.185 L 329.250 95.010 329.250 87.864 C 329.250 80.196,329.253 80.167,330.090 80.167 C 330.705 80.167,330.995 80.341,331.271 80.873 C 331.588 81.487,332.888 81.485,333.547 80.870 C 334.351 80.120,339.920 79.775,342.083 80.341 M312.502 81.124 C 311.999 81.159,311.468 81.295,311.321 81.428 C 311.175 81.560,310.677 81.781,310.214 81.918 C 309.752 82.055,309.277 82.284,309.158 82.427 C 309.040 82.569,308.698 82.788,308.399 82.913 C 308.089 83.043,307.654 83.450,307.386 83.862 C 307.128 84.259,306.781 84.697,306.615 84.835 C 306.444 84.977,306.271 85.413,306.217 85.835 C 306.164 86.247,306.019 86.786,305.894 87.033 C 305.605 87.606,305.606 88.081,305.897 88.548 C 306.024 88.751,306.177 89.254,306.238 89.667 C 306.352 90.434,306.422 90.538,307.711 91.833 C 309.880 94.013,313.872 94.998,316.626 94.032 C 317.199 93.831,317.802 93.667,317.965 93.667 C 318.129 93.667,318.560 93.508,318.923 93.314 C 319.286 93.120,319.846 92.827,320.167 92.662 C 321.017 92.227,322.399 90.264,322.664 89.116 C 323.438 85.761,321.491 82.815,317.812 81.776 C 317.320 81.637,316.507 81.405,316.005 81.261 C 315.132 81.011,314.513 80.987,312.502 81.124 M316.649 82.260 C 317.418 82.387,318.168 82.601,318.316 82.734 C 318.463 82.867,318.936 83.127,319.366 83.312 C 320.122 83.636,321.332 84.720,321.335 85.076 C 321.336 85.172,321.521 85.625,321.746 86.083 C 322.684 87.989,321.418 91.309,319.429 92.162 C 319.006 92.343,318.618 92.600,318.567 92.733 C 318.208 93.667,311.312 93.676,310.089 92.743 C 309.794 92.518,309.428 92.333,309.277 92.333 C 308.996 92.333,307.915 91.298,307.167 90.312 C 306.776 89.797,306.750 89.640,306.750 87.750 C 306.750 85.860,306.776 85.703,307.167 85.186 C 307.899 84.218,308.966 83.167,309.217 83.167 C 309.350 83.167,309.562 83.012,309.688 82.824 C 309.863 82.561,310.208 82.442,311.167 82.313 C 311.854 82.221,312.717 82.090,313.083 82.022 C 313.854 81.880,314.693 81.936,316.649 82.260 " stroke="none" fill="#96b0b0" fill-rule="evenodd">
		</path>
	</g>
</svg>
