<?xml version="1.0" encoding="UTF-8" standalone="no"?>
<svg version="1.1" id="svg1" width="800" height="349.13467" viewBox="0 0 800 349.13467" xmlns="http://www.w3.org/2000/svg" xmlns:svg="http://www.w3.org/2000/svg">
	<defs id="defs1">
		<clipPath clipPathUnits="userSpaceOnUse" id="clipPath5">
			<path d="M 0,261.851 H 600 V 0 H 0 Z" transform="translate(-385.15041,-191.0703)" id="path5" />
		</clipPath>
		<clipPath clipPathUnits="userSpaceOnUse" id="clipPath7">
			<path d="M 0,261.851 H 600 V 0 H 0 Z" id="path7" />
		</clipPath>
		<clipPath clipPathUnits="userSpaceOnUse" id="clipPath9">
			<path d="M 0,261.851 H 600 V 0 H 0 Z" transform="translate(-515.05372,-97.3008)" id="path9" />
		</clipPath>
		<clipPath clipPathUnits="userSpaceOnUse" id="clipPath11">
			<path d="M 0,261.851 H 600 V 0 H 0 Z" transform="translate(-363.38181,-36.280303)" id="path11" />
		</clipPath>
		<clipPath clipPathUnits="userSpaceOnUse" id="clipPath13">
			<path d="M 0,261.851 H 600 V 0 H 0 Z" transform="translate(-592.18751,-36.280303)" id="path13" />
		</clipPath>
		<clipPath clipPathUnits="userSpaceOnUse" id="clipPath15">
			<path d="M 0,261.851 H 600 V 0 H 0 Z" transform="translate(-386.73241,-36.584001)" id="path15" />
		</clipPath>
		<clipPath clipPathUnits="userSpaceOnUse" id="clipPath17">
			<path d="M 0,261.851 H 600 V 0 H 0 Z" id="path17" />
		</clipPath>
		<clipPath clipPathUnits="userSpaceOnUse" id="clipPath19">
			<path d="M 0,261.851 H 600 V 0 H 0 Z" transform="translate(-423.99711,-39.933598)" id="path19" />
		</clipPath>
		<clipPath clipPathUnits="userSpaceOnUse" id="clipPath21">
			<path d="M 0,261.851 H 600 V 0 H 0 Z" transform="translate(-476.09081,-6.8984002)" id="path21" />
		</clipPath>
		<clipPath clipPathUnits="userSpaceOnUse" id="clipPath23">
			<path d="M 0,261.851 H 600 V 0 H 0 Z" id="path23" />
		</clipPath>
		<clipPath clipPathUnits="userSpaceOnUse" id="clipPath25">
			<path d="M 0,261.851 H 600 V 0 H 0 Z" transform="translate(-511.25491,-36.584001)" id="path25" />
		</clipPath>
		<clipPath clipPathUnits="userSpaceOnUse" id="clipPath27">
			<path d="M 0,261.851 H 600 V 0 H 0 Z" transform="translate(-536.52442,-18.4082)" id="path27" />
		</clipPath>
		<clipPath clipPathUnits="userSpaceOnUse" id="clipPath29">
			<path d="M 0,261.851 H 600 V 0 H 0 Z" transform="translate(-115.06491,-25.975603)" id="path29" />
		</clipPath>
		<clipPath clipPathUnits="userSpaceOnUse" id="clipPath31">
			<path d="M 0,261.851 H 600 V 0 H 0 Z" transform="translate(-178.9399,-257.70121)" id="path31" />
		</clipPath>
		<clipPath clipPathUnits="userSpaceOnUse" id="clipPath33">
			<path d="M 0,261.851 H 600 V 0 H 0 Z" transform="translate(-139.2559,-221.07811)" id="path33" />
		</clipPath>
		<clipPath clipPathUnits="userSpaceOnUse" id="clipPath35">
			<path d="M 0,261.851 H 600 V 0 H 0 Z" transform="translate(-178.9399,-99.835905)" id="path35" />
		</clipPath>
	</defs>
	<g id="g1">
		<g id="group-MC0">
			<path id="path2" d="m 285.15,204.167 h 13.368 V 70.201 H 285.15 Z" style="fill:#50c7f4;fill-opacity:1;fill-rule:nonzero;stroke:none" transform="matrix(1.3333333,0,0,-1.3333333,0,349.13467)" />
			<path id="path3" d="m 327.155,204.167 h 13.367 V 70.201 h -13.367 z" style="fill:#26376e;fill-opacity:1;fill-rule:nonzero;stroke:none" transform="matrix(1.3333333,0,0,-1.3333333,0,349.13467)" />
			<path id="path4" d="m 0,0 v -45.529 l 23.037,-0.182 c 8.911,0 15.52,0.843 19.826,2.529 4.307,1.686 7.649,4.398 10.029,8.132 2.377,3.732 3.567,7.917 3.567,12.555 0,4.456 -1.218,8.522 -3.658,12.196 -2.439,3.674 -5.616,6.309 -9.53,7.904 C 39.354,-0.8 32.792,0 23.578,0 Z m -13.37,13.097 h 26.649 c 14.874,0 24.963,-0.603 30.263,-1.805 7.949,-1.808 14.423,-5.707 19.421,-11.7 5,-5.992 7.499,-13.355 7.499,-22.087 0,-7.347 -1.717,-13.76 -5.149,-19.241 -3.434,-5.479 -8.356,-9.652 -14.771,-12.51 -6.413,-2.861 -11.968,-4.291 -16.667,-4.291 L 72.268,-120.87 H 55.828 L 17.434,-58.537 H 0 v -62.333 h -13.37 z" style="fill:#26376e;fill-opacity:1;fill-rule:nonzero;stroke:none" transform="matrix(1.3333333,0,0,-1.3333333,513.53387,94.374267)" clip-path="url(#clipPath5)" />
			<path id="path6" d="m 482.171,204.167 h 13.367 V 70.201 h -13.367 z" style="fill:#26376e;fill-opacity:1;fill-rule:nonzero;stroke:none" transform="matrix(1.3333333,0,0,-1.3333333,0,349.13467)" clip-path="url(#clipPath7)" />
			<path id="path8" d="m 0,0 11.383,6.866 c 8.008,-14.755 17.254,-22.133 27.73,-22.133 4.52,0 8.765,1.054 12.738,3.163 3.974,2.106 6.987,4.909 9.036,8.4 2.045,3.494 3.07,7.228 3.07,11.203 0,4.456 -1.506,8.854 -4.517,13.188 -4.217,5.962 -11.893,12.044 -23.036,18.25 -11.201,8.43 -18.128,14.542 -20.776,18.337 -4.76,6.264 -7.137,13.1 -7.137,20.505 0,5.841 1.385,11.142 4.155,15.899 2.77,4.758 6.699,8.537 11.788,11.338 5.088,2.8 10.616,4.2 16.578,4.2 6.26,0 12.134,-1.58 17.616,-4.742 5.478,-3.162 11.292,-8.93 17.434,-17.3 l -10.93,-8.22 c -5,6.625 -9.278,11.005 -12.828,13.145 -3.555,2.136 -7.439,3.205 -11.654,3.205 -5.36,0 -9.755,-1.641 -13.188,-4.922 -3.434,-3.284 -5.15,-7.304 -5.15,-12.061 0,-2.889 0.6,-5.722 1.808,-8.492 1.202,-2.77 3.431,-5.722 6.684,-8.851 1.747,-1.747 7.527,-6.233 17.345,-13.461 11.563,-8.553 19.495,-15.627 23.801,-21.229 4.307,-5.601 6.461,-11.743 6.461,-18.427 0,-9.757 -3.691,-18.218 -11.066,-25.386 -7.377,-7.167 -16.337,-10.75 -26.875,-10.75 -8.193,0 -15.598,2.17 -22.224,6.504 C 11.62,-17.434 5.539,-10.178 0,0" style="fill:#26376e;fill-opacity:1;fill-rule:nonzero;stroke:none" transform="matrix(1.3333333,0,0,-1.3333333,686.73827,219.40027)" clip-path="url(#clipPath9)" />
			<path id="path10" d="m 0,0 -2.74,-2.863 c -2.314,2.232 -4.557,3.348 -6.73,3.348 -1.399,0 -2.597,-0.455 -3.592,-1.369 -0.995,-0.914 -1.491,-2 -1.491,-3.259 0,-1.054 0.415,-2.068 1.248,-3.043 0.81,-1.035 2.527,-2.222 5.145,-3.561 3.208,-1.644 5.38,-3.238 6.516,-4.78 1.115,-1.563 1.674,-3.32 1.674,-5.267 0,-2.722 -0.96,-5.03 -2.876,-6.927 -1.92,-1.898 -4.319,-2.847 -7.201,-2.847 -1.929,0 -3.772,0.412 -5.526,1.232 -1.757,0.822 -3.203,1.975 -4.34,3.456 l 2.712,3.075 c 2.189,-2.475 4.513,-3.714 6.97,-3.714 1.706,0 3.162,0.552 4.37,1.66 1.207,1.105 1.812,2.399 1.812,3.88 0,1.239 -0.397,2.334 -1.187,3.29 -0.792,0.954 -2.59,2.152 -5.39,3.591 -3.025,1.523 -5.074,3.057 -6.15,4.599 -1.096,1.501 -1.643,3.228 -1.643,5.175 0,2.537 0.865,4.642 2.603,6.318 1.734,1.675 3.911,2.513 6.529,2.513 C -6.221,4.507 -3.127,3.003 0,0" style="fill:#50c7f4;fill-opacity:1;fill-rule:nonzero;stroke:none" transform="matrix(1.3333333,0,0,-1.3333333,484.50907,300.76093)" clip-path="url(#clipPath11)" />
			<path id="path12" d="m 0,0 -2.74,-2.863 c -2.314,2.232 -4.557,3.348 -6.73,3.348 -1.399,0 -2.597,-0.455 -3.592,-1.369 -0.995,-0.914 -1.491,-2 -1.491,-3.259 0,-1.054 0.415,-2.068 1.248,-3.043 0.81,-1.035 2.527,-2.222 5.145,-3.561 3.208,-1.644 5.38,-3.238 6.516,-4.78 1.115,-1.563 1.674,-3.32 1.674,-5.267 0,-2.722 -0.96,-5.03 -2.876,-6.927 -1.92,-1.898 -4.319,-2.847 -7.201,-2.847 -1.929,0 -3.772,0.412 -5.526,1.232 -1.757,0.822 -3.203,1.975 -4.34,3.456 l 2.712,3.075 c 2.189,-2.475 4.513,-3.714 6.97,-3.714 1.706,0 3.162,0.552 4.37,1.66 1.207,1.105 1.812,2.399 1.812,3.88 0,1.239 -0.397,2.334 -1.187,3.29 -0.792,0.954 -2.59,2.152 -5.39,3.591 -3.025,1.523 -5.074,3.057 -6.15,4.599 -1.096,1.501 -1.643,3.228 -1.643,5.175 0,2.537 0.865,4.642 2.603,6.318 1.734,1.675 3.911,2.513 6.529,2.513 C -6.221,4.507 -3.127,3.003 0,0" style="fill:#50c7f4;fill-opacity:1;fill-rule:nonzero;stroke:none" transform="matrix(1.3333333,0,0,-1.3333333,789.58333,300.76093)" clip-path="url(#clipPath13)" />
			<path id="path14" d="m 0,0 c -3.553,0 -6.605,-1.319 -9.165,-3.958 -2.558,-2.637 -3.836,-5.825 -3.836,-9.559 0,-2.416 0.585,-4.674 1.752,-6.775 1.167,-2.102 2.744,-3.714 4.734,-4.841 1.988,-1.127 4.16,-1.689 6.515,-1.689 2.395,0 4.582,0.562 6.562,1.689 1.977,1.127 3.547,2.739 4.702,4.841 1.157,2.101 1.736,4.359 1.736,6.775 0,3.734 -1.278,6.922 -3.835,9.559 C 6.607,-1.319 3.552,0 0,0 m 0,4.203 c 5.134,0 9.397,-1.859 12.787,-5.573 3.064,-3.41 4.598,-7.438 4.598,-12.087 0,-4.648 -1.625,-8.711 -4.871,-12.192 -3.248,-3.482 -7.42,-5.224 -12.514,-5.224 -5.114,0 -9.292,1.742 -12.527,5.224 -3.239,3.481 -4.857,7.544 -4.857,12.192 0,4.628 1.532,8.646 4.596,12.057 3.39,3.734 7.653,5.603 12.788,5.603" style="fill:#50c7f4;fill-opacity:1;fill-rule:nonzero;stroke:none" transform="matrix(1.3333333,0,0,-1.3333333,515.6432,300.356)" clip-path="url(#clipPath15)" />
			<path id="path16" d="m 411.361,52.05 h 4.324 V 5.741 h -4.324 z" style="fill:#50c7f4;fill-opacity:1;fill-rule:nonzero;stroke:none" transform="matrix(1.3333333,0,0,-1.3333333,0,349.13467)" clip-path="url(#clipPath17)" />
			<path id="path18" d="m 0,0 h 4.324 v -15.588 c 0,-3.816 0.203,-6.436 0.611,-7.856 0.607,-2.049 1.774,-3.669 3.501,-4.856 1.724,-1.188 3.795,-1.78 6.21,-1.78 2.395,0 4.423,0.577 6.089,1.734 1.662,1.157 2.811,2.681 3.441,4.567 0.446,1.279 0.669,4.008 0.669,8.191 V 0 h 4.384 v -16.411 c 0,-4.608 -0.543,-8.074 -1.63,-10.396 -1.083,-2.324 -2.703,-4.142 -4.856,-5.451 -2.149,-1.308 -4.85,-1.964 -8.097,-1.964 -3.268,0 -5.987,0.656 -8.16,1.964 -2.173,1.309 -3.795,3.148 -4.871,5.512 C 0.539,-24.384 0,-20.824 0,-16.075 Z" style="fill:#50c7f4;fill-opacity:1;fill-rule:nonzero;stroke:none" transform="matrix(1.3333333,0,0,-1.3333333,565.32947,295.88987)" clip-path="url(#clipPath19)" />
			<path id="path20" d="m 0,0 c -2.232,-0.851 -4.221,-1.249 -5.967,-1.187 -3.289,0.184 -5.887,1.888 -7.793,5.117 -1.157,2.027 -1.717,4.26 -1.677,6.695 v 34.679 h 4.326 V 29.169 h 7.944 v -3.684 h -7.914 V 11.357 C -11.203,7.866 -10.025,5.178 -7.55,3.289 -5.521,2.334 -3.45,2.426 -1.339,3.563 -0.792,2.041 -0.344,0.854 0,0" style="fill:#50c7f4;fill-opacity:1;fill-rule:nonzero;stroke:none" transform="matrix(1.3333333,0,0,-1.3333333,634.78773,339.9368)" clip-path="url(#clipPath21)" />
			<path id="path22" d="m 482.299,39.141 h 4.294 V 5.743 h -4.294 z m 2.133,13.732 c 0.973,0 1.811,-0.347 2.51,-1.035 0.702,-0.692 1.051,-1.522 1.051,-2.497 0,-0.974 -0.349,-1.812 -1.051,-2.511 -0.699,-0.702 -1.537,-1.051 -2.51,-1.051 -0.976,0 -1.806,0.349 -2.497,1.051 -0.689,0.699 -1.037,1.537 -1.037,2.511 0,0.975 0.348,1.805 1.037,2.497 0.691,0.688 1.521,1.035 2.497,1.035" style="fill:#50c7f4;fill-opacity:1;fill-rule:nonzero;stroke:none" transform="matrix(1.3333333,0,0,-1.3333333,0,349.13467)" clip-path="url(#clipPath23)" />
			<path id="path24" d="m 0,0 c -3.552,0 -6.605,-1.319 -9.165,-3.958 -2.558,-2.637 -3.836,-5.825 -3.836,-9.559 0,-2.416 0.585,-4.674 1.752,-6.775 1.167,-2.102 2.745,-3.714 4.734,-4.841 1.988,-1.127 4.161,-1.689 6.515,-1.689 2.395,0 4.582,0.562 6.562,1.689 1.978,1.127 3.546,2.739 4.702,4.841 1.157,2.101 1.737,4.359 1.737,6.775 0,3.734 -1.279,6.922 -3.836,9.559 C 6.606,-1.319 3.552,0 0,0 m 0,4.203 c 5.135,0 9.396,-1.859 12.788,-5.573 3.064,-3.41 4.598,-7.438 4.598,-12.087 0,-4.648 -1.626,-8.711 -4.871,-12.192 C 9.267,-29.131 5.094,-30.873 0,-30.873 c -5.114,0 -9.292,1.742 -12.527,5.224 -3.24,3.481 -4.856,7.544 -4.856,12.192 0,4.628 1.53,8.646 4.595,12.057 3.39,3.734 7.653,5.603 12.788,5.603" style="fill:#50c7f4;fill-opacity:1;fill-rule:nonzero;stroke:none" transform="matrix(1.3333333,0,0,-1.3333333,681.6732,300.356)" clip-path="url(#clipPath25)" />
			<path id="path26" d="m 0,0 -0.062,3.562 c -0.059,1.745 0.011,3.228 0.214,4.446 0.446,3.836 1.42,6.646 2.924,8.433 1.461,1.562 2.952,2.77 4.474,3.623 2.516,1.076 5.39,1.582 8.615,1.522 2.517,0 4.847,-0.635 6.988,-1.904 2.142,-1.268 3.668,-2.972 4.582,-5.114 0.914,-2.142 1.369,-5.494 1.369,-10.062 V -12.667 H 24.845 V 3.258 c 0,3.856 -0.165,6.433 -0.491,7.732 -0.504,2.213 -1.509,3.781 -3.011,4.704 -1.504,0.925 -3.727,1.386 -6.669,1.386 -2.598,0 -4.911,-0.75 -6.942,-2.254 C 5.704,13.325 4.76,11.274 4.901,8.676 4.517,7.013 4.324,3.978 4.324,-0.425 V -12.667 H 0 Z" style="fill:#50c7f4;fill-opacity:1;fill-rule:nonzero;stroke:none" transform="matrix(1.3333333,0,0,-1.3333333,715.36587,324.5904)" clip-path="url(#clipPath27)" />
			<path id="path28" d="m 0,0 c -49.309,0 -89.281,39.972 -89.281,89.281 0,45.593 34.183,83.177 78.314,88.586 2.402,7.171 5.798,13.88 10.035,19.966 -59.533,-0.503 -107.644,-48.9 -107.644,-108.552 0,-59.965 48.612,-108.575 108.576,-108.575 59.44,0 107.696,47.771 108.536,107.012 C 102.43,83.52 95.703,80.167 88.522,77.807 82.888,33.922 45.418,0 0,0" style="fill:#f68b23;fill-opacity:1;fill-rule:nonzero;stroke:none" transform="matrix(1.3333333,0,0,-1.3333333,153.41987,314.50053)" clip-path="url(#clipPath29)" />
			<path id="path30" d="m 0,0 c -23.906,0 -45.298,-10.653 -59.771,-27.443 7.157,-0.252 14.266,-1.161 21.231,-2.717 10.597,8.389 23.975,13.416 38.54,13.416 34.345,0 62.188,-27.843 62.188,-62.188 0,-14.489 -4.971,-27.806 -13.281,-38.376 1.595,-7.037 2.501,-14.155 2.758,-21.266 16.694,14.471 27.267,35.814 27.267,59.642 C 78.932,-35.339 43.593,0 0,0" style="fill:#50c7f4;fill-opacity:1;fill-rule:nonzero;stroke:none" transform="matrix(1.3333333,0,0,-1.3333333,238.58653,5.5330667)" clip-path="url(#clipPath31)" />
			<path id="path32" d="m 0,0 c -5.636,-4.727 -10.1,-10.642 -13.112,-17.25 40.152,-4.973 72.006,-36.597 77.362,-76.63 6.583,3.393 12.393,8.259 16.893,14.315 C 71.317,-40.023 39.835,-9.07 0,0" style="fill:#26376e;fill-opacity:1;fill-rule:nonzero;stroke:none" transform="matrix(1.3333333,0,0,-1.3333333,185.67453,54.363867)" clip-path="url(#clipPath33)" />
			<path id="path34" d="m 0,0 c 5.784,0 11.413,0.645 16.841,1.831 0.878,4.885 1.314,9.921 1.267,15.065 -0.008,0.85 -0.053,1.691 -0.087,2.534 C 12.315,17.698 6.271,16.744 0,16.744 c -34.346,0 -62.188,27.843 -62.188,62.19 0,6.137 0.916,12.056 2.577,17.654 -1.166,0.04 -2.336,0.068 -3.515,0.058 -4.813,-0.044 -9.519,-0.525 -14.091,-1.378 -1.117,-5.27 -1.716,-10.731 -1.716,-16.334 C -78.933,35.339 -43.593,0 0,0" style="fill:#528cd1;fill-opacity:1;fill-rule:nonzero;stroke:none" transform="matrix(1.3333333,0,0,-1.3333333,238.58653,216.02013)" clip-path="url(#clipPath35)" />
		</g>
	</g>
</svg>
