<svg xmlns="http://www.w3.org/2000/svg" viewBox="0 0 586.98 269.79"><defs><style>.cls-1{fill:#00bff2;}.cls-2{fill:#192b6c;}.cls-3{fill:#f7971d;}.cls-4{fill:#498ecc;}</style></defs><title>Asset 4</title><g id="Layer_2" data-name="Layer 2"><g id="Layer_1-2" data-name="Layer 1"><path class="cls-1" d="M278.66,53.53H292v134H278.66Z"/><path class="cls-2" d="M320.67,53.53H334v134H320.67Z"/><path class="cls-2" d="M365.29,53.53h26.65q22.31,0,30.26,1.81A34.5,34.5,0,0,1,441.62,67q7.5,9,7.5,22.09A35.49,35.49,0,0,1,444,108.37a32.52,32.52,0,0,1-14.77,12.51q-9.62,4.29-16.67,4.29l38.39,62.33H434.49l-38.39-62.33H378.66V187.5H365.29Zm13.37,13.1v45.53l23,.18q13.37,0,19.83-2.53a20.34,20.34,0,0,0,10-8.13,22.88,22.88,0,0,0,3.57-12.56,21.57,21.57,0,0,0-3.66-12.2,20.57,20.57,0,0,0-9.53-7.9q-5.87-2.39-19.69-2.4Z"/><path class="cls-2" d="M475.68,53.53H489v134H475.68Z"/><path class="cls-2" d="M508.56,160.4l11.38-6.87q12,22.13,27.73,22.13a26.76,26.76,0,0,0,12.74-3.16,22.23,22.23,0,0,0,9-8.4,21.81,21.81,0,0,0,3.07-11.2A22.93,22.93,0,0,0,568,139.71q-6.33-8.94-23-18.25-16.8-12.65-20.78-18.34a33.17,33.17,0,0,1-7.14-20.5,31,31,0,0,1,4.15-15.9A30.1,30.1,0,0,1,533,55.38a33.83,33.83,0,0,1,16.58-4.2,34.68,34.68,0,0,1,17.62,4.74q8.22,4.74,17.43,17.3L573.7,81.45q-7.5-9.94-12.83-13.14a22.2,22.2,0,0,0-11.65-3.21A18.31,18.31,0,0,0,536,70a16,16,0,0,0-5.15,12.06,21.06,21.06,0,0,0,1.81,8.49,28.85,28.85,0,0,0,6.68,8.85Q542,102,556.71,112.88q17.34,12.83,23.8,21.23A29.56,29.56,0,0,1,587,152.54q0,14.64-11.07,25.39A37.14,37.14,0,0,1,549,188.68a39.71,39.71,0,0,1-22.22-6.5Q516.87,175.67,508.56,160.4Z"/><path class="cls-3" d="M108.58,231.73a89.27,89.27,0,0,1-11-177.87,78.62,78.62,0,0,1,10-20A108.57,108.57,0,1,0,217.11,144a78.63,78.63,0,0,1-20,9.91A89.28,89.28,0,0,1,108.58,231.73Z"/><path class="cls-1" d="M172.45,0a78.69,78.69,0,0,0-59.77,27.44,116.05,116.05,0,0,1,21.23,2.72,62.16,62.16,0,0,1,87.45,87.15,114.83,114.83,0,0,1,2.76,21.27A78.91,78.91,0,0,0,172.45,0Z"/><path class="cls-2" d="M132.77,36.62a49.1,49.1,0,0,0-13.11,17.25A89.27,89.27,0,0,1,197,130.5a49,49,0,0,0,16.89-14.31A108.68,108.68,0,0,0,132.77,36.62Z"/><path class="cls-4" d="M172.45,157.86A78.74,78.74,0,0,0,189.29,156,80.9,80.9,0,0,0,190.56,141c0-.85-.05-1.69-.09-2.53a62.14,62.14,0,0,1-77.63-77.16c-1.17,0-2.34-.07-3.51-.06A80.9,80.9,0,0,0,95.23,62.6a78.9,78.9,0,0,0,77.22,95.27Z"/><path class="cls-1" d="M457,213.5a23.31,23.31,0,0,1,9.46-1.94,20.39,20.39,0,0,1,15,6.32,20.89,20.89,0,0,1,6.25,15.23,21.26,21.26,0,0,1-6.21,15.42,20.12,20.12,0,0,1-14.93,6.36,20.45,20.45,0,0,1-9.07-2,22.28,22.28,0,0,1-7.49-6.11v23h-5.27V230.71a28.42,28.42,0,0,1,4.06-11.1A23.73,23.73,0,0,1,457,213.5Zm-2.58,8a16.42,16.42,0,0,0-4.74,12,17,17,0,0,0,2.11,8.44,15.33,15.33,0,0,0,6,6,16.62,16.62,0,0,0,8.28,2.2,15.78,15.78,0,0,0,8.07-2.2,16.1,16.1,0,0,0,6-6.21,16.94,16.94,0,0,0,2.24-8.37,16.66,16.66,0,0,0-2.22-8.35,16.23,16.23,0,0,0-6-6.11,15.92,15.92,0,0,0-8.22-2.2A15.64,15.64,0,0,0,454.44,221.45Z"/><path class="cls-1" d="M517.9,211.41a20.48,20.48,0,0,1,15.8,6.88,21.29,21.29,0,0,1,5.79,14.93q.07,21.37,0,21.71h-5.6v-9.37q-4.4,8.2-16,9.18a20.18,20.18,0,0,1-15.48-6.45,22.14,22.14,0,0,1-.32-30A20.43,20.43,0,0,1,517.9,211.41Zm0,5.19a15.22,15.22,0,0,0-11.32,4.89,16.36,16.36,0,0,0-4.74,11.81,17,17,0,0,0,2.16,8.37,15.17,15.17,0,0,0,5.85,6,16.05,16.05,0,0,0,8,2.09q14.11-1.43,15.84-16.44a16.57,16.57,0,0,0-4.63-11.81A14.87,14.87,0,0,0,517.9,216.6Z"/><path class="cls-1" d="M545.36,212.46H551l14.18,31.79,13.77-31.79h5.68L560,268.77h-5.61l7.94-18.17Z"/></g></g></svg>