<svg version="1.0" xmlns="http://www.w3.org/2000/svg"
    width="768.000000pt" height="993.000000pt" viewBox="0 0 768.000000 993.000000"
    preserveAspectRatio="xMidYMid meet">
    <g transform="translate(0.000000,993.000000) scale(0.100000,-0.100000)"
        fill="#000000" stroke="none">
        <path
            d="M10 9090 l0 -830 615 0 615 0 0 -4125 0 -4125 990 0 990 0 2 1733 3
1732 219 -350 c121 -192 341 -543 490 -780 375 -598 747 -1191 1125 -1795 178
-283 328 -521 335 -528 9 -9 246 -12 1143 -10 l1132 3 -188 290 c-189 292
-713 1104 -1556 2410 -252 391 -516 799 -587 908 -73 113 -125 204 -121 210 7
11 762 1077 1278 1802 811 1140 1175 1655 1175 1660 0 3 -510 5 -1133 5
l-1133 0 -745 -1102 c-409 -606 -825 -1222 -923 -1368 -99 -146 -255 -377
-348 -514 l-168 -249 0 2926 0 2927 -1605 0 -1605 0 0 -830z" />
    </g>
</svg>