<svg
   version="1.1"
   id="svg2"
   width="1384.3199"
   height="505.64532"
   viewBox="0 0 1384.3199 505.64532"
   sodipodi:docname="LOGO_TV1_Vector_1.ai"
   xmlns:inkscape="http://www.inkscape.org/namespaces/inkscape"
   xmlns:sodipodi="http://sodipodi.sourceforge.net/DTD/sodipodi-0.dtd"
   xmlns="http://www.w3.org/2000/svg"
   xmlns:svg="http://www.w3.org/2000/svg">
  <defs
     id="defs6">
    <clipPath
       clipPathUnits="userSpaceOnUse"
       id="clipPath16">
      <path
         d="M 0,379.234 H 1038.24 V 0 H 0 Z"
         id="path14" />
    </clipPath>
  </defs>
  <sodipodi:namedview
     id="namedview4"
     pagecolor="#ffffff"
     bordercolor="#000000"
     borderopacity="0.25"
     inkscape:showpageshadow="2"
     inkscape:pageopacity="0.0"
     inkscape:pagecheckerboard="0"
     inkscape:deskcolor="#d1d1d1" />
  <g
     id="g8"
     inkscape:groupmode="layer"
     inkscape:label="LOGO_TV1_Vector_1"
     transform="matrix(1.3333333,0,0,-1.3333333,0,505.64533)">
    <g
       id="g10">
      <g
         id="g12"
         clip-path="url(#clipPath16)">
        <g
           id="g18"
           transform="translate(327.722,369.9415)">
          <path
             d="M 0,0 C 0.793,0.057 1.587,0.163 2.381,0.163 39.179,0.171 75.978,0.17 112.777,0.17 h 2.333 c 26.661,-79.845 53.3,-159.622 79.938,-239.399 0.15,-0.013 0.299,-0.026 0.449,-0.04 25.817,79.727 51.634,159.454 77.488,239.291 h 115.599 c 0.065,-0.126 0.106,-0.189 0.129,-0.258 0.026,-0.075 0.061,-0.16 0.048,-0.233 -0.053,-0.313 -0.083,-0.636 -0.19,-0.931 -43.785,-120.032 -87.576,-240.061 -131.375,-360.087 -0.078,-0.214 -0.268,-0.388 -0.444,-0.633 H 132.365 c -0.469,1.29 -0.926,2.555 -1.387,3.817 C 87.683,-239.878 44.389,-121.453 1.088,-3.03 0.79,-2.214 0.406,-1.43 0.062,-0.631 0.042,-0.421 0.021,-0.211 0,0"
             style="fill:#00a651;fill-opacity:1;fill-rule:nonzero;stroke:none"
             id="path20" />
        </g>
        <g
           id="g22"
           transform="translate(880.6649,24.6368)">
          <path
             d="m 0,0 v 328.899 c -0.82,0.039 -1.522,0.103 -2.226,0.103 -25.599,0.005 -51.199,-0.007 -76.798,0.032 -1.514,0.003 -2.393,-0.322 -3.18,-1.799 -5.521,-10.362 -12.461,-19.654 -21.097,-27.677 -8.934,-8.301 -18.985,-14.833 -30.229,-19.527 -3.08,-1.286 -6.234,-2.397 -9.356,-3.589 V 236.021 H -94.38 L -94.38,0 Z M -141.963,345.354 H 151.641 C 151.474,343.197 24.342,-6.057 19.839,-16.748 h -293.905 c 44.047,120.737 88.065,241.391 132.103,362.102"
             style="fill:#0089cf;fill-opacity:1;fill-rule:nonzero;stroke:none"
             id="path24" />
        </g>
        <g
           id="g26"
           transform="translate(327.722,369.9415)">
          <path
             d="M 0,0 C 0.021,-0.211 0.042,-0.421 0.062,-0.631 0.028,-1.749 -0.037,-2.867 -0.038,-3.985 -0.043,-33.09 -0.042,-62.195 -0.042,-91.3 v -2.563 c -0.146,-0.132 -0.205,-0.186 -0.265,-0.238 -0.059,-0.051 -0.114,-0.132 -0.181,-0.145 -0.235,-0.044 -0.473,-0.09 -0.711,-0.09 -34.478,-0.023 -68.956,-0.041 -103.435,-0.063 -0.069,0 -0.138,-0.057 -0.429,-0.184 v -267.165 c -1.933,-0.571 -106.677,-0.795 -111.856,-0.281 v 267.031 c -0.27,0.339 -0.311,0.412 -0.372,0.461 -0.058,0.047 -0.132,0.082 -0.205,0.099 -0.155,0.035 -0.313,0.064 -0.471,0.079 -0.158,0.015 -0.319,0.011 -0.479,0.012 -0.24,0.002 -0.48,0.002 -0.72,0.002 -33.839,0.001 -67.679,0.001 -101.518,0.003 -0.159,0 -0.319,0.009 -0.479,0.021 -0.079,0.007 -0.158,0.025 -0.234,0.047 -0.074,0.022 -0.144,0.057 -0.391,0.157 V 0.17 h 2.374 c 105.678,0 211.355,0 317.033,-0.007 C -1.587,0.163 -0.794,0.057 0,0"
             style="fill:#ed1c24;fill-opacity:1;fill-rule:nonzero;stroke:none"
             id="path28" />
        </g>
        <g
           id="g30"
           transform="translate(880.6649,24.6368)">
          <path
             d="m 0,0 h -94.38 v 236.021 h -48.506 v 40.421 c 3.122,1.192 6.276,2.303 9.356,3.589 11.244,4.694 21.295,11.226 30.229,19.527 8.636,8.023 15.576,17.315 21.097,27.677 0.787,1.477 1.666,1.802 3.18,1.799 25.599,-0.039 51.199,-0.027 76.798,-0.032 0.704,0 1.406,-0.064 2.226,-0.103 z"
             style="fill:#ffffff;fill-opacity:1;fill-rule:nonzero;stroke:none"
             id="path32" />
        </g>
      </g>
    </g>
  </g>
</svg>
