<?xml version="1.0" encoding="utf-8"?>
<!-- Generator: Adobe Illustrator 25.2.1, SVG Export Plug-In . SVG Version: 6.00 Build 0)  -->
<svg version="1.1" id="Layer_1"
	xmlns="http://www.w3.org/2000/svg"
	xmlns:xlink="http://www.w3.org/1999/xlink" x="0px" y="0px" viewBox="0 0 1049.9 1335" style="enable-background:new 0 0 1049.9 1335;" xml:space="preserve">
	<style type="text/css">
	.st0{fill:#F6F0F8;}
	.st1{fill:#333343;}
	.st2{fill:#FFFFFF;}
	.st3{fill:#32A9FE;}
	.st4{fill:none;stroke:#FFCB57;stroke-width:2.5;stroke-miterlimit:10;}
	.st5{fill:#FFCB57;}
	.st6{fill:none;stroke:#FFCB57;stroke-width:3;stroke-linecap:round;stroke-miterlimit:10;}
	.st7{opacity:0.9;fill:url(#SVGID_1_);}
	.st8{fill:none;stroke:#FFCB57;stroke-width:3;stroke-linecap:round;stroke-linejoin:round;stroke-miterlimit:10;}
	.st9{fill:#FFF9DB;}
	.st10{fill:#3FA9F5;}
	.st11{fill:none;stroke:#FFCB57;stroke-width:1.4;stroke-miterlimit:10;}
	.st12{fill:none;stroke:#FFCB57;stroke-width:1.4;stroke-linecap:round;stroke-miterlimit:10;}
	.st13{opacity:0.9;fill:url(#SVGID_2_);}
	.st14{fill:none;stroke:#FFCB57;stroke-width:1.4;stroke-linecap:round;stroke-linejoin:round;stroke-miterlimit:10;}
	.st15{opacity:0.9;fill:url(#SVGID_3_);}
	.st16{fill:none;stroke:#FFCB57;stroke-width:3.6085;stroke-miterlimit:10;}
	.st17{opacity:0.9;fill:url(#SVGID_4_);}
	.st18{fill:#FFD7E9;}
	.st19{opacity:0.9;fill:url(#SVGID_5_);}
	.st20{fill:none;stroke:#FF7DB9;stroke-width:4.8984;stroke-linecap:round;stroke-linejoin:round;stroke-miterlimit:10;}
	.st21{fill:#FF7DB9;}
	.st22{fill:none;stroke:#FFCB57;stroke-width:4.8984;stroke-linecap:round;stroke-linejoin:round;stroke-miterlimit:10;}
	.st23{fill:#FFCB00;}
	.st24{fill:none;stroke:#FFCB57;stroke-width:4.8984;stroke-linejoin:round;stroke-miterlimit:10;}
	.st25{fill:none;stroke:#49C4FF;stroke-width:3.8488;stroke-linecap:round;stroke-linejoin:round;stroke-miterlimit:10;}
	.st26{fill:#49C4FF;}
	.st27{fill:none;stroke:#FF7DB9;stroke-width:4.8984;stroke-linejoin:round;stroke-miterlimit:10;}
	.st28{fill:none;stroke:#49C4FF;stroke-width:3.7686;stroke-linecap:round;stroke-linejoin:round;stroke-miterlimit:10;}
	.st29{opacity:0.9;fill:url(#SVGID_6_);}
	.st30{fill:none;stroke:#FFCB57;stroke-width:3.0812;stroke-miterlimit:10;}
	.st31{opacity:0.9;fill:url(#SVGID_7_);}
	.st32{opacity:0.9;fill:url(#SVGID_8_);}
	.st33{fill:none;stroke:#FFCB57;stroke-width:3.6111;stroke-linecap:round;stroke-linejoin:round;stroke-miterlimit:10;}
	
		.st34{fill:none;stroke:#FF7DB9;stroke-width:2.126;stroke-linecap:round;stroke-linejoin:round;stroke-miterlimit:10;stroke-dasharray:2.9517,5.4115;}
	.st35{opacity:0.9;fill:url(#SVGID_9_);}
	.st36{opacity:0.9;fill:url(#SVGID_10_);}
	.st37{fill:#D8F2FF;}
	.st38{opacity:0.9;fill:url(#SVGID_11_);}
	.st39{opacity:0.9;fill:url(#SVGID_12_);}
	.st40{opacity:0.9;fill:url(#SVGID_13_);}
	
		.st41{fill:none;stroke:#FF7DB9;stroke-width:1.4759;stroke-linecap:round;stroke-linejoin:round;stroke-miterlimit:10;stroke-dasharray:2.9517,5.4115;}
	.st42{fill:none;stroke:#FFCB57;stroke-width:1.6599;stroke-miterlimit:10;}
	.st43{opacity:0.9;fill:url(#SVGID_14_);}
	.st44{opacity:0.9;fill:url(#SVGID_15_);}
	.st45{opacity:0.9;fill:url(#SVGID_16_);}
	.st46{opacity:0.9;fill:url(#SVGID_17_);}
	.st47{fill:none;stroke:#FFCB57;stroke-width:1.6611;stroke-linecap:round;stroke-linejoin:round;stroke-miterlimit:10;}
	.st48{opacity:0.9;fill:url(#SVGID_18_);}
	.st49{fill:none;stroke:#FFCB57;stroke-width:1.4173;stroke-miterlimit:10;}
	.st50{opacity:0.9;fill:url(#SVGID_19_);}
	.st51{opacity:0.9;fill:url(#SVGID_20_);}
	.st52{fill:none;stroke:#FF7DB9;stroke-width:2.2533;stroke-linecap:round;stroke-linejoin:round;stroke-miterlimit:10;}
	.st53{fill:none;stroke:#FFCB57;stroke-width:2.2533;stroke-linecap:round;stroke-linejoin:round;stroke-miterlimit:10;}
	.st54{fill:none;stroke:#FFCB57;stroke-width:2.2533;stroke-linejoin:round;stroke-miterlimit:10;}
	.st55{fill:none;stroke:#49C4FF;stroke-width:1.7704;stroke-linecap:round;stroke-linejoin:round;stroke-miterlimit:10;}
	.st56{fill:none;stroke:#FF7DB9;stroke-width:2.2533;stroke-linejoin:round;stroke-miterlimit:10;}
	.st57{fill:none;stroke:#49C4FF;stroke-width:1.7335;stroke-linecap:round;stroke-linejoin:round;stroke-miterlimit:10;}
	.st58{opacity:0.9;fill:url(#SVGID_21_);}
	.st59{opacity:0.9;fill:url(#SVGID_22_);}
	.st60{opacity:0.9;fill:url(#SVGID_23_);}
	.st61{opacity:0.9;fill:url(#SVGID_24_);}
	.st62{opacity:0.9;fill:url(#SVGID_25_);}
	.st63{opacity:0.9;fill:url(#SVGID_26_);}
	.st64{opacity:0.9;fill:url(#SVGID_27_);}
	.st65{opacity:0.9;fill:url(#SVGID_28_);}
	.st66{opacity:0.9;fill:url(#SVGID_29_);}
	.st67{opacity:0.9;fill:url(#SVGID_30_);}
	.st68{opacity:0.9;fill:url(#SVGID_31_);}
	.st69{opacity:0.9;fill:url(#SVGID_32_);}
	.st70{opacity:0.9;fill:url(#SVGID_33_);}
	.st71{fill:none;stroke:#FFCB57;stroke-miterlimit:10;}
	.st72{opacity:0.9;fill:url(#SVGID_34_);}
	.st73{opacity:0.9;fill:url(#SVGID_35_);}
	.st74{opacity:0.9;fill:url(#SVGID_36_);}
	.st75{opacity:0.9;fill:url(#SVGID_37_);}
	.st76{opacity:0.9;fill:url(#SVGID_38_);}
	.st77{opacity:0.9;fill:url(#SVGID_39_);}
	.st78{opacity:0.9;fill:url(#SVGID_40_);}
	.st79{opacity:0.9;fill:url(#SVGID_41_);}
	.st80{opacity:0.9;fill:url(#SVGID_42_);}
	.st81{opacity:0.9;fill:url(#SVGID_43_);}
	.st82{opacity:0.9;fill:url(#SVGID_44_);}
	.st83{opacity:0.9;fill:url(#SVGID_45_);}
	.st84{opacity:0.9;fill:url(#SVGID_46_);}
	</style>
	<g>
		<path class="st3" d="M560.7,407.5c-1.3,0-2.5-0.2-3.7-0.6c-1.2-0.4-2.1-0.9-2.8-1.5l0.9-1.9c0.6,0.6,1.5,1,2.4,1.4
		c1,0.4,2,0.6,3.1,0.6c1,0,1.8-0.1,2.4-0.3c0.6-0.2,1.1-0.5,1.3-0.9c0.3-0.4,0.4-0.8,0.4-1.3c0-0.6-0.2-1-0.6-1.4
		c-0.4-0.4-0.9-0.6-1.5-0.9c-0.6-0.2-1.3-0.4-2-0.6c-0.7-0.2-1.4-0.3-2.2-0.6c-0.7-0.2-1.4-0.5-2-0.8c-0.6-0.3-1.1-0.8-1.5-1.4
		c-0.4-0.6-0.6-1.3-0.6-2.2c0-0.9,0.2-1.7,0.7-2.4c0.5-0.7,1.2-1.3,2.1-1.8c1-0.4,2.2-0.7,3.6-0.7c1,0,1.9,0.1,2.9,0.4
		c1,0.3,1.8,0.6,2.5,1.1l-0.8,1.9c-0.7-0.5-1.5-0.8-2.3-1c-0.8-0.2-1.6-0.3-2.3-0.3c-0.9,0-1.7,0.1-2.3,0.4c-0.6,0.2-1.1,0.6-1.3,1
		c-0.3,0.4-0.4,0.8-0.4,1.3c0,0.6,0.2,1.1,0.6,1.4c0.4,0.4,0.9,0.6,1.5,0.8c0.6,0.2,1.3,0.4,2,0.6c0.7,0.2,1.4,0.4,2.2,0.6
		c0.7,0.2,1.4,0.5,2,0.8s1.1,0.8,1.5,1.3c0.4,0.6,0.6,1.3,0.6,2.2c0,0.8-0.2,1.6-0.7,2.4c-0.5,0.7-1.2,1.3-2.1,1.8
		C563.4,407.3,562.2,407.5,560.7,407.5z"/>
		<path class="st3" d="M575,407.4c-1.1,0-2-0.2-2.9-0.6c-0.8-0.4-1.5-1-1.9-1.8s-0.7-1.9-0.7-3.1v-7.3h2.3v7.1c0,1.2,0.3,2.2,0.9,2.8
		c0.6,0.6,1.4,0.9,2.5,0.9c0.8,0,1.5-0.2,2.1-0.5c0.6-0.3,1-0.8,1.4-1.4s0.5-1.4,0.5-2.3v-6.6h2.3v12.7h-2.2v-3.4l0.4,0.9
		c-0.4,0.8-1,1.5-1.9,2S576,407.4,575,407.4z"/>
		<path class="st3" d="M590.5,406.8c-1.2,0-2.3-0.3-3.3-0.8c-1-0.5-1.7-1.2-2.3-2.2c-0.6-0.9-0.9-2-0.9-3.2c0-1.2,0.3-2.3,0.9-3.2
		s1.3-1.6,2.3-2.1c1-0.5,2.1-0.8,3.3-0.8c1.1,0,2.1,0.2,3,0.7c0.9,0.4,1.6,1.1,2.1,2c0.5,0.9,0.8,2.1,0.8,3.5c0,1.4-0.3,2.5-0.8,3.4
		c-0.5,0.9-1.3,1.6-2.1,2.1S591.5,406.8,590.5,406.8z M590.7,412.1c-1.2,0-2.3-0.2-3.4-0.5c-1.1-0.3-2-0.8-2.7-1.4l1.1-1.8
		c0.6,0.5,1.3,0.9,2.2,1.2c0.9,0.3,1.8,0.4,2.7,0.4c1.5,0,2.6-0.4,3.3-1.1s1.1-1.8,1.1-3.2v-2.7l0.2-2.5l-0.1-2.5v-3.5h2.2v11
		c0,2.2-0.6,3.9-1.7,4.9C594.5,411.6,592.9,412.1,590.7,412.1z M590.7,404.7c0.8,0,1.6-0.2,2.3-0.5c0.7-0.4,1.2-0.8,1.5-1.5
		c0.4-0.6,0.6-1.3,0.6-2.2c0-0.8-0.2-1.5-0.6-2.2c-0.4-0.6-0.9-1.1-1.5-1.5c-0.7-0.3-1.4-0.5-2.3-0.5s-1.6,0.2-2.3,0.5
		c-0.7,0.3-1.2,0.8-1.6,1.5s-0.6,1.3-0.6,2.2c0,0.8,0.2,1.5,0.6,2.2s0.9,1.1,1.6,1.5C589.1,404.6,589.9,404.7,590.7,404.7z"/>
		<path class="st3" d="M606.3,406.8c-1.2,0-2.3-0.3-3.3-0.8c-1-0.5-1.7-1.2-2.3-2.2c-0.6-0.9-0.9-2-0.9-3.2c0-1.2,0.3-2.3,0.9-3.2
		s1.3-1.6,2.3-2.1c1-0.5,2.1-0.8,3.3-0.8c1.1,0,2.1,0.2,3,0.7c0.9,0.4,1.6,1.1,2.1,2c0.5,0.9,0.8,2.1,0.8,3.5c0,1.4-0.3,2.5-0.8,3.4
		c-0.5,0.9-1.3,1.6-2.1,2.1S607.4,406.8,606.3,406.8z M606.6,412.1c-1.2,0-2.3-0.2-3.4-0.5c-1.1-0.3-2-0.8-2.7-1.4l1.1-1.8
		c0.6,0.5,1.3,0.9,2.2,1.2c0.9,0.3,1.8,0.4,2.7,0.4c1.5,0,2.6-0.4,3.3-1.1s1.1-1.8,1.1-3.2v-2.7l0.2-2.5L611,398v-3.5h2.2v11
		c0,2.2-0.6,3.9-1.7,4.9C610.4,411.6,608.7,412.1,606.6,412.1z M606.6,404.7c0.8,0,1.6-0.2,2.3-0.5c0.7-0.4,1.2-0.8,1.5-1.5
		c0.4-0.6,0.6-1.3,0.6-2.2c0-0.8-0.2-1.5-0.6-2.2c-0.4-0.6-0.9-1.1-1.5-1.5c-0.7-0.3-1.4-0.5-2.3-0.5s-1.6,0.2-2.3,0.5
		c-0.7,0.3-1.2,0.8-1.6,1.5s-0.6,1.3-0.6,2.2c0,0.8,0.2,1.5,0.6,2.2s0.9,1.1,1.6,1.5C605,404.6,605.7,404.7,606.6,404.7z"/>
		<path class="st3" d="M622.5,407.4c-1.4,0-2.6-0.3-3.6-0.8c-1-0.6-1.8-1.3-2.4-2.3c-0.6-1-0.9-2.1-0.9-3.4c0-1.3,0.3-2.4,0.8-3.4
		c0.6-1,1.3-1.7,2.3-2.3c1-0.6,2.1-0.8,3.3-0.8c1.2,0,2.3,0.3,3.3,0.8c0.9,0.5,1.7,1.3,2.2,2.3c0.5,1,0.8,2.1,0.8,3.4
		c0,0.1,0,0.2,0,0.3s0,0.2,0,0.4h-10.8V400h9.6l-0.9,0.6c0-0.8-0.2-1.5-0.5-2.2c-0.4-0.6-0.8-1.1-1.5-1.5c-0.6-0.4-1.3-0.5-2.1-0.5
		c-0.8,0-1.5,0.2-2.1,0.5c-0.6,0.4-1.1,0.9-1.5,1.5c-0.4,0.6-0.5,1.4-0.5,2.2v0.4c0,0.8,0.2,1.6,0.6,2.3c0.4,0.7,0.9,1.2,1.6,1.5
		c0.7,0.4,1.5,0.6,2.4,0.6c0.8,0,1.4-0.1,2.1-0.4c0.6-0.3,1.2-0.6,1.6-1.2l1.3,1.5c-0.6,0.7-1.3,1.2-2.1,1.5
		S623.6,407.4,622.5,407.4z"/>
		<path class="st3" d="M634.5,407.4c-1.1,0-2.1-0.1-3-0.4s-1.7-0.6-2.2-1.1l1-1.8c0.5,0.4,1.2,0.7,2,0.9c0.8,0.3,1.6,0.4,2.4,0.4
		c1.1,0,1.8-0.2,2.3-0.5s0.7-0.7,0.7-1.3c0-0.4-0.1-0.7-0.4-0.9c-0.3-0.2-0.7-0.4-1.1-0.5c-0.5-0.1-1-0.2-1.6-0.3
		c-0.6-0.1-1.2-0.2-1.7-0.3c-0.6-0.1-1.1-0.3-1.6-0.6s-0.9-0.6-1.2-1c-0.3-0.4-0.4-1-0.4-1.8c0-0.8,0.2-1.4,0.6-2
		c0.4-0.6,1-1,1.8-1.3c0.8-0.3,1.7-0.5,2.8-0.5c0.8,0,1.7,0.1,2.5,0.3s1.6,0.5,2.1,0.9l-1,1.8c-0.6-0.4-1.2-0.6-1.8-0.8
		c-0.6-0.1-1.2-0.2-1.9-0.2c-1,0-1.8,0.2-2.3,0.5s-0.7,0.7-0.7,1.3c0,0.4,0.1,0.8,0.4,1c0.3,0.2,0.7,0.4,1.2,0.5
		c0.5,0.1,1,0.2,1.6,0.3s1.2,0.2,1.7,0.3c0.6,0.1,1.1,0.3,1.6,0.6c0.5,0.2,0.9,0.6,1.2,1c0.3,0.4,0.4,1,0.4,1.7c0,0.8-0.2,1.4-0.7,2
		c-0.4,0.6-1.1,1-1.9,1.3C636.6,407.3,635.6,407.4,634.5,407.4z"/>
		<path class="st3" d="M640.3,396.5v-1.9h8.1v1.9H640.3z M646.5,407.4c-1.3,0-2.3-0.3-3-1c-0.7-0.7-1.1-1.7-1.1-3v-11.7h2.3v11.6
		c0,0.7,0.2,1.2,0.5,1.6c0.3,0.4,0.8,0.6,1.5,0.6c0.7,0,1.3-0.2,1.8-0.6l0.7,1.7c-0.4,0.3-0.8,0.5-1.3,0.7
		C647.5,407.4,647,407.4,646.5,407.4z"/>
		<path class="st3" d="M660.8,407.4c-0.9,0-1.8-0.2-2.5-0.5s-1.3-0.8-1.6-1.3c-0.4-0.6-0.6-1.2-0.6-1.9c0-0.7,0.2-1.3,0.5-1.9
		c0.3-0.6,0.9-1,1.6-1.3s1.7-0.5,3-0.5h4v1.7h-3.9c-1.2,0-1.9,0.2-2.3,0.6c-0.4,0.4-0.6,0.8-0.6,1.4c0,0.6,0.2,1.1,0.7,1.5
		c0.5,0.4,1.2,0.6,2.1,0.6c0.9,0,1.6-0.2,2.3-0.6c0.6-0.4,1.1-0.9,1.4-1.7l0.5,1.6c-0.3,0.8-0.8,1.3-1.6,1.8
		C662.9,407.2,662,407.4,660.8,407.4z M665,407.3v-2.7l-0.1-0.5v-4.6c0-1-0.3-1.7-0.9-2.3c-0.6-0.5-1.4-0.8-2.6-0.8
		c-0.8,0-1.5,0.1-2.2,0.4c-0.7,0.2-1.3,0.6-1.8,1l-1-1.7c0.7-0.5,1.4-0.9,2.4-1.2s1.9-0.4,2.9-0.4c1.7,0,3.1,0.4,4,1.3
		c0.9,0.8,1.4,2.1,1.4,3.9v7.7H665z"/>
	</g>
	<g>
		<path class="st3" d="M933.3,622.8V606h6.6c1.5,0,2.7,0.2,3.8,0.7c1,0.5,1.8,1.1,2.4,2c0.6,0.9,0.8,1.9,0.8,3.1
		c0,1.2-0.3,2.3-0.8,3.1c-0.6,0.9-1.4,1.5-2.4,2s-2.3,0.7-3.8,0.7h-5.2l1.1-1.1v6.2H933.3z M935.7,616.8l-1.1-1.2h5.2
		c1.5,0,2.7-0.3,3.5-1c0.8-0.7,1.2-1.6,1.2-2.8c0-1.2-0.4-2.1-1.2-2.8s-2-1-3.5-1h-5.2l1.1-1.2V616.8z"/>
		<path class="st3" d="M949.6,622.8V605h2.3v17.8H949.6z"/>
		<path class="st3" d="M959.3,622.9c-0.9,0-1.8-0.2-2.5-0.5s-1.3-0.8-1.6-1.3c-0.4-0.6-0.6-1.2-0.6-1.9c0-0.7,0.2-1.3,0.5-1.9
		c0.3-0.6,0.9-1,1.6-1.3c0.7-0.3,1.7-0.5,3-0.5h4v1.7h-3.9c-1.2,0-1.9,0.2-2.3,0.6s-0.6,0.8-0.6,1.4c0,0.6,0.2,1.1,0.7,1.5
		c0.5,0.4,1.2,0.6,2.1,0.6c0.9,0,1.6-0.2,2.3-0.6c0.6-0.4,1.1-0.9,1.4-1.7l0.5,1.6c-0.3,0.8-0.8,1.3-1.6,1.8
		C961.4,622.7,960.5,622.9,959.3,622.9z M963.5,622.8v-2.7l-0.1-0.5V615c0-1-0.3-1.7-0.9-2.3c-0.6-0.5-1.4-0.8-2.6-0.8
		c-0.8,0-1.5,0.1-2.2,0.4c-0.7,0.2-1.3,0.6-1.8,1l-1-1.7c0.7-0.5,1.4-0.9,2.4-1.2s1.9-0.4,2.9-0.4c1.7,0,3.1,0.4,4,1.3
		c0.9,0.8,1.4,2.1,1.4,3.9v7.7H963.5z"/>
		<path class="st3" d="M967.4,611.9V610h8.1v1.9H967.4z M973.6,622.9c-1.3,0-2.3-0.3-3-1c-0.7-0.7-1.1-1.7-1.1-3v-11.7h2.3v11.6
		c0,0.7,0.2,1.2,0.5,1.6c0.3,0.4,0.8,0.6,1.5,0.6c0.7,0,1.3-0.2,1.8-0.6l0.7,1.7c-0.4,0.3-0.8,0.5-1.3,0.7
		C974.6,622.8,974.1,622.9,973.6,622.9z"/>
		<path class="st3" d="M976.6,611.9V610h8.1v1.9H976.6z M978.8,622.8v-13.8c0-1.2,0.4-2.2,1.1-3c0.7-0.7,1.8-1.1,3.1-1.1
		c0.5,0,1,0.1,1.4,0.2c0.5,0.1,0.8,0.3,1.2,0.6l-0.7,1.8c-0.2-0.2-0.5-0.3-0.8-0.4c-0.3-0.1-0.6-0.2-1-0.2c-0.7,0-1.2,0.2-1.5,0.6
		c-0.4,0.4-0.5,0.9-0.5,1.7v1.7l0,1.1v11.1H978.8z"/>
		<path class="st3" d="M991.4,622.9c-1.3,0-2.4-0.3-3.4-0.8c-1-0.6-1.8-1.3-2.4-2.3c-0.6-1-0.9-2.1-0.9-3.3c0-1.3,0.3-2.4,0.9-3.4
		s1.4-1.7,2.4-2.3c1-0.6,2.1-0.8,3.4-0.8c1.3,0,2.4,0.3,3.4,0.8c1,0.6,1.8,1.3,2.4,2.3c0.6,1,0.9,2.1,0.9,3.4c0,1.3-0.3,2.4-0.9,3.4
		c-0.6,1-1.4,1.7-2.4,2.3C993.8,622.6,992.7,622.9,991.4,622.9z M991.4,620.9c0.8,0,1.5-0.2,2.2-0.6c0.6-0.4,1.2-0.9,1.5-1.6
		c0.4-0.7,0.6-1.5,0.6-2.4c0-0.9-0.2-1.7-0.6-2.4c-0.4-0.7-0.9-1.2-1.5-1.5c-0.6-0.4-1.4-0.6-2.2-0.6c-0.8,0-1.5,0.2-2.2,0.6
		c-0.6,0.4-1.2,0.9-1.5,1.5s-0.6,1.5-0.6,2.4c0,0.9,0.2,1.7,0.6,2.4c0.4,0.7,0.9,1.2,1.5,1.6S990.6,620.9,991.4,620.9z"/>
		<path class="st3" d="M1000.5,622.8V610h2.2v3.5l-0.2-0.9c0.4-0.9,0.9-1.6,1.8-2c0.8-0.5,1.9-0.7,3.1-0.7v2.2c-0.1,0-0.2,0-0.3,0
		c-0.1,0-0.2,0-0.3,0c-1.2,0-2.2,0.4-2.9,1.1c-0.7,0.7-1.1,1.8-1.1,3.2v6.3H1000.5z"/>
		<path class="st3" d="M1025.4,609.9c1,0,1.9,0.2,2.7,0.6c0.8,0.4,1.4,1,1.8,1.8s0.7,1.8,0.7,3.1v7.3h-2.3v-7.1
		c0-1.2-0.3-2.2-0.9-2.8s-1.4-0.9-2.4-0.9c-0.8,0-1.4,0.2-2,0.5c-0.6,0.3-1,0.8-1.3,1.4c-0.3,0.6-0.5,1.4-0.5,2.3v6.6h-2.3v-7.1
		c0-1.2-0.3-2.2-0.9-2.8c-0.6-0.6-1.4-0.9-2.4-0.9c-0.8,0-1.4,0.2-2,0.5s-1,0.8-1.3,1.4s-0.5,1.4-0.5,2.3v6.6h-2.3V610h2.2v3.4
		l-0.4-0.9c0.4-0.8,1-1.5,1.8-1.9s1.8-0.7,2.9-0.7c1.2,0,2.3,0.3,3.1,0.9c0.9,0.6,1.5,1.5,1.7,2.7l-0.9-0.4c0.4-1,1.1-1.8,2-2.4
		S1024.1,609.9,1025.4,609.9z"/>
	</g>
	<radialGradient id="SVGID_1_" cx="287.2013" cy="6012.2456" r="129.2727" gradientTransform="matrix(0.5538 0 0 4.348000e-02 -11.0515 738.4596)" gradientUnits="userSpaceOnUse">
		<stop offset="0.1034" style="stop-color:#E0E3E2"/>
		<stop offset="0.2677" style="stop-color:#E9EBEA"/>
		<stop offset="0.684" style="stop-color:#F9FAFA"/>
		<stop offset="1" style="stop-color:#FFFFFF"/>
	</radialGradient>
	<ellipse class="st7" cx="148" cy="999.9" rx="101.1" ry="4.7"/>
	<g>
		<g>
			<circle class="st16" cx="280.8" cy="684.9" r="46.7"/>
			<g>
				<g>
					<path class="st5" d="M268.3,709.7c-1.5,0-2.4,0-2.5,0h-1.5v-27.3l0.5-0.4c3.1-3,5.3-6.9,7.5-10.7c0.5-0.8,0.9-1.6,1.4-2.5
					l0.1-0.1c0.9-1.4,0.9-4.3,0.8-6.6c-0.1-2.2-0.1-4,0.6-5.1c0.6-0.9,1.5-1.4,2.7-1.6c2.2-0.3,4.4,0.9,5.5,3
					c3.3,6.7,2.5,10.8,1.4,16.6c-0.1,0.8-0.3,1.6-0.5,2.5c2.3,0.1,4.6,0,6.8,0c2.5,0,5.1-0.1,7.6,0c1.9,0.1,4.3,0.3,5.6,1.9
					c0.5,0.6,1,1.7,0.8,3.2c-0.3,1.7-1.1,3.1-2.4,4c0.9,0.9,1.3,2.1,1.1,3.5c-0.2,1.5-1.1,3-2.3,3.9c0.7,0.8,1.1,1.8,1,3
					c0,1.8-1,3.5-2.4,4.5c0.8,1,1.1,2.2,0.8,3.5c-0.6,2.6-3.5,4.7-6.4,4.7C287.5,709.7,273.9,709.7,268.3,709.7z M267.3,706.7
					c4.8,0,19.7,0,27.2,0c1.6,0,3.2-1.3,3.5-2.4c0.1-0.2,0.2-0.8-0.7-1.3c-0.9-0.3-1.4-1.1-1.3-1.9c0.1-0.9,0.8-1.6,1.8-1.7
					c1-0.3,1.7-1.5,1.7-2.4c0-0.9-0.6-1.2-1-1.4l-0.1,0l-0.1-0.1c-0.8-0.4-1.2-1.2-1-2c0.2-0.8,1-1.4,1.8-1.5
					c0.9-0.3,1.7-1.3,1.8-2.2c0.1-0.8-0.3-1.1-0.6-1.3l-0.1,0c0,0-0.1,0-0.1-0.1c-0.3-0.1-1.1-0.4-1.4-1.2l-0.1-0.1l0-0.1
					c-0.2-0.8,0.2-1.7,1-2.1l0.1-0.1l0.1,0c1.3-0.3,2-1.2,2.3-2.6l0,0c0.1-0.6-0.1-0.8-0.1-0.9c-0.3-0.3-1.1-0.8-3.4-0.8
					c-2.5-0.1-5,0-7.5,0c-2.8,0-5.8,0.1-8.7-0.1l-1.7-0.1l0.3-1.6c0.2-1.5,0.5-3,0.7-4.2c1.1-5.6,1.7-8.9-1.2-14.7
					c-0.5-0.9-1.4-1.5-2.4-1.4c-0.4,0.1-0.6,0.2-0.6,0.2c-0.2,0.4-0.2,2.2-0.1,3.4c0.1,2.9,0.2,6.1-1.3,8.3
					c-0.5,0.8-0.9,1.6-1.4,2.4c-2.2,3.8-4.4,7.8-7.6,11V706.7z"/>
				</g>
				<g>
					<path class="st5" d="M264.7,709.7h-5.8c-1.4,0-2.6-1.1-2.6-2.6V684c0-1.4,1.1-2.6,2.6-2.6h5.8c1.4,0,2.6,1.1,2.6,2.6v23.1
					C267.3,708.5,266.1,709.7,264.7,709.7z M259.3,706.7h4.9v-22.2h-4.9V706.7z"/>
				</g>
			</g>

			<radialGradient id="SVGID_2_" cx="538.1595" cy="5417.7935" r="129.2727" gradientTransform="matrix(0.5538 0 0 4.348000e-02 -11.0515 505.8385)" gradientUnits="userSpaceOnUse">
				<stop offset="0.1034" style="stop-color:#E0E3E2"/>
				<stop offset="0.2677" style="stop-color:#E9EBEA"/>
				<stop offset="0.684" style="stop-color:#F9FAFA"/>
				<stop offset="1" style="stop-color:#FFFFFF"/>
			</radialGradient>
			<ellipse class="st13" cx="287" cy="741.4" rx="101.1" ry="4.7"/>
		</g>
		<g>
			<path class="st3" d="M220.2,779.6h-8.5l-1.6,3.9h-4.3l8.1-18.3h4.2l8.2,18.3h-4.4L220.2,779.6z M218.9,776.4l-2.9-7l-2.9,7H218.9z
			"/>
			<path class="st3" d="M240.3,766c1.2,0.5,2.1,1.3,2.8,2.3c0.6,1,1,2.2,1,3.5c0,1.3-0.3,2.5-1,3.5c-0.6,1-1.6,1.8-2.8,2.3
			c-1.2,0.5-2.6,0.8-4.2,0.8h-3.7v5h-4.2v-18.3h7.9C237.7,765.2,239.1,765.5,240.3,766z M238.8,774.2c0.7-0.5,1-1.3,1-2.3
			c0-1-0.3-1.8-1-2.4c-0.7-0.5-1.6-0.8-2.9-0.8h-3.4v6.3h3.4C237.1,775,238.1,774.7,238.8,774.2z"/>
			<path class="st3" d="M259.2,766c1.2,0.5,2.1,1.3,2.8,2.3c0.6,1,1,2.2,1,3.5c0,1.3-0.3,2.5-1,3.5c-0.6,1-1.6,1.8-2.8,2.3
			c-1.2,0.5-2.6,0.8-4.2,0.8h-3.7v5H247v-18.3h7.9C256.6,765.2,258,765.5,259.2,766z M257.6,774.2c0.7-0.5,1-1.3,1-2.3
			c0-1-0.3-1.8-1-2.4s-1.6-0.8-2.9-0.8h-3.4v6.3h3.4C256,775,256.9,774.7,257.6,774.2z"/>
			<path class="st3" d="M277.5,783.5l-3.5-5.1h-0.2h-3.7v5.1h-4.2v-18.3h7.9c1.6,0,3,0.3,4.2,0.8c1.2,0.5,2.1,1.3,2.8,2.3
			c0.6,1,1,2.2,1,3.5s-0.3,2.5-1,3.5c-0.7,1-1.6,1.7-2.8,2.3l4.1,5.9H277.5z M276.4,769.5c-0.7-0.5-1.6-0.8-2.9-0.8h-3.4v6.4h3.4
			c1.3,0,2.2-0.3,2.9-0.8s1-1.3,1-2.3C277.4,770.8,277.1,770,276.4,769.5z"/>
			<path class="st3" d="M288.8,782.6c-1.5-0.8-2.7-1.9-3.6-3.4c-0.9-1.4-1.3-3-1.3-4.8c0-1.8,0.4-3.4,1.3-4.8
			c0.9-1.4,2.1-2.6,3.6-3.4c1.5-0.8,3.2-1.2,5.1-1.2s3.6,0.4,5.1,1.2c1.5,0.8,2.7,1.9,3.6,3.4c0.9,1.4,1.3,3,1.3,4.8
			c0,1.8-0.4,3.4-1.3,4.8c-0.9,1.4-2.1,2.6-3.6,3.4c-1.5,0.8-3.2,1.2-5.1,1.2S290.3,783.4,288.8,782.6z M296.8,779.5
			c0.9-0.5,1.6-1.2,2-2.1c0.5-0.9,0.7-1.9,0.7-3c0-1.1-0.2-2.1-0.7-3c-0.5-0.9-1.2-1.6-2-2.1c-0.9-0.5-1.8-0.7-2.9-0.7
			s-2.1,0.2-2.9,0.7c-0.9,0.5-1.6,1.2-2,2.1c-0.5,0.9-0.7,1.9-0.7,3c0,1.1,0.2,2.1,0.7,3c0.5,0.9,1.2,1.6,2,2.1
			c0.9,0.5,1.8,0.7,2.9,0.7S295.9,780,296.8,779.5z"/>
			<path class="st3" d="M324,765.2l-7.9,18.3h-4.2l-7.9-18.3h4.6l5.6,13l5.6-13H324z"/>
			<path class="st3" d="M337,779.6h-8.5l-1.6,3.9h-4.3l8.1-18.3h4.2l8.2,18.3h-4.4L337,779.6z M335.6,776.4l-2.9-7l-2.9,7H335.6z"/>
			<path class="st3" d="M344.9,765.2h4.2V780h9.2v3.4h-13.4V765.2z"/>
		</g>
	</g>
	<g>
		<g>
			<g>
				<path class="st18" d="M1012.7,1158.3c-0.3-2.4-1.1-4.8-2.6-6.8c-1-1.4-2.3-2.5-3.7-3.5c-1.4-0.9-3-1.5-4.7-1.8
				c-0.7-0.1-1.4-0.2-2.1-0.2c-1.9,0-3.8,0.4-5.6,1c-1.9,0.7-3.7,1.7-5.2,3c-1.5,1.3-2.8,2.8-4,4.5c-0.4,0.5-0.9,1.4-1.1,2
				c-0.4,0.9-0.8,1.9-1.1,2.8c-0.1-0.1-0.2-0.3-0.3-0.4c-0.1-0.1-0.2-0.2-0.3-0.4c0,0-0.1-0.1-0.1-0.1c-0.9-0.9-2-1.7-3.1-2.4
				c-1.4-0.8-2.9-1.4-4.4-1.8c-0.6-0.1-1.1-0.2-1.7-0.3c-0.6-0.1-1.2-0.1-1.8-0.1c-0.3,0-0.5,0-0.8,0c-0.8,0.1-1.7,0.2-2.5,0.4
				c-0.9,0.2-1.8,0.6-2.6,1c-1.2,0.6-2.4,1.5-3.3,2.4c-0.8,0.7-1.4,1.6-2,2.5c-1.3,2.2-1.8,4.3-2,6.6c-0.1,1.6,0,3.1,0.3,4.7
				c0.3,1.4,0.9,2.7,1.6,4c0.6,1.1,1.3,2,2.1,3c1.1,1.3,2.3,2.5,3.5,3.6c1.9,1.8,4,3.4,6.2,4.9c2.5,1.7,5,3.3,7.6,4.8
				c10.4,5.7,18.7,7.6,19,4.9c0.3-3.6,1.2-7.1,3.1-10.2c0.2-0.3,0.4-0.7,0.6-1c1.7-2.7,3.5-5.3,5.2-8c2-3.1,3.7-6.2,4.9-9.6
				c0.5-1.5,0.9-3,1.1-4.6c0.1-0.8,0.2-1.5,0.2-2.3C1012.9,1160.1,1012.8,1159.2,1012.7,1158.3z"/>
				<g>
					<path class="st18" d="M1008.9,1158c0.4,0.3,0.5,0.8,0.2,1.2c-0.3,0.4-0.8,0.5-1.2,0.2c-0.4-0.3-0.5-0.8-0.2-1.2
					C1007.9,1157.9,1008.5,1157.8,1008.9,1158L1008.9,1158L1008.9,1158z"/>
					<path class="st18" d="M1008.4,1162.7c0.3,0.2,0.4,0.6,0.2,0.8c-0.2,0.3-0.6,0.3-0.9,0.1c-0.3-0.2-0.4-0.6-0.2-0.8
					C1007.8,1162.6,1008.2,1162.6,1008.4,1162.7L1008.4,1162.7L1008.4,1162.7z"/>
					<path class="st18" d="M1006.9,1167.6c0.2,0.1,0.2,0.4,0.1,0.6c-0.1,0.2-0.4,0.2-0.6,0.1c-0.2-0.1-0.2-0.4-0.1-0.6
					C1006.4,1167.5,1006.7,1167.5,1006.9,1167.6L1006.9,1167.6L1006.9,1167.6z"/>
					<path class="st18" d="M1004.2,1171.3c0.2,0.1,0.3,0.4,0.1,0.6c-0.1,0.2-0.5,0.3-0.7,0.1c-0.2-0.1-0.3-0.4-0.1-0.6
					S1004,1171.1,1004.2,1171.3L1004.2,1171.3L1004.2,1171.3z"/>
				</g>
			</g>
			<g>
				<g>

					<radialGradient id="SVGID_3_" cx="1386.2111" cy="6677.0991" r="157.9999" gradientTransform="matrix(0.5538 0 0 4.348000e-02 -11.0515 998.6301)" gradientUnits="userSpaceOnUse">
						<stop offset="0.1034" style="stop-color:#E0E3E2"/>
						<stop offset="0.2677" style="stop-color:#E9EBEA"/>
						<stop offset="0.684" style="stop-color:#F9FAFA"/>
						<stop offset="1" style="stop-color:#FFFFFF"/>
					</radialGradient>
					<ellipse class="st15" cx="756.6" cy="1289" rx="123.5" ry="5.8"/>
					<g>
						<g>
							<path class="st20" d="M753,1191.3c3.7,10.1,13.5,17.4,24.9,17.4c11.4,0,21.2-7.2,24.9-17.4"/>
							<g>
								<path class="st21" d="M771.4,1174.7c0,1.8-1.5,3.3-3.3,3.3c-1.8,0-3.3-1.5-3.3-3.3s1.5-3.3,3.3-3.3
								C769.9,1171.4,771.4,1172.9,771.4,1174.7z"/>
								<path class="st21" d="M791,1174.7c0,1.8-1.5,3.3-3.3,3.3s-3.3-1.5-3.3-3.3s1.5-3.3,3.3-3.3S791,1172.9,791,1174.7z"/>
							</g>
						</g>
						<g>
							<path class="st22" d="M742.2,1230.7c-3.1,8.3-11.1,14.3-20.4,14.3c-9.4,0-17.4-5.9-20.4-14.3"/>
							<g>
								<path class="st23" d="M727.1,1217.1c0,1.5,1.2,2.7,2.7,2.7c1.5,0,2.7-1.2,2.7-2.7c0-1.5-1.2-2.7-2.7-2.7
								C728.3,1214.4,727.1,1215.6,727.1,1217.1z"/>
								<path class="st23" d="M711,1217.1c0,1.5,1.2,2.7,2.7,2.7c1.5,0,2.7-1.2,2.7-2.7c0-1.5-1.2-2.7-2.7-2.7
								C712.2,1214.4,711,1215.6,711,1217.1z"/>
							</g>
							<circle class="st24" cx="721.7" cy="1227.4" r="36.6"/>
						</g>
						<g>
							<g>
								<path class="st25" d="M756.4,1249.6c1.9,5.3,7,9,12.9,9c5.9,0,11-3.8,12.9-9"/>
								<g>
									<path class="st26" d="M765.9,1240.9c0,0.9-0.8,1.7-1.7,1.7c-0.9,0-1.7-0.8-1.7-1.7c0-0.9,0.8-1.7,1.7-1.7
									C765.1,1239.2,765.9,1240,765.9,1240.9z"/>
									<path class="st26" d="M776.1,1240.9c0,0.9-0.8,1.7-1.7,1.7c-0.9,0-1.7-0.8-1.7-1.7c0-0.9,0.8-1.7,1.7-1.7
									C775.3,1239.2,776.1,1240,776.1,1240.9z"/>
								</g>
							</g>
						</g>
						<circle class="st27" cx="775.9" cy="1184.9" r="43.8"/>
						<circle class="st28" cx="770.2" cy="1246.5" r="23"/>
					</g>
				</g>
			</g>
		</g>
		<g>
			<path class="st3" d="M861.2,1186.2v11.1h-10.3v-11.2l-11.5-19.4h10.9l6.3,10.6l6.3-10.6h10L861.2,1186.2z"/>
			<path class="st3" d="M880,1196c-2.6-1.4-4.7-3.3-6.2-5.7s-2.2-5.2-2.2-8.2c0-3.1,0.7-5.8,2.2-8.2c1.5-2.4,3.5-4.3,6.2-5.7
			s5.6-2.1,8.9-2.1c3.3,0,6.3,0.7,8.9,2.1c2.6,1.4,4.7,3.3,6.2,5.7c1.5,2.4,2.2,5.2,2.2,8.2c0,3.1-0.7,5.8-2.2,8.2s-3.5,4.3-6.2,5.7
			c-2.6,1.4-5.6,2.1-8.9,2.1C885.5,1198,882.6,1197.4,880,1196z M892.3,1188.7c1-0.6,1.9-1.5,2.5-2.7c0.6-1.2,0.9-2.5,0.9-4
			c0-1.5-0.3-2.9-0.9-4s-1.4-2-2.5-2.7c-1-0.6-2.2-0.9-3.5-0.9s-2.4,0.3-3.5,0.9c-1,0.6-1.9,1.5-2.5,2.7s-0.9,2.5-0.9,4
			c0,1.5,0.3,2.9,0.9,4c0.6,1.2,1.4,2,2.5,2.7s2.2,0.9,3.5,0.9S891.3,1189.4,892.3,1188.7z"/>
			<path class="st3" d="M913.5,1194.2c-2.6-2.5-3.9-6.1-3.9-10.7v-16.8h10.3v16.5c0,2.2,0.4,3.9,1.2,4.9c0.8,1,2,1.5,3.5,1.5
			s2.7-0.5,3.5-1.5c0.8-1,1.2-2.7,1.2-4.9v-16.5h10.1v16.8c0,4.6-1.3,8.1-3.9,10.7c-2.6,2.5-6.3,3.8-11,3.8
			C919.8,1198,916.2,1196.8,913.5,1194.2z"/>
			<path class="st3" d="M870.4,1249.8l-0.1-13.9l-6.6,11.2h-4.5l-6.6-10.7v13.5h-9.4v-30.6h8.5l10,16.3l9.7-16.3h8.5l0.1,30.6H870.4z
			"/>
			<path class="st3" d="M905.6,1244.5H894l-2.1,5.3h-10.5l13.4-30.6H905l13.4,30.6h-10.7L905.6,1244.5z M902.8,1237l-3-7.7l-3,7.7
			H902.8z"/>
			<path class="st3" d="M920,1219.2h15.1c3.4,0,6.4,0.6,9,1.9c2.6,1.2,4.6,3,6.1,5.3c1.4,2.3,2.2,5,2.2,8.1c0,3.1-0.7,5.8-2.2,8.1
			c-1.4,2.3-3.5,4.1-6.1,5.3c-2.6,1.2-5.6,1.9-9,1.9H920V1219.2z M934.6,1241.8c2.2,0,4-0.6,5.3-1.9c1.3-1.3,2-3.1,2-5.4
			c0-2.3-0.7-4.1-2-5.4c-1.3-1.3-3.1-1.9-5.3-1.9h-4.3v14.5H934.6z"/>
			<path class="st3" d="M981.6,1242v7.8h-25.4v-30.6H981v7.8h-14.7v3.6h12.9v7.4h-12.9v4H981.6z"/>
			<path class="st3" d="M998.6,1219.2h10.3v30.6h-10.3V1219.2z"/>
			<path class="st3" d="M1020.6,1227.2h-9v-8h28.2v8h-9v22.6h-10.3V1227.2z"/>
		</g>
	</g>
	<g>
		<g>
			<g>
				<g>
					<path class="st5" d="M210,1076.9h-41.1c0,0,0,0,0,0c0,0,0,0,0,0c-0.1,0-0.1,0-0.2,0c0,0,0,0,0,0c-0.1,0-0.1,0-0.2,0c0,0,0,0,0,0
					c-0.1,0-0.1,0-0.2,0.1c0,0,0,0,0,0c-0.1,0-0.1,0.1-0.2,0.1c0,0,0,0,0,0c0,0-0.1,0.1-0.1,0.1c0,0,0,0,0,0l-14.7,14.7c0,0,0,0,0,0
					c0,0-0.1,0.1-0.1,0.1c0,0,0,0,0,0c0,0-0.1,0.1-0.1,0.2c0,0,0,0,0,0c0,0.1,0,0.1-0.1,0.2c0,0,0,0,0,0c0,0.1,0,0.1,0,0.2
					c0,0,0,0,0,0c0,0.1,0,0.1,0,0.2c0,0,0,0,0,0c0,0,0,0,0,0v64.6c0,2.4,1.9,4.3,4.3,4.3H210c2.4,0,4.3-1.9,4.3-4.3v-76.4
					C214.3,1078.9,212.4,1076.9,210,1076.9z M167.5,1081.6v8.4c0,0.9-0.7,1.6-1.6,1.6h-8.4L167.5,1081.6z M211.6,1157.6
					c0,0.9-0.7,1.6-1.6,1.6h-52.9c-0.9,0-1.6-0.7-1.6-1.6v-63.2H166c2.4,0,4.3-1.9,4.3-4.3v-10.4H210c0.9,0,1.6,0.7,1.6,1.6V1157.6z
					"/>
					<path class="st5" d="M166,1116.4h35.2c0.8,0,1.4-0.6,1.4-1.4s-0.6-1.4-1.4-1.4H166c-0.8,0-1.4,0.6-1.4,1.4
					S165.2,1116.4,166,1116.4z"/>
					<path class="st5" d="M166,1123.8h35.2c0.8,0,1.4-0.6,1.4-1.4s-0.6-1.4-1.4-1.4H166c-0.8,0-1.4,0.6-1.4,1.4
					S165.2,1123.8,166,1123.8z"/>
					<path class="st5" d="M166,1131.1h17.6c0.8,0,1.4-0.6,1.4-1.4s-0.6-1.4-1.4-1.4H166c-0.8,0-1.4,0.6-1.4,1.4
					S165.2,1131.1,166,1131.1z"/>
					<path class="st5" d="M185,1137.1c0-0.8-0.6-1.4-1.4-1.4H166c-0.8,0-1.4,0.6-1.4,1.4c0,0.8,0.6,1.4,1.4,1.4h17.6
					C184.4,1138.4,185,1137.8,185,1137.1z"/>
					<path class="st5" d="M190.9,1100.7c0-0.8-0.6-1.4-1.4-1.4c-0.8,0-1.4,0.6-1.4,1.4c0,2.7,2.5,4.9,5.9,5.3v0.2
					c0,0.8,0.6,1.4,1.4,1.4s1.4-0.6,1.4-1.4v-0.2c3.4-0.5,5.9-2.6,5.9-5.3c0-2.7-2.5-4.9-5.9-5.3v-5.3c1.7,0.3,3.1,1.3,3.1,2.5
					c0,0.8,0.6,1.4,1.4,1.4s1.4-0.6,1.4-1.4c0-2.7-2.5-4.9-5.9-5.3v-0.2c0-0.8-0.6-1.4-1.4-1.4s-1.4,0.6-1.4,1.4v0.2
					c-3.4,0.5-5.9,2.6-5.9,5.3c0,2.7,2.5,4.9,5.9,5.3v5.3C192.3,1102.9,190.9,1102,190.9,1100.7z M199.8,1100.7
					c0,1.2-1.5,2.2-3.1,2.5v-5C198.4,1098.6,199.8,1099.5,199.8,1100.7z M190.9,1092.6c0-1.2,1.5-2.2,3.1-2.5v5
					C192.3,1094.8,190.9,1093.9,190.9,1092.6z"/>
					<path class="st5" d="M203.9,1135.8c-0.7-0.4-1.5-0.1-1.9,0.5l-2.8,5l-0.4-0.3c-0.3-0.3-0.7-0.3-1.2-0.3
					c-0.4,0.1-0.7,0.4-0.9,0.7l-1.4,2.9l-0.5-0.5c-0.7-0.8-1.7-1.1-2.7-0.9c-1,0.2-1.8,0.9-2.1,1.9l-1.6,4.5l-3.8-4.7
					c-0.2-0.3-0.6-0.5-1-0.5c-0.4,0-0.7,0.1-1,0.3l-4,3.5c-0.6,0.5-0.6,1.4-0.1,1.9c0.5,0.6,1.4,0.6,1.9,0.1l2.9-2.5l3.6,4.5
					c0.4,0.5,1,0.8,1.7,0.8c0.1,0,0.2,0,0.4,0c0.8-0.1,1.4-0.7,1.6-1.4l2-5.7c0,0,0-0.1,0.1-0.1c0.1,0,0.1,0,0.1,0l1.8,2.1
					c0.3,0.3,0.8,0.5,1.2,0.5c0.5-0.1,0.9-0.3,1.1-0.8l1.6-3.2l0.3,0.2c0.3,0.2,0.7,0.3,1.1,0.3c0.4-0.1,0.7-0.3,0.9-0.7l3.6-6.4
					C204.8,1137,204.6,1136.2,203.9,1135.8z"/>
				</g>
			</g>

			<radialGradient id="SVGID_4_" cx="351.9662" cy="6408.3022" r="129.2727" gradientTransform="matrix(0.5538 0 0 4.348000e-02 -11.0515 893.4444)" gradientUnits="userSpaceOnUse">
				<stop offset="0.1034" style="stop-color:#E0E3E2"/>
				<stop offset="0.2677" style="stop-color:#E9EBEA"/>
				<stop offset="0.684" style="stop-color:#F9FAFA"/>
				<stop offset="1" style="stop-color:#FFFFFF"/>
			</radialGradient>
			<ellipse class="st17" cx="183.9" cy="1172.1" rx="101.1" ry="4.7"/>
			<path class="st9" d="M232.4,1131.8c0,0-1.9,19.1-17,20.4c15.1,1.3,17,20.4,17,20.4s1.9-19.1,17-20.4
			C234.3,1150.9,232.4,1131.8,232.4,1131.8z"/>
			<path class="st9" d="M243.9,1080.3c0,0-1.3,12.6-11.3,13.5c10,0.9,11.3,13.5,11.3,13.5s1.3-12.6,11.3-13.5
			C245.2,1093,243.9,1080.3,243.9,1080.3z"/>
		</g>
		<g>
			<path class="st3" d="M141.7,1201.1c-1.3-0.7-2.3-1.7-3-2.9c-0.7-1.2-1.1-2.6-1.1-4.2s0.4-2.9,1.1-4.2c0.7-1.2,1.7-2.2,3-2.9
			c1.3-0.7,2.7-1.1,4.3-1.1c1.2,0,2.4,0.2,3.4,0.6s1.9,1,2.6,1.9l-1.5,1.4c-1.2-1.3-2.7-1.9-4.5-1.9c-1.2,0-2.3,0.3-3.2,0.8
			s-1.7,1.3-2.2,2.2c-0.5,0.9-0.8,2-0.8,3.1s0.3,2.2,0.8,3.1c0.5,0.9,1.3,1.7,2.2,2.2s2,0.8,3.2,0.8c1.8,0,3.3-0.6,4.5-1.9l1.5,1.4
			c-0.7,0.8-1.6,1.4-2.7,1.9c-1,0.4-2.2,0.6-3.4,0.6C144.4,1202.2,142.9,1201.8,141.7,1201.1z"/>
			<path class="st3" d="M155,1185.1h2.2v16.9H155V1185.1z"/>
			<path class="st3" d="M172.2,1196.7h-9.8c0.1,1.1,0.6,1.9,1.4,2.6c0.8,0.6,1.8,1,3,1c1.4,0,2.6-0.5,3.5-1.5l1.2,1.4
			c-0.5,0.6-1.2,1.1-2,1.5c-0.8,0.3-1.7,0.5-2.7,0.5c-1.3,0-2.4-0.3-3.4-0.8s-1.7-1.3-2.3-2.2c-0.5-0.9-0.8-2-0.8-3.2
			c0-1.2,0.3-2.2,0.8-3.2c0.5-0.9,1.2-1.7,2.2-2.2c0.9-0.5,2-0.8,3.1-0.8s2.2,0.3,3.1,0.8c0.9,0.5,1.6,1.3,2.1,2.2
			c0.5,0.9,0.8,2,0.8,3.2C172.2,1196.2,172.2,1196.4,172.2,1196.7z M163.6,1192.6c-0.7,0.6-1.1,1.5-1.2,2.5h7.7
			c-0.1-1-0.5-1.8-1.2-2.5c-0.7-0.6-1.6-1-2.6-1S164.3,1192,163.6,1192.6z"/>
			<path class="st3" d="M183.1,1191.1c0.9,0.8,1.3,2,1.3,3.7v7.3h-2.1v-1.6c-0.4,0.6-0.9,1-1.6,1.3c-0.7,0.3-1.5,0.4-2.4,0.4
			c-1.4,0-2.4-0.3-3.2-1s-1.2-1.5-1.2-2.6c0-1.1,0.4-1.9,1.2-2.6c0.8-0.6,2-1,3.7-1h3.5v-0.4c0-0.9-0.3-1.7-0.8-2.2
			c-0.5-0.5-1.4-0.8-2.4-0.8c-0.7,0-1.4,0.1-2.1,0.4c-0.7,0.2-1.3,0.6-1.7,0.9l-0.9-1.6c0.6-0.5,1.4-0.9,2.2-1.1
			c0.9-0.3,1.8-0.4,2.8-0.4C181,1189.8,182.3,1190.2,183.1,1191.1z M181,1199.9c0.6-0.4,1-0.9,1.3-1.6v-1.7h-3.4
			c-1.9,0-2.8,0.6-2.8,1.9c0,0.6,0.2,1.1,0.7,1.4s1.1,0.5,2,0.5C179.6,1200.5,180.4,1200.3,181,1199.9z"/>
			<path class="st3" d="M192.3,1190.4c0.7-0.4,1.6-0.5,2.7-0.5v2.1c-0.1,0-0.3,0-0.5,0c-1.2,0-2.1,0.4-2.8,1.1c-0.7,0.7-1,1.7-1,3v6
			h-2.2v-12.1h2.1v2C191,1191.3,191.6,1190.7,192.3,1190.4z"/>
			<path class="st3" d="M214.7,1189.9l-5.3,12.1h-2.2l-5.3-12.1h2.3l4.1,9.7l4.2-9.7H214.7z"/>
			<path class="st3" d="M216.7,1187.2c-0.3-0.3-0.4-0.6-0.4-1s0.1-0.7,0.4-1c0.3-0.3,0.6-0.4,1.1-0.4s0.8,0.1,1.1,0.4s0.4,0.6,0.4,1
			c0,0.4-0.1,0.8-0.4,1c-0.3,0.3-0.6,0.4-1.1,0.4S217,1187.5,216.7,1187.2z M216.7,1189.9h2.2v12.1h-2.2V1189.9z"/>
			<path class="st3" d="M233.9,1196.7h-9.8c0.1,1.1,0.6,1.9,1.4,2.6c0.8,0.6,1.8,1,3,1c1.4,0,2.6-0.5,3.5-1.5l1.2,1.4
			c-0.5,0.6-1.2,1.1-2,1.5s-1.7,0.5-2.7,0.5c-1.3,0-2.4-0.3-3.4-0.8s-1.7-1.3-2.3-2.2c-0.5-0.9-0.8-2-0.8-3.2c0-1.2,0.3-2.2,0.8-3.2
			c0.5-0.9,1.2-1.7,2.2-2.2c0.9-0.5,2-0.8,3.1-0.8c1.2,0,2.2,0.3,3.1,0.8c0.9,0.5,1.6,1.3,2.1,2.2c0.5,0.9,0.8,2,0.8,3.2
			C234,1196.2,234,1196.4,233.9,1196.7z M225.4,1192.6c-0.7,0.6-1.1,1.5-1.2,2.5h7.7c-0.1-1-0.5-1.8-1.2-2.5c-0.7-0.6-1.6-1-2.6-1
			C227,1191.7,226.1,1192,225.4,1192.6z"/>
			<path class="st3" d="M255,1189.9l-4.5,12.1h-2.1l-3.5-9.2l-3.5,9.2h-2.1l-4.5-12.1h2.1l3.5,9.6l3.6-9.6h1.8l3.6,9.7l3.6-9.7H255z" />
		</g>
		<g>
			<path class="st3" d="M151.5,1230.2l-3.5-5.1h-0.2h-3.7v5.1h-4.2V1212h7.9c1.6,0,3,0.3,4.2,0.8c1.2,0.5,2.1,1.3,2.8,2.3
			c0.6,1,1,2.2,1,3.5s-0.3,2.5-1,3.5s-1.6,1.7-2.8,2.3l4.1,5.9H151.5z M150.5,1216.2c-0.7-0.5-1.6-0.8-2.9-0.8h-3.4v6.4h3.4
			c1.3,0,2.2-0.3,2.9-0.8c0.7-0.6,1-1.3,1-2.3C151.5,1217.6,151.1,1216.8,150.5,1216.2z"/>
			<path class="st3" d="M173.2,1226.8v3.4h-14.1V1212h13.8v3.4h-9.6v4h8.5v3.3h-8.5v4.2H173.2z"/>
			<path class="st3" d="M188.7,1212.8c1.2,0.5,2.1,1.3,2.8,2.3c0.6,1,1,2.2,1,3.5c0,1.3-0.3,2.5-1,3.5c-0.6,1-1.6,1.8-2.8,2.3
			c-1.2,0.5-2.6,0.8-4.2,0.8h-3.7v5h-4.2V1212h7.9C186.1,1212,187.5,1212.2,188.7,1212.8z M187.1,1220.9c0.7-0.5,1-1.3,1-2.3
			c0-1-0.3-1.8-1-2.4c-0.7-0.5-1.6-0.8-2.9-0.8h-3.4v6.3h3.4C185.5,1221.8,186.5,1221.5,187.1,1220.9z"/>
			<path class="st3" d="M199.4,1229.3c-1.5-0.8-2.7-1.9-3.6-3.4c-0.9-1.4-1.3-3-1.3-4.8c0-1.8,0.4-3.4,1.3-4.8s2.1-2.6,3.6-3.4
			s3.2-1.2,5.1-1.2s3.6,0.4,5.1,1.2s2.7,1.9,3.6,3.4c0.9,1.4,1.3,3,1.3,4.8c0,1.8-0.4,3.4-1.3,4.8c-0.9,1.4-2.1,2.6-3.6,3.4
			s-3.2,1.2-5.1,1.2S200.9,1230.1,199.4,1229.3z M207.4,1226.2c0.9-0.5,1.6-1.2,2-2.1c0.5-0.9,0.7-1.9,0.7-3c0-1.1-0.2-2.1-0.7-3
			c-0.5-0.9-1.2-1.6-2-2.1c-0.9-0.5-1.8-0.7-2.9-0.7c-1.1,0-2.1,0.2-2.9,0.7c-0.9,0.5-1.6,1.2-2,2.1c-0.5,0.9-0.7,1.9-0.7,3
			c0,1.1,0.2,2.1,0.7,3s1.2,1.6,2,2.1c0.9,0.5,1.8,0.7,2.9,0.7C205.6,1226.9,206.6,1226.7,207.4,1226.2z"/>
			<path class="st3" d="M229.3,1230.2l-3.5-5.1h-0.2h-3.7v5.1h-4.2V1212h7.9c1.6,0,3,0.3,4.2,0.8c1.2,0.5,2.1,1.3,2.8,2.3
			c0.6,1,1,2.2,1,3.5s-0.3,2.5-1,3.5s-1.6,1.7-2.8,2.3l4.1,5.9H229.3z M228.3,1216.2c-0.7-0.5-1.6-0.8-2.9-0.8h-3.4v6.4h3.4
			c1.3,0,2.2-0.3,2.9-0.8c0.7-0.6,1-1.3,1-2.3C229.2,1217.6,228.9,1216.8,228.3,1216.2z"/>
			<path class="st3" d="M240.4,1215.4h-5.8v-3.4h15.9v3.4h-5.8v14.8h-4.2V1215.4z"/>
			<path class="st3" d="M252.7,1212h4.2v18.3h-4.2V1212z"/>
			<path class="st3" d="M278,1212v18.3h-3.5l-9.1-11.1v11.1h-4.2V1212h3.5l9.1,11.1V1212H278z"/>
			<path class="st3" d="M294.7,1220.8h3.9v7.4c-1,0.7-2.1,1.3-3.4,1.7c-1.3,0.4-2.6,0.6-3.9,0.6c-1.9,0-3.6-0.4-5.1-1.2
			c-1.5-0.8-2.7-1.9-3.6-3.4c-0.9-1.4-1.3-3.1-1.3-4.9c0-1.8,0.4-3.4,1.3-4.9c0.9-1.4,2.1-2.6,3.6-3.4c1.5-0.8,3.3-1.2,5.2-1.2
			c1.6,0,3.1,0.3,4.4,0.8s2.4,1.3,3.3,2.3l-2.7,2.5c-1.3-1.4-2.9-2.1-4.7-2.1c-1.2,0-2.2,0.2-3.1,0.7c-0.9,0.5-1.6,1.2-2.1,2.1
			s-0.8,1.9-0.8,3.1c0,1.1,0.3,2.1,0.8,3s1.2,1.6,2.1,2.1c0.9,0.5,1.9,0.7,3.1,0.7c1.2,0,2.3-0.3,3.3-0.8V1220.8z"/>
		</g>
	</g>
	<g>
		<g>
			<path class="st3" d="M209.4,342.6v5.5h-2.3v-5.6l-6.3-10.4h2.4l5.1,8.4l5.1-8.4h2.3L209.4,342.6z"/>
			<path class="st3" d="M218.3,347.4c-1-0.5-1.7-1.3-2.2-2.2c-0.5-0.9-0.8-2-0.8-3.2s0.3-2.2,0.8-3.2c0.5-0.9,1.3-1.7,2.2-2.2
			c1-0.5,2-0.8,3.2-0.8c1.2,0,2.3,0.3,3.2,0.8c0.9,0.5,1.7,1.3,2.2,2.2c0.5,0.9,0.8,2,0.8,3.2s-0.3,2.2-0.8,3.2
			c-0.5,0.9-1.3,1.7-2.2,2.2s-2,0.8-3.2,0.8C220.3,348.2,219.2,348,218.3,347.4z M223.6,345.8c0.6-0.4,1.1-0.9,1.4-1.5
			c0.3-0.6,0.5-1.4,0.5-2.2s-0.2-1.6-0.5-2.2c-0.3-0.6-0.8-1.1-1.4-1.5c-0.6-0.3-1.3-0.5-2.1-0.5c-0.8,0-1.5,0.2-2.1,0.5
			c-0.6,0.3-1.1,0.8-1.5,1.5c-0.4,0.6-0.5,1.4-0.5,2.2s0.2,1.6,0.5,2.2c0.4,0.6,0.8,1.1,1.5,1.5s1.3,0.5,2.1,0.5
			C222.3,346.3,223,346.1,223.6,345.8z"/>
			<path class="st3" d="M242,336v12.1H240v-1.8c-0.4,0.6-1,1.1-1.7,1.4c-0.7,0.3-1.5,0.5-2.4,0.5c-1.6,0-2.9-0.4-3.8-1.3
			s-1.4-2.2-1.4-3.9V336h2.2v6.7c0,1.2,0.3,2.1,0.8,2.7c0.6,0.6,1.4,0.9,2.4,0.9c1.2,0,2.1-0.3,2.7-1c0.7-0.7,1-1.7,1-3V336H242z"/>
			<path class="st3" d="M262.4,337.2c0.9,0.9,1.4,2.2,1.4,3.9v6.9h-2.2v-6.7c0-1.2-0.3-2-0.8-2.6s-1.4-0.9-2.4-0.9
			c-1.2,0-2.1,0.3-2.8,1c-0.7,0.7-1,1.7-1,3v6.2h-2.2V336h2.1v1.8c0.4-0.6,1-1.1,1.8-1.4c0.8-0.3,1.6-0.5,2.6-0.5
			C260.3,335.9,261.5,336.3,262.4,337.2z"/>
			<path class="st3" d="M278.7,342.8H269c0.1,1.1,0.6,1.9,1.4,2.6c0.8,0.6,1.8,1,3,1c1.4,0,2.6-0.5,3.5-1.5l1.2,1.4
			c-0.5,0.6-1.2,1.1-2,1.5c-0.8,0.3-1.7,0.5-2.7,0.5c-1.3,0-2.4-0.3-3.4-0.8s-1.7-1.3-2.3-2.2c-0.5-0.9-0.8-2-0.8-3.2
			c0-1.2,0.3-2.2,0.8-3.2c0.5-0.9,1.2-1.7,2.2-2.2c0.9-0.5,2-0.8,3.1-0.8s2.2,0.3,3.1,0.8c0.9,0.5,1.6,1.3,2.1,2.2
			c0.5,0.9,0.8,2,0.8,3.2C278.8,342.3,278.8,342.5,278.7,342.8z M270.2,338.7c-0.7,0.6-1.1,1.5-1.2,2.5h7.7c-0.1-1-0.5-1.8-1.2-2.5
			c-0.7-0.6-1.6-1-2.6-1S270.9,338.1,270.2,338.7z"/>
			<path class="st3" d="M292.7,342.8h-9.8c0.1,1.1,0.6,1.9,1.4,2.6c0.8,0.6,1.8,1,3,1c1.4,0,2.6-0.5,3.5-1.5l1.2,1.4
			c-0.5,0.6-1.2,1.1-2,1.5s-1.7,0.5-2.7,0.5c-1.3,0-2.4-0.3-3.4-0.8s-1.7-1.3-2.3-2.2c-0.5-0.9-0.8-2-0.8-3.2c0-1.2,0.3-2.2,0.8-3.2
			c0.5-0.9,1.2-1.7,2.2-2.2c0.9-0.5,2-0.8,3.1-0.8c1.2,0,2.2,0.3,3.1,0.8c0.9,0.5,1.6,1.3,2.1,2.2c0.5,0.9,0.8,2,0.8,3.2
			C292.7,342.3,292.7,342.5,292.7,342.8z M284.1,338.7c-0.7,0.6-1.1,1.5-1.2,2.5h7.7c-0.1-1-0.5-1.8-1.2-2.5c-0.7-0.6-1.6-1-2.6-1
			C285.7,337.7,284.8,338.1,284.1,338.7z"/>
			<path class="st3" d="M307.1,331.2v16.9H305v-1.9c-0.5,0.7-1.1,1.2-1.8,1.5c-0.7,0.3-1.6,0.5-2.5,0.5c-1.2,0-2.2-0.3-3.1-0.8
			c-0.9-0.5-1.7-1.2-2.2-2.2c-0.5-0.9-0.8-2-0.8-3.2s0.3-2.3,0.8-3.2c0.5-0.9,1.2-1.6,2.2-2.2s2-0.8,3.1-0.8c0.9,0,1.7,0.2,2.4,0.5
			c0.7,0.3,1.3,0.8,1.8,1.4v-6.6H307.1z M303,345.8c0.6-0.4,1.1-0.9,1.5-1.5c0.3-0.6,0.5-1.4,0.5-2.2s-0.2-1.6-0.5-2.2
			c-0.3-0.6-0.8-1.1-1.5-1.5c-0.6-0.3-1.3-0.5-2.1-0.5c-0.8,0-1.5,0.2-2.1,0.5c-0.6,0.3-1.1,0.8-1.5,1.5c-0.4,0.6-0.5,1.4-0.5,2.2
			s0.2,1.6,0.5,2.2c0.4,0.6,0.8,1.1,1.5,1.5c0.6,0.4,1.3,0.5,2.1,0.5C301.7,346.3,302.4,346.1,303,345.8z"/>
		</g>
		<g>
			<path class="st3" d="M207.4,360.1h-5.8v-3.4h15.9v3.4h-5.8v14.8h-4.2V360.1z"/>
			<path class="st3" d="M231.4,374.9l-3.5-5.1h-0.2H224v5.1h-4.2v-18.3h7.9c1.6,0,3,0.3,4.2,0.8c1.2,0.5,2.1,1.3,2.8,2.3
			c0.6,1,1,2.2,1,3.5s-0.3,2.5-1,3.5c-0.7,1-1.6,1.7-2.8,2.3l4.1,5.9H231.4z M230.3,360.9c-0.7-0.5-1.6-0.8-2.9-0.8H224v6.4h3.4
			c1.3,0,2.2-0.3,2.9-0.8s1-1.3,1-2.3C231.3,362.2,231,361.4,230.3,360.9z"/>
			<path class="st3" d="M253.1,371.5v3.4h-14.1v-18.3h13.8v3.4h-9.6v4h8.5v3.3h-8.5v4.2H253.1z"/>
			<path class="st3" d="M268.4,371H260l-1.6,3.9H254l8.1-18.3h4.2l8.2,18.3h-4.4L268.4,371z M267.1,367.8l-2.9-7l-2.9,7H267.1z"/>
			<path class="st3" d="M279.3,360.1h-5.8v-3.4h15.9v3.4h-5.8v14.8h-4.2V360.1z"/>
			<path class="st3" d="M308.2,374.9l0-11l-5.4,9h-1.9l-5.3-8.8v10.7h-4v-18.3h3.5l6.8,11.3l6.7-11.3h3.5l0.1,18.3H308.2z"/>
			<path class="st3" d="M330.7,371.5v3.4h-14.1v-18.3h13.8v3.4h-9.6v4h8.5v3.3h-8.5v4.2H330.7z"/>
			<path class="st3" d="M350.8,356.6v18.3h-3.5l-9.1-11.1v11.1H334v-18.3h3.5l9.1,11.1v-11.1H350.8z"/>
			<path class="st3" d="M358.9,360.1H353v-3.4H369v3.4h-5.8v14.8h-4.2V360.1z"/>
		</g>
		<g>
			<polygon class="st30" points="293.8,256.8 267.6,256.8 267.6,230.4 242.2,230.4 242.2,256.8 215.8,256.8 215.8,282.4 242.2,282.4 
			242.2,308.8 267.6,308.8 267.6,282.4 293.8,282.4 		"/>

			<radialGradient id="SVGID_5_" cx="4155.5664" cy="2620.0239" r="129.2727" gradientTransform="matrix(0.296 0 0 5.423031e-02 -972.5613 174.3259)" gradientUnits="userSpaceOnUse">
				<stop offset="0.1034" style="stop-color:#E0E3E2"/>
				<stop offset="0.2677" style="stop-color:#E9EBEA"/>
				<stop offset="0.684" style="stop-color:#F9FAFA"/>
				<stop offset="1" style="stop-color:#FFFFFF"/>
			</radialGradient>
			<ellipse class="st19" cx="257.4" cy="316.4" rx="54" ry="5.9"/>
		</g>
		<path class="st9" d="M301.4,230.2c0,0-1.3,12.6-11.3,13.5c10,0.9,11.3,13.5,11.3,13.5s1.3-12.6,11.3-13.5
		C302.7,242.9,301.4,230.2,301.4,230.2z"/>
		<path class="st9" d="M320.7,254.4c0,0-0.8,7.9-7,8.5c6.2,0.5,7,8.5,7,8.5s0.8-7.9,7-8.5C321.5,262.3,320.7,254.4,320.7,254.4z"/>
	</g>
	<g>
		<g>
			<g>
				<path class="st18" d="M517.4,1113.1c0.4,2.6-0.2,5-1.8,7.2c-1.7,2.2-3.8,3.5-6.3,4c-1.9,0.3-3.7-0.1-5.3-1.2
				c-1.6-1.1-2.6-2.7-2.9-4.6c-0.4-2.6,0.2-5,2-7.3c1.7-2.3,3.9-3.7,6.4-4.1c1.9-0.3,3.7,0.1,5.2,1.3
				C516.2,1109.4,517.1,1111,517.4,1113.1z M524.4,1040.3c0.3,1.6-0.1,4.1-1.1,7.5c-0.8,2.6-2.1,8.8-4,18.5c-1.9,9.7-3,15.7-3.4,18
				c-0.4,2.3-0.6,5.1-0.7,8.3c-0.1,2.5-1.6,4-4.4,4.5c-3.7,0.6-5.9-0.9-6.5-4.6c-0.6-3.8,0.4-11.6,3.1-23.3
				c2.7-11.7,5-19.8,6.8-24.2c1.8-4.5,3.8-6.9,6.1-7.3C522.7,1037.3,524,1038.2,524.4,1040.3z"/>
			</g>

			<radialGradient id="SVGID_6_" cx="1069.1442" cy="6088.1426" r="129.2727" gradientTransform="matrix(0.5538 0 0 4.348000e-02 -11.0515 768.1596)" gradientUnits="userSpaceOnUse">
				<stop offset="0.1034" style="stop-color:#E0E3E2"/>
				<stop offset="0.2677" style="stop-color:#E9EBEA"/>
				<stop offset="0.684" style="stop-color:#F9FAFA"/>
				<stop offset="1" style="stop-color:#FFFFFF"/>
			</radialGradient>
			<ellipse class="st29" cx="581" cy="1032.9" rx="101.1" ry="4.7"/>
		</g>
		<g>
			<path class="st3" d="M542.9,1056.3v5.6h8v2h-8v6.4h-2.3v-15.9h11.2v2H542.9z"/>
			<path class="st3" d="M565.6,1058.2v12.1h-2.1v-1.8c-0.4,0.6-1,1.1-1.7,1.4c-0.7,0.3-1.5,0.5-2.4,0.5c-1.6,0-2.9-0.4-3.8-1.3
			s-1.4-2.2-1.4-3.9v-6.9h2.2v6.7c0,1.2,0.3,2.1,0.8,2.7c0.6,0.6,1.4,0.9,2.4,0.9c1.2,0,2.1-0.3,2.7-1c0.7-0.7,1-1.7,1-3v-6.2H565.6
			z"/>
			<path class="st3" d="M579.9,1059.4c0.9,0.9,1.4,2.2,1.4,3.9v6.9H579v-6.7c0-1.2-0.3-2-0.8-2.6s-1.4-0.9-2.4-0.9
			c-1.2,0-2.1,0.3-2.8,1c-0.7,0.7-1,1.7-1,3v6.2h-2.2v-12.1h2.1v1.8c0.4-0.6,1-1.1,1.8-1.4c0.8-0.3,1.6-0.5,2.6-0.5
			C577.7,1058.1,579,1058.5,579.9,1059.4z"/>
			<path class="st3" d="M596.7,1053.3v16.9h-2.1v-1.9c-0.5,0.7-1.1,1.2-1.8,1.5c-0.7,0.3-1.6,0.5-2.5,0.5c-1.2,0-2.2-0.3-3.1-0.8
			c-0.9-0.5-1.7-1.2-2.2-2.2c-0.5-0.9-0.8-2-0.8-3.2s0.3-2.3,0.8-3.2c0.5-0.9,1.2-1.6,2.2-2.2c0.9-0.5,2-0.8,3.1-0.8
			c0.9,0,1.7,0.2,2.4,0.5c0.7,0.3,1.3,0.8,1.8,1.4v-6.6H596.7z M592.6,1067.9c0.6-0.4,1.1-0.9,1.5-1.5c0.3-0.6,0.5-1.4,0.5-2.2
			s-0.2-1.6-0.5-2.2c-0.3-0.6-0.8-1.1-1.5-1.5c-0.6-0.3-1.3-0.5-2.1-0.5c-0.8,0-1.5,0.2-2.1,0.5c-0.6,0.3-1.1,0.8-1.5,1.5
			c-0.4,0.6-0.5,1.4-0.5,2.2s0.2,1.6,0.5,2.2c0.4,0.6,0.8,1.1,1.5,1.5c0.6,0.4,1.3,0.5,2.1,0.5
			C591.3,1068.5,591.9,1068.3,592.6,1067.9z"/>
			<path class="st3" d="M601.5,1070c-0.9-0.3-1.6-0.6-2.1-1l0.9-1.7c0.5,0.4,1.2,0.7,1.9,0.9c0.8,0.2,1.5,0.3,2.3,0.3
			c1.9,0,2.9-0.5,2.9-1.6c0-0.4-0.1-0.7-0.4-0.9c-0.3-0.2-0.6-0.4-1-0.5c-0.4-0.1-0.9-0.2-1.7-0.3c-1-0.2-1.8-0.3-2.4-0.5
			c-0.6-0.2-1.1-0.5-1.6-1c-0.4-0.5-0.7-1.1-0.7-2c0-1.1,0.5-2,1.4-2.6c0.9-0.7,2.1-1,3.7-1c0.8,0,1.6,0.1,2.4,0.3
			c0.8,0.2,1.5,0.5,2,0.8l-0.9,1.7c-1-0.6-2.1-1-3.5-1c-0.9,0-1.6,0.2-2.1,0.5s-0.7,0.7-0.7,1.2c0,0.4,0.1,0.7,0.4,0.9
			c0.3,0.2,0.6,0.4,1,0.5s1,0.2,1.7,0.4c1,0.2,1.8,0.3,2.4,0.5c0.6,0.2,1.1,0.5,1.5,1c0.4,0.5,0.6,1.1,0.6,1.9c0,1.1-0.5,2-1.4,2.6
			c-0.9,0.6-2.2,1-3.8,1C603.3,1070.4,602.4,1070.2,601.5,1070z"/>
		</g>
		<g>
			<path class="st3" d="M545.4,1083.7h-5.8v-3.4h15.9v3.4h-5.8v14.8h-4.2V1083.7z"/>
			<path class="st3" d="M569.4,1098.5l-3.5-5.1h-0.2H562v5.1h-4.2v-18.3h7.9c1.6,0,3,0.3,4.2,0.8c1.2,0.5,2.1,1.3,2.8,2.3
			c0.6,1,1,2.2,1,3.5s-0.3,2.5-1,3.5c-0.7,1-1.6,1.7-2.8,2.3l4.1,5.9H569.4z M568.3,1084.5c-0.7-0.5-1.6-0.8-2.9-0.8H562v6.4h3.4
			c1.3,0,2.2-0.3,2.9-0.8s1-1.3,1-2.3C569.3,1085.8,569,1085,568.3,1084.5z"/>
			<path class="st3" d="M589,1094.6h-8.5l-1.6,3.9h-4.3l8.1-18.3h4.2l8.2,18.3h-4.4L589,1094.6z M587.7,1091.4l-2.9-7l-2.9,7H587.7z" />
			<path class="st3" d="M613.7,1080.2v18.3h-3.5l-9.1-11.1v11.1h-4.2v-18.3h3.5l9.1,11.1v-11.1H613.7z"/>
			<path class="st3" d="M619.8,1098.2c-1.3-0.4-2.4-0.9-3.2-1.5l1.4-3.2c0.8,0.6,1.7,1,2.8,1.4s2.2,0.5,3.2,0.5
			c1.2,0,2.1-0.2,2.7-0.5c0.6-0.4,0.9-0.8,0.9-1.4c0-0.4-0.2-0.8-0.5-1.1s-0.8-0.5-1.3-0.7s-1.2-0.4-2.2-0.6c-1.4-0.3-2.5-0.7-3.4-1
			c-0.9-0.3-1.6-0.9-2.3-1.6c-0.6-0.7-1-1.7-1-2.9c0-1.1,0.3-2,0.9-2.9c0.6-0.9,1.4-1.5,2.6-2c1.2-0.5,2.6-0.8,4.2-0.8
			c1.2,0,2.3,0.1,3.4,0.4c1.1,0.3,2.1,0.7,2.9,1.2l-1.3,3.2c-1.7-1-3.4-1.4-5.1-1.4c-1.2,0-2.1,0.2-2.6,0.6
			c-0.6,0.4-0.8,0.9-0.8,1.5s0.3,1.1,1,1.4c0.7,0.3,1.6,0.6,3,0.9c1.4,0.3,2.5,0.7,3.4,1c0.9,0.3,1.6,0.9,2.3,1.6
			c0.6,0.7,1,1.7,1,2.9c0,1-0.3,2-0.9,2.9c-0.6,0.9-1.5,1.5-2.6,2s-2.6,0.8-4.3,0.8C622.6,1098.8,621.2,1098.6,619.8,1098.2z"/>
			<path class="st3" d="M646.7,1094.6h-8.5l-1.6,3.9h-4.3l8.1-18.3h4.2l8.2,18.3h-4.4L646.7,1094.6z M645.4,1091.4l-2.9-7l-2.9,7
			H645.4z"/>
			<path class="st3" d="M658.1,1097.6c-1.5-0.8-2.7-1.9-3.5-3.4c-0.9-1.4-1.3-3.1-1.3-4.9c0-1.8,0.4-3.4,1.3-4.9
			c0.9-1.4,2-2.6,3.5-3.4c1.5-0.8,3.2-1.2,5.1-1.2c1.6,0,3,0.3,4.3,0.8s2.4,1.4,3.2,2.4l-2.7,2.5c-1.2-1.4-2.8-2.1-4.6-2.1
			c-1.1,0-2.1,0.2-3,0.7c-0.9,0.5-1.6,1.2-2.1,2.1c-0.5,0.9-0.7,1.9-0.7,3c0,1.1,0.2,2.1,0.7,3c0.5,0.9,1.2,1.6,2.1,2.1
			c0.9,0.5,1.9,0.7,3,0.7c1.8,0,3.4-0.7,4.6-2.2l2.7,2.5c-0.9,1.1-1.9,1.9-3.2,2.4c-1.3,0.6-2.7,0.8-4.3,0.8
			C661.3,1098.8,659.6,1098.4,658.1,1097.6z"/>
			<path class="st3" d="M677.1,1083.7h-5.8v-3.4h15.9v3.4h-5.8v14.8h-4.2V1083.7z"/>
			<path class="st3" d="M689.4,1080.2h4.2v18.3h-4.2V1080.2z"/>
			<path class="st3" d="M701.7,1097.6c-1.5-0.8-2.7-1.9-3.6-3.4c-0.9-1.4-1.3-3-1.3-4.8c0-1.8,0.4-3.4,1.3-4.8
			c0.9-1.4,2.1-2.6,3.6-3.4s3.2-1.2,5.1-1.2s3.6,0.4,5.1,1.2s2.7,1.9,3.6,3.4c0.9,1.4,1.3,3,1.3,4.8c0,1.8-0.4,3.4-1.3,4.8
			c-0.9,1.4-2.1,2.6-3.6,3.4s-3.2,1.2-5.1,1.2S703.2,1098.4,701.7,1097.6z M709.8,1094.4c0.9-0.5,1.6-1.2,2-2.1
			c0.5-0.9,0.7-1.9,0.7-3c0-1.1-0.2-2.1-0.7-3c-0.5-0.9-1.2-1.6-2-2.1c-0.9-0.5-1.8-0.7-2.9-0.7s-2.1,0.2-2.9,0.7
			c-0.9,0.5-1.6,1.2-2,2.1c-0.5,0.9-0.7,1.9-0.7,3c0,1.1,0.2,2.1,0.7,3c0.5,0.9,1.2,1.6,2,2.1c0.9,0.5,1.8,0.7,2.9,0.7
			S708.9,1094.9,709.8,1094.4z"/>
			<path class="st3" d="M736.8,1080.2v18.3h-3.5l-9.1-11.1v11.1H720v-18.3h3.5l9.1,11.1v-11.1H736.8z"/>
		</g>
		<path class="st33" d="M612.6,1020.7l-77.6-60l97.1-16.6l-8.5,33l-70.9-12.2l68.4,22.9C621.1,987.6,612.8,1020.9,612.6,1020.7z"/>
	</g>
	<path class="st34" d="M200.6,1251.4c14.8,20.6,34.8,35.6,57.8,48.6c5,3,10,4,15,6c15,6,29,10,44,15c15,4,31,5,46,6c41,2,81-6,122-16
	c23-6,44-12,65-21c6-3,11-4,17-7c16-7,33-13,49-23c8-5,15-8,23-13c5-3,10-6,15.1-9.3"/>
	<path class="st34" d="M508.6,959.9c-107.3-4.8-219.3,28.2-299,101.3"/>
	<path class="st34" d="M850.6,789.3c5.8,1.7,10.8,3.7,16.8,6.7c3,2,6,2,9,3c18,9,74.8,45.6,106,101c1.6,2.8,1,5,2,8c6,13,11,27,10,42
	c-2,28-18,52-43,66c-1,1-3.1,1.9-4.1,1.9c-58,26-121.9,19.1-183.9,13.1c-14-2-48-11-51-13c-15-5-29-11-44-18c-6-2-11-4-16.6-6.4"/>
	<path class="st34" d="M291.1,922.4c7.2-2.5,26.2-12.4,34.2-16.4c46-24,90-49,138-71c2-1,3,0,5-1c62-26,126-51,194-55c3-1,5-3,8.4-3" />
	<path class="st34" d="M216.2,695.3c-0.8,0.8-2.8,1.8-3.8,1.8c-11,2-20,6-31,9c-2,0-5,0-7,1c-33,15-68,30-86,64c-2,3-2,7-3,10
	c-13,33-2,70,18.6,96.6"/>
	<path class="st34" d="M806.4,663.5c-17.5,10.7-26.3,15.4-66,34.6c-43.2,20.8-90,26-138,18c-28-4-54-10-79-23c-15-8-29-16-40-30
	c-1-2-3-5-5-7c-29-44,4-97,45-118c15-7,30-11,46-9c24,3,43,16,58,36c1,1,1,3,2,4c18,19,18,49,7,72c-4,8-11,15-16,23c-5,6-12,9-17,15
	c-1,1-2,0-3,1c-42,36-98,52-152,37c-35-10-69-22-103.8-28.7"/>
	<path class="st34" d="M686.8,378.4c53.6,9.7,107.6,21.7,157.6,48.7c21,12,40,26,53.5,45.2"/>
	<path class="st34" d="M187.9,516.4c11.4-9.3,22.4-17.3,34.4-26.3c11-7,20-14,31-21c98-61,202-98,313.7-100.7"/>
	<path class="st34" d="M565.2,360.1c-39.8,0.3-95.9-3.9-159.1-24.5c-41.2-13.4-75.2-30.4-101.5-46.1"/>
	<g>
		<path class="st3" d="M561.2,438.1c-1.5-0.8-2.7-1.9-3.5-3.4c-0.9-1.4-1.3-3.1-1.3-4.9c0-1.8,0.4-3.4,1.3-4.9c0.9-1.4,2-2.6,3.5-3.4
		c1.5-0.8,3.2-1.2,5.1-1.2c1.6,0,3,0.3,4.3,0.8s2.4,1.4,3.2,2.4l-2.7,2.5c-1.2-1.4-2.8-2.1-4.6-2.1c-1.1,0-2.1,0.2-3,0.7
		c-0.9,0.5-1.6,1.2-2.1,2.1c-0.5,0.9-0.7,1.9-0.7,3c0,1.1,0.2,2.1,0.7,3c0.5,0.9,1.2,1.6,2.1,2.1c0.9,0.5,1.9,0.7,3,0.7
		c1.8,0,3.4-0.7,4.6-2.2l2.7,2.5c-0.9,1.1-1.9,1.9-3.2,2.4c-1.3,0.6-2.7,0.8-4.3,0.8C564.4,439.3,562.7,438.9,561.2,438.1z"/>
		<path class="st3" d="M588.3,435h-8.5l-1.6,3.9h-4.3l8.1-18.3h4.2l8.2,18.3h-4.4L588.3,435z M587,431.8l-2.9-7l-2.9,7H587z"/>
		<path class="st3" d="M612.9,439l0-11l-5.4,9h-1.9l-5.3-8.8V439h-4v-18.3h3.5l6.8,11.3l6.7-11.3h3.5l0.1,18.3H612.9z"/>
		<path class="st3" d="M633.3,421.5c1.2,0.5,2.1,1.3,2.8,2.3c0.6,1,1,2.2,1,3.5c0,1.3-0.3,2.5-1,3.5c-0.6,1-1.6,1.8-2.8,2.3
		s-2.6,0.8-4.2,0.8h-3.7v5h-4.2v-18.3h7.9C630.7,420.7,632.1,421,633.3,421.5z M631.7,429.7c0.7-0.5,1-1.3,1-2.3c0-1-0.3-1.8-1-2.4
		c-0.7-0.5-1.6-0.8-2.9-0.8h-3.4v6.3h3.4C630.1,430.5,631.1,430.2,631.7,429.7z"/>
		<path class="st3" d="M651.1,435h-8.5L641,439h-4.3l8.1-18.3h4.2l8.2,18.3h-4.4L651.1,435z M649.8,431.8l-2.9-7l-2.9,7H649.8z"/>
		<path class="st3" d="M659.1,420.7h4.2V439h-4.2V420.7z"/>
		<path class="st3" d="M680,429.5h3.9v7.4c-1,0.7-2.1,1.3-3.4,1.7c-1.3,0.4-2.6,0.6-3.9,0.6c-1.9,0-3.6-0.4-5.1-1.2
		c-1.5-0.8-2.7-1.9-3.6-3.4c-0.9-1.4-1.3-3.1-1.3-4.9c0-1.8,0.4-3.4,1.3-4.9c0.9-1.4,2.1-2.6,3.6-3.4s3.3-1.2,5.2-1.2
		c1.6,0,3.1,0.3,4.4,0.8c1.3,0.5,2.4,1.3,3.3,2.3l-2.7,2.5c-1.3-1.4-2.9-2.1-4.7-2.1c-1.2,0-2.2,0.2-3.1,0.7
		c-0.9,0.5-1.6,1.2-2.1,2.1c-0.5,0.9-0.8,1.9-0.8,3.1c0,1.1,0.3,2.1,0.8,3c0.5,0.9,1.2,1.6,2.1,2.1c0.9,0.5,1.9,0.7,3.1,0.7
		c1.2,0,2.3-0.3,3.3-0.8V429.5z"/>
		<path class="st3" d="M704.5,420.7V439H701l-9.1-11.1V439h-4.2v-18.3h3.5l9.1,11.1v-11.1H704.5z"/>
	</g>
	<g>
		<g>
			<g>
				<g>
					<path class="st5" d="M619.2,281.8L619.2,281.8L619.2,281.8 M619.6,288.3c2.2,3.8,4.3,9.6,3.7,16.3c-0.6,6.7-4.5,12-9.2,15
					C618.4,310.8,620,301.4,619.6,288.3 M616.6,280.3c-0.7,0-1.1,0.6-1,2c1.5,19.6-0.5,30.8-9.4,43.3c9.7,0,19.7-9.1,20.7-20.7
					C628,291.4,619.6,280.3,616.6,280.3L616.6,280.3z"/>
				</g>
				<g>
					<g>
						<path class="st5" d="M639.7,281.9L639.7,281.9L639.7,281.9 M639.9,288.6c1.1,2.1,2.1,4.7,2.8,7.9c1.3,6.1,1.9,18.1-8.3,30.8
						c-1,1.3-1.1,3.1-0.1,4.4c0.7,0.9,1.8,1.5,2.9,1.5c0.5,0,0.9-0.1,1.3-0.3c0.5-0.2,10-4.1,17.3-15.4c-0.2,1.8-0.6,3.8-1.3,6.1
						c-2.1,7-7.3,16.7-19.8,23.3c-1.5,0.8-2.3,2.6-1.8,4.2c0.5,1.5,1.9,2.6,3.5,2.6c0.1,0,0.2,0,0.3,0c0.3,0,5.8-0.6,12.1-3.3
						c-4.2,4.6-10.9,9.7-19.6,11.4c-2.5,0.5-5.2,0.8-7.9,0.8c-12.6,0-23.3-5.6-28.5-15c-2.5-4.6-3.1-9.5-3.6-14.3
						c-0.7-6.3-1.4-13.2-7.2-18.3c1.3-0.8,2.6-1,3.6-1c1.8,0,3.7,0.7,5.1,2c2.3,2.3,2.9,4.7,3.6,7.2c0.8,2.9,1.7,6.5,5.6,8.7
						c2,1.1,4.4,1.7,7,1.7c7.1,0,15.6-4.4,21.2-11C635.5,313.5,639.6,301.5,639.9,288.6 M657.6,345.2L657.6,345.2L657.6,345.2
						 M637.1,280.3c-0.7,0-1.1,0.6-1,2.1c1.2,16.1-3.8,29.3-10.7,37.7c-4.6,5.5-12.1,9.7-18.4,9.7c-1.9,0-3.7-0.4-5.2-1.2
						c-5.2-2.9-2.4-9.3-8.5-15.3c-2-1.9-4.8-3-7.6-3c-3.3,0-6.7,1.5-9.1,5.1c12.9,7.1,6.1,21,13.2,33.8c6.6,12,19.6,16.9,31.6,16.9
						c2.9,0,5.8-0.3,8.6-0.8c19.5-3.9,30.7-23.5,26.9-23.5c-0.5,0-1.3,0.4-2.4,1.2c-8.1,6.1-18,7.1-18,7.1c26-13.6,25-42,21.2-42
						c-0.5,0-1.1,0.6-1.7,1.8c-6.8,14.9-18.7,19.7-18.7,19.7c9.8-12.1,11-24.5,9-33.8C644.2,286.5,639.2,280.3,637.1,280.3
						L637.1,280.3z"/>
					</g>
				</g>
			</g>
		</g>

		<radialGradient id="SVGID_7_" cx="1143.5326" cy="4577.2515" r="129.2727" gradientTransform="matrix(0.5538 0 0 4.348000e-02 -11.0515 176.9177)" gradientUnits="userSpaceOnUse">
			<stop offset="0.1034" style="stop-color:#E0E3E2"/>
			<stop offset="0.2677" style="stop-color:#E9EBEA"/>
			<stop offset="0.684" style="stop-color:#F9FAFA"/>
			<stop offset="1" style="stop-color:#FFFFFF"/>
		</radialGradient>
		<ellipse class="st31" cx="622.2" cy="375.9" rx="101.1" ry="4.7"/>
	</g>
	<path class="st34" d="M561.7,350.7c-24.6-3.7-58.2-15.2-92.4-49.6c-26.6-26.7-40.5-51.2-52.1-73.1"/>
	<g>
		<g>
			<g>
				<path class="st5" d="M104.9,458.2H85.4c-2.3,0-4.1,1.8-4.1,4.1c0,2.3,1.8,4.1,4.1,4.1h19.5c2.3,0,4.1-1.8,4.1-4.1
				C109.1,460,107.2,458.2,104.9,458.2z M106.3,462.3c0,0.7-0.6,1.3-1.3,1.3H85.4c-0.7,0-1.3-0.6-1.3-1.3c0-0.7,0.6-1.3,1.3-1.3
				h19.5C105.7,460.9,106.3,461.5,106.3,462.3z"/>
				<path class="st5" d="M82.8,468.2c0,3.7,2.7,6.9,6.3,7.6c0.9,2.7,3.3,4.5,6.1,4.5c2.8,0,5.3-1.8,6.2-4.5c3.6-0.7,6.3-3.9,6.3-7.6
				v-1.4H82.8V468.2z M90.9,473.2l-0.6,0c-2.1-0.1-3.9-1.6-4.5-3.6h18.9c-0.6,2-2.4,3.4-4.5,3.6l-0.6,0L90.9,473.2z M98.2,476
				c-0.7,1-1.8,1.5-3,1.5c-1.2,0-2.3-0.6-3-1.5H98.2z"/>
				<path class="st5" d="M95.2,391.1c-15.3,0-27.7,12.4-27.7,27.7c0,6.3,2.1,12.2,5.9,17.1c3,3.7,5.8,7.9,8.3,12v9.8h26.9v-9.5
				c2.6-4.3,5.7-8.9,8.4-12.3c3.9-4.9,5.9-10.8,5.9-17.1C122.9,403.5,110.5,391.1,95.2,391.1z M91.8,431.9l1.9,7.1l3.2-7.8l1.6,4.5
				l3.5-1.6l-4.5,20.8h-4.3l-4.6-20.8L91.8,431.9z M106,447.1l-0.2,0.3v7.5h-5.6l5.9-27.6l-2.7-0.6l-1,4.6l-2.7,1.2l-2.7-7.8l-2.9,7
				l-0.9-3.6l-5.2,3.4l-1.1-5l-2.9,0.6l6,27.6h-5.6v-7.7l-0.2-0.3c-2.6-4.3-5.5-8.7-8.7-12.7c-3.5-4.4-5.3-9.7-5.3-15.4
				c0-13.8,11.2-24.9,24.9-24.9c13.8,0,24.9,11.2,24.9,24.9c0,5.6-1.8,11-5.3,15.4h0C112,437.7,108.7,442.6,106,447.1z"/>
				<path class="st5" d="M96.2,386.6c0.7,0,1.3-0.6,1.3-1.3v-12.1c0-0.7-0.6-1.3-1.3-1.3c-0.7,0-1.3,0.6-1.3,1.3v12.1
				C94.9,386,95.5,386.6,96.2,386.6z"/>
				<path class="st5" d="M114,390.9c0.2,0.1,0.4,0.2,0.7,0.2c0.4,0,0.9-0.2,1.1-0.6l6.2-10.3c0.4-0.6,0.2-1.4-0.4-1.7
				c-0.3-0.2-0.6-0.2-1-0.1c-0.3,0.1-0.6,0.3-0.8,0.6l-6.2,10.3c-0.2,0.3-0.2,0.6-0.1,1C113.5,390.5,113.7,390.7,114,390.9z"/>
				<path class="st5" d="M126.2,405.7c0.2,0,0.4,0,0.6-0.1l10.7-5.6c0.6-0.3,0.9-1.1,0.5-1.7c-0.3-0.6-1.1-0.9-1.7-0.5l-10.7,5.6
				c-0.6,0.3-0.9,1.1-0.5,1.7C125.3,405.4,125.7,405.7,126.2,405.7z"/>
				<path class="st5" d="M142.6,420.7c-0.2-0.3-0.5-0.4-0.9-0.4l-12-0.8c-0.7,0-1.3,0.5-1.3,1.2c0,0.7,0.5,1.3,1.2,1.3l12,0.8l0.1,0
				c0.7,0,1.2-0.5,1.3-1.2C143,421.3,142.8,421,142.6,420.7z"/>
				<path class="st5" d="M134.7,444.8l-9.9-6.9c-0.3-0.2-0.6-0.3-1-0.2c-0.3,0.1-0.6,0.2-0.8,0.5c-0.4,0.6-0.3,1.4,0.3,1.8l9.9,6.9
				c0.2,0.1,0.5,0.2,0.7,0.2c0.4,0,0.8-0.2,1-0.5c0.2-0.3,0.3-0.6,0.2-0.9C135.2,445.3,135,445,134.7,444.8z"/>
				<path class="st5" d="M74.9,390.5c0.2,0.4,0.6,0.6,1.1,0.6c0.2,0,0.5-0.1,0.7-0.2c0.6-0.4,0.8-1.1,0.4-1.7l-6.2-10.3
				c-0.2-0.3-0.5-0.5-0.8-0.6c-0.3-0.1-0.7,0-1,0.1c-0.6,0.4-0.8,1.1-0.4,1.7L74.9,390.5z"/>
				<path class="st5" d="M53.2,399.9l10.7,5.6c0.2,0.1,0.4,0.1,0.6,0.1c0.5,0,0.9-0.3,1.1-0.7c0.3-0.6,0.1-1.4-0.5-1.7l-10.7-5.6
				c-0.6-0.3-1.4-0.1-1.7,0.5C52.4,398.8,52.6,399.6,53.2,399.9z"/>
				<path class="st5" d="M62.3,420.7c0-0.7-0.7-1.2-1.3-1.2l-12,0.8c-0.3,0-0.6,0.2-0.9,0.4c-0.2,0.3-0.3,0.6-0.3,0.9
				c0,0.7,0.6,1.2,1.3,1.2l12.1-0.8C61.8,422,62.3,421.4,62.3,420.7z"/>
				<path class="st5" d="M66.8,437.7c-0.3-0.1-0.7,0-0.9,0.2l-9.9,6.9c-0.6,0.4-0.7,1.2-0.3,1.8c0.2,0.3,0.6,0.5,1,0.5
				c0.3,0,0.5-0.1,0.7-0.2l9.9-6.9c0.6-0.4,0.7-1.2,0.3-1.8C67.4,437.9,67.1,437.8,66.8,437.7z"/>
			</g>

			<radialGradient id="SVGID_8_" cx="293.9642" cy="2945.8511" r="129.2727" gradientTransform="matrix(0.5011 0 0 5.423031e-02 -52.25 333.3532)" gradientUnits="userSpaceOnUse">
				<stop offset="0.1034" style="stop-color:#E0E3E2"/>
				<stop offset="0.2677" style="stop-color:#E9EBEA"/>
				<stop offset="0.684" style="stop-color:#F9FAFA"/>
				<stop offset="1" style="stop-color:#FFFFFF"/>
			</radialGradient>
			<ellipse class="st32" cx="95" cy="493.1" rx="91.4" ry="5.9"/>
			<path class="st9" d="M168.7,439.9c0,0-1.9,19.1-17,20.4c15.1,1.3,17,20.4,17,20.4s1.9-19.1,17-20.4
			C170.7,459,168.7,439.9,168.7,439.9z"/>
			<path class="st9" d="M196.9,399.5c0,0-1.3,12.6-11.3,13.5c10,0.9,11.3,13.5,11.3,13.5s1.3-12.6,11.3-13.5
			C198.2,412.1,196.9,399.5,196.9,399.5z"/>
		</g>
		<g>
			<g>
				<path class="st3" d="M38.5,513v5.5h-2.3V513l-6.3-10.4h2.4l5.1,8.4l5.1-8.4h2.3L38.5,513z"/>
				<path class="st3" d="M47.4,517.9c-1-0.5-1.7-1.3-2.2-2.2c-0.5-0.9-0.8-2-0.8-3.2c0-1.2,0.3-2.2,0.8-3.2c0.5-0.9,1.3-1.7,2.2-2.2
				c1-0.5,2-0.8,3.2-0.8c1.2,0,2.3,0.3,3.2,0.8c0.9,0.5,1.7,1.3,2.2,2.2c0.5,0.9,0.8,2,0.8,3.2c0,1.2-0.3,2.2-0.8,3.2
				c-0.5,0.9-1.3,1.7-2.2,2.2c-0.9,0.5-2,0.8-3.2,0.8C49.4,518.7,48.4,518.4,47.4,517.9z M52.7,516.2c0.6-0.4,1.1-0.9,1.4-1.5
				c0.3-0.6,0.5-1.4,0.5-2.2c0-0.8-0.2-1.6-0.5-2.2c-0.3-0.6-0.8-1.1-1.4-1.5c-0.6-0.3-1.3-0.5-2.1-0.5c-0.8,0-1.5,0.2-2.1,0.5
				c-0.6,0.3-1.1,0.8-1.5,1.5c-0.4,0.6-0.5,1.4-0.5,2.2c0,0.8,0.2,1.6,0.5,2.2c0.4,0.6,0.8,1.1,1.5,1.5c0.6,0.4,1.3,0.5,2.1,0.5
				C51.4,516.7,52.1,516.6,52.7,516.2z"/>
				<path class="st3" d="M71.2,506.5v12.1h-2.1v-1.8c-0.4,0.6-1,1.1-1.7,1.4c-0.7,0.3-1.5,0.5-2.4,0.5c-1.6,0-2.9-0.4-3.8-1.3
				c-0.9-0.9-1.4-2.2-1.4-3.9v-6.9H62v6.7c0,1.2,0.3,2.1,0.8,2.7c0.6,0.6,1.4,0.9,2.4,0.9c1.2,0,2.1-0.3,2.7-1c0.7-0.7,1-1.7,1-3
				v-6.2H71.2z"/>
				<path class="st3" d="M91.6,507.7c0.9,0.9,1.4,2.2,1.4,3.9v6.9h-2.2v-6.7c0-1.2-0.3-2-0.8-2.6c-0.6-0.6-1.4-0.9-2.4-0.9
				c-1.2,0-2.1,0.3-2.8,1s-1,1.7-1,3v6.2h-2.2v-16.9h2.2v6.5c0.5-0.6,1.1-1,1.8-1.3c0.7-0.3,1.6-0.5,2.5-0.5
				C89.4,506.3,90.7,506.8,91.6,507.7z"/>
				<path class="st3" d="M105.2,507.6c0.9,0.8,1.3,2,1.3,3.7v7.3h-2.1v-1.6c-0.4,0.6-0.9,1-1.6,1.3c-0.7,0.3-1.5,0.4-2.4,0.4
				c-1.4,0-2.4-0.3-3.2-1c-0.8-0.7-1.2-1.5-1.2-2.6c0-1.1,0.4-1.9,1.2-2.6c0.8-0.6,2-1,3.7-1h3.5v-0.4c0-0.9-0.3-1.7-0.8-2.2
				c-0.5-0.5-1.4-0.8-2.4-0.8c-0.7,0-1.4,0.1-2.1,0.4c-0.7,0.2-1.3,0.6-1.7,0.9l-0.9-1.6c0.6-0.5,1.4-0.9,2.2-1.1
				c0.9-0.3,1.8-0.4,2.8-0.4C103,506.3,104.3,506.8,105.2,507.6z M103,516.4c0.6-0.4,1-0.9,1.3-1.6v-1.7H101c-1.9,0-2.8,0.6-2.8,1.9
				c0,0.6,0.2,1.1,0.7,1.4c0.5,0.3,1.1,0.5,2,0.5S102.4,516.8,103,516.4z"/>
				<path class="st3" d="M121,506.5l-5.3,12.1h-2.2l-5.3-12.1h2.3l4.1,9.7l4.2-9.7H121z"/>
				<path class="st3" d="M133.6,513.2h-9.8c0.1,1.1,0.6,1.9,1.4,2.6c0.8,0.6,1.8,1,3,1c1.4,0,2.6-0.5,3.5-1.5l1.2,1.4
				c-0.5,0.6-1.2,1.1-2,1.5c-0.8,0.3-1.7,0.5-2.7,0.5c-1.3,0-2.4-0.3-3.4-0.8s-1.7-1.3-2.3-2.2c-0.5-0.9-0.8-2-0.8-3.2
				c0-1.2,0.3-2.2,0.8-3.2c0.5-0.9,1.2-1.7,2.2-2.2c0.9-0.5,2-0.8,3.1-0.8s2.2,0.3,3.1,0.8c0.9,0.5,1.6,1.3,2.1,2.2
				c0.5,0.9,0.8,2,0.8,3.2C133.6,512.7,133.6,512.9,133.6,513.2z M125,509.1c-0.7,0.6-1.1,1.5-1.2,2.5h7.7c-0.1-1-0.5-1.8-1.2-2.5
				c-0.7-0.6-1.6-1-2.6-1C126.6,508.2,125.7,508.5,125,509.1z"/>
				<path class="st3" d="M151,507.6c0.9,0.8,1.3,2,1.3,3.7v7.3h-2.1v-1.6c-0.4,0.6-0.9,1-1.6,1.3c-0.7,0.3-1.5,0.4-2.4,0.4
				c-1.4,0-2.4-0.3-3.2-1c-0.8-0.7-1.2-1.5-1.2-2.6c0-1.1,0.4-1.9,1.2-2.6c0.8-0.6,2-1,3.7-1h3.5v-0.4c0-0.9-0.3-1.7-0.8-2.2
				c-0.5-0.5-1.4-0.8-2.4-0.8c-0.7,0-1.4,0.1-2.1,0.4c-0.7,0.2-1.3,0.6-1.7,0.9l-0.9-1.6c0.6-0.5,1.4-0.9,2.2-1.1
				c0.9-0.3,1.8-0.4,2.8-0.4C148.8,506.3,150.1,506.8,151,507.6z M148.8,516.4c0.6-0.4,1-0.9,1.3-1.6v-1.7h-3.4
				c-1.9,0-2.8,0.6-2.8,1.9c0,0.6,0.2,1.1,0.7,1.4c0.5,0.3,1.1,0.5,2,0.5S148.2,516.8,148.8,516.4z"/>
				<path class="st3" d="M166.5,507.7c0.9,0.9,1.4,2.2,1.4,3.9v6.9h-2.2v-6.7c0-1.2-0.3-2-0.8-2.6c-0.6-0.6-1.4-0.9-2.4-0.9
				c-1.2,0-2.1,0.3-2.8,1c-0.7,0.7-1,1.7-1,3v6.2h-2.2v-12.1h2.1v1.8c0.4-0.6,1-1.1,1.8-1.4c0.8-0.3,1.6-0.5,2.6-0.5
				C164.4,506.3,165.6,506.8,166.5,507.7z"/>
				<path class="st3" d="M32.2,531.6h4.2v18.3h-4.2V531.6z"/>
				<path class="st3" d="M40.8,531.6h8.3c2,0,3.7,0.4,5.3,1.1c1.5,0.8,2.7,1.8,3.5,3.2c0.8,1.4,1.3,3,1.3,4.8s-0.4,3.4-1.3,4.8
				c-0.8,1.4-2,2.4-3.5,3.2c-1.5,0.8-3.3,1.1-5.3,1.1h-8.3V531.6z M48.8,546.4c1.8,0,3.3-0.5,4.4-1.5c1.1-1,1.6-2.4,1.6-4.1
				c0-1.7-0.5-3.1-1.6-4.1s-2.5-1.5-4.4-1.5H45v11.3H48.8z"/>
				<path class="st3" d="M76.4,546.4v3.4H62.3v-18.3h13.8v3.4h-9.6v4H75v3.3h-8.5v4.2H76.4z"/>
				<path class="st3" d="M91.8,545.9h-8.5l-1.6,3.9h-4.3l8.1-18.3h4.2l8.2,18.3h-4.4L91.8,545.9z M90.5,542.7l-2.9-7l-2.9,7H90.5z"/>
				<path class="st3" d="M109.5,536.7v1h3.5v1.8h-3.5v10.3h-2.2v-10.3h-2v-1.8h2v-1.1c0-1.2,0.3-2.1,1-2.8c0.7-0.7,1.7-1,2.9-1
				c0.5,0,0.9,0.1,1.4,0.2s0.8,0.3,1.1,0.5l-0.7,1.7c-0.5-0.4-1.1-0.6-1.7-0.6C110.2,534.6,109.5,535.3,109.5,536.7z"/>
				<path class="st3" d="M116.9,549.2c-1-0.5-1.7-1.3-2.2-2.2c-0.5-0.9-0.8-2-0.8-3.2s0.3-2.2,0.8-3.2c0.5-0.9,1.3-1.7,2.2-2.2
				c1-0.5,2-0.8,3.2-0.8c1.2,0,2.3,0.3,3.2,0.8c0.9,0.5,1.7,1.3,2.2,2.2c0.5,0.9,0.8,2,0.8,3.2s-0.3,2.2-0.8,3.2
				c-0.5,0.9-1.3,1.7-2.2,2.2c-0.9,0.5-2,0.8-3.2,0.8C118.9,550,117.8,549.7,116.9,549.2z M122.2,547.5c0.6-0.4,1.1-0.9,1.4-1.5
				c0.3-0.6,0.5-1.4,0.5-2.2s-0.2-1.6-0.5-2.2c-0.3-0.6-0.8-1.1-1.4-1.5c-0.6-0.3-1.3-0.5-2.1-0.5c-0.8,0-1.5,0.2-2.1,0.5
				c-0.6,0.3-1.1,0.8-1.5,1.5c-0.4,0.6-0.5,1.4-0.5,2.2s0.2,1.6,0.5,2.2c0.4,0.6,0.8,1.1,1.5,1.5c0.6,0.4,1.3,0.5,2.1,0.5
				C120.9,548.1,121.6,547.9,122.2,547.5z"/>
				<path class="st3" d="M133.2,538.2c0.7-0.4,1.6-0.5,2.7-0.5v2.1c-0.1,0-0.3,0-0.5,0c-1.2,0-2.1,0.4-2.8,1.1c-0.7,0.7-1,1.7-1,3v6
				h-2.2v-12.1h2.1v2C131.9,539.1,132.4,538.6,133.2,538.2z"/>
				<path class="st3" d="M32.7,572.3c-0.9-0.3-1.6-0.6-2.1-1l0.9-1.7c0.5,0.4,1.2,0.7,1.9,0.9c0.8,0.2,1.5,0.3,2.3,0.3
				c1.9,0,2.9-0.5,2.9-1.6c0-0.4-0.1-0.7-0.4-0.9c-0.3-0.2-0.6-0.4-1-0.5c-0.4-0.1-0.9-0.2-1.7-0.3c-1-0.2-1.8-0.3-2.4-0.5
				c-0.6-0.2-1.1-0.5-1.6-1c-0.4-0.5-0.7-1.1-0.7-2c0-1.1,0.5-2,1.4-2.6c0.9-0.7,2.1-1,3.7-1c0.8,0,1.6,0.1,2.4,0.3
				c0.8,0.2,1.5,0.5,2,0.8l-0.9,1.7c-1-0.6-2.1-1-3.5-1c-0.9,0-1.6,0.2-2.1,0.5s-0.7,0.7-0.7,1.2c0,0.4,0.1,0.7,0.4,0.9
				c0.3,0.2,0.6,0.4,1,0.5s1,0.2,1.7,0.4c1,0.2,1.8,0.3,2.4,0.5c0.6,0.2,1.1,0.5,1.5,1s0.6,1.1,0.6,1.9c0,1.1-0.5,2-1.4,2.6
				c-0.9,0.6-2.2,1-3.8,1C34.6,572.7,33.6,572.6,32.7,572.3z"/>
				<path class="st3" d="M45.5,571.9c-1-0.5-1.7-1.3-2.2-2.2c-0.5-0.9-0.8-2-0.8-3.2s0.3-2.2,0.8-3.2c0.5-0.9,1.3-1.7,2.2-2.2
				c1-0.5,2-0.8,3.2-0.8c1.2,0,2.3,0.3,3.2,0.8c0.9,0.5,1.7,1.3,2.2,2.2c0.5,0.9,0.8,2,0.8,3.2s-0.3,2.2-0.8,3.2
				c-0.5,0.9-1.3,1.7-2.2,2.2c-0.9,0.5-2,0.8-3.2,0.8C47.5,572.7,46.4,572.5,45.5,571.9z M50.8,570.3c0.6-0.4,1.1-0.9,1.4-1.5
				c0.3-0.6,0.5-1.4,0.5-2.2s-0.2-1.6-0.5-2.2c-0.3-0.6-0.8-1.1-1.4-1.5c-0.6-0.3-1.3-0.5-2.1-0.5c-0.8,0-1.5,0.2-2.1,0.5
				c-0.6,0.3-1.1,0.8-1.5,1.5c-0.4,0.6-0.5,1.4-0.5,2.2s0.2,1.6,0.5,2.2c0.4,0.6,0.8,1.1,1.5,1.5c0.6,0.4,1.3,0.5,2.1,0.5
				C49.5,570.8,50.2,570.6,50.8,570.3z"/>
				<path class="st3" d="M59.9,571.9c-1-0.5-1.7-1.3-2.3-2.2c-0.5-0.9-0.8-2-0.8-3.2s0.3-2.2,0.8-3.2c0.5-0.9,1.3-1.7,2.3-2.2
				c1-0.5,2.1-0.8,3.3-0.8c1.1,0,2.1,0.2,2.9,0.7c0.9,0.4,1.5,1.1,2,1.9l-1.7,1.1c-0.4-0.6-0.8-1-1.4-1.3c-0.6-0.3-1.2-0.4-1.9-0.4
				c-0.8,0-1.5,0.2-2.1,0.5c-0.6,0.3-1.1,0.8-1.5,1.5c-0.4,0.6-0.5,1.4-0.5,2.2c0,0.8,0.2,1.6,0.5,2.2c0.4,0.6,0.8,1.1,1.5,1.5
				c0.6,0.3,1.3,0.5,2.1,0.5c0.7,0,1.3-0.1,1.9-0.4s1-0.7,1.4-1.3l1.7,1c-0.5,0.8-1.1,1.5-2,1.9c-0.9,0.4-1.8,0.7-2.9,0.7
				C62,572.7,60.9,572.5,59.9,571.9z"/>
				<path class="st3" d="M71,557.8c-0.3-0.3-0.4-0.6-0.4-1s0.1-0.7,0.4-1s0.6-0.4,1.1-0.4s0.8,0.1,1.1,0.4c0.3,0.3,0.4,0.6,0.4,1
				c0,0.4-0.1,0.8-0.4,1c-0.3,0.3-0.6,0.4-1.1,0.4S71.3,558.1,71,557.8z M71,560.5h2.2v12.1H71V560.5z"/>
				<path class="st3" d="M85.5,561.6c0.9,0.8,1.3,2,1.3,3.7v7.3h-2.1V571c-0.4,0.6-0.9,1-1.6,1.3c-0.7,0.3-1.5,0.4-2.4,0.4
				c-1.4,0-2.4-0.3-3.2-1c-0.8-0.7-1.2-1.5-1.2-2.6c0-1.1,0.4-1.9,1.2-2.6c0.8-0.6,2-1,3.7-1h3.5v-0.4c0-0.9-0.3-1.7-0.8-2.2
				c-0.5-0.5-1.4-0.8-2.4-0.8c-0.7,0-1.4,0.1-2.1,0.4c-0.7,0.2-1.3,0.6-1.7,0.9l-0.9-1.6c0.6-0.5,1.4-0.9,2.2-1.1
				c0.9-0.3,1.8-0.4,2.8-0.4C83.4,560.4,84.7,560.8,85.5,561.6z M83.4,570.5c0.6-0.4,1-0.9,1.3-1.6v-1.7h-3.4
				c-1.9,0-2.8,0.6-2.8,1.9c0,0.6,0.2,1.1,0.7,1.4c0.5,0.3,1.1,0.5,2,0.5S82.8,570.8,83.4,570.5z"/>
				<path class="st3" d="M90.9,555.7h2.2v16.9h-2.2V555.7z"/>
				<path class="st3" d="M103.4,557.8c-0.3-0.3-0.4-0.6-0.4-1s0.1-0.7,0.4-1s0.6-0.4,1.1-0.4s0.8,0.1,1.1,0.4c0.3,0.3,0.4,0.6,0.4,1
				c0,0.4-0.1,0.8-0.4,1c-0.3,0.3-0.6,0.4-1.1,0.4S103.7,558.1,103.4,557.8z M103.4,560.5h2.2v12.1h-2.2V560.5z"/>
				<path class="st3" d="M128.5,561.7c0.9,0.9,1.3,2.2,1.3,3.9v6.9h-2.2v-6.7c0-1.2-0.3-2-0.8-2.6c-0.5-0.6-1.3-0.9-2.3-0.9
				c-1.1,0-2,0.3-2.6,1c-0.7,0.7-1,1.7-1,3v6.2h-2.2v-6.7c0-1.2-0.3-2-0.8-2.6c-0.5-0.6-1.3-0.9-2.3-0.9c-1.1,0-2,0.3-2.6,1
				s-1,1.7-1,3v6.2h-2.2v-12.1h2.1v1.8c0.4-0.6,1-1.1,1.7-1.4c0.7-0.3,1.5-0.5,2.4-0.5c0.9,0,1.8,0.2,2.5,0.6
				c0.7,0.4,1.3,0.9,1.7,1.7c0.5-0.7,1.1-1.2,1.9-1.6c0.8-0.4,1.7-0.6,2.7-0.6C126.4,560.4,127.6,560.8,128.5,561.7z"/>
				<path class="st3" d="M143.4,561.2c0.9,0.5,1.7,1.2,2.2,2.2c0.5,0.9,0.8,2,0.8,3.2s-0.3,2.3-0.8,3.2c-0.5,0.9-1.2,1.7-2.2,2.2
				c-0.9,0.5-2,0.8-3.1,0.8c-0.9,0-1.7-0.2-2.4-0.5s-1.3-0.8-1.8-1.5v6.2h-2.2v-16.5h2.1v1.9c0.5-0.7,1.1-1.2,1.8-1.5
				c0.7-0.3,1.6-0.5,2.5-0.5C141.4,560.4,142.4,560.7,143.4,561.2z M142.1,570.3c0.6-0.4,1.1-0.9,1.5-1.5c0.4-0.6,0.5-1.4,0.5-2.2
				s-0.2-1.6-0.5-2.2c-0.4-0.6-0.8-1.1-1.5-1.5c-0.6-0.3-1.3-0.5-2.1-0.5c-0.8,0-1.4,0.2-2.1,0.5c-0.6,0.4-1.1,0.9-1.5,1.5
				s-0.5,1.4-0.5,2.2s0.2,1.6,0.5,2.2c0.3,0.6,0.8,1.1,1.5,1.5c0.6,0.4,1.3,0.5,2.1,0.5C140.8,570.8,141.5,570.6,142.1,570.3z"/>
				<path class="st3" d="M157.5,561.6c0.9,0.8,1.3,2,1.3,3.7v7.3h-2.1V571c-0.4,0.6-0.9,1-1.6,1.3c-0.7,0.3-1.5,0.4-2.4,0.4
				c-1.4,0-2.4-0.3-3.2-1c-0.8-0.7-1.2-1.5-1.2-2.6c0-1.1,0.4-1.9,1.2-2.6c0.8-0.6,2-1,3.7-1h3.5v-0.4c0-0.9-0.3-1.7-0.8-2.2
				c-0.5-0.5-1.4-0.8-2.4-0.8c-0.7,0-1.4,0.1-2.1,0.4c-0.7,0.2-1.3,0.6-1.7,0.9l-0.9-1.6c0.6-0.5,1.4-0.9,2.2-1.1
				c0.9-0.3,1.8-0.4,2.8-0.4C155.3,560.4,156.6,560.8,157.5,561.6z M155.3,570.5c0.6-0.4,1-0.9,1.3-1.6v-1.7h-3.4
				c-1.9,0-2.8,0.6-2.8,1.9c0,0.6,0.2,1.1,0.7,1.4c0.5,0.3,1.1,0.5,2,0.5S154.7,570.8,155.3,570.5z"/>
				<path class="st3" d="M164.9,571.9c-1-0.5-1.7-1.3-2.3-2.2c-0.5-0.9-0.8-2-0.8-3.2s0.3-2.2,0.8-3.2c0.5-0.9,1.3-1.7,2.3-2.2
				c1-0.5,2.1-0.8,3.3-0.8c1.1,0,2.1,0.2,2.9,0.7c0.9,0.4,1.5,1.1,2,1.9l-1.7,1.1c-0.4-0.6-0.8-1-1.4-1.3c-0.6-0.3-1.2-0.4-1.9-0.4
				c-0.8,0-1.5,0.2-2.1,0.5c-0.6,0.3-1.1,0.8-1.5,1.5c-0.4,0.6-0.5,1.4-0.5,2.2c0,0.8,0.2,1.6,0.5,2.2c0.4,0.6,0.8,1.1,1.5,1.5
				c0.6,0.3,1.3,0.5,2.1,0.5c0.7,0,1.3-0.1,1.9-0.4s1-0.7,1.4-1.3l1.7,1c-0.5,0.8-1.1,1.5-2,1.9c-0.9,0.4-1.8,0.7-2.9,0.7
				C166.9,572.7,165.8,572.5,164.9,571.9z"/>
				<path class="st3" d="M182.8,571.9c-0.3,0.3-0.7,0.5-1.2,0.6c-0.5,0.1-1,0.2-1.5,0.2c-1.2,0-2.2-0.3-2.8-1s-1-1.6-1-2.8v-6.6h-2
				v-1.8h2v-2.6h2.2v2.6h3.5v1.8h-3.5v6.5c0,0.7,0.2,1.2,0.5,1.5c0.3,0.3,0.8,0.5,1.4,0.5c0.7,0,1.2-0.2,1.7-0.6L182.8,571.9z"/>
			</g>
		</g>
	</g>
	<g>
		<g>
			<g>
				<path class="st5" d="M146.8,919.1L146.8,919.1c-0.8-0.7-1.8-1.3-2.9-1.6l-0.4-0.1l-0.2-0.4c-0.4-1-1-2-1.9-2.7
				c-1.3-1.2-2.9-1.8-4.7-1.8c-0.1,0-0.2,0-0.4,0c-3.8,0.2-6.8,3.5-6.6,7.3l0.5,10.2c0,0.5,0.3,1,0.6,1.3c0.4,0.3,0.9,0.5,1.4,0.5
				l10.2-0.5c3.8-0.2,6.8-3.5,6.6-7.3C149,922.1,148.2,920.4,146.8,919.1z M144.5,926.5c-0.6,0.6-1.4,1-2.2,1.1l-8.3,0.4l-0.4-8.3
				c-0.1-1.8,1.3-3.3,3-3.4c0.9,0,1.7,0.2,2.3,0.8c0.6,0.6,1,1.4,1.1,2.2c0,0.5,0.2,1,0.6,1.3c0.4,0.3,0.9,0.5,1.4,0.5
				c0.8,0,1.7,0.2,2.3,0.8c0.6,0.6,1,1.4,1.1,2.2C145.3,925,145.1,925.8,144.5,926.5z"/>
				<path class="st5" d="M164.4,899.6c-0.8-0.8-1.8-1.3-2.9-1.6l-0.4-0.1l-0.2-0.4c-0.4-1-1-2-1.9-2.7c-1.3-1.2-2.9-1.8-4.7-1.8
				c-0.1,0-0.2,0-0.4,0c-3.8,0.2-6.8,3.5-6.6,7.3l0.5,10.2c0,0.5,0.3,1,0.6,1.3c0.4,0.3,0.9,0.5,1.4,0.5l10.2-0.5
				c3.8-0.2,6.8-3.5,6.6-7.3C166.6,902.6,165.8,900.8,164.4,899.6z M159.9,908l-8.3,0.4l-0.4-8.3c0-0.9,0.2-1.7,0.8-2.3
				c0.6-0.6,1.4-1,2.2-1.1c0.9,0,1.7,0.2,2.3,0.8c0.6,0.6,1,1.4,1.1,2.2c0,0.5,0.2,1,0.6,1.3c0.4,0.3,0.9,0.5,1.4,0.5
				c0.9,0,1.7,0.2,2.3,0.8c0.6,0.6,1,1.4,1.1,2.2C163,906.4,161.7,907.9,159.9,908z"/>
				<path class="st5" d="M189.8,866.1c-0.4-0.4-0.9-0.5-1.5-0.5c-25,3-47.8,16.5-62.5,36.9l-5.7,7.9l-29,10.9c-0.4,0.2-0.7,0.4-1,0.8
				l-10.3,17.5c-0.3,0.6-0.4,1.2-0.1,1.8c0.1,0.2,0.2,0.4,0.4,0.6c0.3,0.3,0.7,0.4,1.1,0.5l17.3,1.9l9.9,9l-5.8,6.4
				c-0.7,0.8-0.6,2,0.1,2.7c0.4,0.3,0.8,0.5,1.4,0.5c0.5,0,1-0.2,1.3-0.6l5.8-6.4l9.9,9l3.6,17c0.1,0.4,0.3,0.7,0.6,1
				c0.2,0.2,0.4,0.3,0.6,0.4c0.6,0.2,1.3,0.1,1.8-0.2l16.4-12.1c0.3-0.3,0.6-0.6,0.7-1l7.9-30l7.3-6.4
				c18.8-16.7,29.9-40.7,30.4-65.9C190.5,867,190.2,866.5,189.8,866.1z M98.5,940.5L84.6,939l8.5-14.4l23.1-8.7L98.5,940.5z
				 M141.5,968.3l-13.5,9.9l-2.9-13.7l22.7-20.1L141.5,968.3z M181,896.6c-5,13.1-13.1,24.8-23.5,34L123,961.3l-9.1-8.3l11.5-12.8
				c0.3-0.4,0.5-0.9,0.5-1.4c0-0.5-0.2-1-0.6-1.3c-0.8-0.7-2-0.6-2.7,0.1l-11.5,12.8l-9.1-8.3l27-37.5c8.1-11.3,19-20.5,31.5-26.8
				l0.8-0.4l0.4,0.9c1.6,4,4.2,7.7,7.5,10.7c3.3,2.9,7.2,5.1,11.4,6.4l0.9,0.3L181,896.6z M186.6,870.7c-0.4,6.9-1.6,13.9-3.7,20.6
				l-0.3,0.8l-0.8-0.2c-3.8-1-7.3-3-10.2-5.6c-2.9-2.6-5.2-5.9-6.6-9.6l-0.3-0.8l0.8-0.3c6.5-2.7,13.2-4.7,20.1-5.8l1.1-0.2
				L186.6,870.7z"/>
			</g>
			<path class="st37" d="M265.1,889.4c-0.9-3.8-4.3-6.6-8.3-6.6c-0.7,0-1.5,0.1-2.2,0.3c-2-4.3-6.3-7.2-11.4-7.2
			c-1.3,0-2.6,0.2-3.7,0.6c-2.7-4.5-7.6-7.5-13.2-7.5c-6.7,0-12.4,4.2-14.5,10.2c-1.5-0.9-3.3-1.3-5.2-1.3
			c-5.9,0-10.6,4.7-10.6,10.6c0,0.3,0,0.7,0.1,1H265.1z"/>
			<path class="st37" d="M120,904c-0.8-3.6-4-6.2-7.8-6.2c-0.7,0-1.4,0.1-2,0.3c-1.9-4-5.9-6.8-10.7-6.8c-1.2,0-2.4,0.2-3.5,0.5
			c-2.5-4.2-7.2-7-12.4-7c-6.3,0-11.6,4-13.6,9.6c-1.4-0.8-3.1-1.3-4.8-1.3c-5.5,0-10,4.5-10,10c0,0.3,0,0.6,0,1H120z"/>
			<path class="st9" d="M131.5,1003.3c0,0-0.8,8.3-7.4,8.9c6.6,0.6,7.4,8.9,7.4,8.9s0.8-8.3,7.4-8.9
			C132.3,1011.7,131.5,1003.3,131.5,1003.3z"/>
		</g>
		<g>
			<path class="st3" d="M166.8,967.5c-1.3-0.4-2.4-0.9-3.2-1.5l1.4-3.2c0.8,0.6,1.7,1,2.8,1.4c1.1,0.3,2.2,0.5,3.2,0.5
			c1.2,0,2.1-0.2,2.7-0.5c0.6-0.4,0.9-0.8,0.9-1.4c0-0.4-0.2-0.8-0.5-1.1c-0.3-0.3-0.8-0.5-1.3-0.7c-0.5-0.2-1.2-0.4-2.2-0.6
			c-1.4-0.3-2.5-0.7-3.4-1c-0.9-0.3-1.6-0.9-2.3-1.6s-1-1.7-1-2.9c0-1.1,0.3-2,0.9-2.9c0.6-0.9,1.4-1.5,2.6-2
			c1.2-0.5,2.6-0.8,4.2-0.8c1.2,0,2.3,0.1,3.4,0.4c1.1,0.3,2.1,0.7,2.9,1.2l-1.3,3.2c-1.7-1-3.4-1.4-5.1-1.4c-1.2,0-2.1,0.2-2.6,0.6
			c-0.6,0.4-0.8,0.9-0.8,1.5s0.3,1.1,1,1.4c0.7,0.3,1.6,0.6,3,0.9c1.4,0.3,2.5,0.7,3.4,1c0.9,0.3,1.6,0.9,2.3,1.6s1,1.7,1,2.9
			c0,1-0.3,2-0.9,2.9c-0.6,0.9-1.5,1.5-2.6,2c-1.2,0.5-2.6,0.8-4.3,0.8C169.6,968.1,168.2,967.9,166.8,967.5z"/>
			<path class="st3" d="M185.2,953h-5.8v-3.4h15.9v3.4h-5.8v14.8h-4.2V953z"/>
			<path class="st3" d="M208.6,963.9h-8.5l-1.6,3.9h-4.3l8.1-18.3h4.2l8.2,18.3h-4.4L208.6,963.9z M207.3,960.7l-2.9-7l-2.9,7H207.3z
			"/>
			<path class="st3" d="M228.2,967.8l-3.5-5.1h-0.2h-3.7v5.1h-4.2v-18.3h7.9c1.6,0,3,0.3,4.2,0.8c1.2,0.5,2.1,1.3,2.8,2.3
			c0.6,1,1,2.2,1,3.5s-0.3,2.5-1,3.5c-0.7,1-1.6,1.7-2.8,2.3l4.1,5.9H228.2z M227.2,953.8c-0.7-0.5-1.6-0.8-2.9-0.8h-3.4v6.4h3.4
			c1.3,0,2.2-0.3,2.9-0.8s1-1.3,1-2.3C228.2,955.1,227.8,954.4,227.2,953.8z"/>
			<path class="st3" d="M239.3,953h-5.8v-3.4h15.9v3.4h-5.8v14.8h-4.2V953z"/>
		</g>
	</g>
	<g>
		<g>
			<g>
				<g>
					<g>
						<path class="st5" d="M939.9,529.4h-25.3c-1,0-1.9-0.8-1.9-1.9s0.8-1.9,1.9-1.9h25.3c1,0,1.9,0.8,1.9,1.9
						S940.9,529.4,939.9,529.4z"/>
					</g>
				</g>
				<g>
					<g>
						<path class="st5" d="M939.9,562.2h-9.1c-1,0-1.9-0.8-1.9-1.9c0-1,0.8-1.9,1.9-1.9h9.1c1,0,1.9,0.8,1.9,1.9
						C941.8,561.4,940.9,562.2,939.9,562.2z"/>
					</g>
				</g>
				<g>
					<g>
						<path class="st5" d="M939.7,537.7H918c-1,0-1.9-0.8-1.9-1.9c0-1,0.8-1.9,1.9-1.9h21.6c1,0,1.9,0.8,1.9,1.9
						C941.5,536.8,940.7,537.7,939.7,537.7z"/>
					</g>
				</g>
				<g>
					<g>
						<path class="st5" d="M939.9,545.8h-25.3c-1,0-1.9-0.8-1.9-1.9c0-1,0.8-1.9,1.9-1.9h25.3c1,0,1.9,0.8,1.9,1.9
						C941.8,545,940.9,545.8,939.9,545.8z"/>
					</g>
				</g>
				<path class="st5" d="M950.6,513.4c0-0.6-0.3-1.2-0.7-1.5l-22.1-22.1c0,0,0,0,0,0c-0.1-0.1-0.2-0.2-0.4-0.3c0,0-0.1,0-0.1-0.1
				c-0.1-0.1-0.3-0.1-0.4-0.2c0,0,0,0,0,0c-0.1,0-0.2,0-0.4,0H883c-1,0-1.9,0.8-1.9,1.9v19c0.7-0.1,1.4-0.1,2.1-0.1
				c0.5,0,1.1,0,1.6,0.1V493h39.6v20.4c0,1,0.8,1.9,1.9,1.9h20.4v59.5h-61.8v-17.1c-0.5,0.1-1.1,0.1-1.6,0.1c-0.7,0-1.4,0-2.1-0.1
				v19c0,1,0.8,1.9,1.9,1.9h65.6c1,0,1.9-0.8,1.9-1.9v-63C950.5,513.6,950.6,513.5,950.6,513.4z M928.2,511.5v-15.9l15.9,15.9H928.2
				z"/>
				<g>
					<path class="st5" d="M880.2,544.3c-0.5,0-0.9-0.2-1.2-0.5l-8.3-7.3c-0.8-0.7-0.9-1.9-0.2-2.7c0.7-0.8,1.9-0.9,2.7-0.2l6.9,6.1
					l13.2-15.6c0.7-0.8,1.9-0.9,2.7-0.2c0.8,0.7,0.9,1.9,0.2,2.7l-14.5,17.1c-0.3,0.4-0.8,0.6-1.3,0.7
					C880.3,544.3,880.3,544.3,880.2,544.3z"/>
				</g>
				<g>
					<path class="st5" d="M883.3,559.7c-0.7,0-1.5,0-2.3-0.1c-13.4-1.2-23.5-12.2-23.5-25.7c0-13.4,10.1-24.5,23.5-25.7
					c1.5-0.1,2.8-0.2,4.1,0c13.4,0.9,24,12.2,24,25.7c0,13.5-10.6,24.8-24,25.7C884.5,559.7,883.9,559.7,883.3,559.7z M883.3,511.9
					c-0.6,0-1.3,0-2,0.1c-11.4,1-20,10.4-20,21.9c0,11.5,8.6,20.9,20,21.9c1.2,0.1,2.3,0.1,3.4,0c11.5-0.8,20.6-10.4,20.6-21.9
					s-9-21.2-20.5-21.9C884.3,511.9,883.8,511.9,883.3,511.9z"/>
				</g>
			</g>

			<radialGradient id="SVGID_9_" cx="1674.6277" cy="5063.6294" r="129.2727" gradientTransform="matrix(0.5538 0 0 4.348000e-02 -11.0515 367.2471)" gradientUnits="userSpaceOnUse">
				<stop offset="0.1034" style="stop-color:#E0E3E2"/>
				<stop offset="0.2677" style="stop-color:#E9EBEA"/>
				<stop offset="0.684" style="stop-color:#F9FAFA"/>
				<stop offset="1" style="stop-color:#FFFFFF"/>
			</radialGradient>
			<ellipse class="st35" cx="916.4" cy="587.4" rx="101.1" ry="4.7"/>
		</g>
	</g>
	<path class="st3" d="M807.4,621.4c-1.3-0.7-2.3-1.7-3.1-3c-0.7-1.3-1.1-2.7-1.1-4.2c0-1.6,0.4-3,1.1-4.2c0.7-1.3,1.8-2.2,3.1-3
	s2.8-1.1,4.4-1.1c1.3,0,2.4,0.2,3.5,0.6c1,0.4,1.9,1.1,2.7,1.9l-1.5,1.5c-1.2-1.3-2.7-1.9-4.6-1.9c-1.2,0-2.3,0.3-3.3,0.8
	c-1,0.5-1.7,1.3-2.3,2.2c-0.5,0.9-0.8,2-0.8,3.2c0,1.2,0.3,2.2,0.8,3.2c0.5,0.9,1.3,1.7,2.3,2.2c1,0.5,2.1,0.8,3.3,0.8
	c1.8,0,3.3-0.6,4.6-1.9l1.5,1.5c-0.7,0.8-1.6,1.5-2.7,1.9c-1.1,0.4-2.2,0.6-3.5,0.6C810.2,622.5,808.7,622.1,807.4,621.4z"/>
	<path class="st3" d="M829.2,611.2c0.9,0.8,1.4,2.1,1.4,3.7v7.4h-2.1v-1.6c-0.4,0.6-0.9,1-1.6,1.3c-0.7,0.3-1.5,0.5-2.4,0.5
	c-1.4,0-2.5-0.3-3.3-1c-0.8-0.7-1.2-1.5-1.2-2.6c0-1.1,0.4-1.9,1.2-2.6c0.8-0.7,2-1,3.7-1h3.5v-0.4c0-1-0.3-1.7-0.8-2.2
	c-0.6-0.5-1.4-0.8-2.5-0.8c-0.7,0-1.4,0.1-2.1,0.4c-0.7,0.2-1.3,0.6-1.8,1l-0.9-1.7c0.6-0.5,1.4-0.9,2.3-1.2
	c0.9-0.3,1.8-0.4,2.8-0.4C827,609.9,828.3,610.4,829.2,611.2z M827,620.2c0.6-0.4,1.1-0.9,1.3-1.6v-1.7h-3.4c-1.9,0-2.8,0.6-2.8,1.9
	c0,0.6,0.2,1.1,0.7,1.5s1.1,0.5,2,0.5C825.6,620.7,826.3,620.5,827,620.2z"/>
	<path class="st3" d="M853.6,611.3c0.9,0.9,1.4,2.2,1.4,4v7h-2.2v-6.8c0-1.2-0.3-2.1-0.8-2.7c-0.5-0.6-1.3-0.9-2.3-0.9
	c-1.1,0-2,0.4-2.7,1.1c-0.7,0.7-1,1.7-1,3v6.3h-2.2v-6.8c0-1.2-0.3-2.1-0.8-2.7c-0.5-0.6-1.3-0.9-2.3-0.9c-1.1,0-2,0.4-2.7,1.1
	c-0.7,0.7-1,1.7-1,3v6.3h-2.2v-12.2h2.1v1.8c0.4-0.6,1-1.1,1.8-1.4c0.7-0.3,1.5-0.5,2.5-0.5c1,0,1.8,0.2,2.5,0.6
	c0.7,0.4,1.3,0.9,1.7,1.7c0.5-0.7,1.1-1.3,1.9-1.7c0.8-0.4,1.8-0.6,2.8-0.6C851.5,609.9,852.7,610.4,853.6,611.3z"/>
	<path class="st3" d="M868.7,610.7c0.9,0.5,1.7,1.3,2.2,2.2c0.5,0.9,0.8,2,0.8,3.3c0,1.2-0.3,2.3-0.8,3.3c-0.5,0.9-1.3,1.7-2.2,2.2
	c-0.9,0.5-2,0.8-3.2,0.8c-0.9,0-1.7-0.2-2.4-0.5c-0.7-0.3-1.4-0.8-1.9-1.5v6.3h-2.2v-16.7h2.1v1.9c0.5-0.7,1.1-1.2,1.9-1.5
	c0.8-0.3,1.6-0.5,2.5-0.5C866.7,609.9,867.8,610.2,868.7,610.7z M867.5,620c0.6-0.4,1.1-0.9,1.5-1.5s0.5-1.4,0.5-2.3
	c0-0.8-0.2-1.6-0.5-2.3c-0.4-0.7-0.9-1.2-1.5-1.5c-0.6-0.4-1.3-0.5-2.1-0.5c-0.8,0-1.5,0.2-2.1,0.5c-0.6,0.4-1.1,0.9-1.5,1.5
	c-0.4,0.6-0.5,1.4-0.5,2.2c0,0.8,0.2,1.6,0.5,2.3s0.8,1.2,1.5,1.5s1.3,0.5,2.1,0.5C866.2,620.5,866.9,620.3,867.5,620z"/>
	<path class="st3" d="M883.1,611.2c0.9,0.8,1.4,2.1,1.4,3.7v7.4h-2.1v-1.6c-0.4,0.6-0.9,1-1.6,1.3c-0.7,0.3-1.5,0.5-2.4,0.5
	c-1.4,0-2.5-0.3-3.3-1c-0.8-0.7-1.2-1.5-1.2-2.6c0-1.1,0.4-1.9,1.2-2.6c0.8-0.7,2-1,3.7-1h3.5v-0.4c0-1-0.3-1.7-0.8-2.2
	c-0.6-0.5-1.4-0.8-2.5-0.8c-0.7,0-1.4,0.1-2.1,0.4c-0.7,0.2-1.3,0.6-1.8,1l-0.9-1.7c0.6-0.5,1.4-0.9,2.3-1.2
	c0.9-0.3,1.8-0.4,2.8-0.4C880.9,609.9,882.2,610.4,883.1,611.2z M880.9,620.2c0.6-0.4,1.1-0.9,1.3-1.6v-1.7h-3.4
	c-1.9,0-2.8,0.6-2.8,1.9c0,0.6,0.2,1.1,0.7,1.5s1.1,0.5,2,0.5C879.5,620.7,880.2,620.5,880.9,620.2z"/>
	<path class="st3" d="M888.6,607.3c-0.3-0.3-0.4-0.6-0.4-1s0.1-0.7,0.4-1s0.6-0.4,1.1-0.4c0.4,0,0.8,0.1,1.1,0.4s0.4,0.6,0.4,1
	c0,0.4-0.1,0.8-0.4,1.1c-0.3,0.3-0.6,0.4-1.1,0.4C889.2,607.7,888.9,607.6,888.6,607.3z M888.5,610.1h2.2v12.2h-2.2V610.1z"/>
	<path class="st3" d="M906.7,610.1v10.6c0,2.1-0.5,3.7-1.6,4.8c-1.1,1-2.7,1.5-4.8,1.5c-1.2,0-2.3-0.2-3.3-0.5s-1.9-0.8-2.5-1.4
	l1.1-1.7c0.6,0.5,1.3,0.9,2.1,1.2c0.8,0.3,1.7,0.4,2.6,0.4c1.4,0,2.5-0.3,3.2-1s1-1.7,1-3.1v-1c-0.5,0.6-1.2,1.1-1.9,1.4
	c-0.8,0.3-1.6,0.5-2.5,0.5c-1.2,0-2.2-0.2-3.2-0.8c-0.9-0.5-1.7-1.2-2.2-2.1s-0.8-1.9-0.8-3.1c0-1.2,0.3-2.2,0.8-3.1
	s1.3-1.6,2.2-2.1c0.9-0.5,2-0.7,3.2-0.7c0.9,0,1.8,0.2,2.6,0.5c0.8,0.3,1.4,0.8,2,1.5v-1.9H906.7z M902.5,619.3
	c0.6-0.3,1.1-0.8,1.5-1.4c0.4-0.6,0.5-1.3,0.5-2.1c0-1.2-0.4-2.1-1.2-2.9c-0.8-0.7-1.8-1.1-3-1.1c-1.2,0-2.3,0.4-3.1,1.1
	c-0.8,0.7-1.2,1.7-1.2,2.9c0,0.8,0.2,1.5,0.5,2.1c0.4,0.6,0.9,1.1,1.5,1.4s1.4,0.5,2.2,0.5C901.1,619.9,901.8,619.7,902.5,619.3z"/>
	<path class="st3" d="M921.2,611.3c0.9,0.9,1.4,2.2,1.4,4v7h-2.2v-6.8c0-1.2-0.3-2.1-0.9-2.7c-0.6-0.6-1.4-0.9-2.5-0.9
	c-1.2,0-2.1,0.4-2.8,1.1s-1,1.7-1,3v6.3h-2.2v-12.2h2.1v1.8c0.4-0.6,1.1-1.1,1.8-1.5s1.6-0.5,2.6-0.5
	C919,609.9,920.3,610.4,921.2,611.3z"/>
	<g>
		<path class="st3" d="M854,635.7l-7.8,18.1H842l-7.8-18.1h4.5l5.5,12.9l5.6-12.9H854z"/>
		<path class="st3" d="M866.8,649.9h-8.4l-1.6,3.9h-4.3l8.1-18.1h4.1l8.1,18.1h-4.4L866.8,649.9z M865.5,646.7l-2.9-6.9l-2.9,6.9
		H865.5z"/>
		<path class="st3" d="M874.7,635.7h4.2v14.7h9.1v3.4h-13.2V635.7z"/>
		<path class="st3" d="M890.2,635.7h4.2v18.1h-4.2V635.7z"/>
		<path class="st3" d="M898.7,635.7h8.2c2,0,3.7,0.4,5.2,1.1c1.5,0.7,2.7,1.8,3.5,3.2c0.8,1.4,1.3,2.9,1.3,4.7s-0.4,3.4-1.3,4.7
		c-0.8,1.4-2,2.4-3.5,3.2c-1.5,0.7-3.2,1.1-5.2,1.1h-8.2V635.7z M906.7,650.3c1.8,0,3.2-0.5,4.3-1.5c1.1-1,1.6-2.4,1.6-4.1
		c0-1.7-0.5-3.1-1.6-4.1c-1.1-1-2.5-1.5-4.3-1.5h-3.8v11.2H906.7z"/>
		<path class="st3" d="M931.7,649.9h-8.4l-1.6,3.9h-4.3l8.1-18.1h4.1l8.1,18.1h-4.4L931.7,649.9z M930.3,646.7l-2.9-6.9l-2.9,6.9
		H930.3z"/>
		<path class="st3" d="M942.4,639.1h-5.8v-3.4h15.7v3.4h-5.8v14.7h-4.2V639.1z"/>
		<path class="st3" d="M954.6,635.7h4.2v18.1h-4.2V635.7z"/>
		<path class="st3" d="M966.7,652.8c-1.5-0.8-2.7-1.9-3.5-3.3s-1.3-3-1.3-4.8c0-1.8,0.4-3.4,1.3-4.8c0.9-1.4,2-2.5,3.5-3.3
		c1.5-0.8,3.2-1.2,5.1-1.2c1.9,0,3.6,0.4,5.1,1.2s2.7,1.9,3.5,3.3c0.9,1.4,1.3,3,1.3,4.8c0,1.8-0.4,3.4-1.3,4.8s-2,2.5-3.5,3.3
		s-3.2,1.2-5.1,1.2C969.9,654.1,968.2,653.7,966.7,652.8z M974.7,649.8c0.9-0.5,1.5-1.2,2-2.1c0.5-0.9,0.7-1.9,0.7-3s-0.2-2.1-0.7-3
		c-0.5-0.9-1.2-1.6-2-2.1s-1.8-0.7-2.9-0.7c-1.1,0-2,0.2-2.9,0.7s-1.5,1.2-2,2.1c-0.5,0.9-0.7,1.9-0.7,3s0.2,2.1,0.7,3
		c0.5,0.9,1.2,1.6,2,2.1s1.8,0.7,2.9,0.7C972.9,650.5,973.8,650.3,974.7,649.8z"/>
		<path class="st3" d="M1001.4,635.7v18.1H998l-9-11v11h-4.1v-18.1h3.5l9,11v-11H1001.4z"/>
	</g>
	<g>
		<g>
			<g>
				<path class="st5" d="M767.9,788.2c4.8-3.2,8-8.6,8-14.8c0-9.8-8-17.8-17.8-17.8s-17.8,8-17.8,17.8c0,6.2,3.2,11.6,8,14.8
				c-10.9,4-18.6,14.4-18.6,26.7h4.7c0-13.1,10.6-23.7,23.7-23.7s23.7,10.6,23.7,23.7h4.7C786.5,802.7,778.7,792.2,767.9,788.2z
				 M758.1,786.4c-7.2,0-13-5.8-13-13c0-7.2,5.8-13,13-13c7.2,0,13,5.8,13,13C771.1,780.6,765.3,786.4,758.1,786.4z"/>
				<path class="st5" d="M791.6,776.4c4.8-3.2,8-8.6,8-14.8c0-9.8-8-17.8-17.8-17.8c-4.7,0-9.1,1.9-12.3,4.9c-1.2,1.1-2.2,2.4-3,3.8
				c1.5,0.6,2.9,1.3,4.2,2.2c0.8-1.4,1.9-2.6,3.2-3.5c2.2-1.7,4.9-2.7,7.9-2.7c7.2,0,13,5.8,13,13c0,6-4,11-9.5,12.5
				c-1.1,0.3-2.3,0.5-3.5,0.5c-0.4,0-0.8,0-1.2-0.1c-0.1,1.7-0.4,3.4-0.8,4.9c0.7-0.1,1.3-0.1,2-0.1c1,0,1.9,0.1,2.8,0.2
				c11.7,1.4,20.9,11.4,20.9,23.5h4.7C810.2,790.8,802.5,780.4,791.6,776.4z"/>
				<path class="st5" d="M734.4,779.3c0.7,0,1.4,0.1,2,0.1c-0.4-1.6-0.7-3.2-0.8-4.9c-0.4,0-0.8,0.1-1.2,0.1c-1.2,0-2.4-0.2-3.5-0.5
				c-5.5-1.5-9.5-6.6-9.5-12.5c0-7.2,5.8-13,13-13c3,0,5.7,1,7.9,2.7c1.3,1,2.3,2.2,3.2,3.5c1.3-0.9,2.7-1.6,4.2-2.2
				c-0.8-1.4-1.9-2.7-3-3.8c-3.2-3-7.5-4.9-12.3-4.9c-9.8,0-17.8,8-17.8,17.8c0,6.2,3.2,11.6,8,14.8c-10.9,4-18.6,14.4-18.6,26.7
				h4.7c0-12.1,9.1-22.1,20.9-23.5C732.5,779.4,733.4,779.3,734.4,779.3z"/>
				<path class="st5" d="M808.2,759.8c4.8-3.2,8-8.6,8-14.8c0-9.8-8-17.8-17.8-17.8c-4.7,0-9.1,1.9-12.3,4.9c-1.2,1.1-2.2,2.4-3,3.8
				c1.5,0.6,2.9,1.3,4.2,2.2c0.8-1.4,1.9-2.6,3.2-3.5c2.2-1.7,4.9-2.7,7.9-2.7c7.2,0,13,5.8,13,13c0,5.3-3.1,9.8-7.6,11.8
				c0.2,1.1,0.3,2.3,0.3,3.5c0,1.1-0.1,2.1-0.3,3.2c10.4,2.5,18.2,11.8,18.2,23h4.7C826.8,774.2,819,763.8,808.2,759.8z"/>
				<path class="st5" d="M712,760.2c0-1.2,0.1-2.3,0.3-3.5c-4.5-2.1-7.6-6.6-7.6-11.8c0-7.2,5.8-13,13-13c3,0,5.7,1,7.9,2.7
				c1.3,1,2.3,2.2,3.2,3.5c1.3-0.9,2.7-1.6,4.2-2.2c-0.8-1.4-1.9-2.7-3-3.8c-3.2-3-7.5-4.9-12.3-4.9c-9.8,0-17.8,8-17.8,17.8
				c0,6.2,3.2,11.6,8,14.8c-10.9,4-18.6,14.4-18.6,26.7h4.7c0-11.2,7.8-20.6,18.2-23C712.2,762.4,712,761.3,712,760.2z"/>
				<path class="st5" d="M758.1,731.9c6.3,0,11.6,4.6,12.7,10.6c2.6-1.6,4.5-1.9,4.5-1.9c-2-7.7-8.9-13.4-17.2-13.4
				s-15.3,5.7-17.2,13.4c0,0,1.9,0.4,4.5,1.9C746.5,736.5,751.7,731.9,758.1,731.9z"/>
			</g>

			<radialGradient id="SVGID_10_" cx="1289.9557" cy="3191.8875" r="129.2727" gradientTransform="matrix(0.6388 0 0 6.044964e-02 -61.4433 637.4485)" gradientUnits="userSpaceOnUse">
				<stop offset="0.1034" style="stop-color:#E0E3E2"/>
				<stop offset="0.2677" style="stop-color:#E9EBEA"/>
				<stop offset="0.684" style="stop-color:#F9FAFA"/>
				<stop offset="1" style="stop-color:#FFFFFF"/>
			</radialGradient>
			<ellipse class="st36" cx="762.5" cy="830.4" rx="116.6" ry="6.6"/>
		</g>
		<g>
			<path class="st3" d="M654.7,856v6h8.6v2.1h-8.6v7h-2.5v-17.2h12.2v2.1H654.7z"/>
			<path class="st3" d="M679.3,858v13H677v-2c-0.5,0.7-1.1,1.2-1.9,1.6s-1.6,0.6-2.5,0.6c-1.7,0-3.1-0.5-4.1-1.4
			c-1-1-1.5-2.4-1.5-4.2V858h2.4v7.2c0,1.3,0.3,2.2,0.9,2.9c0.6,0.6,1.5,1,2.6,1c1.2,0,2.2-0.4,3-1.1c0.7-0.8,1.1-1.8,1.1-3.2V858
			H679.3z"/>
			<path class="st3" d="M694.7,859.3c1,1,1.5,2.4,1.5,4.2v7.5h-2.4v-7.2c0-1.3-0.3-2.2-0.9-2.9s-1.5-1-2.6-1c-1.3,0-2.3,0.4-3,1.1
			c-0.7,0.7-1.1,1.8-1.1,3.2v6.7h-2.4v-13h2.3v2c0.5-0.7,1.1-1.2,1.9-1.5c0.8-0.4,1.7-0.5,2.8-0.5
			C692.4,857.9,693.7,858.4,694.7,859.3z"/>
			<path class="st3" d="M712.9,852.8v18.3h-2.3V869c-0.5,0.7-1.2,1.3-2,1.6s-1.7,0.6-2.7,0.6c-1.3,0-2.4-0.3-3.4-0.8
			c-1-0.6-1.8-1.3-2.3-2.3c-0.6-1-0.8-2.2-0.8-3.5s0.3-2.5,0.8-3.5c0.6-1,1.3-1.8,2.3-2.3c1-0.6,2.1-0.8,3.4-0.8
			c0.9,0,1.8,0.2,2.6,0.5c0.8,0.4,1.4,0.9,2,1.6v-7.2H712.9z M708.4,868.6c0.7-0.4,1.2-0.9,1.6-1.6c0.4-0.7,0.6-1.5,0.6-2.4
			s-0.2-1.7-0.6-2.4c-0.4-0.7-0.9-1.2-1.6-1.6c-0.7-0.4-1.4-0.6-2.2-0.6c-0.8,0-1.6,0.2-2.3,0.6c-0.7,0.4-1.2,0.9-1.6,1.6
			c-0.4,0.7-0.6,1.5-0.6,2.4s0.2,1.7,0.6,2.4c0.4,0.7,0.9,1.2,1.6,1.6c0.7,0.4,1.4,0.6,2.3,0.6C707,869.1,707.8,868.9,708.4,868.6z" />
			<path class="st3" d="M721.5,858.5c0.8-0.4,1.8-0.6,2.9-0.6v2.3c-0.1,0-0.3,0-0.5,0c-1.3,0-2.3,0.4-3,1.1s-1.1,1.8-1.1,3.3v6.5
			h-2.4v-13h2.3v2.2C720.1,859.4,720.7,858.9,721.5,858.5z"/>
			<path class="st3" d="M736.2,859.2c1,0.9,1.4,2.2,1.4,4v7.9h-2.2v-1.7c-0.4,0.6-1,1.1-1.7,1.4c-0.7,0.3-1.6,0.5-2.6,0.5
			c-1.5,0-2.6-0.4-3.5-1.1c-0.9-0.7-1.3-1.6-1.3-2.8s0.4-2.1,1.3-2.8c0.8-0.7,2.2-1,4-1h3.7v-0.5c0-1-0.3-1.8-0.9-2.3
			c-0.6-0.5-1.5-0.8-2.6-0.8c-0.8,0-1.5,0.1-2.3,0.4c-0.7,0.3-1.4,0.6-1.9,1l-1-1.8c0.7-0.5,1.5-1,2.4-1.2c0.9-0.3,1.9-0.4,3-0.4
			C733.8,857.9,735.2,858.3,736.2,859.2z M733.8,868.8c0.7-0.4,1.1-1,1.4-1.7v-1.8h-3.6c-2,0-3,0.7-3,2c0,0.7,0.3,1.2,0.8,1.5
			c0.5,0.4,1.2,0.6,2.1,0.6C732.4,869.4,733.2,869.2,733.8,868.8z"/>
			<path class="st3" d="M742,855.1c-0.3-0.3-0.5-0.7-0.5-1.1s0.2-0.8,0.5-1.1c0.3-0.3,0.7-0.5,1.1-0.5s0.8,0.1,1.1,0.4
			c0.3,0.3,0.5,0.6,0.5,1.1c0,0.4-0.2,0.8-0.5,1.1c-0.3,0.3-0.7,0.5-1.1,0.5S742.3,855.4,742,855.1z M742,858h2.4v13H742V858z"/>
			<path class="st3" d="M749.5,870.8c-1-0.3-1.8-0.7-2.3-1.1l1-1.9c0.6,0.4,1.3,0.7,2.1,1s1.6,0.4,2.5,0.4c2.1,0,3.1-0.6,3.1-1.8
			c0-0.4-0.1-0.7-0.4-0.9c-0.3-0.2-0.6-0.4-1-0.5c-0.4-0.1-1-0.2-1.8-0.4c-1-0.2-1.9-0.4-2.6-0.6c-0.7-0.2-1.2-0.6-1.7-1.1
			c-0.5-0.5-0.7-1.2-0.7-2.1c0-1.2,0.5-2.1,1.5-2.8c1-0.7,2.3-1.1,4-1.1c0.9,0,1.7,0.1,2.6,0.3s1.6,0.5,2.1,0.9l-1,1.9
			c-1.1-0.7-2.3-1-3.8-1c-1,0-1.8,0.2-2.3,0.5c-0.5,0.3-0.8,0.8-0.8,1.3c0,0.4,0.1,0.8,0.4,1s0.7,0.4,1.1,0.5c0.4,0.1,1,0.2,1.8,0.4
			c1,0.2,1.9,0.4,2.5,0.6c0.6,0.2,1.2,0.6,1.7,1c0.5,0.5,0.7,1.2,0.7,2.1c0,1.2-0.5,2.1-1.5,2.8c-1,0.7-2.4,1-4.1,1
			C751.5,871.2,750.5,871.1,749.5,870.8z"/>
			<path class="st3" d="M761.2,855.1c-0.3-0.3-0.5-0.7-0.5-1.1s0.2-0.8,0.5-1.1c0.3-0.3,0.7-0.5,1.1-0.5s0.8,0.1,1.1,0.4
			c0.3,0.3,0.5,0.6,0.5,1.1c0,0.4-0.2,0.8-0.5,1.1c-0.3,0.3-0.7,0.5-1.1,0.5S761.5,855.4,761.2,855.1z M761.2,858h2.4v13h-2.4V858z" />
			<path class="st3" d="M779,859.3c1,1,1.5,2.4,1.5,4.2v7.5h-2.4v-7.2c0-1.3-0.3-2.2-0.9-2.9s-1.5-1-2.6-1c-1.3,0-2.3,0.4-3,1.1
			c-0.7,0.7-1.1,1.8-1.1,3.2v6.7H768v-13h2.3v2c0.5-0.7,1.1-1.2,1.9-1.5c0.8-0.4,1.7-0.5,2.8-0.5C776.7,857.9,778,858.4,779,859.3z" />
			<path class="st3" d="M797.4,858v11.3c0,2.3-0.6,4-1.7,5.1c-1.1,1.1-2.8,1.6-5.1,1.6c-1.2,0-2.4-0.2-3.5-0.5
			c-1.1-0.3-2-0.8-2.7-1.4l1.1-1.8c0.6,0.5,1.4,0.9,2.3,1.2c0.9,0.3,1.8,0.5,2.8,0.5c1.5,0,2.7-0.4,3.4-1.1s1.1-1.8,1.1-3.3v-1
			c-0.6,0.7-1.2,1.2-2.1,1.5c-0.8,0.3-1.7,0.5-2.6,0.5c-1.2,0-2.4-0.3-3.4-0.8s-1.8-1.3-2.4-2.2c-0.6-1-0.9-2.1-0.9-3.3
			s0.3-2.3,0.9-3.3c0.6-1,1.4-1.7,2.4-2.2c1-0.5,2.1-0.8,3.4-0.8c1,0,1.9,0.2,2.7,0.5c0.8,0.4,1.5,0.9,2.1,1.6v-2H797.4z
			 M792.9,867.9c0.7-0.4,1.2-0.9,1.6-1.5c0.4-0.6,0.6-1.4,0.6-2.2c0-1.3-0.4-2.3-1.3-3.1c-0.8-0.8-1.9-1.2-3.2-1.2
			c-1.3,0-2.4,0.4-3.2,1.2c-0.8,0.8-1.3,1.8-1.3,3.1c0,0.8,0.2,1.6,0.6,2.2c0.4,0.6,0.9,1.2,1.6,1.5c0.7,0.4,1.5,0.5,2.3,0.5
			C791.4,868.4,792.2,868.3,792.9,867.9z"/>
			<path class="st3" d="M811.1,856.9v1.1h3.8v1.9h-3.7v11.1h-2.4V860h-2.2V858h2.2v-1.2c0-1.3,0.4-2.3,1.1-3.1
			c0.8-0.8,1.8-1.1,3.2-1.1c0.5,0,1,0.1,1.5,0.2c0.5,0.1,0.9,0.3,1.2,0.6l-0.7,1.8c-0.5-0.4-1.1-0.6-1.8-0.6
			C811.8,854.6,811.1,855.4,811.1,856.9z"/>
			<path class="st3" d="M823.2,858.5c0.8-0.4,1.8-0.6,2.9-0.6v2.3c-0.1,0-0.3,0-0.5,0c-1.3,0-2.3,0.4-3,1.1s-1.1,1.8-1.1,3.3v6.5
			h-2.4v-13h2.3v2.2C821.8,859.4,822.4,858.9,823.2,858.5z"/>
			<path class="st3" d="M831,870.3c-1-0.6-1.8-1.4-2.4-2.4c-0.6-1-0.9-2.2-0.9-3.4s0.3-2.4,0.9-3.4c0.6-1,1.4-1.8,2.4-2.4
			c1-0.6,2.2-0.8,3.5-0.8c1.3,0,2.5,0.3,3.5,0.8c1,0.6,1.8,1.4,2.4,2.4c0.6,1,0.9,2.2,0.9,3.4s-0.3,2.4-0.9,3.4
			c-0.6,1-1.4,1.8-2.4,2.4c-1,0.6-2.2,0.9-3.5,0.9C833.2,871.2,832,870.9,831,870.3z M836.8,868.6c0.7-0.4,1.2-0.9,1.6-1.6
			c0.4-0.7,0.6-1.5,0.6-2.4s-0.2-1.7-0.6-2.4c-0.4-0.7-0.9-1.2-1.6-1.6c-0.7-0.4-1.4-0.6-2.3-0.6c-0.8,0-1.6,0.2-2.3,0.6
			c-0.7,0.4-1.2,0.9-1.6,1.6c-0.4,0.7-0.6,1.5-0.6,2.4s0.2,1.7,0.6,2.4c0.4,0.7,0.9,1.2,1.6,1.6c0.7,0.4,1.4,0.6,2.3,0.6
			C835.3,869.1,836.1,868.9,836.8,868.6z"/>
			<path class="st3" d="M864.7,859.3c1,1,1.4,2.4,1.4,4.2v7.5h-2.4v-7.2c0-1.3-0.3-2.2-0.9-2.9s-1.4-1-2.5-1c-1.2,0-2.1,0.4-2.9,1.1
			c-0.7,0.7-1.1,1.8-1.1,3.2v6.7h-2.4v-7.2c0-1.3-0.3-2.2-0.9-2.9s-1.4-1-2.5-1c-1.2,0-2.1,0.4-2.9,1.1c-0.7,0.7-1.1,1.8-1.1,3.2
			v6.7h-2.4v-13h2.3v1.9c0.5-0.7,1.1-1.2,1.9-1.5s1.6-0.5,2.6-0.5c1,0,1.9,0.2,2.7,0.6c0.8,0.4,1.4,1,1.8,1.8
			c0.5-0.8,1.2-1.3,2.1-1.8c0.9-0.4,1.9-0.6,3-0.6C862.5,857.9,863.8,858.4,864.7,859.3z"/>
		</g>
		<g>
			<path class="st3" d="M696.8,883.4h8.7c2.1,0,3.9,0.4,5.5,1.2s2.8,1.9,3.7,3.4c0.9,1.4,1.3,3.1,1.3,5.1c0,1.9-0.4,3.6-1.3,5.1
			c-0.9,1.4-2.1,2.6-3.7,3.4c-1.6,0.8-3.4,1.2-5.5,1.2h-8.7V883.4z M705.3,899c1.9,0,3.5-0.5,4.6-1.6s1.7-2.5,1.7-4.4
			s-0.6-3.3-1.7-4.4s-2.7-1.6-4.6-1.6h-4.1V899H705.3z"/>
			<path class="st3" d="M723.4,901.7c-1.6-0.9-2.9-2-3.8-3.6c-0.9-1.5-1.4-3.2-1.4-5.1c0-1.9,0.5-3.6,1.4-5.1
			c0.9-1.5,2.2-2.7,3.8-3.6c1.6-0.9,3.4-1.3,5.4-1.3s3.8,0.4,5.4,1.3c1.6,0.9,2.8,2,3.8,3.6c0.9,1.5,1.4,3.2,1.4,5.1
			c0,1.9-0.5,3.6-1.4,5.1c-0.9,1.5-2.2,2.7-3.8,3.6c-1.6,0.9-3.4,1.3-5.4,1.3S725,902.5,723.4,901.7z M731.9,898.4
			c0.9-0.5,1.6-1.2,2.2-2.2c0.5-0.9,0.8-2,0.8-3.2s-0.3-2.3-0.8-3.2c-0.5-0.9-1.2-1.7-2.2-2.2c-0.9-0.5-1.9-0.8-3.1-0.8
			c-1.1,0-2.2,0.3-3.1,0.8c-0.9,0.5-1.6,1.2-2.2,2.2c-0.5,0.9-0.8,2-0.8,3.2s0.3,2.3,0.8,3.2c0.5,0.9,1.2,1.7,2.2,2.2
			c0.9,0.5,1.9,0.8,3.1,0.8C729.9,899.2,731,898.9,731.9,898.4z"/>
			<path class="st3" d="M760.3,883.4v19.2h-3.7l-9.6-11.7v11.7h-4.4v-19.2h3.7l9.6,11.7v-11.7H760.3z"/>
			<path class="st3" d="M768.8,901.7c-1.6-0.9-2.9-2-3.8-3.6c-0.9-1.5-1.4-3.2-1.4-5.1c0-1.9,0.5-3.6,1.4-5.1
			c0.9-1.5,2.2-2.7,3.8-3.6c1.6-0.9,3.4-1.3,5.4-1.3s3.8,0.4,5.4,1.3c1.6,0.9,2.8,2,3.8,3.6c0.9,1.5,1.4,3.2,1.4,5.1
			c0,1.9-0.5,3.6-1.4,5.1c-0.9,1.5-2.2,2.7-3.8,3.6c-1.6,0.9-3.4,1.3-5.4,1.3S770.4,902.5,768.8,901.7z M777.2,898.4
			c0.9-0.5,1.6-1.2,2.2-2.2c0.5-0.9,0.8-2,0.8-3.2s-0.3-2.3-0.8-3.2c-0.5-0.9-1.2-1.7-2.2-2.2c-0.9-0.5-1.9-0.8-3.1-0.8
			c-1.1,0-2.2,0.3-3.1,0.8c-0.9,0.5-1.6,1.2-2.2,2.2c-0.5,0.9-0.8,2-0.8,3.2s0.3,2.3,0.8,3.2c0.5,0.9,1.2,1.7,2.2,2.2
			c0.9,0.5,1.9,0.8,3.1,0.8C775.3,899.2,776.3,898.9,777.2,898.4z"/>
			<path class="st3" d="M800.3,902.6l-3.7-5.4h-0.2h-3.9v5.4H788v-19.2h8.3c1.7,0,3.2,0.3,4.4,0.9c1.3,0.6,2.2,1.4,2.9,2.4
			c0.7,1,1,2.3,1,3.7s-0.3,2.7-1,3.7c-0.7,1-1.7,1.8-2.9,2.4l4.3,6.2H800.3z M799.2,887.9c-0.7-0.6-1.7-0.9-3-0.9h-3.6v6.7h3.6
			c1.3,0,2.4-0.3,3-0.9s1-1.4,1-2.5C800.2,889.3,799.9,888.5,799.2,887.9z"/>
			<path class="st3" d="M810.1,902.3c-1.4-0.4-2.6-0.9-3.4-1.6l1.5-3.4c0.8,0.6,1.8,1.1,2.9,1.5c1.1,0.4,2.3,0.5,3.4,0.5
			c1.3,0,2.2-0.2,2.8-0.6c0.6-0.4,0.9-0.9,0.9-1.5c0-0.5-0.2-0.8-0.5-1.1c-0.4-0.3-0.8-0.5-1.4-0.7c-0.6-0.2-1.3-0.4-2.3-0.6
			c-1.5-0.3-2.7-0.7-3.6-1c-0.9-0.3-1.7-0.9-2.4-1.7c-0.7-0.8-1-1.8-1-3.1c0-1.1,0.3-2.1,0.9-3c0.6-0.9,1.5-1.6,2.7-2.2
			c1.2-0.5,2.7-0.8,4.5-0.8c1.2,0,2.4,0.1,3.6,0.4c1.2,0.3,2.2,0.7,3.1,1.3l-1.4,3.4c-1.8-1-3.6-1.5-5.3-1.5c-1.2,0-2.2,0.2-2.8,0.6
			c-0.6,0.4-0.9,0.9-0.9,1.6s0.3,1.1,1,1.5s1.7,0.6,3.1,0.9c1.5,0.3,2.7,0.7,3.6,1c0.9,0.3,1.7,0.9,2.4,1.6c0.7,0.8,1,1.8,1,3
			c0,1.1-0.3,2.1-0.9,3c-0.6,0.9-1.5,1.6-2.8,2.2c-1.2,0.5-2.7,0.8-4.5,0.8C813,903,811.6,902.7,810.1,902.3z"/>
		</g>
	</g>
	<g>
		<g>
			<g id="Hand_00000160182078377822583290000006027798714007160251_">
				<path class="st4" d="M447.6,109.5h14.3c0.9,0,1.6,0.7,1.6,1.6v19.2c0,0.9-0.7,1.6-1.6,1.6h-14.3c-0.9,0-1.6-0.7-1.6-1.6V126
				v-14.9C446,110.2,446.7,109.5,447.6,109.5z"/>
				<line class="st4" x1="462.8" y1="125.6" x2="444.9" y2="125.6"/>
				<path class="st5" d="M457.6,113.7h0.3c0.5,0,0.9,0.4,0.9,0.9v1c0,0.5-0.4,0.9-0.9,0.9h-0.3c-0.5,0-0.9-0.4-0.9-0.9v-1
				C456.8,114.1,457.1,113.7,457.6,113.7z"/>
				<path class="st5" d="M457.6,118.5h0.3c0.5,0,0.9,0.4,0.9,0.9v1c0,0.5-0.4,0.9-0.9,0.9h-0.3c-0.5,0-0.9-0.4-0.9-0.9v-1
				C456.8,118.9,457.1,118.5,457.6,118.5z"/>
				<path class="st6" d="M484.5,117.3c0,0,16-0.3,17.4-0.8c4.4-1.4,3.7-1.4,5-2.7c0.4-0.4,1-2.1,1-3.1c0-1,0.4-3.1-2-4.2
				c-2.3-1.1-27.8-1.2-30.6-0.4c-2.8,0.7-9.2,3.5-10.8,5.9l-0.5,0.9l-0.2,0.6l-0.3-0.3c0,0,0,12.1,0,13.2s0.2,3.3,0.2,3.3
				s27.7,0.5,32.1-0.4c12.5-2.7,30.4-15.8,36.4-20.2c6-4.4,8.7-6.2,9-8.1c0.2-1.9-0.1-6.7-5.4-5.4c-5.3,1.3-27.4,16-28,16.5
				c-0.2,0.2,0.5-0.5,0,0"/>
				<g id="kampania_00000072262383406699868190000006932054196019664825_">

					<radialGradient id="SVGID_11_" cx="1229.5868" cy="4042.5469" r="129.2727" gradientTransform="matrix(0.4902 0 0 4.348000e-02 -115.0073 -32.323)" gradientUnits="userSpaceOnUse">
						<stop offset="0.1034" style="stop-color:#E0E3E2"/>
						<stop offset="0.2677" style="stop-color:#E9EBEA"/>
						<stop offset="0.684" style="stop-color:#F9FAFA"/>
						<stop offset="1" style="stop-color:#FFFFFF"/>
					</radialGradient>
					<ellipse class="st38" cx="487.8" cy="143.4" rx="89.5" ry="4.7"/>
				</g>
				<path class="st8" d="M502.2,95.3l-17.7-17.7c-11.9-11.9,5.8-29.6,17.7-17.7c12.8-12.8,30.6,4.9,17.7,17.7L502.2,95.3z"/>
				<path class="st9" d="M536.8,37.4c0,0-1.1,10.9-9.7,11.6c8.6,0.8,9.7,11.6,9.7,11.6s1.1-10.9,9.7-11.6
				C537.9,48.2,536.8,37.4,536.8,37.4z"/>
				<path class="st9" d="M522,21.4c0,0-0.7,7.2-6.4,7.7c5.7,0.5,6.4,7.7,6.4,7.7s0.7-7.2,6.4-7.7C522.7,28.6,522,21.4,522,21.4z"/>
			</g>
		</g>
		<g>
			<path class="st3" d="M411.6,186.6c1.1,0.5,2,1.3,2.6,2.3c0.6,1,0.9,2.2,0.9,3.6c0,1.4-0.3,2.5-0.9,3.6c-0.6,1-1.5,1.8-2.6,2.3
			s-2.5,0.8-4,0.8H404v5.1h-4v-18.5h7.6C409.1,185.8,410.5,186,411.6,186.6z M410.1,194.8c0.6-0.6,0.9-1.3,0.9-2.4
			c0-1-0.3-1.8-0.9-2.4c-0.6-0.6-1.6-0.8-2.8-0.8H404v6.4h3.3C408.6,195.7,409.5,195.4,410.1,194.8z"/>
			<path class="st3" d="M431.3,200.8v3.4h-13.5v-18.5H431v3.4h-9.2v4h8.1v3.3h-8.1v4.3H431.3z"/>
			<path class="st3" d="M437.8,203.3c-1.5-0.8-2.6-2-3.4-3.4s-1.2-3.1-1.2-4.9c0-1.8,0.4-3.4,1.2-4.9s2-2.6,3.4-3.4
			c1.5-0.8,3.1-1.2,4.9-1.2s3.5,0.4,4.9,1.2c1.5,0.8,2.6,2,3.4,3.4c0.8,1.5,1.2,3.1,1.2,4.9c0,1.8-0.4,3.4-1.2,4.9
			c-0.8,1.5-2,2.6-3.4,3.4s-3.1,1.2-4.9,1.2S439.3,204.1,437.8,203.3z M445.5,200.2c0.8-0.5,1.5-1.2,2-2.1c0.5-0.9,0.7-1.9,0.7-3.1
			c0-1.1-0.2-2.2-0.7-3.1c-0.5-0.9-1.1-1.6-2-2.1c-0.8-0.5-1.8-0.8-2.8-0.8s-2,0.2-2.8,0.8s-1.5,1.2-2,2.1c-0.5,0.9-0.7,1.9-0.7,3.1
			c0,1.1,0.2,2.2,0.7,3.1c0.5,0.9,1.1,1.6,2,2.1s1.8,0.8,2.8,0.8S444.7,200.7,445.5,200.2z"/>
			<path class="st3" d="M466.7,186.6c1.1,0.5,2,1.3,2.6,2.3c0.6,1,0.9,2.2,0.9,3.6c0,1.4-0.3,2.5-0.9,3.6c-0.6,1-1.5,1.8-2.6,2.3
			s-2.5,0.8-4,0.8h-3.5v5.1h-4v-18.5h7.6C464.2,185.8,465.6,186,466.7,186.6z M465.2,194.8c0.6-0.6,0.9-1.3,0.9-2.4
			c0-1-0.3-1.8-0.9-2.4c-0.6-0.6-1.6-0.8-2.8-0.8h-3.3v6.4h3.3C463.7,195.7,464.6,195.4,465.2,194.8z"/>
			<path class="st3" d="M472.9,185.8h4v15h8.8v3.5h-12.8V185.8z"/>
			<path class="st3" d="M501.3,200.8v3.4h-13.5v-18.5H501v3.4h-9.2v4h8.1v3.3h-8.1v4.3H501.3z"/>
			<path class="st3" d="M511.1,185.8h4v18.5h-4V185.8z"/>
			<path class="st3" d="M535.1,185.8v18.5h-3.3l-8.7-11.2v11.2h-4v-18.5h3.3l8.7,11.2v-11.2H535.1z"/>
			<path class="st3" d="M561.9,185.8v18.5h-3.3l-8.7-11.2v11.2h-4v-18.5h3.3l8.7,11.2v-11.2H561.9z"/>
			<path class="st3" d="M579.3,200.8v3.4h-13.5v-18.5H579v3.4h-9.2v4h8.1v3.3h-8.1v4.3H579.3z"/>
			<path class="st3" d="M595.9,200.8v3.4h-13.5v-18.5h13.2v3.4h-9.2v4h8.1v3.3h-8.1v4.3H595.9z"/>
			<path class="st3" d="M598.8,185.8h7.9c1.9,0,3.6,0.4,5,1.1c1.5,0.8,2.6,1.8,3.4,3.2s1.2,3,1.2,4.9c0,1.8-0.4,3.5-1.2,4.9
			s-1.9,2.5-3.4,3.2c-1.5,0.8-3.1,1.1-5,1.1h-7.9V185.8z M606.6,200.7c1.8,0,3.1-0.5,4.2-1.5c1-1,1.6-2.4,1.6-4.2
			c0-1.8-0.5-3.2-1.6-4.2c-1-1-2.4-1.5-4.2-1.5h-3.7v11.5H606.6z"/>
		</g>
		<g>
			<path class="st3" d="M407.6,169.6v5.9h-3.1v-5.9l-6.6-10.9h3.3l4.9,8.2l5-8.2h3.1L407.6,169.6z"/>
			<path class="st3" d="M416.4,174.9c-1-0.6-1.9-1.3-2.4-2.3s-0.9-2.1-0.9-3.4c0-1.3,0.3-2.4,0.9-3.4s1.4-1.8,2.4-2.3
			c1-0.6,2.2-0.8,3.5-0.8c1.3,0,2.5,0.3,3.5,0.8c1,0.6,1.9,1.3,2.4,2.3c0.6,1,0.9,2.1,0.9,3.4c0,1.3-0.3,2.4-0.9,3.4
			c-0.6,1-1.4,1.8-2.4,2.3c-1,0.6-2.2,0.8-3.5,0.8C418.6,175.7,417.5,175.5,416.4,174.9z M422.7,172.1c0.7-0.7,1.1-1.7,1.1-2.9
			s-0.4-2.2-1.1-2.9c-0.7-0.7-1.6-1.1-2.7-1.1c-1.1,0-2,0.4-2.7,1.1c-0.7,0.7-1.1,1.7-1.1,2.9s0.4,2.2,1.1,2.9s1.6,1.1,2.7,1.1
			C421,173.2,421.9,172.8,422.7,172.1z"/>
			<path class="st3" d="M441.7,162.8v12.8h-2.9v-1.6c-0.5,0.6-1.1,1-1.8,1.3c-0.7,0.3-1.5,0.5-2.3,0.5c-1.7,0-3.1-0.5-4-1.4
			c-1-1-1.5-2.4-1.5-4.2v-7.3h3v6.9c0,1.2,0.3,2,0.8,2.6c0.5,0.6,1.3,0.9,2.2,0.9c1.1,0,1.9-0.3,2.6-1s0.9-1.6,0.9-2.9v-6.5H441.7z" />
			<path class="st3" d="M471.5,162.8l-4.7,12.8h-2.9l-3.3-8.8l-3.4,8.8h-2.9l-4.7-12.8h2.8l3.4,9.5l3.5-9.5h2.5l3.5,9.5l3.5-9.5
			H471.5z"/>
			<path class="st3" d="M482,164c1,0.9,1.5,2.3,1.5,4.1v7.5h-2.8V174c-0.4,0.6-0.9,1-1.6,1.3c-0.7,0.3-1.5,0.4-2.5,0.4
			s-1.8-0.2-2.5-0.5c-0.7-0.3-1.3-0.8-1.7-1.4c-0.4-0.6-0.6-1.2-0.6-2c0-1.2,0.4-2.1,1.3-2.8c0.9-0.7,2.2-1,4-1h3.3v-0.2
			c0-0.9-0.3-1.6-0.8-2.1c-0.5-0.5-1.3-0.7-2.4-0.7c-0.7,0-1.4,0.1-2.1,0.3c-0.7,0.2-1.3,0.5-1.8,0.9l-1.2-2.2
			c0.7-0.5,1.5-0.9,2.4-1.2c0.9-0.3,1.9-0.4,3-0.4C479.6,162.6,481,163.1,482,164z M479.3,173c0.6-0.3,1-0.8,1.2-1.5v-1.5h-3.1
			c-1.7,0-2.6,0.6-2.6,1.7c0,0.5,0.2,1,0.6,1.3c0.4,0.3,1,0.5,1.8,0.5C478.1,173.6,478.7,173.4,479.3,173z"/>
			<path class="st3" d="M498.2,164c1,0.9,1.5,2.3,1.5,4.2v7.3h-3v-7c0-1.1-0.3-2-0.8-2.5c-0.5-0.6-1.3-0.9-2.3-0.9
			c-1.1,0-2,0.3-2.6,1s-1,1.6-1,2.9v6.5h-3v-12.8h2.9v1.7c0.5-0.6,1.1-1,1.9-1.3c0.8-0.3,1.6-0.5,2.5-0.5
			C495.9,162.6,497.2,163.1,498.2,164z"/>
			<path class="st3" d="M510.8,174.9c-0.4,0.3-0.8,0.5-1.3,0.6c-0.5,0.1-1,0.2-1.6,0.2c-1.4,0-2.5-0.4-3.3-1.1
			c-0.8-0.7-1.2-1.8-1.2-3.2v-6.2h-2.1v-2.4h2.1v-2.9h3v2.9h3.4v2.4h-3.4v6.1c0,0.6,0.2,1.1,0.5,1.4s0.7,0.5,1.3,0.5
			c0.7,0,1.2-0.2,1.7-0.5L510.8,174.9z"/>
			<path class="st3" d="M526.9,174.9c-0.4,0.3-0.8,0.5-1.3,0.6c-0.5,0.1-1,0.2-1.6,0.2c-1.4,0-2.5-0.4-3.3-1.1
			c-0.8-0.7-1.2-1.8-1.2-3.2v-6.2h-2.1v-2.4h2.1v-2.9h3v2.9h3.4v2.4h-3.4v6.1c0,0.6,0.2,1.1,0.5,1.4s0.7,0.5,1.3,0.5
			c0.7,0,1.2-0.2,1.7-0.5L526.9,174.9z"/>
			<path class="st3" d="M530.8,174.9c-1-0.6-1.9-1.3-2.4-2.3s-0.9-2.1-0.9-3.4c0-1.3,0.3-2.4,0.9-3.4s1.4-1.8,2.4-2.3
			c1-0.6,2.2-0.8,3.5-0.8c1.3,0,2.5,0.3,3.5,0.8c1,0.6,1.9,1.3,2.4,2.3c0.6,1,0.9,2.1,0.9,3.4c0,1.3-0.3,2.4-0.9,3.4
			c-0.6,1-1.4,1.8-2.4,2.3c-1,0.6-2.2,0.8-3.5,0.8C533,175.7,531.9,175.5,530.8,174.9z M537.1,172.1c0.7-0.7,1.1-1.7,1.1-2.9
			s-0.4-2.2-1.1-2.9c-0.7-0.7-1.6-1.1-2.7-1.1c-1.1,0-2,0.4-2.7,1.1c-0.7,0.7-1.1,1.7-1.1,2.9s0.4,2.2,1.1,2.9s1.6,1.1,2.7,1.1
			C535.4,173.2,536.3,172.8,537.1,172.1z"/>
			<path class="st3" d="M561.1,164c1,0.9,1.5,2.3,1.5,4.2v7.3h-3v-7c0-1.1-0.3-2-0.8-2.5c-0.5-0.6-1.3-0.9-2.3-0.9
			c-1.1,0-2,0.3-2.6,1s-1,1.6-1,2.9v6.5h-3v-17.8h3v6.5c0.5-0.5,1.1-0.9,1.8-1.2c0.7-0.3,1.5-0.4,2.4-0.4
			C558.8,162.6,560.1,163.1,561.1,164z"/>
			<path class="st3" d="M578.1,170.1h-10.1c0.2,0.9,0.6,1.7,1.4,2.2s1.7,0.8,2.8,0.8c1.4,0,2.6-0.5,3.5-1.4l1.6,1.8
			c-0.6,0.7-1.3,1.2-2.2,1.6c-0.9,0.4-1.9,0.5-3,0.5c-1.4,0-2.6-0.3-3.7-0.8c-1.1-0.6-1.9-1.3-2.5-2.3s-0.9-2.1-0.9-3.4
			c0-1.2,0.3-2.4,0.9-3.4c0.6-1,1.4-1.8,2.4-2.3c1-0.6,2.1-0.8,3.4-0.8c1.2,0,2.4,0.3,3.3,0.8c1,0.6,1.8,1.3,2.3,2.3
			c0.6,1,0.8,2.2,0.8,3.5C578.2,169.4,578.2,169.7,578.1,170.1z M569.3,165.9c-0.7,0.6-1.1,1.3-1.2,2.3h7.3
			c-0.1-0.9-0.5-1.7-1.2-2.3c-0.7-0.6-1.5-0.9-2.4-0.9C570.8,165,569.9,165.3,569.3,165.9z"/>
			<path class="st3" d="M580.7,157.8h3v17.8h-3V157.8z"/>
			<path class="st3" d="M597.7,163.4c1,0.5,1.8,1.3,2.3,2.3c0.6,1,0.8,2.1,0.8,3.4s-0.3,2.4-0.8,3.4c-0.6,1-1.3,1.8-2.3,2.3
			c-1,0.5-2.1,0.8-3.3,0.8c-1.7,0-3.1-0.6-4.1-1.7v6.2h-3v-17.5h2.9v1.7c0.5-0.6,1.1-1.1,1.8-1.4c0.7-0.3,1.5-0.5,2.4-0.5
			C595.6,162.6,596.8,162.9,597.7,163.4z M596.8,172.1c0.7-0.7,1.1-1.7,1.1-2.9s-0.4-2.2-1.1-2.9c-0.7-0.7-1.6-1.1-2.7-1.1
			c-0.7,0-1.4,0.2-1.9,0.5s-1,0.8-1.4,1.4c-0.3,0.6-0.5,1.3-0.5,2.1c0,0.8,0.2,1.5,0.5,2.1s0.8,1.1,1.4,1.4s1.2,0.5,1.9,0.5
			C595.2,173.2,596.1,172.8,596.8,172.1z"/>
		</g>
	</g>
</svg>
