<?xml version="1.0" encoding="utf-8"?>
<!-- Generator: Adobe Illustrator 23.0.3, SVG Export Plug-In . SVG Version: 6.00 Build 0)  -->
<svg version="1.1" id="Layer_1" xmlns="http://www.w3.org/2000/svg" xmlns:xlink="http://www.w3.org/1999/xlink" x="0px" y="0px"
	 viewBox="0 0 1096 1114.6" style="enable-background:new 0 0 1096 1114.6;" xml:space="preserve">
<style type="text/css">
	
		.st0{fill:none;stroke:#FF7DB9;stroke-width:1.4759;stroke-linecap:round;stroke-linejoin:round;stroke-miterlimit:10;stroke-dasharray:2.9517,5.4115;}
	.st1{fill:#FFFFFF;}
	.st2{fill:none;stroke:#FFCB57;stroke-width:1.6599;stroke-miterlimit:10;}
	.st3{fill:#FFCB57;}
	.st4{opacity:0.9;fill:url(#SVGID_1_);}
	.st5{opacity:0.9;fill:url(#SVGID_2_);}
	.st6{opacity:0.9;fill:url(#SVGID_3_);}
	.st7{opacity:0.9;fill:url(#SVGID_4_);}
	.st8{opacity:0.9;fill:url(#SVGID_5_);}
	.st9{fill:#FFF9DB;}
	.st10{fill:#FFD7E9;}
	.st11{opacity:0.9;fill:url(#SVGID_6_);}
	.st12{opacity:0.9;fill:url(#SVGID_7_);}
	.st13{fill:#D8F2FF;}
	.st14{opacity:0.9;fill:url(#SVGID_8_);}
	.st15{fill:none;stroke:#FF7DB9;stroke-width:2.2533;stroke-linecap:round;stroke-linejoin:round;stroke-miterlimit:10;}
	.st16{fill:#FF7DB9;}
	.st17{fill:none;stroke:#FFCB57;stroke-width:2.2533;stroke-linecap:round;stroke-linejoin:round;stroke-miterlimit:10;}
	.st18{fill:#FFCB00;}
	.st19{fill:none;stroke:#FFCB57;stroke-width:2.2533;stroke-linejoin:round;stroke-miterlimit:10;}
	.st20{fill:none;stroke:#49C4FF;stroke-width:1.7704;stroke-linecap:round;stroke-linejoin:round;stroke-miterlimit:10;}
	.st21{fill:#49C4FF;}
	.st22{fill:none;stroke:#FF7DB9;stroke-width:2.2533;stroke-linejoin:round;stroke-miterlimit:10;}
	.st23{fill:none;stroke:#49C4FF;stroke-width:1.7335;stroke-linecap:round;stroke-linejoin:round;stroke-miterlimit:10;}
	.st24{fill:#F6F0F8;}
	.st25{fill:#333343;}
	.st26{fill:#3E3D51;}
	.st27{fill:none;stroke:#FFCB57;stroke-width:1.4173;stroke-miterlimit:10;}
	.st28{opacity:0.9;fill:url(#SVGID_9_);}
	.st29{fill:none;stroke:#FFCB57;stroke-width:1.6611;stroke-linecap:round;stroke-linejoin:round;stroke-miterlimit:10;}
	.st30{fill:none;stroke:#FFCB57;stroke-width:3.6085;stroke-miterlimit:10;}
	.st31{opacity:0.9;fill:url(#SVGID_10_);}
	.st32{opacity:0.9;fill:url(#SVGID_11_);}
	.st33{opacity:0.9;fill:url(#SVGID_12_);}
	.st34{opacity:0.9;fill:url(#SVGID_13_);}
	.st35{opacity:0.9;fill:url(#SVGID_14_);}
	.st36{opacity:0.9;fill:url(#SVGID_15_);}
	.st37{opacity:0.9;fill:url(#SVGID_16_);}
	.st38{opacity:0.9;fill:url(#SVGID_17_);}
	.st39{fill:none;stroke:#FF7DB9;stroke-width:4.8984;stroke-linecap:round;stroke-linejoin:round;stroke-miterlimit:10;}
	.st40{fill:none;stroke:#FFCB57;stroke-width:4.8984;stroke-linecap:round;stroke-linejoin:round;stroke-miterlimit:10;}
	.st41{fill:none;stroke:#FFCB57;stroke-width:4.8984;stroke-linejoin:round;stroke-miterlimit:10;}
	.st42{fill:none;stroke:#49C4FF;stroke-width:3.8488;stroke-linecap:round;stroke-linejoin:round;stroke-miterlimit:10;}
	.st43{fill:none;stroke:#FF7DB9;stroke-width:4.8984;stroke-linejoin:round;stroke-miterlimit:10;}
	.st44{fill:none;stroke:#49C4FF;stroke-width:3.7686;stroke-linecap:round;stroke-linejoin:round;stroke-miterlimit:10;}
	.st45{fill:#32A9FE;}
	.st46{fill:none;stroke:#FFCB57;stroke-width:3.0812;stroke-miterlimit:10;}
	.st47{opacity:0.9;fill:url(#SVGID_18_);}
	.st48{fill:none;stroke:#FFCB57;stroke-width:3.6111;stroke-linecap:round;stroke-linejoin:round;stroke-miterlimit:10;}
	
		.st49{fill:none;stroke:#FF7DB9;stroke-width:2.126;stroke-linecap:round;stroke-linejoin:round;stroke-miterlimit:10;stroke-dasharray:2.9517,5.4115;}
	.st50{opacity:0.9;fill:url(#SVGID_19_);}
	.st51{opacity:0.9;fill:url(#SVGID_20_);}
	.st52{opacity:0.9;fill:url(#SVGID_21_);}
	.st53{opacity:0.9;fill:url(#SVGID_22_);}
	.st54{opacity:0.9;fill:url(#SVGID_23_);}
	.st55{opacity:0.9;fill:url(#SVGID_24_);}
	.st56{opacity:0.9;fill:url(#SVGID_25_);}
	.st57{opacity:0.9;fill:url(#SVGID_26_);}
	.st58{opacity:0.9;fill:url(#SVGID_27_);}
	.st59{opacity:0.9;fill:url(#SVGID_28_);}
	.st60{opacity:0.9;fill:url(#SVGID_29_);}
	.st61{opacity:0.9;fill:url(#SVGID_30_);}
	.st62{opacity:0.9;fill:url(#SVGID_31_);}
	.st63{opacity:0.9;fill:url(#SVGID_32_);}
	.st64{opacity:0.9;fill:url(#SVGID_33_);}
	.st65{opacity:0.9;fill:url(#SVGID_34_);}
	.st66{opacity:0.9;fill:url(#SVGID_35_);}
	.st67{opacity:0.9;fill:url(#SVGID_36_);}
	.st68{opacity:0.9;fill:url(#SVGID_37_);}
	.st69{opacity:0.9;fill:url(#SVGID_38_);}
	.st70{opacity:0.9;fill:url(#SVGID_39_);}
	.st71{opacity:0.9;fill:url(#SVGID_40_);}
</style>
<g>
	<ellipse class="st1" cx="294.7" cy="501.1" rx="62.2" ry="99.6"/>
	<g>
		<path class="st45" d="M218.3,553.7c-1.6-0.9-2.9-2.1-3.8-3.7c-0.9-1.6-1.4-3.3-1.4-5.2c0-1.9,0.5-3.7,1.4-5.2
			c0.9-1.6,2.2-2.8,3.8-3.7c1.6-0.9,3.5-1.3,5.5-1.3c2,0,3.9,0.4,5.5,1.3c1.6,0.9,2.9,2.1,3.8,3.7c0.9,1.6,1.4,3.3,1.4,5.3
			c0,2-0.5,3.7-1.4,5.2c-0.9,1.5-2.2,2.8-3.8,3.6s-3.5,1.3-5.5,1.3C221.8,555,220,554.6,218.3,553.7z M227.4,550.9
			c1.1-0.6,1.9-1.4,2.5-2.5c0.6-1.1,0.9-2.3,0.9-3.6c0-1.3-0.3-2.5-0.9-3.6c-0.6-1.1-1.4-1.9-2.5-2.5c-1.1-0.6-2.3-0.9-3.6-0.9
			c-1.3,0-2.5,0.3-3.6,0.9c-1.1,0.6-1.9,1.4-2.5,2.5c-0.6,1.1-0.9,2.3-0.9,3.6c0,1.3,0.3,2.5,0.9,3.6c0.6,1.1,1.4,1.9,2.5,2.5
			c1.1,0.6,2.3,0.9,3.6,0.9C225.1,551.8,226.3,551.5,227.4,550.9z"/>
		<path class="st45" d="M257.7,551.7l0,7.4l-3.4,0l0-4.2l-15.2,0l0,4.2l-3.4,0l0-7.4l0.9,0c1.2-0.1,2.1-1,2.6-2.8
			c0.5-1.8,0.8-4.3,0.9-7.7l0.2-6.3l14.6,0l0,16.7L257.7,551.7z M242.7,548c-0.3,1.7-0.8,2.9-1.5,3.7l10.1,0l0-13.6l-7.8,0l-0.1,3.5
			C243.2,544.1,243,546.3,242.7,548z"/>
		<path class="st45" d="M264.9,553.8c-1.6-0.9-2.9-2.1-3.8-3.7c-0.9-1.6-1.4-3.3-1.4-5.2c0-1.9,0.5-3.7,1.4-5.2
			c0.9-1.6,2.2-2.8,3.8-3.7c1.6-0.9,3.5-1.3,5.5-1.3c2,0,3.9,0.4,5.5,1.3c1.6,0.9,2.9,2.1,3.8,3.7c0.9,1.6,1.4,3.3,1.4,5.3
			c0,2-0.5,3.7-1.4,5.2c-0.9,1.6-2.2,2.8-3.8,3.6s-3.5,1.3-5.5,1.3C268.4,555.1,266.5,554.7,264.9,553.8z M274,551
			c1.1-0.6,1.9-1.4,2.5-2.5c0.6-1.1,0.9-2.3,0.9-3.6c0-1.3-0.3-2.5-0.9-3.6c-0.6-1.1-1.4-1.9-2.5-2.5c-1.1-0.6-2.3-0.9-3.6-0.9
			c-1.3,0-2.5,0.3-3.6,0.9c-1.1,0.6-1.9,1.4-2.5,2.5c-0.6,1.1-0.9,2.3-0.9,3.6c0,1.3,0.3,2.5,0.9,3.6c0.6,1.1,1.4,1.9,2.5,2.5
			c1.1,0.6,2.3,0.9,3.6,0.9C271.7,551.9,272.9,551.6,274,551z"/>
		<path class="st45" d="M285.2,535l15.5,0l0,3l-11.8,0l0,4.9l5.9,0c2.4,0,4.2,0.5,5.4,1.5c1.2,1,1.9,2.4,1.9,4.3
			c0,2-0.7,3.5-2.1,4.6c-1.4,1.1-3.3,1.6-5.8,1.6l-8.9,0L285.2,535z M294,552c1.4,0,2.5-0.3,3.2-0.8c0.7-0.5,1.1-1.3,1.1-2.4
			c0-2-1.4-3.1-4.3-3.1l-5.1,0l0,6.3L294,552z"/>
		<path class="st45" d="M318.8,535.9c1.3,0.6,2.3,1.4,2.9,2.4c0.7,1.1,1,2.3,1,3.8c0,1.4-0.3,2.7-1,3.8c-0.7,1.1-1.7,1.9-2.9,2.5
			c-1.3,0.6-2.8,0.8-4.5,0.8l-4.5,0l0,5.7l-3.7,0l0-19.9l8.2,0C316,535,317.5,535.3,318.8,535.9z M317.7,545
			c0.8-0.7,1.3-1.7,1.3-2.9c0-1.3-0.4-2.2-1.2-2.9c-0.8-0.7-2.1-1-3.7-1l-4.3,0l0,7.9l4.3,0C315.7,546.1,316.9,545.7,317.7,545z"/>
		<path class="st45" d="M341.1,551.9l0,3.1l-14.9,0l0-19.9l14.5,0l0,3.1l-10.8,0l0,5.2l9.6,0l0,3l-9.6,0l0,5.5L341.1,551.9z"/>
		<path class="st45" d="M362.9,535.1l0,19.9l-3.7,0l0-8.5l-10.3,0l0,8.5l-3.7,0l0-19.9l3.7,0l0,8.2l10.3,0l0-8.2L362.9,535.1z"/>
		<path class="st45" d="M368.5,535.1l3.6,0l0,14.1l10.7-14.1l3.4,0l0,19.9l-3.6,0l0-14.1L371.9,555l-3.4,0L368.5,535.1z"/>
		<path class="st45" d="M406.7,552l0,3.1l-14.9,0l0-19.9l14.5,0l0,3.1l-10.8,0l0,5.2l9.6,0l0,3l-9.6,0l0,5.5L406.7,552z"/>
	</g>
	<circle class="st30" cx="303.8" cy="464.4" r="46.7"/>
	<g>
		<g>
			<path class="st3" d="M291.3,489.2c-1.5,0-2.4,0-2.5,0h-1.5v-27.3l0.5-0.4c3.1-3,5.3-6.9,7.5-10.7c0.5-0.8,0.9-1.6,1.4-2.5
				l0.1-0.1c0.9-1.4,0.9-4.3,0.8-6.6c-0.1-2.2-0.1-4,0.6-5.1c0.6-0.9,1.5-1.4,2.7-1.6c2.2-0.3,4.4,0.9,5.5,3
				c3.3,6.7,2.5,10.8,1.4,16.6c-0.1,0.8-0.3,1.6-0.5,2.5c2.3,0.1,4.6,0,6.8,0c2.5,0,5.1-0.1,7.6,0c1.9,0.1,4.3,0.3,5.6,1.9
				c0.5,0.6,1,1.7,0.8,3.2c-0.3,1.7-1.1,3.1-2.4,4c0.9,0.9,1.3,2.1,1.1,3.5c-0.2,1.5-1.1,3-2.3,3.9c0.7,0.8,1.1,1.8,1,3
				c0,1.8-1,3.5-2.4,4.5c0.8,1,1.1,2.2,0.8,3.5c-0.6,2.6-3.5,4.7-6.4,4.7C310.6,489.2,296.9,489.2,291.3,489.2z M290.4,486.2
				c4.8,0,19.7,0,27.2,0c1.6,0,3.2-1.3,3.5-2.4c0.1-0.2,0.2-0.8-0.7-1.3c-0.9-0.3-1.4-1.1-1.3-1.9c0.1-0.9,0.8-1.6,1.8-1.7
				c1-0.3,1.7-1.5,1.7-2.4c0-0.9-0.6-1.2-1-1.4l-0.1,0l-0.1-0.1c-0.8-0.4-1.2-1.2-1-2c0.2-0.8,1-1.4,1.8-1.5
				c0.9-0.3,1.7-1.3,1.8-2.2c0.1-0.8-0.3-1.1-0.6-1.3l-0.1,0c0,0-0.1,0-0.1-0.1c-0.3-0.1-1.1-0.4-1.4-1.2l-0.1-0.1l0-0.1
				c-0.2-0.8,0.2-1.7,1-2.1l0.1-0.1l0.1,0c1.3-0.3,2-1.2,2.3-2.6l0,0c0.1-0.6-0.1-0.8-0.1-0.9c-0.3-0.3-1.1-0.8-3.4-0.8
				c-2.5-0.1-5,0-7.5,0c-2.8,0-5.8,0.1-8.7-0.1l-1.7-0.1l0.3-1.6c0.2-1.5,0.5-3,0.7-4.2c1.1-5.6,1.7-8.9-1.2-14.7
				c-0.5-0.9-1.4-1.5-2.4-1.4c-0.4,0.1-0.6,0.2-0.6,0.2c-0.2,0.4-0.2,2.2-0.1,3.4c0.1,2.9,0.2,6.1-1.3,8.3c-0.5,0.8-0.9,1.6-1.4,2.4
				c-2.2,3.8-4.4,7.8-7.6,11V486.2z"/>
		</g>
		<g>
			<path class="st3" d="M287.8,489.2H282c-1.4,0-2.6-1.1-2.6-2.6v-23.1c0-1.4,1.1-2.6,2.6-2.6h5.8c1.4,0,2.6,1.1,2.6,2.6v23.1
				C290.3,488.1,289.2,489.2,287.8,489.2z M282.4,486.2h4.9V464h-4.9V486.2z"/>
		</g>
	</g>
	
		<radialGradient id="SVGID_1_" cx="-831.8627" cy="5197.3491" r="129.2727" gradientTransform="matrix(0.5538 0 0 4.348000e-02 770.7068 294.979)" gradientUnits="userSpaceOnUse">
		<stop  offset="0.1034" style="stop-color:#E0E3E2"/>
		<stop  offset="0.2677" style="stop-color:#E9EBEA"/>
		<stop  offset="0.684" style="stop-color:#F9FAFA"/>
		<stop  offset="1" style="stop-color:#FFFFFF"/>
	</radialGradient>
	<ellipse class="st4" cx="310" cy="521" rx="101.1" ry="4.7"/>
</g>
<g>
	<g>
		<g>
			<path class="st45" d="M891.8,416.6v17.6h-4v-14.2h-7.9v14.2h-4v-17.6H891.8z"/>
			<path class="st45" d="M898.4,433.5c-1.1-0.6-2-1.4-2.6-2.5c-0.6-1.1-1-2.2-1-3.6c0-1.3,0.3-2.5,1-3.6c0.6-1.1,1.5-1.9,2.6-2.5
				c1.1-0.6,2.4-0.9,3.8-0.9c1.4,0,2.7,0.3,3.8,0.9c1.1,0.6,2,1.4,2.6,2.5c0.6,1.1,1,2.2,1,3.6c0,1.3-0.3,2.5-1,3.6
				s-1.5,1.9-2.6,2.5s-2.4,0.9-3.8,0.9S899.5,434.1,898.4,433.5z M904.7,430.1c0.6-0.7,1-1.6,1-2.7c0-1.1-0.3-2-1-2.7
				c-0.6-0.7-1.5-1-2.5-1s-1.8,0.3-2.5,1c-0.7,0.7-1,1.6-1,2.7c0,1.1,0.3,2,1,2.7c0.7,0.7,1.5,1,2.5,1
				C903.2,431.1,904,430.8,904.7,430.1z"/>
			<path class="st45" d="M926.1,420.7v11.2c0,2.5-0.6,4.3-1.9,5.5c-1.3,1.2-3.2,1.8-5.6,1.8c-1.3,0-2.5-0.2-3.7-0.5
				c-1.2-0.3-2.1-0.8-2.9-1.4l1.6-2.8c0.6,0.5,1.3,0.8,2.2,1.1c0.9,0.3,1.7,0.4,2.6,0.4c1.4,0,2.4-0.3,3-0.9c0.6-0.6,1-1.5,1-2.8
				v-0.6c-1,1.1-2.4,1.7-4.3,1.7c-1.2,0-2.4-0.3-3.4-0.8c-1-0.5-1.8-1.3-2.4-2.3c-0.6-1-0.9-2.1-0.9-3.4s0.3-2.4,0.9-3.4
				s1.4-1.8,2.4-2.3c1-0.5,2.2-0.8,3.4-0.8c2,0,3.4,0.6,4.5,1.9v-1.7L926.1,420.7L926.1,420.7z M921.2,429.4c0.7-0.6,1-1.4,1-2.4
				s-0.3-1.8-1-2.4s-1.5-0.9-2.5-0.9c-1,0-1.9,0.3-2.6,0.9c-0.7,0.6-1,1.4-1,2.4c0,1,0.3,1.8,1,2.4c0.7,0.6,1.5,0.9,2.6,0.9
				C919.7,430.3,920.5,430,921.2,429.4z"/>
			<path class="st45" d="M935.7,429h-2v5.1h-3.9v-18.6h3.9v10.4h2.1l3.7-5.2h4.2l-4.7,6.5l5,7h-4.6L935.7,429z"/>
			<path class="st45" d="M957.2,421.3c1,0.6,1.8,1.4,2.4,2.4c0.6,1,0.9,2.3,0.9,3.6c0,1.4-0.3,2.6-0.9,3.6s-1.4,1.9-2.4,2.4
				c-1,0.6-2.2,0.9-3.4,0.9c-1.7,0-3.1-0.5-4.1-1.6v6.3h-3.9v-18.4h3.7v1.6c1-1.2,2.4-1.8,4.2-1.8
				C955.1,420.5,956.2,420.8,957.2,421.3z M955.6,430.1c0.6-0.7,1-1.6,1-2.7c0-1.1-0.3-2-1-2.7c-0.6-0.7-1.5-1-2.5-1s-1.8,0.3-2.5,1
				c-0.6,0.7-1,1.6-1,2.7c0,1.1,0.3,2,1,2.7c0.6,0.7,1.5,1,2.5,1S955,430.8,955.6,430.1z"/>
			<path class="st45" d="M976.3,428.5h-10.2c0.2,0.8,0.6,1.5,1.3,2c0.7,0.5,1.5,0.7,2.6,0.7c0.7,0,1.3-0.1,1.9-0.3
				c0.5-0.2,1-0.5,1.5-1l2.1,2.3c-1.3,1.5-3.1,2.2-5.6,2.2c-1.5,0-2.9-0.3-4-0.9c-1.2-0.6-2.1-1.4-2.7-2.5c-0.6-1.1-1-2.2-1-3.6
				c0-1.3,0.3-2.5,0.9-3.6s1.5-1.9,2.6-2.5c1.1-0.6,2.3-0.9,3.7-0.9c1.3,0,2.5,0.3,3.6,0.9c1.1,0.6,1.9,1.4,2.5,2.4
				c0.6,1.1,0.9,2.3,0.9,3.7C976.4,427.5,976.3,427.9,976.3,428.5z M967.1,424.2c-0.6,0.5-1,1.2-1.1,2.1h6.6c-0.1-0.9-0.5-1.5-1.1-2
				c-0.6-0.5-1.3-0.8-2.2-0.8C968.5,423.4,967.7,423.7,967.1,424.2z"/>
			<path class="st45" d="M991.6,422c1,1,1.5,2.5,1.5,4.5v7.7h-3.9V427c0-1.1-0.2-1.9-0.7-2.4c-0.5-0.5-1.1-0.8-2-0.8
				c-1,0-1.8,0.3-2.4,0.9s-0.9,1.5-0.9,2.7v6.7h-3.9v-13.5h3.7v1.6c0.5-0.6,1.2-1,1.9-1.3s1.6-0.5,2.5-0.5
				C989.2,420.5,990.6,421,991.6,422z"/>
			<path class="st45" d="M1009.9,420.7v13.5h-3.7v-1.6c-0.5,0.6-1.1,1-1.8,1.3c-0.7,0.3-1.5,0.5-2.3,0.5c-1.8,0-3.2-0.5-4.2-1.5
				c-1-1-1.6-2.5-1.6-4.5v-7.6h3.9v7c0,2.2,0.9,3.3,2.7,3.3c1,0,1.7-0.3,2.3-0.9c0.6-0.6,0.9-1.5,0.9-2.7v-6.7H1009.9L1009.9,420.7z
				"/>
			<path class="st45" d="M1013.3,433.7c-0.5-0.5-0.7-1.1-0.7-1.8c0-0.7,0.2-1.3,0.7-1.7c0.5-0.4,1-0.7,1.7-0.7
				c0.7,0,1.3,0.2,1.7,0.7c0.5,0.4,0.7,1,0.7,1.7c0,0.7-0.2,1.3-0.7,1.8c-0.5,0.5-1,0.7-1.7,0.7
				C1014.3,434.4,1013.7,434.1,1013.3,433.7z"/>
			<path class="st45" d="M1030.9,422.4c1,0.5,1.7,1.3,2.2,2.2s0.8,2.1,0.8,3.3c0,1.3-0.3,2.4-0.9,3.4s-1.5,1.8-2.6,2.3
				c-1.1,0.5-2.4,0.8-3.8,0.8c-2.4,0-4.2-0.8-5.6-2.3c-1.3-1.5-2-3.7-2-6.7c0-2.7,0.6-4.9,1.8-6.5c1.2-1.6,3-2.7,5.4-3.2l6.4-1.3
				l0.5,3.4l-5.7,1.1c-1.5,0.3-2.7,0.8-3.4,1.5c-0.7,0.7-1.2,1.7-1.3,3c0.6-0.6,1.3-1.1,2.1-1.5c0.8-0.3,1.7-0.5,2.7-0.5
				C1028.8,421.6,1029.9,421.9,1030.9,422.4z M1029,430.4c0.6-0.7,0.9-1.5,0.9-2.5c0-1-0.3-1.8-0.9-2.4c-0.6-0.6-1.4-0.9-2.4-0.9
				c-1,0-1.8,0.3-2.5,0.9c-0.6,0.6-0.9,1.4-0.9,2.4c0,1,0.3,1.9,1,2.5c0.6,0.6,1.4,1,2.4,1C1027.5,431.4,1028.4,431.1,1029,430.4z"
				/>
			<path class="st45" d="M1037.3,433.3c-1.2-0.8-1.8-1.8-1.8-3.2c0-0.9,0.3-1.6,0.8-2.2c0.5-0.5,1.1-0.9,1.8-1.1
				c0.7-0.2,1.6-0.4,2.7-0.6c1-0.2,1.8-0.4,2.2-0.5c0.5-0.2,0.7-0.5,0.7-0.9c0-0.4-0.2-0.8-0.7-1c-0.4-0.2-1-0.3-1.8-0.3
				c-0.7,0-1.4,0.1-2.2,0.3c-0.8,0.2-1.4,0.4-1.9,0.7l-1.1-2.6c0.8-0.4,1.6-0.7,2.5-0.9c0.9-0.2,1.8-0.3,2.8-0.3
				c1.8,0,3.3,0.4,4.5,1.2s1.8,1.9,1.8,3.3c0,0.9-0.3,1.7-0.8,2.2c-0.5,0.5-1.1,0.9-1.8,1.1c-0.7,0.2-1.6,0.4-2.7,0.6
				c-1,0.2-1.7,0.4-2.2,0.5c-0.5,0.2-0.7,0.5-0.7,0.8c0,0.4,0.2,0.8,0.7,1c0.5,0.2,1.1,0.3,1.8,0.3c0.9,0,1.7-0.1,2.7-0.4
				c0.9-0.2,1.7-0.5,2.2-0.8l1.1,2.6c-0.8,0.5-1.8,0.9-2.8,1.1c-1,0.3-2.1,0.4-3.1,0.4C1040,434.4,1038.5,434,1037.3,433.3z"/>
		</g>
	</g>
	<g>
		<circle class="st1" cx="933.2" cy="317.3" r="83.6"/>
		<g>
			<path class="st45" d="M849,397.9c0.7,0.8,1,1.9,1,3.1c0,1.7-0.6,3.1-1.9,4.1c-1.3,1-3.2,1.4-5.6,1.4h-9.4v-19.9h8.9
				c2.2,0,4,0.4,5.2,1.3c1.2,0.9,1.9,2.1,1.9,3.8c0,1-0.3,1.9-0.8,2.7c-0.5,0.8-1.2,1.3-2.2,1.7C847.4,396.5,848.4,397.1,849,397.9z
				 M836.7,395.1h4.9c1.2,0,2.1-0.2,2.7-0.7c0.6-0.5,0.9-1.2,0.9-2.1c0-0.9-0.3-1.6-0.9-2.1c-0.6-0.5-1.5-0.7-2.7-0.7h-4.9V395.1z
				 M846.3,400.7c0-1.9-1.3-2.9-3.9-2.9h-5.7v5.8h5.7C845,403.7,846.3,402.7,846.3,400.7z"/>
			<path class="st45" d="M867.4,401.9h-9.9l-2,4.6h-3.8l8.9-19.9h3.6l9,19.9h-3.9L867.4,401.9z M866.2,399l-3.7-8.7l-3.7,8.7H866.2z
				"/>
			<path class="st45" d="M893.4,386.6v19.9h-3.6v-16.7h-7.8l-0.2,5c-0.1,2.8-0.3,5-0.7,6.8c-0.4,1.7-0.9,3-1.7,3.9
				c-0.8,0.9-1.9,1.3-3.3,1.3c-0.5,0-1.2-0.1-2-0.3l0.3-3.2c0.2,0.1,0.5,0.1,0.9,0.1c1.2,0,2-0.7,2.5-2.1c0.5-1.4,0.8-3.5,0.9-6.5
				l0.3-8.2H893.4z"/>
			<path class="st45" d="M899,386.6h3.6v14.1l10.7-14.1h3.4v19.9h-3.6v-14.1l-10.7,14.1H899V386.6z"/>
			<path class="st45" d="M941.8,403.4v7.4h-3.4v-4.2h-15.2v4.2h-3.4l0-7.4h0.9c1.2-0.1,2.1-1,2.6-2.8c0.5-1.8,0.8-4.3,0.9-7.7
				l0.2-6.3H939v16.7H941.8z M926.8,399.7c-0.3,1.7-0.8,2.9-1.5,3.7h10.1v-13.6h-7.8l-0.1,3.5C927.3,395.9,927.1,398,926.8,399.7z"
				/>
			<path class="st45" d="M945.3,386.6h3.6v14.1l10.7-14.1h3.4v19.9h-3.6v-14.1l-10.7,14.1h-3.4V386.6z"/>
			<path class="st45" d="M981.3,387.5c1.3,0.6,2.3,1.4,2.9,2.4c0.7,1.1,1,2.3,1,3.8c0,1.4-0.3,2.7-1,3.8c-0.7,1.1-1.7,1.9-2.9,2.5
				c-1.3,0.6-2.8,0.9-4.5,0.9h-4.5v5.7h-3.7v-19.9h8.2C978.5,386.6,980,386.9,981.3,387.5z M980.3,396.6c0.8-0.7,1.2-1.7,1.2-2.9
				c0-1.3-0.4-2.2-1.2-2.9c-0.8-0.7-2.1-1-3.7-1h-4.3v7.9h4.3C978.2,397.7,979.5,397.3,980.3,396.6z"/>
			<path class="st45" d="M1000.9,401.9H991l-2,4.6h-3.8l8.9-19.9h3.6l9,19.9h-3.9L1000.9,401.9z M999.7,399l-3.7-8.7l-3.7,8.7H999.7
				z"/>
			<path class="st45" d="M1027.5,386.6v19.9h-3.7V398h-10.3v8.5h-3.7v-19.9h3.7v8.2h10.3v-8.2H1027.5z"/>
			<path class="st45" d="M1047.9,403.4v3.1H1033v-19.9h14.5v3.1h-10.8v5.2h9.6v3h-9.6v5.5H1047.9z"/>
			<path class="st45" d="M834.9,433.4c-1.2-0.6-2.1-1.5-2.7-2.6c-0.7-1.1-1-2.4-1-3.8c0-1.4,0.3-2.6,1-3.8c0.7-1.1,1.6-2,2.7-2.6
				c1.2-0.6,2.5-0.9,3.9-0.9c1.5,0,2.8,0.3,3.9,0.9c1.2,0.6,2.1,1.5,2.7,2.6c0.7,1.1,1,2.4,1,3.8c0,1.4-0.3,2.7-1,3.8
				c-0.7,1.1-1.6,2-2.7,2.6c-1.2,0.6-2.5,0.9-3.9,0.9C837.4,434.4,836.1,434.1,834.9,433.4z M841.4,431.4c0.8-0.4,1.4-1,1.8-1.8
				c0.4-0.8,0.7-1.6,0.7-2.6c0-0.9-0.2-1.8-0.7-2.6c-0.4-0.8-1-1.4-1.8-1.8c-0.8-0.4-1.6-0.6-2.6-0.6c-0.9,0-1.8,0.2-2.6,0.6
				c-0.8,0.4-1.4,1-1.8,1.8c-0.4,0.8-0.7,1.6-0.7,2.6c0,0.9,0.2,1.8,0.7,2.6c0.4,0.8,1,1.4,1.8,1.8c0.8,0.4,1.6,0.6,2.6,0.6
				C839.8,432,840.6,431.8,841.4,431.4z"/>
			<path class="st45" d="M859.6,422.2h-4.7v12h-2.6v-12h-4.7v-2.2h12V422.2z"/>
		</g>
		<g>
			<g>
				<g>
					<path class="st3" d="M962.9,309h-25.3c-1,0-1.9-0.8-1.9-1.9s0.8-1.9,1.9-1.9h25.3c1,0,1.9,0.8,1.9,1.9S964,309,962.9,309z"/>
				</g>
			</g>
			<g>
				<g>
					<path class="st3" d="M962.9,341.8h-9.1c-1,0-1.9-0.8-1.9-1.9c0-1,0.8-1.9,1.9-1.9h9.1c1,0,1.9,0.8,1.9,1.9
						C964.8,340.9,964,341.8,962.9,341.8z"/>
				</g>
			</g>
			<g>
				<g>
					<path class="st3" d="M962.7,317.2h-21.6c-1,0-1.9-0.8-1.9-1.9c0-1,0.8-1.9,1.9-1.9h21.6c1,0,1.9,0.8,1.9,1.9
						C964.6,316.4,963.7,317.2,962.7,317.2z"/>
				</g>
			</g>
			<g>
				<g>
					<path class="st3" d="M962.9,325.4h-25.3c-1,0-1.9-0.8-1.9-1.9c0-1,0.8-1.9,1.9-1.9h25.3c1,0,1.9,0.8,1.9,1.9
						C964.8,324.5,964,325.4,962.9,325.4z"/>
				</g>
			</g>
			<path class="st3" d="M973.6,293c0-0.6-0.3-1.2-0.7-1.5l-22.1-22.1c0,0,0,0,0,0c-0.1-0.1-0.2-0.2-0.4-0.3c0,0-0.1,0-0.1-0.1
				c-0.1-0.1-0.3-0.1-0.4-0.2c0,0,0,0,0,0c-0.1,0-0.2,0-0.4,0h-43.3c-1,0-1.9,0.8-1.9,1.9v19c0.7-0.1,1.4-0.1,2.1-0.1
				c0.5,0,1.1,0,1.6,0.1v-17.1h39.6V293c0,1,0.8,1.9,1.9,1.9h20.4v59.5H908v-17.1c-0.5,0.1-1.1,0.1-1.6,0.1c-0.7,0-1.4,0-2.1-0.1v19
				c0,1,0.8,1.9,1.9,1.9h65.6c1,0,1.9-0.8,1.9-1.9v-63C973.6,293.1,973.6,293,973.6,293z M951.3,291.1v-15.9l15.9,15.9H951.3z"/>
			<g>
				<path class="st3" d="M903.3,323.9c-0.5,0-0.9-0.2-1.2-0.5l-8.3-7.3c-0.8-0.7-0.9-1.9-0.2-2.7c0.7-0.8,1.9-0.9,2.7-0.2l6.9,6.1
					l13.2-15.6c0.7-0.8,1.9-0.9,2.7-0.2c0.8,0.7,0.9,1.9,0.2,2.7l-14.5,17.1c-0.3,0.4-0.8,0.6-1.3,0.7
					C903.4,323.9,903.3,323.9,903.3,323.9z"/>
			</g>
			<g>
				<path class="st3" d="M906.3,339.2c-0.7,0-1.5,0-2.3-0.1c-13.4-1.2-23.5-12.2-23.5-25.7c0-13.4,10.1-24.5,23.5-25.7
					c1.5-0.1,2.8-0.2,4.1,0c13.4,0.9,24,12.2,24,25.7c0,13.5-10.6,24.8-24,25.7C907.5,339.2,906.9,339.2,906.3,339.2z M906.3,291.5
					c-0.6,0-1.3,0-2,0.1c-11.4,1-20,10.4-20,21.9c0,11.5,8.6,20.9,20,21.9c1.2,0.1,2.3,0.1,3.4,0c11.5-0.8,20.6-10.4,20.6-21.9
					s-9-21.2-20.5-21.9C907.3,291.5,906.8,291.5,906.3,291.5z"/>
			</g>
		</g>
		
			<radialGradient id="SVGID_2_" cx="304.6055" cy="4843.1851" r="129.2727" gradientTransform="matrix(0.5538 0 0 4.348000e-02 770.7068 156.3876)" gradientUnits="userSpaceOnUse">
			<stop  offset="0.1034" style="stop-color:#E0E3E2"/>
			<stop  offset="0.2677" style="stop-color:#E9EBEA"/>
			<stop  offset="0.684" style="stop-color:#F9FAFA"/>
			<stop  offset="1" style="stop-color:#FFFFFF"/>
		</radialGradient>
		<ellipse class="st5" cx="939.4" cy="367" rx="101.1" ry="4.7"/>
	</g>
</g>
<g>
	<path class="st1" d="M733.2,182.1c33.4,130-29.2,107.1-85,85c-43.6-17.3-85-38.1-85-85s38.1-85,85-85S721.5,136.7,733.2,182.1z"/>
	<g>
		<path class="st45" d="M592.7,218.2c-1.6-0.9-2.9-2.1-3.8-3.6c-0.9-1.6-1.4-3.3-1.4-5.3c0-1.9,0.5-3.7,1.4-5.3
			c0.9-1.6,2.2-2.8,3.8-3.6c1.6-0.9,3.4-1.3,5.4-1.3c1.6,0,3.1,0.3,4.5,0.9c1.3,0.6,2.5,1.4,3.4,2.5l-2.4,2.2
			c-1.4-1.6-3.2-2.3-5.3-2.3c-1.4,0-2.6,0.3-3.7,0.9c-1.1,0.6-1.9,1.4-2.5,2.5c-0.6,1.1-0.9,2.3-0.9,3.6s0.3,2.5,0.9,3.6
			c0.6,1.1,1.4,1.9,2.5,2.5c1.1,0.6,2.3,0.9,3.7,0.9c2.1,0,3.9-0.8,5.3-2.4l2.4,2.3c-0.9,1.1-2.1,1.9-3.4,2.5
			c-1.4,0.6-2.8,0.9-4.5,0.9C596.1,219.5,594.3,219.1,592.7,218.2z"/>
		<path class="st45" d="M627.3,207.7c1.3,1.1,1.9,2.7,1.9,4.8c0,2.2-0.7,3.9-2.1,5.1c-1.4,1.2-3.4,1.7-5.9,1.7h-8.5v-16.7h-5.8v-3.1
			h9.5v6.7h5.5C624.2,206.1,626,206.6,627.3,207.7z M624.4,215.4c0.8-0.7,1.1-1.6,1.1-2.9c0-2.4-1.5-3.6-4.5-3.6h-4.7v7.5h4.7
			C622.5,216.4,623.6,216.1,624.4,215.4z"/>
		<path class="st45" d="M645.7,210.7c0.7,0.8,1,1.8,1,3c0,1.2-0.4,2.2-1.2,3.1c-0.8,0.9-1.8,1.6-3.1,2c-1.3,0.5-2.7,0.7-4.2,0.7
			c-1.3,0-2.7-0.2-4-0.6c-1.3-0.4-2.6-0.9-3.7-1.7l1.2-2.7c0.9,0.6,1.8,1,2.9,1.3c1.1,0.3,2.1,0.5,3.2,0.5c1.5,0,2.7-0.3,3.7-0.9
			c1-0.6,1.5-1.4,1.5-2.4c0-0.9-0.4-1.5-1.1-2c-0.7-0.5-1.7-0.7-3-0.7h-4.6v-2.9h4.3c1.1,0,2-0.2,2.6-0.7c0.6-0.5,0.9-1.1,0.9-1.8
			c0-0.9-0.4-1.6-1.3-2.2c-0.8-0.5-1.9-0.8-3.2-0.8c-0.9,0-1.8,0.1-2.8,0.4c-0.9,0.3-1.8,0.6-2.7,1.1l-1.2-3c1-0.5,2.1-1,3.3-1.2
			c1.1-0.3,2.3-0.4,3.4-0.4c1.5,0,2.8,0.2,4.1,0.7c1.2,0.5,2.2,1.1,3,1.9c0.7,0.8,1.1,1.8,1.1,3c0,1-0.3,1.8-0.8,2.6
			c-0.5,0.7-1.3,1.3-2.2,1.7C644.1,209.2,645,209.9,645.7,210.7z"/>
		<path class="st45" d="M670.5,216.1v7.4h-3.4v-4.2h-15.2v4.2h-3.4l0-7.4h0.9c1.2-0.1,2.1-1,2.6-2.8c0.5-1.8,0.8-4.3,0.9-7.7
			l0.2-6.3h14.6v16.7H670.5z M655.5,212.4c-0.3,1.7-0.8,2.9-1.5,3.7H664v-13.6h-7.8l-0.1,3.5C656,208.6,655.8,210.7,655.5,212.4z"/>
		<path class="st45" d="M687.3,214.6h-9.9l-2,4.6h-3.8l8.9-19.9h3.6l9,19.9h-3.9L687.3,214.6z M686.1,211.7l-3.7-8.7l-3.7,8.7H686.1
			z"/>
		<path class="st45" d="M696.2,199.4h3.6v14.1l10.7-14.1h3.4v19.9h-3.6v-14.1l-10.7,14.1h-3.4V199.4z M701.2,197
			c-0.9-0.7-1.3-1.7-1.3-3.1h2.6c0,0.7,0.2,1.2,0.7,1.6c0.4,0.4,1.1,0.6,1.9,0.6c0.8,0,1.5-0.2,1.9-0.6c0.5-0.4,0.7-0.9,0.7-1.6h2.6
			c0,1.3-0.5,2.3-1.3,3.1c-0.9,0.7-2.2,1.1-3.8,1.1C703.4,198,702.1,197.7,701.2,197z"/>
		<path class="st45" d="M593.5,237.6h-2.6v6h-2.6v-14.2h2.6v6h2.7l4.1-6h2.8l-4.9,6.9l5,7.3h-3L593.5,237.6z"/>
		<path class="st45" d="M611.6,240.3h-7.1l-1.4,3.3h-2.7l6.4-14.2h2.6l6.4,14.2h-2.8L611.6,240.3z M610.8,238.3l-2.7-6.2l-2.7,6.2
			H610.8z"/>
		<path class="st45" d="M631.1,243.6l0-9.4l-4.7,7.8h-1.2l-4.7-7.7v9.3H618v-14.2h2.2l5.6,9.4l5.6-9.4h2.2l0,14.2H631.1z"/>
		<path class="st45" d="M650.2,229.4v14.2h-2.6v-12h-7.4v12h-2.6v-14.2H650.2z"/>
		<path class="st45" d="M663.6,240.3h-7.1l-1.4,3.3h-2.7l6.4-14.2h2.6l6.4,14.2h-2.8L663.6,240.3z M662.8,238.3l-2.7-6.2l-2.7,6.2
			H662.8z"/>
		<path class="st45" d="M682.7,229.4v14.2H680v-6.1h-7.4v6.1H670v-14.2h2.6v5.9h7.4v-5.9H682.7z"/>
		<path class="st45" d="M686.7,229.4h2.6v10.1l7.6-10.1h2.5v14.2h-2.6v-10.1l-7.6,10.1h-2.5V229.4z"/>
		<path class="st45" d="M714.2,229.4v14.2h-2.6v-4h-3.5h-0.3l-2.6,4h-2.8l3.1-4.4c-1-0.4-1.8-0.9-2.3-1.7c-0.5-0.8-0.8-1.8-0.8-2.9
			c0-1.1,0.2-2,0.7-2.8c0.5-0.8,1.2-1.4,2.1-1.8c0.9-0.4,1.9-0.6,3.2-0.6H714.2z M705.9,232.4c-0.6,0.5-0.9,1.2-0.9,2.2
			c0,0.9,0.3,1.7,0.8,2.2c0.6,0.5,1.4,0.8,2.4,0.8h3.3v-5.9h-3.2C707.3,231.6,706.5,231.9,705.9,232.4z"/>
	</g>
	<g>
		<g>
			<g>
				<path class="st3" d="M643.5,100c2.2,3.8,4.3,9.6,3.7,16.3c-0.6,6.7-4.5,12-9.2,15C642.4,122.5,644,113.1,643.5,100 M640.6,92
					c-0.7,0-1.1,0.6-1,2c1.5,19.6-0.5,30.8-9.4,43.3c9.7,0,19.7-9.1,20.7-20.7C652,103.1,643.6,92,640.6,92L640.6,92z"/>
			</g>
			<g>
				<g>
					<path class="st3" d="M663.9,100.3c1.1,2.1,2.1,4.7,2.8,7.9c1.3,6.1,1.9,18.1-8.3,30.8c-1,1.3-1.1,3.1-0.1,4.4
						c0.7,0.9,1.8,1.5,2.9,1.5c0.5,0,0.9-0.1,1.3-0.3c0.5-0.2,10-4.1,17.3-15.4c-0.2,1.8-0.6,3.8-1.3,6.1c-2.1,7-7.3,16.7-19.8,23.3
						c-1.5,0.8-2.3,2.6-1.8,4.2c0.5,1.5,1.9,2.6,3.5,2.6c0.1,0,0.2,0,0.3,0c0.3,0,5.8-0.6,12.1-3.3c-4.2,4.6-10.9,9.7-19.6,11.4
						c-2.5,0.5-5.2,0.8-7.9,0.8c-12.6,0-23.3-5.6-28.5-15c-2.5-4.6-3.1-9.5-3.6-14.3c-0.7-6.3-1.4-13.2-7.2-18.3
						c1.3-0.8,2.6-1,3.6-1c1.8,0,3.7,0.7,5.1,2c2.3,2.3,2.9,4.7,3.6,7.2c0.8,2.9,1.7,6.5,5.6,8.7c2,1.1,4.4,1.7,7,1.7
						c7.1,0,15.6-4.4,21.2-11C659.5,125.3,663.6,113.2,663.9,100.3 M681.6,157L681.6,157L681.6,157 M661.1,92c-0.7,0-1.1,0.6-1,2.1
						c1.2,16.1-3.8,29.3-10.7,37.7c-4.6,5.5-12.1,9.7-18.4,9.7c-1.9,0-3.7-0.4-5.2-1.2c-5.2-2.9-2.4-9.3-8.5-15.3
						c-2-1.9-4.8-3-7.6-3c-3.3,0-6.7,1.5-9.1,5.1c12.9,7.1,6.1,21,13.2,33.8c6.6,12,19.6,16.9,31.6,16.9c2.9,0,5.8-0.3,8.6-0.8
						c19.5-3.9,30.7-23.5,26.9-23.5c-0.5,0-1.3,0.4-2.4,1.2c-8.1,6.1-18,7.1-18,7.1c26-13.6,25-42,21.2-42c-0.5,0-1.1,0.6-1.7,1.8
						c-6.8,14.9-18.7,19.7-18.7,19.7c9.8-12.1,11-24.5,9-33.8C668.2,98.2,663.2,92,661.1,92L661.1,92z"/>
				</g>
			</g>
		</g>
	</g>
	
		<radialGradient id="SVGID_3_" cx="-224.7841" cy="4430.8262" r="129.2727" gradientTransform="matrix(0.5538 0 0 4.348000e-02 770.7068 -4.9767)" gradientUnits="userSpaceOnUse">
		<stop  offset="0.1034" style="stop-color:#E0E3E2"/>
		<stop  offset="0.2677" style="stop-color:#E9EBEA"/>
		<stop  offset="0.684" style="stop-color:#F9FAFA"/>
		<stop  offset="1" style="stop-color:#FFFFFF"/>
	</radialGradient>
	<ellipse class="st6" cx="646.2" cy="187.7" rx="101.1" ry="4.7"/>
</g>
<g>
	<ellipse class="st1" cx="815.3" cy="603" rx="89.5" ry="110.2"/>
	<g>
		<g>
			<path class="st45" d="M716.6,643.4c-1.2-0.6-2.1-1.5-2.7-2.6c-0.7-1.1-1-2.4-1-3.8c0-1.4,0.3-2.7,1-3.8c0.7-1.1,1.6-2,2.7-2.6
				s2.5-0.9,3.9-0.9c1.2,0,2.2,0.2,3.2,0.6c1,0.4,1.8,1,2.4,1.8l-1.7,1.6c-1-1.1-2.3-1.7-3.8-1.7c-1,0-1.9,0.2-2.6,0.6
				c-0.8,0.4-1.4,1-1.8,1.8c-0.4,0.8-0.7,1.6-0.7,2.6s0.2,1.8,0.7,2.6c0.4,0.8,1,1.4,1.8,1.8c0.8,0.4,1.6,0.6,2.6,0.6
				c1.5,0,2.8-0.6,3.8-1.7l1.7,1.6c-0.7,0.8-1.5,1.4-2.5,1.8c-1,0.4-2,0.6-3.2,0.6C719.1,644.4,717.8,644.1,716.6,643.4z"/>
			<path class="st45" d="M742.7,635.9c0.9,0.8,1.4,1.9,1.4,3.4c0,1.6-0.5,2.8-1.5,3.6c-1,0.8-2.4,1.2-4.3,1.2h-6.1v-12H728v-2.2h6.8
				v4.8h3.9C740.4,634.8,741.7,635.1,742.7,635.9z M740.5,641.4c0.5-0.5,0.8-1.2,0.8-2.1c0-1.7-1.1-2.6-3.2-2.6h-3.4v5.4h3.4
				C739.2,642.1,740,641.9,740.5,641.4z"/>
			<path class="st45" d="M748,629.9H759v2.2h-8.5v3.5h4.2c1.7,0,3,0.4,3.9,1.1c0.9,0.7,1.3,1.7,1.3,3.1c0,1.4-0.5,2.5-1.5,3.3
				c-1,0.8-2.4,1.1-4.2,1.1H748V629.9z M754.2,642.1c1,0,1.8-0.2,2.3-0.6c0.5-0.4,0.8-1,0.8-1.7c0-1.5-1-2.2-3.1-2.2h-3.7v4.5H754.2
				z"/>
			<path class="st45" d="M764.1,629.9h2.6V640l7.6-10.1h2.5v14.2h-2.6v-10.1l-7.6,10.1h-2.5V629.9z"/>
			<path class="st45" d="M791.1,630.5c0.9,0.4,1.6,1,2.1,1.7c0.5,0.8,0.7,1.7,0.7,2.7c0,1-0.2,1.9-0.7,2.7c-0.5,0.8-1.2,1.4-2.1,1.8
				s-2,0.6-3.2,0.6h-3.2v4.1H782v-14.2h5.9C789.1,629.9,790.2,630.1,791.1,630.5z M790.4,637.1c0.6-0.5,0.9-1.2,0.9-2.1
				c0-0.9-0.3-1.6-0.9-2.1c-0.6-0.5-1.5-0.7-2.6-0.7h-3.1v5.7h3.1C788.9,637.8,789.8,637.6,790.4,637.1z"/>
			<path class="st45" d="M810.3,629.9v14.2h-2.6v-6.1h-7.4v6.1h-2.6v-14.2h2.6v5.9h7.4v-5.9H810.3z"/>
			<path class="st45" d="M826.2,642v2.2h-10.7v-14.2h10.4v2.2h-7.7v3.7h6.9v2.2h-6.9v3.9H826.2z"/>
			<path class="st45" d="M849.9,629.9v14.2h-2.6v-6.1h-7.4v6.1h-2.6v-14.2h2.6v5.9h7.4v-5.9H849.9z"/>
			<path class="st45" d="M864.5,640.9h-7.1l-1.4,3.3h-2.7l6.4-14.2h2.6l6.4,14.2h-2.8L864.5,640.9z M863.6,638.8l-2.7-6.2l-2.7,6.2
				H863.6z"/>
			<path class="st45" d="M718.5,670.8c-1.6-0.9-2.9-2.1-3.8-3.6c-0.9-1.6-1.4-3.3-1.4-5.3c0-1.9,0.5-3.7,1.4-5.3
				c0.9-1.6,2.2-2.8,3.8-3.6c1.6-0.9,3.4-1.3,5.4-1.3c1.6,0,3.1,0.3,4.5,0.9c1.3,0.6,2.5,1.4,3.4,2.5l-2.4,2.2
				c-1.4-1.6-3.2-2.3-5.3-2.3c-1.4,0-2.6,0.3-3.7,0.9c-1.1,0.6-1.9,1.4-2.5,2.5c-0.6,1.1-0.9,2.3-0.9,3.6c0,1.3,0.3,2.5,0.9,3.6
				c0.6,1.1,1.4,1.9,2.5,2.5c1.1,0.6,2.3,0.9,3.7,0.9c2.1,0,3.9-0.8,5.3-2.4l2.4,2.3c-0.9,1.1-2.1,1.9-3.4,2.5
				c-1.4,0.6-2.8,0.9-4.5,0.9C721.9,672.1,720.1,671.7,718.5,670.8z"/>
			<path class="st45" d="M747.9,652.8c1.3,0.6,2.3,1.4,2.9,2.4c0.7,1.1,1,2.3,1,3.8c0,1.4-0.3,2.7-1,3.8c-0.7,1.1-1.7,1.9-2.9,2.5
				c-1.3,0.6-2.8,0.9-4.5,0.9h-4.5v5.7h-3.7V652h8.2C745.1,652,746.6,652.2,747.9,652.8z M746.9,661.9c0.8-0.7,1.2-1.7,1.2-2.9
				s-0.4-2.2-1.2-2.9c-0.8-0.7-2.1-1-3.7-1h-4.3v7.9h4.3C744.9,663,746.1,662.6,746.9,661.9z"/>
			<path class="st45" d="M770.3,668.7v3.1h-14.9V652h14.5v3.1h-10.8v5.2h9.6v3h-9.6v5.5H770.3z"/>
			<path class="st45" d="M794.1,668.7v7.4h-3.4v-4.2h-15.2v4.2H772l0-7.4h0.9c1.2-0.1,2.1-1,2.6-2.8c0.5-1.8,0.8-4.3,0.9-7.7
				l0.2-6.3h14.6v16.7H794.1z M779,665c-0.3,1.7-0.8,2.9-1.5,3.7h10.1v-13.6h-7.8l-0.1,3.5C779.6,661.2,779.4,663.3,779,665z"/>
			<path class="st45" d="M801.3,670.8c-1.6-0.9-2.9-2.1-3.8-3.6c-0.9-1.6-1.4-3.3-1.4-5.3c0-1.9,0.5-3.7,1.4-5.3
				c0.9-1.6,2.2-2.8,3.8-3.6c1.6-0.9,3.4-1.3,5.4-1.3c1.6,0,3.1,0.3,4.5,0.9c1.3,0.6,2.5,1.4,3.4,2.5l-2.4,2.2
				c-1.4-1.6-3.2-2.3-5.3-2.3c-1.4,0-2.6,0.3-3.7,0.9c-1.1,0.6-1.9,1.4-2.5,2.5c-0.6,1.1-0.9,2.3-0.9,3.6c0,1.3,0.3,2.5,0.9,3.6
				c0.6,1.1,1.4,1.9,2.5,2.5c1.1,0.6,2.3,0.9,3.7,0.9c2.1,0,3.9-0.8,5.3-2.4l2.4,2.3c-0.9,1.1-2.1,1.9-3.4,2.5
				c-1.4,0.6-2.8,0.9-4.5,0.9C804.7,672.1,802.9,671.7,801.3,670.8z"/>
			<path class="st45" d="M832.2,655.1h-6.6v16.7H822v-16.7h-6.6V652h16.8V655.1z"/>
			<path class="st45" d="M851.4,663.2c0.7,0.8,1,1.9,1,3.1c0,1.7-0.6,3.1-1.9,4.1c-1.3,1-3.2,1.4-5.6,1.4h-9.4V652h8.9
				c2.2,0,4,0.4,5.2,1.3c1.2,0.9,1.9,2.1,1.9,3.8c0,1-0.3,1.9-0.8,2.7c-0.5,0.8-1.2,1.3-2.2,1.7
				C849.8,661.8,850.7,662.4,851.4,663.2z M839.1,660.4h4.9c1.2,0,2.1-0.2,2.7-0.7c0.6-0.5,0.9-1.2,0.9-2.1c0-0.9-0.3-1.6-0.9-2.1
				c-0.6-0.5-1.5-0.7-2.7-0.7h-4.9V660.4z M848.7,666c0-1.9-1.3-2.9-3.9-2.9h-5.7v5.8h5.7C847.3,669,848.7,668,848.7,666z"/>
			<path class="st45" d="M869.7,667.2h-9.9l-2,4.6H854L863,652h3.6l9,19.9h-3.9L869.7,667.2z M868.5,664.3l-3.7-8.7l-3.7,8.7H868.5z
				"/>
			<path class="st45" d="M716.6,695.5c-1.2-0.6-2.1-1.5-2.7-2.6c-0.7-1.1-1-2.4-1-3.8s0.3-2.6,1-3.8c0.7-1.1,1.6-2,2.7-2.6
				c1.2-0.6,2.5-0.9,3.9-0.9c1.5,0,2.8,0.3,3.9,0.9c1.2,0.6,2.1,1.5,2.7,2.6c0.7,1.1,1,2.4,1,3.8s-0.3,2.7-1,3.8
				c-0.7,1.1-1.6,2-2.7,2.6c-1.2,0.6-2.5,0.9-3.9,0.9C719.1,696.4,717.8,696.1,716.6,695.5z M723.1,693.5c0.8-0.4,1.4-1,1.8-1.8
				c0.4-0.8,0.7-1.6,0.7-2.6s-0.2-1.8-0.7-2.6c-0.4-0.8-1-1.4-1.8-1.8c-0.8-0.4-1.6-0.6-2.6-0.6c-0.9,0-1.8,0.2-2.6,0.6
				c-0.8,0.4-1.4,1-1.8,1.8c-0.4,0.8-0.7,1.6-0.7,2.6s0.2,1.8,0.7,2.6c0.4,0.8,1,1.4,1.8,1.8c0.8,0.4,1.6,0.6,2.6,0.6
				C721.5,694.1,722.4,693.9,723.1,693.5z"/>
			<path class="st45" d="M741.7,684.2H737v12h-2.6v-12h-4.7V682h12V684.2z"/>
			<path class="st45" d="M764.5,694v5.3h-2.4v-3h-10.9v3h-2.5l0-5.3h0.6c0.9,0,1.5-0.7,1.9-2c0.4-1.3,0.6-3.1,0.7-5.5l0.2-4.5h10.4
				v12H764.5z M753.7,691.4c-0.2,1.2-0.6,2.1-1.1,2.6h7.2v-9.8h-5.6l-0.1,2.5C754.1,688.6,754,690.1,753.7,691.4z"/>
			<path class="st45" d="M777,692.9h-7.1l-1.4,3.3h-2.7l6.4-14.2h2.6l6.4,14.2h-2.8L777,692.9z M776.1,690.9l-2.7-6.2l-2.7,6.2
				H776.1z"/>
			<path class="st45" d="M792.8,682.6c0.9,0.4,1.6,1,2.1,1.7c0.5,0.8,0.7,1.7,0.7,2.7c0,1-0.2,1.9-0.7,2.7c-0.5,0.8-1.2,1.4-2.1,1.8
				c-0.9,0.4-2,0.6-3.2,0.6h-3.2v4.1h-2.6V682h5.9C790.8,682,791.9,682.2,792.8,682.6z M792.1,689.2c0.6-0.5,0.9-1.2,0.9-2.1
				c0-0.9-0.3-1.6-0.9-2.1c-0.6-0.5-1.5-0.7-2.6-0.7h-3.1v5.7h3.1C790.6,689.9,791.5,689.6,792.1,689.2z"/>
			<path class="st45" d="M798.6,682h2.6v10.1l7.6-10.1h2.5v14.2h-2.6v-10.1l-7.6,10.1h-2.5V682z"/>
			<path class="st45" d="M826,684.2h-4.7v12h-2.6v-12H814V682h12V684.2z"/>
			<path class="st45" d="M839.4,694v2.2h-10.7V682h10.4v2.2h-7.7v3.7h6.9v2.2h-6.9v3.9H839.4z"/>
			<path class="st45" d="M854.9,682v14.2h-2.6v-12h-5.6l-0.1,3.6c-0.1,2-0.2,3.6-0.5,4.9c-0.3,1.2-0.7,2.2-1.2,2.8
				c-0.6,0.6-1.4,1-2.4,1c-0.4,0-0.8-0.1-1.4-0.2l0.2-2.3c0.2,0.1,0.4,0.1,0.6,0.1c0.8,0,1.4-0.5,1.8-1.5c0.3-1,0.6-2.5,0.6-4.6
				l0.2-5.9H854.9z"/>
			<path class="st45" d="M859.3,682h2.6v10.1l7.6-10.1h2.5v14.2h-2.6v-10.1l-7.6,10.1h-2.5V682z"/>
		</g>
	</g>
	<g>
		<path class="st3" d="M790.9,567.8c4.8-3.2,8-8.6,8-14.8c0-9.8-8-17.8-17.8-17.8c-9.8,0-17.8,8-17.8,17.8c0,6.2,3.2,11.6,8,14.8
			c-10.9,4-18.6,14.4-18.6,26.7h4.7c0-13.1,10.6-23.7,23.7-23.7c13.1,0,23.7,10.6,23.7,23.7h4.7
			C809.6,582.2,801.8,571.8,790.9,567.8z M781.1,566c-7.2,0-13-5.8-13-13c0-7.2,5.8-13,13-13s13,5.8,13,13
			C794.2,560.1,788.3,566,781.1,566z"/>
		<path class="st3" d="M814.6,555.9c4.8-3.2,8-8.6,8-14.8c0-9.8-8-17.8-17.8-17.8c-4.7,0-9.1,1.9-12.3,4.9c-1.2,1.1-2.2,2.4-3,3.8
			c1.5,0.6,2.9,1.3,4.2,2.2c0.8-1.4,1.9-2.6,3.2-3.5c2.2-1.7,4.9-2.7,7.9-2.7c7.2,0,13,5.8,13,13c0,6-4,11-9.5,12.5
			c-1.1,0.3-2.3,0.5-3.5,0.5c-0.4,0-0.8,0-1.2-0.1c-0.1,1.7-0.4,3.4-0.8,4.9c0.7-0.1,1.3-0.1,2-0.1c1,0,1.9,0.1,2.8,0.2
			c11.7,1.4,20.9,11.4,20.9,23.5h4.7C833.3,570.4,825.5,559.9,814.6,555.9z"/>
		<path class="st3" d="M757.4,558.9c0.7,0,1.4,0.1,2,0.1c-0.4-1.6-0.7-3.2-0.8-4.9c-0.4,0-0.8,0.1-1.2,0.1c-1.2,0-2.4-0.2-3.5-0.5
			c-5.5-1.5-9.5-6.6-9.5-12.5c0-7.2,5.8-13,13-13c3,0,5.7,1,7.9,2.7c1.3,1,2.3,2.2,3.2,3.5c1.3-0.9,2.7-1.6,4.2-2.2
			c-0.8-1.4-1.9-2.7-3-3.8c-3.2-3-7.5-4.9-12.3-4.9c-9.8,0-17.8,8-17.8,17.8c0,6.2,3.2,11.6,8,14.8c-10.9,4-18.6,14.4-18.6,26.7h4.7
			c0-12.1,9.1-22.1,20.9-23.5C755.5,559,756.5,558.9,757.4,558.9z"/>
		<path class="st3" d="M831.2,539.3c4.8-3.2,8-8.6,8-14.8c0-9.8-8-17.8-17.8-17.8c-4.7,0-9.1,1.9-12.3,4.9c-1.2,1.1-2.2,2.4-3,3.8
			c1.5,0.6,2.9,1.3,4.2,2.2c0.8-1.4,1.9-2.6,3.2-3.5c2.2-1.7,4.9-2.7,7.9-2.7c7.2,0,13,5.8,13,13c0,5.3-3.1,9.8-7.6,11.8
			c0.2,1.1,0.3,2.3,0.3,3.5c0,1.1-0.1,2.1-0.3,3.2c10.4,2.5,18.2,11.8,18.2,23h4.7C849.9,553.8,842.1,543.3,831.2,539.3z"/>
		<path class="st3" d="M735.1,539.8c0-1.2,0.1-2.3,0.3-3.5c-4.5-2.1-7.6-6.6-7.6-11.8c0-7.2,5.8-13,13-13c3,0,5.7,1,7.9,2.7
			c1.3,1,2.3,2.2,3.2,3.5c1.3-0.9,2.7-1.6,4.2-2.2c-0.8-1.4-1.9-2.7-3-3.8c-3.2-3-7.5-4.9-12.3-4.9c-9.8,0-17.8,8-17.8,17.8
			c0,6.2,3.2,11.6,8,14.8c-10.9,4-18.6,14.4-18.6,26.7h4.7c0-11.2,7.8-20.6,18.2-23C735.2,541.9,735.1,540.9,735.1,539.8z"/>
		<path class="st3" d="M781.1,511.5c6.3,0,11.6,4.6,12.7,10.6c2.6-1.6,4.5-1.9,4.5-1.9c-2-7.7-8.9-13.4-17.2-13.4
			c-8.3,0-15.3,5.7-17.2,13.4c0,0,1.9,0.4,4.5,1.9C769.5,516,774.8,511.5,781.1,511.5z"/>
	</g>
	
		<radialGradient id="SVGID_4_" cx="335.2531" cy="2971.4431" r="129.2727" gradientTransform="matrix(0.6388 0 0 6.044964e-02 571.4364 430.3299)" gradientUnits="userSpaceOnUse">
		<stop  offset="0.1034" style="stop-color:#E0E3E2"/>
		<stop  offset="0.2677" style="stop-color:#E9EBEA"/>
		<stop  offset="0.684" style="stop-color:#F9FAFA"/>
		<stop  offset="1" style="stop-color:#FFFFFF"/>
	</radialGradient>
	<ellipse class="st7" cx="785.6" cy="610" rx="116.6" ry="6.6"/>
</g>
<g>
	<g>
		<path class="st45" d="M35.7,292.1h2.7v10.4l7.8-10.4h2.5v14.6H46v-10.3l-7.8,10.3h-2.5V292.1z"/>
		<path class="st45" d="M63.4,306.7v-7.4l-3.8,6.2h-1.1l-3.7-6.2v7.4h-2.4v-11.1h2.7l4,7l4.2-7h2.4l0,11.1H63.4z"/>
		<path class="st45" d="M77.2,296.6c0.9,0.8,1.3,2,1.3,3.6v6.5h-2.5v-1.4c-0.3,0.5-0.8,0.9-1.4,1.1c-0.6,0.3-1.3,0.4-2.1,0.4
			c-0.8,0-1.6-0.1-2.2-0.4c-0.6-0.3-1.1-0.7-1.5-1.2c-0.3-0.5-0.5-1.1-0.5-1.7c0-1,0.4-1.8,1.1-2.4c0.7-0.6,1.9-0.9,3.5-0.9h2.9V300
			c0-0.8-0.2-1.4-0.7-1.8c-0.5-0.4-1.2-0.6-2.1-0.6c-0.6,0-1.2,0.1-1.8,0.3c-0.6,0.2-1.1,0.5-1.5,0.8l-1-1.9c0.6-0.4,1.3-0.8,2.1-1
			c0.8-0.2,1.7-0.4,2.6-0.4C75.1,295.4,76.4,295.8,77.2,296.6z M74.8,304.5c0.5-0.3,0.9-0.7,1.1-1.3v-1.3h-2.7
			c-1.5,0-2.3,0.5-2.3,1.5c0,0.5,0.2,0.8,0.6,1.1c0.4,0.3,0.9,0.4,1.6,0.4C73.8,305,74.3,304.8,74.8,304.5z"/>
		<path class="st45" d="M98.2,295.6v11.1H81.8v-11.1h2.6v8.9h4.3v-8.9h2.6v8.9h4.3v-8.9H98.2z"/>
		<path class="st45" d="M108.6,288h4.4v12.3l10.3-12.3h4v18.7H123v-12.3l-10.3,12.3h-4V288z"/>
		<path class="st45" d="M153.2,303v7.9h-4.1v-4.2h-14.4v4.2h-4.1V303h0.9c1.2,0,2-0.8,2.4-2.3c0.4-1.5,0.7-3.6,0.9-6.3l0.2-6.4h15.4
			v15H153.2z M138.3,300c-0.3,1.4-0.7,2.4-1.4,3h9.2v-11.3h-7.2l-0.1,3C138.7,296.9,138.5,298.6,138.3,300z"/>
		<path class="st45" d="M174.6,298.7h-14.7c0.3,1.4,0.9,2.5,2,3.3c1.1,0.8,2.4,1.2,4.1,1.2c2.1,0,3.8-0.7,5.1-2l2.3,2.7
			c-0.8,1-1.9,1.8-3.2,2.3c-1.3,0.5-2.7,0.8-4.3,0.8c-2.1,0-3.9-0.4-5.4-1.2c-1.6-0.8-2.8-2-3.6-3.4c-0.9-1.5-1.3-3.1-1.3-5
			c0-1.8,0.4-3.5,1.2-4.9c0.8-1.5,2-2.6,3.5-3.4c1.5-0.8,3.1-1.2,5-1.2c1.8,0,3.5,0.4,4.9,1.2c1.4,0.8,2.6,1.9,3.4,3.4
			c0.8,1.5,1.2,3.2,1.2,5.1C174.7,297.8,174.7,298.2,174.6,298.7z M161.7,292.5c-1,0.8-1.6,1.9-1.8,3.3h10.6
			c-0.2-1.4-0.8-2.5-1.7-3.3c-1-0.8-2.2-1.3-3.6-1.3C163.8,291.3,162.6,291.7,161.7,292.5z"/>
		<path class="st45" d="M194.8,288v18.7h-3.9v-5.6h-4.9l-3.8,5.6h-4.7l4.4-6.2c-1.4-0.5-2.4-1.2-3.1-2.2c-0.7-1-1.1-2.2-1.1-3.6
			c0-2.2,0.8-3.8,2.3-5c1.5-1.2,3.6-1.8,6.3-1.8H194.8z M182.1,294.9c0,2.1,1.4,3.2,4.1,3.2h4.7v-6.3h-4.5
			C183.5,291.7,182.1,292.7,182.1,294.9z"/>
	</g>
	<g>
		<path class="st3" d="M121,237.7h-19.5c-2.3,0-4.1,1.8-4.1,4.1c0,2.3,1.8,4.1,4.1,4.1H121c2.3,0,4.1-1.8,4.1-4.1
			C125.1,239.6,123.2,237.7,121,237.7z M122.3,241.8c0,0.7-0.6,1.3-1.3,1.3h-19.5c-0.7,0-1.3-0.6-1.3-1.3c0-0.7,0.6-1.3,1.3-1.3H121
			C121.7,240.5,122.3,241.1,122.3,241.8z"/>
		<path class="st3" d="M98.8,247.8c0,3.7,2.7,6.9,6.3,7.6c0.9,2.7,3.3,4.5,6.1,4.5c2.8,0,5.3-1.8,6.2-4.5c3.6-0.7,6.3-3.9,6.3-7.6
			v-1.4H98.8V247.8z M106.9,252.7l-0.6,0c-2.1-0.1-3.9-1.6-4.5-3.6h18.9c-0.6,2-2.4,3.4-4.5,3.6l-0.6,0L106.9,252.7z M114.2,255.5
			c-0.7,1-1.8,1.5-3,1.5c-1.2,0-2.3-0.6-3-1.5H114.2z"/>
		<path class="st3" d="M111.2,170.7c-15.3,0-27.7,12.4-27.7,27.7c0,6.3,2.1,12.2,5.9,17.1c3,3.7,5.8,7.9,8.3,12v9.8h26.9v-9.5
			c2.6-4.3,5.7-8.9,8.4-12.3c3.9-4.9,5.9-10.8,5.9-17.1C138.9,183.1,126.5,170.7,111.2,170.7z M107.8,211.5l1.9,7.1l3.2-7.8l1.6,4.5
			l3.5-1.6l-4.5,20.8h-4.3l-4.6-20.8L107.8,211.5z M122,226.6l-0.2,0.3v7.5h-5.6l5.9-27.6l-2.7-0.6l-1,4.6l-2.7,1.2l-2.7-7.8l-2.9,7
			l-0.9-3.6l-5.2,3.4l-1.1-5l-2.9,0.6l6,27.6h-5.6v-7.7l-0.2-0.3c-2.6-4.3-5.5-8.7-8.7-12.7c-3.5-4.4-5.3-9.7-5.3-15.4
			c0-13.8,11.2-24.9,24.9-24.9c13.8,0,24.9,11.2,24.9,24.9c0,5.6-1.8,11-5.3,15.4h0C128,217.3,124.7,222.1,122,226.6z"/>
		<path class="st3" d="M112.2,166.1c0.7,0,1.3-0.6,1.3-1.3v-12.1c0-0.7-0.6-1.3-1.3-1.3c-0.7,0-1.3,0.6-1.3,1.3v12.1
			C111,165.6,111.5,166.1,112.2,166.1z"/>
		<path class="st3" d="M130.1,170.5c0.2,0.1,0.4,0.2,0.7,0.2c0.4,0,0.9-0.2,1.1-0.6l6.2-10.3c0.4-0.6,0.2-1.4-0.4-1.7
			c-0.3-0.2-0.6-0.2-1-0.1c-0.3,0.1-0.6,0.3-0.8,0.6l-6.2,10.3c-0.2,0.3-0.2,0.6-0.1,1C129.6,170,129.8,170.3,130.1,170.5z"/>
		<path class="st3" d="M142.2,185.2c0.2,0,0.4,0,0.6-0.1l10.7-5.6c0.6-0.3,0.9-1.1,0.5-1.7c-0.3-0.6-1.1-0.9-1.7-0.5l-10.7,5.6
			c-0.6,0.3-0.9,1.1-0.5,1.7C141.3,184.9,141.7,185.2,142.2,185.2z"/>
		<path class="st3" d="M158.7,200.3c-0.2-0.3-0.5-0.4-0.9-0.4l-12-0.8c-0.7,0-1.3,0.5-1.3,1.2c0,0.7,0.5,1.3,1.2,1.3l12,0.8l0.1,0
			c0.7,0,1.2-0.5,1.3-1.2C159,200.9,158.9,200.5,158.7,200.3z"/>
		<path class="st3" d="M150.8,224.4l-9.9-6.9c-0.3-0.2-0.6-0.3-1-0.2c-0.3,0.1-0.6,0.2-0.8,0.5c-0.4,0.6-0.3,1.4,0.3,1.8l9.9,6.9
			c0.2,0.1,0.5,0.2,0.7,0.2c0.4,0,0.8-0.2,1-0.5c0.2-0.3,0.3-0.6,0.2-0.9C151.2,224.8,151,224.6,150.8,224.4z"/>
		<path class="st3" d="M90.9,170c0.2,0.4,0.6,0.6,1.1,0.6c0.2,0,0.5-0.1,0.7-0.2c0.6-0.4,0.8-1.1,0.4-1.7l-6.2-10.3
			c-0.2-0.3-0.5-0.5-0.8-0.6c-0.3-0.1-0.7,0-1,0.1c-0.6,0.4-0.8,1.1-0.4,1.7L90.9,170z"/>
		<path class="st3" d="M69.3,179.5l10.7,5.6c0.2,0.1,0.4,0.1,0.6,0.1c0.5,0,0.9-0.3,1.1-0.7c0.3-0.6,0.1-1.4-0.5-1.7l-10.7-5.6
			c-0.6-0.3-1.4-0.1-1.7,0.5C68.4,178.4,68.6,179.2,69.3,179.5z"/>
		<path class="st3" d="M78.3,200.3c0-0.7-0.7-1.2-1.3-1.2l-12,0.8c-0.3,0-0.6,0.2-0.9,0.4c-0.2,0.3-0.3,0.6-0.3,0.9
			c0,0.7,0.6,1.2,1.3,1.2l12.1-0.8C77.8,201.6,78.4,201,78.3,200.3z"/>
		<path class="st3" d="M82.8,217.3c-0.3-0.1-0.7,0-0.9,0.2l-9.9,6.9c-0.6,0.4-0.7,1.2-0.3,1.8c0.2,0.3,0.6,0.5,1,0.5
			c0.3,0,0.5-0.1,0.7-0.2l9.9-6.9c0.6-0.4,0.7-1.2,0.3-1.8C83.4,217.5,83.2,217.3,82.8,217.3z"/>
	</g>
	<g>
		<path class="st45" d="M46.9,324c0.5,0.6,0.7,1.3,0.7,2.2c0,1.2-0.5,2.2-1.4,2.9c-0.9,0.7-2.3,1-4,1h-6.8v-14.2h6.4
			c1.6,0,2.8,0.3,3.7,1c0.9,0.6,1.3,1.5,1.3,2.7c0,0.7-0.2,1.4-0.5,1.9c-0.4,0.5-0.9,1-1.6,1.2C45.7,323,46.4,323.4,46.9,324z
			 M38.1,322h3.5c0.9,0,1.5-0.2,2-0.5c0.4-0.3,0.7-0.8,0.7-1.5s-0.2-1.2-0.7-1.5c-0.4-0.3-1.1-0.5-2-0.5h-3.5V322z M45,326
			c0-1.4-0.9-2.1-2.8-2.1h-4.1v4.2h4.1C44,328.1,45,327.4,45,326z"/>
		<path class="st45" d="M68.9,315.9v14.2h-2.6v-12h-7.4v12h-2.6v-14.2H68.9z"/>
		<path class="st45" d="M75.5,329.4c-1.2-0.6-2.1-1.5-2.7-2.6c-0.7-1.1-1-2.4-1-3.8c0-1.4,0.3-2.6,1-3.8c0.7-1.1,1.6-2,2.7-2.6
			c1.2-0.6,2.5-0.9,3.9-0.9c1.5,0,2.8,0.3,3.9,0.9c1.2,0.6,2.1,1.5,2.7,2.6c0.7,1.1,1,2.4,1,3.8c0,1.4-0.3,2.7-1,3.8
			c-0.7,1.1-1.6,2-2.7,2.6c-1.2,0.6-2.5,0.9-3.9,0.9C78,330.3,76.7,330,75.5,329.4z M82,327.4c0.8-0.4,1.4-1,1.8-1.8
			c0.4-0.8,0.7-1.6,0.7-2.6c0-0.9-0.2-1.8-0.7-2.6c-0.4-0.8-1-1.4-1.8-1.8c-0.8-0.4-1.6-0.6-2.6-0.6c-0.9,0-1.8,0.2-2.6,0.6
			c-0.8,0.4-1.4,1-1.8,1.8c-0.4,0.8-0.7,1.6-0.7,2.6c0,0.9,0.2,1.8,0.7,2.6c0.4,0.8,1,1.4,1.8,1.8c0.8,0.4,1.6,0.6,2.6,0.6
			C80.4,328,81.3,327.8,82,327.4z"/>
		<path class="st45" d="M101.8,315.9v14.2h-2.6v-12h-5.6l-0.1,3.6c-0.1,2-0.2,3.6-0.5,4.9c-0.3,1.2-0.7,2.2-1.2,2.8
			c-0.6,0.6-1.4,1-2.4,1c-0.4,0-0.8-0.1-1.4-0.2l0.2-2.3c0.2,0.1,0.4,0.1,0.6,0.1c0.8,0,1.4-0.5,1.8-1.5c0.3-1,0.6-2.5,0.6-4.6
			l0.2-5.9H101.8z"/>
		<path class="st45" d="M115.3,324c0.5,0.6,0.7,1.3,0.7,2.1c0,0.9-0.3,1.6-0.8,2.2c-0.6,0.6-1.3,1.1-2.2,1.5c-0.9,0.3-1.9,0.5-3,0.5
			c-0.9,0-1.9-0.1-2.9-0.4c-1-0.3-1.8-0.7-2.7-1.2l0.9-1.9c0.6,0.4,1.3,0.7,2.1,1c0.8,0.2,1.5,0.3,2.3,0.3c1.1,0,2-0.2,2.7-0.6
			c0.7-0.4,1.1-1,1.1-1.7c0-0.6-0.3-1.1-0.8-1.4c-0.5-0.3-1.2-0.5-2.1-0.5h-3.3v-2.1h3.1c0.8,0,1.4-0.2,1.9-0.5
			c0.4-0.3,0.7-0.8,0.7-1.3c0-0.7-0.3-1.2-0.9-1.5c-0.6-0.4-1.4-0.5-2.3-0.5c-0.6,0-1.3,0.1-2,0.3s-1.3,0.5-1.9,0.8l-0.8-2.1
			c0.7-0.4,1.5-0.7,2.3-0.9c0.8-0.2,1.6-0.3,2.5-0.3c1.1,0,2,0.2,2.9,0.5s1.6,0.8,2.1,1.4c0.5,0.6,0.8,1.3,0.8,2.1
			c0,0.7-0.2,1.3-0.6,1.9c-0.4,0.5-0.9,0.9-1.6,1.2C114.2,323,114.8,323.4,115.3,324z"/>
		<path class="st45" d="M128.5,326.8h-7.1l-1.4,3.3h-2.7l6.4-14.2h2.6l6.4,14.2h-2.8L128.5,326.8z M127.6,324.7l-2.7-6.2l-2.7,6.2
			H127.6z"/>
		<path class="st45" d="M153.1,315.9v14.2h-2.6V324h-7.4v6.1h-2.6v-14.2h2.6v5.9h7.4v-5.9H153.1z"/>
		<path class="st45" d="M166.5,326.8h-7.1l-1.4,3.3h-2.7l6.4-14.2h2.6l6.4,14.2h-2.8L166.5,326.8z M165.6,324.7l-2.7-6.2l-2.7,6.2
			H165.6z"/>
		<path class="st45" d="M38.1,354.8c-1.2-0.6-2.1-1.5-2.7-2.6c-0.7-1.1-1-2.4-1-3.8c0-1.4,0.3-2.6,1-3.8c0.7-1.1,1.6-2,2.7-2.6
			c1.2-0.6,2.5-0.9,3.9-0.9c1.5,0,2.8,0.3,3.9,0.9c1.2,0.6,2.1,1.5,2.7,2.6c0.7,1.1,1,2.4,1,3.8s-0.3,2.7-1,3.8
			c-0.7,1.1-1.6,2-2.7,2.6c-1.2,0.6-2.5,0.9-3.9,0.9C40.6,355.8,39.3,355.5,38.1,354.8z M44.6,352.8c0.8-0.4,1.4-1,1.8-1.8
			c0.4-0.8,0.7-1.6,0.7-2.6c0-0.9-0.2-1.8-0.7-2.6c-0.4-0.8-1-1.4-1.8-1.8c-0.8-0.4-1.6-0.6-2.6-0.6c-0.9,0-1.8,0.2-2.6,0.6
			c-0.8,0.4-1.4,1-1.8,1.8c-0.4,0.8-0.7,1.6-0.7,2.6c0,0.9,0.2,1.8,0.7,2.6c0.4,0.8,1,1.4,1.8,1.8c0.8,0.4,1.6,0.6,2.6,0.6
			C43,353.5,43.9,353.3,44.6,352.8z"/>
		<path class="st45" d="M52.7,341.4h11.1v2.2h-8.5v3.5h4.2c1.7,0,3,0.4,3.9,1.1c0.9,0.7,1.3,1.7,1.3,3.1c0,1.4-0.5,2.5-1.5,3.3
			c-1,0.8-2.4,1.1-4.2,1.1h-6.4V341.4z M58.9,353.6c1,0,1.8-0.2,2.3-0.6c0.5-0.4,0.8-1,0.8-1.7c0-1.5-1-2.2-3.1-2.2h-3.7v4.5H58.9z"
			/>
		<path class="st45" d="M85.9,341.4v14.2H67.6v-14.2h2.6v12h5.2v-12h2.6v12h5.2v-12H85.9z M88,353.4v5.3h-2.4v-3h-2.3v-2.2H88z"/>
		<path class="st45" d="M101.2,353.4v2.2H90.5v-14.2h10.4v2.2h-7.7v3.7h6.9v2.2h-6.9v3.9H101.2z"/>
		<path class="st45" d="M106.7,354.8c-1.2-0.6-2.1-1.5-2.7-2.6c-0.7-1.1-1-2.4-1-3.8s0.3-2.7,1-3.8c0.7-1.1,1.6-2,2.7-2.6
			c1.2-0.6,2.5-0.9,3.9-0.9c1.2,0,2.2,0.2,3.2,0.6c1,0.4,1.8,1,2.4,1.8l-1.7,1.6c-1-1.1-2.3-1.7-3.8-1.7c-1,0-1.9,0.2-2.6,0.6
			c-0.8,0.4-1.4,1-1.8,1.8c-0.4,0.8-0.7,1.6-0.7,2.6c0,1,0.2,1.8,0.7,2.6c0.4,0.8,1,1.4,1.8,1.8c0.8,0.4,1.6,0.6,2.6,0.6
			c1.5,0,2.8-0.6,3.8-1.7l1.7,1.6c-0.7,0.8-1.5,1.4-2.5,1.8c-1,0.4-2,0.6-3.2,0.6C109.2,355.8,107.9,355.5,106.7,354.8z"/>
		<path class="st45" d="M128.9,343.6h-4.7v12h-2.6v-12h-4.7v-2.2h12V343.6z"/>
		<path class="st45" d="M142.6,349.4c0.5,0.6,0.7,1.3,0.7,2.2c0,1.2-0.5,2.2-1.4,2.9c-0.9,0.7-2.3,1-4,1h-6.8v-14.2h6.4
			c1.6,0,2.8,0.3,3.7,1c0.9,0.6,1.3,1.5,1.3,2.7c0,0.7-0.2,1.4-0.5,1.9c-0.4,0.5-0.9,1-1.6,1.2C141.5,348.4,142.2,348.8,142.6,349.4
			z M133.8,347.4h3.5c0.9,0,1.5-0.2,2-0.5c0.4-0.3,0.7-0.8,0.7-1.5s-0.2-1.2-0.7-1.5c-0.4-0.3-1.1-0.5-2-0.5h-3.5V347.4z
			 M140.7,351.4c0-1.4-0.9-2.1-2.8-2.1h-4.1v4.2h4.1C139.7,353.6,140.7,352.9,140.7,351.4z"/>
		<path class="st45" d="M149,354.8c-1.2-0.6-2.1-1.5-2.7-2.6c-0.7-1.1-1-2.4-1-3.8c0-1.4,0.3-2.6,1-3.8c0.7-1.1,1.6-2,2.7-2.6
			c1.2-0.6,2.5-0.9,3.9-0.9c1.5,0,2.8,0.3,3.9,0.9c1.2,0.6,2.1,1.5,2.7,2.6c0.7,1.1,1,2.4,1,3.8s-0.3,2.7-1,3.8
			c-0.7,1.1-1.6,2-2.7,2.6c-1.2,0.6-2.5,0.9-3.9,0.9C151.5,355.8,150.2,355.5,149,354.8z M155.5,352.8c0.8-0.4,1.4-1,1.8-1.8
			c0.4-0.8,0.7-1.6,0.7-2.6c0-0.9-0.2-1.8-0.7-2.6c-0.4-0.8-1-1.4-1.8-1.8c-0.8-0.4-1.6-0.6-2.6-0.6c-0.9,0-1.8,0.2-2.6,0.6
			c-0.8,0.4-1.4,1-1.8,1.8c-0.4,0.8-0.7,1.6-0.7,2.6c0,0.9,0.2,1.8,0.7,2.6c0.4,0.8,1,1.4,1.8,1.8c0.8,0.4,1.6,0.6,2.6,0.6
			C153.9,353.5,154.7,353.3,155.5,352.8z"/>
		<path class="st45" d="M173.7,343.6H169v12h-2.6v-12h-4.7v-2.2h12V343.6z"/>
		<path class="st45" d="M178.4,354.8c-1.2-0.6-2.1-1.5-2.7-2.6c-0.7-1.1-1-2.4-1-3.8c0-1.4,0.3-2.6,1-3.8c0.7-1.1,1.6-2,2.7-2.6
			c1.2-0.6,2.5-0.9,3.9-0.9c1.5,0,2.8,0.3,3.9,0.9c1.2,0.6,2.1,1.5,2.7,2.6c0.7,1.1,1,2.4,1,3.8s-0.3,2.7-1,3.8
			c-0.7,1.1-1.6,2-2.7,2.6c-1.2,0.6-2.5,0.9-3.9,0.9C180.9,355.8,179.6,355.5,178.4,354.8z M184.9,352.8c0.8-0.4,1.4-1,1.8-1.8
			c0.4-0.8,0.7-1.6,0.7-2.6c0-0.9-0.2-1.8-0.7-2.6c-0.4-0.8-1-1.4-1.8-1.8c-0.8-0.4-1.6-0.6-2.6-0.6c-0.9,0-1.8,0.2-2.6,0.6
			c-0.8,0.4-1.4,1-1.8,1.8c-0.4,0.8-0.7,1.6-0.7,2.6c0,0.9,0.2,1.8,0.7,2.6c0.4,0.8,1,1.4,1.8,1.8c0.8,0.4,1.6,0.6,2.6,0.6
			C183.3,353.5,184.1,353.3,184.9,352.8z"/>
	</g>
	
		<radialGradient id="SVGID_5_" cx="-1418.666" cy="2725.4065" r="129.2727" gradientTransform="matrix(0.5011 0 0 5.423031e-02 821.9156 124.8636)" gradientUnits="userSpaceOnUse">
		<stop  offset="0.1034" style="stop-color:#E0E3E2"/>
		<stop  offset="0.2677" style="stop-color:#E9EBEA"/>
		<stop  offset="0.684" style="stop-color:#F9FAFA"/>
		<stop  offset="1" style="stop-color:#FFFFFF"/>
	</radialGradient>
	<ellipse class="st8" cx="111.1" cy="272.7" rx="91.4" ry="5.9"/>
	<path class="st9" d="M184.8,219.4c0,0-1.9,19.1-17,20.4c15.1,1.3,17,20.4,17,20.4s1.9-19.1,17-20.4
		C186.7,238.5,184.8,219.4,184.8,219.4z"/>
	<path class="st9" d="M212.9,179c0,0-1.3,12.6-11.3,13.5c10,0.9,11.3,13.5,11.3,13.5s1.3-12.6,11.3-13.5
		C214.2,191.7,212.9,179,212.9,179z"/>
</g>
<g>
	<ellipse class="st1" cx="590.4" cy="787.3" rx="69.8" ry="93"/>
	<g>
		<path class="st45" d="M568.1,817v14.2h-2.6v-12h-7.4v12h-2.6V817H568.1z"/>
		<path class="st45" d="M582.4,817.6c0.9,0.4,1.6,1,2.1,1.7c0.5,0.8,0.7,1.7,0.7,2.7c0,1-0.2,1.9-0.7,2.7c-0.5,0.8-1.2,1.4-2.1,1.8
			c-0.9,0.4-2,0.6-3.2,0.6H576v4.1h-2.6V817h5.9C580.4,817,581.5,817.2,582.4,817.6z M581.7,824.1c0.6-0.5,0.9-1.2,0.9-2.1
			c0-0.9-0.3-1.6-0.9-2.1c-0.6-0.5-1.5-0.7-2.6-0.7H576v5.7h3.1C580.2,824.8,581.1,824.6,581.7,824.1z"/>
		<path class="st45" d="M599.6,829v2.2h-10.7V817h10.4v2.2h-7.7v3.7h6.9v2.2h-6.9v3.9H599.6z"/>
		<path class="st45" d="M615.2,825c0.5,0.6,0.7,1.3,0.7,2.2c0,1.2-0.5,2.2-1.4,2.9c-0.9,0.7-2.3,1-4,1h-6.8V817h6.4
			c1.6,0,2.8,0.3,3.7,1c0.9,0.6,1.3,1.5,1.3,2.7c0,0.7-0.2,1.4-0.5,1.9c-0.4,0.5-0.9,1-1.6,1.2C614.1,824,614.8,824.5,615.2,825z
			 M606.4,823h3.5c0.9,0,1.5-0.2,2-0.5c0.4-0.3,0.7-0.8,0.7-1.5c0-0.7-0.2-1.2-0.7-1.5c-0.4-0.3-1.1-0.5-2-0.5h-3.5V823z M613.3,827
			c0-1.4-0.9-2.1-2.8-2.1h-4.1v4.2h4.1C612.4,829.2,613.3,828.5,613.3,827z"/>
		<path class="st45" d="M622.9,830.5c-1.2-0.6-2.1-1.5-2.7-2.6c-0.7-1.1-1-2.4-1-3.8c0-1.4,0.3-2.6,1-3.8c0.7-1.1,1.6-2,2.7-2.6
			c1.2-0.6,2.5-0.9,3.9-0.9c1.5,0,2.8,0.3,3.9,0.9c1.2,0.6,2.1,1.5,2.7,2.6c0.7,1.1,1,2.4,1,3.8c0,1.4-0.3,2.7-1,3.8
			c-0.7,1.1-1.6,2-2.7,2.6c-1.2,0.6-2.5,0.9-3.9,0.9C625.3,831.4,624,831.1,622.9,830.5z M629.3,828.4c0.8-0.4,1.4-1,1.8-1.8
			c0.4-0.8,0.7-1.6,0.7-2.6c0-0.9-0.2-1.8-0.7-2.6s-1-1.4-1.8-1.8c-0.8-0.4-1.6-0.6-2.6-0.6c-0.9,0-1.8,0.2-2.6,0.6
			c-0.8,0.4-1.4,1-1.8,1.8c-0.4,0.8-0.7,1.6-0.7,2.6c0,0.9,0.2,1.8,0.7,2.6c0.4,0.8,1,1.4,1.8,1.8c0.8,0.4,1.6,0.6,2.6,0.6
			C627.7,829.1,628.6,828.9,629.3,828.4z"/>
		<path class="st45" d="M652.3,829v5.3h-2.4v-3h-10.9v3h-2.5l0-5.3h0.6c0.9,0,1.5-0.7,1.9-2c0.4-1.3,0.6-3.1,0.7-5.5l0.2-4.5h10.4
			v12H652.3z M641.5,826.3c-0.2,1.2-0.6,2.1-1.1,2.6h7.2v-9.8h-5.6l-0.1,2.5C641.9,823.6,641.8,825.1,641.5,826.3z"/>
		<path class="st45" d="M674.3,825c0.5,0.6,0.7,1.3,0.7,2.2c0,1.2-0.5,2.2-1.4,2.9c-0.9,0.7-2.3,1-4,1h-6.8V817h6.4
			c1.6,0,2.8,0.3,3.7,1c0.9,0.6,1.3,1.5,1.3,2.7c0,0.7-0.2,1.4-0.5,1.9c-0.4,0.5-0.9,1-1.6,1.2C673.1,824,673.8,824.5,674.3,825z
			 M665.5,823h3.5c0.9,0,1.5-0.2,2-0.5c0.4-0.3,0.7-0.8,0.7-1.5c0-0.7-0.2-1.2-0.7-1.5c-0.4-0.3-1.1-0.5-2-0.5h-3.5V823z M672.3,827
			c0-1.4-0.9-2.1-2.8-2.1h-4.1v4.2h4.1C671.4,829.2,672.3,828.5,672.3,827z"/>
		<path class="st45" d="M569.6,850.2v5.3h-2.4v-3h-10.9v3h-2.5l0-5.3h0.6c0.9,0,1.5-0.7,1.9-2c0.4-1.3,0.6-3.1,0.7-5.5l0.2-4.5h10.4
			v12H569.6z M558.8,847.5c-0.2,1.2-0.6,2.1-1.1,2.6h7.2v-9.8h-5.6l-0.1,2.5C559.2,844.8,559,846.3,558.8,847.5z"/>
		<path class="st45" d="M582.8,849.1h-7.1l-1.4,3.3h-2.7l6.4-14.2h2.6l6.4,14.2h-2.8L582.8,849.1z M582,847l-2.7-6.2l-2.7,6.2H582z"
			/>
		<path class="st45" d="M599.5,838.8c0.9,0.4,1.6,1,2.1,1.7c0.5,0.8,0.7,1.7,0.7,2.7c0,1-0.2,1.9-0.7,2.7c-0.5,0.8-1.2,1.4-2.1,1.8
			s-2,0.6-3.2,0.6h-3.2v4.1h-2.6v-14.2h5.9C597.5,838.2,598.6,838.4,599.5,838.8z M598.8,845.3c0.6-0.5,0.9-1.2,0.9-2.1
			c0-0.9-0.3-1.6-0.9-2.1c-0.6-0.5-1.5-0.7-2.6-0.7h-3.1v5.7h3.1C597.3,846,598.2,845.8,598.8,845.3z"/>
		<path class="st45" d="M606.1,838.2h2.6v10.1l7.6-10.1h2.5v14.2h-2.6v-10.1l-7.6,10.1h-2.5V838.2z"/>
		<path class="st45" d="M634.3,840.4h-4.7v12H627v-12h-4.7v-2.2h12V840.4z"/>
		<path class="st45" d="M648.5,850.2v2.2h-10.7v-14.2h10.4v2.2h-7.7v3.7h6.9v2.2h-6.9v3.9H648.5z"/>
		<path class="st45" d="M664.8,838.2v14.2h-2.6v-12h-5.6l-0.1,3.6c-0.1,2-0.2,3.6-0.5,4.9c-0.3,1.2-0.7,2.2-1.2,2.8
			c-0.6,0.6-1.4,1-2.4,1c-0.4,0-0.8-0.1-1.4-0.2l0.2-2.3c0.2,0.1,0.4,0.1,0.6,0.1c0.8,0,1.4-0.5,1.8-1.5c0.3-1,0.6-2.5,0.6-4.6
			l0.2-5.9H664.8z"/>
		<path class="st45" d="M672.7,851.7c-1.2-0.6-2.1-1.5-2.7-2.6c-0.7-1.1-1-2.4-1-3.8c0-1.4,0.3-2.7,1-3.8c0.7-1.1,1.6-2,2.7-2.6
			c1.2-0.6,2.5-0.9,3.9-0.9c1.2,0,2.2,0.2,3.2,0.6c1,0.4,1.8,1,2.4,1.8l-1.7,1.6c-1-1.1-2.3-1.7-3.8-1.7c-1,0-1.9,0.2-2.6,0.6
			c-0.8,0.4-1.4,1-1.8,1.8c-0.4,0.8-0.7,1.6-0.7,2.6s0.2,1.8,0.7,2.6c0.4,0.8,1,1.4,1.8,1.8c0.8,0.4,1.6,0.6,2.6,0.6
			c1.5,0,2.8-0.6,3.8-1.7l1.7,1.6c-0.7,0.8-1.5,1.4-2.5,1.8c-1,0.4-2,0.6-3.2,0.6C675.2,852.6,673.9,852.3,672.7,851.7z"/>
		<path class="st45" d="M691.2,846.4h-2.6v6h-2.6v-14.2h2.6v6h2.7l4.1-6h2.8l-4.9,6.9l5,7.3h-3L691.2,846.4z"/>
		<path class="st45" d="M710.6,849.1h-7.1l-1.4,3.3h-2.7l6.4-14.2h2.6l6.4,14.2H712L710.6,849.1z M709.7,847l-2.7-6.2l-2.7,6.2
			H709.7z"/>
		<path class="st45" d="M558.1,872.9c-1.2-0.6-2.1-1.5-2.7-2.6c-0.7-1.1-1-2.4-1-3.8c0-1.4,0.3-2.7,1-3.8c0.7-1.1,1.6-2,2.7-2.6
			c1.2-0.6,2.5-0.9,3.9-0.9c1.2,0,2.2,0.2,3.2,0.6c1,0.4,1.8,1,2.4,1.8l-1.7,1.6c-1-1.1-2.3-1.7-3.8-1.7c-1,0-1.9,0.2-2.6,0.6
			c-0.8,0.4-1.4,1-1.8,1.8c-0.4,0.8-0.7,1.6-0.7,2.6s0.2,1.8,0.7,2.6c0.4,0.8,1,1.4,1.8,1.8c0.8,0.4,1.6,0.6,2.6,0.6
			c1.5,0,2.8-0.6,3.8-1.7l1.7,1.6c-0.7,0.8-1.5,1.4-2.5,1.8c-1,0.4-2,0.6-3.2,0.6C560.6,873.8,559.3,873.5,558.1,872.9z"/>
		<path class="st45" d="M584.4,873.6l0-9.4l-4.7,7.8h-1.2l-4.7-7.7v9.3h-2.5v-14.2h2.2l5.6,9.4l5.6-9.4h2.2l0,14.2H584.4z"/>
		<path class="st45" d="M602.8,871.4v2.2h-10.7v-14.2h10.4v2.2h-7.7v3.7h6.9v2.2h-6.9v3.9H602.8z"/>
		<path class="st45" d="M617.3,861.6h-4.7v12H610v-12h-4.7v-2.2h12V861.6z"/>
		<path class="st45" d="M626.1,867.6h-2.6v6h-2.6v-14.2h2.6v6h2.7l4.1-6h2.8l-4.9,6.9l5,7.3h-3L626.1,867.6z"/>
		<path class="st45" d="M645.5,870.3h-7.1l-1.4,3.3h-2.7l6.4-14.2h2.6l6.4,14.2h-2.8L645.5,870.3z M644.6,868.2l-2.7-6.2l-2.7,6.2
			H644.6z"/>
	</g>
	<g>
		<path class="st10" d="M540.5,887.6c0.4,2.6-0.2,5-1.8,7.2c-1.7,2.2-3.8,3.5-6.3,4c-1.9,0.3-3.7-0.1-5.3-1.2
			c-1.6-1.1-2.6-2.7-2.9-4.6c-0.4-2.6,0.2-5,2-7.3c1.7-2.3,3.9-3.7,6.4-4.1c1.9-0.3,3.7,0.1,5.2,1.3
			C539.2,884,540.1,885.6,540.5,887.6z M547.4,814.9c0.3,1.6-0.1,4.1-1.1,7.5c-0.8,2.6-2.1,8.8-4,18.5c-1.9,9.7-3,15.7-3.4,18
			c-0.4,2.3-0.6,5.1-0.7,8.3c-0.1,2.5-1.6,4-4.4,4.5c-3.7,0.6-5.9-0.9-6.5-4.6c-0.6-3.8,0.4-11.6,3.1-23.3c2.7-11.7,5-19.8,6.8-24.2
			c1.8-4.5,3.8-6.9,6.1-7.3C545.7,811.9,547,812.7,547.4,814.9z"/>
	</g>
	
		<radialGradient id="SVGID_6_" cx="-300.878" cy="5856.1987" r="129.2727" gradientTransform="matrix(0.5538 0 0 4.348000e-02 770.7068 552.8)" gradientUnits="userSpaceOnUse">
		<stop  offset="0.1034" style="stop-color:#E0E3E2"/>
		<stop  offset="0.2677" style="stop-color:#E9EBEA"/>
		<stop  offset="0.684" style="stop-color:#F9FAFA"/>
		<stop  offset="1" style="stop-color:#FFFFFF"/>
	</radialGradient>
	<ellipse class="st11" cx="604.1" cy="807.4" rx="101.1" ry="4.7"/>
</g>
<g>
	<ellipse class="st1" cx="208.6" cy="903.1" rx="50.1" ry="67.9"/>
	<g>
		<g>
			<path class="st45" d="M127.5,981.8c-1.2-0.6-2.1-1.5-2.7-2.6c-0.7-1.1-1-2.4-1-3.8c0-1.4,0.3-2.6,1-3.8c0.7-1.1,1.6-2,2.7-2.6
				c1.2-0.6,2.5-0.9,3.9-0.9c1.5,0,2.8,0.3,3.9,0.9c1.2,0.6,2.1,1.5,2.7,2.6c0.7,1.1,1,2.4,1,3.8c0,1.4-0.3,2.7-1,3.8
				c-0.7,1.1-1.6,2-2.7,2.6c-1.2,0.6-2.5,0.9-3.9,0.9C130,982.7,128.7,982.4,127.5,981.8z M134,979.7c0.8-0.4,1.4-1,1.8-1.8
				c0.4-0.8,0.7-1.6,0.7-2.6s-0.2-1.8-0.7-2.6c-0.4-0.8-1-1.4-1.8-1.8c-0.8-0.4-1.6-0.6-2.6-0.6c-0.9,0-1.8,0.2-2.6,0.6
				c-0.8,0.4-1.4,1-1.8,1.8c-0.4,0.8-0.7,1.6-0.7,2.6s0.2,1.8,0.7,2.6c0.4,0.8,1,1.4,1.8,1.8c0.8,0.4,1.6,0.6,2.6,0.6
				C132.4,980.4,133.3,980.2,134,979.7z"/>
			<path class="st45" d="M153.4,970.5h-4.7v12h-2.6v-12h-4.7v-2.2h12V970.5z"/>
			<path class="st45" d="M167.8,968.3v14.2h-2.6v-5.4c-1.3,0.5-2.6,0.8-3.8,0.8c-1.8,0-3.2-0.4-4.2-1.3c-1-0.9-1.5-2.1-1.5-3.8v-4.5
				h2.6v4.3c0,1,0.3,1.8,0.9,2.3c0.6,0.5,1.4,0.8,2.5,0.8c1.2,0,2.4-0.3,3.5-0.8v-6.6H167.8z"/>
			<path class="st45" d="M173,968.3h2.6v10.1l7.6-10.1h2.5v14.2h-2.6v-10.1l-7.6,10.1H173V968.3z"/>
			<path class="st45" d="M201.3,970.5h-4.7v12h-2.6v-12h-4.7v-2.2h12V970.5z"/>
			<path class="st45" d="M213.5,979.2h-7.1l-1.4,3.3h-2.7l6.4-14.2h2.6l6.4,14.2h-2.8L213.5,979.2z M212.6,977.1l-2.7-6.2l-2.7,6.2
				H212.6z"/>
			<path class="st45" d="M233.8,968.3v14.2h-2.6v-6.1h-7.4v6.1h-2.6v-14.2h2.6v5.9h7.4v-5.9H233.8z"/>
			<path class="st45" d="M249.6,980.3v2.2H239v-14.2h10.4v2.2h-7.7v3.7h6.9v2.2h-6.9v3.9H249.6z"/>
			<path class="st45" d="M273.3,968.3v14.2h-2.6v-6.1h-7.4v6.1h-2.6v-14.2h2.6v5.9h7.4v-5.9H273.3z"/>
			<path class="st45" d="M287.9,979.2h-7.1l-1.4,3.3h-2.7l6.4-14.2h2.6l6.4,14.2h-2.8L287.9,979.2z M287.1,977.1l-2.7-6.2l-2.7,6.2
				H287.1z"/>
			<path class="st45" d="M137.5,989.5v14.2h-2.6v-6.1h-7.4v6.1h-2.6v-14.2h2.6v5.9h7.4v-5.9H137.5z"/>
			<path class="st45" d="M152.2,1000.4h-7.1l-1.4,3.3h-2.7l6.4-14.2h2.6l6.4,14.2h-2.8L152.2,1000.4z M151.3,998.3l-2.7-6.2
				l-2.7,6.2H151.3z"/>
			<path class="st45" d="M175.7,990.1c0.9,0.4,1.6,1,2.1,1.7c0.5,0.8,0.7,1.7,0.7,2.7c0,1-0.2,1.9-0.7,2.7c-0.5,0.8-1.2,1.4-2.1,1.8
				s-2,0.6-3.2,0.6h-3.2v4.1h-2.6v-14.2h5.9C173.7,989.5,174.8,989.7,175.7,990.1z M175,996.6c0.6-0.5,0.9-1.2,0.9-2.1
				c0-0.9-0.3-1.6-0.9-2.1c-0.6-0.5-1.5-0.7-2.6-0.7h-3.1v5.7h3.1C173.5,997.3,174.4,997.1,175,996.6z"/>
			<path class="st45" d="M191,1000.4h-7.1l-1.4,3.3h-2.7l6.4-14.2h2.6l6.4,14.2h-2.8L191,1000.4z M190.1,998.3l-2.7-6.2l-2.7,6.2
				H190.1z"/>
			<path class="st45" d="M208,997.6c0.5,0.6,0.7,1.3,0.7,2.1c0,0.9-0.3,1.6-0.8,2.2c-0.6,0.6-1.3,1.1-2.2,1.5
				c-0.9,0.3-1.9,0.5-3,0.5c-0.9,0-1.9-0.1-2.9-0.4c-1-0.3-1.8-0.7-2.7-1.2l0.9-1.9c0.6,0.4,1.3,0.7,2.1,1c0.8,0.2,1.5,0.3,2.3,0.3
				c1.1,0,2-0.2,2.7-0.6c0.7-0.4,1.1-1,1.1-1.7c0-0.6-0.3-1.1-0.8-1.4c-0.5-0.3-1.2-0.5-2.1-0.5h-3.3v-2.1h3.1
				c0.8,0,1.4-0.2,1.9-0.5c0.4-0.3,0.7-0.8,0.7-1.3c0-0.7-0.3-1.2-0.9-1.5c-0.6-0.4-1.4-0.5-2.3-0.5c-0.6,0-1.3,0.1-2,0.3
				c-0.7,0.2-1.3,0.5-1.9,0.8l-0.8-2.1c0.7-0.4,1.5-0.7,2.3-0.9s1.6-0.3,2.5-0.3c1.1,0,2,0.2,2.9,0.5c0.9,0.3,1.6,0.8,2.1,1.4
				c0.5,0.6,0.8,1.3,0.8,2.1c0,0.7-0.2,1.3-0.6,1.9c-0.4,0.5-0.9,0.9-1.6,1.2C206.9,996.5,207.6,997,208,997.6z"/>
			<path class="st45" d="M214.4,989.5l3.4,4.8l3.4-4.8h3.1l-4.8,6.8l5.2,7.4h-3.1l-3.7-5.2l-3.7,5.2H211l5.1-7.3l-4.8-6.9H214.4z"/>
			<path class="st45" d="M230.2,1003c-1.2-0.6-2.1-1.5-2.7-2.6c-0.7-1.1-1-2.4-1-3.8c0-1.4,0.3-2.6,1-3.8c0.7-1.1,1.6-2,2.7-2.6
				c1.2-0.6,2.5-0.9,3.9-0.9c1.5,0,2.8,0.3,3.9,0.9c1.2,0.6,2.1,1.5,2.7,2.6c0.7,1.1,1,2.4,1,3.8c0,1.4-0.3,2.7-1,3.8
				c-0.7,1.1-1.6,2-2.7,2.6c-1.2,0.6-2.5,0.9-3.9,0.9C232.7,1003.9,231.4,1003.6,230.2,1003z M236.7,1000.9c0.8-0.4,1.4-1,1.8-1.8
				c0.4-0.8,0.7-1.6,0.7-2.6c0-0.9-0.2-1.8-0.7-2.6c-0.4-0.8-1-1.4-1.8-1.8c-0.8-0.4-1.6-0.6-2.6-0.6c-0.9,0-1.8,0.2-2.6,0.6
				c-0.8,0.4-1.4,1-1.8,1.8c-0.4,0.8-0.7,1.6-0.7,2.6c0,0.9,0.2,1.8,0.7,2.6c0.4,0.8,1,1.4,1.8,1.8c0.8,0.4,1.6,0.6,2.6,0.6
				C235.1,1001.6,235.9,1001.4,236.7,1000.9z"/>
			<path class="st45" d="M259.7,1001.5v5.3h-2.4v-3h-10.9v3h-2.5l0-5.3h0.6c0.9,0,1.5-0.7,1.9-2c0.4-1.3,0.6-3.1,0.7-5.5l0.2-4.5
				h10.4v12H259.7z M248.9,998.8c-0.2,1.2-0.6,2.1-1.1,2.6h7.2v-9.8h-5.6l-0.1,2.5C249.3,996.1,249.1,997.6,248.9,998.8z"/>
			<path class="st45" d="M263.4,989.5h2.6v10.1l7.6-10.1h2.5v14.2h-2.6v-10.1l-7.6,10.1h-2.5V989.5z"/>
			<path class="st45" d="M291.6,991.7h-4.7v12h-2.6v-12h-4.7v-2.2h12V991.7z"/>
			<path class="st45" d="M305.8,1001.5v2.2h-10.7v-14.2h10.4v2.2h-7.7v3.7h6.9v2.2h-6.9v3.9H305.8z"/>
		</g>
	</g>
	<g>
		<g>
			<path class="st3" d="M233.1,856.5H192c0,0,0,0,0,0c0,0,0,0,0,0c-0.1,0-0.1,0-0.2,0c0,0,0,0,0,0c-0.1,0-0.1,0-0.2,0c0,0,0,0,0,0
				c-0.1,0-0.1,0-0.2,0.1c0,0,0,0,0,0c-0.1,0-0.1,0.1-0.2,0.1c0,0,0,0,0,0c0,0-0.1,0.1-0.1,0.1c0,0,0,0,0,0l-14.7,14.7c0,0,0,0,0,0
				c0,0-0.1,0.1-0.1,0.1c0,0,0,0,0,0c0,0-0.1,0.1-0.1,0.2c0,0,0,0,0,0c0,0.1,0,0.1-0.1,0.2c0,0,0,0,0,0c0,0.1,0,0.1,0,0.2
				c0,0,0,0,0,0c0,0.1,0,0.1,0,0.2c0,0,0,0,0,0c0,0,0,0,0,0v64.6c0,2.4,1.9,4.3,4.3,4.3h52.9c2.4,0,4.3-1.9,4.3-4.3v-76.4
				C237.4,858.4,235.5,856.5,233.1,856.5z M190.6,861.2v8.4c0,0.9-0.7,1.6-1.6,1.6h-8.4L190.6,861.2z M234.6,937.2
				c0,0.9-0.7,1.6-1.6,1.6h-52.9c-0.9,0-1.6-0.7-1.6-1.6v-63.2H189c2.4,0,4.3-1.9,4.3-4.3v-10.4h39.7c0.9,0,1.6,0.7,1.6,1.6V937.2z"
				/>
			<path class="st3" d="M189,896h35.2c0.8,0,1.4-0.6,1.4-1.4c0-0.8-0.6-1.4-1.4-1.4H189c-0.8,0-1.4,0.6-1.4,1.4
				C187.6,895.4,188.3,896,189,896z"/>
			<path class="st3" d="M189,903.3h35.2c0.8,0,1.4-0.6,1.4-1.4c0-0.8-0.6-1.4-1.4-1.4H189c-0.8,0-1.4,0.6-1.4,1.4
				C187.6,902.7,188.3,903.3,189,903.3z"/>
			<path class="st3" d="M189,910.7h17.6c0.8,0,1.4-0.6,1.4-1.4c0-0.8-0.6-1.4-1.4-1.4H189c-0.8,0-1.4,0.6-1.4,1.4
				C187.6,910,188.3,910.7,189,910.7z"/>
			<path class="st3" d="M208,916.6c0-0.8-0.6-1.4-1.4-1.4H189c-0.8,0-1.4,0.6-1.4,1.4c0,0.8,0.6,1.4,1.4,1.4h17.6
				C207.4,918,208,917.4,208,916.6z"/>
			<path class="st3" d="M213.9,880.3c0-0.8-0.6-1.4-1.4-1.4s-1.4,0.6-1.4,1.4c0,2.7,2.5,4.9,5.9,5.3v0.2c0,0.8,0.6,1.4,1.4,1.4
				c0.8,0,1.4-0.6,1.4-1.4v-0.2c3.4-0.5,5.9-2.6,5.9-5.3c0-2.7-2.5-4.9-5.9-5.3v-5.3c1.7,0.3,3.1,1.3,3.1,2.5c0,0.8,0.6,1.4,1.4,1.4
				c0.8,0,1.4-0.6,1.4-1.4c0-2.7-2.5-4.9-5.9-5.3v-0.2c0-0.8-0.6-1.4-1.4-1.4c-0.8,0-1.4,0.6-1.4,1.4v0.2c-3.4,0.5-5.9,2.6-5.9,5.3
				s2.5,4.9,5.9,5.3v5.3C215.4,882.4,213.9,881.5,213.9,880.3z M222.9,880.3c0,1.2-1.5,2.2-3.1,2.5v-5
				C221.4,878.1,222.9,879,222.9,880.3z M213.9,872.2c0-1.2,1.5-2.2,3.1-2.5v5C215.4,874.4,213.9,873.4,213.9,872.2z"/>
			<path class="st3" d="M227,915.3c-0.7-0.4-1.5-0.1-1.9,0.5l-2.8,5l-0.4-0.3c-0.3-0.3-0.7-0.3-1.2-0.3c-0.4,0.1-0.7,0.4-0.9,0.7
				l-1.4,2.9l-0.5-0.5c-0.7-0.8-1.7-1.1-2.7-0.9c-1,0.2-1.8,0.9-2.1,1.9l-1.6,4.5l-3.8-4.7c-0.2-0.3-0.6-0.5-1-0.5
				c-0.4,0-0.7,0.1-1,0.3l-4,3.5c-0.6,0.5-0.6,1.4-0.1,1.9c0.5,0.6,1.4,0.6,1.9,0.1l2.9-2.5l3.6,4.5c0.4,0.5,1,0.8,1.7,0.8
				c0.1,0,0.2,0,0.4,0c0.8-0.1,1.4-0.7,1.6-1.4l2-5.7c0,0,0,0,0.1-0.1c0.1,0,0.1,0,0.1,0l1.8,2.1c0.3,0.3,0.8,0.5,1.2,0.5
				c0.5-0.1,0.9-0.3,1.1-0.8l1.6-3.2l0.3,0.2c0.3,0.2,0.7,0.3,1.1,0.3c0.4-0.1,0.7-0.3,0.9-0.7l3.6-6.4
				C227.9,916.6,227.6,915.7,227,915.3z"/>
		</g>
	</g>
	
		<radialGradient id="SVGID_7_" cx="-1018.056" cy="6187.8574" r="129.2727" gradientTransform="matrix(0.5538 0 0 4.348000e-02 770.7068 682.5848)" gradientUnits="userSpaceOnUse">
		<stop  offset="0.1034" style="stop-color:#E0E3E2"/>
		<stop  offset="0.2677" style="stop-color:#E9EBEA"/>
		<stop  offset="0.684" style="stop-color:#F9FAFA"/>
		<stop  offset="1" style="stop-color:#FFFFFF"/>
	</radialGradient>
	<ellipse class="st12" cx="206.9" cy="951.6" rx="101.1" ry="4.7"/>
	<path class="st9" d="M255.4,911.3c0,0-1.9,19.1-17,20.4c15.1,1.3,17,20.4,17,20.4s1.9-19.1,17-20.4
		C257.4,930.4,255.4,911.3,255.4,911.3z"/>
	<path class="st9" d="M267,859.9c0,0-1.3,12.6-11.3,13.5c10,0.9,11.3,13.5,11.3,13.5s1.3-12.6,11.3-13.5
		C268.3,872.5,267,859.9,267,859.9z"/>
</g>
<g>
	<ellipse class="st1" cx="166.6" cy="695.5" rx="69.8" ry="78"/>
	<g>
		<path class="st45" d="M199.5,733.3c-1.6-0.9-2.9-2.1-3.8-3.6c-0.9-1.6-1.4-3.3-1.4-5.3c0-1.9,0.5-3.7,1.4-5.3
			c0.9-1.6,2.2-2.8,3.8-3.6c1.6-0.9,3.4-1.3,5.4-1.3c1.6,0,3.1,0.3,4.5,0.9c1.3,0.6,2.5,1.4,3.4,2.5l-2.4,2.2
			c-1.4-1.6-3.2-2.3-5.3-2.3c-1.4,0-2.6,0.3-3.7,0.9c-1.1,0.6-1.9,1.4-2.5,2.5c-0.6,1.1-0.9,2.3-0.9,3.6c0,1.3,0.3,2.5,0.9,3.6
			c0.6,1.1,1.4,1.9,2.5,2.5c1.1,0.6,2.3,0.9,3.7,0.9c2.1,0,3.9-0.8,5.3-2.4l2.4,2.3c-0.9,1.1-2.1,1.9-3.4,2.5
			c-1.4,0.6-2.8,0.9-4.5,0.9C203,734.6,201.2,734.1,199.5,733.3z"/>
		<path class="st45" d="M230.5,717.5h-6.6v16.7h-3.7v-16.7h-6.6v-3.1h16.8V717.5z"/>
		<path class="st45" d="M245.8,729.7h-9.9l-2,4.6h-3.8l8.9-19.9h3.6l9,19.9h-3.9L245.8,729.7z M244.6,726.8l-3.7-8.7l-3.7,8.7H244.6
			z"/>
		<path class="st45" d="M267.4,715.3c1.3,0.6,2.3,1.4,2.9,2.4c0.7,1.1,1,2.3,1,3.8c0,1.4-0.3,2.7-1,3.8c-0.7,1.1-1.7,1.9-2.9,2.5
			c-1.3,0.6-2.8,0.9-4.5,0.9h-4.5v5.7h-3.7v-19.9h8.2C264.6,714.4,266.1,714.7,267.4,715.3z M266.4,724.4c0.8-0.7,1.2-1.7,1.2-2.9
			s-0.4-2.2-1.2-2.9c-0.8-0.7-2.1-1-3.7-1h-4.3v7.9h4.3C264.4,725.4,265.6,725.1,266.4,724.4z"/>
		<path class="st45" d="M288.7,717.5h-6.6v16.7h-3.7v-16.7h-6.6v-3.1h16.8V717.5z"/>
		<path class="st45" d="M292,733.9c-0.4-0.4-0.7-1-0.7-1.6c0-0.6,0.2-1.1,0.7-1.6c0.4-0.4,1-0.6,1.6-0.6c0.6,0,1.2,0.2,1.6,0.6
			s0.6,0.9,0.6,1.6c0,0.6-0.2,1.1-0.6,1.6s-1,0.6-1.6,0.6C293,734.5,292.4,734.3,292,733.9z M291.6,714.4h4.2l-0.7,13.3h-2.8
			L291.6,714.4z"/>
	</g>
	<g>
		<path class="st3" d="M169.8,698.7L169.8,698.7c-0.8-0.7-1.8-1.3-2.9-1.6l-0.4-0.1l-0.2-0.4c-0.4-1-1-2-1.9-2.7
			c-1.3-1.2-2.9-1.8-4.7-1.8c-0.1,0-0.2,0-0.4,0c-3.8,0.2-6.8,3.5-6.6,7.3l0.5,10.2c0,0.5,0.3,1,0.6,1.3c0.4,0.3,0.9,0.5,1.4,0.5
			l10.2-0.5c3.8-0.2,6.8-3.5,6.6-7.3C172,701.6,171.2,699.9,169.8,698.7z M167.5,706c-0.6,0.6-1.4,1-2.2,1.1l-8.3,0.4l-0.4-8.3
			c-0.1-1.8,1.3-3.3,3-3.4c0.9,0,1.7,0.2,2.3,0.8c0.6,0.6,1,1.4,1.1,2.2c0,0.5,0.2,1,0.6,1.3c0.4,0.3,0.9,0.5,1.4,0.5
			c0.8,0,1.7,0.2,2.3,0.8c0.6,0.6,1,1.4,1.1,2.2C168.4,704.6,168.1,705.4,167.5,706z"/>
		<path class="st3" d="M187.5,679.2c-0.8-0.8-1.8-1.3-2.9-1.6l-0.4-0.1L184,677c-0.4-1-1-2-1.9-2.7c-1.3-1.2-2.9-1.8-4.7-1.8
			c-0.1,0-0.2,0-0.4,0c-3.8,0.2-6.8,3.5-6.6,7.3L171,690c0,0.5,0.3,1,0.6,1.3c0.4,0.3,0.9,0.5,1.4,0.5l10.2-0.5
			c3.8-0.2,6.8-3.5,6.6-7.3C189.7,682.1,188.8,680.4,187.5,679.2z M183,687.5l-8.3,0.4l-0.4-8.3c0-0.9,0.2-1.7,0.8-2.3
			c0.6-0.6,1.4-1,2.2-1.1c0.9,0,1.7,0.2,2.3,0.8c0.6,0.6,1,1.4,1.1,2.2c0,0.5,0.2,1,0.6,1.3c0.4,0.3,0.9,0.5,1.4,0.5
			c0.9,0,1.7,0.2,2.3,0.8c0.6,0.6,1,1.4,1.1,2.2C186.1,685.9,184.7,687.4,183,687.5z"/>
		<path class="st3" d="M212.9,645.6c-0.4-0.4-0.9-0.5-1.5-0.5c-25,3-47.8,16.5-62.5,36.9l-5.7,7.9l-29,10.9c-0.4,0.2-0.7,0.4-1,0.8
			l-10.3,17.5c-0.3,0.6-0.4,1.2-0.1,1.8c0.1,0.2,0.2,0.4,0.4,0.6c0.3,0.3,0.7,0.4,1.1,0.5l17.3,1.9l9.9,9l-5.8,6.4
			c-0.7,0.8-0.6,2,0.1,2.7c0.4,0.3,0.8,0.5,1.4,0.5c0.5,0,1-0.2,1.3-0.6l5.8-6.4l9.9,9l3.6,17c0.1,0.4,0.3,0.7,0.6,1
			c0.2,0.2,0.4,0.3,0.6,0.4c0.6,0.2,1.3,0.1,1.8-0.2l16.4-12.1c0.3-0.3,0.6-0.6,0.7-1l7.9-30l7.3-6.4c18.8-16.7,29.9-40.7,30.4-65.9
			C213.5,646.5,213.3,646,212.9,645.6z M121.6,720.1l-13.9-1.5l8.5-14.4l23.1-8.7L121.6,720.1z M164.5,747.8l-13.5,9.9l-2.9-13.7
			l22.7-20.1L164.5,747.8z M204.1,676.1c-5,13.1-13.1,24.8-23.5,34l-34.6,30.7l-9.1-8.3l11.5-12.8c0.3-0.4,0.5-0.9,0.5-1.4
			c0-0.5-0.2-1-0.6-1.3c-0.8-0.7-2-0.6-2.7,0.1L134.1,730l-9.1-8.3l27-37.5c8.1-11.3,19-20.5,31.5-26.8l0.8-0.4l0.4,0.9
			c1.6,4,4.2,7.7,7.5,10.7c3.3,2.9,7.2,5.1,11.4,6.4l0.9,0.3L204.1,676.1z M209.6,650.3c-0.4,6.9-1.6,13.9-3.7,20.6l-0.3,0.8
			l-0.8-0.2c-3.8-1-7.3-3-10.2-5.6c-2.9-2.6-5.2-5.9-6.6-9.6l-0.3-0.8l0.8-0.3c6.5-2.7,13.2-4.7,20.1-5.8l1.1-0.2L209.6,650.3z"/>
	</g>
	<path class="st13" d="M288.2,668.9c-0.9-3.8-4.3-6.6-8.3-6.6c-0.7,0-1.5,0.1-2.2,0.3c-2-4.3-6.3-7.2-11.4-7.2
		c-1.3,0-2.6,0.2-3.7,0.6c-2.7-4.5-7.6-7.5-13.2-7.5c-6.7,0-12.4,4.2-14.5,10.2c-1.5-0.9-3.3-1.3-5.2-1.3c-5.9,0-10.6,4.7-10.6,10.6
		c0,0.3,0,0.7,0.1,1H288.2z"/>
	<path class="st13" d="M143,683.6c-0.8-3.6-4-6.2-7.8-6.2c-0.7,0-1.4,0.1-2,0.3c-1.9-4-5.9-6.8-10.7-6.8c-1.2,0-2.4,0.2-3.5,0.5
		c-2.5-4.2-7.2-7-12.4-7c-6.3,0-11.6,4-13.6,9.6c-1.4-0.8-3.1-1.3-4.8-1.3c-5.5,0-10,4.5-10,10c0,0.3,0,0.6,0,1H143z"/>
	<path class="st9" d="M154.5,782.9c0,0-0.8,8.3-7.4,8.9c6.6,0.6,7.4,8.9,7.4,8.9s0.8-8.3,7.4-8.9
		C155.3,791.2,154.5,782.9,154.5,782.9z"/>
</g>
<g>
	<g>
		<g>
			<path class="st45" d="M884.9,959.3h-9.5v24.1h-10.8v-24.1H855v-8.5h29.9V959.3z"/>
			<path class="st45" d="M888.5,950.8h10.8v16.9l11.2-16.9h10.3v32.6h-10.8v-16.9l-11.2,16.9h-10.4V950.8z"/>
			<path class="st45" d="M889.7,996.1l-13.1,24.5c-1.6,2.9-3.5,5.1-5.7,6.7c-2.2,1.5-4.7,2.3-7.4,2.3c-2.1,0-4.2-0.4-6.3-1.3
				l2.6-7.9c1.4,0.4,2.5,0.6,3.3,0.6c0.8,0,1.5-0.1,2.1-0.4c0.6-0.3,1.1-0.7,1.7-1.4l-12.5-23H866l6.5,13.7l6.7-13.7H889.7z"/>
			<path class="st45" d="M898.6,1027.3c-2.8-1.4-4.9-3.5-6.5-6c-1.6-2.6-2.3-5.5-2.3-8.8c0-3.3,0.8-6.2,2.3-8.8
				c1.6-2.6,3.7-4.6,6.5-6c2.8-1.4,5.9-2.2,9.3-2.2c3.2,0,6,0.6,8.5,1.7c2.5,1.1,4.5,2.7,6.1,4.8l-6.9,6.2c-2-2.5-4.4-3.8-7.1-3.8
				c-2.3,0-4.1,0.7-5.5,2.2c-1.4,1.5-2.1,3.5-2.1,5.9c0,2.5,0.7,4.5,2.1,5.9c1.4,1.5,3.2,2.2,5.5,2.2c2.7,0,5.1-1.3,7.1-3.8l6.9,6.2
				c-1.6,2.1-3.7,3.7-6.1,4.8c-2.5,1.1-5.3,1.7-8.5,1.7C904.5,1029.4,901.4,1028.7,898.6,1027.3z"/>
			<path class="st45" d="M957.3,996.1v32.6h-10.8v-24.1h-9.9v24.1h-10.8v-32.6H957.3z"/>
			<path class="st45" d="M991.7,996.1v32.6h-10.8v-7.7h-2.9l-5,7.7h-11.5l6.4-9.3c-2.1-1-3.7-2.4-4.9-4.2c-1.1-1.8-1.7-4-1.7-6.4
				c0-2.6,0.6-4.8,1.8-6.7c1.2-1.9,3-3.3,5.2-4.4c2.3-1,4.9-1.5,8-1.5H991.7z M972.4,1008.6c0,2.8,1.4,4.1,4.2,4.1h4.3v-8.1h-4.3
				C973.8,1004.6,972.4,1005.9,972.4,1008.6z"/>
			<path class="st45" d="M995.6,996.1h12.6l-2.1,20.1h-8.4L995.6,996.1z M997.4,1027.5c-1.1-1.1-1.7-2.4-1.7-4
				c0-1.6,0.6-2.9,1.7-3.9c1.1-1,2.6-1.6,4.4-1.6c1.8,0,3.3,0.5,4.4,1.6c1.1,1,1.7,2.3,1.7,3.9c0,1.6-0.6,2.9-1.7,4
				c-1.1,1.1-2.6,1.6-4.4,1.6C1000.1,1029.2,998.6,1028.6,997.4,1027.5z"/>
		</g>
	</g>
	<g>
		<path class="st10" d="M998,947.6c-0.3-2.4-1.1-4.8-2.6-6.8c-1-1.4-2.3-2.5-3.7-3.5c-1.4-0.9-3-1.5-4.7-1.8
			c-0.7-0.1-1.4-0.2-2.1-0.2c-1.9,0-3.8,0.4-5.6,1c-1.9,0.7-3.7,1.7-5.2,3c-1.5,1.3-2.8,2.8-4,4.5c-0.4,0.5-0.9,1.4-1.1,2
			c-0.4,0.9-0.8,1.9-1.1,2.8c-0.1-0.1-0.2-0.3-0.3-0.4c-0.1-0.1-0.2-0.2-0.3-0.4c0,0-0.1-0.1-0.1-0.1c-0.9-0.9-2-1.7-3.1-2.4
			c-1.4-0.8-2.9-1.4-4.4-1.8c-0.6-0.1-1.1-0.2-1.7-0.3c-0.6-0.1-1.2-0.1-1.8-0.1c-0.3,0-0.5,0-0.8,0c-0.8,0.1-1.7,0.2-2.5,0.4
			c-0.9,0.2-1.8,0.6-2.6,1c-1.2,0.6-2.4,1.5-3.3,2.4c-0.8,0.7-1.4,1.6-2,2.5c-1.3,2.2-1.8,4.3-2,6.6c-0.1,1.6,0,3.1,0.3,4.7
			c0.3,1.4,0.9,2.7,1.6,4c0.6,1.1,1.3,2,2.1,3c1.1,1.3,2.3,2.5,3.5,3.6c1.9,1.8,4,3.4,6.2,4.9c2.5,1.7,5,3.3,7.6,4.8
			c10.4,5.7,18.7,7.6,19,4.9c0.3-3.6,1.2-7.1,3.1-10.2c0.2-0.3,0.4-0.7,0.6-1c1.7-2.7,3.5-5.3,5.2-8c2-3.1,3.7-6.2,4.9-9.6
			c0.5-1.5,0.9-3,1.1-4.6c0.1-0.8,0.2-1.5,0.2-2.3C998.2,949.4,998.1,948.5,998,947.6z"/>
		<g>
			<path class="st10" d="M994.1,947.3c0.4,0.3,0.5,0.8,0.2,1.2c-0.3,0.4-0.8,0.5-1.2,0.2c-0.4-0.3-0.5-0.8-0.2-1.2
				C993.2,947.1,993.7,947.1,994.1,947.3L994.1,947.3L994.1,947.3z"/>
			<path class="st10" d="M993.7,952c0.3,0.2,0.4,0.6,0.2,0.8c-0.2,0.3-0.6,0.3-0.9,0.1c-0.3-0.2-0.4-0.6-0.2-0.8
				C993,951.9,993.4,951.8,993.7,952L993.7,952L993.7,952z"/>
			<path class="st10" d="M992.1,956.9c0.2,0.1,0.2,0.4,0.1,0.6c-0.1,0.2-0.4,0.2-0.6,0.1c-0.2-0.1-0.2-0.4-0.1-0.6
				C991.6,956.8,991.9,956.8,992.1,956.9L992.1,956.9L992.1,956.9z"/>
			<path class="st10" d="M989.4,960.6c0.2,0.1,0.3,0.4,0.1,0.6c-0.1,0.2-0.5,0.3-0.7,0.1c-0.2-0.1-0.3-0.4-0.1-0.6
				C988.9,960.5,989.2,960.4,989.4,960.6L989.4,960.6L989.4,960.6z"/>
		</g>
	</g>
	<g>
		<g>
			
				<radialGradient id="SVGID_8_" cx="16.1889" cy="6456.6548" r="157.9999" gradientTransform="matrix(0.5538 0 0 4.348000e-02 770.7068 787.7706)" gradientUnits="userSpaceOnUse">
				<stop  offset="0.1034" style="stop-color:#E0E3E2"/>
				<stop  offset="0.2677" style="stop-color:#E9EBEA"/>
				<stop  offset="0.684" style="stop-color:#F9FAFA"/>
				<stop  offset="1" style="stop-color:#FFFFFF"/>
			</radialGradient>
			<ellipse class="st14" cx="779.7" cy="1068.5" rx="123.5" ry="5.8"/>
			<g>
				<g>
					<path class="st39" d="M776.1,970.9c3.7,10.1,13.5,17.4,24.9,17.4c11.4,0,21.2-7.2,24.9-17.4"/>
					<g>
						<path class="st16" d="M794.4,954.3c0,1.8-1.5,3.3-3.3,3.3c-1.8,0-3.3-1.5-3.3-3.3c0-1.8,1.5-3.3,3.3-3.3
							C792.9,951,794.4,952.5,794.4,954.3z"/>
						<path class="st16" d="M814.1,954.3c0,1.8-1.5,3.3-3.3,3.3s-3.3-1.5-3.3-3.3c0-1.8,1.5-3.3,3.3-3.3S814.1,952.5,814.1,954.3z"
							/>
					</g>
				</g>
				<g>
					<path class="st40" d="M765.2,1010.3c-3.1,8.3-11.1,14.3-20.4,14.3c-9.4,0-17.4-5.9-20.4-14.3"/>
					<g>
						<path class="st18" d="M750.2,996.6c0,1.5,1.2,2.7,2.7,2.7c1.5,0,2.7-1.2,2.7-2.7c0-1.5-1.2-2.7-2.7-2.7
							C751.4,993.9,750.2,995.2,750.2,996.6z"/>
						<path class="st18" d="M734,996.6c0,1.5,1.2,2.7,2.7,2.7c1.5,0,2.7-1.2,2.7-2.7c0-1.5-1.2-2.7-2.7-2.7
							C735.2,993.9,734,995.2,734,996.6z"/>
					</g>
					<circle class="st41" cx="744.7" cy="1006.9" r="36.6"/>
				</g>
				<g>
					<g>
						<path class="st42" d="M779.4,1029.1c1.9,5.3,7,9,12.9,9c5.9,0,11-3.8,12.9-9"/>
						<g>
							<path class="st21" d="M788.9,1020.5c0,0.9-0.8,1.7-1.7,1.7c-0.9,0-1.7-0.8-1.7-1.7c0-0.9,0.8-1.7,1.7-1.7
								C788.2,1018.8,788.9,1019.6,788.9,1020.5z"/>
							<path class="st21" d="M799.1,1020.5c0,0.9-0.8,1.7-1.7,1.7c-0.9,0-1.7-0.8-1.7-1.7c0-0.9,0.8-1.7,1.7-1.7
								C798.4,1018.8,799.1,1019.6,799.1,1020.5z"/>
						</g>
					</g>
				</g>
				<circle class="st43" cx="799" cy="964.5" r="43.8"/>
				<circle class="st44" cx="793.2" cy="1026.1" r="23"/>
			</g>
		</g>
	</g>
</g>
<g>
	<path class="st45" d="M240.1,111.7v15.9h-2.3v-7.1h-9.2v7.1h-2.3v-15.9h2.3v6.9h9.2v-6.9H240.1z"/>
	<path class="st45" d="M255.5,115.6l-5.9,13.3c-0.5,1.2-1.1,2.1-1.8,2.6s-1.5,0.8-2.5,0.8c-0.6,0-1.2-0.1-1.7-0.3
		c-0.6-0.2-1-0.5-1.4-0.8l0.9-1.6c0.6,0.6,1.3,0.9,2.2,0.9c0.5,0,1-0.1,1.3-0.4c0.4-0.3,0.7-0.8,1-1.4l0.4-0.8l-5.3-12h2.3l4.2,9.7
		l4.2-9.7H255.5z"/>
	<path class="st45" d="M268,122.5h-2.3v5.1h-2.2v-5.1h-2.3l-3.3,5.1h-2.6l4.1-6.2l-3.8-5.8h2.3l3.3,5.1h2.4v-5.1h2.2v5.1h2.4
		l3.3-5.1h2.3l-3.8,5.8l4.1,6.2h-2.6L268,122.5z"/>
	<path class="st45" d="M288.6,125.7v4.7h-2v-2.8h-10.1v2.8h-2.1v-4.7h0.6c0.8,0,1.3-0.6,1.6-1.6c0.3-1,0.5-2.5,0.6-4.4l0.2-4.1h9.4
		v10.2H288.6z M278.9,123.6c-0.2,1-0.5,1.7-1,2.2h6.8v-8.2h-5.2l-0.1,2.3C279.2,121.3,279.1,122.6,278.9,123.6z"/>
	<path class="st45" d="M299.6,116.7c0.9,0.8,1.3,2,1.3,3.7v7.3h-2.1V126c-0.4,0.6-0.9,1-1.6,1.3s-1.5,0.4-2.4,0.4
		c-1.4,0-2.4-0.3-3.2-1c-0.8-0.7-1.2-1.5-1.2-2.6c0-1.1,0.4-1.9,1.2-2.6c0.8-0.6,2-1,3.7-1h3.5v-0.4c0-0.9-0.3-1.7-0.8-2.2
		c-0.5-0.5-1.4-0.8-2.4-0.8c-0.7,0-1.4,0.1-2.1,0.4c-0.7,0.2-1.3,0.6-1.7,0.9l-0.9-1.6c0.6-0.5,1.4-0.9,2.2-1.1
		c0.9-0.3,1.8-0.4,2.8-0.4C297.4,115.5,298.7,115.9,299.6,116.7z M297.4,125.5c0.6-0.4,1-0.9,1.3-1.6v-1.7h-3.4
		c-1.9,0-2.8,0.6-2.8,1.9c0,0.6,0.2,1.1,0.7,1.4c0.5,0.3,1.1,0.5,2,0.5C296.1,126.1,296.8,125.9,297.4,125.5z"/>
	<path class="st45" d="M315.7,122.3h-9.8c0.1,1.1,0.6,1.9,1.4,2.6c0.8,0.6,1.8,1,3,1c1.4,0,2.6-0.5,3.5-1.5l1.2,1.4
		c-0.5,0.6-1.2,1.1-2,1.5c-0.8,0.3-1.7,0.5-2.7,0.5c-1.3,0-2.4-0.3-3.4-0.8s-1.7-1.3-2.3-2.2c-0.5-0.9-0.8-2-0.8-3.2
		c0-1.2,0.3-2.2,0.8-3.2c0.5-0.9,1.2-1.7,2.2-2.2c0.9-0.5,2-0.8,3.1-0.8s2.2,0.3,3.1,0.8c0.9,0.5,1.6,1.3,2.1,2.2
		c0.5,0.9,0.8,2,0.8,3.2C315.8,121.8,315.8,122.1,315.7,122.3z M307.2,118.3c-0.7,0.6-1.1,1.5-1.2,2.5h7.7c-0.1-1-0.5-1.8-1.2-2.5
		c-0.7-0.6-1.6-1-2.6-1S307.9,117.6,307.2,118.3z"/>
	<path class="st45" d="M336.4,115.6v12.1h-17.2v-12.1h2.2v10.2h5.3v-10.2h2.2v10.2h5.3v-10.2H336.4z"/>
	<path class="st45" d="M348.7,127c-1-0.5-1.7-1.3-2.3-2.2c-0.5-0.9-0.8-2-0.8-3.2s0.3-2.2,0.8-3.2c0.5-0.9,1.3-1.7,2.3-2.2
		c1-0.5,2.1-0.8,3.3-0.8c1.1,0,2.1,0.2,2.9,0.7c0.9,0.4,1.5,1.1,2,1.9l-1.7,1.1c-0.4-0.6-0.9-1-1.4-1.3c-0.6-0.3-1.2-0.4-1.9-0.4
		c-0.8,0-1.5,0.2-2.1,0.5c-0.6,0.3-1.1,0.8-1.5,1.5c-0.4,0.6-0.5,1.4-0.5,2.2c0,0.8,0.2,1.6,0.5,2.2c0.4,0.6,0.8,1.1,1.5,1.5
		c0.6,0.3,1.3,0.5,2.1,0.5c0.7,0,1.3-0.1,1.9-0.4c0.6-0.3,1-0.7,1.4-1.3l1.7,1c-0.5,0.8-1.1,1.5-2,1.9c-0.9,0.4-1.8,0.7-2.9,0.7
		C350.7,127.8,349.6,127.5,348.7,127z"/>
	<path class="st45" d="M370.4,122.3h-9.8c0.1,1.1,0.6,1.9,1.4,2.6c0.8,0.6,1.8,1,3,1c1.4,0,2.6-0.5,3.5-1.5l1.2,1.4
		c-0.5,0.6-1.2,1.1-2,1.5c-0.8,0.3-1.7,0.5-2.7,0.5c-1.3,0-2.4-0.3-3.4-0.8s-1.7-1.3-2.3-2.2c-0.5-0.9-0.8-2-0.8-3.2
		c0-1.2,0.3-2.2,0.8-3.2c0.5-0.9,1.2-1.7,2.2-2.2c0.9-0.5,2-0.8,3.1-0.8s2.2,0.3,3.1,0.8c0.9,0.5,1.6,1.3,2.1,2.2
		c0.5,0.9,0.8,2,0.8,3.2C370.4,121.8,370.4,122.1,370.4,122.3z M361.8,118.3c-0.7,0.6-1.1,1.5-1.2,2.5h7.7c-0.1-1-0.5-1.8-1.2-2.5
		c-0.7-0.6-1.6-1-2.6-1S362.5,117.6,361.8,118.3z"/>
	<path class="st45" d="M228,149.7c-1-0.5-1.7-1.3-2.2-2.2c-0.5-0.9-0.8-2-0.8-3.2s0.3-2.2,0.8-3.2c0.5-0.9,1.3-1.7,2.2-2.2
		c1-0.5,2-0.8,3.2-0.8s2.3,0.3,3.2,0.8c0.9,0.5,1.7,1.3,2.2,2.2c0.5,0.9,0.8,2,0.8,3.2s-0.3,2.2-0.8,3.2c-0.5,0.9-1.3,1.7-2.2,2.2
		c-0.9,0.5-2,0.8-3.2,0.8S228.9,150.3,228,149.7z M233.3,148.1c0.6-0.4,1.1-0.9,1.4-1.5c0.3-0.6,0.5-1.4,0.5-2.2s-0.2-1.6-0.5-2.2
		c-0.3-0.6-0.8-1.1-1.4-1.5c-0.6-0.3-1.3-0.5-2.1-0.5s-1.5,0.2-2.1,0.5c-0.6,0.3-1.1,0.8-1.5,1.5c-0.4,0.6-0.5,1.4-0.5,2.2
		s0.2,1.6,0.5,2.2c0.4,0.6,0.8,1.1,1.5,1.5c0.6,0.4,1.3,0.5,2.1,0.5S232.7,148.4,233.3,148.1z"/>
	<path class="st45" d="M249.2,140.2h-4.4v10.2h-2.2v-10.2h-4.4v-1.9h11V140.2z"/>
	<path class="st45" d="M259.5,149.7c-1-0.5-1.7-1.3-2.3-2.2c-0.5-0.9-0.8-2-0.8-3.2s0.3-2.2,0.8-3.2c0.5-0.9,1.3-1.7,2.3-2.2
		c1-0.5,2.1-0.8,3.3-0.8c1.1,0,2.1,0.2,2.9,0.7c0.9,0.4,1.5,1.1,2,1.9l-1.7,1.1c-0.4-0.6-0.9-1-1.4-1.3c-0.6-0.3-1.2-0.4-1.9-0.4
		c-0.8,0-1.5,0.2-2.1,0.5c-0.6,0.3-1.1,0.8-1.5,1.5c-0.4,0.6-0.5,1.4-0.5,2.2c0,0.8,0.2,1.6,0.5,2.2c0.4,0.6,0.8,1.1,1.5,1.5
		c0.6,0.3,1.3,0.5,2.1,0.5c0.7,0,1.3-0.1,1.9-0.4c0.6-0.3,1-0.7,1.4-1.3l1.7,1c-0.5,0.8-1.1,1.5-2,1.9c-0.9,0.4-1.8,0.7-2.9,0.7
		C261.6,150.5,260.5,150.3,259.5,149.7z"/>
	<path class="st45" d="M280.1,139c0.9,0.5,1.7,1.2,2.2,2.2c0.5,0.9,0.8,2,0.8,3.2s-0.3,2.3-0.8,3.2c-0.5,0.9-1.2,1.7-2.2,2.2
		c-0.9,0.5-2,0.8-3.1,0.8c-0.9,0-1.7-0.2-2.4-0.5c-0.7-0.3-1.3-0.8-1.8-1.5v6.2h-2.2v-16.5h2.1v1.9c0.5-0.7,1.1-1.2,1.8-1.5
		c0.7-0.3,1.6-0.5,2.5-0.5C278.1,138.2,279.1,138.5,280.1,139z M278.8,148.1c0.6-0.4,1.1-0.9,1.5-1.5c0.4-0.6,0.5-1.4,0.5-2.2
		s-0.2-1.6-0.5-2.2c-0.4-0.6-0.8-1.1-1.5-1.5c-0.6-0.3-1.3-0.5-2.1-0.5c-0.8,0-1.4,0.2-2.1,0.5c-0.6,0.4-1.1,0.9-1.5,1.5
		c-0.4,0.6-0.5,1.4-0.5,2.2s0.2,1.6,0.5,2.2c0.3,0.6,0.8,1.1,1.5,1.5s1.3,0.5,2.1,0.5C277.5,148.6,278.2,148.4,278.8,148.1z"/>
	<path class="st45" d="M297,145.1h-9.8c0.1,1.1,0.6,1.9,1.4,2.6c0.8,0.6,1.8,1,3,1c1.4,0,2.6-0.5,3.5-1.5l1.2,1.4
		c-0.5,0.6-1.2,1.1-2,1.5c-0.8,0.3-1.7,0.5-2.7,0.5c-1.3,0-2.4-0.3-3.4-0.8s-1.7-1.3-2.3-2.2c-0.5-0.9-0.8-2-0.8-3.2
		c0-1.2,0.3-2.2,0.8-3.2c0.5-0.9,1.2-1.7,2.2-2.2c0.9-0.5,2-0.8,3.1-0.8s2.2,0.3,3.1,0.8c0.9,0.5,1.6,1.3,2.1,2.2
		c0.5,0.9,0.8,2,0.8,3.2C297.1,144.6,297.1,144.8,297,145.1z M288.5,141c-0.7,0.6-1.1,1.5-1.2,2.5h7.7c-0.1-1-0.5-1.8-1.2-2.5
		c-0.7-0.6-1.6-1-2.6-1S289.2,140.4,288.5,141z"/>
	<path class="st45" d="M312.5,148.5v4.7h-2v-2.8h-10.1v2.8h-2.1v-4.7h0.6c0.8,0,1.3-0.6,1.6-1.6c0.3-1,0.5-2.5,0.6-4.4l0.2-4.1h9.4
		v10.2H312.5z M302.8,146.3c-0.2,1-0.5,1.7-1,2.2h6.8v-8.2h-5.2l-0.1,2.3C303.1,144.1,303,145.3,302.8,146.3z"/>
	<path class="st45" d="M317.4,149.7c-1-0.5-1.7-1.3-2.3-2.2c-0.5-0.9-0.8-2-0.8-3.2s0.3-2.2,0.8-3.2c0.5-0.9,1.3-1.7,2.3-2.2
		c1-0.5,2.1-0.8,3.3-0.8c1.1,0,2.1,0.2,2.9,0.7c0.9,0.4,1.5,1.1,2,1.9l-1.7,1.1c-0.4-0.6-0.9-1-1.4-1.3c-0.6-0.3-1.2-0.4-1.9-0.4
		c-0.8,0-1.5,0.2-2.1,0.5c-0.6,0.3-1.1,0.8-1.5,1.5c-0.4,0.6-0.5,1.4-0.5,2.2c0,0.8,0.2,1.6,0.5,2.2c0.4,0.6,0.8,1.1,1.5,1.5
		c0.6,0.3,1.3,0.5,2.1,0.5c0.7,0,1.3-0.1,1.9-0.4c0.6-0.3,1-0.7,1.4-1.3l1.7,1c-0.5,0.8-1.1,1.5-2,1.9c-0.9,0.4-1.8,0.7-2.9,0.7
		C319.4,150.5,318.3,150.3,317.4,149.7z"/>
	<path class="st45" d="M337.2,140.2h-4.4v10.2h-2.2v-10.2h-4.4v-1.9h11V140.2z"/>
	<path class="st45" d="M350,147.1c0,1.1-0.4,1.9-1.2,2.5c-0.8,0.6-2,0.9-3.6,0.9h-5.8v-12.1h5.6c1.4,0,2.5,0.3,3.3,0.8
		c0.8,0.5,1.2,1.3,1.2,2.3c0,0.6-0.2,1.2-0.5,1.7s-0.8,0.8-1.4,1.1C349.2,144.5,350,145.5,350,147.1z M341.6,143.5h3.3
		c0.8,0,1.5-0.2,1.9-0.5c0.4-0.3,0.6-0.7,0.6-1.3c0-1.2-0.9-1.7-2.5-1.7h-3.3V143.5z M347.1,148.3c0.5-0.3,0.7-0.7,0.7-1.3
		c0-0.6-0.2-1.1-0.6-1.4s-1.1-0.5-2-0.5h-3.6v3.6h3.5C346,148.7,346.7,148.6,347.1,148.3z"/>
	<path class="st45" d="M361.6,139.4c0.9,0.8,1.3,2,1.3,3.7v7.3h-2.1v-1.6c-0.4,0.6-0.9,1-1.6,1.3s-1.5,0.4-2.4,0.4
		c-1.4,0-2.4-0.3-3.2-1c-0.8-0.7-1.2-1.5-1.2-2.6c0-1.1,0.4-1.9,1.2-2.6c0.8-0.6,2-1,3.7-1h3.5V143c0-0.9-0.3-1.7-0.8-2.2
		c-0.5-0.5-1.4-0.8-2.4-0.8c-0.7,0-1.4,0.1-2.1,0.4c-0.7,0.2-1.3,0.6-1.7,0.9l-0.9-1.6c0.6-0.5,1.4-0.9,2.2-1.1
		c0.9-0.3,1.8-0.4,2.8-0.4C359.4,138.2,360.7,138.6,361.6,139.4z M359.4,148.3c0.6-0.4,1-0.9,1.3-1.6V145h-3.4
		c-1.9,0-2.8,0.6-2.8,1.9c0,0.6,0.2,1.1,0.7,1.4c0.5,0.3,1.1,0.5,2,0.5C358.1,148.8,358.8,148.7,359.4,148.3z"/>
	<path class="st45" d="M381.4,145.1c0.4,0.5,0.7,1.1,0.7,1.8c0,0.7-0.2,1.3-0.7,1.9s-1.2,1-2,1.3c-0.9,0.3-1.8,0.5-2.9,0.5
		c-0.9,0-1.8-0.1-2.6-0.4c-0.9-0.2-1.6-0.6-2.3-1l0.7-1.7c0.6,0.4,1.2,0.6,2,0.9s1.5,0.3,2.3,0.3c1,0,1.9-0.2,2.5-0.5
		c0.6-0.4,0.9-0.8,0.9-1.4c0-0.6-0.2-1-0.7-1.3c-0.5-0.3-1.2-0.5-2.1-0.5h-2.2v-1.6h2c0.8,0,1.5-0.1,1.9-0.4s0.7-0.7,0.7-1.2
		c0-0.5-0.3-1-0.8-1.3c-0.6-0.3-1.3-0.5-2.2-0.5c-1.2,0-2.5,0.3-3.8,0.9l-0.6-1.7c1.5-0.7,3-1.1,4.6-1.1c1,0,1.8,0.1,2.6,0.4
		c0.8,0.3,1.4,0.7,1.8,1.2c0.4,0.5,0.7,1.1,0.7,1.7c0,0.6-0.2,1.1-0.6,1.6c-0.4,0.5-0.9,0.8-1.6,1.1
		C380.3,144.3,380.9,144.7,381.4,145.1z"/>
	<path class="st45" d="M393.5,139.4c0.9,0.8,1.3,2,1.3,3.7v7.3h-2.1v-1.6c-0.4,0.6-0.9,1-1.6,1.3s-1.5,0.4-2.4,0.4
		c-1.4,0-2.4-0.3-3.2-1c-0.8-0.7-1.2-1.5-1.2-2.6c0-1.1,0.4-1.9,1.2-2.6c0.8-0.6,2-1,3.7-1h3.5V143c0-0.9-0.3-1.7-0.8-2.2
		c-0.5-0.5-1.4-0.8-2.4-0.8c-0.7,0-1.4,0.1-2.1,0.4c-0.7,0.2-1.3,0.6-1.7,0.9l-0.9-1.6c0.6-0.5,1.4-0.9,2.2-1.1
		c0.9-0.3,1.8-0.4,2.8-0.4C391.3,138.2,392.6,138.6,393.5,139.4z M391.3,148.3c0.6-0.4,1-0.9,1.3-1.6V145h-3.4
		c-1.9,0-2.8,0.6-2.8,1.9c0,0.6,0.2,1.1,0.7,1.4c0.5,0.3,1.1,0.5,2,0.5C390,148.8,390.7,148.7,391.3,148.3z"/>
</g>
<g>
	<path class="st45" d="M243,158.5v18.3h-4.2v-14.8h-6.3l-0.1,3.8c-0.1,2.6-0.3,4.7-0.6,6.3c-0.3,1.6-0.9,2.8-1.7,3.7
		c-0.8,0.9-1.9,1.3-3.2,1.3c-0.6,0-1.3-0.1-2.1-0.3l0.3-3.6c0.2,0.1,0.5,0.1,0.8,0.1c1,0,1.7-0.6,2.1-1.8c0.4-1.2,0.7-3.1,0.8-5.6
		l0.3-7.4H243z"/>
	<path class="st45" d="M261.7,173.4v3.4h-14.1v-18.3h13.8v3.4h-9.6v4h8.5v3.3h-8.5v4.2H261.7z"/>
	<path class="st45" d="M280.2,158.5v18.3H276v-6.6c-1.6,0.6-3.1,0.9-4.4,0.9c-2.5,0-4.3-0.6-5.6-1.8s-2-2.9-2-5.1v-5.7h4.2v5.2
		c0,1.3,0.3,2.2,1,2.8c0.7,0.6,1.6,1,2.9,1c1.4,0,2.7-0.3,3.9-0.8v-8.2H280.2z"/>
	<path class="st45" d="M298.8,173.4v3.4h-14.1v-18.3h13.8v3.4h-9.6v4h8.5v3.3h-8.5v4.2H298.8z"/>
	<path class="st45" d="M319,158.5v18.3h-4.2v-7.5h-8.3v7.5h-4.2v-18.3h4.2v7.2h8.3v-7.2H319z"/>
	<path class="st45" d="M323.6,158.5h4.2v11.9l8.7-11.9h4v18.3h-4.2v-11.9l-8.7,11.9h-4V158.5z"/>
	<path class="st45" d="M359.1,173.4v3.4H345v-18.3h13.8v3.4h-9.6v4h8.5v3.3h-8.5v4.2H359.1z"/>
</g>
<g>
	<polygon class="st46" points="316.8,36.3 290.6,36.3 290.6,9.9 265.2,9.9 265.2,36.3 238.8,36.3 238.8,61.9 265.2,61.9 265.2,88.3 
		290.6,88.3 290.6,61.9 316.8,61.9 	"/>
	
		<radialGradient id="SVGID_9_" cx="65.782" cy="2399.5793" r="129.2727" gradientTransform="matrix(0.296 0 0 5.423031e-02 260.9267 -34.1638)" gradientUnits="userSpaceOnUse">
		<stop  offset="0.1034" style="stop-color:#E0E3E2"/>
		<stop  offset="0.2677" style="stop-color:#E9EBEA"/>
		<stop  offset="0.684" style="stop-color:#F9FAFA"/>
		<stop  offset="1" style="stop-color:#FFFFFF"/>
	</radialGradient>
	<ellipse class="st28" cx="280.4" cy="96" rx="54" ry="5.9"/>
</g>
<path class="st9" d="M324.4,9.8c0,0-1.3,12.6-11.3,13.5c10,0.9,11.3,13.5,11.3,13.5s1.3-12.6,11.3-13.5
	C325.7,22.4,324.4,9.8,324.4,9.8z"/>
<path class="st9" d="M343.7,34c0,0-0.8,7.9-7,8.5c6.2,0.5,7,8.5,7,8.5s0.8-7.9,7-8.5C344.5,41.9,343.7,34,343.7,34z"/>
<path class="st48" d="M562,713.1l89.9,40.5l-90.1,40.9l0.2-35l71.7-5.5l-71.9-5.7C561.9,748.2,561.8,713,562,713.1z"/>
<path class="st49" d="M223.6,1031c14.8,20.6,34.8,35.6,57.8,48.6c5,3,10,4,15,6c15,6,29,10,44,15c15,4,31,5,46,6c41,2,81-6,122-16
	c23-6,44-12,65-21c6-3,11-4,17-7c16-7,33-13,49-23c8-5,15-8,23-13c5-3,10-6,15.1-9.3"/>
<path class="st49" d="M531.7,739.4c-107.3-4.8-219.3,28.2-299,101.3"/>
<path class="st49" d="M873.6,568.9c5.8,1.7,10.8,3.7,16.8,6.7c3,2,6,2,9,3c18,9,74.8,45.6,106,101c1.6,2.8,1,5,2,8c6,13,11,27,10,42
	c-2,28-18,52-43,66c-1,1-3.1,1.9-4.1,1.9c-58,26-121.9,19.1-183.9,13.1c-14-2-48-11-51-13c-15-5-29-11-44-18c-6-2-11-4-16.6-6.4"/>
<path class="st49" d="M314.2,702c7.2-2.5,26.2-12.4,34.2-16.4c46-24,90-49,138-71c2-1,3,0,5-1c62-26,126-51,194-55c3-1,5-3,8.4-3"/>
<path class="st49" d="M239.2,474.8c-0.8,0.8-2.8,1.8-3.8,1.8c-11,2-20,6-31,9c-2,0-5,0-7,1c-33,15-68,30-86,64c-2,3-2,7-3,10
	c-13,33-2,70,18.6,96.6"/>
<path class="st49" d="M826.5,446.9c-16.8,10.3-34.4,19.4-52.1,27.8c-4,2-7,2-11,3c-44,19-90,26-138,18c-28-4-54-10-79-23
	c-15-8-29-16-40-30c-1-2-3-5-5-7c-29-44,4-97,45-118c15-7,30-11,46-9c24,3,43,16,58,36c1,1,1,3,2,4c18,19,18,49,7,72
	c-4,8-11,15-16,23c-5,6-12,9-17,15c-1,1-2,0-3,1c-42,36-98,52-152,37c-35-10-69-22-103.8-28.7"/>
<path class="st49" d="M709.8,158c53.6,9.7,107.6,21.7,157.6,48.7c21,12,40,26,53.5,45.2"/>
<path class="st49" d="M211,295.9c11.4-9.3,22.4-17.3,34.4-26.3c11-7,20-14,31-21c98-61,202-98,313.7-100.7"/>
<path class="st49" d="M588.2,139.7c-39.8,0.3-95.9-3.9-159.1-24.5c-41.2-13.4-75.2-30.4-101.5-46.1"/>
<radialGradient id="SVGID_10_" cx="-1082.8209" cy="5791.8013" r="129.2727" gradientTransform="matrix(0.5538 0 0 4.348000e-02 770.7068 527.6001)" gradientUnits="userSpaceOnUse">
	<stop  offset="0.1034" style="stop-color:#E0E3E2"/>
	<stop  offset="0.2677" style="stop-color:#E9EBEA"/>
	<stop  offset="0.684" style="stop-color:#F9FAFA"/>
	<stop  offset="1" style="stop-color:#FFFFFF"/>
</radialGradient>
<ellipse class="st31" cx="171" cy="779.4" rx="101.1" ry="4.7"/>
</svg>
