<svg xmlns="http://www.w3.org/2000/svg" xmlns:xlink="http://www.w3.org/1999/xlink" viewBox="0 0 303.68 1046.68">
	<defs>
		<style>.cls-1{isolation:isolate;}.cls-13,.cls-16,.cls-19,.cls-2,.cls-21,.cls-23,.cls-24,.cls-26,.cls-27,.cls-29,.cls-30,.cls-32,.cls-4{fill:none;}.cls-19,.cls-2,.cls-26{stroke:#ff7db9;}.cls-13,.cls-19,.cls-2,.cls-21,.cls-24,.cls-27,.cls-30,.cls-32{stroke-linecap:round;}.cls-13,.cls-19,.cls-2,.cls-21,.cls-23,.cls-24,.cls-26,.cls-27,.cls-32{stroke-linejoin:round;}.cls-2{stroke-width:1.48px;stroke-dasharray:2.95 5.41;}.cls-3{fill:#3fa9f5;}.cls-13,.cls-16,.cls-21,.cls-23,.cls-29,.cls-30,.cls-32,.cls-4{stroke:#ffcb57;}.cls-16,.cls-29,.cls-30,.cls-4{stroke-miterlimit:10;}.cls-4{stroke-width:1.66px;}.cls-5{fill:#ffcb57;}.cls-12,.cls-15,.cls-17,.cls-18,.cls-31,.cls-33,.cls-34,.cls-35,.cls-6,.cls-7,.cls-8{mix-blend-mode:darken;opacity:0.9;}.cls-6{fill:url(#radial-gradient);}.cls-7{fill:url(#radial-gradient-2);}.cls-8{fill:url(#radial-gradient-3);}.cls-9{fill:#fff9db;}.cls-10,.cls-14,.cls-26,.cls-27,.cls-9{mix-blend-mode:multiply;}.cls-11{fill:#ffd7e9;}.cls-12{fill:url(#radial-gradient-4);}.cls-13{stroke-width:1.66px;}.cls-14{fill:#d8f2ff;}.cls-15{fill:url(#radial-gradient-5);}.cls-16{stroke-width:1.42px;}.cls-17{fill:url(#radial-gradient-6);}.cls-18{fill:url(#radial-gradient-7);}.cls-19,.cls-21,.cls-23,.cls-26{stroke-width:2.25px;}.cls-20{fill:#ff7db9;}.cls-22{fill:#ffcb00;}.cls-24,.cls-27{stroke:#49c4ff;}.cls-24{stroke-width:1.77px;}.cls-25{fill:#49c4ff;}.cls-27{stroke-width:1.73px;}.cls-28{fill:#32a9fe;}.cls-29,.cls-30,.cls-32{stroke-width:1.4px;}.cls-31{fill:url(#radial-gradient-8);}.cls-33{fill:url(#radial-gradient-9);}.cls-34{fill:url(#radial-gradient-10);}.cls-35{fill:url(#radial-gradient-11);}</style>
		<radialGradient id="radial-gradient" cx="199.29" cy="4690.11" r="59.46" gradientTransform="translate(144.38 221.08) scale(0.55 0.04)" gradientUnits="userSpaceOnUse">
			<stop offset="0.1" stop-color="#e0e3e2" />
			<stop offset="0.27" stop-color="#e9ebea" />
			<stop offset="0.68" stop-color="#f9fafa" />
			<stop offset="1" stop-color="#fff" />
		</radialGradient>
		<radialGradient id="radial-gradient-2" cx="265.29" cy="2911.32" r="59.46" gradientTransform="translate(64.39 484.8) scale(0.64 0.06)" xlink:href="#radial-gradient" />
		<radialGradient id="radial-gradient-3" cx="110.04" cy="5732.22" r="59.46" gradientTransform="translate(144.38 628.88) scale(0.55 0.04)" xlink:href="#radial-gradient" />
		<radialGradient id="radial-gradient-4" cx="-133.84" cy="5382.49" r="59.46" gradientTransform="translate(144.38 492.02) scale(0.55 0.04)" xlink:href="#radial-gradient" />
		<radialGradient id="radial-gradient-5" cx="-106.04" cy="5101.94" r="59.04" gradientTransform="translate(144.38 382.24) scale(0.55 0.04)" xlink:href="#radial-gradient" />
		<radialGradient id="radial-gradient-6" cx="2822.5" cy="2265.12" r="59.46" gradientTransform="translate(-727.31 1.11) scale(0.3 0.05)" xlink:href="#radial-gradient" />
		<radialGradient id="radial-gradient-7" cx="-26.4" cy="6103.43" r="72.68" gradientTransform="translate(144.38 774.14) scale(0.55 0.04)" xlink:href="#radial-gradient" />
		<radialGradient id="radial-gradient-8" cx="323.29" cy="3850.38" r="60.87" gradientTransform="translate(62.57 -107.52) scale(0.49 0.04)" xlink:href="#radial-gradient" />
		<radialGradient id="radial-gradient-9" cx="-148.89" cy="2464.51" r="59.46" gradientTransform="translate(121.55 98.42) scale(0.5 0.05)" xlink:href="#radial-gradient" />
		<radialGradient id="radial-gradient-10" cx="156.35" cy="4382.98" r="59.46" gradientTransform="translate(144.38 100.9) scale(0.55 0.04)" xlink:href="#radial-gradient" />
		<radialGradient id="radial-gradient-11" cx="-149.76" cy="4624.26" r="59.46" gradientTransform="translate(144.38 195.31) scale(0.55 0.04)" xlink:href="#radial-gradient" />
	</defs>
	<g class="cls-1">
		<g id="Layer_1" data-name="Layer 1">
			<g id="EN_mobile" data-name="EN mobile">
				<path class="cls-2" d="M225.53,95.47c-.76,23.59,0,63.11,11.35,105.47a261.06,261.06,0,0,0,22.17,56.73" />
				<path class="cls-3" d="M226.51,440.15h-3.69l-.71,1.8h-1.88l3.54-8.4h1.82l3.56,8.4h-1.93Zm-.58-1.47-1.26-3.22-1.26,3.22Z" />
				<path class="cls-3" d="M235.14,433.93a2.74,2.74,0,0,1,1.2,1.05,3.33,3.33,0,0,1,0,3.24,2.68,2.68,0,0,1-1.2,1,4.18,4.18,0,0,1-1.83.37H231.7V442h-1.84v-8.4h3.45A4.18,4.18,0,0,1,235.14,433.93Zm-.67,3.75a1.39,1.39,0,0,0,.43-1.08,1.38,1.38,0,0,0-.43-1.08,1.84,1.84,0,0,0-1.27-.38h-1.5v2.91h1.5A1.89,1.89,0,0,0,234.47,437.68Z" />
				<path class="cls-3" d="M243.23,433.93a2.74,2.74,0,0,1,1.2,1.05,3.33,3.33,0,0,1,0,3.24,2.68,2.68,0,0,1-1.2,1,4.18,4.18,0,0,1-1.83.37h-1.61V442H238v-8.4h3.45A4.18,4.18,0,0,1,243.23,433.93Zm-.67,3.75a1.39,1.39,0,0,0,.43-1.08,1.38,1.38,0,0,0-.43-1.08,1.84,1.84,0,0,0-1.27-.38h-1.5v2.91h1.5A1.89,1.89,0,0,0,242.56,437.68Z" />
				<path class="cls-3" d="M251.11,442l-1.53-2.34h-1.7V442H246v-8.4h3.45a4.18,4.18,0,0,1,1.83.38,2.74,2.74,0,0,1,1.2,1.05,3.33,3.33,0,0,1,0,3.24,2.78,2.78,0,0,1-1.21,1l1.78,2.7Zm-.46-6.43a1.84,1.84,0,0,0-1.27-.38h-1.5v2.93h1.5a1.84,1.84,0,0,0,1.27-.39,1.57,1.57,0,0,0,0-2.16Z" />
				<path class="cls-3" d="M255.9,441.53a4.07,4.07,0,0,1-1.56-1.55,4.7,4.7,0,0,1,0-4.45A4.17,4.17,0,0,1,255.9,434a4.72,4.72,0,0,1,4.46,0,4.17,4.17,0,0,1,1.56,1.56,4.63,4.63,0,0,1,0,4.45,4.07,4.07,0,0,1-1.56,1.55,4.65,4.65,0,0,1-4.46,0Zm3.51-1.43a2.47,2.47,0,0,0,.89-1,3,3,0,0,0,.32-1.4,3,3,0,0,0-.32-1.39,2.4,2.4,0,0,0-.89-.95,2.43,2.43,0,0,0-1.28-.34,2.39,2.39,0,0,0-1.27.34,2.33,2.33,0,0,0-.89.95,2.88,2.88,0,0,0-.32,1.39,2.92,2.92,0,0,0,.32,1.4,2.38,2.38,0,0,0,2.16,1.29A2.43,2.43,0,0,0,259.41,440.1Z" />
				<path class="cls-3" d="M271.14,433.55,267.7,442h-1.82l-3.43-8.4h2l2.42,6,2.45-6Z" />
				<path class="cls-3" d="M276.67,440.15H273l-.7,1.8h-1.89l3.55-8.4h1.82l3.55,8.4h-1.93Zm-.58-1.47-1.26-3.22-1.27,3.22Z" />
				<path class="cls-3" d="M280,433.55h1.84v6.82h4V442H280Z" />
				<circle class="cls-4" cx="251.9" cy="399.01" r="21.47" />
				<path class="cls-5" d="M246.16,410.41h-1.82V397.84l.21-.2a21.8,21.8,0,0,0,3.45-4.95l.65-1.12,0,0a6.15,6.15,0,0,0,.37-3,4.57,4.57,0,0,1,.28-2.33,1.72,1.72,0,0,1,1.26-.74,2.43,2.43,0,0,1,2.5,1.37c1.53,3.07,1.17,5,.67,7.64-.07.36-.14.74-.21,1.13,1,0,2.1,0,3.13,0s2.33,0,3.5,0a3.37,3.37,0,0,1,2.58.89,1.77,1.77,0,0,1,.35,1.49,2.74,2.74,0,0,1-1.09,1.85,1.91,1.91,0,0,1,.5,1.6,2.77,2.77,0,0,1-1.08,1.81,1.91,1.91,0,0,1,.48,1.36,2.65,2.65,0,0,1-1.1,2.07,1.74,1.74,0,0,1,.37,1.61,3.13,3.13,0,0,1-2.94,2.15Zm-.45-1.37h12.52a1.77,1.77,0,0,0,1.62-1.1c0-.1.09-.34-.33-.59a.83.83,0,0,1-.59-.89.89.89,0,0,1,.81-.77,1.3,1.3,0,0,0,.8-1.13.58.58,0,0,0-.47-.62l-.05,0,0,0a.8.8,0,0,1-.45-.92,1,1,0,0,1,.81-.7,1.4,1.4,0,0,0,.82-1,.55.55,0,0,0-.29-.6l0,0-.05,0a1.11,1.11,0,0,1-.64-.57l0,0v-.06a.84.84,0,0,1,.48-.95l.06,0,.07,0a1.31,1.31,0,0,0,1-1.18h0c0-.27,0-.36-.06-.4s-.5-.35-1.56-.38-2.31,0-3.44,0c-1.31,0-2.66,0-4,0l-.76,0,.11-.76c.12-.71.24-1.36.35-1.94.48-2.56.78-4.11-.54-6.77a1.09,1.09,0,0,0-1.1-.62.43.43,0,0,0-.28.11,6,6,0,0,0-.06,1.56c0,1.32.07,2.82-.6,3.82l-.63,1.1a24,24,0,0,1-3.48,5Z" />
				<path class="cls-5" d="M244.51,410.41h-2.67a1.18,1.18,0,0,1-1.18-1.18V398.62a1.18,1.18,0,0,1,1.18-1.18h2.67a1.17,1.17,0,0,1,1.17,1.18v10.61A1.17,1.17,0,0,1,244.51,410.41ZM242,409h2.27V398.82H242Z" />
				<ellipse class="cls-6" cx="254.75" cy="425.01" rx="46.49" ry="2.18" />
				<path class="cls-3" d="M190.11,669.79v2.13h3.38V673h-3.38v2.68h-1.3v-7h5.11v1.09Z" />
				<path class="cls-3" d="M200,670.36v5.34h-1.19V675a2,2,0,0,1-.75.56,2.4,2.4,0,0,1-1,.19,2.34,2.34,0,0,1-1.68-.59,2.37,2.37,0,0,1-.62-1.77v-3h1.25v2.88a1.55,1.55,0,0,0,.33,1.08,1.19,1.19,0,0,0,.92.35,1.44,1.44,0,0,0,1.07-.41,1.7,1.7,0,0,0,.39-1.2v-2.7Z" />
				<path class="cls-3" d="M206.27,670.89a2.33,2.33,0,0,1,.61,1.75v3.06h-1.25v-2.9a1.49,1.49,0,0,0-.33-1,1.21,1.21,0,0,0-.94-.36,1.44,1.44,0,0,0-1.09.42,1.66,1.66,0,0,0-.4,1.19v2.7h-1.25v-5.34h1.19v.69a2.11,2.11,0,0,1,.78-.56,3,3,0,0,1,1.06-.19A2.22,2.22,0,0,1,206.27,670.89Z" />
				<path class="cls-3" d="M213.7,668.28v7.42h-1.2V675a1.78,1.78,0,0,1-.76.57,2.56,2.56,0,0,1-1,.19,2.77,2.77,0,0,1-1.38-.34,2.49,2.49,0,0,1-1-1A3,3,0,0,1,208,673a2.91,2.91,0,0,1,.35-1.43,2.55,2.55,0,0,1,1-1,2.88,2.88,0,0,1,1.38-.34,2.5,2.5,0,0,1,1,.18,1.86,1.86,0,0,1,.75.54v-2.74Zm-2,6.22a1.47,1.47,0,0,0,.57-.59,1.76,1.76,0,0,0,.21-.88,1.82,1.82,0,0,0-.21-.88,1.45,1.45,0,0,0-.57-.58,1.67,1.67,0,0,0-1.62,0,1.45,1.45,0,0,0-.57.58,1.82,1.82,0,0,0-.21.88,1.76,1.76,0,0,0,.21.88,1.47,1.47,0,0,0,.57.59,1.74,1.74,0,0,0,1.62,0Z" />
				<path class="cls-3" d="M218.38,670.3v1.19l-.29,0a1.51,1.51,0,0,0-1.14.43,1.7,1.7,0,0,0-.41,1.22v2.59h-1.25v-5.34h1.19v.78A2.09,2.09,0,0,1,218.38,670.3Z" />
				<path class="cls-3" d="M223.21,670.87a2.18,2.18,0,0,1,.62,1.7v3.13h-1.18v-.65a1.45,1.45,0,0,1-.65.54,2.67,2.67,0,0,1-1,.18,2.62,2.62,0,0,1-1.05-.2,1.63,1.63,0,0,1-.69-.57,1.42,1.42,0,0,1-.25-.83,1.4,1.4,0,0,1,.54-1.15,2.64,2.64,0,0,1,1.68-.44h1.38v-.08a1.11,1.11,0,0,0-.33-.86,1.48,1.48,0,0,0-1-.3,2.94,2.94,0,0,0-.88.14,2.47,2.47,0,0,0-.74.39l-.49-.91a3.28,3.28,0,0,1,1-.49,4.66,4.66,0,0,1,1.25-.17A2.6,2.6,0,0,1,223.21,670.87Zm-1.14,3.78a1.2,1.2,0,0,0,.51-.62v-.62h-1.29c-.72,0-1.08.24-1.08.71a.63.63,0,0,0,.27.54,1.19,1.19,0,0,0,.75.2A1.66,1.66,0,0,0,222.07,674.65Z" />
				<path class="cls-3" d="M225.44,669.27a.73.73,0,0,1-.23-.54.7.7,0,0,1,.23-.53.86.86,0,0,1,1.14,0,.63.63,0,0,1,.23.51.76.76,0,0,1-.22.56.78.78,0,0,1-.58.22A.84.84,0,0,1,225.44,669.27Zm-.06,1.09h1.25v5.34h-1.25Z" />
				<path class="cls-3" d="M228.6,675.6a3,3,0,0,1-1-.43l.48-.95a3.18,3.18,0,0,0,.87.39,3.81,3.81,0,0,0,1,.14c.75,0,1.12-.19,1.12-.59a.4.4,0,0,0-.28-.39,5.63,5.63,0,0,0-.92-.21,6.08,6.08,0,0,1-1.07-.23,1.6,1.6,0,0,1-.72-.45,1.26,1.26,0,0,1-.31-.91,1.41,1.41,0,0,1,.64-1.21,2.82,2.82,0,0,1,1.71-.46,4.53,4.53,0,0,1,1.1.13,2.93,2.93,0,0,1,.9.33l-.48,1a3,3,0,0,0-1.53-.4,1.69,1.69,0,0,0-.83.17.49.49,0,0,0-.29.43.44.44,0,0,0,.31.43,4.91,4.91,0,0,0,.94.23,8.66,8.66,0,0,1,1,.23,1.74,1.74,0,0,1,.71.44,1.26,1.26,0,0,1,.29.88,1.38,1.38,0,0,1-.65,1.2,3.05,3.05,0,0,1-1.77.45A4.57,4.57,0,0,1,228.6,675.6Z" />
				<path class="cls-3" d="M233.38,669.27a.73.73,0,0,1-.23-.54.7.7,0,0,1,.23-.53.86.86,0,0,1,1.14,0,.63.63,0,0,1,.23.51.76.76,0,0,1-.22.56.78.78,0,0,1-.58.22A.84.84,0,0,1,233.38,669.27Zm-.06,1.09h1.25v5.34h-1.25Z" />
				<path class="cls-3" d="M240.81,670.89a2.33,2.33,0,0,1,.61,1.75v3.06h-1.25v-2.9a1.49,1.49,0,0,0-.33-1,1.21,1.21,0,0,0-.94-.36,1.44,1.44,0,0,0-1.09.42,1.62,1.62,0,0,0-.4,1.19v2.7h-1.25v-5.34h1.19v.69a2.11,2.11,0,0,1,.78-.56,3,3,0,0,1,1.06-.19A2.22,2.22,0,0,1,240.81,670.89Z" />
				<path class="cls-3" d="M248.31,670.36v4.53q0,2.82-2.88,2.82a5.36,5.36,0,0,1-1.46-.19,3.05,3.05,0,0,1-1.14-.57l.56-.94a2.59,2.59,0,0,0,.89.47,3.64,3.64,0,0,0,1.08.17,1.77,1.77,0,0,0,1.29-.4,1.59,1.59,0,0,0,.41-1.22v-.28a1.94,1.94,0,0,1-.78.53,2.71,2.71,0,0,1-1,.18,3,3,0,0,1-1.37-.32,2.39,2.39,0,0,1-1-.92,2.69,2.69,0,0,1,0-2.69,2.43,2.43,0,0,1,1-.91,3.07,3.07,0,0,1,2.43-.13,2,2,0,0,1,.79.58v-.71ZM246.63,674a1.46,1.46,0,0,0,.45-1.11,1.43,1.43,0,0,0-.45-1.09,1.68,1.68,0,0,0-1.17-.42,1.65,1.65,0,0,0-1.17.42,1.41,1.41,0,0,0-.46,1.09,1.43,1.43,0,0,0,.46,1.11,1.65,1.65,0,0,0,1.17.42A1.68,1.68,0,0,0,246.63,674Z" />
				<path class="cls-3" d="M254,670.08v.32h1.47v1H254v4.3h-1.25v-4.3h-.88v-1h.88v-.34a1.83,1.83,0,0,1,.5-1.35,1.91,1.91,0,0,1,1.41-.5,2,2,0,0,1,1.13.29l-.35.94a1.23,1.23,0,0,0-.69-.22C254.25,669.22,254,669.51,254,670.08Z" />
				<path class="cls-3" d="M260.14,670.3v1.19l-.29,0a1.51,1.51,0,0,0-1.14.43,1.7,1.7,0,0,0-.41,1.22v2.59h-1.25v-5.34h1.19v.78A2.09,2.09,0,0,1,260.14,670.3Z" />
				<path class="cls-3" d="M262,675.42a2.55,2.55,0,0,1-1-1,2.89,2.89,0,0,1,0-2.83,2.62,2.62,0,0,1,1-1,3.24,3.24,0,0,1,2.93,0,2.72,2.72,0,0,1,1,1,3,3,0,0,1,0,2.83,2.64,2.64,0,0,1-1,1,3.24,3.24,0,0,1-2.93,0Zm2.6-1.18a1.85,1.85,0,0,0,0-2.42,1.55,1.55,0,0,0-1.14-.46,1.51,1.51,0,0,0-1.13.46,1.85,1.85,0,0,0,0,2.42,1.48,1.48,0,0,0,1.13.46A1.51,1.51,0,0,0,264.64,674.24Z" />
				<path class="cls-3" d="M275.84,670.89a2.37,2.37,0,0,1,.59,1.75v3.06h-1.25v-2.9a1.53,1.53,0,0,0-.31-1,1.11,1.11,0,0,0-.89-.36,1.31,1.31,0,0,0-1,.42,1.69,1.69,0,0,0-.38,1.18v2.71h-1.25v-2.9a1.53,1.53,0,0,0-.31-1,1.11,1.11,0,0,0-.89-.36,1.3,1.3,0,0,0-1,.41,1.72,1.72,0,0,0-.38,1.19v2.71H267.5v-5.34h1.19V671a2,2,0,0,1,.75-.55,2.66,2.66,0,0,1,1-.19,2.44,2.44,0,0,1,1.07.23,1.73,1.73,0,0,1,.73.66,2.2,2.2,0,0,1,.85-.65,2.72,2.72,0,0,1,1.15-.24A2.18,2.18,0,0,1,275.84,670.89Z" />
				<path class="cls-3" d="M188.81,679.19h3.62a4.83,4.83,0,0,1,2.29.52,3.76,3.76,0,0,1,1.54,1.47,4.72,4.72,0,0,1,0,4.42,3.76,3.76,0,0,1-1.54,1.47,4.83,4.83,0,0,1-2.29.52h-3.62Zm3.53,6.8a2.6,2.6,0,1,0,0-5.2h-1.68V686Z" />
				<path class="cls-3" d="M199.71,687.17a4,4,0,0,1-1.56-1.55,4.72,4.72,0,0,1,0-4.46,4,4,0,0,1,1.56-1.55,4.72,4.72,0,0,1,4.46,0,4.12,4.12,0,0,1,1.55,1.55,4.65,4.65,0,0,1,0,4.46,4.12,4.12,0,0,1-1.55,1.55,4.72,4.72,0,0,1-4.46,0Zm3.5-1.43a2.36,2.36,0,0,0,.89-1,3.09,3.09,0,0,0,0-2.78,2.36,2.36,0,0,0-.89-1,2.54,2.54,0,0,0-2.54,0,2.45,2.45,0,0,0-.9,1,3.18,3.18,0,0,0,0,2.78,2.45,2.45,0,0,0,.9,1,2.54,2.54,0,0,0,2.54,0Z" />
				<path class="cls-3" d="M214.86,679.19v8.4h-1.51l-4-5.1v5.1h-1.82v-8.4h1.53l3.95,5.1v-5.1Z" />
				<path class="cls-3" d="M218.25,687.17a4.15,4.15,0,0,1-1.56-1.55,4.72,4.72,0,0,1,0-4.46,4.15,4.15,0,0,1,1.56-1.55,4.72,4.72,0,0,1,4.46,0,4.15,4.15,0,0,1,1.56,1.55,4.65,4.65,0,0,1,0,4.46,4.15,4.15,0,0,1-1.56,1.55,4.72,4.72,0,0,1-4.46,0Zm3.51-1.43a2.5,2.5,0,0,0,.89-1,3.18,3.18,0,0,0,0-2.78,2.49,2.49,0,0,0-3.44-1,2.36,2.36,0,0,0-.89,1,3.18,3.18,0,0,0,0,2.78,2.36,2.36,0,0,0,.89,1,2.49,2.49,0,0,0,1.27.34A2.52,2.52,0,0,0,221.76,685.74Z" />
				<path class="cls-3" d="M231.18,687.59l-1.54-2.34H228v2.34h-1.84v-8.4h3.44a4.2,4.2,0,0,1,1.84.37,2.79,2.79,0,0,1,1.19,1.06,2.92,2.92,0,0,1,.43,1.62,3,3,0,0,1-.43,1.61,2.75,2.75,0,0,1-1.21,1l1.78,2.7Zm-.47-6.44a1.88,1.88,0,0,0-1.26-.38H228v2.93h1.5a1.88,1.88,0,0,0,1.26-.38,1.58,1.58,0,0,0,0-2.17Z" />
				<path class="cls-3" d="M235.14,687.46a4.18,4.18,0,0,1-1.42-.7l.63-1.46a4.19,4.19,0,0,0,1.21.63,4.35,4.35,0,0,0,1.41.24,2.21,2.21,0,0,0,1.16-.24.75.75,0,0,0,.37-.66.61.61,0,0,0-.22-.49,1.42,1.42,0,0,0-.57-.32q-.35-.12-.93-.27a12.58,12.58,0,0,1-1.49-.45,2.47,2.47,0,0,1-1-.73,2.11,2.11,0,0,1-.41-1.35,2.39,2.39,0,0,1,.37-1.32,2.59,2.59,0,0,1,1.14-1,4.38,4.38,0,0,1,1.84-.34,5.69,5.69,0,0,1,1.49.19,4.32,4.32,0,0,1,1.27.55l-.56,1.48a4.28,4.28,0,0,0-2.21-.66,1.94,1.94,0,0,0-1.14.26.82.82,0,0,0-.37.7.68.68,0,0,0,.43.64,5.89,5.89,0,0,0,1.3.41,13,13,0,0,1,1.49.46,2.48,2.48,0,0,1,1,.72,2,2,0,0,1,.41,1.33,2.31,2.31,0,0,1-.38,1.31,2.59,2.59,0,0,1-1.14.95,4.46,4.46,0,0,1-1.85.34A6.12,6.12,0,0,1,235.14,687.46Z" />
				<path class="cls-5" d="M236.3,641.39a8.18,8.18,0,1,0-9,0,13.11,13.11,0,0,0-8.57,12.27h2.18a10.91,10.91,0,1,1,21.81,0h2.18A13.1,13.1,0,0,0,236.3,641.39Zm-4.51-.82a6,6,0,1,1,6-6A6,6,0,0,1,231.79,640.57Z" />
				<path class="cls-5" d="M247.21,635.94a8.17,8.17,0,1,0-10.15-12.73,8.54,8.54,0,0,0-1.4,1.76,10.5,10.5,0,0,1,1.93,1,6.15,6.15,0,0,1,1.46-1.63,6,6,0,1,1,5.27,10.52,5.82,5.82,0,0,1-1.62.23,5.17,5.17,0,0,1-.57,0,10.64,10.64,0,0,1-.37,2.28c.31,0,.62-.07.94-.07a11.2,11.2,0,0,1,1.3.09,10.92,10.92,0,0,1,9.6,10.82h2.18A13.1,13.1,0,0,0,247.21,635.94Z" />
				<path class="cls-5" d="M220.89,637.3c.32,0,.62,0,.94.07a10.06,10.06,0,0,1-.37-2.28l-.57,0a5.77,5.77,0,0,1-1.62-.23,6,6,0,0,1,1.62-11.76A6,6,0,0,1,226,626a10.5,10.5,0,0,1,1.93-1,7.92,7.92,0,0,0-1.4-1.76,8.17,8.17,0,1,0-10.14,12.73,13.09,13.09,0,0,0-8.58,12.27H210a10.92,10.92,0,0,1,9.6-10.82A11.22,11.22,0,0,1,220.89,637.3Z" />
				<path class="cls-5" d="M254.84,628.31a8.17,8.17,0,1,0-11.54-11,11,11,0,0,1,1.92,1,5.84,5.84,0,0,1,1.47-1.62,5.94,5.94,0,0,1,3.64-1.25,6,6,0,0,1,2.49,11.44,8.4,8.4,0,0,1,.15,1.59,8.81,8.81,0,0,1-.13,1.46,10.9,10.9,0,0,1,8.4,10.59h2.18A13.09,13.09,0,0,0,254.84,628.31Z" />
				<path class="cls-5" d="M210.61,628.52a9.31,9.31,0,0,1,.15-1.59,6,6,0,1,1,6.14-10.19,5.8,5.8,0,0,1,1.46,1.62,11.1,11.1,0,0,1,1.93-1,8.54,8.54,0,0,0-1.4-1.76,8.17,8.17,0,1,0-10.15,12.73,13.09,13.09,0,0,0-8.57,12.26h2.18A10.9,10.9,0,0,1,210.74,630,10,10,0,0,1,210.61,628.52Z" />
				<path class="cls-5" d="M231.79,615.49a6,6,0,0,1,5.86,4.87,6.94,6.94,0,0,1,2.06-.88,8.17,8.17,0,0,0-15.84,0,6.82,6.82,0,0,1,2.06.88A6,6,0,0,1,231.79,615.49Z" />
				<ellipse class="cls-7" cx="233.85" cy="660.79" rx="53.62" ry="3.03" />
				<path class="cls-3" d="M182.16,891.36a3.44,3.44,0,0,1-1.34-1.28,3.63,3.63,0,0,1-.49-1.85,3.57,3.57,0,0,1,.49-1.85,3.49,3.49,0,0,1,1.35-1.29,4.22,4.22,0,0,1,3.48-.16,3.1,3.1,0,0,1,1.2.87l-.84.79a2.43,2.43,0,0,0-1.87-.82,2.62,2.62,0,0,0-1.29.31,2.28,2.28,0,0,0-.89.88,2.52,2.52,0,0,0-.32,1.27,2.58,2.58,0,0,0,.32,1.27,2.32,2.32,0,0,0,.89.87,2.62,2.62,0,0,0,1.29.32,2.44,2.44,0,0,0,1.87-.83l.84.8a3.1,3.1,0,0,1-1.2.87,4,4,0,0,1-1.58.3A3.94,3.94,0,0,1,182.16,891.36Z" />
				<path class="cls-3" d="M187.93,884.31h1.25v7.42h-1.25Z" />
				<path class="cls-3" d="M195.77,889.46h-4.19a1.48,1.48,0,0,0,.58.93,1.87,1.87,0,0,0,1.15.35,2,2,0,0,0,1.45-.58l.67.77a2.33,2.33,0,0,1-.91.65,3.43,3.43,0,0,1-1.24.22,3.37,3.37,0,0,1-1.55-.35,2.56,2.56,0,0,1-1-1,2.7,2.7,0,0,1-.37-1.41,2.79,2.79,0,0,1,.36-1.41,2.47,2.47,0,0,1,1-1,3.05,3.05,0,0,1,2.82,0,2.42,2.42,0,0,1,1,1,3,3,0,0,1,.34,1.45A2.85,2.85,0,0,1,195.77,889.46Zm-3.69-1.78a1.49,1.49,0,0,0-.51,1h3a1.42,1.42,0,0,0-.49-.94,1.48,1.48,0,0,0-1-.36A1.46,1.46,0,0,0,192.08,887.68Z" />
				<path class="cls-3" d="M200.64,886.89a2.19,2.19,0,0,1,.62,1.71v3.13h-1.18v-.65a1.43,1.43,0,0,1-.65.53,2.67,2.67,0,0,1-1,.19,2.46,2.46,0,0,1-1.05-.21,1.63,1.63,0,0,1-.69-.57,1.47,1.47,0,0,1-.25-.82A1.42,1.42,0,0,1,197,889a2.66,2.66,0,0,1,1.68-.43H200v-.08a1.09,1.09,0,0,0-.33-.86,1.48,1.48,0,0,0-1-.3,2.66,2.66,0,0,0-.88.14,2.09,2.09,0,0,0-.74.39l-.49-.91a2.88,2.88,0,0,1,1-.49,4.29,4.29,0,0,1,1.25-.17A2.6,2.6,0,0,1,200.64,886.89Zm-1.14,3.78a1.18,1.18,0,0,0,.51-.61v-.62h-1.29c-.72,0-1.08.23-1.08.71a.65.65,0,0,0,.27.54,1.26,1.26,0,0,0,.75.2A1.64,1.64,0,0,0,199.5,890.67Z" />
				<path class="cls-3" d="M205.9,886.33v1.19l-.29,0a1.54,1.54,0,0,0-1.14.42,1.71,1.71,0,0,0-.41,1.23v2.59h-1.25v-5.34H204v.78A2.09,2.09,0,0,1,205.9,886.33Z" />
				<path class="cls-3" d="M214.67,886.39l-2.29,5.34h-1.29l-2.29-5.34h1.3l1.66,4,1.71-4Z" />
				<path class="cls-3" d="M215.46,885.29a.74.74,0,0,1,0-1.07A.84.84,0,0,1,216,884a.8.8,0,0,1,.57.2.65.65,0,0,1,.23.52.74.74,0,0,1-.22.55.78.78,0,0,1-.58.23A.85.85,0,0,1,215.46,885.29Zm-.06,1.1h1.25v5.34H215.4Z" />
				<path class="cls-3" d="M223.24,889.46h-4.19a1.48,1.48,0,0,0,.58.93,1.87,1.87,0,0,0,1.15.35,2,2,0,0,0,1.45-.58l.67.77a2.33,2.33,0,0,1-.91.65,3.43,3.43,0,0,1-1.24.22,3.37,3.37,0,0,1-1.55-.35,2.56,2.56,0,0,1-1-1,2.7,2.7,0,0,1-.37-1.41,2.79,2.79,0,0,1,.36-1.41,2.41,2.41,0,0,1,1-1,3.05,3.05,0,0,1,2.82,0,2.42,2.42,0,0,1,1,1,3,3,0,0,1,.34,1.45A2.85,2.85,0,0,1,223.24,889.46Zm-3.69-1.78a1.49,1.49,0,0,0-.51,1h3a1.42,1.42,0,0,0-.49-.94,1.48,1.48,0,0,0-1-.36A1.46,1.46,0,0,0,219.55,887.68Z" />
				<path class="cls-3" d="M232.64,886.39l-2,5.34h-1.2l-1.38-3.68-1.4,3.68h-1.2l-2-5.34h1.18l1.41,3.94,1.47-3.94h1l1.44,4,1.45-4Z" />
				<path class="cls-3" d="M185.9,903.61l-1.53-2.34h-1.69v2.34h-1.84v-8.4h3.44a4.15,4.15,0,0,1,1.83.38,2.74,2.74,0,0,1,1.2,1,3.05,3.05,0,0,1,.42,1.62,3,3,0,0,1-.42,1.62,2.78,2.78,0,0,1-1.21,1l1.78,2.7Zm-.46-6.43a1.83,1.83,0,0,0-1.26-.38h-1.5v2.93h1.5a1.83,1.83,0,0,0,1.26-.39,1.57,1.57,0,0,0,0-2.16Z" />
				<path class="cls-3" d="M195.23,902.06v1.55h-6.16v-8.4h6v1.56H190.9v1.83h3.7v1.51h-3.7v1.95Z" />
				<path class="cls-3" d="M201.86,895.59a2.74,2.74,0,0,1,1.2,1,3.33,3.33,0,0,1,0,3.24,2.68,2.68,0,0,1-1.2,1,4.15,4.15,0,0,1-1.83.37h-1.6v2.31h-1.84v-8.4H200A4.15,4.15,0,0,1,201.86,895.59Zm-.67,3.75a1.36,1.36,0,0,0,.43-1.08,1.35,1.35,0,0,0-.43-1.08,1.83,1.83,0,0,0-1.26-.38h-1.5v2.91h1.5A1.88,1.88,0,0,0,201.19,899.34Z" />
				<path class="cls-3" d="M206.41,903.19a4.07,4.07,0,0,1-1.56-1.55,4.7,4.7,0,0,1,0-4.45,4.17,4.17,0,0,1,1.56-1.56,4.72,4.72,0,0,1,4.46,0,4.17,4.17,0,0,1,1.56,1.56,4.7,4.7,0,0,1,0,4.45,4.07,4.07,0,0,1-1.56,1.55,4.65,4.65,0,0,1-4.46,0Zm3.5-1.43a2.49,2.49,0,0,0,.9-1,3.2,3.2,0,0,0,0-2.79,2.42,2.42,0,0,0-.9-.95,2.37,2.37,0,0,0-1.27-.34,2.39,2.39,0,0,0-1.27.34,2.33,2.33,0,0,0-.89.95,3.11,3.11,0,0,0,0,2.79,2.38,2.38,0,0,0,2.16,1.29A2.37,2.37,0,0,0,209.91,901.76Z" />
				<path class="cls-3" d="M219.33,903.61l-1.53-2.34h-1.69v2.34h-1.84v-8.4h3.44a4.18,4.18,0,0,1,1.83.38,2.74,2.74,0,0,1,1.2,1,3.05,3.05,0,0,1,.42,1.62,3,3,0,0,1-.42,1.62,2.78,2.78,0,0,1-1.21,1l1.78,2.7Zm-.46-6.43a1.83,1.83,0,0,0-1.26-.38h-1.5v2.93h1.5a1.83,1.83,0,0,0,1.26-.39,1.57,1.57,0,0,0,0-2.16Z" />
				<path class="cls-3" d="M224,896.8h-2.55v-1.59h6.93v1.59h-2.54v6.81H224Z" />
				<path class="cls-3" d="M229.3,895.21h1.84v8.4H229.3Z" />
				<path class="cls-3" d="M240.21,895.21v8.4H238.7l-4-5.09v5.09h-1.82v-8.4h1.52l4,5.1v-5.1Z" />
				<path class="cls-3" d="M247.35,899.28H249v3.41a4.89,4.89,0,0,1-1.5.79,5.39,5.39,0,0,1-1.72.28,4.48,4.48,0,0,1-2.23-.56,4,4,0,0,1-1.55-1.55,4.74,4.74,0,0,1,0-4.47,4.07,4.07,0,0,1,1.56-1.55,4.58,4.58,0,0,1,2.25-.56,4.67,4.67,0,0,1,1.9.37,3.74,3.74,0,0,1,1.43,1.08L248,897.67a2.67,2.67,0,0,0-2.06-.94,2.75,2.75,0,0,0-1.35.33,2.4,2.4,0,0,0-.92,1,3.13,3.13,0,0,0,0,2.8,2.47,2.47,0,0,0,.92,1,2.56,2.56,0,0,0,1.33.34,2.84,2.84,0,0,0,1.43-.36Z" />
				<path class="cls-5" d="M217.36,834.36h-19l-.08,0h0l-.08,0h0l-.07.05h0l-.06,0h0l-6.76,6.75h0l-.05.06v0l-.05.07h0l0,.07h0a.31.31,0,0,0,0,.08h0a.17.17,0,0,0,0,.07v29.77a2,2,0,0,0,2,2h24.32a2,2,0,0,0,2-2V836.34A2,2,0,0,0,217.36,834.36Zm-19.55,2.16v3.88a.72.72,0,0,1-.72.72h-3.87Zm20.27,35a.72.72,0,0,1-.72.72H193a.72.72,0,0,1-.72-.72V842.38h4.77a2,2,0,0,0,2-2v-4.77h18.28a.71.71,0,0,1,.72.71Z" />
				<path class="cls-5" d="M197.09,852.51h16.22a.63.63,0,1,0,0-1.26H197.09a.63.63,0,1,0,0,1.26Z" />
				<path class="cls-5" d="M197.09,855.89h16.22a.63.63,0,0,0,0-1.26H197.09a.63.63,0,0,0,0,1.26Z" />
				<path class="cls-5" d="M197.09,859.27h8.11a.63.63,0,0,0,.63-.63.64.64,0,0,0-.63-.64h-8.11a.64.64,0,0,0-.63.64A.63.63,0,0,0,197.09,859.27Z" />
				<path class="cls-5" d="M205.83,862a.63.63,0,0,0-.63-.63h-8.11a.63.63,0,0,0-.63.63.64.64,0,0,0,.63.64h8.11A.64.64,0,0,0,205.83,862Z" />
				<path class="cls-5" d="M208.54,845.29a.64.64,0,0,0-.64-.63.63.63,0,0,0-.63.63c0,1.24,1.14,2.24,2.7,2.45v.09a.63.63,0,0,0,.63.63.64.64,0,0,0,.64-.63v-.09c1.56-.21,2.7-1.21,2.7-2.45s-1.14-2.23-2.7-2.44v-2.43c.76.16,1.43.59,1.43,1.16a.64.64,0,0,0,.64.63.63.63,0,0,0,.63-.63c0-1.24-1.14-2.23-2.7-2.45v-.08a.64.64,0,0,0-.64-.64.64.64,0,0,0-.63.64v.08c-1.56.22-2.7,1.21-2.7,2.45s1.14,2.23,2.7,2.45v2.42C209.21,846.29,208.54,845.86,208.54,845.29Zm4.13,0c0,.57-.67,1-1.43,1.16v-2.31C212,844.3,212.67,844.73,212.67,845.29Zm-4.13-3.71c0-.57.67-1,1.43-1.16v2.32C209.21,842.58,208.54,842.15,208.54,841.58Z" />
				<path class="cls-5" d="M214.55,861.42a.64.64,0,0,0-.86.24l-1.3,2.31-.18-.14a.64.64,0,0,0-.53-.12.65.65,0,0,0-.42.34l-.66,1.33-.21-.24a1.29,1.29,0,0,0-1.24-.42,1.32,1.32,0,0,0-1,.85l-.72,2.09-1.73-2.18a.65.65,0,0,0-.44-.24.71.71,0,0,0-.48.15L203,867a.63.63,0,0,0,.83,1l1.34-1.16,1.65,2.08a1,1,0,0,0,.76.37h.16a1,1,0,0,0,.76-.64l.9-2.6a0,0,0,0,1,0,0s0,0,0,0l.84,1a.63.63,0,0,0,.56.21.59.59,0,0,0,.48-.34l.74-1.5.14.12a.64.64,0,0,0,.52.11.59.59,0,0,0,.42-.3l1.66-2.94A.64.64,0,0,0,214.55,861.42Z" />
				<ellipse class="cls-8" cx="205.32" cy="878.12" rx="46.49" ry="2.18" />
				<path class="cls-9" d="M227.64,859.58s-.89,8.79-7.82,9.4c6.93.6,7.82,9.39,7.82,9.39s.89-8.79,7.83-9.39C228.53,868.37,227.64,859.58,227.64,859.58Z" />
				<path class="cls-9" d="M233,835.91s-.59,5.81-5.17,6.21c4.58.41,5.17,6.22,5.17,6.22s.59-5.81,5.18-6.22C233.54,841.72,233,835.91,233,835.91Z" />
				<path class="cls-3" d="M52.25,740.93v2.13h3.38v1.1H52.25v2.68H51v-7h5.11v1.09Z" />
				<path class="cls-3" d="M62.17,741.5v5.34H61v-.68a2,2,0,0,1-.75.55,2.4,2.4,0,0,1-1,.2,2.3,2.3,0,0,1-1.68-.6,2.33,2.33,0,0,1-.62-1.76v-3h1.25v2.88a1.51,1.51,0,0,0,.33,1.07,1.16,1.16,0,0,0,.92.36,1.41,1.41,0,0,0,1.07-.42,1.66,1.66,0,0,0,.39-1.19v-2.7Z" />
				<path class="cls-3" d="M68.41,742a2.3,2.3,0,0,1,.61,1.75v3.06H67.77v-2.9a1.51,1.51,0,0,0-.33-1.06,1.24,1.24,0,0,0-.94-.35,1.47,1.47,0,0,0-1.09.41,1.66,1.66,0,0,0-.4,1.2v2.7H63.76V741.5H65v.69a1.91,1.91,0,0,1,.78-.56,2.78,2.78,0,0,1,1.06-.19A2.18,2.18,0,0,1,68.41,742Z" />
				<path class="cls-3" d="M75.84,739.42v7.42h-1.2v-.69a2,2,0,0,1-.76.57,2.75,2.75,0,0,1-1,.19,2.88,2.88,0,0,1-1.38-.34,2.51,2.51,0,0,1-1-1,3.1,3.1,0,0,1,0-2.86,2.42,2.42,0,0,1,1-1,2.77,2.77,0,0,1,1.38-.34,2.5,2.5,0,0,1,1,.18,1.86,1.86,0,0,1,.75.54v-2.74Zm-2,6.21a1.45,1.45,0,0,0,.57-.58,1.82,1.82,0,0,0,.21-.88,1.76,1.76,0,0,0-.21-.88,1.47,1.47,0,0,0-.57-.59,1.74,1.74,0,0,0-1.62,0,1.47,1.47,0,0,0-.57.59,1.76,1.76,0,0,0-.21.88,1.82,1.82,0,0,0,.21.88,1.45,1.45,0,0,0,.57.58,1.67,1.67,0,0,0,1.62,0Z" />
				<path class="cls-3" d="M77.81,746.74a3.54,3.54,0,0,1-1-.43l.48-.95a2.9,2.9,0,0,0,.87.38,3.4,3.4,0,0,0,1,.15c.75,0,1.12-.2,1.12-.59a.38.38,0,0,0-.28-.39,4.09,4.09,0,0,0-.92-.21,8.67,8.67,0,0,1-1.07-.23,1.62,1.62,0,0,1-.72-.46,1.23,1.23,0,0,1-.31-.9,1.42,1.42,0,0,1,.64-1.22,2.89,2.89,0,0,1,1.71-.45,5.15,5.15,0,0,1,1.1.12,3.2,3.2,0,0,1,.9.34l-.48,1a2.91,2.91,0,0,0-1.53-.4,1.67,1.67,0,0,0-.83.16.5.5,0,0,0-.29.44.42.42,0,0,0,.31.42,4.59,4.59,0,0,0,.94.24,6,6,0,0,1,1,.23,1.61,1.61,0,0,1,.71.44,1.24,1.24,0,0,1,.29.88,1.38,1.38,0,0,1-.65,1.2,3.05,3.05,0,0,1-1.77.45A5,5,0,0,1,77.81,746.74Z" />
				<path class="cls-3" d="M52.6,751.91H50.06v-1.59H57v1.59H54.44v6.82H52.6Z" />
				<path class="cls-3" d="M62.93,758.73l-1.53-2.34H59.7v2.34H57.86v-8.41h3.45a4.18,4.18,0,0,1,1.83.38,2.74,2.74,0,0,1,1.2,1,3.05,3.05,0,0,1,.42,1.62,2.92,2.92,0,0,1-.43,1.62,2.67,2.67,0,0,1-1.21,1l1.79,2.71Zm-.47-6.44a1.79,1.79,0,0,0-1.26-.38H59.7v2.93h1.5a1.79,1.79,0,0,0,1.26-.39,1.55,1.55,0,0,0,0-2.16Z" />
				<path class="cls-3" d="M71.34,756.93H67.65l-.71,1.8H65.06l3.54-8.41h1.82L74,758.73H72Zm-.58-1.48-1.26-3.22-1.26,3.22Z" />
				<path class="cls-3" d="M82,750.32v8.41H80.47l-4-5.1v5.1H74.69v-8.41h1.52l4,5.11v-5.11Z" />
				<path class="cls-3" d="M84.55,758.6a4.18,4.18,0,0,1-1.42-.7l.63-1.47a4,4,0,0,0,1.21.64,4.35,4.35,0,0,0,1.41.24,2.08,2.08,0,0,0,1.16-.25.75.75,0,0,0,.38-.65.67.67,0,0,0-.22-.5,1.73,1.73,0,0,0-.57-.32c-.23-.08-.55-.16-.94-.26a12.37,12.37,0,0,1-1.49-.46,2.35,2.35,0,0,1-1-.73,2,2,0,0,1-.42-1.34,2.42,2.42,0,0,1,1.51-2.27,4.41,4.41,0,0,1,1.84-.35,6.15,6.15,0,0,1,1.49.19,4.39,4.39,0,0,1,1.28.56l-.57,1.47a4.28,4.28,0,0,0-2.21-.66,2,2,0,0,0-1.14.27.81.81,0,0,0-.37.69.67.67,0,0,0,.43.64,6.6,6.6,0,0,0,1.3.42,13.19,13.19,0,0,1,1.49.45,2.41,2.41,0,0,1,1,.72,2,2,0,0,1,.42,1.34,2.44,2.44,0,0,1-.38,1.31,2.59,2.59,0,0,1-1.15.94,4.42,4.42,0,0,1-1.85.35A6.17,6.17,0,0,1,84.55,758.6Z" />
				<path class="cls-3" d="M96.13,756.93H92.44l-.7,1.8H89.85l3.54-8.41h1.82l3.56,8.41H96.84Zm-.58-1.48-1.26-3.22L93,755.45Z" />
				<path class="cls-3" d="M101,758.31a4,4,0,0,1-1.55-1.55,4.74,4.74,0,0,1,0-4.47,4,4,0,0,1,1.55-1.55,4.4,4.4,0,0,1,2.21-.56,4.53,4.53,0,0,1,1.87.38,3.88,3.88,0,0,1,1.4,1.11l-1.18,1.15a2.5,2.5,0,0,0-2-1,2.55,2.55,0,0,0-1.32.34,2.42,2.42,0,0,0-.9,1,3.11,3.11,0,0,0,0,2.79,2.42,2.42,0,0,0,.9,1,2.55,2.55,0,0,0,1.32.34,2.48,2.48,0,0,0,2-1l1.18,1.15a3.64,3.64,0,0,1-1.41,1.11,4.64,4.64,0,0,1-4.07-.17Z" />
				<path class="cls-3" d="M109.15,751.91h-2.54v-1.59h6.93v1.59H111v6.82h-1.85Z" />
				<path class="cls-3" d="M114.41,750.32h1.85v8.41h-1.85Z" />
				<path class="cls-3" d="M119.65,758.31a4.1,4.1,0,0,1-1.56-1.56,4.7,4.7,0,0,1,0-4.45,4.1,4.1,0,0,1,1.56-1.56,4.72,4.72,0,0,1,4.46,0,4.07,4.07,0,0,1,1.55,1.56,4.63,4.63,0,0,1,0,4.45,4.07,4.07,0,0,1-1.55,1.56,4.72,4.72,0,0,1-4.46,0Zm3.5-1.44a2.4,2.4,0,0,0,.89-1,3.11,3.11,0,0,0,0-2.79,2.44,2.44,0,0,0-4.32,0,3.11,3.11,0,0,0,0,2.79,2.48,2.48,0,0,0,3.43,1Z" />
				<path class="cls-3" d="M134.8,750.32v8.41h-1.51l-4-5.1v5.1H127.5v-8.41H129l3.95,5.11v-5.11Z" />
				<g class="cls-10">
					<path class="cls-11" d="M41,763a4.2,4.2,0,0,1-.85,3.31,4.48,4.48,0,0,1-2.9,1.82,3.26,3.26,0,0,1-3.76-2.68,4.24,4.24,0,0,1,.9-3.37,4.57,4.57,0,0,1,2.93-1.89,3,3,0,0,1,2.39.58A3.41,3.41,0,0,1,41,763Zm3.19-33.48a8.77,8.77,0,0,1-.51,3.45c-.35,1.21-1,4-1.82,8.51s-1.39,7.22-1.57,8.28a26.15,26.15,0,0,0-.31,3.81q-.06,1.74-2,2.07a2.28,2.28,0,0,1-3-2.1q-.43-2.65,1.45-10.72a89.59,89.59,0,0,1,3.13-11.15c.82-2.06,1.75-3.17,2.8-3.35S44,728.49,44.19,729.47Z" />
				</g>
				<ellipse class="cls-12" cx="70.26" cy="726.05" rx="46.49" ry="2.18" />
				<path class="cls-13" d="M95.91,717.08,50.6,719,79.23,683.6,86.37,698,58,715.09l30.73-12.45S96,717.12,95.91,717.08Z" />
				<path class="cls-3" d="M66.64,618.46a4.19,4.19,0,0,1-1.42-.71l.63-1.46a4.42,4.42,0,0,0,2.62.88,2.17,2.17,0,0,0,1.16-.25.75.75,0,0,0,.38-.65.67.67,0,0,0-.22-.5,1.73,1.73,0,0,0-.57-.32,9.47,9.47,0,0,0-.94-.26,14.5,14.5,0,0,1-1.49-.46,2.44,2.44,0,0,1-1-.73,2.06,2.06,0,0,1-.42-1.35,2.42,2.42,0,0,1,.38-1.32,2.53,2.53,0,0,1,1.13-.94,4.27,4.27,0,0,1,1.85-.35,5.67,5.67,0,0,1,1.48.19,4.38,4.38,0,0,1,1.28.55l-.57,1.48a4.28,4.28,0,0,0-2.21-.66,2,2,0,0,0-1.14.26.84.84,0,0,0-.37.7.67.67,0,0,0,.43.64,6.08,6.08,0,0,0,1.3.41,14.5,14.5,0,0,1,1.49.46,2.41,2.41,0,0,1,1,.72,2,2,0,0,1,.42,1.33,2.45,2.45,0,0,1-.38,1.32,2.65,2.65,0,0,1-1.15.94,4.42,4.42,0,0,1-1.85.35A6.17,6.17,0,0,1,66.64,618.46Z" />
				<path class="cls-3" d="M74.52,611.77H72v-1.59H78.9v1.59H76.36v6.81H74.52Z" />
				<path class="cls-3" d="M84.62,616.78H80.93l-.71,1.8H78.34l3.54-8.4H83.7l3.56,8.4H85.33ZM84,615.31l-1.26-3.22-1.26,3.22Z" />
				<path class="cls-3" d="M93,618.58l-1.53-2.34h-1.7v2.34H88v-8.4h3.45a4.33,4.33,0,0,1,1.83.37,2.76,2.76,0,0,1,1.2,1.06,3.05,3.05,0,0,1,.42,1.62,2.91,2.91,0,0,1-.43,1.61,2.63,2.63,0,0,1-1.21,1l1.79,2.7Zm-.47-6.44a1.84,1.84,0,0,0-1.26-.37h-1.5v2.92h1.5a1.79,1.79,0,0,0,1.26-.38,1.56,1.56,0,0,0,0-2.17Z" />
				<path class="cls-3" d="M97.74,611.77H95.2v-1.59h6.93v1.59H99.59v6.81H97.74Z" />
				<path class="cls-5" d="M75.52,566h0a3.26,3.26,0,0,0-1.33-.72l-.2-.06-.08-.19a3.13,3.13,0,0,0-.85-1.25,3.18,3.18,0,0,0-2.15-.83h-.17a3.22,3.22,0,0,0-3,3.37l.24,4.67a.89.89,0,0,0,.28.6.87.87,0,0,0,.63.23l4.68-.24a3.21,3.21,0,0,0,2-5.59Zm-1.06,3.37a1.48,1.48,0,0,1-1,.49l-3.81.19-.2-3.81a1.48,1.48,0,0,1,1.4-1.55,1.47,1.47,0,0,1,1.55,1.4.84.84,0,0,0,.29.6.88.88,0,0,0,.62.22,1.47,1.47,0,0,1,1.07.38,1.45,1.45,0,0,1,.48,1A1.44,1.44,0,0,1,74.46,569.39Z" />
				<path class="cls-5" d="M83.63,557a3.09,3.09,0,0,0-1.33-.72l-.2,0-.07-.2A3.18,3.18,0,0,0,79,554h-.17a3.21,3.21,0,0,0-3,3.37l.24,4.68a.87.87,0,0,0,.28.6.9.9,0,0,0,.63.22l4.68-.24a3.21,3.21,0,0,0,2-5.59Zm-2.07,3.86-3.82.19-.19-3.81a1.48,1.48,0,0,1,.38-1.06,1.44,1.44,0,0,1,1-.49,1.46,1.46,0,0,1,1.06.38,1.44,1.44,0,0,1,.49,1,.87.87,0,0,0,.28.6.86.86,0,0,0,.63.22,1.48,1.48,0,0,1,.15,2.95Z" />
				<path class="cls-5" d="M95.32,541.62a.84.84,0,0,0-.68-.22,41.65,41.65,0,0,0-28.74,17L63.29,562l-13.36,5a.88.88,0,0,0-.44.37l-4.75,8a.87.87,0,0,0,0,.83.83.83,0,0,0,.19.26.91.91,0,0,0,.49.22l8,.87,4.57,4.13-2.67,3a.86.86,0,0,0,.06,1.22.89.89,0,0,0,.62.23.84.84,0,0,0,.6-.29l2.68-3L63.79,587l1.68,7.84a.82.82,0,0,0,.26.46,1,1,0,0,0,.28.17.87.87,0,0,0,.82-.12l7.53-5.54a.93.93,0,0,0,.32-.48l3.62-13.79,3.34-3a41.64,41.64,0,0,0,14-30.31A.88.88,0,0,0,95.32,541.62Zm-42,34.23-6.41-.7,3.91-6.63,10.64-4Zm19.75,12.77-6.2,4.56-1.35-6.31L76,577.63Zm18.2-33a40,40,0,0,1-10.79,15.65L64.59,585.4l-4.21-3.8,5.31-5.88a.83.83,0,0,0,.22-.62.85.85,0,0,0-.28-.6.88.88,0,0,0-1.23.06l-5.3,5.88-4.21-3.8,12.42-17.25a40,40,0,0,1,14.47-12.32l.39-.2.17.41A13.36,13.36,0,0,0,91,555.11l.42.13Zm2.54-11.89a39.69,39.69,0,0,1-1.71,9.46l-.11.38-.38-.11a11.62,11.62,0,0,1-7.72-7l-.15-.37.36-.15a40,40,0,0,1,9.24-2.66l.5-.07Z" />
				<path class="cls-14" d="M130,552.33a3.92,3.92,0,0,0-3.82-3,4,4,0,0,0-1,.12,5.77,5.77,0,0,0-6.94-3.06,7.12,7.12,0,0,0-12.78,1.24,4.87,4.87,0,0,0-7.25,4.26,3.59,3.59,0,0,0,0,.47Z" />
				<path class="cls-14" d="M63.19,559.06a3.67,3.67,0,0,0-3.58-2.85,3.59,3.59,0,0,0-.93.12,5.4,5.4,0,0,0-6.52-2.88,6.68,6.68,0,0,0-12,1.16,4.65,4.65,0,0,0-2.23-.57,4.58,4.58,0,0,0-4.58,4.58c0,.15,0,.29,0,.44Z" />
				<path class="cls-9" d="M68.47,604.75s-.39,3.84-3.42,4.1c3,.27,3.42,4.11,3.42,4.11s.39-3.84,3.42-4.11C68.86,608.59,68.47,604.75,68.47,604.75Z" />
				<ellipse class="cls-15" cx="85.66" cy="604.07" rx="46.16" ry="2.16" />
				<polygon class="cls-16" points="124.8 96.52 112.75 96.52 112.75 84.36 101.07 84.36 101.07 96.52 88.92 96.52 88.92 108.28 101.07 108.28 101.07 120.44 112.75 120.44 112.75 108.28 124.8 108.28 124.8 96.52" />
				<ellipse class="cls-17" cx="108.06" cy="123.94" rx="24.85" ry="2.72" />
				<path class="cls-9" d="M128.31,84.31s-.59,5.81-5.17,6.21c4.58.4,5.17,6.22,5.17,6.22s.59-5.82,5.18-6.22C128.9,90.12,128.31,84.31,128.31,84.31Z" />
				<path class="cls-9" d="M137.18,95.43s-.37,3.64-3.24,3.89c2.87.25,3.24,3.9,3.24,3.9s.37-3.65,3.24-3.9C137.55,99.07,137.18,95.43,137.18,95.43Z" />
				<path class="cls-3" d="M82.29,133.77v2.47H81v-2.45l-2.75-4.55h1.38l2.05,3.41,2.07-3.41H85Z" />
				<path class="cls-3" d="M86.05,136a2.55,2.55,0,0,1-1-1,2.81,2.81,0,0,1-.37-1.42,2.77,2.77,0,0,1,.37-1.41,2.62,2.62,0,0,1,1-1,3.13,3.13,0,0,1,1.47-.35,3.06,3.06,0,0,1,1.46.35,2.58,2.58,0,0,1,1,1,2.76,2.76,0,0,1,.36,1.41A2.8,2.8,0,0,1,90,135a2.51,2.51,0,0,1-1,1,3.06,3.06,0,0,1-1.46.35A3.13,3.13,0,0,1,86.05,136Zm2.6-1.18a1.85,1.85,0,0,0,0-2.42,1.63,1.63,0,0,0-2.27,0,1.85,1.85,0,0,0,0,2.42,1.63,1.63,0,0,0,2.27,0Z" />
				<path class="cls-3" d="M96.68,130.9v5.34H95.49v-.68a2,2,0,0,1-.75.56,2.4,2.4,0,0,1-1,.19,2.34,2.34,0,0,1-1.68-.59,2.37,2.37,0,0,1-.62-1.77v-3h1.25v2.88a1.55,1.55,0,0,0,.33,1.08,1.21,1.21,0,0,0,.92.35A1.42,1.42,0,0,0,95,134.8a1.7,1.7,0,0,0,.39-1.2v-2.7Z" />
				<path class="cls-3" d="M105.63,131.43a2.31,2.31,0,0,1,.61,1.75v3.06H105v-2.9a1.49,1.49,0,0,0-.33-1.05,1.21,1.21,0,0,0-.94-.36,1.44,1.44,0,0,0-1.09.42,1.66,1.66,0,0,0-.4,1.19v2.7H101V130.9h1.19v.69A2.11,2.11,0,0,1,103,131a2.78,2.78,0,0,1,1.06-.19A2.22,2.22,0,0,1,105.63,131.43Z" />
				<path class="cls-3" d="M112.83,134h-4.19a1.51,1.51,0,0,0,.58.94,1.87,1.87,0,0,0,1.15.34,1.93,1.93,0,0,0,1.45-.58l.67.77a2.23,2.23,0,0,1-.91.65,3.23,3.23,0,0,1-1.24.22,3.37,3.37,0,0,1-1.55-.35,2.54,2.54,0,0,1-1-1,2.81,2.81,0,0,1-.37-1.42,2.73,2.73,0,0,1,.36-1.4,2.56,2.56,0,0,1,1-1,2.93,2.93,0,0,1,1.42-.35,2.82,2.82,0,0,1,1.4.35,2.42,2.42,0,0,1,1,1,2.92,2.92,0,0,1,.34,1.44A2.77,2.77,0,0,1,112.83,134Zm-3.69-1.77a1.46,1.46,0,0,0-.51.94h3a1.44,1.44,0,0,0-.49-.94,1.61,1.61,0,0,0-2,0Z" />
				<path class="cls-3" d="M119,134h-4.19a1.51,1.51,0,0,0,.58.94,1.87,1.87,0,0,0,1.15.34,1.93,1.93,0,0,0,1.45-.58l.67.77a2.23,2.23,0,0,1-.91.65,3.23,3.23,0,0,1-1.24.22A3.37,3.37,0,0,1,115,136a2.54,2.54,0,0,1-1-1,2.81,2.81,0,0,1-.37-1.42,2.73,2.73,0,0,1,.36-1.4,2.56,2.56,0,0,1,1-1,2.93,2.93,0,0,1,1.42-.35,2.82,2.82,0,0,1,1.4.35,2.42,2.42,0,0,1,1,1,2.92,2.92,0,0,1,.34,1.44A2.77,2.77,0,0,1,119,134Zm-3.69-1.77a1.46,1.46,0,0,0-.51.94h3a1.44,1.44,0,0,0-.49-.94,1.61,1.61,0,0,0-2,0Z" />
				<path class="cls-3" d="M125.4,128.82v7.42h-1.2v-.69a1.78,1.78,0,0,1-.76.57,2.53,2.53,0,0,1-1,.19,2.77,2.77,0,0,1-1.38-.34,2.49,2.49,0,0,1-1-1,3,3,0,0,1-.35-1.44,2.91,2.91,0,0,1,.35-1.43,2.55,2.55,0,0,1,1-1,2.88,2.88,0,0,1,1.38-.34,2.5,2.5,0,0,1,1,.18,1.86,1.86,0,0,1,.75.54v-2.74Zm-2,6.22a1.47,1.47,0,0,0,.57-.59,1.95,1.95,0,0,0,0-1.76,1.45,1.45,0,0,0-.57-.58,1.67,1.67,0,0,0-1.62,0,1.45,1.45,0,0,0-.57.58,1.95,1.95,0,0,0,0,1.76,1.47,1.47,0,0,0,.57.59,1.74,1.74,0,0,0,1.62,0Z" />
				<path class="cls-3" d="M80.93,141.31H78.38v-1.58h6.93v1.58H82.77v6.82H80.93Z" />
				<path class="cls-3" d="M91.25,148.13l-1.53-2.34H88v2.34H86.19v-8.4h3.44a4.18,4.18,0,0,1,1.83.37,2.76,2.76,0,0,1,1.2,1.06,3.32,3.32,0,0,1,0,3.23,2.8,2.8,0,0,1-1.21,1l1.78,2.7Zm-.46-6.44a1.88,1.88,0,0,0-1.26-.38H88v2.93h1.5a1.88,1.88,0,0,0,1.26-.38,1.58,1.58,0,0,0,0-2.17Z" />
				<path class="cls-3" d="M100.58,146.57v1.56H94.42v-8.4h6v1.56H96.25v1.82H100v1.52h-3.7v1.94Z" />
				<path class="cls-3" d="M107.17,146.33h-3.69l-.7,1.8h-1.89l3.54-8.4h1.82l3.56,8.4h-1.93Zm-.58-1.48-1.26-3.21-1.26,3.21Z" />
				<path class="cls-3" d="M111.77,141.31h-2.54v-1.58h6.93v1.58h-2.54v6.82h-1.85Z" />
				<path class="cls-3" d="M124.27,148.13v-5l-2.34,4.15h-.83l-2.33-4v4.93H117v-8.4h1.52l3,5.22,2.93-5.22H126l0,8.4Z" />
				<path class="cls-3" d="M133.93,146.57v1.56h-6.16v-8.4h6v1.56H129.6v1.82h3.7v1.52h-3.7v1.94Z" />
				<path class="cls-3" d="M142.58,139.73v8.4h-1.51l-4-5.1v5.1h-1.82v-8.4h1.53l3.95,5.1v-5.1Z" />
				<path class="cls-3" d="M146,141.31h-2.55v-1.58h6.93v1.58h-2.54v6.82H146Z" />
				<path class="cls-2" d="M176.35,875.78c-24.07,5.77-53.85,13.16-90.31,24.86-25.7,8.25-52.23,17.84-66.53,42.8-3.11,5.43-14.48,27-6.36,46.19,7.29,17.22,19.9,26.38,22.13,27.7,20.64,12.17,42,4.37,44.9,3.28" />
				<path class="cls-2" d="M32.55,733.14c-2.44,1.68-4.46,4.08-6.68,6.46-5.6,6-26,27.85-20.34,47.46C14,816.34,76,825.14,120,819.27c61.23-8.17,123.88-49.66,119.08-75.86-3.25-17.73-38.31-33.27-55.52-22.46-9.17,5.77-15.8,20.63-11.44,32.21,10,26.64,69,11.78,87.3,43.65,6.71,11.66,7,27.94,1.7,40.26s-16,19.41-33.35,25.31" />
				<path class="cls-2" d="M168.06,683.8c-10.95,8.22,6.37-1.7-10.82,6.22a264.33,264.33,0,0,1-51,17.55" />
				<path class="cls-2" d="M97.91,536.61c36.38-24.89,87.14-6.42,96.62-3,15.58,5.67,47.08,17.14,53.82,43.65,2.84,11.14.47,21.66-3.24,30.71" />
				<path class="cls-2" d="M238.71,454.93c-17.84,5.73-46.12,6-94.18,10.06-78,6.59-91.74,13.37-102.56,22.88-23.63,20.78-29.45,51.28-32.21,65.69-4.15,21.76-5.2,56.11,6.36,60.18,5.71,2,11.56-5.21,23.73-14.84" />
				<path class="cls-2" d="M105.54,431.09a32,32,0,0,0,12.45-.6c27.42-6.73,45.28-47.4,92.65-47.29a97.09,97.09,0,0,1,17.57,1.71" />
				<path class="cls-2" d="M226.84,327.86A113.7,113.7,0,0,1,207,335.55c-16.45,4.6-32.85,4.61-45.51-2.42-7.22-4-33.94-15.47-43.77-19.79-22.31-9.82-55.34-2.16-65.56,11.89-3.71,5.12-5.25,9-5.48,16.29" />
				<path class="cls-2" d="M88.16,245.26c50-37.59,106.71-46.2,142.2-22,2.16,1.47,31,21.71,29.86,48.93a34,34,0,0,1-4.42,16.59" />
				<path class="cls-2" d="M160,147.61c14.12,4.37,37.18,14.65,58.86,41.22,12.72,15.58,21.32,32.3,27,45.86" />
				<ellipse class="cls-18" cx="129.76" cy="1039.52" rx="56.82" ry="2.66" />
				<g class="cls-10">
					<path class="cls-19" d="M128.11,994.6a12.19,12.19,0,0,0,22.88,0" />
					<path class="cls-20" d="M136.55,987a1.52,1.52,0,1,1-1.52-1.52A1.52,1.52,0,0,1,136.55,987Z" />
					<path class="cls-20" d="M145.59,987a1.52,1.52,0,1,1-1.52-1.52A1.52,1.52,0,0,1,145.59,987Z" />
				</g>
				<g class="cls-10">
					<path class="cls-21" d="M123.11,1012.73a10,10,0,0,1-18.8,0" />
					<path class="cls-22" d="M116.18,1006.46a1.25,1.25,0,1,0,2.49,0,1.25,1.25,0,0,0-2.49,0Z" />
					<path class="cls-22" d="M108.75,1006.46a1.25,1.25,0,1,0,1.25-1.24A1.25,1.25,0,0,0,108.75,1006.46Z" />
					<circle class="cls-23" cx="113.68" cy="1011.2" r="16.84" />
				</g>
				<g class="cls-10">
					<path class="cls-24" d="M129.64,1021.4a6.34,6.34,0,0,0,11.89,0" />
					<path class="cls-25" d="M134,1017.43a.79.79,0,1,1-.79-.78A.79.79,0,0,1,134,1017.43Z" />
					<path class="cls-25" d="M138.72,1017.43a.79.79,0,1,1-.79-.78A.79.79,0,0,1,138.72,1017.43Z" />
				</g>
				<circle class="cls-26" cx="138.63" cy="991.66" r="20.14" />
				<circle class="cls-27" cx="136" cy="1019.99" r="10.6" />
				<path class="cls-28" d="M183.79,990.75v5.93h-5.5v-6l-6.16-10.32h5.81l3.33,5.64,3.36-5.64h5.31Z" />
				<path class="cls-28" d="M193.77,996a8.19,8.19,0,0,1-3.29-3,8.71,8.71,0,0,1,0-8.79,8.19,8.19,0,0,1,3.29-3,10.72,10.72,0,0,1,9.46,0,8.19,8.19,0,0,1,3.29,3,8.71,8.71,0,0,1,0,8.79,8.19,8.19,0,0,1-3.29,3,10.72,10.72,0,0,1-9.46,0Zm6.58-3.86a3.56,3.56,0,0,0,1.32-1.42,5,5,0,0,0,0-4.31,3.56,3.56,0,0,0-1.32-1.42,3.56,3.56,0,0,0-5,1.42,5,5,0,0,0,0,4.31,3.61,3.61,0,0,0,5,1.42Z" />
				<path class="cls-28" d="M211.67,995a7.54,7.54,0,0,1-2.1-5.69v-9h5.51v8.81a4.21,4.21,0,0,0,.64,2.61,2.52,2.52,0,0,0,3.7,0,4.21,4.21,0,0,0,.64-2.61v-8.81h5.41v9a7.57,7.57,0,0,1-2.09,5.69,9.46,9.46,0,0,1-11.71,0Z" />
				<path class="cls-28" d="M188.66,1020.65l0-7.43-3.54,6h-2.42l-3.55-5.71v7.18h-5v-16.32h4.52l5.32,8.7,5.17-8.7h4.53l0,16.32Z" />
				<path class="cls-28" d="M207.45,1017.81h-6.2l-1.1,2.84h-5.59l7.13-16.32h5.41l7.14,16.32h-5.69Zm-1.51-4-1.59-4.1-1.59,4.1Z" />
				<path class="cls-28" d="M215.12,1004.33h8a11.11,11.11,0,0,1,4.81,1,7.55,7.55,0,0,1,3.24,2.84,8.68,8.68,0,0,1,0,8.67,7.52,7.52,0,0,1-3.24,2.83,11.11,11.11,0,0,1-4.81,1h-8Zm7.81,12a4,4,0,0,0,2.84-1,3.8,3.8,0,0,0,1.06-2.86,3.76,3.76,0,0,0-1.06-2.85,3.94,3.94,0,0,0-2.84-1h-2.31v7.74Z" />
				<path class="cls-28" d="M248,1016.5v4.15H234.38v-16.32h13.27v4.15h-7.86v1.91h6.9v4h-6.9v2.14Z" />
				<path class="cls-28" d="M257.06,1004.33h5.51v16.32h-5.51Z" />
				<path class="cls-28" d="M268.77,1008.6H264v-4.27h15.06v4.27h-4.78v12h-5.5Z" />
				<g class="cls-10">
					<path class="cls-11" d="M264.28,977.06a7.91,7.91,0,0,0-1.34-3.53,7.1,7.1,0,0,0-1.94-1.8,6.43,6.43,0,0,0-2.45-1,6.92,6.92,0,0,0-1.11-.09,9.11,9.11,0,0,0-2.9.51,8.19,8.19,0,0,0-2.7,1.56,11.64,11.64,0,0,0-2.06,2.34,10.23,10.23,0,0,0-.59,1,9.76,9.76,0,0,0-.58,1.47c-.05-.07-.1-.15-.16-.22l-.17-.18-.05,0a8.09,8.09,0,0,0-3.91-2.15,6.6,6.6,0,0,0-.89-.14c-.31,0-.62-.06-.94-.06a2.55,2.55,0,0,0-.39,0,7.77,7.77,0,0,0-1.28.21,8.88,8.88,0,0,0-1.36.52,6.54,6.54,0,0,0-1.73,1.25,6.31,6.31,0,0,0-1,1.28,7.76,7.76,0,0,0-1,3.44,8.57,8.57,0,0,0,.17,2.42,8,8,0,0,0,.82,2.09,8.47,8.47,0,0,0,1.08,1.53,22.9,22.9,0,0,0,1.82,1.87,33.07,33.07,0,0,0,3.22,2.55c1.28.88,2.59,1.72,3.95,2.47,5.4,3,9.71,4,9.84,2.56a12.38,12.38,0,0,1,1.59-5.29c.1-.18.21-.36.32-.53.87-1.41,1.81-2.76,2.69-4.16a25.38,25.38,0,0,0,2.56-5,11.31,11.31,0,0,0,.54-2.37,8.39,8.39,0,0,0,0-2.58Z" />
					<path class="cls-11" d="M262.3,976.93a.42.42,0,0,1,.11.6.47.47,0,0,1-.64.11.42.42,0,0,1-.11-.61.48.48,0,0,1,.64-.1Z" />
					<path class="cls-11" d="M262.06,979.37a.3.3,0,0,1,.09.43.35.35,0,0,1-.46.08.29.29,0,0,1-.08-.43.33.33,0,0,1,.45-.08Z" />
					<path class="cls-11" d="M261.24,981.9a.2.2,0,0,1,.06.29.23.23,0,0,1-.31.06.21.21,0,0,1-.06-.3.23.23,0,0,1,.31-.05Z" />
					<path class="cls-11" d="M259.86,983.8a.22.22,0,0,1,.06.32.25.25,0,0,1-.34.06.22.22,0,0,1-.06-.32.24.24,0,0,1,.34-.06Z" />
				</g>
				<path class="cls-29" d="M202.16,43.92c10.52,0,6.87-1.55,7.5,9.82a.76.76,0,0,1-.76.76h-6.74a.76.76,0,0,1-.76-.76c0-1.34,0-7.6,0-9.06A.76.76,0,0,1,202.16,43.92Z" />
				<line class="cls-29" x1="209.29" y1="51.5" x2="200.9" y2="51.5" />
				<path class="cls-5" d="M206.87,45.9c.7-.17.78,1.25.14,1.28S206.23,45.92,206.87,45.9Z" />
				<path class="cls-5" d="M206.87,48.16c.7-.17.78,1.26.14,1.28C206.31,49.61,206.23,48.18,206.87,48.16Z" />
				<path class="cls-30" d="M219.51,47.57c1.2-.17,9.8.36,10.53-1.62.51-.93,1.08-2.55-.44-3.43-4.58-.36-17-2.08-19.79,3.23l-.15-.14c0,.84-.08,6.7.1,7.78,0,0,13,.24,15.12-.2,7.65-2.27,17.92-9.13,21.36-13.28.1-.87,0-3.17-2.54-2.54s-13.3,7.79-13.18,7.77" />
				<g id="kampania">
					<path class="cls-31" d="M179,59.89c-2.23-2.83,86.41-2.83,84.17,0C265.37,62.72,176.73,62.72,179,59.89Z" />
				</g>
				<path class="cls-32" d="M227.84,37.26l-8.34-8.34c-5.6-5.6,2.74-13.94,8.34-8.34,6-6,14.38,2.31,8.34,8.34Z" />
				<path class="cls-9" d="M244.11,10s-.52,5.11-4.55,5.46c4,.36,4.55,5.47,4.55,5.47s.52-5.11,4.55-5.47C244.63,15.1,244.11,10,244.11,10Z" />
				<path class="cls-9" d="M237.15,2.49s-.34,3.38-3,3.62c2.67.23,3,3.61,3,3.61s.34-3.38,3-3.61C237.49,5.87,237.15,2.49,237.15,2.49Z" />
				<path class="cls-3" d="M185.46,71.08v2.47h-1.3V71.1l-2.75-4.55h1.39l2,3.41,2.07-3.41h1.28Z" />
				<path class="cls-3" d="M188.72,73.27a2.67,2.67,0,0,1-1-1,2.94,2.94,0,0,1,0-2.82,2.57,2.57,0,0,1,1-1,3.24,3.24,0,0,1,2.93,0,2.48,2.48,0,0,1,1,1,2.87,2.87,0,0,1,0,2.82,2.57,2.57,0,0,1-1,1,3.24,3.24,0,0,1-2.93,0Zm2.6-1.18a1.85,1.85,0,0,0,0-2.42,1.64,1.64,0,0,0-2.28,0,1.88,1.88,0,0,0,0,2.42,1.64,1.64,0,0,0,2.28,0Z" />
				<path class="cls-3" d="M198.85,68.21v5.34h-1.19v-.68a2,2,0,0,1-.75.55,2.4,2.4,0,0,1-1,.2,2.11,2.11,0,0,1-2.3-2.36V68.21h1.25v2.88a1.55,1.55,0,0,0,.32,1.07,1.2,1.2,0,0,0,.93.36,1.39,1.39,0,0,0,1.06-.42,1.62,1.62,0,0,0,.4-1.19v-2.7Z" />
				<path class="cls-3" d="M210.48,68.21l-2,5.34h-1.2l-1.38-3.68-1.4,3.68h-1.2l-2-5.34h1.18L204,72.15l1.47-3.94h1l1.44,4,1.45-4Z" />
				<path class="cls-3" d="M214.46,68.71a2.19,2.19,0,0,1,.63,1.71v3.13h-1.18V72.9a1.46,1.46,0,0,1-.66.53,2.41,2.41,0,0,1-1,.19,2.46,2.46,0,0,1-1-.21,1.58,1.58,0,0,1-.7-.57,1.46,1.46,0,0,1-.24-.82,1.44,1.44,0,0,1,.53-1.16,2.67,2.67,0,0,1,1.69-.43h1.38v-.08a1.07,1.07,0,0,0-.34-.86,1.43,1.43,0,0,0-1-.3,2.72,2.72,0,0,0-.89.14,2,2,0,0,0-.73.39l-.49-.91a2.88,2.88,0,0,1,1-.49,4.24,4.24,0,0,1,1.25-.17A2.62,2.62,0,0,1,214.46,68.71Zm-1.14,3.78a1.15,1.15,0,0,0,.52-.61v-.62h-1.29c-.72,0-1.08.23-1.08.71a.65.65,0,0,0,.27.54,1.26,1.26,0,0,0,.75.2A1.54,1.54,0,0,0,213.32,72.49Z" />
				<path class="cls-3" d="M220.79,68.74a2.34,2.34,0,0,1,.61,1.75v3.06h-1.25v-2.9a1.51,1.51,0,0,0-.33-1.06,1.24,1.24,0,0,0-.94-.35,1.46,1.46,0,0,0-1.09.41,1.66,1.66,0,0,0-.4,1.2v2.7h-1.25V68.21h1.19v.69a1.84,1.84,0,0,1,.78-.56,2.71,2.71,0,0,1,1.06-.19A2.21,2.21,0,0,1,220.79,68.74Z" />
				<path class="cls-3" d="M225.65,73.26a1.52,1.52,0,0,1-.54.27,2.39,2.39,0,0,1-.66.09,1.91,1.91,0,0,1-1.36-.46,1.79,1.79,0,0,1-.48-1.34V69.25h-.88v-1h.88V67h1.25v1.22h1.43v1h-1.43v2.54a.81.81,0,0,0,.19.59.69.69,0,0,0,.55.21,1.15,1.15,0,0,0,.7-.22Z" />
				<path class="cls-3" d="M231.55,73.26a1.52,1.52,0,0,1-.54.27,2.39,2.39,0,0,1-.66.09,1.91,1.91,0,0,1-1.36-.46,1.79,1.79,0,0,1-.48-1.34V69.25h-.88v-1h.88V67h1.25v1.22h1.43v1h-1.43v2.54a.81.81,0,0,0,.19.59.69.69,0,0,0,.55.21,1.15,1.15,0,0,0,.7-.22Z" />
				<path class="cls-3" d="M232.79,73.27a2.6,2.6,0,0,1-1-1,2.94,2.94,0,0,1,0-2.82,2.51,2.51,0,0,1,1-1,3,3,0,0,1,1.46-.35,3,3,0,0,1,1.47.35,2.48,2.48,0,0,1,1,1,2.87,2.87,0,0,1,0,2.82,2.57,2.57,0,0,1-1,1,3.13,3.13,0,0,1-1.47.35A3.06,3.06,0,0,1,232.79,73.27Zm2.6-1.18a1.85,1.85,0,0,0,0-2.42,1.64,1.64,0,0,0-2.28,0,1.88,1.88,0,0,0,0,2.42,1.64,1.64,0,0,0,2.28,0Z" />
				<path class="cls-3" d="M244.61,68.74a2.34,2.34,0,0,1,.61,1.75v3.06H244v-2.9a1.51,1.51,0,0,0-.33-1.06,1.25,1.25,0,0,0-.94-.35,1.46,1.46,0,0,0-1.09.41,1.66,1.66,0,0,0-.4,1.2v2.7H240V66.13h1.25v2.7a2,2,0,0,1,.76-.51,3,3,0,0,1,1-.17A2.21,2.21,0,0,1,244.61,68.74Z" />
				<path class="cls-3" d="M251.31,71.28h-4.19a1.43,1.43,0,0,0,.57.93,1.9,1.9,0,0,0,1.16.35A2,2,0,0,0,250.3,72l.67.77a2.41,2.41,0,0,1-.91.65,3.47,3.47,0,0,1-1.24.22,3.31,3.31,0,0,1-1.55-.35,2.59,2.59,0,0,1-1-1,2.76,2.76,0,0,1-.36-1.41,2.89,2.89,0,0,1,.35-1.41,2.56,2.56,0,0,1,1-1,3,3,0,0,1,2.81,0,2.49,2.49,0,0,1,1,1,3,3,0,0,1,.35,1.45C251.33,71,251.32,71.12,251.31,71.28Zm-3.7-1.78a1.52,1.52,0,0,0-.5,1h3a1.46,1.46,0,0,0-1.51-1.3A1.56,1.56,0,0,0,247.61,69.5Z" />
				<path class="cls-3" d="M252,66.13h1.25v7.42H252Z" />
				<path class="cls-3" d="M258.67,68.49a2.42,2.42,0,0,1,1,1,3.1,3.1,0,0,1,0,2.86,2.51,2.51,0,0,1-1,1,2.89,2.89,0,0,1-1.39.34,2.16,2.16,0,0,1-1.71-.72v2.59h-1.25V68.21h1.19v.7a1.78,1.78,0,0,1,.76-.57,2.53,2.53,0,0,1,1-.19A2.78,2.78,0,0,1,258.67,68.49Zm-.4,3.6a1.85,1.85,0,0,0,0-2.42,1.48,1.48,0,0,0-1.13-.46,1.68,1.68,0,0,0-.81.2,1.47,1.47,0,0,0-.57.59,1.76,1.76,0,0,0-.21.88,1.82,1.82,0,0,0,.21.88,1.45,1.45,0,0,0,.57.58,1.58,1.58,0,0,0,.81.21A1.51,1.51,0,0,0,258.27,72.09Z" />
				<path class="cls-3" d="M187.72,77.41a2.74,2.74,0,0,1,1.2,1,3.33,3.33,0,0,1,0,3.24,2.68,2.68,0,0,1-1.2,1,4.2,4.2,0,0,1-1.84.37h-1.6v2.32h-1.84V77h3.44A4.2,4.2,0,0,1,187.72,77.41ZM187,81.16a1.37,1.37,0,0,0,.44-1.08A1.35,1.35,0,0,0,187,79a1.81,1.81,0,0,0-1.26-.38h-1.5v2.91h1.5A1.86,1.86,0,0,0,187,81.16Z" />
				<path class="cls-3" d="M196.69,83.88v1.56h-6.16V77h6V78.6h-4.18v1.82h3.69v1.51h-3.69v1.95Z" />
				<path class="cls-3" d="M199.64,85a4.17,4.17,0,0,1-1.56-1.56,4.7,4.7,0,0,1,0-4.45,4.17,4.17,0,0,1,1.56-1.56,4.72,4.72,0,0,1,4.46,0A4.17,4.17,0,0,1,205.66,79a4.7,4.7,0,0,1,0,4.45A4.17,4.17,0,0,1,204.1,85a4.72,4.72,0,0,1-4.46,0Zm3.5-1.44a2.49,2.49,0,0,0,.9-1,3.2,3.2,0,0,0,0-2.79,2.49,2.49,0,0,0-.9-1,2.37,2.37,0,0,0-1.27-.34,2.38,2.38,0,0,0-2.16,1.29,3.11,3.11,0,0,0,0,2.79,2.38,2.38,0,0,0,2.16,1.29A2.37,2.37,0,0,0,203.14,83.58Z" />
				<path class="cls-3" d="M212.77,77.41a2.74,2.74,0,0,1,1.2,1,3.33,3.33,0,0,1,0,3.24,2.68,2.68,0,0,1-1.2,1,4.15,4.15,0,0,1-1.83.37h-1.6v2.32H207.5V77h3.44A4.15,4.15,0,0,1,212.77,77.41Zm-.67,3.75a1.36,1.36,0,0,0,.43-1.08A1.35,1.35,0,0,0,212.1,79a1.83,1.83,0,0,0-1.26-.38h-1.5v2.91h1.5A1.88,1.88,0,0,0,212.1,81.16Z" />
				<path class="cls-3" d="M215.59,77h1.84v6.82h4v1.59h-5.83Z" />
				<path class="cls-3" d="M228.49,83.88v1.56h-6.15V77h6V78.6h-4.19v1.82h3.7v1.51h-3.7v1.95Z" />
				<path class="cls-3" d="M233,77h1.84v8.41H233Z" />
				<path class="cls-3" d="M243.86,77v8.41h-1.51l-4-5.1v5.1h-1.82V77h1.52l4,5.11V77Z" />
				<path class="cls-3" d="M256,77v8.41h-1.52l-4-5.1v5.1h-1.82V77h1.52l4,5.11V77Z" />
				<path class="cls-3" d="M264,83.88v1.56H257.8V77h6V78.6h-4.18v1.82h3.69v1.51h-3.69v1.95Z" />
				<path class="cls-3" d="M271.47,83.88v1.56h-6.16V77h6V78.6h-4.18v1.82h3.69v1.51h-3.69v1.95Z" />
				<path class="cls-3" d="M272.82,77h3.61a4.81,4.81,0,0,1,2.29.53A3.67,3.67,0,0,1,280.27,79a4.7,4.7,0,0,1,0,4.41,3.79,3.79,0,0,1-1.55,1.47,4.81,4.81,0,0,1-2.29.53h-3.61Zm3.52,6.81a2.64,2.64,0,0,0,1.91-.7,2.61,2.61,0,0,0-1.91-4.51h-1.68v5.21Z" />
				<path class="cls-5" d="M51.5,216h-9a1.9,1.9,0,1,0,0,3.79h9a1.9,1.9,0,1,0,0-3.79Zm.62,1.89a.62.62,0,0,1-.62.62h-9a.62.62,0,1,1,0-1.24h9A.62.62,0,0,1,52.12,217.89Z" />
				<path class="cls-5" d="M41.3,220.62a3.58,3.58,0,0,0,2.89,3.49,3,3,0,0,0,5.66,0,3.58,3.58,0,0,0,2.88-3.49V220H41.3ZM45,222.91h-.29a2.32,2.32,0,0,1-2.08-1.65h8.7a2.31,2.31,0,0,1-2.07,1.65H45Zm3.35,1.28a1.69,1.69,0,0,1-2.74,0Z" />
				<path class="cls-5" d="M47,185.15A12.76,12.76,0,0,0,34.27,197.9,12.6,12.6,0,0,0,37,205.76a53.62,53.62,0,0,1,3.8,5.53v4.49H53.18V211.4A56.42,56.42,0,0,1,57,205.76a12.6,12.6,0,0,0,2.73-7.86A12.76,12.76,0,0,0,47,185.15Zm-1.58,18.78.86,3.27,1.48-3.6.72,2.07,1.59-.73L48,214.5h-2L44,204.92Zm6.55,7-.09.15v3.45H49.35l2.72-12.7-1.24-.27-.46,2.11-1.25.58-1.27-3.6-1.33,3.24-.42-1.64-2.38,1.59-.5-2.29-1.35.29,2.78,12.69H42.07v-3.56l-.09-.15A53.41,53.41,0,0,0,38,205a11.33,11.33,0,0,1-2.45-7.07,11.47,11.47,0,0,1,22.94,0A11.33,11.33,0,0,1,56,205h0A61.11,61.11,0,0,0,52,210.9Z" />
				<path class="cls-5" d="M47.49,183.08a.58.58,0,0,0,.58-.59V177a.59.59,0,1,0-1.17,0v5.54A.58.58,0,0,0,47.49,183.08Z" />
				<path class="cls-5" d="M55.68,185.07a.54.54,0,0,0,.3.08.56.56,0,0,0,.5-.28l2.88-4.74a.58.58,0,0,0-.2-.8.57.57,0,0,0-.44-.07.6.6,0,0,0-.36.26l-2.87,4.75a.53.53,0,0,0-.07.44A.56.56,0,0,0,55.68,185.07Z" />
				<path class="cls-5" d="M61.26,191.85a.5.5,0,0,0,.27-.07l4.92-2.56a.59.59,0,1,0-.54-1L61,190.75a.59.59,0,0,0,.27,1.1Z" />
				<path class="cls-5" d="M68.84,198.78a.6.6,0,0,0-.41-.2l-5.53-.35a.59.59,0,0,0-.07,1.17l5.53.35h0a.59.59,0,0,0,.58-.55A.6.6,0,0,0,68.84,198.78Z" />
				<path class="cls-5" d="M65.2,209.86l-4.55-3.18a.61.61,0,0,0-.44-.09.58.58,0,0,0-.23,1l4.55,3.17a.6.6,0,0,0,.34.11.58.58,0,0,0,.57-.69A.55.55,0,0,0,65.2,209.86Z" />
				<path class="cls-5" d="M37.68,184.87a.58.58,0,0,0,.5.28.52.52,0,0,0,.3-.08.58.58,0,0,0,.2-.8l-2.87-4.75a.6.6,0,0,0-.36-.26.59.59,0,0,0-.45.07.58.58,0,0,0-.19.8Z" />
				<path class="cls-5" d="M27.72,189.22l4.91,2.56a.54.54,0,0,0,.27.07.58.58,0,0,0,.27-1.1l-4.91-2.57a.59.59,0,0,0-.54,1Z" />
				<path class="cls-5" d="M31.89,198.78a.59.59,0,0,0-.62-.55l-5.54.35a.57.57,0,0,0-.4.2.6.6,0,0,0-.14.42.58.58,0,0,0,.58.55l5.57-.35A.6.6,0,0,0,31.89,198.78Z" />
				<path class="cls-5" d="M34,206.59a.59.59,0,0,0-.43.09L29,209.85a.59.59,0,0,0-.15.82.58.58,0,0,0,.48.25.55.55,0,0,0,.33-.11l4.55-3.17a.58.58,0,0,0-.23-1Z" />
				<ellipse class="cls-33" cx="46.95" cy="232.08" rx="42.06" ry="2.72" />
				<path class="cls-9" d="M80.85,207.58S80,216.37,73,217c6.93.61,7.82,9.39,7.82,9.39s.89-8.78,7.83-9.39C81.74,216.37,80.85,207.58,80.85,207.58Z" />
				<path class="cls-9" d="M93.79,189s-.59,5.81-5.17,6.21c4.58.4,5.17,6.22,5.17,6.22s.59-5.82,5.18-6.22C94.38,194.81,93.79,189,93.79,189Z" />
				<path class="cls-3" d="M19.41,245.91v2.47h-1.3v-2.45l-2.75-4.55h1.39l2.05,3.41,2.07-3.41h1.28Z" />
				<path class="cls-3" d="M23.17,248.1a2.57,2.57,0,0,1-1-1,3,3,0,0,1,0-2.83,2.72,2.72,0,0,1,1-1,3.24,3.24,0,0,1,2.93,0,2.62,2.62,0,0,1,1,1,2.89,2.89,0,0,1,0,2.83,2.48,2.48,0,0,1-1,1,3.24,3.24,0,0,1-2.93,0Zm2.6-1.18a1.85,1.85,0,0,0,0-2.42,1.64,1.64,0,0,0-2.28,0,1.88,1.88,0,0,0,0,2.42,1.64,1.64,0,0,0,2.28,0Z" />
				<path class="cls-3" d="M33.8,243v5.34H32.61v-.68a2,2,0,0,1-.75.56,2.4,2.4,0,0,1-1,.19,2.32,2.32,0,0,1-1.69-.59,2.36,2.36,0,0,1-.61-1.77V243h1.25v2.88a1.6,1.6,0,0,0,.32,1.08,1.19,1.19,0,0,0,.93.35,1.36,1.36,0,0,0,1.06-.41,1.66,1.66,0,0,0,.4-1.2V243Z" />
				<path class="cls-3" d="M42.75,243.57a2.37,2.37,0,0,1,.61,1.75v3.06H42.11v-2.9a1.5,1.5,0,0,0-.33-1,1.21,1.21,0,0,0-.94-.36,1.42,1.42,0,0,0-1.09.42,1.63,1.63,0,0,0-.4,1.19v2.7H38.1V241h1.25v2.7a2,2,0,0,1,.76-.5,2.76,2.76,0,0,1,1-.18A2.26,2.26,0,0,1,42.75,243.57Z" />
				<path class="cls-3" d="M48.74,243.55a2.17,2.17,0,0,1,.63,1.7v3.13H48.19v-.65a1.37,1.37,0,0,1-.66.54,2.59,2.59,0,0,1-1,.18,2.46,2.46,0,0,1-1-.2,1.73,1.73,0,0,1-.7-.57,1.47,1.47,0,0,1-.24-.83,1.42,1.42,0,0,1,.53-1.15,2.67,2.67,0,0,1,1.69-.44h1.38v-.08a1.08,1.08,0,0,0-.34-.86,1.43,1.43,0,0,0-1-.3,3,3,0,0,0-.89.14,2.41,2.41,0,0,0-.73.39l-.49-.91a3.28,3.28,0,0,1,1-.49,4.6,4.6,0,0,1,1.25-.17A2.56,2.56,0,0,1,48.74,243.55Zm-1.14,3.78a1.14,1.14,0,0,0,.52-.62v-.62H46.83c-.72,0-1.08.24-1.08.71a.63.63,0,0,0,.27.54,1.19,1.19,0,0,0,.75.2A1.63,1.63,0,0,0,47.6,247.33Z" />
				<path class="cls-3" d="M55.82,243l-2.29,5.34H52.24L50,243h1.3l1.66,4,1.71-4Z" />
				<path class="cls-3" d="M61.4,246.11H57.21a1.43,1.43,0,0,0,.57.94,1.9,1.9,0,0,0,1.16.34,1.94,1.94,0,0,0,1.45-.58l.67.77a2.21,2.21,0,0,1-.91.65,3.26,3.26,0,0,1-1.24.22,3.19,3.19,0,0,1-1.55-.35,2.5,2.5,0,0,1-1-1,2.8,2.8,0,0,1-.36-1.42,2.85,2.85,0,0,1,.35-1.4,2.59,2.59,0,0,1,1-1,2.9,2.9,0,0,1,1.42-.35,2.79,2.79,0,0,1,1.39.35,2.42,2.42,0,0,1,1,1,3,3,0,0,1,.35,1.44C61.42,245.83,61.41,246,61.4,246.11Zm-3.7-1.77a1.52,1.52,0,0,0-.5.94h3a1.54,1.54,0,0,0-.49-.94,1.62,1.62,0,0,0-2,0Z" />
				<path class="cls-3" d="M69.12,243.55a2.17,2.17,0,0,1,.63,1.7v3.13H68.57v-.65a1.42,1.42,0,0,1-.66.54,2.59,2.59,0,0,1-1,.18,2.46,2.46,0,0,1-1-.2,1.73,1.73,0,0,1-.7-.57,1.47,1.47,0,0,1-.24-.83,1.42,1.42,0,0,1,.53-1.15,2.67,2.67,0,0,1,1.69-.44H68.5v-.08a1.08,1.08,0,0,0-.34-.86,1.43,1.43,0,0,0-1-.3,3,3,0,0,0-.89.14,2.41,2.41,0,0,0-.73.39l-.49-.91a3.17,3.17,0,0,1,1-.49,4.6,4.6,0,0,1,1.25-.17A2.58,2.58,0,0,1,69.12,243.55ZM68,247.33a1.14,1.14,0,0,0,.52-.62v-.62H67.21c-.72,0-1.08.24-1.08.71a.63.63,0,0,0,.27.54,1.19,1.19,0,0,0,.75.2A1.63,1.63,0,0,0,68,247.33Z" />
				<path class="cls-3" d="M76,243.57a2.37,2.37,0,0,1,.61,1.75v3.06H75.31v-2.9a1.5,1.5,0,0,0-.33-1,1.22,1.22,0,0,0-.94-.36,1.42,1.42,0,0,0-1.09.42,1.63,1.63,0,0,0-.4,1.19v2.7H71.3V243h1.19v.69a2,2,0,0,1,.78-.56,2.9,2.9,0,0,1,1.06-.19A2.26,2.26,0,0,1,76,243.57Z" />
				<path class="cls-3" d="M16.56,273.55a3.54,3.54,0,0,1-1-.43l.48-.95a3,3,0,0,0,.86.38,3.52,3.52,0,0,0,1,.15c.75,0,1.12-.2,1.12-.59a.39.39,0,0,0-.29-.39,4,4,0,0,0-.91-.21,9.33,9.33,0,0,1-1.08-.23,1.74,1.74,0,0,1-.72-.46,1.29,1.29,0,0,1-.3-.9,1.44,1.44,0,0,1,.63-1.22,3,3,0,0,1,1.72-.45,5.15,5.15,0,0,1,1.1.12,3.2,3.2,0,0,1,.9.34l-.48,1a2.91,2.91,0,0,0-1.53-.4,1.71,1.71,0,0,0-.84.16.49.49,0,0,0-.28.44.43.43,0,0,0,.3.42,4.91,4.91,0,0,0,.95.24,6,6,0,0,1,1.05.23,1.52,1.52,0,0,1,.7.44,1.2,1.2,0,0,1,.3.88,1.4,1.4,0,0,1-.65,1.2,3.05,3.05,0,0,1-1.77.45A4.92,4.92,0,0,1,16.56,273.55Z" />
				<path class="cls-3" d="M22.22,273.37a2.67,2.67,0,0,1-1-1,2.94,2.94,0,0,1,0-2.82,2.57,2.57,0,0,1,1-1,3.24,3.24,0,0,1,2.93,0,2.48,2.48,0,0,1,1,1,2.87,2.87,0,0,1,0,2.82,2.57,2.57,0,0,1-1,1,3.24,3.24,0,0,1-2.93,0Zm2.6-1.18a1.85,1.85,0,0,0,0-2.42,1.64,1.64,0,0,0-2.28,0,1.88,1.88,0,0,0,0,2.42,1.64,1.64,0,0,0,2.28,0Z" />
				<path class="cls-3" d="M28.64,273.37a2.63,2.63,0,0,1-1-1,2.87,2.87,0,0,1,0-2.82,2.57,2.57,0,0,1,1-1,3.08,3.08,0,0,1,1.5-.35,2.76,2.76,0,0,1,1.38.32,2.05,2.05,0,0,1,.9.92l-1,.56a1.55,1.55,0,0,0-.58-.56,1.69,1.69,0,0,0-1.91.27A1.62,1.62,0,0,0,28.5,271a1.65,1.65,0,0,0,.45,1.21,1.58,1.58,0,0,0,1.17.46,1.49,1.49,0,0,0,.75-.19,1.52,1.52,0,0,0,.58-.55l1,.56a2.13,2.13,0,0,1-.91.92,2.75,2.75,0,0,1-1.37.33A3.18,3.18,0,0,1,28.64,273.37Z" />
				<path class="cls-3" d="M33.5,267.21a.7.7,0,0,1-.23-.53.73.73,0,0,1,.23-.54.8.8,0,0,1,.57-.21.84.84,0,0,1,.57.2.68.68,0,0,1,.23.52.75.75,0,0,1-.23.55.78.78,0,0,1-.57.23A.81.81,0,0,1,33.5,267.21Zm-.06,1.1h1.25v5.34H33.44Z" />
				<path class="cls-3" d="M40.12,268.81a2.19,2.19,0,0,1,.63,1.71v3.13H39.57V273a1.46,1.46,0,0,1-.66.53,2.58,2.58,0,0,1-1,.19,2.46,2.46,0,0,1-1-.21,1.58,1.58,0,0,1-.7-.57,1.46,1.46,0,0,1-.24-.82,1.44,1.44,0,0,1,.53-1.16,2.67,2.67,0,0,1,1.69-.43H39.5v-.08a1.07,1.07,0,0,0-.34-.86,1.43,1.43,0,0,0-1-.3,2.72,2.72,0,0,0-.89.14,2,2,0,0,0-.73.39l-.49-.91a2.88,2.88,0,0,1,1-.49,4.24,4.24,0,0,1,1.25-.17A2.62,2.62,0,0,1,40.12,268.81ZM39,272.59a1.15,1.15,0,0,0,.52-.61v-.62H38.21c-.72,0-1.08.23-1.08.71a.65.65,0,0,0,.27.54,1.26,1.26,0,0,0,.75.2A1.54,1.54,0,0,0,39,272.59Z" />
				<path class="cls-3" d="M42.3,266.23h1.25v7.42H42.3Z" />
				<path class="cls-3" d="M47.91,267.21a.67.67,0,0,1-.23-.53.69.69,0,0,1,.23-.54.8.8,0,0,1,.57-.21.88.88,0,0,1,.57.2.68.68,0,0,1,.23.52.75.75,0,0,1-.23.55.78.78,0,0,1-.57.23A.81.81,0,0,1,47.91,267.21Zm-.06,1.1H49.1v5.34H47.85Z" />
				<path class="cls-3" d="M59,268.83a2.4,2.4,0,0,1,.59,1.76v3.06H58.37v-2.9a1.61,1.61,0,0,0-.31-1.06,1.15,1.15,0,0,0-.89-.35,1.32,1.32,0,0,0-1,.41,1.67,1.67,0,0,0-.38,1.19v2.71H54.53v-2.9a1.61,1.61,0,0,0-.31-1.06,1.15,1.15,0,0,0-.89-.35,1.29,1.29,0,0,0-1,.41,1.7,1.7,0,0,0-.37,1.19v2.71H50.69v-5.34h1.19V269a1.88,1.88,0,0,1,.75-.55,2.48,2.48,0,0,1,1-.19,2.39,2.39,0,0,1,1.06.22,1.71,1.71,0,0,1,.74.67,2.24,2.24,0,0,1,.85-.66,2.84,2.84,0,0,1,1.15-.23A2.19,2.19,0,0,1,59,268.83Z" />
				<path class="cls-3" d="M65.52,268.59a2.42,2.42,0,0,1,1,1,3.1,3.1,0,0,1,0,2.86,2.51,2.51,0,0,1-1,1,2.89,2.89,0,0,1-1.39.34,2.16,2.16,0,0,1-1.71-.72v2.59H61.17v-7.28h1.19v.7a1.78,1.78,0,0,1,.76-.57,2.56,2.56,0,0,1,1-.19A2.78,2.78,0,0,1,65.52,268.59Zm-.4,3.6a1.85,1.85,0,0,0,0-2.42,1.48,1.48,0,0,0-1.13-.46,1.68,1.68,0,0,0-.81.2,1.47,1.47,0,0,0-.57.59,1.76,1.76,0,0,0-.21.88,1.82,1.82,0,0,0,.21.88,1.45,1.45,0,0,0,.57.58,1.58,1.58,0,0,0,.81.21A1.51,1.51,0,0,0,65.12,272.19Z" />
				<path class="cls-3" d="M71.75,268.81a2.19,2.19,0,0,1,.63,1.71v3.13H71.2V273a1.46,1.46,0,0,1-.66.53,2.58,2.58,0,0,1-1,.19,2.46,2.46,0,0,1-1-.21,1.58,1.58,0,0,1-.7-.57,1.46,1.46,0,0,1-.24-.82,1.44,1.44,0,0,1,.53-1.16,2.67,2.67,0,0,1,1.69-.43h1.38v-.08a1.07,1.07,0,0,0-.34-.86,1.43,1.43,0,0,0-1-.3,2.72,2.72,0,0,0-.89.14,2,2,0,0,0-.73.39l-.49-.91a2.8,2.8,0,0,1,1-.49,4.24,4.24,0,0,1,1.25-.17A2.62,2.62,0,0,1,71.75,268.81Zm-1.14,3.78a1.15,1.15,0,0,0,.52-.61v-.62H69.84c-.72,0-1.08.23-1.08.71a.65.65,0,0,0,.27.54,1.26,1.26,0,0,0,.75.2A1.54,1.54,0,0,0,70.61,272.59Z" />
				<path class="cls-3" d="M74.94,273.37a2.56,2.56,0,0,1-1-1,2.87,2.87,0,0,1,0-2.82,2.51,2.51,0,0,1,1-1,3.08,3.08,0,0,1,1.5-.35,2.79,2.79,0,0,1,1.38.32,2.05,2.05,0,0,1,.9.92l-1,.56a1.63,1.63,0,0,0-.58-.56,1.6,1.6,0,0,0-.75-.18,1.58,1.58,0,0,0-1.16.45A1.62,1.62,0,0,0,74.8,271a1.65,1.65,0,0,0,.45,1.21,1.57,1.57,0,0,0,1.17.46,1.49,1.49,0,0,0,.75-.19,1.6,1.6,0,0,0,.58-.55l1,.56a2.13,2.13,0,0,1-.91.92,2.75,2.75,0,0,1-1.37.33A3.15,3.15,0,0,1,74.94,273.37Z" />
				<path class="cls-3" d="M83,273.36a1.52,1.52,0,0,1-.54.27,2.39,2.39,0,0,1-.66.09,1.91,1.91,0,0,1-1.36-.46,1.79,1.79,0,0,1-.48-1.34v-2.57H79.1v-1H80v-1.22h1.25v1.22h1.43v1H81.23v2.54a.81.81,0,0,0,.19.59.69.69,0,0,0,.55.21,1.15,1.15,0,0,0,.7-.22Z" />
				<path class="cls-3" d="M53,256.44v.32h1.47v1H53v4.3H51.79v-4.3h-.88v-1h.88v-.34a1.79,1.79,0,0,1,.5-1.35,1.91,1.91,0,0,1,1.41-.5,2,2,0,0,1,1.13.29l-.35.94a1.28,1.28,0,0,0-.69-.22C53.26,255.58,53,255.87,53,256.44Z" />
				<path class="cls-3" d="M56.12,261.78a2.58,2.58,0,0,1-1-1,2.8,2.8,0,0,1-.36-1.42A2.76,2.76,0,0,1,55.1,258a2.65,2.65,0,0,1,1-1,3.06,3.06,0,0,1,1.46-.35,3.13,3.13,0,0,1,1.47.35,2.62,2.62,0,0,1,1,1,2.68,2.68,0,0,1,.37,1.41,2.71,2.71,0,0,1-.37,1.42,2.55,2.55,0,0,1-1,1,3,3,0,0,1-1.47.35A3,3,0,0,1,56.12,261.78Zm2.6-1.18a1.85,1.85,0,0,0,0-2.42,1.64,1.64,0,0,0-2.28,0,1.88,1.88,0,0,0,0,2.42,1.64,1.64,0,0,0,2.28,0Z" />
				<path class="cls-3" d="M64.67,256.66v1.19l-.29,0a1.48,1.48,0,0,0-1.14.43,1.65,1.65,0,0,0-.41,1.22v2.59H61.58v-5.34h1.19v.78A2.08,2.08,0,0,1,64.67,256.66Z" />
				<path class="cls-3" d="M16.3,253.12h1.84v8.4H16.3Z" />
				<path class="cls-3" d="M19.92,253.12h3.61a4.83,4.83,0,0,1,2.29.52,3.76,3.76,0,0,1,1.54,1.47,4.72,4.72,0,0,1,0,4.42A3.76,3.76,0,0,1,25.82,261a4.83,4.83,0,0,1-2.29.52H19.92Zm3.52,6.8a2.6,2.6,0,1,0,0-5.2H21.76v5.2Z" />
				<path class="cls-3" d="M35.35,260v1.56H29.19v-8.4h6v1.56H31v1.82h3.69V258H31V260Z" />
				<path class="cls-3" d="M41.94,259.72h-3.7l-.7,1.8H35.65l3.55-8.4H41l3.55,8.4H42.64Zm-.58-1.48L40.1,255l-1.27,3.21Z" />
				<path class="cls-5" d="M229.56,248.19h0m.17,2.95a13.18,13.18,0,0,1,1.73,7.5,9.15,9.15,0,0,1-4.24,6.88c2-4,2.74-8.35,2.51-14.38m-1.35-3.68c-.33,0-.52.29-.47.93.7,9-.24,14.18-4.32,19.93,4.46,0,9-4.17,9.52-9.53.5-6.21-3.35-11.33-4.73-11.33Z" />
				<path class="cls-5" d="M239,248.19h0m-1.57.87h0m1.66,2.23a14.27,14.27,0,0,1,1.28,3.63c.6,2.79.89,8.33-3.81,14.16a1.66,1.66,0,0,0,1.91,2.58,18.84,18.84,0,0,0,8-7.09,16.62,16.62,0,0,1-.6,2.81,17.84,17.84,0,0,1-9.1,10.7,1.66,1.66,0,0,0,.76,3.13h.16a19.72,19.72,0,0,0,5.57-1.52,17.07,17.07,0,0,1-9,5.24,18.83,18.83,0,0,1-3.62.35c-5.82,0-10.72-2.58-13.1-6.9a16.77,16.77,0,0,1-1.65-6.58c-.32-2.88-.66-6.08-3.31-8.42a3.07,3.07,0,0,1,1.65-.47,3.56,3.56,0,0,1,2.33.9,6.63,6.63,0,0,1,1.66,3.31,5.6,5.6,0,0,0,2.59,4,6.49,6.49,0,0,0,3.2.79c3.26,0,7.17-2,9.74-5.07a25.27,25.27,0,0,0,5.36-15.52m9,10.27h0m-10.3-14.09c-.32,0-.5.3-.45.94.57,7.41-1.73,13.5-4.9,17.35-2.13,2.51-5.59,4.46-8.46,4.46a4.81,4.81,0,0,1-2.39-.58c-2.37-1.31-1.12-4.26-3.92-7a5.16,5.16,0,0,0-3.47-1.36A5,5,0,0,0,210,263.6c5.92,3.27,2.81,9.67,6.06,15.57,3.05,5.52,9,7.76,14.56,7.76a20.51,20.51,0,0,0,3.95-.38c9-1.79,14.1-10.82,12.37-10.82a2.26,2.26,0,0,0-1.13.57,18.14,18.14,0,0,1-8.29,3.25c11.95-6.26,11.49-19.32,9.74-19.32-.25,0-.52.26-.79.85a18,18,0,0,1-8.62,9c4.5-5.58,5.06-11.26,4.15-15.54s-3.21-7.11-4.2-7.11Z" />
				<ellipse class="cls-34" cx="230.97" cy="291.47" rx="46.49" ry="2.18" />
				<path class="cls-3" d="M210.82,304.86a3.4,3.4,0,0,1-1.34-1.29,3.72,3.72,0,0,1,0-3.69,3.49,3.49,0,0,1,1.35-1.29,4.22,4.22,0,0,1,3.48-.16,3.1,3.1,0,0,1,1.2.87l-.84.79a2.43,2.43,0,0,0-1.87-.82,2.62,2.62,0,0,0-1.29.31,2.28,2.28,0,0,0-.89.88,2.66,2.66,0,0,0,0,2.53,2.28,2.28,0,0,0,.89.88,2.62,2.62,0,0,0,1.29.32,2.41,2.41,0,0,0,1.87-.84l.84.8a3.1,3.1,0,0,1-1.2.87,3.87,3.87,0,0,1-1.58.3A3.94,3.94,0,0,1,210.82,304.86Z" />
				<path class="cls-3" d="M219.68,299.82V301a1,1,0,0,0-.29,0,1.55,1.55,0,0,0-1.14.43,1.71,1.71,0,0,0-.41,1.23v2.59h-1.25v-5.34h1.19v.78A2.07,2.07,0,0,1,219.68,299.82Z" />
				<path class="cls-3" d="M225.64,303h-4.19a1.48,1.48,0,0,0,.58.93,1.87,1.87,0,0,0,1.15.34,1.93,1.93,0,0,0,1.45-.58l.67.78a2.21,2.21,0,0,1-.91.64,3.49,3.49,0,0,1-2.79-.13,2.47,2.47,0,0,1-1-1,2.8,2.8,0,0,1-.37-1.41,2.76,2.76,0,0,1,.36-1.41,2.47,2.47,0,0,1,1-1,3,3,0,0,1,2.82,0,2.42,2.42,0,0,1,1,1,3,3,0,0,1,.34,1.45A2.85,2.85,0,0,1,225.64,303ZM222,301.18a1.49,1.49,0,0,0-.51.95h3a1.42,1.42,0,0,0-.49-.94,1.44,1.44,0,0,0-1-.37A1.49,1.49,0,0,0,222,301.18Z" />
				<path class="cls-3" d="M230.51,300.39a2.19,2.19,0,0,1,.62,1.71v3.13H230v-.66a1.39,1.39,0,0,1-.65.54,2.63,2.63,0,0,1-1,.19,2.46,2.46,0,0,1-1.05-.21,1.63,1.63,0,0,1-.69-.57,1.48,1.48,0,0,1-.25-.83,1.41,1.41,0,0,1,.54-1.15,2.66,2.66,0,0,1,1.68-.44h1.38V302a1.07,1.07,0,0,0-.33-.85,1.46,1.46,0,0,0-1-.31,2.67,2.67,0,0,0-.88.15,2.25,2.25,0,0,0-.74.38l-.49-.91a3.28,3.28,0,0,1,1-.49,4.66,4.66,0,0,1,1.25-.17A2.6,2.6,0,0,1,230.51,300.39Zm-1.14,3.78a1.18,1.18,0,0,0,.51-.61v-.62h-1.29c-.72,0-1.08.23-1.08.7a.66.66,0,0,0,.27.55,1.26,1.26,0,0,0,.75.2A1.64,1.64,0,0,0,229.37,304.17Z" />
				<path class="cls-3" d="M235.89,304.94a1.56,1.56,0,0,1-.53.27,2.41,2.41,0,0,1-.67.09,1.93,1.93,0,0,1-1.36-.46,1.79,1.79,0,0,1-.48-1.35v-2.56H232v-1h.88v-1.22h1.25v1.22h1.43v1H234.1v2.54a.87.87,0,0,0,.19.59.71.71,0,0,0,.55.21,1.12,1.12,0,0,0,.7-.22Z" />
				<path class="cls-3" d="M241.69,303H237.5a1.48,1.48,0,0,0,.58.93,1.87,1.87,0,0,0,1.15.34,1.93,1.93,0,0,0,1.45-.58l.67.78a2.21,2.21,0,0,1-.91.64,3.49,3.49,0,0,1-2.79-.13,2.47,2.47,0,0,1-1-1,2.8,2.8,0,0,1-.37-1.41,2.76,2.76,0,0,1,.36-1.41,2.47,2.47,0,0,1,1-1,3,3,0,0,1,2.82,0,2.42,2.42,0,0,1,1,1,3,3,0,0,1,.34,1.45A2.85,2.85,0,0,1,241.69,303ZM238,301.18a1.49,1.49,0,0,0-.51.95h3a1.42,1.42,0,0,0-.49-.94,1.44,1.44,0,0,0-1-.37A1.49,1.49,0,0,0,238,301.18Z" />
				<path class="cls-3" d="M249.42,300.39a2.19,2.19,0,0,1,.62,1.71v3.13h-1.18v-.66a1.39,1.39,0,0,1-.65.54,2.63,2.63,0,0,1-1,.19,2.46,2.46,0,0,1-1.05-.21,1.63,1.63,0,0,1-.69-.57,1.48,1.48,0,0,1-.25-.83,1.41,1.41,0,0,1,.54-1.15,2.66,2.66,0,0,1,1.68-.44h1.38V302a1.07,1.07,0,0,0-.33-.85,1.46,1.46,0,0,0-1-.31,2.67,2.67,0,0,0-.88.15,2.25,2.25,0,0,0-.74.38l-.49-.91a3.28,3.28,0,0,1,1-.49,4.66,4.66,0,0,1,1.25-.17A2.6,2.6,0,0,1,249.42,300.39Zm-1.14,3.78a1.18,1.18,0,0,0,.51-.61v-.62H247.5c-.72,0-1.08.23-1.08.7a.66.66,0,0,0,.27.55,1.26,1.26,0,0,0,.75.2A1.64,1.64,0,0,0,248.28,304.17Z" />
				<path class="cls-3" d="M211.1,316.7a4,4,0,0,1-1.54-1.55,4.74,4.74,0,0,1,0-4.47,4,4,0,0,1,1.54-1.55,4.71,4.71,0,0,1,4.08-.18,3.83,3.83,0,0,1,1.41,1.11l-1.18,1.15a2.6,2.6,0,0,0-3.32-.64,2.38,2.38,0,0,0-.91.95,3,3,0,0,0-.32,1.39,3,3,0,0,0,.32,1.4,2.45,2.45,0,0,0,.91.95,2.59,2.59,0,0,0,3.32-.65l1.18,1.15a3.64,3.64,0,0,1-1.41,1.11,4.66,4.66,0,0,1-4.08-.17Z" />
				<path class="cls-3" d="M222.79,315.31H219.1l-.71,1.8h-1.88l3.54-8.4h1.82l3.56,8.4H223.5Zm-.58-1.47L221,310.62l-1.26,3.22Z" />
				<path class="cls-3" d="M233.38,317.11v-5L231,316.23h-.83l-2.33-4.05v4.93h-1.73v-8.4h1.53l3,5.22,2.93-5.22h1.52l0,8.4Z" />
				<path class="cls-3" d="M242.16,309.09a2.74,2.74,0,0,1,1.2,1.05,3.33,3.33,0,0,1,0,3.24,2.68,2.68,0,0,1-1.2,1.05,4.2,4.2,0,0,1-1.84.37h-1.6v2.31h-1.84v-8.4h3.44A4.2,4.2,0,0,1,242.16,309.09Zm-.68,3.75a1.36,1.36,0,0,0,.43-1.08,1.35,1.35,0,0,0-.43-1.08,1.83,1.83,0,0,0-1.26-.38h-1.5v2.91h1.5A1.88,1.88,0,0,0,241.48,312.84Z" />
				<path class="cls-3" d="M249.81,315.31h-3.69l-.71,1.8h-1.88l3.54-8.4h1.82l3.56,8.4h-1.93Zm-.58-1.47L248,310.62l-1.26,3.22Z" />
				<path class="cls-3" d="M253.16,308.71H255v8.4h-1.84Z" />
				<path class="cls-3" d="M262.15,312.78h1.68v3.41a4.67,4.67,0,0,1-1.5.79,5.37,5.37,0,0,1-1.71.28,4.48,4.48,0,0,1-2.23-.56,4,4,0,0,1-1.55-1.55,4.74,4.74,0,0,1,0-4.47,3.94,3.94,0,0,1,1.56-1.55,4.58,4.58,0,0,1,2.25-.56,4.67,4.67,0,0,1,1.9.37A3.82,3.82,0,0,1,264,310l-1.18,1.15a2.8,2.8,0,0,0-3.41-.61,2.4,2.4,0,0,0-.92.95,3.13,3.13,0,0,0,0,2.8,2.45,2.45,0,0,0,.91.95,2.59,2.59,0,0,0,1.34.34,2.84,2.84,0,0,0,1.43-.36Z" />
				<path class="cls-3" d="M272.72,308.71v8.4h-1.51l-4-5.1v5.1h-1.82v-8.4H267l3.95,5.1v-5.1Z" />
				<path class="cls-5" d="M72.26,369.7H60.64a.87.87,0,1,1,0-1.73H72.26a.87.87,0,1,1,0,1.73Z" />
				<path class="cls-5" d="M72.26,384.8H68.05a.87.87,0,0,1,0-1.73h4.21a.87.87,0,1,1,0,1.73Z" />
				<path class="cls-5" d="M72.16,373.5H62.21a.87.87,0,0,1,0-1.73h9.95a.87.87,0,0,1,0,1.73Z" />
				<path class="cls-5" d="M72.26,377.25H60.64a.87.87,0,1,1,0-1.73H72.26a.87.87,0,1,1,0,1.73Z" />
				<path class="cls-5" d="M77.17,362.33a.86.86,0,0,0-.34-.69L66.65,351.47h0a1.09,1.09,0,0,0-.17-.13l0,0-.21-.07h0l-.16,0H46.11a.86.86,0,0,0-.86.87v8.74c.32,0,.65,0,1,0s.5,0,.75,0V353H65.17v9.38a.87.87,0,0,0,.87.87h9.39v27.38H47v-7.86l-.75,0c-.33,0-.66,0-1-.05v8.75a.85.85,0,0,0,.86.86H76.29a.86.86,0,0,0,.87-.86v-29S77.17,362.37,77.17,362.33Zm-10.27-.86v-7.3l7.3,7.3Z" />
				<path class="cls-5" d="M44.82,376.57a.87.87,0,0,1-.57-.22L40.42,373a.86.86,0,0,1-.08-1.22.87.87,0,0,1,1.22-.08l3.17,2.79,6.09-7.19a.87.87,0,0,1,1.32,1.12l-6.66,7.86a.81.81,0,0,1-.59.3Z" />
				<path class="cls-5" d="M46.23,383.62c-.34,0-.68,0-1.06-.05a11.85,11.85,0,0,1,0-23.61,10.9,10.9,0,0,1,1.89,0,11.85,11.85,0,0,1,0,23.65Q46.65,383.62,46.23,383.62Zm0-22c-.28,0-.58,0-.91,0a10.12,10.12,0,0,0,0,20.16,8.41,8.41,0,0,0,1.58,0,10.12,10.12,0,0,0,0-20.19Z" />
				<ellipse class="cls-35" cx="61.44" cy="396.38" rx="46.49" ry="2.18" />
				<path class="cls-3" d="M20,410.07a3.4,3.4,0,0,1-1.34-1.29,3.47,3.47,0,0,1-.49-1.84,3.57,3.57,0,0,1,.49-1.85A3.49,3.49,0,0,1,20,403.8a4.22,4.22,0,0,1,3.48-.16,3.1,3.1,0,0,1,1.2.87l-.84.79a2.43,2.43,0,0,0-1.87-.82,2.62,2.62,0,0,0-1.29.31,2.28,2.28,0,0,0-.89.88,2.66,2.66,0,0,0,0,2.53,2.28,2.28,0,0,0,.89.88,2.62,2.62,0,0,0,1.29.31,2.4,2.4,0,0,0,1.87-.83l.84.8a3.18,3.18,0,0,1-1.2.87,3.87,3.87,0,0,1-1.58.3A3.94,3.94,0,0,1,20,410.07Z" />
				<path class="cls-3" d="M29.54,405.6a2.22,2.22,0,0,1,.62,1.71v3.13H29v-.66a1.39,1.39,0,0,1-.65.54,2.67,2.67,0,0,1-1,.19,2.46,2.46,0,0,1-1.05-.21,1.63,1.63,0,0,1-.69-.57,1.5,1.5,0,0,1,.29-2,2.64,2.64,0,0,1,1.68-.44h1.38v-.08a1.07,1.07,0,0,0-.33-.85,1.48,1.48,0,0,0-1-.31,2.67,2.67,0,0,0-.88.15,2.25,2.25,0,0,0-.74.38l-.49-.91a3.28,3.28,0,0,1,1-.49,4.66,4.66,0,0,1,1.25-.17A2.6,2.6,0,0,1,29.54,405.6Zm-1.14,3.78a1.18,1.18,0,0,0,.51-.61v-.63H27.62c-.72,0-1.08.24-1.08.71a.63.63,0,0,0,.27.54,1.19,1.19,0,0,0,.75.21A1.64,1.64,0,0,0,28.4,409.38Z" />
				<path class="cls-3" d="M40.05,405.62a2.36,2.36,0,0,1,.59,1.76v3.06H39.39v-2.91a1.55,1.55,0,0,0-.31-1,1.09,1.09,0,0,0-.89-.35,1.3,1.3,0,0,0-1,.41,1.72,1.72,0,0,0-.38,1.19v2.71H35.55v-2.91a1.55,1.55,0,0,0-.31-1,1.09,1.09,0,0,0-.89-.35,1.31,1.31,0,0,0-1,.4,1.73,1.73,0,0,0-.38,1.2v2.71H31.71V405.1H32.9v.67a1.86,1.86,0,0,1,.75-.54,2.51,2.51,0,0,1,1-.2,2.44,2.44,0,0,1,1.07.23,1.69,1.69,0,0,1,.73.67,2.22,2.22,0,0,1,.85-.66,2.72,2.72,0,0,1,1.15-.24A2.16,2.16,0,0,1,40.05,405.62Z" />
				<path class="cls-3" d="M46.55,405.38a2.34,2.34,0,0,1,1,1,3.1,3.1,0,0,1,0,2.86,2.42,2.42,0,0,1-1,1,2.93,2.93,0,0,1-1.4.34,2.13,2.13,0,0,1-1.71-.73v2.6H42.19V405.1h1.19v.7a1.81,1.81,0,0,1,.77-.57,2.51,2.51,0,0,1,1-.2A2.82,2.82,0,0,1,46.55,405.38Zm-.4,3.6a1.88,1.88,0,0,0,0-2.42A1.51,1.51,0,0,0,45,406.1a1.57,1.57,0,0,0-.81.2,1.47,1.47,0,0,0-.57.59,1.93,1.93,0,0,0,0,1.75,1.47,1.47,0,0,0,.57.59,1.58,1.58,0,0,0,.81.21A1.55,1.55,0,0,0,46.15,409Z" />
				<path class="cls-3" d="M52.78,405.6a2.22,2.22,0,0,1,.62,1.71v3.13H52.22v-.66a1.39,1.39,0,0,1-.65.54,2.67,2.67,0,0,1-1,.19,2.46,2.46,0,0,1-1-.21,1.63,1.63,0,0,1-.69-.57,1.5,1.5,0,0,1,.29-2,2.64,2.64,0,0,1,1.68-.44h1.38v-.08a1.07,1.07,0,0,0-.33-.85,1.48,1.48,0,0,0-1-.31,2.67,2.67,0,0,0-.88.15,2.25,2.25,0,0,0-.74.38l-.49-.91a3.28,3.28,0,0,1,1-.49A4.66,4.66,0,0,1,51,405,2.6,2.6,0,0,1,52.78,405.6Zm-1.14,3.78a1.18,1.18,0,0,0,.51-.61v-.63H50.86c-.72,0-1.08.24-1.08.71a.63.63,0,0,0,.27.54,1.19,1.19,0,0,0,.75.21A1.67,1.67,0,0,0,51.64,409.38Z" />
				<path class="cls-3" d="M55,404a.74.74,0,0,1,0-1.07.84.84,0,0,1,.57-.21.8.8,0,0,1,.57.2.65.65,0,0,1,.23.52.75.75,0,0,1-.22.55.78.78,0,0,1-.58.23A.85.85,0,0,1,55,404ZM55,405.1H56.2v5.34H55Z" />
				<path class="cls-3" d="M63.09,405.1v4.53c0,1.88-1,2.81-2.88,2.81a5.36,5.36,0,0,1-1.46-.19,3.2,3.2,0,0,1-1.14-.56l.56-.95a2.68,2.68,0,0,0,.89.47,3.35,3.35,0,0,0,1.08.18,1.77,1.77,0,0,0,1.29-.41,1.58,1.58,0,0,0,.41-1.21v-.29a2.06,2.06,0,0,1-.78.54,2.71,2.71,0,0,1-1,.17,2.85,2.85,0,0,1-1.37-.32,2.39,2.39,0,0,1-1-.92,2.69,2.69,0,0,1,0-2.69,2.43,2.43,0,0,1,1-.91,3,3,0,0,1,1.37-.32,2.78,2.78,0,0,1,1.06.2,1.89,1.89,0,0,1,.79.58v-.71Zm-1.68,3.61a1.45,1.45,0,0,0,.45-1.11,1.41,1.41,0,0,0-.45-1.08,1.84,1.84,0,0,0-2.34,0,1.39,1.39,0,0,0-.46,1.08,1.42,1.42,0,0,0,.46,1.11,1.65,1.65,0,0,0,1.17.43A1.67,1.67,0,0,0,61.41,408.71Z" />
				<path class="cls-3" d="M69.33,405.63a2.3,2.3,0,0,1,.61,1.75v3.06H68.69v-2.91a1.5,1.5,0,0,0-.33-1,1.2,1.2,0,0,0-.94-.35,1.43,1.43,0,0,0-1.09.41,1.69,1.69,0,0,0-.4,1.19v2.71H64.68V405.1h1.19v.68a2,2,0,0,1,.78-.55,2.78,2.78,0,0,1,1.06-.2A2.19,2.19,0,0,1,69.33,405.63Z" />
				<path class="cls-3" d="M78.78,403.73a2.33,2.33,0,0,1,1,.87,2.38,2.38,0,0,1,.36,1.33,2.42,2.42,0,0,1-.36,1.32,2.19,2.19,0,0,1-1,.86,3.89,3.89,0,0,1-1.59.31H75.61v2h-1.3v-7h2.88A3.89,3.89,0,0,1,78.78,403.73ZM78.42,407a1.21,1.21,0,0,0,.44-1,1.26,1.26,0,0,0-.44-1,2,2,0,0,0-1.29-.36H75.61v2.78h1.52A2,2,0,0,0,78.42,407Z" />
				<path class="cls-3" d="M81.4,403h1.25v7.42H81.4Z" />
				<path class="cls-3" d="M88.09,405.6a2.22,2.22,0,0,1,.62,1.71v3.13H87.53v-.66a1.39,1.39,0,0,1-.65.54,2.67,2.67,0,0,1-1,.19,2.46,2.46,0,0,1-1-.21,1.63,1.63,0,0,1-.69-.57,1.5,1.5,0,0,1,.29-2,2.62,2.62,0,0,1,1.68-.44h1.38v-.08a1.07,1.07,0,0,0-.33-.85,1.48,1.48,0,0,0-1-.31,2.67,2.67,0,0,0-.88.15,2.25,2.25,0,0,0-.74.38l-.49-.91a3.28,3.28,0,0,1,1-.49,4.66,4.66,0,0,1,1.25-.17A2.6,2.6,0,0,1,88.09,405.6ZM87,409.38a1.18,1.18,0,0,0,.51-.61v-.63H86.17c-.72,0-1.08.24-1.08.71a.63.63,0,0,0,.27.54,1.19,1.19,0,0,0,.75.21A1.67,1.67,0,0,0,87,409.38Z" />
				<path class="cls-3" d="M93.47,410.14a1.49,1.49,0,0,1-.53.28,2.46,2.46,0,0,1-.67.09,1.91,1.91,0,0,1-1.36-.46,1.79,1.79,0,0,1-.48-1.35v-2.56h-.88v-1h.88v-1.22h1.25v1.22h1.43v1H91.68v2.54a.82.82,0,0,0,.19.59.71.71,0,0,0,.55.21,1.15,1.15,0,0,0,.7-.22Z" />
				<path class="cls-3" d="M95.83,404.81v.33H97.3v1H95.87v4.3H94.62v-4.3h-.88v-1h.88v-.34a1.84,1.84,0,0,1,.5-1.36,1.91,1.91,0,0,1,1.41-.5,2,2,0,0,1,1.13.29l-.35.95a1.17,1.17,0,0,0-.69-.23C96.09,404,95.83,404.24,95.83,404.81Z" />
				<path class="cls-3" d="M99,410.15a2.48,2.48,0,0,1-1-1,2.89,2.89,0,0,1,0-2.83,2.53,2.53,0,0,1,1-1,3.16,3.16,0,0,1,2.93,0,2.62,2.62,0,0,1,1,1,3,3,0,0,1,0,2.83,2.57,2.57,0,0,1-1,1,3.16,3.16,0,0,1-2.93,0Zm2.6-1.17a1.85,1.85,0,0,0,0-2.42,1.51,1.51,0,0,0-1.14-.46,1.48,1.48,0,0,0-1.13.46,1.85,1.85,0,0,0,0,2.42,1.51,1.51,0,0,0,1.13.46A1.55,1.55,0,0,0,101.55,409Z" />
				<path class="cls-3" d="M107.5,405v1.2a1.06,1.06,0,0,0-.29,0,1.51,1.51,0,0,0-1.14.43,1.71,1.71,0,0,0-.41,1.23v2.59h-1.25V405.1h1.19v.78A2.06,2.06,0,0,1,107.5,405Z" />
				<path class="cls-3" d="M116.85,405.62a2.4,2.4,0,0,1,.59,1.76v3.06h-1.25v-2.91a1.55,1.55,0,0,0-.31-1,1.1,1.1,0,0,0-.89-.35,1.28,1.28,0,0,0-1,.41,1.72,1.72,0,0,0-.38,1.19v2.71h-1.25v-2.91a1.55,1.55,0,0,0-.31-1,1.1,1.1,0,0,0-.89-.35,1.3,1.3,0,0,0-1,.4,1.73,1.73,0,0,0-.38,1.2v2.71h-1.25V405.1h1.19v.67a1.86,1.86,0,0,1,.75-.54,2.48,2.48,0,0,1,1-.2,2.44,2.44,0,0,1,1.07.23,1.69,1.69,0,0,1,.73.67,2.15,2.15,0,0,1,.85-.66,2.72,2.72,0,0,1,1.15-.24A2.18,2.18,0,0,1,116.85,405.62Z" />
				<path class="cls-3" d="M26.29,413.92l-3.44,8.4H21l-3.43-8.4h2l2.42,6,2.45-6Z" />
				<path class="cls-3" d="M31.81,420.52H28.12l-.7,1.8H25.53l3.55-8.4h1.81l3.56,8.4H32.52Zm-.57-1.47L30,415.83l-1.26,3.22Z" />
				<path class="cls-3" d="M35.17,413.92H37v6.82h4v1.58H35.17Z" />
				<path class="cls-3" d="M41.92,413.92h1.84v8.4H41.92Z" />
				<path class="cls-3" d="M45.53,413.92h3.61a4.81,4.81,0,0,1,2.29.53A3.67,3.67,0,0,1,53,415.92a4.7,4.7,0,0,1,0,4.41,3.79,3.79,0,0,1-1.55,1.47,4.8,4.8,0,0,1-2.29.52H45.53Zm3.52,6.81A2.6,2.6,0,0,0,51,420a2.61,2.61,0,0,0-1.9-4.51H47.37v5.21Z" />
				<path class="cls-3" d="M59.93,420.52h-3.7l-.7,1.8H53.64l3.55-8.4H59l3.55,8.4H60.63Zm-.58-1.47-1.26-3.22-1.27,3.22Z" />
				<path class="cls-3" d="M64.53,415.51H62v-1.59h6.93v1.59H66.37v6.81H64.53Z" />
				<path class="cls-3" d="M69.79,413.92h1.84v8.4H69.79Z" />
				<path class="cls-3" d="M75,421.9a4.07,4.07,0,0,1-1.56-1.55,4.7,4.7,0,0,1,0-4.45A4.17,4.17,0,0,1,75,414.34a4.72,4.72,0,0,1,4.46,0A4.17,4.17,0,0,1,81,415.9a4.63,4.63,0,0,1,0,4.45,4.07,4.07,0,0,1-1.56,1.55,4.65,4.65,0,0,1-4.46,0Zm3.51-1.43a2.47,2.47,0,0,0,.89-1,3,3,0,0,0,.32-1.4,3,3,0,0,0-.32-1.39,2.4,2.4,0,0,0-.89-1,2.43,2.43,0,0,0-1.28-.34,2.38,2.38,0,0,0-2.16,1.29,2.88,2.88,0,0,0-.32,1.39,2.92,2.92,0,0,0,.32,1.4,2.47,2.47,0,0,0,.89,1,2.39,2.39,0,0,0,1.27.34A2.43,2.43,0,0,0,78.53,420.47Z" />
				<path class="cls-3" d="M90.17,413.92v8.4H88.66l-4-5.1v5.1H82.88v-8.4H84.4l4,5.1v-5.1Z" />
			</g>
		</g>
	</g>
</svg>