<svg xmlns="http://www.w3.org/2000/svg" xmlns:xlink="http://www.w3.org/1999/xlink" viewBox="0 0 1049.92 1335">
	<defs>
		<style>.cls-1{isolation:isolate;}.cls-19,.cls-2,.cls-22,.cls-23,.cls-26,.cls-27,.cls-29,.cls-30,.cls-33,.cls-5,.cls-9{mix-blend-mode:darken;opacity:0.9;}.cls-2{fill:url(#radial-gradient);}.cls-10,.cls-12,.cls-14,.cls-15,.cls-17,.cls-18,.cls-21,.cls-24,.cls-25,.cls-3,.cls-31,.cls-32,.cls-34{fill:none;}.cls-12,.cls-14,.cls-21,.cls-24,.cls-3,.cls-31,.cls-32,.cls-34{stroke:#ffcb57;}.cls-21,.cls-3,.cls-31,.cls-32{stroke-miterlimit:10;}.cls-3{stroke-width:3.61px;}.cls-4{fill:#ffcb57;}.cls-5{fill:url(#radial-gradient-2);}.cls-6{fill:#32a9fe;}.cls-17,.cls-18,.cls-20,.cls-28,.cls-7{mix-blend-mode:multiply;}.cls-8{fill:#ffd7e9;}.cls-9{fill:url(#radial-gradient-3);}.cls-10,.cls-17,.cls-25{stroke:#ff7db9;}.cls-10,.cls-12,.cls-15,.cls-18,.cls-24,.cls-25,.cls-32,.cls-34{stroke-linecap:round;}.cls-10,.cls-12,.cls-14,.cls-15,.cls-17,.cls-18,.cls-24,.cls-25,.cls-34{stroke-linejoin:round;}.cls-10,.cls-12,.cls-14,.cls-17{stroke-width:4.9px;}.cls-11{fill:#ff7db9;}.cls-13{fill:#ffcb00;}.cls-15,.cls-18{stroke:#49c4ff;}.cls-15{stroke-width:3.85px;}.cls-16{fill:#49c4ff;}.cls-18{stroke-width:3.77px;}.cls-19{fill:url(#radial-gradient-4);}.cls-20{fill:#fff9db;}.cls-21{stroke-width:3.08px;}.cls-22{fill:url(#radial-gradient-5);}.cls-23{fill:url(#radial-gradient-6);}.cls-24{stroke-width:3.61px;}.cls-25{stroke-width:2.13px;stroke-dasharray:2.95 5.41;}.cls-26{fill:url(#radial-gradient-7);}.cls-27{fill:url(#radial-gradient-8);}.cls-28{fill:#d8f2ff;}.cls-29{fill:url(#radial-gradient-9);}.cls-30{fill:url(#radial-gradient-10);}.cls-31{stroke-width:2.5px;}.cls-32,.cls-34{stroke-width:3px;}.cls-33{fill:url(#radial-gradient-11);}</style>
		<radialGradient id="radial-gradient" cx="287.2" cy="6012.25" r="129.27" gradientTransform="translate(-11.05 738.46) scale(0.55 0.04)" gradientUnits="userSpaceOnUse">
			<stop offset="0.1" stop-color="#e0e3e2" />
			<stop offset="0.27" stop-color="#e9ebea" />
			<stop offset="0.68" stop-color="#f9fafa" />
			<stop offset="1" stop-color="#fff" />
		</radialGradient>
		<radialGradient id="radial-gradient-2" cx="538.16" cy="5417.79" r="129.27" gradientTransform="translate(-11.05 505.84) scale(0.55 0.04)" xlink:href="#radial-gradient" />
		<radialGradient id="radial-gradient-3" cx="1386.21" cy="6677.1" r="158" gradientTransform="translate(-11.05 998.63) scale(0.55 0.04)" xlink:href="#radial-gradient" />
		<radialGradient id="radial-gradient-4" cx="351.97" cy="6408.3" r="129.27" gradientTransform="translate(-11.05 893.44) scale(0.55 0.04)" xlink:href="#radial-gradient" />
		<radialGradient id="radial-gradient-5" cx="4155.57" cy="2620.02" r="129.27" gradientTransform="translate(-972.56 174.33) scale(0.3 0.05)" xlink:href="#radial-gradient" />
		<radialGradient id="radial-gradient-6" cx="1069.14" cy="6088.14" r="129.27" gradientTransform="translate(-11.05 768.16) scale(0.55 0.04)" xlink:href="#radial-gradient" />
		<radialGradient id="radial-gradient-7" cx="1143.53" cy="4577.25" r="129.27" gradientTransform="translate(-11.05 176.92) scale(0.55 0.04)" xlink:href="#radial-gradient" />
		<radialGradient id="radial-gradient-8" cx="293.96" cy="2945.85" r="129.27" gradientTransform="translate(-52.25 333.35) scale(0.5 0.05)" xlink:href="#radial-gradient" />
		<radialGradient id="radial-gradient-9" cx="1674.63" cy="5063.63" r="129.27" gradientTransform="translate(-11.05 367.25) scale(0.55 0.04)" xlink:href="#radial-gradient" />
		<radialGradient id="radial-gradient-10" cx="1289.96" cy="3191.89" r="129.27" gradientTransform="translate(-61.44 637.45) scale(0.64 0.06)" xlink:href="#radial-gradient" />
		<radialGradient id="radial-gradient-11" cx="1229.59" cy="4042.55" r="129.27" gradientTransform="translate(-115.01 -32.32) scale(0.49 0.04)" xlink:href="#radial-gradient" />
	</defs>
	<g class="cls-1">
		<g id="Layer_1" data-name="Layer 1">
			<g id="EN_web" data-name="EN web">
				<ellipse class="cls-2" cx="148" cy="999.87" rx="101.07" ry="4.73" />
				<circle class="cls-3" cx="280.79" cy="684.89" r="46.68" />
				<path class="cls-4" d="M268.31,709.67h-3.95V682.34l.45-.44c3.07-3,5.32-6.92,7.5-10.74.48-.82.94-1.64,1.42-2.45l0-.08c.93-1.38.86-4.27.8-6.6s-.09-4,.59-5a3.75,3.75,0,0,1,2.75-1.61,5.34,5.34,0,0,1,5.45,3c3.31,6.67,2.53,10.84,1.44,16.6-.15.79-.31,1.6-.46,2.46,2.27.05,4.58,0,6.82,0,2.49,0,5.06-.06,7.6,0,1.93.06,4.32.33,5.62,1.93a3.9,3.9,0,0,1,.75,3.24,6,6,0,0,1-2.37,4,4.16,4.16,0,0,1,1.09,3.49,6,6,0,0,1-2.35,3.92,4.2,4.2,0,0,1,1.05,3,5.85,5.85,0,0,1-2.39,4.5A3.85,3.85,0,0,1,301,705a6.79,6.79,0,0,1-6.41,4.65Zm-1-3h27.22a3.88,3.88,0,0,0,3.52-2.4c.06-.22.19-.75-.72-1.28a1.81,1.81,0,0,1-1.29-1.93,2,2,0,0,1,1.77-1.69,2.8,2.8,0,0,0,1.74-2.44,1.26,1.26,0,0,0-1-1.35l-.11,0-.1,0a1.74,1.74,0,0,1-1-2,2.17,2.17,0,0,1,1.77-1.52,3,3,0,0,0,1.78-2.24,1.19,1.19,0,0,0-.62-1.3l-.08-.05-.11,0a2.38,2.38,0,0,1-1.39-1.23l-.05-.12,0-.12a1.82,1.82,0,0,1,1-2.06l.14-.07.15,0a2.89,2.89,0,0,0,2.25-2.57v0c.1-.6-.06-.79-.12-.87-.28-.33-1.09-.75-3.41-.82-2.47-.08-5,0-7.47,0-2.84,0-5.77.07-8.66-.06l-1.67-.07.26-1.65c.24-1.54.51-3,.74-4.21,1.06-5.58,1.7-8.95-1.18-14.72a2.32,2.32,0,0,0-2.37-1.35,1,1,0,0,0-.62.24,13.9,13.9,0,0,0-.13,3.39c.07,2.87.15,6.13-1.29,8.3-.46.78-.92,1.58-1.37,2.38-2.19,3.82-4.44,7.76-7.57,11Z" />
				<path class="cls-4" d="M264.72,709.67h-5.8a2.56,2.56,0,0,1-2.56-2.56V684a2.56,2.56,0,0,1,2.56-2.56h5.8a2.56,2.56,0,0,1,2.56,2.56v23.07A2.56,2.56,0,0,1,264.72,709.67Zm-5.37-3h4.94V684.47h-4.94Z" />
				<ellipse class="cls-5" cx="286.98" cy="741.4" rx="101.07" ry="4.73" />
				<path class="cls-6" d="M220.25,779.58h-8.48l-1.62,3.91h-4.33L214,765.23h4.17l8.17,18.26h-4.44Zm-1.33-3.21-2.9-7-2.89,7Z" />
				<path class="cls-6" d="M240.32,766a6.24,6.24,0,0,1,2.75,2.29,6.85,6.85,0,0,1,0,7,6.14,6.14,0,0,1-2.75,2.3,10.27,10.27,0,0,1-4.21.8h-3.68v5H228.2V765.23h7.91A10.1,10.1,0,0,1,240.32,766Zm-1.55,8.15a2.87,2.87,0,0,0,1-2.33,2.91,2.91,0,0,0-1-2.37,4.49,4.49,0,0,0-2.9-.82h-3.44V775h3.44A4.44,4.44,0,0,0,238.77,774.19Z" />
				<path class="cls-6" d="M259.16,766a6.3,6.3,0,0,1,2.75,2.29,6.91,6.91,0,0,1,0,7,6.19,6.19,0,0,1-2.75,2.3,10.35,10.35,0,0,1-4.22.8h-3.68v5H247V765.23h7.9A10.18,10.18,0,0,1,259.16,766Zm-1.56,8.15a2.87,2.87,0,0,0,1-2.33,2.91,2.91,0,0,0-1-2.37,4.46,4.46,0,0,0-2.89-.82h-3.45V775h3.45A4.41,4.41,0,0,0,257.6,774.19Z" />
				<path class="cls-6" d="M277.51,783.49,274,778.4H270.1v5.09h-4.23V765.23h7.91A10.1,10.1,0,0,1,278,766a6.24,6.24,0,0,1,2.75,2.29,6.31,6.31,0,0,1,1,3.53,6,6,0,0,1-3.76,5.76l4.1,5.87Zm-1.07-14a4.49,4.49,0,0,0-2.9-.82H270.1V775h3.44a4.38,4.38,0,0,0,2.9-.84,3.3,3.3,0,0,0,0-4.71Z" />
				<path class="cls-6" d="M288.76,782.58a9.15,9.15,0,0,1-3.57-3.38,9.72,9.72,0,0,1,0-9.68,9.15,9.15,0,0,1,3.57-3.38,10.8,10.8,0,0,1,5.13-1.22,10.63,10.63,0,0,1,5.11,1.22,9.31,9.31,0,0,1,0,16.44,10.63,10.63,0,0,1-5.11,1.22A10.8,10.8,0,0,1,288.76,782.58Zm8.05-3.12a5.43,5.43,0,0,0,2.05-2.07,6.57,6.57,0,0,0,0-6.06,5.43,5.43,0,0,0-2.05-2.07,6.13,6.13,0,0,0-5.84,0,5.43,5.43,0,0,0-2.05,2.07,6.57,6.57,0,0,0,0,6.06,5.43,5.43,0,0,0,2.05,2.07,6.13,6.13,0,0,0,5.84,0Z" />
				<path class="cls-6" d="M324,765.23l-7.9,18.26h-4.18l-7.87-18.26h4.56l5.56,13,5.63-13Z" />
				<path class="cls-6" d="M337,779.58h-8.48l-1.61,3.91h-4.33l8.13-18.26h4.18L343,783.49h-4.43Zm-1.33-3.21-2.9-7-2.89,7Z" />
				<path class="cls-6" d="M344.92,765.23h4.22v14.82h9.16v3.44H344.92Z" />
				<g class="cls-7">
					<path class="cls-8" d="M1012.71,1158.31a15.19,15.19,0,0,0-2.59-6.81,13.59,13.59,0,0,0-3.73-3.47,12.27,12.27,0,0,0-4.73-1.84,12.7,12.7,0,0,0-2.14-.17,17.57,17.57,0,0,0-5.59,1,16,16,0,0,0-5.19,3,22.15,22.15,0,0,0-4,4.51,18.33,18.33,0,0,0-1.14,2,18,18,0,0,0-1.11,2.82,4.47,4.47,0,0,0-.32-.41l-.32-.36-.1-.1a15.22,15.22,0,0,0-3.11-2.39,15.49,15.49,0,0,0-4.43-1.76,12.32,12.32,0,0,0-1.72-.27c-.59,0-1.2-.11-1.8-.11a6.62,6.62,0,0,0-.77,0,15.91,15.91,0,0,0-2.47.41,16.26,16.26,0,0,0-2.62,1,12.39,12.39,0,0,0-3.32,2.41,11.9,11.9,0,0,0-2,2.46,15,15,0,0,0-1.95,6.64,16.22,16.22,0,0,0,.34,4.66,14.42,14.42,0,0,0,1.57,4,16,16,0,0,0,2.08,3,42.8,42.8,0,0,0,3.52,3.61,64.4,64.4,0,0,0,6.21,4.91,86.63,86.63,0,0,0,7.61,4.77c10.4,5.71,18.72,7.63,19,4.92a24.19,24.19,0,0,1,3.06-10.19l.62-1c1.67-2.71,3.49-5.33,5.2-8a49.21,49.21,0,0,0,4.92-9.64,21.1,21.1,0,0,0,1-4.56,19.61,19.61,0,0,0,.17-2.3A18.36,18.36,0,0,0,1012.71,1158.31Z" />
					<path class="cls-8" d="M1008.89,1158a.81.81,0,0,1,.22,1.17.93.93,0,0,1-1.24.21.82.82,0,0,1-.22-1.17.93.93,0,0,1,1.24-.21Z" />
					<path class="cls-8" d="M1008.44,1162.75a.58.58,0,0,1,.15.83.65.65,0,0,1-.88.15.59.59,0,0,1-.16-.83.67.67,0,0,1,.89-.15Z" />
					<path class="cls-8" d="M1006.85,1167.63a.39.39,0,0,1,.11.57.46.46,0,0,1-.6.1.4.4,0,0,1-.1-.57.44.44,0,0,1,.59-.1Z" />
					<path class="cls-8" d="M1004.19,1171.29a.44.44,0,0,1,.12.63.51.51,0,0,1-.67.11.44.44,0,0,1-.11-.63.5.5,0,0,1,.66-.11Z" />
				</g>
				<ellipse class="cls-9" cx="756.63" cy="1288.95" rx="123.53" ry="5.78" />
				<g class="cls-7">
					<path class="cls-10" d="M753,1191.3a26.51,26.51,0,0,0,49.75,0" />
					<path class="cls-11" d="M771.39,1174.72a3.3,3.3,0,1,1-3.3-3.3A3.3,3.3,0,0,1,771.39,1174.72Z" />
					<path class="cls-11" d="M791.05,1174.72a3.3,3.3,0,1,1-3.3-3.3A3.3,3.3,0,0,1,791.05,1174.72Z" />
				</g>
				<g class="cls-7">
					<path class="cls-12" d="M742.18,1230.71a21.76,21.76,0,0,1-40.86,0" />
					<path class="cls-13" d="M727.11,1217.09a2.71,2.71,0,1,0,2.71-2.71A2.71,2.71,0,0,0,727.11,1217.09Z" />
					<path class="cls-13" d="M711,1217.09a2.71,2.71,0,1,0,2.71-2.71A2.71,2.71,0,0,0,711,1217.09Z" />
					<circle class="cls-14" cx="721.67" cy="1227.39" r="36.6" />
				</g>
				<g class="cls-7">
					<path class="cls-15" d="M756.37,1249.55a13.76,13.76,0,0,0,25.84,0" />
					<path class="cls-16" d="M765.9,1240.94a1.72,1.72,0,1,1-1.72-1.71A1.71,1.71,0,0,1,765.9,1240.94Z" />
					<path class="cls-16" d="M776.11,1240.94a1.72,1.72,0,1,1-1.72-1.71A1.71,1.71,0,0,1,776.11,1240.94Z" />
				</g>
				<circle class="cls-17" cx="775.91" cy="1184.9" r="43.79" />
				<circle class="cls-18" cx="770.19" cy="1246.5" r="23.04" />
				<path class="cls-6" d="M861.25,1186.23v11.11H850.93V1186.1l-11.54-19.36h10.89l6.25,10.57,6.29-10.57h10Z" />
				<path class="cls-6" d="M880,1196a15.68,15.68,0,0,1,0-27.89,20.24,20.24,0,0,1,17.75,0,15.69,15.69,0,0,1,0,27.89,20.15,20.15,0,0,1-17.75,0Zm12.35-7.23a6.86,6.86,0,0,0,2.47-2.67,9.45,9.45,0,0,0,0-8.09,6.76,6.76,0,0,0-2.47-2.66,6.68,6.68,0,0,0-9.42,2.66,9.35,9.35,0,0,0,0,8.09,6.72,6.72,0,0,0,2.47,2.67,6.89,6.89,0,0,0,6.95,0Z" />
				<path class="cls-6" d="M913.53,1194.23q-3.93-3.8-3.93-10.66v-16.83h10.31v16.52a8,8,0,0,0,1.2,4.9,4.72,4.72,0,0,0,7,0,8,8,0,0,0,1.2-4.9v-16.52h10.14v16.83q0,6.86-3.93,10.66t-11,3.81Q917.46,1198,913.53,1194.23Z" />
				<path class="cls-6" d="M870.38,1249.79l-.08-13.94L863.65,1247h-4.54l-6.65-10.71v13.46h-9.4v-30.6h8.48l10,16.31,9.7-16.31h8.49l.08,30.6Z" />
				<path class="cls-6" d="M905.62,1244.46H894l-2,5.33h-10.5l13.38-30.6H905l13.38,30.6H907.67Zm-2.84-7.43-3-7.69-3,7.69Z" />
				<path class="cls-6" d="M920,1219.19h15.08a20.81,20.81,0,0,1,9,1.86,14.2,14.2,0,0,1,6.08,5.31,16.4,16.4,0,0,1,0,16.27,14.2,14.2,0,0,1-6.08,5.31,20.81,20.81,0,0,1-9,1.85H920Zm14.65,22.56a7.37,7.37,0,0,0,5.31-1.9,8.2,8.2,0,0,0,0-10.71,7.37,7.37,0,0,0-5.31-1.9h-4.33v14.51Z" />
				<path class="cls-6" d="M981.55,1242v7.78H956.11v-30.6H981V1227H966.25v3.58h12.94V1238H966.25v4Z" />
				<path class="cls-6" d="M998.64,1219.19H1009v30.6H998.64Z" />
				<path class="cls-6" d="M1020.59,1227.19h-9v-8h28.24v8h-9v22.6h-10.31Z" />
				<path class="cls-4" d="M210,1077H168.82a.86.86,0,0,0-.17,0h0l-.18,0h0l-.16.07h0l-.16.1,0,0-.14.12h0L153.26,1092h0a.53.53,0,0,0-.12.14l0,0-.1.15h0l-.07.16v0a1.21,1.21,0,0,0-.05.18h0a.88.88,0,0,0,0,.17v64.71a4.32,4.32,0,0,0,4.32,4.31H210a4.32,4.32,0,0,0,4.32-4.31v-76.37A4.32,4.32,0,0,0,210,1077Zm-42.49,4.7v8.42a1.56,1.56,0,0,1-1.56,1.56h-8.43Zm44.05,76a1.56,1.56,0,0,1-1.56,1.56H157.17a1.56,1.56,0,0,1-1.56-1.56v-63.24H166a4.32,4.32,0,0,0,4.31-4.32V1079.7H210a1.56,1.56,0,0,1,1.56,1.56Z" />
				<path class="cls-4" d="M166,1116.42h35.24a1.38,1.38,0,1,0,0-2.76H166a1.38,1.38,0,1,0,0,2.76Z" />
				<path class="cls-4" d="M166,1123.76h35.24a1.38,1.38,0,1,0,0-2.75H166a1.38,1.38,0,1,0,0,2.75Z" />
				<path class="cls-4" d="M166,1131.1H183.6a1.38,1.38,0,1,0,0-2.75H166a1.38,1.38,0,1,0,0,2.75Z" />
				<path class="cls-4" d="M185,1137.07a1.38,1.38,0,0,0-1.38-1.38H166a1.38,1.38,0,1,0,0,2.75H183.6A1.37,1.37,0,0,0,185,1137.07Z" />
				<path class="cls-4" d="M190.85,1100.72a1.38,1.38,0,1,0-2.75,0c0,2.69,2.49,4.85,5.87,5.32v.19a1.38,1.38,0,1,0,2.76,0V1106c3.38-.47,5.87-2.63,5.87-5.32s-2.49-4.85-5.87-5.32v-5.27c1.65.34,3.12,1.28,3.12,2.51a1.38,1.38,0,1,0,2.75,0c0-2.68-2.49-4.85-5.87-5.32v-.18a1.38,1.38,0,1,0-2.76,0v.18c-3.38.47-5.87,2.64-5.87,5.32s2.49,4.86,5.87,5.32v5.28C192.31,1102.89,190.85,1102,190.85,1100.72Zm9,0c0,1.23-1.47,2.17-3.12,2.52v-5C198.38,1098.55,199.85,1099.49,199.85,1100.72Zm-9-8.08c0-1.23,1.46-2.17,3.12-2.51v5C192.31,1094.81,190.85,1093.88,190.85,1092.64Z" />
				<path class="cls-4" d="M203.93,1135.78a1.37,1.37,0,0,0-1.87.52l-2.83,5-.39-.3a1.4,1.4,0,0,0-1.15-.25,1.42,1.42,0,0,0-.93.74l-1.43,2.89-.46-.53a2.85,2.85,0,0,0-4.83.94l-1.58,4.55-3.76-4.75a1.36,1.36,0,0,0-.95-.52,1.39,1.39,0,0,0-1,.34l-4,3.48a1.37,1.37,0,1,0,1.81,2.07l2.9-2.53L187,1152a2.11,2.11,0,0,0,1.65.8l.36,0a2.09,2.09,0,0,0,1.64-1.38l2-5.66a.09.09,0,0,1,.07-.06s.07,0,.09,0l1.81,2.09a1.41,1.41,0,0,0,1.22.46,1.38,1.38,0,0,0,1.06-.76l1.6-3.24.31.24a1.38,1.38,0,0,0,2-.41l3.61-6.39A1.37,1.37,0,0,0,203.93,1135.78Z" />
				<ellipse class="cls-19" cx="183.87" cy="1172.08" rx="101.07" ry="4.73" />
				<path class="cls-20" d="M232.38,1131.78s-1.93,19.1-17,20.42c15.08,1.33,17,20.43,17,20.43s1.94-19.1,17-20.43C234.32,1150.88,232.38,1131.78,232.38,1131.78Z" />
				<path class="cls-20" d="M243.93,1080.32s-1.28,12.64-11.25,13.51c10,.87,11.25,13.51,11.25,13.51s1.28-12.64,11.26-13.51C245.21,1093,243.93,1080.32,243.93,1080.32Z" />
				<path class="cls-6" d="M141.65,1201.12a7.75,7.75,0,0,1-3-2.91,8.56,8.56,0,0,1,0-8.36,7.85,7.85,0,0,1,3-2.91,9.45,9.45,0,0,1,7.74-.43,7,7,0,0,1,2.64,1.85l-1.48,1.44a5.93,5.93,0,0,0-4.48-1.89,6.4,6.4,0,0,0-3.21.8,5.75,5.75,0,0,0-2.24,2.19,6.45,6.45,0,0,0,0,6.26,5.71,5.71,0,0,0,2.24,2.2,6.51,6.51,0,0,0,3.21.8,5.93,5.93,0,0,0,4.48-1.92l1.48,1.44a7,7,0,0,1-2.65,1.86,8.88,8.88,0,0,1-3.43.64A8.74,8.74,0,0,1,141.65,1201.12Z" />
				<path class="cls-6" d="M155,1185.11h2.18V1202H155Z" />
				<path class="cls-6" d="M172.19,1196.7H162.4a3.8,3.8,0,0,0,1.4,2.56,4.6,4.6,0,0,0,3,1,4.47,4.47,0,0,0,3.48-1.45l1.21,1.41a5.38,5.38,0,0,1-2,1.46,7.66,7.66,0,0,1-6.11-.29,5.52,5.52,0,0,1-2.29-2.2,6.27,6.27,0,0,1-.81-3.18,6.45,6.45,0,0,1,.79-3.17,5.55,5.55,0,0,1,2.16-2.19,6.12,6.12,0,0,1,3.11-.79,6,6,0,0,1,3.08.79,5.45,5.45,0,0,1,2.12,2.19,6.68,6.68,0,0,1,.76,3.24A6.31,6.31,0,0,1,172.19,1196.7Zm-8.55-4.08a3.83,3.83,0,0,0-1.24,2.5h7.74a3.92,3.92,0,0,0-1.24-2.49,4.07,4.07,0,0,0-5.26,0Z" />
				<path class="cls-6" d="M183.15,1191.05a4.74,4.74,0,0,1,1.33,3.67V1202h-2.07v-1.59a3.47,3.47,0,0,1-1.56,1.28,5.91,5.91,0,0,1-2.4.45,5.06,5.06,0,0,1-3.25-1,3.38,3.38,0,0,1,0-5.14,5.73,5.73,0,0,1,3.68-1h3.46v-.44a2.77,2.77,0,0,0-.82-2.16,3.45,3.45,0,0,0-2.41-.75,6.5,6.5,0,0,0-2.09.35,5.42,5.42,0,0,0-1.73,1l-.91-1.64a6.45,6.45,0,0,1,2.23-1.15,9.15,9.15,0,0,1,2.75-.4A5.47,5.47,0,0,1,183.15,1191.05Zm-2.18,8.84a3.16,3.16,0,0,0,1.32-1.58v-1.68h-3.37c-1.85,0-2.77.62-2.77,1.86a1.69,1.69,0,0,0,.7,1.44,3.24,3.24,0,0,0,2,.52A4,4,0,0,0,181,1199.89Z" />
				<path class="cls-6" d="M192.31,1190.37a6,6,0,0,1,2.71-.55v2.12a3.48,3.48,0,0,0-.5,0,3.68,3.68,0,0,0-2.79,1,4.19,4.19,0,0,0-1,3v6h-2.19v-12.06h2.1v2A3.65,3.65,0,0,1,192.31,1190.37Z" />
				<path class="cls-6" d="M214.66,1189.94,209.38,1202h-2.23l-5.28-12.06h2.28l4.14,9.67,4.23-9.67Z" />
				<path class="cls-6" d="M216.75,1187.2a1.3,1.3,0,0,1-.43-1,1.35,1.35,0,0,1,.43-1,1.42,1.42,0,0,1,1.05-.42,1.46,1.46,0,0,1,1.06.4,1.29,1.29,0,0,1,.42,1,1.4,1.4,0,0,1-.42,1,1.43,1.43,0,0,1-1.06.42A1.42,1.42,0,0,1,216.75,1187.2Zm0,2.74h2.19V1202h-2.19Z" />
				<path class="cls-6" d="M233.92,1196.7h-9.79a3.84,3.84,0,0,0,1.4,2.56,4.6,4.6,0,0,0,3,1,4.51,4.51,0,0,0,3.49-1.45l1.2,1.41a5.23,5.23,0,0,1-2,1.46,7.66,7.66,0,0,1-6.11-.29,5.58,5.58,0,0,1-2.29-2.2,6.36,6.36,0,0,1-.8-3.18,6.45,6.45,0,0,1,.78-3.17,5.68,5.68,0,0,1,2.16-2.19,6.12,6.12,0,0,1,3.11-.79,6,6,0,0,1,3.09.79,5.49,5.49,0,0,1,2.11,2.19A6.69,6.69,0,0,1,234,1196C234,1196.2,234,1196.42,233.92,1196.7Zm-8.55-4.08a3.87,3.87,0,0,0-1.24,2.5h7.74a3.87,3.87,0,0,0-1.24-2.49,4.07,4.07,0,0,0-5.26,0Z" />
				<path class="cls-6" d="M255,1189.94,250.51,1202h-2.09l-3.48-9.15-3.53,9.15h-2.09l-4.49-12.06h2.07l3.51,9.6,3.64-9.6h1.84l3.58,9.65,3.59-9.65Z" />
				<path class="cls-6" d="M151.53,1230.23l-3.52-5.09h-3.88v5.09H139.9V1212h7.9a10.15,10.15,0,0,1,4.22.81,6.2,6.2,0,0,1,2.75,2.3,6.33,6.33,0,0,1,1,3.52,5.91,5.91,0,0,1-3.75,5.76l4.09,5.87Zm-1.07-14a4.41,4.41,0,0,0-2.89-.83h-3.44v6.37h3.44a4.35,4.35,0,0,0,2.89-.84,3.26,3.26,0,0,0,0-4.7Z" />
				<path class="cls-6" d="M173.21,1226.84v3.39H159.07V1212h13.8v3.39h-9.6v4h8.48v3.28h-8.48v4.23Z" />
				<path class="cls-6" d="M188.7,1212.78a6.25,6.25,0,0,1,2.75,2.3,6.92,6.92,0,0,1,0,7,6.17,6.17,0,0,1-2.75,2.29,10.35,10.35,0,0,1-4.22.8H180.8v5h-4.22V1212h7.9A10.18,10.18,0,0,1,188.7,1212.78Zm-1.56,8.15a3.27,3.27,0,0,0,0-4.69,4.41,4.41,0,0,0-2.89-.83H180.8v6.34h3.45A4.41,4.41,0,0,0,187.14,1220.93Z" />
				<path class="cls-6" d="M199.39,1229.32a9.08,9.08,0,0,1-3.57-3.38,9.32,9.32,0,0,1,3.57-13.06,11.35,11.35,0,0,1,10.24,0,9.29,9.29,0,0,1,3.57,3.38,9.32,9.32,0,0,1-3.57,13.06,11.27,11.27,0,0,1-10.24,0Zm8.05-3.12a5.37,5.37,0,0,0,2.05-2.07,6.18,6.18,0,0,0,.74-3,6.11,6.11,0,0,0-.74-3,5.39,5.39,0,0,0-2.05-2.08,6.15,6.15,0,0,0-5.85,0,5.3,5.3,0,0,0-2,2.08,6,6,0,0,0-.75,3,6.08,6.08,0,0,0,.75,3,5.27,5.27,0,0,0,2,2.07,6.15,6.15,0,0,0,5.85,0Z" />
				<path class="cls-6" d="M229.33,1230.23l-3.53-5.09h-3.88v5.09h-4.23V1212h7.91a10.14,10.14,0,0,1,4.21.81,6.2,6.2,0,0,1,2.75,2.3,6.34,6.34,0,0,1,1,3.52,5.93,5.93,0,0,1-3.76,5.76l4.1,5.87Zm-1.07-14a4.46,4.46,0,0,0-2.9-.83h-3.44v6.37h3.44a4.4,4.4,0,0,0,2.9-.84,3.28,3.28,0,0,0,0-4.7Z" />
				<path class="cls-6" d="M240.39,1215.41h-5.85V1212h15.92v3.44h-5.85v14.82h-4.22Z" />
				<path class="cls-6" d="M252.72,1212H257v18.26h-4.23Z" />
				<path class="cls-6" d="M278,1212v18.26h-3.47l-9.1-11.09v11.09h-4.18V1212h3.5l9.08,11.09V1212Z" />
				<path class="cls-6" d="M294.7,1220.81h3.86v7.41a10.79,10.79,0,0,1-3.44,1.72,13.1,13.1,0,0,1-3.94.61,10.7,10.7,0,0,1-5.12-1.22,9.07,9.07,0,0,1-3.56-3.36,9.82,9.82,0,0,1,0-9.73,9,9,0,0,1,3.59-3.37,10.87,10.87,0,0,1,5.17-1.21,11.24,11.24,0,0,1,4.35.81,8.68,8.68,0,0,1,3.29,2.34l-2.71,2.51a6.27,6.27,0,0,0-4.73-2.06,6.4,6.4,0,0,0-3.1.73,5.23,5.23,0,0,0-2.11,2.06,6.46,6.46,0,0,0,0,6.08,5.29,5.29,0,0,0,2.1,2.07,6.14,6.14,0,0,0,3.06.74,6.89,6.89,0,0,0,3.29-.78Z" />
				<path class="cls-6" d="M209.38,342.57v5.51h-2.25v-5.56l-6.33-10.38h2.43l5.1,8.41,5.13-8.41h2.25Z" />
				<path class="cls-6" d="M218.26,347.42a5.64,5.64,0,0,1-2.24-2.2,6.63,6.63,0,0,1,0-6.35,5.6,5.6,0,0,1,2.24-2.18,7,7,0,0,1,6.45,0,5.7,5.7,0,0,1,2.23,2.18,6.63,6.63,0,0,1,0,6.35,5.75,5.75,0,0,1-2.23,2.2,6.9,6.9,0,0,1-6.45,0Zm5.31-1.65a3.81,3.81,0,0,0,1.45-1.5,4.61,4.61,0,0,0,.52-2.22,4.55,4.55,0,0,0-.52-2.22,3.65,3.65,0,0,0-1.45-1.49,4.35,4.35,0,0,0-4.16,0,3.74,3.74,0,0,0-1.46,1.49,4.45,4.45,0,0,0-.53,2.22,4.5,4.5,0,0,0,.53,2.22,3.9,3.9,0,0,0,1.46,1.5,4.35,4.35,0,0,0,4.16,0Z" />
				<path class="cls-6" d="M242,336v12.06H240v-1.82a4.39,4.39,0,0,1-1.74,1.44,5.33,5.33,0,0,1-2.36.52,5.28,5.28,0,0,1-3.8-1.34,5.19,5.19,0,0,1-1.39-3.92V336h2.19v6.69a3.75,3.75,0,0,0,.84,2.65,3.15,3.15,0,0,0,2.41.9,3.61,3.61,0,0,0,2.74-1.05,4.14,4.14,0,0,0,1-3V336Z" />
				<path class="cls-6" d="M262.41,337.23a5.26,5.26,0,0,1,1.35,3.91v6.94h-2.18v-6.69a3.66,3.66,0,0,0-.85-2.64,3.13,3.13,0,0,0-2.41-.89,3.76,3.76,0,0,0-2.8,1,4.09,4.09,0,0,0-1,3v6.22h-2.19V336h2.1v1.82a4.17,4.17,0,0,1,1.78-1.44,6.32,6.32,0,0,1,2.56-.5A5,5,0,0,1,262.41,337.23Z" />
				<path class="cls-6" d="M278.74,342.78H269a3.8,3.8,0,0,0,1.4,2.56,4.6,4.6,0,0,0,3,1,4.47,4.47,0,0,0,3.48-1.45l1.21,1.41a5.3,5.3,0,0,1-2,1.46,7.66,7.66,0,0,1-6.11-.29,5.58,5.58,0,0,1-2.29-2.2,6.26,6.26,0,0,1-.8-3.18,6.45,6.45,0,0,1,.78-3.17,5.62,5.62,0,0,1,2.16-2.19,6.12,6.12,0,0,1,3.11-.79,6,6,0,0,1,3.09.79,5.49,5.49,0,0,1,2.11,2.19,6.68,6.68,0,0,1,.76,3.24A6.31,6.31,0,0,1,278.74,342.78Zm-8.55-4.08a3.87,3.87,0,0,0-1.24,2.5h7.74a3.87,3.87,0,0,0-1.24-2.49,4.07,4.07,0,0,0-5.26,0Z" />
				<path class="cls-6" d="M292.67,342.78h-9.79a3.84,3.84,0,0,0,1.4,2.56,4.6,4.6,0,0,0,3,1,4.51,4.51,0,0,0,3.49-1.45l1.2,1.41a5.23,5.23,0,0,1-2,1.46,7.66,7.66,0,0,1-6.11-.29,5.58,5.58,0,0,1-2.29-2.2,6.36,6.36,0,0,1-.8-3.18,6.45,6.45,0,0,1,.78-3.17,5.68,5.68,0,0,1,2.16-2.19,6.12,6.12,0,0,1,3.11-.79,6,6,0,0,1,3.09.79,5.49,5.49,0,0,1,2.11,2.19,6.69,6.69,0,0,1,.77,3.24C292.72,342.28,292.7,342.5,292.67,342.78Zm-8.55-4.08a3.87,3.87,0,0,0-1.24,2.5h7.74a3.87,3.87,0,0,0-1.24-2.49,4.07,4.07,0,0,0-5.26,0Z" />
				<path class="cls-6" d="M307.13,331.19v16.89H305v-1.91a4.68,4.68,0,0,1-1.84,1.52,5.75,5.75,0,0,1-2.46.53,6.28,6.28,0,0,1-3.14-.78,5.55,5.55,0,0,1-2.18-2.17,6.5,6.5,0,0,1-.78-3.22,6.41,6.41,0,0,1,.78-3.21,5.52,5.52,0,0,1,2.18-2.16,6.28,6.28,0,0,1,3.14-.78,5.74,5.74,0,0,1,2.39.49,4.68,4.68,0,0,1,1.82,1.45v-6.65ZM303,345.77a3.83,3.83,0,0,0,1.46-1.5,4.61,4.61,0,0,0,.52-2.22,4.55,4.55,0,0,0-.52-2.22,3.68,3.68,0,0,0-1.46-1.49,4.33,4.33,0,0,0-4.15,0,3.74,3.74,0,0,0-1.46,1.49,4.45,4.45,0,0,0-.53,2.22,4.5,4.5,0,0,0,.53,2.22,3.9,3.9,0,0,0,1.46,1.5,4.33,4.33,0,0,0,4.15,0Z" />
				<path class="cls-6" d="M207.4,360.06h-5.84v-3.45h15.91v3.45h-5.84v14.81H207.4Z" />
				<path class="cls-6" d="M231.38,374.87l-3.53-5.08H224v5.08h-4.23V356.61h7.91a10.14,10.14,0,0,1,4.21.81,6.2,6.2,0,0,1,2.75,2.3,6.34,6.34,0,0,1,1,3.52,6.25,6.25,0,0,1-1,3.51,6.19,6.19,0,0,1-2.78,2.25l4.1,5.87Zm-1.07-14a4.45,4.45,0,0,0-2.9-.82H224v6.36h3.44a4.46,4.46,0,0,0,2.9-.83,2.91,2.91,0,0,0,1-2.35A2.88,2.88,0,0,0,230.31,360.88Z" />
				<path class="cls-6" d="M253.05,371.48v3.39H238.91V356.61h13.8V360h-9.6v4h8.48v3.29h-8.48v4.22Z" />
				<path class="cls-6" d="M268.45,371H260l-1.62,3.91H254l8.14-18.26h4.17l8.17,18.26h-4.44Zm-1.34-3.21-2.89-7-2.9,7Z" />
				<path class="cls-6" d="M279.27,360.06h-5.84v-3.45h15.91v3.45H283.5v14.81h-4.23Z" />
				<path class="cls-6" d="M308.23,374.87l0-10.95-5.37,9h-1.91l-5.34-8.79v10.72h-4V356.61h3.5L301.94,368l6.73-11.35h3.47l.05,18.26Z" />
				<path class="cls-6" d="M330.66,371.48v3.39H316.52V356.61h13.8V360h-9.6v4h8.48v3.29h-8.48v4.22Z" />
				<path class="cls-6" d="M350.78,356.61v18.26h-3.47l-9.11-11.08v11.08H334V356.61h3.49l9.08,11.09V356.61Z" />
				<path class="cls-6" d="M358.89,360.06h-5.84v-3.45H369v3.45h-5.84v14.81h-4.23Z" />
				<polygon class="cls-21" points="293.76 256.78 267.55 256.78 267.55 230.36 242.18 230.36 242.18 256.78 215.76 256.78 215.76 282.36 242.18 282.36 242.18 308.78 267.55 308.78 267.55 282.36 293.76 282.36 293.76 256.78" />
				<ellipse class="cls-22" cx="257.36" cy="316.41" rx="54.01" ry="5.9" />
				<path class="cls-20" d="M301.4,230.24s-1.29,12.64-11.26,13.51c10,.87,11.26,13.51,11.26,13.51s1.28-12.64,11.25-13.51C302.68,242.88,301.4,230.24,301.4,230.24Z" />
				<path class="cls-20" d="M320.67,254.42s-.8,7.92-7.05,8.47c6.25.54,7.05,8.46,7.05,8.46s.8-7.92,7.05-8.46C321.47,262.34,320.67,254.42,320.67,254.42Z" />
				<g class="cls-7">
					<path class="cls-8" d="M517.43,1113.08a9.06,9.06,0,0,1-1.85,7.19,9.69,9.69,0,0,1-6.3,4,7.08,7.08,0,0,1-8.18-5.83,9.19,9.19,0,0,1,2-7.33,9.85,9.85,0,0,1,6.37-4.09,6.4,6.4,0,0,1,5.19,1.26A7.37,7.37,0,0,1,517.43,1113.08Zm6.93-72.78q.39,2.35-1.11,7.51-1.12,3.93-4,18.49t-3.41,18a58,58,0,0,0-.68,8.29q-.12,3.77-4.44,4.49-5.55.93-6.47-4.56-1-5.77,3.15-23.31t6.8-24.24q2.68-6.71,6.1-7.28T524.36,1040.3Z" />
				</g>
				<ellipse class="cls-23" cx="581.04" cy="1032.87" rx="101.07" ry="4.73" />
				<path class="cls-6" d="M542.88,1056.28v5.56h8v2h-8v6.44H540.6V1054.3h11.24v2Z" />
				<path class="cls-6" d="M565.59,1058.17v12.07h-2.07v-1.82a4.39,4.39,0,0,1-1.74,1.44,5.44,5.44,0,0,1-2.36.52,5.28,5.28,0,0,1-3.8-1.34,5.19,5.19,0,0,1-1.39-3.92v-6.95h2.19v6.7a3.75,3.75,0,0,0,.84,2.65,3.15,3.15,0,0,0,2.42.9,3.6,3.6,0,0,0,2.73-1.05,4.14,4.14,0,0,0,1-3v-6.24Z" />
				<path class="cls-6" d="M579.86,1059.39a5.26,5.26,0,0,1,1.35,3.91v6.94H579v-6.69a3.7,3.7,0,0,0-.84-2.64,3.13,3.13,0,0,0-2.41-.89,3.76,3.76,0,0,0-2.8,1,4.05,4.05,0,0,0-1,3v6.22h-2.19v-12.07h2.09V1060a4.19,4.19,0,0,1,1.79-1.44,6.32,6.32,0,0,1,2.56-.5A5,5,0,0,1,579.86,1059.39Z" />
				<path class="cls-6" d="M596.71,1053.35v16.89h-2.09v-1.91a4.8,4.8,0,0,1-1.85,1.52,5.68,5.68,0,0,1-2.46.53,6.33,6.33,0,0,1-3.14-.78,5.52,5.52,0,0,1-2.17-2.17,6.54,6.54,0,0,1-.79-3.22A6.42,6.42,0,0,1,585,1061a5.59,5.59,0,0,1,2.17-2.17,6.43,6.43,0,0,1,3.14-.77,5.76,5.76,0,0,1,2.4.49,4.75,4.75,0,0,1,1.82,1.45v-6.65Zm-4.14,14.58a3.83,3.83,0,0,0,1.46-1.5,4.72,4.72,0,0,0,.52-2.22A4.66,4.66,0,0,0,594,1062a3.68,3.68,0,0,0-1.46-1.49,4.35,4.35,0,0,0-4.16,0A3.72,3.72,0,0,0,587,1062a4.45,4.45,0,0,0-.54,2.22,4.5,4.5,0,0,0,.54,2.22,3.87,3.87,0,0,0,1.45,1.5,4.35,4.35,0,0,0,4.16,0Z" />
				<path class="cls-6" d="M601.47,1070a6.28,6.28,0,0,1-2.14-1l.91-1.73a6.39,6.39,0,0,0,1.93.91,7.92,7.92,0,0,0,2.3.35c1.91,0,2.87-.55,2.87-1.64a1.06,1.06,0,0,0-.39-.87,2.32,2.32,0,0,0-1-.46q-.59-.15-1.65-.33a16.73,16.73,0,0,1-2.38-.53,3.65,3.65,0,0,1-1.58-1,2.79,2.79,0,0,1-.67-2,3.1,3.1,0,0,1,1.37-2.63,6.12,6.12,0,0,1,3.67-1,10,10,0,0,1,2.41.3,6.49,6.49,0,0,1,2,.79l-.93,1.73a6.36,6.36,0,0,0-3.49-1,4,4,0,0,0-2.11.45,1.38,1.38,0,0,0-.73,1.21,1.13,1.13,0,0,0,.41.93,2.46,2.46,0,0,0,1,.5c.4.11,1,.23,1.7.37a17.29,17.29,0,0,1,2.35.53,3.52,3.52,0,0,1,1.54,1,2.7,2.7,0,0,1,.64,1.91,3,3,0,0,1-1.4,2.61,6.69,6.69,0,0,1-3.82,1A10.31,10.31,0,0,1,601.47,1070Z" />
				<path class="cls-6" d="M545.44,1083.65H539.6v-3.44h15.91v3.44h-5.84v14.82h-4.23Z" />
				<path class="cls-6" d="M569.42,1098.47l-3.53-5.08H562v5.08h-4.23v-18.26h7.91a10.14,10.14,0,0,1,4.21.81,6.2,6.2,0,0,1,2.75,2.3,6.34,6.34,0,0,1,1,3.52,6.25,6.25,0,0,1-1,3.51,6.19,6.19,0,0,1-2.78,2.25l4.1,5.87Zm-1.07-14a4.46,4.46,0,0,0-2.9-.83H562V1090h3.44a4.46,4.46,0,0,0,2.9-.83,2.91,2.91,0,0,0,1-2.35A2.88,2.88,0,0,0,568.35,1084.48Z" />
				<path class="cls-6" d="M589,1094.56H580.5l-1.62,3.91h-4.33l8.14-18.26h4.18l8.16,18.26H590.6Zm-1.33-3.21-2.9-7-2.89,7Z" />
				<path class="cls-6" d="M613.68,1080.21v18.26h-3.47l-9.1-11.08v11.08h-4.17v-18.26h3.49l9.08,11.09v-11.09Z" />
				<path class="cls-6" d="M619.83,1098.2a9.74,9.74,0,0,1-3.25-1.53l1.44-3.18a9.83,9.83,0,0,0,2.79,1.38,10.34,10.34,0,0,0,3.23.52,5.13,5.13,0,0,0,2.66-.53,1.61,1.61,0,0,0,.86-1.42,1.37,1.37,0,0,0-.51-1.09,4,4,0,0,0-1.3-.69c-.53-.17-1.25-.36-2.15-.57a30.11,30.11,0,0,1-3.42-1,5.49,5.49,0,0,1-2.28-1.59,4.28,4.28,0,0,1-.95-2.92,5,5,0,0,1,.86-2.89,5.84,5.84,0,0,1,2.59-2,10.69,10.69,0,0,1,4.24-.75,13.93,13.93,0,0,1,3.42.42,9.63,9.63,0,0,1,2.92,1.2l-1.3,3.2a10.27,10.27,0,0,0-5.06-1.43,4.8,4.8,0,0,0-2.63.57,1.77,1.77,0,0,0-.84,1.52,1.47,1.47,0,0,0,1,1.39,14.79,14.79,0,0,0,3,.9,30.11,30.11,0,0,1,3.42,1,5.63,5.63,0,0,1,2.28,1.57,4.16,4.16,0,0,1,1,2.89,5,5,0,0,1-.87,2.86,5.93,5.93,0,0,1-2.62,2,10.77,10.77,0,0,1-4.25.76A15,15,0,0,1,619.83,1098.2Z" />
				<path class="cls-6" d="M646.68,1094.56h-8.47l-1.62,3.91h-4.33l8.14-18.26h4.17l8.17,18.26H648.3Zm-1.33-3.21-2.89-7-2.9,7Z" />
				<path class="cls-6" d="M658.07,1097.57a9.11,9.11,0,0,1-3.55-3.36,9.82,9.82,0,0,1,0-9.73,9.07,9.07,0,0,1,3.55-3.37,10.56,10.56,0,0,1,5.08-1.21,10.76,10.76,0,0,1,4.29.83,8.73,8.73,0,0,1,3.22,2.4l-2.71,2.51a5.84,5.84,0,0,0-4.6-2.14,6.11,6.11,0,0,0-3,.74,5.33,5.33,0,0,0-2.08,2.08,6.11,6.11,0,0,0-.74,3,6.18,6.18,0,0,0,.74,3,5.31,5.31,0,0,0,2.08,2.07,6,6,0,0,0,3,.75A5.84,5.84,0,0,0,668,1093l2.71,2.5a8.41,8.41,0,0,1-3.24,2.43,10.64,10.64,0,0,1-4.3.84A10.51,10.51,0,0,1,658.07,1097.57Z" />
				<path class="cls-6" d="M677.1,1083.65h-5.84v-3.44h15.91v3.44h-5.84v14.82H677.1Z" />
				<path class="cls-6" d="M689.44,1080.21h4.23v18.26h-4.23Z" />
				<path class="cls-6" d="M701.71,1097.56a9.08,9.08,0,0,1-3.57-3.38,9.32,9.32,0,0,1,3.57-13.06,10.8,10.8,0,0,1,5.13-1.22,10.63,10.63,0,0,1,5.11,1.22,9.12,9.12,0,0,1,4.88,8.22,9.12,9.12,0,0,1-4.88,8.22,10.52,10.52,0,0,1-5.11,1.23A10.69,10.69,0,0,1,701.71,1097.56Zm8-3.12a5.3,5.3,0,0,0,2-2.07,6.07,6.07,0,0,0,.74-3,6,6,0,0,0-.74-3,5.32,5.32,0,0,0-2-2.08,6.13,6.13,0,0,0-5.84,0,5.39,5.39,0,0,0-2,2.08,6.11,6.11,0,0,0-.74,3,6.18,6.18,0,0,0,.74,3,5.37,5.37,0,0,0,2,2.07,6.06,6.06,0,0,0,5.84,0Z" />
				<path class="cls-6" d="M736.76,1080.21v18.26h-3.47l-9.1-11.08v11.08H720v-18.26h3.5l9.08,11.09v-11.09Z" />
				<path class="cls-24" d="M612.63,1020.68l-77.64-60L632.06,944l-8.47,33L552.7,964.75l68.35,22.88S612.78,1020.92,612.63,1020.68Z" />
				<path class="cls-25" d="M200.55,1251.45c14.81,20.63,34.81,35.63,57.81,48.63,5,3,10,4,15,6,15,6,29,10,44,15,15,4,31,5,46,6,41,2,81-6,122-16,23-6,44-12,65-21,6-3,11-4,17-7,16-7,33-13,49-23,8-5,15-8,23-13,5-3,10-6,15.12-9.28" />
				<path class="cls-25" d="M508.62,959.85c-107.26-4.77-219.26,28.23-299,101.33" />
				<path class="cls-25" d="M850.59,789.34a100.63,100.63,0,0,1,16.77,6.74c3,2,6,2,9,3,18,9,74.76,45.6,106,101,1.55,2.76,1,5,2,8,6,13,11,27,10,42-2,28-18,52-43,66a7.54,7.54,0,0,1-4.08,1.88c-58,26-121.92,19.12-183.92,13.12-14-2-48-11-51-13a407.26,407.26,0,0,1-44-18c-6-2-11-4-16.57-6.43" />
				<path class="cls-25" d="M291.12,922.44c7.17-2.47,26.24-12.36,34.24-16.36,46-24,90-49,138-71,2-1,3,0,5-1,62-26,126-51,194-55,3-1,5-3,8.37-3" />
				<path class="cls-25" d="M216.17,695.29a7.57,7.57,0,0,1-3.81,1.79c-11,2-20,6-31,9-2,0-5,0-7,1-33,15-68,30-86,64-2,3-2,7-3,10-13,33-2,70,18.61,96.56" />
				<path class="cls-25" d="M806.4,663.48c-17.47,10.73-26.3,15.41-66,34.6-43.16,20.85-90,26-138,18-28-4-54-10-79-23-15-8-29-16-40-30a30.39,30.39,0,0,0-5-7c-29-44,4-97,45-118,15-7,30-11,46-9,24,3,43,16,58,36,1,1,1,3,2,4,18,19,18,49,7,72-4,8-11,15-16,23-5,6-12,9-17,15-1,1-2,0-3,1-42,36-98,52-152,37-35-10-69-22-103.79-28.66" />
				<path class="cls-25" d="M686.75,378.4c53.61,9.68,107.61,21.68,157.61,48.68,21,12,40,26,53.47,45.25" />
				<path class="cls-25" d="M187.92,516.36c11.44-9.28,22.44-17.28,34.44-26.28,11-7,20-14,31-21,98-61,202-98,313.71-100.69" />
				<path class="cls-25" d="M565.2,360.12a502.48,502.48,0,0,1-159.12-24.48,499.78,499.78,0,0,1-101.52-46.08" />
				<path class="cls-6" d="M560,411.28a7.75,7.75,0,0,1-3-2.91,8.56,8.56,0,0,1,0-8.36,7.85,7.85,0,0,1,3-2.91,9.45,9.45,0,0,1,7.74-.43,7,7,0,0,1,2.64,1.85L568.88,400a5.93,5.93,0,0,0-4.48-1.89,6.5,6.5,0,0,0-3.21.79,5.85,5.85,0,0,0-2.24,2.2,6.45,6.45,0,0,0,0,6.26,5.78,5.78,0,0,0,2.24,2.2,6.51,6.51,0,0,0,3.21.8,5.93,5.93,0,0,0,4.48-1.92l1.48,1.44a7,7,0,0,1-2.65,1.86,8.86,8.86,0,0,1-3.42.64A8.75,8.75,0,0,1,560,411.28Z" />
				<path class="cls-6" d="M577.08,400.53a6,6,0,0,1,2.71-.55v2.12a3.34,3.34,0,0,0-.5,0,3.68,3.68,0,0,0-2.79,1.06,4.18,4.18,0,0,0-1,3v6H573.3V400.09h2.09v2A3.67,3.67,0,0,1,577.08,400.53Z" />
				<path class="cls-6" d="M593.22,406.86h-9.79a3.76,3.76,0,0,0,1.4,2.56,4.58,4.58,0,0,0,3,1,4.47,4.47,0,0,0,3.48-1.45l1.21,1.41a5.25,5.25,0,0,1-2,1.45,7,7,0,0,1-2.72.51,7.18,7.18,0,0,1-3.39-.79,5.58,5.58,0,0,1-2.29-2.2,6.27,6.27,0,0,1-.81-3.18A6.35,6.35,0,0,1,582,403a5.55,5.55,0,0,1,2.16-2.19,6.1,6.1,0,0,1,3.11-.79,6,6,0,0,1,3.08.79A5.45,5.45,0,0,1,592.5,403a6.68,6.68,0,0,1,.76,3.24A6.31,6.31,0,0,1,593.22,406.86Zm-8.55-4.08a3.83,3.83,0,0,0-1.24,2.5h7.74a3.92,3.92,0,0,0-1.24-2.49,3.8,3.8,0,0,0-2.63-1A3.76,3.76,0,0,0,584.67,402.78Z" />
				<path class="cls-6" d="M604.18,401.21a4.77,4.77,0,0,1,1.33,3.66v7.29h-2.07v-1.59a3.47,3.47,0,0,1-1.56,1.28,5.91,5.91,0,0,1-2.4.45,5.06,5.06,0,0,1-3.25-1,3.36,3.36,0,0,1-.05-5.14,5.73,5.73,0,0,1,3.68-1h3.46v-.44a2.77,2.77,0,0,0-.82-2.16,3.45,3.45,0,0,0-2.41-.75,6.5,6.5,0,0,0-2.09.35,5.31,5.31,0,0,0-1.73.95l-.91-1.64a6.45,6.45,0,0,1,2.23-1.15,9.15,9.15,0,0,1,2.75-.4A5.47,5.47,0,0,1,604.18,401.21ZM602,410.05a3.16,3.16,0,0,0,1.32-1.58v-1.68H600c-1.85,0-2.77.62-2.77,1.86a1.69,1.69,0,0,0,.7,1.44,3.24,3.24,0,0,0,2,.52A4,4,0,0,0,602,410.05Z" />
				<path class="cls-6" d="M616.34,411.45a3,3,0,0,1-1.18.63,5.11,5.11,0,0,1-1.46.22,3.88,3.88,0,0,1-2.82-1,3.75,3.75,0,0,1-1-2.8v-6.63h-2v-1.8h2v-2.64h2.18v2.64h3.46v1.8h-3.46v6.54a2.15,2.15,0,0,0,.49,1.5,1.83,1.83,0,0,0,1.4.52,2.63,2.63,0,0,0,1.71-.57Z" />
				<path class="cls-6" d="M629.43,406.86h-9.79a3.84,3.84,0,0,0,1.4,2.56,4.6,4.6,0,0,0,3,1,4.48,4.48,0,0,0,3.49-1.45l1.2,1.41a5.15,5.15,0,0,1-2,1.45,7,7,0,0,1-2.72.51,7.2,7.2,0,0,1-3.4-.79,5.62,5.62,0,0,1-2.28-2.2,6.27,6.27,0,0,1-.81-3.18,6.45,6.45,0,0,1,.78-3.17,5.64,5.64,0,0,1,2.17-2.19,6.09,6.09,0,0,1,3.1-.79,6,6,0,0,1,3.09.79,5.52,5.52,0,0,1,2.12,2.19,6.8,6.8,0,0,1,.76,3.24C629.48,406.36,629.46,406.58,629.43,406.86Zm-8.55-4.08a3.92,3.92,0,0,0-1.24,2.5h7.74a3.87,3.87,0,0,0-1.24-2.49,4.07,4.07,0,0,0-5.26,0Z" />
				<path class="cls-6" d="M646.86,401.21a4.77,4.77,0,0,1,1.33,3.66v7.29h-2.07v-1.59a3.47,3.47,0,0,1-1.56,1.28,5.91,5.91,0,0,1-2.4.45,5.06,5.06,0,0,1-3.25-1,3.38,3.38,0,0,1,0-5.14,5.73,5.73,0,0,1,3.68-1H646v-.44a2.77,2.77,0,0,0-.82-2.16,3.45,3.45,0,0,0-2.41-.75,6.5,6.5,0,0,0-2.09.35,5.31,5.31,0,0,0-1.73.95l-.91-1.64a6.45,6.45,0,0,1,2.23-1.15A9.15,9.15,0,0,1,643,400,5.47,5.47,0,0,1,646.86,401.21Zm-2.18,8.84a3.16,3.16,0,0,0,1.32-1.58v-1.68h-3.37c-1.85,0-2.77.62-2.77,1.86a1.69,1.69,0,0,0,.7,1.44,3.24,3.24,0,0,0,2,.52A4,4,0,0,0,644.68,410.05Z" />
				<path class="cls-6" d="M561.19,438.05a9.11,9.11,0,0,1-3.55-3.36,9.82,9.82,0,0,1,0-9.73,9.07,9.07,0,0,1,3.55-3.37,10.55,10.55,0,0,1,5.07-1.21,10.78,10.78,0,0,1,4.3.83,8.73,8.73,0,0,1,3.22,2.4l-2.72,2.51a5.81,5.81,0,0,0-4.59-2.14,6.11,6.11,0,0,0-3,.74,5.33,5.33,0,0,0-2.08,2.08,6.11,6.11,0,0,0-.74,3,6.18,6.18,0,0,0,.74,3,5.24,5.24,0,0,0,2.08,2.07,6,6,0,0,0,3,.75,5.81,5.81,0,0,0,4.59-2.17l2.72,2.5a8.41,8.41,0,0,1-3.24,2.43,10.64,10.64,0,0,1-4.3.84A10.51,10.51,0,0,1,561.19,438.05Z" />
				<path class="cls-6" d="M588.28,435H579.8L578.19,439h-4.33L582,420.69h4.18L594.33,439H589.9ZM587,431.83l-2.89-7-2.9,7Z" />
				<path class="cls-6" d="M612.86,439l0-10.95-5.37,9h-1.91l-5.35-8.79V439h-4V420.69h3.49L606.57,432l6.73-11.35h3.47l.05,18.26Z" />
				<path class="cls-6" d="M633.27,421.5a6.2,6.2,0,0,1,2.75,2.3,6.85,6.85,0,0,1,0,7,6.12,6.12,0,0,1-2.75,2.29,10.3,10.3,0,0,1-4.21.8h-3.68v5h-4.23V420.69h7.91A10.14,10.14,0,0,1,633.27,421.5Zm-1.55,8.15a2.84,2.84,0,0,0,1-2.33,2.88,2.88,0,0,0-1-2.36,4.44,4.44,0,0,0-2.9-.82h-3.44v6.33h3.44A4.44,4.44,0,0,0,631.72,429.65Z" />
				<path class="cls-6" d="M651.1,435h-8.48L641,439h-4.33l8.14-18.26H649L657.15,439h-4.43Zm-1.33-3.21-2.9-7-2.89,7Z" />
				<path class="cls-6" d="M659.06,420.69h4.22V439h-4.22Z" />
				<path class="cls-6" d="M680,429.54h3.86v7.4a11,11,0,0,1-3.44,1.73,13.41,13.41,0,0,1-3.94.6,10.63,10.63,0,0,1-5.11-1.22,9.1,9.1,0,0,1-3.57-3.36,9.82,9.82,0,0,1,0-9.73,9,9,0,0,1,3.59-3.37,10.87,10.87,0,0,1,5.17-1.21,11.24,11.24,0,0,1,4.35.81,8.68,8.68,0,0,1,3.29,2.34L681.44,426a6.3,6.3,0,0,0-4.72-2.06,6.43,6.43,0,0,0-3.11.73,5.23,5.23,0,0,0-2.11,2.06,6.46,6.46,0,0,0,0,6.08,5.23,5.23,0,0,0,2.1,2.07,6.17,6.17,0,0,0,3.06.75,6.87,6.87,0,0,0,3.29-.79Z" />
				<path class="cls-6" d="M704.47,420.69V439H701l-9.1-11.08V439h-4.18V420.69h3.5l9.08,11.09V420.69Z" />
				<path class="cls-4" d="M619.18,281.84h0m.37,6.43a28.7,28.7,0,0,1,3.75,16.31,19.9,19.9,0,0,1-9.21,14.95c4.36-8.77,5.95-18.15,5.46-31.26m-2.95-8c-.71,0-1.12.64-1,2,1.52,19.57-.52,30.82-9.38,43.33,9.7,0,19.65-9.07,20.7-20.72,1.08-13.51-7.3-24.64-10.3-24.64Z" />
				<path class="cls-4" d="M639.7,281.86h0m.19,6.73a31.55,31.55,0,0,1,2.79,7.9c1.29,6.05,1.93,18.1-8.29,30.77a3.62,3.62,0,0,0,2.81,5.88,3.67,3.67,0,0,0,1.34-.26c.47-.19,10-4.13,17.34-15.42a35.59,35.59,0,0,1-1.3,6.1c-2.15,7-7.32,16.75-19.79,23.27a3.61,3.61,0,0,0,1.67,6.81l.35,0a43.8,43.8,0,0,0,12.11-3.31c-4.24,4.58-10.95,9.67-19.57,11.39a40.24,40.24,0,0,1-7.87.77c-12.65,0-23.3-5.62-28.49-15-2.53-4.58-3.07-9.52-3.59-14.3-.68-6.25-1.43-13.2-7.19-18.3a6.74,6.74,0,0,1,3.59-1,7.66,7.66,0,0,1,5.06,2c2.32,2.33,2.95,4.7,3.61,7.2.77,2.89,1.73,6.48,5.64,8.65a14.1,14.1,0,0,0,7,1.7c7.08,0,15.58-4.4,21.17-11,7.25-8.8,11.36-20.84,11.65-33.75m17.69,56.65h0m-20.49-65c-.7,0-1.09.65-1,2.06,1.23,16.1-3.76,29.33-10.66,37.7-4.63,5.47-12.14,9.69-18.38,9.69a10.59,10.59,0,0,1-5.21-1.24c-5.16-2.87-2.43-9.27-8.51-15.31a11.24,11.24,0,0,0-7.55-3,10.92,10.92,0,0,0-9.14,5.13c12.87,7.11,6.09,21,13.17,33.85,6.62,12,19.55,16.88,31.65,16.88a43.7,43.7,0,0,0,8.57-.84c19.47-3.88,30.67-23.51,26.9-23.51A4.78,4.78,0,0,0,654.5,343c-8.07,6.13-18,7.08-18,7.08,26-13.6,25-42,21.19-42-.54,0-1.14.57-1.72,1.84-6.82,14.87-18.74,19.65-18.74,19.65,9.78-12.13,11-24.48,9-33.78s-7-15.46-9.13-15.46Z" />
				<ellipse class="cls-26" cx="622.24" cy="375.94" rx="101.07" ry="4.73" />
				<path class="cls-25" d="M561.65,350.71c-24.6-3.69-58.17-15.22-92.42-49.63C442.68,274.41,428.7,249.9,417.18,228" />
				<path class="cls-4" d="M104.93,458.15H85.45a4.12,4.12,0,0,0,0,8.24h19.48a4.12,4.12,0,0,0,0-8.24Zm1.35,4.12a1.35,1.35,0,0,1-1.35,1.35H85.45a1.35,1.35,0,1,1,0-2.7h19.48A1.35,1.35,0,0,1,106.28,462.27Z" />
				<path class="cls-4" d="M82.77,468.2a7.78,7.78,0,0,0,6.28,7.59,6.47,6.47,0,0,0,12.3,0,7.8,7.8,0,0,0,6.26-7.59v-1.39H82.77Zm8.12,5-.64,0a5,5,0,0,1-4.51-3.57h18.9a5,5,0,0,1-4.5,3.57l-.59,0ZM98.18,476a3.67,3.67,0,0,1-6,0Z" />
				<path class="cls-4" d="M95.19,391.1a27.74,27.74,0,0,0-27.71,27.71,27.34,27.34,0,0,0,5.93,17.09,112.14,112.14,0,0,1,8.25,12v9.75h26.92v-9.51A126.48,126.48,0,0,1,117,435.91a27.39,27.39,0,0,0,5.93-17.1A27.74,27.74,0,0,0,95.19,391.1Zm-3.42,40.82L93.62,439l3.22-7.83,1.57,4.5,3.47-1.59L97.42,454.9h-4.3l-4.56-20.83ZM106,447.06l-.2.33v7.51h-5.55l5.92-27.62-2.7-.58-1,4.6-2.73,1.24L97,424.71l-2.9,7.05-.93-3.56L88,431.65l-1.09-5-2.94.64,6,27.59H84.43v-7.73l-.19-.33a114.84,114.84,0,0,0-8.65-12.65,24.63,24.63,0,0,1-5.34-15.38,24.94,24.94,0,0,1,49.88,0,24.63,24.63,0,0,1-5.34,15.38h0A130.89,130.89,0,0,0,106,447.06Z" />
				<path class="cls-4" d="M96.21,386.59a1.27,1.27,0,0,0,1.27-1.27V373.26a1.27,1.27,0,0,0-2.54,0v12.06A1.27,1.27,0,0,0,96.21,386.59Z" />
				<path class="cls-4" d="M114,390.92a1.28,1.28,0,0,0,.66.18,1.27,1.27,0,0,0,1.09-.61L122,380.18a1.27,1.27,0,0,0-.43-1.74,1.25,1.25,0,0,0-1-.15,1.27,1.27,0,0,0-.79.57l-6.24,10.31a1.25,1.25,0,0,0-.15,1A1.27,1.27,0,0,0,114,390.92Z" />
				<path class="cls-4" d="M126.16,405.65a1.25,1.25,0,0,0,.59-.14l10.68-5.58a1.27,1.27,0,1,0-1.17-2.25l-10.69,5.58a1.27,1.27,0,0,0,.59,2.39Z" />
				<path class="cls-4" d="M142.62,420.73a1.26,1.26,0,0,0-.88-.43l-12-.77a1.27,1.27,0,0,0-.16,2.53l12,.77h.08a1.27,1.27,0,0,0,1-2.1Z" />
				<path class="cls-4" d="M134.72,444.8l-9.89-6.89a1.26,1.26,0,0,0-1-.21,1.27,1.27,0,0,0-.5,2.29l9.89,6.89a1.27,1.27,0,0,0,1.77-.31,1.24,1.24,0,0,0,.21-.95A1.27,1.27,0,0,0,134.72,444.8Z" />
				<path class="cls-4" d="M74.89,390.49a1.27,1.27,0,0,0,2.18-1.32l-6.25-10.31a1.27,1.27,0,0,0-.79-.57,1.25,1.25,0,0,0-1,.15,1.27,1.27,0,0,0-.43,1.74Z" />
				<path class="cls-4" d="M53.23,399.93l10.68,5.58a1.25,1.25,0,0,0,.59.14,1.27,1.27,0,0,0,.59-2.39L54.4,397.68a1.27,1.27,0,1,0-1.17,2.25Z" />
				<path class="cls-4" d="M62.29,420.71A1.28,1.28,0,0,0,61,419.53l-12,.77a1.27,1.27,0,0,0,.08,2.53l12.11-.77A1.26,1.26,0,0,0,62.29,420.71Z" />
				<path class="cls-4" d="M66.78,437.7a1.24,1.24,0,0,0-1,.21l-9.89,6.89a1.27,1.27,0,0,0,1.46,2.08L67.29,440a1.28,1.28,0,0,0,.31-1.77A1.23,1.23,0,0,0,66.78,437.7Z" />
				<ellipse class="cls-27" cx="95.04" cy="493.11" rx="91.44" ry="5.9" />
				<path class="cls-20" d="M168.74,439.87s-1.94,19.1-17,20.42c15.07,1.32,17,20.42,17,20.42s1.94-19.1,17-20.42C170.68,459,168.74,439.87,168.74,439.87Z" />
				<path class="cls-20" d="M196.87,399.46s-1.28,12.63-11.25,13.51c10,.87,11.25,13.51,11.25,13.51s1.28-12.64,11.26-13.51C198.15,412.09,196.87,399.46,196.87,399.46Z" />
				<path class="cls-6" d="M38.53,513v5.5H36.28V513L30,502.59h2.43l5.1,8.4,5.13-8.4h2.25Z" />
				<path class="cls-6" d="M47.41,517.86a5.69,5.69,0,0,1-2.24-2.19,6.63,6.63,0,0,1,0-6.35,5.56,5.56,0,0,1,2.24-2.19,7.06,7.06,0,0,1,6.45,0,5.66,5.66,0,0,1,2.23,2.19,6.63,6.63,0,0,1,0,6.35,5.79,5.79,0,0,1-2.23,2.19,6.9,6.9,0,0,1-6.45,0Zm5.31-1.65a3.68,3.68,0,0,0,1.45-1.5,4.55,4.55,0,0,0,.52-2.22,4.61,4.61,0,0,0-.52-2.22,3.71,3.71,0,0,0-1.45-1.49,4.42,4.42,0,0,0-4.16,0,3.8,3.8,0,0,0-1.46,1.49,4.5,4.5,0,0,0-.53,2.22,4.45,4.45,0,0,0,.53,2.22,3.77,3.77,0,0,0,1.46,1.5,4.28,4.28,0,0,0,4.16,0Z" />
				<path class="cls-6" d="M71.17,506.46v12.06H69.1V516.7a4.33,4.33,0,0,1-1.74,1.45,5.47,5.47,0,0,1-2.36.51,4.74,4.74,0,0,1-5.19-5.26v-6.94H62v6.69a3.75,3.75,0,0,0,.84,2.65,3.15,3.15,0,0,0,2.41.9,3.64,3.64,0,0,0,2.74-1,4.16,4.16,0,0,0,1-3v-6.24Z" />
				<path class="cls-6" d="M91.56,507.68a5.23,5.23,0,0,1,1.35,3.9v6.94H90.73v-6.69a3.71,3.71,0,0,0-.85-2.64,3.16,3.16,0,0,0-2.41-.89,3.77,3.77,0,0,0-2.8,1,4.05,4.05,0,0,0-1,3v6.21H81.46V501.63h2.19v6.54a4.49,4.49,0,0,1,1.78-1.35,6.15,6.15,0,0,1,2.47-.47A5,5,0,0,1,91.56,507.68Z" />
				<path class="cls-6" d="M105.19,507.57a4.76,4.76,0,0,1,1.33,3.67v7.28h-2.07v-1.59a3.45,3.45,0,0,1-1.56,1.29,6,6,0,0,1-2.4.44,5,5,0,0,1-3.24-1,3.36,3.36,0,0,1-.06-5.13,5.68,5.68,0,0,1,3.69-1h3.46v-.43a2.77,2.77,0,0,0-.82-2.16,3.42,3.42,0,0,0-2.41-.76,6.26,6.26,0,0,0-2.1.36,5.4,5.4,0,0,0-1.73.94l-.91-1.64a6.73,6.73,0,0,1,2.23-1.15,9.54,9.54,0,0,1,2.76-.39A5.49,5.49,0,0,1,105.19,507.57ZM103,516.42a3.16,3.16,0,0,0,1.32-1.58v-1.69H101c-1.85,0-2.78.62-2.78,1.87a1.68,1.68,0,0,0,.71,1.43,3.22,3.22,0,0,0,2,.53A4.09,4.09,0,0,0,103,516.42Z" />
				<path class="cls-6" d="M121,506.46l-5.28,12.06h-2.23l-5.28-12.06h2.28l4.14,9.67,4.23-9.67Z" />
				<path class="cls-6" d="M133.59,513.22H123.8a3.78,3.78,0,0,0,1.4,2.56,5,5,0,0,0,6.46-.49l1.2,1.41a5.13,5.13,0,0,1-2,1.46,7.71,7.71,0,0,1-6.11-.28,5.71,5.71,0,0,1-2.29-2.2,6.78,6.78,0,0,1,0-6.35,5.64,5.64,0,0,1,2.16-2.2,6.22,6.22,0,0,1,3.11-.78,6.12,6.12,0,0,1,3.09.78,5.52,5.52,0,0,1,2.11,2.2,6.68,6.68,0,0,1,.77,3.23A6.45,6.45,0,0,1,133.59,513.22ZM125,509.14a3.9,3.9,0,0,0-1.24,2.51h7.74a3.83,3.83,0,0,0-1.24-2.49,3.73,3.73,0,0,0-2.63-1A3.81,3.81,0,0,0,125,509.14Z" />
				<path class="cls-6" d="M151,507.57a4.76,4.76,0,0,1,1.34,3.67v7.28h-2.08v-1.59a3.45,3.45,0,0,1-1.56,1.29,6,6,0,0,1-2.4.44,5,5,0,0,1-3.24-1,3.36,3.36,0,0,1-.06-5.13,5.72,5.72,0,0,1,3.69-1h3.46v-.43a2.77,2.77,0,0,0-.82-2.16,3.4,3.4,0,0,0-2.41-.76,6.31,6.31,0,0,0-2.1.36,5.4,5.4,0,0,0-1.73.94l-.91-1.64a6.83,6.83,0,0,1,2.23-1.15,9.59,9.59,0,0,1,2.76-.39A5.47,5.47,0,0,1,151,507.57Zm-2.17,8.85a3.16,3.16,0,0,0,1.32-1.58v-1.69h-3.37c-1.85,0-2.78.62-2.78,1.87a1.68,1.68,0,0,0,.71,1.43,3.22,3.22,0,0,0,2,.53A4.09,4.09,0,0,0,148.84,516.42Z" />
				<path class="cls-6" d="M166.49,507.68a5.2,5.2,0,0,1,1.36,3.9v6.94h-2.19v-6.69a3.7,3.7,0,0,0-.84-2.64,3.18,3.18,0,0,0-2.41-.89,3.75,3.75,0,0,0-2.8,1,4,4,0,0,0-1,3v6.21H156.4V506.46h2.09v1.82a4.24,4.24,0,0,1,1.79-1.43,6.13,6.13,0,0,1,2.56-.5A5,5,0,0,1,166.49,507.68Z" />
				<path class="cls-6" d="M32.21,531.57h4.22v18.26H32.21Z" />
				<path class="cls-6" d="M40.76,531.57h8.3a11.72,11.72,0,0,1,5.25,1.13,8.42,8.42,0,0,1,3.55,3.2,9.71,9.71,0,0,1,0,9.6,8.4,8.4,0,0,1-3.55,3.19,11.59,11.59,0,0,1-5.25,1.14h-8.3Zm8.09,14.79a6.14,6.14,0,0,0,4.37-1.53,6.06,6.06,0,0,0,0-8.27A6.18,6.18,0,0,0,48.85,535H45v11.32Z" />
				<path class="cls-6" d="M76.45,546.44v3.39H62.31V531.57h13.8V535h-9.6v4H75v3.29H66.51v4.23Z" />
				<path class="cls-6" d="M91.84,545.92H83.36l-1.62,3.91H77.41l8.14-18.26h4.18l8.16,18.26H93.46Zm-1.33-3.21-2.9-7-2.89,7Z" />
				<path class="cls-6" d="M109.54,536.72v1h3.51v1.8h-3.46v10.27H107.4V539.56h-2.05v-1.8h2.05v-1.07a3.84,3.84,0,0,1,1-2.84,4,4,0,0,1,2.94-1.05,5,5,0,0,1,1.36.18,3.17,3.17,0,0,1,1.09.53l-.66,1.66a2.71,2.71,0,0,0-1.68-.57C110.2,534.6,109.54,535.31,109.54,536.72Z" />
				<path class="cls-6" d="M116.87,549.17a5.85,5.85,0,0,1-2.24-2.2,6.63,6.63,0,0,1,0-6.35,5.73,5.73,0,0,1,2.24-2.18,7,7,0,0,1,6.46,0,5.77,5.77,0,0,1,2.23,2.18,6.63,6.63,0,0,1,0,6.35,5.89,5.89,0,0,1-2.23,2.2,6.92,6.92,0,0,1-6.46,0Zm5.32-1.65a3.85,3.85,0,0,0,1.44-1.5,4.61,4.61,0,0,0,.53-2.22,4.55,4.55,0,0,0-.53-2.22,3.69,3.69,0,0,0-1.44-1.49,4.37,4.37,0,0,0-4.17,0,3.72,3.72,0,0,0-1.45,1.49,4.45,4.45,0,0,0-.54,2.22,4.5,4.5,0,0,0,.54,2.22,3.87,3.87,0,0,0,1.45,1.5,4.37,4.37,0,0,0,4.17,0Z" />
				<path class="cls-6" d="M133.17,538.2a6,6,0,0,1,2.71-.55v2.12a3.25,3.25,0,0,0-.5,0,3.7,3.7,0,0,0-2.79,1.06,4.22,4.22,0,0,0-1,3v6h-2.19V537.76h2.1v2A3.7,3.7,0,0,1,133.17,538.2Z" />
				<path class="cls-6" d="M32.73,572.32a6.47,6.47,0,0,1-2.14-1l.91-1.74a6.53,6.53,0,0,0,1.93.92,8.26,8.26,0,0,0,2.3.34c1.91,0,2.87-.55,2.87-1.64a1.07,1.07,0,0,0-.39-.87,2.39,2.39,0,0,0-1-.46c-.39-.1-.94-.21-1.66-.33a16.55,16.55,0,0,1-2.37-.53,3.6,3.6,0,0,1-1.59-1,2.79,2.79,0,0,1-.66-2,3.1,3.1,0,0,1,1.37-2.63,6.11,6.11,0,0,1,3.66-1,10,10,0,0,1,2.42.3,6.49,6.49,0,0,1,2,.79l-.94,1.73a6.3,6.3,0,0,0-3.48-1,4.1,4.1,0,0,0-2.12.45,1.39,1.39,0,0,0-.72,1.21,1.12,1.12,0,0,0,.41.93,2.46,2.46,0,0,0,1,.5c.4.11,1,.23,1.69.37a17.13,17.13,0,0,1,2.36.53,3.52,3.52,0,0,1,1.54,1,2.72,2.72,0,0,1,.63,1.91,3,3,0,0,1-1.4,2.61,6.63,6.63,0,0,1-3.81,1A10.31,10.31,0,0,1,32.73,572.32Z" />
				<path class="cls-6" d="M45.45,571.92a5.71,5.71,0,0,1-2.24-2.2,6.63,6.63,0,0,1,0-6.35,5.66,5.66,0,0,1,2.24-2.18,6.55,6.55,0,0,1,3.23-.79,6.46,6.46,0,0,1,3.22.79,5.63,5.63,0,0,1,2.23,2.18,6.63,6.63,0,0,1,0,6.35,5.68,5.68,0,0,1-2.23,2.2,6.46,6.46,0,0,1-3.22.8A6.55,6.55,0,0,1,45.45,571.92Zm5.32-1.65a3.85,3.85,0,0,0,1.44-1.5,4.61,4.61,0,0,0,.53-2.22,4.55,4.55,0,0,0-.53-2.22,3.69,3.69,0,0,0-1.44-1.49,4.37,4.37,0,0,0-4.17,0,3.81,3.81,0,0,0-1.46,1.49,4.55,4.55,0,0,0-.53,2.22,4.61,4.61,0,0,0,.53,2.22,4,4,0,0,0,1.46,1.5,4.37,4.37,0,0,0,4.17,0Z" />
				<path class="cls-6" d="M59.94,571.92a5.79,5.79,0,0,1-2.27-2.2,6.56,6.56,0,0,1,0-6.35,5.74,5.74,0,0,1,2.27-2.18,6.7,6.7,0,0,1,3.29-.79,6.28,6.28,0,0,1,2.92.66,4.78,4.78,0,0,1,2,1.91L66.48,564a3.69,3.69,0,0,0-1.41-1.29,4,4,0,0,0-1.86-.44,4.31,4.31,0,0,0-2.13.53,3.66,3.66,0,0,0-1.48,1.49,4.45,4.45,0,0,0-.54,2.22,4.53,4.53,0,0,0,.54,2.24,3.66,3.66,0,0,0,1.48,1.49,4.31,4.31,0,0,0,2.13.52,4,4,0,0,0,1.86-.43,3.72,3.72,0,0,0,1.41-1.3l1.67,1a4.75,4.75,0,0,1-2,1.92,6.17,6.17,0,0,1-2.92.68A6.7,6.7,0,0,1,59.94,571.92Z" />
				<path class="cls-6" d="M71,557.78a1.33,1.33,0,0,1-.42-1,1.38,1.38,0,0,1,.42-1,1.58,1.58,0,0,1,2.12,0,1.29,1.29,0,0,1,.42,1,1.4,1.4,0,0,1-.42,1,1.56,1.56,0,0,1-2.12,0Zm0,2.74h2.18v12.06H71Z" />
				<path class="cls-6" d="M85.55,561.63a4.74,4.74,0,0,1,1.33,3.67v7.28H84.81V571a3.47,3.47,0,0,1-1.56,1.28,5.91,5.91,0,0,1-2.4.45,5.08,5.08,0,0,1-3.25-1,3.36,3.36,0,0,1,0-5.14,5.73,5.73,0,0,1,3.68-1h3.46v-.44a2.77,2.77,0,0,0-.82-2.16,3.45,3.45,0,0,0-2.41-.75,6.5,6.5,0,0,0-2.09.35,5.31,5.31,0,0,0-1.73,1L76.73,562A6.45,6.45,0,0,1,79,560.8a9.15,9.15,0,0,1,2.75-.4A5.47,5.47,0,0,1,85.55,561.63Zm-2.18,8.84a3.16,3.16,0,0,0,1.32-1.58v-1.68H81.33c-1.86,0-2.78.62-2.78,1.86a1.69,1.69,0,0,0,.7,1.44,3.24,3.24,0,0,0,2,.52A4,4,0,0,0,83.37,570.47Z" />
				<path class="cls-6" d="M90.93,555.69h2.19v16.89H90.93Z" />
				<path class="cls-6" d="M103.44,557.78a1.33,1.33,0,0,1-.42-1,1.38,1.38,0,0,1,.42-1,1.43,1.43,0,0,1,1.06-.42,1.49,1.49,0,0,1,1.06.4,1.29,1.29,0,0,1,.42,1,1.4,1.4,0,0,1-.42,1,1.46,1.46,0,0,1-1.06.42A1.42,1.42,0,0,1,103.44,557.78Zm0,2.74h2.19v12.06H103.4Z" />
				<path class="cls-6" d="M128.46,561.72a5.33,5.33,0,0,1,1.33,3.92v6.94H127.6v-6.69a3.79,3.79,0,0,0-.81-2.64,2.94,2.94,0,0,0-2.31-.89,3.48,3.48,0,0,0-2.64,1,4.2,4.2,0,0,0-1,3v6.22h-2.18v-6.69a3.79,3.79,0,0,0-.81-2.64,2.94,2.94,0,0,0-2.31-.89,3.45,3.45,0,0,0-2.64,1,4.2,4.2,0,0,0-1,3v6.22h-2.19V560.52h2.1v1.79a4.3,4.3,0,0,1,1.73-1.42,5.7,5.7,0,0,1,2.43-.49,5.34,5.34,0,0,1,2.51.57,3.9,3.9,0,0,1,1.68,1.66,4.69,4.69,0,0,1,1.9-1.64,6.3,6.3,0,0,1,2.75-.59A4.92,4.92,0,0,1,128.46,561.72Z" />
				<path class="cls-6" d="M143.35,561.18a5.52,5.52,0,0,1,2.18,2.16,6.41,6.41,0,0,1,.78,3.21,6.5,6.5,0,0,1-.78,3.22,5.55,5.55,0,0,1-2.18,2.17,6.28,6.28,0,0,1-3.14.78,5.67,5.67,0,0,1-2.38-.5,5,5,0,0,1-1.83-1.46V577h-2.18V560.52h2.09v1.91a4.67,4.67,0,0,1,1.84-1.52,5.89,5.89,0,0,1,2.46-.51A6.28,6.28,0,0,1,143.35,561.18Zm-1.24,9.09a3.9,3.9,0,0,0,1.46-1.5,4.5,4.5,0,0,0,.53-2.22,4.45,4.45,0,0,0-.53-2.22,3.74,3.74,0,0,0-1.46-1.49,4.12,4.12,0,0,0-2.08-.53,4,4,0,0,0-2.06.54,3.87,3.87,0,0,0-1.46,1.49,4.52,4.52,0,0,0-.53,2.21,4.61,4.61,0,0,0,.52,2.22,3.83,3.83,0,0,0,1.46,1.5,4.33,4.33,0,0,0,4.15,0Z" />
				<path class="cls-6" d="M157.46,561.63a4.78,4.78,0,0,1,1.33,3.67v7.28h-2.07V571a3.47,3.47,0,0,1-1.56,1.28,5.92,5.92,0,0,1-2.41.45,5,5,0,0,1-3.24-1,3.14,3.14,0,0,1-1.22-2.57,3.19,3.19,0,0,1,1.16-2.57,5.78,5.78,0,0,1,3.69-1h3.46v-.44a2.77,2.77,0,0,0-.82-2.16,3.45,3.45,0,0,0-2.41-.75,6.5,6.5,0,0,0-2.09.35,5.31,5.31,0,0,0-1.73,1l-.92-1.64a6.59,6.59,0,0,1,2.24-1.15,9.15,9.15,0,0,1,2.75-.4A5.47,5.47,0,0,1,157.46,561.63Zm-2.18,8.84a3.16,3.16,0,0,0,1.32-1.58v-1.68h-3.37c-1.85,0-2.77.62-2.77,1.86a1.69,1.69,0,0,0,.7,1.44,3.22,3.22,0,0,0,2,.52A4,4,0,0,0,155.28,570.47Z" />
				<path class="cls-6" d="M164.88,571.92a5.79,5.79,0,0,1-2.27-2.2,6.56,6.56,0,0,1,0-6.35,5.74,5.74,0,0,1,2.27-2.18,6.7,6.7,0,0,1,3.29-.79,6.31,6.31,0,0,1,2.92.66,4.7,4.7,0,0,1,2,1.91L171.42,564a3.69,3.69,0,0,0-1.41-1.29,4,4,0,0,0-1.87-.44,4.31,4.31,0,0,0-2.13.53,3.72,3.72,0,0,0-1.48,1.49,4.55,4.55,0,0,0-.53,2.22,4.63,4.63,0,0,0,.53,2.24,3.72,3.72,0,0,0,1.48,1.49,4.31,4.31,0,0,0,2.13.52,4,4,0,0,0,1.87-.43,3.72,3.72,0,0,0,1.41-1.3l1.66,1a4.67,4.67,0,0,1-2,1.92,6.2,6.2,0,0,1-2.92.68A6.7,6.7,0,0,1,164.88,571.92Z" />
				<path class="cls-6" d="M182.85,571.87a3.15,3.15,0,0,1-1.19.63,5,5,0,0,1-1.45.22,3.89,3.89,0,0,1-2.83-1,3.77,3.77,0,0,1-1-2.8v-6.63h-2v-1.79h2v-2.65h2.19v2.65H182v1.79h-3.46v6.54a2.1,2.1,0,0,0,.49,1.5,1.8,1.8,0,0,0,1.4.52,2.61,2.61,0,0,0,1.7-.57Z" />
				<path class="cls-4" d="M146.78,919.13h0a7,7,0,0,0-2.89-1.57l-.44-.11-.16-.43a7,7,0,0,0-6.53-4.52h-.36a7,7,0,0,0-6.61,7.33l.52,10.17a1.9,1.9,0,0,0,2,1.79l10.18-.52a7,7,0,0,0,4.32-12.15Zm-2.3,7.33a3.14,3.14,0,0,1-2.21,1l-8.29.43-.43-8.29a3.21,3.21,0,1,1,6.41-.33,1.9,1.9,0,0,0,2,1.79,3.21,3.21,0,0,1,2.31.82,3.22,3.22,0,0,1,.23,4.53Z" />
				<path class="cls-4" d="M164.42,899.59a7,7,0,0,0-2.89-1.57l-.44-.11-.15-.43a7,7,0,0,0-1.86-2.71,6.91,6.91,0,0,0-4.67-1.8h-.36a7,7,0,0,0-6.62,7.32l.52,10.17a1.93,1.93,0,0,0,.62,1.31,1.9,1.9,0,0,0,1.36.48l10.17-.52a7,7,0,0,0,4.32-12.15ZM159.91,908l-8.29.42-.42-8.29a3.19,3.19,0,0,1,.82-2.31,3.23,3.23,0,0,1,2.22-1.06,3.23,3.23,0,0,1,3.37,3,1.86,1.86,0,0,0,.61,1.31,1.9,1.9,0,0,0,1.36.48,3.23,3.23,0,0,1,2.32.82,3.21,3.21,0,0,1-2,5.59Z" />
				<path class="cls-4" d="M189.83,866.09a1.87,1.87,0,0,0-1.48-.48,90.55,90.55,0,0,0-62.48,36.91l-5.67,7.88-29,10.86a2,2,0,0,0-1,.81l-10.33,17.5a1.88,1.88,0,0,0-.06,1.81,1.72,1.72,0,0,0,.42.55,1.88,1.88,0,0,0,1.06.48l17.32,1.89,9.94,9-5.82,6.45a1.89,1.89,0,0,0,.14,2.66,1.85,1.85,0,0,0,1.36.48,1.83,1.83,0,0,0,1.3-.62l5.82-6.44,9.94,9,3.64,17a1.85,1.85,0,0,0,.58,1,1.71,1.71,0,0,0,.59.36,1.88,1.88,0,0,0,1.79-.24l16.36-12.06a1.85,1.85,0,0,0,.71-1l7.86-30,7.27-6.44a90.61,90.61,0,0,0,30.37-65.9A1.87,1.87,0,0,0,189.83,866.09ZM98.54,940.5,84.6,939l8.51-14.42,23.12-8.65Zm42.94,27.75L128,978.18l-2.94-13.71,22.67-20.1ZM181,896.57a87,87,0,0,1-23.46,34L123,961.25,113.88,953l11.53-12.77a1.91,1.91,0,0,0,.49-1.36,1.93,1.93,0,0,0-.62-1.31,1.89,1.89,0,0,0-2.66.14l-11.54,12.78-9.14-8.26,27-37.5a86.92,86.92,0,0,1,31.47-26.79l.84-.42.36.88a29.16,29.16,0,0,0,18.86,17l.92.27Zm5.52-25.84a86.5,86.5,0,0,1-3.7,20.56l-.25.82-.82-.23A25.36,25.36,0,0,1,165,876.71l-.31-.79.79-.33a86.32,86.32,0,0,1,20.08-5.78l1.07-.17Z" />
				<path class="cls-28" d="M265.15,889.38a8.52,8.52,0,0,0-8.3-6.61,8.39,8.39,0,0,0-2.15.28,12.58,12.58,0,0,0-15.1-6.67,15.45,15.45,0,0,0-27.76,2.7,10.6,10.6,0,0,0-15.76,9.27,8.77,8.77,0,0,0,0,1Z" />
				<path class="cls-28" d="M120,904a8,8,0,0,0-9.82-5.94,11.76,11.76,0,0,0-10.66-6.79,11.54,11.54,0,0,0-3.5.53,14.52,14.52,0,0,0-26.08,2.53,10,10,0,0,0-14.8,8.7c0,.33,0,.65,0,1Z" />
				<path class="cls-20" d="M131.46,1003.32s-.85,8.35-7.43,8.92c6.58.58,7.43,8.92,7.43,8.92s.85-8.34,7.43-8.92C132.31,1011.67,131.46,1003.32,131.46,1003.32Z" />
				<path class="cls-6" d="M166.83,967.54a9.68,9.68,0,0,1-3.24-1.53l1.43-3.18a9.83,9.83,0,0,0,2.79,1.38,10.45,10.45,0,0,0,3.24.52,5.25,5.25,0,0,0,2.66-.53,1.63,1.63,0,0,0,.86-1.42,1.37,1.37,0,0,0-.51-1.09,4.09,4.09,0,0,0-1.3-.69c-.54-.17-1.25-.36-2.16-.57a29.27,29.27,0,0,1-3.41-1,5.59,5.59,0,0,1-2.29-1.59,4.34,4.34,0,0,1-1-2.93,5.1,5.1,0,0,1,.86-2.88,5.87,5.87,0,0,1,2.6-2,10.65,10.65,0,0,1,4.24-.75,14.4,14.4,0,0,1,3.41.41,10.23,10.23,0,0,1,2.93,1.2l-1.31,3.21a10.24,10.24,0,0,0-5.06-1.43,4.76,4.76,0,0,0-2.62.57,1.76,1.76,0,0,0-.85,1.52,1.48,1.48,0,0,0,1,1.39,14.58,14.58,0,0,0,3,.9,29.27,29.27,0,0,1,3.41,1,5.64,5.64,0,0,1,2.29,1.57,4.21,4.21,0,0,1,1,2.89,4.93,4.93,0,0,1-.88,2.86,5.87,5.87,0,0,1-2.62,2,10.74,10.74,0,0,1-4.25.75A15,15,0,0,1,166.83,967.54Z" />
				<path class="cls-6" d="M185.19,953h-5.85v-3.44h15.92V953h-5.85v14.82h-4.22Z" />
				<path class="cls-6" d="M208.64,963.9h-8.48l-1.62,3.91h-4.33l8.14-18.26h4.18l8.16,18.26h-4.43Zm-1.33-3.21-2.9-7-2.89,7Z" />
				<path class="cls-6" d="M228.23,967.81l-3.52-5.09h-3.89v5.09h-4.23V949.55h7.91a10.1,10.1,0,0,1,4.21.81,6.24,6.24,0,0,1,2.75,2.29,6.84,6.84,0,0,1,0,7,6.19,6.19,0,0,1-2.78,2.25l4.1,5.87Zm-1.07-14a4.49,4.49,0,0,0-2.9-.82h-3.44v6.37h3.44a4.38,4.38,0,0,0,2.9-.84,2.88,2.88,0,0,0,1-2.34A2.91,2.91,0,0,0,227.16,953.81Z" />
				<path class="cls-6" d="M239.29,953h-5.84v-3.44h15.91V953h-5.84v14.82h-4.23Z" />
				<path class="cls-4" d="M939.87,529.41H914.61a1.88,1.88,0,0,1,0-3.76h25.26a1.88,1.88,0,1,1,0,3.76Z" />
				<path class="cls-4" d="M939.87,562.24h-9.14a1.89,1.89,0,1,1,0-3.77h9.14a1.89,1.89,0,1,1,0,3.77Z" />
				<path class="cls-4" d="M939.65,537.68H918a1.89,1.89,0,0,1,0-3.77h21.61a1.89,1.89,0,0,1,0,3.77Z" />
				<path class="cls-4" d="M939.87,545.83H914.61a1.88,1.88,0,0,1,0-3.76h25.26a1.88,1.88,0,1,1,0,3.76Z" />
				<path class="cls-4" d="M950.55,513.41a1.88,1.88,0,0,0-.75-1.51l-22.12-22.12h0a2.47,2.47,0,0,0-.38-.28l-.12-.06a1.72,1.72,0,0,0-.45-.16h0a1.34,1.34,0,0,0-.35,0H883a1.88,1.88,0,0,0-1.88,1.88v19c.7-.06,1.42-.1,2.15-.1.54,0,1.08,0,1.61.06V493h39.56v20.42a1.88,1.88,0,0,0,1.88,1.88h20.41v59.52H884.91V557.73c-.53,0-1.07.06-1.61.06-.73,0-1.45,0-2.15-.1v19a1.88,1.88,0,0,0,1.88,1.89h65.61a1.89,1.89,0,0,0,1.89-1.89v-63A1.94,1.94,0,0,0,950.55,513.41Zm-22.32-1.89V495.66l15.87,15.86Z" />
				<path class="cls-4" d="M880.23,544.34a1.83,1.83,0,0,1-1.24-.47l-8.34-7.32a1.88,1.88,0,1,1,2.49-2.82l6.89,6,13.23-15.63a1.88,1.88,0,0,1,2.88,2.43l-14.47,17.1a1.94,1.94,0,0,1-1.3.66Z" />
				<path class="cls-4" d="M883.3,559.67c-.74,0-1.5,0-2.32-.11a25.76,25.76,0,0,1,0-51.32,21.67,21.67,0,0,1,4.1,0A25.76,25.76,0,0,1,885,559.6,16.43,16.43,0,0,1,883.3,559.67Zm0-47.77c-.63,0-1.28,0-2,.09a22,22,0,0,0,0,43.82,17.1,17.1,0,0,0,3.42,0,22,22,0,0,0,0-43.89C884.26,511.91,883.78,511.9,883.3,511.9Z" />
				<ellipse class="cls-29" cx="916.36" cy="587.41" rx="101.07" ry="4.73" />
				<path class="cls-6" d="M807.44,621.41a7.89,7.89,0,0,1-3.06-2.95,8.67,8.67,0,0,1,0-8.49,8,8,0,0,1,3.07-3,9.62,9.62,0,0,1,7.86-.43,7.05,7.05,0,0,1,2.68,1.88l-1.5,1.46a6,6,0,0,0-4.55-1.92,6.6,6.6,0,0,0-3.26.81A5.89,5.89,0,0,0,806.4,611a6.56,6.56,0,0,0,0,6.35,5.89,5.89,0,0,0,2.28,2.23,6.6,6.6,0,0,0,3.26.81,6,6,0,0,0,4.55-1.94L818,620a7.22,7.22,0,0,1-2.69,1.89,9.14,9.14,0,0,1-3.48.65A8.89,8.89,0,0,1,807.44,621.41Z" />
				<path class="cls-6" d="M829.17,611.19a4.82,4.82,0,0,1,1.35,3.72v7.39h-2.1v-1.61a3.49,3.49,0,0,1-1.59,1.3,6,6,0,0,1-2.44.45,5.12,5.12,0,0,1-3.29-1,3.41,3.41,0,0,1-.06-5.21,5.8,5.8,0,0,1,3.75-1h3.51v-.43a2.85,2.85,0,0,0-.83-2.2,3.51,3.51,0,0,0-2.45-.76,6.74,6.74,0,0,0-2.13.35,5.43,5.43,0,0,0-1.75,1l-.93-1.66a6.68,6.68,0,0,1,2.27-1.17,9.41,9.41,0,0,1,2.79-.4A5.51,5.51,0,0,1,829.17,611.19Zm-2.21,9a3.27,3.27,0,0,0,1.34-1.61v-1.71h-3.42q-2.82,0-2.82,1.89a1.71,1.71,0,0,0,.72,1.46,3.29,3.29,0,0,0,2,.53A4.2,4.2,0,0,0,827,620.17Z" />
				<path class="cls-6" d="M853.62,611.28a5.36,5.36,0,0,1,1.35,4v7h-2.22v-6.79a3.84,3.84,0,0,0-.82-2.68,3,3,0,0,0-2.34-.9,3.5,3.5,0,0,0-2.68,1.05,4.18,4.18,0,0,0-1,3v6.31h-2.22v-6.79a3.84,3.84,0,0,0-.82-2.68,3,3,0,0,0-2.34-.9,3.5,3.5,0,0,0-2.68,1.05,4.18,4.18,0,0,0-1,3v6.31h-2.22V610.05h2.13v1.83a4.29,4.29,0,0,1,1.76-1.44,5.74,5.74,0,0,1,2.47-.5,5.37,5.37,0,0,1,2.54.58,4,4,0,0,1,1.71,1.68,4.76,4.76,0,0,1,1.93-1.66,6.34,6.34,0,0,1,2.79-.6A5,5,0,0,1,853.62,611.28Z" />
				<path class="cls-6" d="M868.75,610.72a5.77,5.77,0,0,1,2.21,2.2,7.14,7.14,0,0,1,0,6.53,5.72,5.72,0,0,1-2.21,2.21,6.5,6.5,0,0,1-3.19.78,5.67,5.67,0,0,1-2.42-.51,5.11,5.11,0,0,1-1.86-1.47v6.33h-2.22V610.05h2.13v2a4.74,4.74,0,0,1,1.87-1.54,5.89,5.89,0,0,1,2.5-.52A6.5,6.5,0,0,1,868.75,610.72ZM867.49,620a4,4,0,0,0,1.48-1.53,5,5,0,0,0,0-4.5,3.93,3.93,0,0,0-1.48-1.52,4.28,4.28,0,0,0-2.12-.53,4.12,4.12,0,0,0-2.09.54,4,4,0,0,0-1.48,1.52,4.5,4.5,0,0,0-.54,2.24,4.67,4.67,0,0,0,.53,2.25,3.76,3.76,0,0,0,1.48,1.53,4.39,4.39,0,0,0,4.22,0Z" />
				<path class="cls-6" d="M883.07,611.19a4.82,4.82,0,0,1,1.35,3.72v7.39h-2.11v-1.61a3.41,3.41,0,0,1-1.58,1.3,6,6,0,0,1-2.44.45,5.1,5.1,0,0,1-3.29-1,3.41,3.41,0,0,1-.06-5.21,5.8,5.8,0,0,1,3.75-1h3.51v-.43a2.85,2.85,0,0,0-.83-2.2,3.51,3.51,0,0,0-2.45-.76,6.7,6.7,0,0,0-2.13.35,5.59,5.59,0,0,0-1.76,1l-.92-1.66a6.68,6.68,0,0,1,2.27-1.17,9.41,9.41,0,0,1,2.79-.4A5.52,5.52,0,0,1,883.07,611.19Zm-2.21,9a3.27,3.27,0,0,0,1.34-1.61v-1.71h-3.42q-2.82,0-2.82,1.89a1.71,1.71,0,0,0,.72,1.46,3.28,3.28,0,0,0,2,.53A4.21,4.21,0,0,0,880.86,620.17Z" />
				<path class="cls-6" d="M888.57,607.28a1.42,1.42,0,0,1,0-2,1.42,1.42,0,0,1,1.07-.43,1.52,1.52,0,0,1,1.08.4,1.35,1.35,0,0,1,.42,1,1.46,1.46,0,0,1-.42,1,1.5,1.5,0,0,1-1.08.43A1.45,1.45,0,0,1,888.57,607.28Zm0,2.77h2.22V622.3h-2.22Z" />
				<path class="cls-6" d="M906.7,610.05v10.59a6.31,6.31,0,0,1-1.6,4.75,6.63,6.63,0,0,1-4.76,1.54,11.26,11.26,0,0,1-3.3-.48,6.33,6.33,0,0,1-2.54-1.35l1.06-1.71a6.39,6.39,0,0,0,2.11,1.17,8.18,8.18,0,0,0,2.6.42,4.34,4.34,0,0,0,3.18-1,4.17,4.17,0,0,0,1-3.1v-1a4.86,4.86,0,0,1-1.93,1.42,6.34,6.34,0,0,1-2.48.48,6.58,6.58,0,0,1-3.18-.76,5.57,5.57,0,0,1-2.23-2.1,6.28,6.28,0,0,1,0-6.17,5.48,5.48,0,0,1,2.23-2.09,6.81,6.81,0,0,1,3.18-.74,6.44,6.44,0,0,1,2.57.51,4.8,4.8,0,0,1,2,1.5v-1.9Zm-4.22,9.3a3.76,3.76,0,0,0,1.5-1.43,3.85,3.85,0,0,0,.55-2.06,3.77,3.77,0,0,0-1.18-2.88,4.75,4.75,0,0,0-6.08,0,3.73,3.73,0,0,0-1.18,2.88,3.93,3.93,0,0,0,.54,2.06,3.78,3.78,0,0,0,1.51,1.43,5,5,0,0,0,4.34,0Z" />
				<path class="cls-6" d="M921.18,611.29a5.29,5.29,0,0,1,1.37,4v7h-2.22v-6.79a3.75,3.75,0,0,0-.85-2.68,3.22,3.22,0,0,0-2.45-.9,3.81,3.81,0,0,0-2.84,1.05,4.06,4.06,0,0,0-1,3v6.31h-2.22V610.05h2.12v1.85a4.37,4.37,0,0,1,1.82-1.45,6.32,6.32,0,0,1,2.6-.51A5.08,5.08,0,0,1,921.18,611.29Z" />
				<path class="cls-6" d="M944.46,607.63a5.63,5.63,0,0,1,0,8.27,7.49,7.49,0,0,1-4.94,1.5h-4v4.9h-2.31V606.13h6.31A7.49,7.49,0,0,1,944.46,607.63Zm-1.66,6.83a3.71,3.71,0,0,0,0-5.39,5.24,5.24,0,0,0-3.35-.93h-3.93v7.25h3.93A5.24,5.24,0,0,0,942.8,614.46Z" />
				<path class="cls-6" d="M949.57,605.15h2.22V622.3h-2.22Z" />
				<path class="cls-6" d="M964.37,611.19a4.78,4.78,0,0,1,1.36,3.72v7.39h-2.11v-1.61A3.46,3.46,0,0,1,962,622a6.07,6.07,0,0,1-2.44.45,5.1,5.1,0,0,1-3.29-1,3.17,3.17,0,0,1-1.24-2.61,3.23,3.23,0,0,1,1.18-2.6,5.78,5.78,0,0,1,3.75-1h3.51v-.43a2.85,2.85,0,0,0-.83-2.2,3.53,3.53,0,0,0-2.45-.76,6.7,6.7,0,0,0-2.13.35,5.59,5.59,0,0,0-1.76,1l-.92-1.66a6.73,6.73,0,0,1,2.26-1.17,9.48,9.48,0,0,1,2.8-.4A5.48,5.48,0,0,1,964.37,611.19Zm-2.2,9a3.32,3.32,0,0,0,1.34-1.61v-1.71h-3.42q-2.82,0-2.82,1.89a1.73,1.73,0,0,0,.71,1.46,3.31,3.31,0,0,0,2,.53A4.21,4.21,0,0,0,962.17,620.17Z" />
				<path class="cls-6" d="M976.73,621.59a3.43,3.43,0,0,1-1.2.63,4.91,4.91,0,0,1-1.48.22,3.94,3.94,0,0,1-2.87-1,3.78,3.78,0,0,1-1-2.84v-6.73h-2.08v-1.83h2.08v-2.68h2.22v2.68h3.52v1.83h-3.52v6.63a2.17,2.17,0,0,0,.5,1.53,1.87,1.87,0,0,0,1.42.53A2.67,2.67,0,0,0,976,620Z" />
				<path class="cls-6" d="M981.91,609v1.06h3.56v1.83H982V622.3h-2.22V611.88h-2.08v-1.83h2.08V609a3.9,3.9,0,0,1,1.07-2.89,4,4,0,0,1,3-1.06,5.11,5.11,0,0,1,1.38.18,3.18,3.18,0,0,1,1.11.53l-.67,1.69a2.72,2.72,0,0,0-1.71-.58C982.57,606.84,981.91,607.56,981.91,609Z" />
				<path class="cls-6" d="M993.25,610.49a6.22,6.22,0,0,1,2.75-.55v2.15a3.3,3.3,0,0,0-.51,0,3.73,3.73,0,0,0-2.83,1.08,4.28,4.28,0,0,0-1,3.06v6.1h-2.22V610.05h2.12v2.06A3.83,3.83,0,0,1,993.25,610.49Z" />
				<path class="cls-6" d="M1000.58,621.63a5.89,5.89,0,0,1-2.28-2.23,6.73,6.73,0,0,1,0-6.44,5.79,5.79,0,0,1,2.28-2.22,7.1,7.1,0,0,1,6.55,0,5.77,5.77,0,0,1,2.27,2.22,6.73,6.73,0,0,1,0,6.44,5.86,5.86,0,0,1-2.27,2.23,7,7,0,0,1-6.55,0ZM1006,620a3.78,3.78,0,0,0,1.46-1.53,5,5,0,0,0,0-4.5,3.75,3.75,0,0,0-1.46-1.52,4.49,4.49,0,0,0-4.23,0,3.8,3.8,0,0,0-1.48,1.52,5,5,0,0,0,0,4.5,3.83,3.83,0,0,0,1.48,1.53,4.41,4.41,0,0,0,4.23,0Z" />
				<path class="cls-6" d="M1032.28,611.28a5.36,5.36,0,0,1,1.35,4v7h-2.22v-6.79a3.84,3.84,0,0,0-.82-2.68,3,3,0,0,0-2.35-.9,3.53,3.53,0,0,0-2.68,1.05,4.22,4.22,0,0,0-1,3v6.31h-2.22v-6.79a3.84,3.84,0,0,0-.82-2.68,3,3,0,0,0-2.34-.9,3.54,3.54,0,0,0-2.69,1.05,4.22,4.22,0,0,0-1,3v6.31h-2.22V610.05h2.13v1.83a4.26,4.26,0,0,1,1.75-1.44,5.78,5.78,0,0,1,2.48-.5,5.37,5.37,0,0,1,2.54.58,4,4,0,0,1,1.71,1.68,4.76,4.76,0,0,1,1.93-1.66,6.27,6.27,0,0,1,2.78-.6A5,5,0,0,1,1032.28,611.28Z" />
				<path class="cls-6" d="M854,635.69l-7.82,18.06H842l-7.79-18.06h4.51l5.5,12.9,5.57-12.9Z" />
				<path class="cls-6" d="M866.79,649.88H858.4l-1.6,3.87h-4.28l8.05-18.06h4.13l8.07,18.06h-4.38Zm-1.32-3.17-2.86-6.92-2.87,6.92Z" />
				<path class="cls-6" d="M874.66,635.69h4.18v14.66h9.06v3.4H874.66Z" />
				<path class="cls-6" d="M890.24,635.69h4.19v18.06h-4.19Z" />
				<path class="cls-6" d="M898.71,635.69h8.21a11.46,11.46,0,0,1,5.19,1.12,8.35,8.35,0,0,1,3.51,3.16,9.58,9.58,0,0,1,0,9.5,8.35,8.35,0,0,1-3.51,3.16,11.46,11.46,0,0,1-5.19,1.12h-8.21Zm8,14.63a6,6,0,0,0,4.32-1.51,6,6,0,0,0,0-8.18,6,6,0,0,0-4.32-1.51h-3.82v11.2Z" />
				<path class="cls-6" d="M931.66,649.88h-8.38l-1.6,3.87h-4.29l8.05-18.06h4.13l8.08,18.06h-4.39Zm-1.31-3.17-2.87-6.92-2.86,6.92Z" />
				<path class="cls-6" d="M942.37,639.09h-5.78v-3.4h15.74v3.4h-5.78v14.66h-4.18Z" />
				<path class="cls-6" d="M954.58,635.69h4.18v18.06h-4.18Z" />
				<path class="cls-6" d="M966.72,652.85a9,9,0,0,1-3.53-3.34,9.6,9.6,0,0,1,0-9.58,9,9,0,0,1,3.53-3.34,11.21,11.21,0,0,1,10.13,0,9.22,9.22,0,0,1,0,16.26,11.21,11.21,0,0,1-10.13,0Zm8-3.08a5.29,5.29,0,0,0,2-2.06,6.49,6.49,0,0,0,0-6,5.26,5.26,0,0,0-2-2.05,6,6,0,0,0-5.78,0,5.24,5.24,0,0,0-2,2.05,6.41,6.41,0,0,0,0,6,5.27,5.27,0,0,0,2,2.06,6.09,6.09,0,0,0,5.78,0Z" />
				<path class="cls-6" d="M1001.39,635.69v18.06H998l-9-11v11h-4.13V635.69h3.46l9,11v-11Z" />
				<path class="cls-4" d="M767.89,788.22a17.79,17.79,0,1,0-19.61,0,28.46,28.46,0,0,0-18.65,26.67h4.75a23.71,23.71,0,1,1,47.41,0h4.74A28.47,28.47,0,0,0,767.89,788.22Zm-9.81-1.78a13,13,0,1,1,13-13A13.06,13.06,0,0,1,758.08,786.44Z" />
				<path class="cls-4" d="M791.59,776.37a17.76,17.76,0,1,0-25.1-23.84,22.66,22.66,0,0,1,4.19,2.22,13.11,13.11,0,0,1,3.19-3.53,13,13,0,1,1,11.44,22.87,12.79,12.79,0,0,1-3.52.5c-.42,0-.83,0-1.24-.06a23.15,23.15,0,0,1-.8,5c.68-.06,1.35-.15,2-.15a24.33,24.33,0,0,1,2.84.19A23.73,23.73,0,0,1,805.49,803h4.75A28.46,28.46,0,0,0,791.59,776.37Z" />
				<path class="cls-4" d="M734.38,779.33c.69,0,1.36.09,2,.15a22,22,0,0,1-.8-5c-.41,0-.83.06-1.24.06a12.87,12.87,0,0,1-3.53-.5,13,13,0,1,1,11.45-22.87,13.24,13.24,0,0,1,3.18,3.53,22.66,22.66,0,0,1,4.19-2.22,18.18,18.18,0,0,0-3-3.83,17.76,17.76,0,1,0-22.06,27.67A28.47,28.47,0,0,0,705.93,803h4.74a23.73,23.73,0,0,1,20.87-23.52A24,24,0,0,1,734.38,779.33Z" />
				<path class="cls-4" d="M808.19,759.77a17.76,17.76,0,1,0-22.06-27.67,18.18,18.18,0,0,0-3,3.83,22.11,22.11,0,0,1,4.19,2.23,13.28,13.28,0,0,1,3.18-3.54,13,13,0,1,1,13.34,22.17,19.79,19.79,0,0,1,.33,3.46,19.34,19.34,0,0,1-.29,3.16,23.7,23.7,0,0,1,18.25,23h4.74A28.48,28.48,0,0,0,808.19,759.77Z" />
				<path class="cls-4" d="M712,760.25a19.79,19.79,0,0,1,.32-3.46,13,13,0,1,1,16.52-18.63,22.74,22.74,0,0,1,4.19-2.23,17.79,17.79,0,0,0-15.29-8.75A17.77,17.77,0,0,0,708,759.77a28.48,28.48,0,0,0-18.64,26.67h4.74a23.71,23.71,0,0,1,18.25-23A19.34,19.34,0,0,1,712,760.25Z" />
				<path class="cls-4" d="M758.08,731.92a13,13,0,0,1,12.74,10.57,15.1,15.1,0,0,1,4.47-1.91,17.75,17.75,0,0,0-34.42,0,15.1,15.1,0,0,1,4.47,1.91A13,13,0,0,1,758.08,731.92Z" />
				<ellipse class="cls-30" cx="762.55" cy="830.4" rx="116.57" ry="6.58" />
				<path class="cls-6" d="M654.73,856v6h8.63v2.12h-8.63v7h-2.46V853.83h12.15V856Z" />
				<path class="cls-6" d="M679.28,858v13H677v-2a4.72,4.72,0,0,1-1.88,1.56,5.87,5.87,0,0,1-2.55.55,5.68,5.68,0,0,1-4.1-1.44,5.61,5.61,0,0,1-1.5-4.24V858h2.36v7.24a4,4,0,0,0,.91,2.86,3.38,3.38,0,0,0,2.61,1,3.88,3.88,0,0,0,3-1.14,4.44,4.44,0,0,0,1.08-3.2V858Z" />
				<path class="cls-6" d="M694.69,859.33a5.65,5.65,0,0,1,1.47,4.22v7.5H693.8v-7.23a4,4,0,0,0-.91-2.85,3.43,3.43,0,0,0-2.61-1,4.06,4.06,0,0,0-3,1.12,4.35,4.35,0,0,0-1.11,3.21v6.71h-2.36V858h2.27v2a4.58,4.58,0,0,1,1.93-1.55,6.74,6.74,0,0,1,2.77-.54A5.37,5.37,0,0,1,694.69,859.33Z" />
				<path class="cls-6" d="M712.91,852.8v18.25h-2.26V869a5,5,0,0,1-2,1.64,6.16,6.16,0,0,1-2.66.57,6.88,6.88,0,0,1-3.4-.84,5.88,5.88,0,0,1-2.34-2.35,7.53,7.53,0,0,1,0-7,5.89,5.89,0,0,1,2.34-2.33,6.88,6.88,0,0,1,3.4-.84,6.27,6.27,0,0,1,2.58.53,4.93,4.93,0,0,1,2,1.56V852.8Zm-4.47,15.76a4.11,4.11,0,0,0,1.57-1.63,5.34,5.34,0,0,0,0-4.8,4.05,4.05,0,0,0-1.57-1.61,4.6,4.6,0,0,0-2.24-.56,4.52,4.52,0,0,0-2.25.56,4.15,4.15,0,0,0-1.58,1.61,5.26,5.26,0,0,0,0,4.8,4.2,4.2,0,0,0,1.58,1.63,4.43,4.43,0,0,0,2.25.57A4.5,4.5,0,0,0,708.44,868.56Z" />
				<path class="cls-6" d="M721.48,858.48a6.64,6.64,0,0,1,2.92-.59v2.29a3.75,3.75,0,0,0-.54,0,4,4,0,0,0-3,1.15,4.53,4.53,0,0,0-1.1,3.26v6.49h-2.36V858h2.26v2.19A4,4,0,0,1,721.48,858.48Z" />
				<path class="cls-6" d="M736.18,859.22a5.11,5.11,0,0,1,1.43,4v7.87h-2.23v-1.72a3.76,3.76,0,0,1-1.69,1.39,6.4,6.4,0,0,1-2.59.48,5.42,5.42,0,0,1-3.51-1.06,3.38,3.38,0,0,1-1.32-2.78,3.42,3.42,0,0,1,1.26-2.77,6.2,6.2,0,0,1,4-1h3.74v-.47a3,3,0,0,0-.88-2.34,3.74,3.74,0,0,0-2.61-.81,7,7,0,0,0-2.26.38,6,6,0,0,0-1.87,1l-1-1.77a7.23,7.23,0,0,1,2.41-1.24,10,10,0,0,1,3-.43A5.9,5.9,0,0,1,736.18,859.22Zm-2.35,9.56a3.47,3.47,0,0,0,1.42-1.71v-1.82h-3.64q-3,0-3,2a1.81,1.81,0,0,0,.76,1.55,3.49,3.49,0,0,0,2.12.57A4.43,4.43,0,0,0,733.83,868.78Z" />
				<path class="cls-6" d="M742,855.06a1.44,1.44,0,0,1-.45-1.08,1.52,1.52,0,0,1,.45-1.1,1.57,1.57,0,0,1,1.15-.45,1.59,1.59,0,0,1,1.14.43,1.42,1.42,0,0,1,.45,1.07,1.53,1.53,0,0,1-.45,1.12,1.7,1.7,0,0,1-2.29,0Zm0,3h2.37v13H742Z" />
				<path class="cls-6" d="M749.52,870.77a6.72,6.72,0,0,1-2.31-1.1l1-1.87a7.3,7.3,0,0,0,2.1,1,8.42,8.42,0,0,0,2.48.37c2.07,0,3.1-.59,3.1-1.77a1.15,1.15,0,0,0-.42-.94,2.59,2.59,0,0,0-1-.5c-.42-.11-1-.23-1.79-.36a17.61,17.61,0,0,1-2.57-.56,4.08,4.08,0,0,1-1.71-1.09,3,3,0,0,1-.71-2.14A3.34,3.34,0,0,1,749.1,859a6.67,6.67,0,0,1,4-1.07,11.08,11.08,0,0,1,2.6.32,6.87,6.87,0,0,1,2.14.86l-1,1.87a6.81,6.81,0,0,0-3.77-1,4.36,4.36,0,0,0-2.29.49,1.48,1.48,0,0,0-.78,1.3,1.22,1.22,0,0,0,.44,1,2.66,2.66,0,0,0,1.09.54c.44.12,1,.25,1.84.4a18.92,18.92,0,0,1,2.54.58,3.76,3.76,0,0,1,1.66,1,2.91,2.91,0,0,1,.69,2.07,3.23,3.23,0,0,1-1.51,2.81,7.12,7.12,0,0,1-4.12,1.05A10.86,10.86,0,0,1,749.52,870.77Z" />
				<path class="cls-6" d="M761.22,855.06a1.44,1.44,0,0,1-.45-1.08,1.52,1.52,0,0,1,.45-1.1,1.57,1.57,0,0,1,1.15-.45,1.59,1.59,0,0,1,1.14.43,1.43,1.43,0,0,1,.46,1.07,1.54,1.54,0,0,1-.46,1.12,1.7,1.7,0,0,1-2.29,0Zm0,3h2.37v13h-2.37Z" />
				<path class="cls-6" d="M779,859.33a5.69,5.69,0,0,1,1.46,4.22v7.5h-2.36v-7.23a4,4,0,0,0-.91-2.85,3.42,3.42,0,0,0-2.61-1,4,4,0,0,0-3,1.12,4.35,4.35,0,0,0-1.11,3.21v6.71h-2.36V858h2.26v2a4.64,4.64,0,0,1,1.93-1.55,6.81,6.81,0,0,1,2.77-.54A5.39,5.39,0,0,1,779,859.33Z" />
				<path class="cls-6" d="M797.35,858v11.27a6.75,6.75,0,0,1-1.7,5.06,7,7,0,0,1-5.06,1.63,12.27,12.27,0,0,1-3.52-.5,7.05,7.05,0,0,1-2.71-1.44l1.13-1.82a6.76,6.76,0,0,0,2.25,1.24,8.7,8.7,0,0,0,2.77.46,4.59,4.59,0,0,0,3.38-1.09,4.44,4.44,0,0,0,1.1-3.29v-1a5.19,5.19,0,0,1-2.06,1.52,6.93,6.93,0,0,1-2.64.5,7,7,0,0,1-3.38-.8,6,6,0,0,1-2.38-2.24,6.7,6.7,0,0,1,0-6.57,5.86,5.86,0,0,1,2.38-2.22,7.14,7.14,0,0,1,3.38-.79,6.91,6.91,0,0,1,2.74.54,5.09,5.09,0,0,1,2.08,1.6v-2Zm-4.49,9.89a4,4,0,0,0,1.6-1.51,4.18,4.18,0,0,0,.58-2.2,4,4,0,0,0-1.26-3.06,4.52,4.52,0,0,0-3.22-1.17,4.58,4.58,0,0,0-3.25,1.17,4,4,0,0,0-1.25,3.06,4.18,4.18,0,0,0,.58,2.2,3.89,3.89,0,0,0,1.6,1.51,5.21,5.21,0,0,0,4.62,0Z" />
				<path class="cls-6" d="M811.13,856.88V858h3.79v2h-3.74v11.09h-2.37V860H806.6v-2h2.21v-1.15a4.15,4.15,0,0,1,1.14-3.08,4.29,4.29,0,0,1,3.17-1.13,5,5,0,0,1,1.48.2,3.69,3.69,0,0,1,1.18.56l-.72,1.8a2.93,2.93,0,0,0-1.82-.62C811.83,854.59,811.13,855.36,811.13,856.88Z" />
				<path class="cls-6" d="M823.21,858.48a6.65,6.65,0,0,1,2.93-.59v2.29a4.58,4.58,0,0,0-3.56,1.12,4.53,4.53,0,0,0-1.1,3.26v6.49h-2.36V858h2.27v2.19A4,4,0,0,1,823.21,858.48Z" />
				<path class="cls-6" d="M831,870.34a6.25,6.25,0,0,1-2.43-2.38,7.2,7.2,0,0,1,0-6.86,6.13,6.13,0,0,1,2.43-2.36,7.57,7.57,0,0,1,7,0,6.08,6.08,0,0,1,2.41,2.36,7.12,7.12,0,0,1,0,6.86,6.2,6.2,0,0,1-2.41,2.38,7.49,7.49,0,0,1-7,0Zm5.74-1.78a4,4,0,0,0,1.56-1.63,5.34,5.34,0,0,0,0-4.8,4,4,0,0,0-1.56-1.61,4.8,4.8,0,0,0-4.5,0,4.15,4.15,0,0,0-1.58,1.61,5.34,5.34,0,0,0,0,4.8,4.2,4.2,0,0,0,1.58,1.63,4.73,4.73,0,0,0,4.5,0Z" />
				<path class="cls-6" d="M864.75,859.32a5.7,5.7,0,0,1,1.44,4.23v7.5h-2.36v-7.23A4.07,4.07,0,0,0,863,861a3.19,3.19,0,0,0-2.49-1,3.74,3.74,0,0,0-2.86,1.12,4.5,4.5,0,0,0-1.06,3.21v6.71h-2.36v-7.23a4.12,4.12,0,0,0-.87-2.85,3.21,3.21,0,0,0-2.5-1,3.71,3.71,0,0,0-2.85,1.12,4.46,4.46,0,0,0-1.06,3.21v6.71h-2.36V858h2.26v2a4.54,4.54,0,0,1,1.87-1.54,6.3,6.3,0,0,1,2.63-.53,5.91,5.91,0,0,1,2.71.61,4.33,4.33,0,0,1,1.82,1.8,5,5,0,0,1,2.06-1.77,6.6,6.6,0,0,1,3-.64A5.3,5.3,0,0,1,864.75,859.32Z" />
				<path class="cls-6" d="M696.79,883.39h8.73a12.24,12.24,0,0,1,5.54,1.2A8.91,8.91,0,0,1,714.8,888a10.27,10.27,0,0,1,0,10.11,8.91,8.91,0,0,1-3.74,3.36,12.24,12.24,0,0,1-5.54,1.2h-8.73ZM705.3,899a6.49,6.49,0,0,0,4.61-1.61,6.4,6.4,0,0,0,0-8.71A6.49,6.49,0,0,0,705.3,887h-4.06V899Z" />
				<path class="cls-6" d="M723.39,901.66a9.82,9.82,0,0,1,0-17.31,11.93,11.93,0,0,1,10.79,0,9.82,9.82,0,0,1,0,17.31,11.93,11.93,0,0,1-10.79,0Zm8.48-3.28a5.66,5.66,0,0,0,2.15-2.19,6.82,6.82,0,0,0,0-6.37,5.66,5.66,0,0,0-2.15-2.19,6.47,6.47,0,0,0-6.16,0,5.66,5.66,0,0,0-2.15,2.19,6.82,6.82,0,0,0,0,6.37,5.66,5.66,0,0,0,2.15,2.19,6.47,6.47,0,0,0,6.16,0Z" />
				<path class="cls-6" d="M760.3,883.39v19.23h-3.65L747.06,891v11.67h-4.4V883.39h3.68l9.56,11.68V883.39Z" />
				<path class="cls-6" d="M768.77,901.66a9.82,9.82,0,0,1,0-17.31,11.93,11.93,0,0,1,10.79,0,9.76,9.76,0,0,1,3.76,3.56,10.16,10.16,0,0,1,0,10.19,9.76,9.76,0,0,1-3.76,3.56,11.93,11.93,0,0,1-10.79,0Zm8.48-3.28a5.75,5.75,0,0,0,2.16-2.19,6.89,6.89,0,0,0,0-6.37,5.75,5.75,0,0,0-2.16-2.19,6.45,6.45,0,0,0-6.15,0,5.61,5.61,0,0,0-2.16,2.19,6.89,6.89,0,0,0,0,6.37,5.61,5.61,0,0,0,2.16,2.19,6.45,6.45,0,0,0,6.15,0Z" />
				<path class="cls-6" d="M800.3,902.62l-3.71-5.36H792.5v5.36h-4.45V883.39h8.32a10.69,10.69,0,0,1,4.44.85,6.39,6.39,0,0,1,3.91,6.13,6.27,6.27,0,0,1-4,6.07l4.32,6.18Zm-1.13-14.74a4.72,4.72,0,0,0-3-.86H792.5v6.7h3.62a4.6,4.6,0,0,0,3-.88,3.48,3.48,0,0,0,0-5Z" />
				<path class="cls-6" d="M810.14,902.33a10.31,10.31,0,0,1-3.41-1.61l1.51-3.35a10.1,10.1,0,0,0,2.94,1.46,10.89,10.89,0,0,0,3.4.55,5.47,5.47,0,0,0,2.8-.56,1.71,1.71,0,0,0,.91-1.5,1.42,1.42,0,0,0-.54-1.14,4,4,0,0,0-1.37-.73c-.56-.18-1.31-.38-2.27-.6a31,31,0,0,1-3.59-1.05,5.84,5.84,0,0,1-2.41-1.67,4.53,4.53,0,0,1-1-3.08,5.33,5.33,0,0,1,.91-3,6.08,6.08,0,0,1,2.73-2.15,11.15,11.15,0,0,1,4.46-.8,14.91,14.91,0,0,1,3.6.44,10.58,10.58,0,0,1,3.08,1.26l-1.37,3.38a10.83,10.83,0,0,0-5.33-1.51,4.91,4.91,0,0,0-2.76.61,1.83,1.83,0,0,0-.9,1.59,1.57,1.57,0,0,0,1,1.47,16.23,16.23,0,0,0,3.15,1,32.13,32.13,0,0,1,3.6,1,6,6,0,0,1,2.4,1.65,4.41,4.41,0,0,1,1,3,5.21,5.21,0,0,1-.92,3,6.17,6.17,0,0,1-2.76,2.15,11.29,11.29,0,0,1-4.48.8A15.82,15.82,0,0,1,810.14,902.33Z" />
				<g id="Hand">
					<path class="cls-31" d="M447.6,109.5h14.32a1.62,1.62,0,0,1,1.62,1.61v19.25a1.62,1.62,0,0,1-1.62,1.62H447.6a1.61,1.61,0,0,1-1.62-1.62V111.11A1.61,1.61,0,0,1,447.6,109.5Z" />
					<line class="cls-31" x1="462.76" y1="125.61" x2="444.92" y2="125.61" />
					<rect class="cls-4" x="456.75" y="113.7" width="2" height="2.72" rx="0.85" />
					<rect class="cls-4" x="456.75" y="118.51" width="2" height="2.72" rx="0.85" />
					<path class="cls-32" d="M484.48,117.25s16-.32,17.4-.75c4.43-1.36,3.67-1.39,5-2.69a5.87,5.87,0,0,0,1-3.1c0-1,.37-3.07-2-4.18s-27.78-1.19-30.59-.45-9.19,3.52-10.78,5.89l-.48.86-.22.55-.31-.3v13.23c0,1.07.21,3.31.21,3.31s27.69.53,32.13-.42c12.48-2.67,30.45-15.82,36.45-20.17s8.74-6.2,9-8.06-.07-6.74-5.41-5.4-27.42,16-28,16.52c-.21.18.49-.46,0,0" />
					<g id="kampania">
						<ellipse class="cls-33" cx="487.76" cy="143.45" rx="89.46" ry="4.73" />
					</g>
					<path class="cls-34" d="M502.19,95.34,484.46,77.61C472.55,65.7,490.28,48,502.19,59.88c12.82-12.82,30.55,4.9,17.73,17.73Z" />
					<path class="cls-20" d="M536.76,37.36s-1.1,10.87-9.68,11.62c8.58.75,9.68,11.62,9.68,11.62s1.1-10.87,9.68-11.62C537.86,48.23,536.76,37.36,536.76,37.36Z" />
					<path class="cls-20" d="M522,21.44s-.73,7.18-6.4,7.68c5.67.5,6.4,7.69,6.4,7.69s.73-7.19,6.4-7.69C522.7,28.62,522,21.44,522,21.44Z" />
				</g>
				<path class="cls-6" d="M411.6,186.57a6.13,6.13,0,0,1,2.64,2.33,7.33,7.33,0,0,1,0,7.11,6.06,6.06,0,0,1-2.64,2.33,9.52,9.52,0,0,1-4,.8H404v5.1H400V185.76h7.57A9.36,9.36,0,0,1,411.6,186.57Zm-1.49,8.25a3,3,0,0,0,.95-2.36,3,3,0,0,0-.95-2.39,4.11,4.11,0,0,0-2.77-.83H404v6.42h3.3A4.06,4.06,0,0,0,410.11,194.82Z" />
				<path class="cls-6" d="M431.34,200.8v3.44H417.79V185.76H431v3.43h-9.2v4h8.13v3.33h-8.13v4.27Z" />
				<path class="cls-6" d="M437.82,203.31a8.78,8.78,0,0,1-3.42-3.42,10.28,10.28,0,0,1,0-9.79,8.92,8.92,0,0,1,3.42-3.42,10.34,10.34,0,0,1,9.82,0,9.06,9.06,0,0,1,3.42,3.42,10.21,10.21,0,0,1,0,9.79,8.92,8.92,0,0,1-3.42,3.42,10.34,10.34,0,0,1-9.82,0Zm7.72-3.15a5.3,5.3,0,0,0,2-2.1,7,7,0,0,0,0-6.13,5.44,5.44,0,0,0-2-2.1,5.39,5.39,0,0,0-7.57,2.1,7,7,0,0,0,0,6.13,5.25,5.25,0,0,0,2,2.1,5.6,5.6,0,0,0,5.6,0Z" />
				<path class="cls-6" d="M466.72,186.57a6.07,6.07,0,0,1,2.64,2.33,7.26,7.26,0,0,1,0,7.11,6,6,0,0,1-2.64,2.33,9.47,9.47,0,0,1-4,.8h-3.53v5.1h-4.05V185.76h7.58A9.32,9.32,0,0,1,466.72,186.57Zm-1.48,8.25a3,3,0,0,0,.95-2.36,3,3,0,0,0-.95-2.39,4.14,4.14,0,0,0-2.78-.83h-3.3v6.42h3.3A4.09,4.09,0,0,0,465.24,194.82Z" />
				<path class="cls-6" d="M472.91,185.76h4v15h8.78v3.49H472.91Z" />
				<path class="cls-6" d="M501.31,200.8v3.44H487.76V185.76H501v3.43h-9.2v4h8.12v3.33h-8.12v4.27Z" />
				<path class="cls-6" d="M511.11,185.76h4v18.48h-4Z" />
				<path class="cls-6" d="M535.11,185.76v18.48h-3.33L523.06,193v11.22h-4V185.76h3.35l8.7,11.22V185.76Z" />
				<path class="cls-6" d="M561.88,185.76v18.48h-3.32L549.84,193v11.22h-4V185.76h3.34l8.7,11.22V185.76Z" />
				<path class="cls-6" d="M579.34,200.8v3.44H565.79V185.76H579v3.43h-9.2v4h8.12v3.33h-8.12v4.27Z" />
				<path class="cls-6" d="M595.86,200.8v3.44H582.31V185.76h13.22v3.43h-9.19v4h8.12v3.33h-8.12v4.27Z" />
				<path class="cls-6" d="M598.84,185.76h7.94a10.76,10.76,0,0,1,5,1.14,8.36,8.36,0,0,1,3.4,3.24,10.35,10.35,0,0,1,0,9.71,8.36,8.36,0,0,1-3.4,3.24,10.76,10.76,0,0,1-5,1.15h-7.94Zm7.75,15a5.68,5.68,0,0,0,4.18-1.55,5.73,5.73,0,0,0-4.18-9.91h-3.71v11.46Z" />
				<path class="cls-6" d="M407.63,169.65v5.92h-3.12v-5.88l-6.6-10.92h3.34l4.92,8.19,5-8.19h3.08Z" />
				<path class="cls-6" d="M416.41,174.9a6.08,6.08,0,0,1-2.43-2.34,7,7,0,0,1,0-6.78,6.13,6.13,0,0,1,2.43-2.33,7.8,7.8,0,0,1,7,0,6.13,6.13,0,0,1,2.43,2.33,7,7,0,0,1,0,6.78,6.08,6.08,0,0,1-2.43,2.34,7.8,7.8,0,0,1-7,0Zm6.24-2.83a4.45,4.45,0,0,0,0-5.81,3.94,3.94,0,0,0-5.46,0,4.51,4.51,0,0,0,0,5.81,3.94,3.94,0,0,0,5.46,0Z" />
				<path class="cls-6" d="M441.69,162.76v12.81h-2.86v-1.63a4.71,4.71,0,0,1-1.8,1.33,5.68,5.68,0,0,1-2.33.47,5.53,5.53,0,0,1-4-1.43,5.6,5.6,0,0,1-1.48-4.23v-7.32h3v6.91a3.72,3.72,0,0,0,.78,2.58,2.85,2.85,0,0,0,2.22.85,3.38,3.38,0,0,0,2.56-1,4,4,0,0,0,.95-2.87v-6.48Z" />
				<path class="cls-6" d="M471.52,162.76l-4.73,12.81h-2.88l-3.31-8.83-3.36,8.83h-2.88l-4.71-12.81h2.83l3.39,9.45,3.53-9.45h2.52l3.45,9.5,3.48-9.5Z" />
				<path class="cls-6" d="M482,164a5.24,5.24,0,0,1,1.5,4.09v7.51h-2.83V174a3.53,3.53,0,0,1-1.57,1.29,6.25,6.25,0,0,1-2.46.44,6,6,0,0,1-2.52-.49,3.86,3.86,0,0,1-1.67-1.37,3.47,3.47,0,0,1-.59-2,3.39,3.39,0,0,1,1.29-2.77,6.33,6.33,0,0,1,4-1h3.31v-.2a2.64,2.64,0,0,0-.8-2.06,3.48,3.48,0,0,0-2.39-.72,6.67,6.67,0,0,0-2.12.34,5.13,5.13,0,0,0-1.77.93l-1.17-2.18a7.29,7.29,0,0,1,2.42-1.18,10.82,10.82,0,0,1,3-.41A6.26,6.26,0,0,1,482,164ZM479.31,173a2.79,2.79,0,0,0,1.23-1.47v-1.49h-3.09c-1.73,0-2.6.57-2.6,1.7a1.54,1.54,0,0,0,.65,1.3,3,3,0,0,0,1.8.48A3.86,3.86,0,0,0,479.31,173Z" />
				<path class="cls-6" d="M498.18,164a5.56,5.56,0,0,1,1.47,4.2v7.34h-3v-7a3.59,3.59,0,0,0-.8-2.53,2.9,2.9,0,0,0-2.25-.85,3.44,3.44,0,0,0-2.62,1,4,4,0,0,0-1,2.86v6.48h-3V162.76h2.86v1.65a4.63,4.63,0,0,1,1.87-1.34,6.8,6.8,0,0,1,2.54-.46A5.36,5.36,0,0,1,498.18,164Z" />
				<path class="cls-6" d="M510.81,174.88a3.64,3.64,0,0,1-1.29.65,5.87,5.87,0,0,1-1.59.21,4.57,4.57,0,0,1-3.27-1.1,4.25,4.25,0,0,1-1.15-3.22v-6.17H501.4v-2.4h2.11v-2.92h3v2.92h3.43v2.4h-3.43v6.1a2,2,0,0,0,.46,1.43,1.69,1.69,0,0,0,1.32.49,2.66,2.66,0,0,0,1.68-.53Z" />
				<path class="cls-6" d="M526.88,174.88a3.6,3.6,0,0,1-1.28.65,5.93,5.93,0,0,1-1.59.21,4.57,4.57,0,0,1-3.27-1.1,4.25,4.25,0,0,1-1.15-3.22v-6.17h-2.11v-2.4h2.11v-2.92h3v2.92H526v2.4h-3.43v6.1a2,2,0,0,0,.46,1.43,1.69,1.69,0,0,0,1.32.49,2.66,2.66,0,0,0,1.68-.53Z" />
				<path class="cls-6" d="M530.82,174.9a6.08,6.08,0,0,1-2.43-2.34,7,7,0,0,1,0-6.78,6.13,6.13,0,0,1,2.43-2.33,7.77,7.77,0,0,1,7,0,6.15,6.15,0,0,1,2.44,2.33,7,7,0,0,1,0,6.78,6.11,6.11,0,0,1-2.44,2.34,7.77,7.77,0,0,1-7,0Zm6.24-2.83a4.45,4.45,0,0,0,0-5.81,3.94,3.94,0,0,0-5.46,0,4.48,4.48,0,0,0,0,5.81,3.94,3.94,0,0,0,5.46,0Z" />
				<path class="cls-6" d="M561.11,164a5.6,5.6,0,0,1,1.46,4.2v7.34h-3v-7a3.59,3.59,0,0,0-.79-2.53,2.93,2.93,0,0,0-2.26-.85,3.44,3.44,0,0,0-2.61,1,4,4,0,0,0-1,2.86v6.48h-3v-17.8h3v6.48a4.87,4.87,0,0,1,1.83-1.22,6.75,6.75,0,0,1,2.44-.42A5.38,5.38,0,0,1,561.11,164Z" />
				<path class="cls-6" d="M578.15,170.13H568.09a3.51,3.51,0,0,0,1.38,2.24,4.56,4.56,0,0,0,2.78.83,4.69,4.69,0,0,0,3.47-1.39l1.61,1.84a5.33,5.33,0,0,1-2.18,1.56,7.8,7.8,0,0,1-3,.53,7.91,7.91,0,0,1-3.72-.84,6,6,0,0,1-2.48-2.34,6.54,6.54,0,0,1-.88-3.39,6.81,6.81,0,0,1,.85-3.38,6.06,6.06,0,0,1,2.37-2.34,6.89,6.89,0,0,1,3.41-.84,6.7,6.7,0,0,1,3.34.83,5.82,5.82,0,0,1,2.31,2.33,7.1,7.1,0,0,1,.83,3.47C578.2,169.45,578.18,169.74,578.15,170.13Zm-8.87-4.26a3.55,3.55,0,0,0-1.21,2.26h7.27a3.51,3.51,0,0,0-3.62-3.12A3.62,3.62,0,0,0,569.28,165.87Z" />
				<path class="cls-6" d="M580.72,157.77h3v17.8h-3Z" />
				<path class="cls-6" d="M597.74,163.43a5.83,5.83,0,0,1,2.32,2.3,7.46,7.46,0,0,1,0,6.88,5.88,5.88,0,0,1-2.32,2.32,6.82,6.82,0,0,1-3.34.81,5.16,5.16,0,0,1-4.11-1.73v6.22h-3V162.76h2.86v1.68a4.59,4.59,0,0,1,1.83-1.37,6.29,6.29,0,0,1,2.42-.46A6.83,6.83,0,0,1,597.74,163.43Zm-1,8.64a4.48,4.48,0,0,0,0-5.81,3.64,3.64,0,0,0-2.72-1.1,3.81,3.81,0,0,0-1.94.49,3.55,3.55,0,0,0-1.37,1.4,4.64,4.64,0,0,0,0,4.23,3.48,3.48,0,0,0,1.37,1.4,3.81,3.81,0,0,0,1.94.49A3.6,3.6,0,0,0,596.78,172.07Z" />
			</g>
		</g>
	</g>
</svg>