<?xml version="1.0" encoding="utf-8"?>
<!-- Generator: Adobe Illustrator 25.2.1, SVG Export Plug-In . SVG Version: 6.00 Build 0)  -->
<svg version="1.1" id="Layer_1"
	xmlns="http://www.w3.org/2000/svg"
	xmlns:xlink="http://www.w3.org/1999/xlink" x="0px" y="0px" viewBox="0 0 303.7 1046.7" style="enable-background:new 0 0 303.7 1046.7;" xml:space="preserve">
	<style type="text/css">
	.st0{fill:#F6F0F8;}
	.st1{fill:#333343;}
	.st2{fill:#FFFFFF;}
	.st3{fill:#32A9FE;}
	.st4{fill:none;stroke:#FFCB57;stroke-width:2.5;stroke-miterlimit:10;}
	.st5{fill:#FFCB57;}
	.st6{fill:none;stroke:#FFCB57;stroke-width:3;stroke-linecap:round;stroke-miterlimit:10;}
	.st7{opacity:0.9;fill:url(#SVGID_1_);}
	.st8{fill:none;stroke:#FFCB57;stroke-width:3;stroke-linecap:round;stroke-linejoin:round;stroke-miterlimit:10;}
	.st9{fill:#FFF9DB;}
	.st10{fill:#3FA9F5;}
	.st11{fill:none;stroke:#FFCB57;stroke-width:1.4;stroke-miterlimit:10;}
	.st12{fill:none;stroke:#FFCB57;stroke-width:1.4;stroke-linecap:round;stroke-miterlimit:10;}
	.st13{opacity:0.9;fill:url(#SVGID_2_);}
	.st14{fill:none;stroke:#FFCB57;stroke-width:1.4;stroke-linecap:round;stroke-linejoin:round;stroke-miterlimit:10;}
	.st15{opacity:0.9;fill:url(#SVGID_3_);}
	.st16{fill:none;stroke:#FFCB57;stroke-width:3.6085;stroke-miterlimit:10;}
	.st17{opacity:0.9;fill:url(#SVGID_4_);}
	.st18{fill:#FFD7E9;}
	.st19{opacity:0.9;fill:url(#SVGID_5_);}
	.st20{fill:none;stroke:#FF7DB9;stroke-width:4.8984;stroke-linecap:round;stroke-linejoin:round;stroke-miterlimit:10;}
	.st21{fill:#FF7DB9;}
	.st22{fill:none;stroke:#FFCB57;stroke-width:4.8984;stroke-linecap:round;stroke-linejoin:round;stroke-miterlimit:10;}
	.st23{fill:#FFCB00;}
	.st24{fill:none;stroke:#FFCB57;stroke-width:4.8984;stroke-linejoin:round;stroke-miterlimit:10;}
	.st25{fill:none;stroke:#49C4FF;stroke-width:3.8488;stroke-linecap:round;stroke-linejoin:round;stroke-miterlimit:10;}
	.st26{fill:#49C4FF;}
	.st27{fill:none;stroke:#FF7DB9;stroke-width:4.8984;stroke-linejoin:round;stroke-miterlimit:10;}
	.st28{fill:none;stroke:#49C4FF;stroke-width:3.7686;stroke-linecap:round;stroke-linejoin:round;stroke-miterlimit:10;}
	.st29{opacity:0.9;fill:url(#SVGID_6_);}
	.st30{fill:none;stroke:#FFCB57;stroke-width:3.0812;stroke-miterlimit:10;}
	.st31{opacity:0.9;fill:url(#SVGID_7_);}
	.st32{opacity:0.9;fill:url(#SVGID_8_);}
	.st33{fill:none;stroke:#FFCB57;stroke-width:3.6111;stroke-linecap:round;stroke-linejoin:round;stroke-miterlimit:10;}
	
		.st34{fill:none;stroke:#FF7DB9;stroke-width:2.126;stroke-linecap:round;stroke-linejoin:round;stroke-miterlimit:10;stroke-dasharray:2.9517,5.4115;}
	.st35{opacity:0.9;fill:url(#SVGID_9_);}
	.st36{opacity:0.9;fill:url(#SVGID_10_);}
	.st37{fill:#D8F2FF;}
	.st38{opacity:0.9;fill:url(#SVGID_11_);}
	.st39{opacity:0.9;fill:url(#SVGID_12_);}
	.st40{opacity:0.9;fill:url(#SVGID_13_);}
	
		.st41{fill:none;stroke:#FF7DB9;stroke-width:1.4759;stroke-linecap:round;stroke-linejoin:round;stroke-miterlimit:10;stroke-dasharray:2.9517,5.4115;}
	.st42{fill:none;stroke:#FFCB57;stroke-width:1.6599;stroke-miterlimit:10;}
	.st43{opacity:0.9;fill:url(#SVGID_14_);}
	.st44{opacity:0.9;fill:url(#SVGID_15_);}
	.st45{opacity:0.9;fill:url(#SVGID_16_);}
	.st46{opacity:0.9;fill:url(#SVGID_17_);}
	.st47{fill:none;stroke:#FFCB57;stroke-width:1.6611;stroke-linecap:round;stroke-linejoin:round;stroke-miterlimit:10;}
	.st48{opacity:0.9;fill:url(#SVGID_18_);}
	.st49{fill:none;stroke:#FFCB57;stroke-width:1.4173;stroke-miterlimit:10;}
	.st50{opacity:0.9;fill:url(#SVGID_19_);}
	.st51{opacity:0.9;fill:url(#SVGID_20_);}
	.st52{fill:none;stroke:#FF7DB9;stroke-width:2.2533;stroke-linecap:round;stroke-linejoin:round;stroke-miterlimit:10;}
	.st53{fill:none;stroke:#FFCB57;stroke-width:2.2533;stroke-linecap:round;stroke-linejoin:round;stroke-miterlimit:10;}
	.st54{fill:none;stroke:#FFCB57;stroke-width:2.2533;stroke-linejoin:round;stroke-miterlimit:10;}
	.st55{fill:none;stroke:#49C4FF;stroke-width:1.7704;stroke-linecap:round;stroke-linejoin:round;stroke-miterlimit:10;}
	.st56{fill:none;stroke:#FF7DB9;stroke-width:2.2533;stroke-linejoin:round;stroke-miterlimit:10;}
	.st57{fill:none;stroke:#49C4FF;stroke-width:1.7335;stroke-linecap:round;stroke-linejoin:round;stroke-miterlimit:10;}
	.st58{opacity:0.9;fill:url(#SVGID_21_);}
	.st59{opacity:0.9;fill:url(#SVGID_22_);}
	.st60{opacity:0.9;fill:url(#SVGID_23_);}
	.st61{opacity:0.9;fill:url(#SVGID_24_);}
	.st62{opacity:0.9;fill:url(#SVGID_25_);}
	.st63{opacity:0.9;fill:url(#SVGID_26_);}
	.st64{opacity:0.9;fill:url(#SVGID_27_);}
	.st65{opacity:0.9;fill:url(#SVGID_28_);}
	.st66{opacity:0.9;fill:url(#SVGID_29_);}
	.st67{opacity:0.9;fill:url(#SVGID_30_);}
	.st68{opacity:0.9;fill:url(#SVGID_31_);}
	.st69{opacity:0.9;fill:url(#SVGID_32_);}
	.st70{opacity:0.9;fill:url(#SVGID_33_);}
	.st71{fill:none;stroke:#FFCB57;stroke-miterlimit:10;}
	.st72{opacity:0.9;fill:url(#SVGID_34_);}
	.st73{opacity:0.9;fill:url(#SVGID_35_);}
	.st74{opacity:0.9;fill:url(#SVGID_36_);}
	.st75{opacity:0.9;fill:url(#SVGID_37_);}
	.st76{opacity:0.9;fill:url(#SVGID_38_);}
	.st77{opacity:0.9;fill:url(#SVGID_39_);}
	.st78{opacity:0.9;fill:url(#SVGID_40_);}
	.st79{opacity:0.9;fill:url(#SVGID_41_);}
	.st80{opacity:0.9;fill:url(#SVGID_42_);}
	.st81{opacity:0.9;fill:url(#SVGID_43_);}
	.st82{opacity:0.9;fill:url(#SVGID_44_);}
	.st83{opacity:0.9;fill:url(#SVGID_45_);}
	.st84{opacity:0.9;fill:url(#SVGID_46_);}
	</style>
	<g>
		<path class="st10" d="M211.2,303.1c-0.5,0-1.1-0.1-1.6-0.2c-0.5-0.2-0.9-0.4-1.2-0.6l0.4-1c0.3,0.2,0.6,0.4,1,0.5
		c0.4,0.1,0.8,0.2,1.3,0.2c0.4,0,0.7,0,0.9-0.1s0.4-0.2,0.5-0.3c0.1-0.1,0.2-0.3,0.2-0.5c0-0.2-0.1-0.4-0.2-0.5
		c-0.2-0.1-0.4-0.2-0.6-0.3c-0.2-0.1-0.5-0.1-0.8-0.2c-0.3-0.1-0.6-0.1-0.9-0.2c-0.3-0.1-0.6-0.2-0.8-0.3c-0.2-0.1-0.4-0.3-0.6-0.6
		s-0.2-0.5-0.2-0.9c0-0.4,0.1-0.7,0.3-1c0.2-0.3,0.5-0.6,0.9-0.8c0.4-0.2,0.9-0.3,1.6-0.3c0.4,0,0.8,0.1,1.2,0.2
		c0.4,0.1,0.8,0.3,1.1,0.5l-0.4,1c-0.3-0.2-0.6-0.3-1-0.4s-0.7-0.1-1-0.1c-0.4,0-0.7,0-0.9,0.1c-0.2,0.1-0.4,0.2-0.5,0.3
		c-0.1,0.1-0.2,0.3-0.2,0.5c0,0.2,0.1,0.4,0.2,0.5s0.3,0.2,0.6,0.3c0.2,0.1,0.5,0.1,0.8,0.2c0.3,0.1,0.6,0.1,0.9,0.2
		c0.3,0.1,0.6,0.2,0.8,0.3c0.2,0.1,0.4,0.3,0.6,0.6c0.2,0.2,0.2,0.5,0.2,0.9c0,0.4-0.1,0.7-0.3,1c-0.2,0.3-0.5,0.6-0.9,0.8
		C212.4,303,211.9,303.1,211.2,303.1z"/>
		<path class="st10" d="M216.9,303.1c-0.5,0-0.9-0.1-1.2-0.3c-0.3-0.2-0.6-0.4-0.8-0.8c-0.2-0.4-0.3-0.8-0.3-1.3v-3h1.2v2.9
		c0,0.5,0.1,0.8,0.3,1.1s0.5,0.4,0.9,0.4c0.3,0,0.5-0.1,0.8-0.2s0.4-0.3,0.5-0.5c0.1-0.2,0.2-0.5,0.2-0.9v-2.7h1.2v5.3h-1.2v-1.4
		l0.2,0.4c-0.2,0.3-0.4,0.6-0.8,0.8C217.7,303,217.4,303.1,216.9,303.1z"/>
		<path class="st10" d="M223.2,302.8c-0.5,0-1-0.1-1.4-0.3c-0.4-0.2-0.7-0.5-1-0.9s-0.4-0.8-0.4-1.4c0-0.5,0.1-1,0.4-1.3
		s0.6-0.7,1-0.9c0.4-0.2,0.9-0.3,1.4-0.3c0.5,0,0.9,0.1,1.2,0.3c0.4,0.2,0.6,0.5,0.9,0.8c0.2,0.4,0.3,0.9,0.3,1.5
		c0,0.6-0.1,1.1-0.3,1.5c-0.2,0.4-0.5,0.7-0.9,0.9C224.1,302.7,223.7,302.8,223.2,302.8z M223.4,305c-0.5,0-1-0.1-1.4-0.2
		c-0.5-0.1-0.9-0.3-1.2-0.6l0.6-0.9c0.2,0.2,0.5,0.3,0.9,0.5c0.4,0.1,0.7,0.2,1.1,0.2c0.6,0,1-0.1,1.3-0.4c0.3-0.3,0.4-0.7,0.4-1.2
		v-1l0.1-1.2l0-1.2v-1.3h1.2v4.5c0,1-0.2,1.7-0.7,2.1C225,304.8,224.3,305,223.4,305z M223.4,301.7c0.3,0,0.6-0.1,0.8-0.2
		s0.4-0.3,0.6-0.5c0.1-0.2,0.2-0.5,0.2-0.8s-0.1-0.6-0.2-0.8s-0.3-0.4-0.6-0.5c-0.2-0.1-0.5-0.2-0.8-0.2s-0.6,0.1-0.8,0.2
		c-0.2,0.1-0.4,0.3-0.6,0.5c-0.1,0.2-0.2,0.5-0.2,0.8s0.1,0.6,0.2,0.8c0.1,0.2,0.3,0.4,0.6,0.5S223.1,301.7,223.4,301.7z"/>
		<path class="st10" d="M229.6,302.8c-0.5,0-1-0.1-1.4-0.3c-0.4-0.2-0.7-0.5-1-0.9s-0.4-0.8-0.4-1.4c0-0.5,0.1-1,0.4-1.3
		s0.6-0.7,1-0.9c0.4-0.2,0.9-0.3,1.4-0.3c0.5,0,0.9,0.1,1.2,0.3c0.4,0.2,0.6,0.5,0.9,0.8c0.2,0.4,0.3,0.9,0.3,1.5
		c0,0.6-0.1,1.1-0.3,1.5c-0.2,0.4-0.5,0.7-0.9,0.9C230.4,302.7,230,302.8,229.6,302.8z M229.7,305c-0.5,0-1-0.1-1.4-0.2
		c-0.5-0.1-0.9-0.3-1.2-0.6l0.6-0.9c0.2,0.2,0.5,0.3,0.9,0.5c0.4,0.1,0.7,0.2,1.1,0.2c0.6,0,1-0.1,1.3-0.4c0.3-0.3,0.4-0.7,0.4-1.2
		v-1l0.1-1.2l0-1.2v-1.3h1.2v4.5c0,1-0.2,1.7-0.7,2.1C231.4,304.8,230.7,305,229.7,305z M229.8,301.7c0.3,0,0.6-0.1,0.8-0.2
		s0.4-0.3,0.6-0.5c0.1-0.2,0.2-0.5,0.2-0.8s-0.1-0.6-0.2-0.8s-0.3-0.4-0.6-0.5c-0.2-0.1-0.5-0.2-0.8-0.2s-0.6,0.1-0.8,0.2
		c-0.2,0.1-0.4,0.3-0.6,0.5c-0.1,0.2-0.2,0.5-0.2,0.8s0.1,0.6,0.2,0.8c0.1,0.2,0.3,0.4,0.6,0.5S229.5,301.7,229.8,301.7z"/>
		<path class="st10" d="M236.2,303.1c-0.6,0-1.1-0.1-1.6-0.4c-0.4-0.2-0.8-0.6-1-1c-0.2-0.4-0.4-0.9-0.4-1.4c0-0.5,0.1-1,0.4-1.4
		s0.6-0.7,1-1s0.9-0.4,1.4-0.4c0.5,0,1,0.1,1.4,0.3s0.7,0.5,1,1c0.2,0.4,0.3,0.9,0.3,1.5c0,0.1,0,0.1,0,0.2s0,0.1,0,0.2h-4.4v-0.8
		h3.8l-0.5,0.3c0-0.3-0.1-0.6-0.2-0.8c-0.1-0.2-0.3-0.4-0.5-0.5c-0.2-0.1-0.5-0.2-0.8-0.2c-0.3,0-0.6,0.1-0.8,0.2
		c-0.2,0.1-0.4,0.3-0.5,0.6c-0.1,0.2-0.2,0.5-0.2,0.8v0.2c0,0.3,0.1,0.6,0.2,0.9c0.1,0.2,0.4,0.4,0.6,0.6c0.3,0.1,0.6,0.2,0.9,0.2
		c0.3,0,0.6,0,0.8-0.1c0.2-0.1,0.5-0.2,0.6-0.4l0.7,0.8c-0.2,0.3-0.5,0.5-0.9,0.6C237.1,303,236.7,303.1,236.2,303.1z"/>
		<path class="st10" d="M241,303.1c-0.4,0-0.9-0.1-1.3-0.2c-0.4-0.1-0.7-0.3-1-0.4l0.5-1c0.2,0.2,0.5,0.3,0.9,0.4
		c0.3,0.1,0.7,0.1,1,0.1c0.4,0,0.7-0.1,0.9-0.2c0.2-0.1,0.3-0.2,0.3-0.4c0-0.1-0.1-0.3-0.2-0.3c-0.1-0.1-0.3-0.1-0.5-0.2
		s-0.4-0.1-0.6-0.1c-0.2,0-0.5-0.1-0.7-0.1c-0.2-0.1-0.5-0.1-0.6-0.2s-0.4-0.3-0.5-0.4c-0.1-0.2-0.2-0.4-0.2-0.7
		c0-0.3,0.1-0.6,0.3-0.9s0.5-0.4,0.8-0.6s0.8-0.2,1.2-0.2c0.4,0,0.7,0,1.1,0.1s0.7,0.2,0.9,0.3l-0.5,1c-0.3-0.2-0.5-0.3-0.8-0.3
		c-0.3-0.1-0.5-0.1-0.8-0.1c-0.4,0-0.7,0.1-0.8,0.2c-0.2,0.1-0.3,0.3-0.3,0.4c0,0.2,0.1,0.3,0.2,0.4s0.3,0.1,0.5,0.2
		c0.2,0,0.4,0.1,0.6,0.1c0.2,0,0.5,0.1,0.7,0.1c0.2,0.1,0.4,0.1,0.6,0.2s0.4,0.2,0.5,0.4s0.2,0.4,0.2,0.7c0,0.3-0.1,0.6-0.3,0.9
		c-0.2,0.2-0.5,0.4-0.8,0.6C242,303,241.5,303.1,241,303.1z"/>
		<path class="st10" d="M243.3,298.7v-1h3.6v1H243.3z M246,303.1c-0.6,0-1-0.2-1.4-0.5c-0.3-0.3-0.5-0.8-0.5-1.3v-4.8h1.2v4.8
		c0,0.3,0.1,0.5,0.2,0.6s0.3,0.2,0.5,0.2c0.3,0,0.5-0.1,0.7-0.2l0.3,0.9c-0.1,0.1-0.3,0.2-0.5,0.3
		C246.4,303.1,246.2,303.1,246,303.1z"/>
		<path class="st10" d="M251.5,303.1c-0.4,0-0.8-0.1-1.1-0.2c-0.3-0.1-0.5-0.3-0.7-0.6c-0.2-0.2-0.2-0.5-0.2-0.8
		c0-0.3,0.1-0.6,0.2-0.8c0.1-0.2,0.4-0.4,0.7-0.6c0.3-0.1,0.8-0.2,1.3-0.2h1.5v0.8h-1.5c-0.4,0-0.7,0.1-0.9,0.2
		c-0.1,0.1-0.2,0.3-0.2,0.5c0,0.2,0.1,0.4,0.3,0.5c0.2,0.1,0.4,0.2,0.8,0.2c0.3,0,0.6-0.1,0.8-0.2c0.2-0.1,0.4-0.3,0.5-0.6l0.2,0.8
		c-0.1,0.3-0.3,0.6-0.6,0.7C252.4,303,252,303.1,251.5,303.1z M253.2,303v-1.1l-0.1-0.2v-1.9c0-0.4-0.1-0.7-0.3-0.9
		c-0.2-0.2-0.6-0.3-1-0.3c-0.3,0-0.6,0-0.9,0.1c-0.3,0.1-0.5,0.2-0.7,0.4l-0.5-0.9c0.3-0.2,0.6-0.4,1-0.5c0.4-0.1,0.8-0.2,1.2-0.2
		c0.8,0,1.4,0.2,1.8,0.6s0.6,0.9,0.6,1.7v3.1H253.2z"/>
	</g>
	<path class="st41" d="M225.5,95.5c-0.8,23.6,0,63.1,11.4,105.5c6.7,24.9,15.1,43.6,22.2,56.7"/>
	<g>
		<g>
			<path class="st10" d="M226.5,440.2h-3.7l-0.7,1.8h-1.9l3.5-8.4h1.8l3.6,8.4h-1.9L226.5,440.2z M225.9,438.7l-1.3-3.2l-1.3,3.2
			H225.9z"/>
			<path class="st10" d="M235.1,433.9c0.5,0.2,0.9,0.6,1.2,1.1s0.4,1,0.4,1.6c0,0.6-0.1,1.2-0.4,1.6s-0.7,0.8-1.2,1.1
			c-0.5,0.2-1.1,0.4-1.8,0.4h-1.6v2.3h-1.8v-8.4h3.4C234,433.6,234.6,433.7,235.1,433.9z M234.5,437.7c0.3-0.3,0.4-0.6,0.4-1.1
			c0-0.5-0.1-0.8-0.4-1.1c-0.3-0.3-0.7-0.4-1.3-0.4h-1.5v2.9h1.5C233.8,438.1,234.2,437.9,234.5,437.7z"/>
			<path class="st10" d="M243.2,433.9c0.5,0.2,0.9,0.6,1.2,1.1s0.4,1,0.4,1.6c0,0.6-0.1,1.2-0.4,1.6s-0.7,0.8-1.2,1.1
			c-0.5,0.2-1.1,0.4-1.8,0.4h-1.6v2.3H238v-8.4h3.4C242.1,433.6,242.7,433.7,243.2,433.9z M242.6,437.7c0.3-0.3,0.4-0.6,0.4-1.1
			c0-0.5-0.1-0.8-0.4-1.1c-0.3-0.3-0.7-0.4-1.3-0.4h-1.5v2.9h1.5C241.8,438.1,242.3,437.9,242.6,437.7z"/>
			<path class="st10" d="M251.1,442l-1.5-2.3h-0.1h-1.6v2.3H246v-8.4h3.4c0.7,0,1.3,0.1,1.8,0.4c0.5,0.2,0.9,0.6,1.2,1.1
			s0.4,1,0.4,1.6s-0.1,1.2-0.4,1.6c-0.3,0.5-0.7,0.8-1.2,1l1.8,2.7H251.1z M250.6,435.5c-0.3-0.3-0.7-0.4-1.3-0.4h-1.5v2.9h1.5
			c0.6,0,1-0.1,1.3-0.4c0.3-0.3,0.4-0.6,0.4-1.1C251.1,436.1,250.9,435.8,250.6,435.5z"/>
			<path class="st10" d="M255.9,441.5c-0.7-0.4-1.2-0.9-1.6-1.6c-0.4-0.7-0.6-1.4-0.6-2.2c0-0.8,0.2-1.6,0.6-2.2
			c0.4-0.7,0.9-1.2,1.6-1.6c0.7-0.4,1.4-0.6,2.2-0.6s1.6,0.2,2.2,0.6c0.7,0.4,1.2,0.9,1.6,1.6c0.4,0.7,0.6,1.4,0.6,2.2
			c0,0.8-0.2,1.6-0.6,2.2c-0.4,0.7-0.9,1.2-1.6,1.6c-0.7,0.4-1.4,0.6-2.2,0.6S256.6,441.9,255.9,441.5z M259.4,440.1
			c0.4-0.2,0.7-0.5,0.9-1c0.2-0.4,0.3-0.9,0.3-1.4c0-0.5-0.1-1-0.3-1.4c-0.2-0.4-0.5-0.7-0.9-1c-0.4-0.2-0.8-0.3-1.3-0.3
			s-0.9,0.1-1.3,0.3c-0.4,0.2-0.7,0.5-0.9,1c-0.2,0.4-0.3,0.9-0.3,1.4c0,0.5,0.1,1,0.3,1.4c0.2,0.4,0.5,0.7,0.9,1
			c0.4,0.2,0.8,0.3,1.3,0.3S259,440.3,259.4,440.1z"/>
			<path class="st10" d="M271.1,433.6l-3.4,8.4h-1.8l-3.4-8.4h2l2.4,6l2.5-6H271.1z"/>
			<path class="st10" d="M276.7,440.2H273l-0.7,1.8h-1.9l3.5-8.4h1.8l3.6,8.4h-1.9L276.7,440.2z M276.1,438.7l-1.3-3.2l-1.3,3.2
			H276.1z"/>
			<path class="st10" d="M280,433.6h1.8v6.8h4v1.6H280V433.6z"/>
		</g>
		<g>
			<circle class="st42" cx="251.9" cy="399" r="21.5"/>
			<g>
				<g>
					<path class="st5" d="M246.2,410.4c-0.7,0-1.1,0-1.1,0h-0.7v-12.6l0.2-0.2c1.4-1.4,2.4-3.2,3.5-4.9c0.2-0.4,0.4-0.8,0.7-1.1l0,0
					c0.4-0.6,0.4-2,0.4-3c0-1,0-1.8,0.3-2.3c0.3-0.4,0.7-0.7,1.3-0.7c1-0.1,2,0.4,2.5,1.4c1.5,3.1,1.2,5,0.7,7.6
					c-0.1,0.4-0.1,0.7-0.2,1.1c1,0,2.1,0,3.1,0c1.1,0,2.3,0,3.5,0c0.9,0,2,0.2,2.6,0.9c0.2,0.3,0.5,0.8,0.3,1.5
					c-0.1,0.8-0.5,1.4-1.1,1.9c0.4,0.4,0.6,1,0.5,1.6c-0.1,0.7-0.5,1.4-1.1,1.8c0.3,0.4,0.5,0.8,0.5,1.4c0,0.8-0.5,1.6-1.1,2.1
					c0.4,0.5,0.5,1,0.4,1.6c-0.3,1.2-1.6,2.1-2.9,2.1C255,410.4,248.7,410.4,246.2,410.4z M245.7,409c2.2,0,9.1,0,12.5,0
					c0.8,0,1.5-0.6,1.6-1.1c0-0.1,0.1-0.3-0.3-0.6c-0.4-0.1-0.6-0.5-0.6-0.9c0-0.4,0.4-0.7,0.8-0.8c0.5-0.2,0.8-0.7,0.8-1.1
					c0-0.4-0.3-0.6-0.5-0.6l-0.1,0l0,0c-0.4-0.2-0.5-0.5-0.5-0.9c0.1-0.4,0.5-0.6,0.8-0.7c0.4-0.1,0.8-0.6,0.8-1
					c0-0.4-0.1-0.5-0.3-0.6l0,0c0,0,0,0-0.1,0c-0.2-0.1-0.5-0.2-0.6-0.6l0-0.1l0-0.1c-0.1-0.4,0.1-0.8,0.5-0.9l0.1,0l0.1,0
					c0.6-0.2,0.9-0.6,1-1.2l0,0c0-0.3,0-0.4-0.1-0.4c-0.1-0.2-0.5-0.3-1.6-0.4c-1.1,0-2.3,0-3.4,0c-1.3,0-2.7,0-4,0l-0.8,0l0.1-0.8
					c0.1-0.7,0.2-1.4,0.3-1.9c0.5-2.6,0.8-4.1-0.5-6.8c-0.2-0.4-0.7-0.7-1.1-0.6c-0.2,0-0.3,0.1-0.3,0.1c-0.1,0.2-0.1,1-0.1,1.6
					c0,1.3,0.1,2.8-0.6,3.8c-0.2,0.4-0.4,0.7-0.6,1.1c-1,1.8-2,3.6-3.5,5V409z"/>
				</g>
				<g>
					<path class="st5" d="M244.5,410.4h-2.7c-0.6,0-1.2-0.5-1.2-1.2v-10.6c0-0.6,0.5-1.2,1.2-1.2h2.7c0.6,0,1.2,0.5,1.2,1.2v10.6
					C245.7,409.9,245.2,410.4,244.5,410.4z M242,409h2.3v-10.2H242V409z"/>
				</g>
			</g>

			<radialGradient id="SVGID_1_" cx="199.2903" cy="4690.1089" r="59.465" gradientTransform="matrix(0.5538 0 0 4.348000e-02 144.3805 221.081)" gradientUnits="userSpaceOnUse">
				<stop offset="0.1034" style="stop-color:#E0E3E2"/>
				<stop offset="0.2677" style="stop-color:#E9EBEA"/>
				<stop offset="0.684" style="stop-color:#F9FAFA"/>
				<stop offset="1" style="stop-color:#FFFFFF"/>
			</radialGradient>
			<ellipse class="st7" cx="254.7" cy="425" rx="46.5" ry="2.2"/>
		</g>
	</g>
	<g>
		<g>
			<path class="st10" d="M190.1,669.8v2.1h3.4v1.1h-3.4v2.7h-1.3v-7h5.1v1.1H190.1z"/>
			<path class="st10" d="M200,670.4v5.3h-1.2V675c-0.2,0.2-0.4,0.4-0.8,0.6c-0.3,0.1-0.6,0.2-1,0.2c-0.7,0-1.3-0.2-1.7-0.6
			c-0.4-0.4-0.6-1-0.6-1.8v-3h1.2v2.9c0,0.5,0.1,0.8,0.3,1.1s0.5,0.4,0.9,0.4c0.4,0,0.8-0.1,1.1-0.4c0.3-0.3,0.4-0.7,0.4-1.2v-2.7
			H200z"/>
			<path class="st10" d="M206.3,670.9c0.4,0.4,0.6,1,0.6,1.8v3.1h-1.2v-2.9c0-0.5-0.1-0.8-0.3-1.1s-0.5-0.4-0.9-0.4
			c-0.5,0-0.8,0.1-1.1,0.4c-0.3,0.3-0.4,0.7-0.4,1.2v2.7h-1.2v-5.3h1.2v0.7c0.2-0.2,0.5-0.4,0.8-0.6s0.7-0.2,1.1-0.2
			C205.3,670.3,205.9,670.5,206.3,670.9z"/>
			<path class="st10" d="M213.7,668.3v7.4h-1.2V675c-0.2,0.3-0.5,0.4-0.8,0.6c-0.3,0.1-0.6,0.2-1,0.2c-0.5,0-1-0.1-1.4-0.3
			c-0.4-0.2-0.7-0.5-1-1c-0.2-0.4-0.4-0.9-0.4-1.4s0.1-1,0.4-1.4c0.2-0.4,0.6-0.7,1-1c0.4-0.2,0.9-0.3,1.4-0.3c0.4,0,0.7,0.1,1,0.2
			s0.5,0.3,0.8,0.5v-2.7H213.7z M211.7,674.5c0.2-0.1,0.4-0.3,0.6-0.6c0.1-0.3,0.2-0.5,0.2-0.9s-0.1-0.6-0.2-0.9
			c-0.1-0.3-0.3-0.4-0.6-0.6c-0.2-0.1-0.5-0.2-0.8-0.2s-0.6,0.1-0.8,0.2c-0.2,0.1-0.4,0.3-0.6,0.6c-0.1,0.3-0.2,0.5-0.2,0.9
			s0.1,0.6,0.2,0.9c0.1,0.3,0.3,0.4,0.6,0.6c0.2,0.1,0.5,0.2,0.8,0.2S211.5,674.6,211.7,674.5z"/>
			<path class="st10" d="M218.4,670.3v1.2c-0.1,0-0.2,0-0.3,0c-0.5,0-0.9,0.1-1.1,0.4c-0.3,0.3-0.4,0.7-0.4,1.2v2.6h-1.2v-5.3h1.2
			v0.8C216.8,670.6,217.5,670.3,218.4,670.3z"/>
			<path class="st10" d="M223.2,670.9c0.4,0.4,0.6,0.9,0.6,1.7v3.1h-1.2v-0.7c-0.2,0.2-0.4,0.4-0.7,0.5c-0.3,0.1-0.6,0.2-1,0.2
			c-0.4,0-0.8-0.1-1.1-0.2c-0.3-0.1-0.5-0.3-0.7-0.6c-0.2-0.2-0.2-0.5-0.2-0.8c0-0.5,0.2-0.9,0.5-1.2c0.4-0.3,0.9-0.4,1.7-0.4h1.4
			v-0.1c0-0.4-0.1-0.7-0.3-0.9c-0.2-0.2-0.6-0.3-1-0.3c-0.3,0-0.6,0-0.9,0.1c-0.3,0.1-0.5,0.2-0.7,0.4l-0.5-0.9
			c0.3-0.2,0.6-0.4,1-0.5c0.4-0.1,0.8-0.2,1.2-0.2C222.2,670.3,222.8,670.5,223.2,670.9z M222.1,674.6c0.2-0.1,0.4-0.3,0.5-0.6v-0.6
			h-1.3c-0.7,0-1.1,0.2-1.1,0.7c0,0.2,0.1,0.4,0.3,0.5c0.2,0.1,0.4,0.2,0.8,0.2C221.5,674.9,221.8,674.8,222.1,674.6z"/>
			<path class="st10" d="M225.4,669.3c-0.2-0.1-0.2-0.3-0.2-0.5c0-0.2,0.1-0.4,0.2-0.5s0.3-0.2,0.6-0.2c0.2,0,0.4,0.1,0.6,0.2
			s0.2,0.3,0.2,0.5c0,0.2-0.1,0.4-0.2,0.6c-0.1,0.2-0.3,0.2-0.6,0.2C225.8,669.5,225.6,669.4,225.4,669.3z M225.4,670.4h1.2v5.3
			h-1.2V670.4z"/>
			<path class="st10" d="M228.6,675.6c-0.4-0.1-0.7-0.3-1-0.4l0.5-1c0.2,0.2,0.5,0.3,0.9,0.4c0.3,0.1,0.7,0.1,1,0.1
			c0.7,0,1.1-0.2,1.1-0.6c0-0.2-0.1-0.3-0.3-0.4c-0.2-0.1-0.5-0.1-0.9-0.2c-0.4-0.1-0.8-0.1-1.1-0.2c-0.3-0.1-0.5-0.2-0.7-0.5
			c-0.2-0.2-0.3-0.5-0.3-0.9c0-0.5,0.2-0.9,0.6-1.2c0.4-0.3,1-0.5,1.7-0.5c0.4,0,0.7,0,1.1,0.1c0.4,0.1,0.7,0.2,0.9,0.3l-0.5,1
			c-0.5-0.3-1-0.4-1.5-0.4c-0.4,0-0.6,0.1-0.8,0.2c-0.2,0.1-0.3,0.3-0.3,0.4c0,0.2,0.1,0.3,0.3,0.4c0.2,0.1,0.5,0.2,0.9,0.2
			c0.4,0.1,0.8,0.1,1.1,0.2c0.3,0.1,0.5,0.2,0.7,0.4c0.2,0.2,0.3,0.5,0.3,0.9c0,0.5-0.2,0.9-0.6,1.2c-0.4,0.3-1,0.5-1.8,0.5
			C229.4,675.8,229,675.7,228.6,675.6z"/>
			<path class="st10" d="M233.4,669.3c-0.2-0.1-0.2-0.3-0.2-0.5c0-0.2,0.1-0.4,0.2-0.5s0.3-0.2,0.6-0.2c0.2,0,0.4,0.1,0.6,0.2
			s0.2,0.3,0.2,0.5c0,0.2-0.1,0.4-0.2,0.6c-0.1,0.2-0.3,0.2-0.6,0.2C233.7,669.5,233.5,669.4,233.4,669.3z M233.3,670.4h1.2v5.3
			h-1.2V670.4z"/>
			<path class="st10" d="M240.8,670.9c0.4,0.4,0.6,1,0.6,1.8v3.1h-1.2v-2.9c0-0.5-0.1-0.8-0.3-1.1s-0.5-0.4-0.9-0.4
			c-0.5,0-0.8,0.1-1.1,0.4c-0.3,0.3-0.4,0.7-0.4,1.2v2.7h-1.2v-5.3h1.2v0.7c0.2-0.2,0.5-0.4,0.8-0.6s0.7-0.2,1.1-0.2
			C239.9,670.3,240.4,670.5,240.8,670.9z"/>
			<path class="st10" d="M248.3,670.4v4.5c0,1.9-1,2.8-2.9,2.8c-0.5,0-1-0.1-1.5-0.2c-0.5-0.1-0.8-0.3-1.1-0.6l0.6-0.9
			c0.2,0.2,0.5,0.3,0.9,0.5c0.4,0.1,0.7,0.2,1.1,0.2c0.6,0,1-0.1,1.3-0.4s0.4-0.7,0.4-1.2v-0.3c-0.2,0.2-0.5,0.4-0.8,0.5
			s-0.6,0.2-1,0.2c-0.5,0-1-0.1-1.4-0.3c-0.4-0.2-0.7-0.5-1-0.9c-0.2-0.4-0.4-0.8-0.4-1.3s0.1-1,0.4-1.3c0.2-0.4,0.6-0.7,1-0.9
			c0.4-0.2,0.9-0.3,1.4-0.3c0.4,0,0.7,0.1,1.1,0.2c0.3,0.1,0.6,0.3,0.8,0.6v-0.7H248.3z M246.6,674c0.3-0.3,0.5-0.7,0.5-1.1
			c0-0.4-0.2-0.8-0.5-1.1c-0.3-0.3-0.7-0.4-1.2-0.4c-0.5,0-0.9,0.1-1.2,0.4c-0.3,0.3-0.5,0.6-0.5,1.1c0,0.5,0.2,0.8,0.5,1.1
			c0.3,0.3,0.7,0.4,1.2,0.4C245.9,674.4,246.3,674.3,246.6,674z"/>
			<path class="st10" d="M254,670.1v0.3h1.5v1H254v4.3h-1.2v-4.3h-0.9v-1h0.9v-0.3c0-0.6,0.2-1,0.5-1.4c0.3-0.3,0.8-0.5,1.4-0.5
			c0.5,0,0.9,0.1,1.1,0.3l-0.3,0.9c-0.2-0.1-0.4-0.2-0.7-0.2C254.3,669.2,254,669.5,254,670.1z"/>
			<path class="st10" d="M260.1,670.3v1.2c-0.1,0-0.2,0-0.3,0c-0.5,0-0.9,0.1-1.1,0.4c-0.3,0.3-0.4,0.7-0.4,1.2v2.6h-1.2v-5.3h1.2
			v0.8C258.6,670.6,259.2,670.3,260.1,670.3z"/>
			<path class="st10" d="M262,675.4c-0.4-0.2-0.8-0.6-1-1c-0.2-0.4-0.4-0.9-0.4-1.4s0.1-1,0.4-1.4c0.2-0.4,0.6-0.7,1-1
			c0.4-0.2,0.9-0.4,1.5-0.4c0.5,0,1,0.1,1.5,0.4c0.4,0.2,0.8,0.6,1,1c0.2,0.4,0.4,0.9,0.4,1.4s-0.1,1-0.4,1.4c-0.2,0.4-0.6,0.7-1,1
			c-0.4,0.2-0.9,0.4-1.5,0.4C263,675.8,262.5,675.7,262,675.4z M264.6,674.2c0.3-0.3,0.5-0.7,0.5-1.2s-0.1-0.9-0.5-1.2
			c-0.3-0.3-0.7-0.5-1.1-0.5c-0.5,0-0.8,0.2-1.1,0.5c-0.3,0.3-0.4,0.7-0.4,1.2s0.1,0.9,0.4,1.2c0.3,0.3,0.7,0.5,1.1,0.5
			C264,674.7,264.3,674.5,264.6,674.2z"/>
			<path class="st10" d="M275.8,670.9c0.4,0.4,0.6,1,0.6,1.8v3.1h-1.2v-2.9c0-0.5-0.1-0.8-0.3-1.1s-0.5-0.4-0.9-0.4
			c-0.4,0-0.8,0.1-1,0.4c-0.3,0.3-0.4,0.7-0.4,1.2v2.7h-1.2v-2.9c0-0.5-0.1-0.8-0.3-1.1c-0.2-0.2-0.5-0.4-0.9-0.4
			c-0.4,0-0.8,0.1-1,0.4c-0.2,0.3-0.4,0.7-0.4,1.2v2.7h-1.2v-5.3h1.2v0.7c0.2-0.2,0.5-0.4,0.8-0.5c0.3-0.1,0.6-0.2,1-0.2
			c0.4,0,0.8,0.1,1.1,0.2c0.3,0.1,0.6,0.4,0.7,0.7c0.2-0.3,0.5-0.5,0.9-0.7c0.3-0.2,0.7-0.2,1.1-0.2
			C274.9,670.3,275.4,670.5,275.8,670.9z"/>
		</g>
		<g>
			<path class="st10" d="M188.8,679.2h3.6c0.9,0,1.6,0.2,2.3,0.5c0.7,0.3,1.2,0.8,1.5,1.5c0.4,0.6,0.6,1.4,0.6,2.2s-0.2,1.6-0.6,2.2
			c-0.4,0.6-0.9,1.1-1.5,1.5c-0.7,0.3-1.4,0.5-2.3,0.5h-3.6V679.2z M192.3,686c0.8,0,1.4-0.2,1.9-0.7c0.5-0.5,0.7-1.1,0.7-1.9
			s-0.2-1.4-0.7-1.9c-0.5-0.5-1.1-0.7-1.9-0.7h-1.7v5.2H192.3z"/>
			<path class="st10" d="M199.7,687.2c-0.7-0.4-1.2-0.9-1.6-1.6c-0.4-0.7-0.6-1.4-0.6-2.2c0-0.8,0.2-1.6,0.6-2.2
			c0.4-0.7,0.9-1.2,1.6-1.6c0.7-0.4,1.4-0.6,2.2-0.6s1.6,0.2,2.2,0.6c0.7,0.4,1.2,0.9,1.6,1.6c0.4,0.7,0.6,1.4,0.6,2.2
			c0,0.8-0.2,1.6-0.6,2.2c-0.4,0.7-0.9,1.2-1.6,1.6c-0.7,0.4-1.4,0.6-2.2,0.6S200.4,687.5,199.7,687.2z M203.2,685.7
			c0.4-0.2,0.7-0.5,0.9-1c0.2-0.4,0.3-0.9,0.3-1.4c0-0.5-0.1-1-0.3-1.4c-0.2-0.4-0.5-0.7-0.9-1c-0.4-0.2-0.8-0.3-1.3-0.3
			s-0.9,0.1-1.3,0.3c-0.4,0.2-0.7,0.5-0.9,1s-0.3,0.9-0.3,1.4c0,0.5,0.1,1,0.3,1.4c0.2,0.4,0.5,0.7,0.9,1c0.4,0.2,0.8,0.3,1.3,0.3
			S202.8,686,203.2,685.7z"/>
			<path class="st10" d="M214.9,679.2v8.4h-1.5l-4-5.1v5.1h-1.8v-8.4h1.5l4,5.1v-5.1H214.9z"/>
			<path class="st10" d="M218.3,687.2c-0.7-0.4-1.2-0.9-1.6-1.6c-0.4-0.7-0.6-1.4-0.6-2.2c0-0.8,0.2-1.6,0.6-2.2
			c0.4-0.7,0.9-1.2,1.6-1.6c0.7-0.4,1.4-0.6,2.2-0.6s1.6,0.2,2.2,0.6c0.7,0.4,1.2,0.9,1.6,1.6c0.4,0.7,0.6,1.4,0.6,2.2
			c0,0.8-0.2,1.6-0.6,2.2c-0.4,0.7-0.9,1.2-1.6,1.6c-0.7,0.4-1.4,0.6-2.2,0.6S218.9,687.5,218.3,687.2z M221.8,685.7
			c0.4-0.2,0.7-0.5,0.9-1c0.2-0.4,0.3-0.9,0.3-1.4c0-0.5-0.1-1-0.3-1.4c-0.2-0.4-0.5-0.7-0.9-1c-0.4-0.2-0.8-0.3-1.3-0.3
			s-0.9,0.1-1.3,0.3c-0.4,0.2-0.7,0.5-0.9,1s-0.3,0.9-0.3,1.4c0,0.5,0.1,1,0.3,1.4c0.2,0.4,0.5,0.7,0.9,1c0.4,0.2,0.8,0.3,1.3,0.3
			S221.4,686,221.8,685.7z"/>
			<path class="st10" d="M231.2,687.6l-1.5-2.3h-0.1h-1.6v2.3h-1.8v-8.4h3.4c0.7,0,1.3,0.1,1.8,0.4c0.5,0.2,0.9,0.6,1.2,1.1
			s0.4,1,0.4,1.6s-0.1,1.2-0.4,1.6c-0.3,0.5-0.7,0.8-1.2,1l1.8,2.7H231.2z M230.7,681.2c-0.3-0.3-0.7-0.4-1.3-0.4h-1.5v2.9h1.5
			c0.6,0,1-0.1,1.3-0.4c0.3-0.3,0.4-0.6,0.4-1.1C231.1,681.8,231,681.4,230.7,681.2z"/>
			<path class="st10" d="M235.1,687.5c-0.6-0.2-1.1-0.4-1.4-0.7l0.6-1.5c0.3,0.3,0.7,0.5,1.2,0.6s0.9,0.2,1.4,0.2
			c0.5,0,0.9-0.1,1.2-0.2s0.4-0.4,0.4-0.7c0-0.2-0.1-0.4-0.2-0.5c-0.1-0.1-0.3-0.2-0.6-0.3s-0.5-0.2-0.9-0.3
			c-0.6-0.2-1.1-0.3-1.5-0.5c-0.4-0.2-0.7-0.4-1-0.7c-0.3-0.3-0.4-0.8-0.4-1.3c0-0.5,0.1-0.9,0.4-1.3c0.2-0.4,0.6-0.7,1.1-0.9
			c0.5-0.2,1.1-0.3,1.8-0.3c0.5,0,1,0.1,1.5,0.2c0.5,0.1,0.9,0.3,1.3,0.6l-0.6,1.5c-0.7-0.4-1.5-0.7-2.2-0.7c-0.5,0-0.9,0.1-1.1,0.3
			s-0.4,0.4-0.4,0.7c0,0.3,0.1,0.5,0.4,0.6c0.3,0.1,0.7,0.3,1.3,0.4c0.6,0.2,1.1,0.3,1.5,0.5c0.4,0.2,0.7,0.4,1,0.7
			c0.3,0.3,0.4,0.8,0.4,1.3c0,0.5-0.1,0.9-0.4,1.3c-0.3,0.4-0.6,0.7-1.1,0.9c-0.5,0.2-1.1,0.3-1.9,0.3
			C236.3,687.7,235.7,687.6,235.1,687.5z"/>
		</g>
		<g>
			<g>
				<path class="st5" d="M236.3,641.4c2.2-1.5,3.7-4,3.7-6.8c0-4.5-3.7-8.2-8.2-8.2s-8.2,3.7-8.2,8.2c0,2.8,1.5,5.3,3.7,6.8
				c-5,1.8-8.6,6.6-8.6,12.3h2.2c0-6,4.9-10.9,10.9-10.9s10.9,4.9,10.9,10.9h2.2C244.9,648,241.3,643.2,236.3,641.4z M231.8,640.6
				c-3.3,0-6-2.7-6-6s2.7-6,6-6c3.3,0,6,2.7,6,6S235.1,640.6,231.8,640.6z"/>
				<path class="st5" d="M247.2,635.9c2.2-1.5,3.7-4,3.7-6.8c0-4.5-3.7-8.2-8.2-8.2c-2.2,0-4.2,0.9-5.6,2.3c-0.5,0.5-1,1.1-1.4,1.8
				c0.7,0.3,1.3,0.6,1.9,1c0.4-0.6,0.9-1.2,1.5-1.6c1-0.8,2.3-1.2,3.6-1.2c3.3,0,6,2.7,6,6c0,2.7-1.9,5.1-4.4,5.8
				c-0.5,0.1-1.1,0.2-1.6,0.2c-0.2,0-0.4,0-0.6,0c0,0.8-0.2,1.5-0.4,2.3c0.3,0,0.6-0.1,0.9-0.1c0.4,0,0.9,0,1.3,0.1
				c5.4,0.6,9.6,5.2,9.6,10.8h2.2C255.8,642.6,252.2,637.8,247.2,635.9z"/>
				<path class="st5" d="M220.9,637.3c0.3,0,0.6,0,0.9,0.1c-0.2-0.7-0.3-1.5-0.4-2.3c-0.2,0-0.4,0-0.6,0c-0.6,0-1.1-0.1-1.6-0.2
				c-2.5-0.7-4.4-3-4.4-5.8c0-3.3,2.7-6,6-6c1.4,0,2.6,0.5,3.6,1.2c0.6,0.4,1.1,1,1.5,1.6c0.6-0.4,1.2-0.7,1.9-1
				c-0.4-0.7-0.9-1.2-1.4-1.8c-1.5-1.4-3.5-2.3-5.6-2.3c-4.5,0-8.2,3.7-8.2,8.2c0,2.8,1.5,5.3,3.7,6.8c-5,1.8-8.6,6.6-8.6,12.3h2.2
				c0-5.6,4.2-10.2,9.6-10.8C220,637.3,220.4,637.3,220.9,637.3z"/>
				<path class="st5" d="M254.8,628.3c2.2-1.5,3.7-4,3.7-6.8c0-4.5-3.7-8.2-8.2-8.2c-2.2,0-4.2,0.9-5.6,2.3c-0.5,0.5-1,1.1-1.4,1.8
				c0.7,0.3,1.3,0.6,1.9,1c0.4-0.6,0.9-1.2,1.5-1.6c1-0.8,2.3-1.2,3.6-1.2c3.3,0,6,2.7,6,6c0,2.4-1.4,4.5-3.5,5.4
				c0.1,0.5,0.1,1,0.1,1.6c0,0.5-0.1,1-0.1,1.5c4.8,1.1,8.4,5.4,8.4,10.6h2.2C263.4,634.9,259.8,630.1,254.8,628.3z"/>
				<path class="st5" d="M210.6,628.5c0-0.5,0.1-1.1,0.1-1.6c-2.1-0.9-3.5-3-3.5-5.4c0-3.3,2.7-6,6-6c1.4,0,2.6,0.5,3.6,1.2
				c0.6,0.4,1.1,1,1.5,1.6c0.6-0.4,1.2-0.7,1.9-1c-0.4-0.7-0.9-1.2-1.4-1.8c-1.5-1.4-3.5-2.3-5.6-2.3c-4.5,0-8.2,3.7-8.2,8.2
				c0,2.8,1.5,5.3,3.7,6.8c-5,1.8-8.6,6.6-8.6,12.3h2.2c0-5.1,3.6-9.5,8.4-10.6C210.7,629.5,210.6,629,210.6,628.5z"/>
				<path class="st5" d="M231.8,615.5c2.9,0,5.3,2.1,5.9,4.9c1.2-0.7,2.1-0.9,2.1-0.9c-0.9-3.5-4.1-6.2-7.9-6.2s-7,2.6-7.9,6.2
				c0,0,0.9,0.2,2.1,0.9C226.5,617.6,228.9,615.5,231.8,615.5z"/>
			</g>

			<radialGradient id="SVGID_2_" cx="265.2865" cy="2911.3157" r="59.465" gradientTransform="matrix(0.6388 0 0 6.044964e-02 64.388 484.8044)" gradientUnits="userSpaceOnUse">
				<stop offset="0.1034" style="stop-color:#E0E3E2"/>
				<stop offset="0.2677" style="stop-color:#E9EBEA"/>
				<stop offset="0.684" style="stop-color:#F9FAFA"/>
				<stop offset="1" style="stop-color:#FFFFFF"/>
			</radialGradient>
			<ellipse class="st13" cx="233.8" cy="660.8" rx="53.6" ry="3"/>
		</g>
	</g>
	<g>
		<g>
			<path class="st10" d="M182.2,891.4c-0.6-0.3-1-0.7-1.3-1.3c-0.3-0.5-0.5-1.2-0.5-1.8s0.2-1.3,0.5-1.8c0.3-0.5,0.8-1,1.3-1.3
			c0.6-0.3,1.2-0.5,1.9-0.5c0.6,0,1.1,0.1,1.6,0.3c0.5,0.2,0.9,0.5,1.2,0.9l-0.8,0.8c-0.5-0.5-1.1-0.8-1.9-0.8
			c-0.5,0-0.9,0.1-1.3,0.3c-0.4,0.2-0.7,0.5-0.9,0.9c-0.2,0.4-0.3,0.8-0.3,1.3s0.1,0.9,0.3,1.3c0.2,0.4,0.5,0.7,0.9,0.9
			c0.4,0.2,0.8,0.3,1.3,0.3c0.7,0,1.4-0.3,1.9-0.8l0.8,0.8c-0.3,0.4-0.7,0.7-1.2,0.9s-1,0.3-1.6,0.3
			C183.4,891.8,182.7,891.7,182.2,891.4z"/>
			<path class="st10" d="M187.9,884.3h1.2v7.4h-1.2V884.3z"/>
			<path class="st10" d="M195.8,889.5h-4.2c0.1,0.4,0.3,0.7,0.6,0.9c0.3,0.2,0.7,0.3,1.2,0.3c0.6,0,1.1-0.2,1.5-0.6l0.7,0.8
			c-0.2,0.3-0.5,0.5-0.9,0.6c-0.4,0.1-0.8,0.2-1.2,0.2c-0.6,0-1.1-0.1-1.6-0.4c-0.4-0.2-0.8-0.6-1-1c-0.2-0.4-0.4-0.9-0.4-1.4
			c0-0.5,0.1-1,0.4-1.4c0.2-0.4,0.6-0.7,1-1c0.4-0.2,0.9-0.4,1.4-0.4c0.5,0,1,0.1,1.4,0.3c0.4,0.2,0.7,0.6,1,1s0.3,0.9,0.3,1.4
			C195.8,889.2,195.8,889.3,195.8,889.5z M192.1,887.7c-0.3,0.2-0.4,0.6-0.5,0.9h3c-0.1-0.4-0.2-0.7-0.5-0.9c-0.3-0.2-0.6-0.4-1-0.4
			C192.7,887.3,192.4,887.4,192.1,887.7z"/>
			<path class="st10" d="M200.6,886.9c0.4,0.4,0.6,0.9,0.6,1.7v3.1h-1.2v-0.7c-0.2,0.2-0.4,0.4-0.7,0.5c-0.3,0.1-0.6,0.2-1,0.2
			c-0.4,0-0.8-0.1-1.1-0.2c-0.3-0.1-0.5-0.3-0.7-0.6c-0.2-0.2-0.2-0.5-0.2-0.8c0-0.5,0.2-0.9,0.5-1.2c0.4-0.3,0.9-0.4,1.7-0.4h1.4
			v-0.1c0-0.4-0.1-0.7-0.3-0.9c-0.2-0.2-0.6-0.3-1-0.3c-0.3,0-0.6,0-0.9,0.1c-0.3,0.1-0.5,0.2-0.7,0.4l-0.5-0.9
			c0.3-0.2,0.6-0.4,1-0.5c0.4-0.1,0.8-0.2,1.2-0.2C199.6,886.3,200.2,886.5,200.6,886.9z M199.5,890.7c0.2-0.1,0.4-0.3,0.5-0.6v-0.6
			h-1.3c-0.7,0-1.1,0.2-1.1,0.7c0,0.2,0.1,0.4,0.3,0.5c0.2,0.1,0.4,0.2,0.8,0.2C199,890.9,199.3,890.8,199.5,890.7z"/>
			<path class="st10" d="M205.9,886.3v1.2c-0.1,0-0.2,0-0.3,0c-0.5,0-0.9,0.1-1.1,0.4c-0.3,0.3-0.4,0.7-0.4,1.2v2.6h-1.2v-5.3h1.2
			v0.8C204.4,886.6,205,886.3,205.9,886.3z"/>
			<path class="st10" d="M214.7,886.4l-2.3,5.3h-1.3l-2.3-5.3h1.3l1.7,4l1.7-4H214.7z"/>
			<path class="st10" d="M215.5,885.3c-0.2-0.1-0.2-0.3-0.2-0.5c0-0.2,0.1-0.4,0.2-0.5s0.3-0.2,0.6-0.2c0.2,0,0.4,0.1,0.6,0.2
			s0.2,0.3,0.2,0.5c0,0.2-0.1,0.4-0.2,0.6c-0.1,0.2-0.3,0.2-0.6,0.2C215.8,885.5,215.6,885.4,215.5,885.3z M215.4,886.4h1.2v5.3
			h-1.2V886.4z"/>
			<path class="st10" d="M223.2,889.5h-4.2c0.1,0.4,0.3,0.7,0.6,0.9c0.3,0.2,0.7,0.3,1.2,0.3c0.6,0,1.1-0.2,1.5-0.6l0.7,0.8
			c-0.2,0.3-0.5,0.5-0.9,0.6c-0.4,0.1-0.8,0.2-1.2,0.2c-0.6,0-1.1-0.1-1.6-0.4c-0.4-0.2-0.8-0.6-1-1c-0.2-0.4-0.4-0.9-0.4-1.4
			c0-0.5,0.1-1,0.4-1.4c0.2-0.4,0.6-0.7,1-1c0.4-0.2,0.9-0.4,1.4-0.4c0.5,0,1,0.1,1.4,0.3c0.4,0.2,0.7,0.6,1,1s0.3,0.9,0.3,1.4
			C223.3,889.2,223.3,889.3,223.2,889.5z M219.5,887.7c-0.3,0.2-0.4,0.6-0.5,0.9h3c-0.1-0.4-0.2-0.7-0.5-0.9c-0.3-0.2-0.6-0.4-1-0.4
			C220.2,887.3,219.8,887.4,219.5,887.7z"/>
			<path class="st10" d="M232.6,886.4l-2,5.3h-1.2l-1.4-3.7l-1.4,3.7h-1.2l-2-5.3h1.2l1.4,3.9l1.5-3.9h1l1.4,4l1.5-4H232.6z"/>
		</g>
		<g>
			<path class="st10" d="M185.9,903.6l-1.5-2.3h-0.1h-1.6v2.3h-1.8v-8.4h3.4c0.7,0,1.3,0.1,1.8,0.4c0.5,0.2,0.9,0.6,1.2,1.1
			s0.4,1,0.4,1.6s-0.1,1.2-0.4,1.6c-0.3,0.5-0.7,0.8-1.2,1l1.8,2.7H185.9z M185.4,897.2c-0.3-0.3-0.7-0.4-1.3-0.4h-1.5v2.9h1.5
			c0.6,0,1-0.1,1.3-0.4c0.3-0.3,0.4-0.6,0.4-1.1C185.9,897.8,185.7,897.4,185.4,897.2z"/>
			<path class="st10" d="M195.2,902.1v1.6h-6.2v-8.4h6v1.6h-4.2v1.8h3.7v1.5h-3.7v1.9H195.2z"/>
			<path class="st10" d="M201.9,895.6c0.5,0.2,0.9,0.6,1.2,1.1s0.4,1,0.4,1.6c0,0.6-0.1,1.2-0.4,1.6s-0.7,0.8-1.2,1.1
			s-1.1,0.4-1.8,0.4h-1.6v2.3h-1.8v-8.4h3.4C200.7,895.2,201.3,895.3,201.9,895.6z M201.2,899.3c0.3-0.3,0.4-0.6,0.4-1.1
			c0-0.5-0.1-0.8-0.4-1.1c-0.3-0.3-0.7-0.4-1.3-0.4h-1.5v2.9h1.5C200.5,899.7,200.9,899.6,201.2,899.3z"/>
			<path class="st10" d="M206.4,903.2c-0.7-0.4-1.2-0.9-1.6-1.6c-0.4-0.7-0.6-1.4-0.6-2.2c0-0.8,0.2-1.6,0.6-2.2s0.9-1.2,1.6-1.6
			c0.7-0.4,1.4-0.6,2.2-0.6c0.8,0,1.6,0.2,2.2,0.6c0.7,0.4,1.2,0.9,1.6,1.6s0.6,1.4,0.6,2.2c0,0.8-0.2,1.6-0.6,2.2
			c-0.4,0.7-0.9,1.2-1.6,1.6s-1.4,0.6-2.2,0.6C207.8,903.8,207.1,903.6,206.4,903.2z M209.9,901.8c0.4-0.2,0.7-0.5,0.9-1
			c0.2-0.4,0.3-0.9,0.3-1.4c0-0.5-0.1-1-0.3-1.4s-0.5-0.7-0.9-1c-0.4-0.2-0.8-0.3-1.3-0.3s-0.9,0.1-1.3,0.3c-0.4,0.2-0.7,0.5-0.9,1
			s-0.3,0.9-0.3,1.4c0,0.5,0.1,1,0.3,1.4c0.2,0.4,0.5,0.7,0.9,1c0.4,0.2,0.8,0.3,1.3,0.3S209.5,902,209.9,901.8z"/>
			<path class="st10" d="M219.3,903.6l-1.5-2.3h-0.1h-1.6v2.3h-1.8v-8.4h3.4c0.7,0,1.3,0.1,1.8,0.4c0.5,0.2,0.9,0.6,1.2,1.1
			s0.4,1,0.4,1.6s-0.1,1.2-0.4,1.6c-0.3,0.5-0.7,0.8-1.2,1l1.8,2.7H219.3z M218.9,897.2c-0.3-0.3-0.7-0.4-1.3-0.4h-1.5v2.9h1.5
			c0.6,0,1-0.1,1.3-0.4c0.3-0.3,0.4-0.6,0.4-1.1C219.3,897.8,219.2,897.4,218.9,897.2z"/>
			<path class="st10" d="M224,896.8h-2.5v-1.6h6.9v1.6h-2.5v6.8H224V896.8z"/>
			<path class="st10" d="M229.3,895.2h1.8v8.4h-1.8V895.2z"/>
			<path class="st10" d="M240.2,895.2v8.4h-1.5l-4-5.1v5.1h-1.8v-8.4h1.5l4,5.1v-5.1H240.2z"/>
			<path class="st10" d="M247.4,899.3h1.7v3.4c-0.4,0.3-0.9,0.6-1.5,0.8c-0.6,0.2-1.1,0.3-1.7,0.3c-0.8,0-1.6-0.2-2.2-0.6
			s-1.2-0.9-1.6-1.5c-0.4-0.7-0.6-1.4-0.6-2.2s0.2-1.6,0.6-2.2c0.4-0.7,0.9-1.2,1.6-1.5c0.7-0.4,1.4-0.6,2.2-0.6
			c0.7,0,1.3,0.1,1.9,0.4c0.6,0.2,1,0.6,1.4,1.1l-1.2,1.2c-0.6-0.6-1.3-0.9-2.1-0.9c-0.5,0-1,0.1-1.4,0.3c-0.4,0.2-0.7,0.5-0.9,0.9
			c-0.2,0.4-0.3,0.9-0.3,1.4c0,0.5,0.1,1,0.3,1.4c0.2,0.4,0.5,0.7,0.9,1c0.4,0.2,0.8,0.3,1.3,0.3c0.5,0,1-0.1,1.4-0.4V899.3z"/>
		</g>
		<g>
			<g>
				<g>
					<path class="st5" d="M217.4,834.4h-18.9c0,0,0,0,0,0c0,0,0,0,0,0c0,0-0.1,0-0.1,0c0,0,0,0,0,0c0,0-0.1,0-0.1,0c0,0,0,0,0,0
					c0,0,0,0-0.1,0c0,0,0,0,0,0c0,0,0,0-0.1,0c0,0,0,0,0,0c0,0,0,0-0.1,0.1c0,0,0,0,0,0l-6.8,6.8c0,0,0,0,0,0c0,0,0,0-0.1,0.1
					c0,0,0,0,0,0c0,0,0,0,0,0.1c0,0,0,0,0,0c0,0,0,0,0,0.1c0,0,0,0,0,0c0,0,0,0.1,0,0.1c0,0,0,0,0,0c0,0,0,0.1,0,0.1c0,0,0,0,0,0
					c0,0,0,0,0,0v29.7c0,1.1,0.9,2,2,2h24.3c1.1,0,2-0.9,2-2v-35.1C219.3,835.2,218.5,834.4,217.4,834.4z M197.8,836.5v3.9
					c0,0.4-0.3,0.7-0.7,0.7h-3.9L197.8,836.5z M218.1,871.5c0,0.4-0.3,0.7-0.7,0.7H193c-0.4,0-0.7-0.3-0.7-0.7v-29.1h4.8
					c1.1,0,2-0.9,2-2v-4.8h18.3c0.4,0,0.7,0.3,0.7,0.7V871.5z"/>
					<path class="st5" d="M197.1,852.5h16.2c0.3,0,0.6-0.3,0.6-0.6c0-0.3-0.3-0.6-0.6-0.6h-16.2c-0.3,0-0.6,0.3-0.6,0.6
					C196.5,852.2,196.7,852.5,197.1,852.5z"/>
					<path class="st5" d="M197.1,855.9h16.2c0.3,0,0.6-0.3,0.6-0.6c0-0.3-0.3-0.6-0.6-0.6h-16.2c-0.3,0-0.6,0.3-0.6,0.6
					C196.5,855.6,196.7,855.9,197.1,855.9z"/>
					<path class="st5" d="M197.1,859.3h8.1c0.3,0,0.6-0.3,0.6-0.6s-0.3-0.6-0.6-0.6h-8.1c-0.3,0-0.6,0.3-0.6,0.6
					S196.7,859.3,197.1,859.3z"/>
					<path class="st5" d="M205.8,862c0-0.3-0.3-0.6-0.6-0.6h-8.1c-0.3,0-0.6,0.3-0.6,0.6s0.3,0.6,0.6,0.6h8.1
					C205.6,862.6,205.8,862.4,205.8,862z"/>
					<path class="st5" d="M208.5,845.3c0-0.3-0.3-0.6-0.6-0.6c-0.3,0-0.6,0.3-0.6,0.6c0,1.2,1.1,2.2,2.7,2.4v0.1
					c0,0.3,0.3,0.6,0.6,0.6c0.3,0,0.6-0.3,0.6-0.6v-0.1c1.6-0.2,2.7-1.2,2.7-2.4s-1.1-2.2-2.7-2.4v-2.4c0.8,0.2,1.4,0.6,1.4,1.2
					c0,0.3,0.3,0.6,0.6,0.6c0.3,0,0.6-0.3,0.6-0.6c0-1.2-1.1-2.2-2.7-2.4V839c0-0.3-0.3-0.6-0.6-0.6c-0.3,0-0.6,0.3-0.6,0.6v0.1
					c-1.6,0.2-2.7,1.2-2.7,2.4c0,1.2,1.1,2.2,2.7,2.4v2.4C209.2,846.3,208.5,845.9,208.5,845.3z M212.7,845.3c0,0.6-0.7,1-1.4,1.2
					v-2.3C212,844.3,212.7,844.7,212.7,845.3z M208.5,841.6c0-0.6,0.7-1,1.4-1.2v2.3C209.2,842.6,208.5,842.1,208.5,841.6z"/>
					<path class="st5" d="M214.6,861.4c-0.3-0.2-0.7-0.1-0.9,0.2l-1.3,2.3l-0.2-0.1c-0.2-0.1-0.3-0.2-0.5-0.1c-0.2,0-0.3,0.2-0.4,0.3
					l-0.7,1.3l-0.2-0.2c-0.3-0.4-0.8-0.5-1.2-0.4c-0.5,0.1-0.8,0.4-1,0.9l-0.7,2.1l-1.7-2.2c-0.1-0.1-0.3-0.2-0.4-0.2
					c-0.2,0-0.3,0-0.5,0.2L203,867c-0.3,0.2-0.3,0.6-0.1,0.9c0.2,0.3,0.6,0.3,0.9,0.1l1.3-1.2l1.7,2.1c0.2,0.2,0.5,0.4,0.8,0.4
					c0.1,0,0.1,0,0.2,0c0.3-0.1,0.6-0.3,0.8-0.6l0.9-2.6c0,0,0,0,0,0c0,0,0,0,0,0l0.8,1c0.1,0.2,0.3,0.2,0.6,0.2
					c0.2,0,0.4-0.2,0.5-0.3l0.7-1.5l0.1,0.1c0.1,0.1,0.3,0.2,0.5,0.1c0.2,0,0.3-0.1,0.4-0.3l1.7-2.9
					C215,862,214.9,861.6,214.6,861.4z"/>
				</g>
			</g>

			<radialGradient id="SVGID_3_" cx="110.0449" cy="5732.2231" r="59.465" gradientTransform="matrix(0.5538 0 0 4.348000e-02 144.3805 628.8812)" gradientUnits="userSpaceOnUse">
				<stop offset="0.1034" style="stop-color:#E0E3E2"/>
				<stop offset="0.2677" style="stop-color:#E9EBEA"/>
				<stop offset="0.684" style="stop-color:#F9FAFA"/>
				<stop offset="1" style="stop-color:#FFFFFF"/>
			</radialGradient>
			<ellipse class="st15" cx="205.3" cy="878.1" rx="46.5" ry="2.2"/>
			<path class="st9" d="M227.6,859.6c0,0-0.9,8.8-7.8,9.4c6.9,0.6,7.8,9.4,7.8,9.4s0.9-8.8,7.8-9.4
			C228.5,868.4,227.6,859.6,227.6,859.6z"/>
			<path class="st9" d="M233,835.9c0,0-0.6,5.8-5.2,6.2c4.6,0.4,5.2,6.2,5.2,6.2s0.6-5.8,5.2-6.2C233.5,841.7,233,835.9,233,835.9z" />
		</g>
	</g>
	<g>
		<g>
			<path class="st10" d="M52.3,740.9v2.1h3.4v1.1h-3.4v2.7H51v-7h5.1v1.1H52.3z"/>
			<path class="st10" d="M62.2,741.5v5.3H61v-0.7c-0.2,0.2-0.4,0.4-0.8,0.6c-0.3,0.1-0.6,0.2-1,0.2c-0.7,0-1.3-0.2-1.7-0.6
			c-0.4-0.4-0.6-1-0.6-1.8v-3h1.2v2.9c0,0.5,0.1,0.8,0.3,1.1s0.5,0.4,0.9,0.4c0.4,0,0.8-0.1,1.1-0.4c0.3-0.3,0.4-0.7,0.4-1.2v-2.7
			H62.2z"/>
			<path class="st10" d="M68.4,742c0.4,0.4,0.6,1,0.6,1.8v3.1h-1.2v-2.9c0-0.5-0.1-0.8-0.3-1.1s-0.5-0.4-0.9-0.4
			c-0.5,0-0.8,0.1-1.1,0.4c-0.3,0.3-0.4,0.7-0.4,1.2v2.7h-1.3v-5.3H65v0.7c0.2-0.2,0.5-0.4,0.8-0.6s0.7-0.2,1.1-0.2
			C67.5,741.4,68,741.6,68.4,742z"/>
			<path class="st10" d="M75.8,739.4v7.4h-1.2v-0.7c-0.2,0.3-0.5,0.4-0.8,0.6c-0.3,0.1-0.6,0.2-1,0.2c-0.5,0-1-0.1-1.4-0.3
			c-0.4-0.2-0.7-0.5-1-1c-0.2-0.4-0.4-0.9-0.4-1.4s0.1-1,0.4-1.4c0.2-0.4,0.6-0.7,1-1c0.4-0.2,0.9-0.3,1.4-0.3c0.4,0,0.7,0.1,1,0.2
			s0.5,0.3,0.8,0.5v-2.7H75.8z M73.8,745.6c0.2-0.1,0.4-0.3,0.6-0.6c0.1-0.3,0.2-0.5,0.2-0.9s-0.1-0.6-0.2-0.9
			c-0.1-0.3-0.3-0.4-0.6-0.6c-0.2-0.1-0.5-0.2-0.8-0.2s-0.6,0.1-0.8,0.2c-0.2,0.1-0.4,0.3-0.6,0.6c-0.1,0.3-0.2,0.5-0.2,0.9
			s0.1,0.6,0.2,0.9c0.1,0.3,0.3,0.4,0.6,0.6c0.2,0.1,0.5,0.2,0.8,0.2S73.6,745.8,73.8,745.6z"/>
			<path class="st10" d="M77.8,746.7c-0.4-0.1-0.7-0.3-1-0.4l0.5-1c0.2,0.2,0.5,0.3,0.9,0.4c0.3,0.1,0.7,0.1,1,0.1
			c0.7,0,1.1-0.2,1.1-0.6c0-0.2-0.1-0.3-0.3-0.4c-0.2-0.1-0.5-0.1-0.9-0.2c-0.4-0.1-0.8-0.1-1.1-0.2c-0.3-0.1-0.5-0.2-0.7-0.5
			c-0.2-0.2-0.3-0.5-0.3-0.9c0-0.5,0.2-0.9,0.6-1.2c0.4-0.3,1-0.5,1.7-0.5c0.4,0,0.7,0,1.1,0.1c0.4,0.1,0.7,0.2,0.9,0.3l-0.5,1
			c-0.5-0.3-1-0.4-1.5-0.4c-0.4,0-0.6,0.1-0.8,0.2c-0.2,0.1-0.3,0.3-0.3,0.4c0,0.2,0.1,0.3,0.3,0.4c0.2,0.1,0.5,0.2,0.9,0.2
			c0.4,0.1,0.8,0.1,1.1,0.2c0.3,0.1,0.5,0.2,0.7,0.4c0.2,0.2,0.3,0.5,0.3,0.9c0,0.5-0.2,0.9-0.6,1.2c-0.4,0.3-1,0.5-1.8,0.5
			C78.6,746.9,78.2,746.9,77.8,746.7z"/>
		</g>
		<g>
			<path class="st10" d="M52.6,751.9h-2.5v-1.6H57v1.6h-2.5v6.8h-1.8V751.9z"/>
			<path class="st10" d="M62.9,758.7l-1.5-2.3h-0.1h-1.6v2.3h-1.8v-8.4h3.4c0.7,0,1.3,0.1,1.8,0.4c0.5,0.2,0.9,0.6,1.2,1.1
			s0.4,1,0.4,1.6s-0.1,1.2-0.4,1.6c-0.3,0.5-0.7,0.8-1.2,1l1.8,2.7H62.9z M62.5,752.3c-0.3-0.3-0.7-0.4-1.3-0.4h-1.5v2.9h1.5
			c0.6,0,1-0.1,1.3-0.4c0.3-0.3,0.4-0.6,0.4-1.1C62.9,752.9,62.8,752.5,62.5,752.3z"/>
			<path class="st10" d="M71.3,756.9h-3.7l-0.7,1.8h-1.9l3.5-8.4h1.8l3.6,8.4H72L71.3,756.9z M70.8,755.4l-1.3-3.2l-1.3,3.2H70.8z"/>
			<path class="st10" d="M82,750.3v8.4h-1.5l-4-5.1v5.1h-1.8v-8.4h1.5l4,5.1v-5.1H82z"/>
			<path class="st10" d="M84.5,758.6c-0.6-0.2-1.1-0.4-1.4-0.7l0.6-1.5c0.3,0.3,0.7,0.5,1.2,0.6s0.9,0.2,1.4,0.2
			c0.5,0,0.9-0.1,1.2-0.2s0.4-0.4,0.4-0.7c0-0.2-0.1-0.4-0.2-0.5c-0.1-0.1-0.3-0.2-0.6-0.3s-0.5-0.2-0.9-0.3
			c-0.6-0.2-1.1-0.3-1.5-0.5c-0.4-0.2-0.7-0.4-1-0.7c-0.3-0.3-0.4-0.8-0.4-1.3c0-0.5,0.1-0.9,0.4-1.3c0.2-0.4,0.6-0.7,1.1-0.9
			c0.5-0.2,1.1-0.3,1.8-0.3c0.5,0,1,0.1,1.5,0.2c0.5,0.1,0.9,0.3,1.3,0.6l-0.6,1.5c-0.7-0.4-1.5-0.7-2.2-0.7c-0.5,0-0.9,0.1-1.1,0.3
			s-0.4,0.4-0.4,0.7c0,0.3,0.1,0.5,0.4,0.6c0.3,0.1,0.7,0.3,1.3,0.4c0.6,0.2,1.1,0.3,1.5,0.5c0.4,0.2,0.7,0.4,1,0.7
			c0.3,0.3,0.4,0.8,0.4,1.3c0,0.5-0.1,0.9-0.4,1.3c-0.3,0.4-0.6,0.7-1.1,0.9c-0.5,0.2-1.1,0.3-1.9,0.3
			C85.7,758.9,85.1,758.8,84.5,758.6z"/>
			<path class="st10" d="M96.1,756.9h-3.7l-0.7,1.8h-1.9l3.5-8.4h1.8l3.6,8.4h-1.9L96.1,756.9z M95.6,755.4l-1.3-3.2l-1.3,3.2H95.6z" />
			<path class="st10" d="M101,758.3c-0.7-0.4-1.2-0.9-1.5-1.5c-0.4-0.7-0.6-1.4-0.6-2.2s0.2-1.6,0.6-2.2c0.4-0.7,0.9-1.2,1.5-1.5
			s1.4-0.6,2.2-0.6c0.7,0,1.3,0.1,1.9,0.4c0.6,0.3,1,0.6,1.4,1.1l-1.2,1.2c-0.5-0.7-1.2-1-2-1c-0.5,0-0.9,0.1-1.3,0.3
			c-0.4,0.2-0.7,0.5-0.9,1s-0.3,0.9-0.3,1.4c0,0.5,0.1,1,0.3,1.4c0.2,0.4,0.5,0.7,0.9,1c0.4,0.2,0.8,0.3,1.3,0.3c0.8,0,1.5-0.3,2-1
			l1.2,1.2c-0.4,0.5-0.8,0.9-1.4,1.1s-1.2,0.4-1.9,0.4C102.4,758.9,101.6,758.7,101,758.3z"/>
			<path class="st10" d="M109.2,751.9h-2.5v-1.6h6.9v1.6H111v6.8h-1.8V751.9z"/>
			<path class="st10" d="M114.4,750.3h1.8v8.4h-1.8V750.3z"/>
			<path class="st10" d="M119.6,758.3c-0.7-0.4-1.2-0.9-1.6-1.6c-0.4-0.7-0.6-1.4-0.6-2.2c0-0.8,0.2-1.6,0.6-2.2
			c0.4-0.7,0.9-1.2,1.6-1.6c0.7-0.4,1.4-0.6,2.2-0.6s1.6,0.2,2.2,0.6c0.7,0.4,1.2,0.9,1.6,1.6c0.4,0.7,0.6,1.4,0.6,2.2
			c0,0.8-0.2,1.6-0.6,2.2c-0.4,0.7-0.9,1.2-1.6,1.6c-0.7,0.4-1.4,0.6-2.2,0.6S120.3,758.7,119.6,758.3z M123.2,756.9
			c0.4-0.2,0.7-0.5,0.9-1c0.2-0.4,0.3-0.9,0.3-1.4c0-0.5-0.1-1-0.3-1.4c-0.2-0.4-0.5-0.7-0.9-1c-0.4-0.2-0.8-0.3-1.3-0.3
			s-0.9,0.1-1.3,0.3c-0.4,0.2-0.7,0.5-0.9,1s-0.3,0.9-0.3,1.4c0,0.5,0.1,1,0.3,1.4c0.2,0.4,0.5,0.7,0.9,1c0.4,0.2,0.8,0.3,1.3,0.3
			S122.8,757.1,123.2,756.9z"/>
			<path class="st10" d="M134.8,750.3v8.4h-1.5l-4-5.1v5.1h-1.8v-8.4h1.5l4,5.1v-5.1H134.8z"/>
		</g>
		<g>
			<g>
				<path class="st18" d="M41,762.9c0.2,1.2-0.1,2.3-0.8,3.3c-0.8,1-1.7,1.6-2.9,1.8c-0.9,0.1-1.7,0-2.4-0.6
				c-0.7-0.5-1.2-1.2-1.3-2.1c-0.2-1.2,0.1-2.3,0.9-3.4c0.8-1.1,1.8-1.7,2.9-1.9c0.9-0.1,1.7,0,2.4,0.6
				C40.4,761.3,40.8,762,41,762.9z M44.2,729.5c0.1,0.7,0,1.9-0.5,3.5c-0.3,1.2-1,4-1.8,8.5c-0.9,4.5-1.4,7.2-1.6,8.3
				c-0.2,1.1-0.3,2.3-0.3,3.8c0,1.2-0.7,1.8-2,2.1c-1.7,0.3-2.7-0.4-3-2.1c-0.3-1.8,0.2-5.3,1.4-10.7c1.3-5.4,2.3-9.1,3.1-11.2
				c0.8-2.1,1.8-3.2,2.8-3.3C43.4,728.1,44,728.5,44.2,729.5z"/>
			</g>

			<radialGradient id="SVGID_4_" cx="-133.8393" cy="5382.4858" r="59.465" gradientTransform="matrix(0.5538 0 0 4.348000e-02 144.3805 492.022)" gradientUnits="userSpaceOnUse">
				<stop offset="0.1034" style="stop-color:#E0E3E2"/>
				<stop offset="0.2677" style="stop-color:#E9EBEA"/>
				<stop offset="0.684" style="stop-color:#F9FAFA"/>
				<stop offset="1" style="stop-color:#FFFFFF"/>
			</radialGradient>
			<ellipse class="st17" cx="70.3" cy="726.1" rx="46.5" ry="2.2"/>
		</g>
		<path class="st47" d="M95.9,717.1L50.6,719l28.6-35.4l7.1,14.4L58,715.1l30.7-12.5C88.7,702.6,96,717.1,95.9,717.1z"/>
	</g>
	<g>
		<g>
			<path class="st10" d="M66.6,618.5c-0.6-0.2-1.1-0.4-1.4-0.7l0.6-1.5c0.3,0.3,0.7,0.5,1.2,0.6s0.9,0.2,1.4,0.2
			c0.5,0,0.9-0.1,1.2-0.2s0.4-0.4,0.4-0.7c0-0.2-0.1-0.4-0.2-0.5c-0.1-0.1-0.3-0.2-0.6-0.3s-0.5-0.2-0.9-0.3
			c-0.6-0.2-1.1-0.3-1.5-0.5c-0.4-0.2-0.7-0.4-1-0.7c-0.3-0.3-0.4-0.8-0.4-1.3c0-0.5,0.1-0.9,0.4-1.3c0.2-0.4,0.6-0.7,1.1-0.9
			c0.5-0.2,1.1-0.3,1.8-0.3c0.5,0,1,0.1,1.5,0.2c0.5,0.1,0.9,0.3,1.3,0.6l-0.6,1.5c-0.7-0.4-1.5-0.7-2.2-0.7c-0.5,0-0.9,0.1-1.1,0.3
			s-0.4,0.4-0.4,0.7c0,0.3,0.1,0.5,0.4,0.6c0.3,0.1,0.7,0.3,1.3,0.4c0.6,0.2,1.1,0.3,1.5,0.5c0.4,0.2,0.7,0.4,1,0.7
			c0.3,0.3,0.4,0.8,0.4,1.3c0,0.5-0.1,0.9-0.4,1.3c-0.3,0.4-0.6,0.7-1.1,0.9c-0.5,0.2-1.1,0.3-1.9,0.3
			C67.8,618.7,67.2,618.6,66.6,618.5z"/>
			<path class="st10" d="M74.5,611.8H72v-1.6h6.9v1.6h-2.5v6.8h-1.8V611.8z"/>
			<path class="st10" d="M84.6,616.8h-3.7l-0.7,1.8h-1.9l3.5-8.4h1.8l3.6,8.4h-1.9L84.6,616.8z M84,615.3l-1.3-3.2l-1.3,3.2H84z"/>
			<path class="st10" d="M93,618.6l-1.5-2.3h-0.1h-1.6v2.3H88v-8.4h3.4c0.7,0,1.3,0.1,1.8,0.4c0.5,0.2,0.9,0.6,1.2,1.1s0.4,1,0.4,1.6
			s-0.1,1.2-0.4,1.6c-0.3,0.5-0.7,0.8-1.2,1l1.8,2.7H93z M92.6,612.1c-0.3-0.3-0.7-0.4-1.3-0.4h-1.5v2.9h1.5c0.6,0,1-0.1,1.3-0.4
			c0.3-0.3,0.4-0.6,0.4-1.1C93,612.8,92.9,612.4,92.6,612.1z"/>
			<path class="st10" d="M97.7,611.8h-2.5v-1.6h6.9v1.6h-2.5v6.8h-1.8V611.8z"/>
		</g>
		<g>
			<g>
				<path class="st5" d="M75.5,566L75.5,566c-0.4-0.3-0.8-0.6-1.3-0.7l-0.2-0.1l-0.1-0.2c-0.2-0.5-0.5-0.9-0.9-1.2
				c-0.6-0.5-1.4-0.8-2.1-0.8c-0.1,0-0.1,0-0.2,0c-1.8,0.1-3.1,1.6-3,3.4l0.2,4.7c0,0.2,0.1,0.4,0.3,0.6c0.2,0.2,0.4,0.2,0.6,0.2
				l4.7-0.2c1.8-0.1,3.1-1.6,3-3.4C76.5,567.4,76.2,566.6,75.5,566z M74.5,569.4c-0.3,0.3-0.6,0.5-1,0.5l-3.8,0.2l-0.2-3.8
				c0-0.8,0.6-1.5,1.4-1.5c0.4,0,0.8,0.1,1.1,0.4c0.3,0.3,0.5,0.6,0.5,1c0,0.2,0.1,0.4,0.3,0.6c0.2,0.2,0.4,0.2,0.6,0.2
				c0.4,0,0.8,0.1,1.1,0.4c0.3,0.3,0.5,0.6,0.5,1C74.9,568.7,74.7,569.1,74.5,569.4z"/>
				<path class="st5" d="M83.6,557c-0.4-0.3-0.8-0.6-1.3-0.7l-0.2-0.1l-0.1-0.2c-0.2-0.5-0.5-0.9-0.9-1.2c-0.6-0.5-1.4-0.8-2.1-0.8
				c-0.1,0-0.1,0-0.2,0c-1.8,0.1-3.1,1.6-3,3.4l0.2,4.7c0,0.2,0.1,0.4,0.3,0.6c0.2,0.2,0.4,0.2,0.6,0.2l4.7-0.2
				c1.8-0.1,3.1-1.6,3-3.4C84.6,558.4,84.3,557.6,83.6,557z M81.6,560.9l-3.8,0.2l-0.2-3.8c0-0.4,0.1-0.8,0.4-1.1
				c0.3-0.3,0.6-0.5,1-0.5c0.4,0,0.8,0.1,1.1,0.4c0.3,0.3,0.5,0.6,0.5,1c0,0.2,0.1,0.4,0.3,0.6c0.2,0.2,0.4,0.2,0.6,0.2
				c0.4,0,0.8,0.1,1.1,0.4c0.3,0.3,0.5,0.6,0.5,1C83,560.2,82.4,560.8,81.6,560.9z"/>
				<path class="st5" d="M95.3,541.6c-0.2-0.2-0.4-0.2-0.7-0.2c-11.5,1.4-22,7.6-28.7,17l-2.6,3.6l-13.4,5c-0.2,0.1-0.3,0.2-0.4,0.4
				l-4.8,8.1c-0.2,0.3-0.2,0.6,0,0.8c0,0.1,0.1,0.2,0.2,0.3c0.1,0.1,0.3,0.2,0.5,0.2l8,0.9l4.6,4.1l-2.7,3c-0.3,0.4-0.3,0.9,0.1,1.2
				c0.2,0.2,0.4,0.2,0.6,0.2c0.2,0,0.4-0.1,0.6-0.3l2.7-3l4.6,4.1l1.7,7.8c0,0.2,0.1,0.3,0.3,0.5c0.1,0.1,0.2,0.1,0.3,0.2
				c0.3,0.1,0.6,0.1,0.8-0.1l7.5-5.5c0.2-0.1,0.3-0.3,0.3-0.5l3.6-13.8l3.3-3c8.7-7.7,13.8-18.7,14-30.3
				C95.6,542,95.5,541.8,95.3,541.6z M53.3,575.8l-6.4-0.7l3.9-6.6l10.6-4L53.3,575.8z M73.1,588.6l-6.2,4.6l-1.3-6.3l10.4-9.2
				L73.1,588.6z M91.3,555.6c-2.3,6-6,11.4-10.8,15.6l-15.9,14.1l-4.2-3.8l5.3-5.9c0.2-0.2,0.2-0.4,0.2-0.6c0-0.2-0.1-0.4-0.3-0.6
				c-0.4-0.3-0.9-0.3-1.2,0.1l-5.3,5.9l-4.2-3.8l12.4-17.3c3.7-5.2,8.7-9.4,14.5-12.3l0.4-0.2l0.2,0.4c0.8,1.9,1.9,3.6,3.4,4.9
				c1.5,1.4,3.3,2.4,5.2,2.9l0.4,0.1L91.3,555.6z M93.8,543.8c-0.2,3.2-0.8,6.4-1.7,9.5l-0.1,0.4l-0.4-0.1c-1.7-0.5-3.3-1.4-4.7-2.6
				c-1.3-1.2-2.4-2.7-3-4.4l-0.1-0.4l0.4-0.2c3-1.3,6.1-2.2,9.2-2.7l0.5-0.1L93.8,543.8z"/>
			</g>
			<path class="st37" d="M130,552.3c-0.4-1.7-2-3-3.8-3c-0.3,0-0.7,0-1,0.1c-0.9-2-2.9-3.3-5.2-3.3c-0.6,0-1.2,0.1-1.7,0.3
			c-1.2-2.1-3.5-3.4-6.1-3.4c-3.1,0-5.7,2-6.7,4.7c-0.7-0.4-1.5-0.6-2.4-0.6c-2.7,0-4.9,2.2-4.9,4.9c0,0.2,0,0.3,0,0.5H130z"/>
			<path class="st37" d="M63.2,559.1c-0.4-1.6-1.8-2.9-3.6-2.9c-0.3,0-0.6,0-0.9,0.1c-0.9-1.8-2.7-3.1-4.9-3.1
			c-0.6,0-1.1,0.1-1.6,0.2c-1.2-1.9-3.3-3.2-5.7-3.2c-2.9,0-5.3,1.8-6.3,4.4c-0.7-0.4-1.4-0.6-2.2-0.6c-2.5,0-4.6,2.1-4.6,4.6
			c0,0.1,0,0.3,0,0.4H63.2z"/>
			<path class="st9" d="M68.5,604.7c0,0-0.4,3.8-3.4,4.1c3,0.3,3.4,4.1,3.4,4.1s0.4-3.8,3.4-4.1C68.9,608.6,68.5,604.7,68.5,604.7z" />
		</g>

		<radialGradient id="SVGID_5_" cx="-106.0403" cy="5101.936" r="59.0436" gradientTransform="matrix(0.5538 0 0 4.348000e-02 144.3805 382.2372)" gradientUnits="userSpaceOnUse">
			<stop offset="0.1034" style="stop-color:#E0E3E2"/>
			<stop offset="0.2677" style="stop-color:#E9EBEA"/>
			<stop offset="0.684" style="stop-color:#F9FAFA"/>
			<stop offset="1" style="stop-color:#FFFFFF"/>
		</radialGradient>
		<ellipse class="st19" cx="85.7" cy="604.1" rx="46.2" ry="2.2"/>
	</g>
	<g>
		<g>
			<polygon class="st49" points="124.8,96.5 112.7,96.5 112.7,84.4 101.1,84.4 101.1,96.5 88.9,96.5 88.9,108.3 101.1,108.3 
			101.1,120.4 112.7,120.4 112.7,108.3 124.8,108.3 		"/>

			<radialGradient id="SVGID_6_" cx="2822.4998" cy="2265.1187" r="59.465" gradientTransform="matrix(0.296 0 0 5.423031e-02 -727.3148 1.1063)" gradientUnits="userSpaceOnUse">
				<stop offset="0.1034" style="stop-color:#E0E3E2"/>
				<stop offset="0.2677" style="stop-color:#E9EBEA"/>
				<stop offset="0.684" style="stop-color:#F9FAFA"/>
				<stop offset="1" style="stop-color:#FFFFFF"/>
			</radialGradient>
			<ellipse class="st29" cx="108.1" cy="123.9" rx="24.8" ry="2.7"/>
		</g>
		<path class="st9" d="M128.3,84.3c0,0-0.6,5.8-5.2,6.2c4.6,0.4,5.2,6.2,5.2,6.2s0.6-5.8,5.2-6.2C128.9,90.1,128.3,84.3,128.3,84.3z" />
		<path class="st9" d="M137.2,95.4c0,0-0.4,3.6-3.2,3.9c2.9,0.3,3.2,3.9,3.2,3.9s0.4-3.6,3.2-3.9C137.5,99.1,137.2,95.4,137.2,95.4z" />
		<g>
			<path class="st10" d="M82.3,133.8v2.5H81v-2.5l-2.8-4.5h1.4l2.1,3.4l2.1-3.4H85L82.3,133.8z"/>
			<path class="st10" d="M86.1,136c-0.4-0.2-0.8-0.6-1-1c-0.2-0.4-0.4-0.9-0.4-1.4s0.1-1,0.4-1.4c0.2-0.4,0.6-0.7,1-1
			c0.4-0.2,0.9-0.4,1.5-0.4c0.5,0,1,0.1,1.5,0.4c0.4,0.2,0.8,0.6,1,1c0.2,0.4,0.4,0.9,0.4,1.4s-0.1,1-0.4,1.4c-0.2,0.4-0.6,0.7-1,1
			c-0.4,0.2-0.9,0.4-1.5,0.4C87,136.3,86.5,136.2,86.1,136z M88.7,134.8c0.3-0.3,0.5-0.7,0.5-1.2s-0.1-0.9-0.5-1.2
			c-0.3-0.3-0.7-0.5-1.1-0.5c-0.5,0-0.8,0.2-1.1,0.5c-0.3,0.3-0.4,0.7-0.4,1.2s0.1,0.9,0.4,1.2c0.3,0.3,0.7,0.5,1.1,0.5
			C88,135.2,88.4,135.1,88.7,134.8z"/>
			<path class="st10" d="M96.7,130.9v5.3h-1.2v-0.7c-0.2,0.2-0.4,0.4-0.8,0.6c-0.3,0.1-0.6,0.2-1,0.2c-0.7,0-1.3-0.2-1.7-0.6
			c-0.4-0.4-0.6-1-0.6-1.8v-3h1.2v2.9c0,0.5,0.1,0.8,0.3,1.1s0.5,0.4,0.9,0.4c0.4,0,0.8-0.1,1.1-0.4c0.3-0.3,0.4-0.7,0.4-1.2v-2.7
			H96.7z"/>
			<path class="st10" d="M105.6,131.4c0.4,0.4,0.6,1,0.6,1.8v3.1H105v-2.9c0-0.5-0.1-0.8-0.3-1.1s-0.5-0.4-0.9-0.4
			c-0.5,0-0.8,0.1-1.1,0.4c-0.3,0.3-0.4,0.7-0.4,1.2v2.7H101v-5.3h1.2v0.7c0.2-0.2,0.5-0.4,0.8-0.6s0.7-0.2,1.1-0.2
			C104.7,130.8,105.2,131,105.6,131.4z"/>
			<path class="st10" d="M112.8,134h-4.2c0.1,0.4,0.3,0.7,0.6,0.9c0.3,0.2,0.7,0.3,1.2,0.3c0.6,0,1.1-0.2,1.5-0.6l0.7,0.8
			c-0.2,0.3-0.5,0.5-0.9,0.6c-0.4,0.1-0.8,0.2-1.2,0.2c-0.6,0-1.1-0.1-1.6-0.4c-0.4-0.2-0.8-0.6-1-1c-0.2-0.4-0.4-0.9-0.4-1.4
			c0-0.5,0.1-1,0.4-1.4c0.2-0.4,0.6-0.7,1-1c0.4-0.2,0.9-0.4,1.4-0.4c0.5,0,1,0.1,1.4,0.3c0.4,0.2,0.7,0.6,1,1s0.3,0.9,0.3,1.4
			C112.9,133.7,112.8,133.8,112.8,134z M109.1,132.2c-0.3,0.2-0.4,0.6-0.5,0.9h3c-0.1-0.4-0.2-0.7-0.5-0.9c-0.3-0.2-0.6-0.4-1-0.4
			C109.8,131.8,109.4,132,109.1,132.2z"/>
			<path class="st10" d="M119,134h-4.2c0.1,0.4,0.3,0.7,0.6,0.9c0.3,0.2,0.7,0.3,1.2,0.3c0.6,0,1.1-0.2,1.5-0.6l0.7,0.8
			c-0.2,0.3-0.5,0.5-0.9,0.6c-0.4,0.1-0.8,0.2-1.2,0.2c-0.6,0-1.1-0.1-1.6-0.4c-0.4-0.2-0.8-0.6-1-1c-0.2-0.4-0.4-0.9-0.4-1.4
			c0-0.5,0.1-1,0.4-1.4c0.2-0.4,0.6-0.7,1-1c0.4-0.2,0.9-0.4,1.4-0.4c0.5,0,1,0.1,1.4,0.3c0.4,0.2,0.7,0.6,1,1s0.3,0.9,0.3,1.4
			C119,133.7,119,133.8,119,134z M115.3,132.2c-0.3,0.2-0.4,0.6-0.5,0.9h3c-0.1-0.4-0.2-0.7-0.5-0.9c-0.3-0.2-0.6-0.4-1-0.4
			C115.9,131.8,115.6,132,115.3,132.2z"/>
			<path class="st10" d="M125.4,128.8v7.4h-1.2v-0.7c-0.2,0.3-0.5,0.4-0.8,0.6c-0.3,0.1-0.6,0.2-1,0.2c-0.5,0-1-0.1-1.4-0.3
			c-0.4-0.2-0.7-0.5-1-1c-0.2-0.4-0.4-0.9-0.4-1.4s0.1-1,0.4-1.4c0.2-0.4,0.6-0.7,1-1c0.4-0.2,0.9-0.3,1.4-0.3c0.4,0,0.7,0.1,1,0.2
			s0.5,0.3,0.8,0.5v-2.7H125.4z M123.4,135c0.2-0.1,0.4-0.3,0.6-0.6c0.1-0.3,0.2-0.5,0.2-0.9s-0.1-0.6-0.2-0.9
			c-0.1-0.3-0.3-0.4-0.6-0.6c-0.2-0.1-0.5-0.2-0.8-0.2s-0.6,0.1-0.8,0.2c-0.2,0.1-0.4,0.3-0.6,0.6c-0.1,0.3-0.2,0.5-0.2,0.9
			s0.1,0.6,0.2,0.9c0.1,0.3,0.3,0.4,0.6,0.6c0.2,0.1,0.5,0.2,0.8,0.2S123.2,135.2,123.4,135z"/>
		</g>
		<g>
			<path class="st10" d="M80.9,141.3h-2.5v-1.6h6.9v1.6h-2.5v6.8h-1.8V141.3z"/>
			<path class="st10" d="M91.3,148.1l-1.5-2.3h-0.1H88v2.3h-1.8v-8.4h3.4c0.7,0,1.3,0.1,1.8,0.4c0.5,0.2,0.9,0.6,1.2,1.1
			s0.4,1,0.4,1.6s-0.1,1.2-0.4,1.6c-0.3,0.5-0.7,0.8-1.2,1l1.8,2.7H91.3z M90.8,141.7c-0.3-0.3-0.7-0.4-1.3-0.4H88v2.9h1.5
			c0.6,0,1-0.1,1.3-0.4c0.3-0.3,0.4-0.6,0.4-1.1C91.2,142.3,91.1,141.9,90.8,141.7z"/>
			<path class="st10" d="M100.6,146.6v1.6h-6.2v-8.4h6v1.6h-4.2v1.8h3.7v1.5h-3.7v1.9H100.6z"/>
			<path class="st10" d="M107.2,146.3h-3.7l-0.7,1.8h-1.9l3.5-8.4h1.8l3.6,8.4h-1.9L107.2,146.3z M106.6,144.9l-1.3-3.2l-1.3,3.2
			H106.6z"/>
			<path class="st10" d="M111.8,141.3h-2.5v-1.6h6.9v1.6h-2.5v6.8h-1.8V141.3z"/>
			<path class="st10" d="M124.3,148.1l0-5l-2.3,4.2h-0.8l-2.3-4v4.9H117v-8.4h1.5l3,5.2l2.9-5.2h1.5l0,8.4H124.3z"/>
			<path class="st10" d="M133.9,146.6v1.6h-6.2v-8.4h6v1.6h-4.2v1.8h3.7v1.5h-3.7v1.9H133.9z"/>
			<path class="st10" d="M142.6,139.7v8.4h-1.5l-4-5.1v5.1h-1.8v-8.4h1.5l4,5.1v-5.1H142.6z"/>
			<path class="st10" d="M146,141.3h-2.5v-1.6h6.9v1.6h-2.5v6.8H146V141.3z"/>
		</g>
	</g>
	<g>
		<path class="st41" d="M176.4,875.8c-24.1,5.8-53.9,13.2-90.3,24.9c-25.7,8.2-52.2,17.8-66.5,42.8c-3.1,5.4-14.5,27-6.4,46.2
		c7.3,17.2,19.9,26.4,22.1,27.7c20.6,12.2,42,4.4,44.9,3.3"/>
		<path class="st41" d="M32.5,733.1c-2.4,1.7-4.5,4.1-6.7,6.5c-5.6,6-26,27.8-20.3,47.5c8.4,29.3,70.5,38.1,114.4,32.2
		c61.2-8.2,123.9-49.7,119.1-75.9c-3.3-17.7-38.3-33.3-55.5-22.5c-9.2,5.8-15.8,20.6-11.4,32.2c10,26.6,69,11.8,87.3,43.6
		c6.7,11.7,7,27.9,1.7,40.3c-5.4,12.4-16,19.4-33.3,25.3"/>
		<path class="st41" d="M168.1,683.8c-11,8.2,6.4-1.7-10.8,6.2c-19.7,9.1-36.4,14.1-51,17.5"/>
		<path class="st41" d="M97.9,536.6c36.4-24.9,87.1-6.4,96.6-3c15.6,5.7,47.1,17.1,53.8,43.6c2.8,11.1,0.5,21.7-3.2,30.7"/>
		<path class="st41" d="M238.7,454.9c-17.8,5.7-46.1,6-94.2,10.1c-78,6.6-91.7,13.4-102.6,22.9c-23.6,20.8-29.5,51.3-32.2,65.7
		c-4.2,21.8-5.2,56.1,6.4,60.2c5.7,2,11.6-5.2,23.7-14.8"/>
		<path class="st41" d="M105.5,431.1c4.4,0.6,8.5,0.4,12.5-0.6c27.4-6.7,45.3-47.4,92.6-47.3c5.3,0,11.4,0.5,17.6,1.7"/>
		<path class="st41" d="M226.8,327.9c-6.4,3.2-13.1,5.8-19.8,7.7c-16.5,4.6-32.9,4.6-45.5-2.4c-7.2-4-33.9-15.5-43.8-19.8
		c-22.3-9.8-55.3-2.2-65.6,11.9c-3.7,5.1-5.3,9-5.5,16.3"/>
		<path class="st41" d="M88.2,245.3c50-37.6,106.7-46.2,142.2-22c2.2,1.5,31,21.7,29.9,48.9c-0.3,6.3-1.1,10.3-4.4,16.6"/>
		<path class="st41" d="M160,147.6c14.1,4.4,37.2,14.7,58.9,41.2c12.7,15.6,21.3,32.3,27,45.9"/>
	</g>
	<g>
		<g>
			<g>
				<g>

					<radialGradient id="SVGID_7_" cx="-26.4006" cy="6103.4272" r="72.6794" gradientTransform="matrix(0.5538 0 0 4.348000e-02 144.3805 774.1407)" gradientUnits="userSpaceOnUse">
						<stop offset="0.1034" style="stop-color:#E0E3E2"/>
						<stop offset="0.2677" style="stop-color:#E9EBEA"/>
						<stop offset="0.684" style="stop-color:#F9FAFA"/>
						<stop offset="1" style="stop-color:#FFFFFF"/>
					</radialGradient>
					<ellipse class="st31" cx="129.8" cy="1039.5" rx="56.8" ry="2.7"/>
					<g>
						<g>
							<path class="st52" d="M128.1,994.6c1.7,4.7,6.2,8,11.4,8c5.3,0,9.7-3.3,11.4-8"/>
							<g>
								<path class="st21" d="M136.5,987c0,0.8-0.7,1.5-1.5,1.5c-0.8,0-1.5-0.7-1.5-1.5c0-0.8,0.7-1.5,1.5-1.5
								C135.9,985.5,136.5,986.1,136.5,987z"/>
								<path class="st21" d="M145.6,987c0,0.8-0.7,1.5-1.5,1.5s-1.5-0.7-1.5-1.5c0-0.8,0.7-1.5,1.5-1.5S145.6,986.1,145.6,987z"/>
							</g>
						</g>
						<g>
							<path class="st53" d="M123.1,1012.7c-1.4,3.8-5.1,6.6-9.4,6.6c-4.3,0-8-2.7-9.4-6.6"/>
							<g>
								<path class="st23" d="M116.2,1006.5c0,0.7,0.6,1.2,1.2,1.2c0.7,0,1.2-0.6,1.2-1.2c0-0.7-0.6-1.2-1.2-1.2
								C116.7,1005.2,116.2,1005.8,116.2,1006.5z"/>
								<path class="st23" d="M108.8,1006.5c0,0.7,0.6,1.2,1.2,1.2c0.7,0,1.2-0.6,1.2-1.2c0-0.7-0.6-1.2-1.2-1.2
								C109.3,1005.2,108.8,1005.8,108.8,1006.5z"/>
							</g>
							<circle class="st54" cx="113.7" cy="1011.2" r="16.8"/>
						</g>
						<g>
							<g>
								<path class="st55" d="M129.6,1021.4c0.9,2.4,3.2,4.1,5.9,4.1c2.7,0,5.1-1.7,5.9-4.1"/>
								<g>
									<path class="st26" d="M134,1017.4c0,0.4-0.4,0.8-0.8,0.8c-0.4,0-0.8-0.4-0.8-0.8c0-0.4,0.4-0.8,0.8-0.8
									C133.7,1016.6,134,1017,134,1017.4z"/>
									<path class="st26" d="M138.7,1017.4c0,0.4-0.4,0.8-0.8,0.8c-0.4,0-0.8-0.4-0.8-0.8c0-0.4,0.4-0.8,0.8-0.8
									C138.4,1016.6,138.7,1017,138.7,1017.4z"/>
								</g>
							</g>
						</g>
						<circle class="st56" cx="138.6" cy="991.7" r="20.1"/>
						<circle class="st57" cx="136" cy="1020" r="10.6"/>
					</g>
				</g>
			</g>
		</g>
		<g>
			<path class="st3" d="M183.8,990.8v5.9h-5.5v-6l-6.2-10.3h5.8l3.3,5.6l3.4-5.6h5.3L183.8,990.8z"/>
			<path class="st3" d="M193.8,996c-1.4-0.7-2.5-1.7-3.3-3c-0.8-1.3-1.2-2.8-1.2-4.4c0-1.6,0.4-3.1,1.2-4.4c0.8-1.3,1.9-2.3,3.3-3
			c1.4-0.7,3-1.1,4.7-1.1c1.8,0,3.3,0.4,4.7,1.1s2.5,1.7,3.3,3c0.8,1.3,1.2,2.8,1.2,4.4c0,1.6-0.4,3.1-1.2,4.4
			c-0.8,1.3-1.9,2.3-3.3,3s-3,1.1-4.7,1.1C196.7,997,195.2,996.7,193.8,996z M200.4,992.1c0.6-0.3,1-0.8,1.3-1.4
			c0.3-0.6,0.5-1.3,0.5-2.2c0-0.8-0.2-1.5-0.5-2.2c-0.3-0.6-0.8-1.1-1.3-1.4c-0.6-0.3-1.2-0.5-1.9-0.5c-0.7,0-1.3,0.2-1.9,0.5
			c-0.6,0.3-1,0.8-1.3,1.4c-0.3,0.6-0.5,1.3-0.5,2.2c0,0.8,0.2,1.5,0.5,2.2c0.3,0.6,0.8,1.1,1.3,1.4c0.6,0.3,1.2,0.5,1.9,0.5
			C199.2,992.6,199.8,992.4,200.4,992.1z"/>
			<path class="st3" d="M211.7,995c-1.4-1.4-2.1-3.2-2.1-5.7v-9h5.5v8.8c0,1.2,0.2,2.1,0.6,2.6c0.4,0.5,1,0.8,1.9,0.8
			c0.8,0,1.4-0.3,1.9-0.8c0.4-0.5,0.6-1.4,0.6-2.6v-8.8h5.4v9c0,2.4-0.7,4.3-2.1,5.7c-1.4,1.4-3.3,2-5.9,2
			C215,997,213.1,996.4,211.7,995z"/>
			<path class="st3" d="M188.7,1020.7l0-7.4l-3.5,6h-2.4l-3.5-5.7v7.2h-5v-16.3h4.5l5.3,8.7l5.2-8.7h4.5l0,16.3H188.7z"/>
			<path class="st3" d="M207.5,1017.8h-6.2l-1.1,2.8h-5.6l7.1-16.3h5.4l7.1,16.3h-5.7L207.5,1017.8z M205.9,1013.8l-1.6-4.1l-1.6,4.1
			H205.9z"/>
			<path class="st3" d="M215.1,1004.3h8c1.8,0,3.4,0.3,4.8,1c1.4,0.7,2.5,1.6,3.2,2.8c0.8,1.2,1.2,2.7,1.2,4.3c0,1.7-0.4,3.1-1.2,4.3
			c-0.8,1.2-1.8,2.2-3.2,2.8c-1.4,0.7-3,1-4.8,1h-8V1004.3z M222.9,1016.4c1.2,0,2.1-0.3,2.8-1s1.1-1.6,1.1-2.9
			c0-1.2-0.4-2.2-1.1-2.9s-1.7-1-2.8-1h-2.3v7.7H222.9z"/>
			<path class="st3" d="M247.9,1016.5v4.2h-13.6v-16.3h13.3v4.1h-7.9v1.9h6.9v4h-6.9v2.1H247.9z"/>
			<path class="st3" d="M257.1,1004.3h5.5v16.3h-5.5V1004.3z"/>
			<path class="st3" d="M268.8,1008.6H264v-4.3H279v4.3h-4.8v12.1h-5.5V1008.6z"/>
		</g>
		<g>
			<path class="st18" d="M264.3,977.1c-0.2-1.3-0.6-2.5-1.3-3.5c-0.5-0.7-1.2-1.3-1.9-1.8c-0.7-0.5-1.6-0.8-2.5-1
			c-0.4-0.1-0.7-0.1-1.1-0.1c-1,0-2,0.2-2.9,0.5c-1,0.3-1.9,0.9-2.7,1.6c-0.8,0.7-1.4,1.4-2.1,2.3c-0.2,0.3-0.4,0.7-0.6,1
			c-0.2,0.5-0.4,1-0.6,1.5c-0.1-0.1-0.1-0.1-0.2-0.2c-0.1-0.1-0.1-0.1-0.2-0.2c0,0,0,0-0.1-0.1c-0.5-0.5-1-0.9-1.6-1.2
			c-0.7-0.4-1.5-0.7-2.3-0.9c-0.3-0.1-0.6-0.1-0.9-0.1c-0.3,0-0.6-0.1-0.9-0.1c-0.1,0-0.3,0-0.4,0c-0.4,0-0.9,0.1-1.3,0.2
			c-0.5,0.1-0.9,0.3-1.4,0.5c-0.6,0.3-1.2,0.8-1.7,1.2c-0.4,0.4-0.7,0.8-1,1.3c-0.7,1.1-0.9,2.2-1,3.4c-0.1,0.8,0,1.6,0.2,2.4
			c0.2,0.7,0.5,1.4,0.8,2.1c0.3,0.5,0.7,1.1,1.1,1.5c0.6,0.7,1.2,1.3,1.8,1.9c1,0.9,2.1,1.8,3.2,2.5c1.3,0.9,2.6,1.7,3.9,2.5
			c5.4,3,9.7,4,9.8,2.6c0.2-1.9,0.6-3.7,1.6-5.3c0.1-0.2,0.2-0.4,0.3-0.5c0.9-1.4,1.8-2.8,2.7-4.2c1-1.6,1.9-3.2,2.6-5
			c0.3-0.8,0.4-1.6,0.5-2.4c0-0.4,0.1-0.8,0.1-1.2C264.4,978,264.3,977.5,264.3,977.1z"/>
			<g>
				<path class="st18" d="M262.3,976.9c0.2,0.1,0.3,0.4,0.1,0.6c-0.1,0.2-0.4,0.2-0.6,0.1c-0.2-0.1-0.3-0.4-0.1-0.6
				C261.8,976.8,262.1,976.8,262.3,976.9L262.3,976.9L262.3,976.9z"/>
				<path class="st18" d="M262.1,979.4c0.1,0.1,0.2,0.3,0.1,0.4c-0.1,0.1-0.3,0.2-0.5,0.1c-0.1-0.1-0.2-0.3-0.1-0.4
				C261.7,979.3,261.9,979.3,262.1,979.4L262.1,979.4L262.1,979.4z"/>
				<path class="st18" d="M261.2,981.9c0.1,0.1,0.1,0.2,0.1,0.3c-0.1,0.1-0.2,0.1-0.3,0.1c-0.1-0.1-0.1-0.2-0.1-0.3
				C261,981.9,261.1,981.8,261.2,981.9L261.2,981.9L261.2,981.9z"/>
				<path class="st18" d="M259.9,983.8c0.1,0.1,0.1,0.2,0.1,0.3c-0.1,0.1-0.2,0.1-0.3,0.1c-0.1-0.1-0.1-0.2-0.1-0.3
				C259.6,983.8,259.8,983.7,259.9,983.8L259.9,983.8L259.9,983.8z"/>
			</g>
		</g>
	</g>
	<g>
		<g>
			<path class="st11" d="M202.2,43.9c10.5,0,6.9-1.6,7.5,9.8c0,0.4-0.3,0.8-0.8,0.8h-6.7c-0.4,0-0.8-0.3-0.8-0.8c0-1.3,0-7.6,0-9.1
			C201.4,44.3,201.7,43.9,202.2,43.9z"/>
			<line class="st11" x1="209.3" y1="51.5" x2="200.9" y2="51.5"/>
			<path class="st5" d="M206.9,45.9c0.7-0.2,0.8,1.3,0.1,1.3C206.3,47.3,206.2,45.9,206.9,45.9z"/>
			<path class="st5" d="M206.9,48.2c0.7-0.2,0.8,1.3,0.1,1.3C206.3,49.6,206.2,48.2,206.9,48.2z"/>
			<path class="st12" d="M219.5,47.6c1.2-0.2,9.8,0.4,10.5-1.6c0.5-0.9,1.1-2.5-0.4-3.4c-4.6-0.4-17-2.1-19.8,3.2l-0.1-0.1
			c0,0.8-0.1,6.7,0.1,7.8c0,0,13,0.2,15.1-0.2c7.7-2.3,17.9-9.1,21.4-13.3c0.1-0.9,0-3.2-2.5-2.5c-2.6,0.6-13.3,7.8-13.2,7.8"/>
			<g id="kampania_00000160882796865582597060000005355675168712740775_">

				<radialGradient id="SVGID_8_" cx="323.2879" cy="3850.3792" r="60.8661" gradientTransform="matrix(0.4902 0 0 4.348000e-02 62.5736 -107.522)" gradientUnits="userSpaceOnUse">
					<stop offset="0.1034" style="stop-color:#E0E3E2"/>
					<stop offset="0.2677" style="stop-color:#E9EBEA"/>
					<stop offset="0.684" style="stop-color:#F9FAFA"/>
					<stop offset="1" style="stop-color:#FFFFFF"/>
				</radialGradient>
				<path class="st32" d="M179,59.9c-2.2-2.8,86.4-2.8,84.2,0C265.4,62.7,176.7,62.7,179,59.9z"/>
			</g>
			<path class="st14" d="M227.8,37.3l-8.3-8.3c-5.6-5.6,2.7-13.9,8.3-8.3c6-6,14.4,2.3,8.3,8.3L227.8,37.3z"/>
			<path class="st9" d="M244.1,10c0,0-0.5,5.1-4.6,5.5c4,0.4,4.6,5.5,4.6,5.5s0.5-5.1,4.6-5.5C244.6,15.1,244.1,10,244.1,10z"/>
			<path class="st9" d="M237.2,2.5c0,0-0.3,3.4-3,3.6c2.7,0.2,3,3.6,3,3.6s0.3-3.4,3-3.6C237.5,5.9,237.2,2.5,237.2,2.5z"/>
		</g>
		<g>
			<path class="st10" d="M185.5,71.1v2.5h-1.3v-2.5l-2.8-4.5h1.4l2.1,3.4l2.1-3.4h1.3L185.5,71.1z"/>
			<path class="st10" d="M188.7,73.3c-0.4-0.2-0.8-0.6-1-1c-0.2-0.4-0.4-0.9-0.4-1.4s0.1-1,0.4-1.4c0.2-0.4,0.6-0.7,1-1
			c0.4-0.2,0.9-0.4,1.5-0.4c0.5,0,1,0.1,1.5,0.4c0.4,0.2,0.8,0.6,1,1c0.2,0.4,0.4,0.9,0.4,1.4s-0.1,1-0.4,1.4c-0.2,0.4-0.6,0.7-1,1
			c-0.4,0.2-0.9,0.4-1.5,0.4C189.6,73.6,189.2,73.5,188.7,73.3z M191.3,72.1c0.3-0.3,0.5-0.7,0.5-1.2s-0.1-0.9-0.5-1.2
			c-0.3-0.3-0.7-0.5-1.1-0.5c-0.5,0-0.8,0.2-1.1,0.5c-0.3,0.3-0.4,0.7-0.4,1.2s0.1,0.9,0.4,1.2c0.3,0.3,0.7,0.5,1.1,0.5
			C190.6,72.5,191,72.4,191.3,72.1z"/>
			<path class="st10" d="M198.8,68.2v5.3h-1.2v-0.7c-0.2,0.2-0.4,0.4-0.8,0.6c-0.3,0.1-0.6,0.2-1,0.2c-0.7,0-1.3-0.2-1.7-0.6
			c-0.4-0.4-0.6-1-0.6-1.8v-3h1.2v2.9c0,0.5,0.1,0.8,0.3,1.1s0.5,0.4,0.9,0.4c0.4,0,0.8-0.1,1.1-0.4c0.3-0.3,0.4-0.7,0.4-1.2v-2.7
			H198.8z"/>
			<path class="st10" d="M210.5,68.2l-2,5.3h-1.2l-1.4-3.7l-1.4,3.7h-1.2l-2-5.3h1.2l1.4,3.9l1.5-3.9h1l1.4,4l1.5-4H210.5z"/>
			<path class="st10" d="M214.5,68.7c0.4,0.4,0.6,0.9,0.6,1.7v3.1h-1.2v-0.7c-0.2,0.2-0.4,0.4-0.7,0.5c-0.3,0.1-0.6,0.2-1,0.2
			c-0.4,0-0.8-0.1-1.1-0.2c-0.3-0.1-0.5-0.3-0.7-0.6c-0.2-0.2-0.2-0.5-0.2-0.8c0-0.5,0.2-0.9,0.5-1.2c0.4-0.3,0.9-0.4,1.7-0.4h1.4
			v-0.1c0-0.4-0.1-0.7-0.3-0.9c-0.2-0.2-0.6-0.3-1-0.3c-0.3,0-0.6,0-0.9,0.1c-0.3,0.1-0.5,0.2-0.7,0.4l-0.5-0.9
			c0.3-0.2,0.6-0.4,1-0.5c0.4-0.1,0.8-0.2,1.2-0.2C213.4,68.1,214,68.3,214.5,68.7z M213.3,72.5c0.2-0.1,0.4-0.3,0.5-0.6v-0.6h-1.3
			c-0.7,0-1.1,0.2-1.1,0.7c0,0.2,0.1,0.4,0.3,0.5c0.2,0.1,0.4,0.2,0.8,0.2C212.8,72.7,213.1,72.6,213.3,72.5z"/>
			<path class="st10" d="M220.8,68.7c0.4,0.4,0.6,1,0.6,1.8v3.1h-1.2v-2.9c0-0.5-0.1-0.8-0.3-1.1s-0.5-0.4-0.9-0.4
			c-0.5,0-0.8,0.1-1.1,0.4c-0.3,0.3-0.4,0.7-0.4,1.2v2.7h-1.2v-5.3h1.2v0.7c0.2-0.2,0.5-0.4,0.8-0.6s0.7-0.2,1.1-0.2
			C219.8,68.1,220.4,68.3,220.8,68.7z"/>
			<path class="st10" d="M225.6,73.3c-0.1,0.1-0.3,0.2-0.5,0.3c-0.2,0.1-0.4,0.1-0.7,0.1c-0.6,0-1-0.2-1.4-0.5
			c-0.3-0.3-0.5-0.8-0.5-1.3v-2.6h-0.9v-1h0.9V67h1.2v1.2h1.4v1h-1.4v2.5c0,0.3,0.1,0.5,0.2,0.6c0.1,0.1,0.3,0.2,0.5,0.2
			c0.3,0,0.5-0.1,0.7-0.2L225.6,73.3z"/>
			<path class="st10" d="M231.5,73.3c-0.1,0.1-0.3,0.2-0.5,0.3c-0.2,0.1-0.4,0.1-0.7,0.1c-0.6,0-1-0.2-1.4-0.5
			c-0.3-0.3-0.5-0.8-0.5-1.3v-2.6h-0.9v-1h0.9V67h1.2v1.2h1.4v1h-1.4v2.5c0,0.3,0.1,0.5,0.2,0.6c0.1,0.1,0.3,0.2,0.5,0.2
			c0.3,0,0.5-0.1,0.7-0.2L231.5,73.3z"/>
			<path class="st10" d="M232.8,73.3c-0.4-0.2-0.8-0.6-1-1c-0.2-0.4-0.4-0.9-0.4-1.4s0.1-1,0.4-1.4c0.2-0.4,0.6-0.7,1-1
			c0.4-0.2,0.9-0.4,1.5-0.4c0.5,0,1,0.1,1.5,0.4c0.4,0.2,0.8,0.6,1,1c0.2,0.4,0.4,0.9,0.4,1.4s-0.1,1-0.4,1.4c-0.2,0.4-0.6,0.7-1,1
			c-0.4,0.2-0.9,0.4-1.5,0.4C233.7,73.6,233.2,73.5,232.8,73.3z M235.4,72.1c0.3-0.3,0.5-0.7,0.5-1.2s-0.1-0.9-0.5-1.2
			c-0.3-0.3-0.7-0.5-1.1-0.5c-0.5,0-0.8,0.2-1.1,0.5c-0.3,0.3-0.4,0.7-0.4,1.2s0.1,0.9,0.4,1.2c0.3,0.3,0.7,0.5,1.1,0.5
			C234.7,72.5,235.1,72.4,235.4,72.1z"/>
			<path class="st10" d="M244.6,68.7c0.4,0.4,0.6,1,0.6,1.8v3.1H244v-2.9c0-0.5-0.1-0.8-0.3-1.1s-0.5-0.4-0.9-0.4
			c-0.5,0-0.8,0.1-1.1,0.4c-0.3,0.3-0.4,0.7-0.4,1.2v2.7H240v-7.4h1.2v2.7c0.2-0.2,0.5-0.4,0.8-0.5c0.3-0.1,0.6-0.2,1-0.2
			C243.7,68.1,244.2,68.3,244.6,68.7z"/>
			<path class="st10" d="M251.3,71.3h-4.2c0.1,0.4,0.3,0.7,0.6,0.9c0.3,0.2,0.7,0.3,1.2,0.3c0.6,0,1.1-0.2,1.5-0.6l0.7,0.8
			c-0.2,0.3-0.5,0.5-0.9,0.6c-0.4,0.1-0.8,0.2-1.2,0.2c-0.6,0-1.1-0.1-1.6-0.4c-0.4-0.2-0.8-0.6-1-1c-0.2-0.4-0.4-0.9-0.4-1.4
			c0-0.5,0.1-1,0.4-1.4c0.2-0.4,0.6-0.7,1-1c0.4-0.2,0.9-0.4,1.4-0.4c0.5,0,1,0.1,1.4,0.3c0.4,0.2,0.7,0.6,1,1s0.3,0.9,0.3,1.4
			C251.3,71,251.3,71.1,251.3,71.3z M247.6,69.5c-0.3,0.2-0.4,0.6-0.5,0.9h3c-0.1-0.4-0.2-0.7-0.5-0.9c-0.3-0.2-0.6-0.4-1-0.4
			C248.2,69.1,247.9,69.3,247.6,69.5z"/>
			<path class="st10" d="M252,66.1h1.2v7.4H252V66.1z"/>
			<path class="st10" d="M258.7,68.5c0.4,0.2,0.7,0.5,1,1c0.2,0.4,0.4,0.9,0.4,1.4s-0.1,1-0.4,1.4c-0.2,0.4-0.6,0.7-1,1
			c-0.4,0.2-0.9,0.3-1.4,0.3c-0.7,0-1.3-0.2-1.7-0.7v2.6h-1.2v-7.3h1.2v0.7c0.2-0.3,0.5-0.4,0.8-0.6c0.3-0.1,0.6-0.2,1-0.2
			C257.8,68.1,258.3,68.3,258.7,68.5z M258.3,72.1c0.3-0.3,0.4-0.7,0.4-1.2s-0.1-0.9-0.4-1.2c-0.3-0.3-0.7-0.5-1.1-0.5
			c-0.3,0-0.6,0.1-0.8,0.2c-0.2,0.1-0.4,0.3-0.6,0.6c-0.1,0.3-0.2,0.5-0.2,0.9s0.1,0.6,0.2,0.9c0.1,0.3,0.3,0.4,0.6,0.6
			c0.2,0.1,0.5,0.2,0.8,0.2C257.6,72.5,258,72.4,258.3,72.1z"/>
		</g>
		<g>
			<path class="st10" d="M187.7,77.4c0.5,0.2,0.9,0.6,1.2,1.1s0.4,1,0.4,1.6c0,0.6-0.1,1.2-0.4,1.6s-0.7,0.8-1.2,1.1
			c-0.5,0.2-1.1,0.4-1.8,0.4h-1.6v2.3h-1.8V77h3.4C186.6,77,187.2,77.2,187.7,77.4z M187,81.2c0.3-0.3,0.4-0.6,0.4-1.1
			c0-0.5-0.1-0.8-0.4-1.1c-0.3-0.3-0.7-0.4-1.3-0.4h-1.5v2.9h1.5C186.3,81.5,186.8,81.4,187,81.2z"/>
			<path class="st10" d="M196.7,83.9v1.6h-6.2V77h6v1.6h-4.2v1.8h3.7v1.5h-3.7v1.9H196.7z"/>
			<path class="st10" d="M199.6,85c-0.7-0.4-1.2-0.9-1.6-1.6c-0.4-0.7-0.6-1.4-0.6-2.2c0-0.8,0.2-1.6,0.6-2.2
			c0.4-0.7,0.9-1.2,1.6-1.6c0.7-0.4,1.4-0.6,2.2-0.6s1.6,0.2,2.2,0.6c0.7,0.4,1.2,0.9,1.6,1.6c0.4,0.7,0.6,1.4,0.6,2.2
			c0,0.8-0.2,1.6-0.6,2.2c-0.4,0.7-0.9,1.2-1.6,1.6c-0.7,0.4-1.4,0.6-2.2,0.6S200.3,85.4,199.6,85z M203.1,83.6
			c0.4-0.2,0.7-0.5,0.9-1c0.2-0.4,0.3-0.9,0.3-1.4c0-0.5-0.1-1-0.3-1.4c-0.2-0.4-0.5-0.7-0.9-1c-0.4-0.2-0.8-0.3-1.3-0.3
			s-0.9,0.1-1.3,0.3c-0.4,0.2-0.7,0.5-0.9,1s-0.3,0.9-0.3,1.4c0,0.5,0.1,1,0.3,1.4c0.2,0.4,0.5,0.7,0.9,1c0.4,0.2,0.8,0.3,1.3,0.3
			S202.8,83.8,203.1,83.6z"/>
			<path class="st10" d="M212.8,77.4c0.5,0.2,0.9,0.6,1.2,1.1s0.4,1,0.4,1.6c0,0.6-0.1,1.2-0.4,1.6s-0.7,0.8-1.2,1.1
			c-0.5,0.2-1.1,0.4-1.8,0.4h-1.6v2.3h-1.8V77h3.4C211.6,77,212.3,77.2,212.8,77.4z M212.1,81.2c0.3-0.3,0.4-0.6,0.4-1.1
			c0-0.5-0.1-0.8-0.4-1.1c-0.3-0.3-0.7-0.4-1.3-0.4h-1.5v2.9h1.5C211.4,81.5,211.8,81.4,212.1,81.2z"/>
			<path class="st10" d="M215.6,77h1.8v6.8h4v1.6h-5.8V77z"/>
			<path class="st10" d="M228.5,83.9v1.6h-6.2V77h6v1.6h-4.2v1.8h3.7v1.5h-3.7v1.9H228.5z"/>
			<path class="st10" d="M232.9,77h1.8v8.4h-1.8V77z"/>
			<path class="st10" d="M243.9,77v8.4h-1.5l-4-5.1v5.1h-1.8V77h1.5l4,5.1V77H243.9z"/>
			<path class="st10" d="M256,77v8.4h-1.5l-4-5.1v5.1h-1.8V77h1.5l4,5.1V77H256z"/>
			<path class="st10" d="M264,83.9v1.6h-6.2V77h6v1.6h-4.2v1.8h3.7v1.5h-3.7v1.9H264z"/>
			<path class="st10" d="M271.5,83.9v1.6h-6.2V77h6v1.6h-4.2v1.8h3.7v1.5h-3.7v1.9H271.5z"/>
			<path class="st10" d="M272.8,77h3.6c0.9,0,1.6,0.2,2.3,0.5c0.7,0.3,1.2,0.8,1.5,1.5c0.4,0.6,0.6,1.4,0.6,2.2s-0.2,1.6-0.6,2.2
			c-0.4,0.6-0.9,1.1-1.5,1.5c-0.7,0.3-1.4,0.5-2.3,0.5h-3.6V77z M276.3,83.8c0.8,0,1.4-0.2,1.9-0.7c0.5-0.5,0.7-1.1,0.7-1.9
			s-0.2-1.4-0.7-1.9c-0.5-0.5-1.1-0.7-1.9-0.7h-1.7v5.2H276.3z"/>
		</g>
	</g>
	<g>
		<g>
			<g>
				<path class="st5" d="M51.5,216h-9c-1,0-1.9,0.8-1.9,1.9c0,1,0.8,1.9,1.9,1.9h9c1,0,1.9-0.9,1.9-1.9C53.4,216.8,52.5,216,51.5,216
				z M52.1,217.9c0,0.3-0.3,0.6-0.6,0.6h-9c-0.3,0-0.6-0.3-0.6-0.6c0-0.3,0.3-0.6,0.6-0.6h9C51.8,217.3,52.1,217.5,52.1,217.9z"/>
				<path class="st5" d="M41.3,220.6c0,1.7,1.2,3.2,2.9,3.5c0.4,1.2,1.5,2.1,2.8,2.1c1.3,0,2.4-0.8,2.8-2.1c1.7-0.3,2.9-1.8,2.9-3.5
				V220H41.3V220.6z M45,222.9l-0.3,0c-1-0.1-1.8-0.7-2.1-1.6h8.7c-0.3,0.9-1.1,1.6-2.1,1.6l-0.3,0L45,222.9z M48.4,224.2
				c-0.3,0.4-0.8,0.7-1.4,0.7c-0.6,0-1.1-0.3-1.4-0.7H48.4z"/>
				<path class="st5" d="M47,185.2c-7,0-12.7,5.7-12.7,12.7c0,2.9,0.9,5.6,2.7,7.9c1.4,1.7,2.7,3.6,3.8,5.5v4.5h12.4v-4.4
				c1.2-2,2.6-4.1,3.9-5.6c1.8-2.3,2.7-5,2.7-7.9C59.8,190.9,54,185.2,47,185.2z M45.4,203.9l0.9,3.3l1.5-3.6l0.7,2.1l1.6-0.7
				l-2.1,9.6h-2l-2.1-9.6L45.4,203.9z M52,210.9l-0.1,0.2v3.5h-2.6l2.7-12.7l-1.2-0.3l-0.5,2.1l-1.3,0.6l-1.3-3.6l-1.3,3.2l-0.4-1.6
				l-2.4,1.6l-0.5-2.3l-1.3,0.3l2.8,12.7h-2.6v-3.6l-0.1-0.2c-1.2-2-2.6-4-4-5.8c-1.6-2-2.5-4.5-2.5-7.1c0-6.3,5.1-11.5,11.5-11.5
				c6.3,0,11.5,5.1,11.5,11.5c0,2.6-0.8,5-2.5,7.1h0C54.7,206.6,53.2,208.8,52,210.9z"/>
				<path class="st5" d="M47.5,183.1c0.3,0,0.6-0.3,0.6-0.6v-5.5c0-0.3-0.3-0.6-0.6-0.6c-0.3,0-0.6,0.3-0.6,0.6v5.5
				C46.9,182.8,47.2,183.1,47.5,183.1z"/>
				<path class="st5" d="M55.7,185.1c0.1,0.1,0.2,0.1,0.3,0.1c0.2,0,0.4-0.1,0.5-0.3l2.9-4.7c0.2-0.3,0.1-0.6-0.2-0.8
				c-0.1-0.1-0.3-0.1-0.4-0.1c-0.2,0-0.3,0.1-0.4,0.3l-2.9,4.7c-0.1,0.1-0.1,0.3-0.1,0.4C55.5,184.9,55.5,185,55.7,185.1z"/>
				<path class="st5" d="M61.3,191.8c0.1,0,0.2,0,0.3-0.1l4.9-2.6c0.3-0.1,0.4-0.5,0.2-0.8c-0.1-0.3-0.5-0.4-0.8-0.2l-4.9,2.6
				c-0.3,0.1-0.4,0.5-0.2,0.8C60.8,191.7,61,191.8,61.3,191.8z"/>
				<path class="st5" d="M68.8,198.8c-0.1-0.1-0.2-0.2-0.4-0.2l-5.5-0.4c-0.3,0-0.6,0.2-0.6,0.5c0,0.3,0.2,0.6,0.5,0.6l5.5,0.4l0,0
				c0.3,0,0.6-0.2,0.6-0.5C69,199,68.9,198.9,68.8,198.8z"/>
				<path class="st5" d="M65.2,209.9l-4.5-3.2c-0.1-0.1-0.3-0.1-0.4-0.1c-0.2,0-0.3,0.1-0.4,0.2c-0.2,0.3-0.1,0.6,0.1,0.8l4.5,3.2
				c0.1,0.1,0.2,0.1,0.3,0.1c0.2,0,0.4-0.1,0.5-0.2c0.1-0.1,0.1-0.3,0.1-0.4C65.4,210.1,65.3,209.9,65.2,209.9z"/>
				<path class="st5" d="M37.7,184.9c0.1,0.2,0.3,0.3,0.5,0.3c0.1,0,0.2,0,0.3-0.1c0.3-0.2,0.4-0.5,0.2-0.8l-2.9-4.7
				c-0.1-0.1-0.2-0.2-0.4-0.3c-0.2,0-0.3,0-0.4,0.1c-0.3,0.2-0.4,0.5-0.2,0.8L37.7,184.9z"/>
				<path class="st5" d="M27.7,189.2l4.9,2.6c0.1,0,0.2,0.1,0.3,0.1c0.2,0,0.4-0.1,0.5-0.3c0.1-0.3,0-0.6-0.2-0.8l-4.9-2.6
				c-0.3-0.1-0.6,0-0.8,0.2C27.3,188.7,27.4,189.1,27.7,189.2z"/>
				<path class="st5" d="M31.9,198.8c0-0.3-0.3-0.6-0.6-0.5l-5.5,0.4c-0.2,0-0.3,0.1-0.4,0.2s-0.2,0.3-0.1,0.4c0,0.3,0.3,0.5,0.6,0.5
				l5.6-0.4C31.7,199.4,31.9,199.1,31.9,198.8z"/>
				<path class="st5" d="M34,206.6c-0.2,0-0.3,0-0.4,0.1l-4.5,3.2c-0.3,0.2-0.3,0.5-0.1,0.8c0.1,0.2,0.3,0.2,0.5,0.2
				c0.1,0,0.2,0,0.3-0.1l4.5-3.2c0.3-0.2,0.3-0.5,0.1-0.8C34.2,206.7,34.1,206.6,34,206.6z"/>
			</g>

			<radialGradient id="SVGID_9_" cx="-148.8929" cy="2464.5125" r="59.465" gradientTransform="matrix(0.5011 0 0 5.423031e-02 121.5547 98.425)" gradientUnits="userSpaceOnUse">
				<stop offset="0.1034" style="stop-color:#E0E3E2"/>
				<stop offset="0.2677" style="stop-color:#E9EBEA"/>
				<stop offset="0.684" style="stop-color:#F9FAFA"/>
				<stop offset="1" style="stop-color:#FFFFFF"/>
			</radialGradient>
			<ellipse class="st35" cx="47" cy="232.1" rx="42.1" ry="2.7"/>
			<path class="st9" d="M80.9,207.6c0,0-0.9,8.8-7.8,9.4c6.9,0.6,7.8,9.4,7.8,9.4s0.9-8.8,7.8-9.4C81.7,216.4,80.9,207.6,80.9,207.6z
			"/>
			<path class="st9" d="M93.8,189c0,0-0.6,5.8-5.2,6.2c4.6,0.4,5.2,6.2,5.2,6.2s0.6-5.8,5.2-6.2C94.4,194.8,93.8,189,93.8,189z"/>
		</g>
		<g>
			<path class="st10" d="M19.4,245.9v2.5h-1.3v-2.5l-2.8-4.5h1.4l2.1,3.4l2.1-3.4h1.3L19.4,245.9z"/>
			<path class="st10" d="M23.2,248.1c-0.4-0.2-0.8-0.6-1-1c-0.2-0.4-0.4-0.9-0.4-1.4s0.1-1,0.4-1.4c0.2-0.4,0.6-0.7,1-1
			c0.4-0.2,0.9-0.4,1.5-0.4c0.5,0,1,0.1,1.5,0.4c0.4,0.2,0.8,0.6,1,1c0.2,0.4,0.4,0.9,0.4,1.4s-0.1,1-0.4,1.4c-0.2,0.4-0.6,0.7-1,1
			c-0.4,0.2-0.9,0.4-1.5,0.4C24.1,248.5,23.6,248.3,23.2,248.1z M25.8,246.9c0.3-0.3,0.5-0.7,0.5-1.2s-0.1-0.9-0.5-1.2
			c-0.3-0.3-0.7-0.5-1.1-0.5c-0.5,0-0.8,0.2-1.1,0.5c-0.3,0.3-0.4,0.7-0.4,1.2s0.1,0.9,0.4,1.2c0.3,0.3,0.7,0.5,1.1,0.5
			C25.1,247.4,25.5,247.2,25.8,246.9z"/>
			<path class="st10" d="M33.8,243v5.3h-1.2v-0.7c-0.2,0.2-0.4,0.4-0.7,0.6c-0.3,0.1-0.6,0.2-1,0.2c-0.7,0-1.3-0.2-1.7-0.6
			c-0.4-0.4-0.6-1-0.6-1.8v-3h1.2v2.9c0,0.5,0.1,0.8,0.3,1.1s0.5,0.4,0.9,0.4c0.4,0,0.8-0.1,1.1-0.4c0.3-0.3,0.4-0.7,0.4-1.2V243
			H33.8z"/>
			<path class="st10" d="M42.7,243.6c0.4,0.4,0.6,1,0.6,1.8v3.1h-1.2v-2.9c0-0.5-0.1-0.8-0.3-1.1s-0.5-0.4-0.9-0.4
			c-0.5,0-0.8,0.1-1.1,0.4c-0.3,0.3-0.4,0.7-0.4,1.2v2.7h-1.2V241h1.2v2.7c0.2-0.2,0.5-0.4,0.8-0.5c0.3-0.1,0.6-0.2,1-0.2
			C41.8,243,42.3,243.2,42.7,243.6z"/>
			<path class="st10" d="M48.7,243.5c0.4,0.4,0.6,0.9,0.6,1.7v3.1h-1.2v-0.7c-0.2,0.2-0.4,0.4-0.7,0.5c-0.3,0.1-0.6,0.2-1,0.2
			c-0.4,0-0.8-0.1-1.1-0.2c-0.3-0.1-0.5-0.3-0.7-0.6c-0.2-0.2-0.2-0.5-0.2-0.8c0-0.5,0.2-0.9,0.5-1.2c0.4-0.3,0.9-0.4,1.7-0.4h1.4
			v-0.1c0-0.4-0.1-0.7-0.3-0.9c-0.2-0.2-0.6-0.3-1-0.3c-0.3,0-0.6,0-0.9,0.1c-0.3,0.1-0.5,0.2-0.7,0.4l-0.5-0.9
			c0.3-0.2,0.6-0.4,1-0.5c0.4-0.1,0.8-0.2,1.2-0.2C47.7,243,48.3,243.2,48.7,243.5z M47.6,247.3c0.2-0.1,0.4-0.3,0.5-0.6v-0.6h-1.3
			c-0.7,0-1.1,0.2-1.1,0.7c0,0.2,0.1,0.4,0.3,0.5c0.2,0.1,0.4,0.2,0.8,0.2C47.1,247.5,47.4,247.5,47.6,247.3z"/>
			<path class="st10" d="M55.8,243l-2.3,5.3h-1.3l-2.3-5.3h1.3l1.7,4l1.7-4H55.8z"/>
			<path class="st10" d="M61.4,246.1h-4.2c0.1,0.4,0.3,0.7,0.6,0.9c0.3,0.2,0.7,0.3,1.2,0.3c0.6,0,1.1-0.2,1.5-0.6l0.7,0.8
			c-0.2,0.3-0.5,0.5-0.9,0.6c-0.4,0.1-0.8,0.2-1.2,0.2c-0.6,0-1.1-0.1-1.6-0.4c-0.4-0.2-0.8-0.6-1-1c-0.2-0.4-0.4-0.9-0.4-1.4
			c0-0.5,0.1-1,0.4-1.4c0.2-0.4,0.6-0.7,1-1c0.4-0.2,0.9-0.4,1.4-0.4c0.5,0,1,0.1,1.4,0.3c0.4,0.2,0.7,0.6,1,1s0.3,0.9,0.3,1.4
			C61.4,245.8,61.4,246,61.4,246.1z M57.7,244.3c-0.3,0.2-0.4,0.6-0.5,0.9h3c-0.1-0.4-0.2-0.7-0.5-0.9c-0.3-0.2-0.6-0.4-1-0.4
			C58.3,244,58,244.1,57.7,244.3z"/>
			<path class="st10" d="M69.1,243.5c0.4,0.4,0.6,0.9,0.6,1.7v3.1h-1.2v-0.7c-0.2,0.2-0.4,0.4-0.7,0.5c-0.3,0.1-0.6,0.2-1,0.2
			c-0.4,0-0.8-0.1-1.1-0.2c-0.3-0.1-0.5-0.3-0.7-0.6c-0.2-0.2-0.2-0.5-0.2-0.8c0-0.5,0.2-0.9,0.5-1.2c0.4-0.3,0.9-0.4,1.7-0.4h1.4
			v-0.1c0-0.4-0.1-0.7-0.3-0.9c-0.2-0.2-0.6-0.3-1-0.3c-0.3,0-0.6,0-0.9,0.1c-0.3,0.1-0.5,0.2-0.7,0.4l-0.5-0.9
			c0.3-0.2,0.6-0.4,1-0.5c0.4-0.1,0.8-0.2,1.2-0.2C68.1,243,68.7,243.2,69.1,243.5z M68,247.3c0.2-0.1,0.4-0.3,0.5-0.6v-0.6h-1.3
			c-0.7,0-1.1,0.2-1.1,0.7c0,0.2,0.1,0.4,0.3,0.5c0.2,0.1,0.4,0.2,0.8,0.2C67.5,247.5,67.7,247.5,68,247.3z"/>
			<path class="st10" d="M75.9,243.6c0.4,0.4,0.6,1,0.6,1.8v3.1h-1.2v-2.9c0-0.5-0.1-0.8-0.3-1.1s-0.5-0.4-0.9-0.4
			c-0.5,0-0.8,0.1-1.1,0.4c-0.3,0.3-0.4,0.7-0.4,1.2v2.7h-1.2V243h1.2v0.7c0.2-0.2,0.5-0.4,0.8-0.6s0.7-0.2,1.1-0.2
			C75,243,75.5,243.2,75.9,243.6z"/>
		</g>
		<g>
			<path class="st10" d="M16.6,273.5c-0.4-0.1-0.7-0.3-1-0.4l0.5-1c0.2,0.2,0.5,0.3,0.9,0.4c0.3,0.1,0.7,0.1,1,0.1
			c0.7,0,1.1-0.2,1.1-0.6c0-0.2-0.1-0.3-0.3-0.4c-0.2-0.1-0.5-0.1-0.9-0.2c-0.4-0.1-0.8-0.1-1.1-0.2c-0.3-0.1-0.5-0.2-0.7-0.5
			c-0.2-0.2-0.3-0.5-0.3-0.9c0-0.5,0.2-0.9,0.6-1.2c0.4-0.3,1-0.5,1.7-0.5c0.4,0,0.7,0,1.1,0.1c0.4,0.1,0.7,0.2,0.9,0.3l-0.5,1
			c-0.5-0.3-1-0.4-1.5-0.4c-0.4,0-0.6,0.1-0.8,0.2c-0.2,0.1-0.3,0.3-0.3,0.4c0,0.2,0.1,0.3,0.3,0.4c0.2,0.1,0.5,0.2,0.9,0.2
			c0.4,0.1,0.8,0.1,1.1,0.2c0.3,0.1,0.5,0.2,0.7,0.4c0.2,0.2,0.3,0.5,0.3,0.9c0,0.5-0.2,0.9-0.6,1.2c-0.4,0.3-1,0.5-1.8,0.5
			C17.4,273.7,17,273.7,16.6,273.5z"/>
			<path class="st10" d="M22.2,273.4c-0.4-0.2-0.8-0.6-1-1c-0.2-0.4-0.4-0.9-0.4-1.4s0.1-1,0.4-1.4c0.2-0.4,0.6-0.7,1-1
			c0.4-0.2,0.9-0.4,1.5-0.4c0.5,0,1,0.1,1.5,0.4c0.4,0.2,0.8,0.6,1,1c0.2,0.4,0.4,0.9,0.4,1.4s-0.1,1-0.4,1.4c-0.2,0.4-0.6,0.7-1,1
			c-0.4,0.2-0.9,0.4-1.5,0.4C23.1,273.7,22.7,273.6,22.2,273.4z M24.8,272.2c0.3-0.3,0.5-0.7,0.5-1.2s-0.1-0.9-0.5-1.2
			c-0.3-0.3-0.7-0.5-1.1-0.5c-0.5,0-0.8,0.2-1.1,0.5c-0.3,0.3-0.4,0.7-0.4,1.2s0.1,0.9,0.4,1.2c0.3,0.3,0.7,0.5,1.1,0.5
			C24.1,272.6,24.5,272.5,24.8,272.2z"/>
			<path class="st10" d="M28.6,273.4c-0.4-0.2-0.8-0.6-1-1s-0.4-0.9-0.4-1.4s0.1-1,0.4-1.4s0.6-0.7,1-1s0.9-0.4,1.5-0.4
			c0.5,0,1,0.1,1.4,0.3c0.4,0.2,0.7,0.5,0.9,0.9l-1,0.6c-0.2-0.2-0.3-0.4-0.6-0.6c-0.2-0.1-0.5-0.2-0.8-0.2c-0.5,0-0.9,0.2-1.2,0.5
			c-0.3,0.3-0.5,0.7-0.5,1.2s0.2,0.9,0.5,1.2c0.3,0.3,0.7,0.5,1.2,0.5c0.3,0,0.5-0.1,0.8-0.2c0.2-0.1,0.4-0.3,0.6-0.6l1,0.6
			c-0.2,0.4-0.5,0.7-0.9,0.9c-0.4,0.2-0.9,0.3-1.4,0.3C29.6,273.7,29.1,273.6,28.6,273.4z"/>
			<path class="st10" d="M33.5,267.2c-0.2-0.1-0.2-0.3-0.2-0.5c0-0.2,0.1-0.4,0.2-0.5s0.3-0.2,0.6-0.2c0.2,0,0.4,0.1,0.6,0.2
			s0.2,0.3,0.2,0.5c0,0.2-0.1,0.4-0.2,0.6c-0.1,0.2-0.3,0.2-0.6,0.2C33.8,267.4,33.7,267.4,33.5,267.2z M33.4,268.3h1.2v5.3h-1.2
			V268.3z"/>
			<path class="st10" d="M40.1,268.8c0.4,0.4,0.6,0.9,0.6,1.7v3.1h-1.2V273c-0.2,0.2-0.4,0.4-0.7,0.5c-0.3,0.1-0.6,0.2-1,0.2
			c-0.4,0-0.8-0.1-1.1-0.2c-0.3-0.1-0.5-0.3-0.7-0.6c-0.2-0.2-0.2-0.5-0.2-0.8c0-0.5,0.2-0.9,0.5-1.2c0.4-0.3,0.9-0.4,1.7-0.4h1.4
			v-0.1c0-0.4-0.1-0.7-0.3-0.9c-0.2-0.2-0.6-0.3-1-0.3c-0.3,0-0.6,0-0.9,0.1c-0.3,0.1-0.5,0.2-0.7,0.4l-0.5-0.9
			c0.3-0.2,0.6-0.4,1-0.5c0.4-0.1,0.8-0.2,1.2-0.2C39.1,268.2,39.7,268.4,40.1,268.8z M39,272.6c0.2-0.1,0.4-0.3,0.5-0.6v-0.6h-1.3
			c-0.7,0-1.1,0.2-1.1,0.7c0,0.2,0.1,0.4,0.3,0.5c0.2,0.1,0.4,0.2,0.8,0.2C38.5,272.8,38.7,272.7,39,272.6z"/>
			<path class="st10" d="M42.3,266.2h1.2v7.4h-1.2V266.2z"/>
			<path class="st10" d="M47.9,267.2c-0.2-0.1-0.2-0.3-0.2-0.5c0-0.2,0.1-0.4,0.2-0.5s0.3-0.2,0.6-0.2c0.2,0,0.4,0.1,0.6,0.2
			s0.2,0.3,0.2,0.5c0,0.2-0.1,0.4-0.2,0.6c-0.1,0.2-0.3,0.2-0.6,0.2C48.3,267.4,48.1,267.4,47.9,267.2z M47.8,268.3h1.2v5.3h-1.2
			V268.3z"/>
			<path class="st10" d="M59,268.8c0.4,0.4,0.6,1,0.6,1.8v3.1h-1.2v-2.9c0-0.5-0.1-0.8-0.3-1.1s-0.5-0.4-0.9-0.4
			c-0.4,0-0.8,0.1-1,0.4c-0.3,0.3-0.4,0.7-0.4,1.2v2.7h-1.2v-2.9c0-0.5-0.1-0.8-0.3-1.1c-0.2-0.2-0.5-0.4-0.9-0.4
			c-0.4,0-0.8,0.1-1,0.4c-0.2,0.3-0.4,0.7-0.4,1.2v2.7h-1.2v-5.3h1.2v0.7c0.2-0.2,0.5-0.4,0.8-0.5c0.3-0.1,0.6-0.2,1-0.2
			c0.4,0,0.8,0.1,1.1,0.2c0.3,0.1,0.6,0.4,0.7,0.7c0.2-0.3,0.5-0.5,0.9-0.7c0.3-0.2,0.7-0.2,1.1-0.2C58.1,268.2,58.6,268.4,59,268.8
			z"/>
			<path class="st10" d="M65.5,268.6c0.4,0.2,0.7,0.5,1,1c0.2,0.4,0.4,0.9,0.4,1.4s-0.1,1-0.4,1.4c-0.2,0.4-0.6,0.7-1,1
			c-0.4,0.2-0.9,0.3-1.4,0.3c-0.7,0-1.3-0.2-1.7-0.7v2.6h-1.2v-7.3h1.2v0.7c0.2-0.3,0.5-0.4,0.8-0.6s0.6-0.2,1-0.2
			C64.6,268.2,65.1,268.4,65.5,268.6z M65.1,272.2c0.3-0.3,0.4-0.7,0.4-1.2s-0.1-0.9-0.4-1.2c-0.3-0.3-0.7-0.5-1.1-0.5
			c-0.3,0-0.6,0.1-0.8,0.2c-0.2,0.1-0.4,0.3-0.6,0.6c-0.1,0.3-0.2,0.5-0.2,0.9s0.1,0.6,0.2,0.9c0.1,0.3,0.3,0.4,0.6,0.6
			c0.2,0.1,0.5,0.2,0.8,0.2C64.4,272.6,64.8,272.5,65.1,272.2z"/>
			<path class="st10" d="M71.8,268.8c0.4,0.4,0.6,0.9,0.6,1.7v3.1h-1.2V273c-0.2,0.2-0.4,0.4-0.7,0.5c-0.3,0.1-0.6,0.2-1,0.2
			c-0.4,0-0.8-0.1-1.1-0.2c-0.3-0.1-0.5-0.3-0.7-0.6c-0.2-0.2-0.2-0.5-0.2-0.8c0-0.5,0.2-0.9,0.5-1.2c0.4-0.3,0.9-0.4,1.7-0.4h1.4
			v-0.1c0-0.4-0.1-0.7-0.3-0.9c-0.2-0.2-0.6-0.3-1-0.3c-0.3,0-0.6,0-0.9,0.1c-0.3,0.1-0.5,0.2-0.7,0.4l-0.5-0.9
			c0.3-0.2,0.6-0.4,1-0.5c0.4-0.1,0.8-0.2,1.2-0.2C70.7,268.2,71.3,268.4,71.8,268.8z M70.6,272.6c0.2-0.1,0.4-0.3,0.5-0.6v-0.6
			h-1.3c-0.7,0-1.1,0.2-1.1,0.7c0,0.2,0.1,0.4,0.3,0.5c0.2,0.1,0.4,0.2,0.8,0.2C70.1,272.8,70.4,272.7,70.6,272.6z"/>
			<path class="st10" d="M74.9,273.4c-0.4-0.2-0.8-0.6-1-1s-0.4-0.9-0.4-1.4s0.1-1,0.4-1.4s0.6-0.7,1-1s0.9-0.4,1.5-0.4
			c0.5,0,1,0.1,1.4,0.3c0.4,0.2,0.7,0.5,0.9,0.9l-1,0.6c-0.2-0.2-0.3-0.4-0.6-0.6c-0.2-0.1-0.5-0.2-0.8-0.2c-0.5,0-0.9,0.2-1.2,0.5
			c-0.3,0.3-0.5,0.7-0.5,1.2s0.2,0.9,0.5,1.2c0.3,0.3,0.7,0.5,1.2,0.5c0.3,0,0.5-0.1,0.8-0.2c0.2-0.1,0.4-0.3,0.6-0.6l1,0.6
			c-0.2,0.4-0.5,0.7-0.9,0.9c-0.4,0.2-0.9,0.3-1.4,0.3C75.9,273.7,75.4,273.6,74.9,273.4z"/>
			<path class="st10" d="M83,273.4c-0.1,0.1-0.3,0.2-0.5,0.3c-0.2,0.1-0.4,0.1-0.7,0.1c-0.6,0-1-0.2-1.4-0.5
			c-0.3-0.3-0.5-0.8-0.5-1.3v-2.6h-0.9v-1H80v-1.2h1.2v1.2h1.4v1h-1.4v2.5c0,0.3,0.1,0.5,0.2,0.6c0.1,0.1,0.3,0.2,0.5,0.2
			c0.3,0,0.5-0.1,0.7-0.2L83,273.4z"/>
		</g>
		<g>
			<g>
				<path class="st10" d="M53,256.4v0.3h1.5v1H53v4.3h-1.2v-4.3h-0.9v-1h0.9v-0.3c0-0.6,0.2-1,0.5-1.4c0.3-0.3,0.8-0.5,1.4-0.5
				c0.5,0,0.9,0.1,1.1,0.3l-0.3,0.9c-0.2-0.1-0.4-0.2-0.7-0.2C53.3,255.6,53,255.9,53,256.4z"/>
				<path class="st10" d="M56.1,261.8c-0.4-0.2-0.8-0.6-1-1c-0.2-0.4-0.4-0.9-0.4-1.4s0.1-1,0.4-1.4c0.2-0.4,0.6-0.7,1-1
				c0.4-0.2,0.9-0.4,1.5-0.4c0.5,0,1,0.1,1.5,0.4c0.4,0.2,0.8,0.6,1,1c0.2,0.4,0.4,0.9,0.4,1.4s-0.1,1-0.4,1.4c-0.2,0.4-0.6,0.7-1,1
				c-0.4,0.2-0.9,0.4-1.5,0.4C57,262.1,56.6,262,56.1,261.8z M58.7,260.6c0.3-0.3,0.5-0.7,0.5-1.2s-0.1-0.9-0.5-1.2
				c-0.3-0.3-0.7-0.5-1.1-0.5c-0.5,0-0.8,0.2-1.1,0.5c-0.3,0.3-0.4,0.7-0.4,1.2s0.1,0.9,0.4,1.2c0.3,0.3,0.7,0.5,1.1,0.5
				C58,261.1,58.4,260.9,58.7,260.6z"/>
				<path class="st10" d="M64.7,256.7v1.2c-0.1,0-0.2,0-0.3,0c-0.5,0-0.9,0.1-1.1,0.4c-0.3,0.3-0.4,0.7-0.4,1.2v2.6h-1.2v-5.3h1.2
				v0.8C63.1,256.9,63.8,256.7,64.7,256.7z"/>
			</g>
			<g>
				<path class="st10" d="M16.3,253.1h1.8v8.4h-1.8V253.1z"/>
				<path class="st10" d="M19.9,253.1h3.6c0.9,0,1.6,0.2,2.3,0.5c0.7,0.3,1.2,0.8,1.5,1.5c0.4,0.6,0.6,1.4,0.6,2.2s-0.2,1.6-0.6,2.2
				c-0.4,0.6-0.9,1.1-1.5,1.5c-0.7,0.3-1.4,0.5-2.3,0.5h-3.6V253.1z M23.4,259.9c0.8,0,1.4-0.2,1.9-0.7c0.5-0.5,0.7-1.1,0.7-1.9
				s-0.2-1.4-0.7-1.9c-0.5-0.5-1.1-0.7-1.9-0.7h-1.7v5.2H23.4z"/>
				<path class="st10" d="M35.3,260v1.6h-6.2v-8.4h6v1.6H31v1.8h3.7v1.5H31v1.9H35.3z"/>
				<path class="st10" d="M41.9,259.7h-3.7l-0.7,1.8h-1.9l3.5-8.4H41l3.6,8.4h-1.9L41.9,259.7z M41.4,258.2l-1.3-3.2l-1.3,3.2H41.4z" />
			</g>
		</g>
	</g>
	<g>
		<g>
			<g>
				<g>
					<path class="st5" d="M229.6,248.2L229.6,248.2L229.6,248.2 M229.7,251.1c1,1.7,2,4.4,1.7,7.5c-0.3,3.1-2.1,5.5-4.2,6.9
					C229.2,261.5,230,257.2,229.7,251.1 M228.4,247.5c-0.3,0-0.5,0.3-0.5,0.9c0.7,9-0.2,14.2-4.3,19.9c4.5,0,9-4.2,9.5-9.5
					C233.6,252.6,229.8,247.5,228.4,247.5L228.4,247.5z"/>
				</g>
				<g>
					<g>
						<path class="st5" d="M239,248.2L239,248.2L239,248.2 M237.4,249.1L237.4,249.1L237.4,249.1 M239.1,251.3c0.5,1,1,2.2,1.3,3.6
						c0.6,2.8,0.9,8.3-3.8,14.2c-0.5,0.6-0.5,1.4,0,2c0.3,0.4,0.8,0.7,1.3,0.7c0.2,0,0.4,0,0.6-0.1c0.2-0.1,4.6-1.9,8-7.1
						c-0.1,0.8-0.3,1.8-0.6,2.8c-1,3.2-3.4,7.7-9.1,10.7c-0.7,0.4-1,1.2-0.8,1.9c0.2,0.7,0.9,1.2,1.6,1.2c0.1,0,0.1,0,0.2,0
						c0.1,0,2.7-0.3,5.6-1.5c-2,2.1-5,4.4-9,5.2c-1.2,0.2-2.4,0.4-3.6,0.4c-5.8,0-10.7-2.6-13.1-6.9c-1.2-2.1-1.4-4.4-1.6-6.6
						c-0.3-2.9-0.7-6.1-3.3-8.4c0.6-0.4,1.2-0.5,1.7-0.5c0.8,0,1.7,0.3,2.3,0.9c1.1,1.1,1.4,2.2,1.7,3.3c0.4,1.3,0.8,3,2.6,4
						c0.9,0.5,2,0.8,3.2,0.8c3.3,0,7.2-2,9.7-5.1C237.1,262.8,239,257.2,239.1,251.3 M248.1,261.6L248.1,261.6L248.1,261.6
						 M237.8,247.5c-0.3,0-0.5,0.3-0.4,0.9c0.6,7.4-1.7,13.5-4.9,17.3c-2.1,2.5-5.6,4.5-8.5,4.5c-0.9,0-1.7-0.2-2.4-0.6
						c-2.4-1.3-1.1-4.3-3.9-7c-0.9-0.9-2.2-1.4-3.5-1.4c-1.5,0-3.1,0.7-4.2,2.4c5.9,3.3,2.8,9.7,6.1,15.6c3,5.5,9,7.8,14.6,7.8
						c1.4,0,2.7-0.1,3.9-0.4c9-1.8,14.1-10.8,12.4-10.8c-0.2,0-0.6,0.2-1.1,0.6c-3.7,2.8-8.3,3.3-8.3,3.3c12-6.3,11.5-19.3,9.7-19.3
						c-0.2,0-0.5,0.3-0.8,0.8c-3.1,6.8-8.6,9-8.6,9c4.5-5.6,5.1-11.3,4.1-15.5C241.1,250.3,238.8,247.5,237.8,247.5L237.8,247.5z"/>
					</g>
				</g>
			</g>
		</g>

		<radialGradient id="SVGID_10_" cx="156.3544" cy="4382.9839" r="59.465" gradientTransform="matrix(0.5538 0 0 4.348000e-02 144.3805 100.8969)" gradientUnits="userSpaceOnUse">
			<stop offset="0.1034" style="stop-color:#E0E3E2"/>
			<stop offset="0.2677" style="stop-color:#E9EBEA"/>
			<stop offset="0.684" style="stop-color:#F9FAFA"/>
			<stop offset="1" style="stop-color:#FFFFFF"/>
		</radialGradient>
		<ellipse class="st36" cx="231" cy="291.5" rx="46.5" ry="2.2"/>
	</g>
	<g>
		<path class="st10" d="M211.1,316.7c-0.7-0.4-1.2-0.9-1.5-1.5c-0.4-0.7-0.6-1.4-0.6-2.2s0.2-1.6,0.6-2.2c0.4-0.7,0.9-1.2,1.5-1.5
		s1.4-0.6,2.2-0.6c0.7,0,1.3,0.1,1.9,0.4c0.6,0.3,1,0.6,1.4,1.1l-1.2,1.2c-0.5-0.7-1.2-1-2-1c-0.5,0-0.9,0.1-1.3,0.3
		c-0.4,0.2-0.7,0.5-0.9,1s-0.3,0.9-0.3,1.4c0,0.5,0.1,1,0.3,1.4c0.2,0.4,0.5,0.7,0.9,1c0.4,0.2,0.8,0.3,1.3,0.3c0.8,0,1.5-0.3,2-1
		l1.2,1.2c-0.4,0.5-0.8,0.9-1.4,1.1s-1.2,0.4-1.9,0.4C212.5,317.3,211.8,317.1,211.1,316.7z"/>
		<path class="st10" d="M222.8,315.3h-3.7l-0.7,1.8h-1.9l3.5-8.4h1.8l3.6,8.4h-1.9L222.8,315.3z M222.2,313.8l-1.3-3.2l-1.3,3.2
		H222.2z"/>
		<path class="st10" d="M233.4,317.1l0-5l-2.3,4.2h-0.8l-2.3-4v4.9h-1.7v-8.4h1.5l3,5.2l2.9-5.2h1.5l0,8.4H233.4z"/>
		<path class="st10" d="M242.2,309.1c0.5,0.2,0.9,0.6,1.2,1.1s0.4,1,0.4,1.6c0,0.6-0.1,1.2-0.4,1.6s-0.7,0.8-1.2,1.1
		c-0.5,0.2-1.1,0.4-1.8,0.4h-1.6v2.3h-1.8v-8.4h3.4C241,308.7,241.6,308.8,242.2,309.1z M241.5,312.8c0.3-0.3,0.4-0.6,0.4-1.1
		c0-0.5-0.1-0.8-0.4-1.1c-0.3-0.3-0.7-0.4-1.3-0.4h-1.5v2.9h1.5C240.8,313.2,241.2,313.1,241.5,312.8z"/>
		<path class="st10" d="M249.8,315.3h-3.7l-0.7,1.8h-1.9l3.5-8.4h1.8l3.6,8.4h-1.9L249.8,315.3z M249.2,313.8l-1.3-3.2l-1.3,3.2
		H249.2z"/>
		<path class="st10" d="M253.2,308.7h1.8v8.4h-1.8V308.7z"/>
		<path class="st10" d="M262.2,312.8h1.7v3.4c-0.4,0.3-0.9,0.6-1.5,0.8c-0.6,0.2-1.1,0.3-1.7,0.3c-0.8,0-1.6-0.2-2.2-0.6
		s-1.2-0.9-1.6-1.5c-0.4-0.7-0.6-1.4-0.6-2.2s0.2-1.6,0.6-2.2c0.4-0.7,0.9-1.2,1.6-1.5s1.4-0.6,2.2-0.6c0.7,0,1.3,0.1,1.9,0.4
		c0.6,0.2,1,0.6,1.4,1.1l-1.2,1.2c-0.6-0.6-1.3-0.9-2.1-0.9c-0.5,0-1,0.1-1.4,0.3c-0.4,0.2-0.7,0.5-0.9,0.9
		c-0.2,0.4-0.3,0.9-0.3,1.4c0,0.5,0.1,1,0.3,1.4c0.2,0.4,0.5,0.7,0.9,1c0.4,0.2,0.8,0.3,1.3,0.3c0.5,0,1-0.1,1.4-0.4V312.8z"/>
		<path class="st10" d="M272.7,308.7v8.4h-1.5l-4-5.1v5.1h-1.8v-8.4h1.5l4,5.1v-5.1H272.7z"/>
	</g>
	<g>
		<g>
			<g>
				<g>
					<g>
						<g>
							<path class="st5" d="M72.3,369.7H60.6c-0.5,0-0.9-0.4-0.9-0.9s0.4-0.9,0.9-0.9h11.6c0.5,0,0.9,0.4,0.9,0.9
							S72.7,369.7,72.3,369.7z"/>
						</g>
					</g>
					<g>
						<g>
							<path class="st5" d="M72.3,384.8h-4.2c-0.5,0-0.9-0.4-0.9-0.9c0-0.5,0.4-0.9,0.9-0.9h4.2c0.5,0,0.9,0.4,0.9,0.9
							C73.1,384.4,72.7,384.8,72.3,384.8z"/>
						</g>
					</g>
					<g>
						<g>
							<path class="st5" d="M72.2,373.5h-9.9c-0.5,0-0.9-0.4-0.9-0.9c0-0.5,0.4-0.9,0.9-0.9h9.9c0.5,0,0.9,0.4,0.9,0.9
							C73,373.1,72.6,373.5,72.2,373.5z"/>
						</g>
					</g>
					<g>
						<g>
							<path class="st5" d="M72.3,377.3H60.6c-0.5,0-0.9-0.4-0.9-0.9c0-0.5,0.4-0.9,0.9-0.9h11.6c0.5,0,0.9,0.4,0.9,0.9
							C73.1,376.9,72.7,377.3,72.3,377.3z"/>
						</g>
					</g>
					<path class="st5" d="M77.2,362.3c0-0.3-0.1-0.5-0.3-0.7l-10.2-10.2c0,0,0,0,0,0c-0.1-0.1-0.1-0.1-0.2-0.1c0,0,0,0-0.1,0
					c-0.1,0-0.1-0.1-0.2-0.1c0,0,0,0,0,0c-0.1,0-0.1,0-0.2,0H46.1c-0.5,0-0.9,0.4-0.9,0.9v8.7c0.3,0,0.7,0,1,0c0.2,0,0.5,0,0.7,0
					v-7.9h18.2v9.4c0,0.5,0.4,0.9,0.9,0.9h9.4v27.4H47v-7.9c-0.2,0-0.5,0-0.7,0c-0.3,0-0.7,0-1,0v8.7c0,0.5,0.4,0.9,0.9,0.9h30.2
					c0.5,0,0.9-0.4,0.9-0.9v-29C77.2,362.4,77.2,362.4,77.2,362.3z M66.9,361.5v-7.3l7.3,7.3H66.9z"/>
					<g>
						<path class="st5" d="M44.8,376.6c-0.2,0-0.4-0.1-0.6-0.2l-3.8-3.4c-0.4-0.3-0.4-0.9-0.1-1.2c0.3-0.4,0.9-0.4,1.2-0.1l3.2,2.8
						l6.1-7.2c0.3-0.4,0.9-0.4,1.2-0.1c0.4,0.3,0.4,0.9,0.1,1.2l-6.7,7.9C45.3,376.4,45.1,376.5,44.8,376.6
						C44.9,376.6,44.8,376.6,44.8,376.6z"/>
					</g>
					<g>
						<path class="st5" d="M46.2,383.6c-0.3,0-0.7,0-1.1,0c-6.2-0.5-10.8-5.6-10.8-11.8S39,360.5,45.2,360c0.7-0.1,1.3-0.1,1.9,0
						c6.2,0.4,11,5.6,11,11.8c0,6.2-4.9,11.4-11.1,11.8C46.8,383.6,46.5,383.6,46.2,383.6z M46.2,361.6c-0.3,0-0.6,0-0.9,0
						c-5.3,0.5-9.2,4.8-9.2,10.1c0,5.3,4,9.6,9.2,10.1c0.6,0.1,1.1,0.1,1.6,0c5.3-0.4,9.5-4.8,9.5-10.1c0-5.3-4.1-9.7-9.4-10.1
						C46.7,361.6,46.5,361.6,46.2,361.6z"/>
					</g>
				</g>

				<radialGradient id="SVGID_11_" cx="-149.7626" cy="4624.2642" r="59.465" gradientTransform="matrix(0.5538 0 0 4.348000e-02 144.3805 195.3147)" gradientUnits="userSpaceOnUse">
					<stop offset="0.1034" style="stop-color:#E0E3E2"/>
					<stop offset="0.2677" style="stop-color:#E9EBEA"/>
					<stop offset="0.684" style="stop-color:#F9FAFA"/>
					<stop offset="1" style="stop-color:#FFFFFF"/>
				</radialGradient>
				<ellipse class="st38" cx="61.4" cy="396.4" rx="46.5" ry="2.2"/>
			</g>
		</g>
		<g>
			<path class="st10" d="M20,410.1c-0.6-0.3-1-0.7-1.3-1.3c-0.3-0.5-0.5-1.2-0.5-1.8s0.2-1.3,0.5-1.8c0.3-0.5,0.8-1,1.3-1.3
			c0.6-0.3,1.2-0.5,1.9-0.5c0.6,0,1.1,0.1,1.6,0.3c0.5,0.2,0.9,0.5,1.2,0.9l-0.8,0.8c-0.5-0.5-1.1-0.8-1.9-0.8
			c-0.5,0-0.9,0.1-1.3,0.3c-0.4,0.2-0.7,0.5-0.9,0.9c-0.2,0.4-0.3,0.8-0.3,1.3s0.1,0.9,0.3,1.3c0.2,0.4,0.5,0.7,0.9,0.9
			c0.4,0.2,0.8,0.3,1.3,0.3c0.7,0,1.4-0.3,1.9-0.8l0.8,0.8c-0.3,0.4-0.7,0.7-1.2,0.9s-1,0.3-1.6,0.3C21.2,410.5,20.5,410.4,20,410.1
			z"/>
			<path class="st10" d="M29.5,405.6c0.4,0.4,0.6,0.9,0.6,1.7v3.1H29v-0.7c-0.2,0.2-0.4,0.4-0.7,0.5c-0.3,0.1-0.6,0.2-1,0.2
			c-0.4,0-0.8-0.1-1.1-0.2c-0.3-0.1-0.5-0.3-0.7-0.6c-0.2-0.2-0.2-0.5-0.2-0.8c0-0.5,0.2-0.9,0.5-1.2c0.4-0.3,0.9-0.4,1.7-0.4h1.4
			v-0.1c0-0.4-0.1-0.7-0.3-0.9c-0.2-0.2-0.6-0.3-1-0.3c-0.3,0-0.6,0-0.9,0.1c-0.3,0.1-0.5,0.2-0.7,0.4l-0.5-0.9
			c0.3-0.2,0.6-0.4,1-0.5c0.4-0.1,0.8-0.2,1.2-0.2C28.5,405,29.1,405.2,29.5,405.6z M28.4,409.4c0.2-0.1,0.4-0.3,0.5-0.6v-0.6h-1.3
			c-0.7,0-1.1,0.2-1.1,0.7c0,0.2,0.1,0.4,0.3,0.5c0.2,0.1,0.4,0.2,0.8,0.2C27.9,409.6,28.2,409.5,28.4,409.4z"/>
			<path class="st10" d="M40.1,405.6c0.4,0.4,0.6,1,0.6,1.8v3.1h-1.2v-2.9c0-0.5-0.1-0.8-0.3-1.1s-0.5-0.4-0.9-0.4
			c-0.4,0-0.8,0.1-1,0.4c-0.3,0.3-0.4,0.7-0.4,1.2v2.7h-1.2v-2.9c0-0.5-0.1-0.8-0.3-1.1c-0.2-0.2-0.5-0.4-0.9-0.4
			c-0.4,0-0.8,0.1-1,0.4c-0.2,0.3-0.4,0.7-0.4,1.2v2.7h-1.2v-5.3h1.2v0.7c0.2-0.2,0.5-0.4,0.8-0.5c0.3-0.1,0.6-0.2,1-0.2
			c0.4,0,0.8,0.1,1.1,0.2c0.3,0.1,0.6,0.4,0.7,0.7c0.2-0.3,0.5-0.5,0.9-0.7c0.3-0.2,0.7-0.2,1.1-0.2C39.1,405,39.7,405.2,40.1,405.6
			z"/>
			<path class="st10" d="M46.5,405.4c0.4,0.2,0.7,0.5,1,1c0.2,0.4,0.4,0.9,0.4,1.4s-0.1,1-0.4,1.4c-0.2,0.4-0.6,0.7-1,1
			c-0.4,0.2-0.9,0.3-1.4,0.3c-0.7,0-1.3-0.2-1.7-0.7v2.6h-1.2v-7.3h1.2v0.7c0.2-0.3,0.5-0.4,0.8-0.6s0.6-0.2,1-0.2
			C45.7,405,46.1,405.1,46.5,405.4z M46.1,409c0.3-0.3,0.4-0.7,0.4-1.2s-0.1-0.9-0.4-1.2c-0.3-0.3-0.7-0.5-1.1-0.5
			c-0.3,0-0.6,0.1-0.8,0.2c-0.2,0.1-0.4,0.3-0.6,0.6c-0.1,0.3-0.2,0.5-0.2,0.9s0.1,0.6,0.2,0.9c0.1,0.3,0.3,0.4,0.6,0.6
			c0.2,0.1,0.5,0.2,0.8,0.2C45.5,409.4,45.9,409.3,46.1,409z"/>
			<path class="st10" d="M52.8,405.6c0.4,0.4,0.6,0.9,0.6,1.7v3.1h-1.2v-0.7c-0.2,0.2-0.4,0.4-0.7,0.5c-0.3,0.1-0.6,0.2-1,0.2
			c-0.4,0-0.8-0.1-1.1-0.2c-0.3-0.1-0.5-0.3-0.7-0.6c-0.2-0.2-0.2-0.5-0.2-0.8c0-0.5,0.2-0.9,0.5-1.2c0.4-0.3,0.9-0.4,1.7-0.4h1.4
			v-0.1c0-0.4-0.1-0.7-0.3-0.9c-0.2-0.2-0.6-0.3-1-0.3c-0.3,0-0.6,0-0.9,0.1c-0.3,0.1-0.5,0.2-0.7,0.4l-0.5-0.9
			c0.3-0.2,0.6-0.4,1-0.5c0.4-0.1,0.8-0.2,1.2-0.2C51.8,405,52.4,405.2,52.8,405.6z M51.6,409.4c0.2-0.1,0.4-0.3,0.5-0.6v-0.6h-1.3
			c-0.7,0-1.1,0.2-1.1,0.7c0,0.2,0.1,0.4,0.3,0.5c0.2,0.1,0.4,0.2,0.8,0.2C51.1,409.6,51.4,409.5,51.6,409.4z"/>
			<path class="st10" d="M55,404c-0.2-0.1-0.2-0.3-0.2-0.5c0-0.2,0.1-0.4,0.2-0.5s0.3-0.2,0.6-0.2c0.2,0,0.4,0.1,0.6,0.2
			s0.2,0.3,0.2,0.5c0,0.2-0.1,0.4-0.2,0.6c-0.1,0.2-0.3,0.2-0.6,0.2C55.4,404.2,55.2,404.1,55,404z M55,405.1h1.2v5.3H55V405.1z"/>
			<path class="st10" d="M63.1,405.1v4.5c0,1.9-1,2.8-2.9,2.8c-0.5,0-1-0.1-1.5-0.2c-0.5-0.1-0.8-0.3-1.1-0.6l0.6-0.9
			c0.2,0.2,0.5,0.3,0.9,0.5c0.4,0.1,0.7,0.2,1.1,0.2c0.6,0,1-0.1,1.3-0.4s0.4-0.7,0.4-1.2v-0.3c-0.2,0.2-0.5,0.4-0.8,0.5
			s-0.6,0.2-1,0.2c-0.5,0-1-0.1-1.4-0.3c-0.4-0.2-0.7-0.5-1-0.9c-0.2-0.4-0.4-0.8-0.4-1.3s0.1-1,0.4-1.3c0.2-0.4,0.6-0.7,1-0.9
			c0.4-0.2,0.9-0.3,1.4-0.3c0.4,0,0.7,0.1,1.1,0.2c0.3,0.1,0.6,0.3,0.8,0.6v-0.7H63.1z M61.4,408.7c0.3-0.3,0.5-0.7,0.5-1.1
			c0-0.4-0.2-0.8-0.5-1.1c-0.3-0.3-0.7-0.4-1.2-0.4c-0.5,0-0.9,0.1-1.2,0.4c-0.3,0.3-0.5,0.6-0.5,1.1c0,0.5,0.2,0.8,0.5,1.1
			c0.3,0.3,0.7,0.4,1.2,0.4C60.7,409.1,61.1,409,61.4,408.7z"/>
			<path class="st10" d="M69.3,405.6c0.4,0.4,0.6,1,0.6,1.8v3.1h-1.2v-2.9c0-0.5-0.1-0.8-0.3-1.1s-0.5-0.4-0.9-0.4
			c-0.5,0-0.8,0.1-1.1,0.4c-0.3,0.3-0.4,0.7-0.4,1.2v2.7h-1.2v-5.3h1.2v0.7c0.2-0.2,0.5-0.4,0.8-0.6s0.7-0.2,1.1-0.2
			C68.4,405,68.9,405.2,69.3,405.6z"/>
			<path class="st10" d="M78.8,403.7c0.5,0.2,0.8,0.5,1,0.9c0.2,0.4,0.4,0.8,0.4,1.3c0,0.5-0.1,0.9-0.4,1.3c-0.2,0.4-0.6,0.7-1,0.9
			c-0.4,0.2-1,0.3-1.6,0.3h-1.6v2h-1.3v-7h2.9C77.8,403.4,78.3,403.5,78.8,403.7z M78.4,407c0.3-0.2,0.4-0.6,0.4-1
			c0-0.4-0.1-0.8-0.4-1s-0.7-0.4-1.3-0.4h-1.5v2.8h1.5C77.7,407.3,78.1,407.2,78.4,407z"/>
			<path class="st10" d="M81.4,403h1.2v7.4h-1.2V403z"/>
			<path class="st10" d="M88.1,405.6c0.4,0.4,0.6,0.9,0.6,1.7v3.1h-1.2v-0.7c-0.2,0.2-0.4,0.4-0.7,0.5c-0.3,0.1-0.6,0.2-1,0.2
			c-0.4,0-0.8-0.1-1.1-0.2c-0.3-0.1-0.5-0.3-0.7-0.6c-0.2-0.2-0.2-0.5-0.2-0.8c0-0.5,0.2-0.9,0.5-1.2c0.4-0.3,0.9-0.4,1.7-0.4h1.4
			v-0.1c0-0.4-0.1-0.7-0.3-0.9c-0.2-0.2-0.6-0.3-1-0.3c-0.3,0-0.6,0-0.9,0.1c-0.3,0.1-0.5,0.2-0.7,0.4l-0.5-0.9
			c0.3-0.2,0.6-0.4,1-0.5c0.4-0.1,0.8-0.2,1.2-0.2C87.1,405,87.7,405.2,88.1,405.6z M86.9,409.4c0.2-0.1,0.4-0.3,0.5-0.6v-0.6h-1.3
			c-0.7,0-1.1,0.2-1.1,0.7c0,0.2,0.1,0.4,0.3,0.5c0.2,0.1,0.4,0.2,0.8,0.2C86.4,409.6,86.7,409.5,86.9,409.4z"/>
			<path class="st10" d="M93.5,410.1c-0.1,0.1-0.3,0.2-0.5,0.3c-0.2,0.1-0.4,0.1-0.7,0.1c-0.6,0-1-0.2-1.4-0.5
			c-0.3-0.3-0.5-0.8-0.5-1.3v-2.6h-0.9v-1h0.9v-1.2h1.2v1.2h1.4v1h-1.4v2.5c0,0.3,0.1,0.5,0.2,0.6c0.1,0.1,0.3,0.2,0.5,0.2
			c0.3,0,0.5-0.1,0.7-0.2L93.5,410.1z"/>
			<path class="st10" d="M95.8,404.8v0.3h1.5v1h-1.4v4.3h-1.2v-4.3h-0.9v-1h0.9v-0.3c0-0.6,0.2-1,0.5-1.4c0.3-0.3,0.8-0.5,1.4-0.5
			c0.5,0,0.9,0.1,1.1,0.3l-0.3,0.9c-0.2-0.1-0.4-0.2-0.7-0.2C96.1,404,95.8,404.2,95.8,404.8z"/>
			<path class="st10" d="M99,410.2c-0.4-0.2-0.8-0.6-1-1c-0.2-0.4-0.4-0.9-0.4-1.4s0.1-1,0.4-1.4c0.2-0.4,0.6-0.7,1-1
			c0.4-0.2,0.9-0.4,1.5-0.4c0.5,0,1,0.1,1.5,0.4c0.4,0.2,0.8,0.6,1,1c0.2,0.4,0.4,0.9,0.4,1.4s-0.1,1-0.4,1.4c-0.2,0.4-0.6,0.7-1,1
			c-0.4,0.2-0.9,0.4-1.5,0.4C99.9,410.5,99.4,410.4,99,410.2z M101.6,409c0.3-0.3,0.5-0.7,0.5-1.2s-0.1-0.9-0.5-1.2
			c-0.3-0.3-0.7-0.5-1.1-0.5c-0.5,0-0.8,0.2-1.1,0.5c-0.3,0.3-0.4,0.7-0.4,1.2s0.1,0.9,0.4,1.2c0.3,0.3,0.7,0.5,1.1,0.5
			C100.9,409.4,101.3,409.3,101.6,409z"/>
			<path class="st10" d="M107.5,405v1.2c-0.1,0-0.2,0-0.3,0c-0.5,0-0.9,0.1-1.1,0.4c-0.3,0.3-0.4,0.7-0.4,1.2v2.6h-1.2v-5.3h1.2v0.8
			C106,405.3,106.6,405,107.5,405z"/>
			<path class="st10" d="M116.9,405.6c0.4,0.4,0.6,1,0.6,1.8v3.1h-1.2v-2.9c0-0.5-0.1-0.8-0.3-1.1s-0.5-0.4-0.9-0.4
			c-0.4,0-0.8,0.1-1,0.4c-0.3,0.3-0.4,0.7-0.4,1.2v2.7h-1.2v-2.9c0-0.5-0.1-0.8-0.3-1.1c-0.2-0.2-0.5-0.4-0.9-0.4
			c-0.4,0-0.8,0.1-1,0.4c-0.2,0.3-0.4,0.7-0.4,1.2v2.7h-1.2v-5.3h1.2v0.7c0.2-0.2,0.5-0.4,0.8-0.5c0.3-0.1,0.6-0.2,1-0.2
			c0.4,0,0.8,0.1,1.1,0.2c0.3,0.1,0.6,0.4,0.7,0.7c0.2-0.3,0.5-0.5,0.9-0.7c0.3-0.2,0.7-0.2,1.1-0.2
			C115.9,405,116.5,405.2,116.9,405.6z"/>
		</g>
		<g>
			<path class="st10" d="M26.3,413.9l-3.4,8.4H21l-3.4-8.4h2l2.4,6l2.5-6H26.3z"/>
			<path class="st10" d="M31.8,420.5h-3.7l-0.7,1.8h-1.9l3.5-8.4h1.8l3.6,8.4h-1.9L31.8,420.5z M31.2,419l-1.3-3.2l-1.3,3.2H31.2z"/>
			<path class="st10" d="M35.2,413.9H37v6.8h4v1.6h-5.8V413.9z"/>
			<path class="st10" d="M41.9,413.9h1.8v8.4h-1.8V413.9z"/>
			<path class="st10" d="M45.5,413.9h3.6c0.9,0,1.6,0.2,2.3,0.5c0.7,0.3,1.2,0.8,1.5,1.5c0.4,0.6,0.6,1.4,0.6,2.2s-0.2,1.6-0.6,2.2
			c-0.4,0.6-0.9,1.1-1.5,1.5c-0.7,0.3-1.4,0.5-2.3,0.5h-3.6V413.9z M49.1,420.7c0.8,0,1.4-0.2,1.9-0.7c0.5-0.5,0.7-1.1,0.7-1.9
			s-0.2-1.4-0.7-1.9c-0.5-0.5-1.1-0.7-1.9-0.7h-1.7v5.2H49.1z"/>
			<path class="st10" d="M59.9,420.5h-3.7l-0.7,1.8h-1.9l3.5-8.4H59l3.6,8.4h-1.9L59.9,420.5z M59.3,419l-1.3-3.2l-1.3,3.2H59.3z"/>
			<path class="st10" d="M64.5,415.5H62v-1.6h6.9v1.6h-2.5v6.8h-1.8V415.5z"/>
			<path class="st10" d="M69.8,413.9h1.8v8.4h-1.8V413.9z"/>
			<path class="st10" d="M75,421.9c-0.7-0.4-1.2-0.9-1.6-1.6c-0.4-0.7-0.6-1.4-0.6-2.2c0-0.8,0.2-1.6,0.6-2.2
			c0.4-0.7,0.9-1.2,1.6-1.6c0.7-0.4,1.4-0.6,2.2-0.6s1.6,0.2,2.2,0.6c0.7,0.4,1.2,0.9,1.6,1.6c0.4,0.7,0.6,1.4,0.6,2.2
			c0,0.8-0.2,1.6-0.6,2.2c-0.4,0.7-0.9,1.2-1.6,1.6c-0.7,0.4-1.4,0.6-2.2,0.6S75.7,422.3,75,421.9z M78.5,420.5
			c0.4-0.2,0.7-0.5,0.9-1c0.2-0.4,0.3-0.9,0.3-1.4c0-0.5-0.1-1-0.3-1.4c-0.2-0.4-0.5-0.7-0.9-1c-0.4-0.2-0.8-0.3-1.3-0.3
			s-0.9,0.1-1.3,0.3c-0.4,0.2-0.7,0.5-0.9,1s-0.3,0.9-0.3,1.4c0,0.5,0.1,1,0.3,1.4c0.2,0.4,0.5,0.7,0.9,1c0.4,0.2,0.8,0.3,1.3,0.3
			S78.1,420.7,78.5,420.5z"/>
			<path class="st10" d="M90.2,413.9v8.4h-1.5l-4-5.1v5.1h-1.8v-8.4h1.5l4,5.1v-5.1H90.2z"/>
		</g>
	</g>
</svg>
