<?xml version="1.0" encoding="utf-8"?>
<!-- Generator: Adobe Illustrator 23.0.3, SVG Export Plug-In . SVG Version: 6.00 Build 0)  -->
<svg version="1.1" id="Layer_1" xmlns="http://www.w3.org/2000/svg" xmlns:xlink="http://www.w3.org/1999/xlink" x="0px" y="0px"
	 viewBox="0 0 1096 1114.6" style="enable-background:new 0 0 1096 1114.6;" xml:space="preserve">
<style type="text/css">
	
		.st0{fill:none;stroke:#FF7DB9;stroke-width:1.4759;stroke-linecap:round;stroke-linejoin:round;stroke-miterlimit:10;stroke-dasharray:2.9517,5.4115;}
	.st1{fill:#FFFFFF;}
	.st2{fill:none;stroke:#FFCB57;stroke-width:1.6599;stroke-miterlimit:10;}
	.st3{fill:#FFCB57;}
	.st4{opacity:0.9;fill:url(#SVGID_1_);}
	.st5{opacity:0.9;fill:url(#SVGID_2_);}
	.st6{opacity:0.9;fill:url(#SVGID_3_);}
	.st7{opacity:0.9;fill:url(#SVGID_4_);}
	.st8{opacity:0.9;fill:url(#SVGID_5_);}
	.st9{fill:#FFF9DB;}
	.st10{fill:#FFD7E9;}
	.st11{opacity:0.9;fill:url(#SVGID_6_);}
	.st12{opacity:0.9;fill:url(#SVGID_7_);}
	.st13{fill:#D8F2FF;}
	.st14{opacity:0.9;fill:url(#SVGID_8_);}
	.st15{fill:none;stroke:#FF7DB9;stroke-width:2.2533;stroke-linecap:round;stroke-linejoin:round;stroke-miterlimit:10;}
	.st16{fill:#FF7DB9;}
	.st17{fill:none;stroke:#FFCB57;stroke-width:2.2533;stroke-linecap:round;stroke-linejoin:round;stroke-miterlimit:10;}
	.st18{fill:#FFCB00;}
	.st19{fill:none;stroke:#FFCB57;stroke-width:2.2533;stroke-linejoin:round;stroke-miterlimit:10;}
	.st20{fill:none;stroke:#49C4FF;stroke-width:1.7704;stroke-linecap:round;stroke-linejoin:round;stroke-miterlimit:10;}
	.st21{fill:#49C4FF;}
	.st22{fill:none;stroke:#FF7DB9;stroke-width:2.2533;stroke-linejoin:round;stroke-miterlimit:10;}
	.st23{fill:none;stroke:#49C4FF;stroke-width:1.7335;stroke-linecap:round;stroke-linejoin:round;stroke-miterlimit:10;}
	.st24{fill:#F6F0F8;}
	.st25{fill:#333343;}
	.st26{fill:#3E3D51;}
	.st27{fill:none;stroke:#FFCB57;stroke-width:1.4173;stroke-miterlimit:10;}
	.st28{opacity:0.9;fill:url(#SVGID_9_);}
	.st29{fill:none;stroke:#FFCB57;stroke-width:1.6611;stroke-linecap:round;stroke-linejoin:round;stroke-miterlimit:10;}
	.st30{fill:none;stroke:#FFCB57;stroke-width:3.6085;stroke-miterlimit:10;}
	.st31{opacity:0.9;fill:url(#SVGID_10_);}
	.st32{opacity:0.9;fill:url(#SVGID_11_);}
	.st33{opacity:0.9;fill:url(#SVGID_12_);}
	.st34{opacity:0.9;fill:url(#SVGID_13_);}
	.st35{opacity:0.9;fill:url(#SVGID_14_);}
	.st36{opacity:0.9;fill:url(#SVGID_15_);}
	.st37{opacity:0.9;fill:url(#SVGID_16_);}
	.st38{opacity:0.9;fill:url(#SVGID_17_);}
	.st39{fill:none;stroke:#FF7DB9;stroke-width:4.8984;stroke-linecap:round;stroke-linejoin:round;stroke-miterlimit:10;}
	.st40{fill:none;stroke:#FFCB57;stroke-width:4.8984;stroke-linecap:round;stroke-linejoin:round;stroke-miterlimit:10;}
	.st41{fill:none;stroke:#FFCB57;stroke-width:4.8984;stroke-linejoin:round;stroke-miterlimit:10;}
	.st42{fill:none;stroke:#49C4FF;stroke-width:3.8488;stroke-linecap:round;stroke-linejoin:round;stroke-miterlimit:10;}
	.st43{fill:none;stroke:#FF7DB9;stroke-width:4.8984;stroke-linejoin:round;stroke-miterlimit:10;}
	.st44{fill:none;stroke:#49C4FF;stroke-width:3.7686;stroke-linecap:round;stroke-linejoin:round;stroke-miterlimit:10;}
	.st45{fill:#32A9FE;}
	.st46{fill:none;stroke:#FFCB57;stroke-width:3.0812;stroke-miterlimit:10;}
	.st47{opacity:0.9;fill:url(#SVGID_18_);}
	.st48{fill:none;stroke:#FFCB57;stroke-width:3.6111;stroke-linecap:round;stroke-linejoin:round;stroke-miterlimit:10;}
	
		.st49{fill:none;stroke:#FF7DB9;stroke-width:2.126;stroke-linecap:round;stroke-linejoin:round;stroke-miterlimit:10;stroke-dasharray:2.9517,5.4115;}
	.st50{opacity:0.9;fill:url(#SVGID_19_);}
	.st51{opacity:0.9;fill:url(#SVGID_20_);}
	.st52{opacity:0.9;fill:url(#SVGID_21_);}
	.st53{opacity:0.9;fill:url(#SVGID_22_);}
	.st54{opacity:0.9;fill:url(#SVGID_23_);}
	.st55{opacity:0.9;fill:url(#SVGID_24_);}
	.st56{opacity:0.9;fill:url(#SVGID_25_);}
	.st57{opacity:0.9;fill:url(#SVGID_26_);}
	.st58{opacity:0.9;fill:url(#SVGID_27_);}
	.st59{opacity:0.9;fill:url(#SVGID_28_);}
	.st60{opacity:0.9;fill:url(#SVGID_29_);}
	.st61{opacity:0.9;fill:url(#SVGID_30_);}
	.st62{opacity:0.9;fill:url(#SVGID_31_);}
	.st63{opacity:0.9;fill:url(#SVGID_32_);}
	.st64{opacity:0.9;fill:url(#SVGID_33_);}
	.st65{opacity:0.9;fill:url(#SVGID_34_);}
	.st66{opacity:0.9;fill:url(#SVGID_35_);}
	.st67{opacity:0.9;fill:url(#SVGID_36_);}
	.st68{opacity:0.9;fill:url(#SVGID_37_);}
	.st69{opacity:0.9;fill:url(#SVGID_38_);}
	.st70{opacity:0.9;fill:url(#SVGID_39_);}
	.st71{opacity:0.9;fill:url(#SVGID_40_);}
</style>
<g>
	<ellipse class="st1" cx="294.7" cy="501.1" rx="62.2" ry="99.6"/>
	<circle class="st30" cx="303.8" cy="464.4" r="46.7"/>
	<g>
		<g>
			<path class="st3" d="M291.3,489.2c-1.5,0-2.4,0-2.5,0h-1.5v-27.3l0.5-0.4c3.1-3,5.3-6.9,7.5-10.7c0.5-0.8,0.9-1.6,1.4-2.5
				l0.1-0.1c0.9-1.4,0.9-4.3,0.8-6.6c-0.1-2.2-0.1-4,0.6-5.1c0.6-0.9,1.5-1.4,2.7-1.6c2.2-0.3,4.4,0.9,5.5,3
				c3.3,6.7,2.5,10.8,1.4,16.6c-0.1,0.8-0.3,1.6-0.5,2.5c2.3,0.1,4.6,0,6.8,0c2.5,0,5.1-0.1,7.6,0c1.9,0.1,4.3,0.3,5.6,1.9
				c0.5,0.6,1,1.7,0.8,3.2c-0.3,1.7-1.1,3.1-2.4,4c0.9,0.9,1.3,2.1,1.1,3.5c-0.2,1.5-1.1,3-2.3,3.9c0.7,0.8,1.1,1.8,1,3
				c0,1.8-1,3.5-2.4,4.5c0.8,1,1.1,2.2,0.8,3.5c-0.6,2.6-3.5,4.7-6.4,4.7C310.6,489.2,296.9,489.2,291.3,489.2z M290.4,486.2
				c4.8,0,19.7,0,27.2,0c1.6,0,3.2-1.3,3.5-2.4c0.1-0.2,0.2-0.8-0.7-1.3c-0.9-0.3-1.4-1.1-1.3-1.9c0.1-0.9,0.8-1.6,1.8-1.7
				c1-0.3,1.7-1.5,1.7-2.4c0-0.9-0.6-1.2-1-1.4l-0.1,0l-0.1-0.1c-0.8-0.4-1.2-1.2-1-2c0.2-0.8,1-1.4,1.8-1.5
				c0.9-0.3,1.7-1.3,1.8-2.2c0.1-0.8-0.3-1.1-0.6-1.3l-0.1,0c0,0-0.1,0-0.1-0.1c-0.3-0.1-1.1-0.4-1.4-1.2l-0.1-0.1l0-0.1
				c-0.2-0.8,0.2-1.7,1-2.1l0.1-0.1l0.1,0c1.3-0.3,2-1.2,2.3-2.6l0,0c0.1-0.6-0.1-0.8-0.1-0.9c-0.3-0.3-1.1-0.8-3.4-0.8
				c-2.5-0.1-5,0-7.5,0c-2.8,0-5.8,0.1-8.7-0.1l-1.7-0.1l0.3-1.6c0.2-1.5,0.5-3,0.7-4.2c1.1-5.6,1.7-8.9-1.2-14.7
				c-0.5-0.9-1.4-1.5-2.4-1.4c-0.4,0.1-0.6,0.2-0.6,0.2c-0.2,0.4-0.2,2.2-0.1,3.4c0.1,2.9,0.2,6.1-1.3,8.3c-0.5,0.8-0.9,1.6-1.4,2.4
				c-2.2,3.8-4.4,7.8-7.6,11V486.2z"/>
		</g>
		<g>
			<path class="st3" d="M287.8,489.2H282c-1.4,0-2.6-1.1-2.6-2.6v-23.1c0-1.4,1.1-2.6,2.6-2.6h5.8c1.4,0,2.6,1.1,2.6,2.6v23.1
				C290.3,488.1,289.2,489.2,287.8,489.2z M282.4,486.2h4.9V464h-4.9V486.2z"/>
		</g>
	</g>
	
		<radialGradient id="SVGID_1_" cx="532.5521" cy="5197.3491" r="129.2727" gradientTransform="matrix(0.5538 0 0 4.348000e-02 15.0939 294.979)" gradientUnits="userSpaceOnUse">
		<stop  offset="0.1034" style="stop-color:#E0E3E2"/>
		<stop  offset="0.2677" style="stop-color:#E9EBEA"/>
		<stop  offset="0.684" style="stop-color:#F9FAFA"/>
		<stop  offset="1" style="stop-color:#FFFFFF"/>
	</radialGradient>
	<ellipse class="st4" cx="310" cy="521" rx="101.1" ry="4.7"/>
</g>
<g>
	<g>
		<circle class="st1" cx="933.2" cy="317.3" r="83.6"/>
		<g>
			<g>
				<g>
					<path class="st3" d="M962.9,309h-25.3c-1,0-1.9-0.8-1.9-1.9s0.8-1.9,1.9-1.9h25.3c1,0,1.9,0.8,1.9,1.9S964,309,962.9,309z"/>
				</g>
			</g>
			<g>
				<g>
					<path class="st3" d="M962.9,341.8h-9.1c-1,0-1.9-0.8-1.9-1.9c0-1,0.8-1.9,1.9-1.9h9.1c1,0,1.9,0.8,1.9,1.9
						C964.8,340.9,964,341.8,962.9,341.8z"/>
				</g>
			</g>
			<g>
				<g>
					<path class="st3" d="M962.7,317.2h-21.6c-1,0-1.9-0.8-1.9-1.9c0-1,0.8-1.9,1.9-1.9h21.6c1,0,1.9,0.8,1.9,1.9
						C964.6,316.4,963.7,317.2,962.7,317.2z"/>
				</g>
			</g>
			<g>
				<g>
					<path class="st3" d="M962.9,325.4h-25.3c-1,0-1.9-0.8-1.9-1.9c0-1,0.8-1.9,1.9-1.9h25.3c1,0,1.9,0.8,1.9,1.9
						C964.8,324.5,964,325.4,962.9,325.4z"/>
				</g>
			</g>
			<path class="st3" d="M973.6,293c0-0.6-0.3-1.2-0.7-1.5l-22.1-22.1c0,0,0,0,0,0c-0.1-0.1-0.2-0.2-0.4-0.3c0,0-0.1,0-0.1-0.1
				c-0.1-0.1-0.3-0.1-0.4-0.2c0,0,0,0,0,0c-0.1,0-0.2,0-0.4,0h-43.3c-1,0-1.9,0.8-1.9,1.9v19c0.7-0.1,1.4-0.1,2.1-0.1
				c0.5,0,1.1,0,1.6,0.1v-17.1h39.6V293c0,1,0.8,1.9,1.9,1.9h20.4v59.5H908v-17.1c-0.5,0.1-1.1,0.1-1.6,0.1c-0.7,0-1.4,0-2.1-0.1v19
				c0,1,0.8,1.9,1.9,1.9h65.6c1,0,1.9-0.8,1.9-1.9v-63C973.6,293.1,973.6,293,973.6,293z M951.3,291.1v-15.9l15.9,15.9H951.3z"/>
			<g>
				<path class="st3" d="M903.3,323.9c-0.5,0-0.9-0.2-1.2-0.5l-8.3-7.3c-0.8-0.7-0.9-1.9-0.2-2.7c0.7-0.8,1.9-0.9,2.7-0.2l6.9,6.1
					l13.2-15.6c0.7-0.8,1.9-0.9,2.7-0.2c0.8,0.7,0.9,1.9,0.2,2.7l-14.5,17.1c-0.3,0.4-0.8,0.6-1.3,0.7
					C903.4,323.9,903.3,323.9,903.3,323.9z"/>
			</g>
			<g>
				<path class="st3" d="M906.3,339.2c-0.7,0-1.5,0-2.3-0.1c-13.4-1.2-23.5-12.2-23.5-25.7c0-13.4,10.1-24.5,23.5-25.7
					c1.5-0.1,2.8-0.2,4.1,0c13.4,0.9,24,12.2,24,25.7c0,13.5-10.6,24.8-24,25.7C907.5,339.2,906.9,339.2,906.3,339.2z M906.3,291.5
					c-0.6,0-1.3,0-2,0.1c-11.4,1-20,10.4-20,21.9c0,11.5,8.6,20.9,20,21.9c1.2,0.1,2.3,0.1,3.4,0c11.5-0.8,20.6-10.4,20.6-21.9
					s-9-21.2-20.5-21.9C907.3,291.5,906.8,291.5,906.3,291.5z"/>
			</g>
		</g>
		
			<radialGradient id="SVGID_2_" cx="1669.0204" cy="4843.1851" r="129.2727" gradientTransform="matrix(0.5538 0 0 4.348000e-02 15.0939 156.3876)" gradientUnits="userSpaceOnUse">
			<stop  offset="0.1034" style="stop-color:#E0E3E2"/>
			<stop  offset="0.2677" style="stop-color:#E9EBEA"/>
			<stop  offset="0.684" style="stop-color:#F9FAFA"/>
			<stop  offset="1" style="stop-color:#FFFFFF"/>
		</radialGradient>
		<ellipse class="st5" cx="939.4" cy="367" rx="101.1" ry="4.7"/>
	</g>
</g>
<g>
	<path class="st1" d="M733.2,182.1c33.4,130-29.2,107.1-85,85c-43.6-17.3-85-38.1-85-85s38.1-85,85-85S721.5,136.7,733.2,182.1z"/>
	<g>
		<g>
			<g>
				<path class="st3" d="M643.5,100c2.2,3.8,4.3,9.6,3.7,16.3c-0.6,6.7-4.5,12-9.2,15C642.4,122.5,644,113.1,643.5,100 M640.6,92
					c-0.7,0-1.1,0.6-1,2c1.5,19.6-0.5,30.8-9.4,43.3c9.7,0,19.7-9.1,20.7-20.7C652,103.1,643.6,92,640.6,92L640.6,92z"/>
			</g>
			<g>
				<g>
					<path class="st3" d="M663.9,100.3c1.1,2.1,2.1,4.7,2.8,7.9c1.3,6.1,1.9,18.1-8.3,30.8c-1,1.3-1.1,3.1-0.1,4.4
						c0.7,0.9,1.8,1.5,2.9,1.5c0.5,0,0.9-0.1,1.3-0.3c0.5-0.2,10-4.1,17.3-15.4c-0.2,1.8-0.6,3.8-1.3,6.1c-2.1,7-7.3,16.7-19.8,23.3
						c-1.5,0.8-2.3,2.6-1.8,4.2c0.5,1.5,1.9,2.6,3.5,2.6c0.1,0,0.2,0,0.3,0c0.3,0,5.8-0.6,12.1-3.3c-4.2,4.6-10.9,9.7-19.6,11.4
						c-2.5,0.5-5.2,0.8-7.9,0.8c-12.6,0-23.3-5.6-28.5-15c-2.5-4.6-3.1-9.5-3.6-14.3c-0.7-6.3-1.4-13.2-7.2-18.3
						c1.3-0.8,2.6-1,3.6-1c1.8,0,3.7,0.7,5.1,2c2.3,2.3,2.9,4.7,3.6,7.2c0.8,2.9,1.7,6.5,5.6,8.7c2,1.1,4.4,1.7,7,1.7
						c7.1,0,15.6-4.4,21.2-11C659.5,125.3,663.6,113.2,663.9,100.3 M681.6,157L681.6,157L681.6,157 M661.1,92c-0.7,0-1.1,0.6-1,2.1
						c1.2,16.1-3.8,29.3-10.7,37.7c-4.6,5.5-12.1,9.7-18.4,9.7c-1.9,0-3.7-0.4-5.2-1.2c-5.2-2.9-2.4-9.3-8.5-15.3
						c-2-1.9-4.8-3-7.6-3c-3.3,0-6.7,1.5-9.1,5.1c12.9,7.1,6.1,21,13.2,33.8c6.6,12,19.6,16.9,31.6,16.9c2.9,0,5.8-0.3,8.6-0.8
						c19.5-3.9,30.7-23.5,26.9-23.5c-0.5,0-1.3,0.4-2.4,1.2c-8.1,6.1-18,7.1-18,7.1c26-13.6,25-42,21.2-42c-0.5,0-1.1,0.6-1.7,1.8
						c-6.8,14.9-18.7,19.7-18.7,19.7c9.8-12.1,11-24.5,9-33.8C668.2,98.2,663.2,92,661.1,92L661.1,92z"/>
				</g>
			</g>
		</g>
	</g>
	
		<radialGradient id="SVGID_3_" cx="1139.6307" cy="4430.8262" r="129.2727" gradientTransform="matrix(0.5538 0 0 4.348000e-02 15.0939 -4.9767)" gradientUnits="userSpaceOnUse">
		<stop  offset="0.1034" style="stop-color:#E0E3E2"/>
		<stop  offset="0.2677" style="stop-color:#E9EBEA"/>
		<stop  offset="0.684" style="stop-color:#F9FAFA"/>
		<stop  offset="1" style="stop-color:#FFFFFF"/>
	</radialGradient>
	<ellipse class="st6" cx="646.2" cy="187.7" rx="101.1" ry="4.7"/>
</g>
<g>
	<ellipse class="st1" cx="815.3" cy="603" rx="89.5" ry="110.2"/>
	<g>
		<path class="st3" d="M790.9,567.8c4.8-3.2,8-8.6,8-14.8c0-9.8-8-17.8-17.8-17.8c-9.8,0-17.8,8-17.8,17.8c0,6.2,3.2,11.6,8,14.8
			c-10.9,4-18.6,14.4-18.6,26.7h4.7c0-13.1,10.6-23.7,23.7-23.7c13.1,0,23.7,10.6,23.7,23.7h4.7
			C809.6,582.2,801.8,571.8,790.9,567.8z M781.1,566c-7.2,0-13-5.8-13-13c0-7.2,5.8-13,13-13s13,5.8,13,13
			C794.2,560.1,788.3,566,781.1,566z"/>
		<path class="st3" d="M814.6,555.9c4.8-3.2,8-8.6,8-14.8c0-9.8-8-17.8-17.8-17.8c-4.7,0-9.1,1.9-12.3,4.9c-1.2,1.1-2.2,2.4-3,3.8
			c1.5,0.6,2.9,1.3,4.2,2.2c0.8-1.4,1.9-2.6,3.2-3.5c2.2-1.7,4.9-2.7,7.9-2.7c7.2,0,13,5.8,13,13c0,6-4,11-9.5,12.5
			c-1.1,0.3-2.3,0.5-3.5,0.5c-0.4,0-0.8,0-1.2-0.1c-0.1,1.7-0.4,3.4-0.8,4.9c0.7-0.1,1.3-0.1,2-0.1c1,0,1.9,0.1,2.8,0.2
			c11.7,1.4,20.9,11.4,20.9,23.5h4.7C833.3,570.4,825.5,559.9,814.6,555.9z"/>
		<path class="st3" d="M757.4,558.9c0.7,0,1.4,0.1,2,0.1c-0.4-1.6-0.7-3.2-0.8-4.9c-0.4,0-0.8,0.1-1.2,0.1c-1.2,0-2.4-0.2-3.5-0.5
			c-5.5-1.5-9.5-6.6-9.5-12.5c0-7.2,5.8-13,13-13c3,0,5.7,1,7.9,2.7c1.3,1,2.3,2.2,3.2,3.5c1.3-0.9,2.7-1.6,4.2-2.2
			c-0.8-1.4-1.9-2.7-3-3.8c-3.2-3-7.5-4.9-12.3-4.9c-9.8,0-17.8,8-17.8,17.8c0,6.2,3.2,11.6,8,14.8c-10.9,4-18.6,14.4-18.6,26.7h4.7
			c0-12.1,9.1-22.1,20.9-23.5C755.5,559,756.5,558.9,757.4,558.9z"/>
		<path class="st3" d="M831.2,539.3c4.8-3.2,8-8.6,8-14.8c0-9.8-8-17.8-17.8-17.8c-4.7,0-9.1,1.9-12.3,4.9c-1.2,1.1-2.2,2.4-3,3.8
			c1.5,0.6,2.9,1.3,4.2,2.2c0.8-1.4,1.9-2.6,3.2-3.5c2.2-1.7,4.9-2.7,7.9-2.7c7.2,0,13,5.8,13,13c0,5.3-3.1,9.8-7.6,11.8
			c0.2,1.1,0.3,2.3,0.3,3.5c0,1.1-0.1,2.1-0.3,3.2c10.4,2.5,18.2,11.8,18.2,23h4.7C849.9,553.8,842.1,543.3,831.2,539.3z"/>
		<path class="st3" d="M735.1,539.8c0-1.2,0.1-2.3,0.3-3.5c-4.5-2.1-7.6-6.6-7.6-11.8c0-7.2,5.8-13,13-13c3,0,5.7,1,7.9,2.7
			c1.3,1,2.3,2.2,3.2,3.5c1.3-0.9,2.7-1.6,4.2-2.2c-0.8-1.4-1.9-2.7-3-3.8c-3.2-3-7.5-4.9-12.3-4.9c-9.8,0-17.8,8-17.8,17.8
			c0,6.2,3.2,11.6,8,14.8c-10.9,4-18.6,14.4-18.6,26.7h4.7c0-11.2,7.8-20.6,18.2-23C735.2,541.9,735.1,540.9,735.1,539.8z"/>
		<path class="st3" d="M781.1,511.5c6.3,0,11.6,4.6,12.7,10.6c2.6-1.6,4.5-1.9,4.5-1.9c-2-7.7-8.9-13.4-17.2-13.4
			c-8.3,0-15.3,5.7-17.2,13.4c0,0,1.9,0.4,4.5,1.9C769.5,516,774.8,511.5,781.1,511.5z"/>
	</g>
	
		<radialGradient id="SVGID_4_" cx="1292.8892" cy="2971.4431" r="129.2727" gradientTransform="matrix(0.6388 0 0 6.044964e-02 -40.2771 430.3299)" gradientUnits="userSpaceOnUse">
		<stop  offset="0.1034" style="stop-color:#E0E3E2"/>
		<stop  offset="0.2677" style="stop-color:#E9EBEA"/>
		<stop  offset="0.684" style="stop-color:#F9FAFA"/>
		<stop  offset="1" style="stop-color:#FFFFFF"/>
	</radialGradient>
	<ellipse class="st7" cx="785.6" cy="610" rx="116.6" ry="6.6"/>
</g>
<g>
	<g>
		<path class="st3" d="M121,237.7h-19.5c-2.3,0-4.1,1.8-4.1,4.1c0,2.3,1.8,4.1,4.1,4.1H121c2.3,0,4.1-1.8,4.1-4.1
			C125.1,239.6,123.2,237.7,121,237.7z M122.3,241.8c0,0.7-0.6,1.3-1.3,1.3h-19.5c-0.7,0-1.3-0.6-1.3-1.3c0-0.7,0.6-1.3,1.3-1.3H121
			C121.7,240.5,122.3,241.1,122.3,241.8z"/>
		<path class="st3" d="M98.8,247.8c0,3.7,2.7,6.9,6.3,7.6c0.9,2.7,3.3,4.5,6.1,4.5c2.8,0,5.3-1.8,6.2-4.5c3.6-0.7,6.3-3.9,6.3-7.6
			v-1.4H98.8V247.8z M106.9,252.7l-0.6,0c-2.1-0.1-3.9-1.6-4.5-3.6h18.9c-0.6,2-2.4,3.4-4.5,3.6l-0.6,0L106.9,252.7z M114.2,255.5
			c-0.7,1-1.8,1.5-3,1.5c-1.2,0-2.3-0.6-3-1.5H114.2z"/>
		<path class="st3" d="M111.2,170.7c-15.3,0-27.7,12.4-27.7,27.7c0,6.3,2.1,12.2,5.9,17.1c3,3.7,5.8,7.9,8.3,12v9.8h26.9v-9.5
			c2.6-4.3,5.7-8.9,8.4-12.3c3.9-4.9,5.9-10.8,5.9-17.1C138.9,183.1,126.5,170.7,111.2,170.7z M107.8,211.5l1.9,7.1l3.2-7.8l1.6,4.5
			l3.5-1.6l-4.5,20.8h-4.3l-4.6-20.8L107.8,211.5z M122,226.6l-0.2,0.3v7.5h-5.6l5.9-27.6l-2.7-0.6l-1,4.6l-2.7,1.2l-2.7-7.8l-2.9,7
			l-0.9-3.6l-5.2,3.4l-1.1-5l-2.9,0.6l6,27.6h-5.6v-7.7l-0.2-0.3c-2.6-4.3-5.5-8.7-8.7-12.7c-3.5-4.4-5.3-9.7-5.3-15.4
			c0-13.8,11.2-24.9,24.9-24.9c13.8,0,24.9,11.2,24.9,24.9c0,5.6-1.8,11-5.3,15.4h0C128,217.3,124.7,222.1,122,226.6z"/>
		<path class="st3" d="M112.2,166.1c0.7,0,1.3-0.6,1.3-1.3v-12.1c0-0.7-0.6-1.3-1.3-1.3c-0.7,0-1.3,0.6-1.3,1.3v12.1
			C111,165.6,111.5,166.1,112.2,166.1z"/>
		<path class="st3" d="M130.1,170.5c0.2,0.1,0.4,0.2,0.7,0.2c0.4,0,0.9-0.2,1.1-0.6l6.2-10.3c0.4-0.6,0.2-1.4-0.4-1.7
			c-0.3-0.2-0.6-0.2-1-0.1c-0.3,0.1-0.6,0.3-0.8,0.6l-6.2,10.3c-0.2,0.3-0.2,0.6-0.1,1C129.6,170,129.8,170.3,130.1,170.5z"/>
		<path class="st3" d="M142.2,185.2c0.2,0,0.4,0,0.6-0.1l10.7-5.6c0.6-0.3,0.9-1.1,0.5-1.7c-0.3-0.6-1.1-0.9-1.7-0.5l-10.7,5.6
			c-0.6,0.3-0.9,1.1-0.5,1.7C141.3,184.9,141.7,185.2,142.2,185.2z"/>
		<path class="st3" d="M158.7,200.3c-0.2-0.3-0.5-0.4-0.9-0.4l-12-0.8c-0.7,0-1.3,0.5-1.3,1.2c0,0.7,0.5,1.3,1.2,1.3l12,0.8l0.1,0
			c0.7,0,1.2-0.5,1.3-1.2C159,200.9,158.9,200.5,158.7,200.3z"/>
		<path class="st3" d="M150.8,224.4l-9.9-6.9c-0.3-0.2-0.6-0.3-1-0.2c-0.3,0.1-0.6,0.2-0.8,0.5c-0.4,0.6-0.3,1.4,0.3,1.8l9.9,6.9
			c0.2,0.1,0.5,0.2,0.7,0.2c0.4,0,0.8-0.2,1-0.5c0.2-0.3,0.3-0.6,0.2-0.9C151.2,224.8,151,224.6,150.8,224.4z"/>
		<path class="st3" d="M90.9,170c0.2,0.4,0.6,0.6,1.1,0.6c0.2,0,0.5-0.1,0.7-0.2c0.6-0.4,0.8-1.1,0.4-1.7l-6.2-10.3
			c-0.2-0.3-0.5-0.5-0.8-0.6c-0.3-0.1-0.7,0-1,0.1c-0.6,0.4-0.8,1.1-0.4,1.7L90.9,170z"/>
		<path class="st3" d="M69.3,179.5l10.7,5.6c0.2,0.1,0.4,0.1,0.6,0.1c0.5,0,0.9-0.3,1.1-0.7c0.3-0.6,0.1-1.4-0.5-1.7l-10.7-5.6
			c-0.6-0.3-1.4-0.1-1.7,0.5C68.4,178.4,68.6,179.2,69.3,179.5z"/>
		<path class="st3" d="M78.3,200.3c0-0.7-0.7-1.2-1.3-1.2l-12,0.8c-0.3,0-0.6,0.2-0.9,0.4c-0.2,0.3-0.3,0.6-0.3,0.9
			c0,0.7,0.6,1.2,1.3,1.2l12.1-0.8C77.8,201.6,78.4,201,78.3,200.3z"/>
		<path class="st3" d="M82.8,217.3c-0.3-0.1-0.7,0-0.9,0.2l-9.9,6.9c-0.6,0.4-0.7,1.2-0.3,1.8c0.2,0.3,0.6,0.5,1,0.5
			c0.3,0,0.5-0.1,0.7-0.2l9.9-6.9c0.6-0.4,0.7-1.2,0.3-1.8C83.4,217.5,83.2,217.3,82.8,217.3z"/>
	</g>
	
		<radialGradient id="SVGID_5_" cx="267.6282" cy="2725.4065" r="129.2727" gradientTransform="matrix(0.5011 0 0 5.423031e-02 -23.0141 124.8636)" gradientUnits="userSpaceOnUse">
		<stop  offset="0.1034" style="stop-color:#E0E3E2"/>
		<stop  offset="0.2677" style="stop-color:#E9EBEA"/>
		<stop  offset="0.684" style="stop-color:#F9FAFA"/>
		<stop  offset="1" style="stop-color:#FFFFFF"/>
	</radialGradient>
	<ellipse class="st8" cx="111.1" cy="272.7" rx="91.4" ry="5.9"/>
	<path class="st9" d="M184.8,219.4c0,0-1.9,19.1-17,20.4c15.1,1.3,17,20.4,17,20.4s1.9-19.1,17-20.4
		C186.7,238.5,184.8,219.4,184.8,219.4z"/>
	<path class="st9" d="M212.9,179c0,0-1.3,12.6-11.3,13.5c10,0.9,11.3,13.5,11.3,13.5s1.3-12.6,11.3-13.5
		C214.2,191.7,212.9,179,212.9,179z"/>
</g>
<g>
	<ellipse class="st1" cx="590.4" cy="787.3" rx="69.8" ry="93"/>
	<g>
		<path class="st10" d="M540.5,887.6c0.4,2.6-0.2,5-1.8,7.2c-1.7,2.2-3.8,3.5-6.3,4c-1.9,0.3-3.7-0.1-5.3-1.2
			c-1.6-1.1-2.6-2.7-2.9-4.6c-0.4-2.6,0.2-5,2-7.3c1.7-2.3,3.9-3.7,6.4-4.1c1.9-0.3,3.7,0.1,5.2,1.3
			C539.2,884,540.1,885.6,540.5,887.6z M547.4,814.9c0.3,1.6-0.1,4.1-1.1,7.5c-0.8,2.6-2.1,8.8-4,18.5c-1.9,9.7-3,15.7-3.4,18
			c-0.4,2.3-0.6,5.1-0.7,8.3c-0.1,2.5-1.6,4-4.4,4.5c-3.7,0.6-5.9-0.9-6.5-4.6c-0.6-3.8,0.4-11.6,3.1-23.3c2.7-11.7,5-19.8,6.8-24.2
			c1.8-4.5,3.8-6.9,6.1-7.3C545.7,811.9,547,812.7,547.4,814.9z"/>
	</g>
	
		<radialGradient id="SVGID_6_" cx="1063.5369" cy="5856.1987" r="129.2727" gradientTransform="matrix(0.5538 0 0 4.348000e-02 15.0939 552.8)" gradientUnits="userSpaceOnUse">
		<stop  offset="0.1034" style="stop-color:#E0E3E2"/>
		<stop  offset="0.2677" style="stop-color:#E9EBEA"/>
		<stop  offset="0.684" style="stop-color:#F9FAFA"/>
		<stop  offset="1" style="stop-color:#FFFFFF"/>
	</radialGradient>
	<ellipse class="st11" cx="604.1" cy="807.4" rx="101.1" ry="4.7"/>
</g>
<g>
	<ellipse class="st1" cx="208.6" cy="903.1" rx="50.1" ry="67.9"/>
	<g>
		<g>
			<path class="st3" d="M233.1,856.5H192c0,0,0,0,0,0c0,0,0,0,0,0c-0.1,0-0.1,0-0.2,0c0,0,0,0,0,0c-0.1,0-0.1,0-0.2,0c0,0,0,0,0,0
				c-0.1,0-0.1,0-0.2,0.1c0,0,0,0,0,0c-0.1,0-0.1,0.1-0.2,0.1c0,0,0,0,0,0c0,0-0.1,0.1-0.1,0.1c0,0,0,0,0,0l-14.7,14.7c0,0,0,0,0,0
				c0,0-0.1,0.1-0.1,0.1c0,0,0,0,0,0c0,0-0.1,0.1-0.1,0.2c0,0,0,0,0,0c0,0.1,0,0.1-0.1,0.2c0,0,0,0,0,0c0,0.1,0,0.1,0,0.2
				c0,0,0,0,0,0c0,0.1,0,0.1,0,0.2c0,0,0,0,0,0c0,0,0,0,0,0v64.6c0,2.4,1.9,4.3,4.3,4.3h52.9c2.4,0,4.3-1.9,4.3-4.3v-76.4
				C237.4,858.4,235.5,856.5,233.1,856.5z M190.6,861.2v8.4c0,0.9-0.7,1.6-1.6,1.6h-8.4L190.6,861.2z M234.6,937.2
				c0,0.9-0.7,1.6-1.6,1.6h-52.9c-0.9,0-1.6-0.7-1.6-1.6v-63.2H189c2.4,0,4.3-1.9,4.3-4.3v-10.4h39.7c0.9,0,1.6,0.7,1.6,1.6V937.2z"
				/>
			<path class="st3" d="M189,896h35.2c0.8,0,1.4-0.6,1.4-1.4c0-0.8-0.6-1.4-1.4-1.4H189c-0.8,0-1.4,0.6-1.4,1.4
				C187.6,895.4,188.3,896,189,896z"/>
			<path class="st3" d="M189,903.3h35.2c0.8,0,1.4-0.6,1.4-1.4c0-0.8-0.6-1.4-1.4-1.4H189c-0.8,0-1.4,0.6-1.4,1.4
				C187.6,902.7,188.3,903.3,189,903.3z"/>
			<path class="st3" d="M189,910.7h17.6c0.8,0,1.4-0.6,1.4-1.4c0-0.8-0.6-1.4-1.4-1.4H189c-0.8,0-1.4,0.6-1.4,1.4
				C187.6,910,188.3,910.7,189,910.7z"/>
			<path class="st3" d="M208,916.6c0-0.8-0.6-1.4-1.4-1.4H189c-0.8,0-1.4,0.6-1.4,1.4c0,0.8,0.6,1.4,1.4,1.4h17.6
				C207.4,918,208,917.4,208,916.6z"/>
			<path class="st3" d="M213.9,880.3c0-0.8-0.6-1.4-1.4-1.4s-1.4,0.6-1.4,1.4c0,2.7,2.5,4.9,5.9,5.3v0.2c0,0.8,0.6,1.4,1.4,1.4
				c0.8,0,1.4-0.6,1.4-1.4v-0.2c3.4-0.5,5.9-2.6,5.9-5.3c0-2.7-2.5-4.9-5.9-5.3v-5.3c1.7,0.3,3.1,1.3,3.1,2.5c0,0.8,0.6,1.4,1.4,1.4
				c0.8,0,1.4-0.6,1.4-1.4c0-2.7-2.5-4.9-5.9-5.3v-0.2c0-0.8-0.6-1.4-1.4-1.4c-0.8,0-1.4,0.6-1.4,1.4v0.2c-3.4,0.5-5.9,2.6-5.9,5.3
				s2.5,4.9,5.9,5.3v5.3C215.4,882.4,213.9,881.5,213.9,880.3z M222.9,880.3c0,1.2-1.5,2.2-3.1,2.5v-5
				C221.4,878.1,222.9,879,222.9,880.3z M213.9,872.2c0-1.2,1.5-2.2,3.1-2.5v5C215.4,874.4,213.9,873.4,213.9,872.2z"/>
			<path class="st3" d="M227,915.3c-0.7-0.4-1.5-0.1-1.9,0.5l-2.8,5l-0.4-0.3c-0.3-0.3-0.7-0.3-1.2-0.3c-0.4,0.1-0.7,0.4-0.9,0.7
				l-1.4,2.9l-0.5-0.5c-0.7-0.8-1.7-1.1-2.7-0.9c-1,0.2-1.8,0.9-2.1,1.9l-1.6,4.5l-3.8-4.7c-0.2-0.3-0.6-0.5-1-0.5
				c-0.4,0-0.7,0.1-1,0.3l-4,3.5c-0.6,0.5-0.6,1.4-0.1,1.9c0.5,0.6,1.4,0.6,1.9,0.1l2.9-2.5l3.6,4.5c0.4,0.5,1,0.8,1.7,0.8
				c0.1,0,0.2,0,0.4,0c0.8-0.1,1.4-0.7,1.6-1.4l2-5.7c0,0,0,0,0.1-0.1c0.1,0,0.1,0,0.1,0l1.8,2.1c0.3,0.3,0.8,0.5,1.2,0.5
				c0.5-0.1,0.9-0.3,1.1-0.8l1.6-3.2l0.3,0.2c0.3,0.2,0.7,0.3,1.1,0.3c0.4-0.1,0.7-0.3,0.9-0.7l3.6-6.4
				C227.9,916.6,227.6,915.7,227,915.3z"/>
		</g>
	</g>
	
		<radialGradient id="SVGID_7_" cx="346.3588" cy="6187.8574" r="129.2727" gradientTransform="matrix(0.5538 0 0 4.348000e-02 15.0939 682.5848)" gradientUnits="userSpaceOnUse">
		<stop  offset="0.1034" style="stop-color:#E0E3E2"/>
		<stop  offset="0.2677" style="stop-color:#E9EBEA"/>
		<stop  offset="0.684" style="stop-color:#F9FAFA"/>
		<stop  offset="1" style="stop-color:#FFFFFF"/>
	</radialGradient>
	<ellipse class="st12" cx="206.9" cy="951.6" rx="101.1" ry="4.7"/>
	<path class="st9" d="M255.4,911.3c0,0-1.9,19.1-17,20.4c15.1,1.3,17,20.4,17,20.4s1.9-19.1,17-20.4
		C257.4,930.4,255.4,911.3,255.4,911.3z"/>
	<path class="st9" d="M267,859.9c0,0-1.3,12.6-11.3,13.5c10,0.9,11.3,13.5,11.3,13.5s1.3-12.6,11.3-13.5
		C268.3,872.5,267,859.9,267,859.9z"/>
</g>
<g>
	<ellipse class="st1" cx="166.6" cy="695.5" rx="69.8" ry="78"/>
	<g>
		<path class="st3" d="M169.8,698.7L169.8,698.7c-0.8-0.7-1.8-1.3-2.9-1.6l-0.4-0.1l-0.2-0.4c-0.4-1-1-2-1.9-2.7
			c-1.3-1.2-2.9-1.8-4.7-1.8c-0.1,0-0.2,0-0.4,0c-3.8,0.2-6.8,3.5-6.6,7.3l0.5,10.2c0,0.5,0.3,1,0.6,1.3c0.4,0.3,0.9,0.5,1.4,0.5
			l10.2-0.5c3.8-0.2,6.8-3.5,6.6-7.3C172,701.6,171.2,699.9,169.8,698.7z M167.5,706c-0.6,0.6-1.4,1-2.2,1.1l-8.3,0.4l-0.4-8.3
			c-0.1-1.8,1.3-3.3,3-3.4c0.9,0,1.7,0.2,2.3,0.8c0.6,0.6,1,1.4,1.1,2.2c0,0.5,0.2,1,0.6,1.3c0.4,0.3,0.9,0.5,1.4,0.5
			c0.8,0,1.7,0.2,2.3,0.8c0.6,0.6,1,1.4,1.1,2.2C168.4,704.6,168.1,705.4,167.5,706z"/>
		<path class="st3" d="M187.5,679.2c-0.8-0.8-1.8-1.3-2.9-1.6l-0.4-0.1L184,677c-0.4-1-1-2-1.9-2.7c-1.3-1.2-2.9-1.8-4.7-1.8
			c-0.1,0-0.2,0-0.4,0c-3.8,0.2-6.8,3.5-6.6,7.3L171,690c0,0.5,0.3,1,0.6,1.3c0.4,0.3,0.9,0.5,1.4,0.5l10.2-0.5
			c3.8-0.2,6.8-3.5,6.6-7.3C189.7,682.1,188.8,680.4,187.5,679.2z M183,687.5l-8.3,0.4l-0.4-8.3c0-0.9,0.2-1.7,0.8-2.3
			c0.6-0.6,1.4-1,2.2-1.1c0.9,0,1.7,0.2,2.3,0.8c0.6,0.6,1,1.4,1.1,2.2c0,0.5,0.2,1,0.6,1.3c0.4,0.3,0.9,0.5,1.4,0.5
			c0.9,0,1.7,0.2,2.3,0.8c0.6,0.6,1,1.4,1.1,2.2C186.1,685.9,184.7,687.4,183,687.5z"/>
		<path class="st3" d="M212.9,645.6c-0.4-0.4-0.9-0.5-1.5-0.5c-25,3-47.8,16.5-62.5,36.9l-5.7,7.9l-29,10.9c-0.4,0.2-0.7,0.4-1,0.8
			l-10.3,17.5c-0.3,0.6-0.4,1.2-0.1,1.8c0.1,0.2,0.2,0.4,0.4,0.6c0.3,0.3,0.7,0.4,1.1,0.5l17.3,1.9l9.9,9l-5.8,6.4
			c-0.7,0.8-0.6,2,0.1,2.7c0.4,0.3,0.8,0.5,1.4,0.5c0.5,0,1-0.2,1.3-0.6l5.8-6.4l9.9,9l3.6,17c0.1,0.4,0.3,0.7,0.6,1
			c0.2,0.2,0.4,0.3,0.6,0.4c0.6,0.2,1.3,0.1,1.8-0.2l16.4-12.1c0.3-0.3,0.6-0.6,0.7-1l7.9-30l7.3-6.4c18.8-16.7,29.9-40.7,30.4-65.9
			C213.5,646.5,213.3,646,212.9,645.6z M121.6,720.1l-13.9-1.5l8.5-14.4l23.1-8.7L121.6,720.1z M164.5,747.8l-13.5,9.9l-2.9-13.7
			l22.7-20.1L164.5,747.8z M204.1,676.1c-5,13.1-13.1,24.8-23.5,34l-34.6,30.7l-9.1-8.3l11.5-12.8c0.3-0.4,0.5-0.9,0.5-1.4
			c0-0.5-0.2-1-0.6-1.3c-0.8-0.7-2-0.6-2.7,0.1L134.1,730l-9.1-8.3l27-37.5c8.1-11.3,19-20.5,31.5-26.8l0.8-0.4l0.4,0.9
			c1.6,4,4.2,7.7,7.5,10.7c3.3,2.9,7.2,5.1,11.4,6.4l0.9,0.3L204.1,676.1z M209.6,650.3c-0.4,6.9-1.6,13.9-3.7,20.6l-0.3,0.8
			l-0.8-0.2c-3.8-1-7.3-3-10.2-5.6c-2.9-2.6-5.2-5.9-6.6-9.6l-0.3-0.8l0.8-0.3c6.5-2.7,13.2-4.7,20.1-5.8l1.1-0.2L209.6,650.3z"/>
	</g>
	<path class="st13" d="M288.2,668.9c-0.9-3.8-4.3-6.6-8.3-6.6c-0.7,0-1.5,0.1-2.2,0.3c-2-4.3-6.3-7.2-11.4-7.2
		c-1.3,0-2.6,0.2-3.7,0.6c-2.7-4.5-7.6-7.5-13.2-7.5c-6.7,0-12.4,4.2-14.5,10.2c-1.5-0.9-3.3-1.3-5.2-1.3c-5.9,0-10.6,4.7-10.6,10.6
		c0,0.3,0,0.7,0.1,1H288.2z"/>
	<path class="st13" d="M143,683.6c-0.8-3.6-4-6.2-7.8-6.2c-0.7,0-1.4,0.1-2,0.3c-1.9-4-5.9-6.8-10.7-6.8c-1.2,0-2.4,0.2-3.5,0.5
		c-2.5-4.2-7.2-7-12.4-7c-6.3,0-11.6,4-13.6,9.6c-1.4-0.8-3.1-1.3-4.8-1.3c-5.5,0-10,4.5-10,10c0,0.3,0,0.6,0,1H143z"/>
	<path class="st9" d="M154.5,782.9c0,0-0.8,8.3-7.4,8.9c6.6,0.6,7.4,8.9,7.4,8.9s0.8-8.3,7.4-8.9
		C155.3,791.2,154.5,782.9,154.5,782.9z"/>
</g>
<g>
	<g>
		<path class="st10" d="M1035.8,937.9c-0.3-2.4-1.1-4.8-2.6-6.8c-1-1.4-2.3-2.5-3.7-3.5c-1.4-0.9-3-1.5-4.7-1.8
			c-0.7-0.1-1.4-0.2-2.1-0.2c-1.9,0-3.8,0.4-5.6,1c-1.9,0.7-3.7,1.7-5.2,3c-1.5,1.3-2.8,2.8-4,4.5c-0.4,0.5-0.9,1.4-1.1,2
			c-0.4,0.9-0.8,1.9-1.1,2.8c-0.1-0.1-0.2-0.3-0.3-0.4c-0.1-0.1-0.2-0.2-0.3-0.4c0,0-0.1-0.1-0.1-0.1c-0.9-0.9-2-1.7-3.1-2.4
			c-1.4-0.8-2.9-1.4-4.4-1.8c-0.6-0.1-1.1-0.2-1.7-0.3c-0.6-0.1-1.2-0.1-1.8-0.1c-0.3,0-0.5,0-0.8,0c-0.8,0.1-1.7,0.2-2.5,0.4
			c-0.9,0.2-1.8,0.6-2.6,1c-1.2,0.6-2.4,1.5-3.3,2.4c-0.8,0.7-1.4,1.6-2,2.5c-1.3,2.2-1.8,4.3-2,6.6c-0.1,1.6,0,3.1,0.3,4.7
			c0.3,1.4,0.9,2.7,1.6,4c0.6,1.1,1.3,2,2.1,3c1.1,1.3,2.3,2.5,3.5,3.6c1.9,1.8,4,3.4,6.2,4.9c2.5,1.7,5,3.3,7.6,4.8
			c10.4,5.7,18.7,7.6,19,4.9c0.3-3.6,1.2-7.1,3.1-10.2c0.2-0.3,0.4-0.7,0.6-1c1.7-2.7,3.5-5.3,5.2-8c2-3.1,3.7-6.2,4.9-9.6
			c0.5-1.5,0.9-3,1.1-4.6c0.1-0.8,0.2-1.5,0.2-2.3C1036,939.6,1035.9,938.8,1035.8,937.9z"/>
		<g>
			<path class="st10" d="M1031.9,937.6c0.4,0.3,0.5,0.8,0.2,1.2c-0.3,0.4-0.8,0.5-1.2,0.2c-0.4-0.3-0.5-0.8-0.2-1.2
				C1031,937.4,1031.5,937.3,1031.9,937.6L1031.9,937.6L1031.9,937.6z"/>
			<path class="st10" d="M1031.5,942.3c0.3,0.2,0.4,0.6,0.2,0.8c-0.2,0.3-0.6,0.3-0.9,0.1c-0.3-0.2-0.4-0.6-0.2-0.8
				C1030.8,942.2,1031.2,942.1,1031.5,942.3L1031.5,942.3L1031.5,942.3z"/>
			<path class="st10" d="M1029.9,947.2c0.2,0.1,0.2,0.4,0.1,0.6c-0.1,0.2-0.4,0.2-0.6,0.1c-0.2-0.1-0.2-0.4-0.1-0.6
				C1029.4,947.1,1029.7,947.1,1029.9,947.2L1029.9,947.2L1029.9,947.2z"/>
			<path class="st10" d="M1027.2,950.8c0.2,0.1,0.3,0.4,0.1,0.6c-0.1,0.2-0.5,0.3-0.7,0.1c-0.2-0.1-0.3-0.4-0.1-0.6
				C1026.7,950.8,1027,950.7,1027.2,950.8L1027.2,950.8L1027.2,950.8z"/>
		</g>
	</g>
	<g>
		<g>
			
				<radialGradient id="SVGID_8_" cx="1380.6038" cy="6456.6548" r="157.9999" gradientTransform="matrix(0.5538 0 0 4.348000e-02 15.0939 787.7706)" gradientUnits="userSpaceOnUse">
				<stop  offset="0.1034" style="stop-color:#E0E3E2"/>
				<stop  offset="0.2677" style="stop-color:#E9EBEA"/>
				<stop  offset="0.684" style="stop-color:#F9FAFA"/>
				<stop  offset="1" style="stop-color:#FFFFFF"/>
			</radialGradient>
			<ellipse class="st14" cx="779.7" cy="1068.5" rx="123.5" ry="5.8"/>
			<g>
				<g>
					<path class="st39" d="M776.1,970.9c3.7,10.1,13.5,17.4,24.9,17.4c11.4,0,21.2-7.2,24.9-17.4"/>
					<g>
						<path class="st16" d="M794.4,954.3c0,1.8-1.5,3.3-3.3,3.3c-1.8,0-3.3-1.5-3.3-3.3c0-1.8,1.5-3.3,3.3-3.3
							C792.9,951,794.4,952.5,794.4,954.3z"/>
						<path class="st16" d="M814.1,954.3c0,1.8-1.5,3.3-3.3,3.3s-3.3-1.5-3.3-3.3c0-1.8,1.5-3.3,3.3-3.3S814.1,952.5,814.1,954.3z"
							/>
					</g>
				</g>
				<g>
					<path class="st40" d="M765.2,1010.3c-3.1,8.3-11.1,14.3-20.4,14.3c-9.4,0-17.4-5.9-20.4-14.3"/>
					<g>
						<path class="st18" d="M750.2,996.6c0,1.5,1.2,2.7,2.7,2.7c1.5,0,2.7-1.2,2.7-2.7c0-1.5-1.2-2.7-2.7-2.7
							C751.4,993.9,750.2,995.2,750.2,996.6z"/>
						<path class="st18" d="M734,996.6c0,1.5,1.2,2.7,2.7,2.7c1.5,0,2.7-1.2,2.7-2.7c0-1.5-1.2-2.7-2.7-2.7
							C735.2,993.9,734,995.2,734,996.6z"/>
					</g>
					<circle class="st41" cx="744.7" cy="1006.9" r="36.6"/>
				</g>
				<g>
					<g>
						<path class="st42" d="M779.4,1029.1c1.9,5.3,7,9,12.9,9c5.9,0,11-3.8,12.9-9"/>
						<g>
							<path class="st21" d="M788.9,1020.5c0,0.9-0.8,1.7-1.7,1.7c-0.9,0-1.7-0.8-1.7-1.7c0-0.9,0.8-1.7,1.7-1.7
								C788.2,1018.8,788.9,1019.6,788.9,1020.5z"/>
							<path class="st21" d="M799.1,1020.5c0,0.9-0.8,1.7-1.7,1.7c-0.9,0-1.7-0.8-1.7-1.7c0-0.9,0.8-1.7,1.7-1.7
								C798.4,1018.8,799.1,1019.6,799.1,1020.5z"/>
						</g>
					</g>
				</g>
				<circle class="st43" cx="799" cy="964.5" r="43.8"/>
				<circle class="st44" cx="793.2" cy="1026.1" r="23"/>
			</g>
		</g>
	</g>
</g>
<g>
	<path class="st45" d="M232.4,122.1v5.5h-2.3v-5.6l-6.3-10.4h2.4l5.1,8.4l5.1-8.4h2.3L232.4,122.1z"/>
	<path class="st45" d="M241.3,127c-1-0.5-1.7-1.3-2.2-2.2c-0.5-0.9-0.8-2-0.8-3.2s0.3-2.2,0.8-3.2c0.5-0.9,1.3-1.7,2.2-2.2
		c1-0.5,2-0.8,3.2-0.8c1.2,0,2.3,0.3,3.2,0.8c0.9,0.5,1.7,1.3,2.2,2.2c0.5,0.9,0.8,2,0.8,3.2s-0.3,2.2-0.8,3.2
		c-0.5,0.9-1.3,1.7-2.2,2.2s-2,0.8-3.2,0.8C243.3,127.8,242.3,127.5,241.3,127z M246.6,125.3c0.6-0.4,1.1-0.9,1.4-1.5
		c0.3-0.6,0.5-1.4,0.5-2.2s-0.2-1.6-0.5-2.2c-0.3-0.6-0.8-1.1-1.4-1.5c-0.6-0.3-1.3-0.5-2.1-0.5c-0.8,0-1.5,0.2-2.1,0.5
		c-0.6,0.3-1.1,0.8-1.5,1.5c-0.4,0.6-0.5,1.4-0.5,2.2s0.2,1.6,0.5,2.2c0.4,0.6,0.8,1.1,1.5,1.5s1.3,0.5,2.1,0.5
		C245.3,125.9,246,125.7,246.6,125.3z"/>
	<path class="st45" d="M265.1,115.6v12.1H263v-1.8c-0.4,0.6-1,1.1-1.7,1.4c-0.7,0.3-1.5,0.5-2.4,0.5c-1.6,0-2.9-0.4-3.8-1.3
		c-0.9-0.9-1.4-2.2-1.4-3.9v-6.9h2.2v6.7c0,1.2,0.3,2.1,0.8,2.7c0.6,0.6,1.4,0.9,2.4,0.9c1.2,0,2.1-0.3,2.7-1c0.7-0.7,1-1.7,1-3
		v-6.2H265.1z"/>
	<path class="st45" d="M285.4,116.8c0.9,0.9,1.4,2.2,1.4,3.9v6.9h-2.2v-6.7c0-1.2-0.3-2-0.8-2.6s-1.4-0.9-2.4-0.9
		c-1.2,0-2.1,0.3-2.8,1s-1,1.7-1,3v6.2h-2.2v-12.1h2.1v1.8c0.4-0.6,1-1.1,1.8-1.4c0.8-0.3,1.6-0.5,2.6-0.5
		C283.3,115.5,284.5,115.9,285.4,116.8z"/>
	<path class="st45" d="M301.8,122.3H292c0.1,1.1,0.6,1.9,1.4,2.6c0.8,0.6,1.8,1,3,1c1.4,0,2.6-0.5,3.5-1.5l1.2,1.4
		c-0.5,0.6-1.2,1.1-2,1.5c-0.8,0.3-1.7,0.5-2.7,0.5c-1.3,0-2.4-0.3-3.4-0.8s-1.7-1.3-2.3-2.2c-0.5-0.9-0.8-2-0.8-3.2
		c0-1.2,0.3-2.2,0.8-3.2c0.5-0.9,1.2-1.7,2.2-2.2c0.9-0.5,2-0.8,3.1-0.8s2.2,0.3,3.1,0.8c0.9,0.5,1.6,1.3,2.1,2.2
		c0.5,0.9,0.8,2,0.8,3.2C301.8,121.8,301.8,122.1,301.8,122.3z M293.2,118.3c-0.7,0.6-1.1,1.5-1.2,2.5h7.7c-0.1-1-0.5-1.8-1.2-2.5
		c-0.7-0.6-1.6-1-2.6-1S293.9,117.6,293.2,118.3z"/>
	<path class="st45" d="M315.7,122.3h-9.8c0.1,1.1,0.6,1.9,1.4,2.6c0.8,0.6,1.8,1,3,1c1.4,0,2.6-0.5,3.5-1.5l1.2,1.4
		c-0.5,0.6-1.2,1.1-2,1.5s-1.7,0.5-2.7,0.5c-1.3,0-2.4-0.3-3.4-0.8s-1.7-1.3-2.3-2.2c-0.5-0.9-0.8-2-0.8-3.2c0-1.2,0.3-2.2,0.8-3.2
		c0.5-0.9,1.2-1.7,2.2-2.2c0.9-0.5,2-0.8,3.1-0.8c1.2,0,2.2,0.3,3.1,0.8c0.9,0.5,1.6,1.3,2.1,2.2c0.5,0.9,0.8,2,0.8,3.2
		C315.8,121.8,315.7,122.1,315.7,122.3z M307.2,118.3c-0.7,0.6-1.1,1.5-1.2,2.5h7.7c-0.1-1-0.5-1.8-1.2-2.5c-0.7-0.6-1.6-1-2.6-1
		C308.7,117.3,307.9,117.6,307.2,118.3z"/>
	<path class="st45" d="M330.2,110.7v16.9h-2.1v-1.9c-0.5,0.7-1.1,1.2-1.8,1.5c-0.7,0.3-1.6,0.5-2.5,0.5c-1.2,0-2.2-0.3-3.1-0.8
		c-0.9-0.5-1.7-1.2-2.2-2.2c-0.5-0.9-0.8-2-0.8-3.2s0.3-2.3,0.8-3.2c0.5-0.9,1.2-1.6,2.2-2.2s2-0.8,3.1-0.8c0.9,0,1.7,0.2,2.4,0.5
		c0.7,0.3,1.3,0.8,1.8,1.4v-6.6H330.2z M326,125.3c0.6-0.4,1.1-0.9,1.5-1.5c0.3-0.6,0.5-1.4,0.5-2.2s-0.2-1.6-0.5-2.2
		c-0.3-0.6-0.8-1.1-1.5-1.5c-0.6-0.3-1.3-0.5-2.1-0.5c-0.8,0-1.5,0.2-2.1,0.5c-0.6,0.3-1.1,0.8-1.5,1.5c-0.4,0.6-0.5,1.4-0.5,2.2
		s0.2,1.6,0.5,2.2c0.4,0.6,0.8,1.1,1.5,1.5c0.6,0.4,1.3,0.5,2.1,0.5C324.7,125.9,325.4,125.7,326,125.3z"/>
</g>
<g>
	<path class="st45" d="M894.8,391.1c1.2,1,1.8,2.3,1.8,4.1c0,1.7-0.6,3.1-1.8,4.1c-1.2,1-2.8,1.5-4.9,1.5H886v4.8h-2.3v-15.9h6.2
		C892,389.6,893.6,390.1,894.8,391.1z M893.1,397.8c0.8-0.6,1.1-1.5,1.1-2.7s-0.4-2-1.1-2.7c-0.8-0.6-1.9-0.9-3.3-0.9H886v7.1h3.9
		C891.3,398.7,892.4,398.4,893.1,397.8z"/>
	<path class="st45" d="M899.8,388.7h2.2v16.9h-2.2V388.7z"/>
	<path class="st45" d="M914.4,394.6c0.9,0.8,1.3,2,1.3,3.7v7.3h-2.1V404c-0.4,0.6-0.9,1-1.6,1.3c-0.7,0.3-1.5,0.4-2.4,0.4
		c-1.4,0-2.4-0.3-3.2-1c-0.8-0.7-1.2-1.5-1.2-2.6c0-1.1,0.4-1.9,1.2-2.6c0.8-0.6,2-1,3.7-1h3.5v-0.4c0-0.9-0.3-1.7-0.8-2.2
		s-1.4-0.8-2.4-0.8c-0.7,0-1.4,0.1-2.1,0.4c-0.7,0.2-1.3,0.6-1.7,0.9l-0.9-1.6c0.6-0.5,1.4-0.9,2.2-1.1c0.9-0.3,1.8-0.4,2.8-0.4
		C912.2,393.4,913.5,393.8,914.4,394.6z M912.2,403.4c0.6-0.4,1-0.9,1.3-1.6v-1.7h-3.4c-1.9,0-2.8,0.6-2.8,1.9
		c0,0.6,0.2,1.1,0.7,1.4s1.1,0.5,2,0.5C910.9,404,911.6,403.8,912.2,403.4z"/>
	<path class="st45" d="M926.5,404.8c-0.3,0.3-0.7,0.5-1.2,0.6c-0.5,0.1-1,0.2-1.5,0.2c-1.2,0-2.2-0.3-2.8-1s-1-1.6-1-2.8v-6.6h-2
		v-1.8h2v-2.6h2.2v2.6h3.5v1.8h-3.5v6.5c0,0.7,0.2,1.2,0.5,1.5c0.3,0.3,0.8,0.5,1.4,0.5c0.7,0,1.2-0.2,1.7-0.6L926.5,404.8z"/>
	<path class="st45" d="M931.6,392.4v1h3.5v1.8h-3.5v10.3h-2.2v-10.3h-2v-1.8h2v-1.1c0-1.2,0.3-2.1,1-2.8c0.7-0.7,1.7-1,2.9-1
		c0.5,0,0.9,0.1,1.4,0.2c0.4,0.1,0.8,0.3,1.1,0.5l-0.7,1.7c-0.5-0.4-1.1-0.6-1.7-0.6C932.3,390.3,931.6,391,931.6,392.4z"/>
	<path class="st45" d="M939,404.9c-1-0.5-1.7-1.3-2.2-2.2c-0.5-0.9-0.8-2-0.8-3.2s0.3-2.2,0.8-3.2c0.5-0.9,1.3-1.7,2.2-2.2
		c1-0.5,2-0.8,3.2-0.8s2.3,0.3,3.2,0.8c0.9,0.5,1.7,1.3,2.2,2.2c0.5,0.9,0.8,2,0.8,3.2s-0.3,2.2-0.8,3.2c-0.5,0.9-1.3,1.7-2.2,2.2
		s-2,0.8-3.2,0.8S939.9,405.4,939,404.9z M944.3,403.2c0.6-0.4,1.1-0.9,1.4-1.5c0.3-0.6,0.5-1.4,0.5-2.2s-0.2-1.6-0.5-2.2
		c-0.3-0.6-0.8-1.1-1.4-1.5c-0.6-0.3-1.3-0.5-2.1-0.5c-0.8,0-1.5,0.2-2.1,0.5c-0.6,0.3-1.1,0.8-1.5,1.5c-0.4,0.6-0.5,1.4-0.5,2.2
		s0.2,1.6,0.5,2.2c0.4,0.6,0.8,1.1,1.5,1.5c0.6,0.4,1.3,0.5,2.1,0.5C943,403.8,943.7,403.6,944.3,403.2z"/>
	<path class="st45" d="M970.2,394.7c0.9,0.9,1.3,2.2,1.3,3.9v6.9h-2.2v-6.7c0-1.2-0.3-2-0.8-2.6s-1.3-0.9-2.3-0.9
		c-1.1,0-2,0.3-2.6,1s-1,1.7-1,3v6.2h-2.2v-6.7c0-1.2-0.3-2-0.8-2.6c-0.5-0.6-1.3-0.9-2.3-0.9c-1.1,0-2,0.3-2.6,1s-1,1.7-1,3v6.2
		h-2.2v-12.1h2.1v1.8c0.4-0.6,1-1.1,1.7-1.4c0.7-0.3,1.5-0.5,2.4-0.5c0.9,0,1.8,0.2,2.5,0.6c0.7,0.4,1.3,0.9,1.7,1.7
		c0.5-0.7,1.1-1.2,1.9-1.6c0.8-0.4,1.7-0.6,2.7-0.6C968.1,393.4,969.3,393.8,970.2,394.7z"/>
	<path class="st45" d="M895.5,432.9H887l-1.6,3.9h-4.3l8.1-18.3h4.2l8.2,18.3h-4.4L895.5,432.9z M894.2,429.7l-2.9-7l-2.9,7H894.2z"
		/>
	<path class="st45" d="M915.6,419.4c1.2,0.5,2.1,1.3,2.8,2.3c0.6,1,1,2.2,1,3.5c0,1.3-0.3,2.5-1,3.5c-0.6,1-1.6,1.8-2.8,2.3
		c-1.2,0.5-2.6,0.8-4.2,0.8h-3.7v5h-4.2v-18.3h7.9C913,418.6,914.4,418.9,915.6,419.4z M914,427.6c0.7-0.5,1-1.3,1-2.3
		c0-1-0.3-1.8-1-2.4c-0.7-0.5-1.6-0.8-2.9-0.8h-3.4v6.3h3.4C912.4,428.4,913.3,428.1,914,427.6z"/>
	<path class="st45" d="M934.4,419.4c1.2,0.5,2.1,1.3,2.8,2.3c0.6,1,1,2.2,1,3.5c0,1.3-0.3,2.5-1,3.5s-1.6,1.8-2.8,2.3
		s-2.6,0.8-4.2,0.8h-3.7v5h-4.2v-18.3h7.9C931.8,418.6,933.2,418.9,934.4,419.4z M932.8,427.6c0.7-0.5,1-1.3,1-2.3
		c0-1-0.3-1.8-1-2.4c-0.7-0.5-1.6-0.8-2.9-0.8h-3.4v6.3h3.4C931.2,428.4,932.2,428.1,932.8,427.6z"/>
	<path class="st45" d="M952.7,436.9l-3.5-5.1H949h-3.7v5.1h-4.2v-18.3h7.9c1.6,0,3,0.3,4.2,0.8c1.2,0.5,2.1,1.3,2.8,2.3
		c0.6,1,1,2.2,1,3.5s-0.3,2.5-1,3.5s-1.6,1.7-2.8,2.3l4.1,5.9H952.7z M951.7,422.9c-0.7-0.5-1.6-0.8-2.9-0.8h-3.4v6.4h3.4
		c1.3,0,2.2-0.3,2.9-0.8c0.7-0.6,1-1.3,1-2.3C952.7,424.2,952.3,423.4,951.7,422.9z"/>
	<path class="st45" d="M964,435.9c-1.5-0.8-2.7-1.9-3.6-3.4c-0.9-1.4-1.3-3-1.3-4.8c0-1.8,0.4-3.4,1.3-4.8c0.9-1.4,2.1-2.6,3.6-3.4
		c1.5-0.8,3.2-1.2,5.1-1.2c1.9,0,3.6,0.4,5.1,1.2c1.5,0.8,2.7,1.9,3.6,3.4s1.3,3,1.3,4.8c0,1.8-0.4,3.4-1.3,4.8
		c-0.9,1.4-2.1,2.6-3.6,3.4c-1.5,0.8-3.2,1.2-5.1,1.2C967.2,437.2,965.5,436.8,964,435.9z M972,432.8c0.9-0.5,1.6-1.2,2-2.1
		c0.5-0.9,0.7-1.9,0.7-3c0-1.1-0.2-2.1-0.7-3c-0.5-0.9-1.2-1.6-2-2.1c-0.9-0.5-1.8-0.7-2.9-0.7s-2.1,0.2-2.9,0.7
		c-0.9,0.5-1.6,1.2-2,2.1c-0.5,0.9-0.7,1.9-0.7,3c0,1.1,0.2,2.1,0.7,3c0.5,0.9,1.2,1.6,2,2.1c0.9,0.5,1.8,0.7,2.9,0.7
		S971.2,433.3,972,432.8z"/>
	<path class="st45" d="M999.3,418.6l-7.9,18.3h-4.2l-7.9-18.3h4.6l5.6,13l5.6-13H999.3z"/>
	<path class="st45" d="M1012.2,432.9h-8.5l-1.6,3.9h-4.3l8.1-18.3h4.2l8.2,18.3h-4.4L1012.2,432.9z M1010.9,429.7l-2.9-7l-2.9,7
		H1010.9z"/>
	<path class="st45" d="M1020.2,418.6h4.2v14.8h9.2v3.4h-13.4V418.6z"/>
</g>
<g>
	<path class="st45" d="M230.4,139.6h-5.8v-3.4h15.9v3.4h-5.8v14.8h-4.2V139.6z"/>
	<path class="st45" d="M254.4,154.4l-3.5-5.1h-0.2H247v5.1h-4.2v-18.3h7.9c1.6,0,3,0.3,4.2,0.8c1.2,0.5,2.1,1.3,2.8,2.3
		c0.6,1,1,2.2,1,3.5s-0.3,2.5-1,3.5c-0.7,1-1.6,1.7-2.8,2.3l4.1,5.9H254.4z M253.3,140.4c-0.7-0.5-1.6-0.8-2.9-0.8H247v6.4h3.4
		c1.3,0,2.2-0.3,2.9-0.8s1-1.3,1-2.3C254.3,141.8,254,141,253.3,140.4z"/>
	<path class="st45" d="M276.1,151v3.4H262v-18.3h13.8v3.4h-9.6v4h8.5v3.3h-8.5v4.2H276.1z"/>
	<path class="st45" d="M291.5,150.5H283l-1.6,3.9h-4.3l8.1-18.3h4.2l8.2,18.3h-4.4L291.5,150.5z M290.2,147.3l-2.9-7l-2.9,7H290.2z"
		/>
	<path class="st45" d="M302.3,139.6h-5.8v-3.4h15.9v3.4h-5.8v14.8h-4.2V139.6z"/>
	<path class="st45" d="M331.3,154.4l0-11l-5.4,9H324l-5.3-8.8v10.7h-4v-18.3h3.5l6.8,11.3l6.7-11.3h3.5l0.1,18.3H331.3z"/>
	<path class="st45" d="M353.7,151v3.4h-14.1v-18.3h13.8v3.4h-9.6v4h8.5v3.3h-8.5v4.2H353.7z"/>
	<path class="st45" d="M373.8,136.2v18.3h-3.5l-9.1-11.1v11.1h-4.2v-18.3h3.5l9.1,11.1v-11.1H373.8z"/>
	<path class="st45" d="M381.9,139.6h-5.8v-3.4H392v3.4h-5.8v14.8h-4.2V139.6z"/>
</g>
<g>
	<path class="st45" d="M593.8,221.1c-1.3-0.7-2.3-1.7-3-2.9c-0.7-1.2-1.1-2.6-1.1-4.2s0.4-2.9,1.1-4.2c0.7-1.2,1.7-2.2,3-2.9
		c1.3-0.7,2.7-1.1,4.3-1.1c1.2,0,2.4,0.2,3.4,0.6s1.9,1,2.6,1.9l-1.5,1.4c-1.2-1.3-2.7-1.9-4.5-1.9c-1.2,0-2.3,0.3-3.2,0.8
		s-1.7,1.3-2.2,2.2c-0.5,0.9-0.8,2-0.8,3.1s0.3,2.2,0.8,3.1c0.5,0.9,1.3,1.7,2.2,2.2s2,0.8,3.2,0.8c1.8,0,3.3-0.6,4.5-1.9l1.5,1.4
		c-0.7,0.8-1.6,1.4-2.7,1.9c-1,0.4-2.2,0.6-3.4,0.6C596.5,222.1,595.1,221.8,593.8,221.1z"/>
	<path class="st45" d="M610.9,210.3c0.7-0.4,1.6-0.5,2.7-0.5v2.1c-0.1,0-0.3,0-0.5,0c-1.2,0-2.1,0.4-2.8,1.1c-0.7,0.7-1,1.7-1,3v6
		h-2.2v-12.1h2.1v2C609.6,211.2,610.2,210.7,610.9,210.3z"/>
	<path class="st45" d="M627.1,216.7h-9.8c0.1,1.1,0.6,1.9,1.4,2.6c0.8,0.6,1.8,1,3,1c1.4,0,2.6-0.5,3.5-1.5l1.2,1.4
		c-0.5,0.6-1.2,1.1-2,1.5c-0.8,0.3-1.7,0.5-2.7,0.5c-1.3,0-2.4-0.3-3.4-0.8s-1.7-1.3-2.3-2.2c-0.5-0.9-0.8-2-0.8-3.2
		c0-1.2,0.3-2.2,0.8-3.2c0.5-0.9,1.2-1.7,2.2-2.2c0.9-0.5,2-0.8,3.1-0.8s2.2,0.3,3.1,0.8c0.9,0.5,1.6,1.3,2.1,2.2
		c0.5,0.9,0.8,2,0.8,3.2C627.1,216.2,627.1,216.4,627.1,216.7z M618.5,212.6c-0.7,0.6-1.1,1.5-1.2,2.5h7.7c-0.1-1-0.5-1.8-1.2-2.5
		c-0.7-0.6-1.6-1-2.6-1S619.2,211.9,618.5,212.6z"/>
	<path class="st45" d="M638,211c0.9,0.8,1.3,2,1.3,3.7v7.3h-2.1v-1.6c-0.4,0.6-0.9,1-1.6,1.3c-0.7,0.3-1.5,0.4-2.4,0.4
		c-1.4,0-2.4-0.3-3.2-1s-1.2-1.5-1.2-2.6c0-1.1,0.4-1.9,1.2-2.6c0.8-0.6,2-1,3.7-1h3.5v-0.4c0-0.9-0.3-1.7-0.8-2.2
		c-0.5-0.5-1.4-0.8-2.4-0.8c-0.7,0-1.4,0.1-2.1,0.4c-0.7,0.2-1.3,0.6-1.7,0.9l-0.9-1.6c0.6-0.5,1.4-0.9,2.2-1.1
		c0.9-0.3,1.8-0.4,2.8-0.4C635.9,209.8,637.1,210.2,638,211z M635.8,219.8c0.6-0.4,1-0.9,1.3-1.6v-1.7h-3.4c-1.9,0-2.8,0.6-2.8,1.9
		c0,0.6,0.2,1.1,0.7,1.4s1.1,0.5,2,0.5C634.5,220.4,635.2,220.2,635.8,219.8z"/>
	<path class="st45" d="M650.2,221.2c-0.3,0.3-0.7,0.5-1.2,0.6c-0.5,0.1-1,0.2-1.5,0.2c-1.2,0-2.2-0.3-2.8-1s-1-1.6-1-2.8v-6.6h-2
		v-1.8h2v-2.6h2.2v2.6h3.5v1.8h-3.5v6.5c0,0.7,0.2,1.2,0.5,1.5c0.3,0.3,0.8,0.5,1.4,0.5c0.7,0,1.2-0.2,1.7-0.6L650.2,221.2z"/>
	<path class="st45" d="M663.3,216.7h-9.8c0.1,1.1,0.6,1.9,1.4,2.6c0.8,0.6,1.8,1,3,1c1.4,0,2.6-0.5,3.5-1.5l1.2,1.4
		c-0.5,0.6-1.2,1.1-2,1.5s-1.7,0.5-2.7,0.5c-1.3,0-2.4-0.3-3.4-0.8s-1.7-1.3-2.3-2.2c-0.5-0.9-0.8-2-0.8-3.2c0-1.2,0.3-2.2,0.8-3.2
		c0.5-0.9,1.2-1.7,2.2-2.2c0.9-0.5,2-0.8,3.1-0.8c1.2,0,2.2,0.3,3.1,0.8c0.9,0.5,1.6,1.3,2.1,2.2c0.5,0.9,0.8,2,0.8,3.2
		C663.3,216.2,663.3,216.4,663.3,216.7z M654.7,212.6c-0.7,0.6-1.1,1.5-1.2,2.5h7.7c-0.1-1-0.5-1.8-1.2-2.5c-0.7-0.6-1.6-1-2.6-1
		C656.3,211.6,655.4,211.9,654.7,212.6z"/>
	<path class="st45" d="M680.7,211c0.9,0.8,1.3,2,1.3,3.7v7.3H680v-1.6c-0.4,0.6-0.9,1-1.6,1.3c-0.7,0.3-1.5,0.4-2.4,0.4
		c-1.4,0-2.4-0.3-3.2-1s-1.2-1.5-1.2-2.6c0-1.1,0.4-1.9,1.2-2.6c0.8-0.6,2-1,3.7-1h3.5v-0.4c0-0.9-0.3-1.7-0.8-2.2
		c-0.5-0.5-1.4-0.8-2.4-0.8c-0.7,0-1.4,0.1-2.1,0.4c-0.7,0.2-1.3,0.6-1.7,0.9l-0.9-1.6c0.6-0.5,1.4-0.9,2.2-1.1
		c0.9-0.3,1.8-0.4,2.8-0.4C678.5,209.8,679.8,210.2,680.7,211z M678.5,219.8c0.6-0.4,1-0.9,1.3-1.6v-1.7h-3.4
		c-1.9,0-2.8,0.6-2.8,1.9c0,0.6,0.2,1.1,0.7,1.4s1.1,0.5,2,0.5C677.2,220.4,677.9,220.2,678.5,219.8z"/>
</g>
<g>
	<path class="st45" d="M595,247.8c-1.5-0.8-2.7-1.9-3.5-3.4c-0.9-1.4-1.3-3.1-1.3-4.9c0-1.8,0.4-3.4,1.3-4.9c0.9-1.4,2-2.6,3.5-3.4
		c1.5-0.8,3.2-1.2,5.1-1.2c1.6,0,3,0.3,4.3,0.8s2.4,1.4,3.2,2.4l-2.7,2.5c-1.2-1.4-2.8-2.1-4.6-2.1c-1.1,0-2.1,0.2-3,0.7
		c-0.9,0.5-1.6,1.2-2.1,2.1c-0.5,0.9-0.7,1.9-0.7,3c0,1.1,0.2,2.1,0.7,3c0.5,0.9,1.2,1.6,2.1,2.1c0.9,0.5,1.9,0.7,3,0.7
		c1.8,0,3.4-0.7,4.6-2.2l2.7,2.5c-0.9,1.1-1.9,1.9-3.2,2.4c-1.3,0.6-2.7,0.8-4.3,0.8C598.2,249.1,596.5,248.7,595,247.8z"/>
	<path class="st45" d="M622.1,244.8h-8.5l-1.6,3.9h-4.3l8.1-18.3h4.2l8.2,18.3h-4.4L622.1,244.8z M620.8,241.6l-2.9-7l-2.9,7H620.8z
		"/>
	<path class="st45" d="M646.7,248.7l0-11l-5.4,9h-1.9L634,238v10.7h-4v-18.3h3.5l6.8,11.3l6.7-11.3h3.5l0.1,18.3H646.7z"/>
	<path class="st45" d="M667.1,231.3c1.2,0.5,2.1,1.3,2.8,2.3c0.6,1,1,2.2,1,3.5c0,1.3-0.3,2.5-1,3.5c-0.6,1-1.6,1.8-2.8,2.3
		s-2.6,0.8-4.2,0.8h-3.7v5H655v-18.3h7.9C664.5,230.5,665.9,230.8,667.1,231.3z M665.6,239.4c0.7-0.5,1-1.3,1-2.3c0-1-0.3-1.8-1-2.4
		c-0.7-0.5-1.6-0.8-2.9-0.8h-3.4v6.3h3.4C663.9,240.3,664.9,240,665.6,239.4z"/>
	<path class="st45" d="M684.9,244.8h-8.5l-1.6,3.9h-4.3l8.1-18.3h4.2l8.2,18.3h-4.4L684.9,244.8z M683.6,241.6l-2.9-7l-2.9,7H683.6z
		"/>
	<path class="st45" d="M692.9,230.5h4.2v18.3h-4.2V230.5z"/>
	<path class="st45" d="M713.8,239.3h3.9v7.4c-1,0.7-2.1,1.3-3.4,1.7c-1.3,0.4-2.6,0.6-3.9,0.6c-1.9,0-3.6-0.4-5.1-1.2
		c-1.5-0.8-2.7-1.9-3.6-3.4c-0.9-1.4-1.3-3.1-1.3-4.9c0-1.8,0.4-3.4,1.3-4.9c0.9-1.4,2.1-2.6,3.6-3.4s3.3-1.2,5.2-1.2
		c1.6,0,3.1,0.3,4.4,0.8c1.3,0.5,2.4,1.3,3.3,2.3l-2.7,2.5c-1.3-1.4-2.9-2.1-4.7-2.1c-1.2,0-2.2,0.2-3.1,0.7
		c-0.9,0.5-1.6,1.2-2.1,2.1c-0.5,0.9-0.8,1.9-0.8,3.1c0,1.1,0.3,2.1,0.8,3c0.5,0.9,1.2,1.6,2.1,2.1c0.9,0.5,1.9,0.7,3.1,0.7
		c1.2,0,2.3-0.3,3.3-0.8V239.3z"/>
	<path class="st45" d="M738.3,230.5v18.3h-3.5l-9.1-11.1v11.1h-4.2v-18.3h3.5l9.1,11.1v-11.1H738.3z"/>
</g>
<g>
	<path class="st45" d="M709.9,640v5.6h8v2h-8v6.4h-2.3V638h11.2v2H709.9z"/>
	<path class="st45" d="M732.6,641.9V654h-2.1v-1.8c-0.4,0.6-1,1.1-1.7,1.4c-0.7,0.3-1.5,0.5-2.4,0.5c-1.6,0-2.9-0.4-3.8-1.3
		s-1.4-2.2-1.4-3.9v-6.9h2.2v6.7c0,1.2,0.3,2.1,0.8,2.7c0.6,0.6,1.4,0.9,2.4,0.9c1.2,0,2.1-0.3,2.7-1c0.7-0.7,1-1.7,1-3v-6.2H732.6z
		"/>
	<path class="st45" d="M746.9,643.1c0.9,0.9,1.4,2.2,1.4,3.9v6.9h-2.2v-6.7c0-1.2-0.3-2-0.8-2.6s-1.4-0.9-2.4-0.9
		c-1.2,0-2.1,0.3-2.8,1c-0.7,0.7-1,1.7-1,3v6.2h-2.2v-12.1h2.1v1.8c0.4-0.6,1-1.1,1.8-1.4c0.8-0.3,1.6-0.5,2.6-0.5
		C744.8,641.8,746,642.2,746.9,643.1z"/>
	<path class="st45" d="M763.8,637.1V654h-2.1V652c-0.5,0.7-1.1,1.2-1.8,1.5c-0.7,0.3-1.6,0.5-2.5,0.5c-1.2,0-2.2-0.3-3.1-0.8
		c-0.9-0.5-1.7-1.2-2.2-2.2c-0.5-0.9-0.8-2-0.8-3.2s0.3-2.3,0.8-3.2c0.5-0.9,1.2-1.6,2.2-2.2c0.9-0.5,2-0.8,3.1-0.8
		c0.9,0,1.7,0.2,2.4,0.5c0.7,0.3,1.3,0.8,1.8,1.4v-6.6H763.8z M759.6,651.6c0.6-0.4,1.1-0.9,1.5-1.5c0.3-0.6,0.5-1.4,0.5-2.2
		s-0.2-1.6-0.5-2.2c-0.3-0.6-0.8-1.1-1.5-1.5c-0.6-0.3-1.3-0.5-2.1-0.5c-0.8,0-1.5,0.2-2.1,0.5c-0.6,0.3-1.1,0.8-1.5,1.5
		c-0.4,0.6-0.5,1.4-0.5,2.2s0.2,1.6,0.5,2.2c0.4,0.6,0.8,1.1,1.5,1.5c0.6,0.4,1.3,0.5,2.1,0.5C758.3,652.2,759,652,759.6,651.6z"/>
	<path class="st45" d="M768.5,653.7c-0.9-0.3-1.6-0.6-2.1-1l0.9-1.7c0.5,0.4,1.2,0.7,1.9,0.9c0.8,0.2,1.5,0.3,2.3,0.3
		c1.9,0,2.9-0.5,2.9-1.6c0-0.4-0.1-0.7-0.4-0.9c-0.3-0.2-0.6-0.4-1-0.5c-0.4-0.1-0.9-0.2-1.7-0.3c-1-0.2-1.8-0.3-2.4-0.5
		c-0.6-0.2-1.1-0.5-1.6-1c-0.4-0.5-0.7-1.1-0.7-2c0-1.1,0.5-2,1.4-2.6c0.9-0.7,2.1-1,3.7-1c0.8,0,1.6,0.1,2.4,0.3
		c0.8,0.2,1.5,0.5,2,0.8l-0.9,1.7c-1-0.6-2.1-1-3.5-1c-0.9,0-1.6,0.2-2.1,0.5s-0.7,0.7-0.7,1.2c0,0.4,0.1,0.7,0.4,0.9
		c0.3,0.2,0.6,0.4,1,0.5s1,0.2,1.7,0.4c1,0.2,1.8,0.3,2.4,0.5c0.6,0.2,1.1,0.5,1.5,1c0.4,0.5,0.6,1.1,0.6,1.9c0,1.1-0.5,2-1.4,2.6
		c-0.9,0.6-2.2,1-3.8,1C770.4,654.1,769.4,654,768.5,653.7z"/>
</g>
<g>
	<path class="st45" d="M565.9,835.8v5.6h8v2h-8v6.4h-2.3v-15.9h11.2v2H565.9z"/>
	<path class="st45" d="M588.6,837.7v12.1h-2.1V848c-0.4,0.6-1,1.1-1.7,1.4c-0.7,0.3-1.5,0.5-2.4,0.5c-1.6,0-2.9-0.4-3.8-1.3
		s-1.4-2.2-1.4-3.9v-6.9h2.2v6.7c0,1.2,0.3,2.1,0.8,2.7c0.6,0.6,1.4,0.9,2.4,0.9c1.2,0,2.1-0.3,2.7-1c0.7-0.7,1-1.7,1-3v-6.2H588.6z
		"/>
	<path class="st45" d="M602.9,838.9c0.9,0.9,1.4,2.2,1.4,3.9v6.9h-2.2v-6.7c0-1.2-0.3-2-0.8-2.6s-1.4-0.9-2.4-0.9
		c-1.2,0-2.1,0.3-2.8,1c-0.7,0.7-1,1.7-1,3v6.2h-2.2v-12.1h2.1v1.8c0.4-0.6,1-1.1,1.8-1.4c0.8-0.3,1.6-0.5,2.6-0.5
		C600.8,837.6,602,838.1,602.9,838.9z"/>
	<path class="st45" d="M619.8,832.9v16.9h-2.1v-1.9c-0.5,0.7-1.1,1.2-1.8,1.5c-0.7,0.3-1.6,0.5-2.5,0.5c-1.2,0-2.2-0.3-3.1-0.8
		c-0.9-0.5-1.7-1.2-2.2-2.2c-0.5-0.9-0.8-2-0.8-3.2s0.3-2.3,0.8-3.2c0.5-0.9,1.2-1.6,2.2-2.2c0.9-0.5,2-0.8,3.1-0.8
		c0.9,0,1.7,0.2,2.4,0.5c0.7,0.3,1.3,0.8,1.8,1.4v-6.6H619.8z M615.6,847.5c0.6-0.4,1.1-0.9,1.5-1.5c0.3-0.6,0.5-1.4,0.5-2.2
		s-0.2-1.6-0.5-2.2c-0.3-0.6-0.8-1.1-1.5-1.5c-0.6-0.3-1.3-0.5-2.1-0.5c-0.8,0-1.5,0.2-2.1,0.5c-0.6,0.3-1.1,0.8-1.5,1.5
		c-0.4,0.6-0.5,1.4-0.5,2.2s0.2,1.6,0.5,2.2c0.4,0.6,0.8,1.1,1.5,1.5c0.6,0.4,1.3,0.5,2.1,0.5C614.3,848,615,847.8,615.6,847.5z"/>
	<path class="st45" d="M624.5,849.5c-0.9-0.3-1.6-0.6-2.1-1l0.9-1.7c0.5,0.4,1.2,0.7,1.9,0.9c0.8,0.2,1.5,0.3,2.3,0.3
		c1.9,0,2.9-0.5,2.9-1.6c0-0.4-0.1-0.7-0.4-0.9c-0.3-0.2-0.6-0.4-1-0.5c-0.4-0.1-0.9-0.2-1.7-0.3c-1-0.2-1.8-0.3-2.4-0.5
		c-0.6-0.2-1.1-0.5-1.6-1c-0.4-0.5-0.7-1.1-0.7-2c0-1.1,0.5-2,1.4-2.6c0.9-0.7,2.1-1,3.7-1c0.8,0,1.6,0.1,2.4,0.3
		c0.8,0.2,1.5,0.5,2,0.8l-0.9,1.7c-1-0.6-2.1-1-3.5-1c-0.9,0-1.6,0.2-2.1,0.5s-0.7,0.7-0.7,1.2c0,0.4,0.1,0.7,0.4,0.9
		c0.3,0.2,0.6,0.4,1,0.5s1,0.2,1.7,0.4c1,0.2,1.8,0.3,2.4,0.5c0.6,0.2,1.1,0.5,1.5,1c0.4,0.5,0.6,1.1,0.6,1.9c0,1.1-0.5,2-1.4,2.6
		c-0.9,0.6-2.2,1-3.8,1C626.4,849.9,625.4,849.8,624.5,849.5z"/>
</g>
<g>
	<path class="st45" d="M711.7,679.8c-1.5-0.8-2.7-1.9-3.5-3.4c-0.9-1.4-1.3-3.1-1.3-4.9c0-1.8,0.4-3.4,1.3-4.9
		c0.9-1.4,2-2.6,3.5-3.4c1.5-0.8,3.2-1.2,5.1-1.2c1.6,0,3,0.3,4.3,0.8c1.3,0.6,2.4,1.4,3.2,2.4l-2.7,2.5c-1.2-1.4-2.8-2.1-4.6-2.1
		c-1.1,0-2.1,0.2-3,0.7s-1.6,1.2-2.1,2.1c-0.5,0.9-0.7,1.9-0.7,3c0,1.1,0.2,2.1,0.7,3c0.5,0.9,1.2,1.6,2.1,2.1
		c0.9,0.5,1.9,0.7,3,0.7c1.8,0,3.4-0.7,4.6-2.2l2.7,2.5c-0.9,1.1-1.9,1.9-3.2,2.4s-2.7,0.8-4.3,0.8
		C714.9,681.1,713.2,680.7,711.7,679.8z"/>
	<path class="st45" d="M730.4,679.8c-1.5-0.8-2.7-1.9-3.6-3.4c-0.9-1.4-1.3-3-1.3-4.8c0-1.8,0.4-3.4,1.3-4.8
		c0.9-1.4,2.1-2.6,3.6-3.4c1.5-0.8,3.2-1.2,5.1-1.2c1.9,0,3.6,0.4,5.1,1.2c1.5,0.8,2.7,1.9,3.6,3.4c0.9,1.4,1.3,3,1.3,4.8
		c0,1.8-0.4,3.4-1.3,4.8s-2.1,2.6-3.6,3.4c-1.5,0.8-3.2,1.2-5.1,1.2C733.7,681.1,731.9,680.7,730.4,679.8z M738.5,676.7
		c0.9-0.5,1.6-1.2,2-2.1c0.5-0.9,0.7-1.9,0.7-3c0-1.1-0.2-2.1-0.7-3c-0.5-0.9-1.2-1.6-2-2.1c-0.9-0.5-1.8-0.7-2.9-0.7
		c-1.1,0-2.1,0.2-2.9,0.7c-0.9,0.5-1.6,1.2-2,2.1c-0.5,0.9-0.7,1.9-0.7,3c0,1.1,0.2,2.1,0.7,3c0.5,0.9,1.2,1.6,2,2.1
		c0.9,0.5,1.8,0.7,2.9,0.7C736.6,677.5,737.6,677.2,738.5,676.7z"/>
	<path class="st45" d="M748.7,662.5h4.2v14.8h9.2v3.4h-13.4V662.5z"/>
	<path class="st45" d="M764.5,662.5h4.2v14.8h9.2v3.4h-13.4V662.5z"/>
	<path class="st45" d="M794.4,677.4v3.4h-14.1v-18.3H794v3.4h-9.6v4h8.5v3.3h-8.5v4.2H794.4z"/>
	<path class="st45" d="M801.4,679.8c-1.5-0.8-2.7-1.9-3.5-3.4c-0.9-1.4-1.3-3.1-1.3-4.9c0-1.8,0.4-3.4,1.3-4.9
		c0.9-1.4,2-2.6,3.5-3.4c1.5-0.8,3.2-1.2,5.1-1.2c1.6,0,3,0.3,4.3,0.8c1.3,0.6,2.4,1.4,3.2,2.4l-2.7,2.5c-1.2-1.4-2.8-2.1-4.6-2.1
		c-1.1,0-2.1,0.2-3,0.7s-1.6,1.2-2.1,2.1c-0.5,0.9-0.7,1.9-0.7,3c0,1.1,0.2,2.1,0.7,3c0.5,0.9,1.2,1.6,2.1,2.1
		c0.9,0.5,1.9,0.7,3,0.7c1.8,0,3.4-0.7,4.6-2.2l2.7,2.5c-0.9,1.1-1.9,1.9-3.2,2.4s-2.7,0.8-4.3,0.8
		C804.6,681.1,802.9,680.7,801.4,679.8z"/>
	<path class="st45" d="M820.4,665.9h-5.8v-3.4h15.9v3.4h-5.8v14.8h-4.2V665.9z"/>
	<path class="st45" d="M832.8,662.5h4.2v18.3h-4.2V662.5z"/>
	<path class="st45" d="M845,679.8c-1.5-0.8-2.7-1.9-3.6-3.4c-0.9-1.4-1.3-3-1.3-4.8c0-1.8,0.4-3.4,1.3-4.8c0.9-1.4,2.1-2.6,3.6-3.4
		c1.5-0.8,3.2-1.2,5.1-1.2c1.9,0,3.6,0.4,5.1,1.2c1.5,0.8,2.7,1.9,3.6,3.4c0.9,1.4,1.3,3,1.3,4.8c0,1.8-0.4,3.4-1.3,4.8
		s-2.1,2.6-3.6,3.4c-1.5,0.8-3.2,1.2-5.1,1.2C848.3,681.1,846.5,680.7,845,679.8z M853.1,676.7c0.9-0.5,1.6-1.2,2-2.1
		c0.5-0.9,0.7-1.9,0.7-3c0-1.1-0.2-2.1-0.7-3c-0.5-0.9-1.2-1.6-2-2.1c-0.9-0.5-1.8-0.7-2.9-0.7c-1.1,0-2.1,0.2-2.9,0.7
		c-0.9,0.5-1.6,1.2-2,2.1c-0.5,0.9-0.7,1.9-0.7,3c0,1.1,0.2,2.1,0.7,3c0.5,0.9,1.2,1.6,2,2.1c0.9,0.5,1.8,0.7,2.9,0.7
		C851.2,677.5,852.2,677.2,853.1,676.7z"/>
	<path class="st45" d="M880.1,662.5v18.3h-3.5l-9.1-11.1v11.1h-4.2v-18.3h3.5l9.1,11.1v-11.1H880.1z"/>
</g>
<g>
	<path class="st45" d="M568.5,863.2h-5.8v-3.4h15.9v3.4h-5.8V878h-4.2V863.2z"/>
	<path class="st45" d="M592.5,878l-3.5-5.1h-0.2H585v5.1h-4.2v-18.3h7.9c1.6,0,3,0.3,4.2,0.8c1.2,0.5,2.1,1.3,2.8,2.3
		c0.6,1,1,2.2,1,3.5s-0.3,2.5-1,3.5c-0.7,1-1.6,1.7-2.8,2.3l4.1,5.9H592.5z M591.4,864c-0.7-0.5-1.6-0.8-2.9-0.8H585v6.4h3.4
		c1.3,0,2.2-0.3,2.9-0.8s1-1.3,1-2.3C592.4,865.4,592,864.6,591.4,864z"/>
	<path class="st45" d="M612,874.1h-8.5l-1.6,3.9h-4.3l8.1-18.3h4.2l8.2,18.3h-4.4L612,874.1z M610.7,870.9l-2.9-7l-2.9,7H610.7z"/>
	<path class="st45" d="M636.7,859.8V878h-3.5l-9.1-11.1V878H620v-18.3h3.5l9.1,11.1v-11.1H636.7z"/>
	<path class="st45" d="M642.9,877.8c-1.3-0.4-2.4-0.9-3.2-1.5l1.4-3.2c0.8,0.6,1.7,1,2.8,1.4s2.2,0.5,3.2,0.5c1.2,0,2.1-0.2,2.7-0.5
		c0.6-0.4,0.9-0.8,0.9-1.4c0-0.4-0.2-0.8-0.5-1.1s-0.8-0.5-1.3-0.7s-1.2-0.4-2.2-0.6c-1.4-0.3-2.5-0.7-3.4-1
		c-0.9-0.3-1.6-0.9-2.3-1.6c-0.6-0.7-1-1.7-1-2.9c0-1.1,0.3-2,0.9-2.9c0.6-0.9,1.4-1.5,2.6-2c1.2-0.5,2.6-0.8,4.2-0.8
		c1.2,0,2.3,0.1,3.4,0.4c1.1,0.3,2.1,0.7,2.9,1.2l-1.3,3.2c-1.7-1-3.4-1.4-5.1-1.4c-1.2,0-2.1,0.2-2.6,0.6c-0.6,0.4-0.8,0.9-0.8,1.5
		s0.3,1.1,1,1.4c0.7,0.3,1.6,0.6,3,0.9c1.4,0.3,2.5,0.7,3.4,1c0.9,0.3,1.6,0.9,2.3,1.6c0.6,0.7,1,1.7,1,2.9c0,1-0.3,2-0.9,2.9
		c-0.6,0.9-1.5,1.5-2.6,2s-2.6,0.8-4.3,0.8C645.6,878.3,644.2,878.1,642.9,877.8z"/>
	<path class="st45" d="M669.7,874.1h-8.5l-1.6,3.9h-4.3l8.1-18.3h4.2l8.2,18.3h-4.4L669.7,874.1z M668.4,870.9l-2.9-7l-2.9,7H668.4z
		"/>
	<path class="st45" d="M681.1,877.1c-1.5-0.8-2.7-1.9-3.5-3.4c-0.9-1.4-1.3-3.1-1.3-4.9c0-1.8,0.4-3.4,1.3-4.9
		c0.9-1.4,2-2.6,3.5-3.4c1.5-0.8,3.2-1.2,5.1-1.2c1.6,0,3,0.3,4.3,0.8s2.4,1.4,3.2,2.4l-2.7,2.5c-1.2-1.4-2.8-2.1-4.6-2.1
		c-1.1,0-2.1,0.2-3,0.7c-0.9,0.5-1.6,1.2-2.1,2.1c-0.5,0.9-0.7,1.9-0.7,3c0,1.1,0.2,2.1,0.7,3c0.5,0.9,1.2,1.6,2.1,2.1
		c0.9,0.5,1.9,0.7,3,0.7c1.8,0,3.4-0.7,4.6-2.2l2.7,2.5c-0.9,1.1-1.9,1.9-3.2,2.4c-1.3,0.6-2.7,0.8-4.3,0.8
		C684.3,878.3,682.6,877.9,681.1,877.1z"/>
	<path class="st45" d="M700.1,863.2h-5.8v-3.4h15.9v3.4h-5.8V878h-4.2V863.2z"/>
	<path class="st45" d="M712.5,859.8h4.2V878h-4.2V859.8z"/>
	<path class="st45" d="M724.8,877.1c-1.5-0.8-2.7-1.9-3.6-3.4c-0.9-1.4-1.3-3-1.3-4.8c0-1.8,0.4-3.4,1.3-4.8
		c0.9-1.4,2.1-2.6,3.6-3.4s3.2-1.2,5.1-1.2s3.6,0.4,5.1,1.2s2.7,1.9,3.6,3.4c0.9,1.4,1.3,3,1.3,4.8c0,1.8-0.4,3.4-1.3,4.8
		c-0.9,1.4-2.1,2.6-3.6,3.4s-3.2,1.2-5.1,1.2S726.3,877.9,724.8,877.1z M732.8,874c0.9-0.5,1.6-1.2,2-2.1c0.5-0.9,0.7-1.9,0.7-3
		c0-1.1-0.2-2.1-0.7-3c-0.5-0.9-1.2-1.6-2-2.1c-0.9-0.5-1.8-0.7-2.9-0.7s-2.1,0.2-2.9,0.7c-0.9,0.5-1.6,1.2-2,2.1
		c-0.5,0.9-0.7,1.9-0.7,3c0,1.1,0.2,2.1,0.7,3c0.5,0.9,1.2,1.6,2,2.1c0.9,0.5,1.8,0.7,2.9,0.7S731.9,874.5,732.8,874z"/>
	<path class="st45" d="M759.8,859.8V878h-3.5l-9.1-11.1V878h-4.2v-18.3h3.5l9.1,11.1v-11.1H759.8z"/>
</g>
<g>
	<path class="st45" d="M884.3,965.8v11.1H874v-11.2l-11.5-19.4h10.9l6.3,10.6l6.3-10.6h10L884.3,965.8z"/>
	<path class="st45" d="M903,975.5c-2.6-1.4-4.7-3.3-6.2-5.7s-2.2-5.2-2.2-8.2c0-3.1,0.7-5.8,2.2-8.2c1.5-2.4,3.5-4.3,6.2-5.7
		s5.6-2.1,8.9-2.1c3.3,0,6.3,0.7,8.9,2.1c2.6,1.4,4.7,3.3,6.2,5.7c1.5,2.4,2.2,5.2,2.2,8.2c0,3.1-0.7,5.8-2.2,8.2s-3.5,4.3-6.2,5.7
		c-2.6,1.4-5.6,2.1-8.9,2.1C908.6,977.6,905.6,976.9,903,975.5z M915.3,968.3c1-0.6,1.9-1.5,2.5-2.7c0.6-1.2,0.9-2.5,0.9-4
		c0-1.5-0.3-2.9-0.9-4s-1.4-2-2.5-2.7c-1-0.6-2.2-0.9-3.5-0.9s-2.4,0.3-3.5,0.9c-1,0.6-1.9,1.5-2.5,2.7s-0.9,2.5-0.9,4
		c0,1.5,0.3,2.9,0.9,4c0.6,1.2,1.4,2,2.5,2.7s2.2,0.9,3.5,0.9S914.3,968.9,915.3,968.3z"/>
	<path class="st45" d="M936.6,973.8c-2.6-2.5-3.9-6.1-3.9-10.7v-16.8H943v16.5c0,2.2,0.4,3.9,1.2,4.9c0.8,1,2,1.5,3.5,1.5
		s2.7-0.5,3.5-1.5c0.8-1,1.2-2.7,1.2-4.9v-16.5h10.1v16.8c0,4.6-1.3,8.1-3.9,10.7c-2.6,2.5-6.3,3.8-11,3.8
		C942.9,977.6,939.2,976.3,936.6,973.8z"/>
	<path class="st45" d="M893.4,1029.3l-0.1-13.9l-6.6,11.2h-4.5l-6.6-10.7v13.5h-9.4v-30.6h8.5l10,16.3l9.7-16.3h8.5l0.1,30.6H893.4z
		"/>
	<path class="st45" d="M928.7,1024H917l-2.1,5.3h-10.5l13.4-30.6H928l13.4,30.6h-10.7L928.7,1024z M925.8,1016.6l-3-7.7l-3,7.7
		H925.8z"/>
	<path class="st45" d="M943,998.7h15.1c3.4,0,6.4,0.6,9,1.9c2.6,1.2,4.6,3,6.1,5.3c1.4,2.3,2.2,5,2.2,8.1c0,3.1-0.7,5.8-2.2,8.1
		c-1.4,2.3-3.5,4.1-6.1,5.3c-2.6,1.2-5.6,1.9-9,1.9H943V998.7z M957.7,1021.3c2.2,0,4-0.6,5.3-1.9c1.3-1.3,2-3.1,2-5.4
		c0-2.3-0.7-4.1-2-5.4c-1.3-1.3-3.1-1.9-5.3-1.9h-4.3v14.5H957.7z"/>
	<path class="st45" d="M1004.6,1021.6v7.8h-25.4v-30.6h24.9v7.8h-14.7v3.6h12.9v7.4h-12.9v4H1004.6z"/>
	<path class="st45" d="M1021.7,998.7h10.3v30.6h-10.3V998.7z"/>
	<path class="st45" d="M1043.6,1006.7h-9v-8h28.2v8h-9v22.6h-10.3V1006.7z"/>
</g>
<g>
	<path class="st45" d="M164.7,980.7c-1.3-0.7-2.3-1.7-3-2.9c-0.7-1.2-1.1-2.6-1.1-4.2s0.4-2.9,1.1-4.2c0.7-1.2,1.7-2.2,3-2.9
		c1.3-0.7,2.7-1.1,4.3-1.1c1.2,0,2.4,0.2,3.4,0.6s1.9,1,2.6,1.9l-1.5,1.4c-1.2-1.3-2.7-1.9-4.5-1.9c-1.2,0-2.3,0.3-3.2,0.8
		s-1.7,1.3-2.2,2.2c-0.5,0.9-0.8,2-0.8,3.1s0.3,2.2,0.8,3.1c0.5,0.9,1.3,1.7,2.2,2.2s2,0.8,3.2,0.8c1.8,0,3.3-0.6,4.5-1.9l1.5,1.4
		c-0.7,0.8-1.6,1.4-2.7,1.9c-1,0.4-2.2,0.6-3.4,0.6C167.4,981.7,166,981.4,164.7,980.7z"/>
	<path class="st45" d="M178,964.7h2.2v16.9H178V964.7z"/>
	<path class="st45" d="M195.2,976.3h-9.8c0.1,1.1,0.6,1.9,1.4,2.6c0.8,0.6,1.8,1,3,1c1.4,0,2.6-0.5,3.5-1.5l1.2,1.4
		c-0.5,0.6-1.2,1.1-2,1.5c-0.8,0.3-1.7,0.5-2.7,0.5c-1.3,0-2.4-0.3-3.4-0.8s-1.7-1.3-2.3-2.2c-0.5-0.9-0.8-2-0.8-3.2
		c0-1.2,0.3-2.2,0.8-3.2c0.5-0.9,1.2-1.7,2.2-2.2c0.9-0.5,2-0.8,3.1-0.8s2.2,0.3,3.1,0.8c0.9,0.5,1.6,1.3,2.1,2.2
		c0.5,0.9,0.8,2,0.8,3.2C195.3,975.8,195.3,976,195.2,976.3z M186.7,972.2c-0.7,0.6-1.1,1.5-1.2,2.5h7.7c-0.1-1-0.5-1.8-1.2-2.5
		c-0.7-0.6-1.6-1-2.6-1S187.4,971.5,186.7,972.2z"/>
	<path class="st45" d="M206.2,970.6c0.9,0.8,1.3,2,1.3,3.7v7.3h-2.1V980c-0.4,0.6-0.9,1-1.6,1.3c-0.7,0.3-1.5,0.4-2.4,0.4
		c-1.4,0-2.4-0.3-3.2-1s-1.2-1.5-1.2-2.6c0-1.1,0.4-1.9,1.2-2.6c0.8-0.6,2-1,3.7-1h3.5v-0.4c0-0.9-0.3-1.7-0.8-2.2
		c-0.5-0.5-1.4-0.8-2.4-0.8c-0.7,0-1.4,0.1-2.1,0.4c-0.7,0.2-1.3,0.6-1.7,0.9l-0.9-1.6c0.6-0.5,1.4-0.9,2.2-1.1
		c0.9-0.3,1.8-0.4,2.8-0.4C204,969.4,205.3,969.8,206.2,970.6z M204,979.4c0.6-0.4,1-0.9,1.3-1.6v-1.7H202c-1.9,0-2.8,0.6-2.8,1.9
		c0,0.6,0.2,1.1,0.7,1.4s1.1,0.5,2,0.5C202.7,980,203.4,979.8,204,979.4z"/>
	<path class="st45" d="M215.3,969.9c0.7-0.4,1.6-0.5,2.7-0.5v2.1c-0.1,0-0.3,0-0.5,0c-1.2,0-2.1,0.4-2.8,1.1c-0.7,0.7-1,1.7-1,3v6
		h-2.2v-12.1h2.1v2C214,970.8,214.6,970.3,215.3,969.9z"/>
	<path class="st45" d="M237.7,969.5l-5.3,12.1h-2.2l-5.3-12.1h2.3l4.1,9.7l4.2-9.7H237.7z"/>
	<path class="st45" d="M239.8,966.8c-0.3-0.3-0.4-0.6-0.4-1s0.1-0.7,0.4-1c0.3-0.3,0.6-0.4,1.1-0.4s0.8,0.1,1.1,0.4s0.4,0.6,0.4,1
		c0,0.4-0.1,0.8-0.4,1c-0.3,0.3-0.6,0.4-1.1,0.4S240.1,967,239.8,966.8z M239.8,969.5h2.2v12.1h-2.2V969.5z"/>
	<path class="st45" d="M257,976.3h-9.8c0.1,1.1,0.6,1.9,1.4,2.6c0.8,0.6,1.8,1,3,1c1.4,0,2.6-0.5,3.5-1.5l1.2,1.4
		c-0.5,0.6-1.2,1.1-2,1.5s-1.7,0.5-2.7,0.5c-1.3,0-2.4-0.3-3.4-0.8s-1.7-1.3-2.3-2.2c-0.5-0.9-0.8-2-0.8-3.2c0-1.2,0.3-2.2,0.8-3.2
		c0.5-0.9,1.2-1.7,2.2-2.2c0.9-0.5,2-0.8,3.1-0.8c1.2,0,2.2,0.3,3.1,0.8c0.9,0.5,1.6,1.3,2.1,2.2c0.5,0.9,0.8,2,0.8,3.2
		C257,975.8,257,976,257,976.3z M248.4,972.2c-0.7,0.6-1.1,1.5-1.2,2.5h7.7c-0.1-1-0.5-1.8-1.2-2.5c-0.7-0.6-1.6-1-2.6-1
		C250,971.2,249.1,971.5,248.4,972.2z"/>
	<path class="st45" d="M278.1,969.5l-4.5,12.1h-2.1l-3.5-9.2l-3.5,9.2h-2.1l-4.5-12.1h2.1l3.5,9.6l3.6-9.6h1.8l3.6,9.7l3.6-9.7
		H278.1z"/>
</g>
<g>
	<path class="st45" d="M174.6,1009.8l-3.5-5.1h-0.2h-3.7v5.1h-4.2v-18.3h7.9c1.6,0,3,0.3,4.2,0.8c1.2,0.5,2.1,1.3,2.8,2.3
		c0.6,1,1,2.2,1,3.5s-0.3,2.5-1,3.5s-1.6,1.7-2.8,2.3l4.1,5.9H174.6z M173.5,995.8c-0.7-0.5-1.6-0.8-2.9-0.8h-3.4v6.4h3.4
		c1.3,0,2.2-0.3,2.9-0.8c0.7-0.6,1-1.3,1-2.3C174.5,997.1,174.2,996.3,173.5,995.8z"/>
	<path class="st45" d="M196.3,1006.4v3.4h-14.1v-18.3h13.8v3.4h-9.6v4h8.5v3.3h-8.5v4.2H196.3z"/>
	<path class="st45" d="M211.7,992.3c1.2,0.5,2.1,1.3,2.8,2.3c0.6,1,1,2.2,1,3.5c0,1.3-0.3,2.5-1,3.5c-0.6,1-1.6,1.8-2.8,2.3
		c-1.2,0.5-2.6,0.8-4.2,0.8h-3.7v5h-4.2v-18.3h7.9C209.1,991.5,210.5,991.8,211.7,992.3z M210.2,1000.5c0.7-0.5,1-1.3,1-2.3
		c0-1-0.3-1.8-1-2.4c-0.7-0.5-1.6-0.8-2.9-0.8h-3.4v6.3h3.4C208.6,1001.3,209.5,1001,210.2,1000.5z"/>
	<path class="st45" d="M222.4,1008.9c-1.5-0.8-2.7-1.9-3.6-3.4c-0.9-1.4-1.3-3-1.3-4.8c0-1.8,0.4-3.4,1.3-4.8s2.1-2.6,3.6-3.4
		s3.2-1.2,5.1-1.2s3.6,0.4,5.1,1.2s2.7,1.9,3.6,3.4c0.9,1.4,1.3,3,1.3,4.8c0,1.8-0.4,3.4-1.3,4.8c-0.9,1.4-2.1,2.6-3.6,3.4
		s-3.2,1.2-5.1,1.2S224,1009.7,222.4,1008.9z M230.5,1005.8c0.9-0.5,1.6-1.2,2-2.1s0.7-1.9,0.7-3c0-1.1-0.2-2.1-0.7-3
		c-0.5-0.9-1.2-1.6-2-2.1c-0.9-0.5-1.8-0.7-2.9-0.7c-1.1,0-2.1,0.2-2.9,0.7c-0.9,0.5-1.6,1.2-2,2.1c-0.5,0.9-0.7,1.9-0.7,3
		c0,1.1,0.2,2.1,0.7,3s1.2,1.6,2,2.1c0.9,0.5,1.8,0.7,2.9,0.7C228.6,1006.5,229.6,1006.3,230.5,1005.8z"/>
	<path class="st45" d="M252.4,1009.8l-3.5-5.1h-0.2H245v5.1h-4.2v-18.3h7.9c1.6,0,3,0.3,4.2,0.8c1.2,0.5,2.1,1.3,2.8,2.3
		c0.6,1,1,2.2,1,3.5s-0.3,2.5-1,3.5c-0.7,1-1.6,1.7-2.8,2.3l4.1,5.9H252.4z M251.3,995.8c-0.7-0.5-1.6-0.8-2.9-0.8H245v6.4h3.4
		c1.3,0,2.2-0.3,2.9-0.8c0.7-0.6,1-1.3,1-2.3C252.3,997.1,252,996.3,251.3,995.8z"/>
	<path class="st45" d="M263.4,995h-5.8v-3.4h15.9v3.4h-5.8v14.8h-4.2V995z"/>
	<path class="st45" d="M275.8,991.5h4.2v18.3h-4.2V991.5z"/>
	<path class="st45" d="M301.1,991.5v18.3h-3.5l-9.1-11.1v11.1h-4.2v-18.3h3.5l9.1,11.1v-11.1H301.1z"/>
	<path class="st45" d="M317.7,1000.4h3.9v7.4c-1,0.7-2.1,1.3-3.4,1.7c-1.3,0.4-2.6,0.6-3.9,0.6c-1.9,0-3.6-0.4-5.1-1.2
		c-1.5-0.8-2.7-1.9-3.6-3.4c-0.9-1.4-1.3-3.1-1.3-4.9c0-1.8,0.4-3.4,1.3-4.9c0.9-1.4,2.1-2.6,3.6-3.4c1.5-0.8,3.3-1.2,5.2-1.2
		c1.6,0,3.1,0.3,4.4,0.8s2.4,1.3,3.3,2.3l-2.7,2.5c-1.3-1.4-2.9-2.1-4.7-2.1c-1.2,0-2.2,0.2-3.1,0.7c-0.9,0.5-1.6,1.2-2.1,2.1
		s-0.8,1.9-0.8,3.1c0,1.1,0.3,2.1,0.8,3s1.2,1.6,2.1,2.1c0.9,0.5,1.9,0.7,3.1,0.7c1.2,0,2.3-0.3,3.3-0.8V1000.4z"/>
</g>
<g>
	<polygon class="st46" points="316.8,36.3 290.6,36.3 290.6,9.9 265.2,9.9 265.2,36.3 238.8,36.3 238.8,61.9 265.2,61.9 265.2,88.3 
		290.6,88.3 290.6,61.9 316.8,61.9 	"/>
	
		<radialGradient id="SVGID_9_" cx="4094.0293" cy="2399.5793" r="129.2727" gradientTransform="matrix(0.296 0 0 5.423031e-02 -931.3082 -34.1638)" gradientUnits="userSpaceOnUse">
		<stop  offset="0.1034" style="stop-color:#E0E3E2"/>
		<stop  offset="0.2677" style="stop-color:#E9EBEA"/>
		<stop  offset="0.684" style="stop-color:#F9FAFA"/>
		<stop  offset="1" style="stop-color:#FFFFFF"/>
	</radialGradient>
	<ellipse class="st28" cx="280.4" cy="96" rx="54" ry="5.9"/>
</g>
<path class="st9" d="M324.4,9.8c0,0-1.3,12.6-11.3,13.5c10,0.9,11.3,13.5,11.3,13.5s1.3-12.6,11.3-13.5
	C325.7,22.4,324.4,9.8,324.4,9.8z"/>
<path class="st9" d="M343.7,34c0,0-0.8,7.9-7,8.5c6.2,0.5,7,8.5,7,8.5s0.8-7.9,7-8.5C344.5,41.9,343.7,34,343.7,34z"/>
<path class="st48" d="M562,713.1l89.9,40.5l-90.1,40.9l0.2-35l71.7-5.5l-71.9-5.7C561.9,748.2,561.8,713,562,713.1z"/>
<path class="st49" d="M223.6,1031c14.8,20.6,34.8,35.6,57.8,48.6c5,3,10,4,15,6c15,6,29,10,44,15c15,4,31,5,46,6c41,2,81-6,122-16
	c23-6,44-12,65-21c6-3,11-4,17-7c16-7,33-13,49-23c8-5,15-8,23-13c5-3,10-6,15.1-9.3"/>
<path class="st49" d="M531.7,739.4c-107.3-4.8-219.3,28.2-299,101.3"/>
<path class="st49" d="M873.6,568.9c5.8,1.7,10.8,3.7,16.8,6.7c3,2,6,2,9,3c18,9,74.8,45.6,106,101c1.6,2.8,1,5,2,8c6,13,11,27,10,42
	c-2,28-18,52-43,66c-1,1-3.1,1.9-4.1,1.9c-58,26-121.9,19.1-183.9,13.1c-14-2-48-11-51-13c-15-5-29-11-44-18c-6-2-11-4-16.6-6.4"/>
<path class="st49" d="M314.2,702c7.2-2.5,26.2-12.4,34.2-16.4c46-24,90-49,138-71c2-1,3,0,5-1c62-26,126-51,194-55c3-1,5-3,8.4-3"/>
<path class="st49" d="M239.2,474.8c-0.8,0.8-2.8,1.8-3.8,1.8c-11,2-20,6-31,9c-2,0-5,0-7,1c-33,15-68,30-86,64c-2,3-2,7-3,10
	c-13,33-2,70,18.6,96.6"/>
<path class="st49" d="M871.7,416.2c0.5,0.5-31.7,24.5-108.3,61.5c-43.2,20.8-90,26-138,18c-28-4-54-10-79-23c-15-8-29-16-40-30
	c-1-2-3-5-5-7c-29-44,4-97,45-118c15-7,30-11,46-9c24,3,43,16,58,36c1,1,1,3,2,4c18,19,18,49,7,72c-4,8-11,15-16,23c-5,6-12,9-17,15
	c-1,1-2,0-3,1c-42,36-98,52-152,37c-35-10-69-22-103.8-28.7"/>
<path class="st49" d="M709.8,158c53.6,9.7,107.6,21.7,157.6,48.7c21,12,40,26,53.5,45.2"/>
<path class="st49" d="M211,295.9c11.4-9.3,22.4-17.3,34.4-26.3c11-7,20-14,31-21c98-61,202-98,313.7-100.7"/>
<path class="st49" d="M588.2,139.7c-39.8,0.3-95.9-3.9-159.1-24.5c-41.2-13.4-75.2-30.4-101.5-46.1"/>
<radialGradient id="SVGID_10_" cx="281.5939" cy="5791.8013" r="129.2727" gradientTransform="matrix(0.5538 0 0 4.348000e-02 15.0939 527.6001)" gradientUnits="userSpaceOnUse">
	<stop  offset="0.1034" style="stop-color:#E0E3E2"/>
	<stop  offset="0.2677" style="stop-color:#E9EBEA"/>
	<stop  offset="0.684" style="stop-color:#F9FAFA"/>
	<stop  offset="1" style="stop-color:#FFFFFF"/>
</radialGradient>
<ellipse class="st31" cx="171" cy="779.4" rx="101.1" ry="4.7"/>
<g>
	<g>
		<path class="st45" d="M54.6,292.6v5.5h-2.3v-5.6L46,282.1h2.4l5.1,8.4l5.1-8.4h2.3L54.6,292.6z"/>
		<path class="st45" d="M63.4,297.4c-1-0.5-1.7-1.3-2.2-2.2c-0.5-0.9-0.8-2-0.8-3.2s0.3-2.2,0.8-3.2c0.5-0.9,1.3-1.7,2.2-2.2
			c1-0.5,2-0.8,3.2-0.8c1.2,0,2.3,0.3,3.2,0.8c0.9,0.5,1.7,1.3,2.2,2.2c0.5,0.9,0.8,2,0.8,3.2s-0.3,2.2-0.8,3.2
			c-0.5,0.9-1.3,1.7-2.2,2.2c-0.9,0.5-2,0.8-3.2,0.8C65.5,298.2,64.4,298,63.4,297.4z M68.8,295.8c0.6-0.4,1.1-0.9,1.4-1.5
			c0.3-0.6,0.5-1.4,0.5-2.2s-0.2-1.6-0.5-2.2c-0.3-0.6-0.8-1.1-1.4-1.5c-0.6-0.3-1.3-0.5-2.1-0.5c-0.8,0-1.5,0.2-2.1,0.5
			c-0.6,0.3-1.1,0.8-1.5,1.5c-0.4,0.6-0.5,1.4-0.5,2.2s0.2,1.6,0.5,2.2c0.4,0.6,0.8,1.1,1.5,1.5c0.6,0.4,1.3,0.5,2.1,0.5
			C67.5,296.3,68.1,296.1,68.8,295.8z"/>
		<path class="st45" d="M87.2,286v12.1h-2.1v-1.8c-0.4,0.6-1,1.1-1.7,1.4c-0.7,0.3-1.5,0.5-2.4,0.5c-1.6,0-2.9-0.4-3.8-1.3
			c-0.9-0.9-1.4-2.2-1.4-3.9V286H78v6.7c0,1.2,0.3,2.1,0.8,2.7c0.6,0.6,1.4,0.9,2.4,0.9c1.2,0,2.1-0.3,2.7-1c0.7-0.7,1-1.7,1-3V286
			H87.2z"/>
		<path class="st45" d="M107.6,287.2c0.9,0.9,1.4,2.2,1.4,3.9v6.9h-2.2v-6.7c0-1.2-0.3-2-0.8-2.6c-0.6-0.6-1.4-0.9-2.4-0.9
			c-1.2,0-2.1,0.3-2.8,1s-1,1.7-1,3v6.2h-2.2v-16.9h2.2v6.5c0.5-0.6,1.1-1,1.8-1.3c0.7-0.3,1.6-0.5,2.5-0.5
			C105.5,285.9,106.7,286.3,107.6,287.2z"/>
		<path class="st45" d="M121.2,287.1c0.9,0.8,1.3,2,1.3,3.7v7.3h-2.1v-1.6c-0.4,0.6-0.9,1-1.6,1.3c-0.7,0.3-1.5,0.4-2.4,0.4
			c-1.4,0-2.4-0.3-3.2-1c-0.8-0.7-1.2-1.5-1.2-2.6c0-1.1,0.4-1.9,1.2-2.6c0.8-0.6,2-1,3.7-1h3.5v-0.4c0-0.9-0.3-1.7-0.8-2.2
			c-0.5-0.5-1.4-0.8-2.4-0.8c-0.7,0-1.4,0.1-2.1,0.4c-0.7,0.2-1.3,0.6-1.7,0.9l-0.9-1.6c0.6-0.5,1.4-0.9,2.2-1.1
			c0.9-0.3,1.8-0.4,2.8-0.4C119.1,285.9,120.3,286.3,121.2,287.1z M119.1,296c0.6-0.4,1-0.9,1.3-1.6v-1.7H117
			c-1.9,0-2.8,0.6-2.8,1.9c0,0.6,0.2,1.1,0.7,1.4c0.5,0.3,1.1,0.5,2,0.5S118.5,296.3,119.1,296z"/>
		<path class="st45" d="M137.1,286l-5.3,12.1h-2.2l-5.3-12.1h2.3l4.1,9.7l4.2-9.7H137.1z"/>
		<path class="st45" d="M149.6,292.8h-9.8c0.1,1.1,0.6,1.9,1.4,2.6c0.8,0.6,1.8,1,3,1c1.4,0,2.6-0.5,3.5-1.5l1.2,1.4
			c-0.5,0.6-1.2,1.1-2,1.5c-0.8,0.3-1.7,0.5-2.7,0.5c-1.3,0-2.4-0.3-3.4-0.8s-1.7-1.3-2.3-2.2c-0.5-0.9-0.8-2-0.8-3.2
			c0-1.2,0.3-2.2,0.8-3.2c0.5-0.9,1.2-1.7,2.2-2.2c0.9-0.5,2-0.8,3.1-0.8s2.2,0.3,3.1,0.8c0.9,0.5,1.6,1.3,2.1,2.2
			c0.5,0.9,0.8,2,0.8,3.2C149.7,292.3,149.7,292.5,149.6,292.8z M141.1,288.7c-0.7,0.6-1.1,1.5-1.2,2.5h7.7c-0.1-1-0.5-1.8-1.2-2.5
			c-0.7-0.6-1.6-1-2.6-1C142.7,287.7,141.8,288.1,141.1,288.7z"/>
		<path class="st45" d="M167.1,287.1c0.9,0.8,1.3,2,1.3,3.7v7.3h-2.1v-1.6c-0.4,0.6-0.9,1-1.6,1.3c-0.7,0.3-1.5,0.4-2.4,0.4
			c-1.4,0-2.4-0.3-3.2-1c-0.8-0.7-1.2-1.5-1.2-2.6c0-1.1,0.4-1.9,1.2-2.6c0.8-0.6,2-1,3.7-1h3.5v-0.4c0-0.9-0.3-1.7-0.8-2.2
			c-0.5-0.5-1.4-0.8-2.4-0.8c-0.7,0-1.4,0.1-2.1,0.4c-0.7,0.2-1.3,0.6-1.7,0.9l-0.9-1.6c0.6-0.5,1.4-0.9,2.2-1.1
			c0.9-0.3,1.8-0.4,2.8-0.4C164.9,285.9,166.2,286.3,167.1,287.1z M164.9,296c0.6-0.4,1-0.9,1.3-1.6v-1.7h-3.4
			c-1.9,0-2.8,0.6-2.8,1.9c0,0.6,0.2,1.1,0.7,1.4c0.5,0.3,1.1,0.5,2,0.5S164.3,296.3,164.9,296z"/>
		<path class="st45" d="M182.5,287.2c0.9,0.9,1.4,2.2,1.4,3.9v6.9h-2.2v-6.7c0-1.2-0.3-2-0.8-2.6c-0.6-0.6-1.4-0.9-2.4-0.9
			c-1.2,0-2.1,0.3-2.8,1s-1,1.7-1,3v6.2h-2.2V286h2.1v1.8c0.4-0.6,1-1.1,1.8-1.4c0.8-0.3,1.6-0.5,2.6-0.5
			C180.4,285.9,181.6,286.3,182.5,287.2z"/>
		<path class="st45" d="M48.2,311.1h4.2v18.3h-4.2V311.1z"/>
		<path class="st45" d="M56.8,311.1h8.3c2,0,3.7,0.4,5.3,1.1c1.5,0.8,2.7,1.8,3.5,3.2c0.8,1.4,1.3,3,1.3,4.8s-0.4,3.4-1.3,4.8
			c-0.8,1.4-2,2.4-3.5,3.2c-1.5,0.8-3.3,1.1-5.3,1.1h-8.3V311.1z M64.9,325.9c1.8,0,3.3-0.5,4.4-1.5c1.1-1,1.6-2.4,1.6-4.1
			c0-1.7-0.5-3.1-1.6-4.1s-2.5-1.5-4.4-1.5H61v11.3H64.9z"/>
		<path class="st45" d="M92.5,326v3.4H78.3v-18.3h13.8v3.4h-9.6v4H91v3.3h-8.5v4.2H92.5z"/>
		<path class="st45" d="M107.9,325.5h-8.5l-1.6,3.9h-4.3l8.1-18.3h4.2l8.2,18.3h-4.4L107.9,325.5z M106.5,322.3l-2.9-7l-2.9,7H106.5
			z"/>
		<path class="st45" d="M125.6,316.3v1h3.5v1.8h-3.5v10.3h-2.2v-10.3h-2v-1.8h2v-1.1c0-1.2,0.3-2.1,1-2.8c0.7-0.7,1.7-1,2.9-1
			c0.5,0,0.9,0.1,1.4,0.2s0.8,0.3,1.1,0.5l-0.7,1.7c-0.5-0.4-1.1-0.6-1.7-0.6C126.2,314.2,125.6,314.9,125.6,316.3z"/>
		<path class="st45" d="M132.9,328.7c-1-0.5-1.7-1.3-2.2-2.2c-0.5-0.9-0.8-2-0.8-3.2s0.3-2.2,0.8-3.2c0.5-0.9,1.3-1.7,2.2-2.2
			c1-0.5,2-0.8,3.2-0.8c1.2,0,2.3,0.3,3.2,0.8c0.9,0.5,1.7,1.3,2.2,2.2c0.5,0.9,0.8,2,0.8,3.2s-0.3,2.2-0.8,3.2
			c-0.5,0.9-1.3,1.7-2.2,2.2c-0.9,0.5-2,0.8-3.2,0.8C134.9,329.5,133.9,329.3,132.9,328.7z M138.2,327.1c0.6-0.4,1.1-0.9,1.4-1.5
			c0.3-0.6,0.5-1.4,0.5-2.2s-0.2-1.6-0.5-2.2c-0.3-0.6-0.8-1.1-1.4-1.5c-0.6-0.3-1.3-0.5-2.1-0.5c-0.8,0-1.5,0.2-2.1,0.5
			c-0.6,0.3-1.1,0.8-1.5,1.5c-0.4,0.6-0.5,1.4-0.5,2.2s0.2,1.6,0.5,2.2c0.4,0.6,0.8,1.1,1.5,1.5c0.6,0.4,1.3,0.5,2.1,0.5
			C136.9,327.6,137.6,327.4,138.2,327.1z"/>
		<path class="st45" d="M149.2,317.8c0.7-0.4,1.6-0.5,2.7-0.5v2.1c-0.1,0-0.3,0-0.5,0c-1.2,0-2.1,0.4-2.8,1.1c-0.7,0.7-1,1.7-1,3v6
			h-2.2v-12.1h2.1v2C147.9,318.6,148.5,318.1,149.2,317.8z"/>
		<path class="st45" d="M48.8,351.9c-0.9-0.3-1.6-0.6-2.1-1l0.9-1.7c0.5,0.4,1.2,0.7,1.9,0.9c0.8,0.2,1.5,0.3,2.3,0.3
			c1.9,0,2.9-0.5,2.9-1.6c0-0.4-0.1-0.7-0.4-0.9c-0.3-0.2-0.6-0.4-1-0.5c-0.4-0.1-0.9-0.2-1.7-0.3c-1-0.2-1.8-0.3-2.4-0.5
			c-0.6-0.2-1.1-0.5-1.6-1c-0.4-0.5-0.7-1.1-0.7-2c0-1.1,0.5-2,1.4-2.6c0.9-0.7,2.1-1,3.7-1c0.8,0,1.6,0.1,2.4,0.3
			c0.8,0.2,1.5,0.5,2,0.8l-0.9,1.7c-1-0.6-2.1-1-3.5-1c-0.9,0-1.6,0.2-2.1,0.5s-0.7,0.7-0.7,1.2c0,0.4,0.1,0.7,0.4,0.9
			c0.3,0.2,0.6,0.4,1,0.5s1,0.2,1.7,0.4c1,0.2,1.8,0.3,2.4,0.5c0.6,0.2,1.1,0.5,1.5,1s0.6,1.1,0.6,1.9c0,1.1-0.5,2-1.4,2.6
			c-0.9,0.6-2.2,1-3.8,1C50.6,352.3,49.7,352.1,48.8,351.9z"/>
		<path class="st45" d="M61.5,351.5c-1-0.5-1.7-1.3-2.2-2.2c-0.5-0.9-0.8-2-0.8-3.2s0.3-2.2,0.8-3.2c0.5-0.9,1.3-1.7,2.2-2.2
			c1-0.5,2-0.8,3.2-0.8c1.2,0,2.3,0.3,3.2,0.8c0.9,0.5,1.7,1.3,2.2,2.2c0.5,0.9,0.8,2,0.8,3.2s-0.3,2.2-0.8,3.2
			c-0.5,0.9-1.3,1.7-2.2,2.2c-0.9,0.5-2,0.8-3.2,0.8C63.5,352.3,62.4,352,61.5,351.5z M66.8,349.8c0.6-0.4,1.1-0.9,1.4-1.5
			c0.3-0.6,0.5-1.4,0.5-2.2s-0.2-1.6-0.5-2.2c-0.3-0.6-0.8-1.1-1.4-1.5c-0.6-0.3-1.3-0.5-2.1-0.5c-0.8,0-1.5,0.2-2.1,0.5
			c-0.6,0.3-1.1,0.8-1.5,1.5c-0.4,0.6-0.5,1.4-0.5,2.2s0.2,1.6,0.5,2.2c0.4,0.6,0.8,1.1,1.5,1.5c0.6,0.4,1.3,0.5,2.1,0.5
			C65.5,350.4,66.2,350.2,66.8,349.8z"/>
		<path class="st45" d="M76,351.5c-1-0.5-1.7-1.3-2.3-2.2c-0.5-0.9-0.8-2-0.8-3.2s0.3-2.2,0.8-3.2c0.5-0.9,1.3-1.7,2.3-2.2
			c1-0.5,2.1-0.8,3.3-0.8c1.1,0,2.1,0.2,2.9,0.7c0.9,0.4,1.5,1.1,2,1.9l-1.7,1.1c-0.4-0.6-0.8-1-1.4-1.3c-0.6-0.3-1.2-0.4-1.9-0.4
			c-0.8,0-1.5,0.2-2.1,0.5c-0.6,0.3-1.1,0.8-1.5,1.5c-0.4,0.6-0.5,1.4-0.5,2.2c0,0.8,0.2,1.6,0.5,2.2c0.4,0.6,0.8,1.1,1.5,1.5
			c0.6,0.3,1.3,0.5,2.1,0.5c0.7,0,1.3-0.1,1.9-0.4s1-0.7,1.4-1.3l1.7,1c-0.5,0.8-1.1,1.5-2,1.9c-0.9,0.4-1.8,0.7-2.9,0.7
			C78,352.3,76.9,352,76,351.5z"/>
		<path class="st45" d="M87,337.3c-0.3-0.3-0.4-0.6-0.4-1s0.1-0.7,0.4-1s0.6-0.4,1.1-0.4s0.8,0.1,1.1,0.4c0.3,0.3,0.4,0.6,0.4,1
			c0,0.4-0.1,0.8-0.4,1c-0.3,0.3-0.6,0.4-1.1,0.4S87.3,337.6,87,337.3z M87,340.1h2.2v12.1H87V340.1z"/>
		<path class="st45" d="M101.6,341.2c0.9,0.8,1.3,2,1.3,3.7v7.3h-2.1v-1.6c-0.4,0.6-0.9,1-1.6,1.3c-0.7,0.3-1.5,0.4-2.4,0.4
			c-1.4,0-2.4-0.3-3.2-1c-0.8-0.7-1.2-1.5-1.2-2.6c0-1.1,0.4-1.9,1.2-2.6c0.8-0.6,2-1,3.7-1h3.5v-0.4c0-0.9-0.3-1.7-0.8-2.2
			c-0.5-0.5-1.4-0.8-2.4-0.8c-0.7,0-1.4,0.1-2.1,0.4c-0.7,0.2-1.3,0.6-1.7,0.9l-0.9-1.6c0.6-0.5,1.4-0.9,2.2-1.1
			c0.9-0.3,1.8-0.4,2.8-0.4C99.4,340,100.7,340.4,101.6,341.2z M99.4,350c0.6-0.4,1-0.9,1.3-1.6v-1.7h-3.4c-1.9,0-2.8,0.6-2.8,1.9
			c0,0.6,0.2,1.1,0.7,1.4c0.5,0.3,1.1,0.5,2,0.5S98.8,350.4,99.4,350z"/>
		<path class="st45" d="M107,335.2h2.2v16.9H107V335.2z"/>
		<path class="st45" d="M119.5,337.3c-0.3-0.3-0.4-0.6-0.4-1s0.1-0.7,0.4-1s0.6-0.4,1.1-0.4s0.8,0.1,1.1,0.4c0.3,0.3,0.4,0.6,0.4,1
			c0,0.4-0.1,0.8-0.4,1c-0.3,0.3-0.6,0.4-1.1,0.4S119.8,337.6,119.5,337.3z M119.4,340.1h2.2v12.1h-2.2V340.1z"/>
		<path class="st45" d="M144.5,341.3c0.9,0.9,1.3,2.2,1.3,3.9v6.9h-2.2v-6.7c0-1.2-0.3-2-0.8-2.6c-0.5-0.6-1.3-0.9-2.3-0.9
			c-1.1,0-2,0.3-2.6,1c-0.7,0.7-1,1.7-1,3v6.2h-2.2v-6.7c0-1.2-0.3-2-0.8-2.6c-0.5-0.6-1.3-0.9-2.3-0.9c-1.1,0-2,0.3-2.6,1
			s-1,1.7-1,3v6.2h-2.2v-12.1h2.1v1.8c0.4-0.6,1-1.1,1.7-1.4c0.7-0.3,1.5-0.5,2.4-0.5c0.9,0,1.8,0.2,2.5,0.6
			c0.7,0.4,1.3,0.9,1.7,1.7c0.5-0.7,1.1-1.2,1.9-1.6c0.8-0.4,1.7-0.6,2.7-0.6C142.4,340,143.6,340.4,144.5,341.3z"/>
		<path class="st45" d="M159.4,340.7c0.9,0.5,1.7,1.2,2.2,2.2c0.5,0.9,0.8,2,0.8,3.2s-0.3,2.3-0.8,3.2c-0.5,0.9-1.2,1.7-2.2,2.2
			c-0.9,0.5-2,0.8-3.1,0.8c-0.9,0-1.7-0.2-2.4-0.5s-1.3-0.8-1.8-1.5v6.2h-2.2v-16.5h2.1v1.9c0.5-0.7,1.1-1.2,1.8-1.5
			c0.7-0.3,1.6-0.5,2.5-0.5C157.4,340,158.5,340.2,159.4,340.7z M158.2,349.8c0.6-0.4,1.1-0.9,1.5-1.5c0.4-0.6,0.5-1.4,0.5-2.2
			s-0.2-1.6-0.5-2.2c-0.4-0.6-0.8-1.1-1.5-1.5c-0.6-0.3-1.3-0.5-2.1-0.5c-0.8,0-1.4,0.2-2.1,0.5c-0.6,0.4-1.1,0.9-1.5,1.5
			s-0.5,1.4-0.5,2.2s0.2,1.6,0.5,2.2c0.3,0.6,0.8,1.1,1.5,1.5c0.6,0.4,1.3,0.5,2.1,0.5C156.8,350.4,157.5,350.2,158.2,349.8z"/>
		<path class="st45" d="M173.5,341.2c0.9,0.8,1.3,2,1.3,3.7v7.3h-2.1v-1.6c-0.4,0.6-0.9,1-1.6,1.3c-0.7,0.3-1.5,0.4-2.4,0.4
			c-1.4,0-2.4-0.3-3.2-1c-0.8-0.7-1.2-1.5-1.2-2.6c0-1.1,0.4-1.9,1.2-2.6c0.8-0.6,2-1,3.7-1h3.5v-0.4c0-0.9-0.3-1.7-0.8-2.2
			c-0.5-0.5-1.4-0.8-2.4-0.8c-0.7,0-1.4,0.1-2.1,0.4c-0.7,0.2-1.3,0.6-1.7,0.9l-0.9-1.6c0.6-0.5,1.4-0.9,2.2-1.1
			c0.9-0.3,1.8-0.4,2.8-0.4C171.3,340,172.6,340.4,173.5,341.2z M171.3,350c0.6-0.4,1-0.9,1.3-1.6v-1.7h-3.4c-1.9,0-2.8,0.6-2.8,1.9
			c0,0.6,0.2,1.1,0.7,1.4c0.5,0.3,1.1,0.5,2,0.5S170.7,350.4,171.3,350z"/>
		<path class="st45" d="M180.9,351.5c-1-0.5-1.7-1.3-2.3-2.2c-0.5-0.9-0.8-2-0.8-3.2s0.3-2.2,0.8-3.2c0.5-0.9,1.3-1.7,2.3-2.2
			c1-0.5,2.1-0.8,3.3-0.8c1.1,0,2.1,0.2,2.9,0.7c0.9,0.4,1.5,1.1,2,1.9l-1.7,1.1c-0.4-0.6-0.8-1-1.4-1.3c-0.6-0.3-1.2-0.4-1.9-0.4
			c-0.8,0-1.5,0.2-2.1,0.5c-0.6,0.3-1.1,0.8-1.5,1.5c-0.4,0.6-0.5,1.4-0.5,2.2c0,0.8,0.2,1.6,0.5,2.2c0.4,0.6,0.8,1.1,1.5,1.5
			c0.6,0.3,1.3,0.5,2.1,0.5c0.7,0,1.3-0.1,1.9-0.4s1-0.7,1.4-1.3l1.7,1c-0.5,0.8-1.1,1.5-2,1.9c-0.9,0.4-1.8,0.7-2.9,0.7
			C183,352.3,181.9,352,180.9,351.5z"/>
		<path class="st45" d="M198.9,351.4c-0.3,0.3-0.7,0.5-1.2,0.6c-0.5,0.1-1,0.2-1.5,0.2c-1.2,0-2.2-0.3-2.8-1s-1-1.6-1-2.8v-6.6h-2
			v-1.8h2v-2.6h2.2v2.6h3.5v1.8h-3.5v6.5c0,0.7,0.2,1.2,0.5,1.5c0.3,0.3,0.8,0.5,1.4,0.5c0.7,0,1.2-0.2,1.7-0.6L198.9,351.4z"/>
	</g>
</g>
<g>
	<path class="st45" d="M243.3,559.1h-8.5l-1.6,3.9h-4.3l8.1-18.3h4.2l8.2,18.3h-4.4L243.3,559.1z M242,555.9l-2.9-7l-2.9,7H242z"/>
	<path class="st45" d="M263.4,545.6c1.2,0.5,2.1,1.3,2.8,2.3c0.6,1,1,2.2,1,3.5c0,1.3-0.3,2.5-1,3.5c-0.6,1-1.6,1.8-2.8,2.3
		c-1.2,0.5-2.6,0.8-4.2,0.8h-3.7v5h-4.2v-18.3h7.9C260.8,544.8,262.2,545.1,263.4,545.6z M261.8,553.7c0.7-0.5,1-1.3,1-2.3
		c0-1-0.3-1.8-1-2.4s-1.6-0.8-2.9-0.8h-3.4v6.3h3.4C260.2,554.6,261.1,554.3,261.8,553.7z"/>
	<path class="st45" d="M282.2,545.6c1.2,0.5,2.1,1.3,2.8,2.3c0.6,1,1,2.2,1,3.5c0,1.3-0.3,2.5-1,3.5c-0.6,1-1.6,1.8-2.8,2.3
		c-1.2,0.5-2.6,0.8-4.2,0.8h-3.7v5h-4.2v-18.3h7.9C279.6,544.8,281,545.1,282.2,545.6z M280.6,553.7c0.7-0.5,1-1.3,1-2.3
		c0-1-0.3-1.8-1-2.4s-1.6-0.8-2.9-0.8h-3.4v6.3h3.4C279,554.6,280,554.3,280.6,553.7z"/>
	<path class="st45" d="M300.5,563L297,558h-0.2h-3.7v5.1h-4.2v-18.3h7.9c1.6,0,3,0.3,4.2,0.8c1.2,0.5,2.1,1.3,2.8,2.3
		c0.6,1,1,2.2,1,3.5s-0.3,2.5-1,3.5c-0.7,1-1.6,1.7-2.8,2.3l4.1,5.9H300.5z M299.5,549.1c-0.7-0.5-1.6-0.8-2.9-0.8h-3.4v6.4h3.4
		c1.3,0,2.2-0.3,2.9-0.8s1-1.3,1-2.3C300.5,550.4,300.1,549.6,299.5,549.1z"/>
	<path class="st45" d="M311.8,562.1c-1.5-0.8-2.7-1.9-3.6-3.4c-0.9-1.4-1.3-3-1.3-4.8c0-1.8,0.4-3.4,1.3-4.8
		c0.9-1.4,2.1-2.6,3.6-3.4c1.5-0.8,3.2-1.2,5.1-1.2s3.6,0.4,5.1,1.2c1.5,0.8,2.7,1.9,3.6,3.4c0.9,1.4,1.3,3,1.3,4.8
		c0,1.8-0.4,3.4-1.3,4.8c-0.9,1.4-2.1,2.6-3.6,3.4c-1.5,0.8-3.2,1.2-5.1,1.2S313.3,563,311.8,562.1z M319.9,559
		c0.9-0.5,1.6-1.2,2-2.1c0.5-0.9,0.7-1.9,0.7-3c0-1.1-0.2-2.1-0.7-3c-0.5-0.9-1.2-1.6-2-2.1c-0.9-0.5-1.8-0.7-2.9-0.7
		s-2.1,0.2-2.9,0.7c-0.9,0.5-1.6,1.2-2,2.1c-0.5,0.9-0.7,1.9-0.7,3c0,1.1,0.2,2.1,0.7,3c0.5,0.9,1.2,1.6,2,2.1
		c0.9,0.5,1.8,0.7,2.9,0.7S319,559.5,319.9,559z"/>
	<path class="st45" d="M347.1,544.8l-7.9,18.3H335l-7.9-18.3h4.6l5.6,13l5.6-13H347.1z"/>
	<path class="st45" d="M360,559.1h-8.5l-1.6,3.9h-4.3l8.1-18.3h4.2l8.2,18.3h-4.4L360,559.1z M358.7,555.9l-2.9-7l-2.9,7H358.7z"/>
	<path class="st45" d="M368,544.8h4.2v14.8h9.2v3.4H368V544.8z"/>
</g>
<g>
	<path class="st45" d="M189.9,747.1c-1.3-0.4-2.4-0.9-3.2-1.5l1.4-3.2c0.8,0.6,1.7,1,2.8,1.4c1.1,0.3,2.2,0.5,3.2,0.5
		c1.2,0,2.1-0.2,2.7-0.5c0.6-0.4,0.9-0.8,0.9-1.4c0-0.4-0.2-0.8-0.5-1.1c-0.3-0.3-0.8-0.5-1.3-0.7c-0.5-0.2-1.2-0.4-2.2-0.6
		c-1.4-0.3-2.5-0.7-3.4-1c-0.9-0.3-1.6-0.9-2.3-1.6s-1-1.7-1-2.9c0-1.1,0.3-2,0.9-2.9c0.6-0.9,1.4-1.5,2.6-2
		c1.2-0.5,2.6-0.8,4.2-0.8c1.2,0,2.3,0.1,3.4,0.4c1.1,0.3,2.1,0.7,2.9,1.2l-1.3,3.2c-1.7-1-3.4-1.4-5.1-1.4c-1.2,0-2.1,0.2-2.6,0.6
		c-0.6,0.4-0.8,0.9-0.8,1.5s0.3,1.1,1,1.4c0.7,0.3,1.6,0.6,3,0.9c1.4,0.3,2.5,0.7,3.4,1c0.9,0.3,1.6,0.9,2.3,1.6s1,1.7,1,2.9
		c0,1-0.3,2-0.9,2.9c-0.6,0.9-1.5,1.5-2.6,2c-1.2,0.5-2.6,0.8-4.3,0.8C192.6,747.7,191.2,747.5,189.9,747.1z"/>
	<path class="st45" d="M208.2,732.5h-5.8v-3.4h15.9v3.4h-5.8v14.8h-4.2V732.5z"/>
	<path class="st45" d="M231.7,743.5h-8.5l-1.6,3.9h-4.3l8.1-18.3h4.2l8.2,18.3h-4.4L231.7,743.5z M230.3,740.2l-2.9-7l-2.9,7H230.3z
		"/>
	<path class="st45" d="M251.3,747.4l-3.5-5.1h-0.2h-3.7v5.1h-4.2v-18.3h7.9c1.6,0,3,0.3,4.2,0.8c1.2,0.5,2.1,1.3,2.8,2.3
		c0.6,1,1,2.2,1,3.5s-0.3,2.5-1,3.5c-0.7,1-1.6,1.7-2.8,2.3l4.1,5.9H251.3z M250.2,733.4c-0.7-0.5-1.6-0.8-2.9-0.8h-3.4v6.4h3.4
		c1.3,0,2.2-0.3,2.9-0.8s1-1.3,1-2.3C251.2,734.7,250.9,733.9,250.2,733.4z"/>
	<path class="st45" d="M262.3,732.5h-5.8v-3.4h15.9v3.4h-5.8v14.8h-4.2V732.5z"/>
</g>
</svg>
