<?xml version="1.0" encoding="utf-8"?>
<!-- Generator: Adobe Illustrator 23.0.3, SVG Export Plug-In . SVG Version: 6.00 Build 0)  -->
<svg version="1.1" id="Layer_1" xmlns="http://www.w3.org/2000/svg" xmlns:xlink="http://www.w3.org/1999/xlink" x="0px" y="0px"
	 viewBox="0 0 320 1002.2" style="enable-background:new 0 0 320 1002.2;" xml:space="preserve">
<style type="text/css">
	
		.st0{fill:none;stroke:#FF7DB9;stroke-width:1.4759;stroke-linecap:round;stroke-linejoin:round;stroke-miterlimit:10;stroke-dasharray:2.9517,5.4115;}
	.st1{fill:#FFFFFF;}
	.st2{fill:none;stroke:#FFCB57;stroke-width:1.6599;stroke-miterlimit:10;}
	.st3{fill:#FFCB57;}
	.st4{opacity:0.9;fill:url(#SVGID_1_);}
	.st5{opacity:0.9;fill:url(#SVGID_2_);}
	.st6{opacity:0.9;fill:url(#SVGID_3_);}
	.st7{opacity:0.9;fill:url(#SVGID_4_);}
	.st8{opacity:0.9;fill:url(#SVGID_5_);}
	.st9{fill:#FFF9DB;}
	.st10{fill:#FFD7E9;}
	.st11{opacity:0.9;fill:url(#SVGID_6_);}
	.st12{opacity:0.9;fill:url(#SVGID_7_);}
	.st13{fill:#D8F2FF;}
	.st14{opacity:0.9;fill:url(#SVGID_8_);}
	.st15{fill:none;stroke:#FF7DB9;stroke-width:2.2533;stroke-linecap:round;stroke-linejoin:round;stroke-miterlimit:10;}
	.st16{fill:#FF7DB9;}
	.st17{fill:none;stroke:#FFCB57;stroke-width:2.2533;stroke-linecap:round;stroke-linejoin:round;stroke-miterlimit:10;}
	.st18{fill:#FFCB00;}
	.st19{fill:none;stroke:#FFCB57;stroke-width:2.2533;stroke-linejoin:round;stroke-miterlimit:10;}
	.st20{fill:none;stroke:#49C4FF;stroke-width:1.7704;stroke-linecap:round;stroke-linejoin:round;stroke-miterlimit:10;}
	.st21{fill:#49C4FF;}
	.st22{fill:none;stroke:#FF7DB9;stroke-width:2.2533;stroke-linejoin:round;stroke-miterlimit:10;}
	.st23{fill:none;stroke:#49C4FF;stroke-width:1.7335;stroke-linecap:round;stroke-linejoin:round;stroke-miterlimit:10;}
	.st24{fill:#F6F0F8;}
	.st25{fill:#333343;}
	.st26{fill:#3E3D51;}
	.st27{fill:none;stroke:#FFCB57;stroke-width:1.4173;stroke-miterlimit:10;}
	.st28{opacity:0.9;fill:url(#SVGID_9_);}
	.st29{fill:none;stroke:#FFCB57;stroke-width:1.6611;stroke-linecap:round;stroke-linejoin:round;stroke-miterlimit:10;}
	.st30{fill:none;stroke:#FFCB57;stroke-width:3.6085;stroke-miterlimit:10;}
	.st31{opacity:0.9;fill:url(#SVGID_10_);}
	.st32{opacity:0.9;fill:url(#SVGID_11_);}
	.st33{opacity:0.9;fill:url(#SVGID_12_);}
	.st34{opacity:0.9;fill:url(#SVGID_13_);}
	.st35{fill:#32A9FE;}
	.st36{opacity:0.9;fill:url(#SVGID_14_);}
	.st37{opacity:0.9;fill:url(#SVGID_15_);}
	.st38{opacity:0.9;fill:url(#SVGID_16_);}
	.st39{opacity:0.9;fill:url(#SVGID_17_);}
	.st40{fill:none;stroke:#FF7DB9;stroke-width:4.8984;stroke-linecap:round;stroke-linejoin:round;stroke-miterlimit:10;}
	.st41{fill:none;stroke:#FFCB57;stroke-width:4.8984;stroke-linecap:round;stroke-linejoin:round;stroke-miterlimit:10;}
	.st42{fill:none;stroke:#FFCB57;stroke-width:4.8984;stroke-linejoin:round;stroke-miterlimit:10;}
	.st43{fill:none;stroke:#49C4FF;stroke-width:3.8488;stroke-linecap:round;stroke-linejoin:round;stroke-miterlimit:10;}
	.st44{fill:none;stroke:#FF7DB9;stroke-width:4.8984;stroke-linejoin:round;stroke-miterlimit:10;}
	.st45{fill:none;stroke:#49C4FF;stroke-width:3.7686;stroke-linecap:round;stroke-linejoin:round;stroke-miterlimit:10;}
	.st46{fill:none;stroke:#FFCB57;stroke-width:3.0812;stroke-miterlimit:10;}
	.st47{opacity:0.9;fill:url(#SVGID_18_);}
	.st48{fill:none;stroke:#FFCB57;stroke-width:3.6111;stroke-linecap:round;stroke-linejoin:round;stroke-miterlimit:10;}
	
		.st49{fill:none;stroke:#FF7DB9;stroke-width:2.126;stroke-linecap:round;stroke-linejoin:round;stroke-miterlimit:10;stroke-dasharray:2.9517,5.4115;}
	.st50{opacity:0.9;fill:url(#SVGID_19_);}
	.st51{opacity:0.9;fill:url(#SVGID_20_);}
	.st52{opacity:0.9;fill:url(#SVGID_21_);}
	.st53{opacity:0.9;fill:url(#SVGID_22_);}
	.st54{opacity:0.9;fill:url(#SVGID_23_);}
	.st55{opacity:0.9;fill:url(#SVGID_24_);}
	.st56{opacity:0.9;fill:url(#SVGID_25_);}
	.st57{opacity:0.9;fill:url(#SVGID_26_);}
	.st58{opacity:0.9;fill:url(#SVGID_27_);}
	.st59{opacity:0.9;fill:url(#SVGID_28_);}
	.st60{opacity:0.9;fill:url(#SVGID_29_);}
	.st61{opacity:0.9;fill:url(#SVGID_30_);}
	.st62{opacity:0.9;fill:url(#SVGID_31_);}
	.st63{opacity:0.9;fill:url(#SVGID_32_);}
	.st64{opacity:0.9;fill:url(#SVGID_33_);}
	.st65{opacity:0.9;fill:url(#SVGID_34_);}
	.st66{opacity:0.9;fill:url(#SVGID_35_);}
	.st67{opacity:0.9;fill:url(#SVGID_36_);}
	.st68{opacity:0.9;fill:url(#SVGID_37_);}
	.st69{font-family:'Montserrat-Medium';}
	.st70{font-size:10.4711px;}
	.st71{font-family:'Montserrat-Bold';}
	.st72{font-size:12px;}
	.st73{opacity:0.9;fill:url(#SVGID_38_);}
	.st74{opacity:0.9;fill:url(#SVGID_39_);}
	.st75{opacity:0.9;fill:url(#SVGID_40_);}
</style>
<path class="st0" d="M106.1,155.3c50-37.6,106.7-46.2,142.2-22c2.2,1.5,31,21.7,29.9,48.9c-1.7,40.1-72.4,84.5-108.1,61.6
	c-6.5-4.2-30.9-16.4-39.8-20.9c-20.3-10.4-50.9-3.6-60.6,10.2c-19.9,28.2,14.2,102.3,53.8,108.1c35.4,5.1,51-48,105.1-47.9
	c18.7,0,47.2,6.5,54.2,25c4.1,10.7,0.4,23.7-5.9,32.6c-14.5,20.5-42.1,18-114.4,24.2c-78,6.6-91.7,13.4-102.6,22.9
	c-23.6,20.8-29.5,51.3-32.2,65.7c-4.2,21.8-5.2,56.1,6.4,60.2c5.7,2,12.6-4,23.7-14.8c40.7-39.5,41.4-50.9,58.1-62.3
	c36.4-24.9,87.1-6.4,96.6-3c15.6,5.7,47.1,17.1,53.8,43.6c4.5,17.9-4.3,34.2-10.6,45.3c-9.4,16.7-29.6,43.9-80.5,67.4
	c-66.6,30.7-99.1,15-131.4,49.6c-5.6,6-26,27.8-20.3,47.5c8.4,29.3,70.5,38.1,114.4,32.2c61.2-8.2,123.9-49.7,119.1-75.9
	c-3.3-17.7-38.3-33.3-55.5-22.5c-9.2,5.8-15.8,20.6-11.4,32.2c10,26.6,69,11.8,87.3,43.6c6.7,11.7,7,27.9,1.7,40.3
	c-14,32.4-63.1,27.6-175,63.6c-25.7,8.2-52.2,17.8-66.5,42.8c-3.1,5.4-14.5,27-6.4,46.2c7.3,17.2,19.9,26.4,22.1,27.7
	c20.6,12.2,42,4.4,44.9,3.3"/>
<g>
	<ellipse class="st1" cx="77.4" cy="297.6" rx="28.6" ry="45.8"/>
</g>
<g>
	<g>
		<g>
			<path class="st35" d="M209.6,410.9v8.1h-1.9v-6.6h-3.6v6.6h-1.9v-8.1H209.6z"/>
			<path class="st35" d="M212.6,418.7c-0.5-0.3-0.9-0.7-1.2-1.1c-0.3-0.5-0.4-1-0.4-1.6c0-0.6,0.1-1.2,0.4-1.6s0.7-0.9,1.2-1.1
				c0.5-0.3,1.1-0.4,1.8-0.4c0.7,0,1.2,0.1,1.8,0.4c0.5,0.3,0.9,0.7,1.2,1.1s0.4,1,0.4,1.6c0,0.6-0.1,1.2-0.4,1.6
				c-0.3,0.5-0.7,0.9-1.2,1.1c-0.5,0.3-1.1,0.4-1.8,0.4S213.1,419,212.6,418.7z M215.5,417.2c0.3-0.3,0.4-0.7,0.4-1.3
				c0-0.5-0.1-0.9-0.4-1.3c-0.3-0.3-0.7-0.5-1.1-0.5s-0.8,0.2-1.1,0.5c-0.3,0.3-0.4,0.7-0.4,1.3c0,0.5,0.2,0.9,0.4,1.3
				c0.3,0.3,0.7,0.5,1.1,0.5C214.8,417.6,215.2,417.5,215.5,417.2z"/>
			<path class="st35" d="M225.3,412.8v5.2c0,1.1-0.3,2-0.9,2.5c-0.6,0.6-1.5,0.8-2.6,0.8c-0.6,0-1.2-0.1-1.7-0.2
				c-0.5-0.1-1-0.4-1.3-0.6l0.7-1.3c0.3,0.2,0.6,0.4,1,0.5c0.4,0.1,0.8,0.2,1.2,0.2c0.6,0,1.1-0.1,1.4-0.4c0.3-0.3,0.4-0.7,0.4-1.3
				v-0.3c-0.5,0.5-1.1,0.8-2,0.8c-0.6,0-1.1-0.1-1.6-0.4c-0.5-0.2-0.8-0.6-1.1-1.1c-0.3-0.5-0.4-1-0.4-1.6s0.1-1.1,0.4-1.6
				s0.7-0.8,1.1-1.1c0.5-0.2,1-0.4,1.6-0.4c0.9,0,1.6,0.3,2.1,0.9v-0.8L225.3,412.8L225.3,412.8z M223.1,416.8
				c0.3-0.3,0.5-0.6,0.5-1.1c0-0.5-0.2-0.8-0.5-1.1c-0.3-0.3-0.7-0.4-1.2-0.4s-0.9,0.1-1.2,0.4c-0.3,0.3-0.5,0.6-0.5,1.1
				c0,0.5,0.2,0.8,0.5,1.1c0.3,0.3,0.7,0.4,1.2,0.4C222.4,417.2,222.8,417.1,223.1,416.8z"/>
			<path class="st35" d="M229.8,416.7h-0.9v2.4h-1.8v-8.6h1.8v4.8h1l1.7-2.4h1.9l-2.2,3l2.3,3.2h-2.1L229.8,416.7z"/>
			<path class="st35" d="M239.7,413.1c0.5,0.3,0.8,0.6,1.1,1.1c0.3,0.5,0.4,1,0.4,1.7c0,0.6-0.1,1.2-0.4,1.7
				c-0.3,0.5-0.6,0.9-1.1,1.1c-0.5,0.3-1,0.4-1.6,0.4c-0.8,0-1.4-0.2-1.9-0.7v2.9h-1.8v-8.4h1.7v0.7c0.4-0.5,1.1-0.8,1.9-0.8
				C238.7,412.7,239.2,412.8,239.7,413.1z M238.9,417.2c0.3-0.3,0.4-0.7,0.4-1.3c0-0.5-0.1-0.9-0.4-1.3c-0.3-0.3-0.7-0.5-1.1-0.5
				s-0.8,0.2-1.1,0.5c-0.3,0.3-0.4,0.7-0.4,1.3c0,0.5,0.1,0.9,0.4,1.3c0.3,0.3,0.7,0.5,1.1,0.5C238.2,417.6,238.6,417.5,238.9,417.2
				z"/>
			<path class="st35" d="M248.4,416.4h-4.7c0.1,0.4,0.3,0.7,0.6,0.9s0.7,0.3,1.2,0.3c0.3,0,0.6,0,0.9-0.1c0.2-0.1,0.5-0.2,0.7-0.5
				l1,1c-0.6,0.7-1.4,1-2.6,1c-0.7,0-1.3-0.1-1.9-0.4c-0.5-0.3-1-0.7-1.2-1.1c-0.3-0.5-0.4-1-0.4-1.6c0-0.6,0.1-1.2,0.4-1.6
				s0.7-0.9,1.2-1.1c0.5-0.3,1.1-0.4,1.7-0.4c0.6,0,1.2,0.1,1.6,0.4c0.5,0.3,0.9,0.6,1.2,1.1s0.4,1.1,0.4,1.7
				C248.5,416,248.5,416.1,248.4,416.4z M244.2,414.4c-0.3,0.2-0.4,0.5-0.5,0.9h3.1c-0.1-0.4-0.2-0.7-0.5-0.9s-0.6-0.4-1-0.4
				C244.9,414.1,244.5,414.2,244.2,414.4z"/>
			<path class="st35" d="M255.5,413.4c0.5,0.5,0.7,1.1,0.7,2.1v3.6h-1.8v-3.3c0-0.5-0.1-0.9-0.3-1.1c-0.2-0.2-0.5-0.4-0.9-0.4
				c-0.5,0-0.8,0.1-1.1,0.4c-0.3,0.3-0.4,0.7-0.4,1.3v3.1h-1.8v-6.2h1.7v0.7c0.2-0.3,0.5-0.5,0.9-0.6c0.4-0.1,0.7-0.2,1.2-0.2
				C254.4,412.7,255,412.9,255.5,413.4z"/>
			<path class="st35" d="M263.9,412.8v6.2h-1.7v-0.7c-0.2,0.3-0.5,0.5-0.8,0.6c-0.3,0.1-0.7,0.2-1.1,0.2c-0.8,0-1.5-0.2-1.9-0.7
				c-0.5-0.5-0.7-1.2-0.7-2.1v-3.5h1.8v3.2c0,1,0.4,1.5,1.3,1.5c0.4,0,0.8-0.1,1-0.4c0.3-0.3,0.4-0.7,0.4-1.3v-3.1H263.9
				L263.9,412.8z"/>
			<path class="st35" d="M265.5,418.8c-0.2-0.2-0.3-0.5-0.3-0.8c0-0.3,0.1-0.6,0.3-0.8c0.2-0.2,0.5-0.3,0.8-0.3s0.6,0.1,0.8,0.3
				c0.2,0.2,0.3,0.5,0.3,0.8c0,0.3-0.1,0.6-0.3,0.8c-0.2,0.2-0.5,0.3-0.8,0.3S265.7,419,265.5,418.8z"/>
			<path class="st35" d="M273.5,413.6c0.4,0.2,0.8,0.6,1,1s0.4,0.9,0.4,1.5c0,0.6-0.1,1.1-0.4,1.6c-0.3,0.5-0.7,0.8-1.2,1.1
				s-1.1,0.4-1.8,0.4c-1.1,0-1.9-0.3-2.6-1c-0.6-0.7-0.9-1.7-0.9-3.1c0-1.2,0.3-2.2,0.8-3s1.4-1.2,2.5-1.5l3-0.6l0.2,1.5l-2.6,0.5
				c-0.7,0.1-1.2,0.4-1.6,0.7c-0.3,0.3-0.5,0.8-0.6,1.4c0.3-0.3,0.6-0.5,1-0.7c0.4-0.2,0.8-0.2,1.2-0.2
				C272.6,413.2,273.1,413.4,273.5,413.6z M272.7,417.3c0.3-0.3,0.4-0.7,0.4-1.1c0-0.5-0.1-0.8-0.4-1.1c-0.3-0.3-0.7-0.4-1.1-0.4
				c-0.5,0-0.8,0.1-1.1,0.4c-0.3,0.3-0.4,0.6-0.4,1.1c0,0.5,0.1,0.9,0.4,1.1c0.3,0.3,0.7,0.4,1.1,0.4
				C272,417.8,272.4,417.6,272.7,417.3z"/>
			<path class="st35" d="M276.5,418.6c-0.6-0.3-0.8-0.8-0.8-1.5c0-0.4,0.1-0.8,0.4-1c0.2-0.2,0.5-0.4,0.8-0.5
				c0.3-0.1,0.7-0.2,1.2-0.3c0.5-0.1,0.8-0.2,1-0.2c0.2-0.1,0.3-0.2,0.3-0.4c0-0.2-0.1-0.4-0.3-0.4c-0.2-0.1-0.5-0.2-0.8-0.2
				c-0.3,0-0.7,0-1,0.1c-0.4,0.1-0.7,0.2-0.9,0.3l-0.5-1.2c0.4-0.2,0.7-0.3,1.2-0.4c0.4-0.1,0.8-0.2,1.3-0.2c0.8,0,1.5,0.2,2.1,0.5
				s0.8,0.9,0.8,1.5c0,0.4-0.1,0.8-0.4,1c-0.2,0.2-0.5,0.4-0.8,0.5c-0.3,0.1-0.7,0.2-1.3,0.3c-0.5,0.1-0.8,0.2-1,0.2
				c-0.2,0.1-0.3,0.2-0.3,0.4c0,0.2,0.1,0.4,0.3,0.4c0.2,0.1,0.5,0.2,0.8,0.2c0.4,0,0.8-0.1,1.2-0.2c0.4-0.1,0.8-0.2,1-0.4l0.5,1.2
				c-0.4,0.2-0.8,0.4-1.3,0.5c-0.5,0.1-1,0.2-1.4,0.2C277.7,419.1,277,418.9,276.5,418.6z"/>
		</g>
	</g>
	<g>
		<ellipse class="st1" cx="74.7" cy="297.4" rx="49.8" ry="50.5"/>
		<g>
			<path class="st35" d="M24.7,322.4c0.3,0.4,0.5,0.9,0.5,1.4c0,0.8-0.3,1.4-0.9,1.9c-0.6,0.4-1.4,0.7-2.6,0.7h-4.3v-9.1h4.1
				c1,0,1.8,0.2,2.4,0.6c0.6,0.4,0.9,1,0.9,1.7c0,0.5-0.1,0.9-0.3,1.2c-0.2,0.3-0.6,0.6-1,0.8C23.9,321.8,24.3,322,24.7,322.4z
				 M19,321.1h2.3c0.5,0,1-0.1,1.3-0.3c0.3-0.2,0.4-0.5,0.4-1c0-0.4-0.1-0.8-0.4-1c-0.3-0.2-0.7-0.3-1.3-0.3H19V321.1z M23.4,323.7
				c0-0.9-0.6-1.3-1.8-1.3H19v2.7h2.6C22.8,325.1,23.4,324.6,23.4,323.7z"/>
			<path class="st35" d="M33.1,324.3h-4.6l-0.9,2.1h-1.7l4.1-9.1h1.7l4.1,9.1H34L33.1,324.3z M32.5,322.9l-1.7-4l-1.7,4H32.5z"/>
			<path class="st35" d="M45.1,317.2v9.1h-1.7v-7.7h-3.6l-0.1,2.3c0,1.3-0.1,2.3-0.3,3.1c-0.2,0.8-0.4,1.4-0.8,1.8
				c-0.4,0.4-0.9,0.6-1.5,0.6c-0.2,0-0.5,0-0.9-0.1l0.1-1.5c0.1,0,0.2,0.1,0.4,0.1c0.5,0,0.9-0.3,1.1-0.9c0.2-0.6,0.4-1.6,0.4-3
				l0.1-3.8H45.1z"/>
			<path class="st35" d="M47.6,317.2h1.7v6.5l4.9-6.5h1.6v9.1h-1.7v-6.5l-4.9,6.5h-1.6V317.2z"/>
			<path class="st35" d="M67.3,324.9v3.4h-1.6v-1.9h-7v1.9h-1.6l0-3.4h0.4c0.6,0,1-0.5,1.2-1.3c0.2-0.8,0.4-2,0.4-3.5l0.1-2.9H66
				v7.7H67.3z M60.4,323.3c-0.1,0.8-0.4,1.4-0.7,1.7h4.6v-6.3h-3.6l-0.1,1.6C60.7,321.5,60.6,322.5,60.4,323.3z"/>
			<path class="st35" d="M68.9,317.2h1.7v6.5l4.9-6.5h1.6v9.1h-1.7v-6.5l-4.9,6.5h-1.6V317.2z"/>
			<path class="st35" d="M85.5,317.6c0.6,0.3,1,0.6,1.4,1.1c0.3,0.5,0.5,1.1,0.5,1.7c0,0.7-0.2,1.2-0.5,1.7
				c-0.3,0.5-0.8,0.9-1.4,1.1c-0.6,0.3-1.3,0.4-2.1,0.4h-2.1v2.6h-1.7v-9.1h3.8C84.2,317.2,84.9,317.4,85.5,317.6z M85,321.8
				c0.4-0.3,0.6-0.8,0.6-1.3s-0.2-1-0.6-1.3c-0.4-0.3-0.9-0.5-1.7-0.5h-2v3.6h2C84.1,322.3,84.7,322.1,85,321.8z"/>
			<path class="st35" d="M94.5,324.3H90l-0.9,2.1h-1.7l4.1-9.1h1.7l4.1,9.1h-1.8L94.5,324.3z M94,322.9l-1.7-4l-1.7,4H94z"/>
			<path class="st35" d="M106.7,317.2v9.1H105v-3.9h-4.7v3.9h-1.7v-9.1h1.7v3.8h4.7v-3.8H106.7z"/>
			<path class="st35" d="M116.2,325v1.4h-6.9v-9.1h6.7v1.4h-5v2.4h4.4v1.4H111v2.5H116.2z"/>
			<path class="st35" d="M18.2,338.8c-0.5-0.3-1-0.7-1.3-1.2c-0.3-0.5-0.5-1.1-0.5-1.7c0-0.6,0.2-1.2,0.5-1.7
				c0.3-0.5,0.7-0.9,1.3-1.2c0.5-0.3,1.1-0.4,1.8-0.4c0.7,0,1.3,0.1,1.8,0.4c0.5,0.3,1,0.7,1.3,1.2c0.3,0.5,0.5,1.1,0.5,1.7
				c0,0.6-0.2,1.2-0.5,1.7c-0.3,0.5-0.7,0.9-1.3,1.2c-0.5,0.3-1.1,0.4-1.8,0.4C19.3,339.2,18.7,339,18.2,338.8z M21.1,337.8
				c0.3-0.2,0.6-0.5,0.8-0.8c0.2-0.4,0.3-0.7,0.3-1.2c0-0.4-0.1-0.8-0.3-1.2s-0.5-0.6-0.8-0.8c-0.3-0.2-0.7-0.3-1.2-0.3
				c-0.4,0-0.8,0.1-1.2,0.3c-0.3,0.2-0.6,0.5-0.8,0.8c-0.2,0.4-0.3,0.7-0.3,1.2c0,0.4,0.1,0.8,0.3,1.2c0.2,0.4,0.5,0.6,0.8,0.8
				c0.3,0.2,0.7,0.3,1.2,0.3C20.4,338.1,20.8,338,21.1,337.8z"/>
			<path class="st35" d="M29.5,333.6h-2.2v5.5h-1.2v-5.5H24v-1h5.5V333.6z"/>
		</g>
		<g>
			<g>
				<g>
					<path class="st3" d="M77,281.5H65.4c-0.5,0-0.9-0.4-0.9-0.9s0.4-0.9,0.9-0.9H77c0.5,0,0.9,0.4,0.9,0.9S77.5,281.5,77,281.5z"/>
				</g>
			</g>
			<g>
				<g>
					<path class="st3" d="M77,296.6h-4.2c-0.5,0-0.9-0.4-0.9-0.9c0-0.5,0.4-0.9,0.9-0.9H77c0.5,0,0.9,0.4,0.9,0.9
						C77.9,296.2,77.5,296.6,77,296.6z"/>
				</g>
			</g>
			<g>
				<g>
					<path class="st3" d="M76.9,285.3H67c-0.5,0-0.9-0.4-0.9-0.9c0-0.5,0.4-0.9,0.9-0.9h9.9c0.5,0,0.9,0.4,0.9,0.9
						C77.8,284.9,77.4,285.3,76.9,285.3z"/>
				</g>
			</g>
			<g>
				<g>
					<path class="st3" d="M77,289.1H65.4c-0.5,0-0.9-0.4-0.9-0.9c0-0.5,0.4-0.9,0.9-0.9H77c0.5,0,0.9,0.4,0.9,0.9
						C77.9,288.7,77.5,289.1,77,289.1z"/>
				</g>
			</g>
			<path class="st3" d="M82,274.1c0-0.3-0.1-0.5-0.3-0.7l-10.2-10.2c0,0,0,0,0,0c-0.1-0.1-0.1-0.1-0.2-0.1c0,0,0,0-0.1,0
				c-0.1,0-0.1-0.1-0.2-0.1c0,0,0,0,0,0c-0.1,0-0.1,0-0.2,0H50.9c-0.5,0-0.9,0.4-0.9,0.9v8.7c0.3,0,0.7,0,1,0c0.2,0,0.5,0,0.7,0
				v-7.9H70v9.4c0,0.5,0.4,0.9,0.9,0.9h9.4v27.4H51.8v-7.9c-0.2,0-0.5,0-0.7,0c-0.3,0-0.7,0-1,0v8.7c0,0.5,0.4,0.9,0.9,0.9h30.2
				c0.5,0,0.9-0.4,0.9-0.9v-29C82,274.2,82,274.2,82,274.1z M71.7,273.3V266l7.3,7.3H71.7z"/>
			<g>
				<path class="st3" d="M49.6,288.4c-0.2,0-0.4-0.1-0.6-0.2l-3.8-3.4c-0.4-0.3-0.4-0.9-0.1-1.2c0.3-0.4,0.9-0.4,1.2-0.1l3.2,2.8
					l6.1-7.2c0.3-0.4,0.9-0.4,1.2-0.1c0.4,0.3,0.4,0.9,0.1,1.2l-6.7,7.9C50.1,288.2,49.9,288.4,49.6,288.4
					C49.7,288.4,49.6,288.4,49.6,288.4z"/>
			</g>
			<g>
				<path class="st3" d="M51,295.4c-0.3,0-0.7,0-1.1,0c-6.2-0.5-10.8-5.6-10.8-11.8c0-6.2,4.6-11.3,10.8-11.8c0.7-0.1,1.3-0.1,1.9,0
					c6.2,0.4,11,5.6,11,11.8c0,6.2-4.9,11.4-11.1,11.8C51.6,295.4,51.3,295.4,51,295.4z M51,273.5c-0.3,0-0.6,0-0.9,0
					c-5.3,0.5-9.2,4.8-9.2,10.1c0,5.3,4,9.6,9.2,10.1c0.6,0.1,1.1,0.1,1.6,0c5.3-0.4,9.5-4.8,9.5-10.1c0-5.3-4.1-9.7-9.4-10.1
					C51.5,273.5,51.2,273.5,51,273.5z"/>
			</g>
		</g>
		
			<radialGradient id="SVGID_1_" cx="-1793.5508" cy="4814.8501" r="59.465" gradientTransform="matrix(0.5538 0 0 4.348000e-02 1059.4963 98.8402)" gradientUnits="userSpaceOnUse">
			<stop  offset="0.1034" style="stop-color:#E0E3E2"/>
			<stop  offset="0.2677" style="stop-color:#E9EBEA"/>
			<stop  offset="0.684" style="stop-color:#F9FAFA"/>
			<stop  offset="1" style="stop-color:#FFFFFF"/>
		</radialGradient>
		<ellipse class="st4" cx="66.2" cy="308.2" rx="46.5" ry="2.2"/>
	</g>
</g>
<ellipse class="st1" cx="261" cy="330.5" rx="40.4" ry="38.6"/>
<g>
	<path class="st1" d="M281.1,204.8c15.3,59.8-13.4,49.3-39.1,39.1c-20.1-8-39.1-17.5-39.1-39.1s17.5-39.1,39.1-39.1
		S275.7,183.9,281.1,204.8z"/>
	<g>
		<path class="st35" d="M216.4,221.4c-0.7-0.4-1.3-1-1.7-1.7c-0.4-0.7-0.6-1.5-0.6-2.4c0-0.9,0.2-1.7,0.6-2.4c0.4-0.7,1-1.3,1.8-1.7
			c0.7-0.4,1.6-0.6,2.5-0.6c0.7,0,1.4,0.1,2.1,0.4c0.6,0.3,1.1,0.6,1.6,1.1l-1.1,1c-0.7-0.7-1.5-1.1-2.4-1.1c-0.6,0-1.2,0.1-1.7,0.4
			c-0.5,0.3-0.9,0.7-1.2,1.1c-0.3,0.5-0.4,1-0.4,1.7c0,0.6,0.1,1.2,0.4,1.7c0.3,0.5,0.7,0.9,1.2,1.1s1.1,0.4,1.7,0.4
			c1,0,1.8-0.4,2.4-1.1l1.1,1c-0.4,0.5-1,0.9-1.6,1.1c-0.6,0.3-1.3,0.4-2.1,0.4C218,222,217.2,221.8,216.4,221.4z"/>
		<path class="st35" d="M232.4,216.5c0.6,0.5,0.9,1.2,0.9,2.2c0,1-0.3,1.8-1,2.3c-0.6,0.5-1.6,0.8-2.7,0.8h-3.9v-7.7h-2.7v-1.4h4.3
			v3.1h2.5C230.9,215.8,231.8,216,232.4,216.5z M231,220.1c0.4-0.3,0.5-0.7,0.5-1.3c0-1.1-0.7-1.7-2.1-1.7h-2.2v3.4h2.2
			C230.1,220.5,230.6,220.4,231,220.1z"/>
		<path class="st35" d="M240.8,217.9c0.3,0.4,0.5,0.8,0.5,1.4c0,0.5-0.2,1-0.5,1.4c-0.4,0.4-0.8,0.7-1.4,0.9c-0.6,0.2-1.2,0.3-2,0.3
			c-0.6,0-1.2-0.1-1.8-0.3c-0.6-0.2-1.2-0.4-1.7-0.8l0.5-1.2c0.4,0.3,0.8,0.5,1.3,0.6c0.5,0.1,1,0.2,1.4,0.2c0.7,0,1.3-0.1,1.7-0.4
			c0.5-0.3,0.7-0.6,0.7-1.1c0-0.4-0.2-0.7-0.5-0.9c-0.3-0.2-0.8-0.3-1.4-0.3h-2.1v-1.3h2c0.5,0,0.9-0.1,1.2-0.3
			c0.3-0.2,0.4-0.5,0.4-0.8c0-0.4-0.2-0.8-0.6-1c-0.4-0.2-0.9-0.4-1.5-0.4c-0.4,0-0.8,0.1-1.3,0.2c-0.4,0.1-0.8,0.3-1.2,0.5
			l-0.5-1.4c0.5-0.3,1-0.4,1.5-0.6c0.5-0.1,1.1-0.2,1.6-0.2c0.7,0,1.3,0.1,1.9,0.3c0.6,0.2,1,0.5,1.4,0.9c0.3,0.4,0.5,0.8,0.5,1.4
			c0,0.5-0.1,0.8-0.4,1.2c-0.2,0.3-0.6,0.6-1,0.8C240.1,217.2,240.5,217.5,240.8,217.9z"/>
		<path class="st35" d="M252.2,220.4v3.4h-1.6v-1.9h-7v1.9h-1.6l0-3.4h0.4c0.6,0,1-0.5,1.2-1.3c0.2-0.8,0.4-2,0.4-3.5l0.1-2.9h6.7
			v7.7H252.2z M245.3,218.7c-0.1,0.8-0.4,1.4-0.7,1.7h4.6v-6.3h-3.6l-0.1,1.6C245.6,216.9,245.5,217.9,245.3,218.7z"/>
		<path class="st35" d="M260,219.7h-4.6l-0.9,2.1h-1.7l4.1-9.1h1.7l4.1,9.1h-1.8L260,219.7z M259.4,218.4l-1.7-4l-1.7,4H259.4z"/>
		<path class="st35" d="M264.1,212.7h1.7v6.5l4.9-6.5h1.6v9.1h-1.7v-6.5l-4.9,6.5h-1.6V212.7z M266.3,211.6
			c-0.4-0.3-0.6-0.8-0.6-1.4h1.2c0,0.3,0.1,0.6,0.3,0.7c0.2,0.2,0.5,0.3,0.9,0.3c0.4,0,0.7-0.1,0.9-0.3c0.2-0.2,0.3-0.4,0.3-0.7h1.2
			c0,0.6-0.2,1.1-0.6,1.4c-0.4,0.3-1,0.5-1.8,0.5C267.3,212.1,266.7,211.9,266.3,211.6z"/>
		<path class="st35" d="M216.8,230.3h-1.2v2.8h-1.2v-6.5h1.2v2.7h1.3l1.9-2.7h1.3l-2.2,3.2l2.3,3.4h-1.4L216.8,230.3z"/>
		<path class="st35" d="M225.1,231.5h-3.3l-0.6,1.5H220l2.9-6.5h1.2l3,6.5h-1.3L225.1,231.5z M224.7,230.6l-1.2-2.9l-1.2,2.9H224.7z
			"/>
		<path class="st35" d="M234.1,233.1l0-4.3l-2.2,3.6h-0.5l-2.2-3.5v4.3h-1.2v-6.5h1l2.6,4.3l2.6-4.3h1l0,6.5H234.1z"/>
		<path class="st35" d="M242.9,226.5v6.5h-1.2v-5.5h-3.4v5.5h-1.2v-6.5H242.9z"/>
		<path class="st35" d="M249.1,231.5h-3.3l-0.6,1.5h-1.3l2.9-6.5h1.2l3,6.5h-1.3L249.1,231.5z M248.7,230.6l-1.2-2.9l-1.2,2.9H248.7
			z"/>
		<path class="st35" d="M257.8,226.5v6.5h-1.2v-2.8h-3.4v2.8H252v-6.5h1.2v2.7h3.4v-2.7H257.8z"/>
		<path class="st35" d="M259.7,226.5h1.2v4.7l3.5-4.7h1.1v6.5h-1.2v-4.6l-3.5,4.6h-1.1V226.5z"/>
		<path class="st35" d="M272.3,226.5v6.5h-1.2v-1.8h-1.6h-0.1l-1.2,1.8h-1.3l1.4-2c-0.5-0.2-0.8-0.4-1.1-0.8
			c-0.2-0.4-0.4-0.8-0.4-1.3c0-0.5,0.1-0.9,0.3-1.3c0.2-0.4,0.5-0.6,1-0.8c0.4-0.2,0.9-0.3,1.5-0.3H272.3z M268.5,227.9
			c-0.3,0.2-0.4,0.6-0.4,1c0,0.4,0.1,0.8,0.4,1c0.3,0.2,0.6,0.4,1.1,0.4h1.5v-2.7h-1.5C269.2,227.5,268.8,227.7,268.5,227.9z"/>
	</g>
	<g>
		<g>
			<g>
				<path class="st3" d="M239.6,164L239.6,164L239.6,164 M239.8,167c1,1.7,2,4.4,1.7,7.5c-0.3,3.1-2.1,5.5-4.2,6.9
					C239.3,177.3,240,173,239.8,167 M238.5,163.3c-0.3,0-0.5,0.3-0.5,0.9c0.7,9-0.2,14.2-4.3,19.9c4.5,0,9-4.2,9.5-9.5
					C243.7,168.4,239.8,163.3,238.5,163.3L238.5,163.3z"/>
			</g>
			<g>
				<g>
					<path class="st3" d="M249.1,164L249.1,164L249.1,164 M249.2,167.1c0.5,1,1,2.2,1.3,3.6c0.6,2.8,0.9,8.3-3.8,14.2
						c-0.5,0.6-0.5,1.4,0,2c0.3,0.4,0.8,0.7,1.3,0.7c0.2,0,0.4,0,0.6-0.1c0.2-0.1,4.6-1.9,8-7.1c-0.1,0.8-0.3,1.8-0.6,2.8
						c-1,3.2-3.4,7.7-9.1,10.7c-0.7,0.4-1,1.2-0.8,1.9c0.2,0.7,0.9,1.2,1.6,1.2c0.1,0,0.1,0,0.2,0c0.1,0,2.7-0.3,5.6-1.5
						c-2,2.1-5,4.4-9,5.2c-1.2,0.2-2.4,0.4-3.6,0.4c-5.8,0-10.7-2.6-13.1-6.9c-1.2-2.1-1.4-4.4-1.6-6.6c-0.3-2.9-0.7-6.1-3.3-8.4
						c0.6-0.4,1.2-0.5,1.7-0.5c0.8,0,1.7,0.3,2.3,0.9c1.1,1.1,1.4,2.2,1.7,3.3c0.4,1.3,0.8,3,2.6,4c0.9,0.5,2,0.8,3.2,0.8
						c3.3,0,7.2-2,9.7-5.1C247.1,178.6,249,173.1,249.2,167.1 M258.2,177.4L258.2,177.4L258.2,177.4 M247.9,163.3
						c-0.3,0-0.5,0.3-0.4,0.9c0.6,7.4-1.7,13.5-4.9,17.3c-2.1,2.5-5.6,4.5-8.5,4.5c-0.9,0-1.7-0.2-2.4-0.6c-2.4-1.3-1.1-4.3-3.9-7
						c-0.9-0.9-2.2-1.4-3.5-1.4c-1.5,0-3.1,0.7-4.2,2.4c5.9,3.3,2.8,9.7,6.1,15.6c3,5.5,9,7.8,14.6,7.8c1.4,0,2.7-0.1,3.9-0.4
						c9-1.8,14.1-10.8,12.4-10.8c-0.2,0-0.6,0.2-1.1,0.6c-3.7,2.8-8.3,3.3-8.3,3.3c12-6.3,11.5-19.3,9.7-19.3
						c-0.2,0-0.5,0.3-0.8,0.8c-3.1,6.8-8.6,9-8.6,9c4.5-5.6,5.1-11.3,4.1-15.5C251.2,166.2,248.9,163.3,247.9,163.3L247.9,163.3z"/>
				</g>
			</g>
		</g>
	</g>
	
		<radialGradient id="SVGID_2_" cx="-1477.8744" cy="4582.8438" r="59.465" gradientTransform="matrix(0.5538 0 0 4.348000e-02 1059.4963 8.0514)" gradientUnits="userSpaceOnUse">
		<stop  offset="0.1034" style="stop-color:#E0E3E2"/>
		<stop  offset="0.2677" style="stop-color:#E9EBEA"/>
		<stop  offset="0.684" style="stop-color:#F9FAFA"/>
		<stop  offset="1" style="stop-color:#FFFFFF"/>
	</radialGradient>
	<ellipse class="st5" cx="241" cy="207.3" rx="46.5" ry="2.2"/>
</g>
<g>
	<ellipse class="st1" cx="257.6" cy="573.4" rx="41.2" ry="50.7"/>
	<g>
		<g>
			<path class="st35" d="M212.2,592c-0.5-0.3-1-0.7-1.3-1.2c-0.3-0.5-0.5-1.1-0.5-1.7s0.2-1.2,0.5-1.7c0.3-0.5,0.7-0.9,1.3-1.2
				c0.5-0.3,1.1-0.4,1.8-0.4c0.5,0,1,0.1,1.5,0.3c0.4,0.2,0.8,0.5,1.1,0.8l-0.8,0.7c-0.5-0.5-1.1-0.8-1.7-0.8
				c-0.4,0-0.9,0.1-1.2,0.3c-0.4,0.2-0.6,0.5-0.8,0.8c-0.2,0.3-0.3,0.7-0.3,1.2s0.1,0.8,0.3,1.2c0.2,0.3,0.5,0.6,0.8,0.8
				c0.4,0.2,0.8,0.3,1.2,0.3c0.7,0,1.3-0.3,1.7-0.8l0.8,0.7c-0.3,0.4-0.7,0.6-1.1,0.8c-0.4,0.2-0.9,0.3-1.5,0.3
				C213.3,592.5,212.7,592.3,212.2,592z"/>
			<path class="st35" d="M224.2,588.6c0.4,0.4,0.6,0.9,0.6,1.6c0,0.7-0.2,1.3-0.7,1.7c-0.5,0.4-1.1,0.6-2,0.6h-2.8v-5.5h-1.9v-1h3.1
				v2.2h1.8C223.2,588,223.8,588.2,224.2,588.6z M223.2,591.1c0.3-0.2,0.4-0.5,0.4-1c0-0.8-0.5-1.2-1.5-1.2h-1.6v2.5h1.6
				C222.6,591.4,223,591.3,223.2,591.1z"/>
			<path class="st35" d="M226.6,585.8h5.1v1h-3.9v1.6h1.9c0.8,0,1.4,0.2,1.8,0.5c0.4,0.3,0.6,0.8,0.6,1.4c0,0.6-0.2,1.1-0.7,1.5
				s-1.1,0.5-1.9,0.5h-2.9V585.8z M229.5,591.4c0.5,0,0.8-0.1,1.1-0.3c0.2-0.2,0.4-0.4,0.4-0.8c0-0.7-0.5-1-1.4-1h-1.7v2.1H229.5z"
				/>
			<path class="st35" d="M234.1,585.8h1.2v4.6l3.5-4.6h1.1v6.5h-1.2v-4.6l-3.5,4.6h-1.1V585.8z"/>
			<path class="st35" d="M246.5,586.1c0.4,0.2,0.7,0.5,1,0.8c0.2,0.3,0.3,0.8,0.3,1.2c0,0.5-0.1,0.9-0.3,1.2c-0.2,0.4-0.5,0.6-1,0.8
				c-0.4,0.2-0.9,0.3-1.5,0.3h-1.5v1.9h-1.2v-6.5h2.7C245.6,585.8,246.1,585.9,246.5,586.1z M246.1,589.1c0.3-0.2,0.4-0.5,0.4-1
				c0-0.4-0.1-0.7-0.4-1c-0.3-0.2-0.7-0.3-1.2-0.3h-1.4v2.6h1.4C245.5,589.5,245.9,589.3,246.1,589.1z"/>
			<path class="st35" d="M255.3,585.8v6.5h-1.2v-2.8h-3.4v2.8h-1.2v-6.5h1.2v2.7h3.4v-2.7H255.3z"/>
			<path class="st35" d="M262.6,591.4v1h-4.9v-6.5h4.8v1h-3.6v1.7h3.2v1h-3.2v1.8H262.6z"/>
			<path class="st35" d="M273.5,585.8v6.5h-1.2v-2.8h-3.4v2.8h-1.2v-6.5h1.2v2.7h3.4v-2.7H273.5z"/>
			<path class="st35" d="M280.2,590.9H277l-0.6,1.5h-1.3l2.9-6.5h1.2l3,6.5h-1.3L280.2,590.9z M279.8,589.9l-1.2-2.9l-1.2,2.9H279.8
				z"/>
			<path class="st35" d="M213.1,604.6c-0.7-0.4-1.3-1-1.7-1.7c-0.4-0.7-0.6-1.5-0.6-2.4c0-0.9,0.2-1.7,0.6-2.4
				c0.4-0.7,1-1.3,1.8-1.7c0.7-0.4,1.6-0.6,2.5-0.6c0.7,0,1.4,0.1,2.1,0.4c0.6,0.3,1.1,0.6,1.6,1.1l-1.1,1c-0.7-0.7-1.5-1.1-2.4-1.1
				c-0.6,0-1.2,0.1-1.7,0.4c-0.5,0.3-0.9,0.7-1.2,1.1c-0.3,0.5-0.4,1-0.4,1.7c0,0.6,0.1,1.2,0.4,1.7s0.7,0.9,1.2,1.1
				c0.5,0.3,1.1,0.4,1.7,0.4c1,0,1.8-0.4,2.4-1.1l1.1,1c-0.4,0.5-1,0.9-1.6,1.1c-0.6,0.3-1.3,0.4-2.1,0.4
				C214.6,605.2,213.8,605,213.1,604.6z"/>
			<path class="st35" d="M226.6,596.3c0.6,0.3,1,0.6,1.4,1.1c0.3,0.5,0.5,1.1,0.5,1.7c0,0.7-0.2,1.2-0.5,1.7
				c-0.3,0.5-0.8,0.9-1.4,1.1c-0.6,0.3-1.3,0.4-2.1,0.4h-2.1v2.6h-1.7V596h3.8C225.3,596,226,596.1,226.6,596.3z M226.1,600.6
				c0.4-0.3,0.6-0.8,0.6-1.3c0-0.6-0.2-1-0.6-1.3c-0.4-0.3-0.9-0.5-1.7-0.5h-2v3.6h2C225.2,601,225.8,600.9,226.1,600.6z"/>
			<path class="st35" d="M236.9,603.7v1.4H230V596h6.7v1.4h-5v2.4h4.4v1.4h-4.4v2.5H236.9z"/>
			<path class="st35" d="M247.8,603.7v3.4h-1.6v-1.9h-7v1.9h-1.6l0-3.4h0.4c0.6,0,1-0.5,1.2-1.3c0.2-0.8,0.4-2,0.4-3.5l0.1-2.9h6.7
				v7.7H247.8z M240.9,602c-0.1,0.8-0.4,1.4-0.7,1.7h4.6v-6.3h-3.6l-0.1,1.6C241.2,600.2,241.1,601.2,240.9,602z"/>
			<path class="st35" d="M251.1,604.6c-0.7-0.4-1.3-1-1.7-1.7c-0.4-0.7-0.6-1.5-0.6-2.4c0-0.9,0.2-1.7,0.6-2.4
				c0.4-0.7,1-1.3,1.8-1.7c0.7-0.4,1.6-0.6,2.5-0.6c0.7,0,1.4,0.1,2.1,0.4c0.6,0.3,1.1,0.6,1.6,1.1l-1.1,1c-0.7-0.7-1.5-1.1-2.4-1.1
				c-0.6,0-1.2,0.1-1.7,0.4c-0.5,0.3-0.9,0.7-1.2,1.1c-0.3,0.5-0.4,1-0.4,1.7c0,0.6,0.1,1.2,0.4,1.7s0.7,0.9,1.2,1.1
				c0.5,0.3,1.1,0.4,1.7,0.4c1,0,1.8-0.4,2.4-1.1l1.1,1c-0.4,0.5-1,0.9-1.6,1.1c-0.6,0.3-1.3,0.4-2.1,0.4
				C252.7,605.2,251.9,605,251.1,604.6z"/>
			<path class="st35" d="M265.4,597.4h-3v7.7h-1.7v-7.7h-3V596h7.7V597.4z"/>
			<path class="st35" d="M274.2,601.1c0.3,0.4,0.5,0.9,0.5,1.4c0,0.8-0.3,1.4-0.9,1.9c-0.6,0.4-1.4,0.7-2.6,0.7h-4.3V596h4.1
				c1,0,1.8,0.2,2.4,0.6c0.6,0.4,0.9,1,0.9,1.7c0,0.5-0.1,0.9-0.3,1.2c-0.2,0.3-0.6,0.6-1,0.8C273.4,600.5,273.9,600.8,274.2,601.1z
				 M268.5,599.9h2.3c0.5,0,1-0.1,1.3-0.3c0.3-0.2,0.4-0.5,0.4-1c0-0.4-0.1-0.8-0.4-1c-0.3-0.2-0.7-0.3-1.3-0.3h-2.3V599.9z
				 M272.9,602.4c0-0.9-0.6-1.3-1.8-1.3h-2.6v2.7h2.6C272.3,603.8,272.9,603.3,272.9,602.4z"/>
			<path class="st35" d="M282.6,603h-4.6l-0.9,2.1h-1.7l4.1-9.1h1.7l4.1,9.1h-1.8L282.6,603z M282.1,601.7l-1.7-4l-1.7,4H282.1z"/>
			<path class="st35" d="M212.2,616c-0.5-0.3-1-0.7-1.3-1.2c-0.3-0.5-0.5-1.1-0.5-1.7s0.2-1.2,0.5-1.7c0.3-0.5,0.7-0.9,1.3-1.2
				c0.5-0.3,1.1-0.4,1.8-0.4c0.7,0,1.3,0.1,1.8,0.4c0.5,0.3,1,0.7,1.3,1.2c0.3,0.5,0.5,1.1,0.5,1.7s-0.2,1.2-0.5,1.7
				c-0.3,0.5-0.7,0.9-1.3,1.2c-0.5,0.3-1.1,0.4-1.8,0.4C213.4,616.4,212.8,616.3,212.2,616z M215.2,615.1c0.3-0.2,0.6-0.5,0.8-0.8
				c0.2-0.4,0.3-0.7,0.3-1.2s-0.1-0.8-0.3-1.2c-0.2-0.4-0.5-0.6-0.8-0.8c-0.3-0.2-0.7-0.3-1.2-0.3c-0.4,0-0.8,0.1-1.2,0.3
				c-0.3,0.2-0.6,0.5-0.8,0.8c-0.2,0.4-0.3,0.7-0.3,1.2s0.1,0.8,0.3,1.2c0.2,0.4,0.5,0.6,0.8,0.8c0.3,0.2,0.7,0.3,1.2,0.3
				C214.5,615.4,214.8,615.3,215.2,615.1z"/>
			<path class="st35" d="M223.7,610.8h-2.2v5.5h-1.2v-5.5h-2.2v-1h5.5V610.8z"/>
			<path class="st35" d="M234.2,615.3v2.4h-1.1v-1.4h-5v1.4H227l0-2.4h0.3c0.4,0,0.7-0.3,0.9-0.9c0.2-0.6,0.3-1.4,0.3-2.5l0.1-2.1
				h4.8v5.5H234.2z M229.3,614.1c-0.1,0.6-0.3,1-0.5,1.2h3.3v-4.5h-2.6l0,1.2C229.5,612.8,229.4,613.5,229.3,614.1z"/>
			<path class="st35" d="M240,614.8h-3.3l-0.6,1.5h-1.3l2.9-6.5h1.2l3,6.5h-1.3L240,614.8z M239.6,613.9l-1.2-2.9l-1.2,2.9H239.6z"
				/>
			<path class="st35" d="M247.2,610.1c0.4,0.2,0.7,0.5,1,0.8c0.2,0.3,0.3,0.8,0.3,1.2c0,0.5-0.1,0.9-0.3,1.2c-0.2,0.4-0.5,0.6-1,0.8
				c-0.4,0.2-0.9,0.3-1.5,0.3h-1.5v1.9h-1.2v-6.5h2.7C246.3,609.8,246.8,609.9,247.2,610.1z M246.9,613.1c0.3-0.2,0.4-0.5,0.4-1
				c0-0.4-0.1-0.7-0.4-1c-0.3-0.2-0.7-0.3-1.2-0.3h-1.4v2.6h1.4C246.2,613.4,246.6,613.3,246.9,613.1z"/>
			<path class="st35" d="M249.9,609.8h1.2v4.6l3.5-4.6h1.1v6.5h-1.2v-4.6l-3.5,4.6h-1.1V609.8z"/>
			<path class="st35" d="M262.5,610.8h-2.2v5.5h-1.2v-5.5H257v-1h5.5V610.8z"/>
			<path class="st35" d="M268.7,615.3v1h-4.9v-6.5h4.8v1H265v1.7h3.2v1H265v1.8H268.7z"/>
			<path class="st35" d="M275.8,609.8v6.5h-1.2v-5.5H272l-0.1,1.6c0,0.9-0.1,1.7-0.2,2.2c-0.1,0.6-0.3,1-0.6,1.3
				c-0.3,0.3-0.6,0.4-1.1,0.4c-0.2,0-0.4,0-0.7-0.1l0.1-1.1c0.1,0,0.2,0,0.3,0c0.4,0,0.7-0.2,0.8-0.7c0.2-0.5,0.3-1.2,0.3-2.1
				l0.1-2.7H275.8z"/>
			<path class="st35" d="M277.8,609.8h1.2v4.6l3.5-4.6h1.1v6.5h-1.2v-4.6l-3.5,4.6h-1.1V609.8z"/>
		</g>
	</g>
	<g>
		<path class="st3" d="M246.4,557.2c2.2-1.5,3.7-4,3.7-6.8c0-4.5-3.7-8.2-8.2-8.2s-8.2,3.7-8.2,8.2c0,2.8,1.5,5.3,3.7,6.8
			c-5,1.8-8.6,6.6-8.6,12.3h2.2c0-6,4.9-10.9,10.9-10.9s10.9,4.9,10.9,10.9h2.2C255,563.9,251.4,559.1,246.4,557.2z M241.9,556.4
			c-3.3,0-6-2.7-6-6s2.7-6,6-6c3.3,0,6,2.7,6,6S245.2,556.4,241.9,556.4z"/>
		<path class="st3" d="M257.3,551.8c2.2-1.5,3.7-4,3.7-6.8c0-4.5-3.7-8.2-8.2-8.2c-2.2,0-4.2,0.9-5.6,2.3c-0.5,0.5-1,1.1-1.4,1.8
			c0.7,0.3,1.3,0.6,1.9,1c0.4-0.6,0.9-1.2,1.5-1.6c1-0.8,2.3-1.2,3.6-1.2c3.3,0,6,2.7,6,6c0,2.7-1.9,5.1-4.4,5.8
			c-0.5,0.1-1.1,0.2-1.6,0.2c-0.2,0-0.4,0-0.6,0c0,0.8-0.2,1.5-0.4,2.3c0.3,0,0.6-0.1,0.9-0.1c0.4,0,0.9,0,1.3,0.1
			c5.4,0.6,9.6,5.2,9.6,10.8h2.2C265.9,558.4,262.3,553.6,257.3,551.8z"/>
		<path class="st3" d="M231,553.1c0.3,0,0.6,0,0.9,0.1c-0.2-0.7-0.3-1.5-0.4-2.3c-0.2,0-0.4,0-0.6,0c-0.6,0-1.1-0.1-1.6-0.2
			c-2.5-0.7-4.4-3-4.4-5.8c0-3.3,2.7-6,6-6c1.4,0,2.6,0.5,3.6,1.2c0.6,0.4,1.1,1,1.5,1.6c0.6-0.4,1.2-0.7,1.9-1
			c-0.4-0.7-0.9-1.2-1.4-1.8c-1.5-1.4-3.5-2.3-5.6-2.3c-4.5,0-8.2,3.7-8.2,8.2c0,2.8,1.5,5.3,3.7,6.8c-5,1.8-8.6,6.6-8.6,12.3h2.2
			c0-5.6,4.2-10.2,9.6-10.8C230.1,553.2,230.5,553.1,231,553.1z"/>
		<path class="st3" d="M264.9,544.2c2.2-1.5,3.7-4,3.7-6.8c0-4.5-3.7-8.2-8.2-8.2c-2.2,0-4.2,0.9-5.6,2.3c-0.5,0.5-1,1.1-1.4,1.8
			c0.7,0.3,1.3,0.6,1.9,1c0.4-0.6,0.9-1.2,1.5-1.6c1-0.8,2.3-1.2,3.6-1.2c3.3,0,6,2.7,6,6c0,2.4-1.4,4.5-3.5,5.4
			c0.1,0.5,0.1,1,0.1,1.6c0,0.5-0.1,1-0.1,1.5c4.8,1.1,8.4,5.4,8.4,10.6h2.2C273.5,550.8,269.9,546,264.9,544.2z"/>
		<path class="st3" d="M220.7,544.4c0-0.5,0.1-1.1,0.1-1.6c-2.1-0.9-3.5-3-3.5-5.4c0-3.3,2.7-6,6-6c1.4,0,2.6,0.5,3.6,1.2
			c0.6,0.4,1.1,1,1.5,1.6c0.6-0.4,1.2-0.7,1.9-1c-0.4-0.7-0.9-1.2-1.4-1.8c-1.5-1.4-3.5-2.3-5.6-2.3c-4.5,0-8.2,3.7-8.2,8.2
			c0,2.8,1.5,5.3,3.7,6.8c-5,1.8-8.6,6.6-8.6,12.3h2.2c0-5.1,3.6-9.5,8.4-10.6C220.7,545.3,220.7,544.9,220.7,544.4z"/>
		<path class="st3" d="M241.9,531.3c2.9,0,5.3,2.1,5.9,4.9c1.2-0.7,2.1-0.9,2.1-0.9c-0.9-3.5-4.1-6.2-7.9-6.2s-7,2.6-7.9,6.2
			c0,0,0.9,0.2,2.1,0.9C236.5,533.4,239,531.3,241.9,531.3z"/>
	</g>
	
		<radialGradient id="SVGID_3_" cx="-878.7174" cy="2970.1108" r="59.465" gradientTransform="matrix(0.6388 0 0 6.044964e-02 805.2287 397.0947)" gradientUnits="userSpaceOnUse">
		<stop  offset="0.1034" style="stop-color:#E0E3E2"/>
		<stop  offset="0.2677" style="stop-color:#E9EBEA"/>
		<stop  offset="0.684" style="stop-color:#F9FAFA"/>
		<stop  offset="1" style="stop-color:#FFFFFF"/>
	</radialGradient>
	<ellipse class="st6" cx="243.9" cy="576.6" rx="53.6" ry="3"/>
</g>
<g>
	<g>
		<path class="st35" d="M22.3,156.9h1.2v4.8l3.6-4.8h1.2v6.7h-1.2v-4.8l-3.6,4.8h-1.2V156.9z"/>
		<path class="st35" d="M35.1,163.6v-3.4l-1.7,2.9h-0.5l-1.7-2.9v3.4h-1.1v-5.1h1.3l1.8,3.2l1.9-3.2h1.1l0,5.1H35.1z"/>
		<path class="st35" d="M41.5,158.9c0.4,0.4,0.6,0.9,0.6,1.6v3h-1.1V163c-0.1,0.2-0.4,0.4-0.6,0.5c-0.3,0.1-0.6,0.2-1,0.2
			c-0.4,0-0.7-0.1-1-0.2c-0.3-0.1-0.5-0.3-0.7-0.5c-0.2-0.2-0.2-0.5-0.2-0.8c0-0.5,0.2-0.8,0.5-1.1c0.3-0.3,0.9-0.4,1.6-0.4h1.3
			v-0.1c0-0.4-0.1-0.6-0.3-0.8c-0.2-0.2-0.5-0.3-1-0.3c-0.3,0-0.6,0-0.8,0.1c-0.3,0.1-0.5,0.2-0.7,0.4l-0.5-0.9
			c0.3-0.2,0.6-0.4,1-0.5c0.4-0.1,0.8-0.2,1.2-0.2C40.5,158.4,41.1,158.6,41.5,158.9z M40.4,162.6c0.2-0.1,0.4-0.3,0.5-0.6v-0.6
			h-1.2c-0.7,0-1,0.2-1,0.7c0,0.2,0.1,0.4,0.3,0.5c0.2,0.1,0.4,0.2,0.7,0.2C39.9,162.8,40.1,162.7,40.4,162.6z"/>
		<path class="st35" d="M51.1,158.5v5.1h-7.6v-5.1h1.2v4.1h2v-4.1h1.2v4.1h2v-4.1H51.1z"/>
		<path class="st35" d="M55.9,155h2v5.7l4.8-5.7h1.8v8.6h-2v-5.7l-4.7,5.7h-1.9V155z"/>
		<path class="st35" d="M76.4,161.9v3.6h-1.9v-1.9h-6.6v1.9H66v-3.6h0.4c0.5,0,0.9-0.4,1.1-1.1c0.2-0.7,0.3-1.6,0.4-2.9l0.1-3h7.1
			v6.9H76.4z M69.5,160.5c-0.1,0.6-0.3,1.1-0.6,1.4h4.2v-5.2h-3.3l0,1.4C69.7,159.1,69.7,159.9,69.5,160.5z"/>
		<path class="st35" d="M86.3,159.9h-6.8c0.1,0.6,0.4,1.1,0.9,1.5c0.5,0.4,1.1,0.6,1.9,0.6c0.9,0,1.7-0.3,2.3-0.9l1.1,1.2
			c-0.4,0.5-0.9,0.8-1.5,1c-0.6,0.2-1.3,0.4-2,0.4c-0.9,0-1.8-0.2-2.5-0.6c-0.7-0.4-1.3-0.9-1.7-1.6c-0.4-0.7-0.6-1.4-0.6-2.3
			c0-0.8,0.2-1.6,0.6-2.3c0.4-0.7,0.9-1.2,1.6-1.6c0.7-0.4,1.4-0.6,2.3-0.6c0.8,0,1.6,0.2,2.3,0.6c0.7,0.4,1.2,0.9,1.5,1.6
			c0.4,0.7,0.6,1.4,0.6,2.3C86.3,159.5,86.3,159.7,86.3,159.9z M80.3,157.1c-0.4,0.4-0.7,0.9-0.8,1.5h4.9c-0.1-0.6-0.3-1.1-0.8-1.5
			c-0.4-0.4-1-0.6-1.6-0.6C81.3,156.5,80.7,156.7,80.3,157.1z"/>
		<path class="st35" d="M95.5,155v8.6h-1.8V161h-2.3l-1.8,2.6h-2.2l2-2.9c-0.6-0.2-1.1-0.5-1.4-1c-0.3-0.4-0.5-1-0.5-1.7
			c0-1,0.3-1.8,1-2.3c0.7-0.5,1.7-0.8,2.9-0.8H95.5z M89.7,158.1c0,1,0.6,1.5,1.9,1.5h2.1v-2.9h-2.1
			C90.3,156.7,89.7,157.2,89.7,158.1z"/>
	</g>
	<g>
		<path class="st3" d="M61.6,131.8h-9c-1,0-1.9,0.8-1.9,1.9c0,1,0.8,1.9,1.9,1.9h9c1,0,1.9-0.9,1.9-1.9
			C63.5,132.7,62.6,131.8,61.6,131.8z M62.2,133.7c0,0.3-0.3,0.6-0.6,0.6h-9c-0.3,0-0.6-0.3-0.6-0.6c0-0.3,0.3-0.6,0.6-0.6h9
			C61.9,133.1,62.2,133.4,62.2,133.7z"/>
		<path class="st3" d="M51.4,136.5c0,1.7,1.2,3.2,2.9,3.5c0.4,1.2,1.5,2.1,2.8,2.1c1.3,0,2.4-0.8,2.8-2.1c1.7-0.3,2.9-1.8,2.9-3.5
			v-0.6H51.4V136.5z M55.1,138.8l-0.3,0c-1-0.1-1.8-0.7-2.1-1.6h8.7c-0.3,0.9-1.1,1.6-2.1,1.6l-0.3,0L55.1,138.8z M58.5,140
			c-0.3,0.4-0.8,0.7-1.4,0.7c-0.6,0-1.1-0.3-1.4-0.7H58.5z"/>
		<path class="st3" d="M57.1,101c-7,0-12.7,5.7-12.7,12.7c0,2.9,0.9,5.6,2.7,7.9c1.4,1.7,2.7,3.6,3.8,5.5v4.5h12.4v-4.4
			c1.2-2,2.6-4.1,3.9-5.6c1.8-2.3,2.7-5,2.7-7.9C69.8,106.7,64.1,101,57.1,101z M55.5,119.8l0.9,3.3l1.5-3.6l0.7,2.1l1.6-0.7
			l-2.1,9.6h-2l-2.1-9.6L55.5,119.8z M62.1,126.7l-0.1,0.2v3.5h-2.6l2.7-12.7l-1.2-0.3l-0.5,2.1l-1.3,0.6l-1.3-3.6l-1.3,3.2
			l-0.4-1.6l-2.4,1.6l-0.5-2.3l-1.3,0.3l2.8,12.7h-2.6v-3.6l-0.1-0.2c-1.2-2-2.6-4-4-5.8c-1.6-2-2.5-4.5-2.5-7.1
			c0-6.3,5.1-11.5,11.5-11.5c6.3,0,11.5,5.1,11.5,11.5c0,2.6-0.8,5-2.5,7.1h0C64.8,122.5,63.3,124.7,62.1,126.7z"/>
		<path class="st3" d="M57.6,98.9c0.3,0,0.6-0.3,0.6-0.6v-5.5c0-0.3-0.3-0.6-0.6-0.6c-0.3,0-0.6,0.3-0.6,0.6v5.5
			C57,98.7,57.2,98.9,57.6,98.9z"/>
		<path class="st3" d="M65.8,100.9c0.1,0.1,0.2,0.1,0.3,0.1c0.2,0,0.4-0.1,0.5-0.3l2.9-4.7c0.2-0.3,0.1-0.6-0.2-0.8
			c-0.1-0.1-0.3-0.1-0.4-0.1c-0.2,0-0.3,0.1-0.4,0.3l-2.9,4.7c-0.1,0.1-0.1,0.3-0.1,0.4C65.5,100.7,65.6,100.8,65.8,100.9z"/>
		<path class="st3" d="M71.3,107.7c0.1,0,0.2,0,0.3-0.1l4.9-2.6c0.3-0.1,0.4-0.5,0.2-0.8c-0.1-0.3-0.5-0.4-0.8-0.2l-4.9,2.6
			c-0.3,0.1-0.4,0.5-0.2,0.8C70.9,107.6,71.1,107.7,71.3,107.7z"/>
		<path class="st3" d="M78.9,114.6c-0.1-0.1-0.2-0.2-0.4-0.2l-5.5-0.4c-0.3,0-0.6,0.2-0.6,0.5c0,0.3,0.2,0.6,0.5,0.6l5.5,0.4l0,0
			c0.3,0,0.6-0.2,0.6-0.5C79.1,114.9,79,114.7,78.9,114.6z"/>
		<path class="st3" d="M75.3,125.7l-4.5-3.2c-0.1-0.1-0.3-0.1-0.4-0.1c-0.2,0-0.3,0.1-0.4,0.2c-0.2,0.3-0.1,0.6,0.1,0.8l4.5,3.2
			c0.1,0.1,0.2,0.1,0.3,0.1c0.2,0,0.4-0.1,0.5-0.2c0.1-0.1,0.1-0.3,0.1-0.4C75.5,125.9,75.4,125.8,75.3,125.7z"/>
		<path class="st3" d="M47.8,100.7c0.1,0.2,0.3,0.3,0.5,0.3c0.1,0,0.2,0,0.3-0.1c0.3-0.2,0.4-0.5,0.2-0.8l-2.9-4.7
			c-0.1-0.1-0.2-0.2-0.4-0.3c-0.2,0-0.3,0-0.4,0.1c-0.3,0.2-0.4,0.5-0.2,0.8L47.8,100.7z"/>
		<path class="st3" d="M37.8,105.1l4.9,2.6c0.1,0,0.2,0.1,0.3,0.1c0.2,0,0.4-0.1,0.5-0.3c0.1-0.3,0-0.6-0.2-0.8l-4.9-2.6
			c-0.3-0.1-0.6,0-0.8,0.2C37.4,104.6,37.5,104.9,37.8,105.1z"/>
		<path class="st3" d="M42,114.6c0-0.3-0.3-0.6-0.6-0.5l-5.5,0.4c-0.2,0-0.3,0.1-0.4,0.2c-0.1,0.1-0.2,0.3-0.1,0.4
			c0,0.3,0.3,0.5,0.6,0.5l5.6-0.4C41.7,115.2,42,114.9,42,114.6z"/>
		<path class="st3" d="M44,122.4c-0.2,0-0.3,0-0.4,0.1l-4.5,3.2c-0.3,0.2-0.3,0.5-0.1,0.8c0.1,0.2,0.3,0.2,0.5,0.2
			c0.1,0,0.2,0,0.3-0.1l4.5-3.2c0.3-0.2,0.3-0.5,0.1-0.8C44.3,122.5,44.2,122.5,44,122.4z"/>
	</g>
	<g>
		<path class="st35" d="M27.5,171.5c0.2,0.3,0.3,0.6,0.3,1c0,0.6-0.2,1-0.6,1.3c-0.4,0.3-1,0.5-1.8,0.5h-3.1v-6.5h2.9
			c0.7,0,1.3,0.1,1.7,0.4c0.4,0.3,0.6,0.7,0.6,1.2c0,0.3-0.1,0.6-0.2,0.9c-0.2,0.2-0.4,0.4-0.7,0.6C27,171.1,27.3,171.2,27.5,171.5z
			 M23.5,170.6h1.6c0.4,0,0.7-0.1,0.9-0.2c0.2-0.2,0.3-0.4,0.3-0.7c0-0.3-0.1-0.5-0.3-0.7c-0.2-0.2-0.5-0.2-0.9-0.2h-1.6V170.6z
			 M26.6,172.4c0-0.6-0.4-1-1.3-1h-1.9v1.9h1.9C26.2,173.4,26.6,173.1,26.6,172.4z"/>
		<path class="st35" d="M37.6,167.8v6.5h-1.2v-5.5H33v5.5h-1.2v-6.5H37.6z"/>
		<path class="st35" d="M40.7,174c-0.5-0.3-1-0.7-1.3-1.2c-0.3-0.5-0.5-1.1-0.5-1.7s0.2-1.2,0.5-1.7c0.3-0.5,0.7-0.9,1.3-1.2
			c0.5-0.3,1.1-0.4,1.8-0.4c0.7,0,1.3,0.1,1.8,0.4c0.5,0.3,1,0.7,1.3,1.2c0.3,0.5,0.5,1.1,0.5,1.7c0,0.6-0.2,1.2-0.5,1.7
			c-0.3,0.5-0.7,0.9-1.3,1.2c-0.5,0.3-1.1,0.4-1.8,0.4C41.8,174.4,41.2,174.3,40.7,174z M43.7,173.1c0.3-0.2,0.6-0.5,0.8-0.8
			c0.2-0.4,0.3-0.7,0.3-1.2c0-0.4-0.1-0.8-0.3-1.2c-0.2-0.4-0.5-0.6-0.8-0.8c-0.3-0.2-0.7-0.3-1.2-0.3c-0.4,0-0.8,0.1-1.2,0.3
			c-0.3,0.2-0.6,0.5-0.8,0.8c-0.2,0.4-0.3,0.7-0.3,1.2c0,0.4,0.1,0.8,0.3,1.2c0.2,0.4,0.5,0.6,0.8,0.8c0.3,0.2,0.7,0.3,1.2,0.3
			C42.9,173.4,43.3,173.3,43.7,173.1z"/>
		<path class="st35" d="M52.8,167.8v6.5h-1.2v-5.5H49l-0.1,1.6c0,0.9-0.1,1.7-0.2,2.2c-0.1,0.6-0.3,1-0.6,1.3
			c-0.3,0.3-0.6,0.4-1.1,0.4c-0.2,0-0.4,0-0.7-0.1l0.1-1.1c0.1,0,0.2,0,0.3,0c0.4,0,0.7-0.2,0.8-0.7c0.2-0.5,0.3-1.2,0.3-2.1
			l0.1-2.7H52.8z"/>
		<path class="st35" d="M59,171.5c0.2,0.3,0.3,0.6,0.3,1c0,0.4-0.1,0.7-0.4,1c-0.3,0.3-0.6,0.5-1,0.7c-0.4,0.2-0.9,0.2-1.4,0.2
			c-0.4,0-0.9-0.1-1.3-0.2c-0.4-0.1-0.8-0.3-1.2-0.5l0.4-0.9c0.3,0.2,0.6,0.3,1,0.4c0.3,0.1,0.7,0.2,1,0.2c0.5,0,0.9-0.1,1.2-0.3
			c0.3-0.2,0.5-0.5,0.5-0.8c0-0.3-0.1-0.5-0.4-0.7c-0.2-0.1-0.6-0.2-1-0.2h-1.5v-1h1.4c0.4,0,0.6-0.1,0.9-0.2
			c0.2-0.1,0.3-0.4,0.3-0.6c0-0.3-0.1-0.5-0.4-0.7c-0.3-0.2-0.6-0.3-1.1-0.3c-0.3,0-0.6,0-0.9,0.1c-0.3,0.1-0.6,0.2-0.9,0.4l-0.4-1
			c0.3-0.2,0.7-0.3,1.1-0.4c0.4-0.1,0.8-0.1,1.1-0.1c0.5,0,0.9,0.1,1.3,0.2s0.7,0.4,1,0.6c0.2,0.3,0.4,0.6,0.4,1
			c0,0.3-0.1,0.6-0.3,0.9c-0.2,0.2-0.4,0.4-0.7,0.6C58.4,171.1,58.8,171.3,59,171.5z"/>
		<path class="st35" d="M65,172.8h-3.3l-0.6,1.5h-1.3l2.9-6.5H64l3,6.5h-1.3L65,172.8z M64.6,171.9l-1.2-2.9l-1.2,2.9H64.6z"/>
		<path class="st35" d="M76.4,167.8v6.5h-1.2v-2.8h-3.4v2.8h-1.2v-6.5h1.2v2.7h3.4v-2.7H76.4z"/>
		<path class="st35" d="M82.5,172.8h-3.3l-0.6,1.5h-1.3l2.9-6.5h1.2l3,6.5h-1.3L82.5,172.8z M82.1,171.9l-1.2-2.9l-1.2,2.9H82.1z"/>
		<path class="st35" d="M23.5,185.7c-0.5-0.3-1-0.7-1.3-1.2c-0.3-0.5-0.5-1.1-0.5-1.7c0-0.6,0.2-1.2,0.5-1.7
			c0.3-0.5,0.7-0.9,1.3-1.2c0.5-0.3,1.1-0.4,1.8-0.4c0.7,0,1.3,0.1,1.8,0.4c0.5,0.3,1,0.7,1.3,1.2c0.3,0.5,0.5,1.1,0.5,1.7
			s-0.2,1.2-0.5,1.7c-0.3,0.5-0.7,0.9-1.3,1.2c-0.5,0.3-1.1,0.4-1.8,0.4C24.6,186.2,24,186,23.5,185.7z M26.5,184.8
			c0.3-0.2,0.6-0.5,0.8-0.8c0.2-0.4,0.3-0.7,0.3-1.2c0-0.4-0.1-0.8-0.3-1.2c-0.2-0.4-0.5-0.6-0.8-0.8c-0.3-0.2-0.7-0.3-1.2-0.3
			c-0.4,0-0.8,0.1-1.2,0.3c-0.3,0.2-0.6,0.5-0.8,0.8c-0.2,0.4-0.3,0.7-0.3,1.2c0,0.4,0.1,0.8,0.3,1.2c0.2,0.4,0.5,0.6,0.8,0.8
			c0.3,0.2,0.7,0.3,1.2,0.3C25.7,185.1,26.1,185,26.5,184.8z"/>
		<path class="st35" d="M30.2,179.5h5.1v1h-3.9v1.6h1.9c0.8,0,1.4,0.2,1.8,0.5c0.4,0.3,0.6,0.8,0.6,1.4c0,0.6-0.2,1.1-0.7,1.5
			c-0.4,0.4-1.1,0.5-1.9,0.5h-2.9V179.5z M33,185.1c0.5,0,0.8-0.1,1.1-0.3c0.2-0.2,0.4-0.4,0.4-0.8c0-0.7-0.5-1-1.4-1h-1.7v2.1H33z"
			/>
		<path class="st35" d="M45.4,179.5v6.5H37v-6.5h1.2v5.5h2.4v-5.5h1.2v5.5h2.4v-5.5H45.4z M46.4,185v2.4h-1.1v-1.4h-1v-1H46.4z"/>
		<path class="st35" d="M52.5,185v1h-4.9v-6.5h4.8v1h-3.6v1.7h3.2v1h-3.2v1.8H52.5z"/>
		<path class="st35" d="M55,185.7c-0.5-0.3-1-0.7-1.3-1.2c-0.3-0.5-0.5-1.1-0.5-1.7s0.2-1.2,0.5-1.7c0.3-0.5,0.7-0.9,1.3-1.2
			c0.5-0.3,1.1-0.4,1.8-0.4c0.5,0,1,0.1,1.5,0.3c0.4,0.2,0.8,0.5,1.1,0.8l-0.8,0.7c-0.5-0.5-1.1-0.8-1.7-0.8c-0.4,0-0.9,0.1-1.2,0.3
			c-0.4,0.2-0.6,0.5-0.8,0.8c-0.2,0.3-0.3,0.7-0.3,1.2c0,0.4,0.1,0.8,0.3,1.2c0.2,0.3,0.5,0.6,0.8,0.8c0.4,0.2,0.8,0.3,1.2,0.3
			c0.7,0,1.3-0.3,1.7-0.8l0.8,0.7c-0.3,0.4-0.7,0.6-1.1,0.8c-0.4,0.2-0.9,0.3-1.5,0.3C56.2,186.2,55.6,186,55,185.7z"/>
		<path class="st35" d="M65.2,180.5h-2.2v5.5h-1.2v-5.5h-2.2v-1h5.5V180.5z"/>
		<path class="st35" d="M71.5,183.2c0.2,0.3,0.3,0.6,0.3,1c0,0.6-0.2,1-0.6,1.3c-0.4,0.3-1,0.5-1.8,0.5h-3.1v-6.5h2.9
			c0.7,0,1.3,0.1,1.7,0.4c0.4,0.3,0.6,0.7,0.6,1.2c0,0.3-0.1,0.6-0.2,0.9c-0.2,0.2-0.4,0.4-0.7,0.6C71,182.8,71.3,183,71.5,183.2z
			 M67.5,182.3h1.6c0.4,0,0.7-0.1,0.9-0.2c0.2-0.2,0.3-0.4,0.3-0.7s-0.1-0.5-0.3-0.7c-0.2-0.2-0.5-0.2-0.9-0.2h-1.6V182.3z
			 M70.6,184.2c0-0.6-0.4-1-1.3-1h-1.9v1.9h1.9C70.2,185.1,70.6,184.8,70.6,184.2z"/>
		<path class="st35" d="M74.5,185.7c-0.5-0.3-1-0.7-1.3-1.2c-0.3-0.5-0.5-1.1-0.5-1.7c0-0.6,0.2-1.2,0.5-1.7
			c0.3-0.5,0.7-0.9,1.3-1.2c0.5-0.3,1.1-0.4,1.8-0.4c0.7,0,1.3,0.1,1.8,0.4c0.5,0.3,1,0.7,1.3,1.2c0.3,0.5,0.5,1.1,0.5,1.7
			s-0.2,1.2-0.5,1.7c-0.3,0.5-0.7,0.9-1.3,1.2c-0.5,0.3-1.1,0.4-1.8,0.4C75.6,186.2,75,186,74.5,185.7z M77.5,184.8
			c0.3-0.2,0.6-0.5,0.8-0.8c0.2-0.4,0.3-0.7,0.3-1.2c0-0.4-0.1-0.8-0.3-1.2c-0.2-0.4-0.5-0.6-0.8-0.8c-0.3-0.2-0.7-0.3-1.2-0.3
			c-0.4,0-0.8,0.1-1.2,0.3c-0.3,0.2-0.6,0.5-0.8,0.8c-0.2,0.4-0.3,0.7-0.3,1.2c0,0.4,0.1,0.8,0.3,1.2c0.2,0.4,0.5,0.6,0.8,0.8
			c0.3,0.2,0.7,0.3,1.2,0.3C76.7,185.1,77.1,185,77.5,184.8z"/>
		<path class="st35" d="M85.8,180.5h-2.2v5.5h-1.2v-5.5h-2.2v-1h5.5V180.5z"/>
		<path class="st35" d="M88,185.7c-0.5-0.3-1-0.7-1.3-1.2c-0.3-0.5-0.5-1.1-0.5-1.7c0-0.6,0.2-1.2,0.5-1.7c0.3-0.5,0.7-0.9,1.3-1.2
			c0.5-0.3,1.1-0.4,1.8-0.4c0.7,0,1.3,0.1,1.8,0.4c0.5,0.3,1,0.7,1.3,1.2c0.3,0.5,0.5,1.1,0.5,1.7s-0.2,1.2-0.5,1.7
			c-0.3,0.5-0.7,0.9-1.3,1.2c-0.5,0.3-1.1,0.4-1.8,0.4C89.1,186.2,88.5,186,88,185.7z M91,184.8c0.3-0.2,0.6-0.5,0.8-0.8
			c0.2-0.4,0.3-0.7,0.3-1.2c0-0.4-0.1-0.8-0.3-1.2c-0.2-0.4-0.5-0.6-0.8-0.8c-0.3-0.2-0.7-0.3-1.2-0.3c-0.4,0-0.8,0.1-1.2,0.3
			c-0.3,0.2-0.6,0.5-0.8,0.8c-0.2,0.4-0.3,0.7-0.3,1.2c0,0.4,0.1,0.8,0.3,1.2c0.2,0.4,0.5,0.6,0.8,0.8c0.3,0.2,0.7,0.3,1.2,0.3
			C90.2,185.1,90.6,185,91,184.8z"/>
	</g>
	
		<radialGradient id="SVGID_4_" cx="-2171.031" cy="2564.7585" r="59.465" gradientTransform="matrix(0.5011 0 0 5.423031e-02 1144.8414 8.833)" gradientUnits="userSpaceOnUse">
		<stop  offset="0.1034" style="stop-color:#E0E3E2"/>
		<stop  offset="0.2677" style="stop-color:#E9EBEA"/>
		<stop  offset="0.684" style="stop-color:#F9FAFA"/>
		<stop  offset="1" style="stop-color:#FFFFFF"/>
	</radialGradient>
	<ellipse class="st7" cx="57" cy="147.9" rx="42.1" ry="2.7"/>
	<path class="st9" d="M90.9,123.4c0,0-0.9,8.8-7.8,9.4c6.9,0.6,7.8,9.4,7.8,9.4s0.9-8.8,7.8-9.4C91.8,132.2,90.9,123.4,90.9,123.4z"
		/>
	<path class="st9" d="M103.9,104.8c0,0-0.6,5.8-5.2,6.2c4.6,0.4,5.2,6.2,5.2,6.2s0.6-5.8,5.2-6.2
		C104.5,110.7,103.9,104.8,103.9,104.8z"/>
</g>
<g>
	<ellipse class="st1" cx="77.2" cy="642.5" rx="32.1" ry="42.8"/>
	<g>
		<path class="st35" d="M66.9,656.1v6.5h-1.2v-5.5h-3.4v5.5h-1.2v-6.5H66.9z"/>
		<path class="st35" d="M73.5,656.4c0.4,0.2,0.7,0.5,1,0.8c0.2,0.3,0.3,0.8,0.3,1.2c0,0.5-0.1,0.9-0.3,1.2c-0.2,0.4-0.5,0.6-1,0.8
			c-0.4,0.2-0.9,0.3-1.5,0.3h-1.5v1.9h-1.2v-6.5H72C72.6,656.1,73.1,656.2,73.5,656.4z M73.2,659.4c0.3-0.2,0.4-0.5,0.4-1
			c0-0.4-0.1-0.7-0.4-1c-0.3-0.2-0.7-0.3-1.2-0.3h-1.4v2.6H72C72.5,659.7,72.9,659.6,73.2,659.4z"/>
		<path class="st35" d="M81.4,661.6v1h-4.9v-6.5h4.8v1h-3.6v1.7h3.2v1h-3.2v1.8H81.4z"/>
		<path class="st35" d="M88.6,659.8c0.2,0.3,0.3,0.6,0.3,1c0,0.6-0.2,1-0.6,1.3c-0.4,0.3-1,0.5-1.8,0.5h-3.1v-6.5h2.9
			c0.7,0,1.3,0.1,1.7,0.4c0.4,0.3,0.6,0.7,0.6,1.2c0,0.3-0.1,0.6-0.2,0.9c-0.2,0.2-0.4,0.4-0.7,0.6
			C88.1,659.4,88.4,659.5,88.6,659.8z M84.6,658.9h1.6c0.4,0,0.7-0.1,0.9-0.2c0.2-0.2,0.3-0.4,0.3-0.7c0-0.3-0.1-0.5-0.3-0.7
			c-0.2-0.2-0.5-0.2-0.9-0.2h-1.6V658.9z M87.7,660.7c0-0.6-0.4-1-1.3-1h-1.9v1.9h1.9C87.3,661.7,87.7,661.4,87.7,660.7z"/>
		<path class="st35" d="M92.1,662.3c-0.5-0.3-1-0.7-1.3-1.2c-0.3-0.5-0.5-1.1-0.5-1.7s0.2-1.2,0.5-1.7c0.3-0.5,0.7-0.9,1.3-1.2
			c0.5-0.3,1.1-0.4,1.8-0.4c0.7,0,1.3,0.1,1.8,0.4c0.5,0.3,1,0.7,1.3,1.2c0.3,0.5,0.5,1.1,0.5,1.7s-0.2,1.2-0.5,1.7
			c-0.3,0.5-0.7,0.9-1.3,1.2c-0.5,0.3-1.1,0.4-1.8,0.4C93.3,662.7,92.7,662.6,92.1,662.3z M95.1,661.4c0.3-0.2,0.6-0.5,0.8-0.8
			c0.2-0.4,0.3-0.7,0.3-1.2s-0.1-0.8-0.3-1.2s-0.5-0.6-0.8-0.8c-0.3-0.2-0.7-0.3-1.2-0.3c-0.4,0-0.8,0.1-1.2,0.3
			c-0.3,0.2-0.6,0.5-0.8,0.8c-0.2,0.4-0.3,0.7-0.3,1.2s0.1,0.8,0.3,1.2c0.2,0.4,0.5,0.6,0.8,0.8c0.3,0.2,0.7,0.3,1.2,0.3
			C94.4,661.7,94.8,661.6,95.1,661.4z"/>
		<path class="st35" d="M105.7,661.6v2.4h-1.1v-1.4h-5v1.4h-1.1l0-2.4h0.3c0.4,0,0.7-0.3,0.9-0.9c0.2-0.6,0.3-1.4,0.3-2.5l0.1-2.1
			h4.8v5.5H105.7z M100.7,660.4c-0.1,0.6-0.3,1-0.5,1.2h3.3v-4.5H101l0,1.2C100.9,659.1,100.8,659.8,100.7,660.4z"/>
		<path class="st35" d="M115.8,659.8c0.2,0.3,0.3,0.6,0.3,1c0,0.6-0.2,1-0.6,1.3c-0.4,0.3-1,0.5-1.8,0.5h-3.1v-6.5h2.9
			c0.7,0,1.3,0.1,1.7,0.4c0.4,0.3,0.6,0.7,0.6,1.2c0,0.3-0.1,0.6-0.2,0.9c-0.2,0.2-0.4,0.4-0.7,0.6
			C115.3,659.4,115.6,659.5,115.8,659.8z M111.7,658.9h1.6c0.4,0,0.7-0.1,0.9-0.2c0.2-0.2,0.3-0.4,0.3-0.7c0-0.3-0.1-0.5-0.3-0.7
			c-0.2-0.2-0.5-0.2-0.9-0.2h-1.6V658.9z M114.9,660.7c0-0.6-0.4-1-1.3-1h-1.9v1.9h1.9C114.5,661.7,114.9,661.4,114.9,660.7z"/>
		<path class="st35" d="M67.6,671.4v2.4h-1.1v-1.4h-5v1.4h-1.1l0-2.4h0.3c0.4,0,0.7-0.3,0.9-0.9c0.2-0.6,0.3-1.4,0.3-2.5l0.1-2.1
			h4.8v5.5H67.6z M62.7,670.2c-0.1,0.6-0.3,1-0.5,1.2h3.3v-4.5h-2.6l0,1.2C62.8,668.9,62.8,669.6,62.7,670.2z"/>
		<path class="st35" d="M73.7,670.9h-3.3l-0.6,1.5h-1.3l2.9-6.5h1.2l3,6.5h-1.3L73.7,670.9z M73.3,669.9l-1.2-2.9l-1.2,2.9H73.3z"/>
		<path class="st35" d="M81.4,666.1c0.4,0.2,0.7,0.5,1,0.8c0.2,0.3,0.3,0.8,0.3,1.2c0,0.5-0.1,0.9-0.3,1.2c-0.2,0.4-0.5,0.6-1,0.8
			c-0.4,0.2-0.9,0.3-1.5,0.3h-1.5v1.9h-1.2v-6.5h2.7C80.5,665.9,81,665.9,81.4,666.1z M81,669.1c0.3-0.2,0.4-0.5,0.4-1
			c0-0.4-0.1-0.7-0.4-1c-0.3-0.2-0.7-0.3-1.2-0.3h-1.4v2.6h1.4C80.4,669.5,80.8,669.4,81,669.1z"/>
		<path class="st35" d="M84.4,665.9h1.2v4.6l3.5-4.6h1.1v6.5h-1.2v-4.6l-3.5,4.6h-1.1V665.9z"/>
		<path class="st35" d="M97.4,666.9h-2.2v5.5H94v-5.5h-2.2v-1h5.5V666.9z"/>
		<path class="st35" d="M103.9,671.4v1H99v-6.5h4.8v1h-3.6v1.7h3.2v1h-3.2v1.8H103.9z"/>
		<path class="st35" d="M111.4,665.9v6.5h-1.2v-5.5h-2.6l-0.1,1.6c0,0.9-0.1,1.7-0.2,2.2c-0.1,0.6-0.3,1-0.6,1.3
			c-0.3,0.3-0.6,0.4-1.1,0.4c-0.2,0-0.4,0-0.7-0.1l0.1-1.1c0.1,0,0.2,0,0.3,0c0.4,0,0.7-0.2,0.8-0.7c0.2-0.5,0.3-1.2,0.3-2.1
			l0.1-2.7H111.4z"/>
		<path class="st35" d="M115.1,672.1c-0.5-0.3-1-0.7-1.3-1.2c-0.3-0.5-0.5-1.1-0.5-1.7c0-0.6,0.2-1.2,0.5-1.7
			c0.3-0.5,0.7-0.9,1.3-1.2c0.5-0.3,1.1-0.4,1.8-0.4c0.5,0,1,0.1,1.5,0.3c0.4,0.2,0.8,0.5,1.1,0.8l-0.8,0.7
			c-0.5-0.5-1.1-0.8-1.7-0.8c-0.4,0-0.9,0.1-1.2,0.3c-0.4,0.2-0.6,0.5-0.8,0.8c-0.2,0.3-0.3,0.7-0.3,1.2c0,0.4,0.1,0.8,0.3,1.2
			c0.2,0.3,0.5,0.6,0.8,0.8c0.4,0.2,0.8,0.3,1.2,0.3c0.7,0,1.3-0.3,1.7-0.8l0.8,0.7c-0.3,0.4-0.7,0.6-1.1,0.8
			c-0.4,0.2-0.9,0.3-1.5,0.3C116.2,672.5,115.6,672.3,115.1,672.1z"/>
		<path class="st35" d="M123.6,669.6h-1.2v2.8h-1.2v-6.5h1.2v2.7h1.3l1.9-2.7h1.3l-2.2,3.2l2.3,3.4h-1.4L123.6,669.6z"/>
		<path class="st35" d="M132.5,670.9h-3.3l-0.6,1.5h-1.3l2.9-6.5h1.2l3,6.5h-1.3L132.5,670.9z M132.1,669.9l-1.2-2.9l-1.2,2.9H132.1
			z"/>
		<path class="st35" d="M62.4,681.8c-0.5-0.3-1-0.7-1.3-1.2c-0.3-0.5-0.5-1.1-0.5-1.7s0.2-1.2,0.5-1.7c0.3-0.5,0.7-0.9,1.3-1.2
			c0.5-0.3,1.1-0.4,1.8-0.4c0.5,0,1,0.1,1.5,0.3c0.4,0.2,0.8,0.5,1.1,0.8l-0.8,0.7c-0.5-0.5-1.1-0.8-1.7-0.8c-0.4,0-0.9,0.1-1.2,0.3
			c-0.4,0.2-0.6,0.5-0.8,0.8c-0.2,0.3-0.3,0.7-0.3,1.2s0.1,0.8,0.3,1.2c0.2,0.3,0.5,0.6,0.8,0.8c0.4,0.2,0.8,0.3,1.2,0.3
			c0.7,0,1.3-0.3,1.7-0.8l0.8,0.7c-0.3,0.4-0.7,0.6-1.1,0.8c-0.4,0.2-0.9,0.3-1.5,0.3C63.5,682.2,62.9,682.1,62.4,681.8z"/>
		<path class="st35" d="M74.5,682.2l0-4.3l-2.2,3.6h-0.5l-2.2-3.5v4.3h-1.2v-6.5h1l2.6,4.3l2.6-4.3h1l0,6.5H74.5z"/>
		<path class="st35" d="M82.9,681.1v1H78v-6.5h4.8v1h-3.6v1.7h3.2v1h-3.2v1.8H82.9z"/>
		<path class="st35" d="M89.6,676.6h-2.2v5.5h-1.2v-5.5h-2.2v-1h5.5V676.6z"/>
		<path class="st35" d="M93.6,679.4h-1.2v2.8h-1.2v-6.5h1.2v2.7h1.3l1.9-2.7h1.3l-2.2,3.2l2.3,3.4h-1.4L93.6,679.4z"/>
		<path class="st35" d="M102.5,680.6h-3.3l-0.6,1.5h-1.3l2.9-6.5h1.2l3,6.5h-1.3L102.5,680.6z M102.1,679.7l-1.2-2.9l-1.2,2.9H102.1
			z"/>
	</g>
	<g>
		<path class="st10" d="M54.2,688.6c0.2,1.2-0.1,2.3-0.8,3.3c-0.8,1-1.7,1.6-2.9,1.8c-0.9,0.1-1.7,0-2.4-0.6
			c-0.7-0.5-1.2-1.2-1.3-2.1c-0.2-1.2,0.1-2.3,0.9-3.4c0.8-1.1,1.8-1.7,2.9-1.9c0.9-0.1,1.7,0,2.4,0.6
			C53.6,686.9,54.1,687.7,54.2,688.6z M57.4,655.1c0.1,0.7,0,1.9-0.5,3.5c-0.3,1.2-1,4-1.8,8.5c-0.9,4.5-1.4,7.2-1.6,8.3
			c-0.2,1.1-0.3,2.3-0.3,3.8c0,1.2-0.7,1.8-2,2.1c-1.7,0.3-2.7-0.4-3-2.1c-0.3-1.8,0.2-5.3,1.4-10.7c1.3-5.4,2.3-9.1,3.1-11.2
			c0.8-2.1,1.8-3.2,2.8-3.3C56.6,653.8,57.3,654.2,57.4,655.1z"/>
	</g>
	
		<radialGradient id="SVGID_5_" cx="-1762.3796" cy="5604.9253" r="59.465" gradientTransform="matrix(0.5538 0 0 4.348000e-02 1059.4963 408.0125)" gradientUnits="userSpaceOnUse">
		<stop  offset="0.1034" style="stop-color:#E0E3E2"/>
		<stop  offset="0.2677" style="stop-color:#E9EBEA"/>
		<stop  offset="0.684" style="stop-color:#F9FAFA"/>
		<stop  offset="1" style="stop-color:#FFFFFF"/>
	</radialGradient>
	<ellipse class="st8" cx="83.5" cy="651.7" rx="46.5" ry="2.2"/>
</g>
<g>
	<ellipse class="st1" cx="221.7" cy="773" rx="23" ry="31.2"/>
	<g>
		<g>
			<path class="st35" d="M184.4,809.1c-0.5-0.3-1-0.7-1.3-1.2c-0.3-0.5-0.5-1.1-0.5-1.7s0.2-1.2,0.5-1.7c0.3-0.5,0.7-0.9,1.3-1.2
				c0.5-0.3,1.1-0.4,1.8-0.4c0.7,0,1.3,0.1,1.8,0.4c0.5,0.3,1,0.7,1.3,1.2c0.3,0.5,0.5,1.1,0.5,1.7s-0.2,1.2-0.5,1.7
				c-0.3,0.5-0.7,0.9-1.3,1.2c-0.5,0.3-1.1,0.4-1.8,0.4C185.6,809.6,185,809.4,184.4,809.1z M187.4,808.2c0.3-0.2,0.6-0.5,0.8-0.8
				c0.2-0.4,0.3-0.7,0.3-1.2s-0.1-0.8-0.3-1.2c-0.2-0.4-0.5-0.6-0.8-0.8c-0.3-0.2-0.7-0.3-1.2-0.3c-0.4,0-0.8,0.1-1.2,0.3
				c-0.3,0.2-0.6,0.5-0.8,0.8c-0.2,0.4-0.3,0.7-0.3,1.2s0.1,0.8,0.3,1.2c0.2,0.4,0.5,0.6,0.8,0.8c0.3,0.2,0.7,0.3,1.2,0.3
				C186.7,808.5,187.1,808.4,187.4,808.2z"/>
			<path class="st35" d="M196.3,804h-2.2v5.5h-1.2V804h-2.2v-1h5.5V804z"/>
			<path class="st35" d="M202.9,802.9v6.5h-1.2V807c-0.6,0.2-1.2,0.3-1.8,0.3c-0.8,0-1.5-0.2-1.9-0.6c-0.5-0.4-0.7-1-0.7-1.7v-2.1
				h1.2v2c0,0.5,0.1,0.8,0.4,1.1c0.3,0.2,0.7,0.4,1.2,0.4c0.6,0,1.1-0.1,1.6-0.3v-3H202.9z"/>
			<path class="st35" d="M205.3,802.9h1.2v4.6l3.5-4.6h1.1v6.5H210v-4.6l-3.5,4.6h-1.1V802.9z"/>
			<path class="st35" d="M218.3,804h-2.2v5.5H215V804h-2.2v-1h5.5V804z"/>
			<path class="st35" d="M224,808h-3.3l-0.6,1.5h-1.3l2.9-6.5h1.2l3,6.5h-1.3L224,808z M223.6,807l-1.2-2.9l-1.2,2.9H223.6z"/>
			<path class="st35" d="M233.3,802.9v6.5h-1.2v-2.8h-3.4v2.8h-1.2v-6.5h1.2v2.7h3.4v-2.7H233.3z"/>
			<path class="st35" d="M240.6,808.5v1h-4.9v-6.5h4.8v1h-3.6v1.7h3.2v1h-3.2v1.8H240.6z"/>
			<path class="st35" d="M251.5,802.9v6.5h-1.2v-2.8h-3.4v2.8h-1.2v-6.5h1.2v2.7h3.4v-2.7H251.5z"/>
			<path class="st35" d="M258.2,808h-3.3l-0.6,1.5H253l2.9-6.5h1.2l3,6.5h-1.3L258.2,808z M257.8,807l-1.2-2.9l-1.2,2.9H257.8z"/>
			<path class="st35" d="M189,812.7v6.5h-1.2v-2.8h-3.4v2.8h-1.2v-6.5h1.2v2.7h3.4v-2.7H189z"/>
			<path class="st35" d="M195.7,817.7h-3.3l-0.6,1.5h-1.3l2.9-6.5h1.2l3,6.5h-1.3L195.7,817.7z M195.3,816.8l-1.2-2.9l-1.2,2.9
				H195.3z"/>
			<path class="st35" d="M206.6,813c0.4,0.2,0.7,0.5,1,0.8c0.2,0.3,0.3,0.8,0.3,1.2c0,0.5-0.1,0.9-0.3,1.2c-0.2,0.4-0.5,0.6-1,0.8
				c-0.4,0.2-0.9,0.3-1.5,0.3h-1.5v1.9h-1.2v-6.5h2.7C205.6,812.7,206.1,812.8,206.6,813z M206.2,816c0.3-0.2,0.4-0.5,0.4-1
				c0-0.4-0.1-0.7-0.4-1c-0.3-0.2-0.7-0.3-1.2-0.3h-1.4v2.6h1.4C205.5,816.3,205.9,816.2,206.2,816z"/>
			<path class="st35" d="M213.6,817.7h-3.3l-0.6,1.5h-1.3l2.9-6.5h1.2l3,6.5h-1.3L213.6,817.7z M213.2,816.8l-1.2-2.9l-1.2,2.9
				H213.2z"/>
			<path class="st35" d="M221.4,816.4c0.2,0.3,0.3,0.6,0.3,1c0,0.4-0.1,0.7-0.4,1c-0.3,0.3-0.6,0.5-1,0.7c-0.4,0.2-0.9,0.2-1.4,0.2
				c-0.4,0-0.9-0.1-1.3-0.2s-0.8-0.3-1.2-0.5l0.4-0.9c0.3,0.2,0.6,0.3,1,0.4c0.3,0.1,0.7,0.2,1,0.2c0.5,0,0.9-0.1,1.2-0.3
				c0.3-0.2,0.5-0.5,0.5-0.8c0-0.3-0.1-0.5-0.4-0.7c-0.2-0.1-0.6-0.2-1-0.2h-1.5v-1h1.4c0.4,0,0.6-0.1,0.9-0.2
				c0.2-0.1,0.3-0.4,0.3-0.6c0-0.3-0.1-0.5-0.4-0.7c-0.3-0.2-0.6-0.3-1.1-0.3c-0.3,0-0.6,0-0.9,0.1c-0.3,0.1-0.6,0.2-0.9,0.4l-0.4-1
				c0.3-0.2,0.7-0.3,1.1-0.4c0.4-0.1,0.8-0.1,1.1-0.1c0.5,0,0.9,0.1,1.3,0.2c0.4,0.1,0.7,0.4,1,0.6c0.2,0.3,0.4,0.6,0.4,1
				c0,0.3-0.1,0.6-0.3,0.9c-0.2,0.2-0.4,0.4-0.7,0.6C220.9,815.9,221.2,816.1,221.4,816.4z"/>
			<path class="st35" d="M224.4,812.7l1.5,2.2l1.5-2.2h1.4l-2.2,3.1l2.4,3.4h-1.4l-1.7-2.4l-1.7,2.4h-1.4l2.4-3.4l-2.2-3.2H224.4z"
				/>
			<path class="st35" d="M231.6,818.9c-0.5-0.3-1-0.7-1.3-1.2c-0.3-0.5-0.5-1.1-0.5-1.7s0.2-1.2,0.5-1.7c0.3-0.5,0.7-0.9,1.3-1.2
				c0.5-0.3,1.1-0.4,1.8-0.4c0.7,0,1.3,0.1,1.8,0.4c0.5,0.3,1,0.7,1.3,1.2c0.3,0.5,0.5,1.1,0.5,1.7c0,0.6-0.2,1.2-0.5,1.7
				c-0.3,0.5-0.7,0.9-1.3,1.2c-0.5,0.3-1.1,0.4-1.8,0.4C232.8,819.3,232.2,819.2,231.6,818.9z M234.6,818c0.3-0.2,0.6-0.5,0.8-0.8
				c0.2-0.4,0.3-0.7,0.3-1.2c0-0.4-0.1-0.8-0.3-1.2c-0.2-0.4-0.5-0.6-0.8-0.8c-0.3-0.2-0.7-0.3-1.2-0.3c-0.4,0-0.8,0.1-1.2,0.3
				c-0.3,0.2-0.6,0.5-0.8,0.8c-0.2,0.4-0.3,0.7-0.3,1.2c0,0.4,0.1,0.8,0.3,1.2c0.2,0.4,0.5,0.6,0.8,0.8c0.3,0.2,0.7,0.3,1.2,0.3
				C233.9,818.3,234.3,818.2,234.6,818z"/>
			<path class="st35" d="M245.2,818.2v2.4h-1.1v-1.4h-5v1.4h-1.1l0-2.4h0.3c0.4,0,0.7-0.3,0.9-0.9c0.2-0.6,0.3-1.4,0.3-2.5l0.1-2.1
				h4.8v5.5H245.2z M240.2,817c-0.1,0.6-0.3,1-0.5,1.2h3.3v-4.5h-2.6l0,1.2C240.4,815.7,240.3,816.4,240.2,817z"/>
			<path class="st35" d="M246.9,812.7h1.2v4.6l3.5-4.6h1.1v6.5h-1.2v-4.6l-3.5,4.6h-1.1V812.7z"/>
			<path class="st35" d="M259.9,813.7h-2.2v5.5h-1.2v-5.5h-2.2v-1h5.5V813.7z"/>
			<path class="st35" d="M266.4,818.2v1h-4.9v-6.5h4.8v1h-3.6v1.7h3.2v1h-3.2v1.8H266.4z"/>
		</g>
	</g>
	<g>
		<g>
			<path class="st3" d="M233,751.5H214c0,0,0,0,0,0c0,0,0,0,0,0c0,0-0.1,0-0.1,0c0,0,0,0,0,0c0,0-0.1,0-0.1,0c0,0,0,0,0,0
				c0,0,0,0-0.1,0c0,0,0,0,0,0c0,0,0,0-0.1,0c0,0,0,0,0,0c0,0,0,0-0.1,0.1c0,0,0,0,0,0l-6.8,6.8c0,0,0,0,0,0c0,0,0,0-0.1,0.1
				c0,0,0,0,0,0c0,0,0,0,0,0.1c0,0,0,0,0,0c0,0,0,0,0,0.1c0,0,0,0,0,0c0,0,0,0.1,0,0.1c0,0,0,0,0,0c0,0,0,0.1,0,0.1c0,0,0,0,0,0
				c0,0,0,0,0,0v29.7c0,1.1,0.9,2,2,2H233c1.1,0,2-0.9,2-2v-35.1C234.9,752.4,234.1,751.5,233,751.5z M213.4,753.7v3.9
				c0,0.4-0.3,0.7-0.7,0.7h-3.9L213.4,753.7z M233.7,788.6c0,0.4-0.3,0.7-0.7,0.7h-24.3c-0.4,0-0.7-0.3-0.7-0.7v-29.1h4.8
				c1.1,0,2-0.9,2-2v-4.8H233c0.4,0,0.7,0.3,0.7,0.7V788.6z"/>
			<path class="st3" d="M212.7,769.7h16.2c0.3,0,0.6-0.3,0.6-0.6s-0.3-0.6-0.6-0.6h-16.2c-0.3,0-0.6,0.3-0.6,0.6
				S212.3,769.7,212.7,769.7z"/>
			<path class="st3" d="M212.7,773.1h16.2c0.3,0,0.6-0.3,0.6-0.6c0-0.3-0.3-0.6-0.6-0.6h-16.2c-0.3,0-0.6,0.3-0.6,0.6
				C212.1,772.8,212.3,773.1,212.7,773.1z"/>
			<path class="st3" d="M212.7,776.4h8.1c0.3,0,0.6-0.3,0.6-0.6c0-0.3-0.3-0.6-0.6-0.6h-8.1c-0.3,0-0.6,0.3-0.6,0.6
				C212.1,776.2,212.3,776.4,212.7,776.4z"/>
			<path class="st3" d="M221.4,779.2c0-0.3-0.3-0.6-0.6-0.6h-8.1c-0.3,0-0.6,0.3-0.6,0.6s0.3,0.6,0.6,0.6h8.1
				C221.2,779.8,221.4,779.5,221.4,779.2z"/>
			<path class="st3" d="M224.1,762.5c0-0.3-0.3-0.6-0.6-0.6s-0.6,0.3-0.6,0.6c0,1.2,1.1,2.2,2.7,2.4v0.1c0,0.3,0.3,0.6,0.6,0.6
				s0.6-0.3,0.6-0.6v-0.1c1.6-0.2,2.7-1.2,2.7-2.4c0-1.2-1.1-2.2-2.7-2.4v-2.4c0.8,0.2,1.4,0.6,1.4,1.2c0,0.3,0.3,0.6,0.6,0.6
				s0.6-0.3,0.6-0.6c0-1.2-1.1-2.2-2.7-2.4v-0.1c0-0.3-0.3-0.6-0.6-0.6s-0.6,0.3-0.6,0.6v0.1c-1.6,0.2-2.7,1.2-2.7,2.4
				c0,1.2,1.1,2.2,2.7,2.4v2.4C224.8,763.5,224.1,763,224.1,762.5z M228.3,762.5c0,0.6-0.7,1-1.4,1.2v-2.3
				C227.6,761.5,228.3,761.9,228.3,762.5z M224.1,758.7c0-0.6,0.7-1,1.4-1.2v2.3C224.8,759.7,224.1,759.3,224.1,758.7z"/>
			<path class="st3" d="M230.2,778.6c-0.3-0.2-0.7-0.1-0.9,0.2l-1.3,2.3l-0.2-0.1c-0.2-0.1-0.3-0.2-0.5-0.1c-0.2,0-0.3,0.2-0.4,0.3
				l-0.7,1.3l-0.2-0.2c-0.3-0.4-0.8-0.5-1.2-0.4c-0.5,0.1-0.8,0.4-1,0.9l-0.7,2.1l-1.7-2.2c-0.1-0.1-0.3-0.2-0.4-0.2
				c-0.2,0-0.3,0-0.5,0.2l-1.8,1.6c-0.3,0.2-0.3,0.6-0.1,0.9c0.2,0.3,0.6,0.3,0.9,0.1l1.3-1.2l1.7,2.1c0.2,0.2,0.5,0.4,0.8,0.4
				c0.1,0,0.1,0,0.2,0c0.3-0.1,0.6-0.3,0.8-0.6l0.9-2.6c0,0,0,0,0,0c0,0,0,0,0,0l0.8,1c0.1,0.2,0.3,0.2,0.6,0.2
				c0.2,0,0.4-0.2,0.5-0.3l0.7-1.5l0.1,0.1c0.1,0.1,0.3,0.2,0.5,0.1c0.2,0,0.3-0.1,0.4-0.3l1.7-2.9
				C230.6,779.1,230.5,778.8,230.2,778.6z"/>
		</g>
	</g>
	
		<radialGradient id="SVGID_6_" cx="-1514.2163" cy="5935.1191" r="59.465" gradientTransform="matrix(0.5538 0 0 4.348000e-02 1059.4963 537.2238)" gradientUnits="userSpaceOnUse">
		<stop  offset="0.1034" style="stop-color:#E0E3E2"/>
		<stop  offset="0.2677" style="stop-color:#E9EBEA"/>
		<stop  offset="0.684" style="stop-color:#F9FAFA"/>
		<stop  offset="1" style="stop-color:#FFFFFF"/>
	</radialGradient>
	<ellipse class="st11" cx="220.9" cy="795.3" rx="46.5" ry="2.2"/>
	<path class="st9" d="M243.2,776.7c0,0-0.9,8.8-7.8,9.4c6.9,0.6,7.8,9.4,7.8,9.4s0.9-8.8,7.8-9.4
		C244.1,785.5,243.2,776.7,243.2,776.7z"/>
	<path class="st9" d="M248.6,753.1c0,0-0.6,5.8-5.2,6.2c4.6,0.4,5.2,6.2,5.2,6.2s0.6-5.8,5.2-6.2
		C249.1,758.9,248.6,753.1,248.6,753.1z"/>
</g>
<g>
	<ellipse class="st1" cx="84.1" cy="480.4" rx="32.1" ry="35.9"/>
	<g>
		<path class="st35" d="M99.3,497.8c-0.7-0.4-1.3-1-1.7-1.7c-0.4-0.7-0.6-1.5-0.6-2.4c0-0.9,0.2-1.7,0.6-2.4c0.4-0.7,1-1.3,1.8-1.7
			c0.7-0.4,1.6-0.6,2.5-0.6c0.7,0,1.4,0.1,2.1,0.4c0.6,0.3,1.1,0.6,1.6,1.1l-1.1,1c-0.7-0.7-1.5-1.1-2.4-1.1c-0.6,0-1.2,0.1-1.7,0.4
			c-0.5,0.3-0.9,0.7-1.2,1.1c-0.3,0.5-0.4,1-0.4,1.7c0,0.6,0.1,1.2,0.4,1.7c0.3,0.5,0.7,0.9,1.2,1.1c0.5,0.3,1.1,0.4,1.7,0.4
			c1,0,1.8-0.4,2.4-1.1l1.1,1c-0.4,0.5-1,0.9-1.6,1.1c-0.6,0.3-1.3,0.4-2.1,0.4C100.8,498.4,100,498.2,99.3,497.8z"/>
		<path class="st35" d="M113.5,490.5h-3v7.7h-1.7v-7.7h-3v-1.4h7.7V490.5z"/>
		<path class="st35" d="M120.6,496.1H116l-0.9,2.1h-1.7l4.1-9.1h1.7l4.1,9.1h-1.8L120.6,496.1z M120,494.8l-1.7-4l-1.7,4H120z"/>
		<path class="st35" d="M130.5,489.5c0.6,0.3,1,0.6,1.4,1.1c0.3,0.5,0.5,1.1,0.5,1.7c0,0.7-0.2,1.2-0.5,1.7
			c-0.3,0.5-0.8,0.9-1.4,1.1c-0.6,0.3-1.3,0.4-2.1,0.4h-2.1v2.6h-1.7v-9.1h3.8C129.2,489.1,129.9,489.2,130.5,489.5z M130,493.7
			c0.4-0.3,0.6-0.8,0.6-1.3s-0.2-1-0.6-1.3c-0.4-0.3-0.9-0.5-1.7-0.5h-2v3.6h2C129.1,494.2,129.6,494,130,493.7z"/>
		<path class="st35" d="M140.3,490.5h-3v7.7h-1.7v-7.7h-3v-1.4h7.7V490.5z"/>
		<path class="st35" d="M141.8,498c-0.2-0.2-0.3-0.4-0.3-0.7c0-0.3,0.1-0.5,0.3-0.7c0.2-0.2,0.5-0.3,0.8-0.3c0.3,0,0.5,0.1,0.7,0.3
			c0.2,0.2,0.3,0.4,0.3,0.7c0,0.3-0.1,0.5-0.3,0.7c-0.2,0.2-0.4,0.3-0.7,0.3C142.3,498.3,142,498.2,141.8,498z M141.6,489.1h1.9
			l-0.3,6.1h-1.3L141.6,489.1z"/>
	</g>
	<g>
		<path class="st3" d="M85.6,481.9L85.6,481.9c-0.4-0.3-0.8-0.6-1.3-0.7l-0.2-0.1l-0.1-0.2c-0.2-0.5-0.5-0.9-0.9-1.2
			c-0.6-0.5-1.4-0.8-2.1-0.8c-0.1,0-0.1,0-0.2,0c-1.8,0.1-3.1,1.6-3,3.4l0.2,4.7c0,0.2,0.1,0.4,0.3,0.6c0.2,0.2,0.4,0.2,0.6,0.2
			l4.7-0.2c1.8-0.1,3.1-1.6,3-3.4C86.6,483.2,86.2,482.4,85.6,481.9z M84.5,485.2c-0.3,0.3-0.6,0.5-1,0.5l-3.8,0.2l-0.2-3.8
			c0-0.8,0.6-1.5,1.4-1.5c0.4,0,0.8,0.1,1.1,0.4c0.3,0.3,0.5,0.6,0.5,1c0,0.2,0.1,0.4,0.3,0.6c0.2,0.2,0.4,0.2,0.6,0.2
			c0.4,0,0.8,0.1,1.1,0.4c0.3,0.3,0.5,0.6,0.5,1C84.9,484.6,84.8,484.9,84.5,485.2z"/>
		<path class="st3" d="M93.7,472.9c-0.4-0.3-0.8-0.6-1.3-0.7l-0.2-0.1l-0.1-0.2c-0.2-0.5-0.5-0.9-0.9-1.2c-0.6-0.5-1.4-0.8-2.1-0.8
			c-0.1,0-0.1,0-0.2,0c-1.8,0.1-3.1,1.6-3,3.4l0.2,4.7c0,0.2,0.1,0.4,0.3,0.6c0.2,0.2,0.4,0.2,0.6,0.2l4.7-0.2
			c1.8-0.1,3.1-1.6,3-3.4C94.7,474.2,94.4,473.5,93.7,472.9z M91.6,476.7l-3.8,0.2l-0.2-3.8c0-0.4,0.1-0.8,0.4-1.1s0.6-0.5,1-0.5
			c0.4,0,0.8,0.1,1.1,0.4c0.3,0.3,0.5,0.6,0.5,1c0,0.2,0.1,0.4,0.3,0.6c0.2,0.2,0.4,0.2,0.6,0.2c0.4,0,0.8,0.1,1.1,0.4
			c0.3,0.3,0.5,0.6,0.5,1C93.1,476,92.5,476.7,91.6,476.7z"/>
		<path class="st3" d="M105.4,457.5c-0.2-0.2-0.4-0.2-0.7-0.2c-11.5,1.4-22,7.6-28.7,17l-2.6,3.6l-13.4,5c-0.2,0.1-0.3,0.2-0.4,0.4
			l-4.8,8.1c-0.2,0.3-0.2,0.6,0,0.8c0,0.1,0.1,0.2,0.2,0.3c0.1,0.1,0.3,0.2,0.5,0.2l8,0.9l4.6,4.1l-2.7,3c-0.3,0.4-0.3,0.9,0.1,1.2
			c0.2,0.2,0.4,0.2,0.6,0.2c0.2,0,0.4-0.1,0.6-0.3l2.7-3l4.6,4.1l1.7,7.8c0,0.2,0.1,0.3,0.3,0.5c0.1,0.1,0.2,0.1,0.3,0.2
			c0.3,0.1,0.6,0.1,0.8-0.1l7.5-5.5c0.2-0.1,0.3-0.3,0.3-0.5l3.6-13.8l3.3-3c8.7-7.7,13.8-18.7,14-30.3
			C105.7,457.9,105.6,457.6,105.4,457.5z M63.4,491.7L57,491l3.9-6.6l10.6-4L63.4,491.7z M83.2,504.5L77,509l-1.3-6.3l10.4-9.2
			L83.2,504.5z M101.4,471.5c-2.3,6-6,11.4-10.8,15.6l-15.9,14.1l-4.2-3.8l5.3-5.9c0.2-0.2,0.2-0.4,0.2-0.6c0-0.2-0.1-0.4-0.3-0.6
			c-0.4-0.3-0.9-0.3-1.2,0.1l-5.3,5.9l-4.2-3.8l12.4-17.3c3.7-5.2,8.7-9.4,14.5-12.3l0.4-0.2l0.2,0.4c0.8,1.9,1.9,3.6,3.4,4.9
			c1.5,1.4,3.3,2.4,5.2,2.9l0.4,0.1L101.4,471.5z M103.9,459.6c-0.2,3.2-0.8,6.4-1.7,9.5l-0.1,0.4l-0.4-0.1
			c-1.7-0.5-3.3-1.4-4.7-2.6c-1.3-1.2-2.4-2.7-3-4.4l-0.1-0.4l0.4-0.2c3-1.3,6.1-2.2,9.2-2.7l0.5-0.1L103.9,459.6z"/>
	</g>
	<path class="st13" d="M140,468.2c-0.4-1.7-2-3-3.8-3c-0.3,0-0.7,0-1,0.1c-0.9-2-2.9-3.3-5.2-3.3c-0.6,0-1.2,0.1-1.7,0.3
		c-1.2-2.1-3.5-3.4-6.1-3.4c-3.1,0-5.7,2-6.7,4.7c-0.7-0.4-1.5-0.6-2.4-0.6c-2.7,0-4.9,2.2-4.9,4.9c0,0.2,0,0.3,0,0.5H140z"/>
	<path class="st13" d="M73.3,474.9c-0.4-1.6-1.8-2.9-3.6-2.9c-0.3,0-0.6,0-0.9,0.1c-0.9-1.8-2.7-3.1-4.9-3.1c-0.6,0-1.1,0.1-1.6,0.2
		c-1.2-1.9-3.3-3.2-5.7-3.2c-2.9,0-5.3,1.8-6.3,4.4c-0.7-0.4-1.4-0.6-2.2-0.6c-2.5,0-4.6,2.1-4.6,4.6c0,0.1,0,0.3,0,0.4H73.3z"/>
	<path class="st9" d="M78.6,520.6c0,0-0.4,3.8-3.4,4.1c3,0.3,3.4,4.1,3.4,4.1s0.4-3.8,3.4-4.1C78.9,524.4,78.6,520.6,78.6,520.6z"/>
</g>
<g>
	<g>
		<g>
			<path class="st35" d="M188.2,909.1h-4.4v11.1h-5v-11.1h-4.4v-3.9h13.7V909.1z"/>
			<path class="st35" d="M189.9,905.2h5v7.8l5.2-7.8h4.8v15h-5v-7.8l-5.1,7.8h-4.8V905.2z"/>
			<path class="st35" d="M190.5,926.1l-6,11.3c-0.7,1.3-1.6,2.4-2.6,3.1c-1,0.7-2.2,1-3.4,1c-1,0-1.9-0.2-2.9-0.6l1.2-3.6
				c0.6,0.2,1.1,0.3,1.5,0.3c0.4,0,0.7-0.1,1-0.2c0.3-0.1,0.5-0.3,0.8-0.6l-5.7-10.6h5.3l3,6.3l3.1-6.3H190.5z"/>
			<path class="st35" d="M194.6,940.4c-1.3-0.7-2.3-1.6-3-2.8c-0.7-1.2-1.1-2.5-1.1-4.1c0-1.5,0.4-2.9,1.1-4.1
				c0.7-1.2,1.7-2.1,3-2.8c1.3-0.7,2.7-1,4.3-1c1.5,0,2.8,0.3,3.9,0.8c1.1,0.5,2.1,1.3,2.8,2.2l-3.2,2.8c-0.9-1.2-2-1.8-3.3-1.8
				c-1.1,0-1.9,0.3-2.5,1c-0.6,0.7-1,1.6-1,2.7c0,1.1,0.3,2.1,1,2.7c0.6,0.7,1.5,1,2.5,1c1.3,0,2.3-0.6,3.3-1.8l3.2,2.8
				c-0.7,1-1.7,1.7-2.8,2.2c-1.1,0.5-2.4,0.8-3.9,0.8C197.3,941.4,195.8,941.1,194.6,940.4z"/>
			<path class="st35" d="M221.6,926.1v15h-5V930H212v11.1h-5v-15H221.6z"/>
			<path class="st35" d="M237.4,926.1v15h-5v-3.6H231l-2.3,3.6h-5.3l3-4.3c-1-0.5-1.7-1.1-2.2-1.9c-0.5-0.8-0.8-1.8-0.8-3
				c0-1.2,0.3-2.2,0.8-3.1c0.6-0.9,1.4-1.5,2.4-2c1-0.5,2.3-0.7,3.7-0.7H237.4z M228.5,931.8c0,1.3,0.6,1.9,1.9,1.9h2V930h-2
				C229.1,930,228.5,930.6,228.5,931.8z"/>
			<path class="st35" d="M239.2,926.1h5.8l-1,9.2h-3.9L239.2,926.1z M240,940.5c-0.5-0.5-0.8-1.1-0.8-1.8c0-0.7,0.3-1.3,0.8-1.8
				c0.5-0.5,1.2-0.7,2-0.7c0.8,0,1.5,0.2,2,0.7c0.5,0.5,0.8,1.1,0.8,1.8c0,0.7-0.3,1.3-0.8,1.8c-0.5,0.5-1.2,0.7-2,0.7
				C241.2,941.3,240.5,941,240,940.5z"/>
		</g>
	</g>
	<g>
		<path class="st10" d="M240.2,903.7c-0.2-1.1-0.5-2.2-1.2-3.1c-0.4-0.6-1.1-1.2-1.7-1.6c-0.7-0.4-1.4-0.7-2.2-0.8
			c-0.3-0.1-0.7-0.1-1-0.1c-0.9,0-1.8,0.2-2.6,0.5c-0.9,0.3-1.7,0.8-2.4,1.4c-0.7,0.6-1.3,1.3-1.8,2.1c-0.2,0.2-0.4,0.6-0.5,0.9
			c-0.2,0.4-0.4,0.9-0.5,1.3c0-0.1-0.1-0.1-0.1-0.2c0-0.1-0.1-0.1-0.1-0.2c0,0,0,0,0,0c-0.4-0.4-0.9-0.8-1.4-1.1
			c-0.6-0.4-1.3-0.6-2-0.8c-0.3-0.1-0.5-0.1-0.8-0.1c-0.3,0-0.6-0.1-0.8-0.1c-0.1,0-0.2,0-0.4,0c-0.4,0-0.8,0.1-1.1,0.2
			c-0.4,0.1-0.8,0.3-1.2,0.5c-0.6,0.3-1.1,0.7-1.5,1.1c-0.4,0.3-0.7,0.7-0.9,1.1c-0.6,1-0.8,2-0.9,3.1c-0.1,0.7,0,1.4,0.2,2.1
			c0.1,0.7,0.4,1.3,0.7,1.8c0.3,0.5,0.6,0.9,1,1.4c0.5,0.6,1,1.1,1.6,1.7c0.9,0.8,1.9,1.6,2.9,2.3c1.1,0.8,2.3,1.5,3.5,2.2
			c4.8,2.6,8.6,3.5,8.7,2.3c0.1-1.6,0.6-3.3,1.4-4.7c0.1-0.2,0.2-0.3,0.3-0.5c0.8-1.2,1.6-2.5,2.4-3.7c0.9-1.4,1.7-2.9,2.3-4.4
			c0.2-0.7,0.4-1.4,0.5-2.1c0-0.3,0.1-0.7,0.1-1.1C240.3,904.6,240.3,904.1,240.2,903.7z"/>
		<g>
			<path class="st10" d="M238.5,903.6c0.2,0.1,0.2,0.4,0.1,0.5c-0.1,0.2-0.4,0.2-0.6,0.1c-0.2-0.1-0.2-0.4-0.1-0.5
				C238,903.5,238.3,903.5,238.5,903.6L238.5,903.6L238.5,903.6z"/>
			<path class="st10" d="M238.3,905.8c0.1,0.1,0.2,0.3,0.1,0.4c-0.1,0.1-0.3,0.2-0.4,0.1c-0.1-0.1-0.2-0.3-0.1-0.4
				C238,905.7,238.2,905.7,238.3,905.8L238.3,905.8L238.3,905.8z"/>
			<path class="st10" d="M237.6,908c0.1,0.1,0.1,0.2,0,0.3c-0.1,0.1-0.2,0.1-0.3,0c-0.1-0.1-0.1-0.2,0-0.3
				C237.3,908,237.5,908,237.6,908L237.6,908L237.6,908z"/>
			<path class="st10" d="M236.3,909.7c0.1,0.1,0.1,0.2,0.1,0.3c-0.1,0.1-0.2,0.1-0.3,0.1c-0.1-0.1-0.1-0.2-0.1-0.3
				C236.1,909.7,236.2,909.6,236.3,909.7L236.3,909.7L236.3,909.7z"/>
		</g>
	</g>
	<g>
		<g>
			
				<radialGradient id="SVGID_7_" cx="-1660.6293" cy="6312.4868" r="72.6794" gradientTransform="matrix(0.5538 0 0 4.348000e-02 1059.4963 684.8953)" gradientUnits="userSpaceOnUse">
				<stop  offset="0.1034" style="stop-color:#E0E3E2"/>
				<stop  offset="0.2677" style="stop-color:#E9EBEA"/>
				<stop  offset="0.684" style="stop-color:#F9FAFA"/>
				<stop  offset="1" style="stop-color:#FFFFFF"/>
			</radialGradient>
			<ellipse class="st12" cx="139.8" cy="959.4" rx="56.8" ry="2.7"/>
			<g>
				<g>
					<path class="st15" d="M138.2,914.4c1.7,4.7,6.2,8,11.4,8c5.3,0,9.7-3.3,11.4-8"/>
					<g>
						<path class="st16" d="M146.6,906.8c0,0.8-0.7,1.5-1.5,1.5c-0.8,0-1.5-0.7-1.5-1.5c0-0.8,0.7-1.5,1.5-1.5
							C145.9,905.3,146.6,906,146.6,906.8z"/>
						<path class="st16" d="M155.7,906.8c0,0.8-0.7,1.5-1.5,1.5c-0.8,0-1.5-0.7-1.5-1.5c0-0.8,0.7-1.5,1.5-1.5
							C155,905.3,155.7,906,155.7,906.8z"/>
					</g>
				</g>
				<g>
					<path class="st17" d="M133.2,932.6c-1.4,3.8-5.1,6.6-9.4,6.6c-4.3,0-8-2.7-9.4-6.6"/>
					<g>
						<path class="st18" d="M126.3,926.3c0,0.7,0.6,1.2,1.2,1.2s1.2-0.6,1.2-1.2c0-0.7-0.6-1.2-1.2-1.2S126.3,925.6,126.3,926.3z"/>
						<path class="st18" d="M118.8,926.3c0,0.7,0.6,1.2,1.2,1.2c0.7,0,1.2-0.6,1.2-1.2c0-0.7-0.6-1.2-1.2-1.2
							C119.4,925.1,118.8,925.6,118.8,926.3z"/>
					</g>
					<circle class="st19" cx="123.8" cy="931" r="16.8"/>
				</g>
				<g>
					<g>
						<path class="st20" d="M139.7,941.2c0.9,2.4,3.2,4.1,5.9,4.1c2.7,0,5.1-1.7,5.9-4.1"/>
						<g>
							<path class="st21" d="M144.1,937.3c0,0.4-0.4,0.8-0.8,0.8c-0.4,0-0.8-0.4-0.8-0.8c0-0.4,0.4-0.8,0.8-0.8
								C143.7,936.5,144.1,936.8,144.1,937.3z"/>
							<path class="st21" d="M148.8,937.3c0,0.4-0.4,0.8-0.8,0.8c-0.4,0-0.8-0.4-0.8-0.8c0-0.4,0.4-0.8,0.8-0.8
								C148.4,936.5,148.8,936.8,148.8,937.3z"/>
						</g>
					</g>
				</g>
				<circle class="st22" cx="148.7" cy="911.5" r="20.1"/>
				<circle class="st23" cx="146.1" cy="939.8" r="10.6"/>
			</g>
		</g>
	</g>
</g>
<text transform="matrix(1 0 0 1 108.9398 81.2081)"><tspan x="0" y="0" class="st35 st69 st70">  </tspan><tspan x="0" y="10.5" class="st35 st69 st70">   </tspan></text>
<text transform="matrix(1 0 0 1 109.2003 103.8005)" class="st35 st71 st72"></text>
<g>
	<polygon class="st27" points="151.7,39.2 139.6,39.2 139.6,27.1 127.9,27.1 127.9,39.2 115.8,39.2 115.8,51 127.9,51 127.9,63.1 
		139.6,63.1 139.6,51 151.7,51 	"/>
	
		<radialGradient id="SVGID_8_" cx="-1965.3282" cy="2414.8794" r="59.465" gradientTransform="matrix(0.296 0 0 5.423031e-02 716.5898 -64.319)" gradientUnits="userSpaceOnUse">
		<stop  offset="0.1034" style="stop-color:#E0E3E2"/>
		<stop  offset="0.2677" style="stop-color:#E9EBEA"/>
		<stop  offset="0.684" style="stop-color:#F9FAFA"/>
		<stop  offset="1" style="stop-color:#FFFFFF"/>
	</radialGradient>
	<ellipse class="st14" cx="134.9" cy="66.6" rx="24.8" ry="2.7"/>
</g>
<path class="st9" d="M155.2,27c0,0-0.6,5.8-5.2,6.2c4.6,0.4,5.2,6.2,5.2,6.2s0.6-5.8,5.2-6.2C155.8,32.8,155.2,27,155.2,27z"/>
<path class="st9" d="M164,38.1c0,0-0.4,3.6-3.2,3.9c2.9,0.3,3.2,3.9,3.2,3.9s0.4-3.6,3.2-3.9C164.4,41.8,164,38.1,164,38.1z"/>
<path class="st0" d="M177.4,103.9c12.6,1.2,33.5,5,55.4,18c12.9,7.7,22.4,16.3,29,23.4"/>
<path class="st29" d="M63.2,601.6l41.4,18.6L63.1,639l0.1-16.1l33-2.5l-33.1-2.6C63.1,617.8,63.1,601.5,63.2,601.6z"/>
<radialGradient id="SVGID_9_" cx="-1740.269" cy="5301.7959" r="59.0436" gradientTransform="matrix(0.5538 0 0 4.348000e-02 1059.4963 289.3917)" gradientUnits="userSpaceOnUse">
	<stop  offset="0.1034" style="stop-color:#E0E3E2"/>
	<stop  offset="0.2677" style="stop-color:#E9EBEA"/>
	<stop  offset="0.684" style="stop-color:#F9FAFA"/>
	<stop  offset="1" style="stop-color:#FFFFFF"/>
</radialGradient>
<ellipse class="st28" cx="95.7" cy="519.9" rx="46.2" ry="2.2"/>
<g>
	<path class="st35" d="M228,357.4c-0.7-0.4-1.3-1-1.8-1.7c-0.4-0.7-0.6-1.5-0.6-2.4c0-0.9,0.2-1.7,0.6-2.4c0.4-0.7,1-1.3,1.8-1.7
		c0.7-0.4,1.6-0.6,2.5-0.6c0.9,0,1.8,0.2,2.5,0.6c0.7,0.4,1.3,1,1.8,1.7c0.4,0.7,0.6,1.5,0.6,2.4c0,0.9-0.2,1.7-0.6,2.4
		c-0.4,0.7-1,1.3-1.8,1.7s-1.6,0.6-2.5,0.6C229.6,358,228.8,357.8,228,357.4z M232.2,356.1c0.5-0.3,0.9-0.7,1.2-1.1
		c0.3-0.5,0.4-1,0.4-1.7c0-0.6-0.1-1.2-0.4-1.7c-0.3-0.5-0.7-0.9-1.1-1.2c-0.5-0.3-1-0.4-1.6-0.4c-0.6,0-1.2,0.1-1.6,0.4
		c-0.5,0.3-0.9,0.7-1.2,1.1c-0.3,0.5-0.4,1-0.4,1.7c0,0.6,0.1,1.2,0.4,1.7c0.3,0.5,0.7,0.9,1.1,1.2c0.5,0.3,1,0.4,1.6,0.4
		C231.2,356.5,231.7,356.4,232.2,356.1z"/>
	<path class="st35" d="M246.2,356.4l0,3.4l-1.6,0l0-1.9l-7,0l0,1.9l-1.6,0l0-3.4l0.4,0c0.6,0,1-0.4,1.2-1.3c0.2-0.8,0.4-2,0.4-3.5
		l0.1-2.9l6.7,0l0,7.7L246.2,356.4z M239.2,354.7c-0.1,0.8-0.4,1.4-0.7,1.7l4.6,0l0-6.3l-3.6,0l-0.1,1.6
		C239.5,353,239.4,354,239.2,354.7z"/>
	<path class="st35" d="M249.5,357.4c-0.7-0.4-1.3-1-1.8-1.7c-0.4-0.7-0.6-1.5-0.6-2.4c0-0.9,0.2-1.7,0.6-2.4c0.4-0.7,1-1.3,1.8-1.7
		c0.7-0.4,1.6-0.6,2.5-0.6c0.9,0,1.8,0.2,2.5,0.6c0.7,0.4,1.3,1,1.8,1.7c0.4,0.7,0.6,1.5,0.6,2.4c0,0.9-0.2,1.7-0.6,2.4
		c-0.4,0.7-1,1.3-1.8,1.7s-1.6,0.6-2.5,0.6C251,358,250.2,357.8,249.5,357.4z M253.6,356.1c0.5-0.3,0.9-0.7,1.2-1.1
		c0.3-0.5,0.4-1,0.4-1.7c0-0.6-0.1-1.2-0.4-1.7c-0.3-0.5-0.7-0.9-1.1-1.2c-0.5-0.3-1-0.4-1.6-0.4c-0.6,0-1.2,0.1-1.6,0.4
		c-0.5,0.3-0.9,0.7-1.2,1.1c-0.3,0.5-0.4,1-0.4,1.7c0,0.6,0.1,1.2,0.4,1.7c0.3,0.5,0.7,0.9,1.1,1.2c0.5,0.3,1,0.4,1.6,0.4
		C252.6,356.5,253.1,356.4,253.6,356.1z"/>
	<path class="st35" d="M258.8,348.8l7.1,0l0,1.4l-5.4,0l0,2.2l2.7,0c1.1,0,1.9,0.2,2.5,0.7c0.6,0.5,0.9,1.1,0.9,2
		c0,0.9-0.3,1.6-0.9,2.1c-0.6,0.5-1.5,0.7-2.7,0.7l-4.1,0L258.8,348.8z M262.8,356.6c0.7,0,1.1-0.1,1.5-0.4c0.3-0.3,0.5-0.6,0.5-1.1
		c0-0.9-0.7-1.4-2-1.4l-2.4,0l0,2.9L262.8,356.6z"/>
	<path class="st35" d="M274.2,349.2c0.6,0.3,1,0.6,1.3,1.1c0.3,0.5,0.5,1.1,0.5,1.7c0,0.7-0.2,1.2-0.5,1.7c-0.3,0.5-0.8,0.9-1.4,1.1
		c-0.6,0.3-1.3,0.4-2.1,0.4l-2.1,0l0,2.6l-1.7,0l0-9.1l3.8,0C273,348.8,273.6,348.9,274.2,349.2z M273.8,353.4
		c0.4-0.3,0.6-0.8,0.6-1.3c0-0.6-0.2-1-0.6-1.3c-0.4-0.3-0.9-0.5-1.7-0.5l-2,0l0,3.6l2,0C272.8,353.9,273.4,353.7,273.8,353.4z"/>
	<path class="st35" d="M284.5,356.5l0,1.4l-6.9,0l0-9.1l6.7,0l0,1.4l-5,0l0,2.4l4.4,0l0,1.4l-4.4,0l0,2.5L284.5,356.5z"/>
	<path class="st35" d="M294.5,348.8l0,9.1l-1.7,0l0-3.9l-4.7,0l0,3.9l-1.7,0l0-9.1l1.7,0l0,3.8l4.7,0l0-3.8L294.5,348.8z"/>
	<path class="st35" d="M297.1,348.8l1.7,0l0,6.5l4.9-6.5l1.6,0l0,9.1l-1.7,0l0-6.5l-4.9,6.5l-1.6,0L297.1,348.8z"/>
	<path class="st35" d="M314.7,356.6l0,1.4l-6.9,0l0-9.1l6.7,0l0,1.4l-5,0l0,2.4l4.4,0l0,1.4l-4.4,0l0,2.5L314.7,356.6z"/>
</g>
<circle class="st2" cx="267.4" cy="316.3" r="21.5"/>
<g>
	<g>
		<path class="st3" d="M261.6,327.7c-0.7,0-1.1,0-1.1,0h-0.7v-12.6l0.2-0.2c1.4-1.4,2.4-3.2,3.5-4.9c0.2-0.4,0.4-0.8,0.7-1.1l0,0
			c0.4-0.6,0.4-2,0.4-3c0-1,0-1.8,0.3-2.3c0.3-0.4,0.7-0.7,1.3-0.7c1-0.1,2,0.4,2.5,1.4c1.5,3.1,1.2,5,0.7,7.6
			c-0.1,0.4-0.1,0.7-0.2,1.1c1,0,2.1,0,3.1,0c1.1,0,2.3,0,3.5,0c0.9,0,2,0.2,2.6,0.9c0.2,0.3,0.5,0.8,0.3,1.5
			c-0.1,0.8-0.5,1.4-1.1,1.9c0.4,0.4,0.6,1,0.5,1.6c-0.1,0.7-0.5,1.4-1.1,1.8c0.3,0.4,0.5,0.8,0.5,1.4c0,0.8-0.5,1.6-1.1,2.1
			c0.4,0.5,0.5,1,0.4,1.6c-0.3,1.2-1.6,2.1-2.9,2.1C270.5,327.7,264.2,327.7,261.6,327.7z M261.2,326.3c2.2,0,9.1,0,12.5,0
			c0.8,0,1.5-0.6,1.6-1.1c0-0.1,0.1-0.3-0.3-0.6c-0.4-0.1-0.6-0.5-0.6-0.9c0-0.4,0.4-0.7,0.8-0.8c0.5-0.2,0.8-0.7,0.8-1.1
			c0-0.4-0.3-0.6-0.5-0.6l-0.1,0l0,0c-0.4-0.2-0.5-0.5-0.5-0.9c0.1-0.4,0.5-0.6,0.8-0.7c0.4-0.1,0.8-0.6,0.8-1
			c0-0.4-0.1-0.5-0.3-0.6l0,0c0,0,0,0-0.1,0c-0.2-0.1-0.5-0.2-0.6-0.6l0-0.1l0-0.1c-0.1-0.4,0.1-0.8,0.5-0.9l0.1,0l0.1,0
			c0.6-0.2,0.9-0.6,1-1.2l0,0c0-0.3,0-0.4-0.1-0.4c-0.1-0.2-0.5-0.3-1.6-0.4c-1.1,0-2.3,0-3.4,0c-1.3,0-2.7,0-4,0l-0.8,0l0.1-0.8
			c0.1-0.7,0.2-1.4,0.3-1.9c0.5-2.6,0.8-4.1-0.5-6.8c-0.2-0.4-0.7-0.7-1.1-0.6c-0.2,0-0.3,0.1-0.3,0.1c-0.1,0.2-0.1,1-0.1,1.6
			c0,1.3,0.1,2.8-0.6,3.8c-0.2,0.4-0.4,0.7-0.6,1.1c-1,1.8-2,3.6-3.5,5V326.3z"/>
	</g>
	<g>
		<path class="st3" d="M260,327.7h-2.7c-0.6,0-1.2-0.5-1.2-1.2v-10.6c0-0.6,0.5-1.2,1.2-1.2h2.7c0.6,0,1.2,0.5,1.2,1.2v10.6
			C261.1,327.2,260.6,327.7,260,327.7z M257.5,326.3h2.3v-10.2h-2.3V326.3z"/>
	</g>
</g>
<radialGradient id="SVGID_10_" cx="-1425.2189" cy="4893.3389" r="59.465" gradientTransform="matrix(0.5538 0 0 4.348000e-02 1059.4963 129.5543)" gradientUnits="userSpaceOnUse">
	<stop  offset="0.1034" style="stop-color:#E0E3E2"/>
	<stop  offset="0.2677" style="stop-color:#E9EBEA"/>
	<stop  offset="0.684" style="stop-color:#F9FAFA"/>
	<stop  offset="1" style="stop-color:#FFFFFF"/>
</radialGradient>
<ellipse class="st31" cx="270.2" cy="342.3" rx="46.5" ry="2.2"/>
</svg>
