<svg xmlns="http://www.w3.org/2000/svg" xmlns:xlink="http://www.w3.org/1999/xlink" viewBox="0 0 1120 1341.03">
    <defs>
        <style>.cls-1{isolation:isolate;}.cls-13,.cls-14,.cls-17,.cls-19,.cls-2,.cls-21,.cls-22,.cls-24,.cls-25,.cls-26,.cls-27,.cls-29,.cls-30{fill:none;}.cls-13,.cls-19,.cls-2,.cls-21,.cls-26,.cls-27,.cls-29,.cls-30{stroke:#ffcb57;}.cls-2,.cls-26,.cls-27,.cls-30{stroke-miterlimit:10;}.cls-2{stroke-width:3.61px;}.cls-3{fill:#ffcb57;}.cls-12,.cls-15,.cls-16,.cls-28,.cls-31,.cls-32,.cls-36,.cls-4,.cls-6,.cls-7,.cls-8{mix-blend-mode:darken;opacity:0.9;}.cls-4{fill:url(#radial-gradient);}.cls-33,.cls-5{fill:#32a9fe;}.cls-6{fill:url(#radial-gradient-2);}.cls-7{fill:url(#radial-gradient-3);}.cls-8{fill:url(#radial-gradient-4);}.cls-9{fill:#fff9db;}.cls-10,.cls-24,.cls-25,.cls-35,.cls-9{mix-blend-mode:multiply;}.cls-11{fill:#ffd7e9;}.cls-12{fill:url(#radial-gradient-5);}.cls-13,.cls-14,.cls-17,.cls-19,.cls-22,.cls-25,.cls-27,.cls-29{stroke-linecap:round;}.cls-13,.cls-14,.cls-17,.cls-19,.cls-21,.cls-22,.cls-24,.cls-25,.cls-29{stroke-linejoin:round;}.cls-13{stroke-width:3.61px;}.cls-14,.cls-17,.cls-24{stroke:#ff7db9;}.cls-14{stroke-width:2.13px;stroke-dasharray:2.95 5.41;}.cls-15{fill:url(#radial-gradient-6);}.cls-16{fill:url(#radial-gradient-7);}.cls-17,.cls-19,.cls-21,.cls-24{stroke-width:4.9px;}.cls-18{fill:#ff7db9;}.cls-20{fill:#ffcb00;}.cls-22,.cls-25{stroke:#49c4ff;}.cls-22{stroke-width:3.85px;}.cls-23{fill:#49c4ff;}.cls-25{stroke-width:3.77px;}.cls-26{stroke-width:2.5px;}.cls-27,.cls-29{stroke-width:3px;}.cls-28{fill:url(#radial-gradient-8);}.cls-30{stroke-width:3.08px;}.cls-31{fill:url(#radial-gradient-9);}.cls-32{fill:url(#radial-gradient-10);}.cls-33{font-size:24px;font-family:Montserrat-Medium, Montserrat;font-weight:500;letter-spacing:-0.03em;}.cls-34{letter-spacing:-0.01em;}.cls-35{fill:#d8f2ff;}.cls-36{fill:url(#radial-gradient-11);}</style>
        <radialGradient id="radial-gradient" cx="-826.12" cy="5429.61" r="129.27" gradientTransform="translate(773.27 510.46) scale(0.55 0.04)" gradientUnits="userSpaceOnUse">
            <stop offset="0.1" stop-color="#e0e3e2" />
            <stop offset="0.27" stop-color="#e9ebea" />
            <stop offset="0.68" stop-color="#f9fafa" />
            <stop offset="1" stop-color="#fff" />
        </radialGradient>
        <radialGradient id="radial-gradient-2" cx="310.35" cy="5075.45" r="129.27" gradientTransform="translate(773.27 371.87) scale(0.55 0.04)" xlink:href="#radial-gradient" />
        <radialGradient id="radial-gradient-3" cx="341" cy="3200.39" r="129.27" gradientTransform="translate(573.51 642.07) scale(0.64 0.06)" xlink:href="#radial-gradient" />
        <radialGradient id="radial-gradient-4" cx="-1012.31" cy="6420.12" r="129.27" gradientTransform="translate(773.27 898.07) scale(0.55 0.04)" xlink:href="#radial-gradient" />
        <radialGradient id="radial-gradient-5" cx="-314.45" cy="6100.85" r="129.27" gradientTransform="translate(773.27 773.13) scale(0.55 0.04)" xlink:href="#radial-gradient" />
        <radialGradient id="radial-gradient-6" cx="-1077.08" cy="6024.06" r="129.27" gradientTransform="translate(773.27 743.08) scale(0.55 0.04)" xlink:href="#radial-gradient" />
        <radialGradient id="radial-gradient-7" cx="21.93" cy="6688.92" r="158" gradientTransform="translate(773.27 1003.25) scale(0.55 0.04)" xlink:href="#radial-gradient" />
        <radialGradient id="radial-gradient-8" cx="-609.37" cy="4047.79" r="129.27" gradientTransform="translate(781.08 -30.27) scale(0.49 0.04)" xlink:href="#radial-gradient" />
        <radialGradient id="radial-gradient-9" cx="71.53" cy="2629.5" r="129.27" gradientTransform="translate(264.97 178.95) scale(0.3 0.05)" xlink:href="#radial-gradient" />
        <radialGradient id="radial-gradient-10" cx="-219.04" cy="4663.09" r="129.27" gradientTransform="translate(773.27 210.51) scale(0.55 0.04)" xlink:href="#radial-gradient" />
        <radialGradient id="radial-gradient-11" cx="-1412.92" cy="2955.32" r="129.27" gradientTransform="translate(824.78 337.98) scale(0.5 0.05)" xlink:href="#radial-gradient" />
    </defs>
    <g class="cls-1">
        <g id="Layer_1" data-name="Layer 1">
            <g id="BG_web" data-name="BG web">
                <circle class="cls-2" cx="309.57" cy="690.03" r="46.68" />
                <path class="cls-3" d="M297.09,714.81h-3.95V687.48l.46-.44c3.06-3,5.32-6.92,7.5-10.74.47-.83.94-1.65,1.41-2.45l.05-.08c.94-1.38.86-4.28.81-6.6s-.1-4,.59-5a3.68,3.68,0,0,1,2.74-1.61,5.31,5.31,0,0,1,5.45,3c3.32,6.67,2.53,10.83,1.44,16.6-.15.79-.3,1.6-.45,2.45,2.27.06,4.57,0,6.81,0,2.49,0,5.06-.06,7.6,0,1.93.06,4.32.33,5.62,1.92a3.92,3.92,0,0,1,.75,3.24,5.94,5.94,0,0,1-2.37,4,4.15,4.15,0,0,1,1.09,3.48,6,6,0,0,1-2.34,3.93,4.29,4.29,0,0,1,1.05,3,5.82,5.82,0,0,1-2.4,4.49,3.84,3.84,0,0,1,.81,3.52,6.79,6.79,0,0,1-6.41,4.65Zm-1-3h27.21a3.88,3.88,0,0,0,3.52-2.4c.06-.23.19-.75-.72-1.29a1.8,1.8,0,0,1-1.29-1.93,2,2,0,0,1,1.78-1.68,2.79,2.79,0,0,0,1.73-2.44,1.27,1.27,0,0,0-1-1.36l-.11,0-.11-.05a1.75,1.75,0,0,1-1-2,2.17,2.17,0,0,1,1.77-1.52,3,3,0,0,0,1.78-2.25,1.18,1.18,0,0,0-.62-1.29l-.07-.05-.12,0a2.38,2.38,0,0,1-1.39-1.23l-.05-.12,0-.12a1.82,1.82,0,0,1,1-2.06l.14-.07.15,0a2.87,2.87,0,0,0,2.25-2.57v0c.1-.59-.06-.78-.12-.86-.28-.34-1.09-.76-3.4-.83-2.48-.07-5,0-7.48,0-2.83,0-5.77.07-8.66-.06l-1.67-.07.26-1.65c.24-1.54.51-3,.75-4.21,1-5.58,1.69-8.95-1.18-14.72a2.36,2.36,0,0,0-2.38-1.36,1,1,0,0,0-.62.25,14.37,14.37,0,0,0-.13,3.38c.07,2.88.15,6.14-1.29,8.31-.46.78-.91,1.58-1.37,2.38-2.18,3.81-4.43,7.76-7.56,11Z" />
                <path class="cls-3" d="M293.5,714.81h-5.8a2.56,2.56,0,0,1-2.55-2.56V689.18a2.56,2.56,0,0,1,2.55-2.56h5.8a2.56,2.56,0,0,1,2.56,2.56v23.07A2.56,2.56,0,0,1,293.5,714.81Zm-5.37-3h4.95V689.6h-4.95Z" />
                <ellipse class="cls-4" cx="315.76" cy="746.54" rx="101.07" ry="4.73" />
                <path class="cls-5" d="M230,775.18a8.87,8.87,0,0,1-3.37-3.37,10.13,10.13,0,0,1,0-9.64A8.8,8.8,0,0,1,230,758.8a10.19,10.19,0,0,1,9.67,0,8.94,8.94,0,0,1,3.37,3.37,10.06,10.06,0,0,1,0,9.64,9,9,0,0,1-3.37,3.37,10.19,10.19,0,0,1-9.67,0Zm7.6-3.11a5.19,5.19,0,0,0,1.93-2.06,6.86,6.86,0,0,0,0-6,5.3,5.3,0,0,0-9.38,0,6.86,6.86,0,0,0,0,6,5.39,5.39,0,0,0,7.45,2.06Z" />
                <path class="cls-5" d="M265.26,772.66v7.2h-3.7v-3.77H249.4v3.77h-3.69l0-7.2h.69c1,0,1.77-.83,2.19-2.39a30.65,30.65,0,0,0,.79-6.69l.2-5.69h13.24v14.77Zm-12.86-3.24a7.47,7.47,0,0,1-1.2,3.24h7.7V761.32H253l-.08,2.65A38.64,38.64,0,0,1,252.4,769.42Z" />
                <path class="cls-5" d="M271.94,775.18a8.8,8.8,0,0,1-3.37-3.37,10.13,10.13,0,0,1,0-9.64,8.73,8.73,0,0,1,3.37-3.37,9.59,9.59,0,0,1,4.84-1.22,9.49,9.49,0,0,1,4.82,1.22,9,9,0,0,1,3.38,3.37,10.06,10.06,0,0,1,0,9.64,9,9,0,0,1-3.38,3.37,9.59,9.59,0,0,1-4.82,1.22A9.69,9.69,0,0,1,271.94,775.18Zm7.59-3.11a5.14,5.14,0,0,0,1.94-2.06,6.86,6.86,0,0,0,0-6,5.3,5.3,0,0,0-9.38,0,6.86,6.86,0,0,0,0,6,5.38,5.38,0,0,0,7.44,2.06Z" />
                <path class="cls-5" d="M289.9,757.89h13.91v3.35h-9.95V765h4.78a7.21,7.21,0,0,1,4.76,1.38,4.89,4.89,0,0,1,1.64,4,5.2,5.2,0,0,1-1.82,4.24,7.85,7.85,0,0,1-5.15,1.51H289.9Zm8,15.08a3.68,3.68,0,0,0,2.34-.64,2.21,2.21,0,0,0,.81-1.86c0-1.59-1.05-2.39-3.15-2.39h-4V773Z" />
                <path class="cls-5" d="M320.12,758.7a6,6,0,0,1,2.6,2.28,7.21,7.21,0,0,1,0,7,5.93,5.93,0,0,1-2.6,2.29,9.24,9.24,0,0,1-4,.79h-3.47v5h-4v-18.2h7.46A9.09,9.09,0,0,1,320.12,758.7Zm-1.47,8.12a3.38,3.38,0,0,0,0-4.68,4,4,0,0,0-2.73-.82h-3.25v6.32h3.25A4,4,0,0,0,318.65,766.82Z" />
                <path class="cls-5" d="M340.22,772.71v3.38H326.88v-18.2h13v3.38h-9.06v4h8v3.28h-8v4.21Z" />
                <path class="cls-5" d="M359.87,757.89v18.2h-4v-7.46h-7.83v7.46h-4v-18.2h4v7.17h7.83v-7.17Z" />
                <path class="cls-5" d="M364.79,757.89h4v11.86L377,757.89h3.74v18.2h-3.94V764.26l-8.22,11.83h-3.77Z" />
                <path class="cls-5" d="M399,772.71v3.38H385.62v-18.2h13v3.38h-9.06v4h8v3.28h-8v4.21Z" />
                <path class="cls-5" d="M897.57,642.18v17.56h-4V645.49h-7.92v14.25h-4V642.18Z" />
                <path class="cls-5" d="M904.13,659.05a6.72,6.72,0,0,1-2.65-2.47,7.26,7.26,0,0,1,0-7.18,6.72,6.72,0,0,1,2.65-2.47,8.62,8.62,0,0,1,7.63,0,6.76,6.76,0,0,1,2.64,2.47,7.26,7.26,0,0,1,0,7.18,6.76,6.76,0,0,1-2.64,2.47,8.62,8.62,0,0,1-7.63,0Zm6.29-3.34a4.33,4.33,0,0,0,0-5.44,3.25,3.25,0,0,0-2.47-1,3.29,3.29,0,0,0-2.48,1,4.26,4.26,0,0,0,0,5.44,3.29,3.29,0,0,0,2.48,1A3.25,3.25,0,0,0,910.42,655.71Z" />
                <path class="cls-5" d="M931.79,646.25v11.23q0,3.71-1.93,5.52a8,8,0,0,1-5.64,1.8,14,14,0,0,1-3.71-.48A8,8,0,0,1,917.6,663l1.56-2.81a6.14,6.14,0,0,0,2.15,1.11,8.48,8.48,0,0,0,2.61.42,4.24,4.24,0,0,0,3-.92,3.65,3.65,0,0,0,1-2.77v-.58a5.47,5.47,0,0,1-4.26,1.68,7.2,7.2,0,0,1-3.4-.81,6.18,6.18,0,0,1-2.44-2.29,6.84,6.84,0,0,1,0-6.82,6.21,6.21,0,0,1,2.44-2.3,7.2,7.2,0,0,1,3.4-.81,5.33,5.33,0,0,1,4.46,1.93v-1.73ZM926.94,655a3.39,3.39,0,0,0,0-4.79,3.6,3.6,0,0,0-2.54-.91,3.65,3.65,0,0,0-2.56.91,3.37,3.37,0,0,0,0,4.79,3.65,3.65,0,0,0,2.56.91A3.6,3.6,0,0,0,926.94,655Z" />
                <path class="cls-5" d="M941.45,654.62h-2v5.12h-3.88V641.13h3.88v10.36h2.08l3.69-5.24h4.16l-4.74,6.47,5,7h-4.61Z" />
                <path class="cls-5" d="M963,646.91a6.21,6.21,0,0,1,2.42,2.43,8,8,0,0,1,0,7.3,6.21,6.21,0,0,1-2.42,2.43,6.82,6.82,0,0,1-3.42.87,5.22,5.22,0,0,1-4.06-1.63v6.29h-3.91V646.25h3.73v1.55a5.19,5.19,0,0,1,4.24-1.75A6.82,6.82,0,0,1,963,646.91Zm-1.63,8.8a4.3,4.3,0,0,0,0-5.44,3.5,3.5,0,0,0-4.94,0,4.33,4.33,0,0,0,0,5.44,3.5,3.5,0,0,0,4.94,0Z" />
                <path class="cls-5" d="M982,654.1h-10.2a3.21,3.21,0,0,0,1.3,2,4.37,4.37,0,0,0,2.56.72,5.2,5.2,0,0,0,1.87-.31,4.59,4.59,0,0,0,1.51-1l2.08,2.26a7,7,0,0,1-5.56,2.18,8.87,8.87,0,0,1-4-.89,6.63,6.63,0,0,1-2.71-2.47,7.25,7.25,0,0,1,0-7.16,6.58,6.58,0,0,1,2.58-2.49,7.63,7.63,0,0,1,3.67-.89,7.5,7.5,0,0,1,3.59.86,6.17,6.17,0,0,1,2.52,2.44,7.3,7.3,0,0,1,.91,3.7C982.12,653.09,982.09,653.44,982,654.1Zm-9.15-4.34a3.17,3.17,0,0,0-1.1,2h6.64a3.22,3.22,0,0,0-1.1-2,3.31,3.31,0,0,0-2.21-.77A3.39,3.39,0,0,0,972.89,649.76Z" />
                <path class="cls-5" d="M997.35,647.55a6,6,0,0,1,1.54,4.46v7.73H995v-7.13a3.52,3.52,0,0,0-.7-2.39,2.57,2.57,0,0,0-2-.79,3.11,3.11,0,0,0-2.36.92,3.8,3.8,0,0,0-.88,2.72v6.67H985.1V646.25h3.74v1.57a5.29,5.29,0,0,1,1.93-1.31,6.7,6.7,0,0,1,2.53-.46A5.57,5.57,0,0,1,997.35,647.55Z" />
                <path class="cls-5" d="M1015.61,646.25v13.49h-3.73v-1.58a5,5,0,0,1-1.85,1.33,6,6,0,0,1-2.32.45,5.77,5.77,0,0,1-4.22-1.53,6.06,6.06,0,0,1-1.57-4.54v-7.62h3.91v7q0,3.26,2.74,3.26a3,3,0,0,0,2.28-.91,3.87,3.87,0,0,0,.85-2.73v-6.66Z" />
                <path class="cls-5" d="M1019,659.23a2.36,2.36,0,0,1-.71-1.75,2.28,2.28,0,0,1,.71-1.74,2.56,2.56,0,0,1,3.45,0,2.28,2.28,0,0,1,.71,1.74,2.36,2.36,0,0,1-.71,1.75,2.45,2.45,0,0,1-3.45,0Z" />
                <path class="cls-5" d="M1036.6,648a5.59,5.59,0,0,1,2.25,2.22,6.83,6.83,0,0,1,.78,3.31,6.31,6.31,0,0,1-.93,3.42,6.2,6.2,0,0,1-2.62,2.31,8.68,8.68,0,0,1-3.82.82,7.05,7.05,0,0,1-5.55-2.27q-2-2.28-2-6.66a10.73,10.73,0,0,1,1.77-6.48,8.49,8.49,0,0,1,5.43-3.17l6.41-1.28.53,3.36-5.67,1.12a6.93,6.93,0,0,0-3.42,1.51,4.65,4.65,0,0,0-1.32,3,6,6,0,0,1,2.11-1.46,6.74,6.74,0,0,1,2.68-.52A7.07,7.07,0,0,1,1036.6,648Zm-1.89,8.06a3.47,3.47,0,0,0,.91-2.48,3.25,3.25,0,0,0-.91-2.43,3.31,3.31,0,0,0-2.42-.9,3.39,3.39,0,0,0-2.46.9,3.22,3.22,0,0,0-.93,2.43,3.41,3.41,0,0,0,1,2.5,3.26,3.26,0,0,0,2.43,1A3.14,3.14,0,0,0,1034.71,656Z" />
                <path class="cls-5" d="M1043,658.83a3.58,3.58,0,0,1-1.81-3.21,3,3,0,0,1,.77-2.17,4.35,4.35,0,0,1,1.82-1.12,20.94,20.94,0,0,1,2.68-.64,14.93,14.93,0,0,0,2.22-.54.93.93,0,0,0,.69-.89,1,1,0,0,0-.65-1,4.09,4.09,0,0,0-1.81-.33,9.52,9.52,0,0,0-2.23.28,8.84,8.84,0,0,0-1.93.65l-1.13-2.63a11.11,11.11,0,0,1,2.54-.94,11.25,11.25,0,0,1,2.75-.34,8,8,0,0,1,4.49,1.15,3.69,3.69,0,0,1,1.76,3.26,3,3,0,0,1-.78,2.21,4.46,4.46,0,0,1-1.84,1.14,19.15,19.15,0,0,1-2.72.61,14.65,14.65,0,0,0-2.19.54.89.89,0,0,0-.67.84,1,1,0,0,0,.69,1,4.3,4.3,0,0,0,1.84.33,10.14,10.14,0,0,0,2.66-.37,9.5,9.5,0,0,0,2.23-.84l1.13,2.61a10.73,10.73,0,0,1-2.8,1.13,12.25,12.25,0,0,1-3.12.4A8.44,8.44,0,0,1,1043,658.83Z" />
                <path class="cls-3" d="M968.66,534.55H943.39a1.89,1.89,0,0,1,0-3.77h25.27a1.89,1.89,0,0,1,0,3.77Z" />
                <path class="cls-3" d="M968.66,567.37h-9.15a1.88,1.88,0,0,1,0-3.76h9.15a1.88,1.88,0,0,1,0,3.76Z" />
                <path class="cls-3" d="M968.44,542.81H946.82a1.88,1.88,0,0,1,0-3.76h21.62a1.88,1.88,0,1,1,0,3.76Z" />
                <path class="cls-3" d="M968.66,551H943.39a1.88,1.88,0,0,1,0-3.76h25.27a1.88,1.88,0,0,1,0,3.76Z" />
                <path class="cls-3" d="M979.33,518.54a1.9,1.9,0,0,0-.74-1.5l-22.13-22.12h0a1.78,1.78,0,0,0-.38-.28l-.11-.06a2,2,0,0,0-.45-.16h0l-.36,0H911.82a1.89,1.89,0,0,0-1.89,1.88v19c.71-.07,1.42-.1,2.15-.1.54,0,1.08,0,1.62.06V498.13h39.55v20.41a1.89,1.89,0,0,0,1.88,1.89h20.42V580H913.7V562.86c-.54,0-1.08.07-1.62.07-.73,0-1.44,0-2.15-.1v19a1.89,1.89,0,0,0,1.89,1.88h65.61a1.88,1.88,0,0,0,1.88-1.88v-63A2,2,0,0,0,979.33,518.54ZM957,516.66V500.79l15.86,15.87Z" />
                <path class="cls-3" d="M909,549.48a1.91,1.91,0,0,1-1.24-.47l-8.33-7.32a1.88,1.88,0,1,1,2.48-2.83l6.9,6.06,13.23-15.63a1.88,1.88,0,0,1,2.87,2.43l-14.47,17.09a1.89,1.89,0,0,1-1.3.67Z" />
                <path class="cls-3" d="M912.08,564.81c-.74,0-1.5,0-2.31-.11a25.76,25.76,0,0,1,0-51.32,22.57,22.57,0,0,1,4.1,0,25.76,25.76,0,0,1,0,51.4C913.27,564.79,912.68,564.81,912.08,564.81Zm0-47.77c-.63,0-1.27,0-2,.09a22,22,0,0,0,0,43.82,18.85,18.85,0,0,0,3.43,0,22,22,0,0,0,0-43.89C913,517.05,912.56,517,912.08,517Z" />
                <ellipse class="cls-6" cx="945.14" cy="592.55" rx="101.07" ry="4.73" />
                <path class="cls-5" d="M847.34,659.27a6.81,6.81,0,0,1-2.66-2.61,7.86,7.86,0,0,1,0-7.53,6.7,6.7,0,0,1,2.66-2.59,8.25,8.25,0,0,1,7.65,0,6.74,6.74,0,0,1,2.65,2.59,7.86,7.86,0,0,1,0,7.53,6.85,6.85,0,0,1-2.65,2.61,8.25,8.25,0,0,1-7.65,0Zm6.3-2a4.53,4.53,0,0,0,1.72-1.78,5.91,5.91,0,0,0,0-5.27,4.51,4.51,0,0,0-1.72-1.77,5.23,5.23,0,0,0-4.94,0,4.6,4.6,0,0,0-1.73,1.77,5.83,5.83,0,0,0,0,5.27,4.63,4.63,0,0,0,1.73,1.78,5.16,5.16,0,0,0,4.94,0Z" />
                <path class="cls-5" d="M872.07,648h-5.24v12h-2.59V648H859v-2.27h13.07Z" />
                <path class="cls-5" d="M859,625.59a5,5,0,0,1-.9,6.52,7.87,7.87,0,0,1-5,1.36h-8.5v-18.2h8a7.8,7.8,0,0,1,4.68,1.22,4.05,4.05,0,0,1,1.67,3.48,4.37,4.37,0,0,1-.64,2.38,4.45,4.45,0,0,1-1.8,1.63A4.64,4.64,0,0,1,859,625.59Zm-10.39-2.78h3.71a3,3,0,0,0,2-.56,2.34,2.34,0,0,0,0-3.29,3,3,0,0,0-2-.57h-3.71Zm7.19,5.2c0-1.51-.94-2.27-2.81-2.27h-4.38v4.61H853C854.89,630.35,855.83,629.56,855.83,628Z" />
                <path class="cls-5" d="M874.44,629.56h-8l-1.53,3.91h-4.09l7.69-18.2h3.93l7.71,18.2H876Zm-1.26-3.19-2.73-7-2.73,7Z" />
                <path class="cls-5" d="M897.7,615.27v18.2h-3.94V618.7h-5.9l-.13,3.79a40.76,40.76,0,0,1-.59,6.28,7.89,7.89,0,0,1-1.56,3.69,3.8,3.8,0,0,1-3.07,1.29,8.43,8.43,0,0,1-2-.28l.25-3.57a2.25,2.25,0,0,0,.71.11c1,0,1.62-.6,2-1.78a23,23,0,0,0,.71-5.58l.25-7.38Z" />
                <path class="cls-5" d="M901.77,615.27h4v11.85L914,615.27h3.74v18.2h-3.94V621.64l-8.22,11.83h-3.76Z" />
                <path class="cls-5" d="M939.38,630v7.2h-3.69v-3.76H923.53v3.76h-3.69l0-7.2h.69c1,0,1.76-.83,2.19-2.39a30.62,30.62,0,0,0,.79-6.68l.2-5.69H937V630Zm-12.85-3.23a7.42,7.42,0,0,1-1.2,3.23H933V618.7h-5.91l-.07,2.65A38.79,38.79,0,0,1,926.53,626.8Z" />
                <path class="cls-5" d="M941.82,615.27h4v11.85L954,615.27h3.74v18.2h-3.94V621.64l-8.22,11.83h-3.77Z" />
                <path class="cls-5" d="M973.22,616.07a6,6,0,0,1,2.6,2.29,7.21,7.21,0,0,1,0,7,5.85,5.85,0,0,1-2.6,2.28,9.22,9.22,0,0,1-4,.8h-3.47v5h-4v-18.2h7.46A9.08,9.08,0,0,1,973.22,616.07Zm-1.46,8.13a3.41,3.41,0,0,0,0-4.68,4,4,0,0,0-2.73-.82h-3.25V625H969A4.08,4.08,0,0,0,971.76,624.2Z" />
                <path class="cls-5" d="M989.93,629.56h-8l-1.53,3.91h-4.09l7.68-18.2h3.94l7.71,18.2h-4.19Zm-1.26-3.19-2.73-7-2.73,7Z" />
                <path class="cls-5" d="M1013.49,615.27v18.2h-4V626h-7.83v7.47h-4v-18.2h4v7.17h7.83v-7.17Z" />
                <path class="cls-5" d="M1030.89,630.09v3.38h-13.34v-18.2h13v3.37h-9.06v4h8v3.27h-8v4.22Z" />
                <path class="cls-3" d="M796.67,793.36a17.78,17.78,0,1,0-19.61,0A28.47,28.47,0,0,0,758.42,820h4.74a23.71,23.71,0,1,1,47.41,0h4.74A28.47,28.47,0,0,0,796.67,793.36Zm-9.81-1.78a13,13,0,1,1,13-13A13.05,13.05,0,0,1,786.86,791.58Z" />
                <path class="cls-3" d="M820.38,781.51a17.77,17.77,0,1,0-22.06-27.67,17.39,17.39,0,0,0-3,3.83,22.38,22.38,0,0,1,4.19,2.22,13,13,0,1,1,14.62,19.34,12.79,12.79,0,0,1-3.52.5c-.42,0-.83,0-1.24-.07a22.35,22.35,0,0,1-.8,5c.68-.05,1.35-.14,2-.14a22.21,22.21,0,0,1,2.84.19,23.73,23.73,0,0,1,20.87,23.52H839A28.46,28.46,0,0,0,820.38,781.51Z" />
                <path class="cls-3" d="M763.16,784.47c.69,0,1.36.09,2,.14a22.35,22.35,0,0,1-.8-5c-.41,0-.82.07-1.24.07a12.79,12.79,0,0,1-3.52-.5,13,13,0,1,1,14.62-19.34,22.38,22.38,0,0,1,4.19-2.22,17.39,17.39,0,0,0-3-3.83,17.76,17.76,0,1,0-22.06,27.67,28.46,28.46,0,0,0-18.64,26.67h4.74a23.73,23.73,0,0,1,20.87-23.52A22.21,22.21,0,0,1,763.16,784.47Z" />
                <path class="cls-3" d="M837,764.91a17.77,17.77,0,1,0-22.06-27.67,18.18,18.18,0,0,0-3,3.83,22.66,22.66,0,0,1,4.19,2.22,13.11,13.11,0,0,1,3.19-3.53,13,13,0,1,1,13.34,22.17,19.79,19.79,0,0,1,.32,3.46,20.49,20.49,0,0,1-.28,3.15,23.73,23.73,0,0,1,18.24,23h4.74A28.47,28.47,0,0,0,837,764.91Z" />
                <path class="cls-3" d="M740.82,765.39a19.79,19.79,0,0,1,.32-3.46,13,13,0,1,1,13.35-22.17,13.24,13.24,0,0,1,3.18,3.53,22.66,22.66,0,0,1,4.19-2.22,18.18,18.18,0,0,0-3-3.83,17.77,17.77,0,1,0-22.06,27.67,28.47,28.47,0,0,0-18.64,26.67h4.74a23.73,23.73,0,0,1,18.24-23A20.49,20.49,0,0,1,740.82,765.39Z" />
                <path class="cls-3" d="M786.86,737.06a13,13,0,0,1,12.75,10.57,14.88,14.88,0,0,1,4.47-1.92,17.76,17.76,0,0,0-34.43,0,14.88,14.88,0,0,1,4.47,1.92A13,13,0,0,1,786.86,737.06Z" />
                <ellipse class="cls-7" cx="791.33" cy="835.53" rx="116.57" ry="6.58" />
                <path class="cls-5" d="M718.57,872.23a8.26,8.26,0,0,1-3.18-3.08,9,9,0,0,1,0-8.8,8.29,8.29,0,0,1,3.19-3.08,9.41,9.41,0,0,1,4.56-1.11,9.55,9.55,0,0,1,3.61.66,7.46,7.46,0,0,1,2.78,1.95L728,860.28a6.3,6.3,0,0,0-4.73-2,6.83,6.83,0,0,0-3.38.84,6.14,6.14,0,0,0-2.37,2.32,6.83,6.83,0,0,0,0,6.6,6.05,6.05,0,0,0,2.37,2.31,6.73,6.73,0,0,0,3.38.84,6.29,6.29,0,0,0,4.73-2l1.56,1.51a7.54,7.54,0,0,1-2.8,2,10,10,0,0,1-8.16-.44Z" />
                <path class="cls-5" d="M742.5,865.82a4.31,4.31,0,0,1-.12,6.21,6,6,0,0,1-3.9,1.12h-5.35V862.44h-3.89v-2h6.19v4.3h3.46A5.33,5.33,0,0,1,742.5,865.82Zm-1.84,4.93a2.34,2.34,0,0,0,.77-1.92,2.15,2.15,0,0,0-.75-1.81,3.69,3.69,0,0,0-2.27-.59h-3v5h3A3.41,3.41,0,0,0,740.66,870.75Z" />
                <path class="cls-5" d="M755.64,861.65a5.6,5.6,0,0,1,2.17,2.2,6.45,6.45,0,0,1,.78,3.2,6.32,6.32,0,0,1-.83,3.28,5.71,5.71,0,0,1-2.32,2.22,7.19,7.19,0,0,1-3.42.79,6,6,0,0,1-5-2.22,9.85,9.85,0,0,1-1.76-6.25,10.22,10.22,0,0,1,1.61-6.13,7.83,7.83,0,0,1,4.92-2.94l5.8-1.3.34,2.11-5.35,1.16a6.89,6.89,0,0,0-3.72,1.87,6,6,0,0,0-1.39,3.79,5.51,5.51,0,0,1,2.11-1.9,6.69,6.69,0,0,1,6.07.12Zm-1.4,9.22a3.9,3.9,0,0,0,1.47-1.52,4.62,4.62,0,0,0,.53-2.23,4.19,4.19,0,1,0-8.38,0,4.52,4.52,0,0,0,.54,2.23,4,4,0,0,0,1.5,1.52,4.56,4.56,0,0,0,4.34,0Z" />
                <path class="cls-5" d="M761.16,860.43h2.3v9.26l7.8-9.26h2.09v12.72h-2.3v-9.26l-7.78,9.26h-2.11Z" />
                <path class="cls-5" d="M787.15,861.12a5.9,5.9,0,0,1,2.29,2.28,7.36,7.36,0,0,1,0,6.79,5.86,5.86,0,0,1-2.29,2.29,6.71,6.71,0,0,1-3.31.81,5.94,5.94,0,0,1-2.51-.52,5.34,5.34,0,0,1-1.93-1.54v6.58h-2.3V860.43h2.2v2a4.94,4.94,0,0,1,2-1.59,6.13,6.13,0,0,1,2.59-.54A6.71,6.71,0,0,1,787.15,861.12Zm-1.31,9.59a4,4,0,0,0,1.54-1.58,5.17,5.17,0,0,0,0-4.68,4,4,0,0,0-1.54-1.57,4.32,4.32,0,0,0-2.19-.56,4.18,4.18,0,0,0-3.71,2.14,4.65,4.65,0,0,0-.56,2.33,4.82,4.82,0,0,0,.55,2.34,4,4,0,0,0,1.53,1.58,4.31,4.31,0,0,0,2.19.57A4.23,4.23,0,0,0,785.84,870.71Z" />
                <path class="cls-5" d="M801.35,861.6a5.05,5.05,0,0,1,1.4,3.87v7.68h-2.18v-1.68a3.64,3.64,0,0,1-1.65,1.35,6.11,6.11,0,0,1-2.53.47,5.3,5.3,0,0,1-3.42-1,3.55,3.55,0,0,1-.06-5.41,6,6,0,0,1,3.89-1h3.65v-.46a2.93,2.93,0,0,0-.87-2.28,3.61,3.61,0,0,0-2.54-.79,7,7,0,0,0-2.21.37,5.57,5.57,0,0,0-1.82,1l-1-1.73a6.88,6.88,0,0,1,2.35-1.21,9.82,9.82,0,0,1,2.9-.42A5.79,5.79,0,0,1,801.35,861.6Zm-2.29,9.33a3.37,3.37,0,0,0,1.39-1.67v-1.78H796.9c-2,0-2.93.66-2.93,2a1.81,1.81,0,0,0,.74,1.52,3.49,3.49,0,0,0,2.07.55A4.3,4.3,0,0,0,799.06,870.93Z" />
                <path class="cls-5" d="M806.18,860.43h2.31v5.4h7.25v-5.4H818v12.72h-2.3v-5.33h-7.25v5.33h-2.31Z" />
                <path class="cls-5" d="M833.26,867.56H822.94a4,4,0,0,0,1.47,2.7,4.83,4.83,0,0,0,3.13,1,4.72,4.72,0,0,0,3.68-1.54l1.27,1.49a5.69,5.69,0,0,1-2.15,1.54,8.18,8.18,0,0,1-6.44-.3,6,6,0,0,1-2.42-2.32,6.71,6.71,0,0,1-.85-3.36,6.78,6.78,0,0,1,.83-3.34,5.89,5.89,0,0,1,2.28-2.31,6.43,6.43,0,0,1,3.28-.83,6.29,6.29,0,0,1,3.25.83,5.83,5.83,0,0,1,2.23,2.31,7,7,0,0,1,.8,3.41A6.83,6.83,0,0,1,833.26,867.56Zm-9-4.3a4,4,0,0,0-1.3,2.64h8.16a4.13,4.13,0,0,0-1.31-2.63,4,4,0,0,0-2.77-1A4,4,0,0,0,824.24,863.26Z" />
                <path class="cls-5" d="M841.9,860.43h2.3v5.4h7.25v-5.4h2.3v12.72h-2.3v-5.33H844.2v5.33h-2.3Z" />
                <path class="cls-5" d="M866.1,861.6a5,5,0,0,1,1.4,3.87v7.68h-2.18v-1.68a3.61,3.61,0,0,1-1.64,1.35,6.19,6.19,0,0,1-2.54.47,5.3,5.3,0,0,1-3.42-1,3.55,3.55,0,0,1-.06-5.41,6.06,6.06,0,0,1,3.89-1h3.65v-.46a3,3,0,0,0-.86-2.28,3.66,3.66,0,0,0-2.55-.79,7,7,0,0,0-2.21.37,5.68,5.68,0,0,0-1.82,1l-1-1.73a7,7,0,0,1,2.35-1.21,9.84,9.84,0,0,1,2.91-.42A5.77,5.77,0,0,1,866.1,861.6Zm-2.29,9.33a3.37,3.37,0,0,0,1.39-1.67v-1.78h-3.55c-1.95,0-2.93.66-2.93,2a1.81,1.81,0,0,0,.74,1.52,3.49,3.49,0,0,0,2.07.55A4.3,4.3,0,0,0,863.81,870.93Z" />
                <path class="cls-5" d="M717.27,926.53a6.12,6.12,0,0,1-2.37-2.31,7,7,0,0,1,0-6.7,6,6,0,0,1,2.37-2.3,7.38,7.38,0,0,1,6.8,0,6,6,0,0,1,2.35,2.3,7,7,0,0,1,0,6.7,6.14,6.14,0,0,1-2.35,2.31,7.3,7.3,0,0,1-6.8,0Zm5.6-1.74a3.86,3.86,0,0,0,1.52-1.58,5.17,5.17,0,0,0,0-4.68,3.77,3.77,0,0,0-1.52-1.57,4.58,4.58,0,0,0-4.39,0,4,4,0,0,0-1.54,1.57,5.17,5.17,0,0,0,0,4.68,4,4,0,0,0,1.54,1.58,4.51,4.51,0,0,0,4.39,0Z" />
                <path class="cls-5" d="M738.89,916.52h-4.66v10.71h-2.3V916.52h-4.66v-2h11.62Z" />
                <path class="cls-5" d="M759.19,925.21v5H757v-2.95H746.4v2.95h-2.18v-5h.67c.82-.05,1.38-.62,1.68-1.73a23.61,23.61,0,0,0,.62-4.68l.2-4.29h9.86v10.7Zm-10.28-2.27a3.88,3.88,0,0,1-1.09,2.27H755v-8.69h-5.52l-.12,2.45A28.35,28.35,0,0,1,748.91,922.94Z" />
                <path class="cls-5" d="M770.05,915.68a5,5,0,0,1,1.41,3.87v7.68h-2.19v-1.68a3.61,3.61,0,0,1-1.64,1.35,6.14,6.14,0,0,1-2.53.47,5.26,5.26,0,0,1-3.42-1,3.53,3.53,0,0,1-.06-5.41,6,6,0,0,1,3.89-1h3.64v-.46a2.93,2.93,0,0,0-.86-2.28,3.63,3.63,0,0,0-2.54-.79,6.66,6.66,0,0,0-2.21.37,5.73,5.73,0,0,0-1.83,1l-1-1.73a6.93,6.93,0,0,1,2.36-1.21,9.82,9.82,0,0,1,2.9-.42A5.75,5.75,0,0,1,770.05,915.68ZM767.76,925a3.32,3.32,0,0,0,1.39-1.67v-1.78H765.6c-2,0-2.93.66-2.93,2a1.76,1.76,0,0,0,.75,1.51,3.36,3.36,0,0,0,2.06.56A4.3,4.3,0,0,0,767.76,925Z" />
                <path class="cls-5" d="M785,915.2a6,6,0,0,1,2.29,2.28,7.34,7.34,0,0,1,0,6.78,6,6,0,0,1-2.29,2.3,6.75,6.75,0,0,1-3.32.81,5.79,5.79,0,0,1-2.51-.53,5.29,5.29,0,0,1-1.93-1.53v6.57h-2.3V914.51h2.21v2a4.91,4.91,0,0,1,1.94-1.59,6.16,6.16,0,0,1,2.59-.54A6.75,6.75,0,0,1,785,915.2Zm-1.31,9.59a4,4,0,0,0,1.53-1.58,5.09,5.09,0,0,0,0-4.68,3.86,3.86,0,0,0-1.53-1.57,4.36,4.36,0,0,0-2.2-.56,4.21,4.21,0,0,0-2.17.57,4.08,4.08,0,0,0-1.54,1.57,4.75,4.75,0,0,0-.56,2.33,4.82,4.82,0,0,0,.55,2.34,3.91,3.91,0,0,0,1.54,1.58,4.49,4.49,0,0,0,4.38,0Z" />
                <path class="cls-5" d="M790.68,914.51H793v9.26l7.8-9.26h2.08v12.72h-2.3V918l-7.78,9.27h-2.11Z" />
                <path class="cls-5" d="M816.1,916.52h-4.66v10.71h-2.3V916.52h-4.66v-2H816.1Z" />
                <path class="cls-5" d="M828.62,921.64H818.3a4,4,0,0,0,1.48,2.7,4.81,4.81,0,0,0,3.13,1,4.72,4.72,0,0,0,3.67-1.54l1.28,1.49a5.64,5.64,0,0,1-2.15,1.53,7.34,7.34,0,0,1-2.87.53,7.45,7.45,0,0,1-3.58-.83,5.9,5.9,0,0,1-2.41-2.31,6.61,6.61,0,0,1-.85-3.36,6.78,6.78,0,0,1,.83-3.34,5.89,5.89,0,0,1,2.28-2.31,6.41,6.41,0,0,1,3.27-.83,6.33,6.33,0,0,1,3.26.83,5.83,5.83,0,0,1,2.23,2.31,7.12,7.12,0,0,1,.8,3.41A5.05,5.05,0,0,1,828.62,921.64Zm-9-4.3A4.08,4.08,0,0,0,818.3,920h8.16a4.07,4.07,0,0,0-1.3-2.63,4.3,4.3,0,0,0-5.55,0Z" />
                <path class="cls-5" d="M842.23,914.51v12.72h-2.3V916.52h-5.47l-.15,2.84a30.8,30.8,0,0,1-.45,4.28,6.89,6.89,0,0,1-1.11,2.75,2.49,2.49,0,0,1-2.13,1,5.24,5.24,0,0,1-1.42-.22l.14-1.94a2.47,2.47,0,0,0,.58.07,1.56,1.56,0,0,0,1.44-.84,5.18,5.18,0,0,0,.62-2c.1-.77.19-1.86.27-3.29l.21-4.7Z" />
                <path class="cls-5" d="M846,914.51h2.3v9.26l7.8-9.26h2.09v12.72h-2.31V918l-7.77,9.27H846Z" />
                <path class="cls-5" d="M718.52,900.84a8.77,8.77,0,0,1-3.35-3.35,10.25,10.25,0,0,1,0-9.7,8.79,8.79,0,0,1,3.35-3.36,10.22,10.22,0,0,1,8.84-.37,8.08,8.08,0,0,1,3,2.39l-2.56,2.49a5.4,5.4,0,0,0-4.33-2.13,5.56,5.56,0,0,0-2.86.74,5.21,5.21,0,0,0-2,2.07,6.84,6.84,0,0,0,0,6,5.08,5.08,0,0,0,2,2.07,5.56,5.56,0,0,0,2.86.74,5.37,5.37,0,0,0,4.33-2.16l2.56,2.5a8.09,8.09,0,0,1-3,2.42,9.77,9.77,0,0,1-4.07.83A9.44,9.44,0,0,1,718.52,900.84Z" />
                <path class="cls-5" d="M745.06,884.34a6.05,6.05,0,0,1,2.6,2.29,7.21,7.21,0,0,1,0,7,6,6,0,0,1-2.6,2.29,9.39,9.39,0,0,1-4,.79h-3.47v5h-4v-18.2h7.46A9.24,9.24,0,0,1,745.06,884.34Zm-1.46,8.13a3.41,3.41,0,0,0,0-4.68,4,4,0,0,0-2.74-.82h-3.25v6.32h3.25A4.09,4.09,0,0,0,743.6,892.47Z" />
                <path class="cls-5" d="M765.16,898.36v3.38H751.82v-18.2h13v3.38h-9.06v4h8v3.27h-8v4.22Z" />
                <path class="cls-5" d="M786.78,898.31v7.2h-3.7v-3.77H770.92v3.77h-3.69l0-7.2h.69c1,0,1.77-.84,2.2-2.4a31.29,31.29,0,0,0,.78-6.68l.2-5.69h13.25v14.77Zm-12.85-3.24a7.65,7.65,0,0,1-1.21,3.24h7.71V887h-5.91l-.08,2.65A40.55,40.55,0,0,1,773.93,895.07Z" />
                <path class="cls-5" d="M793.46,900.84a8.83,8.83,0,0,1-3.35-3.35,10.25,10.25,0,0,1,0-9.7,8.86,8.86,0,0,1,3.35-3.36,10.22,10.22,0,0,1,8.84-.37,8.08,8.08,0,0,1,3,2.39l-2.56,2.49a5.4,5.4,0,0,0-4.33-2.13,5.56,5.56,0,0,0-2.86.74,5.21,5.21,0,0,0-2,2.07,6.84,6.84,0,0,0,0,6,5.08,5.08,0,0,0,2,2.07,5.56,5.56,0,0,0,2.86.74,5.37,5.37,0,0,0,4.33-2.16l2.56,2.5a8.09,8.09,0,0,1-3.05,2.42,9.76,9.76,0,0,1-4.06.83A9.45,9.45,0,0,1,793.46,900.84Z" />
                <path class="cls-5" d="M821.57,887h-5.52v14.77h-3.94V887h-5.49v-3.43h15Z" />
                <path class="cls-5" d="M839,893.86a4.43,4.43,0,0,1,.84,2.75,4.54,4.54,0,0,1-1.73,3.78,7.94,7.94,0,0,1-5,1.35h-8.5v-18.2h8a7.8,7.8,0,0,1,4.68,1.22,4.05,4.05,0,0,1,1.67,3.48,4.37,4.37,0,0,1-.64,2.38,4.52,4.52,0,0,1-1.8,1.63A4.57,4.57,0,0,1,839,893.86Zm-10.38-2.78h3.71a3,3,0,0,0,2-.56,2.34,2.34,0,0,0,0-3.29,3,3,0,0,0-2-.57h-3.71Zm7.18,5.2c0-1.51-.93-2.26-2.8-2.26h-4.38v4.6H833C834.91,898.62,835.84,897.84,835.84,896.28Z" />
                <path class="cls-5" d="M855.32,897.84h-8l-1.53,3.9H841.7l7.68-18.2h3.94l7.71,18.2h-4.19Zm-1.26-3.2-2.73-7-2.73,7Z" />
                <path class="cls-3" d="M238.82,1082.09H197.61l-.18,0h0l-.18.05h0l-.16.07h0l-.15.1,0,0-.13.12h0L182,1097.18h0l-.12.14,0,0-.09.15h0l-.07.16v0a1.21,1.21,0,0,0-.05.18h0a.88.88,0,0,0,0,.17v64.7a4.32,4.32,0,0,0,4.31,4.32h52.87a4.32,4.32,0,0,0,4.31-4.32V1086.4A4.31,4.31,0,0,0,238.82,1082.09Zm-42.5,4.7v8.42a1.56,1.56,0,0,1-1.56,1.56h-8.42Zm44.06,76a1.56,1.56,0,0,1-1.56,1.57H186a1.56,1.56,0,0,1-1.56-1.57v-63.23h10.37a4.32,4.32,0,0,0,4.31-4.32v-10.37h39.75a1.56,1.56,0,0,1,1.56,1.56Z" />
                <path class="cls-3" d="M194.76,1121.55H230a1.38,1.38,0,0,0,0-2.75H194.76a1.38,1.38,0,1,0,0,2.75Z" />
                <path class="cls-3" d="M194.76,1128.9H230a1.38,1.38,0,0,0,0-2.76H194.76a1.38,1.38,0,1,0,0,2.76Z" />
                <path class="cls-3" d="M194.76,1136.24h17.62a1.38,1.38,0,1,0,0-2.75H194.76a1.38,1.38,0,1,0,0,2.75Z" />
                <path class="cls-3" d="M213.76,1142.21a1.38,1.38,0,0,0-1.38-1.38H194.76a1.38,1.38,0,1,0,0,2.75h17.62A1.37,1.37,0,0,0,213.76,1142.21Z" />
                <path class="cls-3" d="M219.63,1105.86a1.38,1.38,0,1,0-2.75,0c0,2.68,2.49,4.85,5.88,5.32v.19a1.38,1.38,0,0,0,2.75,0v-.19c3.38-.47,5.87-2.64,5.87-5.32s-2.49-4.85-5.87-5.32v-5.27c1.66.34,3.12,1.28,3.12,2.51a1.38,1.38,0,1,0,2.75,0c0-2.68-2.49-4.85-5.87-5.32v-.18a1.38,1.38,0,1,0-2.75,0v.18c-3.39.47-5.88,2.64-5.88,5.32s2.49,4.85,5.88,5.32v5.28C221.1,1108,219.63,1107.09,219.63,1105.86Zm9,0c0,1.23-1.46,2.17-3.12,2.52v-5C227.17,1103.69,228.63,1104.63,228.63,1105.86Zm-9-8.08c0-1.23,1.47-2.17,3.13-2.51v5C221.1,1100,219.63,1099,219.63,1097.78Z" />
                <path class="cls-3" d="M232.72,1140.92a1.37,1.37,0,0,0-1.88.52l-2.83,5-.39-.3a1.37,1.37,0,0,0-2.07.48l-1.43,2.9-.46-.53a2.85,2.85,0,0,0-4.84.94l-1.58,4.54-3.75-4.74a1.4,1.4,0,0,0-1-.52,1.44,1.44,0,0,0-1,.33l-4,3.49a1.37,1.37,0,1,0,1.81,2.07l2.9-2.53,3.59,4.53a2.13,2.13,0,0,0,1.66.8l.35,0a2.1,2.1,0,0,0,1.64-1.39l2-5.65s0,0,.06-.06a.09.09,0,0,1,.09,0l1.82,2.09a1.37,1.37,0,0,0,2.27-.3l1.6-3.24.32.24a1.37,1.37,0,0,0,2-.41l3.62-6.4A1.37,1.37,0,0,0,232.72,1140.92Z" />
                <ellipse class="cls-8" cx="212.65" cy="1177.22" rx="101.07" ry="4.73" />
                <path class="cls-9" d="M261.17,1136.92s-1.94,19.1-17,20.42c15.07,1.32,17,20.42,17,20.42s1.93-19.1,17-20.42C263.1,1156,261.17,1136.92,261.17,1136.92Z" />
                <path class="cls-9" d="M272.72,1085.46s-1.28,12.63-11.26,13.51c10,.87,11.26,13.51,11.26,13.51S274,1099.84,284,1099C274,1098.09,272.72,1085.46,272.72,1085.46Z" />
                <path class="cls-5" d="M134.71,1205.9a8.27,8.27,0,0,1-3.21-3.08,8.89,8.89,0,0,1,0-8.78,8.29,8.29,0,0,1,3.21-3.09,10,10,0,0,1,9.14,0A8.19,8.19,0,0,1,147,1194a8.94,8.94,0,0,1,0,8.81,8.06,8.06,0,0,1-3.19,3.07,9.88,9.88,0,0,1-9.14,0Zm7.91-1.86a6.13,6.13,0,0,0,2.32-2.31,6.76,6.76,0,0,0,0-6.6,6.08,6.08,0,0,0-2.32-2.32,6.64,6.64,0,0,0-3.33-.84,6.75,6.75,0,0,0-3.35.84,6.09,6.09,0,0,0-2.35,2.32,6.83,6.83,0,0,0,0,6.6,6.14,6.14,0,0,0,2.35,2.31,6.75,6.75,0,0,0,3.35.84A6.64,6.64,0,0,0,142.62,1204Z" />
                <path class="cls-5" d="M160.17,1196.12h-4.65v10.71h-2.31v-10.71h-4.65v-2h11.61Z" />
                <path class="cls-5" d="M172,1194.11v12.72h-2.31v-5.14a9.63,9.63,0,0,1-4.1,1,5.51,5.51,0,0,1-3.67-1.1,4.1,4.1,0,0,1-1.3-3.31v-4.13h2.3v4a2.41,2.41,0,0,0,.83,2,3.58,3.58,0,0,0,2.32.68,9.14,9.14,0,0,0,3.62-.84v-5.81Z" />
                <path class="cls-5" d="M175.7,1194.11H178v9.26l7.8-9.26h2.09v12.72h-2.3v-9.27l-7.78,9.27H175.7Z" />
                <path class="cls-5" d="M201.12,1196.12h-4.66v10.71h-2.3v-10.71H189.5v-2h11.62Z" />
                <path class="cls-5" d="M211.33,1195.28a5.05,5.05,0,0,1,1.4,3.87v7.68h-2.18v-1.68a3.64,3.64,0,0,1-1.65,1.35,6.11,6.11,0,0,1-2.53.47,5.3,5.3,0,0,1-3.42-1,3.55,3.55,0,0,1-.06-5.41,6,6,0,0,1,3.89-1h3.65v-.46a2.93,2.93,0,0,0-.87-2.28A3.61,3.61,0,0,0,207,1196a6.7,6.7,0,0,0-2.21.37,5.57,5.57,0,0,0-1.82,1l-1-1.73a6.88,6.88,0,0,1,2.35-1.21,9.82,9.82,0,0,1,2.9-.42A5.79,5.79,0,0,1,211.33,1195.28Zm-2.29,9.33a3.37,3.37,0,0,0,1.39-1.67v-1.78h-3.55c-2,0-2.93.66-2.93,2a1.78,1.78,0,0,0,.74,1.51,3.42,3.42,0,0,0,2.07.56A4.3,4.3,0,0,0,209,1204.61Z" />
                <path class="cls-5" d="M215.58,1194.11h2.3v5.4h7.25v-5.4h2.3v12.72h-2.3v-5.33h-7.25v5.33h-2.3Z" />
                <path class="cls-5" d="M242.65,1201.24H232.33a4,4,0,0,0,1.48,2.7,4.81,4.81,0,0,0,3.13,1,4.73,4.73,0,0,0,3.67-1.54l1.27,1.49a5.53,5.53,0,0,1-2.14,1.53,8.09,8.09,0,0,1-6.45-.3,5.9,5.9,0,0,1-2.41-2.31,6.61,6.61,0,0,1-.85-3.36,6.77,6.77,0,0,1,.82-3.34,6,6,0,0,1,2.29-2.31,6.36,6.36,0,0,1,3.27-.83,6.26,6.26,0,0,1,3.25.83,5.77,5.77,0,0,1,2.23,2.31,7,7,0,0,1,.81,3.41C242.7,1200.72,242.68,1201,242.65,1201.24Zm-9-4.3a4,4,0,0,0-1.31,2.64h8.16a4.08,4.08,0,0,0-1.31-2.63,3.93,3.93,0,0,0-2.77-1A4,4,0,0,0,233.64,1196.94Z" />
                <path class="cls-5" d="M251.29,1194.11h2.31v5.4h7.24v-5.4h2.31v12.72h-2.31v-5.33H253.6v5.33h-2.31Z" />
                <path class="cls-5" d="M275.5,1195.28a5.05,5.05,0,0,1,1.4,3.87v7.68h-2.18v-1.68a3.69,3.69,0,0,1-1.65,1.35,6.14,6.14,0,0,1-2.53.47,5.28,5.28,0,0,1-3.42-1,3.53,3.53,0,0,1-.06-5.41,6,6,0,0,1,3.89-1h3.65v-.46a2.93,2.93,0,0,0-.87-2.28,3.61,3.61,0,0,0-2.54-.79,6.66,6.66,0,0,0-2.21.37,5.57,5.57,0,0,0-1.82,1l-1-1.73a6.88,6.88,0,0,1,2.35-1.21,9.82,9.82,0,0,1,2.9-.42A5.79,5.79,0,0,1,275.5,1195.28Zm-2.3,9.33a3.39,3.39,0,0,0,1.4-1.67v-1.78H271c-2,0-2.92.66-2.92,2a1.75,1.75,0,0,0,.74,1.51,3.36,3.36,0,0,0,2.06.56A4.3,4.3,0,0,0,273.2,1204.61Z" />
                <path class="cls-5" d="M142.69,1219a6,6,0,0,1,2.6,2.29,7.19,7.19,0,0,1,0,7,5.87,5.87,0,0,1-2.6,2.29,9.19,9.19,0,0,1-4,.8h-3.47v5h-4v-18.2h7.46A9,9,0,0,1,142.69,1219Zm-1.46,8.12a2.93,2.93,0,0,0,.94-2.32,3,3,0,0,0-.94-2.36,4.06,4.06,0,0,0-2.73-.81h-3.25v6.31h3.25A4,4,0,0,0,141.23,1227.08Z" />
                <path class="cls-5" d="M160.26,1232.45h-8l-1.53,3.9h-4.08l7.68-18.2h3.94l7.7,18.2h-4.18Zm-1.26-3.19-2.73-7-2.73,7Z" />
                <path class="cls-5" d="M181,1228.57a4.45,4.45,0,0,1,.85,2.69,4.3,4.3,0,0,1-1,2.88,6.57,6.57,0,0,1-2.79,1.88,11.17,11.17,0,0,1-3.86.64,13.8,13.8,0,0,1-3.53-.46,12.55,12.55,0,0,1-3.33-1.43l1.23-3a9,9,0,0,0,2.5,1.11,10,10,0,0,0,2.67.37,5.81,5.81,0,0,0,2.94-.67,2.1,2.1,0,0,0,1.17-1.9,1.7,1.7,0,0,0-.8-1.53,4,4,0,0,0-2.18-.53h-4.21v-3.17h3.91a3,3,0,0,0,1.89-.52,1.69,1.69,0,0,0,.67-1.43,1.85,1.85,0,0,0-1-1.66,4.7,4.7,0,0,0-2.5-.6,8.92,8.92,0,0,0-2.34.33,9,9,0,0,0-2.29,1l-1.2-3.28a12.28,12.28,0,0,1,5.91-1.48,10.58,10.58,0,0,1,3.71.63,6.16,6.16,0,0,1,2.71,1.82,4.35,4.35,0,0,1,.35,5.09,4.33,4.33,0,0,1-1.82,1.56A5,5,0,0,1,181,1228.57Z" />
                <path class="cls-5" d="M188.5,1218.15l3.57,5.51,3.57-5.51h4.68l-5.74,8.71,6.2,9.49h-4.7l-4-6-4,6h-4.6l6.16-9.3-5.77-8.9Z" />
                <path class="cls-5" d="M206.56,1235.44a8.8,8.8,0,0,1-3.38-3.36,10.23,10.23,0,0,1,0-9.65,8.89,8.89,0,0,1,3.38-3.37,10.17,10.17,0,0,1,9.66,0,8.94,8.94,0,0,1,3.37,3.37,10.08,10.08,0,0,1,0,9.65,8.84,8.84,0,0,1-3.37,3.36,10.17,10.17,0,0,1-9.66,0Zm7.59-3.1a5.21,5.21,0,0,0,1.93-2.07,6.76,6.76,0,0,0,0-6,5.08,5.08,0,0,0-1.93-2.07,5.5,5.5,0,0,0-5.51,0,5.17,5.17,0,0,0-1.94,2.07,6.84,6.84,0,0,0,0,6,5.38,5.38,0,0,0,7.45,2.07Z" />
                <path class="cls-5" d="M241.8,1232.92v7.2h-3.69v-3.77H225.94v3.77h-3.69l0-7.2H223c1,0,1.76-.83,2.19-2.39a30.73,30.73,0,0,0,.78-6.68l.2-5.7h13.25v14.77ZM229,1229.68a7.41,7.41,0,0,1-1.21,3.24h7.71v-11.33h-5.91l-.07,2.65A41.89,41.89,0,0,1,229,1229.68Z" />
                <path class="cls-5" d="M245.1,1218.15h4V1230l8.23-11.86H261v18.2h-3.94v-11.83l-8.22,11.83H245.1Z" />
                <path class="cls-5" d="M279.1,1221.59h-5.52v14.76h-3.94v-14.76h-5.49v-3.44h15Z" />
                <path class="cls-5" d="M295.57,1233v3.38H282.22v-18.2h13v3.38h-9.06v4h8v3.28h-8V1233Z" />
                <g class="cls-10">
                    <path class="cls-11" d="M535.52,1118.6a9.11,9.11,0,0,1-1.85,7.2,9.69,9.69,0,0,1-6.31,4,7.08,7.08,0,0,1-8.18-5.83,9.27,9.27,0,0,1,2-7.33,9.93,9.93,0,0,1,6.37-4.09,6.41,6.41,0,0,1,5.2,1.26A7.42,7.42,0,0,1,535.52,1118.6Zm6.93-72.77q.39,2.36-1.11,7.5-1.12,3.93-4,18.49t-3.4,18a57.83,57.83,0,0,0-.69,8.3c-.07,2.51-1.55,4-4.43,4.49q-5.55.93-6.47-4.57-1-5.76,3.15-23.31t6.8-24.24q2.67-6.71,6.1-7.27T542.45,1045.83Z" />
                </g>
                <ellipse class="cls-12" cx="599.13" cy="1038.4" rx="101.07" ry="4.73" />
                <path class="cls-5" d="M571.27,1052.83v16.8h-2.35v-14.71h-9.74v14.71H556.8v-16.8Z" />
                <path class="cls-5" d="M585.46,1057.61a5.84,5.84,0,0,1,2.29,2.28,6.75,6.75,0,0,1,.83,3.38,6.88,6.88,0,0,1-.83,3.4,5.86,5.86,0,0,1-2.29,2.29,6.73,6.73,0,0,1-3.31.81,5.9,5.9,0,0,1-2.51-.52,5.16,5.16,0,0,1-1.93-1.54v6.58H575.4v-17.38h2.21v2a4.85,4.85,0,0,1,1.94-1.6,6.17,6.17,0,0,1,2.6-.54A6.63,6.63,0,0,1,585.46,1057.61Zm-1.31,9.59a4.13,4.13,0,0,0,1.54-1.59,5.17,5.17,0,0,0,0-4.68,4,4,0,0,0-1.54-1.57,4.36,4.36,0,0,0-2.2-.55,4.3,4.3,0,0,0-2.17.56,4.05,4.05,0,0,0-1.53,1.57,4.68,4.68,0,0,0-.57,2.33,4.93,4.93,0,0,0,.55,2.34,4,4,0,0,0,1.54,1.59,4.56,4.56,0,0,0,4.38,0Z" />
                <path class="cls-5" d="M602.64,1064H592.32a4,4,0,0,0,1.48,2.7,4.81,4.81,0,0,0,3.13,1,4.7,4.7,0,0,0,3.67-1.54l1.27,1.49a5.55,5.55,0,0,1-2.14,1.54,8.21,8.21,0,0,1-6.45-.3,6,6,0,0,1-2.41-2.32,7.08,7.08,0,0,1,0-6.69,5.85,5.85,0,0,1,2.28-2.32,6.49,6.49,0,0,1,3.27-.83,6.36,6.36,0,0,1,3.25.83,5.75,5.75,0,0,1,2.24,2.32,7.08,7.08,0,0,1,.8,3.4C602.69,1063.52,602.67,1063.75,602.64,1064Zm-9-4.3a4.13,4.13,0,0,0-1.31,2.64h8.16a4.06,4.06,0,0,0-1.31-2.62,3.94,3.94,0,0,0-2.77-1A4,4,0,0,0,593.63,1059.74Z" />
                <path class="cls-5" d="M616.68,1066.13a3,3,0,0,1-1.26,2.59,6.36,6.36,0,0,1-3.75.91h-6.12v-12.72h5.9a6.37,6.37,0,0,1,3.53.85,2.75,2.75,0,0,1,1.27,2.42,2.86,2.86,0,0,1-.54,1.74,3.36,3.36,0,0,1-1.5,1.11A2.93,2.93,0,0,1,616.68,1066.13Zm-8.88-3.75h3.46a3.45,3.45,0,0,0,2-.48,1.58,1.58,0,0,0,.69-1.39c0-1.21-.9-1.82-2.69-1.82H607.8Zm5.86,5a1.56,1.56,0,0,0,.72-1.42,1.69,1.69,0,0,0-.66-1.46,3.57,3.57,0,0,0-2.08-.48H607.8v3.81h3.7A4.14,4.14,0,0,0,613.66,1067.4Z" />
                <path class="cls-5" d="M621.6,1068.94a6.12,6.12,0,0,1-2.36-2.32,7,7,0,0,1,0-6.7,6,6,0,0,1,2.36-2.3,7.4,7.4,0,0,1,6.81,0,6,6,0,0,1,2.35,2.3,7,7,0,0,1,0,6.7,6.16,6.16,0,0,1-2.35,2.32,7.4,7.4,0,0,1-6.81,0Zm5.61-1.74a4.08,4.08,0,0,0,1.52-1.59,5.25,5.25,0,0,0,0-4.68,4,4,0,0,0-1.52-1.57,4.68,4.68,0,0,0-4.4,0,4,4,0,0,0-1.53,1.57,5.09,5.09,0,0,0,0,4.68,4.11,4.11,0,0,0,1.53,1.59,4.6,4.6,0,0,0,4.4,0Z" />
                <path class="cls-5" d="M647.07,1067.62v5h-2.16v-2.95H634.27v2.95h-2.18v-5h.67c.82,0,1.38-.63,1.68-1.73a23.71,23.71,0,0,0,.63-4.68l.19-4.3h9.86v10.71Zm-10.29-2.27a3.94,3.94,0,0,1-1.09,2.27h7.13v-8.69H637.3l-.12,2.45A28.51,28.51,0,0,1,636.78,1065.35Z" />
                <path class="cls-5" d="M666.22,1066.13a3,3,0,0,1-1.26,2.59,6.38,6.38,0,0,1-3.76.91h-6.12v-12.72H661a6.31,6.31,0,0,1,3.52.85,2.75,2.75,0,0,1,1.28,2.42,2.86,2.86,0,0,1-.54,1.74,3.36,3.36,0,0,1-1.5,1.11A2.94,2.94,0,0,1,666.22,1066.13Zm-8.88-3.75h3.45a3.51,3.51,0,0,0,2-.48,1.6,1.6,0,0,0,.68-1.39c0-1.21-.89-1.82-2.69-1.82h-3.45Zm5.85,5a1.56,1.56,0,0,0,.72-1.42,1.69,1.69,0,0,0-.66-1.46,3.55,3.55,0,0,0-2.07-.48h-3.84v3.81H661A4.14,4.14,0,0,0,663.19,1067.4Z" />
                <path class="cls-5" d="M558.5,1123a6.11,6.11,0,0,1-2.39-2.31,6.88,6.88,0,0,1,0-6.7,6,6,0,0,1,2.39-2.3,7,7,0,0,1,3.46-.83,6.6,6.6,0,0,1,3.09.7,5,5,0,0,1,2.1,2l-1.75,1.13a4,4,0,0,0-1.49-1.37,4.29,4.29,0,0,0-2-.45,4.51,4.51,0,0,0-2.24.55,3.87,3.87,0,0,0-1.56,1.57,5.13,5.13,0,0,0,0,4.7,3.89,3.89,0,0,0,1.56,1.58,4.62,4.62,0,0,0,2.24.55,4.18,4.18,0,0,0,2-.46,3.89,3.89,0,0,0,1.49-1.37l1.75,1.11a5,5,0,0,1-2.1,2,6.49,6.49,0,0,1-3.09.71A7,7,0,0,1,558.5,1123Z" />
                <path class="cls-5" d="M584.07,1111v12.72H582v-9.29l-4.75,7.85h-1l-4.7-7.87v9.31H569.4V1111h2.38l5,8.59,5.14-8.59Z" />
                <path class="cls-5" d="M599.28,1118.12H589a4,4,0,0,0,1.48,2.7,4.81,4.81,0,0,0,3.13,1,4.69,4.69,0,0,0,3.67-1.54l1.28,1.49a5.77,5.77,0,0,1-2.15,1.54,8.21,8.21,0,0,1-6.45-.3,6,6,0,0,1-2.41-2.32,6.61,6.61,0,0,1-.85-3.36,6.81,6.81,0,0,1,.83-3.34,5.89,5.89,0,0,1,2.28-2.31,6.41,6.41,0,0,1,3.27-.83,6.26,6.26,0,0,1,3.25.83,5.79,5.79,0,0,1,2.24,2.31,7.15,7.15,0,0,1,.8,3.41A5.05,5.05,0,0,1,599.28,1118.12Zm-9-4.3a4.08,4.08,0,0,0-1.31,2.64h8.16a4.07,4.07,0,0,0-1.3-2.63,4.3,4.3,0,0,0-5.55,0Z" />
                <path class="cls-5" d="M611.14,1113h-4.66v10.7h-2.3V1113h-4.66v-2h11.62Z" />
                <path class="cls-5" d="M617.71,1118.33h-2.63v5.38h-2.31V1111h2.31v5.38h2.68l4.13-5.38h2.47l-4.82,6.12,5.16,6.6H622Z" />
                <path class="cls-5" d="M634.74,1112.17a5,5,0,0,1,1.41,3.86v7.68H634V1122a3.69,3.69,0,0,1-1.64,1.36,6.32,6.32,0,0,1-2.53.46,5.26,5.26,0,0,1-3.42-1,3.53,3.53,0,0,1-.06-5.41,6,6,0,0,1,3.89-1h3.64v-.46a3,3,0,0,0-.86-2.28,3.71,3.71,0,0,0-2.55-.79,6.91,6.91,0,0,0-2.2.37,5.73,5.73,0,0,0-1.83,1l-1-1.73a7,7,0,0,1,2.35-1.21,9.89,9.89,0,0,1,2.91-.42A5.71,5.71,0,0,1,634.74,1112.17Zm-2.29,9.32a3.37,3.37,0,0,0,1.39-1.67v-1.77h-3.55c-1.95,0-2.93.65-2.93,2a1.79,1.79,0,0,0,.75,1.52,3.43,3.43,0,0,0,2.06.55A4.3,4.3,0,0,0,632.45,1121.49Z" />
                <path class="cls-5" d="M574.1,1094.79v7.2h-3.69v-3.77H558.25V1102h-3.69l0-7.2h.69c1,0,1.76-.83,2.19-2.4a30.46,30.46,0,0,0,.79-6.68l.2-5.69h13.24v14.77Zm-12.85-3.24a7.47,7.47,0,0,1-1.2,3.24h7.7v-11.34h-5.91l-.07,2.65A38.64,38.64,0,0,1,561.25,1091.55Z" />
                <path class="cls-5" d="M589.22,1094.32h-8l-1.53,3.9h-4.08l7.68-18.2h3.94l7.7,18.2h-4.18Zm-1.26-3.2-2.73-7-2.73,7Z" />
                <path class="cls-5" d="M609.27,1080.83a6,6,0,0,1,2.6,2.28,7.21,7.21,0,0,1,0,7,5.87,5.87,0,0,1-2.6,2.29,9.22,9.22,0,0,1-4,.79h-3.47v5h-4V1080h7.46A9.07,9.07,0,0,1,609.27,1080.83Zm-1.46,8.12a3.41,3.41,0,0,0,0-4.68,4,4,0,0,0-2.73-.82h-3.25v6.32h3.25A4,4,0,0,0,607.81,1089Z" />
                <path class="cls-5" d="M616,1080h4v11.86l8.23-11.86H632v18.2H628v-11.83l-8.22,11.83H616Z" />
                <path class="cls-5" d="M650,1083.45h-5.51v14.77h-3.94v-14.77h-5.49V1080H650Z" />
                <path class="cls-5" d="M666.5,1094.84v3.38H653.16V1080h13v3.38h-9.06v3.95h8v3.28h-8v4.21Z" />
                <path class="cls-5" d="M685.7,1080v18.2h-3.94v-14.77h-5.9l-.13,3.8a41,41,0,0,1-.59,6.28,8,8,0,0,1-1.56,3.69,3.8,3.8,0,0,1-3.07,1.29,8.51,8.51,0,0,1-2-.29l.25-3.56a2.26,2.26,0,0,0,.71.1c1,0,1.62-.59,2-1.78a23.5,23.5,0,0,0,.71-5.58l.25-7.38Z" />
                <path class="cls-5" d="M694,1097.32a8.77,8.77,0,0,1-3.35-3.35,10.33,10.33,0,0,1,0-9.7,8.77,8.77,0,0,1,3.35-3.35,10.18,10.18,0,0,1,8.84-.38,8.08,8.08,0,0,1,3,2.39l-2.56,2.5a5.4,5.4,0,0,0-4.33-2.13,5.47,5.47,0,0,0-2.86.74,5.12,5.12,0,0,0-2,2.06,6.86,6.86,0,0,0,0,6,5.12,5.12,0,0,0,2,2.06,5.47,5.47,0,0,0,2.86.74,5.39,5.39,0,0,0,4.33-2.15l2.56,2.49a8.09,8.09,0,0,1-3,2.42,9.76,9.76,0,0,1-4.06.83A9.45,9.45,0,0,1,694,1097.32Z" />
                <path class="cls-5" d="M715.79,1090.89H713v7.33h-4V1080h4v7.36h2.86l4.53-7.36h4.21l-5.64,8.79,5.81,9.41h-4.53Z" />
                <path class="cls-5" d="M738.61,1094.32h-8l-1.53,3.9H725l7.68-18.2h3.94l7.7,18.2h-4.18Zm-1.26-3.2-2.73-7-2.73,7Z" />
                <path class="cls-13" d="M647.7,1024.42l-81.34-56,95.95-24.72-6.4,34.7-71.6-7.11L654,989.64S647.86,1024.65,647.7,1024.42Z" />
                <path class="cls-14" d="M229.34,1256.59c14.8,20.63,34.8,35.63,57.8,48.63,5,3,10,4,15,6,15,6,29,10,44,15,15,4,31,5,46,6,41,2,81-6,122-16,23-6,44-12,65-21,6-3,11-4,17-7,16-7,33-13,49-23,8-5,15-8,23-13,5-3,10-6,15.12-9.28" />
                <path class="cls-14" d="M537.4,965c-107.26-4.77-219.26,28.23-299,101.33" />
                <path class="cls-14" d="M879.38,794.47a101.83,101.83,0,0,1,16.76,6.75c3,2,6,2,9,3,18,9,74.76,45.6,106,101,1.56,2.76,1,5,2,8,6,13,11,27,10,42-2,28-18,52-43,66a7.54,7.54,0,0,1-4.08,1.88c-58,26-121.92,19.12-183.92,13.12-14-2-48-11-51-13a407.26,407.26,0,0,1-44-18c-6-2-11-4-16.56-6.43" />
                <path class="cls-14" d="M319.9,927.58c7.17-2.47,26.24-12.36,34.24-16.36,46-24,90-49,138-71,2-1,3,0,5-1,62-26,126-51,194-55,3-1,5-3,8.37-3" />
                <path class="cls-14" d="M245,700.43a7.63,7.63,0,0,1-3.82,1.79c-11,2-20,6-31,9-2,0-5,0-7,1-33,15-68,30-86,64-2,3-2,7-3,10-13,33-2,70,18.61,96.56" />
                <path class="cls-14" d="M832.29,672.44a522.15,522.15,0,0,1-52.15,27.78c-4,2-7,2-11,3-44,19-90,26-138,18-28-4-54-10-79-23-15-8-29-16-40-30a30.39,30.39,0,0,0-5-7c-29-44,4-97,45-118,15-7,30-11,46-9,24,3,43,16,58,36,1,1,1,3,2,4,18,19,18,49,7,72-4,8-11,15-16,23-5,6-12,9-17,15-1,1-2,0-3,1-42,36-98,52-152,37-35-10-69-22-103.79-28.66" />
                <path class="cls-14" d="M715.54,383.54c53.6,9.68,107.6,21.68,157.6,48.68,21,12,40,26,53.47,45.25" />
                <path class="cls-14" d="M216.7,521.5c11.44-9.28,22.44-17.28,34.44-26.28,11-7,20-14,31-21,98-61,202-98,313.72-100.7" />
                <path class="cls-14" d="M595,365.26a502.52,502.52,0,0,1-159.12-24.48A500,500,0,0,1,334.34,294.7" />
                <path class="cls-14" d="M595,357.58c-24.61-3.69-58.17-15.21-92.42-49.62C476,281.29,462,256.78,450.51,234.89" />
                <ellipse class="cls-15" cx="176.78" cy="1005.01" rx="101.07" ry="4.73" />
                <g id="вие_успяхте" data-name="вие успяхте">
                    <path class="cls-5" d="M860.12,1221.71m2.84,32.15" />
                    <g class="cls-10">
                        <path class="cls-11" d="M1025.47,1170.05a15.34,15.34,0,0,0-2.58-6.81,13.84,13.84,0,0,0-3.73-3.46,12.32,12.32,0,0,0-4.74-1.84,12.66,12.66,0,0,0-2.13-.17,17.31,17.31,0,0,0-5.6,1,15.92,15.92,0,0,0-5.19,3,22.18,22.18,0,0,0-4,4.51,19.13,19.13,0,0,0-1.13,2,17.43,17.43,0,0,0-1.12,2.82c-.11-.13-.2-.28-.32-.41s-.21-.24-.32-.35l-.1-.1a15.22,15.22,0,0,0-3.11-2.39A15.49,15.49,0,0,0,987,1166a12.32,12.32,0,0,0-1.72-.27,17.93,17.93,0,0,0-1.8-.11c-.26,0-.51,0-.77,0a16.14,16.14,0,0,0-2.47.42,15.37,15.37,0,0,0-2.62,1,12.18,12.18,0,0,0-3.32,2.41,11.64,11.64,0,0,0-2,2.46,15,15,0,0,0-2,6.64,16.25,16.25,0,0,0,.34,4.66,14.42,14.42,0,0,0,1.57,4,15.88,15.88,0,0,0,2.08,3,42.84,42.84,0,0,0,3.52,3.61,61.43,61.43,0,0,0,6.21,4.91,86.73,86.73,0,0,0,7.61,4.78c10.4,5.71,18.72,7.63,19,4.92a24.1,24.1,0,0,1,3.06-10.19l.62-1c1.68-2.7,3.5-5.32,5.2-8a49.29,49.29,0,0,0,4.92-9.65,21,21,0,0,0,1-4.56,19.6,19.6,0,0,0,.17-2.29A18.61,18.61,0,0,0,1025.47,1170.05Z" />
                        <path class="cls-11" d="M999.87,1172.9a.81.81,0,0,1,.22,1.17.94.94,0,0,1-1.24.21.83.83,0,0,1-.22-1.17.93.93,0,0,1,1.24-.21Z" />
                        <path class="cls-11" d="M999.42,1177.61a.59.59,0,0,1,.16.83.67.67,0,0,1-.89.15.58.58,0,0,1-.15-.83.66.66,0,0,1,.88-.15Z" />
                        <path class="cls-11" d="M997.84,1182.49a.38.38,0,0,1,.1.56.43.43,0,0,1-.59.1.38.38,0,0,1-.11-.56.44.44,0,0,1,.6-.1Z" />
                        <path class="cls-11" d="M995.17,1186.15a.43.43,0,0,1,.12.62.49.49,0,0,1-.66.12.44.44,0,0,1-.12-.63.5.5,0,0,1,.66-.11Z" />
                    </g>
                    <ellipse class="cls-16" cx="785.42" cy="1294.09" rx="123.53" ry="5.78" />
                    <g class="cls-10">
                        <path class="cls-17" d="M781.82,1196.44a26.51,26.51,0,0,0,49.76,0" />
                        <path class="cls-18" d="M800.17,1179.86a3.3,3.3,0,1,1-3.3-3.3A3.3,3.3,0,0,1,800.17,1179.86Z" />
                        <path class="cls-18" d="M819.83,1179.86a3.3,3.3,0,1,1-3.3-3.3A3.3,3.3,0,0,1,819.83,1179.86Z" />
                    </g>
                    <g class="cls-10">
                        <path class="cls-19" d="M771,1235.85a21.78,21.78,0,0,1-40.87,0" />
                        <path class="cls-20" d="M755.9,1222.23a2.71,2.71,0,1,0,2.71-2.71A2.71,2.71,0,0,0,755.9,1222.23Z" />
                        <path class="cls-20" d="M739.75,1222.23a2.71,2.71,0,1,0,2.71-2.71A2.71,2.71,0,0,0,739.75,1222.23Z" />
                        <circle class="cls-21" cx="750.45" cy="1232.52" r="36.6" />
                    </g>
                    <g class="cls-10">
                        <path class="cls-22" d="M785.15,1254.69a13.76,13.76,0,0,0,25.84,0" />
                        <path class="cls-23" d="M794.68,1246.08a1.72,1.72,0,1,1-1.71-1.72A1.71,1.71,0,0,1,794.68,1246.08Z" />
                        <path class="cls-23" d="M804.89,1246.08a1.72,1.72,0,1,1-1.71-1.72A1.71,1.71,0,0,1,804.89,1246.08Z" />
                    </g>
                    <circle class="cls-24" cx="804.7" cy="1190.04" r="43.79" />
                    <circle class="cls-25" cx="798.98" cy="1251.64" r="23.04" />
                </g>
                <path class="cls-5" d="M891.48,1202.31a8.26,8.26,0,0,1,1.41,4.89,8.54,8.54,0,0,1-3.4,7.16q-3.4,2.64-9.61,2.63H862.8v-33.76H879q5.94,0,9.2,2.32a7.51,7.51,0,0,1,3.27,6.51,8.27,8.27,0,0,1-1.07,4.24,8.39,8.39,0,0,1-3,3A8.56,8.56,0,0,1,891.48,1202.31Zm-18.09-6.1H878c1.77,0,2.65-.82,2.65-2.46s-.88-2.56-2.65-2.56h-4.57Zm8.64,10.12a2.32,2.32,0,0,0-2.65-2.6h-6v5.3h6A2.36,2.36,0,0,0,882,1206.33Z" />
                <path class="cls-5" d="M896.27,1183.23h10.6v17.56l11-17.56H928V1217H917.42v-17.5l-11,17.5H896.27Z" />
                <path class="cls-5" d="M959.8,1208.41V1217H933.22v-33.76h26v8.59H943.81v4h13.52v8.2H943.81v4.44Z" />
                <path class="cls-5" d="M894.77,1228.42l-12.84,25.42a18.32,18.32,0,0,1-5.59,6.89,12.25,12.25,0,0,1-7.28,2.37,15.68,15.68,0,0,1-6.21-1.35l2.51-8.2a12.66,12.66,0,0,0,3.29.58,4.41,4.41,0,0,0,2-.44,5.07,5.07,0,0,0,1.62-1.44l-12.24-23.83h11.37l6.35,14.23,6.57-14.23Z" />
                <path class="cls-5" d="M904.17,1260.71a16.34,16.34,0,0,1-6.37-6.27,19.31,19.31,0,0,1,0-18.28,16.34,16.34,0,0,1,6.37-6.27,18.66,18.66,0,0,1,9.14-2.24,19.12,19.12,0,0,1,8.31,1.74,15.66,15.66,0,0,1,6,5l-6.81,6.41q-3-3.94-7-4a6.94,6.94,0,0,0-5.44,2.29,10.25,10.25,0,0,0,0,12.3,6.94,6.94,0,0,0,5.44,2.29q4,0,7-4l6.81,6.41a15.69,15.69,0,0,1-6,5,19.27,19.27,0,0,1-8.31,1.73A18.66,18.66,0,0,1,904.17,1260.71Z" />
                <path class="cls-5" d="M961.35,1228.42v33.76h-10.6v-24.93H941v24.93h-10.6v-33.76Z" />
                <path class="cls-5" d="M994.59,1228.42v33.76H984v-8h-2.88l-4.88,8H965l6.3-9.65a11.09,11.09,0,0,1-4.77-4.36,12.82,12.82,0,0,1-1.67-6.68,13,13,0,0,1,1.8-6.94,11.86,11.86,0,0,1,5.14-4.54,18.07,18.07,0,0,1,7.86-1.59Zm-18.9,12.88q0,4.29,4.11,4.29H984v-8.39h-4.2C977.06,1237.2,975.69,1238.56,975.69,1241.3Z" />
                <path class="cls-5" d="M1010.12,1228.37l4.66,8,4.66-8h12.46l-10.36,16.11,11.32,17.7h-12.69l-5.39-8.73-5.3,8.73H997.11l11.23-17.17-10.55-16.64Z" />
                <path class="cls-5" d="M1062.59,1237.25h-9.36v24.93h-10.59v-24.93h-9.37v-8.83h29.32Z" />
                <path class="cls-5" d="M1092.27,1253.6v8.58H1065.7v-33.76h26V1237h-15.39v4h13.52v8.2h-13.52v4.44Z" />
                <path class="cls-5" d="M1094.38,1228.42h12.33l-2.06,20.84h-8.22Zm1.82,32.55a5.59,5.59,0,0,1-1.69-4.09,5.44,5.44,0,0,1,1.69-4.08,6.62,6.62,0,0,1,8.68,0,5.44,5.44,0,0,1,1.69,4.08,5.59,5.59,0,0,1-1.69,4.09,6.42,6.42,0,0,1-8.68,0Z" />
                <g id="Hand">
                    <path class="cls-26" d="M442.19,111.78h14.33a1.61,1.61,0,0,1,1.61,1.61v19.25a1.61,1.61,0,0,1-1.61,1.62H442.19a1.61,1.61,0,0,1-1.61-1.62V113.39A1.61,1.61,0,0,1,442.19,111.78Z" />
                    <line class="cls-26" x1="457.35" y1="127.89" x2="439.52" y2="127.89" />
                    <rect class="cls-3" x="451.35" y="115.98" width="2" height="2.72" rx="0.85" />
                    <rect class="cls-3" x="451.35" y="120.79" width="2" height="2.72" rx="0.85" />
                    <path class="cls-27" d="M479.07,119.53s16-.32,17.41-.75c4.43-1.36,3.67-1.39,5-2.69a5.87,5.87,0,0,0,1-3.1c0-1,.37-3.07-2-4.18s-27.78-1.19-30.6-.44-9.18,3.51-10.77,5.88l-.48.86-.23.55-.31-.29v13.22c0,1.07.22,3.31.22,3.31s27.69.53,32.13-.42c12.48-2.67,30.44-15.82,36.44-20.17s8.75-6.2,9-8.06-.08-6.74-5.41-5.4-27.42,16-28,16.52c-.21.18.49-.46,0,0" />
                    <g id="kampania">
                        <ellipse class="cls-28" cx="482.35" cy="145.73" rx="89.46" ry="4.73" />
                    </g>
                    <path class="cls-29" d="M496.78,97.62,479.06,79.89C467.15,68,484.88,50.26,496.78,62.16c12.83-12.82,30.56,4.9,17.73,17.73Z" />
                    <path class="cls-9" d="M531.36,39.64s-1.11,10.87-9.68,11.62c8.57.75,9.68,11.62,9.68,11.62S532.46,52,541,51.26C532.46,50.51,531.36,39.64,531.36,39.64Z" />
                    <path class="cls-9" d="M516.57,23.72s-.73,7.19-6.4,7.68c5.67.5,6.4,7.69,6.4,7.69s.73-7.19,6.4-7.69C517.3,30.91,516.57,23.72,516.57,23.72Z" />
                </g>
                <path class="cls-5" d="M411.63,159.73H414v13l9.94-13h2.21v16.79H423.8V163.59l-10,12.93h-2.21Z" />
                <path class="cls-5" d="M432.71,175.83a6.2,6.2,0,0,1-2.39-2.32,6.94,6.94,0,0,1,0-6.69,6.1,6.1,0,0,1,2.39-2.31,7.17,7.17,0,0,1,3.47-.82,6.68,6.68,0,0,1,3.08.69,4.93,4.93,0,0,1,2.1,2l-1.75,1.12a3.87,3.87,0,0,0-1.49-1.36,4.14,4.14,0,0,0-2-.46,4.65,4.65,0,0,0-2.25.55,4,4,0,0,0-1.56,1.57,5.23,5.23,0,0,0,0,4.71,4,4,0,0,0,1.56,1.57,4.55,4.55,0,0,0,2.25.55,4.25,4.25,0,0,0,2-.45,3.9,3.9,0,0,0,1.49-1.37l1.75,1.1a5,5,0,0,1-2.1,2,6.57,6.57,0,0,1-3.08.71A7.07,7.07,0,0,1,432.71,175.83Z" />
                <path class="cls-5" d="M448.92,171.15h-2.64v5.37H444V163.81h2.3v5.37H449l4.13-5.37h2.47l-4.82,6.12,5.16,6.59H453.2Z" />
                <path class="cls-5" d="M466.31,165a5,5,0,0,1,1.41,3.87v7.67h-2.19v-1.67a3.61,3.61,0,0,1-1.64,1.35,6.31,6.31,0,0,1-2.53.47,5.32,5.32,0,0,1-3.42-1,3.53,3.53,0,0,1-.06-5.41,6,6,0,0,1,3.88-1h3.65v-.45a3,3,0,0,0-.86-2.28,3.66,3.66,0,0,0-2.55-.79,6.64,6.64,0,0,0-2.2.37,5.92,5.92,0,0,0-1.83,1l-1-1.72a7.18,7.18,0,0,1,2.35-1.22,9.89,9.89,0,0,1,2.91-.41A5.75,5.75,0,0,1,466.31,165ZM464,174.31a3.41,3.41,0,0,0,1.39-1.67v-1.78h-3.55c-1.95,0-2.93.66-2.93,2a1.77,1.77,0,0,0,.75,1.51,3.36,3.36,0,0,0,2.06.55A4.29,4.29,0,0,0,464,174.31Z" />
                <path class="cls-5" d="M481,165.82h-4.66v10.7H474v-10.7h-4.66v-2H481Z" />
                <path class="cls-5" d="M493.88,170.93H483.56a4,4,0,0,0,1.47,2.7,4.83,4.83,0,0,0,3.13,1,4.75,4.75,0,0,0,3.68-1.53l1.27,1.48a5.49,5.49,0,0,1-2.15,1.54,8.07,8.07,0,0,1-6.44-.3,5.88,5.88,0,0,1-2.42-2.32,7.08,7.08,0,0,1,0-6.69,5.92,5.92,0,0,1,2.28-2.32,6.52,6.52,0,0,1,3.28-.82,6.38,6.38,0,0,1,3.25.82,5.86,5.86,0,0,1,2.23,2.32,7,7,0,0,1,.8,3.41A6.81,6.81,0,0,1,493.88,170.93Zm-9-4.29a4,4,0,0,0-1.3,2.64h8.16a4.13,4.13,0,0,0-1.31-2.63,4,4,0,0,0-2.77-1A4,4,0,0,0,484.86,166.64Z" />
                <path class="cls-5" d="M516.17,174.51v5H514v-3H503.38v3H501.2v-5h.67c.81,0,1.37-.62,1.68-1.73a23.61,23.61,0,0,0,.62-4.68l.19-4.29h9.87v10.7Zm-10.28-2.27a3.94,3.94,0,0,1-1.09,2.27h7.12v-8.69H506.4l-.12,2.45A27.23,27.23,0,0,1,505.89,172.24Z" />
                <path class="cls-5" d="M527.39,165a5,5,0,0,1,1.41,3.87v7.67h-2.19v-1.67A3.61,3.61,0,0,1,525,176.2a6.31,6.31,0,0,1-2.53.47,5.32,5.32,0,0,1-3.42-1,3.53,3.53,0,0,1-.06-5.41,6,6,0,0,1,3.88-1h3.65v-.45a3,3,0,0,0-.86-2.28,3.66,3.66,0,0,0-2.55-.79,6.64,6.64,0,0,0-2.2.37,5.92,5.92,0,0,0-1.83,1l-1-1.72a7.18,7.18,0,0,1,2.35-1.22,9.89,9.89,0,0,1,2.91-.41A5.75,5.75,0,0,1,527.39,165Zm-2.29,9.33a3.41,3.41,0,0,0,1.39-1.67v-1.78h-3.55c-2,0-2.93.66-2.93,2a1.77,1.77,0,0,0,.75,1.51,3.36,3.36,0,0,0,2.06.55A4.29,4.29,0,0,0,525.1,174.31Z" />
                <path class="cls-5" d="M423,186.81v12.71h-2.31v-10.7h-7.17v10.7h-2.31V186.81Z" />
                <path class="cls-5" d="M429.17,198.83a6,6,0,0,1-2.36-2.32,7,7,0,0,1,0-6.69,5.9,5.9,0,0,1,2.36-2.31,7.48,7.48,0,0,1,6.81,0,6,6,0,0,1,2.35,2.31,7,7,0,0,1,0,6.69,6.09,6.09,0,0,1-2.35,2.32,7.32,7.32,0,0,1-6.81,0Zm5.61-1.74a4.06,4.06,0,0,0,1.52-1.58,5.27,5.27,0,0,0,0-4.69,4,4,0,0,0-1.52-1.57,4.68,4.68,0,0,0-4.4,0,4,4,0,0,0-1.53,1.57,5.11,5.11,0,0,0,0,4.69,4.08,4.08,0,0,0,1.53,1.58,4.6,4.6,0,0,0,4.4,0Z" />
                <path class="cls-5" d="M456.82,186.81v12.71h-2.09v-9.28L450,198.08h-1l-4.7-7.87v9.31h-2.12V186.81h2.38l5,8.59,5.14-8.59Z" />
                <path class="cls-5" d="M463,198.83a6.08,6.08,0,0,1-2.37-2.32,7,7,0,0,1,0-6.69,6,6,0,0,1,2.37-2.31,7.46,7.46,0,0,1,6.8,0,6,6,0,0,1,2.35,2.31,7,7,0,0,1,0,6.69,6.09,6.09,0,0,1-2.35,2.32,7.3,7.3,0,0,1-6.8,0Zm5.6-1.74a3.92,3.92,0,0,0,1.52-1.58,5.19,5.19,0,0,0,0-4.69,3.83,3.83,0,0,0-1.52-1.57,4.66,4.66,0,0,0-4.39,0,4,4,0,0,0-1.54,1.57,5.19,5.19,0,0,0,0,4.69,4.1,4.1,0,0,0,1.54,1.58,4.58,4.58,0,0,0,4.39,0Z" />
                <path class="cls-5" d="M485.33,188.82h-7.06v10.7H476V186.81h9.36Z" />
                <path class="cls-5" d="M487.32,186.81h2.31v5.39h7.24v-5.39h2.31v12.71h-2.31V194.2h-7.24v5.32h-2.31Z" />
                <path class="cls-5" d="M514.75,193.93H504.43a4,4,0,0,0,1.48,2.7,4.81,4.81,0,0,0,3.13,1,4.71,4.71,0,0,0,3.67-1.53L514,197.6a5.56,5.56,0,0,1-2.15,1.54,8.09,8.09,0,0,1-6.45-.3,5.86,5.86,0,0,1-2.41-2.32,6.61,6.61,0,0,1-.85-3.36,6.74,6.74,0,0,1,.83-3.33,5.92,5.92,0,0,1,2.28-2.32,6.51,6.51,0,0,1,3.27-.82,6.42,6.42,0,0,1,3.26.82,5.86,5.86,0,0,1,2.23,2.32,7.12,7.12,0,0,1,.8,3.41A5,5,0,0,1,514.75,193.93Zm-9-4.29a4.08,4.08,0,0,0-1.31,2.64h8.16a4.07,4.07,0,0,0-1.3-2.63,4.3,4.3,0,0,0-5.55,0Z" />
                <path class="cls-5" d="M527,188.82h-4.66v10.7H520v-10.7h-4.66v-2H527Z" />
                <path class="cls-5" d="M539.86,193.93H529.54a4,4,0,0,0,1.48,2.7,4.79,4.79,0,0,0,3.13,1,4.73,4.73,0,0,0,3.67-1.53l1.27,1.48a5.41,5.41,0,0,1-2.15,1.54,8.07,8.07,0,0,1-6.44-.3,5.8,5.8,0,0,1-2.41-2.32,6.61,6.61,0,0,1-.85-3.36,6.74,6.74,0,0,1,.82-3.33,6,6,0,0,1,2.28-2.32,6.52,6.52,0,0,1,3.28-.82,6.38,6.38,0,0,1,3.25.82,5.79,5.79,0,0,1,2.23,2.32,7,7,0,0,1,.81,3.41C539.91,193.41,539.89,193.64,539.86,193.93Zm-9-4.29a4,4,0,0,0-1.31,2.64h8.16a4.08,4.08,0,0,0-1.31-2.63,4.29,4.29,0,0,0-5.54,0Z" />
                <path class="cls-5" d="M549.22,186.81h2.3v5.39h7.25v-5.39h2.3v12.71h-2.3V194.2h-7.25v5.32h-2.3Z" />
                <path class="cls-5" d="M573.78,188a5,5,0,0,1,1.41,3.87v7.67H573v-1.67a3.61,3.61,0,0,1-1.64,1.35,6.31,6.31,0,0,1-2.53.47,5.32,5.32,0,0,1-3.42-1,3.53,3.53,0,0,1-.06-5.41,6,6,0,0,1,3.88-1h3.65v-.45a3,3,0,0,0-.86-2.28,3.66,3.66,0,0,0-2.55-.79,6.64,6.64,0,0,0-2.2.37,5.92,5.92,0,0,0-1.83,1l-1-1.72a7.18,7.18,0,0,1,2.35-1.22,9.89,9.89,0,0,1,2.91-.41A5.75,5.75,0,0,1,573.78,188Zm-2.29,9.33a3.41,3.41,0,0,0,1.39-1.67v-1.78h-3.55c-2,0-2.93.66-2.93,2a1.77,1.77,0,0,0,.75,1.51,3.36,3.36,0,0,0,2.06.55A4.29,4.29,0,0,0,571.49,197.31Z" />
                <path class="cls-5" d="M415.49,208.42l3.63,5.6,3.62-5.6h4.75l-5.82,8.85,6.3,9.63h-4.78l-4.07-6.12-4,6.12h-4.67l6.25-9.45-5.85-9Z" />
                <path class="cls-5" d="M433,226a9.06,9.06,0,0,1-3.42-3.42,10.3,10.3,0,0,1,0-9.8,9.06,9.06,0,0,1,3.42-3.42,10.34,10.34,0,0,1,9.82,0,9.06,9.06,0,0,1,3.42,3.42,10.23,10.23,0,0,1,0,9.8,9.06,9.06,0,0,1-3.42,3.42,10.34,10.34,0,0,1-9.82,0Zm7.72-3.16a5.23,5.23,0,0,0,2-2.1,6.95,6.95,0,0,0,0-6.12,5.23,5.23,0,0,0-2-2.1,5.6,5.6,0,0,0-5.6,0,5.16,5.16,0,0,0-2,2.1,6.86,6.86,0,0,0,0,6.12,5.16,5.16,0,0,0,2,2.1,5.54,5.54,0,0,0,5.6,0Z" />
                <path class="cls-5" d="M461.93,209.24a6.1,6.1,0,0,1,2.64,2.32,7.35,7.35,0,0,1,0,7.12,6,6,0,0,1-2.64,2.32,9.36,9.36,0,0,1-4,.81h-3.52v5.09h-4.05V208.42h7.57A9.22,9.22,0,0,1,461.93,209.24Zm-1.49,8.25a2.94,2.94,0,0,0,.95-2.36,3,3,0,0,0-.95-2.39,4.06,4.06,0,0,0-2.77-.83h-3.3v6.41h3.3A4.11,4.11,0,0,0,460.44,217.49Z" />
                <path class="cls-5" d="M478.89,222.94h-8.12l-1.55,4h-4.15l7.8-18.48h4l7.82,18.48h-4.25Zm-1.27-3.25-2.78-7.07-2.77,7.07Z" />
                <path class="cls-5" d="M508.17,218.9a5,5,0,0,1-.92,6.63,8.05,8.05,0,0,1-5,1.37h-8.63V208.42h8.15a7.89,7.89,0,0,1,4.75,1.24,4.11,4.11,0,0,1,1.7,3.54,4.39,4.39,0,0,1-.65,2.41,4.58,4.58,0,0,1-1.82,1.66A4.7,4.7,0,0,1,508.17,218.9Zm-10.55-2.82h3.77a3,3,0,0,0,2-.57,2.08,2.08,0,0,0,.68-1.68,2.05,2.05,0,0,0-.69-1.66,3,3,0,0,0-2-.58h-3.77Zm7.3,5.28c0-1.53-.95-2.3-2.85-2.3h-4.45v4.67h4.45Q504.92,223.73,504.92,221.36Z" />
                <path class="cls-5" d="M534.84,208.42V226.9h-4.05v-7.58h-7.95v7.58h-4.05V208.42h4.05v7.29h7.95v-7.29Z" />
                <path class="cls-5" d="M554.77,208.42l-7.45,14.63a8.62,8.62,0,0,1-2.59,3.19,5.56,5.56,0,0,1-3.29,1.08,7.29,7.29,0,0,1-2.85-.63l1-3.25a5.84,5.84,0,0,0,1.75.35,2.42,2.42,0,0,0,1.35-.39,3.6,3.6,0,0,0,1.1-1.2l.15-.21L537,208.42h4.32l4.65,9.93,4.8-9.93Z" />
                <path class="cls-5" d="M572,219.46h-2.55v7.44h-4v-7.44h-2.6L559,226.9h-4.67l5.25-9.66-4.93-8.82h4.28l3.92,7.47h2.68v-7.47h4v7.47h2.6l3.95-7.47h4.28l-4.9,8.82,5.22,9.66H576Z" />
                <path class="cls-5" d="M600.82,223.42v7.31h-3.75V226.9H584.72v3.83H581l0-7.31h.7c1,0,1.79-.85,2.23-2.43a31.52,31.52,0,0,0,.8-6.79l.2-5.78h13.45v15Zm-13.05-3.29a7.64,7.64,0,0,1-1.23,3.29h7.83V211.91h-6l-.08,2.69A41.54,41.54,0,0,1,587.77,220.13Z" />
                <path class="cls-5" d="M615.29,222.94h-8.12l-1.55,4h-4.15l7.8-18.48h4l7.82,18.48h-4.25ZM614,219.69l-2.78-7.07-2.77,7.07Z" />
                <path class="cls-9" d="M330.18,235.38S328.9,248,318.93,248.89c10,.87,11.25,13.51,11.25,13.51s1.28-12.64,11.25-13.51C331.46,248,330.18,235.38,330.18,235.38Z" />
                <path class="cls-9" d="M349.45,259.56s-.8,7.92-7.05,8.46c6.25.55,7.05,8.46,7.05,8.46s.8-7.91,7.05-8.46C350.25,267.48,349.45,259.56,349.45,259.56Z" />
                <polygon class="cls-30" points="322.54 261.92 296.33 261.92 296.33 235.5 270.96 235.5 270.96 261.92 244.54 261.92 244.54 287.5 270.96 287.5 270.96 313.92 296.33 313.92 296.33 287.5 322.54 287.5 322.54 261.92" />
                <ellipse class="cls-31" cx="286.14" cy="321.55" rx="54.01" ry="5.9" />
                <path class="cls-5" d="M232.47,328.63v16.79h-2.4v-7.48h-9.64v7.48H218V328.63h2.4v7.22h9.64v-7.22Z" />
                <path class="cls-5" d="M248.31,332.71l-6.16,14a6.37,6.37,0,0,1-1.91,2.73,4.37,4.37,0,0,1-2.63.8,5.3,5.3,0,0,1-1.81-.31,3.56,3.56,0,0,1-1.45-.87l1-1.73a3.24,3.24,0,0,0,2.28.94,2.16,2.16,0,0,0,1.4-.45,3.65,3.65,0,0,0,1-1.52l.41-.89-5.61-12.69h2.4l4.44,10.17,4.39-10.17Z" />
                <path class="cls-5" d="M261.15,340.05h-2.47v5.37h-2.3v-5.37h-2.47l-3.51,5.37h-2.73l4.36-6.57-4-6.14h2.45l3.43,5.37h2.5v-5.37h2.3v5.37h2.5l3.43-5.37h2.47l-4,6.16,4.37,6.55h-2.74Z" />
                <path class="cls-5" d="M282.54,343.41v5h-2.16v-3H269.75v3h-2.19v-5h.67c.82-.05,1.38-.62,1.68-1.73a22.76,22.76,0,0,0,.63-4.68l.19-4.29h9.86v10.7Zm-10.29-2.27a3.88,3.88,0,0,1-1.09,2.27h7.13v-8.69h-5.52l-.12,2.45A27.06,27.06,0,0,1,272.25,341.14Z" />
                <path class="cls-5" d="M293.76,333.88a5,5,0,0,1,1.4,3.86v7.68H293v-1.68a3.59,3.59,0,0,1-1.65,1.36,6.28,6.28,0,0,1-2.53.47,5.3,5.3,0,0,1-3.42-1,3.55,3.55,0,0,1-.06-5.41,6,6,0,0,1,3.89-1h3.65v-.45a2.93,2.93,0,0,0-.87-2.28,3.61,3.61,0,0,0-2.54-.79,6.7,6.7,0,0,0-2.21.37,5.75,5.75,0,0,0-1.82,1l-1-1.72a7.08,7.08,0,0,1,2.35-1.22,10.16,10.16,0,0,1,2.9-.42A5.8,5.8,0,0,1,293.76,333.88Zm-2.29,9.33a3.41,3.41,0,0,0,1.39-1.67v-1.78h-3.55c-2,0-2.93.66-2.93,2a1.79,1.79,0,0,0,.74,1.51,3.42,3.42,0,0,0,2.07.55A4.29,4.29,0,0,0,291.47,343.21Z" />
                <path class="cls-5" d="M310.4,339.83H300.08a4,4,0,0,0,1.48,2.7,4.81,4.81,0,0,0,3.13,1,4.73,4.73,0,0,0,3.67-1.53l1.27,1.48a5.45,5.45,0,0,1-2.14,1.54,8.09,8.09,0,0,1-6.45-.3,5.86,5.86,0,0,1-2.41-2.32,7.08,7.08,0,0,1,0-6.69,6,6,0,0,1,2.28-2.32,6.49,6.49,0,0,1,3.27-.83,6.36,6.36,0,0,1,3.25.83,5.88,5.88,0,0,1,2.24,2.32,7.12,7.12,0,0,1,.8,3.41C310.45,339.31,310.43,339.55,310.4,339.83Zm-9-4.29a4.08,4.08,0,0,0-1.31,2.64h8.16a4.08,4.08,0,0,0-1.31-2.63,3.93,3.93,0,0,0-2.77-1A4,4,0,0,0,301.39,335.54Z" />
                <path class="cls-5" d="M322.62,334.72H318v10.7h-2.3v-10.7H311v-2h11.62Z" />
                <path class="cls-5" d="M335.51,339.83H325.19a4,4,0,0,0,1.47,2.7,4.83,4.83,0,0,0,3.13,1,4.75,4.75,0,0,0,3.68-1.53l1.27,1.48a5.49,5.49,0,0,1-2.15,1.54,8.07,8.07,0,0,1-6.44-.3,5.88,5.88,0,0,1-2.42-2.32,7.08,7.08,0,0,1,0-6.69,6,6,0,0,1,2.28-2.32,6.53,6.53,0,0,1,3.28-.83,6.39,6.39,0,0,1,3.25.83,5.93,5.93,0,0,1,2.23,2.32,7,7,0,0,1,.8,3.41A6.66,6.66,0,0,1,335.51,339.83Zm-9-4.29a4,4,0,0,0-1.3,2.64h8.16a4.13,4.13,0,0,0-1.31-2.63,4,4,0,0,0-2.77-1A4,4,0,0,0,326.49,335.54Z" />
                <path class="cls-5" d="M346.94,344.73a6.2,6.2,0,0,1-2.39-2.32,6.94,6.94,0,0,1,0-6.69,6.17,6.17,0,0,1,2.39-2.31,7.18,7.18,0,0,1,3.47-.83,6.69,6.69,0,0,1,3.08.7,4.88,4.88,0,0,1,2.1,2l-1.75,1.12a3.87,3.87,0,0,0-1.49-1.36,4.14,4.14,0,0,0-2-.46,4.65,4.65,0,0,0-2.25.55,4,4,0,0,0-1.56,1.58,4.75,4.75,0,0,0-.56,2.33,4.88,4.88,0,0,0,.56,2.37,4,4,0,0,0,1.56,1.57,4.55,4.55,0,0,0,2.25.55,4.25,4.25,0,0,0,2-.45,3.9,3.9,0,0,0,1.49-1.37l1.75,1.1a5,5,0,0,1-2.1,2,6.57,6.57,0,0,1-3.08.71A7.07,7.07,0,0,1,346.94,344.73Z" />
                <path class="cls-5" d="M369.47,339.83H359.15a4,4,0,0,0,1.47,2.7,4.83,4.83,0,0,0,3.13,1,4.75,4.75,0,0,0,3.68-1.53l1.27,1.48a5.49,5.49,0,0,1-2.15,1.54,8.07,8.07,0,0,1-6.44-.3,5.88,5.88,0,0,1-2.42-2.32,7.08,7.08,0,0,1,0-6.69,6,6,0,0,1,2.28-2.32,6.53,6.53,0,0,1,3.28-.83,6.39,6.39,0,0,1,3.25.83,5.93,5.93,0,0,1,2.23,2.32,7,7,0,0,1,.8,3.41A6.66,6.66,0,0,1,369.47,339.83Zm-9-4.29a4,4,0,0,0-1.3,2.64h8.16a4.13,4.13,0,0,0-1.31-2.63,4,4,0,0,0-2.77-1A4,4,0,0,0,360.45,335.54Z" />
                <path class="cls-5" d="M219.68,367.73a6.05,6.05,0,0,1-2.36-2.32,7,7,0,0,1,0-6.69,6,6,0,0,1,2.36-2.31,7.4,7.4,0,0,1,6.81,0,6.07,6.07,0,0,1,2.35,2.31,7,7,0,0,1,0,6.69,6.09,6.09,0,0,1-2.35,2.32,7.32,7.32,0,0,1-6.81,0Zm5.61-1.74a4.08,4.08,0,0,0,1.52-1.59,5.23,5.23,0,0,0,0-4.67,4,4,0,0,0-1.52-1.58,4.68,4.68,0,0,0-4.4,0,4,4,0,0,0-1.53,1.58,5.07,5.07,0,0,0,0,4.67,4.11,4.11,0,0,0,1.53,1.59,4.6,4.6,0,0,0,4.4,0Z" />
                <path class="cls-5" d="M241.67,357.72H237v10.7h-2.3v-10.7h-4.66v-2h11.62Z" />
                <path class="cls-5" d="M251.83,367.73a6.13,6.13,0,0,1-2.39-2.32,6.94,6.94,0,0,1,0-6.69,6.1,6.1,0,0,1,2.39-2.31,7.18,7.18,0,0,1,3.47-.83,6.69,6.69,0,0,1,3.08.7,4.88,4.88,0,0,1,2.1,2l-1.75,1.12a3.94,3.94,0,0,0-1.49-1.36,4.18,4.18,0,0,0-2-.46,4.62,4.62,0,0,0-2.24.55,4,4,0,0,0-1.56,1.58,4.65,4.65,0,0,0-.56,2.33,4.77,4.77,0,0,0,.56,2.37A4,4,0,0,0,253,366a4.51,4.51,0,0,0,2.24.55,4.29,4.29,0,0,0,2-.45,4,4,0,0,0,1.49-1.37l1.75,1.1a5,5,0,0,1-2.1,2,6.57,6.57,0,0,1-3.08.71A7.07,7.07,0,0,1,251.83,367.73Z" />
                <path class="cls-5" d="M272.46,356.4a6,6,0,0,1,2.29,2.28,7.34,7.34,0,0,1,0,6.78,5.86,5.86,0,0,1-2.29,2.29,6.63,6.63,0,0,1-3.31.82,5.94,5.94,0,0,1-2.51-.53,5.14,5.14,0,0,1-1.93-1.54v6.58H262.4V355.71h2.21v2a4.79,4.79,0,0,1,1.95-1.59,6,6,0,0,1,2.59-.55A6.74,6.74,0,0,1,272.46,356.4ZM271.15,366a4.13,4.13,0,0,0,1.54-1.59,5.15,5.15,0,0,0,0-4.67,4,4,0,0,0-1.54-1.58,4.45,4.45,0,0,0-2.19-.55,4.34,4.34,0,0,0-2.18.56,4.08,4.08,0,0,0-1.53,1.58,4.61,4.61,0,0,0-.57,2.32,4.76,4.76,0,0,0,.56,2.34,4,4,0,0,0,1.53,1.59,4.3,4.3,0,0,0,2.19.56A4.25,4.25,0,0,0,271.15,366Z" />
                <path class="cls-5" d="M290,362.83H279.68a4,4,0,0,0,1.48,2.7,4.81,4.81,0,0,0,3.13,1A4.73,4.73,0,0,0,288,365l1.27,1.48a5.45,5.45,0,0,1-2.14,1.54,8.09,8.09,0,0,1-6.45-.3,5.86,5.86,0,0,1-2.41-2.32,7.08,7.08,0,0,1,0-6.69,6,6,0,0,1,2.28-2.32,6.49,6.49,0,0,1,3.27-.83,6.36,6.36,0,0,1,3.25.83,5.88,5.88,0,0,1,2.24,2.32,7.12,7.12,0,0,1,.8,3.41C290.05,362.31,290,362.55,290,362.83Zm-9-4.29a4.08,4.08,0,0,0-1.31,2.64h8.16a4.08,4.08,0,0,0-1.31-2.63,3.93,3.93,0,0,0-2.77-1A4,4,0,0,0,281,358.54Z" />
                <path class="cls-5" d="M306,366.41v5h-2.16v-3H293.19v3H291v-5h.67c.82-.05,1.38-.62,1.68-1.73A23.48,23.48,0,0,0,294,360l.19-4.29H304v10.7Zm-10.29-2.27a3.88,3.88,0,0,1-1.09,2.27h7.13v-8.69h-5.52l-.12,2.45A28.51,28.51,0,0,1,295.7,364.14Z" />
                <path class="cls-5" d="M310.7,367.73a6.2,6.2,0,0,1-2.39-2.32,6.94,6.94,0,0,1,0-6.69,6.17,6.17,0,0,1,2.39-2.31,7.18,7.18,0,0,1,3.47-.83,6.69,6.69,0,0,1,3.08.7,4.88,4.88,0,0,1,2.1,2l-1.75,1.12a3.87,3.87,0,0,0-1.49-1.36,4.14,4.14,0,0,0-2-.46,4.65,4.65,0,0,0-2.25.55,4,4,0,0,0-1.56,1.58,4.75,4.75,0,0,0-.56,2.33,4.88,4.88,0,0,0,.56,2.37A4,4,0,0,0,311.9,366a4.55,4.55,0,0,0,2.25.55,4.25,4.25,0,0,0,2-.45,3.9,3.9,0,0,0,1.49-1.37l1.75,1.1a5,5,0,0,1-2.1,2,6.57,6.57,0,0,1-3.08.71A7.07,7.07,0,0,1,310.7,367.73Z" />
                <path class="cls-5" d="M331.28,357.72h-4.65v10.7h-2.31v-10.7h-4.65v-2h11.61Z" />
                <path class="cls-5" d="M344.41,364.92a3,3,0,0,1-1.26,2.59,6.38,6.38,0,0,1-3.76.91h-6.12V355.71h5.91a6.29,6.29,0,0,1,3.53.85A2.75,2.75,0,0,1,344,359a2.86,2.86,0,0,1-.54,1.74,3.29,3.29,0,0,1-1.5,1.11A2.93,2.93,0,0,1,344.41,364.92Zm-8.88-3.74H339a3.45,3.45,0,0,0,2-.48,1.59,1.59,0,0,0,.68-1.39c0-1.22-.89-1.83-2.68-1.83h-3.46Zm5.86,5a1.54,1.54,0,0,0,.72-1.41,1.7,1.7,0,0,0-.66-1.47,3.59,3.59,0,0,0-2.08-.48h-3.84v3.82h3.7A4,4,0,0,0,341.39,366.19Z" />
                <path class="cls-5" d="M356.23,356.88a5,5,0,0,1,1.4,3.86v7.68h-2.18v-1.68a3.57,3.57,0,0,1-1.64,1.36,6.36,6.36,0,0,1-2.54.47,5.3,5.3,0,0,1-3.42-1,3.55,3.55,0,0,1-.06-5.41,6.05,6.05,0,0,1,3.89-1h3.65v-.45a3,3,0,0,0-.86-2.28,3.66,3.66,0,0,0-2.55-.79,6.7,6.7,0,0,0-2.21.37,6,6,0,0,0-1.82,1l-1-1.72a7.18,7.18,0,0,1,2.35-1.22,10.18,10.18,0,0,1,2.91-.42A5.77,5.77,0,0,1,356.23,356.88Zm-2.29,9.33a3.41,3.41,0,0,0,1.39-1.67v-1.78h-3.55c-1.95,0-2.93.66-2.93,2a1.79,1.79,0,0,0,.74,1.51,3.42,3.42,0,0,0,2.07.55A4.29,4.29,0,0,0,353.94,366.21Z" />
                <path class="cls-5" d="M376.38,362.88a2.62,2.62,0,0,1,.69,1.85,2.94,2.94,0,0,1-.76,2,5,5,0,0,1-2.13,1.37,8.76,8.76,0,0,1-3,.49,10.41,10.41,0,0,1-2.78-.37,8.38,8.38,0,0,1-2.41-1.07l.7-1.75a7.63,7.63,0,0,0,2.09.9,8.69,8.69,0,0,0,2.37.33,5.15,5.15,0,0,0,2.61-.57,1.72,1.72,0,0,0,1-1.52,1.52,1.52,0,0,0-.78-1.37,4.2,4.2,0,0,0-2.2-.48h-2.33V361h2.16a3.91,3.91,0,0,0,2-.45,1.41,1.41,0,0,0,.75-1.25,1.49,1.49,0,0,0-.88-1.35,4.91,4.91,0,0,0-2.36-.48,9.45,9.45,0,0,0-4,1l-.62-1.78a10.69,10.69,0,0,1,4.87-1.17,8.24,8.24,0,0,1,2.76.43,4.54,4.54,0,0,1,1.92,1.22,2.67,2.67,0,0,1,.69,1.8,2.5,2.5,0,0,1-.62,1.68,3.82,3.82,0,0,1-1.68,1.13A4.15,4.15,0,0,1,376.38,362.88Z" />
                <path class="cls-5" d="M388.8,356.88a5,5,0,0,1,1.4,3.86v7.68H388v-1.68a3.59,3.59,0,0,1-1.65,1.36,6.28,6.28,0,0,1-2.53.47,5.3,5.3,0,0,1-3.42-1,3.55,3.55,0,0,1-.06-5.41,6,6,0,0,1,3.89-1h3.65v-.45a2.93,2.93,0,0,0-.87-2.28,3.61,3.61,0,0,0-2.54-.79,6.7,6.7,0,0,0-2.21.37,5.75,5.75,0,0,0-1.82,1l-1-1.72a7.08,7.08,0,0,1,2.35-1.22,10.16,10.16,0,0,1,2.9-.42A5.8,5.8,0,0,1,388.8,356.88Zm-2.29,9.33a3.41,3.41,0,0,0,1.39-1.67v-1.78h-3.55c-2,0-2.93.66-2.93,2a1.79,1.79,0,0,0,.74,1.51,3.42,3.42,0,0,0,2.07.55A4.29,4.29,0,0,0,386.51,366.21Z" />
                <path class="cls-5" d="M233.19,377.32V395.8h-4v-15h-6l-.13,3.85a40.81,40.81,0,0,1-.6,6.38,8,8,0,0,1-1.59,3.74,3.84,3.84,0,0,1-3.11,1.31,8.73,8.73,0,0,1-2-.29l.25-3.62a2.38,2.38,0,0,0,.73.11c1,0,1.64-.6,2-1.81a23.33,23.33,0,0,0,.73-5.66l.25-7.5Z" />
                <path class="cls-5" d="M250.86,392.37v3.43H237.31V377.32h13.23v3.43h-9.2v4h8.12v3.32h-8.12v4.28Z" />
                <path class="cls-5" d="M268.26,377.32V395.8h-4v-6.65A11.88,11.88,0,0,1,260,390a7.53,7.53,0,0,1-5.4-1.78,6.76,6.76,0,0,1-1.88-5.14v-5.78h4v5.31a3.89,3.89,0,0,0,1,2.86,3.78,3.78,0,0,0,2.79,1,8.84,8.84,0,0,0,3.75-.81v-8.32Z" />
                <path class="cls-5" d="M285.91,392.37v3.43H272.36V377.32h13.23v3.43h-9.2v4h8.12v3.32h-8.12v4.28Z" />
                <path class="cls-5" d="M305,377.32V395.8h-4.05v-7.58H293v7.58h-4.05V377.32H293v7.29h7.95v-7.29Z" />
                <path class="cls-5" d="M309.11,377.32h4v12l8.35-12h3.8V395.8h-4v-12l-8.35,12h-3.83Z" />
                <path class="cls-5" d="M342.94,392.37v3.43H329.39V377.32h13.22v3.43h-9.2v4h8.13v3.32h-8.13v4.28Z" />
                <path class="cls-3" d="M648.91,319.16h0m-3.27,1.91h0m3.64,4.53A28.64,28.64,0,0,1,653,341.9a19.88,19.88,0,0,1-9.21,15c4.36-8.77,5.95-18.15,5.46-31.25m-2.95-8c-.72,0-1.12.64-1,2,1.52,19.57-.52,30.82-9.38,43.33,9.7,0,19.65-9.06,20.69-20.72,1.09-13.51-7.3-24.64-10.29-24.64Z" />
                <path class="cls-3" d="M669.43,319.18h0m.18,6.73a31.14,31.14,0,0,1,2.8,7.9c1.29,6.05,1.93,18.1-8.29,30.77a3.61,3.61,0,0,0,2.81,5.88,3.67,3.67,0,0,0,1.34-.26c.47-.19,10-4.13,17.34-15.42a35.59,35.59,0,0,1-1.3,6.1c-2.15,7-7.32,16.75-19.79,23.27a3.61,3.61,0,0,0,1.67,6.81l.35,0a43.8,43.8,0,0,0,12.11-3.31c-4.25,4.58-10.95,9.67-19.57,11.39a40.26,40.26,0,0,1-7.88.77c-12.64,0-23.29-5.62-28.48-15-2.53-4.57-3.07-9.52-3.59-14.29-.68-6.26-1.43-13.21-7.19-18.31a6.74,6.74,0,0,1,3.59-1,7.62,7.62,0,0,1,5.06,2c2.32,2.32,2.95,4.69,3.61,7.19.77,2.89,1.73,6.48,5.63,8.66a14.23,14.23,0,0,0,7,1.7c7.09,0,15.59-4.41,21.18-11,7.25-8.8,11.36-20.84,11.64-33.75m17.69,56.66h0m-20.49-65c-.69,0-1.08.65-1,2.06,1.23,16.1-3.77,29.34-10.66,37.7-4.63,5.47-12.15,9.69-18.39,9.69a10.55,10.55,0,0,1-5.2-1.24c-5.16-2.87-2.43-9.27-8.51-15.31a11.29,11.29,0,0,0-7.55-3,10.92,10.92,0,0,0-9.14,5.13c12.86,7.11,6.09,21,13.17,33.85,6.62,12,19.55,16.88,31.64,16.88a43.73,43.73,0,0,0,8.58-.84c19.47-3.88,30.67-23.51,26.9-23.51a4.86,4.86,0,0,0-2.45,1.22c-8.07,6.13-18,7.08-18,7.08,26-13.6,25-42,21.18-42-.54,0-1.13.57-1.72,1.84-6.82,14.87-18.73,19.66-18.73,19.66,9.78-12.13,11-24.49,9-33.79s-7-15.46-9.13-15.46Z" />
                <ellipse class="cls-32" cx="651.96" cy="413.26" rx="101.07" ry="4.73" />
                <text class="cls-33" transform="translate(590.85 475.8)">
                    к
                    <tspan class="cls-34" x="13.75" y="0">ампания</tspan>
                </text>
                <path class="cls-5" d="M584.17,454.13a8.84,8.84,0,0,1-3.4-3.41,10.4,10.4,0,0,1,0-9.85,8.82,8.82,0,0,1,3.4-3.4,9.65,9.65,0,0,1,4.86-1.23,9.77,9.77,0,0,1,4.11.84,8.45,8.45,0,0,1,3.09,2.43l-2.6,2.54a5.67,5.67,0,0,0-7.3-1.41,5.27,5.27,0,0,0-2,2.09,7,7,0,0,0,0,6.13,5.23,5.23,0,0,0,2,2.1,5.59,5.59,0,0,0,2.9.75,5.46,5.46,0,0,0,4.4-2.19l2.6,2.53a8.16,8.16,0,0,1-3.1,2.46,9.9,9.9,0,0,1-4.13.84A9.68,9.68,0,0,1,584.17,454.13Z" />
                <path class="cls-5" d="M615,444.13a5.64,5.64,0,0,1,1.7,4.47,6,6,0,0,1-1.88,4.79,7.83,7.83,0,0,1-5.32,1.65h-7.87V440h-4.93v-3.48h8.93v6.07h4.47A7.16,7.16,0,0,1,615,444.13Zm-3.25,6.92a3.07,3.07,0,0,0,.88-2.38q0-2.87-3.35-2.87h-3.65v6.07h3.65A3.46,3.46,0,0,0,611.7,451.05Z" />
                <path class="cls-5" d="M631.17,447.13a4.51,4.51,0,0,1,.86,2.73,4.37,4.37,0,0,1-1,2.93,6.62,6.62,0,0,1-2.84,1.9,11.22,11.22,0,0,1-3.91.66,13.77,13.77,0,0,1-3.59-.47,13,13,0,0,1-3.39-1.45l1.25-3.07a9.24,9.24,0,0,0,2.54,1.13,10.41,10.41,0,0,0,2.71.38,5.88,5.88,0,0,0,3-.69,2.12,2.12,0,0,0,1.19-1.92,1.74,1.74,0,0,0-.81-1.56,4.07,4.07,0,0,0-2.22-.53h-4.27V444h4a3.11,3.11,0,0,0,1.92-.53,1.75,1.75,0,0,0,.68-1.45,1.89,1.89,0,0,0-1-1.69,4.75,4.75,0,0,0-2.54-.61A9.3,9.3,0,0,0,619,441l-1.23-3.32a12.32,12.32,0,0,1,6-1.51,10.94,10.94,0,0,1,3.78.63,6.5,6.5,0,0,1,2.75,1.85,4.26,4.26,0,0,1,1,2.83,4.19,4.19,0,0,1-.67,2.35,4.47,4.47,0,0,1-1.85,1.58A5.07,5.07,0,0,1,631.17,447.13Z" />
                <path class="cls-5" d="M653,451.55v7.32h-3.75V455H636.93v3.83h-3.75l0-7.32h.7c1.05,0,1.79-.84,2.23-2.43a31.33,31.33,0,0,0,.8-6.78l.2-5.78h13.45v15Zm-13-3.28a7.6,7.6,0,0,1-1.23,3.28h7.83V440h-6l-.08,2.69A41.54,41.54,0,0,1,640,448.27Z" />
                <path class="cls-5" d="M667.5,451.08h-8.12l-1.55,4h-4.15l7.8-18.48h4L673.3,455h-4.25Zm-1.27-3.25-2.78-7.08-2.77,7.08Z" />
                <path class="cls-5" d="M675.38,436.56h4v12l8.35-12h3.8V455h-4V443l-8.35,12h-3.82Zm3.22-5.23h2.78a1.8,1.8,0,0,0,2.07,1.93,2.2,2.2,0,0,0,1.53-.49,2,2,0,0,0,.55-1.44h2.77a3.8,3.8,0,0,1-1.22,3,5.5,5.5,0,0,1-3.63,1C680.25,435.37,678.64,434,678.6,431.33Z" />
                <path class="cls-5" d="M709,440h-5.6v15h-4V440h-5.58v-3.48H709Z" />
                <path class="cls-5" d="M724.88,451.6V455H711.33V436.56h13.22V440h-9.2v4h8.13v3.33h-8.13v4.27Z" />
                <path class="cls-3" d="M175.56,924.27h0a6.87,6.87,0,0,0-2.89-1.57l-.44-.12-.16-.42a6.84,6.84,0,0,0-1.85-2.72,6.93,6.93,0,0,0-4.67-1.8h-.36a7,7,0,0,0-6.62,7.33l.52,10.17a1.87,1.87,0,0,0,.62,1.3,1.94,1.94,0,0,0,1.36.49l10.17-.52a7,7,0,0,0,6.61-7.33A6.88,6.88,0,0,0,175.56,924.27Zm-2.3,7.33a3.18,3.18,0,0,1-2.21,1l-8.29.42-.42-8.29a3.21,3.21,0,0,1,5.35-2.54,3.16,3.16,0,0,1,1.05,2.22,1.88,1.88,0,0,0,2,1.78,3.26,3.26,0,0,1,2.32.83,3.2,3.2,0,0,1,.22,4.53Z" />
                <path class="cls-3" d="M193.21,904.73a7,7,0,0,0-2.89-1.57l-.44-.11-.16-.43a6.83,6.83,0,0,0-1.86-2.71,6.91,6.91,0,0,0-4.67-1.8h-.36a7,7,0,0,0-6.61,7.33l.51,10.17a1.93,1.93,0,0,0,.62,1.3,1.88,1.88,0,0,0,1.36.49l10.17-.52a7,7,0,0,0,4.33-12.15Zm-4.52,8.38-8.29.43-.42-8.29a3.21,3.21,0,0,1,3-3.37,3.23,3.23,0,0,1,2.32.82,3.2,3.2,0,0,1,1,2.22,1.81,1.81,0,0,0,.62,1.3,1.85,1.85,0,0,0,1.36.49,3.2,3.2,0,0,1,3.36,3A3.21,3.21,0,0,1,188.69,913.11Z" />
                <path class="cls-3" d="M218.62,871.22a1.9,1.9,0,0,0-1.49-.47,90.58,90.58,0,0,0-62.48,36.9L149,915.54l-29,10.86a1.9,1.9,0,0,0-1,.81l-10.33,17.5a1.89,1.89,0,0,0,.36,2.36,1.83,1.83,0,0,0,1.06.47l17.33,1.9,9.93,9-5.81,6.44a1.89,1.89,0,0,0,.13,2.67A1.93,1.93,0,0,0,133,968a1.81,1.81,0,0,0,1.3-.62l5.82-6.44,9.94,9L153.71,987a1.91,1.91,0,0,0,.58,1,2,2,0,0,0,.6.36,1.84,1.84,0,0,0,1.78-.25L173,976a1.92,1.92,0,0,0,.7-1l7.86-30,7.27-6.44a90.53,90.53,0,0,0,30.37-65.9A1.91,1.91,0,0,0,218.62,871.22Zm-91.3,74.42-13.94-1.53,8.51-14.41L145,921.05Zm42.94,27.75-13.47,9.92-2.93-13.71,22.66-20.09Zm39.56-71.68a86.78,86.78,0,0,1-23.45,34L151.8,966.39l-9.14-8.25,11.54-12.77a1.86,1.86,0,0,0,.48-1.36,1.83,1.83,0,0,0-.62-1.31,1.89,1.89,0,0,0-2.66.14l-11.54,12.77-9.13-8.25,27-37.5a87,87,0,0,1,31.47-26.79l.85-.43.35.89a29.14,29.14,0,0,0,18.87,17l.91.26Zm5.53-25.84a86.61,86.61,0,0,1-3.71,20.56l-.25.81-.82-.23a25.33,25.33,0,0,1-16.79-15.16l-.31-.79.78-.34A86.79,86.79,0,0,1,214.33,875l1.08-.17Z" />
                <path class="cls-35" d="M293.93,894.52a8.51,8.51,0,0,0-8.3-6.61,9,9,0,0,0-2.15.27,12.53,12.53,0,0,0-15.09-6.66,15.46,15.46,0,0,0-27.77,2.7,10.6,10.6,0,0,0-15.76,9.27c0,.34,0,.69,0,1Z" />
                <path class="cls-35" d="M148.77,909.14a8,8,0,0,0-7.79-6.2,8.34,8.34,0,0,0-2,.25,11.78,11.78,0,0,0-10.67-6.79,11.91,11.91,0,0,0-3.5.53,14.51,14.51,0,0,0-26.07,2.54,10,10,0,0,0-14.8,8.7,7.78,7.78,0,0,0,0,1Z" />
                <path class="cls-9" d="M160.24,1008.46s-.84,8.35-7.43,8.92c6.59.58,7.43,8.92,7.43,8.92s.85-8.34,7.43-8.92C161.09,1016.81,160.24,1008.46,160.24,1008.46Z" />
                <path class="cls-5" d="M215.15,956.27a8.84,8.84,0,0,1-3.4-3.41,10.38,10.38,0,0,1,0-9.84,8.84,8.84,0,0,1,3.4-3.41,10.28,10.28,0,0,1,9-.38,8.16,8.16,0,0,1,3.09,2.43l-2.6,2.53a5.48,5.48,0,0,0-4.4-2.16,5.62,5.62,0,0,0-2.9.75,5.23,5.23,0,0,0-2,2.1,6.95,6.95,0,0,0,0,6.12,5.23,5.23,0,0,0,2,2.1,5.62,5.62,0,0,0,2.9.75,5.45,5.45,0,0,0,4.4-2.19l2.6,2.54a8.15,8.15,0,0,1-3.1,2.45,9.72,9.72,0,0,1-4.13.85A9.59,9.59,0,0,1,215.15,956.27Z" />
                <path class="cls-5" d="M242.81,942.19h-5.6v15h-4v-15h-5.58V938.7h15.18Z" />
                <path class="cls-5" d="M256.08,953.22H248l-1.55,4h-4.15l7.8-18.48h4l7.83,18.48h-4.25ZM254.81,950,252,942.9,249.26,950Z" />
                <path class="cls-5" d="M275.57,939.52a6.1,6.1,0,0,1,2.64,2.32,7.28,7.28,0,0,1,0,7.12,6,6,0,0,1-2.64,2.32,9.35,9.35,0,0,1-4,.81H268v5.09H264V938.7h7.58A9.2,9.2,0,0,1,275.57,939.52Zm-1.49,8.25a3.42,3.42,0,0,0,0-4.75,4,4,0,0,0-2.77-.83H268v6.41h3.3A4.09,4.09,0,0,0,274.08,947.77Z" />
                <path class="cls-5" d="M294.46,942.19h-5.6v15h-4v-15h-5.57V938.7h15.17Z" />
                <path class="cls-5" d="M297,956.69a2.44,2.44,0,0,1,0-3.38,2.56,2.56,0,0,1,3.45,0,2.28,2.28,0,0,1,.68,1.68,2.41,2.41,0,0,1-4.11,1.7Zm-.62-18H301l-.78,12.07h-3.1Z" />
                <path class="cls-3" d="M126.72,463.29H107.23a4.12,4.12,0,0,0,0,8.24h19.49a4.12,4.12,0,1,0,0-8.24Zm1.35,4.12a1.35,1.35,0,0,1-1.35,1.34H107.23a1.35,1.35,0,1,1,0-2.69h19.49A1.35,1.35,0,0,1,128.07,467.41Z" />
                <path class="cls-3" d="M104.55,473.33a7.81,7.81,0,0,0,6.28,7.6,6.47,6.47,0,0,0,12.3,0,7.79,7.79,0,0,0,6.26-7.6V472H104.55Zm8.12,5-.63,0a5,5,0,0,1-4.52-3.57h18.91a5,5,0,0,1-4.51,3.57l-.59,0ZM120,481.1a3.67,3.67,0,0,1-6,0Z" />
                <path class="cls-3" d="M117,396.24A27.74,27.74,0,0,0,89.27,424,27.34,27.34,0,0,0,95.2,441a114.09,114.09,0,0,1,8.25,12v9.75h26.91V453.3A130.38,130.38,0,0,1,138.75,441,27.35,27.35,0,0,0,144.69,424,27.74,27.74,0,0,0,117,396.24Zm-3.43,40.82,1.86,7.11,3.21-7.83,1.58,4.49,3.46-1.58L119.2,460h-4.3l-4.56-20.83Zm14.23,15.14-.19.33V460H122L128,432.42l-2.71-.58-1,4.6-2.72,1.24-2.75-7.83-2.89,7-.93-3.56-5.16,3.45-1.09-5-2.93.64,6,27.59h-5.61V452.3L106,452a117.44,117.44,0,0,0-8.66-12.66A24.57,24.57,0,0,1,92,424a24.94,24.94,0,1,1,49.87,0,24.62,24.62,0,0,1-5.33,15.38h0A129.72,129.72,0,0,0,127.78,452.2Z" />
                <path class="cls-3" d="M118,391.73a1.27,1.27,0,0,0,1.27-1.27V378.4a1.27,1.27,0,0,0-2.54,0v12.06A1.27,1.27,0,0,0,118,391.73Z" />
                <path class="cls-3" d="M135.81,396.06a1.25,1.25,0,0,0,.65.18,1.27,1.27,0,0,0,1.09-.61l6.25-10.31a1.28,1.28,0,0,0-.43-1.75,1.24,1.24,0,0,0-1-.14,1.23,1.23,0,0,0-.78.57l-6.25,10.31a1.25,1.25,0,0,0-.15,1A1.29,1.29,0,0,0,135.81,396.06Z" />
                <path class="cls-3" d="M147.94,410.79a1.31,1.31,0,0,0,.59-.14l10.69-5.58a1.27,1.27,0,1,0-1.18-2.25l-10.69,5.58a1.27,1.27,0,0,0,.59,2.39Z" />
                <path class="cls-3" d="M164.4,425.86a1.3,1.3,0,0,0-.87-.43l-12-.76a1.26,1.26,0,0,0-1.34,1.18,1.28,1.28,0,0,0,1.19,1.35l12,.77h.07a1.28,1.28,0,0,0,1.27-1.19A1.25,1.25,0,0,0,164.4,425.86Z" />
                <path class="cls-3" d="M156.5,449.94l-9.89-6.89a1.27,1.27,0,0,0-1.77.31,1.27,1.27,0,0,0,.32,1.77l9.89,6.89a1.23,1.23,0,0,0,.72.23,1.27,1.27,0,0,0,1.25-1.49A1.23,1.23,0,0,0,156.5,449.94Z" />
                <path class="cls-3" d="M96.68,395.63a1.26,1.26,0,0,0,1.08.61,1.27,1.27,0,0,0,1.09-1.93L92.6,384a1.25,1.25,0,0,0-.78-.57,1.23,1.23,0,0,0-1,.14,1.28,1.28,0,0,0-.43,1.75Z" />
                <path class="cls-3" d="M75,405.07l10.69,5.58a1.3,1.3,0,0,0,.58.14,1.27,1.27,0,0,0,.59-2.39l-10.68-5.58A1.27,1.27,0,1,0,75,405.07Z" />
                <path class="cls-3" d="M84.08,425.85a1.29,1.29,0,0,0-1.35-1.18l-12,.76a1.3,1.3,0,0,0-.87.43,1.25,1.25,0,0,0-.32.92A1.28,1.28,0,0,0,70.78,428l12.11-.77A1.28,1.28,0,0,0,84.08,425.85Z" />
                <path class="cls-3" d="M88.57,442.84a1.22,1.22,0,0,0-.95.21l-9.89,6.89a1.27,1.27,0,0,0,.72,2.31,1.24,1.24,0,0,0,.73-.23l9.89-6.89a1.27,1.27,0,0,0-.5-2.29Z" />
                <ellipse class="cls-36" cx="116.83" cy="498.25" rx="91.44" ry="5.9" />
                <path class="cls-9" d="M190.52,445s-1.93,19.1-17,20.43c15.08,1.32,17,20.42,17,20.42s1.94-19.1,17-20.42C192.46,464.1,190.52,445,190.52,445Z" />
                <path class="cls-9" d="M218.66,404.6s-1.29,12.63-11.26,13.51c10,.87,11.26,13.51,11.26,13.51s1.28-12.64,11.25-13.51C219.94,417.23,218.66,404.6,218.66,404.6Z" />
                <path class="cls-5" d="M34.22,516.57h2.37v13l9.94-13h2.21v16.8H46.38V520.43l-10,12.94h-2.2Z" />
                <path class="cls-5" d="M67.89,520.65v12.72H65.8v-9.29l-4.75,7.85H60l-4.7-7.87v9.31H53.22V520.65H55.6l5,8.59,5.14-8.59Z" />
                <path class="cls-5" d="M80.59,521.82A5,5,0,0,1,82,525.69v7.68H79.81v-1.68A3.61,3.61,0,0,1,78.17,533a6.14,6.14,0,0,1-2.53.47,5.26,5.26,0,0,1-3.42-1,3.53,3.53,0,0,1-.06-5.41,6,6,0,0,1,3.89-1h3.64v-.46a2.93,2.93,0,0,0-.86-2.28,3.63,3.63,0,0,0-2.54-.79,6.66,6.66,0,0,0-2.21.37,5.73,5.73,0,0,0-1.83,1l-1-1.73A6.93,6.93,0,0,1,73.65,521a9.82,9.82,0,0,1,2.9-.42A5.75,5.75,0,0,1,80.59,521.82Zm-2.29,9.33a3.32,3.32,0,0,0,1.39-1.67V527.7H76.14c-2,0-2.93.66-2.93,2a1.79,1.79,0,0,0,.75,1.52,3.43,3.43,0,0,0,2.06.55A4.3,4.3,0,0,0,78.3,531.15Z" />
                <path class="cls-5" d="M95.27,522.66H90.61v10.71h-2.3V522.66H83.65v-2H95.27Z" />
                <path class="cls-5" d="M108.16,527.78H97.84a4,4,0,0,0,1.47,2.7,4.84,4.84,0,0,0,3.14,1,4.73,4.73,0,0,0,3.67-1.54l1.27,1.49a5.56,5.56,0,0,1-2.15,1.53,7.3,7.3,0,0,1-2.87.53,7.52,7.52,0,0,1-3.57-.82,5.92,5.92,0,0,1-2.41-2.32,6.61,6.61,0,0,1-.85-3.36,6.77,6.77,0,0,1,.82-3.34,5.89,5.89,0,0,1,2.28-2.31,6.43,6.43,0,0,1,3.28-.83,6.29,6.29,0,0,1,3.25.83,5.77,5.77,0,0,1,2.23,2.31,7,7,0,0,1,.81,3.41C108.21,527.26,108.19,527.49,108.16,527.78Zm-9-4.3a4,4,0,0,0-1.31,2.64H106a4.13,4.13,0,0,0-1.31-2.63,4.29,4.29,0,0,0-5.54,0Z" />
                <path class="cls-5" d="M117.8,514.18h4v12l8.35-12H134v18.48h-4v-12l-8.35,12H117.8Z" />
                <path class="cls-5" d="M156,529.17v7.31h-3.75v-3.82H139.9v3.82h-3.75l0-7.31h.7c1,0,1.8-.84,2.23-2.43a31.33,31.33,0,0,0,.8-6.78l.2-5.78h13.45v15ZM143,525.88a7.59,7.59,0,0,1-1.23,3.29h7.83V517.66h-6l-.08,2.69A39.77,39.77,0,0,1,143,525.88Z" />
                <path class="cls-5" d="M172,529.22v3.44H158.47V514.18H171.7v3.43h-9.2v4h8.12V525H162.5v4.27Z" />
                <path class="cls-5" d="M188.85,514.18v18.48h-4v-4.91h-3.7l-3.1,4.91h-4.28l3.65-5.57a5.78,5.78,0,0,1-2.72-2.31,6.9,6.9,0,0,1-.95-3.71,7.11,7.11,0,0,1,.92-3.69A6.06,6.06,0,0,1,177.3,515a8.93,8.93,0,0,1,4-.83Zm-10.09,4.33a3.22,3.22,0,0,0-.91,2.5,3.39,3.39,0,0,0,.87,2.49,3.52,3.52,0,0,0,2.58.87h3.55v-6.71H181.4A3.73,3.73,0,0,0,178.76,518.51Z" />
                <path class="cls-5" d="M48.35,551.65a4.52,4.52,0,0,1,.85,2.8,4.59,4.59,0,0,1-1.76,3.83,8.1,8.1,0,0,1-5,1.37H33.77V541.17h8.15a7.89,7.89,0,0,1,4.75,1.24,4.11,4.11,0,0,1,1.7,3.54,4.39,4.39,0,0,1-.65,2.41A4.48,4.48,0,0,1,45.9,550,4.73,4.73,0,0,1,48.35,551.65ZM37.8,548.82h3.77a3,3,0,0,0,2-.56,2.08,2.08,0,0,0,.68-1.68,2.05,2.05,0,0,0-.69-1.66,3,3,0,0,0-2-.58H37.8Zm7.3,5.29c0-1.54-1-2.3-2.85-2.3H37.8v4.67h4.45Q45.1,556.48,45.1,554.11Z" />
                <path class="cls-5" d="M74.92,541.17v18.48h-4v-15H63v15H59V541.17Z" />
                <path class="cls-5" d="M82.46,558.73A8.92,8.92,0,0,1,79,555.31a10.3,10.3,0,0,1,0-9.8,8.92,8.92,0,0,1,3.42-3.42,10.32,10.32,0,0,1,9.81,0,9.08,9.08,0,0,1,3.43,3.42,10.23,10.23,0,0,1,0,9.8,9.08,9.08,0,0,1-3.43,3.42,10.32,10.32,0,0,1-9.81,0Zm7.71-3.16a5.25,5.25,0,0,0,2-2.1,6.95,6.95,0,0,0,0-6.12,5.25,5.25,0,0,0-2-2.1,5.37,5.37,0,0,0-7.56,2.1,6.95,6.95,0,0,0,0,6.12,5.3,5.3,0,0,0,2,2.1,5.6,5.6,0,0,0,5.6,0Z" />
                <path class="cls-5" d="M114.92,541.17v18.48h-4v-15h-6l-.12,3.86a40.54,40.54,0,0,1-.6,6.37,8.14,8.14,0,0,1-1.59,3.75,3.87,3.87,0,0,1-3.11,1.31,8.73,8.73,0,0,1-2-.29l.25-3.62a2.36,2.36,0,0,0,.72.11c1,0,1.65-.6,2-1.81a23.52,23.52,0,0,0,.72-5.66l.25-7.5Z" />
                <path class="cls-5" d="M131.39,551.74a4.56,4.56,0,0,1,.86,2.74,4.41,4.41,0,0,1-1.05,2.93,6.71,6.71,0,0,1-2.84,1.9,11.18,11.18,0,0,1-3.91.66,13.79,13.79,0,0,1-3.59-.48,13,13,0,0,1-3.39-1.45l1.25-3.06a9.53,9.53,0,0,0,2.54,1.12,10.41,10.41,0,0,0,2.71.38,6,6,0,0,0,3-.68,2.14,2.14,0,0,0,1.19-1.93,1.74,1.74,0,0,0-.81-1.56,4,4,0,0,0-2.22-.53h-4.27v-3.22h4a3,3,0,0,0,1.92-.53,1.71,1.71,0,0,0,.68-1.45,1.89,1.89,0,0,0-1-1.69,4.85,4.85,0,0,0-2.54-.61,9.3,9.3,0,0,0-4.7,1.32L118,542.28a12.32,12.32,0,0,1,6-1.51,10.71,10.71,0,0,1,3.78.64,6.33,6.33,0,0,1,2.75,1.84,4.28,4.28,0,0,1,1,2.83,4.19,4.19,0,0,1-.67,2.35A4.4,4.4,0,0,1,129,550,5,5,0,0,1,131.39,551.74Z" />
                <path class="cls-5" d="M147.05,555.69h-8.13l-1.55,4h-4.15l7.8-18.48h4l7.83,18.48H148.6Zm-1.28-3.25L143,545.37l-2.78,7.07Z" />
                <path class="cls-5" d="M177.8,541.17v18.48h-4.05v-7.58H165.8v7.58h-4.05V541.17h4.05v7.29h7.95v-7.29Z" />
                <path class="cls-5" d="M193.77,555.69h-8.12l-1.55,4H180l7.8-18.48h4l7.82,18.48h-4.25Zm-1.27-3.25-2.78-7.07L187,552.44Z" />
                <path class="cls-5" d="M37.21,583a8.92,8.92,0,0,1-3.42-3.42,10.3,10.3,0,0,1,0-9.8,8.92,8.92,0,0,1,3.42-3.42,10.32,10.32,0,0,1,9.81,0,9.08,9.08,0,0,1,3.43,3.42,10.23,10.23,0,0,1,0,9.8A9.08,9.08,0,0,1,47,583a10.32,10.32,0,0,1-9.81,0Zm7.71-3.16a5.25,5.25,0,0,0,2-2.1,6.95,6.95,0,0,0,0-6.12,5.25,5.25,0,0,0-2-2.1,5.37,5.37,0,0,0-7.56,2.1,6.95,6.95,0,0,0,0,6.12,5.3,5.3,0,0,0,2,2.1,5.6,5.6,0,0,0,5.6,0Z" />
                <path class="cls-5" d="M54.57,565.46H68.7v3.4H58.6v3.81h4.85a7.3,7.3,0,0,1,4.84,1.4,5,5,0,0,1,1.66,4,5.3,5.3,0,0,1-1.85,4.31,8,8,0,0,1-5.23,1.53h-8.3Zm8.08,15.31a3.72,3.72,0,0,0,2.37-.65,2.25,2.25,0,0,0,.83-1.88c0-1.62-1.07-2.43-3.2-2.43h-4v5Z" />
                <path class="cls-5" d="M95.87,565.46v18.48H72.77V565.46h4v15h5.52v-15h4v15h5.5v-15Zm2.38,15v7.32H94.5v-3.83H91.77v-3.49Z" />
                <path class="cls-5" d="M114.32,580.51v3.43H100.77V565.46H114v3.43h-9.2v4h8.12v3.33H104.8v4.28Z" />
                <path class="cls-5" d="M120.74,583a8.78,8.78,0,0,1-3.4-3.41,10.4,10.4,0,0,1,0-9.85,8.82,8.82,0,0,1,3.4-3.4,10.28,10.28,0,0,1,9-.38,8.16,8.16,0,0,1,3.09,2.43L130.2,571a5.48,5.48,0,0,0-4.4-2.16,5.62,5.62,0,0,0-2.9.75,5.23,5.23,0,0,0-2,2.1,6.95,6.95,0,0,0,0,6.12,5.23,5.23,0,0,0,2,2.1,5.62,5.62,0,0,0,2.9.75,5.45,5.45,0,0,0,4.4-2.19l2.6,2.54a8.15,8.15,0,0,1-3.1,2.45,9.72,9.72,0,0,1-4.13.85A9.59,9.59,0,0,1,120.74,583Z" />
                <path class="cls-5" d="M148.4,568.94h-5.6v15h-4v-15h-5.58v-3.48H148.4Z" />
                <path class="cls-5" d="M165.27,575.94a5,5,0,0,1-.91,6.63,8.07,8.07,0,0,1-5,1.37H150.7V565.46h8.15a7.91,7.91,0,0,1,4.75,1.24,4.13,4.13,0,0,1,1.7,3.54,4.38,4.38,0,0,1-2.48,4.06A4.69,4.69,0,0,1,165.27,575.94Zm-10.55-2.83h3.78a3,3,0,0,0,2-.56,2.4,2.4,0,0,0,0-3.34,3,3,0,0,0-2-.58h-3.78Zm7.3,5.29c0-1.54-1-2.3-2.85-2.3h-4.45v4.67h4.45Q162,580.77,162,578.4Z" />
                <path class="cls-5" d="M172.51,583a8.92,8.92,0,0,1-3.42-3.42,10.3,10.3,0,0,1,0-9.8,8.92,8.92,0,0,1,3.42-3.42,10.32,10.32,0,0,1,9.81,0,9.08,9.08,0,0,1,3.43,3.42,10.23,10.23,0,0,1,0,9.8,9.08,9.08,0,0,1-3.43,3.42,10.32,10.32,0,0,1-9.81,0Zm7.71-3.16a5.25,5.25,0,0,0,2-2.1,6.95,6.95,0,0,0,0-6.12,5.25,5.25,0,0,0-2-2.1,5.37,5.37,0,0,0-7.56,2.1,6.95,6.95,0,0,0,0,6.12,5.3,5.3,0,0,0,2,2.1,5.6,5.6,0,0,0,5.6,0Z" />
                <path class="cls-5" d="M203,568.94h-5.6v15h-4v-15h-5.58v-3.48H203Z" />
                <path class="cls-5" d="M208.49,583a9,9,0,0,1-3.43-3.42,10.3,10.3,0,0,1,0-9.8,9,9,0,0,1,3.43-3.42,10.32,10.32,0,0,1,9.81,0,9.06,9.06,0,0,1,3.42,3.42,10.23,10.23,0,0,1,0,9.8A9.06,9.06,0,0,1,218.3,583a10.32,10.32,0,0,1-9.81,0Zm7.71-3.16a5.23,5.23,0,0,0,2-2.1,6.95,6.95,0,0,0,0-6.12,5.23,5.23,0,0,0-2-2.1,5.6,5.6,0,0,0-5.6,0,5.23,5.23,0,0,0-2,2.1,6.86,6.86,0,0,0,0,6.12,5.23,5.23,0,0,0,2,2.1,5.6,5.6,0,0,0,5.6,0Z" />
            </g>
        </g>
    </g>
</svg>