<!-- Generator: Adobe Illustrator 23.0.3, SVG Export Plug-In . SVG Version: 6.00 Build 0)  -->
<svg version="1.1" id="Layer_1" xmlns="http://www.w3.org/2000/svg" xmlns:xlink="http://www.w3.org/1999/xlink" x="0px" y="0px" viewBox="0 0 1049.9 1114.6" style="enable-background:new 0 0 1049.9 1114.6;" xml:space="preserve">
	<style type="text/css">
		.st0{fill:none;stroke:#FFCB57;stroke-width:1.6599;stroke-miterlimit:10;}
		.st1{fill:#FFCB57;}
		.st2{opacity:0.9;fill:url(#SVGID_1_);}
		.st3{opacity:0.9;fill:url(#SVGID_2_);}
		.st4{opacity:0.9;fill:url(#SVGID_3_);}
		.st5{opacity:0.9;fill:url(#SVGID_4_);}
		.st6{opacity:0.9;fill:url(#SVGID_5_);}
		.st7{fill:#FFF9DB;}
		.st8{fill:#FFD7E9;}
		.st9{opacity:0.9;fill:url(#SVGID_6_);}
		.st10{opacity:0.9;fill:url(#SVGID_7_);}
		.st11{fill:#D8F2FF;}
		.st12{opacity:0.9;fill:url(#SVGID_8_);}
		.st13{fill:none;stroke:#FF7DB9;stroke-width:2.2533;stroke-linecap:round;stroke-linejoin:round;stroke-miterlimit:10;}
		.st14{fill:#FF7DB9;}
		.st15{fill:none;stroke:#FFCB57;stroke-width:2.2533;stroke-linecap:round;stroke-linejoin:round;stroke-miterlimit:10;}
		.st16{fill:#FFCB00;}
		.st17{fill:none;stroke:#FFCB57;stroke-width:2.2533;stroke-linejoin:round;stroke-miterlimit:10;}
		.st18{fill:none;stroke:#49C4FF;stroke-width:1.7704;stroke-linecap:round;stroke-linejoin:round;stroke-miterlimit:10;}
		.st19{fill:#49C4FF;}
		.st20{fill:none;stroke:#FF7DB9;stroke-width:2.2533;stroke-linejoin:round;stroke-miterlimit:10;}
		.st21{fill:none;stroke:#49C4FF;stroke-width:1.7335;stroke-linecap:round;stroke-linejoin:round;stroke-miterlimit:10;}
		.st22{fill:#F6F0F8;}
		.st23{fill:#333343;}
		.st24{fill:#FFFFFF;}
		.st25{fill:#3E3D51;}
		.st26{fill:none;stroke:#FFCB57;stroke-width:1.4173;stroke-miterlimit:10;}
		.st27{opacity:0.9;fill:url(#SVGID_9_);}
		.st28{fill:none;stroke:#FFCB57;stroke-width:1.6611;stroke-linecap:round;stroke-linejoin:round;stroke-miterlimit:10;}
		.st29{fill:none;stroke:#FFCB57;stroke-width:3.6085;stroke-miterlimit:10;}
		.st30{opacity:0.9;fill:url(#SVGID_10_);}
		.st31{opacity:0.9;fill:url(#SVGID_11_);}
		.st32{opacity:0.9;fill:url(#SVGID_12_);}
		.st33{opacity:0.9;fill:url(#SVGID_13_);}
		.st34{opacity:0.9;fill:url(#SVGID_14_);}
		.st35{opacity:0.9;fill:url(#SVGID_15_);}
		.st36{opacity:0.9;fill:url(#SVGID_16_);}
		.st37{fill:none;stroke:#FF7DB9;stroke-width:4.8984;stroke-linecap:round;stroke-linejoin:round;stroke-miterlimit:10;}
		.st38{fill:none;stroke:#FFCB57;stroke-width:4.8984;stroke-linecap:round;stroke-linejoin:round;stroke-miterlimit:10;}
		.st39{fill:none;stroke:#FFCB57;stroke-width:4.8984;stroke-linejoin:round;stroke-miterlimit:10;}
		.st40{fill:none;stroke:#49C4FF;stroke-width:3.8488;stroke-linecap:round;stroke-linejoin:round;stroke-miterlimit:10;}
		.st41{fill:none;stroke:#FF7DB9;stroke-width:4.8984;stroke-linejoin:round;stroke-miterlimit:10;}
		.st42{fill:none;stroke:#49C4FF;stroke-width:3.7686;stroke-linecap:round;stroke-linejoin:round;stroke-miterlimit:10;}
		.st43{fill:#32A9FE;}
		.st44{fill:none;stroke:#FFCB57;stroke-width:3.0812;stroke-miterlimit:10;}
		.st45{opacity:0.9;fill:url(#SVGID_17_);}
		.st46{fill:none;stroke:#FFCB57;stroke-width:3.6111;stroke-linecap:round;stroke-linejoin:round;stroke-miterlimit:10;}
		
			.st47{fill:none;stroke:#FF7DB9;stroke-width:2.126;stroke-linecap:round;stroke-linejoin:round;stroke-miterlimit:10;stroke-dasharray:2.9517,5.4115;}
		.st48{opacity:0.9;fill:url(#SVGID_18_);}
		.st49{opacity:0.9;fill:url(#SVGID_19_);}
		.st50{opacity:0.9;fill:url(#SVGID_20_);}
		.st51{opacity:0.9;fill:url(#SVGID_21_);}
		.st52{opacity:0.9;fill:url(#SVGID_22_);}
		.st53{opacity:0.9;fill:url(#SVGID_23_);}
		.st54{opacity:0.9;fill:url(#SVGID_24_);}
		.st55{opacity:0.9;fill:url(#SVGID_25_);}
		.st56{opacity:0.9;fill:url(#SVGID_26_);}
		.st57{opacity:0.9;fill:url(#SVGID_27_);}
		.st58{opacity:0.9;fill:url(#SVGID_28_);}
		.st59{opacity:0.9;fill:url(#SVGID_29_);}
		.st60{opacity:0.9;fill:url(#SVGID_30_);}
		
			.st61{fill:none;stroke:#FF7DB9;stroke-width:1.4759;stroke-linecap:round;stroke-linejoin:round;stroke-miterlimit:10;stroke-dasharray:2.9517,5.4115;}
		.st62{opacity:0.9;fill:url(#SVGID_31_);}
		.st63{opacity:0.9;fill:url(#SVGID_32_);}
		.st64{opacity:0.9;fill:url(#SVGID_33_);}
		.st65{opacity:0.9;fill:url(#SVGID_34_);}
		.st66{opacity:0.9;fill:url(#SVGID_35_);}
		.st67{opacity:0.9;fill:url(#SVGID_36_);}
		.st68{opacity:0.9;fill:url(#SVGID_37_);}
		.st69{opacity:0.9;fill:url(#SVGID_38_);}
		.st70{opacity:0.9;fill:url(#SVGID_39_);}
		.st71{opacity:0.9;fill:url(#SVGID_40_);}
	</style>
	<g>
		<circle class="st29" cx="280.8" cy="464.4" r="46.7" />
		<g>
			<g>
				<path class="st1" d="M268.3,489.2c-1.5,0-2.4,0-2.5,0h-1.5v-27.3l0.5-0.4c3.1-3,5.3-6.9,7.5-10.7c0.5-0.8,0.9-1.6,1.4-2.5
					l0.1-0.1c0.9-1.4,0.9-4.3,0.8-6.6c-0.1-2.2-0.1-4,0.6-5.1c0.6-0.9,1.5-1.4,2.7-1.6c2.2-0.3,4.4,0.9,5.5,3
					c3.3,6.7,2.5,10.8,1.4,16.6c-0.1,0.8-0.3,1.6-0.5,2.5c2.3,0.1,4.6,0,6.8,0c2.5,0,5.1-0.1,7.6,0c1.9,0.1,4.3,0.3,5.6,1.9
					c0.5,0.6,1,1.7,0.8,3.2c-0.3,1.7-1.1,3.1-2.4,4c0.9,0.9,1.3,2.1,1.1,3.5c-0.2,1.5-1.1,3-2.3,3.9c0.7,0.8,1.1,1.8,1,3
					c0,1.8-1,3.5-2.4,4.5c0.8,1,1.1,2.2,0.8,3.5c-0.6,2.6-3.5,4.7-6.4,4.7C287.5,489.2,273.9,489.2,268.3,489.2z M267.3,486.2
					c4.8,0,19.7,0,27.2,0c1.6,0,3.2-1.3,3.5-2.4c0.1-0.2,0.2-0.8-0.7-1.3c-0.9-0.3-1.4-1.1-1.3-1.9c0.1-0.9,0.8-1.6,1.8-1.7
					c1-0.3,1.7-1.5,1.7-2.4c0-0.9-0.6-1.2-1-1.4l-0.1,0l-0.1-0.1c-0.8-0.4-1.2-1.2-1-2c0.2-0.8,1-1.4,1.8-1.5
					c0.9-0.3,1.7-1.3,1.8-2.2c0.1-0.8-0.3-1.1-0.6-1.3l-0.1,0c0,0-0.1,0-0.1-0.1c-0.3-0.1-1.1-0.4-1.4-1.2l-0.1-0.1l0-0.1
					c-0.2-0.8,0.2-1.7,1-2.1l0.1-0.1l0.1,0c1.3-0.3,2-1.2,2.3-2.6l0,0c0.1-0.6-0.1-0.8-0.1-0.9c-0.3-0.3-1.1-0.8-3.4-0.8
					c-2.5-0.1-5,0-7.5,0c-2.8,0-5.8,0.1-8.7-0.1l-1.7-0.1l0.3-1.6c0.2-1.5,0.5-3,0.7-4.2c1.1-5.6,1.7-8.9-1.2-14.7
					c-0.5-0.9-1.4-1.5-2.4-1.4c-0.4,0.1-0.6,0.2-0.6,0.2c-0.2,0.4-0.2,2.2-0.1,3.4c0.1,2.9,0.2,6.1-1.3,8.3c-0.5,0.8-0.9,1.6-1.4,2.4
					c-2.2,3.8-4.4,7.8-7.6,11V486.2z" />
			</g>
			<g>
				<path class="st1" d="M264.7,489.2h-5.8c-1.4,0-2.6-1.1-2.6-2.6v-23.1c0-1.4,1.1-2.6,2.6-2.6h5.8c1.4,0,2.6,1.1,2.6,2.6v23.1
					C267.3,488.1,266.1,489.2,264.7,489.2z M259.3,486.2h4.9V464h-4.9V486.2z" />
			</g>
		</g>
		<radialGradient id="SVGID_1_" cx="509.5121" cy="5197.3491" r="129.2727" gradientTransform="matrix(0.5538 0 0 4.348000e-02 4.8134 294.979)" gradientUnits="userSpaceOnUse">
			<stop offset="0.1034" style="stop-color:#E0E3E2" />
			<stop offset="0.2677" style="stop-color:#E9EBEA" />
			<stop offset="0.684" style="stop-color:#F9FAFA" />
			<stop offset="1" style="stop-color:#FFFFFF" />
		</radialGradient>
		<ellipse class="st2" cx="287" cy="521" rx="101.1" ry="4.7" />
	</g>
	<g>
		<g>
			<g>
				<g>
					<g>
						<path class="st1" d="M939.9,309h-25.3c-1,0-1.9-0.8-1.9-1.9s0.8-1.9,1.9-1.9h25.3c1,0,1.9,0.8,1.9,1.9S940.9,309,939.9,309z" />
					</g>
				</g>
				<g>
					<g>
						<path class="st1" d="M939.9,341.8h-9.1c-1,0-1.9-0.8-1.9-1.9c0-1,0.8-1.9,1.9-1.9h9.1c1,0,1.9,0.8,1.9,1.9
							C941.8,340.9,940.9,341.8,939.9,341.8z" />
					</g>
				</g>
				<g>
					<g>
						<path class="st1" d="M939.7,317.2H918c-1,0-1.9-0.8-1.9-1.9c0-1,0.8-1.9,1.9-1.9h21.6c1,0,1.9,0.8,1.9,1.9
							C941.5,316.4,940.7,317.2,939.7,317.2z" />
					</g>
				</g>
				<g>
					<g>
						<path class="st1" d="M939.9,325.4h-25.3c-1,0-1.9-0.8-1.9-1.9c0-1,0.8-1.9,1.9-1.9h25.3c1,0,1.9,0.8,1.9,1.9
							C941.8,324.5,940.9,325.4,939.9,325.4z" />
					</g>
				</g>
				<path class="st1" d="M950.6,293c0-0.6-0.3-1.2-0.7-1.5l-22.1-22.1c0,0,0,0,0,0c-0.1-0.1-0.2-0.2-0.4-0.3c0,0-0.1,0-0.1-0.1
					c-0.1-0.1-0.3-0.1-0.4-0.2c0,0,0,0,0,0c-0.1,0-0.2,0-0.4,0H883c-1,0-1.9,0.8-1.9,1.9v19c0.7-0.1,1.4-0.1,2.1-0.1
					c0.5,0,1.1,0,1.6,0.1v-17.1h39.6V293c0,1,0.8,1.9,1.9,1.9h20.4v59.5h-61.8v-17.1c-0.5,0.1-1.1,0.1-1.6,0.1c-0.7,0-1.4,0-2.1-0.1
					v19c0,1,0.8,1.9,1.9,1.9h65.6c1,0,1.9-0.8,1.9-1.9v-63C950.5,293.1,950.6,293,950.6,293z M928.2,291.1v-15.9l15.9,15.9H928.2z" />
				<g>
					<path class="st1" d="M880.2,323.9c-0.5,0-0.9-0.2-1.2-0.5l-8.3-7.3c-0.8-0.7-0.9-1.9-0.2-2.7c0.7-0.8,1.9-0.9,2.7-0.2l6.9,6.1
						l13.2-15.6c0.7-0.8,1.9-0.9,2.7-0.2c0.8,0.7,0.9,1.9,0.2,2.7l-14.5,17.1c-0.3,0.4-0.8,0.6-1.3,0.7
						C880.3,323.9,880.3,323.9,880.2,323.9z" />
				</g>
				<g>
					<path class="st1" d="M883.3,339.2c-0.7,0-1.5,0-2.3-0.1c-13.4-1.2-23.5-12.2-23.5-25.7c0-13.4,10.1-24.5,23.5-25.7
						c1.5-0.1,2.8-0.2,4.1,0c13.4,0.9,24,12.2,24,25.7c0,13.5-10.6,24.8-24,25.7C884.5,339.2,883.9,339.2,883.3,339.2z M883.3,291.5
						c-0.6,0-1.3,0-2,0.1c-11.4,1-20,10.4-20,21.9c0,11.5,8.6,20.9,20,21.9c1.2,0.1,2.3,0.1,3.4,0c11.5-0.8,20.6-10.4,20.6-21.9
						s-9-21.2-20.5-21.9C884.3,291.5,883.8,291.5,883.3,291.5z" />
				</g>
			</g>
			<radialGradient id="SVGID_2_" cx="1645.9803" cy="4843.1851" r="129.2727" gradientTransform="matrix(0.5538 0 0 4.348000e-02 4.8134 156.3876)" gradientUnits="userSpaceOnUse">
				<stop offset="0.1034" style="stop-color:#E0E3E2" />
				<stop offset="0.2677" style="stop-color:#E9EBEA" />
				<stop offset="0.684" style="stop-color:#F9FAFA" />
				<stop offset="1" style="stop-color:#FFFFFF" />
			</radialGradient>
			<ellipse class="st3" cx="916.4" cy="367" rx="101.1" ry="4.7" />
		</g>
	</g>
	<g>
		<g>
			<path class="st1" d="M767.9,567.8c4.8-3.2,8-8.6,8-14.8c0-9.8-8-17.8-17.8-17.8s-17.8,8-17.8,17.8c0,6.2,3.2,11.6,8,14.8
				c-10.9,4-18.6,14.4-18.6,26.7h4.7c0-13.1,10.6-23.7,23.7-23.7s23.7,10.6,23.7,23.7h4.7C786.5,582.2,778.7,571.8,767.9,567.8z
				M758.1,566c-7.2,0-13-5.8-13-13c0-7.2,5.8-13,13-13c7.2,0,13,5.8,13,13C771.1,560.1,765.3,566,758.1,566z" />
			<path class="st1" d="M791.6,555.9c4.8-3.2,8-8.6,8-14.8c0-9.8-8-17.8-17.8-17.8c-4.7,0-9.1,1.9-12.3,4.9c-1.2,1.1-2.2,2.4-3,3.8
				c1.5,0.6,2.9,1.3,4.2,2.2c0.8-1.4,1.9-2.6,3.2-3.5c2.2-1.7,4.9-2.7,7.9-2.7c7.2,0,13,5.8,13,13c0,6-4,11-9.5,12.5
				c-1.1,0.3-2.3,0.5-3.5,0.5c-0.4,0-0.8,0-1.2-0.1c-0.1,1.7-0.4,3.4-0.8,4.9c0.7-0.1,1.3-0.1,2-0.1c1,0,1.9,0.1,2.8,0.2
				c11.7,1.4,20.9,11.4,20.9,23.5h4.7C810.2,570.4,802.5,559.9,791.6,555.9z" />
			<path class="st1" d="M734.4,558.9c0.7,0,1.4,0.1,2,0.1c-0.4-1.6-0.7-3.2-0.8-4.9c-0.4,0-0.8,0.1-1.2,0.1c-1.2,0-2.4-0.2-3.5-0.5
				c-5.5-1.5-9.5-6.6-9.5-12.5c0-7.2,5.8-13,13-13c3,0,5.7,1,7.9,2.7c1.3,1,2.3,2.2,3.2,3.5c1.3-0.9,2.7-1.6,4.2-2.2
				c-0.8-1.4-1.9-2.7-3-3.8c-3.2-3-7.5-4.9-12.3-4.9c-9.8,0-17.8,8-17.8,17.8c0,6.2,3.2,11.6,8,14.8c-10.9,4-18.6,14.4-18.6,26.7h4.7
				c0-12.1,9.1-22.1,20.9-23.5C732.5,559,733.4,558.9,734.4,558.9z" />
			<path class="st1" d="M808.2,539.3c4.8-3.2,8-8.6,8-14.8c0-9.8-8-17.8-17.8-17.8c-4.7,0-9.1,1.9-12.3,4.9c-1.2,1.1-2.2,2.4-3,3.8
				c1.5,0.6,2.9,1.3,4.2,2.2c0.8-1.4,1.9-2.6,3.2-3.5c2.2-1.7,4.9-2.7,7.9-2.7c7.2,0,13,5.8,13,13c0,5.3-3.1,9.8-7.6,11.8
				c0.2,1.1,0.3,2.3,0.3,3.5c0,1.1-0.1,2.1-0.3,3.2c10.4,2.5,18.2,11.8,18.2,23h4.7C826.8,553.8,819,543.3,808.2,539.3z" />
			<path class="st1" d="M712,539.8c0-1.2,0.1-2.3,0.3-3.5c-4.5-2.1-7.6-6.6-7.6-11.8c0-7.2,5.8-13,13-13c3,0,5.7,1,7.9,2.7
				c1.3,1,2.3,2.2,3.2,3.5c1.3-0.9,2.7-1.6,4.2-2.2c-0.8-1.4-1.9-2.7-3-3.8c-3.2-3-7.5-4.9-12.3-4.9c-9.8,0-17.8,8-17.8,17.8
				c0,6.2,3.2,11.6,8,14.8c-10.9,4-18.6,14.4-18.6,26.7h4.7c0-11.2,7.8-20.6,18.2-23C712.2,541.9,712,540.9,712,539.8z" />
			<path class="st1" d="M758.1,511.5c6.3,0,11.6,4.6,12.7,10.6c2.6-1.6,4.5-1.9,4.5-1.9c-2-7.7-8.9-13.4-17.2-13.4
				s-15.3,5.7-17.2,13.4c0,0,1.9,0.4,4.5,1.9C746.5,516,751.7,511.5,758.1,511.5z" />
		</g>
		<radialGradient id="SVGID_3_" cx="1269.8491" cy="2971.4431" r="129.2727" gradientTransform="matrix(0.6388 0 0 6.044964e-02 -48.5998 430.3299)" gradientUnits="userSpaceOnUse">
			<stop offset="0.1034" style="stop-color:#E0E3E2" />
			<stop offset="0.2677" style="stop-color:#E9EBEA" />
			<stop offset="0.684" style="stop-color:#F9FAFA" />
			<stop offset="1" style="stop-color:#FFFFFF" />
		</radialGradient>
		<ellipse class="st4" cx="762.5" cy="610" rx="116.6" ry="6.6" />
	</g>
	<g>
		<g>
			<path class="st1" d="M97.9,237.7H78.4c-2.3,0-4.1,1.8-4.1,4.1c0,2.3,1.8,4.1,4.1,4.1h19.5c2.3,0,4.1-1.8,4.1-4.1
				C102.1,239.6,100.2,237.7,97.9,237.7z M99.3,241.8c0,0.7-0.6,1.3-1.3,1.3H78.4c-0.7,0-1.3-0.6-1.3-1.3c0-0.7,0.6-1.3,1.3-1.3h19.5
				C98.7,240.5,99.3,241.1,99.3,241.8z" />
			<path class="st1" d="M75.8,247.8c0,3.7,2.7,6.9,6.3,7.6c0.9,2.7,3.3,4.5,6.1,4.5c2.8,0,5.3-1.8,6.2-4.5c3.6-0.7,6.3-3.9,6.3-7.6
				v-1.4H75.8V247.8z M83.9,252.7l-0.6,0c-2.1-0.1-3.9-1.6-4.5-3.6h18.9c-0.6,2-2.4,3.4-4.5,3.6l-0.6,0L83.9,252.7z M91.2,255.5
				c-0.7,1-1.8,1.5-3,1.5c-1.2,0-2.3-0.6-3-1.5H91.2z" />
			<path class="st1" d="M88.2,170.7c-15.3,0-27.7,12.4-27.7,27.7c0,6.3,2.1,12.2,5.9,17.1c3,3.7,5.8,7.9,8.3,12v9.8h26.9v-9.5
				c2.6-4.3,5.7-8.9,8.4-12.3c3.9-4.9,5.9-10.8,5.9-17.1C115.9,183.1,103.5,170.7,88.2,170.7z M84.8,211.5l1.9,7.1l3.2-7.8l1.6,4.5
				l3.5-1.6l-4.5,20.8h-4.3l-4.6-20.8L84.8,211.5z M99,226.6l-0.2,0.3v7.5h-5.6l5.9-27.6l-2.7-0.6l-1,4.6l-2.7,1.2l-2.7-7.8l-2.9,7
				l-0.9-3.6l-5.2,3.4l-1.1-5l-2.9,0.6l6,27.6h-5.6v-7.7l-0.2-0.3c-2.6-4.3-5.5-8.7-8.7-12.7c-3.5-4.4-5.3-9.7-5.3-15.4
				c0-13.8,11.2-24.9,24.9-24.9c13.8,0,24.9,11.2,24.9,24.9c0,5.6-1.8,11-5.3,15.4h0C105,217.3,101.7,222.1,99,226.6z" />
			<path class="st1" d="M89.2,166.1c0.7,0,1.3-0.6,1.3-1.3v-12.1c0-0.7-0.6-1.3-1.3-1.3c-0.7,0-1.3,0.6-1.3,1.3v12.1
				C87.9,165.6,88.5,166.1,89.2,166.1z" />
			<path class="st1" d="M107,170.5c0.2,0.1,0.4,0.2,0.7,0.2c0.4,0,0.9-0.2,1.1-0.6l6.2-10.3c0.4-0.6,0.2-1.4-0.4-1.7
				c-0.3-0.2-0.6-0.2-1-0.1c-0.3,0.1-0.6,0.3-0.8,0.6l-6.2,10.3c-0.2,0.3-0.2,0.6-0.1,1C106.5,170,106.7,170.3,107,170.5z" />
			<path class="st1" d="M119.2,185.2c0.2,0,0.4,0,0.6-0.1l10.7-5.6c0.6-0.3,0.9-1.1,0.5-1.7c-0.3-0.6-1.1-0.9-1.7-0.5l-10.7,5.6
				c-0.6,0.3-0.9,1.1-0.5,1.7C118.3,184.9,118.7,185.2,119.2,185.2z" />
			<path class="st1" d="M135.6,200.3c-0.2-0.3-0.5-0.4-0.9-0.4l-12-0.8c-0.7,0-1.3,0.5-1.3,1.2c0,0.7,0.5,1.3,1.2,1.3l12,0.8l0.1,0
				c0.7,0,1.2-0.5,1.3-1.2C136,200.9,135.8,200.5,135.6,200.3z" />
			<path class="st1" d="M127.7,224.4l-9.9-6.9c-0.3-0.2-0.6-0.3-1-0.2c-0.3,0.1-0.6,0.2-0.8,0.5c-0.4,0.6-0.3,1.4,0.3,1.8l9.9,6.9
				c0.2,0.1,0.5,0.2,0.7,0.2c0.4,0,0.8-0.2,1-0.5c0.2-0.3,0.3-0.6,0.2-0.9C128.2,224.8,128,224.6,127.7,224.4z" />
			<path class="st1" d="M67.9,170c0.2,0.4,0.6,0.6,1.1,0.6c0.2,0,0.5-0.1,0.7-0.2c0.6-0.4,0.8-1.1,0.4-1.7l-6.2-10.3
				c-0.2-0.3-0.5-0.5-0.8-0.6c-0.3-0.1-0.7,0-1,0.1c-0.6,0.4-0.8,1.1-0.4,1.7L67.9,170z" />
			<path class="st1" d="M46.2,179.5l10.7,5.6c0.2,0.1,0.4,0.1,0.6,0.1c0.5,0,0.9-0.3,1.1-0.7c0.3-0.6,0.1-1.4-0.5-1.7l-10.7-5.6
				c-0.6-0.3-1.4-0.1-1.7,0.5C45.4,178.4,45.6,179.2,46.2,179.5z" />
			<path class="st1" d="M55.3,200.3c0-0.7-0.7-1.2-1.3-1.2l-12,0.8c-0.3,0-0.6,0.2-0.9,0.4c-0.2,0.3-0.3,0.6-0.3,0.9
				c0,0.7,0.6,1.2,1.3,1.2l12.1-0.8C54.8,201.6,55.3,201,55.3,200.3z" />
			<path class="st1" d="M59.8,217.3c-0.3-0.1-0.7,0-0.9,0.2l-9.9,6.9c-0.6,0.4-0.7,1.2-0.3,1.8c0.2,0.3,0.6,0.5,1,0.5
				c0.3,0,0.5-0.1,0.7-0.2l9.9-6.9c0.6-0.4,0.7-1.2,0.3-1.8C60.4,217.5,60.1,217.3,59.8,217.3z" />
		</g>
		<radialGradient id="SVGID_4_" cx="244.5882" cy="2725.4065" r="129.2727" gradientTransform="matrix(0.5011 0 0 5.423031e-02 -34.5098 124.8636)" gradientUnits="userSpaceOnUse">
			<stop offset="0.1034" style="stop-color:#E0E3E2" />
			<stop offset="0.2677" style="stop-color:#E9EBEA" />
			<stop offset="0.684" style="stop-color:#F9FAFA" />
			<stop offset="1" style="stop-color:#FFFFFF" />
		</radialGradient>
		<ellipse class="st5" cx="88" cy="272.7" rx="91.4" ry="5.9" />
		<path class="st7" d="M161.7,219.4c0,0-1.9,19.1-17,20.4c15.1,1.3,17,20.4,17,20.4s1.9-19.1,17-20.4
			C163.7,238.5,161.7,219.4,161.7,219.4z" />
		<path class="st7" d="M189.9,179c0,0-1.3,12.6-11.3,13.5c10,0.9,11.3,13.5,11.3,13.5s1.3-12.6,11.3-13.5
			C191.2,191.7,189.9,179,189.9,179z" />
	</g>
	<g>
		<g>
			<path class="st8" d="M517.4,887.6c0.4,2.6-0.2,5-1.8,7.2c-1.7,2.2-3.8,3.5-6.3,4c-1.9,0.3-3.7-0.1-5.3-1.2
				c-1.6-1.1-2.6-2.7-2.9-4.6c-0.4-2.6,0.2-5,2-7.3c1.7-2.3,3.9-3.7,6.4-4.1c1.9-0.3,3.7,0.1,5.2,1.3
				C516.2,884,517.1,885.6,517.4,887.6z M524.4,814.9c0.3,1.6-0.1,4.1-1.1,7.5c-0.8,2.6-2.1,8.8-4,18.5c-1.9,9.7-3,15.7-3.4,18
				c-0.4,2.3-0.6,5.1-0.7,8.3c-0.1,2.5-1.6,4-4.4,4.5c-3.7,0.6-5.9-0.9-6.5-4.6c-0.6-3.8,0.4-11.6,3.1-23.3c2.7-11.7,5-19.8,6.8-24.2
				c1.8-4.5,3.8-6.9,6.1-7.3C522.7,811.9,524,812.7,524.4,814.9z" />
		</g>
		<radialGradient id="SVGID_5_" cx="1040.4968" cy="5856.1987" r="129.2727" gradientTransform="matrix(0.5538 0 0 4.348000e-02 4.8134 552.8)" gradientUnits="userSpaceOnUse">
			<stop offset="0.1034" style="stop-color:#E0E3E2" />
			<stop offset="0.2677" style="stop-color:#E9EBEA" />
			<stop offset="0.684" style="stop-color:#F9FAFA" />
			<stop offset="1" style="stop-color:#FFFFFF" />
		</radialGradient>
		<ellipse class="st6" cx="581" cy="807.4" rx="101.1" ry="4.7" />
	</g>
	<g>
		<g>
			<g>
				<path class="st1" d="M210,856.5h-41.1c0,0,0,0,0,0c0,0,0,0,0,0c-0.1,0-0.1,0-0.2,0c0,0,0,0,0,0c-0.1,0-0.1,0-0.2,0c0,0,0,0,0,0
					c-0.1,0-0.1,0-0.2,0.1c0,0,0,0,0,0c-0.1,0-0.1,0.1-0.2,0.1c0,0,0,0,0,0c0,0-0.1,0.1-0.1,0.1c0,0,0,0,0,0l-14.7,14.7c0,0,0,0,0,0
					c0,0-0.1,0.1-0.1,0.1c0,0,0,0,0,0c0,0-0.1,0.1-0.1,0.2c0,0,0,0,0,0c0,0.1,0,0.1-0.1,0.2c0,0,0,0,0,0c0,0.1,0,0.1,0,0.2
					c0,0,0,0,0,0c0,0.1,0,0.1,0,0.2c0,0,0,0,0,0c0,0,0,0,0,0v64.6c0,2.4,1.9,4.3,4.3,4.3H210c2.4,0,4.3-1.9,4.3-4.3v-76.4
					C214.3,858.4,212.4,856.5,210,856.5z M167.5,861.2v8.4c0,0.9-0.7,1.6-1.6,1.6h-8.4L167.5,861.2z M211.6,937.2
					c0,0.9-0.7,1.6-1.6,1.6h-52.9c-0.9,0-1.6-0.7-1.6-1.6v-63.2H166c2.4,0,4.3-1.9,4.3-4.3v-10.4H210c0.9,0,1.6,0.7,1.6,1.6V937.2z" />
				<path class="st1" d="M166,896h35.2c0.8,0,1.4-0.6,1.4-1.4c0-0.8-0.6-1.4-1.4-1.4H166c-0.8,0-1.4,0.6-1.4,1.4
					C164.6,895.4,165.2,896,166,896z" />
				<path class="st1" d="M166,903.3h35.2c0.8,0,1.4-0.6,1.4-1.4c0-0.8-0.6-1.4-1.4-1.4H166c-0.8,0-1.4,0.6-1.4,1.4
					C164.6,902.7,165.2,903.3,166,903.3z" />
				<path class="st1" d="M166,910.7h17.6c0.8,0,1.4-0.6,1.4-1.4c0-0.8-0.6-1.4-1.4-1.4H166c-0.8,0-1.4,0.6-1.4,1.4
					C164.6,910,165.2,910.7,166,910.7z" />
				<path class="st1" d="M185,916.6c0-0.8-0.6-1.4-1.4-1.4H166c-0.8,0-1.4,0.6-1.4,1.4c0,0.8,0.6,1.4,1.4,1.4h17.6
					C184.4,918,185,917.4,185,916.6z" />
				<path class="st1" d="M190.9,880.3c0-0.8-0.6-1.4-1.4-1.4c-0.8,0-1.4,0.6-1.4,1.4c0,2.7,2.5,4.9,5.9,5.3v0.2
					c0,0.8,0.6,1.4,1.4,1.4s1.4-0.6,1.4-1.4v-0.2c3.4-0.5,5.9-2.6,5.9-5.3c0-2.7-2.5-4.9-5.9-5.3v-5.3c1.7,0.3,3.1,1.3,3.1,2.5
					c0,0.8,0.6,1.4,1.4,1.4s1.4-0.6,1.4-1.4c0-2.7-2.5-4.9-5.9-5.3v-0.2c0-0.8-0.6-1.4-1.4-1.4s-1.4,0.6-1.4,1.4v0.2
					c-3.4,0.5-5.9,2.6-5.9,5.3s2.5,4.9,5.9,5.3v5.3C192.3,882.4,190.9,881.5,190.9,880.3z M199.8,880.3c0,1.2-1.5,2.2-3.1,2.5v-5
					C198.4,878.1,199.8,879,199.8,880.3z M190.9,872.2c0-1.2,1.5-2.2,3.1-2.5v5C192.3,874.4,190.9,873.4,190.9,872.2z" />
				<path class="st1" d="M203.9,915.3c-0.7-0.4-1.5-0.1-1.9,0.5l-2.8,5l-0.4-0.3c-0.3-0.3-0.7-0.3-1.2-0.3c-0.4,0.1-0.7,0.4-0.9,0.7
					l-1.4,2.9l-0.5-0.5c-0.7-0.8-1.7-1.1-2.7-0.9c-1,0.2-1.8,0.9-2.1,1.9l-1.6,4.5l-3.8-4.7c-0.2-0.3-0.6-0.5-1-0.5
					c-0.4,0-0.7,0.1-1,0.3l-4,3.5c-0.6,0.5-0.6,1.4-0.1,1.9c0.5,0.6,1.4,0.6,1.9,0.1l2.9-2.5l3.6,4.5c0.4,0.5,1,0.8,1.7,0.8
					c0.1,0,0.2,0,0.4,0c0.8-0.1,1.4-0.7,1.6-1.4l2-5.7c0,0,0,0,0.1-0.1c0.1,0,0.1,0,0.1,0l1.8,2.1c0.3,0.3,0.8,0.5,1.2,0.5
					c0.5-0.1,0.9-0.3,1.1-0.8l1.6-3.2l0.3,0.2c0.3,0.2,0.7,0.3,1.1,0.3c0.4-0.1,0.7-0.3,0.9-0.7l3.6-6.4
					C204.8,916.6,204.6,915.7,203.9,915.3z" />
			</g>
		</g>
		<radialGradient id="SVGID_6_" cx="323.3188" cy="6187.8574" r="129.2727" gradientTransform="matrix(0.5538 0 0 4.348000e-02 4.8134 682.5848)" gradientUnits="userSpaceOnUse">
			<stop offset="0.1034" style="stop-color:#E0E3E2" />
			<stop offset="0.2677" style="stop-color:#E9EBEA" />
			<stop offset="0.684" style="stop-color:#F9FAFA" />
			<stop offset="1" style="stop-color:#FFFFFF" />
		</radialGradient>
		<ellipse class="st9" cx="183.9" cy="951.6" rx="101.1" ry="4.7" />
		<path class="st7" d="M232.4,911.3c0,0-1.9,19.1-17,20.4c15.1,1.3,17,20.4,17,20.4s1.9-19.1,17-20.4
			C234.3,930.4,232.4,911.3,232.4,911.3z" />
		<path class="st7" d="M243.9,859.9c0,0-1.3,12.6-11.3,13.5c10,0.9,11.3,13.5,11.3,13.5s1.3-12.6,11.3-13.5
			C245.2,872.5,243.9,859.9,243.9,859.9z" />
	</g>
	<g>
		<g>
			<path class="st1" d="M146.8,698.7L146.8,698.7c-0.8-0.7-1.8-1.3-2.9-1.6l-0.4-0.1l-0.2-0.4c-0.4-1-1-2-1.9-2.7
				c-1.3-1.2-2.9-1.8-4.7-1.8c-0.1,0-0.2,0-0.4,0c-3.8,0.2-6.8,3.5-6.6,7.3l0.5,10.2c0,0.5,0.3,1,0.6,1.3c0.4,0.3,0.9,0.5,1.4,0.5
				l10.2-0.5c3.8-0.2,6.8-3.5,6.6-7.3C149,701.6,148.2,699.9,146.8,698.7z M144.5,706c-0.6,0.6-1.4,1-2.2,1.1l-8.3,0.4l-0.4-8.3
				c-0.1-1.8,1.3-3.3,3-3.4c0.9,0,1.7,0.2,2.3,0.8c0.6,0.6,1,1.4,1.1,2.2c0,0.5,0.2,1,0.6,1.3c0.4,0.3,0.9,0.5,1.4,0.5
				c0.8,0,1.7,0.2,2.3,0.8c0.6,0.6,1,1.4,1.1,2.2C145.3,704.6,145.1,705.4,144.5,706z" />
			<path class="st1" d="M164.4,679.2c-0.8-0.8-1.8-1.3-2.9-1.6l-0.4-0.1l-0.2-0.4c-0.4-1-1-2-1.9-2.7c-1.3-1.2-2.9-1.8-4.7-1.8
				c-0.1,0-0.2,0-0.4,0c-3.8,0.2-6.8,3.5-6.6,7.3L148,690c0,0.5,0.3,1,0.6,1.3c0.4,0.3,0.9,0.5,1.4,0.5l10.2-0.5
				c3.8-0.2,6.8-3.5,6.6-7.3C166.6,682.1,165.8,680.4,164.4,679.2z M159.9,687.5l-8.3,0.4l-0.4-8.3c0-0.9,0.2-1.7,0.8-2.3
				c0.6-0.6,1.4-1,2.2-1.1c0.9,0,1.7,0.2,2.3,0.8c0.6,0.6,1,1.4,1.1,2.2c0,0.5,0.2,1,0.6,1.3c0.4,0.3,0.9,0.5,1.4,0.5
				c0.9,0,1.7,0.2,2.3,0.8c0.6,0.6,1,1.4,1.1,2.2C163,685.9,161.7,687.4,159.9,687.5z" />
			<path class="st1" d="M189.8,645.6c-0.4-0.4-0.9-0.5-1.5-0.5c-25,3-47.8,16.5-62.5,36.9l-5.7,7.9l-29,10.9c-0.4,0.2-0.7,0.4-1,0.8
				l-10.3,17.5c-0.3,0.6-0.4,1.2-0.1,1.8c0.1,0.2,0.2,0.4,0.4,0.6c0.3,0.3,0.7,0.4,1.1,0.5l17.3,1.9l9.9,9l-5.8,6.4
				c-0.7,0.8-0.6,2,0.1,2.7c0.4,0.3,0.8,0.5,1.4,0.5c0.5,0,1-0.2,1.3-0.6l5.8-6.4l9.9,9l3.6,17c0.1,0.4,0.3,0.7,0.6,1
				c0.2,0.2,0.4,0.3,0.6,0.4c0.6,0.2,1.3,0.1,1.8-0.2l16.4-12.1c0.3-0.3,0.6-0.6,0.7-1l7.9-30l7.3-6.4c18.8-16.7,29.9-40.7,30.4-65.9
				C190.5,646.5,190.2,646,189.8,645.6z M98.5,720.1l-13.9-1.5l8.5-14.4l23.1-8.7L98.5,720.1z M141.5,747.8l-13.5,9.9l-2.9-13.7
				l22.7-20.1L141.5,747.8z M181,676.1c-5,13.1-13.1,24.8-23.5,34L123,740.8l-9.1-8.3l11.5-12.8c0.3-0.4,0.5-0.9,0.5-1.4
				c0-0.5-0.2-1-0.6-1.3c-0.8-0.7-2-0.6-2.7,0.1L111.1,730l-9.1-8.3l27-37.5c8.1-11.3,19-20.5,31.5-26.8l0.8-0.4l0.4,0.9
				c1.6,4,4.2,7.7,7.5,10.7c3.3,2.9,7.2,5.1,11.4,6.4l0.9,0.3L181,676.1z M186.6,650.3c-0.4,6.9-1.6,13.9-3.7,20.6l-0.3,0.8l-0.8-0.2
				c-3.8-1-7.3-3-10.2-5.6c-2.9-2.6-5.2-5.9-6.6-9.6l-0.3-0.8l0.8-0.3c6.5-2.7,13.2-4.7,20.1-5.8l1.1-0.2L186.6,650.3z" />
		</g>
		<path class="st11" d="M265.1,668.9c-0.9-3.8-4.3-6.6-8.3-6.6c-0.7,0-1.5,0.1-2.2,0.3c-2-4.3-6.3-7.2-11.4-7.2
			c-1.3,0-2.6,0.2-3.7,0.6c-2.7-4.5-7.6-7.5-13.2-7.5c-6.7,0-12.4,4.2-14.5,10.2c-1.5-0.9-3.3-1.3-5.2-1.3c-5.9,0-10.6,4.7-10.6,10.6
			c0,0.3,0,0.7,0.1,1H265.1z" />
		<path class="st11" d="M120,683.6c-0.8-3.6-4-6.2-7.8-6.2c-0.7,0-1.4,0.1-2,0.3c-1.9-4-5.9-6.8-10.7-6.8c-1.2,0-2.4,0.2-3.5,0.5
			c-2.5-4.2-7.2-7-12.4-7c-6.3,0-11.6,4-13.6,9.6c-1.4-0.8-3.1-1.3-4.8-1.3c-5.5,0-10,4.5-10,10c0,0.3,0,0.6,0,1H120z" />
		<path class="st7" d="M131.5,782.9c0,0-0.8,8.3-7.4,8.9c6.6,0.6,7.4,8.9,7.4,8.9s0.8-8.3,7.4-8.9
			C132.3,791.2,131.5,782.9,131.5,782.9z" />
	</g>
	<g>
		<g>
			<path class="st8" d="M1012.7,937.9c-0.3-2.4-1.1-4.8-2.6-6.8c-1-1.4-2.3-2.5-3.7-3.5c-1.4-0.9-3-1.5-4.7-1.8
				c-0.7-0.1-1.4-0.2-2.1-0.2c-1.9,0-3.8,0.4-5.6,1c-1.9,0.7-3.7,1.7-5.2,3c-1.5,1.3-2.8,2.8-4,4.5c-0.4,0.5-0.9,1.4-1.1,2
				c-0.4,0.9-0.8,1.9-1.1,2.8c-0.1-0.1-0.2-0.3-0.3-0.4c-0.1-0.1-0.2-0.2-0.3-0.4c0,0-0.1-0.1-0.1-0.1c-0.9-0.9-2-1.7-3.1-2.4
				c-1.4-0.8-2.9-1.4-4.4-1.8c-0.6-0.1-1.1-0.2-1.7-0.3c-0.6-0.1-1.2-0.1-1.8-0.1c-0.3,0-0.5,0-0.8,0c-0.8,0.1-1.7,0.2-2.5,0.4
				c-0.9,0.2-1.8,0.6-2.6,1c-1.2,0.6-2.4,1.5-3.3,2.4c-0.8,0.7-1.4,1.6-2,2.5c-1.3,2.2-1.8,4.3-2,6.6c-0.1,1.6,0,3.1,0.3,4.7
				c0.3,1.4,0.9,2.7,1.6,4c0.6,1.1,1.3,2,2.1,3c1.1,1.3,2.3,2.5,3.5,3.6c1.9,1.8,4,3.4,6.2,4.9c2.5,1.7,5,3.3,7.6,4.8
				c10.4,5.7,18.7,7.6,19,4.9c0.3-3.6,1.2-7.1,3.1-10.2c0.2-0.3,0.4-0.7,0.6-1c1.7-2.7,3.5-5.3,5.2-8c2-3.1,3.7-6.2,4.9-9.6
				c0.5-1.5,0.9-3,1.1-4.6c0.1-0.8,0.2-1.5,0.2-2.3C1012.9,939.6,1012.8,938.8,1012.7,937.9z" />
			<g>
				<path class="st8" d="M1008.9,937.6c0.4,0.3,0.5,0.8,0.2,1.2c-0.3,0.4-0.8,0.5-1.2,0.2c-0.4-0.3-0.5-0.8-0.2-1.2
					C1007.9,937.4,1008.5,937.3,1008.9,937.6L1008.9,937.6L1008.9,937.6z" />
				<path class="st8" d="M1008.4,942.3c0.3,0.2,0.4,0.6,0.2,0.8c-0.2,0.3-0.6,0.3-0.9,0.1c-0.3-0.2-0.4-0.6-0.2-0.8
					C1007.8,942.2,1008.2,942.1,1008.4,942.3L1008.4,942.3L1008.4,942.3z" />
				<path class="st8" d="M1006.9,947.2c0.2,0.1,0.2,0.4,0.1,0.6c-0.1,0.2-0.4,0.2-0.6,0.1c-0.2-0.1-0.2-0.4-0.1-0.6
					C1006.4,947.1,1006.7,947.1,1006.9,947.2L1006.9,947.2L1006.9,947.2z" />
				<path class="st8" d="M1004.2,950.8c0.2,0.1,0.3,0.4,0.1,0.6c-0.1,0.2-0.5,0.3-0.7,0.1c-0.2-0.1-0.3-0.4-0.1-0.6
					C1003.7,950.8,1004,950.7,1004.2,950.8L1004.2,950.8L1004.2,950.8z" />
			</g>
		</g>
		<g>
			<g>
				<radialGradient id="SVGID_7_" cx="1357.5637" cy="6456.6548" r="157.9999" gradientTransform="matrix(0.5538 0 0 4.348000e-02 4.8134 787.7706)" gradientUnits="userSpaceOnUse">
					<stop offset="0.1034" style="stop-color:#E0E3E2" />
					<stop offset="0.2677" style="stop-color:#E9EBEA" />
					<stop offset="0.684" style="stop-color:#F9FAFA" />
					<stop offset="1" style="stop-color:#FFFFFF" />
				</radialGradient>
				<ellipse class="st10" cx="756.6" cy="1068.5" rx="123.5" ry="5.8" />
				<g>
					<g>
						<path class="st37" d="M753,970.9c3.7,10.1,13.5,17.4,24.9,17.4c11.4,0,21.2-7.2,24.9-17.4" />
						<g>
							<path class="st14" d="M771.4,954.3c0,1.8-1.5,3.3-3.3,3.3c-1.8,0-3.3-1.5-3.3-3.3c0-1.8,1.5-3.3,3.3-3.3
								C769.9,951,771.4,952.5,771.4,954.3z" />
							<path class="st14" d="M791,954.3c0,1.8-1.5,3.3-3.3,3.3s-3.3-1.5-3.3-3.3c0-1.8,1.5-3.3,3.3-3.3S791,952.5,791,954.3z" />
						</g>
					</g>
					<g>
						<path class="st38" d="M742.2,1010.3c-3.1,8.3-11.1,14.3-20.4,14.3c-9.4,0-17.4-5.9-20.4-14.3" />
						<g>
							<path class="st16" d="M727.1,996.6c0,1.5,1.2,2.7,2.7,2.7c1.5,0,2.7-1.2,2.7-2.7c0-1.5-1.2-2.7-2.7-2.7
								C728.3,993.9,727.1,995.2,727.1,996.6z" />
							<path class="st16" d="M711,996.6c0,1.5,1.2,2.7,2.7,2.7c1.5,0,2.7-1.2,2.7-2.7c0-1.5-1.2-2.7-2.7-2.7
								C712.2,993.9,711,995.2,711,996.6z" />
						</g>
						<circle class="st39" cx="721.7" cy="1006.9" r="36.6" />
					</g>
					<g>
						<g>
							<path class="st40" d="M756.4,1029.1c1.9,5.3,7,9,12.9,9c5.9,0,11-3.8,12.9-9" />
							<g>
								<path class="st19" d="M765.9,1020.5c0,0.9-0.8,1.7-1.7,1.7c-0.9,0-1.7-0.8-1.7-1.7c0-0.9,0.8-1.7,1.7-1.7
									C765.1,1018.8,765.9,1019.6,765.9,1020.5z" />
								<path class="st19" d="M776.1,1020.5c0,0.9-0.8,1.7-1.7,1.7c-0.9,0-1.7-0.8-1.7-1.7c0-0.9,0.8-1.7,1.7-1.7
									C775.3,1018.8,776.1,1019.6,776.1,1020.5z" />
							</g>
						</g>
					</g>
					<circle class="st41" cx="775.9" cy="964.5" r="43.8" />
					<circle class="st42" cx="770.2" cy="1026.1" r="23" />
				</g>
			</g>
		</g>
	</g>
	<g>
		<path class="st43" d="M209.4,122.1v5.5h-2.3v-5.6l-6.3-10.4h2.4l5.1,8.4l5.1-8.4h2.3L209.4,122.1z" />
		<path class="st43" d="M218.3,127c-1-0.5-1.7-1.3-2.2-2.2c-0.5-0.9-0.8-2-0.8-3.2s0.3-2.2,0.8-3.2c0.5-0.9,1.3-1.7,2.2-2.2
			c1-0.5,2-0.8,3.2-0.8c1.2,0,2.3,0.3,3.2,0.8c0.9,0.5,1.7,1.3,2.2,2.2c0.5,0.9,0.8,2,0.8,3.2s-0.3,2.2-0.8,3.2
			c-0.5,0.9-1.3,1.7-2.2,2.2s-2,0.8-3.2,0.8C220.3,127.8,219.2,127.5,218.3,127z M223.6,125.3c0.6-0.4,1.1-0.9,1.4-1.5
			c0.3-0.6,0.5-1.4,0.5-2.2s-0.2-1.6-0.5-2.2c-0.3-0.6-0.8-1.1-1.4-1.5c-0.6-0.3-1.3-0.5-2.1-0.5c-0.8,0-1.5,0.2-2.1,0.5
			c-0.6,0.3-1.1,0.8-1.5,1.5c-0.4,0.6-0.5,1.4-0.5,2.2s0.2,1.6,0.5,2.2c0.4,0.6,0.8,1.1,1.5,1.5s1.3,0.5,2.1,0.5
			C222.3,125.9,223,125.7,223.6,125.3z" />
		<path class="st43" d="M242,115.6v12.1H240v-1.8c-0.4,0.6-1,1.1-1.7,1.4c-0.7,0.3-1.5,0.5-2.4,0.5c-1.6,0-2.9-0.4-3.8-1.3
			s-1.4-2.2-1.4-3.9v-6.9h2.2v6.7c0,1.2,0.3,2.1,0.8,2.7c0.6,0.6,1.4,0.9,2.4,0.9c1.2,0,2.1-0.3,2.7-1c0.7-0.7,1-1.7,1-3v-6.2H242z" />
		<path class="st43" d="M262.4,116.8c0.9,0.9,1.4,2.2,1.4,3.9v6.9h-2.2v-6.7c0-1.2-0.3-2-0.8-2.6s-1.4-0.9-2.4-0.9
			c-1.2,0-2.1,0.3-2.8,1c-0.7,0.7-1,1.7-1,3v6.2h-2.2v-12.1h2.1v1.8c0.4-0.6,1-1.1,1.8-1.4c0.8-0.3,1.6-0.5,2.6-0.5
			C260.3,115.5,261.5,115.9,262.4,116.8z" />
		<path class="st43" d="M278.7,122.3H269c0.1,1.1,0.6,1.9,1.4,2.6c0.8,0.6,1.8,1,3,1c1.4,0,2.6-0.5,3.5-1.5l1.2,1.4
			c-0.5,0.6-1.2,1.1-2,1.5c-0.8,0.3-1.7,0.5-2.7,0.5c-1.3,0-2.4-0.3-3.4-0.8s-1.7-1.3-2.3-2.2c-0.5-0.9-0.8-2-0.8-3.2
			c0-1.2,0.3-2.2,0.8-3.2c0.5-0.9,1.2-1.7,2.2-2.2c0.9-0.5,2-0.8,3.1-0.8s2.2,0.3,3.1,0.8c0.9,0.5,1.6,1.3,2.1,2.2
			c0.5,0.9,0.8,2,0.8,3.2C278.8,121.8,278.8,122.1,278.7,122.3z M270.2,118.3c-0.7,0.6-1.1,1.5-1.2,2.5h7.7c-0.1-1-0.5-1.8-1.2-2.5
			c-0.7-0.6-1.6-1-2.6-1S270.9,117.6,270.2,118.3z" />
		<path class="st43" d="M292.7,122.3h-9.8c0.1,1.1,0.6,1.9,1.4,2.6c0.8,0.6,1.8,1,3,1c1.4,0,2.6-0.5,3.5-1.5l1.2,1.4
			c-0.5,0.6-1.2,1.1-2,1.5s-1.7,0.5-2.7,0.5c-1.3,0-2.4-0.3-3.4-0.8s-1.7-1.3-2.3-2.2c-0.5-0.9-0.8-2-0.8-3.2c0-1.2,0.3-2.2,0.8-3.2
			c0.5-0.9,1.2-1.7,2.2-2.2c0.9-0.5,2-0.8,3.1-0.8c1.2,0,2.2,0.3,3.1,0.8c0.9,0.5,1.6,1.3,2.1,2.2c0.5,0.9,0.8,2,0.8,3.2
			C292.7,121.8,292.7,122.1,292.7,122.3z M284.1,118.3c-0.7,0.6-1.1,1.5-1.2,2.5h7.7c-0.1-1-0.5-1.8-1.2-2.5c-0.7-0.6-1.6-1-2.6-1
			C285.7,117.3,284.8,117.6,284.1,118.3z" />
		<path class="st43" d="M307.1,110.7v16.9H305v-1.9c-0.5,0.7-1.1,1.2-1.8,1.5c-0.7,0.3-1.6,0.5-2.5,0.5c-1.2,0-2.2-0.3-3.1-0.8
			c-0.9-0.5-1.7-1.2-2.2-2.2c-0.5-0.9-0.8-2-0.8-3.2s0.3-2.3,0.8-3.2c0.5-0.9,1.2-1.6,2.2-2.2s2-0.8,3.1-0.8c0.9,0,1.7,0.2,2.4,0.5
			c0.7,0.3,1.3,0.8,1.8,1.4v-6.6H307.1z M303,125.3c0.6-0.4,1.1-0.9,1.5-1.5c0.3-0.6,0.5-1.4,0.5-2.2s-0.2-1.6-0.5-2.2
			c-0.3-0.6-0.8-1.1-1.5-1.5c-0.6-0.3-1.3-0.5-2.1-0.5c-0.8,0-1.5,0.2-2.1,0.5c-0.6,0.3-1.1,0.8-1.5,1.5c-0.4,0.6-0.5,1.4-0.5,2.2
			s0.2,1.6,0.5,2.2c0.4,0.6,0.8,1.1,1.5,1.5c0.6,0.4,1.3,0.5,2.1,0.5C301.7,125.9,302.4,125.7,303,125.3z" />
	</g>
	<g>
		<path class="st43" d="M207.4,139.6h-5.8v-3.4h15.9v3.4h-5.8v14.8h-4.2V139.6z" />
		<path class="st43" d="M231.4,154.4l-3.5-5.1h-0.2H224v5.1h-4.2v-18.3h7.9c1.6,0,3,0.3,4.2,0.8c1.2,0.5,2.1,1.3,2.8,2.3
			c0.6,1,1,2.2,1,3.5s-0.3,2.5-1,3.5c-0.7,1-1.6,1.7-2.8,2.3l4.1,5.9H231.4z M230.3,140.4c-0.7-0.5-1.6-0.8-2.9-0.8H224v6.4h3.4
			c1.3,0,2.2-0.3,2.9-0.8s1-1.3,1-2.3C231.3,141.8,231,141,230.3,140.4z" />
		<path class="st43" d="M253.1,151v3.4h-14.1v-18.3h13.8v3.4h-9.6v4h8.5v3.3h-8.5v4.2H253.1z" />
		<path class="st43" d="M268.4,150.5H260l-1.6,3.9H254l8.1-18.3h4.2l8.2,18.3h-4.4L268.4,150.5z M267.1,147.3l-2.9-7l-2.9,7H267.1z" />
		<path class="st43" d="M279.3,139.6h-5.8v-3.4h15.9v3.4h-5.8v14.8h-4.2V139.6z" />
		<path class="st43" d="M308.2,154.4l0-11l-5.4,9h-1.9l-5.3-8.8v10.7h-4v-18.3h3.5l6.8,11.3l6.7-11.3h3.5l0.1,18.3H308.2z" />
		<path class="st43" d="M330.7,151v3.4h-14.1v-18.3h13.8v3.4h-9.6v4h8.5v3.3h-8.5v4.2H330.7z" />
		<path class="st43" d="M350.8,136.2v18.3h-3.5l-9.1-11.1v11.1H334v-18.3h3.5l9.1,11.1v-11.1H350.8z" />
		<path class="st43" d="M358.9,139.6H353v-3.4H369v3.4h-5.8v14.8h-4.2V139.6z" />
	</g>
	<g>
		<path class="st43" d="M560,190.8c-1.3-0.7-2.3-1.7-3-2.9c-0.7-1.2-1.1-2.6-1.1-4.2s0.4-2.9,1.1-4.2c0.7-1.2,1.7-2.2,3-2.9
			c1.3-0.7,2.7-1.1,4.3-1.1c1.2,0,2.4,0.2,3.4,0.6s1.9,1,2.6,1.9l-1.5,1.4c-1.2-1.3-2.7-1.9-4.5-1.9c-1.2,0-2.3,0.3-3.2,0.8
			s-1.7,1.3-2.2,2.2c-0.5,0.9-0.8,2-0.8,3.1s0.3,2.2,0.8,3.1c0.5,0.9,1.3,1.7,2.2,2.2s2,0.8,3.2,0.8c1.8,0,3.3-0.6,4.5-1.9l1.5,1.4
			c-0.7,0.8-1.6,1.4-2.7,1.9c-1,0.4-2.2,0.6-3.4,0.6C562.7,191.9,561.3,191.5,560,190.8z" />
		<path class="st43" d="M577.1,180.1c0.7-0.4,1.6-0.5,2.7-0.5v2.1c-0.1,0-0.3,0-0.5,0c-1.2,0-2.1,0.4-2.8,1.1c-0.7,0.7-1,1.7-1,3v6
			h-2.2v-12.1h2.1v2C575.8,181,576.3,180.4,577.1,180.1z" />
		<path class="st43" d="M593.2,186.4h-9.8c0.1,1.1,0.6,1.9,1.4,2.6c0.8,0.6,1.8,1,3,1c1.4,0,2.6-0.5,3.5-1.5l1.2,1.4
			c-0.5,0.6-1.2,1.1-2,1.5c-0.8,0.3-1.7,0.5-2.7,0.5c-1.3,0-2.4-0.3-3.4-0.8s-1.7-1.3-2.3-2.2c-0.5-0.9-0.8-2-0.8-3.2
			c0-1.2,0.3-2.2,0.8-3.2c0.5-0.9,1.2-1.7,2.2-2.2c0.9-0.5,2-0.8,3.1-0.8s2.2,0.3,3.1,0.8c0.9,0.5,1.6,1.3,2.1,2.2
			c0.5,0.9,0.8,2,0.8,3.2C593.3,185.9,593.2,186.1,593.2,186.4z M584.7,182.3c-0.7,0.6-1.1,1.5-1.2,2.5h7.7c-0.1-1-0.5-1.8-1.2-2.5
			c-0.7-0.6-1.6-1-2.6-1S585.4,181.7,584.7,182.3z" />
		<path class="st43" d="M604.2,180.8c0.9,0.8,1.3,2,1.3,3.7v7.3h-2.1v-1.6c-0.4,0.6-0.9,1-1.6,1.3c-0.7,0.3-1.5,0.4-2.4,0.4
			c-1.4,0-2.4-0.3-3.2-1s-1.2-1.5-1.2-2.6c0-1.1,0.4-1.9,1.2-2.6c0.8-0.6,2-1,3.7-1h3.5v-0.4c0-0.9-0.3-1.7-0.8-2.2
			c-0.5-0.5-1.4-0.8-2.4-0.8c-0.7,0-1.4,0.1-2.1,0.4c-0.7,0.2-1.3,0.6-1.7,0.9l-0.9-1.6c0.6-0.5,1.4-0.9,2.2-1.1
			c0.9-0.3,1.8-0.4,2.8-0.4C602,179.5,603.3,179.9,604.2,180.8z M602,189.6c0.6-0.4,1-0.9,1.3-1.6v-1.7H600c-1.9,0-2.8,0.6-2.8,1.9
			c0,0.6,0.2,1.1,0.7,1.4s1.1,0.5,2,0.5C600.7,190.2,601.4,190,602,189.6z" />
		<path class="st43" d="M616.3,191c-0.3,0.3-0.7,0.5-1.2,0.6c-0.5,0.1-1,0.2-1.5,0.2c-1.2,0-2.2-0.3-2.8-1s-1-1.6-1-2.8v-6.6h-2v-1.8
			h2V177h2.2v2.6h3.5v1.8h-3.5v6.5c0,0.7,0.2,1.2,0.5,1.5c0.3,0.3,0.8,0.5,1.4,0.5c0.7,0,1.2-0.2,1.7-0.6L616.3,191z" />
		<path class="st43" d="M629.4,186.4h-9.8c0.1,1.1,0.6,1.9,1.4,2.6c0.8,0.6,1.8,1,3,1c1.4,0,2.6-0.5,3.5-1.5l1.2,1.4
			c-0.5,0.6-1.2,1.1-2,1.5s-1.7,0.5-2.7,0.5c-1.3,0-2.4-0.3-3.4-0.8s-1.7-1.3-2.3-2.2c-0.5-0.9-0.8-2-0.8-3.2c0-1.2,0.3-2.2,0.8-3.2
			c0.5-0.9,1.2-1.7,2.2-2.2c0.9-0.5,2-0.8,3.1-0.8c1.2,0,2.2,0.3,3.1,0.8c0.9,0.5,1.6,1.3,2.1,2.2c0.5,0.9,0.8,2,0.8,3.2
			C629.5,185.9,629.5,186.1,629.4,186.4z M620.9,182.3c-0.7,0.6-1.1,1.5-1.2,2.5h7.7c-0.1-1-0.5-1.8-1.2-2.5c-0.7-0.6-1.6-1-2.6-1
			C622.5,181.4,621.6,181.7,620.9,182.3z" />
		<path class="st43" d="M646.9,180.8c0.9,0.8,1.3,2,1.3,3.7v7.3h-2.1v-1.6c-0.4,0.6-0.9,1-1.6,1.3c-0.7,0.3-1.5,0.4-2.4,0.4
			c-1.4,0-2.4-0.3-3.2-1s-1.2-1.5-1.2-2.6c0-1.1,0.4-1.9,1.2-2.6c0.8-0.6,2-1,3.7-1h3.5v-0.4c0-0.9-0.3-1.7-0.8-2.2
			c-0.5-0.5-1.4-0.8-2.4-0.8c-0.7,0-1.4,0.1-2.1,0.4c-0.7,0.2-1.3,0.6-1.7,0.9l-0.9-1.6c0.6-0.5,1.4-0.9,2.2-1.1
			c0.9-0.3,1.8-0.4,2.8-0.4C644.7,179.5,646,179.9,646.9,180.8z M644.7,189.6c0.6-0.4,1-0.9,1.3-1.6v-1.7h-3.4
			c-1.9,0-2.8,0.6-2.8,1.9c0,0.6,0.2,1.1,0.7,1.4s1.1,0.5,2,0.5C643.4,190.2,644.1,190,644.7,189.6z" />
	</g>
	<g>
		<path class="st43" d="M561.2,217.6c-1.5-0.8-2.7-1.9-3.5-3.4c-0.9-1.4-1.3-3.1-1.3-4.9c0-1.8,0.4-3.4,1.3-4.9
			c0.9-1.4,2-2.6,3.5-3.4c1.5-0.8,3.2-1.2,5.1-1.2c1.6,0,3,0.3,4.3,0.8s2.4,1.4,3.2,2.4l-2.7,2.5c-1.2-1.4-2.8-2.1-4.6-2.1
			c-1.1,0-2.1,0.2-3,0.7c-0.9,0.5-1.6,1.2-2.1,2.1c-0.5,0.9-0.7,1.9-0.7,3c0,1.1,0.2,2.1,0.7,3c0.5,0.9,1.2,1.6,2.1,2.1
			c0.9,0.5,1.9,0.7,3,0.7c1.8,0,3.4-0.7,4.6-2.2l2.7,2.5c-0.9,1.1-1.9,1.9-3.2,2.4c-1.3,0.6-2.7,0.8-4.3,0.8
			C564.4,218.8,562.7,218.4,561.2,217.6z" />
		<path class="st43" d="M588.3,214.6h-8.5l-1.6,3.9h-4.3l8.1-18.3h4.2l8.2,18.3h-4.4L588.3,214.6z M587,211.4l-2.9-7l-2.9,7H587z" />
		<path class="st43" d="M612.9,218.5l0-11l-5.4,9h-1.9l-5.3-8.8v10.7h-4v-18.3h3.5l6.8,11.3l6.7-11.3h3.5l0.1,18.3H612.9z" />
		<path class="st43" d="M633.3,201.1c1.2,0.5,2.1,1.3,2.8,2.3c0.6,1,1,2.2,1,3.5c0,1.3-0.3,2.5-1,3.5c-0.6,1-1.6,1.8-2.8,2.3
			s-2.6,0.8-4.2,0.8h-3.7v5h-4.2v-18.3h7.9C630.7,200.2,632.1,200.5,633.3,201.1z M631.7,209.2c0.7-0.5,1-1.3,1-2.3
			c0-1-0.3-1.8-1-2.4c-0.7-0.5-1.6-0.8-2.9-0.8h-3.4v6.3h3.4C630.1,210,631.1,209.8,631.7,209.2z" />
		<path class="st43" d="M651.1,214.6h-8.5l-1.6,3.9h-4.3l8.1-18.3h4.2l8.2,18.3h-4.4L651.1,214.6z M649.8,211.4l-2.9-7l-2.9,7H649.8z
			" />
		<path class="st43" d="M659.1,200.2h4.2v18.3h-4.2V200.2z" />
		<path class="st43" d="M680,209.1h3.9v7.4c-1,0.7-2.1,1.3-3.4,1.7c-1.3,0.4-2.6,0.6-3.9,0.6c-1.9,0-3.6-0.4-5.1-1.2
			c-1.5-0.8-2.7-1.9-3.6-3.4c-0.9-1.4-1.3-3.1-1.3-4.9c0-1.8,0.4-3.4,1.3-4.9c0.9-1.4,2.1-2.6,3.6-3.4s3.3-1.2,5.2-1.2
			c1.6,0,3.1,0.3,4.4,0.8c1.3,0.5,2.4,1.3,3.3,2.3l-2.7,2.5c-1.3-1.4-2.9-2.1-4.7-2.1c-1.2,0-2.2,0.2-3.1,0.7
			c-0.9,0.5-1.6,1.2-2.1,2.1c-0.5,0.9-0.8,1.9-0.8,3.1c0,1.1,0.3,2.1,0.8,3c0.5,0.9,1.2,1.6,2.1,2.1c0.9,0.5,1.9,0.7,3.1,0.7
			c1.2,0,2.3-0.3,3.3-0.8V209.1z" />
		<path class="st43" d="M704.5,200.2v18.3H701l-9.1-11.1v11.1h-4.2v-18.3h3.5l9.1,11.1v-11.1H704.5z" />
	</g>
	<g>
		<path class="st43" d="M542.9,835.8v5.6h8v2h-8v6.4h-2.3v-15.9h11.2v2H542.9z" />
		<path class="st43" d="M565.6,837.7v12.1h-2.1V848c-0.4,0.6-1,1.1-1.7,1.4c-0.7,0.3-1.5,0.5-2.4,0.5c-1.6,0-2.9-0.4-3.8-1.3
			s-1.4-2.2-1.4-3.9v-6.9h2.2v6.7c0,1.2,0.3,2.1,0.8,2.7c0.6,0.6,1.4,0.9,2.4,0.9c1.2,0,2.1-0.3,2.7-1c0.7-0.7,1-1.7,1-3v-6.2H565.6z
			" />
		<path class="st43" d="M579.9,838.9c0.9,0.9,1.4,2.2,1.4,3.9v6.9H579v-6.7c0-1.2-0.3-2-0.8-2.6s-1.4-0.9-2.4-0.9
			c-1.2,0-2.1,0.3-2.8,1c-0.7,0.7-1,1.7-1,3v6.2h-2.2v-12.1h2.1v1.8c0.4-0.6,1-1.1,1.8-1.4c0.8-0.3,1.6-0.5,2.6-0.5
			C577.7,837.6,579,838.1,579.9,838.9z" />
		<path class="st43" d="M596.7,832.9v16.9h-2.1v-1.9c-0.5,0.7-1.1,1.2-1.8,1.5c-0.7,0.3-1.6,0.5-2.5,0.5c-1.2,0-2.2-0.3-3.1-0.8
			c-0.9-0.5-1.7-1.2-2.2-2.2c-0.5-0.9-0.8-2-0.8-3.2s0.3-2.3,0.8-3.2c0.5-0.9,1.2-1.6,2.2-2.2c0.9-0.5,2-0.8,3.1-0.8
			c0.9,0,1.7,0.2,2.4,0.5c0.7,0.3,1.3,0.8,1.8,1.4v-6.6H596.7z M592.6,847.5c0.6-0.4,1.1-0.9,1.5-1.5c0.3-0.6,0.5-1.4,0.5-2.2
			s-0.2-1.6-0.5-2.2c-0.3-0.6-0.8-1.1-1.5-1.5c-0.6-0.3-1.3-0.5-2.1-0.5c-0.8,0-1.5,0.2-2.1,0.5c-0.6,0.3-1.1,0.8-1.5,1.5
			c-0.4,0.6-0.5,1.4-0.5,2.2s0.2,1.6,0.5,2.2c0.4,0.6,0.8,1.1,1.5,1.5c0.6,0.4,1.3,0.5,2.1,0.5C591.3,848,591.9,847.8,592.6,847.5z" />
		<path class="st43" d="M601.5,849.5c-0.9-0.3-1.6-0.6-2.1-1l0.9-1.7c0.5,0.4,1.2,0.7,1.9,0.9c0.8,0.2,1.5,0.3,2.3,0.3
			c1.9,0,2.9-0.5,2.9-1.6c0-0.4-0.1-0.7-0.4-0.9c-0.3-0.2-0.6-0.4-1-0.5c-0.4-0.1-0.9-0.2-1.7-0.3c-1-0.2-1.8-0.3-2.4-0.5
			c-0.6-0.2-1.1-0.5-1.6-1c-0.4-0.5-0.7-1.1-0.7-2c0-1.1,0.5-2,1.4-2.6c0.9-0.7,2.1-1,3.7-1c0.8,0,1.6,0.1,2.4,0.3
			c0.8,0.2,1.5,0.5,2,0.8l-0.9,1.7c-1-0.6-2.1-1-3.5-1c-0.9,0-1.6,0.2-2.1,0.5s-0.7,0.7-0.7,1.2c0,0.4,0.1,0.7,0.4,0.9
			c0.3,0.2,0.6,0.4,1,0.5s1,0.2,1.7,0.4c1,0.2,1.8,0.3,2.4,0.5c0.6,0.2,1.1,0.5,1.5,1c0.4,0.5,0.6,1.1,0.6,1.9c0,1.1-0.5,2-1.4,2.6
			c-0.9,0.6-2.2,1-3.8,1C603.3,849.9,602.4,849.8,601.5,849.5z" />
	</g>
	<g>
		<path class="st43" d="M545.4,863.2h-5.8v-3.4h15.9v3.4h-5.8V878h-4.2V863.2z" />
		<path class="st43" d="M569.4,878l-3.5-5.1h-0.2H562v5.1h-4.2v-18.3h7.9c1.6,0,3,0.3,4.2,0.8c1.2,0.5,2.1,1.3,2.8,2.3
			c0.6,1,1,2.2,1,3.5s-0.3,2.5-1,3.5c-0.7,1-1.6,1.7-2.8,2.3l4.1,5.9H569.4z M568.3,864c-0.7-0.5-1.6-0.8-2.9-0.8H562v6.4h3.4
			c1.3,0,2.2-0.3,2.9-0.8s1-1.3,1-2.3C569.3,865.4,569,864.6,568.3,864z" />
		<path class="st43" d="M589,874.1h-8.5l-1.6,3.9h-4.3l8.1-18.3h4.2L595,878h-4.4L589,874.1z M587.7,870.9l-2.9-7l-2.9,7H587.7z" />
		<path class="st43" d="M613.7,859.8V878h-3.5l-9.1-11.1V878h-4.2v-18.3h3.5l9.1,11.1v-11.1H613.7z" />
		<path class="st43" d="M619.8,877.8c-1.3-0.4-2.4-0.9-3.2-1.5l1.4-3.2c0.8,0.6,1.7,1,2.8,1.4s2.2,0.5,3.2,0.5c1.2,0,2.1-0.2,2.7-0.5
			c0.6-0.4,0.9-0.8,0.9-1.4c0-0.4-0.2-0.8-0.5-1.1s-0.8-0.5-1.3-0.7s-1.2-0.4-2.2-0.6c-1.4-0.3-2.5-0.7-3.4-1
			c-0.9-0.3-1.6-0.9-2.3-1.6c-0.6-0.7-1-1.7-1-2.9c0-1.1,0.3-2,0.9-2.9c0.6-0.9,1.4-1.5,2.6-2c1.2-0.5,2.6-0.8,4.2-0.8
			c1.2,0,2.3,0.1,3.4,0.4c1.1,0.3,2.1,0.7,2.9,1.2l-1.3,3.2c-1.7-1-3.4-1.4-5.1-1.4c-1.2,0-2.1,0.2-2.6,0.6c-0.6,0.4-0.8,0.9-0.8,1.5
			s0.3,1.1,1,1.4c0.7,0.3,1.6,0.6,3,0.9c1.4,0.3,2.5,0.7,3.4,1c0.9,0.3,1.6,0.9,2.3,1.6c0.6,0.7,1,1.7,1,2.9c0,1-0.3,2-0.9,2.9
			c-0.6,0.9-1.5,1.5-2.6,2s-2.6,0.8-4.3,0.8C622.6,878.3,621.2,878.1,619.8,877.8z" />
		<path class="st43" d="M646.7,874.1h-8.5l-1.6,3.9h-4.3l8.1-18.3h4.2l8.2,18.3h-4.4L646.7,874.1z M645.4,870.9l-2.9-7l-2.9,7H645.4z
			" />
		<path class="st43" d="M658.1,877.1c-1.5-0.8-2.7-1.9-3.5-3.4c-0.9-1.4-1.3-3.1-1.3-4.9c0-1.8,0.4-3.4,1.3-4.9
			c0.9-1.4,2-2.6,3.5-3.4c1.5-0.8,3.2-1.2,5.1-1.2c1.6,0,3,0.3,4.3,0.8s2.4,1.4,3.2,2.4l-2.7,2.5c-1.2-1.4-2.8-2.1-4.6-2.1
			c-1.1,0-2.1,0.2-3,0.7c-0.9,0.5-1.6,1.2-2.1,2.1c-0.5,0.9-0.7,1.9-0.7,3c0,1.1,0.2,2.1,0.7,3c0.5,0.9,1.2,1.6,2.1,2.1
			c0.9,0.5,1.9,0.7,3,0.7c1.8,0,3.4-0.7,4.6-2.2l2.7,2.5c-0.9,1.1-1.9,1.9-3.2,2.4c-1.3,0.6-2.7,0.8-4.3,0.8
			C661.3,878.3,659.6,877.9,658.1,877.1z" />
		<path class="st43" d="M677.1,863.2h-5.8v-3.4h15.9v3.4h-5.8V878h-4.2V863.2z" />
		<path class="st43" d="M689.4,859.8h4.2V878h-4.2V859.8z" />
		<path class="st43" d="M701.7,877.1c-1.5-0.8-2.7-1.9-3.6-3.4c-0.9-1.4-1.3-3-1.3-4.8c0-1.8,0.4-3.4,1.3-4.8
			c0.9-1.4,2.1-2.6,3.6-3.4s3.2-1.2,5.1-1.2s3.6,0.4,5.1,1.2s2.7,1.9,3.6,3.4c0.9,1.4,1.3,3,1.3,4.8c0,1.8-0.4,3.4-1.3,4.8
			c-0.9,1.4-2.1,2.6-3.6,3.4s-3.2,1.2-5.1,1.2S703.2,877.9,701.7,877.1z M709.8,874c0.9-0.5,1.6-1.2,2-2.1c0.5-0.9,0.7-1.9,0.7-3
			c0-1.1-0.2-2.1-0.7-3c-0.5-0.9-1.2-1.6-2-2.1c-0.9-0.5-1.8-0.7-2.9-0.7s-2.1,0.2-2.9,0.7c-0.9,0.5-1.6,1.2-2,2.1
			c-0.5,0.9-0.7,1.9-0.7,3c0,1.1,0.2,2.1,0.7,3c0.5,0.9,1.2,1.6,2,2.1c0.9,0.5,1.8,0.7,2.9,0.7S708.9,874.5,709.8,874z" />
		<path class="st43" d="M736.8,859.8V878h-3.5l-9.1-11.1V878H720v-18.3h3.5l9.1,11.1v-11.1H736.8z" />
	</g>
	<g>
		<path class="st43" d="M861.2,965.8v11.1h-10.3v-11.2l-11.5-19.4h10.9l6.3,10.6l6.3-10.6h10L861.2,965.8z" />
		<path class="st43" d="M880,975.5c-2.6-1.4-4.7-3.3-6.2-5.7s-2.2-5.2-2.2-8.2c0-3.1,0.7-5.8,2.2-8.2c1.5-2.4,3.5-4.3,6.2-5.7
			s5.6-2.1,8.9-2.1c3.3,0,6.3,0.7,8.9,2.1c2.6,1.4,4.7,3.3,6.2,5.7c1.5,2.4,2.2,5.2,2.2,8.2c0,3.1-0.7,5.8-2.2,8.2s-3.5,4.3-6.2,5.7
			c-2.6,1.4-5.6,2.1-8.9,2.1C885.5,977.6,882.6,976.9,880,975.5z M892.3,968.3c1-0.6,1.9-1.5,2.5-2.7c0.6-1.2,0.9-2.5,0.9-4
			c0-1.5-0.3-2.9-0.9-4s-1.4-2-2.5-2.7c-1-0.6-2.2-0.9-3.5-0.9s-2.4,0.3-3.5,0.9c-1,0.6-1.9,1.5-2.5,2.7s-0.9,2.5-0.9,4
			c0,1.5,0.3,2.9,0.9,4c0.6,1.2,1.4,2,2.5,2.7s2.2,0.9,3.5,0.9S891.3,968.9,892.3,968.3z" />
		<path class="st43" d="M913.5,973.8c-2.6-2.5-3.9-6.1-3.9-10.7v-16.8h10.3v16.5c0,2.2,0.4,3.9,1.2,4.9c0.8,1,2,1.5,3.5,1.5
			s2.7-0.5,3.5-1.5c0.8-1,1.2-2.7,1.2-4.9v-16.5h10.1v16.8c0,4.6-1.3,8.1-3.9,10.7c-2.6,2.5-6.3,3.8-11,3.8
			C919.8,977.6,916.2,976.3,913.5,973.8z" />
		<path class="st43" d="M870.4,1029.3l-0.1-13.9l-6.6,11.2h-4.5l-6.6-10.7v13.5h-9.4v-30.6h8.5l10,16.3l9.7-16.3h8.5l0.1,30.6H870.4z
			" />
		<path class="st43" d="M905.6,1024H894l-2.1,5.3h-10.5l13.4-30.6H905l13.4,30.6h-10.7L905.6,1024z M902.8,1016.6l-3-7.7l-3,7.7
			H902.8z" />
		<path class="st43" d="M920,998.7h15.1c3.4,0,6.4,0.6,9,1.9c2.6,1.2,4.6,3,6.1,5.3c1.4,2.3,2.2,5,2.2,8.1c0,3.1-0.7,5.8-2.2,8.1
			c-1.4,2.3-3.5,4.1-6.1,5.3c-2.6,1.2-5.6,1.9-9,1.9H920V998.7z M934.6,1021.3c2.2,0,4-0.6,5.3-1.9c1.3-1.3,2-3.1,2-5.4
			c0-2.3-0.7-4.1-2-5.4c-1.3-1.3-3.1-1.9-5.3-1.9h-4.3v14.5H934.6z" />
		<path class="st43" d="M981.6,1021.6v7.8h-25.4v-30.6H981v7.8h-14.7v3.6h12.9v7.4h-12.9v4H981.6z" />
		<path class="st43" d="M998.6,998.7h10.3v30.6h-10.3V998.7z" />
		<path class="st43" d="M1020.6,1006.7h-9v-8h28.2v8h-9v22.6h-10.3V1006.7z" />
	</g>
	<g>
		<path class="st43" d="M141.7,980.7c-1.3-0.7-2.3-1.7-3-2.9c-0.7-1.2-1.1-2.6-1.1-4.2s0.4-2.9,1.1-4.2c0.7-1.2,1.7-2.2,3-2.9
			c1.3-0.7,2.7-1.1,4.3-1.1c1.2,0,2.4,0.2,3.4,0.6s1.9,1,2.6,1.9l-1.5,1.4c-1.2-1.3-2.7-1.9-4.5-1.9c-1.2,0-2.3,0.3-3.2,0.8
			s-1.7,1.3-2.2,2.2c-0.5,0.9-0.8,2-0.8,3.1s0.3,2.2,0.8,3.1c0.5,0.9,1.3,1.7,2.2,2.2s2,0.8,3.2,0.8c1.8,0,3.3-0.6,4.5-1.9l1.5,1.4
			c-0.7,0.8-1.6,1.4-2.7,1.9c-1,0.4-2.2,0.6-3.4,0.6C144.4,981.7,142.9,981.4,141.7,980.7z" />
		<path class="st43" d="M155,964.7h2.2v16.9H155V964.7z" />
		<path class="st43" d="M172.2,976.3h-9.8c0.1,1.1,0.6,1.9,1.4,2.6c0.8,0.6,1.8,1,3,1c1.4,0,2.6-0.5,3.5-1.5l1.2,1.4
			c-0.5,0.6-1.2,1.1-2,1.5c-0.8,0.3-1.7,0.5-2.7,0.5c-1.3,0-2.4-0.3-3.4-0.8s-1.7-1.3-2.3-2.2c-0.5-0.9-0.8-2-0.8-3.2
			c0-1.2,0.3-2.2,0.8-3.2c0.5-0.9,1.2-1.7,2.2-2.2c0.9-0.5,2-0.8,3.1-0.8s2.2,0.3,3.1,0.8c0.9,0.5,1.6,1.3,2.1,2.2
			c0.5,0.9,0.8,2,0.8,3.2C172.2,975.8,172.2,976,172.2,976.3z M163.6,972.2c-0.7,0.6-1.1,1.5-1.2,2.5h7.7c-0.1-1-0.5-1.8-1.2-2.5
			c-0.7-0.6-1.6-1-2.6-1S164.3,971.5,163.6,972.2z" />
		<path class="st43" d="M183.1,970.6c0.9,0.8,1.3,2,1.3,3.7v7.3h-2.1V980c-0.4,0.6-0.9,1-1.6,1.3c-0.7,0.3-1.5,0.4-2.4,0.4
			c-1.4,0-2.4-0.3-3.2-1s-1.2-1.5-1.2-2.6c0-1.1,0.4-1.9,1.2-2.6c0.8-0.6,2-1,3.7-1h3.5v-0.4c0-0.9-0.3-1.7-0.8-2.2
			c-0.5-0.5-1.4-0.8-2.4-0.8c-0.7,0-1.4,0.1-2.1,0.4c-0.7,0.2-1.3,0.6-1.7,0.9l-0.9-1.6c0.6-0.5,1.4-0.9,2.2-1.1
			c0.9-0.3,1.8-0.4,2.8-0.4C181,969.4,182.3,969.8,183.1,970.6z M181,979.4c0.6-0.4,1-0.9,1.3-1.6v-1.7h-3.4c-1.9,0-2.8,0.6-2.8,1.9
			c0,0.6,0.2,1.1,0.7,1.4s1.1,0.5,2,0.5C179.6,980,180.4,979.8,181,979.4z" />
		<path class="st43" d="M192.3,969.9c0.7-0.4,1.6-0.5,2.7-0.5v2.1c-0.1,0-0.3,0-0.5,0c-1.2,0-2.1,0.4-2.8,1.1c-0.7,0.7-1,1.7-1,3v6
			h-2.2v-12.1h2.1v2C191,970.8,191.6,970.3,192.3,969.9z" />
		<path class="st43" d="M214.7,969.5l-5.3,12.1h-2.2l-5.3-12.1h2.3l4.1,9.7l4.2-9.7H214.7z" />
		<path class="st43" d="M216.7,966.8c-0.3-0.3-0.4-0.6-0.4-1s0.1-0.7,0.4-1c0.3-0.3,0.6-0.4,1.1-0.4s0.8,0.1,1.1,0.4s0.4,0.6,0.4,1
			c0,0.4-0.1,0.8-0.4,1c-0.3,0.3-0.6,0.4-1.1,0.4S217,967,216.7,966.8z M216.7,969.5h2.2v12.1h-2.2V969.5z" />
		<path class="st43" d="M233.9,976.3h-9.8c0.1,1.1,0.6,1.9,1.4,2.6c0.8,0.6,1.8,1,3,1c1.4,0,2.6-0.5,3.5-1.5l1.2,1.4
			c-0.5,0.6-1.2,1.1-2,1.5s-1.7,0.5-2.7,0.5c-1.3,0-2.4-0.3-3.4-0.8s-1.7-1.3-2.3-2.2c-0.5-0.9-0.8-2-0.8-3.2c0-1.2,0.3-2.2,0.8-3.2
			c0.5-0.9,1.2-1.7,2.2-2.2c0.9-0.5,2-0.8,3.1-0.8c1.2,0,2.2,0.3,3.1,0.8c0.9,0.5,1.6,1.3,2.1,2.2c0.5,0.9,0.8,2,0.8,3.2
			C234,975.8,234,976,233.9,976.3z M225.4,972.2c-0.7,0.6-1.1,1.5-1.2,2.5h7.7c-0.1-1-0.5-1.8-1.2-2.5c-0.7-0.6-1.6-1-2.6-1
			C227,971.2,226.1,971.5,225.4,972.2z" />
		<path class="st43" d="M255,969.5l-4.5,12.1h-2.1l-3.5-9.2l-3.5,9.2h-2.1l-4.5-12.1h2.1l3.5,9.6l3.6-9.6h1.8l3.6,9.7l3.6-9.7H255z" />
	</g>
	<g>
		<path class="st43" d="M151.5,1009.8l-3.5-5.1h-0.2h-3.7v5.1h-4.2v-18.3h7.9c1.6,0,3,0.3,4.2,0.8c1.2,0.5,2.1,1.3,2.8,2.3
			c0.6,1,1,2.2,1,3.5s-0.3,2.5-1,3.5s-1.6,1.7-2.8,2.3l4.1,5.9H151.5z M150.5,995.8c-0.7-0.5-1.6-0.8-2.9-0.8h-3.4v6.4h3.4
			c1.3,0,2.2-0.3,2.9-0.8c0.7-0.6,1-1.3,1-2.3C151.5,997.1,151.1,996.3,150.5,995.8z" />
		<path class="st43" d="M173.2,1006.4v3.4h-14.1v-18.3h13.8v3.4h-9.6v4h8.5v3.3h-8.5v4.2H173.2z" />
		<path class="st43" d="M188.7,992.3c1.2,0.5,2.1,1.3,2.8,2.3c0.6,1,1,2.2,1,3.5c0,1.3-0.3,2.5-1,3.5c-0.6,1-1.6,1.8-2.8,2.3
			c-1.2,0.5-2.6,0.8-4.2,0.8h-3.7v5h-4.2v-18.3h7.9C186.1,991.5,187.5,991.8,188.7,992.3z M187.1,1000.5c0.7-0.5,1-1.3,1-2.3
			c0-1-0.3-1.8-1-2.4c-0.7-0.5-1.6-0.8-2.9-0.8h-3.4v6.3h3.4C185.5,1001.3,186.5,1001,187.1,1000.5z" />
		<path class="st43" d="M199.4,1008.9c-1.5-0.8-2.7-1.9-3.6-3.4c-0.9-1.4-1.3-3-1.3-4.8c0-1.8,0.4-3.4,1.3-4.8s2.1-2.6,3.6-3.4
			s3.2-1.2,5.1-1.2s3.6,0.4,5.1,1.2s2.7,1.9,3.6,3.4c0.9,1.4,1.3,3,1.3,4.8c0,1.8-0.4,3.4-1.3,4.8c-0.9,1.4-2.1,2.6-3.6,3.4
			s-3.2,1.2-5.1,1.2S200.9,1009.7,199.4,1008.9z M207.4,1005.8c0.9-0.5,1.6-1.2,2-2.1c0.5-0.9,0.7-1.9,0.7-3c0-1.1-0.2-2.1-0.7-3
			c-0.5-0.9-1.2-1.6-2-2.1c-0.9-0.5-1.8-0.7-2.9-0.7c-1.1,0-2.1,0.2-2.9,0.7c-0.9,0.5-1.6,1.2-2,2.1c-0.5,0.9-0.7,1.9-0.7,3
			c0,1.1,0.2,2.1,0.7,3s1.2,1.6,2,2.1c0.9,0.5,1.8,0.7,2.9,0.7C205.6,1006.5,206.6,1006.3,207.4,1005.8z" />
		<path class="st43" d="M229.3,1009.8l-3.5-5.1h-0.2h-3.7v5.1h-4.2v-18.3h7.9c1.6,0,3,0.3,4.2,0.8c1.2,0.5,2.1,1.3,2.8,2.3
			c0.6,1,1,2.2,1,3.5s-0.3,2.5-1,3.5s-1.6,1.7-2.8,2.3l4.1,5.9H229.3z M228.3,995.8c-0.7-0.5-1.6-0.8-2.9-0.8h-3.4v6.4h3.4
			c1.3,0,2.2-0.3,2.9-0.8c0.7-0.6,1-1.3,1-2.3C229.2,997.1,228.9,996.3,228.3,995.8z" />
		<path class="st43" d="M240.4,995h-5.8v-3.4h15.9v3.4h-5.8v14.8h-4.2V995z" />
		<path class="st43" d="M252.7,991.5h4.2v18.3h-4.2V991.5z" />
		<path class="st43" d="M278,991.5v18.3h-3.5l-9.1-11.1v11.1h-4.2v-18.3h3.5l9.1,11.1v-11.1H278z" />
		<path class="st43" d="M294.7,1000.4h3.9v7.4c-1,0.7-2.1,1.3-3.4,1.7c-1.3,0.4-2.6,0.6-3.9,0.6c-1.9,0-3.6-0.4-5.1-1.2
			c-1.5-0.8-2.7-1.9-3.6-3.4c-0.9-1.4-1.3-3.1-1.3-4.9c0-1.8,0.4-3.4,1.3-4.9c0.9-1.4,2.1-2.6,3.6-3.4c1.5-0.8,3.3-1.2,5.2-1.2
			c1.6,0,3.1,0.3,4.4,0.8s2.4,1.3,3.3,2.3l-2.7,2.5c-1.3-1.4-2.9-2.1-4.7-2.1c-1.2,0-2.2,0.2-3.1,0.7c-0.9,0.5-1.6,1.2-2.1,2.1
			s-0.8,1.9-0.8,3.1c0,1.1,0.3,2.1,0.8,3s1.2,1.6,2.1,2.1c0.9,0.5,1.9,0.7,3.1,0.7c1.2,0,2.3-0.3,3.3-0.8V1000.4z" />
	</g>
	<g>
		<polygon class="st44" points="293.8,36.3 267.6,36.3 267.6,9.9 242.2,9.9 242.2,36.3 215.8,36.3 215.8,61.9 242.2,61.9 242.2,88.3 
			267.6,88.3 267.6,61.9 293.8,61.9 	" />
		<radialGradient id="SVGID_8_" cx="4070.9893" cy="2399.5793" r="129.2727" gradientTransform="matrix(0.296 0 0 5.423031e-02 -947.5291 -34.1638)" gradientUnits="userSpaceOnUse">
			<stop offset="0.1034" style="stop-color:#E0E3E2" />
			<stop offset="0.2677" style="stop-color:#E9EBEA" />
			<stop offset="0.684" style="stop-color:#F9FAFA" />
			<stop offset="1" style="stop-color:#FFFFFF" />
		</radialGradient>
		<ellipse class="st12" cx="257.4" cy="96" rx="54" ry="5.9" />
	</g>
	<path class="st7" d="M301.4,9.8c0,0-1.3,12.6-11.3,13.5c10,0.9,11.3,13.5,11.3,13.5s1.3-12.6,11.3-13.5
		C302.7,22.4,301.4,9.8,301.4,9.8z" />
	<path class="st7" d="M320.7,34c0,0-0.8,7.9-7,8.5c6.2,0.5,7,8.5,7,8.5s0.8-7.9,7-8.5C321.5,41.9,320.7,34,320.7,34z" />
	<path class="st46" d="M538.9,713.1l89.9,40.5l-90.1,40.9l0.2-35l71.7-5.5l-71.9-5.7C538.8,748.2,538.7,713,538.9,713.1z" />
	<path class="st47" d="M200.6,1031c14.8,20.6,34.8,35.6,57.8,48.6c5,3,10,4,15,6c15,6,29,10,44,15c15,4,31,5,46,6c41,2,81-6,122-16
		c23-6,44-12,65-21c6-3,11-4,17-7c16-7,33-13,49-23c8-5,15-8,23-13c5-3,10-6,15.1-9.3" />
	<path class="st47" d="M508.6,739.4c-107.3-4.8-219.3,28.2-299,101.3" />
	<path class="st47" d="M850.6,568.9c5.8,1.7,10.8,3.7,16.8,6.7c3,2,6,2,9,3c18,9,74.8,45.6,106,101c1.6,2.8,1,5,2,8c6,13,11,27,10,42
		c-2,28-18,52-43,66c-1,1-3.1,1.9-4.1,1.9c-58,26-121.9,19.1-183.9,13.1c-14-2-48-11-51-13c-15-5-29-11-44-18c-6-2-11-4-16.6-6.4" />
	<path class="st47" d="M291.1,702c7.2-2.5,26.2-12.4,34.2-16.4c46-24,90-49,138-71c2-1,3,0,5-1c62-26,126-51,194-55c3-1,5-3,8.4-3" />
	<path class="st47" d="M216.2,474.8c-0.8,0.8-2.8,1.8-3.8,1.8c-11,2-20,6-31,9c-2,0-5,0-7,1c-33,15-68,30-86,64c-2,3-2,7-3,10
		c-13,33-2,70,18.6,96.6" />
	<path class="st47" d="M806.4,443c-17.5,10.7-26.3,15.4-66,34.6c-43.2,20.8-90,26-138,18c-28-4-54-10-79-23c-15-8-29-16-40-30
		c-1-2-3-5-5-7c-29-44,4-97,45-118c15-7,30-11,46-9c24,3,43,16,58,36c1,1,1,3,2,4c18,19,18,49,7,72c-4,8-11,15-16,23c-5,6-12,9-17,15
		c-1,1-2,0-3,1c-42,36-98,52-152,37c-35-10-69-22-103.8-28.7" />
	<path class="st47" d="M686.8,158c53.6,9.7,107.6,21.7,157.6,48.7c21,12,40,26,53.5,45.2" />
	<path class="st47" d="M187.9,295.9c11.4-9.3,22.4-17.3,34.4-26.3c11-7,20-14,31-21c98-61,202-98,313.7-100.7" />
	<path class="st47" d="M565.2,139.7c-39.8,0.3-95.9-3.9-159.1-24.5c-41.2-13.4-75.2-30.4-101.5-46.1" />
	<radialGradient id="SVGID_9_" cx="258.5539" cy="5791.8013" r="129.2727" gradientTransform="matrix(0.5538 0 0 4.348000e-02 4.8134 527.6001)" gradientUnits="userSpaceOnUse">
		<stop offset="0.1034" style="stop-color:#E0E3E2" />
		<stop offset="0.2677" style="stop-color:#E9EBEA" />
		<stop offset="0.684" style="stop-color:#F9FAFA" />
		<stop offset="1" style="stop-color:#FFFFFF" />
	</radialGradient>
	<ellipse class="st27" cx="148" cy="779.4" rx="101.1" ry="4.7" />
	<g>
		<g>
			<g>
				<g>
					<path class="st1" d="M619.2,61.4L619.2,61.4L619.2,61.4 M619.6,67.8c2.2,3.8,4.3,9.6,3.7,16.3c-0.6,6.7-4.5,12-9.2,15
						C618.4,90.3,620,80.9,619.6,67.8 M616.6,59.8c-0.7,0-1.1,0.6-1,2c1.5,19.6-0.5,30.8-9.4,43.3c9.7,0,19.7-9.1,20.7-20.7
						C628,70.9,619.6,59.8,616.6,59.8L616.6,59.8z" />
				</g>
				<g>
					<g>
						<path class="st1" d="M639.7,61.4L639.7,61.4L639.7,61.4 M639.9,68.1c1.1,2.1,2.1,4.7,2.8,7.9c1.3,6.1,1.9,18.1-8.3,30.8
							c-1,1.3-1.1,3.1-0.1,4.4c0.7,0.9,1.8,1.5,2.9,1.5c0.5,0,0.9-0.1,1.3-0.3c0.5-0.2,10-4.1,17.3-15.4c-0.2,1.8-0.6,3.8-1.3,6.1
							c-2.1,7-7.3,16.7-19.8,23.3c-1.5,0.8-2.3,2.6-1.8,4.2c0.5,1.5,1.9,2.6,3.5,2.6c0.1,0,0.2,0,0.3,0c0.3,0,5.8-0.6,12.1-3.3
							c-4.2,4.6-10.9,9.7-19.6,11.4c-2.5,0.5-5.2,0.8-7.9,0.8c-12.6,0-23.3-5.6-28.5-15c-2.5-4.6-3.1-9.5-3.6-14.3
							c-0.7-6.3-1.4-13.2-7.2-18.3c1.3-0.8,2.6-1,3.6-1c1.8,0,3.7,0.7,5.1,2c2.3,2.3,2.9,4.7,3.6,7.2c0.8,2.9,1.7,6.5,5.6,8.7
							c2,1.1,4.4,1.7,7,1.7c7.1,0,15.6-4.4,21.2-11C635.5,93.1,639.6,81.1,639.9,68.1 M657.6,124.8L657.6,124.8L657.6,124.8
							M637.1,59.8c-0.7,0-1.1,0.6-1,2.1c1.2,16.1-3.8,29.3-10.7,37.7c-4.6,5.5-12.1,9.7-18.4,9.7c-1.9,0-3.7-0.4-5.2-1.2
							c-5.2-2.9-2.4-9.3-8.5-15.3c-2-1.9-4.8-3-7.6-3c-3.3,0-6.7,1.5-9.1,5.1c12.9,7.1,6.1,21,13.2,33.8c6.6,12,19.6,16.9,31.6,16.9
							c2.9,0,5.8-0.3,8.6-0.8c19.5-3.9,30.7-23.5,26.9-23.5c-0.5,0-1.3,0.4-2.4,1.2c-8.1,6.1-18,7.1-18,7.1c26-13.6,25-42,21.2-42
							c-0.5,0-1.1,0.6-1.7,1.8c-6.8,14.9-18.7,19.7-18.7,19.7c9.8-12.1,11-24.5,9-33.8C644.2,66.1,639.2,59.8,637.1,59.8L637.1,59.8z
							" />
					</g>
				</g>
			</g>
		</g>
		<radialGradient id="SVGID_10_" cx="1114.8853" cy="4356.8071" r="129.2727" gradientTransform="matrix(0.5538 0 0 4.348000e-02 4.8134 -33.9418)" gradientUnits="userSpaceOnUse">
			<stop offset="0.1034" style="stop-color:#E0E3E2" />
			<stop offset="0.2677" style="stop-color:#E9EBEA" />
			<stop offset="0.684" style="stop-color:#F9FAFA" />
			<stop offset="1" style="stop-color:#FFFFFF" />
		</radialGradient>
		<ellipse class="st30" cx="622.2" cy="155.5" rx="101.1" ry="4.7" />
	</g>
	<g>
		<g>
			<path class="st43" d="M31.5,292.6v5.5h-2.3v-5.6l-6.3-10.4h2.4l5.1,8.4l5.1-8.4h2.3L31.5,292.6z" />
			<path class="st43" d="M40.4,297.4c-1-0.5-1.7-1.3-2.2-2.2c-0.5-0.9-0.8-2-0.8-3.2s0.3-2.2,0.8-3.2c0.5-0.9,1.3-1.7,2.2-2.2
				c1-0.5,2-0.8,3.2-0.8c1.2,0,2.3,0.3,3.2,0.8c0.9,0.5,1.7,1.3,2.2,2.2c0.5,0.9,0.8,2,0.8,3.2s-0.3,2.2-0.8,3.2
				c-0.5,0.9-1.3,1.7-2.2,2.2c-0.9,0.5-2,0.8-3.2,0.8C42.4,298.2,41.4,298,40.4,297.4z M45.7,295.8c0.6-0.4,1.1-0.9,1.4-1.5
				c0.3-0.6,0.5-1.4,0.5-2.2s-0.2-1.6-0.5-2.2c-0.3-0.6-0.8-1.1-1.4-1.5c-0.6-0.3-1.3-0.5-2.1-0.5c-0.8,0-1.5,0.2-2.1,0.5
				c-0.6,0.3-1.1,0.8-1.5,1.5c-0.4,0.6-0.5,1.4-0.5,2.2s0.2,1.6,0.5,2.2c0.4,0.6,0.8,1.1,1.5,1.5c0.6,0.4,1.3,0.5,2.1,0.5
				C44.4,296.3,45.1,296.1,45.7,295.8z" />
			<path class="st43" d="M64.2,286v12.1h-2.1v-1.8c-0.4,0.6-1,1.1-1.7,1.4c-0.7,0.3-1.5,0.5-2.4,0.5c-1.6,0-2.9-0.4-3.8-1.3
				c-0.9-0.9-1.4-2.2-1.4-3.9V286H55v6.7c0,1.2,0.3,2.1,0.8,2.7c0.6,0.6,1.4,0.9,2.4,0.9c1.2,0,2.1-0.3,2.7-1c0.7-0.7,1-1.7,1-3V286
				H64.2z" />
			<path class="st43" d="M84.6,287.2c0.9,0.9,1.4,2.2,1.4,3.9v6.9h-2.2v-6.7c0-1.2-0.3-2-0.8-2.6c-0.6-0.6-1.4-0.9-2.4-0.9
				c-1.2,0-2.1,0.3-2.8,1s-1,1.7-1,3v6.2h-2.2v-16.9h2.2v6.5c0.5-0.6,1.1-1,1.8-1.3c0.7-0.3,1.6-0.5,2.5-0.5
				C82.4,285.9,83.7,286.3,84.6,287.2z" />
			<path class="st43" d="M98.2,287.1c0.9,0.8,1.3,2,1.3,3.7v7.3h-2.1v-1.6c-0.4,0.6-0.9,1-1.6,1.3c-0.7,0.3-1.5,0.4-2.4,0.4
				c-1.4,0-2.4-0.3-3.2-1c-0.8-0.7-1.2-1.5-1.2-2.6c0-1.1,0.4-1.9,1.2-2.6c0.8-0.6,2-1,3.7-1h3.5v-0.4c0-0.9-0.3-1.7-0.8-2.2
				c-0.5-0.5-1.4-0.8-2.4-0.8c-0.7,0-1.4,0.1-2.1,0.4c-0.7,0.2-1.3,0.6-1.7,0.9l-0.9-1.6c0.6-0.5,1.4-0.9,2.2-1.1
				c0.9-0.3,1.8-0.4,2.8-0.4C96,285.9,97.3,286.3,98.2,287.1z M96,296c0.6-0.4,1-0.9,1.3-1.6v-1.7H94c-1.9,0-2.8,0.6-2.8,1.9
				c0,0.6,0.2,1.1,0.7,1.4c0.5,0.3,1.1,0.5,2,0.5S95.4,296.3,96,296z" />
			<path class="st43" d="M114,286l-5.3,12.1h-2.2l-5.3-12.1h2.3l4.1,9.7l4.2-9.7H114z" />
			<path class="st43" d="M126.6,292.8h-9.8c0.1,1.1,0.6,1.9,1.4,2.6c0.8,0.6,1.8,1,3,1c1.4,0,2.6-0.5,3.5-1.5l1.2,1.4
				c-0.5,0.6-1.2,1.1-2,1.5c-0.8,0.3-1.7,0.5-2.7,0.5c-1.3,0-2.4-0.3-3.4-0.8s-1.7-1.3-2.3-2.2c-0.5-0.9-0.8-2-0.8-3.2
				c0-1.2,0.3-2.2,0.8-3.2c0.5-0.9,1.2-1.7,2.2-2.2c0.9-0.5,2-0.8,3.1-0.8s2.2,0.3,3.1,0.8c0.9,0.5,1.6,1.3,2.1,2.2
				c0.5,0.9,0.8,2,0.8,3.2C126.6,292.3,126.6,292.5,126.6,292.8z M118,288.7c-0.7,0.6-1.1,1.5-1.2,2.5h7.7c-0.1-1-0.5-1.8-1.2-2.5
				c-0.7-0.6-1.6-1-2.6-1C119.6,287.7,118.7,288.1,118,288.7z" />
			<path class="st43" d="M144,287.1c0.9,0.8,1.3,2,1.3,3.7v7.3h-2.1v-1.6c-0.4,0.6-0.9,1-1.6,1.3c-0.7,0.3-1.5,0.4-2.4,0.4
				c-1.4,0-2.4-0.3-3.2-1c-0.8-0.7-1.2-1.5-1.2-2.6c0-1.1,0.4-1.9,1.2-2.6c0.8-0.6,2-1,3.7-1h3.5v-0.4c0-0.9-0.3-1.7-0.8-2.2
				c-0.5-0.5-1.4-0.8-2.4-0.8c-0.7,0-1.4,0.1-2.1,0.4c-0.7,0.2-1.3,0.6-1.7,0.9l-0.9-1.6c0.6-0.5,1.4-0.9,2.2-1.1
				c0.9-0.3,1.8-0.4,2.8-0.4C141.8,285.9,143.1,286.3,144,287.1z M141.8,296c0.6-0.4,1-0.9,1.3-1.6v-1.7h-3.4c-1.9,0-2.8,0.6-2.8,1.9
				c0,0.6,0.2,1.1,0.7,1.4c0.5,0.3,1.1,0.5,2,0.5S141.2,296.3,141.8,296z" />
			<path class="st43" d="M159.5,287.2c0.9,0.9,1.4,2.2,1.4,3.9v6.9h-2.2v-6.7c0-1.2-0.3-2-0.8-2.6c-0.6-0.6-1.4-0.9-2.4-0.9
				c-1.2,0-2.1,0.3-2.8,1c-0.7,0.7-1,1.7-1,3v6.2h-2.2V286h2.1v1.8c0.4-0.6,1-1.1,1.8-1.4c0.8-0.3,1.6-0.5,2.6-0.5
				C157.4,285.9,158.6,286.3,159.5,287.2z" />
			<path class="st43" d="M25.2,311.1h4.2v18.3h-4.2V311.1z" />
			<path class="st43" d="M33.8,311.1h8.3c2,0,3.7,0.4,5.3,1.1c1.5,0.8,2.7,1.8,3.5,3.2c0.8,1.4,1.3,3,1.3,4.8s-0.4,3.4-1.3,4.8
				c-0.8,1.4-2,2.4-3.5,3.2c-1.5,0.8-3.3,1.1-5.3,1.1h-8.3V311.1z M41.8,325.9c1.8,0,3.3-0.5,4.4-1.5c1.1-1,1.6-2.4,1.6-4.1
				c0-1.7-0.5-3.1-1.6-4.1s-2.5-1.5-4.4-1.5H38v11.3H41.8z" />
			<path class="st43" d="M69.4,326v3.4H55.3v-18.3h13.8v3.4h-9.6v4H68v3.3h-8.5v4.2H69.4z" />
			<path class="st43" d="M84.8,325.5h-8.5l-1.6,3.9h-4.3l8.1-18.3h4.2l8.2,18.3h-4.4L84.8,325.5z M83.5,322.3l-2.9-7l-2.9,7H83.5z" />
			<path class="st43" d="M102.5,316.3v1h3.5v1.8h-3.5v10.3h-2.2v-10.3h-2v-1.8h2v-1.1c0-1.2,0.3-2.1,1-2.8c0.7-0.7,1.7-1,2.9-1
				c0.5,0,0.9,0.1,1.4,0.2s0.8,0.3,1.1,0.5l-0.7,1.7c-0.5-0.4-1.1-0.6-1.7-0.6C103.2,314.2,102.5,314.9,102.5,316.3z" />
			<path class="st43" d="M109.9,328.7c-1-0.5-1.7-1.3-2.2-2.2c-0.5-0.9-0.8-2-0.8-3.2s0.3-2.2,0.8-3.2c0.5-0.9,1.3-1.7,2.2-2.2
				c1-0.5,2-0.8,3.2-0.8c1.2,0,2.3,0.3,3.2,0.8c0.9,0.5,1.7,1.3,2.2,2.2c0.5,0.9,0.8,2,0.8,3.2s-0.3,2.2-0.8,3.2
				c-0.5,0.9-1.3,1.7-2.2,2.2c-0.9,0.5-2,0.8-3.2,0.8C111.9,329.5,110.8,329.3,109.9,328.7z M115.2,327.1c0.6-0.4,1.1-0.9,1.4-1.5
				c0.3-0.6,0.5-1.4,0.5-2.2s-0.2-1.6-0.5-2.2c-0.3-0.6-0.8-1.1-1.4-1.5c-0.6-0.3-1.3-0.5-2.1-0.5c-0.8,0-1.5,0.2-2.1,0.5
				c-0.6,0.3-1.1,0.8-1.5,1.5c-0.4,0.6-0.5,1.4-0.5,2.2s0.2,1.6,0.5,2.2c0.4,0.6,0.8,1.1,1.5,1.5c0.6,0.4,1.3,0.5,2.1,0.5
				C113.9,327.6,114.6,327.4,115.2,327.1z" />
			<path class="st43" d="M126.2,317.8c0.7-0.4,1.6-0.5,2.7-0.5v2.1c-0.1,0-0.3,0-0.5,0c-1.2,0-2.1,0.4-2.8,1.1c-0.7,0.7-1,1.7-1,3v6
				h-2.2v-12.1h2.1v2C124.9,318.6,125.4,318.1,126.2,317.8z" />
			<path class="st43" d="M25.7,351.9c-0.9-0.3-1.6-0.6-2.1-1l0.9-1.7c0.5,0.4,1.2,0.7,1.9,0.9c0.8,0.2,1.5,0.3,2.3,0.3
				c1.9,0,2.9-0.5,2.9-1.6c0-0.4-0.1-0.7-0.4-0.9c-0.3-0.2-0.6-0.4-1-0.5c-0.4-0.1-0.9-0.2-1.7-0.3c-1-0.2-1.8-0.3-2.4-0.5
				c-0.6-0.2-1.1-0.5-1.6-1c-0.4-0.5-0.7-1.1-0.7-2c0-1.1,0.5-2,1.4-2.6c0.9-0.7,2.1-1,3.7-1c0.8,0,1.6,0.1,2.4,0.3
				c0.8,0.2,1.5,0.5,2,0.8l-0.9,1.7c-1-0.6-2.1-1-3.5-1c-0.9,0-1.6,0.2-2.1,0.5s-0.7,0.7-0.7,1.2c0,0.4,0.1,0.7,0.4,0.9
				c0.3,0.2,0.6,0.4,1,0.5s1,0.2,1.7,0.4c1,0.2,1.8,0.3,2.4,0.5c0.6,0.2,1.1,0.5,1.5,1s0.6,1.1,0.6,1.9c0,1.1-0.5,2-1.4,2.6
				c-0.9,0.6-2.2,1-3.8,1C27.6,352.3,26.6,352.1,25.7,351.9z" />
			<path class="st43" d="M38.5,351.5c-1-0.5-1.7-1.3-2.2-2.2c-0.5-0.9-0.8-2-0.8-3.2s0.3-2.2,0.8-3.2c0.5-0.9,1.3-1.7,2.2-2.2
				c1-0.5,2-0.8,3.2-0.8c1.2,0,2.3,0.3,3.2,0.8c0.9,0.5,1.7,1.3,2.2,2.2c0.5,0.9,0.8,2,0.8,3.2s-0.3,2.2-0.8,3.2
				c-0.5,0.9-1.3,1.7-2.2,2.2c-0.9,0.5-2,0.8-3.2,0.8C40.5,352.3,39.4,352,38.5,351.5z M43.8,349.8c0.6-0.4,1.1-0.9,1.4-1.5
				c0.3-0.6,0.5-1.4,0.5-2.2s-0.2-1.6-0.5-2.2c-0.3-0.6-0.8-1.1-1.4-1.5c-0.6-0.3-1.3-0.5-2.1-0.5c-0.8,0-1.5,0.2-2.1,0.5
				c-0.6,0.3-1.1,0.8-1.5,1.5c-0.4,0.6-0.5,1.4-0.5,2.2s0.2,1.6,0.5,2.2c0.4,0.6,0.8,1.1,1.5,1.5c0.6,0.4,1.3,0.5,2.1,0.5
				C42.5,350.4,43.2,350.2,43.8,349.8z" />
			<path class="st43" d="M52.9,351.5c-1-0.5-1.7-1.3-2.3-2.2c-0.5-0.9-0.8-2-0.8-3.2s0.3-2.2,0.8-3.2c0.5-0.9,1.3-1.7,2.3-2.2
				c1-0.5,2.1-0.8,3.3-0.8c1.1,0,2.1,0.2,2.9,0.7c0.9,0.4,1.5,1.1,2,1.9l-1.7,1.1c-0.4-0.6-0.8-1-1.4-1.3c-0.6-0.3-1.2-0.4-1.9-0.4
				c-0.8,0-1.5,0.2-2.1,0.5c-0.6,0.3-1.1,0.8-1.5,1.5c-0.4,0.6-0.5,1.4-0.5,2.2c0,0.8,0.2,1.6,0.5,2.2c0.4,0.6,0.8,1.1,1.5,1.5
				c0.6,0.3,1.3,0.5,2.1,0.5c0.7,0,1.3-0.1,1.9-0.4s1-0.7,1.4-1.3l1.7,1c-0.5,0.8-1.1,1.5-2,1.9c-0.9,0.4-1.8,0.7-2.9,0.7
				C55,352.3,53.9,352,52.9,351.5z" />
			<path class="st43" d="M64,337.3c-0.3-0.3-0.4-0.6-0.4-1s0.1-0.7,0.4-1s0.6-0.4,1.1-0.4s0.8,0.1,1.1,0.4c0.3,0.3,0.4,0.6,0.4,1
				c0,0.4-0.1,0.8-0.4,1c-0.3,0.3-0.6,0.4-1.1,0.4S64.3,337.6,64,337.3z M64,340.1h2.2v12.1H64V340.1z" />
			<path class="st43" d="M78.5,341.2c0.9,0.8,1.3,2,1.3,3.7v7.3h-2.1v-1.6c-0.4,0.6-0.9,1-1.6,1.3c-0.7,0.3-1.5,0.4-2.4,0.4
				c-1.4,0-2.4-0.3-3.2-1c-0.8-0.7-1.2-1.5-1.2-2.6c0-1.1,0.4-1.9,1.2-2.6c0.8-0.6,2-1,3.7-1h3.5v-0.4c0-0.9-0.3-1.7-0.8-2.2
				c-0.5-0.5-1.4-0.8-2.4-0.8c-0.7,0-1.4,0.1-2.1,0.4c-0.7,0.2-1.3,0.6-1.7,0.9l-0.9-1.6c0.6-0.5,1.4-0.9,2.2-1.1
				c0.9-0.3,1.8-0.4,2.8-0.4C76.4,340,77.7,340.4,78.5,341.2z M76.4,350c0.6-0.4,1-0.9,1.3-1.6v-1.7h-3.4c-1.9,0-2.8,0.6-2.8,1.9
				c0,0.6,0.2,1.1,0.7,1.4c0.5,0.3,1.1,0.5,2,0.5S75.8,350.4,76.4,350z" />
			<path class="st43" d="M83.9,335.2h2.2v16.9h-2.2V335.2z" />
			<path class="st43" d="M96.4,337.3c-0.3-0.3-0.4-0.6-0.4-1s0.1-0.7,0.4-1s0.6-0.4,1.1-0.4s0.8,0.1,1.1,0.4c0.3,0.3,0.4,0.6,0.4,1
				c0,0.4-0.1,0.8-0.4,1c-0.3,0.3-0.6,0.4-1.1,0.4S96.7,337.6,96.4,337.3z M96.4,340.1h2.2v12.1h-2.2V340.1z" />
			<path class="st43" d="M121.5,341.3c0.9,0.9,1.3,2.2,1.3,3.9v6.9h-2.2v-6.7c0-1.2-0.3-2-0.8-2.6c-0.5-0.6-1.3-0.9-2.3-0.9
				c-1.1,0-2,0.3-2.6,1c-0.7,0.7-1,1.7-1,3v6.2h-2.2v-6.7c0-1.2-0.3-2-0.8-2.6c-0.5-0.6-1.3-0.9-2.3-0.9c-1.1,0-2,0.3-2.6,1
				s-1,1.7-1,3v6.2h-2.2v-12.1h2.1v1.8c0.4-0.6,1-1.1,1.7-1.4c0.7-0.3,1.5-0.5,2.4-0.5c0.9,0,1.8,0.2,2.5,0.6
				c0.7,0.4,1.3,0.9,1.7,1.7c0.5-0.7,1.1-1.2,1.9-1.6c0.8-0.4,1.7-0.6,2.7-0.6C119.4,340,120.6,340.4,121.5,341.3z" />
			<path class="st43" d="M136.4,340.7c0.9,0.5,1.7,1.2,2.2,2.2c0.5,0.9,0.8,2,0.8,3.2s-0.3,2.3-0.8,3.2c-0.5,0.9-1.2,1.7-2.2,2.2
				c-0.9,0.5-2,0.8-3.1,0.8c-0.9,0-1.7-0.2-2.4-0.5s-1.3-0.8-1.8-1.5v6.2h-2.2v-16.5h2.1v1.9c0.5-0.7,1.1-1.2,1.8-1.5
				c0.7-0.3,1.6-0.5,2.5-0.5C134.4,340,135.4,340.2,136.4,340.7z M135.1,349.8c0.6-0.4,1.1-0.9,1.5-1.5c0.4-0.6,0.5-1.4,0.5-2.2
				s-0.2-1.6-0.5-2.2c-0.4-0.6-0.8-1.1-1.5-1.5c-0.6-0.3-1.3-0.5-2.1-0.5c-0.8,0-1.4,0.2-2.1,0.5c-0.6,0.4-1.1,0.9-1.5,1.5
				s-0.5,1.4-0.5,2.2s0.2,1.6,0.5,2.2c0.3,0.6,0.8,1.1,1.5,1.5c0.6,0.4,1.3,0.5,2.1,0.5C133.8,350.4,134.5,350.2,135.1,349.8z" />
			<path class="st43" d="M150.5,341.2c0.9,0.8,1.3,2,1.3,3.7v7.3h-2.1v-1.6c-0.4,0.6-0.9,1-1.6,1.3c-0.7,0.3-1.5,0.4-2.4,0.4
				c-1.4,0-2.4-0.3-3.2-1c-0.8-0.7-1.2-1.5-1.2-2.6c0-1.1,0.4-1.9,1.2-2.6c0.8-0.6,2-1,3.7-1h3.5v-0.4c0-0.9-0.3-1.7-0.8-2.2
				c-0.5-0.5-1.4-0.8-2.4-0.8c-0.7,0-1.4,0.1-2.1,0.4c-0.7,0.2-1.3,0.6-1.7,0.9l-0.9-1.6c0.6-0.5,1.4-0.9,2.2-1.1
				c0.9-0.3,1.8-0.4,2.8-0.4C148.3,340,149.6,340.4,150.5,341.2z M148.3,350c0.6-0.4,1-0.9,1.3-1.6v-1.7h-3.4c-1.9,0-2.8,0.6-2.8,1.9
				c0,0.6,0.2,1.1,0.7,1.4c0.5,0.3,1.1,0.5,2,0.5S147.7,350.4,148.3,350z" />
			<path class="st43" d="M157.9,351.5c-1-0.5-1.7-1.3-2.3-2.2c-0.5-0.9-0.8-2-0.8-3.2s0.3-2.2,0.8-3.2c0.5-0.9,1.3-1.7,2.3-2.2
				c1-0.5,2.1-0.8,3.3-0.8c1.1,0,2.1,0.2,2.9,0.7c0.9,0.4,1.5,1.1,2,1.9l-1.7,1.1c-0.4-0.6-0.8-1-1.4-1.3c-0.6-0.3-1.2-0.4-1.9-0.4
				c-0.8,0-1.5,0.2-2.1,0.5c-0.6,0.3-1.1,0.8-1.5,1.5c-0.4,0.6-0.5,1.4-0.5,2.2c0,0.8,0.2,1.6,0.5,2.2c0.4,0.6,0.8,1.1,1.5,1.5
				c0.6,0.3,1.3,0.5,2.1,0.5c0.7,0,1.3-0.1,1.9-0.4s1-0.7,1.4-1.3l1.7,1c-0.5,0.8-1.1,1.5-2,1.9c-0.9,0.4-1.8,0.7-2.9,0.7
				C159.9,352.3,158.8,352,157.9,351.5z" />
			<path class="st43" d="M175.8,351.4c-0.3,0.3-0.7,0.5-1.2,0.6c-0.5,0.1-1,0.2-1.5,0.2c-1.2,0-2.2-0.3-2.8-1s-1-1.6-1-2.8v-6.6h-2
				v-1.8h2v-2.6h2.2v2.6h3.5v1.8h-3.5v6.5c0,0.7,0.2,1.2,0.5,1.5c0.3,0.3,0.8,0.5,1.4,0.5c0.7,0,1.2-0.2,1.7-0.6L175.8,351.4z" />
		</g>
	</g>
	<g>
		<path class="st43" d="M220.2,559.1h-8.5l-1.6,3.9h-4.3l8.1-18.3h4.2l8.2,18.3h-4.4L220.2,559.1z M218.9,555.9l-2.9-7l-2.9,7H218.9z
			" />
		<path class="st43" d="M240.3,545.6c1.2,0.5,2.1,1.3,2.8,2.3c0.6,1,1,2.2,1,3.5c0,1.3-0.3,2.5-1,3.5c-0.6,1-1.6,1.8-2.8,2.3
			c-1.2,0.5-2.6,0.8-4.2,0.8h-3.7v5h-4.2v-18.3h7.9C237.7,544.8,239.1,545.1,240.3,545.6z M238.8,553.7c0.7-0.5,1-1.3,1-2.3
			c0-1-0.3-1.8-1-2.4c-0.7-0.5-1.6-0.8-2.9-0.8h-3.4v6.3h3.4C237.1,554.6,238.1,554.3,238.8,553.7z" />
		<path class="st43" d="M259.2,545.6c1.2,0.5,2.1,1.3,2.8,2.3c0.6,1,1,2.2,1,3.5c0,1.3-0.3,2.5-1,3.5c-0.6,1-1.6,1.8-2.8,2.3
			c-1.2,0.5-2.6,0.8-4.2,0.8h-3.7v5H247v-18.3h7.9C256.6,544.8,258,545.1,259.2,545.6z M257.6,553.7c0.7-0.5,1-1.3,1-2.3
			c0-1-0.3-1.8-1-2.4s-1.6-0.8-2.9-0.8h-3.4v6.3h3.4C256,554.6,256.9,554.3,257.6,553.7z" />
		<path class="st43" d="M277.5,563L274,558h-0.2h-3.7v5.1h-4.2v-18.3h7.9c1.6,0,3,0.3,4.2,0.8c1.2,0.5,2.1,1.3,2.8,2.3
			c0.6,1,1,2.2,1,3.5s-0.3,2.5-1,3.5c-0.7,1-1.6,1.7-2.8,2.3l4.1,5.9H277.5z M276.4,549.1c-0.7-0.5-1.6-0.8-2.9-0.8h-3.4v6.4h3.4
			c1.3,0,2.2-0.3,2.9-0.8s1-1.3,1-2.3C277.4,550.4,277.1,549.6,276.4,549.1z" />
		<path class="st43" d="M288.8,562.1c-1.5-0.8-2.7-1.9-3.6-3.4c-0.9-1.4-1.3-3-1.3-4.8c0-1.8,0.4-3.4,1.3-4.8
			c0.9-1.4,2.1-2.6,3.6-3.4c1.5-0.8,3.2-1.2,5.1-1.2s3.6,0.4,5.1,1.2c1.5,0.8,2.7,1.9,3.6,3.4c0.9,1.4,1.3,3,1.3,4.8
			c0,1.8-0.4,3.4-1.3,4.8c-0.9,1.4-2.1,2.6-3.6,3.4c-1.5,0.8-3.2,1.2-5.1,1.2S290.3,563,288.8,562.1z M296.8,559
			c0.9-0.5,1.6-1.2,2-2.1c0.5-0.9,0.7-1.9,0.7-3c0-1.1-0.2-2.1-0.7-3c-0.5-0.9-1.2-1.6-2-2.1c-0.9-0.5-1.8-0.7-2.9-0.7
			s-2.1,0.2-2.9,0.7c-0.9,0.5-1.6,1.2-2,2.1c-0.5,0.9-0.7,1.9-0.7,3c0,1.1,0.2,2.1,0.7,3c0.5,0.9,1.2,1.6,2,2.1
			c0.9,0.5,1.8,0.7,2.9,0.7S295.9,559.5,296.8,559z" />
		<path class="st43" d="M324,544.8l-7.9,18.3h-4.2l-7.9-18.3h4.6l5.6,13l5.6-13H324z" />
		<path class="st43" d="M337,559.1h-8.5l-1.6,3.9h-4.3l8.1-18.3h4.2L343,563h-4.4L337,559.1z M335.6,555.9l-2.9-7l-2.9,7H335.6z" />
		<path class="st43" d="M344.9,544.8h4.2v14.8h9.2v3.4h-13.4V544.8z" />
	</g>
	<g>
		<path class="st43" d="M166.8,747.1c-1.3-0.4-2.4-0.9-3.2-1.5l1.4-3.2c0.8,0.6,1.7,1,2.8,1.4c1.1,0.3,2.2,0.5,3.2,0.5
			c1.2,0,2.1-0.2,2.7-0.5c0.6-0.4,0.9-0.8,0.9-1.4c0-0.4-0.2-0.8-0.5-1.1c-0.3-0.3-0.8-0.5-1.3-0.7c-0.5-0.2-1.2-0.4-2.2-0.6
			c-1.4-0.3-2.5-0.7-3.4-1c-0.9-0.3-1.6-0.9-2.3-1.6s-1-1.7-1-2.9c0-1.1,0.3-2,0.9-2.9c0.6-0.9,1.4-1.5,2.6-2
			c1.2-0.5,2.6-0.8,4.2-0.8c1.2,0,2.3,0.1,3.4,0.4c1.1,0.3,2.1,0.7,2.9,1.2l-1.3,3.2c-1.7-1-3.4-1.4-5.1-1.4c-1.2,0-2.1,0.2-2.6,0.6
			c-0.6,0.4-0.8,0.9-0.8,1.5s0.3,1.1,1,1.4c0.7,0.3,1.6,0.6,3,0.9c1.4,0.3,2.5,0.7,3.4,1c0.9,0.3,1.6,0.9,2.3,1.6s1,1.7,1,2.9
			c0,1-0.3,2-0.9,2.9c-0.6,0.9-1.5,1.5-2.6,2c-1.2,0.5-2.6,0.8-4.3,0.8C169.6,747.7,168.2,747.5,166.8,747.1z" />
		<path class="st43" d="M185.2,732.5h-5.8v-3.4h15.9v3.4h-5.8v14.8h-4.2V732.5z" />
		<path class="st43" d="M208.6,743.5h-8.5l-1.6,3.9h-4.3l8.1-18.3h4.2l8.2,18.3h-4.4L208.6,743.5z M207.3,740.2l-2.9-7l-2.9,7H207.3z
			" />
		<path class="st43" d="M228.2,747.4l-3.5-5.1h-0.2h-3.7v5.1h-4.2v-18.3h7.9c1.6,0,3,0.3,4.2,0.8c1.2,0.5,2.1,1.3,2.8,2.3
			c0.6,1,1,2.2,1,3.5s-0.3,2.5-1,3.5c-0.7,1-1.6,1.7-2.8,2.3l4.1,5.9H228.2z M227.2,733.4c-0.7-0.5-1.6-0.8-2.9-0.8h-3.4v6.4h3.4
			c1.3,0,2.2-0.3,2.9-0.8s1-1.3,1-2.3C228.2,734.7,227.8,733.9,227.2,733.4z" />
		<path class="st43" d="M239.3,732.5h-5.8v-3.4h15.9v3.4h-5.8v14.8h-4.2V732.5z" />
	</g>
	<g>
		<path class="st43" d="M807.4,401c-1.3-0.7-2.3-1.7-3.1-3c-0.7-1.3-1.1-2.7-1.1-4.2c0-1.6,0.4-3,1.1-4.2c0.7-1.3,1.8-2.2,3.1-3
			s2.8-1.1,4.4-1.1c1.3,0,2.4,0.2,3.5,0.6c1,0.4,1.9,1.1,2.7,1.9l-1.5,1.5c-1.2-1.3-2.7-1.9-4.6-1.9c-1.2,0-2.3,0.3-3.3,0.8
			c-1,0.5-1.7,1.3-2.3,2.2c-0.5,0.9-0.8,2-0.8,3.2c0,1.2,0.3,2.2,0.8,3.2c0.5,0.9,1.3,1.7,2.3,2.2c1,0.5,2.1,0.8,3.3,0.8
			c1.8,0,3.3-0.6,4.6-1.9l1.5,1.5c-0.7,0.8-1.6,1.5-2.7,1.9c-1.1,0.4-2.2,0.6-3.5,0.6C810.2,402,808.7,401.7,807.4,401z" />
		<path class="st43" d="M829.2,390.7c0.9,0.8,1.4,2.1,1.4,3.7v7.4h-2.1v-1.6c-0.4,0.6-0.9,1-1.6,1.3c-0.7,0.3-1.5,0.5-2.4,0.5
			c-1.4,0-2.5-0.3-3.3-1c-0.8-0.7-1.2-1.5-1.2-2.6c0-1.1,0.4-1.9,1.2-2.6c0.8-0.7,2-1,3.7-1h3.5v-0.4c0-1-0.3-1.7-0.8-2.2
			c-0.6-0.5-1.4-0.8-2.5-0.8c-0.7,0-1.4,0.1-2.1,0.4c-0.7,0.2-1.3,0.6-1.8,1l-0.9-1.7c0.6-0.5,1.4-0.9,2.3-1.2
			c0.9-0.3,1.8-0.4,2.8-0.4C827,389.5,828.3,389.9,829.2,390.7z M827,399.7c0.6-0.4,1.1-0.9,1.3-1.6v-1.7h-3.4
			c-1.9,0-2.8,0.6-2.8,1.9c0,0.6,0.2,1.1,0.7,1.5s1.1,0.5,2,0.5C825.6,400.3,826.3,400.1,827,399.7z" />
		<path class="st43" d="M853.6,390.8c0.9,0.9,1.4,2.2,1.4,4v7h-2.2v-6.8c0-1.2-0.3-2.1-0.8-2.7c-0.5-0.6-1.3-0.9-2.3-0.9
			c-1.1,0-2,0.4-2.7,1.1c-0.7,0.7-1,1.7-1,3v6.3h-2.2v-6.8c0-1.2-0.3-2.1-0.8-2.7c-0.5-0.6-1.3-0.9-2.3-0.9c-1.1,0-2,0.4-2.7,1.1
			c-0.7,0.7-1,1.7-1,3v6.3h-2.2v-12.3h2.1v1.8c0.4-0.6,1-1.1,1.8-1.4c0.7-0.3,1.5-0.5,2.5-0.5c1,0,1.8,0.2,2.5,0.6
			c0.7,0.4,1.3,0.9,1.7,1.7c0.5-0.7,1.1-1.3,1.9-1.7c0.8-0.4,1.8-0.6,2.8-0.6C851.5,389.5,852.7,389.9,853.6,390.8z" />
		<path class="st43" d="M868.7,390.3c0.9,0.5,1.7,1.3,2.2,2.2c0.5,0.9,0.8,2,0.8,3.3c0,1.2-0.3,2.3-0.8,3.3c-0.5,0.9-1.3,1.7-2.2,2.2
			c-0.9,0.5-2,0.8-3.2,0.8c-0.9,0-1.7-0.2-2.4-0.5c-0.7-0.3-1.4-0.8-1.9-1.5v6.3h-2.2v-16.7h2.1v1.9c0.5-0.7,1.1-1.2,1.9-1.5
			c0.8-0.3,1.6-0.5,2.5-0.5C866.7,389.5,867.8,389.8,868.7,390.3z M867.5,399.5c0.6-0.4,1.1-0.9,1.5-1.5s0.5-1.4,0.5-2.3
			c0-0.8-0.2-1.6-0.5-2.3c-0.4-0.7-0.9-1.2-1.5-1.5c-0.6-0.4-1.3-0.5-2.1-0.5c-0.8,0-1.5,0.2-2.1,0.5c-0.6,0.4-1.1,0.9-1.5,1.5
			c-0.4,0.6-0.5,1.4-0.5,2.2c0,0.8,0.2,1.6,0.5,2.3s0.8,1.2,1.5,1.5s1.3,0.5,2.1,0.5C866.2,400.1,866.9,399.9,867.5,399.5z" />
		<path class="st43" d="M883.1,390.7c0.9,0.8,1.4,2.1,1.4,3.7v7.4h-2.1v-1.6c-0.4,0.6-0.9,1-1.6,1.3c-0.7,0.3-1.5,0.5-2.4,0.5
			c-1.4,0-2.5-0.3-3.3-1c-0.8-0.7-1.2-1.5-1.2-2.6c0-1.1,0.4-1.9,1.2-2.6c0.8-0.7,2-1,3.7-1h3.5v-0.4c0-1-0.3-1.7-0.8-2.2
			c-0.6-0.5-1.4-0.8-2.5-0.8c-0.7,0-1.4,0.1-2.1,0.4c-0.7,0.2-1.3,0.6-1.8,1l-0.9-1.7c0.6-0.5,1.4-0.9,2.3-1.2
			c0.9-0.3,1.8-0.4,2.8-0.4C880.9,389.5,882.2,389.9,883.1,390.7z M880.9,399.7c0.6-0.4,1.1-0.9,1.3-1.6v-1.7h-3.4
			c-1.9,0-2.8,0.6-2.8,1.9c0,0.6,0.2,1.1,0.7,1.5s1.1,0.5,2,0.5C879.5,400.3,880.2,400.1,880.9,399.7z" />
		<path class="st43" d="M888.6,386.8c-0.3-0.3-0.4-0.6-0.4-1s0.1-0.7,0.4-1s0.6-0.4,1.1-0.4c0.4,0,0.8,0.1,1.1,0.4s0.4,0.6,0.4,1
			c0,0.4-0.1,0.8-0.4,1.1c-0.3,0.3-0.6,0.4-1.1,0.4C889.2,387.3,888.9,387.1,888.6,386.8z M888.5,389.6h2.2v12.3h-2.2V389.6z" />
		<path class="st43" d="M906.7,389.6v10.6c0,2.1-0.5,3.7-1.6,4.8c-1.1,1-2.7,1.5-4.8,1.5c-1.2,0-2.3-0.2-3.3-0.5s-1.9-0.8-2.5-1.4
			l1.1-1.7c0.6,0.5,1.3,0.9,2.1,1.2c0.8,0.3,1.7,0.4,2.6,0.4c1.4,0,2.5-0.3,3.2-1s1-1.7,1-3.1v-1c-0.5,0.6-1.2,1.1-1.9,1.4
			c-0.8,0.3-1.6,0.5-2.5,0.5c-1.2,0-2.2-0.3-3.2-0.8c-0.9-0.5-1.7-1.2-2.2-2.1s-0.8-1.9-0.8-3.1c0-1.2,0.3-2.2,0.8-3.1
			s1.3-1.6,2.2-2.1c0.9-0.5,2-0.7,3.2-0.7c0.9,0,1.8,0.2,2.6,0.5c0.8,0.3,1.4,0.8,2,1.5v-1.9H906.7z M902.5,398.9
			c0.6-0.3,1.1-0.8,1.5-1.4c0.4-0.6,0.5-1.3,0.5-2.1c0-1.2-0.4-2.1-1.2-2.9c-0.8-0.7-1.8-1.1-3-1.1c-1.2,0-2.3,0.4-3.1,1.1
			c-0.8,0.7-1.2,1.7-1.2,2.9c0,0.8,0.2,1.5,0.5,2.1c0.4,0.6,0.9,1.1,1.5,1.4s1.4,0.5,2.2,0.5C901.1,399.4,901.8,399.2,902.5,398.9z" />
		<path class="st43" d="M921.2,390.8c0.9,0.9,1.4,2.2,1.4,4v7h-2.2v-6.8c0-1.2-0.3-2.1-0.9-2.7c-0.6-0.6-1.4-0.9-2.5-0.9
			c-1.2,0-2.1,0.4-2.8,1.1s-1,1.7-1,3v6.3h-2.2v-12.3h2.1v1.8c0.4-0.6,1.1-1.1,1.8-1.5s1.6-0.5,2.6-0.5
			C919,389.5,920.3,389.9,921.2,390.8z" />
		<path class="st43" d="M944.5,387.2c1.2,1,1.8,2.4,1.8,4.1c0,1.8-0.6,3.1-1.8,4.1c-1.2,1-2.9,1.5-4.9,1.5h-4v4.9h-2.3v-16.2h6.3
			C941.6,385.7,943.3,386.2,944.5,387.2z M942.8,394c0.8-0.6,1.2-1.5,1.2-2.7s-0.4-2.1-1.2-2.7s-1.9-0.9-3.4-0.9h-3.9v7.3h3.9
			C940.9,394.9,942,394.6,942.8,394z" />
		<path class="st43" d="M949.6,384.7h2.2v17.1h-2.2V384.7z" />
		<path class="st43" d="M964.4,390.7c0.9,0.8,1.4,2.1,1.4,3.7v7.4h-2.1v-1.6c-0.4,0.6-0.9,1-1.6,1.3c-0.7,0.3-1.5,0.5-2.4,0.5
			c-1.4,0-2.5-0.3-3.3-1c-0.8-0.7-1.2-1.5-1.2-2.6c0-1.1,0.4-1.9,1.2-2.6c0.8-0.7,2-1,3.7-1h3.5v-0.4c0-1-0.3-1.7-0.8-2.2
			c-0.6-0.5-1.4-0.8-2.5-0.8c-0.7,0-1.4,0.1-2.1,0.4c-0.7,0.2-1.3,0.6-1.8,1l-0.9-1.7c0.6-0.5,1.4-0.9,2.3-1.2
			c0.9-0.3,1.8-0.4,2.8-0.4C962.2,389.5,963.5,389.9,964.4,390.7z M962.2,399.7c0.6-0.4,1.1-0.9,1.3-1.6v-1.7h-3.4
			c-1.9,0-2.8,0.6-2.8,1.9c0,0.6,0.2,1.1,0.7,1.5s1.1,0.5,2,0.5C960.8,400.3,961.6,400.1,962.2,399.7z" />
		<path class="st43" d="M976.7,401.1c-0.3,0.3-0.7,0.5-1.2,0.6s-1,0.2-1.5,0.2c-1.2,0-2.2-0.3-2.9-1c-0.7-0.7-1-1.6-1-2.8v-6.7h-2.1
			v-1.8h2.1v-2.7h2.2v2.7h3.5v1.8h-3.5v6.6c0,0.7,0.2,1.2,0.5,1.5c0.3,0.4,0.8,0.5,1.4,0.5c0.7,0,1.3-0.2,1.7-0.6L976.7,401.1z" />
		<path class="st43" d="M981.9,388.5v1.1h3.6v1.8H982v10.4h-2.2v-10.4h-2.1v-1.8h2.1v-1.1c0-1.2,0.4-2.2,1.1-2.9
			c0.7-0.7,1.7-1.1,3-1.1c0.5,0,1,0.1,1.4,0.2c0.4,0.1,0.8,0.3,1.1,0.5l-0.7,1.7c-0.5-0.4-1.1-0.6-1.7-0.6
			C982.6,386.4,981.9,387.1,981.9,388.5z" />
		<path class="st43" d="M993.3,390c0.8-0.4,1.7-0.6,2.8-0.6v2.1c-0.1,0-0.3,0-0.5,0c-1.2,0-2.1,0.4-2.8,1.1s-1,1.7-1,3.1v6.1h-2.2
			v-12.3h2.1v2.1C991.9,391,992.5,390.4,993.3,390z" />
		<path class="st43" d="M1000.6,401.2c-1-0.5-1.7-1.3-2.3-2.2c-0.5-0.9-0.8-2-0.8-3.2s0.3-2.3,0.8-3.2c0.5-0.9,1.3-1.7,2.3-2.2
			c1-0.5,2.1-0.8,3.3-0.8s2.3,0.3,3.3,0.8c1,0.5,1.7,1.3,2.3,2.2c0.5,0.9,0.8,2,0.8,3.2s-0.3,2.3-0.8,3.2c-0.5,0.9-1.3,1.7-2.3,2.2
			s-2.1,0.8-3.3,0.8S1001.6,401.7,1000.6,401.2z M1006,399.5c0.6-0.4,1.1-0.9,1.5-1.5c0.4-0.7,0.5-1.4,0.5-2.3c0-0.8-0.2-1.6-0.5-2.3
			c-0.4-0.7-0.8-1.2-1.5-1.5c-0.6-0.4-1.3-0.5-2.1-0.5c-0.8,0-1.5,0.2-2.1,0.5c-0.6,0.4-1.1,0.9-1.5,1.5c-0.4,0.7-0.5,1.4-0.5,2.3
			c0,0.8,0.2,1.6,0.5,2.3c0.4,0.7,0.9,1.2,1.5,1.5s1.3,0.5,2.1,0.5C1004.6,400.1,1005.4,399.9,1006,399.5z" />
		<path class="st43" d="M1032.3,390.8c0.9,0.9,1.4,2.2,1.4,4v7h-2.2v-6.8c0-1.2-0.3-2.1-0.8-2.7c-0.5-0.6-1.3-0.9-2.3-0.9
			c-1.1,0-2,0.4-2.7,1.1c-0.7,0.7-1,1.7-1,3v6.3h-2.2v-6.8c0-1.2-0.3-2.1-0.8-2.7c-0.5-0.6-1.3-0.9-2.3-0.9c-1.1,0-2,0.4-2.7,1.1
			c-0.7,0.7-1,1.7-1,3v6.3h-2.2v-12.3h2.1v1.8c0.4-0.6,1-1.1,1.8-1.4c0.7-0.3,1.5-0.5,2.5-0.5c1,0,1.8,0.2,2.5,0.6
			c0.7,0.4,1.3,0.9,1.7,1.7c0.5-0.7,1.1-1.3,1.9-1.7c0.8-0.4,1.8-0.6,2.8-0.6C1030.2,389.5,1031.4,389.9,1032.3,390.8z" />
	</g>
	<g>
		<path class="st43" d="M854,415.2l-7.8,18.1H842l-7.8-18.1h4.5l5.5,12.9l5.6-12.9H854z" />
		<path class="st43" d="M866.8,429.4h-8.4l-1.6,3.9h-4.3l8.1-18.1h4.1l8.1,18.1h-4.4L866.8,429.4z M865.5,426.3l-2.9-6.9l-2.9,6.9
			H865.5z" />
		<path class="st43" d="M874.7,415.2h4.2v14.7h9.1v3.4h-13.2V415.2z" />
		<path class="st43" d="M890.2,415.2h4.2v18.1h-4.2V415.2z" />
		<path class="st43" d="M898.7,415.2h8.2c2,0,3.7,0.4,5.2,1.1c1.5,0.7,2.7,1.8,3.5,3.2c0.8,1.4,1.3,2.9,1.3,4.7s-0.4,3.4-1.3,4.7
			c-0.8,1.4-2,2.4-3.5,3.2c-1.5,0.7-3.2,1.1-5.2,1.1h-8.2V415.2z M906.7,429.9c1.8,0,3.2-0.5,4.3-1.5c1.1-1,1.6-2.4,1.6-4.1
			c0-1.7-0.5-3.1-1.6-4.1c-1.1-1-2.5-1.5-4.3-1.5h-3.8v11.2H906.7z" />
		<path class="st43" d="M931.7,429.4h-8.4l-1.6,3.9h-4.3l8.1-18.1h4.1l8.1,18.1h-4.4L931.7,429.4z M930.3,426.3l-2.9-6.9l-2.9,6.9
			H930.3z" />
		<path class="st43" d="M942.4,418.7h-5.8v-3.4h15.7v3.4h-5.8v14.7h-4.2V418.7z" />
		<path class="st43" d="M954.6,415.2h4.2v18.1h-4.2V415.2z" />
		<path class="st43" d="M966.7,432.4c-1.5-0.8-2.7-1.9-3.5-3.3s-1.3-3-1.3-4.8c0-1.8,0.4-3.4,1.3-4.8c0.9-1.4,2-2.5,3.5-3.3
			c1.5-0.8,3.2-1.2,5.1-1.2c1.9,0,3.6,0.4,5.1,1.2s2.7,1.9,3.5,3.3c0.9,1.4,1.3,3,1.3,4.8c0,1.8-0.4,3.4-1.3,4.8s-2,2.5-3.5,3.3
			s-3.2,1.2-5.1,1.2C969.9,433.6,968.2,433.2,966.7,432.4z M974.7,429.3c0.9-0.5,1.5-1.2,2-2.1c0.5-0.9,0.7-1.9,0.7-3s-0.2-2.1-0.7-3
			c-0.5-0.9-1.2-1.6-2-2.1s-1.8-0.7-2.9-0.7c-1.1,0-2,0.2-2.9,0.7s-1.5,1.2-2,2.1c-0.5,0.9-0.7,1.9-0.7,3s0.2,2.1,0.7,3
			c0.5,0.9,1.2,1.6,2,2.1s1.8,0.7,2.9,0.7C972.9,430.1,973.8,429.8,974.7,429.3z" />
		<path class="st43" d="M1001.4,415.2v18.1H998l-9-11v11h-4.1v-18.1h3.5l9,11v-11H1001.4z" />
	</g>
	<g>
		<path class="st43" d="M654.7,635.5v6h8.6v2.1h-8.6v7h-2.5v-17.2h12.2v2.1H654.7z" />
		<path class="st43" d="M679.3,637.6v13H677v-2c-0.5,0.7-1.1,1.2-1.9,1.6s-1.6,0.6-2.5,0.6c-1.7,0-3.1-0.5-4.1-1.4
			c-1-1-1.5-2.4-1.5-4.2v-7.5h2.4v7.2c0,1.3,0.3,2.2,0.9,2.9c0.6,0.6,1.5,1,2.6,1c1.2,0,2.2-0.4,3-1.1c0.7-0.8,1.1-1.8,1.1-3.2v-6.7
			H679.3z" />
		<path class="st43" d="M694.7,638.9c1,1,1.5,2.4,1.5,4.2v7.5h-2.4v-7.2c0-1.3-0.3-2.2-0.9-2.9s-1.5-1-2.6-1c-1.3,0-2.3,0.4-3,1.1
			c-0.7,0.7-1.1,1.8-1.1,3.2v6.7h-2.4v-13h2.3v2c0.5-0.7,1.1-1.2,1.9-1.5c0.8-0.4,1.7-0.5,2.8-0.5
			C692.4,637.4,693.7,637.9,694.7,638.9z" />
		<path class="st43" d="M712.9,632.4v18.3h-2.3v-2.1c-0.5,0.7-1.2,1.3-2,1.6s-1.7,0.6-2.7,0.6c-1.3,0-2.4-0.3-3.4-0.8
			c-1-0.6-1.8-1.3-2.3-2.3c-0.6-1-0.8-2.2-0.8-3.5s0.3-2.5,0.8-3.5c0.6-1,1.3-1.8,2.3-2.3c1-0.6,2.1-0.8,3.4-0.8
			c0.9,0,1.8,0.2,2.6,0.5c0.8,0.4,1.4,0.9,2,1.6v-7.2H712.9z M708.4,648.1c0.7-0.4,1.2-0.9,1.6-1.6c0.4-0.7,0.6-1.5,0.6-2.4
			s-0.2-1.7-0.6-2.4c-0.4-0.7-0.9-1.2-1.6-1.6c-0.7-0.4-1.4-0.6-2.2-0.6c-0.8,0-1.6,0.2-2.3,0.6c-0.7,0.4-1.2,0.9-1.6,1.6
			c-0.4,0.7-0.6,1.5-0.6,2.4s0.2,1.7,0.6,2.4c0.4,0.7,0.9,1.2,1.6,1.6c0.7,0.4,1.4,0.6,2.3,0.6C707,648.7,707.8,648.5,708.4,648.1z" />
		<path class="st43" d="M721.5,638c0.8-0.4,1.8-0.6,2.9-0.6v2.3c-0.1,0-0.3,0-0.5,0c-1.3,0-2.3,0.4-3,1.1s-1.1,1.8-1.1,3.3v6.5h-2.4
			v-13h2.3v2.2C720.1,639,720.7,638.4,721.5,638z" />
		<path class="st43" d="M736.2,638.8c1,0.9,1.4,2.2,1.4,4v7.9h-2.2v-1.7c-0.4,0.6-1,1.1-1.7,1.4c-0.7,0.3-1.6,0.5-2.6,0.5
			c-1.5,0-2.6-0.4-3.5-1.1c-0.9-0.7-1.3-1.6-1.3-2.8s0.4-2.1,1.3-2.8c0.8-0.7,2.2-1,4-1h3.7v-0.5c0-1-0.3-1.8-0.9-2.3
			c-0.6-0.5-1.5-0.8-2.6-0.8c-0.8,0-1.5,0.1-2.3,0.4c-0.7,0.3-1.4,0.6-1.9,1l-1-1.8c0.7-0.5,1.5-1,2.4-1.2c0.9-0.3,1.9-0.4,3-0.4
			C733.8,637.4,735.2,637.9,736.2,638.8z M733.8,648.3c0.7-0.4,1.1-1,1.4-1.7v-1.8h-3.6c-2,0-3,0.7-3,2c0,0.7,0.3,1.2,0.8,1.5
			c0.5,0.4,1.2,0.6,2.1,0.6C732.4,648.9,733.2,648.7,733.8,648.3z" />
		<path class="st43" d="M742,634.6c-0.3-0.3-0.5-0.7-0.5-1.1s0.2-0.8,0.5-1.1c0.3-0.3,0.7-0.5,1.1-0.5s0.8,0.1,1.1,0.4
			c0.3,0.3,0.5,0.6,0.5,1.1c0,0.4-0.2,0.8-0.5,1.1c-0.3,0.3-0.7,0.5-1.1,0.5S742.3,634.9,742,634.6z M742,637.6h2.4v13H742V637.6z" />
		<path class="st43" d="M749.5,650.3c-1-0.3-1.8-0.7-2.3-1.1l1-1.9c0.6,0.4,1.3,0.7,2.1,1s1.6,0.4,2.5,0.4c2.1,0,3.1-0.6,3.1-1.8
			c0-0.4-0.1-0.7-0.4-0.9c-0.3-0.2-0.6-0.4-1-0.5c-0.4-0.1-1-0.2-1.8-0.4c-1-0.2-1.9-0.4-2.6-0.6c-0.7-0.2-1.2-0.6-1.7-1.1
			c-0.5-0.5-0.7-1.2-0.7-2.1c0-1.2,0.5-2.1,1.5-2.8c1-0.7,2.3-1.1,4-1.1c0.9,0,1.7,0.1,2.6,0.3s1.6,0.5,2.1,0.9l-1,1.9
			c-1.1-0.7-2.3-1-3.8-1c-1,0-1.8,0.2-2.3,0.5c-0.5,0.3-0.8,0.8-0.8,1.3c0,0.4,0.1,0.8,0.4,1s0.7,0.4,1.1,0.5c0.4,0.1,1,0.2,1.8,0.4
			c1,0.2,1.9,0.4,2.5,0.6c0.6,0.2,1.2,0.6,1.7,1c0.5,0.5,0.7,1.2,0.7,2.1c0,1.2-0.5,2.1-1.5,2.8c-1,0.7-2.4,1-4.1,1
			C751.5,650.8,750.5,650.6,749.5,650.3z" />
		<path class="st43" d="M761.2,634.6c-0.3-0.3-0.5-0.7-0.5-1.1s0.2-0.8,0.5-1.1c0.3-0.3,0.7-0.5,1.1-0.5s0.8,0.1,1.1,0.4
			c0.3,0.3,0.5,0.6,0.5,1.1c0,0.4-0.2,0.8-0.5,1.1c-0.3,0.3-0.7,0.5-1.1,0.5S761.5,634.9,761.2,634.6z M761.2,637.6h2.4v13h-2.4
			V637.6z" />
		<path class="st43" d="M779,638.9c1,1,1.5,2.4,1.5,4.2v7.5h-2.4v-7.2c0-1.3-0.3-2.2-0.9-2.9s-1.5-1-2.6-1c-1.3,0-2.3,0.4-3,1.1
			c-0.7,0.7-1.1,1.8-1.1,3.2v6.7H768v-13h2.3v2c0.5-0.7,1.1-1.2,1.9-1.5c0.8-0.4,1.7-0.5,2.8-0.5C776.7,637.4,778,637.9,779,638.9z" />
		<path class="st43" d="M797.4,637.6v11.3c0,2.3-0.6,4-1.7,5.1c-1.1,1.1-2.8,1.6-5.1,1.6c-1.2,0-2.4-0.2-3.5-0.5
			c-1.1-0.3-2-0.8-2.7-1.4l1.1-1.8c0.6,0.5,1.4,0.9,2.3,1.2c0.9,0.3,1.8,0.5,2.8,0.5c1.5,0,2.7-0.4,3.4-1.1s1.1-1.8,1.1-3.3v-1
			c-0.6,0.7-1.2,1.2-2.1,1.5c-0.8,0.3-1.7,0.5-2.6,0.5c-1.2,0-2.4-0.3-3.4-0.8s-1.8-1.3-2.4-2.2c-0.6-1-0.9-2.1-0.9-3.3
			s0.3-2.3,0.9-3.3c0.6-1,1.4-1.7,2.4-2.2c1-0.5,2.1-0.8,3.4-0.8c1,0,1.9,0.2,2.7,0.5c0.8,0.4,1.5,0.9,2.1,1.6v-2H797.4z
			M792.9,647.5c0.7-0.4,1.2-0.9,1.6-1.5c0.4-0.6,0.6-1.4,0.6-2.2c0-1.3-0.4-2.3-1.3-3.1c-0.8-0.8-1.9-1.2-3.2-1.2
			c-1.3,0-2.4,0.4-3.2,1.2c-0.8,0.8-1.3,1.8-1.3,3.1c0,0.8,0.2,1.6,0.6,2.2c0.4,0.6,0.9,1.2,1.6,1.5c0.7,0.4,1.5,0.5,2.3,0.5
			C791.4,648,792.2,647.8,792.9,647.5z" />
		<path class="st43" d="M811.1,636.4v1.1h3.8v1.9h-3.7v11.1h-2.4v-11.1h-2.2v-1.9h2.2v-1.2c0-1.3,0.4-2.3,1.1-3.1
			c0.8-0.8,1.8-1.1,3.2-1.1c0.5,0,1,0.1,1.5,0.2c0.5,0.1,0.9,0.3,1.2,0.6l-0.7,1.8c-0.5-0.4-1.1-0.6-1.8-0.6
			C811.8,634.1,811.1,634.9,811.1,636.4z" />
		<path class="st43" d="M823.2,638c0.8-0.4,1.8-0.6,2.9-0.6v2.3c-0.1,0-0.3,0-0.5,0c-1.3,0-2.3,0.4-3,1.1s-1.1,1.8-1.1,3.3v6.5h-2.4
			v-13h2.3v2.2C821.8,639,822.4,638.4,823.2,638z" />
		<path class="st43" d="M831,649.9c-1-0.6-1.8-1.4-2.4-2.4c-0.6-1-0.9-2.2-0.9-3.4s0.3-2.4,0.9-3.4c0.6-1,1.4-1.8,2.4-2.4
			c1-0.6,2.2-0.8,3.5-0.8c1.3,0,2.5,0.3,3.5,0.8c1,0.6,1.8,1.4,2.4,2.4c0.6,1,0.9,2.2,0.9,3.4s-0.3,2.4-0.9,3.4
			c-0.6,1-1.4,1.8-2.4,2.4c-1,0.6-2.2,0.9-3.5,0.9C833.2,650.8,832,650.5,831,649.9z M836.8,648.1c0.7-0.4,1.2-0.9,1.6-1.6
			c0.4-0.7,0.6-1.5,0.6-2.4s-0.2-1.7-0.6-2.4c-0.4-0.7-0.9-1.2-1.6-1.6c-0.7-0.4-1.4-0.6-2.3-0.6c-0.8,0-1.6,0.2-2.3,0.6
			c-0.7,0.4-1.2,0.9-1.6,1.6c-0.4,0.7-0.6,1.5-0.6,2.4s0.2,1.7,0.6,2.4c0.4,0.7,0.9,1.2,1.6,1.6c0.7,0.4,1.4,0.6,2.3,0.6
			C835.3,648.7,836.1,648.5,836.8,648.1z" />
		<path class="st43" d="M864.7,638.9c1,1,1.4,2.4,1.4,4.2v7.5h-2.4v-7.2c0-1.3-0.3-2.2-0.9-2.9s-1.4-1-2.5-1c-1.2,0-2.1,0.4-2.9,1.1
			c-0.7,0.7-1.1,1.8-1.1,3.2v6.7h-2.4v-7.2c0-1.3-0.3-2.2-0.9-2.9s-1.4-1-2.5-1c-1.2,0-2.1,0.4-2.9,1.1c-0.7,0.7-1.1,1.8-1.1,3.2v6.7
			h-2.4v-13h2.3v1.9c0.5-0.7,1.1-1.2,1.9-1.5s1.6-0.5,2.6-0.5c1,0,1.9,0.2,2.7,0.6c0.8,0.4,1.4,1,1.8,1.8c0.5-0.8,1.2-1.3,2.1-1.8
			c0.9-0.4,1.9-0.6,3-0.6C862.5,637.4,863.8,637.9,864.7,638.9z" />
	</g>
	<g>
		<path class="st43" d="M696.8,662.9h8.7c2.1,0,3.9,0.4,5.5,1.2s2.8,1.9,3.7,3.4c0.9,1.4,1.3,3.1,1.3,5.1c0,1.9-0.4,3.6-1.3,5.1
			c-0.9,1.4-2.1,2.6-3.7,3.4c-1.6,0.8-3.4,1.2-5.5,1.2h-8.7V662.9z M705.3,678.5c1.9,0,3.5-0.5,4.6-1.6s1.7-2.5,1.7-4.4
			s-0.6-3.3-1.7-4.4s-2.7-1.6-4.6-1.6h-4.1v11.9H705.3z" />
		<path class="st43" d="M723.4,681.2c-1.6-0.9-2.9-2-3.8-3.6c-0.9-1.5-1.4-3.2-1.4-5.1c0-1.9,0.5-3.6,1.4-5.1
			c0.9-1.5,2.2-2.7,3.8-3.6c1.6-0.9,3.4-1.3,5.4-1.3s3.8,0.4,5.4,1.3c1.6,0.9,2.8,2,3.8,3.6c0.9,1.5,1.4,3.2,1.4,5.1
			c0,1.9-0.5,3.6-1.4,5.1c-0.9,1.5-2.2,2.7-3.8,3.6c-1.6,0.9-3.4,1.3-5.4,1.3S725,682.1,723.4,681.2z M731.9,677.9
			c0.9-0.5,1.6-1.3,2.2-2.2c0.5-0.9,0.8-2,0.8-3.2s-0.3-2.3-0.8-3.2c-0.5-0.9-1.2-1.7-2.2-2.2c-0.9-0.5-1.9-0.8-3.1-0.8
			c-1.1,0-2.2,0.3-3.1,0.8c-0.9,0.5-1.6,1.3-2.2,2.2c-0.5,0.9-0.8,2-0.8,3.2s0.3,2.3,0.8,3.2c0.5,0.9,1.2,1.7,2.2,2.2
			c0.9,0.5,1.9,0.8,3.1,0.8C729.9,678.7,731,678.5,731.9,677.9z" />
		<path class="st43" d="M760.3,662.9v19.2h-3.7l-9.6-11.7v11.7h-4.4v-19.2h3.7l9.6,11.7v-11.7H760.3z" />
		<path class="st43" d="M768.8,681.2c-1.6-0.9-2.9-2-3.8-3.6c-0.9-1.5-1.4-3.2-1.4-5.1c0-1.9,0.5-3.6,1.4-5.1
			c0.9-1.5,2.2-2.7,3.8-3.6c1.6-0.9,3.4-1.3,5.4-1.3s3.8,0.4,5.4,1.3c1.6,0.9,2.8,2,3.8,3.6c0.9,1.5,1.4,3.2,1.4,5.1
			c0,1.9-0.5,3.6-1.4,5.1c-0.9,1.5-2.2,2.7-3.8,3.6c-1.6,0.9-3.4,1.3-5.4,1.3S770.4,682.1,768.8,681.2z M777.2,677.9
			c0.9-0.5,1.6-1.3,2.2-2.2c0.5-0.9,0.8-2,0.8-3.2s-0.3-2.3-0.8-3.2c-0.5-0.9-1.2-1.7-2.2-2.2c-0.9-0.5-1.9-0.8-3.1-0.8
			c-1.1,0-2.2,0.3-3.1,0.8c-0.9,0.5-1.6,1.3-2.2,2.2c-0.5,0.9-0.8,2-0.8,3.2s0.3,2.3,0.8,3.2c0.5,0.9,1.2,1.7,2.2,2.2
			c0.9,0.5,1.9,0.8,3.1,0.8C775.3,678.7,776.3,678.5,777.2,677.9z" />
		<path class="st43" d="M800.3,682.2l-3.7-5.4h-0.2h-3.9v5.4H788v-19.2h8.3c1.7,0,3.2,0.3,4.4,0.9c1.3,0.6,2.2,1.4,2.9,2.4
			c0.7,1,1,2.3,1,3.7s-0.3,2.7-1,3.7c-0.7,1-1.7,1.8-2.9,2.4l4.3,6.2H800.3z M799.2,667.4c-0.7-0.6-1.7-0.9-3-0.9h-3.6v6.7h3.6
			c1.3,0,2.4-0.3,3-0.9s1-1.4,1-2.5C800.2,668.8,799.9,668,799.2,667.4z" />
		<path class="st43" d="M810.1,681.9c-1.4-0.4-2.6-0.9-3.4-1.6l1.5-3.4c0.8,0.6,1.8,1.1,2.9,1.5c1.1,0.4,2.3,0.5,3.4,0.5
			c1.3,0,2.2-0.2,2.8-0.6c0.6-0.4,0.9-0.9,0.9-1.5c0-0.5-0.2-0.8-0.5-1.1c-0.4-0.3-0.8-0.5-1.4-0.7c-0.6-0.2-1.3-0.4-2.3-0.6
			c-1.5-0.3-2.7-0.7-3.6-1c-0.9-0.3-1.7-0.9-2.4-1.7c-0.7-0.8-1-1.8-1-3.1c0-1.1,0.3-2.1,0.9-3c0.6-0.9,1.5-1.6,2.7-2.2
			c1.2-0.5,2.7-0.8,4.5-0.8c1.2,0,2.4,0.1,3.6,0.4c1.2,0.3,2.2,0.7,3.1,1.3l-1.4,3.4c-1.8-1-3.6-1.5-5.3-1.5c-1.2,0-2.2,0.2-2.8,0.6
			c-0.6,0.4-0.9,0.9-0.9,1.6s0.3,1.1,1,1.5s1.7,0.6,3.1,0.9c1.5,0.3,2.7,0.7,3.6,1c0.9,0.3,1.7,0.9,2.4,1.6c0.7,0.8,1,1.8,1,3
			c0,1.1-0.3,2.1-0.9,3c-0.6,0.9-1.5,1.6-2.8,2.2c-1.2,0.5-2.7,0.8-4.5,0.8C813,682.5,811.6,682.3,810.1,681.9z" />
	</g>
</svg>
