<?xml version="1.0" encoding="utf-8"?>
<!-- Generator: Adobe Illustrator 23.0.3, SVG Export Plug-In . SVG Version: 6.00 Build 0)  -->
<svg version="1.1" id="Layer_1" xmlns="http://www.w3.org/2000/svg" xmlns:xlink="http://www.w3.org/1999/xlink" x="0px" y="0px"
	 viewBox="0 0 320 1002.2" style="enable-background:new 0 0 320 1002.2;" xml:space="preserve">
<style type="text/css">
	
		.st0{fill:none;stroke:#FF7DB9;stroke-width:1.4759;stroke-linecap:round;stroke-linejoin:round;stroke-miterlimit:10;stroke-dasharray:2.9517,5.4115;}
	.st1{fill:#FFFFFF;}
	.st2{fill:none;stroke:#FFCB57;stroke-width:1.6599;stroke-miterlimit:10;}
	.st3{fill:#FFCB57;}
	.st4{opacity:0.9;fill:url(#SVGID_1_);}
	.st5{opacity:0.9;fill:url(#SVGID_2_);}
	.st6{opacity:0.9;fill:url(#SVGID_3_);}
	.st7{opacity:0.9;fill:url(#SVGID_4_);}
	.st8{opacity:0.9;fill:url(#SVGID_5_);}
	.st9{fill:#FFF9DB;}
	.st10{fill:#FFD7E9;}
	.st11{opacity:0.9;fill:url(#SVGID_6_);}
	.st12{opacity:0.9;fill:url(#SVGID_7_);}
	.st13{fill:#D8F2FF;}
	.st14{opacity:0.9;fill:url(#SVGID_8_);}
	.st15{fill:none;stroke:#FF7DB9;stroke-width:2.2533;stroke-linecap:round;stroke-linejoin:round;stroke-miterlimit:10;}
	.st16{fill:#FF7DB9;}
	.st17{fill:none;stroke:#FFCB57;stroke-width:2.2533;stroke-linecap:round;stroke-linejoin:round;stroke-miterlimit:10;}
	.st18{fill:#FFCB00;}
	.st19{fill:none;stroke:#FFCB57;stroke-width:2.2533;stroke-linejoin:round;stroke-miterlimit:10;}
	.st20{fill:none;stroke:#49C4FF;stroke-width:1.7704;stroke-linecap:round;stroke-linejoin:round;stroke-miterlimit:10;}
	.st21{fill:#49C4FF;}
	.st22{fill:none;stroke:#FF7DB9;stroke-width:2.2533;stroke-linejoin:round;stroke-miterlimit:10;}
	.st23{fill:none;stroke:#49C4FF;stroke-width:1.7335;stroke-linecap:round;stroke-linejoin:round;stroke-miterlimit:10;}
	.st24{fill:#F6F0F8;}
	.st25{fill:#333343;}
	.st26{fill:#3E3D51;}
	.st27{fill:none;stroke:#FFCB57;stroke-width:1.4173;stroke-miterlimit:10;}
	.st28{opacity:0.9;fill:url(#SVGID_9_);}
	.st29{fill:none;stroke:#FFCB57;stroke-width:1.6611;stroke-linecap:round;stroke-linejoin:round;stroke-miterlimit:10;}
	.st30{fill:none;stroke:#FFCB57;stroke-width:3.6085;stroke-miterlimit:10;}
	.st31{opacity:0.9;fill:url(#SVGID_10_);}
	.st32{opacity:0.9;fill:url(#SVGID_11_);}
	.st33{opacity:0.9;fill:url(#SVGID_12_);}
	.st34{opacity:0.9;fill:url(#SVGID_13_);}
	.st35{fill:#32A9FE;}
	.st36{opacity:0.9;fill:url(#SVGID_14_);}
	.st37{opacity:0.9;fill:url(#SVGID_15_);}
	.st38{opacity:0.9;fill:url(#SVGID_16_);}
	.st39{opacity:0.9;fill:url(#SVGID_17_);}
	.st40{fill:none;stroke:#FF7DB9;stroke-width:4.8984;stroke-linecap:round;stroke-linejoin:round;stroke-miterlimit:10;}
	.st41{fill:none;stroke:#FFCB57;stroke-width:4.8984;stroke-linecap:round;stroke-linejoin:round;stroke-miterlimit:10;}
	.st42{fill:none;stroke:#FFCB57;stroke-width:4.8984;stroke-linejoin:round;stroke-miterlimit:10;}
	.st43{fill:none;stroke:#49C4FF;stroke-width:3.8488;stroke-linecap:round;stroke-linejoin:round;stroke-miterlimit:10;}
	.st44{fill:none;stroke:#FF7DB9;stroke-width:4.8984;stroke-linejoin:round;stroke-miterlimit:10;}
	.st45{fill:none;stroke:#49C4FF;stroke-width:3.7686;stroke-linecap:round;stroke-linejoin:round;stroke-miterlimit:10;}
	.st46{fill:none;stroke:#FFCB57;stroke-width:3.0812;stroke-miterlimit:10;}
	.st47{opacity:0.9;fill:url(#SVGID_18_);}
	.st48{fill:none;stroke:#FFCB57;stroke-width:3.6111;stroke-linecap:round;stroke-linejoin:round;stroke-miterlimit:10;}
	
		.st49{fill:none;stroke:#FF7DB9;stroke-width:2.126;stroke-linecap:round;stroke-linejoin:round;stroke-miterlimit:10;stroke-dasharray:2.9517,5.4115;}
	.st50{opacity:0.9;fill:url(#SVGID_19_);}
	.st51{opacity:0.9;fill:url(#SVGID_20_);}
	.st52{opacity:0.9;fill:url(#SVGID_21_);}
	.st53{opacity:0.9;fill:url(#SVGID_22_);}
	.st54{opacity:0.9;fill:url(#SVGID_23_);}
	.st55{opacity:0.9;fill:url(#SVGID_24_);}
	.st56{opacity:0.9;fill:url(#SVGID_25_);}
	.st57{opacity:0.9;fill:url(#SVGID_26_);}
	.st58{opacity:0.9;fill:url(#SVGID_27_);}
	.st59{opacity:0.9;fill:url(#SVGID_28_);}
	.st60{opacity:0.9;fill:url(#SVGID_29_);}
	.st61{opacity:0.9;fill:url(#SVGID_30_);}
	.st62{opacity:0.9;fill:url(#SVGID_31_);}
	.st63{opacity:0.9;fill:url(#SVGID_32_);}
	.st64{opacity:0.9;fill:url(#SVGID_33_);}
	.st65{opacity:0.9;fill:url(#SVGID_34_);}
	.st66{opacity:0.9;fill:url(#SVGID_35_);}
	.st67{opacity:0.9;fill:url(#SVGID_36_);}
	.st68{opacity:0.9;fill:url(#SVGID_37_);}
	.st69{opacity:0.9;fill:url(#SVGID_38_);}
	.st70{opacity:0.9;fill:url(#SVGID_39_);}
	.st71{font-family:'Montserrat-Medium';}
	.st72{font-size:13.5057px;}
	.st73{font-family:'Montserrat-Bold';}
	.st74{font-size:15.4778px;}
	.st75{font-family:'Montserrat-Black';}
	.st76{font-size:25.9368px;}
	.st77{opacity:0.9;fill:url(#SVGID_40_);}
</style>
<path class="st0" d="M106.1,155.3c50-37.6,106.7-46.2,142.2-22c2.2,1.5,31,21.7,29.9,48.9c-1.7,40.1-72.4,84.5-108.1,61.6
	c-6.5-4.2-30.9-16.4-39.8-20.9c-20.3-10.4-50.9-3.6-60.6,10.2c-19.9,28.2,14.2,102.3,53.8,108.1c35.4,5.1,51-48,105.1-47.9
	c18.7,0,47.2,6.5,54.2,25c4.1,10.7,0.4,23.7-5.9,32.6c-14.5,20.5-42.1,18-114.4,24.2c-78,6.6-91.7,13.4-102.6,22.9
	c-23.6,20.8-29.5,51.3-32.2,65.7c-4.2,21.8-5.2,56.1,6.4,60.2c5.7,2,12.6-4,23.7-14.8c40.7-39.5,41.4-50.9,58.1-62.3
	c36.4-24.9,87.1-6.4,96.6-3c15.6,5.7,47.1,17.1,53.8,43.6c4.5,17.9-4.3,34.2-10.6,45.3c-9.4,16.7-29.6,43.9-80.5,67.4
	c-66.6,30.7-99.1,15-131.4,49.6c-5.6,6-26,27.8-20.3,47.5c8.4,29.3,70.5,38.1,114.4,32.2c61.2-8.2,123.9-49.7,119.1-75.9
	c-3.3-17.7-38.3-33.3-55.5-22.5c-9.2,5.8-15.8,20.6-11.4,32.2c10,26.6,69,11.8,87.3,43.6c6.7,11.7,7,27.9,1.7,40.3
	c-14,32.4-63.1,27.6-175,63.6c-25.7,8.2-52.2,17.8-66.5,42.8c-3.1,5.4-14.5,27-6.4,46.2c7.3,17.2,19.9,26.4,22.1,27.7
	c20.6,12.2,42,4.4,44.9,3.3"/>
<g>
	<ellipse class="st1" cx="265.1" cy="348.5" rx="28.6" ry="45.8"/>
	<circle class="st2" cx="269.3" cy="331.7" r="21.5"/>
	<g>
		<g>
			<path class="st3" d="M263.6,343.1c-0.7,0-1.1,0-1.1,0h-0.7v-12.6l0.2-0.2c1.4-1.4,2.4-3.2,3.5-4.9c0.2-0.4,0.4-0.8,0.7-1.1l0,0
				c0.4-0.6,0.4-2,0.4-3c0-1,0-1.8,0.3-2.3c0.3-0.4,0.7-0.7,1.3-0.7c1-0.1,2,0.4,2.5,1.4c1.5,3.1,1.2,5,0.7,7.6
				c-0.1,0.4-0.1,0.7-0.2,1.1c1,0,2.1,0,3.1,0c1.1,0,2.3,0,3.5,0c0.9,0,2,0.2,2.6,0.9c0.2,0.3,0.5,0.8,0.3,1.5
				c-0.1,0.8-0.5,1.4-1.1,1.9c0.4,0.4,0.6,1,0.5,1.6c-0.1,0.7-0.5,1.4-1.1,1.8c0.3,0.4,0.5,0.8,0.5,1.4c0,0.8-0.5,1.6-1.1,2.1
				c0.4,0.5,0.5,1,0.4,1.6c-0.3,1.2-1.6,2.1-2.9,2.1C272.4,343.1,266.1,343.1,263.6,343.1z M263.1,341.7c2.2,0,9.1,0,12.5,0
				c0.8,0,1.5-0.6,1.6-1.1c0-0.1,0.1-0.3-0.3-0.6c-0.4-0.1-0.6-0.5-0.6-0.9c0-0.4,0.4-0.7,0.8-0.8c0.5-0.2,0.8-0.7,0.8-1.1
				c0-0.4-0.3-0.6-0.5-0.6l-0.1,0l0,0c-0.4-0.2-0.5-0.5-0.5-0.9c0.1-0.4,0.5-0.6,0.8-0.7c0.4-0.1,0.8-0.6,0.8-1
				c0-0.4-0.1-0.5-0.3-0.6l0,0c0,0,0,0-0.1,0c-0.2-0.1-0.5-0.2-0.6-0.6l0-0.1l0-0.1c-0.1-0.4,0.1-0.8,0.5-0.9l0.1,0l0.1,0
				c0.6-0.2,0.9-0.6,1-1.2l0,0c0-0.3,0-0.4-0.1-0.4c-0.1-0.2-0.5-0.3-1.6-0.4c-1.1,0-2.3,0-3.4,0c-1.3,0-2.7,0-4,0l-0.8,0l0.1-0.8
				c0.1-0.7,0.2-1.4,0.3-1.9c0.5-2.6,0.8-4.1-0.5-6.8c-0.2-0.4-0.7-0.7-1.1-0.6c-0.2,0-0.3,0.1-0.3,0.1c-0.1,0.2-0.1,1-0.1,1.6
				c0,1.3,0.1,2.8-0.6,3.8c-0.2,0.4-0.4,0.7-0.6,1.1c-1,1.8-2,3.6-3.5,5V341.7z"/>
		</g>
		<g>
			<path class="st3" d="M261.9,343.1h-2.7c-0.6,0-1.2-0.5-1.2-1.2v-10.6c0-0.6,0.5-1.2,1.2-1.2h2.7c0.6,0,1.2,0.5,1.2,1.2v10.6
				C263.1,342.5,262.6,343.1,261.9,343.1z M259.4,341.7h2.3v-10.2h-2.3V341.7z"/>
		</g>
	</g>
	
		<radialGradient id="SVGID_1_" cx="1455.6167" cy="4921.1196" r="59.465" gradientTransform="matrix(0.5538 0 0 4.348000e-02 -533.9731 143.6811)" gradientUnits="userSpaceOnUse">
		<stop  offset="0.1034" style="stop-color:#E0E3E2"/>
		<stop  offset="0.2677" style="stop-color:#E9EBEA"/>
		<stop  offset="0.684" style="stop-color:#F9FAFA"/>
		<stop  offset="1" style="stop-color:#FFFFFF"/>
	</radialGradient>
	<ellipse class="st4" cx="272.1" cy="357.7" rx="46.5" ry="2.2"/>
</g>
<ellipse class="st1" cx="102.9" cy="334.2" rx="35" ry="23.8"/>
<ellipse class="st1" cx="242.6" cy="374" rx="35" ry="23.8"/>
<g>
	<g>
		<circle class="st1" cx="72.6" cy="284.4" r="38.5"/>
		<g>
			<g>
				<g>
					<path class="st3" d="M86.3,280.5H74.7c-0.5,0-0.9-0.4-0.9-0.9s0.4-0.9,0.9-0.9h11.6c0.5,0,0.9,0.4,0.9,0.9
						S86.8,280.5,86.3,280.5z"/>
				</g>
			</g>
			<g>
				<g>
					<path class="st3" d="M86.3,295.6h-4.2c-0.5,0-0.9-0.4-0.9-0.9c0-0.5,0.4-0.9,0.9-0.9h4.2c0.5,0,0.9,0.4,0.9,0.9
						C87.2,295.3,86.8,295.6,86.3,295.6z"/>
				</g>
			</g>
			<g>
				<g>
					<path class="st3" d="M86.2,284.3h-9.9c-0.5,0-0.9-0.4-0.9-0.9c0-0.5,0.4-0.9,0.9-0.9h9.9c0.5,0,0.9,0.4,0.9,0.9
						C87.1,284,86.7,284.3,86.2,284.3z"/>
				</g>
			</g>
			<g>
				<g>
					<path class="st3" d="M86.3,288.1H74.7c-0.5,0-0.9-0.4-0.9-0.9c0-0.5,0.4-0.9,0.9-0.9h11.6c0.5,0,0.9,0.4,0.9,0.9
						C87.2,287.7,86.8,288.1,86.3,288.1z"/>
				</g>
			</g>
			<path class="st3" d="M91.2,273.2c0-0.3-0.1-0.5-0.3-0.7l-10.2-10.2c0,0,0,0,0,0c-0.1-0.1-0.1-0.1-0.2-0.1c0,0,0,0-0.1,0
				c-0.1,0-0.1-0.1-0.2-0.1c0,0,0,0,0,0c-0.1,0-0.1,0-0.2,0H60.2c-0.5,0-0.9,0.4-0.9,0.9v8.7c0.3,0,0.7,0,1,0c0.2,0,0.5,0,0.7,0
				v-7.9h18.2v9.4c0,0.5,0.4,0.9,0.9,0.9h9.4v27.4H61v-7.9c-0.2,0-0.5,0-0.7,0c-0.3,0-0.7,0-1,0v8.7c0,0.5,0.4,0.9,0.9,0.9h30.2
				c0.5,0,0.9-0.4,0.9-0.9v-29C91.2,273.3,91.2,273.2,91.2,273.2z M80.9,272.3V265l7.3,7.3H80.9z"/>
			<g>
				<path class="st3" d="M58.9,287.4c-0.2,0-0.4-0.1-0.6-0.2l-3.8-3.4c-0.4-0.3-0.4-0.9-0.1-1.2c0.3-0.4,0.9-0.4,1.2-0.1l3.2,2.8
					l6.1-7.2c0.3-0.4,0.9-0.4,1.2-0.1c0.4,0.3,0.4,0.9,0.1,1.2l-6.7,7.9C59.4,287.3,59.2,287.4,58.9,287.4
					C58.9,287.4,58.9,287.4,58.9,287.4z"/>
			</g>
			<g>
				<path class="st3" d="M60.3,294.5c-0.3,0-0.7,0-1.1,0c-6.2-0.5-10.8-5.6-10.8-11.8c0-6.2,4.6-11.3,10.8-11.8
					c0.7-0.1,1.3-0.1,1.9,0c6.2,0.4,11,5.6,11,11.8c0,6.2-4.9,11.4-11.1,11.8C60.8,294.5,60.5,294.5,60.3,294.5z M60.3,272.5
					c-0.3,0-0.6,0-0.9,0c-5.3,0.5-9.2,4.8-9.2,10.1c0,5.3,4,9.6,9.2,10.1c0.6,0.1,1.1,0.1,1.6,0c5.3-0.4,9.5-4.8,9.5-10.1
					c0-5.3-4.1-9.7-9.4-10.1C60.7,272.5,60.5,272.5,60.3,272.5z"/>
			</g>
		</g>
		
			<radialGradient id="SVGID_2_" cx="1100.4966" cy="4805.1372" r="59.465" gradientTransform="matrix(0.5538 0 0 4.348000e-02 -533.9731 98.2948)" gradientUnits="userSpaceOnUse">
			<stop  offset="0.1034" style="stop-color:#E0E3E2"/>
			<stop  offset="0.2677" style="stop-color:#E9EBEA"/>
			<stop  offset="0.684" style="stop-color:#F9FAFA"/>
			<stop  offset="1" style="stop-color:#FFFFFF"/>
		</radialGradient>
		<ellipse class="st5" cx="75.5" cy="307.2" rx="46.5" ry="2.2"/>
	</g>
</g>
<g>
	<path class="st1" d="M281.1,204.8c15.3,59.8-13.4,49.3-39.1,39.1c-20.1-8-39.1-17.5-39.1-39.1s17.5-39.1,39.1-39.1
		S275.7,183.9,281.1,204.8z"/>
	<g>
		<g>
			<g>
				<path class="st3" d="M239.6,164L239.6,164L239.6,164 M239.8,167c1,1.7,2,4.4,1.7,7.5c-0.3,3.1-2.1,5.5-4.2,6.9
					C239.3,177.3,240,173,239.8,167 M238.5,163.3c-0.3,0-0.5,0.3-0.5,0.9c0.7,9-0.2,14.2-4.3,19.9c4.5,0,9-4.2,9.5-9.5
					C243.7,168.4,239.8,163.3,238.5,163.3L238.5,163.3z"/>
			</g>
			<g>
				<g>
					<path class="st3" d="M249.1,164L249.1,164L249.1,164 M249.2,167.1c0.5,1,1,2.2,1.3,3.6c0.6,2.8,0.9,8.3-3.8,14.2
						c-0.5,0.6-0.5,1.4,0,2c0.3,0.4,0.8,0.7,1.3,0.7c0.2,0,0.4,0,0.6-0.1c0.2-0.1,4.6-1.9,8-7.1c-0.1,0.8-0.3,1.8-0.6,2.8
						c-1,3.2-3.4,7.7-9.1,10.7c-0.7,0.4-1,1.2-0.8,1.9c0.2,0.7,0.9,1.2,1.6,1.2c0.1,0,0.1,0,0.2,0c0.1,0,2.7-0.3,5.6-1.5
						c-2,2.1-5,4.4-9,5.2c-1.2,0.2-2.4,0.4-3.6,0.4c-5.8,0-10.7-2.6-13.1-6.9c-1.2-2.1-1.4-4.4-1.6-6.6c-0.3-2.9-0.7-6.1-3.3-8.4
						c0.6-0.4,1.2-0.5,1.7-0.5c0.8,0,1.7,0.3,2.3,0.9c1.1,1.1,1.4,2.2,1.7,3.3c0.4,1.3,0.8,3,2.6,4c0.9,0.5,2,0.8,3.2,0.8
						c3.3,0,7.2-2,9.7-5.1C247.1,178.6,249,173.1,249.2,167.1 M258.2,177.4L258.2,177.4L258.2,177.4 M247.9,163.3
						c-0.3,0-0.5,0.3-0.4,0.9c0.6,7.4-1.7,13.5-4.9,17.3c-2.1,2.5-5.6,4.5-8.5,4.5c-0.9,0-1.7-0.2-2.4-0.6c-2.4-1.3-1.1-4.3-3.9-7
						c-0.9-0.9-2.2-1.4-3.5-1.4c-1.5,0-3.1,0.7-4.2,2.4c5.9,3.3,2.8,9.7,6.1,15.6c3,5.5,9,7.8,14.6,7.8c1.4,0,2.7-0.1,3.9-0.4
						c9-1.8,14.1-10.8,12.4-10.8c-0.2,0-0.6,0.2-1.1,0.6c-3.7,2.8-8.3,3.3-8.3,3.3c12-6.3,11.5-19.3,9.7-19.3
						c-0.2,0-0.5,0.3-0.8,0.8c-3.1,6.8-8.6,9-8.6,9c4.5-5.6,5.1-11.3,4.1-15.5C251.2,166.2,248.9,163.3,247.9,163.3L247.9,163.3z"/>
				</g>
			</g>
		</g>
	</g>
	
		<radialGradient id="SVGID_3_" cx="1399.463" cy="4575.3564" r="59.465" gradientTransform="matrix(0.5538 0 0 4.348000e-02 -533.9731 8.377)" gradientUnits="userSpaceOnUse">
		<stop  offset="0.1034" style="stop-color:#E0E3E2"/>
		<stop  offset="0.2677" style="stop-color:#E9EBEA"/>
		<stop  offset="0.684" style="stop-color:#F9FAFA"/>
		<stop  offset="1" style="stop-color:#FFFFFF"/>
	</radialGradient>
	<ellipse class="st6" cx="241" cy="207.3" rx="46.5" ry="2.2"/>
</g>
<g>
	<ellipse class="st1" cx="257.6" cy="573.4" rx="41.2" ry="50.7"/>
	<g>
		<path class="st3" d="M246.4,557.2c2.2-1.5,3.7-4,3.7-6.8c0-4.5-3.7-8.2-8.2-8.2s-8.2,3.7-8.2,8.2c0,2.8,1.5,5.3,3.7,6.8
			c-5,1.8-8.6,6.6-8.6,12.3h2.2c0-6,4.9-10.9,10.9-10.9s10.9,4.9,10.9,10.9h2.2C255,563.9,251.4,559.1,246.4,557.2z M241.9,556.4
			c-3.3,0-6-2.7-6-6s2.7-6,6-6c3.3,0,6,2.7,6,6S245.2,556.4,241.9,556.4z"/>
		<path class="st3" d="M257.3,551.8c2.2-1.5,3.7-4,3.7-6.8c0-4.5-3.7-8.2-8.2-8.2c-2.2,0-4.2,0.9-5.6,2.3c-0.5,0.5-1,1.1-1.4,1.8
			c0.7,0.3,1.3,0.6,1.9,1c0.4-0.6,0.9-1.2,1.5-1.6c1-0.8,2.3-1.2,3.6-1.2c3.3,0,6,2.7,6,6c0,2.7-1.9,5.1-4.4,5.8
			c-0.5,0.1-1.1,0.2-1.6,0.2c-0.2,0-0.4,0-0.6,0c0,0.8-0.2,1.5-0.4,2.3c0.3,0,0.6-0.1,0.9-0.1c0.4,0,0.9,0,1.3,0.1
			c5.4,0.6,9.6,5.2,9.6,10.8h2.2C265.9,558.4,262.3,553.6,257.3,551.8z"/>
		<path class="st3" d="M231,553.1c0.3,0,0.6,0,0.9,0.1c-0.2-0.7-0.3-1.5-0.4-2.3c-0.2,0-0.4,0-0.6,0c-0.6,0-1.1-0.1-1.6-0.2
			c-2.5-0.7-4.4-3-4.4-5.8c0-3.3,2.7-6,6-6c1.4,0,2.6,0.5,3.6,1.2c0.6,0.4,1.1,1,1.5,1.6c0.6-0.4,1.2-0.7,1.9-1
			c-0.4-0.7-0.9-1.2-1.4-1.8c-1.5-1.4-3.5-2.3-5.6-2.3c-4.5,0-8.2,3.7-8.2,8.2c0,2.8,1.5,5.3,3.7,6.8c-5,1.8-8.6,6.6-8.6,12.3h2.2
			c0-5.6,4.2-10.2,9.6-10.8C230.1,553.2,230.5,553.1,231,553.1z"/>
		<path class="st3" d="M264.9,544.2c2.2-1.5,3.7-4,3.7-6.8c0-4.5-3.7-8.2-8.2-8.2c-2.2,0-4.2,0.9-5.6,2.3c-0.5,0.5-1,1.1-1.4,1.8
			c0.7,0.3,1.3,0.6,1.9,1c0.4-0.6,0.9-1.2,1.5-1.6c1-0.8,2.3-1.2,3.6-1.2c3.3,0,6,2.7,6,6c0,2.4-1.4,4.5-3.5,5.4
			c0.1,0.5,0.1,1,0.1,1.6c0,0.5-0.1,1-0.1,1.5c4.8,1.1,8.4,5.4,8.4,10.6h2.2C273.5,550.8,269.9,546,264.9,544.2z"/>
		<path class="st3" d="M220.7,544.4c0-0.5,0.1-1.1,0.1-1.6c-2.1-0.9-3.5-3-3.5-5.4c0-3.3,2.7-6,6-6c1.4,0,2.6,0.5,3.6,1.2
			c0.6,0.4,1.1,1,1.5,1.6c0.6-0.4,1.2-0.7,1.9-1c-0.4-0.7-0.9-1.2-1.4-1.8c-1.5-1.4-3.5-2.3-5.6-2.3c-4.5,0-8.2,3.7-8.2,8.2
			c0,2.8,1.5,5.3,3.7,6.8c-5,1.8-8.6,6.6-8.6,12.3h2.2c0-5.1,3.6-9.5,8.4-10.6C220.7,545.3,220.7,544.9,220.7,544.4z"/>
		<path class="st3" d="M241.9,531.3c2.9,0,5.3,2.1,5.9,4.9c1.2-0.7,2.1-0.9,2.1-0.9c-0.9-3.5-4.1-6.2-7.9-6.2s-7,2.6-7.9,6.2
			c0,0,0.9,0.2,2.1,0.9C236.5,533.4,239,531.3,241.9,531.3z"/>
	</g>
	
		<radialGradient id="SVGID_4_" cx="1140.787" cy="2966.3423" r="59.465" gradientTransform="matrix(0.6388 0 0 6.044964e-02 -484.7794 397.3225)" gradientUnits="userSpaceOnUse">
		<stop  offset="0.1034" style="stop-color:#E0E3E2"/>
		<stop  offset="0.2677" style="stop-color:#E9EBEA"/>
		<stop  offset="0.684" style="stop-color:#F9FAFA"/>
		<stop  offset="1" style="stop-color:#FFFFFF"/>
	</radialGradient>
	<ellipse class="st7" cx="243.9" cy="576.6" rx="53.6" ry="3"/>
</g>
<g>
	<g>
		<path class="st3" d="M61.6,131.8h-9c-1,0-1.9,0.8-1.9,1.9c0,1,0.8,1.9,1.9,1.9h9c1,0,1.9-0.9,1.9-1.9
			C63.5,132.7,62.6,131.8,61.6,131.8z M62.2,133.7c0,0.3-0.3,0.6-0.6,0.6h-9c-0.3,0-0.6-0.3-0.6-0.6c0-0.3,0.3-0.6,0.6-0.6h9
			C61.9,133.1,62.2,133.4,62.2,133.7z"/>
		<path class="st3" d="M51.4,136.5c0,1.7,1.2,3.2,2.9,3.5c0.4,1.2,1.5,2.1,2.8,2.1c1.3,0,2.4-0.8,2.8-2.1c1.7-0.3,2.9-1.8,2.9-3.5
			v-0.6H51.4V136.5z M55.1,138.8l-0.3,0c-1-0.1-1.8-0.7-2.1-1.6h8.7c-0.3,0.9-1.1,1.6-2.1,1.6l-0.3,0L55.1,138.8z M58.5,140
			c-0.3,0.4-0.8,0.7-1.4,0.7c-0.6,0-1.1-0.3-1.4-0.7H58.5z"/>
		<path class="st3" d="M57.1,101c-7,0-12.7,5.7-12.7,12.7c0,2.9,0.9,5.6,2.7,7.9c1.4,1.7,2.7,3.6,3.8,5.5v4.5h12.4v-4.4
			c1.2-2,2.6-4.1,3.9-5.6c1.8-2.3,2.7-5,2.7-7.9C69.8,106.7,64.1,101,57.1,101z M55.5,119.8l0.9,3.3l1.5-3.6l0.7,2.1l1.6-0.7
			l-2.1,9.6h-2l-2.1-9.6L55.5,119.8z M62.1,126.7l-0.1,0.2v3.5h-2.6l2.7-12.7l-1.2-0.3l-0.5,2.1l-1.3,0.6l-1.3-3.6l-1.3,3.2
			l-0.4-1.6l-2.4,1.6l-0.5-2.3l-1.3,0.3l2.8,12.7h-2.6v-3.6l-0.1-0.2c-1.2-2-2.6-4-4-5.8c-1.6-2-2.5-4.5-2.5-7.1
			c0-6.3,5.1-11.5,11.5-11.5c6.3,0,11.5,5.1,11.5,11.5c0,2.6-0.8,5-2.5,7.1h0C64.8,122.5,63.3,124.7,62.1,126.7z"/>
		<path class="st3" d="M57.6,98.9c0.3,0,0.6-0.3,0.6-0.6v-5.5c0-0.3-0.3-0.6-0.6-0.6c-0.3,0-0.6,0.3-0.6,0.6v5.5
			C57,98.7,57.2,98.9,57.6,98.9z"/>
		<path class="st3" d="M65.8,100.9c0.1,0.1,0.2,0.1,0.3,0.1c0.2,0,0.4-0.1,0.5-0.3l2.9-4.7c0.2-0.3,0.1-0.6-0.2-0.8
			c-0.1-0.1-0.3-0.1-0.4-0.1c-0.2,0-0.3,0.1-0.4,0.3l-2.9,4.7c-0.1,0.1-0.1,0.3-0.1,0.4C65.5,100.7,65.6,100.8,65.8,100.9z"/>
		<path class="st3" d="M71.3,107.7c0.1,0,0.2,0,0.3-0.1l4.9-2.6c0.3-0.1,0.4-0.5,0.2-0.8c-0.1-0.3-0.5-0.4-0.8-0.2l-4.9,2.6
			c-0.3,0.1-0.4,0.5-0.2,0.8C70.9,107.6,71.1,107.7,71.3,107.7z"/>
		<path class="st3" d="M78.9,114.6c-0.1-0.1-0.2-0.2-0.4-0.2l-5.5-0.4c-0.3,0-0.6,0.2-0.6,0.5c0,0.3,0.2,0.6,0.5,0.6l5.5,0.4l0,0
			c0.3,0,0.6-0.2,0.6-0.5C79.1,114.9,79,114.7,78.9,114.6z"/>
		<path class="st3" d="M75.3,125.7l-4.5-3.2c-0.1-0.1-0.3-0.1-0.4-0.1c-0.2,0-0.3,0.1-0.4,0.2c-0.2,0.3-0.1,0.6,0.1,0.8l4.5,3.2
			c0.1,0.1,0.2,0.1,0.3,0.1c0.2,0,0.4-0.1,0.5-0.2c0.1-0.1,0.1-0.3,0.1-0.4C75.5,125.9,75.4,125.8,75.3,125.7z"/>
		<path class="st3" d="M47.8,100.7c0.1,0.2,0.3,0.3,0.5,0.3c0.1,0,0.2,0,0.3-0.1c0.3-0.2,0.4-0.5,0.2-0.8l-2.9-4.7
			c-0.1-0.1-0.2-0.2-0.4-0.3c-0.2,0-0.3,0-0.4,0.1c-0.3,0.2-0.4,0.5-0.2,0.8L47.8,100.7z"/>
		<path class="st3" d="M37.8,105.1l4.9,2.6c0.1,0,0.2,0.1,0.3,0.1c0.2,0,0.4-0.1,0.5-0.3c0.1-0.3,0-0.6-0.2-0.8l-4.9-2.6
			c-0.3-0.1-0.6,0-0.8,0.2C37.4,104.6,37.5,104.9,37.8,105.1z"/>
		<path class="st3" d="M42,114.6c0-0.3-0.3-0.6-0.6-0.5l-5.5,0.4c-0.2,0-0.3,0.1-0.4,0.2c-0.1,0.1-0.2,0.3-0.1,0.4
			c0,0.3,0.3,0.5,0.6,0.5l5.6-0.4C41.7,115.2,42,114.9,42,114.6z"/>
		<path class="st3" d="M44,122.4c-0.2,0-0.3,0-0.4,0.1l-4.5,3.2c-0.3,0.2-0.3,0.5-0.1,0.8c0.1,0.2,0.3,0.2,0.5,0.2
			c0.1,0,0.2,0,0.3-0.1l4.5-3.2c0.3-0.2,0.3-0.5,0.1-0.8C44.3,122.5,44.2,122.5,44,122.4z"/>
	</g>
	
		<radialGradient id="SVGID_5_" cx="1385.0999" cy="2559.8972" r="59.465" gradientTransform="matrix(0.5011 0 0 5.423031e-02 -636.9833 9.0966)" gradientUnits="userSpaceOnUse">
		<stop  offset="0.1034" style="stop-color:#E0E3E2"/>
		<stop  offset="0.2677" style="stop-color:#E9EBEA"/>
		<stop  offset="0.684" style="stop-color:#F9FAFA"/>
		<stop  offset="1" style="stop-color:#FFFFFF"/>
	</radialGradient>
	<ellipse class="st8" cx="57" cy="147.9" rx="42.1" ry="2.7"/>
	<path class="st9" d="M90.9,123.4c0,0-0.9,8.8-7.8,9.4c6.9,0.6,7.8,9.4,7.8,9.4s0.9-8.8,7.8-9.4C91.8,132.2,90.9,123.4,90.9,123.4z"
		/>
	<path class="st9" d="M103.9,104.8c0,0-0.6,5.8-5.2,6.2c4.6,0.4,5.2,6.2,5.2,6.2s0.6-5.8,5.2-6.2
		C104.5,110.7,103.9,104.8,103.9,104.8z"/>
</g>
<g>
	<ellipse class="st1" cx="80.3" cy="630.3" rx="32.1" ry="42.8"/>
	<g>
		<path class="st10" d="M57.3,676.5c0.2,1.2-0.1,2.3-0.8,3.3c-0.8,1-1.7,1.6-2.9,1.8c-0.9,0.1-1.7,0-2.4-0.6
			c-0.7-0.5-1.2-1.2-1.3-2.1c-0.2-1.2,0.1-2.3,0.9-3.4c0.8-1.1,1.8-1.7,2.9-1.9c0.9-0.1,1.7,0,2.4,0.6
			C56.7,674.8,57.1,675.5,57.3,676.5z M60.5,643c0.1,0.7,0,1.9-0.5,3.5c-0.3,1.2-1,4-1.8,8.5c-0.9,4.5-1.4,7.2-1.6,8.3
			c-0.2,1.1-0.3,2.3-0.3,3.8c0,1.2-0.7,1.8-2,2.1c-1.7,0.3-2.7-0.4-3-2.1c-0.3-1.8,0.2-5.3,1.4-10.7c1.3-5.4,2.3-9.1,3.1-11.2
			c0.8-2.1,1.8-3.2,2.8-3.3C59.7,641.6,60.3,642,60.5,643z"/>
	</g>
	
		<radialGradient id="SVGID_6_" cx="1120.4717" cy="5569.5493" r="59.465" gradientTransform="matrix(0.5538 0 0 4.348000e-02 -533.9731 397.4245)" gradientUnits="userSpaceOnUse">
		<stop  offset="0.1034" style="stop-color:#E0E3E2"/>
		<stop  offset="0.2677" style="stop-color:#E9EBEA"/>
		<stop  offset="0.684" style="stop-color:#F9FAFA"/>
		<stop  offset="1" style="stop-color:#FFFFFF"/>
	</radialGradient>
	<ellipse class="st11" cx="86.5" cy="639.6" rx="46.5" ry="2.2"/>
</g>
<g>
	<ellipse class="st1" cx="251.2" cy="771.2" rx="23" ry="31.2"/>
	<g>
		<g>
			<path class="st3" d="M262.5,749.7h-18.9c0,0,0,0,0,0c0,0,0,0,0,0c0,0-0.1,0-0.1,0c0,0,0,0,0,0c0,0-0.1,0-0.1,0c0,0,0,0,0,0
				c0,0,0,0-0.1,0c0,0,0,0,0,0c0,0,0,0-0.1,0c0,0,0,0,0,0c0,0,0,0-0.1,0.1c0,0,0,0,0,0l-6.8,6.8c0,0,0,0,0,0c0,0,0,0-0.1,0.1
				c0,0,0,0,0,0c0,0,0,0,0,0.1c0,0,0,0,0,0c0,0,0,0,0,0.1c0,0,0,0,0,0c0,0,0,0.1,0,0.1c0,0,0,0,0,0c0,0,0,0.1,0,0.1c0,0,0,0,0,0
				c0,0,0,0,0,0v29.7c0,1.1,0.9,2,2,2h24.3c1.1,0,2-0.9,2-2v-35.1C264.5,750.6,263.6,749.7,262.5,749.7z M242.9,751.9v3.9
				c0,0.4-0.3,0.7-0.7,0.7h-3.9L242.9,751.9z M263.2,786.8c0,0.4-0.3,0.7-0.7,0.7h-24.3c-0.4,0-0.7-0.3-0.7-0.7v-29.1h4.8
				c1.1,0,2-0.9,2-2V751h18.3c0.4,0,0.7,0.3,0.7,0.7V786.8z"/>
			<path class="st3" d="M242.2,767.9h16.2c0.3,0,0.6-0.3,0.6-0.6c0-0.3-0.3-0.6-0.6-0.6h-16.2c-0.3,0-0.6,0.3-0.6,0.6
				C241.6,767.6,241.9,767.9,242.2,767.9z"/>
			<path class="st3" d="M242.2,771.3h16.2c0.3,0,0.6-0.3,0.6-0.6c0-0.3-0.3-0.6-0.6-0.6h-16.2c-0.3,0-0.6,0.3-0.6,0.6
				C241.6,771,241.9,771.3,242.2,771.3z"/>
			<path class="st3" d="M242.2,774.6h8.1c0.3,0,0.6-0.3,0.6-0.6s-0.3-0.6-0.6-0.6h-8.1c-0.3,0-0.6,0.3-0.6,0.6
				S241.9,774.6,242.2,774.6z"/>
			<path class="st3" d="M251,777.4c0-0.3-0.3-0.6-0.6-0.6h-8.1c-0.3,0-0.6,0.3-0.6,0.6s0.3,0.6,0.6,0.6h8.1
				C250.7,778,251,777.7,251,777.4z"/>
			<path class="st3" d="M253.7,760.7c0-0.3-0.3-0.6-0.6-0.6c-0.3,0-0.6,0.3-0.6,0.6c0,1.2,1.1,2.2,2.7,2.4v0.1
				c0,0.3,0.3,0.6,0.6,0.6c0.3,0,0.6-0.3,0.6-0.6v-0.1c1.6-0.2,2.7-1.2,2.7-2.4s-1.1-2.2-2.7-2.4v-2.4c0.8,0.2,1.4,0.6,1.4,1.2
				c0,0.3,0.3,0.6,0.6,0.6c0.3,0,0.6-0.3,0.6-0.6c0-1.2-1.1-2.2-2.7-2.4v-0.1c0-0.3-0.3-0.6-0.6-0.6c-0.3,0-0.6,0.3-0.6,0.6v0.1
				c-1.6,0.2-2.7,1.2-2.7,2.4c0,1.2,1.1,2.2,2.7,2.4v2.4C254.3,761.7,253.7,761.2,253.7,760.7z M257.8,760.7c0,0.6-0.7,1-1.4,1.2
				v-2.3C257.1,759.7,257.8,760.1,257.8,760.7z M253.7,756.9c0-0.6,0.7-1,1.4-1.2v2.3C254.3,757.9,253.7,757.5,253.7,756.9z"/>
			<path class="st3" d="M259.7,776.8c-0.3-0.2-0.7-0.1-0.9,0.2l-1.3,2.3l-0.2-0.1c-0.2-0.1-0.3-0.2-0.5-0.1c-0.2,0-0.3,0.2-0.4,0.3
				l-0.7,1.3l-0.2-0.2c-0.3-0.4-0.8-0.5-1.2-0.4c-0.5,0.1-0.8,0.4-1,0.9l-0.7,2.1l-1.7-2.2c-0.1-0.1-0.3-0.2-0.4-0.2
				c-0.2,0-0.3,0-0.5,0.2l-1.8,1.6c-0.3,0.2-0.3,0.6-0.1,0.9c0.2,0.3,0.6,0.3,0.9,0.1l1.3-1.2l1.7,2.1c0.2,0.2,0.5,0.4,0.8,0.4
				c0.1,0,0.1,0,0.2,0c0.3-0.1,0.6-0.3,0.8-0.6l0.9-2.6c0,0,0,0,0,0c0,0,0,0,0,0l0.8,1c0.1,0.2,0.3,0.2,0.6,0.2
				c0.2,0,0.4-0.2,0.5-0.3l0.7-1.5l0.1,0.1c0.1,0.1,0.3,0.2,0.5,0.1c0.2,0,0.3-0.1,0.4-0.3l1.7-2.9C260.1,777.3,260,777,259.7,776.8
				z"/>
		</g>
	</g>
	
		<radialGradient id="SVGID_7_" cx="1416.4255" cy="5923.4917" r="59.465" gradientTransform="matrix(0.5538 0 0 4.348000e-02 -533.9731 535.9293)" gradientUnits="userSpaceOnUse">
		<stop  offset="0.1034" style="stop-color:#E0E3E2"/>
		<stop  offset="0.2677" style="stop-color:#E9EBEA"/>
		<stop  offset="0.684" style="stop-color:#F9FAFA"/>
		<stop  offset="1" style="stop-color:#FFFFFF"/>
	</radialGradient>
	<ellipse class="st12" cx="250.4" cy="793.5" rx="46.5" ry="2.2"/>
	<path class="st9" d="M272.8,774.9c0,0-0.9,8.8-7.8,9.4c6.9,0.6,7.8,9.4,7.8,9.4s0.9-8.8,7.8-9.4
		C273.7,783.7,272.8,774.9,272.8,774.9z"/>
	<path class="st9" d="M278.1,751.3c0,0-0.6,5.8-5.2,6.2c4.6,0.4,5.2,6.2,5.2,6.2s0.6-5.8,5.2-6.2
		C278.7,757.1,278.1,751.3,278.1,751.3z"/>
</g>
<g>
	<ellipse class="st1" cx="84.1" cy="480.4" rx="32.1" ry="35.9"/>
	<g>
		<path class="st3" d="M85.6,481.9L85.6,481.9c-0.4-0.3-0.8-0.6-1.3-0.7l-0.2-0.1l-0.1-0.2c-0.2-0.5-0.5-0.9-0.9-1.2
			c-0.6-0.5-1.4-0.8-2.1-0.8c-0.1,0-0.1,0-0.2,0c-1.8,0.1-3.1,1.6-3,3.4l0.2,4.7c0,0.2,0.1,0.4,0.3,0.6c0.2,0.2,0.4,0.2,0.6,0.2
			l4.7-0.2c1.8-0.1,3.1-1.6,3-3.4C86.6,483.2,86.2,482.4,85.6,481.9z M84.5,485.2c-0.3,0.3-0.6,0.5-1,0.5l-3.8,0.2l-0.2-3.8
			c0-0.8,0.6-1.5,1.4-1.5c0.4,0,0.8,0.1,1.1,0.4c0.3,0.3,0.5,0.6,0.5,1c0,0.2,0.1,0.4,0.3,0.6c0.2,0.2,0.4,0.2,0.6,0.2
			c0.4,0,0.8,0.1,1.1,0.4c0.3,0.3,0.5,0.6,0.5,1C84.9,484.6,84.8,484.9,84.5,485.2z"/>
		<path class="st3" d="M93.7,472.9c-0.4-0.3-0.8-0.6-1.3-0.7l-0.2-0.1l-0.1-0.2c-0.2-0.5-0.5-0.9-0.9-1.2c-0.6-0.5-1.4-0.8-2.1-0.8
			c-0.1,0-0.1,0-0.2,0c-1.8,0.1-3.1,1.6-3,3.4l0.2,4.7c0,0.2,0.1,0.4,0.3,0.6c0.2,0.2,0.4,0.2,0.6,0.2l4.7-0.2
			c1.8-0.1,3.1-1.6,3-3.4C94.7,474.2,94.4,473.5,93.7,472.9z M91.6,476.7l-3.8,0.2l-0.2-3.8c0-0.4,0.1-0.8,0.4-1.1s0.6-0.5,1-0.5
			c0.4,0,0.8,0.1,1.1,0.4c0.3,0.3,0.5,0.6,0.5,1c0,0.2,0.1,0.4,0.3,0.6c0.2,0.2,0.4,0.2,0.6,0.2c0.4,0,0.8,0.1,1.1,0.4
			c0.3,0.3,0.5,0.6,0.5,1C93.1,476,92.5,476.7,91.6,476.7z"/>
		<path class="st3" d="M105.4,457.5c-0.2-0.2-0.4-0.2-0.7-0.2c-11.5,1.4-22,7.6-28.7,17l-2.6,3.6l-13.4,5c-0.2,0.1-0.3,0.2-0.4,0.4
			l-4.8,8.1c-0.2,0.3-0.2,0.6,0,0.8c0,0.1,0.1,0.2,0.2,0.3c0.1,0.1,0.3,0.2,0.5,0.2l8,0.9l4.6,4.1l-2.7,3c-0.3,0.4-0.3,0.9,0.1,1.2
			c0.2,0.2,0.4,0.2,0.6,0.2c0.2,0,0.4-0.1,0.6-0.3l2.7-3l4.6,4.1l1.7,7.8c0,0.2,0.1,0.3,0.3,0.5c0.1,0.1,0.2,0.1,0.3,0.2
			c0.3,0.1,0.6,0.1,0.8-0.1l7.5-5.5c0.2-0.1,0.3-0.3,0.3-0.5l3.6-13.8l3.3-3c8.7-7.7,13.8-18.7,14-30.3
			C105.7,457.9,105.6,457.6,105.4,457.5z M63.4,491.7L57,491l3.9-6.6l10.6-4L63.4,491.7z M83.2,504.5L77,509l-1.3-6.3l10.4-9.2
			L83.2,504.5z M101.4,471.5c-2.3,6-6,11.4-10.8,15.6l-15.9,14.1l-4.2-3.8l5.3-5.9c0.2-0.2,0.2-0.4,0.2-0.6c0-0.2-0.1-0.4-0.3-0.6
			c-0.4-0.3-0.9-0.3-1.2,0.1l-5.3,5.9l-4.2-3.8l12.4-17.3c3.7-5.2,8.7-9.4,14.5-12.3l0.4-0.2l0.2,0.4c0.8,1.9,1.9,3.6,3.4,4.9
			c1.5,1.4,3.3,2.4,5.2,2.9l0.4,0.1L101.4,471.5z M103.9,459.6c-0.2,3.2-0.8,6.4-1.7,9.5l-0.1,0.4l-0.4-0.1
			c-1.7-0.5-3.3-1.4-4.7-2.6c-1.3-1.2-2.4-2.7-3-4.4l-0.1-0.4l0.4-0.2c3-1.3,6.1-2.2,9.2-2.7l0.5-0.1L103.9,459.6z"/>
	</g>
	<path class="st13" d="M140,468.2c-0.4-1.7-2-3-3.8-3c-0.3,0-0.7,0-1,0.1c-0.9-2-2.9-3.3-5.2-3.3c-0.6,0-1.2,0.1-1.7,0.3
		c-1.2-2.1-3.5-3.4-6.1-3.4c-3.1,0-5.7,2-6.7,4.7c-0.7-0.4-1.5-0.6-2.4-0.6c-2.7,0-4.9,2.2-4.9,4.9c0,0.2,0,0.3,0,0.5H140z"/>
	<path class="st13" d="M73.3,474.9c-0.4-1.6-1.8-2.9-3.6-2.9c-0.3,0-0.6,0-0.9,0.1c-0.9-1.8-2.7-3.1-4.9-3.1c-0.6,0-1.1,0.1-1.6,0.2
		c-1.2-1.9-3.3-3.2-5.7-3.2c-2.9,0-5.3,1.8-6.3,4.4c-0.7-0.4-1.4-0.6-2.2-0.6c-2.5,0-4.6,2.1-4.6,4.6c0,0.1,0,0.3,0,0.4H73.3z"/>
	<path class="st9" d="M78.6,520.6c0,0-0.4,3.8-3.4,4.1c3,0.3,3.4,4.1,3.4,4.1s0.4-3.8,3.4-4.1C78.9,524.4,78.6,520.6,78.6,520.6z"/>
</g>
<g>
	<g>
		<g>
			
				<radialGradient id="SVGID_8_" cx="1216.7081" cy="6304.999" r="72.6794" gradientTransform="matrix(0.5538 0 0 4.348000e-02 -533.9731 685.2208)" gradientUnits="userSpaceOnUse">
				<stop  offset="0.1034" style="stop-color:#E0E3E2"/>
				<stop  offset="0.2677" style="stop-color:#E9EBEA"/>
				<stop  offset="0.684" style="stop-color:#F9FAFA"/>
				<stop  offset="1" style="stop-color:#FFFFFF"/>
			</radialGradient>
			<ellipse class="st14" cx="139.8" cy="959.4" rx="56.8" ry="2.7"/>
			<g>
				<g>
					<path class="st15" d="M138.2,914.4c1.7,4.7,6.2,8,11.4,8c5.3,0,9.7-3.3,11.4-8"/>
					<g>
						<path class="st16" d="M146.6,906.8c0,0.8-0.7,1.5-1.5,1.5c-0.8,0-1.5-0.7-1.5-1.5c0-0.8,0.7-1.5,1.5-1.5
							C145.9,905.3,146.6,906,146.6,906.8z"/>
						<path class="st16" d="M155.7,906.8c0,0.8-0.7,1.5-1.5,1.5c-0.8,0-1.5-0.7-1.5-1.5c0-0.8,0.7-1.5,1.5-1.5
							C155,905.3,155.7,906,155.7,906.8z"/>
					</g>
				</g>
				<g>
					<path class="st17" d="M133.2,932.6c-1.4,3.8-5.1,6.6-9.4,6.6c-4.3,0-8-2.7-9.4-6.6"/>
					<g>
						<path class="st18" d="M126.3,926.3c0,0.7,0.6,1.2,1.2,1.2s1.2-0.6,1.2-1.2c0-0.7-0.6-1.2-1.2-1.2S126.3,925.6,126.3,926.3z"/>
						<path class="st18" d="M118.8,926.3c0,0.7,0.6,1.2,1.2,1.2c0.7,0,1.2-0.6,1.2-1.2c0-0.7-0.6-1.2-1.2-1.2
							C119.4,925.1,118.8,925.6,118.8,926.3z"/>
					</g>
					<circle class="st19" cx="123.8" cy="931" r="16.8"/>
				</g>
				<g>
					<g>
						<path class="st20" d="M139.7,941.2c0.9,2.4,3.2,4.1,5.9,4.1c2.7,0,5.1-1.7,5.9-4.1"/>
						<g>
							<path class="st21" d="M144.1,937.3c0,0.4-0.4,0.8-0.8,0.8c-0.4,0-0.8-0.4-0.8-0.8c0-0.4,0.4-0.8,0.8-0.8
								C143.7,936.5,144.1,936.8,144.1,937.3z"/>
							<path class="st21" d="M148.8,937.3c0,0.4-0.4,0.8-0.8,0.8c-0.4,0-0.8-0.4-0.8-0.8c0-0.4,0.4-0.8,0.8-0.8
								C148.4,936.5,148.8,936.8,148.8,937.3z"/>
						</g>
					</g>
				</g>
				<circle class="st22" cx="148.7" cy="911.5" r="20.1"/>
				<circle class="st23" cx="146.1" cy="939.8" r="10.6"/>
			</g>
		</g>
	</g>
</g>
<g>
	<polygon class="st27" points="151.7,39.2 139.6,39.2 139.6,27.1 127.9,27.1 127.9,39.2 115.8,39.2 115.8,51 127.9,51 127.9,63.1 
		139.6,63.1 139.6,51 151.7,51 	"/>
	
		<radialGradient id="SVGID_9_" cx="6529.6147" cy="2410.0181" r="59.465" gradientTransform="matrix(0.296 0 0 5.423031e-02 -1797.647 -64.0554)" gradientUnits="userSpaceOnUse">
		<stop  offset="0.1034" style="stop-color:#E0E3E2"/>
		<stop  offset="0.2677" style="stop-color:#E9EBEA"/>
		<stop  offset="0.684" style="stop-color:#F9FAFA"/>
		<stop  offset="1" style="stop-color:#FFFFFF"/>
	</radialGradient>
	<ellipse class="st28" cx="134.9" cy="66.6" rx="24.8" ry="2.7"/>
</g>
<path class="st9" d="M155.2,27c0,0-0.6,5.8-5.2,6.2c4.6,0.4,5.2,6.2,5.2,6.2s0.6-5.8,5.2-6.2C155.8,32.8,155.2,27,155.2,27z"/>
<path class="st9" d="M164,38.1c0,0-0.4,3.6-3.2,3.9c2.9,0.3,3.2,3.9,3.2,3.9s0.4-3.6,3.2-3.9C164.4,41.8,164,38.1,164,38.1z"/>
<path class="st0" d="M177.4,103.9c12.6,1.2,33.5,5,55.4,18c12.9,7.7,22.4,16.3,29,23.4"/>
<path class="st29" d="M61.2,590.2l41.4,18.6l-41.4,18.8l0.1-16.1l33-2.5l-33.1-2.6C61.1,606.3,61.1,590.1,61.2,590.2z"/>
<radialGradient id="SVGID_10_" cx="1137.0684" cy="5294.3081" r="59.0436" gradientTransform="matrix(0.5538 0 0 4.348000e-02 -533.9731 289.7173)" gradientUnits="userSpaceOnUse">
	<stop  offset="0.1034" style="stop-color:#E0E3E2"/>
	<stop  offset="0.2677" style="stop-color:#E9EBEA"/>
	<stop  offset="0.684" style="stop-color:#F9FAFA"/>
	<stop  offset="1" style="stop-color:#FFFFFF"/>
</radialGradient>
<ellipse class="st31" cx="95.7" cy="519.9" rx="46.2" ry="2.2"/>
<text transform="matrix(1 0 0 1 110.1034 82.2057)" class="st35 st71 st72">You need </text>
<text transform="matrix(1 0 0 1 45.4409 315.4992)"><tspan x="0" y="0" class="st35 st71 st72">Platfom </tspan><tspan x="0" y="18.6" class="st35 st73 st74">APPROVAL</tspan></text>
<text transform="matrix(1 0 0 1 110.4383 98.1021)" class="st35 st73 st74">Treatment</text>
<text transform="matrix(1 0 0 1 209.8315 217.0076)" class="st35 st71 st72">Create a </text>
<text transform="matrix(1 0 0 1 210.1665 232.9041)" class="st35 st73 st74">CAMPAIGN</text>
<text transform="matrix(1 0 0 1 193.7147 587.7962)" class="st35 st71 st72">Funds </text>
<text transform="matrix(1 0 0 1 58.5981 662.9505)" class="st35 st71 st72">Funds </text>
<text transform="matrix(1 0 0 1 194.0496 603.6927)" class="st35 st73 st74">COLLECTION</text>
<text transform="matrix(1 0 0 1 59.3608 679.7015)" class="st35 st73 st74">TRansaction</text>
<text transform="matrix(1 0 0 1 182.9117 914.3977)"><tspan x="0" y="0" class="st35 st75 st76">YOU</tspan><tspan x="0" y="31.1" class="st35 st75 st76">Made It</tspan></text>
<text transform="matrix(1 0 0 1 189.59 818.5253)" class="st35 st71 st72">Clear view</text>
<text transform="matrix(1 0 0 1 190.3517 835.2763)" class="st35 st73 st74">REPORTING</text>
<g>
	<text transform="matrix(1 0 0 1 27.2629 171.4526)"><tspan x="0" y="0" class="st35 st71 st72">You have an </tspan><tspan x="0" y="18.6" class="st35 st73 st74">IDEA </tspan><tspan x="44.5" y="18.6" class="st35 st71 st72">for </tspan><tspan x="0" y="32.1" class="st35 st71 st72">social impact </tspan></text>
</g>
<text transform="matrix(1 0 0 1 220.0878 378.6996)" class="st35 st73 st74">APPROVAL</text>
<text transform="matrix(1 0 0 1 55.137 534.1381)" class="st35 st73 st74">START</text>
</svg>
