<svg xmlns="http://www.w3.org/2000/svg" xmlns:xlink="http://www.w3.org/1999/xlink" viewBox="0 0 318 1020.57">
    <defs>
        <style>.cls-1{isolation:isolate;}.cls-11,.cls-14,.cls-15,.cls-16,.cls-2,.cls-27,.cls-30,.cls-34,.cls-35,.cls-7,.cls-9{mix-blend-mode:darken;opacity:0.9;}.cls-2{fill:url(#radial-gradient);}.cls-3{fill:#3fa9f5;}.cls-4{fill:#ffcb57;}.cls-5{fill:#d8f2ff;}.cls-12,.cls-24,.cls-25,.cls-5,.cls-6{mix-blend-mode:multiply;}.cls-6{fill:#fff9db;}.cls-7{fill:url(#radial-gradient-2);}.cls-17,.cls-19,.cls-21,.cls-22,.cls-24,.cls-25,.cls-26,.cls-28,.cls-29,.cls-31,.cls-32,.cls-33,.cls-8{fill:none;}.cls-17,.cls-24,.cls-8{stroke:#ff7db9;}.cls-17,.cls-19,.cls-22,.cls-25,.cls-26,.cls-33,.cls-8{stroke-linecap:round;}.cls-17,.cls-19,.cls-21,.cls-22,.cls-24,.cls-25,.cls-26,.cls-33,.cls-8{stroke-linejoin:round;}.cls-8{stroke-width:1.48px;stroke-dasharray:2.95 5.41;}.cls-9{fill:url(#radial-gradient-3);}.cls-10{fill:#32a9fe;}.cls-11{fill:url(#radial-gradient-4);}.cls-13{fill:#ffd7e9;}.cls-14{fill:url(#radial-gradient-5);}.cls-15{fill:url(#radial-gradient-6);}.cls-16{fill:url(#radial-gradient-7);}.cls-17,.cls-19,.cls-21,.cls-24{stroke-width:2.25px;}.cls-18{fill:#ff7db9;}.cls-19,.cls-21,.cls-26,.cls-28,.cls-29,.cls-31,.cls-32,.cls-33{stroke:#ffcb57;}.cls-20{fill:#ffcb00;}.cls-22,.cls-25{stroke:#49c4ff;}.cls-22{stroke-width:1.77px;}.cls-23{fill:#49c4ff;}.cls-25{stroke-width:1.73px;}.cls-26{stroke-width:1.66px;}.cls-27{fill:url(#radial-gradient-8);}.cls-28,.cls-29,.cls-31,.cls-32{stroke-miterlimit:10;}.cls-28{stroke-width:1.66px;}.cls-29{stroke-width:1.42px;}.cls-30{fill:url(#radial-gradient-9);}.cls-31,.cls-33{stroke-width:1.4px;}.cls-34{fill:url(#radial-gradient-10);}.cls-35{fill:url(#radial-gradient-11);}</style>
        <radialGradient id="radial-gradient" cx="-1238.58" cy="4614.36" r="59.46" gradientTransform="translate(955.85 191.44) scale(0.55 0.04)" gradientUnits="userSpaceOnUse">
            <stop offset="0.1" stop-color="#e0e3e2" />
            <stop offset="0.27" stop-color="#e9ebea" />
            <stop offset="0.68" stop-color="#f9fafa" />
            <stop offset="1" stop-color="#fff" />
        </radialGradient>
        <radialGradient id="radial-gradient-2" cx="-1553.63" cy="5022.82" r="59.04" gradientTransform="translate(955.85 351.28) scale(0.55 0.04)" xlink:href="#radial-gradient" />
        <radialGradient id="radial-gradient-3" cx="-1291.23" cy="4303.87" r="59.46" gradientTransform="translate(955.85 69.94) scale(0.55 0.04)" xlink:href="#radial-gradient" />
        <radialGradient id="radial-gradient-4" cx="-747.8" cy="2854.41" r="59.46" gradientTransform="translate(721.32 453.84) scale(0.64 0.06)" xlink:href="#radial-gradient" />
        <radialGradient id="radial-gradient-5" cx="-1575.74" cy="5325.95" r="59.46" gradientTransform="translate(955.85 469.9) scale(0.55 0.04)" xlink:href="#radial-gradient" />
        <radialGradient id="radial-gradient-6" cx="-1327.57" cy="5656.14" r="59.46" gradientTransform="translate(955.85 599.11) scale(0.55 0.04)" xlink:href="#radial-gradient" />
        <radialGradient id="radial-gradient-7" cx="-1473.99" cy="6033.51" r="72.68" gradientTransform="translate(955.85 746.78) scale(0.55 0.04)" xlink:href="#radial-gradient" />
        <radialGradient id="radial-gradient-8" cx="-1606.91" cy="4535.87" r="59.46" gradientTransform="translate(955.85 160.73) scale(0.55 0.04)" xlink:href="#radial-gradient" />
        <radialGradient id="radial-gradient-9" cx="-1413.74" cy="2251.2" r="59.46" gradientTransform="translate(553.06 -5.69) scale(0.3 0.05)" xlink:href="#radial-gradient" />
        <radialGradient id="radial-gradient-10" cx="-1536.94" cy="3865.61" r="57.87" gradientTransform="translate(989.68 -101.56) scale(0.49 0.04)" xlink:href="#radial-gradient" />
        <radialGradient id="radial-gradient-11" cx="-1940.29" cy="2401.08" r="59.46" gradientTransform="translate(1028.95 67.46) scale(0.5 0.05)" xlink:href="#radial-gradient" />
    </defs>
    <g class="cls-1">
        <g id="Layer_1" data-name="Layer 1">
            <g id="BG_mobile" data-name="BG mobile">
                <ellipse class="cls-2" cx="269.93" cy="392.07" rx="46.49" ry="2.18" />
                <path class="cls-3" d="M20.77,388.67a2.55,2.55,0,0,1-1.05-1,2.74,2.74,0,0,1,1.05-3.85,3.5,3.5,0,0,1,3.05,0,2.8,2.8,0,0,1,1.05,3.85,2.68,2.68,0,0,1-1.05,1,3.41,3.41,0,0,1-3.05,0Zm2.51-1.33a1.49,1.49,0,0,0,.39-1.08,1.52,1.52,0,0,0-.39-1.09,1.29,1.29,0,0,0-1-.4,1.31,1.31,0,0,0-1,.4,1.52,1.52,0,0,0-.39,1.09,1.49,1.49,0,0,0,.39,1.08,1.32,1.32,0,0,0,1,.41A1.3,1.3,0,0,0,23.28,387.34Z" />
                <path class="cls-3" d="M30.09,384.85H28.27V389H26.72v-4.1H24.9v-1.28h5.19Z" />
                <path class="cls-4" d="M85.32,531.62h0A3.26,3.26,0,0,0,84,530.9l-.2-.06-.08-.19a3.13,3.13,0,0,0-.85-1.25,3.18,3.18,0,0,0-2.15-.83h-.17a3.22,3.22,0,0,0-3,3.37l.24,4.67a.89.89,0,0,0,.28.6.87.87,0,0,0,.63.23l4.68-.24a3.21,3.21,0,0,0,2-5.59ZM84.26,535a1.48,1.48,0,0,1-1,.49l-3.81.19-.2-3.81a1.48,1.48,0,0,1,1.4-1.55,1.47,1.47,0,0,1,1.55,1.4.84.84,0,0,0,.29.6.88.88,0,0,0,.62.22,1.47,1.47,0,0,1,1.07.38,1.45,1.45,0,0,1,.48,1A1.44,1.44,0,0,1,84.26,535Z" />
                <path class="cls-4" d="M93.43,522.63a3.09,3.09,0,0,0-1.33-.72l-.2,0-.07-.2a3.18,3.18,0,0,0-3-2.07h-.17a3.21,3.21,0,0,0-3,3.37l.24,4.68a.87.87,0,0,0,.28.6.9.9,0,0,0,.63.22l4.68-.24a3.21,3.21,0,0,0,2-5.59Zm-2.07,3.86-3.82.19-.19-3.81a1.48,1.48,0,0,1,.38-1.06,1.44,1.44,0,0,1,1-.49,1.46,1.46,0,0,1,1.06.38,1.44,1.44,0,0,1,.49,1,.87.87,0,0,0,.28.6.86.86,0,0,0,.63.22,1.48,1.48,0,1,1,.15,3Z" />
                <path class="cls-4" d="M105.12,507.22a.84.84,0,0,0-.68-.22A41.65,41.65,0,0,0,75.7,524l-2.61,3.63-13.36,5a.88.88,0,0,0-.44.37l-4.75,8a.87.87,0,0,0,0,.83.83.83,0,0,0,.19.26.91.91,0,0,0,.49.22l8,.87,4.57,4.13-2.67,3a.86.86,0,0,0,.06,1.22.89.89,0,0,0,.62.23.84.84,0,0,0,.6-.29l2.68-3,4.57,4.13,1.68,7.84a.82.82,0,0,0,.26.46,1,1,0,0,0,.28.17.87.87,0,0,0,.82-.12l7.53-5.54a.93.93,0,0,0,.32-.48l3.62-13.79,3.34-3a41.64,41.64,0,0,0,14-30.31A.88.88,0,0,0,105.12,507.22Zm-42,34.23-6.41-.7,3.91-6.63,10.64-4Zm19.75,12.77-6.2,4.56-1.35-6.31,10.43-9.24Zm18.2-33a40,40,0,0,1-10.79,15.65L74.39,551l-4.21-3.8,5.31-5.88a.83.83,0,0,0,.22-.62.85.85,0,0,0-.28-.6.88.88,0,0,0-1.23.06L68.9,546l-4.21-3.8L77.11,525a40,40,0,0,1,14.47-12.32l.39-.2.17.41a13.36,13.36,0,0,0,8.67,7.83l.42.13Zm2.54-11.89a39.69,39.69,0,0,1-1.71,9.46l-.11.38-.38-.11a11.62,11.62,0,0,1-7.72-7l-.15-.37.36-.15a40,40,0,0,1,9.24-2.66l.5-.07Z" />
                <path class="cls-5" d="M139.77,517.93a3.92,3.92,0,0,0-3.82-3,4,4,0,0,0-1,.12A5.77,5.77,0,0,0,128,512a7.12,7.12,0,0,0-12.78,1.24,4.87,4.87,0,0,0-7.25,4.26,3.59,3.59,0,0,0,0,.47Z" />
                <path class="cls-5" d="M73,524.66a3.67,3.67,0,0,0-3.58-2.85,3.59,3.59,0,0,0-.93.12A5.4,5.4,0,0,0,62,519.05a6.68,6.68,0,0,0-12,1.16,4.65,4.65,0,0,0-2.23-.57,4.58,4.58,0,0,0-4.58,4.58c0,.15,0,.29,0,.44Z" />
                <path class="cls-6" d="M78.27,570.35s-.39,3.84-3.42,4.1c3,.27,3.42,4.11,3.42,4.11s.39-3.84,3.42-4.11C78.66,574.19,78.27,570.35,78.27,570.35Z" />
                <ellipse class="cls-7" cx="95.46" cy="569.67" rx="46.16" ry="2.16" />
                <path class="cls-8" d="M194.06,835.62c-24.08,5.77-53.86,13.16-90.31,24.86-25.7,8.25-52.23,17.84-66.54,42.8-3.11,5.43-14.48,27-6.35,46.19,7.29,17.22,19.9,26.38,22.12,27.7,20.65,12.17,42,4.37,44.9,3.28" />
                <path class="cls-8" d="M50.25,693c-2.44,1.68-4.46,4.08-6.68,6.46-5.59,6-26,27.85-20.34,47.46,8.44,29.28,70.46,38.08,114.42,32.21,61.23-8.17,123.89-49.66,119.08-75.86-3.25-17.73-38.31-33.27-55.51-22.46-9.18,5.77-15.8,20.63-11.44,32.21,10,26.64,69,11.78,87.29,43.65,6.71,11.66,7.05,27.94,1.7,40.26s-16,19.41-33.34,25.31" />
                <path class="cls-8" d="M216.78,625.36a228.58,228.58,0,0,1-41.84,24.5,264.5,264.5,0,0,1-51,17.55" />
                <path class="cls-8" d="M115.61,496.45c36.39-24.89,87.15-6.42,96.63-3,15.58,5.67,47.07,17.14,53.82,43.65,2.83,11.14.46,21.66-3.25,30.71" />
                <path class="cls-8" d="M256.41,414.77c-17.83,5.73-46.12,6-94.18,10.06-78,6.59-91.74,13.37-102.56,22.88C36,468.49,30.22,499,27.47,513.4c-4.16,21.76-5.21,56.11,6.35,60.18,5.71,2,11.57-5.21,23.74-14.84" />
                <path class="cls-8" d="M119.18,390c35.37,5.12,55-47,109.16-46.92a97.19,97.19,0,0,1,17.58,1.71" />
                <path class="cls-8" d="M230,290.07a99.62,99.62,0,0,1-18.42,7.17c-15.25,4.16-30.34,3.75-41.81-3.62-6.55-4.2-30.86-16.35-39.79-20.93-20.29-10.4-50.86-3.61-60.6,10.17-3.54,5-5,8.85-5.44,16.14" />
                <path class="cls-8" d="M105.86,205.1c50-37.59,106.72-46.2,142.2-22,2.16,1.47,31,21.71,29.86,48.93a34,34,0,0,1-4.42,16.59" />
                <g id="Създайте_кампаниа" data-name="Създайте  кампаниа">
                    <path class="cls-4" d="M239.36,213.79h0m.17,3a13.12,13.12,0,0,1,1.73,7.49,9.15,9.15,0,0,1-4.24,6.88c2-4,2.74-8.35,2.51-14.37m-1.35-3.69c-.33,0-.52.29-.47.93.7,9-.24,14.18-4.32,19.93,4.46,0,9-4.17,9.52-9.53.5-6.21-3.36-11.33-4.73-11.33Z" />
                    <path class="cls-4" d="M248.8,213.79h0m.09,3.1a14.65,14.65,0,0,1,1.29,3.63c.59,2.79.88,8.33-3.82,14.16a1.66,1.66,0,0,0,1.91,2.58,18.84,18.84,0,0,0,8-7.09,16.62,16.62,0,0,1-.6,2.81,17.84,17.84,0,0,1-9.1,10.7,1.66,1.66,0,0,0,.76,3.13h.16a19.72,19.72,0,0,0,5.57-1.52,17.07,17.07,0,0,1-9,5.24,18.83,18.83,0,0,1-3.62.35c-5.82,0-10.72-2.58-13.1-6.9a16.77,16.77,0,0,1-1.65-6.58c-.32-2.88-.66-6.08-3.31-8.42a3.07,3.07,0,0,1,1.65-.47,3.56,3.56,0,0,1,2.33.9,6.59,6.59,0,0,1,1.66,3.31,5.6,5.6,0,0,0,2.59,4,6.49,6.49,0,0,0,3.2.79c3.26,0,7.17-2,9.74-5.07a25.27,25.27,0,0,0,5.36-15.52m9,10.27h0m-10.3-14.09c-.32,0-.5.3-.45.94.57,7.41-1.73,13.5-4.9,17.35-2.13,2.51-5.59,4.46-8.46,4.46a4.81,4.81,0,0,1-2.39-.58c-2.38-1.31-1.12-4.26-3.92-7a5.16,5.16,0,0,0-3.47-1.36,5,5,0,0,0-4.21,2.36c5.92,3.27,2.81,9.67,6.06,15.57,3,5.52,9,7.76,14.56,7.76a20.51,20.51,0,0,0,4-.38c8.95-1.79,14.1-10.82,12.37-10.82a2.26,2.26,0,0,0-1.13.57,18.14,18.14,0,0,1-8.29,3.25c11.95-6.26,11.49-19.32,9.74-19.32-.25,0-.52.26-.79.85a18,18,0,0,1-8.62,9c4.5-5.58,5.06-11.26,4.15-15.54s-3.21-7.11-4.2-7.11Z" />
                    <ellipse class="cls-9" cx="240.77" cy="257.07" rx="46.49" ry="2.18" />
                    <path class="cls-10" d="M216.44,279.69h-1v2.13h-1.25v-5.34h1.25v2.16h1l1.58-2.16h1.34l-1.94,2.58,2.07,2.76h-1.47Z" />
                    <path class="cls-10" d="M223.94,277a2.18,2.18,0,0,1,.63,1.7v3.13h-1.18v-.65a1.37,1.37,0,0,1-.66.54,2.59,2.59,0,0,1-1,.18,2.46,2.46,0,0,1-1.05-.2,1.73,1.73,0,0,1-.7-.57,1.47,1.47,0,0,1-.24-.83,1.42,1.42,0,0,1,.53-1.15,2.67,2.67,0,0,1,1.69-.44h1.38v-.08a1,1,0,0,0-.34-.85,1.38,1.38,0,0,0-1-.31,3,3,0,0,0-.89.14,2.41,2.41,0,0,0-.73.39l-.49-.91a3.28,3.28,0,0,1,1-.49,4.6,4.6,0,0,1,1.25-.17A2.56,2.56,0,0,1,223.94,277Zm-1.14,3.78a1.14,1.14,0,0,0,.52-.62v-.62H222c-.72,0-1.08.24-1.08.71a.63.63,0,0,0,.27.54,1.19,1.19,0,0,0,.75.2A1.63,1.63,0,0,0,222.8,280.77Z" />
                    <path class="cls-10" d="M231.22,281.82v-3.54l-1.8,3h-.54l-1.77-3v3.55H226v-5.34h1.31l1.9,3.34,2-3.34h1.17v5.34Z" />
                    <path class="cls-10" d="M239,276.48v5.34h-1.24v-4.28h-2.63v4.28h-1.25v-5.34Z" />
                    <path class="cls-10" d="M244.33,277a2.18,2.18,0,0,1,.63,1.7v3.13h-1.18v-.65a1.37,1.37,0,0,1-.66.54,2.59,2.59,0,0,1-1,.18,2.46,2.46,0,0,1-1-.2,1.73,1.73,0,0,1-.7-.57,1.47,1.47,0,0,1-.24-.83,1.42,1.42,0,0,1,.53-1.15,2.67,2.67,0,0,1,1.69-.44h1.38v-.08a1,1,0,0,0-.34-.85,1.38,1.38,0,0,0-1-.31,3,3,0,0,0-.89.14,2.41,2.41,0,0,0-.73.39l-.49-.91a3.28,3.28,0,0,1,1-.49,4.6,4.6,0,0,1,1.25-.17A2.56,2.56,0,0,1,244.33,277Zm-1.14,3.78a1.14,1.14,0,0,0,.52-.62v-.62h-1.29c-.72,0-1.08.24-1.08.71a.63.63,0,0,0,.27.54,1.19,1.19,0,0,0,.75.2A1.63,1.63,0,0,0,243.19,280.77Z" />
                    <path class="cls-10" d="M246.36,276.48h1.25v2.17h2.69v-2.17h1.25v5.34H250.3v-2.11h-2.69v2.11h-1.25Z" />
                    <path class="cls-10" d="M253.08,276.48h1.25V280l2.95-3.52h1.14v5.34h-1.25v-3.51l-2.94,3.51h-1.15Z" />
                    <path class="cls-10" d="M264.46,276.48v5.34h-1.12v-1.61h-1.41l-1.09,1.61H259.5l1.26-1.78a1.76,1.76,0,0,1-.89-.61,1.89,1.89,0,0,1,.35-2.45,2.88,2.88,0,0,1,1.79-.5Zm-3.62,2q0,.9,1.17.9h1.33v-1.81h-1.29C261.24,277.53,260.84,277.84,260.84,278.44Z" />
                    <path class="cls-10" d="M208.37,270.88a4,4,0,0,1-1.55-1.55,4.74,4.74,0,0,1,0-4.47,4,4,0,0,1,1.55-1.55,4.66,4.66,0,0,1,4.08-.17,3.67,3.67,0,0,1,1.4,1.1l-1.18,1.15a2.5,2.5,0,0,0-2-1,2.55,2.55,0,0,0-1.32.34,2.42,2.42,0,0,0-.9.95,2.92,2.92,0,0,0-.32,1.4,2.88,2.88,0,0,0,.32,1.39,2.42,2.42,0,0,0,.9.95,2.55,2.55,0,0,0,1.32.34,2.48,2.48,0,0,0,2-1l1.18,1.15a3.76,3.76,0,0,1-1.41,1.12,4.53,4.53,0,0,1-1.87.38A4.39,4.39,0,0,1,208.37,270.88Z" />
                    <path class="cls-10" d="M222.36,266.34a2.56,2.56,0,0,1,.78,2,2.75,2.75,0,0,1-.86,2.18,3.56,3.56,0,0,1-2.42.75h-3.58v-6.82h-2.23v-1.59h4v2.77h2A3.21,3.21,0,0,1,222.36,266.34Zm-1.47,3.14a1.4,1.4,0,0,0,.39-1.08c0-.87-.5-1.3-1.52-1.3H218.1v2.75h1.66A1.59,1.59,0,0,0,220.89,269.48Z" />
                    <path class="cls-10" d="M229.73,267.7a2.06,2.06,0,0,1,.39,1.24,2,2,0,0,1-.47,1.34,3.08,3.08,0,0,1-1.29.86,5.12,5.12,0,0,1-1.78.3,6,6,0,0,1-1.63-.22,5.51,5.51,0,0,1-1.54-.66l.57-1.39a4,4,0,0,0,1.15.51,4.45,4.45,0,0,0,1.23.17,2.66,2.66,0,0,0,1.36-.31,1,1,0,0,0,.54-.87.78.78,0,0,0-.37-.71,1.8,1.8,0,0,0-1-.24h-1.95v-1.46h1.81a1.41,1.41,0,0,0,.87-.24.79.79,0,0,0,.31-.67.85.85,0,0,0-.45-.76,2.11,2.11,0,0,0-1.15-.28,4.13,4.13,0,0,0-1.08.15,4.28,4.28,0,0,0-1.06.45l-.55-1.51a5.57,5.57,0,0,1,2.72-.68,5,5,0,0,1,1.72.28,3.07,3.07,0,0,1,1.25.84,2,2,0,0,1,.16,2.36,2.1,2.1,0,0,1-.84.72A2.23,2.23,0,0,1,229.73,267.7Z" />
                    <path class="cls-10" d="M239.67,269.71V273H238V271.3h-5.61V273h-1.7v-3.33H231c.47,0,.81-.38,1-1.1a14.35,14.35,0,0,0,.36-3.09l.09-2.63h6.12v6.82Zm-5.93-1.49a3.44,3.44,0,0,1-.56,1.49h3.56v-5.23H234l0,1.22A19.28,19.28,0,0,1,233.74,268.22Z" />
                    <path class="cls-10" d="M246.25,269.5h-3.7l-.7,1.8H240l3.55-8.41h1.82l3.55,8.41H247Zm-.58-1.48-1.26-3.22L243.15,268Z" />
                    <path class="cls-10" d="M249.83,262.89h1.83v5.48l3.79-5.48h1.73v8.41h-1.82v-5.46l-3.79,5.46h-1.74Zm1.46-2.37h1.26c0,.58.33.87.95.87a1,1,0,0,0,.69-.22.86.86,0,0,0,.25-.65h1.26a1.72,1.72,0,0,1-.56,1.37,2.47,2.47,0,0,1-1.64.46C252,262.35,251.31,261.74,251.29,260.52Z" />
                    <path class="cls-10" d="M265.12,264.48h-2.54v6.82h-1.82v-6.82h-2.54v-1.59h6.9Z" />
                    <path class="cls-10" d="M272.32,269.74v1.56h-6.15v-8.41h6v1.57H268v1.82h3.69v1.51H268v1.95Z" />
                </g>
                <path class="cls-4" d="M246.1,607a8.18,8.18,0,1,0-9,0,13.11,13.11,0,0,0-8.57,12.27h2.18a10.91,10.91,0,1,1,21.81,0h2.18A13.1,13.1,0,0,0,246.1,607Zm-4.51-.82a6,6,0,1,1,6-6A6,6,0,0,1,241.59,606.17Z" />
                <path class="cls-4" d="M257,601.54a8.17,8.17,0,1,0-10.15-12.73,8.54,8.54,0,0,0-1.4,1.76,10.5,10.5,0,0,1,1.93,1,6.15,6.15,0,0,1,1.46-1.63,6,6,0,1,1,5.27,10.52,5.82,5.82,0,0,1-1.62.23,5.17,5.17,0,0,1-.57,0,10.64,10.64,0,0,1-.37,2.28c.31,0,.62-.07.94-.07a11.2,11.2,0,0,1,1.3.09,10.92,10.92,0,0,1,9.6,10.82h2.18A13.1,13.1,0,0,0,257,601.54Z" />
                <path class="cls-4" d="M230.69,602.9c.32,0,.62,0,.94.07a10.06,10.06,0,0,1-.37-2.28l-.57,0a5.77,5.77,0,0,1-1.62-.23,6,6,0,0,1,1.62-11.76,6,6,0,0,1,5.1,2.87,10.5,10.5,0,0,1,1.93-1,7.92,7.92,0,0,0-1.4-1.76,8.17,8.17,0,1,0-10.14,12.73,13.09,13.09,0,0,0-8.58,12.27h2.18a10.92,10.92,0,0,1,9.6-10.82A11.22,11.22,0,0,1,230.69,602.9Z" />
                <path class="cls-4" d="M264.64,593.91a8.17,8.17,0,1,0-11.54-11,11,11,0,0,1,1.92,1,5.84,5.84,0,0,1,1.47-1.62,5.94,5.94,0,0,1,3.64-1.25,6,6,0,0,1,2.49,11.44,8.4,8.4,0,0,1,.15,1.59,8.81,8.81,0,0,1-.13,1.46,10.9,10.9,0,0,1,8.4,10.59h2.18A13.09,13.09,0,0,0,264.64,593.91Z" />
                <path class="cls-4" d="M220.41,594.12a9.31,9.31,0,0,1,.15-1.59,6,6,0,1,1,6.14-10.19,5.8,5.8,0,0,1,1.46,1.62,11.1,11.1,0,0,1,1.93-1,8.54,8.54,0,0,0-1.4-1.76,8.17,8.17,0,1,0-10.15,12.73A13.09,13.09,0,0,0,210,606.17h2.18a10.9,10.9,0,0,1,8.39-10.59A10,10,0,0,1,220.41,594.12Z" />
                <path class="cls-4" d="M241.59,581.09a6,6,0,0,1,5.86,4.87,6.94,6.94,0,0,1,2.06-.88,8.17,8.17,0,0,0-15.84,0,6.82,6.82,0,0,1,2.06.88A6,6,0,0,1,241.59,581.09Z" />
                <ellipse class="cls-11" cx="243.65" cy="626.39" rx="53.62" ry="3.03" />
                <path class="cls-3" d="M214.21,662.05a2.67,2.67,0,0,1-1-1,2.79,2.79,0,0,1-.36-1.41,2.74,2.74,0,0,1,.36-1.41,2.57,2.57,0,0,1,1-1,3,3,0,0,1,1.46-.35,3,3,0,0,1,1.47.35,2.48,2.48,0,0,1,1,1,2.65,2.65,0,0,1,.37,1.41,2.7,2.7,0,0,1-.37,1.41,2.57,2.57,0,0,1-1,1,3.1,3.1,0,0,1-1.47.35A3.06,3.06,0,0,1,214.21,662.05Zm2.6-1.18a1.85,1.85,0,0,0,0-2.42,1.64,1.64,0,0,0-2.28,0,1.88,1.88,0,0,0,0,2.42,1.64,1.64,0,0,0,2.28,0Z" />
                <path class="cls-3" d="M223.23,658.05h-1.87v4.28h-1.25v-4.28h-1.88V657h5Z" />
                <path class="cls-3" d="M231.5,661.27v2.25h-1.17v-1.19h-4.12v1.19h-1.16v-2.25h.25q.51,0,.69-.66a7.79,7.79,0,0,0,.25-1.79l.07-1.83h4.4v4.28Zm-4.27-.86a1.61,1.61,0,0,1-.4.86h2.63v-3.22h-2.05l0,.86A12.15,12.15,0,0,1,227.23,660.41Z" />
                <path class="cls-3" d="M235.86,657.49a2.19,2.19,0,0,1,.63,1.71v3.13h-1.18v-.65a1.46,1.46,0,0,1-.66.53,2.58,2.58,0,0,1-1,.19,2.46,2.46,0,0,1-1-.21,1.73,1.73,0,0,1-.7-.57,1.46,1.46,0,0,1-.24-.82,1.44,1.44,0,0,1,.53-1.16,2.67,2.67,0,0,1,1.69-.43h1.38v-.08a1.07,1.07,0,0,0-.34-.86,1.43,1.43,0,0,0-1-.3,2.72,2.72,0,0,0-.89.14,2,2,0,0,0-.73.39l-.49-.91a2.8,2.8,0,0,1,1-.49,4.24,4.24,0,0,1,1.25-.17A2.57,2.57,0,0,1,235.86,657.49Zm-1.14,3.78a1.15,1.15,0,0,0,.52-.61V660H234c-.72,0-1.08.23-1.08.71a.65.65,0,0,0,.27.54,1.26,1.26,0,0,0,.75.2A1.63,1.63,0,0,0,234.72,661.27Z" />
                <path class="cls-3" d="M241.84,657.27a2.42,2.42,0,0,1,1,1,3.1,3.1,0,0,1,0,2.86,2.51,2.51,0,0,1-1,1,2.89,2.89,0,0,1-1.39.34,2.16,2.16,0,0,1-1.71-.72v2.59h-1.25V657h1.19v.7a1.78,1.78,0,0,1,.76-.57,2.56,2.56,0,0,1,1-.19A2.78,2.78,0,0,1,241.84,657.27Zm-.4,3.6a1.85,1.85,0,0,0,0-2.42,1.48,1.48,0,0,0-1.13-.46,1.57,1.57,0,0,0-.81.2,1.47,1.47,0,0,0-.57.59,1.76,1.76,0,0,0-.21.88,1.82,1.82,0,0,0,.21.88,1.51,1.51,0,0,0,.57.58,1.58,1.58,0,0,0,.81.21A1.51,1.51,0,0,0,241.44,660.87Z" />
                <path class="cls-3" d="M243.85,657h1.25v3.52l3-3.52h1.14v5.34h-1.25v-3.52L245,662.33h-1.15Z" />
                <path class="cls-3" d="M254.55,658.05h-1.87v4.28h-1.25v-4.28h-1.88V657h5Z" />
                <path class="cls-3" d="M259.66,660.06h-4.19a1.43,1.43,0,0,0,.57.93,1.9,1.9,0,0,0,1.16.35,2,2,0,0,0,1.45-.58l.67.77a2.33,2.33,0,0,1-.91.65,3.47,3.47,0,0,1-1.24.22,3.34,3.34,0,0,1-1.55-.35,2.59,2.59,0,0,1-1-1,2.79,2.79,0,0,1-.36-1.41,2.89,2.89,0,0,1,.35-1.41,2.5,2.5,0,0,1,1-1,3,3,0,0,1,2.81,0,2.42,2.42,0,0,1,1,1,3,3,0,0,1,.35,1.45C259.68,659.77,259.67,659.9,259.66,660.06Zm-3.7-1.78a1.52,1.52,0,0,0-.5,1h3a1.47,1.47,0,0,0-.49-.94,1.64,1.64,0,0,0-2,0Z" />
                <path class="cls-3" d="M265.27,657v5.34H264v-4.28h-2l0,1.06a11.15,11.15,0,0,1-.2,1.77,2.46,2.46,0,0,1-.49,1.13,1.15,1.15,0,0,1-.94.42,2.86,2.86,0,0,1-.69-.11l.06-1.05.24,0a.65.65,0,0,0,.57-.31,1.66,1.66,0,0,0,.24-.73c0-.28.07-.69.1-1.21L261,657Z" />
                <path class="cls-3" d="M266.4,657h1.25v3.52l3-3.52h1.14v5.34h-1.25v-3.52l-2.94,3.52H266.4Z" />
                <path class="cls-3" d="M214.73,640.34a3.51,3.51,0,0,1-1.34-1.28,3.62,3.62,0,0,1-.48-1.85,3.5,3.5,0,0,1,1.83-3.14,4,4,0,0,1,1.92-.46,4,4,0,0,1,1.57.3,3.26,3.26,0,0,1,1.2.87l-.84.79a2.44,2.44,0,0,0-1.87-.82,2.62,2.62,0,0,0-1.29.31,2.22,2.22,0,0,0-.89.88,2.52,2.52,0,0,0-.32,1.27,2.58,2.58,0,0,0,.32,1.27,2.26,2.26,0,0,0,.89.87,2.62,2.62,0,0,0,1.29.32,2.45,2.45,0,0,0,1.87-.83l.84.8a3.21,3.21,0,0,1-1.21.87,4.2,4.2,0,0,1-3.49-.17Z" />
                <path class="cls-3" d="M224.76,637.58a1.83,1.83,0,0,1-.06,2.65,2.62,2.62,0,0,1-1.68.48h-2.41v-4.28H219v-1.06h2.83v1.75h1.36A2.28,2.28,0,0,1,224.76,637.58Zm-1,2a.9.9,0,0,0,.27-.7c0-.58-.36-.86-1.07-.86h-1.1v1.8H223A1.18,1.18,0,0,0,223.76,639.55Z" />
                <path class="cls-3" d="M230.08,636a2.25,2.25,0,0,1,.9.91,2.62,2.62,0,0,1,.33,1.33,2.58,2.58,0,0,1-.36,1.36,2.46,2.46,0,0,1-1,.93,3.22,3.22,0,0,1-1.48.33,2.64,2.64,0,0,1-2.15-.92,4.06,4.06,0,0,1-.76-2.65,4.2,4.2,0,0,1,.69-2.55,3.33,3.33,0,0,1,2.11-1.24l2.48-.53L231,634l-2.25.46a2.77,2.77,0,0,0-1.45.68,2.1,2.1,0,0,0-.56,1.35,2.48,2.48,0,0,1,.87-.67,2.58,2.58,0,0,1,1.12-.23A2.66,2.66,0,0,1,230.08,636Zm-.48,3.4a1.53,1.53,0,0,0,.43-1.13,1.47,1.47,0,0,0-.43-1.11,1.5,1.5,0,0,0-1.11-.42,1.55,1.55,0,0,0-1.13.42,1.47,1.47,0,0,0-.43,1.11,1.57,1.57,0,0,0,.43,1.14,1.54,1.54,0,0,0,1.13.44A1.45,1.45,0,0,0,229.6,639.35Z" />
                <path class="cls-3" d="M232,635.37h1.25v3.52l2.95-3.52h1.14v5.34h-1.25v-3.52l-2.94,3.52H232Z" />
                <path class="cls-3" d="M242.79,635.65a2.36,2.36,0,0,1,1,1,3.1,3.1,0,0,1,0,2.86,2.45,2.45,0,0,1-1,1,2.89,2.89,0,0,1-1.39.34,2.16,2.16,0,0,1-1.71-.72v2.59h-1.25v-7.28h1.19v.7a1.84,1.84,0,0,1,.76-.57,2.56,2.56,0,0,1,1-.19A2.78,2.78,0,0,1,242.79,635.65Zm-.4,3.6a1.85,1.85,0,0,0,0-2.42,1.48,1.48,0,0,0-1.13-.46,1.68,1.68,0,0,0-.81.2,1.47,1.47,0,0,0-.57.59,1.76,1.76,0,0,0-.21.88,1.82,1.82,0,0,0,.21.88,1.51,1.51,0,0,0,.57.58,1.58,1.58,0,0,0,.81.21A1.51,1.51,0,0,0,242.39,639.25Z" />
                <path class="cls-3" d="M248.52,635.87a2.19,2.19,0,0,1,.63,1.71v3.13H248v-.65a1.41,1.41,0,0,1-.66.53,2.58,2.58,0,0,1-1,.19,2.46,2.46,0,0,1-1-.21,1.65,1.65,0,0,1-.7-.57,1.46,1.46,0,0,1-.24-.82,1.44,1.44,0,0,1,.53-1.16,2.67,2.67,0,0,1,1.69-.43h1.38v-.08a1.07,1.07,0,0,0-.34-.86,1.43,1.43,0,0,0-1-.3,2.72,2.72,0,0,0-.89.14,2,2,0,0,0-.73.39l-.49-.91a2.88,2.88,0,0,1,1-.49,4.24,4.24,0,0,1,1.25-.17A2.56,2.56,0,0,1,248.52,635.87Zm-1.14,3.78a1.15,1.15,0,0,0,.52-.61v-.62h-1.29c-.72,0-1.08.23-1.08.71a.65.65,0,0,0,.27.54,1.26,1.26,0,0,0,.75.2A1.54,1.54,0,0,0,247.38,639.65Z" />
                <path class="cls-3" d="M250.15,635.37h1.25v2.17h2.69v-2.17h1.25v5.34h-1.25V638.6H251.4v2.11h-1.25Z" />
                <path class="cls-3" d="M261.45,638.44h-4.19a1.43,1.43,0,0,0,.57.93,1.9,1.9,0,0,0,1.16.35,2,2,0,0,0,1.45-.58l.67.77a2.33,2.33,0,0,1-.91.65,3.47,3.47,0,0,1-1.24.22,3.34,3.34,0,0,1-1.55-.35,2.59,2.59,0,0,1-1-1A2.79,2.79,0,0,1,256,638a2.89,2.89,0,0,1,.35-1.41,2.56,2.56,0,0,1,1-1,3,3,0,0,1,2.81,0,2.42,2.42,0,0,1,1,1,3,3,0,0,1,.35,1.45C261.47,638.15,261.46,638.28,261.45,638.44Zm-3.7-1.78a1.52,1.52,0,0,0-.5,1h3a1.46,1.46,0,0,0-1.51-1.3A1.56,1.56,0,0,0,257.75,636.66Z" />
                <path class="cls-3" d="M215,652.18a4,4,0,0,1-1.55-1.55,4.74,4.74,0,0,1,0-4.47,4,4,0,0,1,1.55-1.55,4.66,4.66,0,0,1,4.08-.17,3.67,3.67,0,0,1,1.4,1.1l-1.18,1.15a2.5,2.5,0,0,0-2-1,2.55,2.55,0,0,0-1.32.34,2.42,2.42,0,0,0-.9,1,3.2,3.2,0,0,0,0,2.79,2.42,2.42,0,0,0,.9,1,2.55,2.55,0,0,0,1.32.34,2.48,2.48,0,0,0,2-1l1.18,1.15a3.64,3.64,0,0,1-1.41,1.11,4.64,4.64,0,0,1-4.07-.17Z" />
                <path class="cls-3" d="M226.85,644.57a2.74,2.74,0,0,1,1.2,1,3.33,3.33,0,0,1,0,3.24,2.68,2.68,0,0,1-1.2,1,4.18,4.18,0,0,1-1.83.37h-1.61v2.32h-1.84v-8.41H225A4.18,4.18,0,0,1,226.85,644.57Zm-.68,3.75a1.37,1.37,0,0,0,.44-1.08,1.35,1.35,0,0,0-.44-1.08,1.79,1.79,0,0,0-1.26-.38h-1.5v2.91h1.5A1.84,1.84,0,0,0,226.17,648.32Z" />
                <path class="cls-3" d="M235.73,651v1.56h-6.16v-8.41h6v1.57H231.4v1.82h3.69v1.51H231.4V651Z" />
                <path class="cls-3" d="M245.31,651v3.33h-1.7V652.6H238v1.74h-1.7V651h.32c.47,0,.81-.38,1-1.1a14.35,14.35,0,0,0,.36-3.09l.09-2.63h6.12V651Zm-5.93-1.49a3.44,3.44,0,0,1-.56,1.49h3.56v-5.23h-2.73l0,1.22A19.28,19.28,0,0,1,239.38,649.52Z" />
                <path class="cls-3" d="M248,652.18a4,4,0,0,1-1.55-1.55,4.74,4.74,0,0,1,0-4.47,4,4,0,0,1,1.55-1.55,4.66,4.66,0,0,1,4.08-.17,3.75,3.75,0,0,1,1.4,1.1l-1.18,1.15a2.6,2.6,0,0,0-3.32-.64,2.35,2.35,0,0,0-.9,1,3.11,3.11,0,0,0,0,2.79,2.35,2.35,0,0,0,.9,1,2.52,2.52,0,0,0,1.32.34,2.49,2.49,0,0,0,2-1l1.18,1.15a3.64,3.64,0,0,1-1.41,1.11,4.42,4.42,0,0,1-1.88.39A4.35,4.35,0,0,1,248,652.18Z" />
                <path class="cls-3" d="M260.57,645.78H258v6.82h-1.81v-6.82h-2.54v-1.59h6.9Z" />
                <path class="cls-3" d="M268.24,649a2.27,2.27,0,0,1-.42,3,3.6,3.6,0,0,1-2.28.63h-3.92v-8.41h3.7a3.6,3.6,0,0,1,2.16.57,1.89,1.89,0,0,1,.77,1.61,2.12,2.12,0,0,1-.29,1.1,2.23,2.23,0,0,1-.83.75A2.17,2.17,0,0,1,268.24,649Zm-4.8-1.28h1.72a1.41,1.41,0,0,0,.91-.26,1,1,0,0,0,.31-.77.94.94,0,0,0-.32-.75,1.32,1.32,0,0,0-.9-.26h-1.72Zm3.32,2.4q0-1.05-1.29-1.05h-2v2.12h2C266.33,651.15,266.76,650.8,266.76,650.08Z" />
                <path class="cls-3" d="M275.35,650.8h-3.69l-.7,1.8h-1.89l3.54-8.41h1.82L278,652.6h-1.93Zm-.58-1.48-1.26-3.22-1.26,3.22Z" />
                <g class="cls-12">
                    <path class="cls-13" d="M54,738.36a4.19,4.19,0,0,1-.85,3.31,4.49,4.49,0,0,1-2.9,1.83,3.26,3.26,0,0,1-3.76-2.68,4.27,4.27,0,0,1,.9-3.38,4.55,4.55,0,0,1,2.93-1.88,3,3,0,0,1,2.39.58A3.41,3.41,0,0,1,54,738.36Zm3.19-33.47a8.77,8.77,0,0,1-.51,3.45c-.35,1.21-1,4-1.82,8.51s-1.39,7.22-1.57,8.28a26.15,26.15,0,0,0-.31,3.81c0,1.16-.72,1.84-2,2.07a2.28,2.28,0,0,1-3-2.1q-.44-2.65,1.45-10.73A90.13,90.13,0,0,1,52.49,707c.82-2,1.75-3.17,2.8-3.34S57,703.91,57.14,704.89Z" />
                </g>
                <ellipse class="cls-14" cx="83.21" cy="701.47" rx="46.49" ry="2.18" />
                <path class="cls-3" d="M68,707.42v7H66.71v-5.9H63.08v5.9H61.8v-7Z" />
                <path class="cls-3" d="M73.62,709.36a2.42,2.42,0,0,1,1,1,3.1,3.1,0,0,1,0,2.86,2.51,2.51,0,0,1-1,1,2.89,2.89,0,0,1-1.39.34,2.16,2.16,0,0,1-1.71-.72v2.59H69.27v-7.28h1.19v.7a1.78,1.78,0,0,1,.76-.57,2.56,2.56,0,0,1,1-.19A2.78,2.78,0,0,1,73.62,709.36Zm-.4,3.6a1.85,1.85,0,0,0,0-2.42,1.48,1.48,0,0,0-1.13-.46,1.57,1.57,0,0,0-.81.2,1.47,1.47,0,0,0-.57.59,1.76,1.76,0,0,0-.21.88,1.82,1.82,0,0,0,.21.88,1.51,1.51,0,0,0,.57.58,1.58,1.58,0,0,0,.81.21A1.51,1.51,0,0,0,73.22,713Z" />
                <path class="cls-3" d="M80.61,712.15H76.42a1.43,1.43,0,0,0,.57.93,1.9,1.9,0,0,0,1.16.35,2,2,0,0,0,1.45-.58l.67.77a2.41,2.41,0,0,1-.91.65,3.47,3.47,0,0,1-1.24.22,3.31,3.31,0,0,1-1.55-.35,2.59,2.59,0,0,1-1-1,2.79,2.79,0,0,1-.36-1.41,2.89,2.89,0,0,1,.35-1.41,2.56,2.56,0,0,1,1-1,3,3,0,0,1,2.81,0,2.42,2.42,0,0,1,1,1,3,3,0,0,1,.35,1.45C80.63,711.86,80.62,712,80.61,712.15Zm-3.7-1.78a1.52,1.52,0,0,0-.5,1h3a1.46,1.46,0,0,0-1.51-1.3A1.56,1.56,0,0,0,76.91,710.37Z" />
                <path class="cls-3" d="M86.31,712.92a1.29,1.29,0,0,1-.54,1.11,2.74,2.74,0,0,1-1.6.39H81.45v-5.34h2.61a2.79,2.79,0,0,1,1.53.36,1.23,1.23,0,0,1,.33,1.73,1.44,1.44,0,0,1-.6.47A1.24,1.24,0,0,1,86.31,712.92Zm-3.67-1.61H84c.64,0,1-.23,1-.67s-.33-.65-1-.65H82.64Zm2.46,1.53a.61.61,0,0,0-.24-.53,1.26,1.26,0,0,0-.75-.17H82.64v1.37h1.43C84.75,713.51,85.1,713.28,85.1,712.84Z" />
                <path class="cls-3" d="M88,714.14a2.6,2.6,0,0,1-1-1,2.79,2.79,0,0,1-.36-1.41,2.74,2.74,0,0,1,.36-1.41,2.51,2.51,0,0,1,1-1,3,3,0,0,1,1.46-.35,3,3,0,0,1,1.47.35,2.48,2.48,0,0,1,1,1,2.65,2.65,0,0,1,.37,1.41,2.7,2.7,0,0,1-.37,1.41,2.57,2.57,0,0,1-1,1,3.13,3.13,0,0,1-1.47.35A3.06,3.06,0,0,1,88,714.14Zm2.6-1.18a1.85,1.85,0,0,0,0-2.42,1.64,1.64,0,0,0-2.28,0,1.88,1.88,0,0,0,0,2.42,1.64,1.64,0,0,0,2.28,0Z" />
                <path class="cls-3" d="M98.64,713.36v2.25H97.47v-1.19H93.35v1.19H92.19v-2.25h.25q.51,0,.69-.66a7.79,7.79,0,0,0,.25-1.79l.07-1.83h4.4v4.28Zm-4.27-.86a1.69,1.69,0,0,1-.4.86H96.6v-3.22h-2l0,.86A12.15,12.15,0,0,1,94.37,712.5Z" />
                <path class="cls-3" d="M106.28,712.92a1.29,1.29,0,0,1-.54,1.11,2.74,2.74,0,0,1-1.6.39h-2.72v-5.34H104a2.79,2.79,0,0,1,1.53.36,1.23,1.23,0,0,1,.33,1.73,1.44,1.44,0,0,1-.6.47A1.24,1.24,0,0,1,106.28,712.92Zm-3.67-1.61h1.31c.64,0,1-.23,1-.67s-.33-.65-1-.65h-1.31Zm2.46,1.53a.61.61,0,0,0-.24-.53,1.26,1.26,0,0,0-.75-.17h-1.47v1.37H104C104.72,713.51,105.07,713.28,105.07,712.84Z" />
                <path class="cls-3" d="M62.59,736.28a2.47,2.47,0,0,1-1-1,2.89,2.89,0,0,1,0-2.83,2.55,2.55,0,0,1,1-1,3.08,3.08,0,0,1,1.5-.36,2.9,2.9,0,0,1,1.38.32,2.16,2.16,0,0,1,.9.92l-1,.57a1.55,1.55,0,0,0-.58-.56,1.6,1.6,0,0,0-.75-.18,1.58,1.58,0,0,0-1.16.45,1.61,1.61,0,0,0-.46,1.21,1.65,1.65,0,0,0,.45,1.22,1.71,1.71,0,0,0,1.92.27,1.55,1.55,0,0,0,.58-.56l1,.57a2.24,2.24,0,0,1-.91.92,2.75,2.75,0,0,1-1.37.33A3,3,0,0,1,62.59,736.28Z" />
                <path class="cls-3" d="M72.16,736.56V733l-1.8,3h-.54l-1.77-3v3.54H66.91v-5.33h1.31l1.9,3.33,2-3.33h1.17v5.33Z" />
                <path class="cls-3" d="M79.4,734.3H75.21a1.43,1.43,0,0,0,.57.93,1.9,1.9,0,0,0,1.16.34,1.94,1.94,0,0,0,1.45-.58l.67.78a2.28,2.28,0,0,1-.91.64,3.26,3.26,0,0,1-1.24.23,3.2,3.2,0,0,1-1.55-.36,2.5,2.5,0,0,1-1-1,2.8,2.8,0,0,1-.36-1.42,2.85,2.85,0,0,1,.35-1.4,2.5,2.5,0,0,1,1-1,3,3,0,0,1,2.81,0,2.42,2.42,0,0,1,1,1,3,3,0,0,1,.35,1.45C79.42,734,79.41,734.14,79.4,734.3Zm-3.7-1.78a1.52,1.52,0,0,0-.5,1h3a1.56,1.56,0,0,0-.49-1,1.63,1.63,0,0,0-2,0Z" />
                <path class="cls-3" d="M84.27,732.28H82.4v4.28H81.15v-4.28H79.27v-1h5Z" />
                <path class="cls-3" d="M86.85,734.43h-1v2.13H84.63v-5.33h1.25v2.16h1l1.58-2.16H89.8l-1.94,2.57,2.07,2.76H88.46Z" />
                <path class="cls-3" d="M94,731.73a2.19,2.19,0,0,1,.63,1.71v3.12H93.4v-.65a1.42,1.42,0,0,1-.66.54,2.58,2.58,0,0,1-1,.19,2.46,2.46,0,0,1-1-.21,1.73,1.73,0,0,1-.7-.57,1.47,1.47,0,0,1-.24-.83,1.43,1.43,0,0,1,.53-1.15,2.67,2.67,0,0,1,1.69-.44h1.38v-.08a1,1,0,0,0-.34-.85,1.43,1.43,0,0,0-1-.31,2.73,2.73,0,0,0-.89.15,2.19,2.19,0,0,0-.73.38l-.49-.91a3.17,3.17,0,0,1,1-.49,4.6,4.6,0,0,1,1.25-.17A2.58,2.58,0,0,1,94,731.73Zm-1.14,3.78a1.14,1.14,0,0,0,.52-.62v-.62H92c-.72,0-1.08.24-1.08.71a.63.63,0,0,0,.27.54,1.19,1.19,0,0,0,.75.21A1.63,1.63,0,0,0,92.81,735.51Z" />
                <path class="cls-3" d="M70,725.49v3.32H68.3v-1.74H62.68v1.74H61v-3.32h.32c.47,0,.81-.39,1-1.11a13.64,13.64,0,0,0,.36-3.08l.09-2.63h6.12v6.82ZM64.07,724a3.43,3.43,0,0,1-.56,1.5h3.56v-5.24H64.34l0,1.23A18.93,18.93,0,0,1,64.07,724Z" />
                <path class="cls-3" d="M76.58,725.27H72.89l-.71,1.8H70.3l3.54-8.4h1.82l3.56,8.4H77.28ZM76,723.79l-1.26-3.21-1.26,3.21Z" />
                <path class="cls-3" d="M85.44,719a2.79,2.79,0,0,1,1.19,1.06,3.25,3.25,0,0,1,0,3.23,2.79,2.79,0,0,1-1.19,1.06,4.35,4.35,0,0,1-1.84.36H82v2.32H80.16v-8.4H83.6A4.34,4.34,0,0,1,85.44,719Zm-.68,3.75a1.34,1.34,0,0,0,.43-1.07,1.38,1.38,0,0,0-.43-1.09,1.88,1.88,0,0,0-1.26-.38H82v2.92h1.5A1.88,1.88,0,0,0,84.76,722.79Z" />
                <path class="cls-3" d="M88.16,718.67H90v5.47l3.79-5.47h1.73v8.4H93.69v-5.46l-3.79,5.46H88.16Z" />
                <path class="cls-3" d="M103.45,720.25h-2.54v6.82H99.09v-6.82H96.55v-1.58h6.9Z" />
                <path class="cls-3" d="M110.65,725.51v1.56H104.5v-8.4h6v1.56h-4.18v1.83H110v1.51h-3.69v1.94Z" />
                <path class="cls-3" d="M119.12,718.67v8.4H117.3v-6.82h-2.73l0,1.76a19.63,19.63,0,0,1-.27,2.89,3.76,3.76,0,0,1-.73,1.71,1.75,1.75,0,0,1-1.41.59,3.81,3.81,0,0,1-.91-.13l.11-1.64a1.14,1.14,0,0,0,.33.05c.44,0,.75-.28.92-.83a10,10,0,0,0,.33-2.57l.12-3.41Z" />
                <path class="cls-3" d="M122.56,726.66a4.12,4.12,0,0,1-1.55-1.55,4.76,4.76,0,0,1,0-4.48,4.12,4.12,0,0,1,1.55-1.55,4.75,4.75,0,0,1,4.08-.17A3.78,3.78,0,0,1,128,720l-1.18,1.15a2.49,2.49,0,0,0-2-1,2.65,2.65,0,0,0-1.32.34,2.32,2.32,0,0,0-.9,1,3.09,3.09,0,0,0,0,2.78,2.32,2.32,0,0,0,.9,1,2.65,2.65,0,0,0,1.32.34,2.48,2.48,0,0,0,2-1l1.18,1.15a3.76,3.76,0,0,1-1.41,1.12,4.4,4.4,0,0,1-1.87.38A4.36,4.36,0,0,1,122.56,726.66Z" />
                <path class="cls-3" d="M132.21,723.69h-1.27v3.38h-1.83v-8.4h1.83v3.4h1.32l2.09-3.4h1.94l-2.6,4.06,2.68,4.34h-2.09Z" />
                <path class="cls-3" d="M142.35,725.27h-3.7l-.7,1.8h-1.89l3.55-8.4h1.81l3.56,8.4h-1.93Zm-.58-1.48-1.27-3.21-1.26,3.21Z" />
                <path class="cls-4" d="M232.68,801.28h-19l-.08,0h0l-.08,0h0l-.07,0h0l-.06.05h0l-6.76,6.75h0l-.05.06v0l-.05.07h0l0,.07h0a.31.31,0,0,0,0,.08h0a.17.17,0,0,0,0,.07v29.77a2,2,0,0,0,2,2h24.32a2,2,0,0,0,2-2V803.26A2,2,0,0,0,232.68,801.28Zm-19.55,2.16v3.88a.72.72,0,0,1-.72.72h-3.87Zm20.27,34.95a.72.72,0,0,1-.72.72H208.36a.72.72,0,0,1-.72-.72V809.3h4.77a2,2,0,0,0,2-2v-4.77h18.28a.71.71,0,0,1,.72.71Z" />
                <path class="cls-4" d="M212.41,819.43h16.22a.63.63,0,0,0,0-1.26H212.41a.63.63,0,0,0,0,1.26Z" />
                <path class="cls-4" d="M212.41,822.81h16.22a.63.63,0,0,0,0-1.26H212.41a.63.63,0,1,0,0,1.26Z" />
                <path class="cls-4" d="M212.41,826.19h8.11a.63.63,0,0,0,.63-.63.64.64,0,0,0-.63-.64h-8.11a.64.64,0,0,0-.63.64A.63.63,0,0,0,212.41,826.19Z" />
                <path class="cls-4" d="M221.15,828.93a.63.63,0,0,0-.63-.63h-8.11a.63.63,0,0,0-.63.63.64.64,0,0,0,.63.64h8.11A.64.64,0,0,0,221.15,828.93Z" />
                <path class="cls-4" d="M223.86,812.21a.64.64,0,0,0-.64-.63.63.63,0,0,0-.63.63c0,1.24,1.14,2.24,2.7,2.45v.09a.63.63,0,0,0,.63.63.64.64,0,0,0,.64-.63v-.09c1.56-.21,2.7-1.21,2.7-2.45s-1.14-2.23-2.7-2.44v-2.43c.76.16,1.43.59,1.43,1.16a.64.64,0,0,0,.64.63.63.63,0,0,0,.63-.63c0-1.24-1.14-2.23-2.7-2.45V806a.64.64,0,0,0-.64-.64.64.64,0,0,0-.63.64v.08c-1.56.22-2.7,1.21-2.7,2.45s1.14,2.23,2.7,2.45v2.42C224.53,813.21,223.86,812.78,223.86,812.21Zm4.13,0c0,.57-.67,1-1.43,1.16v-2.31C227.32,811.22,228,811.65,228,812.21Zm-4.13-3.71c0-.57.67-1,1.43-1.16v2.32C224.53,809.5,223.86,809.07,223.86,808.5Z" />
                <path class="cls-4" d="M229.87,828.34a.64.64,0,0,0-.86.24l-1.3,2.31-.18-.14a.64.64,0,0,0-.53-.12.65.65,0,0,0-.42.34l-.66,1.33-.21-.24a1.29,1.29,0,0,0-1.24-.42,1.32,1.32,0,0,0-1,.85l-.72,2.09L221,832.4a.65.65,0,0,0-.44-.24.71.71,0,0,0-.48.15l-1.83,1.61a.63.63,0,0,0,.83,1l1.34-1.16,1.65,2.08a1,1,0,0,0,.76.37H223a1,1,0,0,0,.76-.64l.9-2.6a0,0,0,0,1,0,0s0,0,0,0l.84,1a.63.63,0,0,0,.56.21.59.59,0,0,0,.48-.34l.74-1.5.14.12a.64.64,0,0,0,.52.11.59.59,0,0,0,.42-.3l1.66-2.94A.64.64,0,0,0,229.87,828.34Z" />
                <ellipse class="cls-15" cx="220.64" cy="845.04" rx="46.49" ry="2.18" />
                <path class="cls-6" d="M243,826.5s-.89,8.79-7.82,9.4c6.93.6,7.82,9.39,7.82,9.39s.89-8.79,7.83-9.39C243.85,835.29,243,826.5,243,826.5Z" />
                <path class="cls-6" d="M248.27,802.83s-.59,5.81-5.17,6.21c4.58.41,5.17,6.22,5.17,6.22s.59-5.81,5.18-6.22C248.86,808.64,248.27,802.83,248.27,802.83Z" />
                <path class="cls-10" d="M180.06,858.43a3.42,3.42,0,0,1-1.35-1.29,3.5,3.5,0,0,1-.49-1.84,3.53,3.53,0,0,1,.49-1.85,3.42,3.42,0,0,1,1.35-1.29,4.28,4.28,0,0,1,3.86,0,3.49,3.49,0,0,1,1.35,1.29,3.72,3.72,0,0,1,0,3.69,3.49,3.49,0,0,1-1.35,1.29,4.28,4.28,0,0,1-3.86,0Zm3.19-1a2.32,2.32,0,0,0,.88-.88,2.66,2.66,0,0,0,0-2.53,2.32,2.32,0,0,0-.88-.88,2.56,2.56,0,0,0-1.26-.32,2.51,2.51,0,0,0-1.26.32,2.26,2.26,0,0,0-.88.88,2.66,2.66,0,0,0,0,2.53,2.26,2.26,0,0,0,.88.88,2.5,2.5,0,0,0,1.26.31A2.56,2.56,0,0,0,183.25,857.44Z" />
                <path class="cls-10" d="M191.09,854.51h-1.87v4.29H188v-4.29h-1.88v-1h5Z" />
                <path class="cls-10" d="M196.43,853.46v5.34h-1.25v-2.07a3.78,3.78,0,0,1-1.61.36,2.33,2.33,0,0,1-1.58-.47,1.82,1.82,0,0,1-.55-1.46v-1.7h1.25v1.62a.92.92,0,0,0,.3.76,1.27,1.27,0,0,0,.85.25,3.3,3.3,0,0,0,1.34-.29v-2.34Z" />
                <path class="cls-10" d="M198,853.46h1.25V857l3-3.52h1.14v5.34H202.1v-3.52l-2.94,3.52H198Z" />
                <path class="cls-10" d="M209.16,854.51h-1.87v4.29H206v-4.29h-1.88v-1h5Z" />
                <path class="cls-10" d="M213.76,854a2.17,2.17,0,0,1,.63,1.7v3.14h-1.18v-.66a1.42,1.42,0,0,1-.66.54,2.58,2.58,0,0,1-1,.19,2.46,2.46,0,0,1-1.05-.21,1.73,1.73,0,0,1-.7-.57,1.47,1.47,0,0,1-.24-.83,1.43,1.43,0,0,1,.53-1.15,2.67,2.67,0,0,1,1.69-.44h1.38v-.08a1.08,1.08,0,0,0-.34-.86,1.48,1.48,0,0,0-1-.3,3,3,0,0,0-.89.14,2.22,2.22,0,0,0-.73.4l-.49-.91a3,3,0,0,1,1-.5,4.6,4.6,0,0,1,1.25-.17A2.58,2.58,0,0,1,213.76,854Zm-1.14,3.78a1.15,1.15,0,0,0,.52-.61v-.63h-1.29q-1.08,0-1.08.72a.62.62,0,0,0,.27.53,1.19,1.19,0,0,0,.75.21A1.63,1.63,0,0,0,212.62,857.74Z" />
                <path class="cls-10" d="M215.84,853.46h1.25v2.17h2.69v-2.17H221v5.34h-1.25v-2.12h-2.69v2.12h-1.25Z" />
                <path class="cls-10" d="M227.59,856.53H223.4a1.43,1.43,0,0,0,.57.93,1.9,1.9,0,0,0,1.16.35,2,2,0,0,0,1.45-.58l.67.76a2.21,2.21,0,0,1-.91.65,3.26,3.26,0,0,1-1.24.23,3.2,3.2,0,0,1-1.55-.36,2.5,2.5,0,0,1-1-1,2.79,2.79,0,0,1-.36-1.41,2.86,2.86,0,0,1,.35-1.41,2.59,2.59,0,0,1,1-1,2.9,2.9,0,0,1,1.42-.35,2.79,2.79,0,0,1,1.39.35,2.42,2.42,0,0,1,1,1,3,3,0,0,1,.35,1.44C227.61,856.24,227.6,856.37,227.59,856.53Zm-3.7-1.78a1.52,1.52,0,0,0-.5,1h3a1.54,1.54,0,0,0-.49-1,1.63,1.63,0,0,0-2,0Z" />
                <path class="cls-10" d="M231.54,853.46h1.25v2.17h2.69v-2.17h1.25v5.34h-1.25v-2.12h-2.69v2.12h-1.25Z" />
                <path class="cls-10" d="M242.1,854a2.17,2.17,0,0,1,.63,1.7v3.14h-1.18v-.66a1.42,1.42,0,0,1-.66.54,2.58,2.58,0,0,1-1,.19,2.46,2.46,0,0,1-1.05-.21,1.73,1.73,0,0,1-.7-.57,1.47,1.47,0,0,1-.24-.83,1.43,1.43,0,0,1,.53-1.15,2.67,2.67,0,0,1,1.69-.44h1.38v-.08a1.08,1.08,0,0,0-.34-.86,1.48,1.48,0,0,0-1-.3,3,3,0,0,0-.89.14,2.22,2.22,0,0,0-.73.4l-.49-.91a3,3,0,0,1,1-.5,4.6,4.6,0,0,1,1.25-.17A2.58,2.58,0,0,1,242.1,854ZM241,857.74a1.15,1.15,0,0,0,.52-.61v-.63h-1.29q-1.08,0-1.08.72a.62.62,0,0,0,.27.53,1.19,1.19,0,0,0,.75.21A1.63,1.63,0,0,0,241,857.74Z" />
                <path class="cls-10" d="M184,862.06a2.79,2.79,0,0,1,1.19,1.06,3.32,3.32,0,0,1,0,3.23,2.73,2.73,0,0,1-1.19,1.06,4.38,4.38,0,0,1-1.84.36h-1.6v2.32h-1.84v-8.4h3.44A4.38,4.38,0,0,1,184,862.06Zm-.68,3.75a1.34,1.34,0,0,0,.43-1.07,1.38,1.38,0,0,0-.43-1.09,1.88,1.88,0,0,0-1.26-.38h-1.5v2.92h1.5A1.88,1.88,0,0,0,183.36,865.81Z" />
                <path class="cls-10" d="M192.14,868.29h-3.69l-.7,1.8h-1.89l3.54-8.4h1.82l3.56,8.4h-1.93Zm-.58-1.48-1.26-3.21L189,866.81Z" />
                <path class="cls-10" d="M201.73,866.5a2,2,0,0,1,.39,1.24,2,2,0,0,1-.48,1.33,3,3,0,0,1-1.29.87,5.08,5.08,0,0,1-1.78.29,6.51,6.51,0,0,1-1.63-.21,5.64,5.64,0,0,1-1.54-.66L196,868a4.49,4.49,0,0,0,1.16.51,4.86,4.86,0,0,0,1.23.17,2.68,2.68,0,0,0,1.36-.31,1,1,0,0,0,.54-.88.79.79,0,0,0-.37-.7,1.86,1.86,0,0,0-1-.24h-1.94v-1.47h1.8a1.37,1.37,0,0,0,.87-.24.79.79,0,0,0,.32-.66.87.87,0,0,0-.45-.77,2.24,2.24,0,0,0-1.16-.27,4.25,4.25,0,0,0-1.08.15,4.06,4.06,0,0,0-1.05.45l-.56-1.52a5.7,5.7,0,0,1,2.73-.68,5,5,0,0,1,1.71.29,2.82,2.82,0,0,1,1.25.84,2,2,0,0,1,.47,1.28,1.87,1.87,0,0,1-.31,1.07,2,2,0,0,1-.84.72A2.28,2.28,0,0,1,201.73,866.5Z" />
                <path class="cls-10" d="M205.18,861.69l1.64,2.54,1.65-2.54h2.16l-2.65,4,2.87,4.38h-2.17l-1.86-2.78L205,870.09h-2.12l2.84-4.29-2.66-4.11Z" />
                <path class="cls-10" d="M213.51,869.67a4.07,4.07,0,0,1-1.56-1.55,4.7,4.7,0,0,1,0-4.45,4.17,4.17,0,0,1,1.56-1.56,4.72,4.72,0,0,1,4.46,0,4.17,4.17,0,0,1,1.56,1.56,4.63,4.63,0,0,1,0,4.45,4.07,4.07,0,0,1-1.56,1.55,4.72,4.72,0,0,1-4.46,0Zm3.51-1.43a2.43,2.43,0,0,0,.89-1,3.18,3.18,0,0,0,0-2.78,2.34,2.34,0,0,0-.89-1,2.44,2.44,0,0,0-1.28-.35,2.4,2.4,0,0,0-1.27.35,2.34,2.34,0,0,0-.89,1,3.18,3.18,0,0,0,0,2.78,2.43,2.43,0,0,0,.89,1,2.39,2.39,0,0,0,1.27.34A2.43,2.43,0,0,0,217,868.24Z" />
                <path class="cls-10" d="M229.78,868.51v3.32h-1.71v-1.74h-5.61v1.74h-1.7v-3.32h.31q.72,0,1-1.11a14.91,14.91,0,0,0,.36-3.08l.09-2.63h6.11v6.82Zm-5.94-1.5a3.44,3.44,0,0,1-.55,1.5h3.55v-5.24h-2.72l0,1.23A16.06,16.06,0,0,1,223.84,867Z" />
                <path class="cls-10" d="M231.3,861.69h1.83v5.47l3.79-5.47h1.73v8.4h-1.82v-5.46L233,870.09H231.3Z" />
                <path class="cls-10" d="M247,863.27h-2.54v6.82h-1.82v-6.82h-2.54v-1.58H247Z" />
                <path class="cls-10" d="M254.59,868.53v1.56h-6.16v-8.4h6v1.56h-4.19v1.83H254v1.51h-3.7v1.94Z" />
                <g class="cls-12">
                    <path class="cls-13" d="M250,950.83a7.1,7.1,0,0,0-1.19-3.14,6.33,6.33,0,0,0-1.71-1.59,5.87,5.87,0,0,0-2.18-.85,6.48,6.48,0,0,0-1-.08,8,8,0,0,0-2.58.46A7.32,7.32,0,0,0,239,947a10.44,10.44,0,0,0-1.83,2.07c-.16.24-.39.65-.52.9a9.46,9.46,0,0,0-.51,1.3c-.05-.06-.09-.13-.15-.19l-.15-.16,0,0a7.76,7.76,0,0,0-1.43-1.1,7.05,7.05,0,0,0-2-.8,5.21,5.21,0,0,0-.79-.13c-.27,0-.55-.05-.83-.05a2,2,0,0,0-.35,0,6.31,6.31,0,0,0-1.14.19,7.25,7.25,0,0,0-1.2.46,5.61,5.61,0,0,0-1.53,1.11,5.5,5.5,0,0,0-.91,1.13,6.83,6.83,0,0,0-.89,3,7.41,7.41,0,0,0,.15,2.15,6.64,6.64,0,0,0,.72,1.85,7.52,7.52,0,0,0,1,1.35,18.14,18.14,0,0,0,1.62,1.66A29.44,29.44,0,0,0,231,964a39.7,39.7,0,0,0,3.51,2.2c4.78,2.63,8.61,3.51,8.72,2.26a10.89,10.89,0,0,1,1.41-4.68l.28-.48c.77-1.24,1.61-2.45,2.39-3.68a23,23,0,0,0,2.27-4.44,10,10,0,0,0,.48-2.1c0-.35.07-.7.08-1.05A8.39,8.39,0,0,0,250,950.83Z" />
                    <path class="cls-13" d="M248.28,950.7a.37.37,0,0,1,.1.54.42.42,0,0,1-.57.1.39.39,0,0,1-.1-.54.43.43,0,0,1,.57-.1Z" />
                    <path class="cls-13" d="M248.07,952.87a.26.26,0,0,1,.08.38.3.3,0,0,1-.41.07.26.26,0,0,1-.07-.38.3.3,0,0,1,.4-.07Z" />
                    <path class="cls-13" d="M247.35,955.11a.19.19,0,0,1,.05.27.22.22,0,0,1-.28,0,.18.18,0,0,1-.05-.26.23.23,0,0,1,.28,0Z" />
                    <path class="cls-13" d="M246.12,956.8a.2.2,0,0,1,.06.29.24.24,0,0,1-.31,0,.2.2,0,0,1-.05-.29.22.22,0,0,1,.3-.05Z" />
                </g>
                <ellipse class="cls-16" cx="139.56" cy="1009.12" rx="56.82" ry="2.66" />
                <g class="cls-12">
                    <path class="cls-17" d="M137.91,964.2a12.19,12.19,0,0,0,22.88,0" />
                    <path class="cls-18" d="M146.35,956.57a1.52,1.52,0,1,1-1.52-1.52A1.52,1.52,0,0,1,146.35,956.57Z" />
                    <path class="cls-18" d="M155.39,956.57a1.52,1.52,0,1,1-1.52-1.52A1.52,1.52,0,0,1,155.39,956.57Z" />
                </g>
                <g class="cls-12">
                    <path class="cls-19" d="M132.91,982.33a10,10,0,0,1-18.8,0" />
                    <path class="cls-20" d="M126,976.06a1.25,1.25,0,1,0,2.49,0,1.25,1.25,0,0,0-2.49,0Z" />
                    <path class="cls-20" d="M118.55,976.06a1.25,1.25,0,1,0,1.25-1.24A1.25,1.25,0,0,0,118.55,976.06Z" />
                    <circle class="cls-21" cx="123.48" cy="980.8" r="16.84" />
                </g>
                <g class="cls-12">
                    <path class="cls-22" d="M139.44,991a6.34,6.34,0,0,0,11.89,0" />
                    <path class="cls-23" d="M143.82,987a.79.79,0,1,1-.79-.78A.79.79,0,0,1,143.82,987Z" />
                    <path class="cls-23" d="M148.52,987a.79.79,0,1,1-.79-.78A.79.79,0,0,1,148.52,987Z" />
                </g>
                <circle class="cls-24" cx="148.43" cy="961.26" r="20.14" />
                <circle class="cls-25" cx="145.8" cy="989.59" r="10.6" />
                <path class="cls-10" d="M188.25,966.67a3.28,3.28,0,0,1,.56,2,3.42,3.42,0,0,1-1.35,2.85,6.11,6.11,0,0,1-3.82,1h-6.8V959.09h6.45A6.19,6.19,0,0,1,187,960a3,3,0,0,1,1.3,2.59,3.24,3.24,0,0,1-.43,1.69,1.22,1.22,0,1,0,.43,2.38Zm-7.19-2.42h1.81c.71,0,1.06-.33,1.06-1s-.35-1-1.06-1h-1.81Zm3.43,4a.93.93,0,0,0-1.05-1h-2.38v2.11h2.38A.94.94,0,0,0,184.49,968.28Z" />
                <path class="cls-10" d="M190.16,959.09h4.21v7l4.38-7h4v13.43h-4.21v-7l-4.36,7h-4.05Z" />
                <path class="cls-10" d="M215.43,969.1v3.42H204.85V959.09h10.34v3.41h-6.12v1.58h5.37v3.26h-5.37v1.76Z" />
                <path class="cls-10" d="M189.56,977.06l-5.11,10.11a7.32,7.32,0,0,1-2.22,2.75,4.91,4.91,0,0,1-2.9.93,6.21,6.21,0,0,1-2.47-.53l1-3.26a5.08,5.08,0,0,0,1.31.23,1.73,1.73,0,0,0,.81-.18,1.86,1.86,0,0,0,.64-.57l-4.87-9.48h4.53l2.52,5.66,2.62-5.66Z" />
                <path class="cls-10" d="M192.85,989.91a6.49,6.49,0,0,1-2.54-2.5,7.72,7.72,0,0,1,0-7.27,6.4,6.4,0,0,1,2.54-2.49,7.31,7.31,0,0,1,3.63-.89,7.62,7.62,0,0,1,3.31.69,6.23,6.23,0,0,1,2.39,2l-2.7,2.55a3.43,3.43,0,0,0-2.78-1.57,2.74,2.74,0,0,0-2.16.91,4.06,4.06,0,0,0,0,4.89,2.74,2.74,0,0,0,2.16.91,3.43,3.43,0,0,0,2.78-1.57l2.7,2.55a6.25,6.25,0,0,1-2.39,2,7.62,7.62,0,0,1-3.31.69A7.42,7.42,0,0,1,192.85,989.91Z" />
                <path class="cls-10" d="M215.59,977.06v13.43h-4.21v-9.92h-3.87v9.92h-4.22V977.06Z" />
                <path class="cls-10" d="M228.81,977.06v13.43H224.6v-3.18h-1.15l-1.94,3.18H217l2.51-3.84a4.43,4.43,0,0,1-1.9-1.73,5.67,5.67,0,0,1,.06-5.42,4.71,4.71,0,0,1,2-1.8,7.08,7.08,0,0,1,3.13-.64Zm-7.52,5.12c0,1.14.55,1.71,1.64,1.71h1.67v-3.34h-1.67A1.45,1.45,0,0,0,221.29,982.18Z" />
                <path class="cls-10" d="M235,977l1.85,3.17,1.85-3.17h5l-4.12,6.41,4.5,7h-5L236.84,987l-2.11,3.47h-4.92l4.47-6.83-4.2-6.62Z" />
                <path class="cls-10" d="M255.32,980.57h-3.73v9.92h-4.21v-9.92h-3.73v-3.51h11.67Z" />
                <path class="cls-10" d="M267.12,987.08v3.41H256.55V977.06h10.34v3.42h-6.13v1.57h5.38v3.26h-5.38v1.77Z" />
                <path class="cls-10" d="M268,977.06h4.9l-.81,8.29h-3.27Zm.72,13a2.25,2.25,0,0,1-.67-1.63,2.18,2.18,0,0,1,.67-1.62,2.66,2.66,0,0,1,3.46,0,2.18,2.18,0,0,1,.67,1.62,2.25,2.25,0,0,1-.67,1.63,2.57,2.57,0,0,1-3.46,0Z" />
                <path class="cls-8" d="M177.14,153.65a133.65,133.65,0,0,1,55.44,18,131.8,131.8,0,0,1,29,23.43" />
                <path class="cls-8" d="M214.35,110.3A88.77,88.77,0,0,0,226,154.36a108,108,0,0,0,19.18,24.7" />
                <path class="cls-26" d="M111.41,686.44l-45.32-1.9,31.5-32.86,5.9,15L73.8,681.29l31.67-9.84S111.52,686.49,111.41,686.44Z" />
                <path class="cls-4" d="M261.34,377.48h-1.82V364.9l.21-.2a21.73,21.73,0,0,0,3.45-4.94l.65-1.13,0,0a6.31,6.31,0,0,0,.37-3,4.44,4.44,0,0,1,.27-2.32,1.69,1.69,0,0,1,1.26-.74,2.46,2.46,0,0,1,2.51,1.37c1.52,3.07,1.16,5,.66,7.63-.07.37-.14.74-.21,1.13,1,0,2.1,0,3.14,0s2.32,0,3.49,0a3.4,3.4,0,0,1,2.59.88,1.8,1.8,0,0,1,.34,1.49,2.7,2.7,0,0,1-1.09,1.86,1.9,1.9,0,0,1,.5,1.6,2.72,2.72,0,0,1-1.08,1.8,2,2,0,0,1,.49,1.37,2.67,2.67,0,0,1-1.1,2.06,1.78,1.78,0,0,1,.37,1.62,3.13,3.13,0,0,1-2.95,2.14Zm-.44-1.38h12.52A1.79,1.79,0,0,0,275,375c0-.11.08-.35-.34-.59a.83.83,0,0,1-.59-.89.91.91,0,0,1,.82-.78,1.25,1.25,0,0,0,.79-1.12.57.57,0,0,0-.47-.62l-.05,0,0,0a.8.8,0,0,1-.46-.92,1,1,0,0,1,.81-.7,1.36,1.36,0,0,0,.82-1,.53.53,0,0,0-.28-.59l0,0-.05,0a1.08,1.08,0,0,1-.64-.56l0-.06,0-.05a.83.83,0,0,1,.48-.95l.06,0,.07,0a1.33,1.33,0,0,0,1-1.18h0c.05-.28,0-.37-.06-.4s-.5-.35-1.56-.38-2.31,0-3.44,0c-1.3,0-2.66,0-4,0l-.77,0,.12-.76c.11-.71.23-1.36.34-1.94.49-2.57.78-4.12-.54-6.77a1.09,1.09,0,0,0-1.1-.62.43.43,0,0,0-.28.11,7,7,0,0,0-.06,1.56,6.94,6.94,0,0,1-.59,3.82l-.63,1.09a24.21,24.21,0,0,1-3.48,5Z" />
                <path class="cls-4" d="M259.69,377.48H257a1.17,1.17,0,0,1-1.17-1.18V365.68a1.17,1.17,0,0,1,1.17-1.17h2.67a1.18,1.18,0,0,1,1.18,1.17V376.3A1.18,1.18,0,0,1,259.69,377.48Zm-2.47-1.38h2.27V365.88h-2.27Z" />
                <path class="cls-4" d="M76.77,331.26H65.14a.87.87,0,0,1,0-1.73H76.77a.87.87,0,0,1,0,1.73Z" />
                <path class="cls-4" d="M76.77,346.36H72.56a.87.87,0,1,1,0-1.73h4.21a.87.87,0,0,1,0,1.73Z" />
                <path class="cls-4" d="M76.66,335.07H66.72a.87.87,0,1,1,0-1.73h9.94a.87.87,0,1,1,0,1.73Z" />
                <path class="cls-4" d="M76.77,338.82H65.14a.87.87,0,0,1,0-1.73H76.77a.87.87,0,0,1,0,1.73Z" />
                <path class="cls-4" d="M81.68,323.9a.87.87,0,0,0-.35-.69L71.16,313h0a1.09,1.09,0,0,0-.17-.13l-.06,0a.68.68,0,0,0-.2-.07h0l-.16,0H50.62a.87.87,0,0,0-.87.87v8.74c.33,0,.66-.05,1-.05s.5,0,.74,0v-7.86h18.2v9.39a.87.87,0,0,0,.87.87h9.38v27.38H51.48v-7.86c-.24,0-.49,0-.74,0s-.66,0-1-.05V353a.87.87,0,0,0,.87.87H80.8a.87.87,0,0,0,.87-.87V324S81.68,323.94,81.68,323.9ZM71.41,323v-7.3l7.3,7.3Z" />
                <path class="cls-4" d="M49.33,338.13a.86.86,0,0,1-.57-.21l-3.84-3.37a.87.87,0,1,1,1.15-1.3L49.24,336l6.08-7.2A.87.87,0,0,1,56.65,330L50,337.83a.89.89,0,0,1-.6.3Z" />
                <path class="cls-4" d="M50.74,345.18a9.74,9.74,0,0,1-1.06-.05,11.85,11.85,0,0,1,0-23.6,9.89,9.89,0,0,1,1.88,0,11.85,11.85,0,0,1,0,23.64A7,7,0,0,1,50.74,345.18Zm0-22c-.29,0-.59,0-.91,0a10.12,10.12,0,0,0,0,20.16,9.23,9.23,0,0,0,1.57,0,10.12,10.12,0,0,0,0-20.19A5.55,5.55,0,0,0,50.74,323.21Z" />
                <ellipse class="cls-27" cx="65.95" cy="357.95" rx="46.49" ry="2.18" />
                <path class="cls-3" d="M25.64,373.1a2.27,2.27,0,0,1-.42,3,3.61,3.61,0,0,1-2.29.63H19v-8.4h3.71a3.6,3.6,0,0,1,2.16.56,1.89,1.89,0,0,1,.77,1.61,2,2,0,0,1-.3,1.1,2.13,2.13,0,0,1-.82.75A2.17,2.17,0,0,1,25.64,373.1Zm-4.8-1.28h1.72a1.41,1.41,0,0,0,.91-.26,1,1,0,0,0,.31-.76,1,1,0,0,0-.32-.76,1.34,1.34,0,0,0-.9-.26H20.84Zm3.32,2.4q0-1.05-1.29-1.05h-2v2.13h2Q24.16,375.3,24.16,374.22Z" />
                <path class="cls-3" d="M32.75,374.94H29.06l-.71,1.8H26.47l3.54-8.4h1.82l3.56,8.4H33.46Zm-.58-1.48-1.26-3.22-1.26,3.22Z" />
                <path class="cls-3" d="M43.49,368.34v8.4H41.67v-6.82H38.94l0,1.75a18.32,18.32,0,0,1-.28,2.9,3.57,3.57,0,0,1-.72,1.7,1.74,1.74,0,0,1-1.41.6,4.4,4.4,0,0,1-.91-.13l.11-1.65a1.14,1.14,0,0,0,.33.05c.44,0,.75-.27.92-.82a10.1,10.1,0,0,0,.33-2.58l.12-3.4Z" />
                <path class="cls-3" d="M45.36,368.34h1.83v5.47l3.8-5.47h1.73v8.4H50.9v-5.46l-3.8,5.46H45.36Z" />
                <path class="cls-3" d="M62.73,375.15v3.33H61v-1.74H55.41v1.74H53.7l0-3.33H54c.48,0,.82-.38,1-1.1a14.24,14.24,0,0,0,.37-3.09l.09-2.62h6.11v6.81Zm-5.94-1.49a3.44,3.44,0,0,1-.55,1.49h3.55v-5.23H57.07l0,1.22A16.33,16.33,0,0,1,56.79,373.66Z" />
                <path class="cls-3" d="M63.85,368.34h1.83v5.47l3.8-5.47H71.2v8.4H69.38v-5.46l-3.79,5.46H63.85Z" />
                <path class="cls-3" d="M78.34,368.71a2.76,2.76,0,0,1,1.2,1.06,3,3,0,0,1,.42,1.62,3,3,0,0,1-.42,1.61,2.76,2.76,0,0,1-1.2,1.06,4.33,4.33,0,0,1-1.83.36h-1.6v2.32H73.07v-8.4h3.44A4.18,4.18,0,0,1,78.34,368.71Zm-.67,3.75a1.34,1.34,0,0,0,.43-1.07,1.35,1.35,0,0,0-.43-1.09,1.88,1.88,0,0,0-1.26-.38h-1.5v2.92h1.5A1.88,1.88,0,0,0,77.67,372.46Z" />
                <path class="cls-3" d="M86.05,374.94H82.36l-.7,1.8H79.77l3.55-8.4h1.81l3.56,8.4H86.76Zm-.58-1.48-1.26-3.22L83,373.46Z" />
                <path class="cls-3" d="M96.93,368.34v8.4H95.09v-3.45H91.47v3.45H89.63v-8.4h1.84v3.31h3.62v-3.31Z" />
                <path class="cls-3" d="M105,375.18v1.56H98.8v-8.4h6v1.56h-4.18v1.82h3.69v1.51h-3.69v1.95Z" />
                <path class="cls-10" d="M41.43,381v8H39.58v-6.53H36V389H34.1v-8Z" />
                <path class="cls-10" d="M44.44,388.67a3,3,0,0,1-1.22-1.13,3.34,3.34,0,0,1,0-3.28,3,3,0,0,1,1.22-1.13,3.59,3.59,0,0,1,1.75-.41,3.55,3.55,0,0,1,1.74.41,2.93,2.93,0,0,1,1.21,1.13,3.28,3.28,0,0,1,0,3.28,2.93,2.93,0,0,1-1.21,1.13,3.55,3.55,0,0,1-1.74.41A3.59,3.59,0,0,1,44.44,388.67Zm2.88-1.52a2,2,0,0,0,0-2.5,1.49,1.49,0,0,0-1.13-.46,1.51,1.51,0,0,0-1.14.46,2,2,0,0,0,0,2.5,1.51,1.51,0,0,0,1.14.46A1.49,1.49,0,0,0,47.32,387.15Z" />
                <path class="cls-10" d="M57.11,382.81V388a3.29,3.29,0,0,1-.88,2.52,3.66,3.66,0,0,1-2.59.83,6.29,6.29,0,0,1-1.7-.22,3.57,3.57,0,0,1-1.33-.63l.71-1.29a2.9,2.9,0,0,0,1,.52,4.14,4.14,0,0,0,1.19.18,2,2,0,0,0,1.38-.41,1.7,1.7,0,0,0,.44-1.27v-.27a2.52,2.52,0,0,1-2,.77,3.27,3.27,0,0,1-1.56-.37,2.83,2.83,0,0,1-1.12-1.05,2.89,2.89,0,0,1-.41-1.56,2.92,2.92,0,0,1,.41-1.57,2.83,2.83,0,0,1,1.12-1.05,3.27,3.27,0,0,1,1.56-.37,2.45,2.45,0,0,1,2,.88v-.79Zm-2.22,4a1.56,1.56,0,0,0,0-2.19,1.65,1.65,0,0,0-1.17-.42,1.68,1.68,0,0,0-1.17.42,1.53,1.53,0,0,0,0,2.19,1.68,1.68,0,0,0,1.17.42A1.65,1.65,0,0,0,54.89,386.8Z" />
                <path class="cls-10" d="M61.53,386.65h-.92V389H58.83v-8.52h1.78v4.74h1l1.69-2.4h1.9l-2.17,3L65.3,389H63.19Z" />
                <path class="cls-10" d="M71.39,383.11a2.78,2.78,0,0,1,1.11,1.12,3.61,3.61,0,0,1,0,3.34,2.78,2.78,0,0,1-1.11,1.12,3.17,3.17,0,0,1-1.56.39,2.4,2.4,0,0,1-1.86-.74v2.88h-1.8v-8.41h1.72v.71a2.38,2.38,0,0,1,1.94-.8A3.17,3.17,0,0,1,71.39,383.11Zm-.74,4a2,2,0,0,0,0-2.5,1.49,1.49,0,0,0-1.13-.46,1.48,1.48,0,0,0-1.13.46,2,2,0,0,0,0,2.5,1.48,1.48,0,0,0,1.13.46A1.49,1.49,0,0,0,70.65,387.15Z" />
                <path class="cls-10" d="M80.13,386.41H75.46a1.43,1.43,0,0,0,.59.9,2,2,0,0,0,1.17.34,2.28,2.28,0,0,0,.86-.15,2,2,0,0,0,.7-.45l1,1a3.19,3.19,0,0,1-2.55,1,3.94,3.94,0,0,1-1.85-.41,2.9,2.9,0,0,1-1.24-1.13,3.12,3.12,0,0,1-.44-1.64,3.24,3.24,0,0,1,.43-1.64,3,3,0,0,1,1.19-1.13,3.37,3.37,0,0,1,1.68-.41,3.45,3.45,0,0,1,1.64.39,2.84,2.84,0,0,1,1.16,1.12,3.41,3.41,0,0,1,.41,1.69S80.15,386.11,80.13,386.41Zm-4.19-2a1.44,1.44,0,0,0-.51.94h3a1.49,1.49,0,0,0-.51-.94,1.65,1.65,0,0,0-2,0Z" />
                <path class="cls-10" d="M87.14,383.41a2.73,2.73,0,0,1,.71,2V389H86.06v-3.26a1.64,1.64,0,0,0-.32-1.1,1.2,1.2,0,0,0-.93-.36,1.4,1.4,0,0,0-1.08.42,1.72,1.72,0,0,0-.41,1.24V389H81.53v-6.18h1.71v.72a2.41,2.41,0,0,1,.89-.6,3.11,3.11,0,0,1,1.16-.21A2.54,2.54,0,0,1,87.14,383.41Z" />
                <path class="cls-10" d="M95.51,382.81V389H93.8v-.72a2.2,2.2,0,0,1-.84.6,2.76,2.76,0,0,1-1.07.21,2.63,2.63,0,0,1-1.93-.7,2.78,2.78,0,0,1-.72-2.08v-3.49H91V386c0,1,.42,1.49,1.25,1.49a1.36,1.36,0,0,0,1-.42,1.77,1.77,0,0,0,.39-1.25v-3.05Z" />
                <path class="cls-10" d="M97.07,388.76a1.09,1.09,0,0,1-.32-.8,1.06,1.06,0,0,1,.32-.8,1.14,1.14,0,0,1,.8-.31,1.12,1.12,0,0,1,.79.31,1.06,1.06,0,0,1,.32.8,1.09,1.09,0,0,1-1.11,1.12A1.11,1.11,0,0,1,97.07,388.76Z" />
                <path class="cls-10" d="M105.13,383.6a2.54,2.54,0,0,1,1,1,3,3,0,0,1,.37,1.52,3,3,0,0,1-.43,1.57,2.85,2.85,0,0,1-1.2,1.05,4,4,0,0,1-1.75.38,3.26,3.26,0,0,1-2.55-1,4.5,4.5,0,0,1-.92-3,4.93,4.93,0,0,1,.81-3,3.9,3.9,0,0,1,2.49-1.45l2.94-.59.24,1.54-2.6.51a3.19,3.19,0,0,0-1.57.69,2.13,2.13,0,0,0-.6,1.37,2.76,2.76,0,0,1,1-.67,3.05,3.05,0,0,1,1.22-.24A3.24,3.24,0,0,1,105.13,383.6Zm-.87,3.69a1.61,1.61,0,0,0,.42-1.14,1.47,1.47,0,0,0-.42-1.11,1.5,1.5,0,0,0-1.11-.42A1.55,1.55,0,0,0,102,385a1.47,1.47,0,0,0-.42,1.11,1.51,1.51,0,0,0,.44,1.14,1.48,1.48,0,0,0,1.11.45A1.45,1.45,0,0,0,104.26,387.29Z" />
                <path class="cls-10" d="M108.07,388.58a1.66,1.66,0,0,1-.83-1.47,1.38,1.38,0,0,1,.35-1,1.93,1.93,0,0,1,.83-.51,8.88,8.88,0,0,1,1.23-.3,5,5,0,0,0,1-.25.41.41,0,0,0,.31-.4.49.49,0,0,0-.29-.45,1.89,1.89,0,0,0-.83-.15,5.23,5.23,0,0,0-1.91.42l-.51-1.2a4.71,4.71,0,0,1,1.16-.43,5,5,0,0,1,1.26-.16,3.71,3.71,0,0,1,2.06.53,1.69,1.69,0,0,1,.8,1.49,1.41,1.41,0,0,1-.36,1,2,2,0,0,1-.84.52,9.21,9.21,0,0,1-1.25.28,5.67,5.67,0,0,0-1,.25.42.42,0,0,0-.31.38.49.49,0,0,0,.32.45,2,2,0,0,0,.84.15,4.84,4.84,0,0,0,1.22-.17,4.68,4.68,0,0,0,1-.38l.52,1.19a5,5,0,0,1-1.28.52,5.78,5.78,0,0,1-1.43.18A3.94,3.94,0,0,1,108.07,388.58Z" />
                <circle class="cls-28" cx="267.08" cy="366.08" r="21.47" />
                <path class="cls-3" d="M231.77,406.44a4.07,4.07,0,0,1-1.56-1.55,4.7,4.7,0,0,1,0-4.45,4.17,4.17,0,0,1,1.56-1.56,4.72,4.72,0,0,1,4.46,0,4.17,4.17,0,0,1,1.56,1.56,4.7,4.7,0,0,1,0,4.45,4.07,4.07,0,0,1-1.56,1.55,4.65,4.65,0,0,1-4.46,0Zm3.5-1.43a2.45,2.45,0,0,0,.9-1,3.18,3.18,0,0,0,0-2.78A2.45,2.45,0,0,0,234,400a2.4,2.4,0,0,0-1.27.35,2.27,2.27,0,0,0-.89.95,3.09,3.09,0,0,0,0,2.78,2.36,2.36,0,0,0,.89,1,2.39,2.39,0,0,0,1.27.34A2.37,2.37,0,0,0,235.27,405Z" />
                <path class="cls-3" d="M247.64,405.28v3.32h-1.71v-1.74h-5.61v1.74h-1.71l0-3.32h.31q.72,0,1-1.11a14.91,14.91,0,0,0,.36-3.08l.09-2.63h6.11v6.82Zm-5.93-1.5a3.56,3.56,0,0,1-.56,1.5h3.56v-5.23H242l0,1.22A17.55,17.55,0,0,1,241.71,403.78Z" />
                <path class="cls-3" d="M250.32,406.44a4,4,0,0,1-1.55-1.55,4.7,4.7,0,0,1,0-4.45,4.07,4.07,0,0,1,1.55-1.56,4.54,4.54,0,0,1,2.24-.56,4.44,4.44,0,0,1,2.22.56,4.17,4.17,0,0,1,1.56,1.56,4.63,4.63,0,0,1,0,4.45,4.07,4.07,0,0,1-1.56,1.55,4.34,4.34,0,0,1-2.22.57A4.44,4.44,0,0,1,250.32,406.44Zm3.51-1.43a2.36,2.36,0,0,0,.89-1,3.09,3.09,0,0,0,0-2.78,2.27,2.27,0,0,0-.89-.95,2.4,2.4,0,0,0-1.27-.35,2.44,2.44,0,0,0-1.28.35,2.4,2.4,0,0,0-.89.95,3.18,3.18,0,0,0,0,2.78,2.5,2.5,0,0,0,.89,1,2.43,2.43,0,0,0,1.28.34A2.39,2.39,0,0,0,253.83,405Z" />
                <path class="cls-3" d="M258.22,398.46h6.42V400h-4.59v1.73h2.2a3.37,3.37,0,0,1,2.2.63,2.29,2.29,0,0,1,.75,1.84,2.42,2.42,0,0,1-.84,2,3.64,3.64,0,0,1-2.37.69h-3.77Zm3.67,7a1.76,1.76,0,0,0,1.08-.29,1,1,0,0,0,.37-.86c0-.74-.48-1.1-1.45-1.1h-1.84v2.25Z" />
                <path class="cls-3" d="M271.77,398.83a2.79,2.79,0,0,1,1.19,1.06,3.05,3.05,0,0,1,.42,1.62,3,3,0,0,1-.42,1.61,2.73,2.73,0,0,1-1.19,1.06,4.38,4.38,0,0,1-1.84.37h-1.6v2.31h-1.84v-8.4h3.44A4.38,4.38,0,0,1,271.77,398.83Zm-.68,3.75a1.34,1.34,0,0,0,.43-1.07,1.38,1.38,0,0,0-.43-1.09,1.88,1.88,0,0,0-1.26-.37h-1.5V403h1.5A1.83,1.83,0,0,0,271.09,402.58Z" />
                <path class="cls-3" d="M280.65,405.3v1.56h-6.16v-8.4h6V400h-4.18v1.83H280v1.51h-3.69v1.94Z" />
                <path class="cls-3" d="M289.32,398.46v8.4h-1.85v-3.44h-3.61v3.44H282v-8.4h1.84v3.31h3.61v-3.31Z" />
                <path class="cls-3" d="M291.19,398.46H293v5.47l3.79-5.47h1.73v8.4h-1.82V401.4l-3.79,5.46h-1.74Z" />
                <path class="cls-3" d="M306.56,405.3v1.56H300.4v-8.4h6V400h-4.19v1.83h3.7v1.51h-3.7v1.94Z" />
                <polygon class="cls-29" points="151.38 88.97 139.32 88.97 139.32 76.81 127.65 76.81 127.65 88.97 115.5 88.97 115.5 100.73 127.65 100.73 127.65 112.89 139.32 112.89 139.32 100.73 151.38 100.73 151.38 88.97" />
                <ellipse class="cls-30" cx="134.63" cy="116.4" rx="24.85" ry="2.72" />
                <path class="cls-6" d="M154.89,76.76s-.59,5.81-5.17,6.21c4.58.4,5.17,6.22,5.17,6.22s.59-5.82,5.18-6.22C155.48,82.57,154.89,76.76,154.89,76.76Z" />
                <path class="cls-6" d="M163.76,87.88s-.37,3.64-3.24,3.89c2.87.26,3.24,3.9,3.24,3.9s.37-3.64,3.24-3.9C164.13,91.52,163.76,87.88,163.76,87.88Z" />
                <path class="cls-3" d="M111.33,118.26v7H110v-3h-3.62v3h-1.3v-7h1.3v2.89H110v-2.89Z" />
                <path class="cls-3" d="M117.63,119.92l-2.5,5.77a2.68,2.68,0,0,1-.84,1.22,2,2,0,0,1-1.21.36,2.67,2.67,0,0,1-.79-.13,1.79,1.79,0,0,1-.64-.36l.5-.92a1.38,1.38,0,0,0,.42.27,1.44,1.44,0,0,0,.5.1.85.85,0,0,0,.54-.17,1.82,1.82,0,0,0,.4-.57l.08-.21-2.33-5.36h1.31l1.68,4,1.69-4Z" />
                <path class="cls-3" d="M122.72,123.12h-.9v2.14h-1.23v-2.14h-.91l-1.3,2.14H116.9l1.75-2.76L117,119.92h1.32l1.31,2.16h.92v-2.16h1.23v2.16h.91l1.32-2.16h1.33l-1.62,2.58,1.75,2.76H124Z" />
                <path class="cls-3" d="M131.59,124.2v2.25h-1.17v-1.19H126.3v1.19h-1.16V124.2h.25c.35,0,.58-.24.7-.66a8.39,8.39,0,0,0,.25-1.79l.07-1.83h4.39v4.28Zm-4.26-.86a1.61,1.61,0,0,1-.41.86h2.63V121h-2l0,.86A10.66,10.66,0,0,1,127.33,123.34Z" />
                <path class="cls-3" d="M136,120.42a2.19,2.19,0,0,1,.62,1.71v3.13H135.4v-.65a1.43,1.43,0,0,1-.65.53,2.63,2.63,0,0,1-1,.19,2.46,2.46,0,0,1-1.05-.21,1.63,1.63,0,0,1-.69-.57,1.47,1.47,0,0,1-.25-.82,1.42,1.42,0,0,1,.54-1.16,2.66,2.66,0,0,1,1.68-.43h1.38v-.08a1.09,1.09,0,0,0-.33-.86,1.45,1.45,0,0,0-1-.3,2.67,2.67,0,0,0-.89.14,2.09,2.09,0,0,0-.74.39l-.49-.91a2.88,2.88,0,0,1,1-.49,4.34,4.34,0,0,1,1.25-.17A2.6,2.6,0,0,1,136,120.42Zm-1.14,3.78a1.18,1.18,0,0,0,.51-.61V123h-1.28c-.73,0-1.08.23-1.08.71a.65.65,0,0,0,.26.54,1.26,1.26,0,0,0,.75.2A1.55,1.55,0,0,0,134.82,124.2Z" />
                <path class="cls-3" d="M142.56,123h-4.19a1.48,1.48,0,0,0,.58.93,1.87,1.87,0,0,0,1.15.35,2,2,0,0,0,1.45-.58l.67.77a2.33,2.33,0,0,1-.91.65,3.43,3.43,0,0,1-1.24.22,3.37,3.37,0,0,1-1.55-.35,2.56,2.56,0,0,1-1-1,2.91,2.91,0,0,1,0-2.82,2.5,2.5,0,0,1,1-1,2.76,2.76,0,0,1,1.41-.35,2.82,2.82,0,0,1,1.4.34,2.42,2.42,0,0,1,1,1,3,3,0,0,1,.34,1.45A2.85,2.85,0,0,1,142.56,123Zm-3.69-1.78a1.49,1.49,0,0,0-.51,1h3a1.42,1.42,0,0,0-.49-.94,1.48,1.48,0,0,0-1-.36A1.53,1.53,0,0,0,138.87,121.21Z" />
                <path class="cls-3" d="M147.43,121h-1.87v4.28h-1.25V121h-1.88v-1.06h5Z" />
                <path class="cls-3" d="M152.54,123h-4.19a1.48,1.48,0,0,0,.58.93,1.87,1.87,0,0,0,1.15.35,2,2,0,0,0,1.45-.58l.67.77a2.26,2.26,0,0,1-.91.65,3.43,3.43,0,0,1-1.24.22,3.37,3.37,0,0,1-1.55-.35,2.56,2.56,0,0,1-1-1,2.91,2.91,0,0,1,0-2.82,2.54,2.54,0,0,1,1-1,3.05,3.05,0,0,1,2.82,0,2.42,2.42,0,0,1,1,1,3,3,0,0,1,.34,1.45A2.85,2.85,0,0,1,152.54,123Zm-3.69-1.78a1.49,1.49,0,0,0-.51,1h3a1.42,1.42,0,0,0-.49-.94,1.48,1.48,0,0,0-1-.36A1.55,1.55,0,0,0,148.85,121.21Z" />
                <path class="cls-3" d="M156.53,125a2.63,2.63,0,0,1-1-1,2.8,2.8,0,0,1-.37-1.41,2.74,2.74,0,0,1,.37-1.41,2.53,2.53,0,0,1,1-1,3,3,0,0,1,1.49-.35,2.83,2.83,0,0,1,1.39.32,2,2,0,0,1,.89.92l-1,.56a1.53,1.53,0,0,0-.57-.56,1.71,1.71,0,0,0-1.92.27,1.83,1.83,0,0,0,0,2.43,1.58,1.58,0,0,0,1.16.46,1.61,1.61,0,0,0,.76-.19,1.5,1.5,0,0,0,.57-.55l1,.56a2.1,2.1,0,0,1-.9.92,2.82,2.82,0,0,1-1.38.33A3.18,3.18,0,0,1,156.53,125Z" />
                <path class="cls-3" d="M165.76,123h-4.2a1.48,1.48,0,0,0,.58.93,1.9,1.9,0,0,0,1.16.35,2,2,0,0,0,1.45-.58l.67.77a2.49,2.49,0,0,1-.91.65,3.52,3.52,0,0,1-1.25.22,3.3,3.3,0,0,1-1.54-.35,2.53,2.53,0,0,1-1-1,2.91,2.91,0,0,1,0-2.82,2.5,2.5,0,0,1,1-1,3,3,0,0,1,2.81,0,2.42,2.42,0,0,1,1,1,3,3,0,0,1,.34,1.45C165.77,122.7,165.77,122.83,165.76,123Zm-3.7-1.78a1.53,1.53,0,0,0-.51,1h3a1.48,1.48,0,0,0-1.51-1.3A1.54,1.54,0,0,0,162.06,121.21Z" />
                <path class="cls-3" d="M105.88,136.51a2.55,2.55,0,0,1-1-1,2.8,2.8,0,0,1-.36-1.42,2.74,2.74,0,0,1,.36-1.41,2.55,2.55,0,0,1,1-1,3.26,3.26,0,0,1,2.94,0,2.55,2.55,0,0,1,1,1,2.74,2.74,0,0,1,.37,1.41,2.81,2.81,0,0,1-.37,1.42,2.55,2.55,0,0,1-1,1,3.26,3.26,0,0,1-2.94,0Zm2.61-1.18a1.85,1.85,0,0,0,0-2.42,1.51,1.51,0,0,0-1.14-.46,1.5,1.5,0,0,0-1.14.46,1.88,1.88,0,0,0,0,2.42,1.5,1.5,0,0,0,1.14.46A1.51,1.51,0,0,0,108.49,135.33Z" />
                <path class="cls-3" d="M114.91,132.51H113v4.28h-1.25v-4.28h-1.88v-1.06h5Z" />
                <path class="cls-3" d="M118.42,136.51a2.54,2.54,0,0,1-1-1,2.71,2.71,0,0,1-.37-1.42,2.65,2.65,0,0,1,.37-1.41,2.51,2.51,0,0,1,1-1,3.19,3.19,0,0,1,1.5-.35,2.93,2.93,0,0,1,1.38.32,2.05,2.05,0,0,1,.9.92l-1,.56a1.52,1.52,0,0,0-.58-.55,1.49,1.49,0,0,0-.75-.19,1.54,1.54,0,0,0-1.16.46,1.6,1.6,0,0,0-.46,1.21,1.67,1.67,0,0,0,.45,1.22,1.71,1.71,0,0,0,1.92.27,1.63,1.63,0,0,0,.58-.56l1,.56a2.21,2.21,0,0,1-.91.93,2.89,2.89,0,0,1-1.37.32A3.15,3.15,0,0,1,118.42,136.51Z" />
                <path class="cls-3" d="M127.09,131.73a2.55,2.55,0,0,1,1,1,2.88,2.88,0,0,1,.35,1.43,3,3,0,0,1-.35,1.44,2.55,2.55,0,0,1-1,1,2.78,2.78,0,0,1-1.39.34,2.16,2.16,0,0,1-1.71-.72v2.59h-1.25v-7.28h1.18v.7a2.07,2.07,0,0,1,.77-.57,2.53,2.53,0,0,1,1-.19A2.78,2.78,0,0,1,127.09,131.73Zm-.4,3.6a1.85,1.85,0,0,0,0-2.42,1.49,1.49,0,0,0-1.13-.46,1.58,1.58,0,0,0-.81.21,1.54,1.54,0,0,0-.58.58,2,2,0,0,0,0,1.76,1.64,1.64,0,0,0,.58.59,1.68,1.68,0,0,0,.81.2A1.49,1.49,0,0,0,126.69,135.33Z" />
                <path class="cls-3" d="M134.08,134.52h-4.19a1.45,1.45,0,0,0,.57.94,1.9,1.9,0,0,0,1.16.34,1.94,1.94,0,0,0,1.45-.58l.67.77a2.3,2.3,0,0,1-.91.65,3.26,3.26,0,0,1-1.24.22,3.31,3.31,0,0,1-1.55-.35,2.5,2.5,0,0,1-1-1,2.8,2.8,0,0,1-.36-1.42,2.72,2.72,0,0,1,.35-1.4,2.52,2.52,0,0,1,1-1,2.9,2.9,0,0,1,1.42-.35,2.79,2.79,0,0,1,1.39.35,2.42,2.42,0,0,1,1,1,2.9,2.9,0,0,1,.35,1.44C134.1,134.24,134.09,134.36,134.08,134.52Zm-3.7-1.77a1.45,1.45,0,0,0-.5.94h3a1.56,1.56,0,0,0-2.53-.94Z" />
                <path class="cls-3" d="M140.55,135.73V138h-1.17v-1.19h-4.12V138H134.1v-2.25h.25c.34,0,.57-.23.69-.65a8.6,8.6,0,0,0,.25-1.8l.07-1.83h4.4v4.28Zm-4.27-.86a1.65,1.65,0,0,1-.4.86h2.63v-3.22h-2l0,.86A12.15,12.15,0,0,1,136.28,134.87Z" />
                <path class="cls-3" d="M142.05,136.51a2.58,2.58,0,0,1-1-1,2.71,2.71,0,0,1-.37-1.42,2.65,2.65,0,0,1,.37-1.41,2.51,2.51,0,0,1,1-1,3.19,3.19,0,0,1,1.5-.35,2.93,2.93,0,0,1,1.38.32,2.05,2.05,0,0,1,.9.92l-1,.56a1.52,1.52,0,0,0-.58-.55,1.49,1.49,0,0,0-.75-.19,1.54,1.54,0,0,0-1.16.46,1.6,1.6,0,0,0-.46,1.21,1.67,1.67,0,0,0,.45,1.22,1.71,1.71,0,0,0,1.92.27,1.63,1.63,0,0,0,.58-.56l1,.56a2.21,2.21,0,0,1-.91.93,2.89,2.89,0,0,1-1.37.32A3.22,3.22,0,0,1,142.05,136.51Z" />
                <path class="cls-3" d="M150.56,132.51h-1.87v4.28h-1.25v-4.28h-1.88v-1.06h5Z" />
                <path class="cls-3" d="M155.78,135.29a1.29,1.29,0,0,1-.54,1.11,2.74,2.74,0,0,1-1.6.39h-2.72v-5.34h2.61a2.79,2.79,0,0,1,1.53.36,1.16,1.16,0,0,1,.55,1,1.22,1.22,0,0,1-.22.71,1.36,1.36,0,0,1-.6.47A1.24,1.24,0,0,1,155.78,135.29Zm-3.67-1.61h1.31c.64,0,1-.22,1-.67s-.33-.65-1-.65h-1.31Zm2.46,1.53a.59.59,0,0,0-.24-.52,1.26,1.26,0,0,0-.75-.18h-1.47v1.37h1.43C154.22,135.88,154.57,135.66,154.57,135.21Z" />
                <path class="cls-3" d="M160.35,132a2.15,2.15,0,0,1,.63,1.7v3.13H159.8v-.65a1.61,1.61,0,0,1-.66.54,2.59,2.59,0,0,1-1,.18,2.62,2.62,0,0,1-1.05-.2,1.67,1.67,0,0,1-.7-.57,1.49,1.49,0,0,1-.24-.83,1.39,1.39,0,0,1,.53-1.15,2.67,2.67,0,0,1,1.69-.44h1.38v-.08a1.11,1.11,0,0,0-.34-.86,1.43,1.43,0,0,0-1-.3,3,3,0,0,0-.89.14,2,2,0,0,0-.73.39l-.49-.91a3,3,0,0,1,1-.49,4.6,4.6,0,0,1,1.25-.17A2.59,2.59,0,0,1,160.35,132Zm-1.14,3.78a1.22,1.22,0,0,0,.52-.62v-.62h-1.29c-.72,0-1.08.24-1.08.71a.63.63,0,0,0,.27.54,1.26,1.26,0,0,0,.75.2A1.63,1.63,0,0,0,159.21,135.74Z" />
                <path class="cls-3" d="M168.15,134.47a1.11,1.11,0,0,1,.27.75,1.23,1.23,0,0,1-.33.87,2.08,2.08,0,0,1-.91.58,3.79,3.79,0,0,1-1.31.21,5.34,5.34,0,0,1-1.21-.14,4.26,4.26,0,0,1-1.07-.42l.36-.93a3.29,3.29,0,0,0,.88.34,4,4,0,0,0,1,.12,2.1,2.1,0,0,0,1-.19.59.59,0,0,0,.35-.54.53.53,0,0,0-.27-.48,1.5,1.5,0,0,0-.78-.17h-1v-.84H166a1.39,1.39,0,0,0,.73-.16A.51.51,0,0,0,167,133a.51.51,0,0,0-.33-.46,1.89,1.89,0,0,0-.87-.17,4.26,4.26,0,0,0-1.7.39l-.31-.92a4.9,4.9,0,0,1,2.12-.49,3.63,3.63,0,0,1,1.22.19,1.86,1.86,0,0,1,.84.52,1.1,1.1,0,0,1,.31.76,1.12,1.12,0,0,1-.24.7,1.56,1.56,0,0,1-.66.47A1.52,1.52,0,0,1,168.15,134.47Z" />
                <path class="cls-3" d="M173,132a2.15,2.15,0,0,1,.62,1.7v3.13h-1.17v-.65a1.61,1.61,0,0,1-.66.54,2.92,2.92,0,0,1-2.07,0,1.61,1.61,0,0,1-.7-.57,1.49,1.49,0,0,1-.24-.83,1.39,1.39,0,0,1,.53-1.15,2.67,2.67,0,0,1,1.69-.44h1.37v-.08a1.11,1.11,0,0,0-.33-.86,1.43,1.43,0,0,0-1-.3,3,3,0,0,0-.89.14,2,2,0,0,0-.73.39l-.49-.91a3,3,0,0,1,1-.49,4.6,4.6,0,0,1,1.25-.17A2.59,2.59,0,0,1,173,132Zm-1.14,3.78a1.15,1.15,0,0,0,.51-.62v-.62h-1.28c-.72,0-1.08.24-1.08.71a.63.63,0,0,0,.27.54,1.22,1.22,0,0,0,.75.2A1.63,1.63,0,0,0,171.83,135.74Z" />
                <path class="cls-3" d="M112.2,140.68v8.4h-1.81v-6.81h-2.73L107.6,144a19.79,19.79,0,0,1-.27,2.9,3.67,3.67,0,0,1-.72,1.7,1.76,1.76,0,0,1-1.42.6,3.89,3.89,0,0,1-.91-.14l.12-1.64a1.14,1.14,0,0,0,.33.05c.44,0,.74-.28.92-.82a11.11,11.11,0,0,0,.33-2.58l.11-3.41Z" />
                <path class="cls-3" d="M120.24,147.52v1.56h-6.16v-8.4h6v1.56h-4.18v1.83h3.69v1.51h-3.69v1.94Z" />
                <path class="cls-3" d="M128.15,140.68v8.4h-1.82v-3a5.5,5.5,0,0,1-1.92.4,3.44,3.44,0,0,1-2.46-.81,3.07,3.07,0,0,1-.85-2.34v-2.63h1.82v2.42a1.74,1.74,0,0,0,.44,1.3,1.71,1.71,0,0,0,1.26.44,4,4,0,0,0,1.71-.38v-3.78Z" />
                <path class="cls-3" d="M136.17,147.52v1.56H130v-8.4h6v1.56h-4.18v1.83h3.69v1.51h-3.69v1.94Z" />
                <path class="cls-3" d="M144.84,140.68v8.4H143v-3.44h-3.62v3.44h-1.84v-8.4h1.84V144H143v-3.32Z" />
                <path class="cls-3" d="M146.71,140.68h1.83v5.48l3.8-5.48h1.72v8.4h-1.81v-5.46l-3.8,5.46h-1.74Z" />
                <path class="cls-3" d="M162.09,147.52v1.56h-6.16v-8.4h6v1.56h-4.18v1.83h3.69v1.51h-3.69v1.94Z" />
                <g id="Hand_2" data-name="Hand 2">
                    <path class="cls-31" d="M217.83,51.71h6.41a.69.69,0,0,1,.72.67v8a.69.69,0,0,1-.72.67h-6.41a.7.7,0,0,1-.73-.67v-8A.7.7,0,0,1,217.83,51.71Z" />
                    <line class="cls-32" x1="225.06" y1="58.53" x2="217.07" y2="58.53" />
                    <rect class="cls-4" x="222.37" y="53.2" width="0.9" height="1.22" rx="0.38" />
                    <rect class="cls-4" x="222.37" y="55.35" width="0.9" height="1.22" rx="0.38" />
                    <path class="cls-33" d="M234.78,54.79s7.16-.14,7.79-.34c2-.6,1.64-.62,2.23-1.2a2.63,2.63,0,0,0,.46-1.39,1.68,1.68,0,0,0-.88-1.87c-1-.5-12.44-.53-13.7-.2s-4.11,1.58-4.82,2.64l-.22.38-.1.25-.14-.13v5.91c0,.48.1,1.49.1,1.49s12.4.23,14.38-.19c5.59-1.2,13.63-7.08,16.32-9s3.91-2.78,4-3.61,0-3-2.42-2.42-12.27,7.17-12.54,7.4h0" />
                    <path class="cls-33" d="M242.71,45l-7.94-7.93c-5.33-5.34,2.61-13.27,7.94-7.94,5.74-5.74,13.67,2.19,7.93,7.94Z" />
                    <path class="cls-6" d="M258.18,19s-.49,4.86-4.33,5.2c3.84.34,4.33,5.2,4.33,5.2s.5-4.86,4.33-5.2C258.68,23.89,258.18,19,258.18,19Z" />
                    <path class="cls-6" d="M251.56,11.9s-.32,3.22-2.86,3.44c2.54.22,2.86,3.44,2.86,3.44s.33-3.22,2.87-3.44C251.89,15.12,251.56,11.9,251.56,11.9Z" />
                    <g id="kampania">
                        <ellipse class="cls-34" cx="236.25" cy="66.52" rx="40.05" ry="2.12" />
                    </g>
                </g>
                <path class="cls-3" d="M206.55,71.88h1.28v5l3.76-5h1.21v7h-1.28v-5l-3.76,5h-1.21Z" />
                <path class="cls-3" d="M215,78.6a2.53,2.53,0,0,1-1-1,2.89,2.89,0,0,1,0-2.83,2.67,2.67,0,0,1,1-1,3.12,3.12,0,0,1,1.49-.35,2.94,2.94,0,0,1,1.39.32,2.14,2.14,0,0,1,.89.92l-1,.56a1.5,1.5,0,0,0-.57-.55,1.65,1.65,0,0,0-.76-.19,1.62,1.62,0,0,0-1.16.46,1.65,1.65,0,0,0-.46,1.21,1.62,1.62,0,0,0,.46,1.22,1.58,1.58,0,0,0,1.16.45,1.64,1.64,0,0,0,.76-.18,1.46,1.46,0,0,0,.57-.56l1,.56a2.24,2.24,0,0,1-.9.93,2.81,2.81,0,0,1-1.38.32A3.06,3.06,0,0,1,215,78.6Z" />
                <path class="cls-3" d="M221.55,76.74h-1v2.14h-1.25V73.54h1.25V75.7h1l1.58-2.16h1.34l-1.94,2.57,2.07,2.77h-1.47Z" />
                <path class="cls-3" d="M228.66,74.05a2.2,2.2,0,0,1,.62,1.7v3.13H228.1v-.65a1.39,1.39,0,0,1-.65.54,2.67,2.67,0,0,1-1,.18,2.46,2.46,0,0,1-1-.2,1.63,1.63,0,0,1-.69-.57,1.5,1.5,0,0,1,.29-2,2.62,2.62,0,0,1,1.68-.44H228v-.08a1.11,1.11,0,0,0-.33-.86,1.48,1.48,0,0,0-1-.3,2.94,2.94,0,0,0-.88.14,2.47,2.47,0,0,0-.74.39l-.49-.91a3.28,3.28,0,0,1,1-.49,4.6,4.6,0,0,1,1.25-.17A2.6,2.6,0,0,1,228.66,74.05Zm-1.14,3.78a1.16,1.16,0,0,0,.51-.62v-.62h-1.29c-.72,0-1.08.24-1.08.71a.63.63,0,0,0,.27.54,1.19,1.19,0,0,0,.75.2A1.69,1.69,0,0,0,227.52,77.83Z" />
                <path class="cls-3" d="M234.51,74.6h-1.87v4.28h-1.25V74.6h-1.88V73.54h5Z" />
                <path class="cls-3" d="M239.62,76.61h-4.19a1.44,1.44,0,0,0,.58.94,1.87,1.87,0,0,0,1.15.34,1.93,1.93,0,0,0,1.45-.58l.67.77a2.15,2.15,0,0,1-.91.65,3.26,3.26,0,0,1-1.24.22,3.22,3.22,0,0,1-1.55-.35,2.42,2.42,0,0,1-1-1,2.71,2.71,0,0,1-.37-1.42,2.75,2.75,0,0,1,.36-1.4,2.5,2.5,0,0,1,1-1,2.9,2.9,0,0,1,1.42-.35,2.82,2.82,0,0,1,1.4.35,2.42,2.42,0,0,1,1,1,3,3,0,0,1,.34,1.44C239.64,76.33,239.63,76.45,239.62,76.61Zm-3.69-1.77a1.49,1.49,0,0,0-.51.94h3a1.46,1.46,0,0,0-1.51-1.3A1.47,1.47,0,0,0,235.93,74.84Z" />
                <path class="cls-3" d="M248.37,77.82v2.25H247.2V78.88h-4.12v1.19h-1.16V77.82h.25c.34,0,.57-.23.7-.65a8.51,8.51,0,0,0,.24-1.8l.07-1.83h4.4v4.28ZM244.1,77a1.54,1.54,0,0,1-.4.86h2.63V74.6h-2.05l0,.86A11.74,11.74,0,0,1,244.1,77Z" />
                <path class="cls-3" d="M252.74,74.05a2.2,2.2,0,0,1,.62,1.7v3.13h-1.18v-.65a1.39,1.39,0,0,1-.65.54,2.67,2.67,0,0,1-1,.18,2.46,2.46,0,0,1-1.05-.2,1.63,1.63,0,0,1-.69-.57,1.5,1.5,0,0,1,.29-2,2.62,2.62,0,0,1,1.68-.44h1.38v-.08a1.11,1.11,0,0,0-.33-.86,1.48,1.48,0,0,0-1-.3,2.94,2.94,0,0,0-.88.14,2.47,2.47,0,0,0-.74.39l-.49-.91a3.28,3.28,0,0,1,1-.49,4.6,4.6,0,0,1,1.25-.17A2.6,2.6,0,0,1,252.74,74.05Zm-1.14,3.78a1.16,1.16,0,0,0,.51-.62v-.62h-1.29c-.72,0-1.08.24-1.08.71a.63.63,0,0,0,.27.54,1.19,1.19,0,0,0,.75.2A1.69,1.69,0,0,0,251.6,77.83Z" />
                <path class="cls-3" d="M211.52,85.08v5.34h-1.24V86.14h-2.63v4.28H206.4V85.08Z" />
                <path class="cls-3" d="M213.58,90.14a2.57,2.57,0,0,1-1-1,2.87,2.87,0,0,1,0-2.82,2.55,2.55,0,0,1,1-1,3.24,3.24,0,0,1,2.93,0,2.64,2.64,0,0,1,1,1,2.94,2.94,0,0,1,0,2.82,2.67,2.67,0,0,1-1,1,3.24,3.24,0,0,1-2.93,0Zm2.6-1.18a1.85,1.85,0,0,0,0-2.42,1.51,1.51,0,0,0-1.14-.46,1.48,1.48,0,0,0-1.13.46,1.85,1.85,0,0,0,0,2.42,1.48,1.48,0,0,0,1.13.46A1.51,1.51,0,0,0,216.18,89Z" />
                <path class="cls-3" d="M223.82,90.42V86.88l-1.8,3h-.54l-1.77-3v3.55h-1.14V85.08h1.31l1.9,3.34,2-3.34h1.17v5.34Z" />
                <path class="cls-3" d="M227,90.14a2.57,2.57,0,0,1-1-1,2.87,2.87,0,0,1,0-2.82,2.55,2.55,0,0,1,1-1,3.24,3.24,0,0,1,2.93,0,2.64,2.64,0,0,1,1,1,2.94,2.94,0,0,1,0,2.82,2.67,2.67,0,0,1-1,1,3.24,3.24,0,0,1-2.93,0ZM229.6,89a1.85,1.85,0,0,0,0-2.42,1.51,1.51,0,0,0-1.14-.46,1.48,1.48,0,0,0-1.13.46,1.85,1.85,0,0,0,0,2.42,1.48,1.48,0,0,0,1.13.46A1.51,1.51,0,0,0,229.6,89Z" />
                <path class="cls-3" d="M236.09,86.14h-2.85v4.28H232V85.08h4.1Z" />
                <path class="cls-3" d="M236.45,85.08h1.25v2.17h2.69V85.08h1.25v5.34h-1.25V88.31H237.7v2.11h-1.25Z" />
                <path class="cls-3" d="M247.75,88.15h-4.19a1.44,1.44,0,0,0,.58.93,1.87,1.87,0,0,0,1.15.35,2,2,0,0,0,1.45-.58l.67.77a2.33,2.33,0,0,1-.91.65,3.26,3.26,0,0,1-1.24.22,3.34,3.34,0,0,1-1.55-.35,2.56,2.56,0,0,1-1-1,2.68,2.68,0,0,1-.37-1.41,2.79,2.79,0,0,1,.36-1.41,2.47,2.47,0,0,1,1-1,2.93,2.93,0,0,1,1.42-.35,2.82,2.82,0,0,1,1.4.34,2.49,2.49,0,0,1,1,1,3,3,0,0,1,.34,1.45A2.85,2.85,0,0,1,247.75,88.15Zm-3.69-1.78a1.51,1.51,0,0,0-.51.95h3a1.46,1.46,0,0,0-1.51-1.3A1.51,1.51,0,0,0,244.06,86.37Z" />
                <path class="cls-3" d="M252.62,86.14h-1.87v4.28H249.5V86.14h-1.88V85.08h5Z" />
                <path class="cls-3" d="M257.73,88.15h-4.19a1.48,1.48,0,0,0,.58.93,1.87,1.87,0,0,0,1.15.35,2,2,0,0,0,1.45-.58l.67.77a2.33,2.33,0,0,1-.91.65,3.23,3.23,0,0,1-1.24.22,3.37,3.37,0,0,1-1.55-.35,2.56,2.56,0,0,1-1-1,2.68,2.68,0,0,1-.37-1.41,2.79,2.79,0,0,1,.36-1.41,2.47,2.47,0,0,1,1-1,2.93,2.93,0,0,1,1.42-.35,2.82,2.82,0,0,1,1.4.34,2.49,2.49,0,0,1,1,1,3,3,0,0,1,.34,1.45A2.85,2.85,0,0,1,257.73,88.15ZM254,86.37a1.51,1.51,0,0,0-.51.95h3a1.42,1.42,0,0,0-.49-.94,1.48,1.48,0,0,0-1-.36A1.51,1.51,0,0,0,254,86.37Z" />
                <path class="cls-3" d="M260.78,85.08H262v2.17h2.69V85.08H266v5.34h-1.25V88.31H262v2.11h-1.25Z" />
                <path class="cls-3" d="M270.9,85.58a2.22,2.22,0,0,1,.62,1.71v3.13h-1.18v-.65a1.43,1.43,0,0,1-.65.53,2.49,2.49,0,0,1-1,.19,2.46,2.46,0,0,1-1.05-.21,1.5,1.5,0,0,1-.69-.57,1.39,1.39,0,0,1-.25-.82,1.42,1.42,0,0,1,.54-1.16,2.64,2.64,0,0,1,1.68-.43h1.38v-.08a1.11,1.11,0,0,0-.33-.86,1.48,1.48,0,0,0-1-.3,2.66,2.66,0,0,0-.88.14,2.09,2.09,0,0,0-.74.39l-.49-.91a3.07,3.07,0,0,1,1-.49,4.29,4.29,0,0,1,1.25-.17A2.65,2.65,0,0,1,270.9,85.58Zm-1.14,3.78a1.14,1.14,0,0,0,.51-.61v-.62H269c-.72,0-1.08.23-1.08.71a.64.64,0,0,0,.27.54,1.26,1.26,0,0,0,.75.2A1.57,1.57,0,0,0,269.76,89.36Z" />
                <path class="cls-3" d="M208,94.31l1.65,2.55,1.65-2.55h2.16l-2.65,4,2.86,4.38h-2.17l-1.85-2.78-1.83,2.78h-2.12l2.84-4.29-2.66-4.11Z" />
                <path class="cls-3" d="M215.92,102.29a4.07,4.07,0,0,1-1.56-1.55,4.7,4.7,0,0,1,0-4.45,4.17,4.17,0,0,1,1.56-1.56,4.72,4.72,0,0,1,4.46,0,4.07,4.07,0,0,1,1.55,1.56,4.63,4.63,0,0,1,0,4.45,4,4,0,0,1-1.55,1.55,4.65,4.65,0,0,1-4.46,0Zm3.5-1.43a2.45,2.45,0,0,0,.9-1,3.18,3.18,0,0,0,0-2.78,2.45,2.45,0,0,0-2.17-1.3,2.4,2.4,0,0,0-1.27.35,2.27,2.27,0,0,0-.89,1,3.09,3.09,0,0,0,0,2.78,2.36,2.36,0,0,0,.89,1,2.39,2.39,0,0,0,1.27.34A2.37,2.37,0,0,0,219.42,100.86Z" />
                <path class="cls-3" d="M229.09,94.68a2.76,2.76,0,0,1,1.2,1.06,3.05,3.05,0,0,1,.42,1.62,3,3,0,0,1-.42,1.61,2.7,2.7,0,0,1-1.2,1.06,4.34,4.34,0,0,1-1.84.37h-1.6v2.31h-1.84v-8.4h3.44A4.34,4.34,0,0,1,229.09,94.68Zm-.68,3.75a1.34,1.34,0,0,0,.43-1.07,1.38,1.38,0,0,0-.43-1.09,1.88,1.88,0,0,0-1.26-.37h-1.5v2.91h1.5A1.83,1.83,0,0,0,228.41,98.43Z" />
                <path class="cls-3" d="M236.8,100.91h-3.7l-.7,1.8h-1.89l3.55-8.4h1.82l3.55,8.4H237.5Zm-.58-1.47L235,96.22l-1.26,3.22Z" />
                <path class="cls-3" d="M250.1,99.08a2,2,0,0,1,.39,1.27,2.1,2.1,0,0,1-.8,1.74,3.71,3.71,0,0,1-2.29.62h-3.92v-8.4h3.7a3.56,3.56,0,0,1,2.16.57,1.84,1.84,0,0,1,.77,1.6,2,2,0,0,1-.29,1.1,2.08,2.08,0,0,1-.83.75A2.12,2.12,0,0,1,250.1,99.08Zm-4.79-1.29H247a1.34,1.34,0,0,0,.91-.26.91.91,0,0,0,.31-.76.94.94,0,0,0-.31-.75,1.35,1.35,0,0,0-.91-.27h-1.71Zm3.32,2.4c0-.69-.44-1-1.3-1h-2v2.12h2C248.19,101.27,248.63,100.91,248.63,100.19Z" />
                <path class="cls-3" d="M262.23,94.31v8.4h-1.84V99.27h-3.62v3.44h-1.84v-8.4h1.84v3.31h3.62V94.31Z" />
                <path class="cls-3" d="M271.28,94.31,267.9,101a4,4,0,0,1-1.18,1.45,2.51,2.51,0,0,1-1.49.49,3.31,3.31,0,0,1-1.3-.28l.44-1.48a2.88,2.88,0,0,0,.8.16,1.07,1.07,0,0,0,.61-.18,1.65,1.65,0,0,0,.5-.54l.07-.1-3.14-6.17h2l2.11,4.51,2.19-4.51Z" />
                <path class="cls-3" d="M279.13,99.33H278v3.38h-1.81V99.33H275l-1.79,3.38h-2.12l2.38-4.39-2.23-4h1.94l1.78,3.4h1.22v-3.4H278v3.4h1.18l1.79-3.4h1.95l-2.23,4,2.37,4.39h-2.12Z" />
                <path class="cls-3" d="M292.21,101.13v3.32h-1.7v-1.74H284.9v1.74h-1.71v-3.32h.32c.48,0,.81-.39,1-1.11a14.14,14.14,0,0,0,.37-3.08l.09-2.63h6.11v6.82Zm-5.93-1.5a3.43,3.43,0,0,1-.56,1.5h3.56V95.9h-2.73l0,1.22A18.93,18.93,0,0,1,286.28,99.63Z" />
                <path class="cls-3" d="M298.79,100.91H295.1l-.71,1.8h-1.88l3.54-8.4h1.82l3.56,8.4H299.5Zm-.58-1.47L297,96.22l-1.26,3.22Z" />
                <path class="cls-4" d="M61.3,181.6h-9a1.9,1.9,0,1,0,0,3.79h9a1.9,1.9,0,1,0,0-3.79Zm.62,1.89a.62.62,0,0,1-.62.62h-9a.62.62,0,0,1,0-1.24h9A.62.62,0,0,1,61.92,183.49Z" />
                <path class="cls-4" d="M51.1,186.22A3.58,3.58,0,0,0,54,189.71a3,3,0,0,0,5.66,0,3.58,3.58,0,0,0,2.88-3.49v-.64H51.1Zm3.74,2.29h-.29a2.32,2.32,0,0,1-2.08-1.65h8.7a2.31,2.31,0,0,1-2.07,1.65H54.84Zm3.35,1.28a1.69,1.69,0,0,1-2.74,0Z" />
                <path class="cls-4" d="M56.82,150.75A12.76,12.76,0,0,0,44.07,163.5a12.6,12.6,0,0,0,2.73,7.86,53.62,53.62,0,0,1,3.8,5.53v4.49H63V177a56.42,56.42,0,0,1,3.86-5.64,12.6,12.6,0,0,0,2.73-7.86A12.76,12.76,0,0,0,56.82,150.75Zm-1.58,18.78.86,3.27,1.48-3.6.72,2.07,1.59-.73-2,9.56h-2l-2.1-9.58Zm6.55,7-.09.15v3.45H59.15l2.72-12.7-1.24-.27-.46,2.11-1.25.58-1.27-3.6-1.33,3.24-.42-1.64-2.38,1.59-.5-2.29-1.35.29,2.78,12.69H51.87v-3.56l-.09-.15a53.41,53.41,0,0,0-4-5.82,11.33,11.33,0,0,1-2.45-7.07,11.47,11.47,0,0,1,22.94,0,11.33,11.33,0,0,1-2.45,7.07h0A61.11,61.11,0,0,0,61.79,176.5Z" />
                <path class="cls-4" d="M57.29,148.68a.58.58,0,0,0,.58-.59v-5.54a.59.59,0,1,0-1.17,0v5.54A.58.58,0,0,0,57.29,148.68Z" />
                <path class="cls-4" d="M65.48,150.67a.54.54,0,0,0,.3.08.56.56,0,0,0,.5-.28l2.88-4.74a.58.58,0,0,0-.2-.8.57.57,0,0,0-.44-.07.6.6,0,0,0-.36.26l-2.87,4.75a.53.53,0,0,0-.07.44A.56.56,0,0,0,65.48,150.67Z" />
                <path class="cls-4" d="M71.06,157.45a.5.5,0,0,0,.27-.07l4.92-2.56a.59.59,0,1,0-.54-1l-4.92,2.57a.59.59,0,0,0,.27,1.1Z" />
                <path class="cls-4" d="M78.64,164.38a.6.6,0,0,0-.41-.2l-5.53-.35a.59.59,0,0,0-.07,1.17l5.53.35h0a.59.59,0,0,0,.58-.55A.6.6,0,0,0,78.64,164.38Z" />
                <path class="cls-4" d="M75,175.46l-4.55-3.18a.61.61,0,0,0-.44-.09.58.58,0,0,0-.23,1.05l4.55,3.17a.6.6,0,0,0,.34.11.58.58,0,0,0,.57-.69A.55.55,0,0,0,75,175.46Z" />
                <path class="cls-4" d="M47.48,150.47a.58.58,0,0,0,.5.28.52.52,0,0,0,.3-.08.58.58,0,0,0,.2-.8l-2.87-4.75a.6.6,0,0,0-.36-.26.59.59,0,0,0-.45.07.58.58,0,0,0-.19.8Z" />
                <path class="cls-4" d="M37.52,154.82l4.91,2.56a.54.54,0,0,0,.27.07.58.58,0,0,0,.27-1.1l-4.91-2.57a.59.59,0,0,0-.54,1Z" />
                <path class="cls-4" d="M41.69,164.38a.59.59,0,0,0-.62-.55l-5.54.35a.57.57,0,0,0-.4.2.6.6,0,0,0-.14.42.58.58,0,0,0,.58.55l5.57-.35A.6.6,0,0,0,41.69,164.38Z" />
                <path class="cls-4" d="M43.75,172.19a.59.59,0,0,0-.43.09l-4.55,3.17a.59.59,0,0,0-.15.82.58.58,0,0,0,.48.25.55.55,0,0,0,.33-.11L44,173.24a.58.58,0,0,0-.23-1.05Z" />
                <ellipse class="cls-35" cx="56.75" cy="197.68" rx="42.06" ry="2.72" />
                <path class="cls-6" d="M90.65,173.18s-.89,8.79-7.82,9.4c6.93.61,7.82,9.39,7.82,9.39s.89-8.78,7.83-9.39C91.54,182,90.65,173.18,90.65,173.18Z" />
                <path class="cls-6" d="M103.59,154.6s-.59,5.81-5.17,6.21c4.58.4,5.17,6.22,5.17,6.22s.59-5.82,5.18-6.22C104.18,160.41,103.59,154.6,103.59,154.6Z" />
                <path class="cls-3" d="M21.77,206.61h1.28v5l3.76-5H28v7H26.74v-5l-3.76,5H21.77Z" />
                <path class="cls-3" d="M34.54,213.61v-3.54l-1.8,3H32.2l-1.77-3v3.55H29.29v-5.34H30.6l1.9,3.34,2-3.34h1.17v5.34Z" />
                <path class="cls-3" d="M40.6,208.77a2.22,2.22,0,0,1,.62,1.71v3.13H40V213a1.43,1.43,0,0,1-.65.53,2.49,2.49,0,0,1-1,.19,2.46,2.46,0,0,1-1-.21,1.5,1.5,0,0,1-.69-.57,1.39,1.39,0,0,1-.25-.82,1.42,1.42,0,0,1,.54-1.16,2.62,2.62,0,0,1,1.68-.43H40v-.08a1.09,1.09,0,0,0-.33-.86,1.48,1.48,0,0,0-1-.3,2.66,2.66,0,0,0-.88.14,2.09,2.09,0,0,0-.74.39l-.49-.91a2.88,2.88,0,0,1,1-.49,4.24,4.24,0,0,1,1.25-.17A2.65,2.65,0,0,1,40.6,208.77Zm-1.14,3.78a1.18,1.18,0,0,0,.51-.61v-.62H38.68c-.72,0-1.08.23-1.08.71a.64.64,0,0,0,.27.54,1.26,1.26,0,0,0,.75.2A1.6,1.6,0,0,0,39.46,212.55Z" />
                <path class="cls-3" d="M46.45,209.33H44.58v4.28H43.33v-4.28H41.45v-1.06h5Z" />
                <path class="cls-3" d="M51.56,211.34H47.37a1.44,1.44,0,0,0,.58.93,1.87,1.87,0,0,0,1.15.35,2,2,0,0,0,1.45-.58l.67.77a2.33,2.33,0,0,1-.91.65,3.47,3.47,0,0,1-1.24.22,3.34,3.34,0,0,1-1.55-.35,2.5,2.5,0,0,1-1-1,2.68,2.68,0,0,1-.37-1.41,2.79,2.79,0,0,1,.36-1.41,2.47,2.47,0,0,1,1-1,3.05,3.05,0,0,1,2.82,0,2.49,2.49,0,0,1,1,1,3,3,0,0,1,.34,1.45C51.58,211.05,51.57,211.18,51.56,211.34Zm-3.69-1.78a1.49,1.49,0,0,0-.51.95h3a1.46,1.46,0,0,0-1.51-1.3A1.51,1.51,0,0,0,47.87,209.56Z" />
                <path class="cls-3" d="M28.39,221.86a2,2,0,0,1,.39,1.27,2.08,2.08,0,0,1-.8,1.74,3.65,3.65,0,0,1-2.29.63H21.77v-8.4h3.7a3.56,3.56,0,0,1,2.16.56,1.86,1.86,0,0,1,.77,1.61,2,2,0,0,1-.29,1.1,2.16,2.16,0,0,1-.83.75A2.13,2.13,0,0,1,28.39,221.86Zm-4.79-1.28h1.71a1.37,1.37,0,0,0,.91-.26.93.93,0,0,0,.31-.76.94.94,0,0,0-.31-.76,1.35,1.35,0,0,0-.91-.26H23.6Zm3.32,2.4c0-.7-.44-1-1.3-1h-2v2.13h2C26.48,224.06,26.92,223.7,26.92,223Z" />
                <path class="cls-3" d="M40.47,217.1v8.4H38.64v-6.82H35.05v6.82H33.22v-8.4Z" />
                <path class="cls-3" d="M43.9,225.08a4.17,4.17,0,0,1-1.56-1.56,4.7,4.7,0,0,1,0-4.45,4.07,4.07,0,0,1,1.56-1.55,4.65,4.65,0,0,1,4.46,0,4,4,0,0,1,1.55,1.55,4.63,4.63,0,0,1,0,4.45,4.07,4.07,0,0,1-1.55,1.56,4.72,4.72,0,0,1-4.46,0Zm3.5-1.44a2.42,2.42,0,0,0,.9-.95,3,3,0,0,0,.32-1.39,3,3,0,0,0-.32-1.4,2.49,2.49,0,0,0-.9-1,2.44,2.44,0,0,0-3.43,1,2.92,2.92,0,0,0-.33,1.4,2.88,2.88,0,0,0,.33,1.39,2.33,2.33,0,0,0,.89.95,2.54,2.54,0,0,0,2.54,0Z" />
                <path class="cls-3" d="M58.65,217.1v8.4H56.83v-6.82H54.11l-.06,1.75a19.79,19.79,0,0,1-.27,2.9,3.78,3.78,0,0,1-.72,1.7,1.76,1.76,0,0,1-1.42.6,4.4,4.4,0,0,1-.91-.13l.12-1.65a1,1,0,0,0,.33.05c.43,0,.74-.27.92-.82a11.11,11.11,0,0,0,.33-2.58l.11-3.4Z" />
                <path class="cls-3" d="M66.13,221.9a2.12,2.12,0,0,1-.08,2.58,3.08,3.08,0,0,1-1.29.86,5.08,5.08,0,0,1-1.78.3,6.09,6.09,0,0,1-1.63-.22,5.64,5.64,0,0,1-1.54-.66l.57-1.39a3.85,3.85,0,0,0,1.15.51,4.48,4.48,0,0,0,1.24.18,2.64,2.64,0,0,0,1.35-.32,1,1,0,0,0,.54-.87.79.79,0,0,0-.37-.71,1.8,1.8,0,0,0-1-.24H61.34v-1.46h1.81a1.41,1.41,0,0,0,.87-.24.78.78,0,0,0,.31-.66.85.85,0,0,0-.45-.77,2.08,2.08,0,0,0-1.15-.28,4.13,4.13,0,0,0-1.08.15,4.28,4.28,0,0,0-1.06.45L60,217.6a5.58,5.58,0,0,1,2.73-.68,5,5,0,0,1,1.71.28,3.07,3.07,0,0,1,1.25.84,2,2,0,0,1,.16,2.36,2,2,0,0,1-.84.72A2.23,2.23,0,0,1,66.13,221.9Z" />
                <path class="cls-3" d="M73.25,223.7H69.56l-.7,1.8H67l3.55-8.4h1.81l3.56,8.4H74Zm-.58-1.48L71.41,219l-1.26,3.22Z" />
                <path class="cls-3" d="M87.23,217.1v8.4H85.39v-3.45H81.77v3.45H79.93v-8.4h1.84v3.31h3.62V217.1Z" />
                <path class="cls-3" d="M94.49,223.7H90.8l-.71,1.8H88.21l3.54-8.4h1.82l3.56,8.4H95.19Zm-.58-1.48L92.65,219l-1.26,3.22Z" />
                <path class="cls-3" d="M23.33,237.26a4.17,4.17,0,0,1-1.56-1.56,4.7,4.7,0,0,1,0-4.45,4.07,4.07,0,0,1,1.56-1.55,4.65,4.65,0,0,1,4.46,0,4.07,4.07,0,0,1,1.56,1.55,4.63,4.63,0,0,1,0,4.45,4.17,4.17,0,0,1-1.56,1.56,4.72,4.72,0,0,1-4.46,0Zm3.51-1.44a2.4,2.4,0,0,0,.89-.95,3,3,0,0,0,.32-1.39,3,3,0,0,0-.32-1.4,2.47,2.47,0,0,0-.89-1,2.43,2.43,0,0,0-1.28-.34,2.39,2.39,0,0,0-1.27.34,2.47,2.47,0,0,0-.89,1,2.92,2.92,0,0,0-.32,1.4,2.88,2.88,0,0,0,.32,1.39,2.38,2.38,0,0,0,2.16,1.29A2.43,2.43,0,0,0,26.84,235.82Z" />
                <path class="cls-3" d="M31.22,229.28h6.42v1.54H33.05v1.73h2.21a3.32,3.32,0,0,1,2.2.64,2.26,2.26,0,0,1,.75,1.83,2.4,2.4,0,0,1-.84,2,3.64,3.64,0,0,1-2.37.7H31.22Zm3.67,7a1.69,1.69,0,0,0,1.08-.3,1,1,0,0,0,.38-.86c0-.73-.49-1.1-1.46-1.1H33.05v2.26Z" />
                <path class="cls-3" d="M50,229.28v8.4H39.5v-8.4h1.82v6.81h2.52v-6.81h1.83v6.81h2.49v-6.81Zm1.08,6.81v3.33h-1.7v-1.74H48.13v-1.59Z" />
                <path class="cls-3" d="M58.38,236.12v1.56H52.22v-8.4h6v1.56H54.05v1.82h3.69v1.51H54.05v2Z" />
                <path class="cls-3" d="M61.29,237.26a4,4,0,0,1-1.54-1.55,4.74,4.74,0,0,1,0-4.47,4,4,0,0,1,1.54-1.55,4.45,4.45,0,0,1,2.21-.56,4.34,4.34,0,0,1,1.87.39,3.7,3.7,0,0,1,1.41,1.1l-1.19,1.15a2.59,2.59,0,0,0-3.31-.64,2.45,2.45,0,0,0-.91,1,3,3,0,0,0-.32,1.4,3,3,0,0,0,.32,1.39,2.38,2.38,0,0,0,.91.95,2.58,2.58,0,0,0,3.31-.65l1.19,1.15a3.76,3.76,0,0,1-1.41,1.12,4.57,4.57,0,0,1-1.88.38A4.42,4.42,0,0,1,61.29,237.26Z" />
                <path class="cls-3" d="M73.87,230.86H71.32v6.82H69.5v-6.82H67v-1.58h6.9Z" />
                <path class="cls-3" d="M81.54,234a2.1,2.1,0,0,1,.38,1.27,2,2,0,0,1-.8,1.74,3.63,3.63,0,0,1-2.29.63H74.91v-8.4h3.71a3.6,3.6,0,0,1,2.16.56,1.89,1.89,0,0,1,.77,1.61,2,2,0,0,1-.3,1.1,2.09,2.09,0,0,1-.83.75A2.15,2.15,0,0,1,81.54,234Zm-4.8-1.28h1.72a1.41,1.41,0,0,0,.91-.26,1,1,0,0,0,.3-.76.94.94,0,0,0-.31-.76,1.34,1.34,0,0,0-.9-.26H76.74Zm3.32,2.4c0-.7-.43-1-1.3-1h-2v2.13h2C79.63,236.24,80.06,235.88,80.06,235.16Z" />
                <path class="cls-3" d="M84.83,237.26a4,4,0,0,1-1.56-1.56,4.7,4.7,0,0,1,0-4.45,3.94,3.94,0,0,1,1.56-1.55,4.65,4.65,0,0,1,4.46,0,4,4,0,0,1,1.55,1.55,4.63,4.63,0,0,1,0,4.45,4.15,4.15,0,0,1-1.55,1.56,4.72,4.72,0,0,1-4.46,0Zm3.5-1.44a2.33,2.33,0,0,0,.89-.95,2.88,2.88,0,0,0,.33-1.39,2.92,2.92,0,0,0-.33-1.4,2.48,2.48,0,0,0-3.43-1,2.49,2.49,0,0,0-.9,1,3,3,0,0,0-.32,1.4,3,3,0,0,0,.32,1.39,2.42,2.42,0,0,0,.9.95,2.54,2.54,0,0,0,2.54,0Z" />
                <path class="cls-3" d="M98.68,230.86H96.14v6.82H94.32v-6.82H91.79v-1.58h6.89Z" />
                <path class="cls-3" d="M101.18,237.26a4.1,4.1,0,0,1-1.56-1.56,4.7,4.7,0,0,1,0-4.45,4,4,0,0,1,1.56-1.55,4.65,4.65,0,0,1,4.46,0,4,4,0,0,1,1.55,1.55,4.63,4.63,0,0,1,0,4.45,4.07,4.07,0,0,1-1.55,1.56,4.72,4.72,0,0,1-4.46,0Zm3.5-1.44a2.33,2.33,0,0,0,.89-.95,2.88,2.88,0,0,0,.33-1.39,2.92,2.92,0,0,0-.33-1.4,2.44,2.44,0,0,0-4.32,0,2.92,2.92,0,0,0-.33,1.4,2.88,2.88,0,0,0,.33,1.39,2.33,2.33,0,0,0,.89.95,2.54,2.54,0,0,0,2.54,0Z" />
                <path class="cls-3" d="M56.94,204.67h1.83v5.47l3.79-5.47h1.73v8.4H62.47v-5.46l-3.79,5.46H56.94Z" />
                <path class="cls-3" d="M74.3,211.48v3.33H72.6v-1.74H67v1.74h-1.7v-3.33h.32c.47,0,.81-.38,1-1.1a13.74,13.74,0,0,0,.36-3.09l.09-2.62h6.12v6.81ZM68.37,210a3.44,3.44,0,0,1-.56,1.49h3.56v-5.23H68.64l0,1.22A19.28,19.28,0,0,1,68.37,210Z" />
                <path class="cls-3" d="M81.58,211.51v1.56H75.42v-8.4h6v1.56H77.25v1.82H81v1.51h-3.7v1.95Z" />
                <path class="cls-3" d="M89.23,204.67v8.4H87.41v-2.24H85.73l-1.41,2.24H82.38L84,210.53a2.62,2.62,0,0,1-1.24-1.05,3.11,3.11,0,0,1-.43-1.68,3.22,3.22,0,0,1,.42-1.68A2.9,2.9,0,0,1,84,205a4.14,4.14,0,0,1,1.82-.37Zm-4.58,2a1.48,1.48,0,0,0-.42,1.14,1.5,1.5,0,0,0,.4,1.13,1.55,1.55,0,0,0,1.17.4h1.61v-3.05H85.84A1.7,1.7,0,0,0,84.65,206.63Z" />
                <path class="cls-3" d="M100,551.68a4,4,0,0,1-1.55-1.55,4.74,4.74,0,0,1,0-4.47,4,4,0,0,1,1.55-1.55,4.43,4.43,0,0,1,2.21-.56,4.38,4.38,0,0,1,1.87.39,3.67,3.67,0,0,1,1.4,1.1l-1.18,1.15a2.5,2.5,0,0,0-2-1,2.55,2.55,0,0,0-1.32.34,2.49,2.49,0,0,0-.9,1,2.92,2.92,0,0,0-.32,1.4,2.88,2.88,0,0,0,.32,1.39,2.42,2.42,0,0,0,.9,1,2.55,2.55,0,0,0,1.32.34,2.48,2.48,0,0,0,2-1l1.18,1.15a3.76,3.76,0,0,1-1.41,1.12,4.53,4.53,0,0,1-1.87.38A4.42,4.42,0,0,1,100,551.68Z" />
                <path class="cls-3" d="M112.55,545.28H110v6.82h-1.82v-6.82h-2.53V543.7h6.89Z" />
                <path class="cls-3" d="M118.59,550.3h-3.7l-.7,1.8H112.3l3.55-8.4h1.82l3.55,8.4h-1.93Zm-.58-1.48-1.26-3.22-1.26,3.22Z" />
                <path class="cls-3" d="M127.44,544.07a2.8,2.8,0,0,1,1.2,1,3.33,3.33,0,0,1,0,3.24,2.68,2.68,0,0,1-1.2,1,4.18,4.18,0,0,1-1.83.37H124v2.32h-1.84v-8.4h3.44A4.18,4.18,0,0,1,127.44,544.07Zm-.67,3.75a1.57,1.57,0,0,0,0-2.16,1.88,1.88,0,0,0-1.26-.38H124v2.92h1.5A1.88,1.88,0,0,0,126.77,547.82Z" />
                <path class="cls-3" d="M136,545.28h-2.55v6.82h-1.81v-6.82h-2.54V543.7H136Z" />
                <path class="cls-3" d="M137.18,551.87a1,1,0,0,1-.31-.77,1,1,0,0,1,.31-.76,1.14,1.14,0,0,1,1.56,0,1,1,0,0,1,.31.76,1,1,0,0,1-.31.77,1.11,1.11,0,0,1-1.56,0Zm-.28-8.17H139l-.36,5.48h-1.4Z" />
            </g>
        </g>
    </g>
</svg>