<svg xmlns="http://www.w3.org/2000/svg" viewBox="0 0 1010.9 183.77">
  <defs>
    <style>.cls-1 {fill: #4ac3ff;}.cls-2 {fill: #ffcb57;}
</style>
  </defs>
  <title>podkrepi-bg-logo_2</title>
  <g id="Layer_2" data-name="Layer 2">
    <g id="Layer_1-2" data-name="Layer 1">
      <path class="cls-1" d="M295.86,55.43v80.63H277.32V70.64h-36.4v65.42H222.37V55.43Z" />
      <path class="cls-1" d="M326,132.89a30.39,30.39,0,0,1-12.15-11.35,33.18,33.18,0,0,1,0-32.94A30.4,30.4,0,0,1,326,77.26a39.65,39.65,0,0,1,35.07,0,30.51,30.51,0,0,1,12.09,11.35,33.18,33.18,0,0,1,0,32.94,30.5,30.5,0,0,1-12.09,11.35,39.65,39.65,0,0,1-35.07,0Zm28.91-15.32q4.43-4.67,4.43-12.5t-4.43-12.5a15,15,0,0,0-11.35-4.67,15.15,15.15,0,0,0-11.4,4.67q-4.49,4.66-4.49,12.5t4.49,12.5a15.15,15.15,0,0,0,11.4,4.67A15,15,0,0,0,354.89,117.58Z" />
      <path class="cls-1" d="M453.08,74.09v51.6q0,17-8.87,25.34t-25.92,8.29a64.85,64.85,0,0,1-17-2.19,37.26,37.26,0,0,1-13.36-6.33L395,137.9a29.39,29.39,0,0,0,9.91,5.13,39.42,39.42,0,0,0,12,1.9q9.33,0,13.76-4.2T435.11,128v-2.65q-7,7.72-19.58,7.72a32.87,32.87,0,0,1-15.61-3.74,28.51,28.51,0,0,1-11.23-10.54,29.46,29.46,0,0,1-4.15-15.66,29.48,29.48,0,0,1,4.15-15.67,28.54,28.54,0,0,1,11.23-10.54,32.9,32.9,0,0,1,15.61-3.74Q429,73.17,436,82V74.09Zm-22.29,40a14.28,14.28,0,0,0,4.55-11,14.28,14.28,0,0,0-4.55-11,16.55,16.55,0,0,0-11.69-4.2,16.76,16.76,0,0,0-11.75,4.2,14.19,14.19,0,0,0-4.61,11,14.18,14.18,0,0,0,4.61,11,16.74,16.74,0,0,0,11.75,4.2A16.54,16.54,0,0,0,430.79,114.12Z" />
      <path class="cls-1" d="M497.43,112.56h-9.21v23.5H470.36V50.6h17.85V98.17h9.56L514.7,74.09h19.12l-21.77,29.72,23.15,32.25H514Z" />
      <path class="cls-1" d="M596.31,77.15a28.56,28.56,0,0,1,11.12,11.17,33.74,33.74,0,0,1,4,16.76,33.74,33.74,0,0,1-4,16.76A28.53,28.53,0,0,1,596.31,133a31.58,31.58,0,0,1-15.72,4q-11.86,0-18.66-7.49v28.91H544V74.09h17.16v7.14q6.68-8.06,19.46-8.06A31.58,31.58,0,0,1,596.31,77.15Zm-7.49,40.43q4.43-4.67,4.43-12.5t-4.43-12.5a16.13,16.13,0,0,0-22.69,0q-4.43,4.66-4.43,12.5t4.43,12.5a16.13,16.13,0,0,0,22.69,0Z" />
      <path class="cls-1" d="M663.46,121.15a20.79,20.79,0,0,0,7-4.55L680,127q-8.75,10-25.57,10a40.45,40.45,0,0,1-18.54-4.09,30,30,0,0,1-12.44-11.35,31.25,31.25,0,0,1-4.38-16.47,31.68,31.68,0,0,1,4.32-16.41,30.26,30.26,0,0,1,11.86-11.4,35.08,35.08,0,0,1,17-4.09,34.67,34.67,0,0,1,16.13,3.74,28.81,28.81,0,0,1,11.58,10.83,31.56,31.56,0,0,1,4.32,16.76l-45.84,8.87a13.74,13.74,0,0,0,6.16,6.91,21.19,21.19,0,0,0,10.31,2.3A23.77,23.77,0,0,0,663.46,121.15Zm-22.29-30q-4.26,4.38-4.49,12.09l30.18-5.87a13.55,13.55,0,0,0-5.18-7.72,15.51,15.51,0,0,0-9.45-2.88A14.75,14.75,0,0,0,641.17,91.14Z" />
      <path class="cls-1" d="M752.84,80.08q7.08,6.91,7.08,20.5v35.48H742V103.35q0-7.37-3.22-11t-9.33-3.63q-6.8,0-10.83,4.2t-4,12.5v30.64h-18v-62h17.16v7.26a23.84,23.84,0,0,1,8.87-6,30.9,30.9,0,0,1,11.63-2.13Q745.75,73.17,752.84,80.08Z" />
      <path class="cls-1" d="M836.75,74.09v62H819.59V128.8a22.11,22.11,0,0,1-8.47,6.11A27.6,27.6,0,0,1,800.47,137q-12.21,0-19.41-7t-7.2-20.85v-35h18v32.37q0,15,12.55,15a13.64,13.64,0,0,0,10.48-4.2q3.91-4.2,3.92-12.5V74.09Z" />
      <path class="cls-1" d="M852.41,133.76a10.93,10.93,0,0,1-3.23-8.06,10.51,10.51,0,0,1,3.23-8,11.87,11.87,0,0,1,15.89,0,10.52,10.52,0,0,1,3.22,8,10.94,10.94,0,0,1-3.22,8.06,11.4,11.4,0,0,1-15.89,0Z" />
      <path class="cls-1" d="M933.15,82a25.35,25.35,0,0,1,10.31,10.19,30.93,30.93,0,0,1,3.63,15.2,28.24,28.24,0,0,1-16.36,26.32,39.64,39.64,0,0,1-17.51,3.74q-16.24,0-25.51-10.42t-9.27-30.58q0-18.66,8.12-29.77T911.5,52.09L941,46.22l2.42,15.43-26,5.18q-10.6,2.07-15.72,6.91t-6,13.71a27.32,27.32,0,0,1,9.68-6.74,31.64,31.64,0,0,1,12.32-2.36A32.08,32.08,0,0,1,933.15,82Zm-8.7,37a16,16,0,0,0,4.2-11.4q0-7-4.2-11.17t-11.12-4.15q-7,0-11.29,4.15t-4.26,11.17a15.61,15.61,0,0,0,4.38,11.46,15,15,0,0,0,11.17,4.43A14.51,14.51,0,0,0,924.46,119Z" />
      <path class="cls-1" d="M962.64,131.91q-8.29-5.18-8.29-14.74,0-6.33,3.51-10a19.93,19.93,0,0,1,8.35-5.18,101.61,101.61,0,0,1,12.32-2.94,62.55,62.55,0,0,0,10.19-2.48q3.17-1.21,3.17-4.09a4.8,4.8,0,0,0-3-4.49,18.86,18.86,0,0,0-8.29-1.5,45.08,45.08,0,0,0-10.25,1.27,41,41,0,0,0-8.87,3L956.31,78.7a51.69,51.69,0,0,1,11.63-4.32,53,53,0,0,1,12.67-1.55q12.55,0,20.62,5.3a16.91,16.91,0,0,1,8.06,15q0,6.45-3.57,10.14a20.06,20.06,0,0,1-8.47,5.24,92.73,92.73,0,0,1-12.5,2.82,60.4,60.4,0,0,0-10,2.48q-3.11,1.21-3.11,3.86,0,3,3.17,4.49a20,20,0,0,0,8.46,1.5A47.86,47.86,0,0,0,995.47,122a44.61,44.61,0,0,0,10.25-3.86l5.18,12a51,51,0,0,1-12.84,5.18,56.77,56.77,0,0,1-14.34,1.84Q970.93,137.1,962.64,131.91Z" />
      <path class="cls-1" d="M0,75.29c25.35-28.9,44.88-5.6,50,19.91,8.37,42.12,86.53.08,84.5-90.74-.46-20.41,53.55,32.1-.17,102,0,0,25.82-8.28,35.13-52.65,5.4-25.76,45.49,38.92-32.93,93.46,0,0,19-.83,36.51-21.31,14.77-17.29,13,24.15-34.5,48.44-34.79,17.81-90.22,10.9-107.82-27.07C20.31,125,31.66,95.76,0,75.29" />
      <path class="cls-2" d="M112.32,47.28A58.73,58.73,0,0,1,98.09,85.69c-10,11.46-24.39,18.25-34.29,16.7C80.46,83.82,89.47,47.81,88.57,7.71c-.3-13.89,24.17,3.13,23.75,39.57" />
    </g>
  </g>
</svg>
