<svg width="1162" height="258" viewBox="0 0 1162 258" fill="none" xmlns="http://www.w3.org/2000/svg">
  <path d="M150.79 73.9693C154.84 23.6893 115.19 -15.5907 116.84 6.10928C121.39 64.8293 115.27 98.6093 88.67 136.159C117.78 136.159 147.66 108.949 150.79 73.9693Z" fill="#FFCB57" />
  <path d="M146.46 119.409C167.15 94.2993 182.14 54.5793 178.44 6.23928C177.12 -11.0607 200.97 9.78928 208.78 46.4593C214.73 74.3793 211.09 111.469 181.72 147.879C181.72 147.879 217.49 133.529 237.96 88.8893C252.03 58.2193 268.64 162.799 179.52 209.419C179.52 209.419 209.43 206.579 233.65 188.179C261.15 167.279 226.8 241.829 160.27 255.089C118.24 263.469 64.25 251.699 39.53 206.929C18.29 168.459 38.62 126.669 0 105.329C13.6 85.3493 36.81 86.6093 50.11 98.8193C68.36 116.959 60.17 136.169 75.65 144.769C95.55 155.839 128.34 140.799 146.46 119.409Z" fill="#32A9FE" />
  <path d="M395.61 97.5692C401.64 100.299 406.29 104.179 409.55 109.199C412.81 114.219 414.44 120.159 414.44 127.029C414.44 133.809 412.81 139.739 409.55 144.799C406.29 149.869 401.64 153.739 395.61 156.419C389.58 159.109 382.47 160.449 374.27 160.449H355.64V185.949H334.24V93.4692H374.27C382.47 93.4692 389.58 94.8392 395.61 97.5692ZM387.75 138.849C391.1 136.079 392.77 132.139 392.77 127.029C392.77 121.829 391.1 117.849 387.75 115.069C384.4 112.299 379.51 110.909 373.09 110.909H355.65V143.009H373.09C379.52 143.009 384.41 141.629 387.75 138.849Z" fill="#32A9FE" />
  <path d="M441.72 182.319C435.78 179.199 431.13 174.859 427.78 169.309C424.43 163.759 422.76 157.469 422.76 150.419C422.76 143.379 424.43 137.079 427.78 131.529C431.13 125.979 435.77 121.639 441.72 118.519C447.66 115.389 454.38 113.829 461.87 113.829C469.35 113.829 476.05 115.389 481.95 118.519C487.85 121.649 492.47 125.979 495.82 131.529C499.17 137.079 500.84 143.379 500.84 150.419C500.84 157.469 499.17 163.759 495.82 169.309C492.47 174.859 487.85 179.199 481.95 182.319C476.05 185.449 469.35 187.009 461.87 187.009C454.38 187.009 447.67 185.439 441.72 182.319ZM474.88 164.749C478.27 161.179 479.97 156.409 479.97 150.419C479.97 144.429 478.27 139.649 474.88 136.089C471.49 132.519 467.15 130.739 461.87 130.739C456.59 130.739 452.23 132.519 448.79 136.089C445.35 139.659 443.64 144.439 443.64 150.419C443.64 156.409 445.36 161.189 448.79 164.749C452.22 168.319 456.58 170.099 461.87 170.099C467.16 170.099 471.49 168.309 474.88 164.749Z" fill="#32A9FE" />
  <path d="M586.97 87.9292V185.949H567.29V177.759C562.18 183.929 554.78 187.009 545.1 187.009C538.41 187.009 532.35 185.509 526.94 182.519C521.52 179.529 517.27 175.249 514.19 169.709C511.11 164.159 509.57 157.729 509.57 150.419C509.57 143.109 511.11 136.679 514.19 131.129C517.27 125.579 521.52 121.309 526.94 118.319C532.36 115.329 538.41 113.829 545.1 113.829C554.17 113.829 561.26 116.689 566.37 122.419V87.9292H586.97ZM561.61 164.749C565.04 161.179 566.76 156.409 566.76 150.419C566.76 144.429 565.04 139.649 561.61 136.089C558.17 132.519 553.86 130.739 548.66 130.739C543.38 130.739 539.02 132.519 535.58 136.089C532.14 139.659 530.43 144.439 530.43 150.419C530.43 156.409 532.15 161.189 535.58 164.749C539.01 168.319 543.37 170.099 548.66 170.099C553.86 170.099 558.17 168.309 561.61 164.749Z" fill="#32A9FE" />
  <path d="M636.51 158.069L626.6 167.849V185.949H605.99V87.9292H626.6V143.409L656.72 114.879H681.29L651.7 144.999L683.93 185.949H658.96L636.51 158.069Z" fill="#32A9FE" />
  <path d="M722.31 116.459C726.49 114.699 731.31 113.819 736.78 113.819V132.839C734.49 132.659 732.95 132.579 732.16 132.579C726.26 132.579 721.64 134.229 718.29 137.529C714.94 140.829 713.27 145.789 713.27 152.389V185.939H692.66V114.869H712.34V124.249C714.8 120.819 718.13 118.219 722.31 116.459Z" fill="#32A9FE" />
  <path d="M817.63 156.219H763.86C764.83 160.619 767.12 164.099 770.73 166.659C774.34 169.219 778.83 170.489 784.21 170.489C787.91 170.489 791.19 169.939 794.05 168.839C796.91 167.739 799.58 165.999 802.04 163.619L813 175.509C806.31 183.169 796.53 186.999 783.67 186.999C775.65 186.999 768.56 185.439 762.4 182.309C756.23 179.189 751.48 174.849 748.13 169.299C744.78 163.749 743.11 157.459 743.11 150.409C743.11 143.449 744.76 137.179 748.06 131.579C751.36 125.989 755.9 121.629 761.67 118.499C767.44 115.369 773.89 113.809 781.02 113.809C787.98 113.809 794.27 115.309 799.91 118.299C805.55 121.299 809.97 125.589 813.19 131.179C816.4 136.769 818.01 143.269 818.01 150.669C818.02 150.939 817.89 152.789 817.63 156.219ZM769.41 133.369C766.24 136.009 764.3 139.619 763.6 144.199H798.61C797.9 139.709 795.97 136.119 792.8 133.429C789.63 130.739 785.75 129.399 781.17 129.399C776.5 129.409 772.58 130.729 769.41 133.369Z" fill="#32A9FE" />
  <path d="M891.8 118.379C897.22 121.419 901.46 125.689 904.55 131.189C907.63 136.689 909.17 143.099 909.17 150.409C909.17 157.719 907.63 164.129 904.55 169.629C901.47 175.129 897.22 179.409 891.8 182.439C886.38 185.479 880.37 186.999 873.77 186.999C864.7 186.999 857.56 184.139 852.37 178.409V211.569H831.76V114.869H851.44V123.059C856.55 116.899 863.99 113.809 873.77 113.809C880.38 113.819 886.39 115.339 891.8 118.379ZM883.22 164.749C886.61 161.179 888.31 156.409 888.31 150.419C888.31 144.429 886.61 139.649 883.22 136.089C879.83 132.519 875.49 130.739 870.21 130.739C864.93 130.739 860.59 132.519 857.2 136.089C853.81 139.659 852.11 144.439 852.11 150.419C852.11 156.409 853.8 161.189 857.2 164.749C860.59 168.319 864.93 170.099 870.21 170.099C875.49 170.099 879.83 168.309 883.22 164.749Z" fill="#32A9FE" />
  <path d="M923.97 101.659C921.59 99.4592 920.4 96.7292 920.4 93.4692C920.4 90.2092 921.59 87.4792 923.97 85.2792C926.35 83.0792 929.43 81.9792 933.22 81.9792C937.01 81.9792 940.09 83.0392 942.47 85.1492C944.85 87.2592 946.04 89.9092 946.04 93.0792C946.04 96.5192 944.85 99.3592 942.47 101.599C940.09 103.839 937.01 104.969 933.22 104.969C929.43 104.969 926.35 103.869 923.97 101.659ZM922.91 114.879H943.52V185.949H922.91V114.879Z" fill="#32A9FE" />
  <path d="M961.36 183.309C958.89 180.849 957.66 177.759 957.66 174.059C957.66 170.269 958.89 167.209 961.36 164.879C963.82 162.549 966.86 161.379 970.48 161.379C974.09 161.379 977.13 162.549 979.6 164.879C982.06 167.209 983.3 170.279 983.3 174.059C983.3 177.759 982.07 180.839 979.6 183.309C977.13 185.779 974.09 187.009 970.48 187.009C966.86 187.009 963.82 185.769 961.36 183.309Z" fill="#32A9FE" />
  <path d="M1057.33 118.379C1062.75 121.419 1066.99 125.689 1070.08 131.189C1073.16 136.689 1074.7 143.099 1074.7 150.409C1074.7 157.719 1073.16 164.129 1070.08 169.629C1067 175.129 1062.75 179.409 1057.33 182.439C1051.91 185.479 1045.9 186.999 1039.3 186.999C1029.52 186.999 1022.08 183.919 1016.97 177.749V185.939H997.29V87.9292H1017.9V122.409C1023.1 116.689 1030.23 113.819 1039.3 113.819C1045.9 113.819 1051.91 115.339 1057.33 118.379ZM1048.74 164.749C1052.13 161.179 1053.83 156.409 1053.83 150.419C1053.83 144.429 1052.13 139.649 1048.74 136.089C1045.35 132.519 1041.01 130.739 1035.73 130.739C1030.45 130.739 1026.11 132.519 1022.72 136.089C1019.33 139.659 1017.63 144.439 1017.63 150.419C1017.63 156.409 1019.32 161.189 1022.72 164.749C1026.11 168.319 1030.45 170.099 1035.73 170.099C1041.01 170.099 1045.35 168.309 1048.74 164.749Z" fill="#32A9FE" />
  <path d="M1161.76 114.879V174.059C1161.76 187.089 1158.37 196.779 1151.59 203.119C1144.81 209.459 1134.9 212.629 1121.87 212.629C1115 212.629 1108.48 211.789 1102.32 210.119C1096.15 208.449 1091.05 206.019 1087 202.849L1095.19 188.049C1098.18 190.509 1101.97 192.479 1106.55 193.929C1111.13 195.379 1115.71 196.109 1120.29 196.109C1127.42 196.109 1132.69 194.499 1136.08 191.289C1139.47 188.069 1141.17 183.209 1141.17 176.689V173.649C1135.8 179.549 1128.31 182.499 1118.71 182.499C1112.19 182.499 1106.23 181.069 1100.81 178.209C1095.39 175.349 1091.1 171.319 1087.93 166.119C1084.76 160.919 1083.17 154.939 1083.17 148.149C1083.17 141.369 1084.75 135.379 1087.93 130.179C1091.1 124.979 1095.39 120.949 1100.81 118.089C1106.23 115.229 1112.19 113.799 1118.71 113.799C1129.01 113.799 1136.85 117.189 1142.23 123.969V114.849H1161.76V114.879ZM1136.19 160.779C1139.67 157.569 1141.41 153.359 1141.41 148.159C1141.41 142.959 1139.67 138.759 1136.19 135.539C1132.71 132.329 1128.24 130.719 1122.78 130.719C1117.32 130.719 1112.83 132.329 1109.3 135.539C1105.78 138.759 1104.02 142.959 1104.02 148.159C1104.02 153.359 1105.78 157.559 1109.3 160.779C1112.82 163.999 1117.31 165.599 1122.78 165.599C1128.25 165.599 1132.71 163.999 1136.19 160.779Z" fill="#32A9FE" />
</svg>
