<?xml version="1.0" encoding="UTF-8"?><svg id="Layer_1" xmlns="http://www.w3.org/2000/svg" viewBox="0 0 32 32"><defs><style>.cls-1{fill:#d1d3d3;}</style></defs><circle class="cls-1" cx="15.98" cy="16.01" r="15.64"/><g><path d="m17.72,10.51c.39-4.78-3.39-8.52-3.23-6.46.43,5.59-.15,8.8-2.68,12.37,2.77,0,5.61-2.59,5.91-5.92Z"/><path d="m17.31,14.83c1.97-2.39,3.39-6.17,3.04-10.77-.13-1.65,2.14.34,2.89,3.83.57,2.66.22,6.19-2.57,9.65,0,0,3.4-1.37,5.35-5.61,1.34-2.92,2.92,7.03-5.56,11.47,0,0,2.85-.27,5.15-2.02,2.62-1.99-.65,5.1-6.98,6.37-4,.8-9.14-.32-11.49-4.58-2.02-3.66-.09-7.64-3.76-9.67,1.29-1.9,3.5-1.78,4.77-.62,1.74,1.73.96,3.55,2.43,4.37,1.89,1.05,5.01-.38,6.74-2.41Z"/></g></svg>