<svg xmlns="http://www.w3.org/2000/svg" viewBox="0 0 883.2 172"><defs><style>.cls-1{fill:#4ac3ff;}.cls-2{fill:#ffcb57;}</style></defs><title>podkrepi-bg-logo-en</title><g id="Layer_2" data-name="Layer 2"><g id="Layer_1-2" data-name="Layer 1"><path class="cls-1" d="M257.78,55.23a25.88,25.88,0,0,1,11.37,9.49,26.14,26.14,0,0,1,4,14.55,26.21,26.21,0,0,1-4,14.5,25.4,25.4,0,0,1-11.37,9.49,42.51,42.51,0,0,1-17.41,3.29h-15.2v20.81H207.7V51.88h32.67A41.94,41.94,0,0,1,257.78,55.23Zm-6.41,33.69q4.1-3.4,4.1-9.65t-4.1-9.76q-4.1-3.4-12-3.4H225.17v26.2H239.4Q247.27,92.31,251.36,88.92Z"/><path class="cls-1" d="M295.4,124.38A28.44,28.44,0,0,1,284,113.76a31.05,31.05,0,0,1,0-30.83A28.45,28.45,0,0,1,295.4,72.31a37.11,37.11,0,0,1,32.83,0,28.56,28.56,0,0,1,11.32,10.62,31.05,31.05,0,0,1,0,30.83,28.55,28.55,0,0,1-11.32,10.62,37.11,37.11,0,0,1-32.83,0ZM322.46,110q4.15-4.37,4.15-11.7t-4.15-11.7a14,14,0,0,0-10.62-4.37,14.18,14.18,0,0,0-10.67,4.37Q297,91,297,98.35t4.2,11.7a14.18,14.18,0,0,0,10.67,4.37A14,14,0,0,0,322.46,110Z"/><path class="cls-1" d="M413.93,47.36v80H397.87v-6.68q-6.25,7.55-18.11,7.55a30.11,30.11,0,0,1-14.82-3.67,26.24,26.24,0,0,1-10.4-10.46,31.86,31.86,0,0,1-3.77-15.74,31.87,31.87,0,0,1,3.77-15.74,26.25,26.25,0,0,1,10.4-10.46,30.13,30.13,0,0,1,14.82-3.67q11.1,0,17.36,7V47.36ZM393.23,110q4.2-4.37,4.2-11.7t-4.2-11.7a15.1,15.1,0,0,0-21.24,0q-4.2,4.37-4.2,11.7T372,110a15.1,15.1,0,0,0,21.24,0Z"/><path class="cls-1" d="M454.36,104.6l-8.09,8v14.77H429.46v-80h16.82V92.63l24.58-23.29H490.9L466.76,93.93l26.3,33.42H472.68Z"/><path class="cls-1" d="M524.48,70.64a30.21,30.21,0,0,1,11.8-2.16V84q-2.8-.22-3.77-.22-7.22,0-11.32,4T517.1,100v27.38H500.28v-58h16.06V77A18.7,18.7,0,0,1,524.48,70.64Z"/><path class="cls-1" d="M583.13,113.39a19.45,19.45,0,0,0,6.52-4.26l8.95,9.7q-8.19,9.38-23.93,9.38a37.84,37.84,0,0,1-17.36-3.83,28,28,0,0,1-11.64-10.62,29.24,29.24,0,0,1-4.1-15.42,29.64,29.64,0,0,1,4-15.36,28.32,28.32,0,0,1,11.1-10.67,32.83,32.83,0,0,1,15.9-3.83A32.45,32.45,0,0,1,587.71,72a27,27,0,0,1,10.83,10.13,29.54,29.54,0,0,1,4,15.69l-42.91,8.3a12.86,12.86,0,0,0,5.77,6.47,19.83,19.83,0,0,0,9.65,2.16A22.24,22.24,0,0,0,583.13,113.39ZM562.27,85.3q-4,4.1-4.2,11.32l28.25-5.5a12.69,12.69,0,0,0-4.85-7.22,14.52,14.52,0,0,0-8.84-2.7A13.8,13.8,0,0,0,562.27,85.3Z"/><path class="cls-1" d="M662.9,72.21a26.72,26.72,0,0,1,10.4,10.46,31.58,31.58,0,0,1,3.77,15.69A31.57,31.57,0,0,1,673.31,114a26.71,26.71,0,0,1-10.4,10.46,29.56,29.56,0,0,1-14.72,3.72q-11.1,0-17.46-7v27.06H613.91V69.35H630V76q6.25-7.54,18.22-7.55A29.56,29.56,0,0,1,662.9,72.21Zm-7,37.84q4.15-4.37,4.15-11.7t-4.15-11.7a15.1,15.1,0,0,0-21.24,0q-4.15,4.37-4.15,11.7t4.15,11.7a15.1,15.1,0,0,0,21.24,0Z"/><path class="cls-1" d="M689.15,58.57a9.13,9.13,0,0,1,0-13.37,10.67,10.67,0,0,1,7.55-2.69,10.94,10.94,0,0,1,7.55,2.59,8.3,8.3,0,0,1,2.91,6.47,9.15,9.15,0,0,1-2.91,7,10.55,10.55,0,0,1-7.55,2.75A10.66,10.66,0,0,1,689.15,58.57Zm-.86,10.78h16.82v58H688.29Z"/><path class="cls-1" d="M719.66,125.19a10.23,10.23,0,0,1-3-7.55,9.84,9.84,0,0,1,3-7.49,11.11,11.11,0,0,1,14.88,0,9.85,9.85,0,0,1,3,7.49,10.24,10.24,0,0,1-3,7.55,10.67,10.67,0,0,1-14.88,0Z"/><path class="cls-1" d="M798,72.21a26.72,26.72,0,0,1,10.4,10.46,31.57,31.57,0,0,1,3.77,15.69A31.56,31.56,0,0,1,808.38,114,26.7,26.7,0,0,1,798,124.49a29.56,29.56,0,0,1-14.72,3.72q-12,0-18.22-7.55v6.68H749v-80H765.8V75.49q6.36-7,17.46-7A29.56,29.56,0,0,1,798,72.21ZM791,110q4.15-4.37,4.15-11.7T791,86.65a15.1,15.1,0,0,0-21.24,0q-4.15,4.37-4.15,11.7t4.15,11.7A15.1,15.1,0,0,0,791,110Z"/><path class="cls-1" d="M883.2,69.35v48.3q0,16-8.3,23.72t-24.26,7.76a60.72,60.72,0,0,1-16-2,34.88,34.88,0,0,1-12.5-5.93l6.68-12.07a27.5,27.5,0,0,0,9.27,4.8,36.88,36.88,0,0,0,11.21,1.78q8.73,0,12.88-3.93t4.15-11.91v-2.48q-6.58,7.22-18.33,7.22a30.77,30.77,0,0,1-14.61-3.5,26.68,26.68,0,0,1-10.51-9.86,27.57,27.57,0,0,1-3.88-14.66,27.58,27.58,0,0,1,3.88-14.66A26.71,26.71,0,0,1,833.45,72a30.79,30.79,0,0,1,14.61-3.5q12.61,0,19.19,8.3V69.35Zm-20.86,37.46a13.37,13.37,0,0,0,4.26-10.3,13.37,13.37,0,0,0-4.26-10.3,15.49,15.49,0,0,0-10.94-3.94,15.68,15.68,0,0,0-11,3.94,13.28,13.28,0,0,0-4.31,10.3,13.28,13.28,0,0,0,4.31,10.3,15.68,15.68,0,0,0,11,3.93A15.49,15.49,0,0,0,862.34,106.81Z"/><path class="cls-1" d="M0,70.47c23.73-27,42-5.24,46.75,18.63,7.84,39.42,81,.08,79.09-84.93-.43-19.1,50.12,30-.16,95.5,0,0,24.17-7.75,32.88-49.28,5.06-24.11,42.57,36.43-30.82,87.48,0,0,17.8-.78,34.17-19.94,13.82-16.18,12.13,22.61-32.29,45.34-32.56,16.66-84.44,10.2-100.92-25.34C19,117,29.63,89.63,0,70.47"/><path class="cls-2" d="M105.13,44.25a55,55,0,0,1-13.32,36C82.42,90.92,69,97.28,59.71,95.83c15.6-17.38,24-51.08,23.18-88.62-.28-13,22.62,2.93,22.23,37"/></g></g></svg>