<?xml version="1.0" standalone="no"?>
<!DOCTYPE svg PUBLIC "-//W3C//DTD SVG 20010904//EN"
 "http://www.w3.org/TR/2001/REC-SVG-20010904/DTD/svg10.dtd">
<svg version="1.0" xmlns="http://www.w3.org/2000/svg"
 width="700.000000pt" height="700.000000pt" viewBox="0 0 700.000000 700.000000"
 preserveAspectRatio="xMidYMid meet">
<metadata>
Created by potrace 1.11, written by Peter Selinger 2001-2013
</metadata>
<g transform="translate(0.000000,700.000000) scale(0.100000,-0.100000)"
fill="#000000" stroke="none">
<path d="M3214 6986 c-41 -29 -45 -71 -30 -285 3 -52 10 -142 13 -200 10 -145
10 -905 0 -1016 -9 -105 -16 -169 -32 -305 -3 -25 -17 -112 -31 -195 -95 -554
-299 -1048 -646 -1569 l-79 -118 88 6 c659 48 1291 582 1516 1281 33 102 54
187 63 250 3 28 8 52 9 55 8 14 18 179 18 300 0 452 -124 914 -351 1309 -107
188 -294 409 -392 464 -59 34 -118 43 -146 23z"/>
<path d="M4878 6973 c-22 -23 -23 -31 -22 -151 5 -487 5 -588 0 -677 -8 -137
-20 -247 -42 -400 -34 -244 -65 -387 -130 -610 -132 -456 -317 -848 -565
-1197 -238 -334 -514 -574 -881 -766 -150 -77 -387 -164 -493 -179 -16 -2 -36
-6 -43 -8 -46 -16 -277 -23 -362 -11 -277 38 -462 182 -544 420 -26 75 -34
105 -71 244 -46 172 -124 368 -179 447 -132 193 -226 283 -378 364 -332 178
-729 129 -1005 -124 -59 -53 -170 -183 -162 -188 2 -2 15 -8 29 -15 59 -30
211 -147 283 -219 88 -87 182 -220 234 -333 34 -73 97 -250 107 -300 29 -144
46 -236 50 -270 4 -22 9 -58 12 -81 3 -22 7 -55 8 -72 4 -38 15 -128 21 -177
2 -19 7 -57 10 -85 11 -107 23 -201 40 -320 9 -66 27 -162 46 -245 11 -52 23
-104 25 -115 9 -49 85 -267 122 -350 58 -132 104 -215 197 -355 359 -540 915
-918 1610 -1094 55 -14 111 -27 125 -29 14 -3 63 -12 110 -21 111 -20 127 -23
245 -37 121 -14 537 -19 655 -8 248 23 226 20 495 73 110 22 315 86 461 144
69 28 326 153 394 193 350 204 706 507 962 819 197 241 345 504 364 646 5 44
-12 93 -32 95 -8 1 -20 2 -26 3 -25 4 -91 -25 -147 -62 -31 -21 -100 -69 -153
-106 -339 -233 -780 -407 -1232 -486 -66 -11 -121 -19 -122 -17 -2 2 13 12 34
22 130 68 368 222 503 325 270 207 554 502 744 774 255 366 466 856 540 1256
44 235 53 336 51 545 -3 213 -19 310 -66 410 -30 64 -68 94 -107 87 -42 -6
-84 -64 -160 -216 -41 -83 -93 -182 -116 -221 -43 -75 -158 -257 -167 -265 -3
-3 -23 -30 -44 -60 -132 -187 -384 -455 -577 -612 -90 -74 -296 -219 -379
-267 -95 -55 -212 -111 -200 -95 8 11 24 31 35 45 11 14 29 38 40 53 11 15 34
47 51 70 30 39 134 197 201 306 61 97 212 415 261 550 44 119 106 322 118 383
2 12 6 31 8 42 23 104 35 169 41 220 4 32 9 68 11 80 19 93 25 486 11 640 -35
366 -121 676 -285 1024 -9 20 -34 68 -55 106 -192 344 -422 551 -509 458z"/>
</g>
</svg>
