<?xml version="1.0" standalone="no"?>
<!DOCTYPE svg PUBLIC "-//W3C//DTD SVG 20010904//EN"
 "http://www.w3.org/TR/2001/REC-SVG-20010904/DTD/svg10.dtd">
<svg version="1.0" xmlns="http://www.w3.org/2000/svg"
 width="700.000000pt" height="700.000000pt" viewBox="0 0 700.000000 700.000000"
 preserveAspectRatio="xMidYMid meet">
<metadata>
Created by potrace 1.11, written by Peter Selinger 2001-2013
</metadata>
<g transform="translate(0.000000,700.000000) scale(0.100000,-0.100000)"
fill="#000000" stroke="none">
<path d="M5153 6980 c-42 -34 -47 -58 -49 -252 -2 -170 -11 -408 -19 -498 -7
-80 -17 -177 -20 -200 -3 -14 -7 -45 -10 -70 -34 -277 -140 -736 -220 -949 -7
-20 -25 -70 -40 -111 -15 -41 -33 -88 -40 -105 -7 -16 -30 -70 -50 -120 -111
-269 -308 -614 -493 -860 -146 -195 -370 -438 -498 -541 -27 -21 -53 -44 -59
-50 -48 -52 -276 -205 -406 -273 -347 -183 -652 -230 -914 -141 -112 37 -245
145 -313 253 -62 100 -89 173 -132 353 -91 379 -196 624 -365 848 -194 259
-433 391 -685 381 -100 -4 -121 -8 -218 -41 -177 -59 -336 -169 -530 -365 -93
-94 -93 -94 -70 -109 152 -99 360 -284 459 -409 33 -42 66 -83 72 -91 75 -93
192 -330 247 -499 67 -205 96 -352 140 -701 15 -119 21 -161 25 -190 2 -14 7
-50 10 -80 3 -30 8 -66 10 -80 2 -14 9 -56 15 -95 35 -228 103 -453 187 -622
208 -422 537 -747 998 -989 244 -128 576 -240 856 -289 103 -18 107 -19 194
-30 33 -3 71 -9 85 -11 50 -8 238 -17 365 -18 397 -1 788 60 1153 180 59 19
116 39 127 44 11 5 65 28 120 51 208 89 445 223 674 382 64 45 125 89 136 98
184 154 247 210 340 304 228 230 381 437 504 683 48 95 106 247 116 300 2 15
8 47 13 72 4 25 7 71 6 102 -4 88 -33 128 -93 128 -54 0 -114 -44 -223 -162
-163 -177 -280 -287 -408 -383 -36 -27 -67 -52 -70 -55 -3 -3 -14 -10 -25 -17
-177 -107 -237 -142 -275 -160 -131 -62 -164 -75 -263 -107 -58 -20 -135 -42
-169 -50 -65 -15 -158 -29 -158 -24 0 2 52 41 116 88 119 87 175 131 324 254
201 168 511 477 621 621 13 17 26 32 29 35 44 42 240 323 321 462 178 306 292
603 353 916 35 179 41 243 41 442 -1 241 -18 366 -77 550 -106 329 -306 490
-421 338 -35 -46 -51 -90 -77 -204 -107 -478 -271 -885 -487 -1214 -205 -310
-481 -570 -746 -701 -44 -22 -81 -38 -83 -37 -1 2 24 38 56 81 74 99 234 339
310 467 51 85 192 364 239 472 149 345 244 705 278 1053 10 103 10 447 0 550
-6 69 -15 128 -42 280 -3 17 -19 81 -36 143 -79 299 -225 595 -389 784 -141
164 -298 244 -367 188z"/>
<path d="M3428 6874 c-57 -30 -62 -56 -64 -314 -1 -206 -10 -494 -19 -630 -8
-133 -29 -350 -40 -430 -3 -23 -10 -80 -20 -158 -12 -100 -31 -210 -66 -387
-11 -55 -22 -113 -25 -129 -3 -16 -7 -32 -9 -36 -2 -4 -7 -22 -10 -41 -12 -73
-97 -371 -144 -509 -152 -446 -324 -776 -549 -1053 -30 -37 -52 -70 -49 -74 8
-7 162 -6 219 2 223 30 484 143 713 308 316 228 554 527 719 905 25 56 45 105
45 107 0 3 14 47 30 99 17 52 32 104 35 117 3 13 14 67 25 119 11 52 23 127
27 165 3 39 8 79 10 90 6 30 5 361 -1 430 -12 128 -20 197 -35 280 -5 28 -12
61 -14 75 -18 103 -92 336 -140 445 -183 415 -481 705 -638 619z"/>
</g>
</svg>
