<?xml version="1.0" encoding="UTF-8"?><svg id="Layer_1" xmlns="http://www.w3.org/2000/svg" viewBox="0 0 32 32"><defs><style>.cls-1{fill:#fff;}.cls-2{fill:#442a17;}.cls-3{fill:#f2caa7;}.cls-4{fill:#5c3f38;}.cls-5{fill:none;stroke:#000;stroke-linecap:round;stroke-linejoin:round;stroke-width:.1px;}.cls-6{fill:#f2913d;}.cls-7{fill:#ce824e;}.cls-8{fill:#4ac3ff;}.cls-9{fill:#ffa557;}.cls-10{fill:#a15614;}</style></defs><g><circle class="cls-8" cx="16.21" cy="16.19" r="15.58"/><g><path class="cls-10" d="m30.29,18.18c-.07-.76-.47-1.41-1.04-1.85.14-.29.22-.61.19-.96-.05-.57-.37-1.04-.83-1.34.76-.87.87-2.15.19-3.16-.43-.64-1.97-.31-2.69-.43-.01-.32.76-1.36.57-1.65-.22-.32-.52-.55-.86-.69.38-1.33-.36-2.74-1.73-3.21-.74-.25-1.53-.18-2.18.15-.21-.25-.49-.45-.82-.56-.26-.09-1.29,1.11-1.54,1.12-.44-.89-.62-2.73-1.71-2.73-.79,0-1.5.32-2,.84-.29-.16-.61-.26-.97-.26-.56,0-1.06.24-1.41.61-.44-.3-.98-.47-1.56-.47-1.46,0-1.79,1.63-1.89,3.01-.52-.09-1.92-.51-2.37-.17-.28.21-.47.49-.59.79-.72-.1-1.49.07-2.11.55-1.05.81-1.32,2.21-.72,3.31-.4.25-.7.65-.81,1.13-.08.34,1.4,1.21,1.51,1.51-.63.36-2.56.42-2.73,1.16-.27,1.17.31,2.33,1.34,2.88-.31.43-.44.99-.28,1.54.1.33,1.36.89,1.6,1.11-.38.6-1.58,1.07-1.37,1.81.3,1.05,1.22,1.77,2.27,1.91,0,.49.19.99.59,1.36.26.24.57.38.89.45,0,.71.28,1.41.85,1.93.78.71,2.5-.44,3.45-.77.2.42-.1,2.12.37,2.33.79.37,1.71.21,2.32-.32.17.2.38.37.64.49.94.44,2.08.06,2.54-.85.26.38.63.69,1.08.9,1.37.64,3.01.08,3.67-1.24.05-.1-.25-.97-.21-1.07.84.17,2.06.55,2.45-.23.12-.25.18-.51.18-.77,1.32.5,2.84-.06,3.47-1.32.34-.69.35-1.44.09-2.1.28-.18.51-.42.67-.73.24-.48-.73-1.46-.91-1.92.93-.49,2.49-1.03,2.38-2.12Z"/><path class="cls-9" d="m12.72,10.64s0,0,0,0c-.03.88-.32,1.84-1.04,2.3-1.3.83-3.46-.3-3.88-.97-.17-.27-.27-.57-.29-.89-.07-.9.44-1.89,1.39-2.5,1.28-.82,2.86-.63,3.53.42.19.29.31.93.29,1.62Z"/><path class="cls-6" d="m12.72,10.64s0,0,0,0c-.03.88-.32,1.84-1.04,2.3-1.3.83-3.46-.3-3.88-.97-.17-.27-.27-.57-.29-.89.05-.81.55-1.65,1.39-2.19,1.28-.82,2.86-.63,3.53.42.16.25.28.75.29,1.32Z"/><path class="cls-3" d="m11.12,12.09c-.68.44-2.22-.33-2.47-.67-.35-.55,0-1.45.8-1.96.79-.5,1.76-.46,2.11.11.19.37.25,2.08-.44,2.51Z"/><path class="cls-9" d="m25.14,11.3c-.04.24-.13.48-.27.69-.43.66-2.59,1.8-3.88.97-.88-.56-1.1-1.86-1.03-2.84h0c.04-.48.14-.88.28-1.09.67-1.05,2.25-1.23,3.53-.42,1.02.65,1.54,1.75,1.37,2.69Z"/><path class="cls-6" d="m25.14,11.3c-.04.24-.13.48-.27.69-.43.66-2.59,1.8-3.88.97-.88-.56-1.1-1.86-1.03-2.84h0c.05-.34.14-.62.24-.78.67-1.05,2.25-1.23,3.53-.42.91.58,1.43,1.52,1.41,2.39Z"/><path class="cls-3" d="m21.54,12.09c.68.44,2.22-.33,2.47-.67.35-.55,0-1.45-.8-1.96-.79-.5-1.76-.46-2.11.11-.19.37-.25,2.08.44,2.51Z"/><path class="cls-10" d="m25.46,18.03c0,1.73-.52,3.35-1.41,4.72-.22.34-.46.65-.72.95-.08.1-.17.2-.26.29-.08.08-.16.17-.24.25-1.63,1.59-3.88,2.59-6.34,2.59-2.6,0-4.94-1.09-6.58-2.84-.06-.06-.12-.12-.17-.18-.3-.33-.57-.68-.81-1.06-.77-1.18-1.26-2.54-1.38-4.01-.02-.24-.03-.47-.03-.71,0-.86.13-1.7.37-2.49.24-.79.59-1.53,1.03-2.21,1.6-2.46,4.4-4.09,7.58-4.09,2.47,0,4.72.99,6.34,2.58,1.61,1.58,2.61,3.74,2.63,6.12,0,.03,0,.06,0,.09Z"/><path class="cls-6" d="m25.86,18.33s0,.01,0,.02c-.06,1.68-.59,3.25-1.47,4.59-.23.35-.48.68-.76,1-.09.1-.17.2-.27.3-.08.09-.17.17-.25.26-1.7,1.67-4.05,2.7-6.63,2.7-2.71,0-5.17-1.14-6.88-2.97-.06-.06-.12-.13-.18-.19-.31-.35-.6-.71-.85-1.1-.81-1.23-1.32-2.66-1.45-4.19-.01-.16-.02-.31-.03-.47.02-.82.15-1.6.38-2.36.25-.82.62-1.6,1.08-2.31,1.67-2.57,4.6-4.28,7.92-4.28,2.58,0,4.93,1.03,6.63,2.7,1.66,1.63,2.7,3.85,2.75,6.29Z"/><path class="cls-7" d="m23.06,23.95c-.08.08-.16.17-.24.25-1.62,1.59-3.86,2.57-6.31,2.57-2.58,0-4.92-1.09-6.55-2.82,1.26-1.82,3.72-3.06,6.55-3.06s5.29,1.24,6.55,3.06Z"/><path class="cls-3" d="m22.7,23.67c-.08.08-.15.16-.23.24-1.54,1.51-3.66,2.44-6,2.44-2.45,0-4.67-1.03-6.22-2.68,1.19-1.73,3.53-2.91,6.23-2.91s5.03,1.18,6.22,2.91Z"/><path class="cls-5" d="m16.45,22.39c0,.6-.48,1.08-1.08,1.08s-1.08-.48-1.08-1.08"/><path class="cls-5" d="m18.63,22.4c0,.6-.48,1.08-1.08,1.08s-1.08-.48-1.08-1.08"/><path class="cls-4" d="m18.26,20.86c0,.47-.78,1.54-1.74,1.54s-1.74-1.07-1.74-1.54.78-.84,1.74-.84,1.74.38,1.74.84Z"/></g></g><ellipse class="cls-2" cx="12.31" cy="18.54" rx="2.23" ry="2.5"/><ellipse class="cls-2" cx="20.73" cy="18.41" rx="2.23" ry="2.5"/><path class="cls-1" d="m13.14,17.7c0,.57-.41,1.03-.92,1.03s-.92-.46-.92-1.03.41-1.03.92-1.03.92.46.92,1.03Z"/><path class="cls-1" d="m19.93,17.35c0,.57.41,1.03.92,1.03s.92-.46.92-1.03-.41-1.03-.92-1.03-.92.46-.92,1.03Z"/></svg>