<?xml version="1.0" encoding="UTF-8"?><svg id="Layer_1" xmlns="http://www.w3.org/2000/svg" viewBox="0 0 32 32"><defs><style>.cls-1{fill:#fff;}.cls-2{fill:#442a17;}.cls-3{fill:#f2b077;}.cls-4{fill:#f2caa7;}.cls-5{fill:#5c3f38;}.cls-6{fill:none;stroke:#000;stroke-linecap:round;stroke-linejoin:round;stroke-width:.1px;}.cls-7{fill:#f2913d;}.cls-8{fill:#4ac3ff;}.cls-9{fill:#ffac63;}</style></defs><g><circle class="cls-8" cx="16.13" cy="16" r="15.52"/><path class="cls-9" d="m13.93,10.39c-.08.02-.15.03-.23.05-1.24.29-2.46,1.05-3.36,2.23-.61.8-1,1.69-1.17,2.57-.08.38-.11.77-.1,1.15-.03-.07-.07-.13-.1-.2-.69-1.43-1.12-3.31-1.12-5.38,0-1.07.11-2.09.32-3.02.65-2.99,2.91-5.11,4.77-5.11.22,0,.43.04.64.09l.36,7.62Z"/><path class="cls-7" d="m13.7,10.43c-1.24.29-2.46,1.05-3.36,2.23-.61.8-1,1.69-1.17,2.57-.1.32-.84.63-.87.95-.69-1.43-.45-3.31-.45-5.38,0-1.07.11-2.09.32-3.02.72-2.67,2.56-4.5,4.28-4.5.22,0,.43.04.64.09l.62,7.06Z"/><path class="cls-4" d="m9.13,14.91c-.06-.52-1.63-8.28,2.56-10.76l.65,8c-1.25.46-2.03,1.18-2.89,2.3-.11.15-.22.3-.32.46Z"/><path class="cls-9" d="m23.94,10.8c0,2.15-.45,4.1-1.19,5.55,0,.01-.01.03-.02.04,0-.08,0-.15,0-.23-.03-1.17-.45-2.42-1.27-3.49-.93-1.22-2.2-1.99-3.49-2.26-.03,0-.07-.01-.1-.02l.36-7.62c.21-.05.42-.09.64-.09,2.27,0,4.8,3.14,5.05,7.19.02.3.03.62.03.93Z"/><path class="cls-7" d="m23.98,11.29c0,2.16.21,4.13-.54,5.59,0-.18-.67-.36-.69-.54,0-.07-.01-.13-.02-.19-.03-1.17-.45-2.42-1.27-3.49-.93-1.22-2.2-1.99-3.49-2.26l.63-7.14c.21-.06.42-.1.64-.1,2.17,0,4.32,2.89,4.68,6.7.05.47.07.94.07,1.43Z"/><path class="cls-4" d="m22.66,14.91c.06-.52,1.63-8.28-2.56-10.76l-.65,8c1.25.46,2.03,1.18,2.89,2.3.11.15.22.3.32.46Z"/><path class="cls-3" d="m27.82,22.02s0,.02,0,.02c-.02.1-.05.2-.08.29-1.13,3.72-6.43,5.92-11.6,5.85-5.32.07-10.75-2.25-11.69-6.15,0,0,0,0,0-.01.02-.12.04-.23.06-.35,0-.01,0-.03,0-.04.99-5.12,5.97-12.14,11.63-12.1,5.8-.04,10.89,7.34,11.69,12.49Z"/><path class="cls-7" d="m27.73,22.34c-1.13,3.72-6.43,5.92-11.6,5.85-5.32.07-10.75-2.25-11.69-6.15,0,0,0,0,0-.01.02-.12.04-.23.06-.35,0-.01,0-.03,0-.04,1.16-5.08,6.03-11.76,11.55-11.72,5.77-.04,10.85,7.28,11.68,12.42Z"/><path class="cls-4" d="m27.82,22.05c-.94,3.9-6.38,6.21-11.68,6.14-5.32.07-10.75-2.25-11.69-6.15,3.13-.94,7.21-1.51,11.67-1.51s8.57.57,11.7,1.52Z"/><g><ellipse class="cls-2" cx="11.18" cy="17.1" rx="2.23" ry="2.5"/><ellipse class="cls-2" cx="21.83" cy="17.1" rx="2.23" ry="2.5"/></g><path class="cls-6" d="m16.26,22.69c0,.8-.65,1.45-1.45,1.45s-1.45-.65-1.45-1.45"/><path class="cls-6" d="m19.19,22.7c0,.8-.65,1.45-1.45,1.45s-1.45-.65-1.45-1.45"/><path class="cls-5" d="m18.68,20.64c0,.63-1.04,2.07-2.33,2.07s-2.33-1.44-2.33-2.07,1.04-1.13,2.33-1.13,2.33.51,2.33,1.13Z"/></g><path class="cls-1" d="m11.83,16.39c0,.57-.41,1.03-.92,1.03s-.92-.46-.92-1.03.41-1.03.92-1.03.92.46.92,1.03Z"/><path class="cls-1" d="m20.85,16.18c0,.57.41,1.03.92,1.03s.92-.46.92-1.03-.41-1.03-.92-1.03-.92.46-.92,1.03Z"/></svg>