<?xml version="1.0" encoding="UTF-8"?><svg id="Layer_1" xmlns="http://www.w3.org/2000/svg" viewBox="0 0 32 32"><defs><style>.cls-1{fill:#fff;}.cls-2{fill:#442a17;}.cls-3{fill:#ffcb57;}.cls-4{fill:#f2b077;}.cls-5{fill:#f2caa7;}.cls-6{fill:#5c3f38;}.cls-7{fill:none;stroke:#000;stroke-linecap:round;stroke-linejoin:round;stroke-width:.1px;}.cls-8{fill:#f2913d;}.cls-9{fill:#ffac63;}</style></defs><g><circle class="cls-3" cx="16.15" cy="16.01" r="15.54"/><path class="cls-9" d="m13.94,10.4c-.08.02-.15.03-.23.05-1.24.29-2.46,1.05-3.37,2.23-.61.8-1,1.69-1.17,2.57-.08.39-.11.77-.1,1.15-.03-.07-.07-.13-.1-.2-.69-1.43-1.12-3.32-1.12-5.39,0-1.07.11-2.09.32-3.02.65-3,2.92-5.11,4.78-5.11.22,0,.43.04.64.09l.36,7.63Z"/><path class="cls-8" d="m13.71,10.44c-1.24.29-2.46,1.05-3.37,2.23-.61.8-1,1.69-1.17,2.57-.1.32-.84.63-.87.95-.69-1.43-.45-3.32-.45-5.39,0-1.07.11-2.09.32-3.02.72-2.67,2.56-4.5,4.29-4.5.22,0,.43.04.64.09l.62,7.07Z"/><path class="cls-5" d="m9.14,14.93c-.06-.53-1.63-8.29,2.56-10.77l.65,8.01c-1.25.46-2.03,1.18-2.89,2.31-.11.15-.22.3-.32.46Z"/><path class="cls-9" d="m23.96,10.81c0,2.15-.45,4.1-1.19,5.55,0,.01-.01.03-.02.04,0-.08,0-.15,0-.23-.03-1.18-.45-2.42-1.28-3.49-.93-1.22-2.2-1.99-3.49-2.26-.03,0-.07-.01-.1-.02l.36-7.63c.21-.05.42-.09.64-.09,2.27,0,4.81,3.15,5.06,7.2.02.3.03.62.03.93Z"/><path class="cls-8" d="m24,11.3c0,2.17.21,4.13-.54,5.59,0-.18-.67-.36-.69-.54,0-.07-.01-.13-.02-.19-.03-1.18-.45-2.42-1.28-3.49-.93-1.22-2.2-1.99-3.49-2.26l.63-7.15c.21-.06.42-.1.64-.1,2.18,0,4.32,2.9,4.69,6.71.05.47.07.94.07,1.43Z"/><path class="cls-5" d="m22.68,14.93c.06-.53,1.63-8.29-2.56-10.77l-.65,8.01c1.25.46,2.03,1.18,2.89,2.31.11.15.22.3.32.46Z"/><path class="cls-4" d="m27.85,22.04s0,.02,0,.02c-.02.1-.05.2-.08.29-1.13,3.73-6.43,5.93-11.61,5.86-5.32.07-10.76-2.25-11.7-6.16,0,0,0,0,0-.01.02-.12.04-.24.06-.35,0-.01,0-.03,0-.04.99-5.12,5.98-12.15,11.64-12.11,5.8-.04,10.9,7.35,11.7,12.5Z"/><path class="cls-8" d="m27.76,22.36c-1.13,3.73-6.43,5.93-11.61,5.86-5.32.07-10.76-2.25-11.7-6.16,0,0,0,0,0-.01.02-.12.04-.24.06-.35,0-.01,0-.03,0-.04,1.16-5.09,6.04-11.77,11.56-11.73,5.78-.04,10.86,7.29,11.69,12.44Z"/><path class="cls-5" d="m27.84,22.07c-.94,3.9-6.38,6.22-11.7,6.15-5.32.07-10.76-2.25-11.7-6.16,3.13-.94,7.22-1.51,11.68-1.51s8.58.57,11.72,1.52Z"/><path class="cls-7" d="m16.28,22.71c0,.8-.65,1.45-1.45,1.45s-1.45-.65-1.45-1.45"/><path class="cls-7" d="m19.21,22.72c0,.8-.65,1.45-1.45,1.45s-1.45-.65-1.45-1.45"/><path class="cls-6" d="m18.7,20.66c0,.63-1.05,2.07-2.34,2.07s-2.34-1.44-2.34-2.07,1.05-1.13,2.34-1.13,2.34.51,2.34,1.13Z"/></g><g><ellipse class="cls-2" cx="11.14" cy="16.91" rx="2.23" ry="2.5"/><ellipse class="cls-2" cx="21.78" cy="16.91" rx="2.23" ry="2.5"/></g><path class="cls-1" d="m11.96,16.07c0,.57-.41,1.03-.92,1.03s-.92-.46-.92-1.03.41-1.03.92-1.03.92.46.92,1.03Z"/><path class="cls-1" d="m20.98,15.85c0,.57.41,1.03.92,1.03s.92-.46.92-1.03-.41-1.03-.92-1.03-.92.46-.92,1.03Z"/></svg>