<?xml version="1.0" encoding="UTF-8"?><svg id="Layer_1" xmlns="http://www.w3.org/2000/svg" viewBox="0 0 32 32"><defs><style>.cls-1{fill:#fff;}.cls-2{fill:#442a17;}.cls-3{fill:#ffcb57;}.cls-4{fill:#f2caa7;}.cls-5{fill:#5c3f38;}.cls-6{fill:none;stroke:#000;stroke-linecap:round;stroke-linejoin:round;stroke-width:.1px;}.cls-7{fill:#f2913d;}.cls-8{fill:#ce824e;}.cls-9{fill:#ffa557;}.cls-10{fill:#a15614;}</style></defs><g><circle class="cls-3" cx="16.09" cy="16.14" r="15.3"/><g><path class="cls-10" d="m29.91,18.09c-.07-.74-.46-1.39-1.02-1.81.14-.28.21-.6.18-.94-.05-.56-.37-1.03-.81-1.32.75-.86.86-2.11.19-3.1-.43-.63-1.94-.3-2.64-.42-.01-.31.75-1.34.56-1.62-.21-.31-.51-.54-.84-.68.38-1.31-.35-2.69-1.7-3.15-.73-.25-1.5-.17-2.14.15-.21-.24-.48-.44-.81-.55-.25-.09-1.26,1.09-1.52,1.1-.43-.88-.6-2.68-1.68-2.68-.78,0-1.47.32-1.97.82-.28-.16-.6-.26-.95-.26-.55,0-1.04.23-1.39.6-.44-.29-.96-.46-1.53-.46-1.43,0-1.76,1.6-1.85,2.95-.51-.08-1.89-.5-2.32-.16-.27.21-.46.48-.58.78-.71-.1-1.46.07-2.07.54-1.03.79-1.3,2.17-.7,3.25-.39.25-.69.64-.79,1.11-.08.33,1.38,1.19,1.48,1.49-.62.35-2.51.41-2.68,1.14-.26,1.15.31,2.29,1.32,2.83-.31.43-.43.97-.27,1.51.09.32,1.33.87,1.57,1.09-.37.59-1.55,1.05-1.34,1.77.3,1.03,1.2,1.74,2.23,1.87,0,.49.18.97.58,1.33.25.23.56.38.88.44,0,.69.28,1.39.84,1.9.76.7,2.46-.44,3.39-.75.19.41-.09,2.08.36,2.29.78.36,1.67.21,2.28-.32.17.2.38.36.63.48.93.43,2.04.06,2.49-.83.26.37.62.68,1.06.89,1.34.62,2.96.08,3.6-1.21.05-.1-.24-.95-.21-1.05.82.17,2.03.54,2.41-.23.12-.24.18-.5.18-.76,1.3.49,2.79-.06,3.41-1.29.34-.67.34-1.42.08-2.06.27-.17.5-.41.66-.72.24-.47-.71-1.43-.9-1.88.91-.48,2.44-1.01,2.34-2.08Z"/><path class="cls-9" d="m12.66,10.69s0,0,0,0c-.03.86-.31,1.81-1.02,2.26-1.27.82-3.4-.3-3.81-.95-.17-.27-.27-.56-.29-.87-.07-.88.44-1.85,1.37-2.45,1.26-.8,2.81-.62,3.47.41.18.29.31.91.29,1.59Z"/><path class="cls-7" d="m12.66,10.69s0,0,0,0c-.03.86-.31,1.81-1.02,2.26-1.27.82-3.4-.3-3.81-.95-.17-.27-.27-.56-.29-.87.05-.8.54-1.62,1.37-2.15,1.26-.8,2.81-.62,3.47.41.15.24.27.73.29,1.29Z"/><path class="cls-4" d="m11.09,12.11c-.67.43-2.18-.32-2.43-.65-.35-.54,0-1.43.78-1.92.77-.49,1.72-.45,2.08.1.19.36.24,2.04-.43,2.47Z"/><path class="cls-9" d="m24.86,11.34c-.04.24-.13.47-.26.67-.42.65-2.54,1.77-3.81.95-.86-.55-1.08-1.83-1.01-2.79h0c.04-.47.14-.86.27-1.07.66-1.03,2.21-1.21,3.47-.41,1,.64,1.51,1.72,1.35,2.65Z"/><path class="cls-7" d="m24.86,11.34c-.04.24-.13.47-.26.67-.42.65-2.54,1.77-3.81.95-.86-.55-1.08-1.83-1.01-2.79h0c.05-.34.13-.61.24-.77.66-1.03,2.21-1.21,3.47-.41.9.57,1.4,1.49,1.38,2.35Z"/><path class="cls-4" d="m21.33,12.11c.67.43,2.18-.32,2.43-.65.35-.54,0-1.43-.78-1.92-.77-.49-1.72-.45-2.08.1-.19.36-.24,2.04.43,2.47Z"/><path class="cls-10" d="m25.17,17.95c0,1.7-.51,3.29-1.39,4.63-.21.33-.45.64-.71.94-.08.1-.16.19-.25.28-.08.08-.16.16-.24.25-1.6,1.57-3.81,2.54-6.23,2.54-2.55,0-4.85-1.07-6.46-2.79-.06-.06-.11-.12-.17-.18-.29-.33-.56-.67-.8-1.04-.76-1.16-1.24-2.5-1.36-3.93-.02-.23-.03-.47-.03-.7,0-.85.12-1.67.36-2.45.23-.77.58-1.5,1.01-2.17,1.57-2.41,4.33-4.02,7.44-4.02,2.42,0,4.63.97,6.23,2.54,1.58,1.55,2.56,3.68,2.59,6.01,0,.03,0,.06,0,.09Z"/><path class="cls-7" d="m25.56,18.24s0,.01,0,.02c-.06,1.65-.58,3.19-1.44,4.51-.22.35-.47.67-.74.98-.09.1-.17.2-.26.3-.08.09-.16.17-.25.26-1.67,1.64-3.98,2.65-6.51,2.65-2.67,0-5.07-1.12-6.76-2.91-.06-.06-.12-.13-.17-.19-.31-.34-.59-.7-.84-1.08-.79-1.21-1.3-2.61-1.42-4.11-.01-.15-.02-.31-.03-.46.02-.8.15-1.57.37-2.31.25-.81.61-1.57,1.06-2.27,1.64-2.52,4.52-4.2,7.78-4.2,2.53,0,4.84,1.01,6.51,2.65,1.63,1.6,2.65,3.78,2.7,6.18Z"/><path class="cls-8" d="m22.82,23.76c-.08.08-.16.16-.24.24-1.59,1.56-3.79,2.53-6.2,2.53-2.54,0-4.83-1.07-6.43-2.77,1.23-1.79,3.65-3.01,6.43-3.01s5.2,1.22,6.43,3.01Z"/><path class="cls-4" d="m22.46,23.48c-.07.08-.15.15-.22.23-1.51,1.48-3.6,2.4-5.89,2.4-2.41,0-4.59-1.01-6.11-2.64,1.17-1.7,3.47-2.86,6.11-2.86s4.94,1.15,6.11,2.86Z"/><path class="cls-6" d="m16.33,22.23c0,.59-.48,1.06-1.06,1.06s-1.06-.48-1.06-1.06"/><path class="cls-6" d="m18.47,22.24c0,.59-.48,1.06-1.06,1.06s-1.06-.48-1.06-1.06"/><path class="cls-5" d="m18.1,20.73c0,.46-.76,1.51-1.71,1.51s-1.71-1.05-1.71-1.51.76-.83,1.71-.83,1.71.37,1.71.83Z"/></g></g><ellipse class="cls-2" cx="11.98" cy="18.09" rx="2.23" ry="2.5"/><ellipse class="cls-2" cx="20.41" cy="17.96" rx="2.23" ry="2.5"/><path class="cls-1" d="m12.81,17.24c0,.57-.41,1.03-.92,1.03s-.92-.46-.92-1.03.41-1.03.92-1.03.92.46.92,1.03Z"/><path class="cls-1" d="m19.61,16.89c0,.57.41,1.03.92,1.03s.92-.46.92-1.03-.41-1.03-.92-1.03-.92.46-.92,1.03Z"/></svg>