<?xml version="1.0" encoding="UTF-8"?><svg id="Layer_1" xmlns="http://www.w3.org/2000/svg" viewBox="0 0 32 32"><defs><style>.cls-1{fill:#fff;}.cls-2{fill:#442a17;}.cls-3{fill:#ffcb57;}.cls-4{fill:none;stroke:#000;stroke-linecap:round;stroke-linejoin:round;stroke-width:.1px;}.cls-5{fill:#02bc02;}.cls-6{fill:#007200;}</style></defs><g><circle class="cls-3" cx="16" cy="16.02" r="15.52"/><g><path class="cls-5" d="m28.3,20.23c-1.2,4.09-6.79,6.51-12.24,6.43-5.61.08-11.35-2.47-12.34-6.76,0,0,0,0,0-.01.02-.13.04-.26.06-.39,0-.01,0-.03,0-.04,1.22-5.58,6.37-12.92,12.19-12.88,6.09-.04,11.45,8,12.33,13.65Z"/><path class="cls-6" d="m28.3,19.91c-.99,4.29-6.71,6.83-12.29,6.75-5.59.08-11.31-2.47-12.3-6.76,3.29-1.03,7.58-1.66,12.28-1.66s9.01.63,12.31,1.67Z"/><g><circle class="cls-5" cx="11.34" cy="8.63" r="4.13"/><circle class="cls-6" cx="11.76" cy="9.47" r="2.74"/></g><g><circle class="cls-5" cx="21.41" cy="8.63" r="4.13"/><circle class="cls-6" cx="21" cy="9.47" r="2.74"/></g><path class="cls-4" d="m20.96,18.73c0,2.52-2.05,4.57-4.57,4.57s-4.57-2.05-4.57-4.57"/><ellipse class="cls-2" cx="15.25" cy="15.32" rx=".7" ry=".79"/><ellipse class="cls-2" cx="17.45" cy="15.32" rx=".7" ry=".79"/></g></g><path class="cls-1" d="m12.17,9.37c0,.8-.58,1.45-1.29,1.45s-1.29-.65-1.29-1.45.58-1.45,1.29-1.45,1.29.65,1.29,1.45Z"/><path class="cls-1" d="m20.59,9.22c0,.8.58,1.45,1.29,1.45s1.29-.65,1.29-1.45-.58-1.45-1.29-1.45-1.29.65-1.29,1.45Z"/></svg>