<?xml version="1.0" encoding="UTF-8"?><svg id="Layer_1" xmlns="http://www.w3.org/2000/svg" viewBox="0 0 32 32"><defs><style>.cls-1{fill:#fff;}.cls-2{fill:#442a17;}.cls-3{fill:none;stroke:#000;stroke-linecap:round;stroke-linejoin:round;stroke-width:.1px;}.cls-4{fill:#02bc02;}.cls-5{fill:#4ac3ff;}.cls-6{fill:#007200;}</style></defs><g><circle class="cls-5" cx="16.31" cy="16.16" r="15.47"/><g><path class="cls-4" d="m28.57,20.36c-1.19,4.08-6.76,6.48-12.2,6.41-5.6.08-11.31-2.46-12.3-6.74,0,0,0,0,0-.01.02-.13.04-.26.06-.39,0-.01,0-.03,0-.04,1.22-5.56,6.35-12.87,12.15-12.83,6.07-.04,11.41,7.98,12.29,13.61Z"/><path class="cls-6" d="m28.57,20.04c-.99,4.27-6.68,6.8-12.25,6.73-5.58.08-11.27-2.46-12.25-6.74,3.28-1.03,7.56-1.65,12.23-1.65s8.98.63,12.27,1.67Z"/><g><circle class="cls-4" cx="11.67" cy="8.8" r="4.12"/><circle class="cls-6" cx="11.82" cy="9.11" r="3.15"/></g><circle class="cls-4" cx="21.71" cy="8.8" r="4.12"/><path class="cls-3" d="m21.25,18.86c0,2.51-2.04,4.55-4.55,4.55s-4.55-2.04-4.55-4.55"/><ellipse class="cls-2" cx="15.57" cy="15.46" rx=".7" ry=".79"/><ellipse class="cls-2" cx="17.76" cy="15.46" rx=".7" ry=".79"/></g></g><circle class="cls-6" cx="21.54" cy="9.28" r="3.15"/><path class="cls-1" d="m12.39,8.2c0,.8-.58,1.45-1.29,1.45s-1.29-.65-1.29-1.45.58-1.45,1.29-1.45,1.29.65,1.29,1.45Z"/><path class="cls-1" d="m21.36,8.43c0,.8.58,1.45,1.29,1.45s1.29-.65,1.29-1.45-.58-1.45-1.29-1.45-1.29.65-1.29,1.45Z"/></svg>