<?xml version="1.0" encoding="UTF-8"?><svg id="Layer_1" xmlns="http://www.w3.org/2000/svg" viewBox="0 0 32 32"><defs><style>.cls-1{fill:#fff;}.cls-2{fill:#fff9c6;}.cls-3{fill:#ffcb57;}.cls-4{fill:none;stroke:#000;stroke-linecap:round;stroke-linejoin:round;stroke-width:.1px;}.cls-5{fill:#fc9f9f;}.cls-6{fill:#f4eebd;}.cls-7{fill:#f2aeb4;}</style></defs><g><circle class="cls-3" cx="16.08" cy="16.04" r="15.56"/><g><ellipse class="cls-5" cx="6.22" cy="10.13" rx="2.19" ry="2.89" transform="translate(-5.59 8.81) rotate(-52.11)"/><path class="cls-7" d="m4.8,10.17c-.23-.46-.24-.91-.04-1.17.21-.26.57-.3.77-.3.45,0,.95.2,1.37.53.31.24.56.53.71.85.23.46.24.91.04,1.17-.33.42-1.29.43-2.14-.23-.31-.24-.56-.53-.71-.85Z"/><ellipse class="cls-5" cx="26.13" cy="10.13" rx="2.89" ry="2.19" transform="translate(-.71 18.18) rotate(-37.89)"/><path class="cls-7" d="m27.54,10.17c.23-.46.24-.91.04-1.17-.21-.26-.57-.3-.77-.3-.45,0-.95.2-1.37.53-.31.24-.56.53-.71.85-.23.46-.24.91-.04,1.17.33.42,1.29.43,2.14-.23.31-.24.56-.53.71-.85Z"/><path class="cls-2" d="m27.8,18.29c.16.12.29.27.4.44.18.28.29.61.29.97,0,.04,0,.08,0,.12-.03.54-.31,1.02-.72,1.32.13.16.24.34.32.53.13.29.2.61.2.95v.04c-.02,1.29-1.07,2.33-2.36,2.33-.09,0-.17,0-.26-.01-.19.81-.9,1.41-1.76,1.41-.08,0-.15-.01-.23-.02-.16,1.15-1.15,2.04-2.34,2.04-.62,0-1.18-.24-1.6-.63-.3.58-.9.98-1.6.98-.56,0-1.05-.26-1.39-.66-.43.57-1.11.94-1.88.94-.96,0-1.78-.57-2.15-1.38-.3.21-.66.34-1.05.34-.75,0-1.4-.46-1.67-1.12-.33.18-.71.28-1.11.28-1.06,0-1.96-.7-2.26-1.66h0s-.01-.04-.01-.06c-.06-.2-.09-.42-.09-.64,0-.03,0-.06,0-.09-.07,0-.14.02-.21.02-.78,0-1.45-.5-1.7-1.2-.07-.19-.11-.4-.11-.61s.04-.42.11-.61c.07-.19.18-.37.3-.53-.68-.26-1.2-.81-1.42-1.51-.07-.22-.11-.46-.11-.7,0-.75.35-1.42.9-1.85.09-.07.18-.13.28-.19-.2-.19-.35-.42-.44-.68-.07-.19-.11-.4-.11-.61,0-.59.29-1.1.72-1.44.06-.05.13-.09.2-.13-.14-.2-.25-.43-.33-.67-.07-.22-.1-.45-.1-.69,0-1.31,1.06-2.36,2.36-2.36.19,0,1.66,1.28,1.84,1.32,0-.02-1.28-1.3-1.28-1.32,0-1,.81-1.81,1.81-1.81.06,0,.12.01.18.02.22-1.08,1.18-1.9,2.32-1.9.5,0,.96.15,1.34.42.33-.34.79-.56,1.3-.56.44,0,.78,2.37,1.09,2.62.43-.55,1.15-3.11,1.9-3.11.98,0,1.83.6,2.18,1.45.25-.12.52-.2.81-.2.76,0,1.4.46,1.67,1.12.3-.13.63-.21.97-.21,1.31,0,2.37,1.06,2.37,2.37v.04c0,.19-.03.37-.08.55.06.01.25.84.31.86.78.2,1.23.08,1.23.92,0,.04,0,.07,0,.11-.01.17-.05.33-.1.48.07.01.14.02.21.04,1.02.26,1.78,1.19,1.78,2.29v.04c-.01.74-.36,1.39-.9,1.82Z"/><path class="cls-6" d="m28.08,21.68c-.06.07-.14.14-.22.2.18.23.33.5.42.79-.02,1.29-1.07,2.33-2.36,2.33-.09,0-.17,0-.26-.01-.19.81-.9,1.41-1.76,1.41-.08,0-.15-.01-.23-.02-.16,1.15-1.15,2.04-2.34,2.04-.62,0-1.18-.24-1.6-.63-.3.58-.9.98-1.6.98-.56,0-1.05-.26-1.39-.66-.43.57-1.11.94-1.88.94-.96,0-1.78-.57-2.15-1.38-.3.21-.66.34-1.05.34-.75,0-1.4-.46-1.67-1.12-.33.18-.71.28-1.11.28-1.06,0-1.96-.7-2.26-1.66h0s0-.05,0-.06c0,0-.01,0-.02,0-.06-.2-.09-.42-.09-.64,0-.03,0-.06,0-.09-.07,0-.14.02-.21.02-.78,0-1.45-.5-1.7-1.2.02-.38.18-.73.4-1.01-.14-.06-.28-.12-.4-.2.07-.19.18-.37.3-.53-.68-.26-1.2-.81-1.42-1.51.01-.86.48-1.6,1.18-2.01-.16-.15-.29-.34-.38-.54-.11-.23-.17-.49-.17-.75,0-.04,0-.08,0-.12.04-.62.4-1.15.91-1.45-.13-.18-.23-.39-.3-.6-.08-.24-.13-.49-.13-.76v-.04c.02-1.29,1.07-2.33,2.37-2.33.19,0,.38.03.56.07,0-.02,1.48,1.42,1.24,1.15-.72-.79-.7-2.04.07-2.78.33-.31.49-.26.68-.24.22-1.08,1.17-1.9,2.32-1.9.5,0,.96.15,1.34.42.33-.34.79-.56,1.3-.56.43,0,.78,2.37,1.09,2.62.43-.55,1.15-3.11,1.9-3.11.98,0,1.82.6,2.18,1.45.24-.12.52-.2.81-.2.75,0,1.4.46,1.67,1.12.3-.13.63-.21.97-.21,1.07,0,1.97.7,2.26,1.67.06.18.09.38.1.58,0,.04-1.26.93-1.26.97,0,.2-.03.39-.07.58.66.1,2.46-.31,2.69.3.06.17.1.34.11.52,0,.03,0,.06,0,.1,0,.21-.04.4-.11.59.89.14,1.62.79,1.88,1.64.07.22.11.45.11.69,0,.6-.23,1.15-.6,1.57-.09.11-.19.2-.3.29.26.21.47.48.58.8.07.19.11.4.11.61,0,.49-.19.92-.51,1.25Z"/><ellipse class="cls-5" cx="16.03" cy="20.15" rx="7.66" ry="6.58"/><path class="cls-6" d="m14.45,17.97c-1.29-.84-1.66-2.57-.81-3.87.84-1.29,2.57-1.66,3.87-.81s1.66,2.57.81,3.87c-.84,1.29-2.57,1.66-3.87.81Z"/><path class="cls-6" d="m11.66,16.3c-.92-.6-1.19-1.84-.58-2.77.6-.92,1.84-1.19,2.77-.58.92.6,1.19,1.84.58,2.77-.6.92-1.84,1.19-2.77.58Z"/><circle class="cls-6" cx="18.65" cy="14.68" r="2"/><path class="cls-6" d="m20.68,16.33c-.42-.27-.53-.83-.26-1.24.27-.42.83-.53,1.24-.26.42.27.53.83.26,1.24-.27.42-.83.53-1.24.26Z"/><path class="cls-6" d="m10.09,16.62c-.42-.27-.53-.83-.26-1.24.27-.42.83-.53,1.24-.26s.53.83.26,1.24-.83.53-1.24.26Z"/><g><path class="cls-4" d="m16,24.16c0,.63-.51,1.15-1.15,1.15s-1.15-.51-1.15-1.15"/><path class="cls-4" d="m16.02,24.15c0,.63.51,1.15,1.15,1.15s1.15-.51,1.15-1.15"/><path d="m17.45,23.36c0,.38-.64,1.02-1.43,1.02s-1.43-.65-1.43-1.02.64-.68,1.43-.68,1.43.3,1.43.68Z"/></g></g></g><ellipse cx="12.69" cy="20.73" rx="2.23" ry="2.5"/><ellipse cx="19.11" cy="20.6" rx="2.23" ry="2.5"/><path class="cls-1" d="m13.52,19.88c0,.57-.41,1.03-.92,1.03s-.92-.46-.92-1.03.41-1.03.92-1.03.92.46.92,1.03Z"/><path class="cls-1" d="m18.31,19.54c0,.57.41,1.03.92,1.03s.92-.46.92-1.03-.41-1.03-.92-1.03-.92.46-.92,1.03Z"/></svg>