<?xml version="1.0" encoding="UTF-8"?><svg id="Layer_1" xmlns="http://www.w3.org/2000/svg" viewBox="0 0 32 32"><defs><style>.cls-1{fill:#fff;}.cls-2{fill:#fff9c6;}.cls-3{fill:none;stroke:#000;stroke-linecap:round;stroke-linejoin:round;stroke-width:.1px;}.cls-4{fill:#fc9f9f;}.cls-5{fill:#4ac3ff;}.cls-6{fill:#f4eebd;}.cls-7{fill:#f2aeb4;}</style></defs><g><circle class="cls-5" cx="16.16" cy="15.88" r="15.53"/><g><ellipse class="cls-4" cx="6.31" cy="9.98" rx="2.19" ry="2.88" transform="translate(-5.44 8.83) rotate(-52.11)"/><path class="cls-7" d="m4.91,10.02c-.23-.46-.24-.9-.04-1.17.2-.26.57-.3.77-.3.45,0,.95.2,1.37.52.31.24.55.53.71.85.23.46.24.9.04,1.17-.33.42-1.29.43-2.14-.23-.31-.24-.55-.53-.71-.85Z"/><ellipse class="cls-4" cx="26.19" cy="9.98" rx="2.88" ry="2.19" transform="translate(-.61 18.19) rotate(-37.89)"/><path class="cls-7" d="m27.6,10.02c.23-.46.24-.9.04-1.17-.2-.26-.57-.3-.77-.3-.45,0-.95.2-1.37.52-.31.24-.55.53-.71.85-.23.46-.24.9-.04,1.17.33.42,1.29.43,2.14-.23.31-.24.55-.53.71-.85Z"/><path class="cls-2" d="m27.85,18.12c.16.12.29.27.4.44.18.28.29.61.29.97,0,.04,0,.08,0,.12-.03.54-.31,1.01-.72,1.32.13.16.24.34.32.53.13.29.2.61.2.94v.04c-.02,1.29-1.07,2.32-2.36,2.32-.09,0-.17,0-.26-.01-.19.8-.9,1.4-1.76,1.4-.08,0-.15-.01-.23-.02-.16,1.15-1.14,2.04-2.34,2.04-.62,0-1.18-.24-1.6-.63-.3.58-.9.98-1.6.98-.56,0-1.05-.26-1.38-.66-.43.57-1.11.93-1.88.93-.96,0-1.78-.57-2.15-1.38-.3.21-.66.34-1.05.34-.75,0-1.39-.46-1.67-1.11-.33.18-.71.28-1.11.28-1.06,0-1.96-.7-2.26-1.66h0s-.01-.04-.01-.06c-.06-.2-.09-.42-.09-.64,0-.03,0-.06,0-.09-.07,0-.14.02-.21.02-.78,0-1.45-.5-1.7-1.19-.07-.19-.11-.4-.11-.61s.04-.42.11-.6c.07-.19.18-.37.3-.53-.67-.26-1.2-.81-1.42-1.51-.07-.22-.11-.46-.11-.7,0-.75.35-1.42.9-1.85.09-.07.18-.13.28-.19-.2-.19-.35-.42-.44-.68-.07-.19-.11-.4-.11-.61,0-.59.28-1.1.72-1.43.06-.05.13-.09.2-.13-.14-.2-.25-.42-.33-.66-.07-.22-.1-.45-.1-.69,0-1.3,1.06-2.36,2.36-2.36.19,0,1.65,1.28,1.83,1.32,0-.02-1.28-1.3-1.28-1.32,0-1,.81-1.81,1.81-1.81.06,0,.12.01.18.02.22-1.08,1.17-1.9,2.32-1.9.5,0,.96.15,1.34.42.33-.34.79-.55,1.3-.55.44,0,.78,2.36,1.09,2.61.43-.55,1.15-3.1,1.9-3.1.98,0,1.82.6,2.18,1.45.25-.12.52-.2.81-.2.76,0,1.4.46,1.67,1.11.3-.13.63-.21.97-.21,1.3,0,2.36,1.06,2.36,2.36v.04c0,.19-.03.37-.08.54.06.01.25.84.31.86.78.2,1.23.08,1.23.92,0,.04,0,.07,0,.11-.01.17-.05.33-.1.48.07.01.14.02.21.04,1.02.26,1.77,1.19,1.77,2.29v.04c-.01.74-.36,1.39-.9,1.82Z"/><path class="cls-6" d="m28.14,21.51c-.06.07-.14.14-.22.2.18.23.33.5.41.79-.02,1.29-1.07,2.32-2.36,2.32-.09,0-.17,0-.26-.01-.19.8-.9,1.4-1.76,1.4-.08,0-.15-.01-.23-.02-.16,1.15-1.14,2.04-2.34,2.04-.62,0-1.18-.24-1.6-.63-.3.58-.9.98-1.6.98-.56,0-1.05-.26-1.38-.66-.43.57-1.11.93-1.88.93-.96,0-1.78-.57-2.15-1.38-.3.21-.66.34-1.05.34-.75,0-1.39-.46-1.67-1.11-.33.18-.71.28-1.11.28-1.06,0-1.96-.7-2.26-1.66h0s0-.05,0-.06c0,0-.01,0-.02,0-.06-.2-.09-.42-.09-.64,0-.03,0-.06,0-.09-.07,0-.14.02-.21.02-.78,0-1.45-.5-1.7-1.19.02-.38.18-.73.4-1.01-.14-.06-.28-.12-.4-.2.07-.19.18-.37.3-.53-.67-.26-1.2-.81-1.42-1.51.01-.86.48-1.6,1.17-2.01-.16-.15-.29-.34-.38-.54-.11-.23-.17-.48-.17-.75,0-.04,0-.08,0-.12.04-.62.4-1.15.91-1.44-.13-.18-.23-.39-.3-.6-.08-.24-.13-.49-.13-.76v-.04c.02-1.29,1.07-2.32,2.36-2.32.19,0,.38.03.56.07,0-.02,1.48,1.42,1.23,1.15-.72-.79-.7-2.04.07-2.77.33-.31.49-.26.68-.23.22-1.08,1.17-1.89,2.31-1.89.5,0,.96.15,1.34.42.33-.34.79-.56,1.3-.56.43,0,.78,2.36,1.09,2.62.43-.55,1.15-3.1,1.9-3.1.98,0,1.82.6,2.18,1.45.24-.12.52-.2.81-.2.75,0,1.4.46,1.67,1.11.29-.13.63-.21.97-.21,1.06,0,1.96.7,2.26,1.67.06.18.09.38.1.58,0,.04-1.25.93-1.25.97,0,.2-.03.39-.07.58.66.1,2.46-.31,2.68.3.06.17.09.34.11.52,0,.03,0,.06,0,.1,0,.21-.04.4-.11.59.89.14,1.62.79,1.88,1.64.07.22.11.45.11.69,0,.6-.22,1.14-.6,1.56-.09.11-.19.2-.3.29.26.21.47.48.58.8.07.19.11.4.11.61,0,.48-.19.92-.51,1.24Z"/><ellipse class="cls-4" cx="16.11" cy="19.99" rx="7.64" ry="6.56"/><path class="cls-6" d="m14.54,17.81c-1.29-.84-1.65-2.57-.81-3.86.84-1.29,2.57-1.65,3.86-.81s1.65,2.57.81,3.86c-.84,1.29-2.57,1.65-3.86.81Z"/><path class="cls-6" d="m11.75,16.14c-.92-.6-1.18-1.84-.58-2.76.6-.92,1.84-1.18,2.76-.58.92.6,1.18,1.84.58,2.76-.6.92-1.84,1.18-2.76.58Z"/><circle class="cls-6" cx="18.73" cy="14.52" r="2"/><path class="cls-6" d="m20.75,16.17c-.41-.27-.53-.83-.26-1.24.27-.41.83-.53,1.24-.26.41.27.53.83.26,1.24-.27.41-.83.53-1.24.26Z"/><path class="cls-6" d="m10.18,16.46c-.41-.27-.53-.83-.26-1.24.27-.41.83-.53,1.24-.26s.53.83.26,1.24-.83.53-1.24.26Z"/><g><path class="cls-3" d="m16.08,23.98c0,.63-.51,1.14-1.14,1.14s-1.14-.51-1.14-1.14"/><path class="cls-3" d="m16.1,23.97c0,.63.51,1.14,1.14,1.14s1.14-.51,1.14-1.14"/><path d="m17.52,23.19c0,.38-.64,1.02-1.43,1.02s-1.43-.65-1.43-1.02.64-.68,1.43-.68,1.43.3,1.43.68Z"/></g></g></g><ellipse cx="12.8" cy="20.22" rx="2.23" ry="2.5"/><ellipse cx="19.23" cy="20.09" rx="2.23" ry="2.5"/><path class="cls-1" d="m13.63,19.38c0,.57-.41,1.03-.92,1.03s-.92-.46-.92-1.03.41-1.03.92-1.03.92.46.92,1.03Z"/><path class="cls-1" d="m18.43,19.03c0,.57.41,1.03.92,1.03s.92-.46.92-1.03-.41-1.03-.92-1.03-.92.46-.92,1.03Z"/></svg>