<?xml version="1.0" encoding="UTF-8"?><svg id="Layer_1" xmlns="http://www.w3.org/2000/svg" viewBox="0 0 32 32"><defs><style>.cls-1{fill:#fff;}.cls-2{fill:#727272;}.cls-3{fill:#f6f6f6;}.cls-4{fill:#ffcb57;}.cls-5{fill:none;stroke:#000;stroke-linecap:round;stroke-linejoin:round;stroke-width:.1px;}.cls-6{fill:#b2b2b1;}.cls-7{fill:#fcfcfa;}.cls-8{fill:#0b0b0b;}.cls-9{fill:#1d1d1b;}</style></defs><g><circle class="cls-4" cx="16.04" cy="15.96" r="15.57"/><g><path class="cls-1" d="m26.53,18.69c0,4.98-5.02,7.39-10.41,7.39s-10.41-2.42-10.41-7.39,5.02-10.63,10.41-10.63,10.41,5.65,10.41,10.63Z"/><path class="cls-2" d="m15.57,17.7c-1.16,1.93-1.59,3.43-3.73,3.43s-2.83-2.17-2.83-4.43,1.66-4.06,3.8-4.06,3.76,3.37,2.75,5.05Z"/><g><path class="cls-9" d="m9.73,12.34c-1.17,2.03-3.5,2.88-5.2,1.9s-2.13-3.42-.95-5.45,3.5-2.88,5.2-1.9c1.7.98,2.13,3.42.95,5.45Z"/><path class="cls-3" d="m9.26,12.25c-.55.94-1.71,1.29-2.61.77-.89-.52-1.18-1.7-.63-2.64.55-.94,1.71-1.29,2.61-.77.89.52,1.18,1.7.63,2.64Z"/></g><g><path class="cls-9" d="m22.78,12.34c1.17,2.03,3.45,2.91,5.09,1.96s2.02-3.36.85-5.39-3.45-2.91-5.09-1.96c-1.64.95-2.02,3.36-.85,5.39Z"/><path class="cls-3" d="m23.23,12.25c.55.94,1.69,1.31,2.55.81.86-.5,1.12-1.67.58-2.61-.55-.94-1.69-1.31-2.55-.81-.86.5-1.12,1.67-.58,2.61Z"/></g><path class="cls-2" d="m16.77,17.56c1.16,1.93,1.59,3.43,3.73,3.43s2.83-2.17,2.83-4.43-1.66-4.06-3.8-4.06-3.76,3.37-2.75,5.05Z"/><path class="cls-6" d="m20.69,21.64c0,1.16-1.97,3.15-4.4,3.15s-4.4-2-4.4-3.15,1.97-2.09,4.4-2.09,4.4.94,4.4,2.09Z"/><path class="cls-7" d="m20.69,21.16c0,1.16-1.97,3.15-4.4,3.15s-4.4-2-4.4-3.15,1.97-2.09,4.4-2.09,4.4.94,4.4,2.09Z"/><path class="cls-5" d="m16.24,22.11c0,.78-.63,1.41-1.41,1.41s-1.41-.63-1.41-1.41"/><path class="cls-5" d="m16.27,22.1c0,.78.63,1.41,1.41,1.41s1.41-.63,1.41-1.41"/><path class="cls-9" d="m18.02,21.14c0,.46-.79,1.26-1.75,1.26s-1.75-.8-1.75-1.26.79-.84,1.75-.84,1.75.37,1.75.84Z"/></g></g><ellipse class="cls-8" cx="11.69" cy="16.29" rx="1.93" ry="2.16"/><path class="cls-1" d="m12.48,15.48c0,.57-.41,1.03-.92,1.03s-.92-.46-.92-1.03.41-1.03.92-1.03.92.46.92,1.03Z"/><ellipse class="cls-8" cx="20.9" cy="16.29" rx="1.93" ry="2.16"/><path class="cls-1" d="m20.03,15.48c0,.57.41,1.03.92,1.03s.92-.46.92-1.03-.41-1.03-.92-1.03-.92.46-.92,1.03Z"/></svg>