<svg id="Layer_1" data-name="Layer 1" xmlns="http://www.w3.org/2000/svg" viewBox="0 0 825 900"><defs><style>.cls-1{fill:#ffcb57;}.cls-2,.cls-5{fill:#ff7db8;}.cls-3{fill:#4ac3ff;}.cls-4{fill:#284e84;}.cls-5{stroke:#ff7db8;stroke-linecap:round;stroke-miterlimit:10;stroke-width:2px;}</style></defs><path class="cls-1" d="M306.6,72a157.13,157.13,0,0,1,64,46.35A164,164,0,0,1,392,151.81a170.93,170.93,0,0,1,13.18,38.65A164.46,164.46,0,0,1,408.41,239c-.2,2.3-.45,4.59-.73,6.88-.2,1.65.2,3.37,0,5a219.19,219.19,0,0,0,1.44-29.1,187.94,187.94,0,0,0-1.78-24.28,173.84,173.84,0,0,0-11.15-41.36,165.82,165.82,0,0,0-20.43-36.24,159.46,159.46,0,0,0-28.59-29.56,156.77,156.77,0,0,0-35.63-21.32c-1.64-.7-3.28-1.37-4.94-2a21.25,21.25,0,0,1,0,2.5,10.87,10.87,0,0,0,0,2.5Z"/><path class="cls-1" d="M525.48,509.66a150.67,150.67,0,0,1-34.41-18.78A152.28,152.28,0,0,1,463,464.21,159.25,159.25,0,0,1,442.2,431a168.41,168.41,0,0,1-12.53-38.32,163.83,163.83,0,0,1-2.58-48c.22-2.29.49-4.57.79-6.85.21-1.64-.22-3.37,0-5a213.41,213.41,0,0,0-1.67,28.59,193.56,193.56,0,0,0,1.5,24.3,171.79,171.79,0,0,0,10.51,41.05,161.35,161.35,0,0,0,19.71,35.86,153.42,153.42,0,0,0,27.95,29.25,149.7,149.7,0,0,0,34.87,20.83c1.57.67,3.14,1.3,4.73,1.92a21.25,21.25,0,0,1,0-2.5,10.86,10.86,0,0,0,0-2.5Z"/><path class="cls-1" d="M741.25,235.85c-3.94-3.67-7.37-7.92-11.25-11.68s-7.9-7.33-12.08-10.74a184.68,184.68,0,0,0-26.09-17.83,178.06,178.06,0,0,0-58-20.53c-42-7-85.36,2-122.07,23.34-23.94,13.93-44.73,32.66-62.23,54.05v5l.13-.47c.29-1.1-.69-4.23,0-5-11.26,12.76-22.88,25.21-34.17,37.95-8.87,10-17.6,20.19-26.28,30.38-11.2,13.16-21.92,26.47-34.7,38.17-21.27,19.47-46.35,35-74.14,43.14-22.14,6.46-45.66,8-68.54,5.5-43.38-4.7-85.08-24.49-114.55-56.92C62,311.3,48.36,258,53.71,206.36a160.23,160.23,0,0,1,29.37-77.61,211.72,211.72,0,0,1,41.54-43q3.41-2.67,6.91-5.22c.82-.6-.76-4.44,0-5-36.22,26.39-66.45,64-75.36,108.7-5.14,25.8-5.37,53.84-1.38,79.82a177.6,177.6,0,0,0,26,69.62c24.64,38.07,64.42,64.31,108.36,74.55a189,189,0,0,0,67.36,3.42c27.54-3.63,53.6-14.7,76.26-30.62a230.37,230.37,0,0,0,36.79-32.53c11.63-12.62,22.2-26.23,33.42-39.21,12.27-14.19,24.93-28,37.49-41.95q4.65-5.17,9.25-10.38v-5l-.13.47c-.31,1.15.7,4.15,0,5,29.7-36.3,69.42-64.71,115.58-75.27A177.85,177.85,0,0,1,685,196.92a183.32,183.32,0,0,1,29.49,18.74q7.24,5.64,13.91,12c4.48,4.23,8.4,9.06,12.89,13.24-.81-.75.85-4.2,0-5Z"/><path class="cls-1" d="M700.15,846.86c30.13-22.49,55.88-51.55,69.9-86.79,11.42-28.74,14.28-60.69,9.58-91.2s-17.45-59.32-35.77-84a198.22,198.22,0,0,0-69.13-58.68c-27.44-13.87-58.38-20.63-89.1-18.07-34.74,2.88-67.26,17.59-94.42,39.09a238.13,238.13,0,0,0-22.62,20.45q-5.83,6-11.3,12.31c-1.71,2-3.39,4-5,6-1.8,2.21-4,4-5.88,6.14-10,11.43-19.11,23.67-28.23,35.84-4.54,6.06-9.09,12.12-13.77,18.08s-9.72,11.38-14.37,17.23a212.4,212.4,0,0,1-58.84,51.24c-41.65,24.51-92.22,34.31-139.72,24a180.31,180.31,0,0,1-58.05-24.12c-12.52-7.93-23.93-17.31-34.94-27.2a116.87,116.87,0,0,0-9-7.76c.77.56-.82,4.41,0,5,8.42,6.12,15.69,13.93,23.8,20.46A201.29,201.29,0,0,0,158.91,733c44.51,19.38,95.92,18.8,141,1.59a212,212,0,0,0,82.68-57.14c2.29-2.59,4.5-5.25,6.56-8,3.41-4.6,7.48-8.76,11.09-13.21,4.63-5.72,9.1-11.56,13.53-17.43,9.09-12.07,18-24.29,27.67-35.9,3.89-4.66,8.24-8.82,12.1-13.47q5.18-6.23,10.69-12.15c25.12-27,56.27-49,92.08-58.86a162,162,0,0,1,91,1.71c28.8,9,55,25.43,76.41,46.6a198.84,198.84,0,0,1,48.19,76.1c10.29,29.85,12.52,60.84,4.87,91.43-8.52,34.1-28.2,64.23-53.53,88.28a254.23,254.23,0,0,1-23.09,19.37c-.82.61.77,4.42,0,5Z"/><path class="cls-1" d="M524.83,844a161.91,161.91,0,0,1-64.47-47.7,167.94,167.94,0,0,1-21.52-34,173.33,173.33,0,0,1-13.12-38.93,164.08,164.08,0,0,1-3-48.78q.33-3.58.8-7.15c.21-1.64-.22-3.37,0-5a215.75,215.75,0,0,0-1.59,29.41,188.59,188.59,0,0,0,1.73,24.45,174.86,174.86,0,0,0,11.14,41.75,169.62,169.62,0,0,0,20.46,36.64,164.43,164.43,0,0,0,28.83,30.22,161.77,161.77,0,0,0,35.83,22q2.46,1.1,5,2.1a19.16,19.16,0,0,1,0-2.5,10.37,10.37,0,0,0,0-2.5Z"/><path class="cls-1" d="M302.13,405.54a144.08,144.08,0,0,1,34.91,16,145.7,145.7,0,0,1,29.16,24.34,154.42,154.42,0,0,1,22.45,31.53,165.89,165.89,0,0,1,14.51,37.17,176.37,176.37,0,0,1,4,20.23,158.52,158.52,0,0,1,1.58,26.86q-.12,3.44-.36,6.87c-.07,1,0,2.05,0,3.07,0,.49,0,1,0,1.49,0,0,0,.5,0,.26a205.92,205.92,0,0,0-2.69-52.53,169.56,169.56,0,0,0-12.79-40,157.1,157.1,0,0,0-21.53-34.1,147.21,147.21,0,0,0-29-26.66,143.38,143.38,0,0,0-35.48-18q-2.39-.81-4.79-1.55c.08,0,0,2.3,0,2.5a12.86,12.86,0,0,0,0,2.5Z"/><path class="cls-2" d="M225.72,144.24h1.66a6.94,6.94,0,0,1,3.9,2.3c.11.13.41.15.63.15,1.08,0,2.17,0,3.25,0a3.38,3.38,0,0,1,3.11,1.93.81.81,0,0,0,.86.49c2.55,0,5.11,0,7.67,0a7.44,7.44,0,0,1,1.7.18,4.77,4.77,0,0,1,3.64,5q0,14.93,0,29.85c0,8.52,0,17,0,25.56a6.77,6.77,0,0,1-.52,2.59A4.77,4.77,0,0,1,248,215H205.11a1.09,1.09,0,0,0-.25-.1A4.77,4.77,0,0,1,201,210q0-27.94,0-55.89a5.49,5.49,0,0,1,.48-2.26,4.79,4.79,0,0,1,4.71-2.76c2.6,0,5.2,0,7.8,0a1,1,0,0,0,.76-.36,3.66,3.66,0,0,1,3.49-2.05c1,0,2,0,3,0,.22,0,.52,0,.63-.15A6.93,6.93,0,0,1,225.72,144.24Zm19.19,63.59V156.31c-1.93,0-3.82,0-5.7,0a.9.9,0,0,0-1,.55,3.29,3.29,0,0,1-3,1.89c-5.8,0-11.61,0-17.41,0a3,3,0,0,1-2.76-1.56,1.6,1.6,0,0,0-1.76-.89c-1.45,0-2.9,0-4.35,0h-.77v51.52ZM238.74,154h.78c2.14,0,4.29,0,6.43,0a1.17,1.17,0,0,1,1.32,1.26c0,.2,0,.41,0,.62v52.33c0,1.61-.28,1.9-1.89,1.9H207.71a6.8,6.8,0,0,1-.9-.06,1,1,0,0,1-.95-.95,5.26,5.26,0,0,1,0-.89V158.14c0-.9,0-1.8,0-2.7s.43-1.39,1.39-1.4h7.12v-2.61h-8.07c-2.09,0-3,.95-3,3V209.7c0,2.1.93,3,3,3q20.28,0,40.58,0c2.1,0,3-.93,3-3V154.53c0-2.18-.93-3.1-3.11-3.1h-8Zm-12.21,2.43h8.22c1.19,0,1.63-.45,1.64-1.62,0-1.42,0-2.85,0-4.28,0-1.11-.48-1.58-1.61-1.6s-2-.06-3,0a2.26,2.26,0,0,1-2.43-1.15,1.21,1.21,0,0,0-.39-.39,3.59,3.59,0,0,0-5.34.64,1.91,1.91,0,0,1-1.79.9c-1.15-.06-2.31,0-3.46,0s-1.63.48-1.64,1.64c0,1.35,0,2.71,0,4.07s.4,1.79,1.82,1.79Z"/><path class="cls-2" d="M216.75,184.15l4.83-4.84a5.61,5.61,0,0,1,.5-.48,1.16,1.16,0,0,1,1.62,0,1.1,1.1,0,0,1,0,1.56c-.58.65-1.22,1.25-1.84,1.87l-4,4c-.8.8-1.35.79-2.17,0l-3.17-3.17c-.64-.64-.71-1.31-.21-1.81s1.18-.45,1.81.19C215,182.34,215.82,183.21,216.75,184.15Z"/><path class="cls-2" d="M216.72,172l4.94-5a4.45,4.45,0,0,1,.56-.51,1.06,1.06,0,0,1,1.45.12,1,1,0,0,1,.11,1.43q-3.17,3.24-6.39,6.39a1,1,0,0,1-1.39-.09q-1.89-1.82-3.71-3.7a1.13,1.13,0,1,1,1.64-1.56C214.86,170,215.76,171,216.72,172Z"/><path class="cls-2" d="M216.76,196.37l4.79-4.79c.16-.16.32-.33.49-.48a1.13,1.13,0,0,1,1.62,0,1.12,1.12,0,0,1,0,1.66c-.79.84-1.62,1.64-2.43,2.45l-3.42,3.42a1.22,1.22,0,0,1-2,0c-1.1-1.08-2.19-2.18-3.28-3.27-.62-.64-.68-1.34-.18-1.83s1.17-.42,1.82.21Z"/><path class="cls-2" d="M234,199.14h-5.8a2.44,2.44,0,0,1-.81-.11,1.11,1.11,0,0,1,.11-2.09,3.28,3.28,0,0,1,.89-.09h11.6a1.15,1.15,0,0,1,1.18,1.18,1.14,1.14,0,0,1-1.24,1.11c-.55,0-1.1,0-1.65,0Z"/><path class="cls-2" d="M233.86,174.67H228c-.8,0-1.26-.37-1.33-1a1.06,1.06,0,0,1,.87-1.21,4.57,4.57,0,0,1,.83-.06h11a5.06,5.06,0,0,1,.55,0c.76.07,1.2.52,1.17,1.18a1.12,1.12,0,0,1-1.25,1.09C237.86,174.68,235.86,174.67,233.86,174.67Z"/><path class="cls-2" d="M234,184.62h5.86c.76,0,1.21.36,1.29,1a1.05,1.05,0,0,1-.83,1.24,3.74,3.74,0,0,1-.89.08h-11c-.21,0-.42,0-.62,0a1.14,1.14,0,1,1,.08-2.27C229.89,184.6,231.92,184.62,234,184.62Z"/><path class="cls-2" d="M231.42,169.79h-3.11a4.22,4.22,0,0,1-.62,0,1.12,1.12,0,0,1-1-1.16,1.07,1.07,0,0,1,1.11-1.1c2.44,0,4.89,0,7.33,0a1.09,1.09,0,0,1,1.14,1.14,1.14,1.14,0,0,1-1.22,1.14c-1.19,0-2.39,0-3.59,0Z"/><path class="cls-2" d="M231.46,192h3.38c.87,0,1.37.42,1.39,1.11s-.47,1.18-1.32,1.18c-2.3,0-4.61,0-6.91,0-.88,0-1.35-.44-1.35-1.15s.5-1.13,1.42-1.14Z"/><path class="cls-2" d="M231.39,182h-3.45c-.81,0-1.28-.44-1.29-1.13s.45-1.13,1.28-1.14q3.52,0,7,0a1.11,1.11,0,0,1,1.25,1.16c0,.68-.49,1.09-1.32,1.1Z"/><path class="cls-2" d="M225.43,151.45c0-.41,0-.82,0-1.23a1.1,1.1,0,0,1,1.13-1.06,1.07,1.07,0,0,1,1.09,1c0,.87,0,1.75,0,2.62a1.12,1.12,0,0,1-2.23,0c0-.43,0-.87,0-1.31Z"/><path class="cls-2" d="M576.19,281.48c-1.68,1.46-3.23,2.82-4.79,4.15a5.69,5.69,0,0,1-6.18,1.08,5.8,5.8,0,0,1-1.51-9.82c3.09-2.74,6.23-5.42,9.35-8.12.88-.77,1.75-1.55,2.65-2.28a1.29,1.29,0,0,0,.49-1.12q0-16,0-32.06c0-3.66,2.18-5.84,5.84-5.84h35c3.62,0,5.81,2.18,5.81,5.79q0,27.72,0,55.44c0,3.61-2.19,5.8-5.8,5.8H582c-3.57,0-5.77-2.2-5.78-5.76Zm2.92-18.05a1.35,1.35,0,0,0,.82-1.6,16.52,16.52,0,0,1-.1-4.27,13.1,13.1,0,1,1,8.51,14.16.91.91,0,0,0-1.09.15c-2.55,2.25-5.14,4.45-7.68,6.7a1.44,1.44,0,0,0-.44,1c0,3.11,0,6.22,0,9.33a2.44,2.44,0,0,0,2.75,2.72H617.1a2.46,2.46,0,0,0,2.79-2.77V233.17a2.45,2.45,0,0,0-2.76-2.79H581.88a2.45,2.45,0,0,0-2.77,2.78v30.27Zm13.62,6.16a10.2,10.2,0,1,0-10.14-10.22A10.22,10.22,0,0,0,592.73,269.59Zm-11.68-3.87-.34.27L571,274.38c-1.83,1.59-3.68,3.16-5.49,4.77a2.74,2.74,0,0,0-.85,3.1,2.78,2.78,0,0,0,2.45,2,3.09,3.09,0,0,0,2.5-.93L581,273.48l3.88-3.37Z"/><path class="cls-2" d="M573.28,243.53a4.37,4.37,0,1,1-4.33-4.4A4.4,4.4,0,0,1,573.28,243.53Zm-2.92,0a1.45,1.45,0,1,0-1.5,1.44A1.47,1.47,0,0,0,570.36,243.51Z"/><path class="cls-2" d="M599.5,234.76h14a5.9,5.9,0,0,1,.73,0,1.45,1.45,0,0,1,0,2.89c-.22,0-.44,0-.66,0H585.45a5.93,5.93,0,0,1-.73,0,1.47,1.47,0,0,1-1.24-1.48,1.45,1.45,0,0,1,1.25-1.39,4.45,4.45,0,0,1,.73,0Z"/><path class="cls-2" d="M599.56,242h14a5.88,5.88,0,0,1,.73,0,1.47,1.47,0,0,1,1.26,1.4,1.46,1.46,0,0,1-1.25,1.47,4.34,4.34,0,0,1-.72,0H585.46a4.66,4.66,0,0,1-.65,0,1.45,1.45,0,0,1,0-2.88,5.93,5.93,0,0,1,.73,0Z"/><path class="cls-2" d="M599.42,279.93h-14a5.77,5.77,0,0,1-.72,0,1.45,1.45,0,0,1,0-2.87,4.42,4.42,0,0,1,.73,0h28.08a4.85,4.85,0,0,1,.66,0,1.45,1.45,0,0,1,0,2.89c-.24,0-.48,0-.72,0Z"/><path class="cls-2" d="M599.51,284.3h14a5.77,5.77,0,0,1,.72,0,1.44,1.44,0,0,1,0,2.88,4.85,4.85,0,0,1-.66,0H585.45a4.41,4.41,0,0,1-.73,0,1.45,1.45,0,0,1,0-2.87,5.77,5.77,0,0,1,.72,0Z"/><path class="cls-2" d="M634.78,596c-.14,1.34-.3,2.69-.42,4q-.95,11.24-1.88,22.48c-.15,1.82-.31,3.63-.45,5.44a5.6,5.6,0,0,1-5.95,5.32c-.62,0-1.24-.1-2-.16,0,1.35,0,2.62,0,3.9a13.88,13.88,0,0,1-.26,3,5.49,5.49,0,0,1-5.17,4.07H566.33c-3.82,0-6.13-2.31-6.13-6.11v-31.9c0-3.75,2.33-6.08,6.08-6.09,1,0,2.09,0,3.13,0,.51,0,.65-.18.7-.66.31-3.11.63-6.23,1-9.33a5.59,5.59,0,0,1,6.13-5l25.17,2.12q12.69,1.07,25.39,2.1c.7.06,1.4.1,2.09.21a5.51,5.51,0,0,1,4.77,4.38,2.26,2.26,0,0,0,.13.33Zm-71.67,24.49v17.54c0,2.08,1,3.11,3.15,3.11H618c2.13,0,3.18-1,3.18-3.16V620.53Zm61,9.71c.85.06,1.62.16,2.39.16A2.61,2.61,0,0,0,629.1,628c.26-2.85.49-5.71.73-8.56q.54-6.56,1.1-13.13c.31-3.67.63-7.35.91-11a2.66,2.66,0,0,0-2.55-3q-8.76-.76-17.55-1.47l-16.61-1.37L577,587.91a2.64,2.64,0,0,0-3,2.41c-.26,2.11-.47,4.24-.69,6.36-.12,1.08-.23,2.16-.35,3.32h44.86a9.68,9.68,0,0,1,2,.19,5.59,5.59,0,0,1,4.27,5.7q0,11.68,0,23.38Zm-61-12.73h58v-6h-58Zm58.05-8.94v-.73c0-.8,0-1.61,0-2.41a2.67,2.67,0,0,0-2.5-2.5c-.22,0-.44,0-.65,0H566.24a5,5,0,0,0-.94.08,2.36,2.36,0,0,0-2.07,2,28.78,28.78,0,0,0,0,3.6Z"/><path class="cls-2" d="M608.05,636.86h-6.63c-1.31,0-1.79-.49-1.79-1.82V626.6c0-1.28.49-1.78,1.76-1.78q6.71,0,13.4,0c1.25,0,1.76.52,1.77,1.78v8.52c0,1.21-.53,1.73-1.74,1.74Zm5.55-9.08h-11v6.11h11Z"/><path class="cls-3" d="M216.29,107.71V32.23l10.2,9.84h-25.8V23.71h39.36v84Z"/><path class="cls-3" d="M568.51,860.21V844.73l37.68-52.44h24.6l-36.6,52.44-11.28-3.36h65.64v18.84Zm44.4,16.08V860.21l.72-18.84V827.09h22.44v49.2Z"/><path class="cls-3" d="M59.62,637a72.21,72.21,0,0,1-17.46-2.16A53.8,53.8,0,0,1,27,628.69l8.64-17.88A40.5,40.5,0,0,0,46.84,616a43,43,0,0,0,12.06,1.8q6.12,0,9.72-2.28a7.22,7.22,0,0,0,3.6-6.48,7,7,0,0,0-3-5.94q-3-2.22-9.84-2.22h-10v-15L72,561.49l2.28,8.16h-43V551.29H92v14.88L69.46,590.53l-11.64-6.6H64.3q15.72,0,23.82,7A22.81,22.81,0,0,1,96.22,609a25.5,25.5,0,0,1-3.9,13.56A28.35,28.35,0,0,1,80.38,633Q72.34,637,59.62,637Z"/><path class="cls-3" d="M732.62,369.29V354.41L764.06,325a33.79,33.79,0,0,0,5-5.52,15.22,15.22,0,0,0,2.16-4.38,13.92,13.92,0,0,0,.54-3.66,7.89,7.89,0,0,0-2.7-6.36c-1.8-1.51-4.5-2.28-8.1-2.28a18.34,18.34,0,0,0-8.52,2,16.37,16.37,0,0,0-6.48,6.12l-17.64-9.84a34.19,34.19,0,0,1,13.56-12.72q8.88-4.8,21.24-4.8a43.18,43.18,0,0,1,17,3.12,26.6,26.6,0,0,1,11.46,8.88,22.62,22.62,0,0,1,4.14,13.56,31.09,31.09,0,0,1-1.08,8.1,28.51,28.51,0,0,1-4.14,8.52,60.53,60.53,0,0,1-9.06,10l-25,23-4-8.4H798v18.84Z"/><path class="cls-4" d="M158.65,282.21v-19.6h3.59v13.92l10.52-13.92h3.39v19.6h-3.58V268.33L162,282.21Z"/><path class="cls-4" d="M182.61,282.06a11.85,11.85,0,0,1-3-1.16l1-2.61a9.48,9.48,0,0,0,2.46,1,11.66,11.66,0,0,0,2.74.33,7.41,7.41,0,0,0,2-.24,2.76,2.76,0,0,0,1.3-.71,1.51,1.51,0,0,0,.46-1.09,1.48,1.48,0,0,0-.77-1.36,4.25,4.25,0,0,0-2.19-.46h-2.89v-2.35h2.61a5.19,5.19,0,0,0,1.52-.2,2.08,2.08,0,0,0,1-.59,1.39,1.39,0,0,0,.33-.92,1.28,1.28,0,0,0-.4-.94,2.61,2.61,0,0,0-1.16-.62,6.9,6.9,0,0,0-1.82-.21,10.41,10.41,0,0,0-2.31.28A14.49,14.49,0,0,0,181,271l-.89-2.58a16.93,16.93,0,0,1,2.78-1,11.57,11.57,0,0,1,2.71-.38,10.45,10.45,0,0,1,3.64.42,5.86,5.86,0,0,1,2.52,1.46,3.12,3.12,0,0,1,.92,2.23,3.06,3.06,0,0,1-.66,1.92,4.3,4.3,0,0,1-1.79,1.33,6.61,6.61,0,0,1-2.59.48l.11-.76a6.71,6.71,0,0,1,3.92,1,3.12,3.12,0,0,1,1.43,2.7,3.59,3.59,0,0,1-.92,2.42,6.05,6.05,0,0,1-2.54,1.64,10.72,10.72,0,0,1-3.68.59A14.19,14.19,0,0,1,182.61,282.06Z"/><path class="cls-4" d="M203.87,282.49a9,9,0,0,1-3.3-.56,6.38,6.38,0,0,1-2.51-1.72,7.88,7.88,0,0,1-1.61-2.95,14.47,14.47,0,0,1-.56-4.26,15.79,15.79,0,0,1,.31-3.27,10.71,10.71,0,0,1,.92-2.68,8.24,8.24,0,0,1,3.76-3.65,12.07,12.07,0,0,1,2.85-.95l7-1.49.5,3.14-6.3,1.29c-.35.07-.78.18-1.27.32a7.91,7.91,0,0,0-1.52.61,5.25,5.25,0,0,0-1.42,1.15,5.64,5.64,0,0,0-1.07,1.91,8.87,8.87,0,0,0-.4,2.89,5.26,5.26,0,0,0,0,.8c0,.18,0,.37.08.56a6.3,6.3,0,0,1,0,.86l-1.31-1.38a7.22,7.22,0,0,1,1.55-2.44,6.62,6.62,0,0,1,2.33-1.57,7.4,7.4,0,0,1,2.89-.55,7.78,7.78,0,0,1,3.73.87,6.48,6.48,0,0,1,2.55,2.43,6.94,6.94,0,0,1,.92,3.56,6.76,6.76,0,0,1-1,3.67,6.86,6.86,0,0,1-2.84,2.5A9.52,9.52,0,0,1,203.87,282.49Zm.28-2.82a4.52,4.52,0,0,0,2.23-.55,3.89,3.89,0,0,0,1.51-1.5,4.22,4.22,0,0,0,.55-2.13,3.83,3.83,0,0,0-.55-2.05,4.05,4.05,0,0,0-1.51-1.42,4.74,4.74,0,0,0-2.28-.53,5,5,0,0,0-2.26.5,3.67,3.67,0,0,0-2.08,3.42,4.25,4.25,0,0,0,.56,2.16,4.09,4.09,0,0,0,1.55,1.54A4.59,4.59,0,0,0,204.15,279.67Z"/><path class="cls-4" d="M222.38,282.41a9.13,9.13,0,0,1-4.35-1,7.25,7.25,0,0,1-2.89-2.73,7.67,7.67,0,0,1-1-3.95,7.79,7.79,0,0,1,1-4,7.23,7.23,0,0,1,2.75-2.71,8,8,0,0,1,4-1,7.82,7.82,0,0,1,3.89,1,6.93,6.93,0,0,1,2.69,2.68,8.22,8.22,0,0,1,1,4.09c0,.15,0,.32,0,.51s0,.36,0,.53H216.89v-2.33H227.5l-1.37.73a4.33,4.33,0,0,0-.53-2.27,4,4,0,0,0-1.53-1.53,4.27,4.27,0,0,0-2.22-.57,4.39,4.39,0,0,0-2.26.57,4,4,0,0,0-1.51,1.55,4.82,4.82,0,0,0-.54,2.34v.56a4.58,4.58,0,0,0,.61,2.38,4.06,4.06,0,0,0,1.74,1.59,5.56,5.56,0,0,0,2.57.56,6.25,6.25,0,0,0,2.27-.39,4.79,4.79,0,0,0,1.79-1.23L228.4,280a6.56,6.56,0,0,1-2.53,1.81A9.09,9.09,0,0,1,222.38,282.41Z"/><path class="cls-4" d="M233.24,287.65V267.26h3.34v3.53l-.12,4,.28,4v8.91Zm8.29-5.24a6.69,6.69,0,0,1-3.32-.84,6,6,0,0,1-2.38-2.53,11.09,11.09,0,0,1,0-8.61,5.75,5.75,0,0,1,2.33-2.51,6.86,6.86,0,0,1,3.39-.83,7.79,7.79,0,0,1,3.91,1,7.08,7.08,0,0,1,2.69,2.66,8.72,8.72,0,0,1,0,8.07,7.13,7.13,0,0,1-2.69,2.68A7.89,7.89,0,0,1,241.53,282.41Zm-.39-3a4.43,4.43,0,0,0,2.25-.57,4.07,4.07,0,0,0,1.59-1.62,5.68,5.68,0,0,0,0-5,4.17,4.17,0,0,0-1.59-1.61,4.52,4.52,0,0,0-2.25-.56,4.63,4.63,0,0,0-2.27.56,4.1,4.1,0,0,0-1.59,1.61,5.59,5.59,0,0,0,0,5,4,4,0,0,0,1.59,1.62A4.53,4.53,0,0,0,241.14,279.42Z"/><path class="cls-4" d="M259.56,282.41a9.13,9.13,0,0,1-4.35-1,7.29,7.29,0,0,1-2.88-2.73,7.58,7.58,0,0,1-1-3.95,7.69,7.69,0,0,1,1-4,7.13,7.13,0,0,1,2.74-2.71,8.08,8.08,0,0,1,4-1,7.79,7.79,0,0,1,3.89,1,6.86,6.86,0,0,1,2.69,2.68,8.22,8.22,0,0,1,1,4.09c0,.15,0,.32,0,.51s0,.36,0,.53H254.08v-2.33h10.61l-1.37.73a4.34,4.34,0,0,0-.54-2.27,4.06,4.06,0,0,0-1.52-1.53,4.69,4.69,0,0,0-4.48,0,3.88,3.88,0,0,0-1.51,1.55,4.71,4.71,0,0,0-.55,2.34v.56a4.5,4.5,0,0,0,.62,2.38,4,4,0,0,0,1.73,1.59,5.63,5.63,0,0,0,2.58.56,6.29,6.29,0,0,0,2.27-.39,4.87,4.87,0,0,0,1.79-1.23l1.87,2.15a6.49,6.49,0,0,1-2.53,1.81A9.09,9.09,0,0,1,259.56,282.41Z"/><path class="cls-4" d="M273,282.21V269.39l.81.84h-6.08v-3h14v3h-6l.82-.84v12.82Z"/><path class="cls-4" d="M290.59,282.41a9.17,9.17,0,0,1-4.36-1,7.29,7.29,0,0,1-2.88-2.73,7.67,7.67,0,0,1-1-3.95,7.79,7.79,0,0,1,1-4,7.16,7.16,0,0,1,2.75-2.71,8,8,0,0,1,4-1,7.82,7.82,0,0,1,3.89,1,6.93,6.93,0,0,1,2.69,2.68,8.22,8.22,0,0,1,1,4.09c0,.15,0,.32,0,.51s0,.36,0,.53H285.1v-2.33h10.61l-1.37.73a4.33,4.33,0,0,0-.53-2.27,4.09,4.09,0,0,0-1.53-1.53,4.27,4.27,0,0,0-2.22-.57,4.39,4.39,0,0,0-2.26.57,4,4,0,0,0-1.51,1.55,4.82,4.82,0,0,0-.55,2.34v.56a4.59,4.59,0,0,0,.62,2.38,4.06,4.06,0,0,0,1.74,1.59,5.56,5.56,0,0,0,2.57.56,6.25,6.25,0,0,0,2.27-.39,4.79,4.79,0,0,0,1.79-1.23l1.88,2.15a6.52,6.52,0,0,1-2.54,1.81A9,9,0,0,1,290.59,282.41Z"/><path class="cls-4" d="M158.23,315.81V300.86h3.5v14.95Zm2.47-6v-2.91h5.06v2.91Zm6-1.06-3.27-.39,5.49-7.51h3.75Zm2.22,7.05-5.41-7.16,2.86-1.77,6.66,8.93Z"/><path class="cls-4" d="M179.62,316a7.07,7.07,0,0,1-2.94-.57,4.61,4.61,0,0,1-1.94-1.6,4,4,0,0,1-.69-2.31,4.35,4.35,0,0,1,.6-2.27,4.08,4.08,0,0,1,2-1.59,9.22,9.22,0,0,1,3.64-.59h4.34v2.32h-4.09a3.61,3.61,0,0,0-2.41.58,1.84,1.84,0,0,0-.61,1.41,1.77,1.77,0,0,0,.75,1.51,3.44,3.44,0,0,0,2.1.56,4.46,4.46,0,0,0,2.31-.59,3.35,3.35,0,0,0,1.47-1.73l.59,2.1a3.87,3.87,0,0,1-1.81,2A6.59,6.59,0,0,1,179.62,316Zm4.71-.2v-3l-.2-.64v-5.3a3.12,3.12,0,0,0-.92-2.39,4,4,0,0,0-2.8-.85,8.08,8.08,0,0,0-2.48.39,6,6,0,0,0-2.06,1.09l-1.37-2.55a8.24,8.24,0,0,1,2.87-1.38,12.79,12.79,0,0,1,3.46-.47,7.36,7.36,0,0,1,5,1.56,6,6,0,0,1,1.78,4.8v8.76Z"/><path class="cls-4" d="M192,315.81V300.86h3.67l6,10.61H200.2l6.33-10.61h3.28l0,14.95h-3.17v-11.2l.56.37-5.6,9.27h-1.51l-5.63-9.52.67-.17v11.25Z"/><path class="cls-4" d="M214.54,315.81V300.86h14.34v14.95H225.4V303l.82.81h-9L218,303v12.79Z"/><path class="cls-4" d="M238,316a7.07,7.07,0,0,1-2.94-.57,4.64,4.64,0,0,1-1.95-1.6,4,4,0,0,1-.69-2.31,4.27,4.27,0,0,1,.61-2.27,4,4,0,0,1,2-1.59,9.22,9.22,0,0,1,3.64-.59H243v2.32h-4.09a3.61,3.61,0,0,0-2.41.58,1.84,1.84,0,0,0-.61,1.41,1.77,1.77,0,0,0,.75,1.51,3.44,3.44,0,0,0,2.1.56,4.46,4.46,0,0,0,2.31-.59,3.35,3.35,0,0,0,1.47-1.73l.59,2.1a3.85,3.85,0,0,1-1.8,2A6.65,6.65,0,0,1,238,316Zm4.7-.2v-3l-.2-.64v-5.3a3.08,3.08,0,0,0-.92-2.39,4,4,0,0,0-2.8-.85,8.08,8.08,0,0,0-2.48.39,6,6,0,0,0-2.06,1.09l-1.37-2.55a8.24,8.24,0,0,1,2.87-1.38,12.79,12.79,0,0,1,3.46-.47,7.41,7.41,0,0,1,5,1.56,6.06,6.06,0,0,1,1.77,4.8v8.76Z"/><path class="cls-4" d="M250.32,315.81V300.86h3.5v6.08h7.54v-6.08h3.5v14.95h-3.5v-5.9h-7.54v5.9Z"/><path class="cls-4" d="M269.56,315.81V300.86h3.5v9.86l8.26-9.86h3.19v14.95H281V306l-8.23,9.85Z"/><path class="cls-4" d="M288,315.81l4-5.71h3.58l-3.86,5.71Zm10.76,0v-5.09l.5.59h-4.48A7.94,7.94,0,0,1,289.9,310a4.38,4.38,0,0,1-1.75-3.76,4.68,4.68,0,0,1,1.86-4,8.22,8.22,0,0,1,5-1.37h6.86v14.95Zm0-6.21v-6.72l.5.92h-4.12a4.42,4.42,0,0,0-2.5.6,2.19,2.19,0,0,0-.88,2q0,2.52,3.27,2.52h4.23Z"/><path class="cls-4" d="M488.11,367.28l1.18-2.66A10.14,10.14,0,0,0,492,366a10.8,10.8,0,0,0,3,.49,8.85,8.85,0,0,0,2.7-.33,4.52,4.52,0,0,0,1.94-1.1,2.44,2.44,0,0,0,.73-1.82,2.16,2.16,0,0,0-1.08-2,5.54,5.54,0,0,0-2.92-.66h-4.57v-2.85h4.29a4.24,4.24,0,0,0,2.56-.68,2.3,2.3,0,0,0,.31-3.38,3.74,3.74,0,0,0-1.63-.93,7.76,7.76,0,0,0-2.29-.29,10.56,10.56,0,0,0-2.65.39,10.45,10.45,0,0,0-2.6,1.11L488.67,351a13.83,13.83,0,0,1,3.88-1.38,14.21,14.21,0,0,1,3.93-.22,10.24,10.24,0,0,1,3.43.87,6.71,6.71,0,0,1,2.45,1.83,4.1,4.1,0,0,1,.93,2.68,4.2,4.2,0,0,1-.75,2.47,4.79,4.79,0,0,1-2,1.67,7.12,7.12,0,0,1-3,.59l.14-.9a8,8,0,0,1,3.37.66,5.34,5.34,0,0,1,2.24,1.81,4.54,4.54,0,0,1,.8,2.66,4.47,4.47,0,0,1-.73,2.53,5.92,5.92,0,0,1-2,1.85,9.68,9.68,0,0,1-2.88,1.09,13.64,13.64,0,0,1-3.42.27,14.86,14.86,0,0,1-3.57-.62A12.9,12.9,0,0,1,488.11,367.28Z"/><path class="cls-4" d="M512.19,369.41a7.07,7.07,0,0,1-2.94-.57,4.64,4.64,0,0,1-1.95-1.6,4.1,4.1,0,0,1-.68-2.31,4.35,4.35,0,0,1,.6-2.27,4.05,4.05,0,0,1,2-1.59,9.26,9.26,0,0,1,3.64-.59h4.34v2.32h-4.08a3.59,3.59,0,0,0-2.41.58,1.85,1.85,0,0,0-.62,1.41,1.76,1.76,0,0,0,.76,1.51,3.41,3.41,0,0,0,2.1.56,4.46,4.46,0,0,0,2.31-.59,3.35,3.35,0,0,0,1.47-1.73l.59,2.1a3.87,3.87,0,0,1-1.81,2A6.62,6.62,0,0,1,512.19,369.41Zm4.7-.2v-3l-.19-.64v-5.3a3.09,3.09,0,0,0-.93-2.39A4,4,0,0,0,513,357a8,8,0,0,0-2.47.39,5.94,5.94,0,0,0-2.06,1.09l-1.37-2.55a8.15,8.15,0,0,1,2.87-1.38,12.77,12.77,0,0,1,3.45-.47,7.39,7.39,0,0,1,5,1.56,6,6,0,0,1,1.78,4.8v8.76Z"/><path class="cls-4" d="M524.54,369.21V354.26h14.33v14.95H535.4V356.42l.81.81h-9l.81-.81v12.79Z"/><path class="cls-4" d="M550.27,369.41a8.34,8.34,0,0,1-4.09-1,7.84,7.84,0,0,1-2.83-10.64,7.44,7.44,0,0,1,2.83-2.71,8.44,8.44,0,0,1,4.09-1,8.54,8.54,0,0,1,4.13,1,7.33,7.33,0,0,1,2.83,2.69,8.22,8.22,0,0,1,0,7.93,7.43,7.43,0,0,1-2.83,2.73A8.44,8.44,0,0,1,550.27,369.41Zm0-3a4.62,4.62,0,0,0,2.3-.57,4,4,0,0,0,1.58-1.62,5.77,5.77,0,0,0,0-5,4.08,4.08,0,0,0-1.58-1.61,4.66,4.66,0,0,0-2.27-.56,4.59,4.59,0,0,0-2.28.56,4.17,4.17,0,0,0-1.59,1.61,5.68,5.68,0,0,0,0,5,4.07,4.07,0,0,0,1.59,1.62A4.43,4.43,0,0,0,550.27,366.42Z"/><path class="cls-4" d="M562.83,369.06a11.85,11.85,0,0,1-3-1.16l1-2.61a9.63,9.63,0,0,0,2.46,1,11.75,11.75,0,0,0,2.75.33,7.38,7.38,0,0,0,2-.24,2.71,2.71,0,0,0,1.3-.71,1.53,1.53,0,0,0,.47-1.09,1.5,1.5,0,0,0-.77-1.36,4.32,4.32,0,0,0-2.2-.46h-2.89v-2.35h2.61a5.19,5.19,0,0,0,1.52-.2,2,2,0,0,0,1-.59,1.39,1.39,0,0,0,.34-.92,1.29,1.29,0,0,0-.41-.94,2.61,2.61,0,0,0-1.16-.62,6.9,6.9,0,0,0-1.82-.21,10.41,10.41,0,0,0-2.31.28,14.1,14.1,0,0,0-2.42.82l-.9-2.58a16.7,16.7,0,0,1,2.79-1,11.42,11.42,0,0,1,2.7-.38,10.45,10.45,0,0,1,3.64.42,5.86,5.86,0,0,1,2.52,1.46,3.12,3.12,0,0,1,.92,2.23,3.06,3.06,0,0,1-.66,1.92,4.3,4.3,0,0,1-1.79,1.33,6.57,6.57,0,0,1-2.59.48l.11-.76a6.71,6.71,0,0,1,3.92,1,3.1,3.1,0,0,1,1.43,2.7,3.59,3.59,0,0,1-.92,2.42,6.05,6.05,0,0,1-2.54,1.64,10.72,10.72,0,0,1-3.68.59A14.19,14.19,0,0,1,562.83,369.06Z"/><path class="cls-4" d="M577,369.21V354.26h3.5v6.08H588v-6.08h3.5v14.95H588v-5.9h-7.54v5.9Z"/><path class="cls-4" d="M600.56,369.41a7.07,7.07,0,0,1-2.94-.57,4.64,4.64,0,0,1-2-1.6,4,4,0,0,1-.68-2.31,4.35,4.35,0,0,1,.6-2.27,4.05,4.05,0,0,1,2-1.59,9.26,9.26,0,0,1,3.64-.59h4.34v2.32h-4.09a3.58,3.58,0,0,0-2.4.58,1.82,1.82,0,0,0-.62,1.41,1.76,1.76,0,0,0,.76,1.51,3.41,3.41,0,0,0,2.1.56,4.45,4.45,0,0,0,2.3-.59,3.32,3.32,0,0,0,1.48-1.73l.58,2.1a3.81,3.81,0,0,1-1.8,2A6.65,6.65,0,0,1,600.56,369.41Zm4.7-.2v-3l-.19-.64v-5.3a3.09,3.09,0,0,0-.93-2.39,4,4,0,0,0-2.8-.85,8.13,8.13,0,0,0-2.48.39,6,6,0,0,0-2.06,1.09l-1.37-2.55a8.33,8.33,0,0,1,2.87-1.38,12.84,12.84,0,0,1,3.46-.47,7.39,7.39,0,0,1,5,1.56,6.06,6.06,0,0,1,1.78,4.8v8.76Z"/><path class="cls-4" d="M612.91,369.21V354.26h3.5v9.86l8.25-9.86h3.2v14.95h-3.5v-9.85l-8.24,9.85Zm7.25-16.71a5.1,5.1,0,0,1-3.45-1.05,3.94,3.94,0,0,1-1.23-3.07h2.32a2.24,2.24,0,0,0,.63,1.6,2.36,2.36,0,0,0,1.7.59,2.38,2.38,0,0,0,1.69-.59,2.18,2.18,0,0,0,.66-1.6h2.38a3.88,3.88,0,0,1-1.25,3.07A5.12,5.12,0,0,1,620.16,352.5Z"/><path class="cls-4" d="M635.67,369.21V356.39l.81.84H630.4v-3h14v3h-6l.81-.84v12.82Z"/><path class="cls-4" d="M653.28,369.41a9.13,9.13,0,0,1-4.35-1,7.25,7.25,0,0,1-2.89-2.73,7.67,7.67,0,0,1-1-3.95,7.79,7.79,0,0,1,1-4,7.23,7.23,0,0,1,2.75-2.71,8,8,0,0,1,4-1,7.82,7.82,0,0,1,3.89,1,6.93,6.93,0,0,1,2.69,2.68,8.22,8.22,0,0,1,1,4.09c0,.15,0,.32,0,.51s0,.36,0,.53H647.79v-2.33H658.4l-1.37.73a4.33,4.33,0,0,0-.53-2.27,4,4,0,0,0-1.53-1.53,4.27,4.27,0,0,0-2.22-.57,4.39,4.39,0,0,0-2.26.57A4,4,0,0,0,649,359a4.82,4.82,0,0,0-.54,2.34v.56a4.58,4.58,0,0,0,.61,2.38,4.06,4.06,0,0,0,1.74,1.59,5.56,5.56,0,0,0,2.57.56,6.25,6.25,0,0,0,2.27-.39,4.79,4.79,0,0,0,1.79-1.23L659.3,367a6.56,6.56,0,0,1-2.53,1.81A9.09,9.09,0,0,1,653.28,369.41Z"/><path class="cls-4" d="M678.68,369.41a8.67,8.67,0,0,1-4.19-1,7.47,7.47,0,0,1-2.87-2.73,8,8,0,0,1,0-7.91,7.35,7.35,0,0,1,2.87-2.71,8.79,8.79,0,0,1,4.19-1,8.13,8.13,0,0,1,3.85.89,5.82,5.82,0,0,1,2.53,2.59l-2.69,1.56a4.28,4.28,0,0,0-1.64-1.56,4.38,4.38,0,0,0-2.08-.51,4.86,4.86,0,0,0-2.33.56,4,4,0,0,0-1.62,1.61,5.61,5.61,0,0,0,0,5,4,4,0,0,0,1.62,1.61,4.76,4.76,0,0,0,2.33.57,4.38,4.38,0,0,0,2.08-.51,4.31,4.31,0,0,0,1.64-1.57l2.69,1.57a6.08,6.08,0,0,1-2.53,2.59A7.91,7.91,0,0,1,678.68,369.41Z"/><path class="cls-4" d="M694.89,369.41a9.19,9.19,0,0,1-4.36-1,7.29,7.29,0,0,1-2.88-2.73,7.67,7.67,0,0,1-1-3.95,7.79,7.79,0,0,1,1-4,7.16,7.16,0,0,1,2.75-2.71,8,8,0,0,1,4-1,7.82,7.82,0,0,1,3.89,1,6.93,6.93,0,0,1,2.69,2.68,8.22,8.22,0,0,1,1,4.09c0,.15,0,.32,0,.51s0,.36,0,.53H689.4v-2.33H700l-1.37.73a4.33,4.33,0,0,0-.53-2.27,4.09,4.09,0,0,0-1.53-1.53,4.27,4.27,0,0,0-2.22-.57,4.39,4.39,0,0,0-2.26.57,4,4,0,0,0-1.51,1.55,4.82,4.82,0,0,0-.55,2.34v.56a4.59,4.59,0,0,0,.62,2.38,4.06,4.06,0,0,0,1.74,1.59,5.56,5.56,0,0,0,2.57.56,6.25,6.25,0,0,0,2.27-.39,4.79,4.79,0,0,0,1.79-1.23l1.88,2.15a6.52,6.52,0,0,1-2.54,1.81A9,9,0,0,1,694.89,369.41Z"/><path class="cls-4" d="M522.65,402.81V387.86H530a7.82,7.82,0,0,1,4.27,1,3.22,3.22,0,0,1,1.55,2.86,3.28,3.28,0,0,1-1.46,2.84,6.6,6.6,0,0,1-3.86,1l.42-.87a6.71,6.71,0,0,1,4,1,3.4,3.4,0,0,1,1.33,2.89,3.65,3.65,0,0,1-1.49,3.1,7.51,7.51,0,0,1-4.51,1.1Zm3.33-8.7h3.67a3.55,3.55,0,0,0,2-.49,1.6,1.6,0,0,0,.68-1.39,1.51,1.51,0,0,0-.68-1.37,3.75,3.75,0,0,0-2-.45H526Zm0,6.16h4a4,4,0,0,0,2.16-.47,1.55,1.55,0,0,0,.73-1.41,1.7,1.7,0,0,0-.67-1.48,3.66,3.66,0,0,0-2.1-.48H526Z"/><path class="cls-4" d="M545.61,406.15v-6.3h18.06v6.3h-3.28v-3.34H548.85v3.34Zm12.34-5V390.83h-5.74l-.08,2.41c0,.86-.09,1.68-.17,2.48a13.58,13.58,0,0,1-.36,2.18,4.68,4.68,0,0,1-.73,1.64,2.19,2.19,0,0,1-1.26.84l-3.47-.53a1.82,1.82,0,0,0,1.36-.55,3.85,3.85,0,0,0,.81-1.51,12.74,12.74,0,0,0,.43-2.21c.1-.83.16-1.7.2-2.59l.19-5.13h12.32v13.33Z"/><path class="cls-4" d="M573.77,403a9.13,9.13,0,0,1-4.35-1,7.29,7.29,0,0,1-2.88-2.73,7.58,7.58,0,0,1-1-4,7.79,7.79,0,0,1,1-4,7.2,7.2,0,0,1,2.74-2.71,8.08,8.08,0,0,1,4-1,7.76,7.76,0,0,1,3.89,1,6.86,6.86,0,0,1,2.69,2.68,8.12,8.12,0,0,1,1,4.09c0,.15,0,.32,0,.51s0,.36,0,.53H568.29v-2.33H578.9l-1.37.73a4.34,4.34,0,0,0-.54-2.27,4.16,4.16,0,0,0-1.52-1.54,4.76,4.76,0,0,0-4.48,0,4,4,0,0,0-1.51,1.56,4.71,4.71,0,0,0-.55,2.34v.56a4.59,4.59,0,0,0,.62,2.38,4.1,4.1,0,0,0,1.73,1.59,5.63,5.63,0,0,0,2.58.56,6.29,6.29,0,0,0,2.27-.39,4.79,4.79,0,0,0,1.79-1.23l1.87,2.15a6.49,6.49,0,0,1-2.53,1.81A9.09,9.09,0,0,1,573.77,403Z"/><path class="cls-4" d="M587.19,402.81V390l.81.84h-6.08v-3h14v3h-6l.82-.84v12.82Z"/><path class="cls-4" d="M602.84,403a7.07,7.07,0,0,1-2.94-.57,4.64,4.64,0,0,1-1.95-1.6,4,4,0,0,1-.68-2.31,4.35,4.35,0,0,1,.6-2.27,4.05,4.05,0,0,1,2-1.59,9.26,9.26,0,0,1,3.64-.59h4.34v2.32h-4.09a3.58,3.58,0,0,0-2.4.58,1.85,1.85,0,0,0-.62,1.41,1.76,1.76,0,0,0,.76,1.51,3.41,3.41,0,0,0,2.1.56,4.51,4.51,0,0,0,2.31-.59,3.35,3.35,0,0,0,1.47-1.73l.58,2.1a3.81,3.81,0,0,1-1.8,2A6.65,6.65,0,0,1,602.84,403Zm4.7-.2v-3l-.19-.64v-5.3a3.09,3.09,0,0,0-.93-2.39,4,4,0,0,0-2.8-.85,8.13,8.13,0,0,0-2.48.39,6,6,0,0,0-2,1.09l-1.38-2.55a8.33,8.33,0,0,1,2.87-1.38,12.84,12.84,0,0,1,3.46-.47,7.39,7.39,0,0,1,5,1.56,6.06,6.06,0,0,1,1.78,4.8v8.76Z"/><path class="cls-4" d="M615.19,402.81V387.86h3.5v9.86l8.26-9.86h3.19v14.95h-3.5V393l-8.23,9.85Zm7.25-16.71a5.1,5.1,0,0,1-3.45-1.05,3.94,3.94,0,0,1-1.23-3.07h2.33a2.16,2.16,0,0,0,.63,1.6,2.32,2.32,0,0,0,1.69.59,2.38,2.38,0,0,0,1.69-.59,2.18,2.18,0,0,0,.66-1.6h2.38a3.91,3.91,0,0,1-1.24,3.07A5.16,5.16,0,0,1,622.44,386.1Z"/><path class="cls-4" d="M632.66,402.79l.17-2.94.36,0,.31,0a1.72,1.72,0,0,0,1.34-.53,3.48,3.48,0,0,0,.72-1.44,12.74,12.74,0,0,0,.33-2c.07-.75.12-1.51.16-2.28l.25-5.77h12.09v14.95h-3.5V389.88l.82.95h-7.12l.76-1-.2,3.95a36.06,36.06,0,0,1-.32,3.68,13.12,13.12,0,0,1-.73,2.95,4.53,4.53,0,0,1-1.34,2,3.29,3.29,0,0,1-2.17.7,5,5,0,0,1-.91-.08C633.35,403,633,402.88,632.66,402.79Z"/><path class="cls-4" d="M653.1,402.81V387.86h3.5v9.86l8.26-9.86h3.19v14.95h-3.5V393l-8.23,9.85Z"/><path class="cls-4" d="M506.66,436.61a8.7,8.7,0,0,1-4.19-1,7.47,7.47,0,0,1-2.87-2.73,8.11,8.11,0,0,1,0-7.91,7.35,7.35,0,0,1,2.87-2.71,8.81,8.81,0,0,1,4.19-1,8.07,8.07,0,0,1,3.85.89,5.77,5.77,0,0,1,2.53,2.59l-2.68,1.56a4.27,4.27,0,0,0-1.64-1.56,4.42,4.42,0,0,0-2.09-.51,4.82,4.82,0,0,0-2.32.56,4.14,4.14,0,0,0-1.63,1.61,5.7,5.7,0,0,0,0,5,4.07,4.07,0,0,0,1.63,1.61,4.71,4.71,0,0,0,2.32.56,4.23,4.23,0,0,0,3.73-2.07l2.68,1.57a6,6,0,0,1-2.53,2.59A7.85,7.85,0,0,1,506.66,436.61Z"/><path class="cls-4" d="M523.85,436.41v-15h3.5v15Zm2.47-6v-2.91h5.06v2.91Zm6-1.06-3.27-.39,5.49-7.51h3.75Zm2.22,7.05-5.41-7.16,2.86-1.77,6.66,8.93Z"/><path class="cls-4" d="M545.24,436.61a7.07,7.07,0,0,1-2.94-.57,4.55,4.55,0,0,1-1.94-1.6,4,4,0,0,1-.69-2.31,4.35,4.35,0,0,1,.6-2.27,4,4,0,0,1,2-1.59,9.22,9.22,0,0,1,3.64-.59h4.34V430h-4.09a3.59,3.59,0,0,0-2.41.58,1.85,1.85,0,0,0-.62,1.41,1.8,1.8,0,0,0,.76,1.51,3.42,3.42,0,0,0,2.1.56,4.46,4.46,0,0,0,2.31-.59,3.35,3.35,0,0,0,1.47-1.73l.59,2.1a3.87,3.87,0,0,1-1.81,2A6.59,6.59,0,0,1,545.24,436.61Zm4.71-.2v-3l-.2-.64v-5.3a3.12,3.12,0,0,0-.92-2.39,4,4,0,0,0-2.8-.85,8.08,8.08,0,0,0-2.48.39,6,6,0,0,0-2.06,1.09l-1.37-2.55a8.24,8.24,0,0,1,2.87-1.38,12.79,12.79,0,0,1,3.46-.47,7.36,7.36,0,0,1,5,1.56,6,6,0,0,1,1.78,4.8v8.76Z"/><path class="cls-4" d="M557.59,436.41v-15h3.67l6,10.61h-1.46l6.33-10.61h3.28l0,15h-3.16v-11.2l.56.37-5.6,9.27h-1.51l-5.63-9.52.67-.17v11.25Z"/><path class="cls-4" d="M580.16,436.41v-15h14.33v15H591V423.62l.81.81h-9l.81-.81v12.79Z"/><path class="cls-4" d="M603.59,436.61a7.07,7.07,0,0,1-2.94-.57,4.61,4.61,0,0,1-1.94-1.6,4,4,0,0,1-.69-2.31,4.35,4.35,0,0,1,.6-2.27,4.08,4.08,0,0,1,2-1.59,9.22,9.22,0,0,1,3.64-.59h4.34V430h-4.09a3.61,3.61,0,0,0-2.41.58,1.84,1.84,0,0,0-.61,1.41,1.79,1.79,0,0,0,.75,1.51,3.44,3.44,0,0,0,2.1.56,4.46,4.46,0,0,0,2.31-.59,3.35,3.35,0,0,0,1.47-1.73l.59,2.1a3.87,3.87,0,0,1-1.81,2A6.59,6.59,0,0,1,603.59,436.61Zm4.71-.2v-3l-.2-.64v-5.3a3.12,3.12,0,0,0-.92-2.39,4,4,0,0,0-2.8-.85,8.08,8.08,0,0,0-2.48.39,6,6,0,0,0-2.06,1.09l-1.37-2.55a8.24,8.24,0,0,1,2.87-1.38,12.79,12.79,0,0,1,3.46-.47,7.36,7.36,0,0,1,5,1.56,6,6,0,0,1,1.78,4.8v8.76Z"/><path class="cls-4" d="M615.94,436.41v-15h3.5v6.08H627v-6.08h3.5v15H627v-5.9h-7.53v5.9Z"/><path class="cls-4" d="M635.18,436.41v-15h3.5v9.86l8.26-9.86h3.19v15h-3.5v-9.85l-8.23,9.85Z"/><path class="cls-4" d="M653.57,436.41l4-5.71h3.58l-3.86,5.71Zm10.76,0v-5.09l.5.59h-4.48a7.94,7.94,0,0,1-4.83-1.31,4.38,4.38,0,0,1-1.75-3.76,4.68,4.68,0,0,1,1.86-4,8.22,8.22,0,0,1,5-1.37h6.86v15Zm0-6.21v-6.72l.5.92h-4.12a4.42,4.42,0,0,0-2.5.6,2.19,2.19,0,0,0-.88,1.95q0,2.52,3.27,2.52h4.23Z"/><path class="cls-4" d="M675.27,436.41V423.59l.82.84H670v-3h14v3h-6l.81-.84v12.82Z"/><path class="cls-4" d="M690.93,436.61A7.07,7.07,0,0,1,688,436a4.64,4.64,0,0,1-2-1.6,4,4,0,0,1-.69-2.31,4.27,4.27,0,0,1,.61-2.27,4,4,0,0,1,2-1.59,9.22,9.22,0,0,1,3.64-.59h4.34V430h-4.09a3.61,3.61,0,0,0-2.41.58,1.84,1.84,0,0,0-.61,1.41,1.79,1.79,0,0,0,.75,1.51,3.44,3.44,0,0,0,2.1.56,4.46,4.46,0,0,0,2.31-.59,3.35,3.35,0,0,0,1.47-1.73l.59,2.1a3.85,3.85,0,0,1-1.8,2A6.65,6.65,0,0,1,690.93,436.61Zm4.7-.2v-3l-.2-.64v-5.3a3.08,3.08,0,0,0-.92-2.39,4,4,0,0,0-2.8-.85,8.08,8.08,0,0,0-2.48.39,6,6,0,0,0-2.06,1.09l-1.37-2.55a8.24,8.24,0,0,1,2.87-1.38,12.79,12.79,0,0,1,3.46-.47,7.41,7.41,0,0,1,5,1.56,6.06,6.06,0,0,1,1.77,4.8v8.76Z"/><path class="cls-4" d="M124.49,628.21v-19.6h3.59v13.92l10.52-13.92H142v19.6h-3.58V614.33l-10.53,13.88Z"/><path class="cls-4" d="M148.45,628.06a11.71,11.71,0,0,1-3-1.16l1-2.61a9.35,9.35,0,0,0,2.46,1,11.66,11.66,0,0,0,2.74.33,7.41,7.41,0,0,0,2-.24,2.76,2.76,0,0,0,1.3-.71,1.51,1.51,0,0,0,.46-1.09,1.48,1.48,0,0,0-.77-1.36,4.25,4.25,0,0,0-2.19-.46h-2.89v-2.35h2.61a5.19,5.19,0,0,0,1.52-.2,2.08,2.08,0,0,0,1-.59,1.39,1.39,0,0,0,.33-.92,1.28,1.28,0,0,0-.4-.94,2.61,2.61,0,0,0-1.16-.62,7,7,0,0,0-1.82-.21,10.41,10.41,0,0,0-2.31.28,14.2,14.2,0,0,0-2.43.82l-.89-2.58a16.93,16.93,0,0,1,2.78-1,11.57,11.57,0,0,1,2.71-.38,10.45,10.45,0,0,1,3.64.42,5.86,5.86,0,0,1,2.52,1.46,3.12,3.12,0,0,1,.92,2.23,3.06,3.06,0,0,1-.66,1.92,4.3,4.3,0,0,1-1.79,1.33,6.61,6.61,0,0,1-2.59.48l.11-.76a6.71,6.71,0,0,1,3.92,1,3.12,3.12,0,0,1,1.43,2.7,3.59,3.59,0,0,1-.92,2.42,6.12,6.12,0,0,1-2.54,1.64,10.72,10.72,0,0,1-3.68.59A14.19,14.19,0,0,1,148.45,628.06Z"/><path class="cls-4" d="M169.71,628.49a9,9,0,0,1-3.3-.56,6.38,6.38,0,0,1-2.51-1.72,7.75,7.75,0,0,1-1.61-3,14.47,14.47,0,0,1-.56-4.26,15.79,15.79,0,0,1,.31-3.27,10.32,10.32,0,0,1,.92-2.68,8.24,8.24,0,0,1,3.76-3.65,12.07,12.07,0,0,1,2.85-.95l7-1.49.5,3.14-6.3,1.29c-.36.07-.78.18-1.27.32a7.91,7.91,0,0,0-1.52.61,5.25,5.25,0,0,0-1.42,1.15,5.64,5.64,0,0,0-1.07,1.91,8.87,8.87,0,0,0-.4,2.89,5.26,5.26,0,0,0,0,.8c0,.18,0,.37.08.56a6.3,6.3,0,0,1,0,.86l-1.31-1.38a7.22,7.22,0,0,1,1.55-2.44,6.62,6.62,0,0,1,2.33-1.57,7.4,7.4,0,0,1,2.89-.55,7.81,7.81,0,0,1,3.73.87,6.48,6.48,0,0,1,2.55,2.43,6.94,6.94,0,0,1,.92,3.56,6.76,6.76,0,0,1-1,3.67,6.86,6.86,0,0,1-2.84,2.5A9.52,9.52,0,0,1,169.71,628.49Zm.28-2.82a4.52,4.52,0,0,0,2.23-.55,3.89,3.89,0,0,0,1.51-1.5,4.22,4.22,0,0,0,.55-2.13,3.83,3.83,0,0,0-.55-2,4.05,4.05,0,0,0-1.51-1.42,4.74,4.74,0,0,0-2.28-.53,5,5,0,0,0-2.26.5,3.67,3.67,0,0,0-2.08,3.42,4.25,4.25,0,0,0,.56,2.16,4.09,4.09,0,0,0,1.55,1.54A4.59,4.59,0,0,0,170,625.67Z"/><path class="cls-4" d="M188.22,628.41a9.13,9.13,0,0,1-4.35-1,7.25,7.25,0,0,1-2.89-2.73,7.67,7.67,0,0,1-1-4,7.79,7.79,0,0,1,1-4,7.23,7.23,0,0,1,2.75-2.71,8,8,0,0,1,4-1,7.82,7.82,0,0,1,3.89,1,6.93,6.93,0,0,1,2.69,2.68,8.22,8.22,0,0,1,1,4.09c0,.15,0,.32,0,.51s0,.36,0,.53H182.73v-2.33h10.61l-1.37.73a4.33,4.33,0,0,0-.53-2.27,4,4,0,0,0-1.53-1.53,4.27,4.27,0,0,0-2.22-.57,4.39,4.39,0,0,0-2.26.57,4,4,0,0,0-1.51,1.55,4.82,4.82,0,0,0-.54,2.34v.56a4.58,4.58,0,0,0,.61,2.38,4.06,4.06,0,0,0,1.74,1.59,5.56,5.56,0,0,0,2.57.56,6.25,6.25,0,0,0,2.27-.39,4.79,4.79,0,0,0,1.79-1.23l1.88,2.15a6.56,6.56,0,0,1-2.53,1.81A9.09,9.09,0,0,1,188.22,628.41Z"/><path class="cls-4" d="M199.08,633.65V613.26h3.34v3.53l-.12,4,.28,4v8.91Zm8.29-5.24a6.69,6.69,0,0,1-3.32-.84,6,6,0,0,1-2.38-2.53,11.09,11.09,0,0,1,0-8.61,5.69,5.69,0,0,1,2.33-2.51,6.86,6.86,0,0,1,3.39-.83,7.79,7.79,0,0,1,3.91,1,7.08,7.08,0,0,1,2.69,2.66,8.72,8.72,0,0,1,0,8.07,7.13,7.13,0,0,1-2.69,2.68A7.89,7.89,0,0,1,207.37,628.41Zm-.39-3a4.43,4.43,0,0,0,2.25-.57,4.07,4.07,0,0,0,1.59-1.62,5.68,5.68,0,0,0,0-5,4.17,4.17,0,0,0-1.59-1.61,4.52,4.52,0,0,0-2.25-.56,4.63,4.63,0,0,0-2.27.56,4.2,4.2,0,0,0-1.6,1.61,5.68,5.68,0,0,0,0,5,4.09,4.09,0,0,0,1.6,1.62A4.53,4.53,0,0,0,207,625.42Z"/><path class="cls-4" d="M225.4,628.41a9.13,9.13,0,0,1-4.35-1,7.39,7.39,0,0,1-2.89-2.73,8.25,8.25,0,0,1,0-7.91,7.13,7.13,0,0,1,2.74-2.71,8.08,8.08,0,0,1,4-1,7.79,7.79,0,0,1,3.89,1,6.86,6.86,0,0,1,2.69,2.68,8.22,8.22,0,0,1,1,4.09c0,.15,0,.32,0,.51s0,.36,0,.53H219.91v-2.33h10.62l-1.37.73a4.34,4.34,0,0,0-.54-2.27,4.06,4.06,0,0,0-1.52-1.53,4.69,4.69,0,0,0-4.48,0A4,4,0,0,0,221.1,618a4.82,4.82,0,0,0-.54,2.34v.56a4.5,4.5,0,0,0,.62,2.38,4,4,0,0,0,1.73,1.59,5.63,5.63,0,0,0,2.58.56,6.19,6.19,0,0,0,2.26-.39,4.83,4.83,0,0,0,1.8-1.23l1.87,2.15a6.49,6.49,0,0,1-2.53,1.81A9.09,9.09,0,0,1,225.4,628.41Z"/><path class="cls-4" d="M238.82,628.21V615.39l.81.84h-6.08v-3h14v3H241.5l.82-.84v12.82Z"/><path class="cls-4" d="M256.43,628.41a9.17,9.17,0,0,1-4.36-1,7.29,7.29,0,0,1-2.88-2.73,7.67,7.67,0,0,1-1-4,7.79,7.79,0,0,1,1-4,7.2,7.2,0,0,1,2.74-2.71,8.08,8.08,0,0,1,4-1,7.83,7.83,0,0,1,3.9,1,6.84,6.84,0,0,1,2.68,2.68,8.12,8.12,0,0,1,1,4.09c0,.15,0,.32,0,.51s0,.36,0,.53H250.94v-2.33h10.61l-1.37.73a4.33,4.33,0,0,0-.53-2.27,4.16,4.16,0,0,0-1.53-1.53,4.3,4.3,0,0,0-2.23-.57,4.35,4.35,0,0,0-2.25.57,4,4,0,0,0-1.51,1.55,4.71,4.71,0,0,0-.55,2.34v.56a4.59,4.59,0,0,0,.62,2.38,4.1,4.1,0,0,0,1.73,1.59,5.63,5.63,0,0,0,2.58.56,6.25,6.25,0,0,0,2.27-.39,4.79,4.79,0,0,0,1.79-1.23l1.88,2.15a6.59,6.59,0,0,1-2.54,1.81A9,9,0,0,1,256.43,628.41Z"/><path class="cls-4" d="M281.82,628.41a8.64,8.64,0,0,1-4.18-1,7.4,7.4,0,0,1-2.87-2.73,8,8,0,0,1,0-7.91,7.28,7.28,0,0,1,2.87-2.71,8.74,8.74,0,0,1,4.18-1,8.07,8.07,0,0,1,3.85.89,5.84,5.84,0,0,1,2.54,2.59l-2.69,1.56a4.35,4.35,0,0,0-1.64-1.56,4.4,4.4,0,0,0-2.09-.51,4.85,4.85,0,0,0-2.32.56,4,4,0,0,0-1.62,1.61,5.61,5.61,0,0,0,0,5,4,4,0,0,0,1.62,1.61,4.75,4.75,0,0,0,2.32.57,4.27,4.27,0,0,0,3.73-2.08l2.69,1.57a6.1,6.1,0,0,1-2.54,2.59A7.85,7.85,0,0,1,281.82,628.41Z"/><path class="cls-4" d="M292.43,633.84a7,7,0,0,1-2.18-.36,5.15,5.15,0,0,1-1.82-1l1.4-2.58a4.29,4.29,0,0,0,1.2.76,3.51,3.51,0,0,0,1.38.28,2.44,2.44,0,0,0,1.54-.47,4.48,4.48,0,0,0,1.09-1.6l.87-2,.28-.42,5.65-13.22h3.36l-7,16.16a9.67,9.67,0,0,1-1.55,2.66,4.76,4.76,0,0,1-1.91,1.37A6.59,6.59,0,0,1,292.43,633.84Zm3.08-5.09-6.74-15.49h3.64l5.48,12.91Z"/><path class="cls-4" d="M307.64,628.21v-15h3.67l6,10.62h-1.46l6.33-10.62h3.27l0,15h-3.16V617l.56.37-5.6,9.27h-1.51l-5.63-9.52.67-.17v11.25Z"/><path class="cls-4" d="M334.57,628.41a7.07,7.07,0,0,1-2.94-.57,4.55,4.55,0,0,1-1.94-1.6,4,4,0,0,1-.69-2.31,4.35,4.35,0,0,1,.6-2.27,4.08,4.08,0,0,1,2-1.59,9.22,9.22,0,0,1,3.64-.59h4.34v2.32h-4.09a3.61,3.61,0,0,0-2.41.58,1.84,1.84,0,0,0-.61,1.41,1.77,1.77,0,0,0,.75,1.51,3.44,3.44,0,0,0,2.1.56,4.46,4.46,0,0,0,2.31-.59,3.35,3.35,0,0,0,1.47-1.73l.59,2.1a3.87,3.87,0,0,1-1.81,2A6.59,6.59,0,0,1,334.57,628.41Zm4.71-.2v-3l-.2-.64v-5.3a3.12,3.12,0,0,0-.92-2.39,4,4,0,0,0-2.8-.85,8.08,8.08,0,0,0-2.48.39,6,6,0,0,0-2.06,1.09l-1.37-2.55a8.24,8.24,0,0,1,2.87-1.38,12.79,12.79,0,0,1,3.46-.47,7.36,7.36,0,0,1,5,1.56,6,6,0,0,1,1.78,4.8v8.76Z"/><path class="cls-4" d="M345.94,632.44l1.63-6.19.47,2.08a2.32,2.32,0,0,1-1.64-.61,2.09,2.09,0,0,1-.66-1.63,2.21,2.21,0,0,1,2.27-2.33,2.21,2.21,0,0,1,1.63.65,2.27,2.27,0,0,1,.64,1.68,3.38,3.38,0,0,1-.06.6,4.61,4.61,0,0,1-.18.74,9.59,9.59,0,0,1-.4,1.06l-1.43,4Z"/><path class="cls-4" d="M124.07,661.81V646.86h3.5v14.95Zm2.47-6v-2.91h5.06v2.91Zm6-1.06-3.27-.39,5.49-7.51h3.75Zm2.22,7-5.41-7.16,2.86-1.77,6.66,8.93Z"/><path class="cls-4" d="M147.54,662a8.31,8.31,0,0,1-4.09-1,7.5,7.5,0,0,1-2.83-2.73,8,8,0,0,1,0-7.91,7.37,7.37,0,0,1,2.83-2.71,8.41,8.41,0,0,1,4.09-1,8.57,8.57,0,0,1,4.13,1,7.3,7.3,0,0,1,2.82,2.69,8.15,8.15,0,0,1,0,7.93,7.4,7.4,0,0,1-2.82,2.73A8.47,8.47,0,0,1,147.54,662Zm0-3a4.57,4.57,0,0,0,2.29-.56,3.92,3.92,0,0,0,1.58-1.62,5.68,5.68,0,0,0,0-5,4,4,0,0,0-1.58-1.61,4.9,4.9,0,0,0-4.55,0,4.15,4.15,0,0,0-1.58,1.61,5.59,5.59,0,0,0,0,5,4,4,0,0,0,1.58,1.62A4.46,4.46,0,0,0,147.54,659Z"/><path class="cls-4" d="M157.2,661.81l4-5.71h3.58L161,661.81Zm10.75,0v-5.09l.5.59H164a7.94,7.94,0,0,1-4.83-1.31,4.41,4.41,0,0,1-1.75-3.76,4.68,4.68,0,0,1,1.86-4,8.25,8.25,0,0,1,5-1.37h6.86v14.95Zm0-6.21v-6.72l.5.92h-4.11a4.43,4.43,0,0,0-2.51.6,2.19,2.19,0,0,0-.88,2q0,2.52,3.27,2.52h4.23Z"/><path class="cls-4" d="M178.9,661.81V649l.81.84h-6.08v-3h14v3h-6l.82-.84v12.82Z"/><path class="cls-4" d="M196.2,662a8.34,8.34,0,0,1-4.09-1,7.84,7.84,0,0,1-2.83-10.64,7.44,7.44,0,0,1,2.83-2.71,8.44,8.44,0,0,1,4.09-1,8.54,8.54,0,0,1,4.13,1,7.33,7.33,0,0,1,2.83,2.69,8.22,8.22,0,0,1,0,7.93,7.43,7.43,0,0,1-2.83,2.73A8.44,8.44,0,0,1,196.2,662Zm0-3a4.61,4.61,0,0,0,2.3-.56,4,4,0,0,0,1.58-1.62,5.77,5.77,0,0,0,0-5,4.08,4.08,0,0,0-1.58-1.61,4.66,4.66,0,0,0-2.27-.56,4.59,4.59,0,0,0-2.28.56,4.17,4.17,0,0,0-1.59,1.61,5.68,5.68,0,0,0,0,5,4.07,4.07,0,0,0,1.59,1.62A4.42,4.42,0,0,0,196.2,659Z"/><path class="cls-4" d="M213.25,665.15v-6.3h18.06v6.3H228v-3.34H216.5v3.34Zm12.35-5V649.83h-5.74l-.09,2.41c0,.86-.09,1.68-.16,2.48a14.75,14.75,0,0,1-.37,2.18,4.68,4.68,0,0,1-.73,1.64,2.13,2.13,0,0,1-1.26.84l-3.47-.53a1.8,1.8,0,0,0,1.36-.55,3.61,3.61,0,0,0,.81-1.51,12.7,12.7,0,0,0,.44-2.21c.09-.83.16-1.7.19-2.59l.2-5.13H229.1v13.33Z"/><path class="cls-4" d="M238.81,662a7.07,7.07,0,0,1-2.94-.57,4.61,4.61,0,0,1-1.94-1.6,4,4,0,0,1-.69-2.31,4.35,4.35,0,0,1,.6-2.27,4.08,4.08,0,0,1,2-1.59,9.22,9.22,0,0,1,3.64-.59h4.34v2.32h-4.09a3.61,3.61,0,0,0-2.41.58,1.84,1.84,0,0,0-.61,1.41,1.77,1.77,0,0,0,.75,1.51,3.44,3.44,0,0,0,2.1.56,4.46,4.46,0,0,0,2.31-.59,3.35,3.35,0,0,0,1.47-1.73l.59,2.1a3.87,3.87,0,0,1-1.81,2A6.59,6.59,0,0,1,238.81,662Zm4.71-.2v-3l-.2-.64v-5.3a3.12,3.12,0,0,0-.92-2.39,4,4,0,0,0-2.8-.85,8.08,8.08,0,0,0-2.48.39,6,6,0,0,0-2.06,1.09l-1.37-2.55a8.24,8.24,0,0,1,2.87-1.38,12.79,12.79,0,0,1,3.46-.47,7.36,7.36,0,0,1,5,1.56,6,6,0,0,1,1.78,4.8v8.76Z"/><path class="cls-4" d="M256.79,665.15v-6.3h18.06v6.3h-3.28v-3.34H260v3.34Zm12.35-5V649.83H263.4l-.09,2.41c0,.86-.09,1.68-.16,2.48a14.75,14.75,0,0,1-.37,2.18,4.68,4.68,0,0,1-.73,1.64,2.13,2.13,0,0,1-1.26.84l-3.47-.53a1.82,1.82,0,0,0,1.36-.55,3.61,3.61,0,0,0,.81-1.51,12.7,12.7,0,0,0,.44-2.21c.09-.83.15-1.7.19-2.59l.2-5.13h12.32v13.33Z"/><path class="cls-4" d="M282.35,662a7.07,7.07,0,0,1-2.94-.57,4.55,4.55,0,0,1-1.94-1.6,4,4,0,0,1-.69-2.31,4.35,4.35,0,0,1,.6-2.27,4,4,0,0,1,2-1.59,9.22,9.22,0,0,1,3.64-.59h4.34v2.32h-4.09a3.59,3.59,0,0,0-2.41.58,1.84,1.84,0,0,0-.61,1.41,1.77,1.77,0,0,0,.75,1.51,3.44,3.44,0,0,0,2.1.56,4.46,4.46,0,0,0,2.31-.59,3.35,3.35,0,0,0,1.47-1.73l.59,2.1a3.87,3.87,0,0,1-1.81,2A6.59,6.59,0,0,1,282.35,662Zm4.71-.2v-3l-.2-.64v-5.3a3.12,3.12,0,0,0-.92-2.39,4,4,0,0,0-2.8-.85,8.08,8.08,0,0,0-2.48.39,6,6,0,0,0-2.06,1.09l-1.37-2.55a8.24,8.24,0,0,1,2.87-1.38,12.79,12.79,0,0,1,3.46-.47,7.36,7.36,0,0,1,5,1.56,6,6,0,0,1,1.78,4.8v8.76Z"/><path class="cls-4" d="M294.7,667.25V646.86H298v3.53l-.11,4,.28,4v8.91ZM303,662a6.69,6.69,0,0,1-3.32-.84,6,6,0,0,1-2.38-2.53,9.27,9.27,0,0,1-.88-4.3,9.47,9.47,0,0,1,.85-4.31,5.77,5.77,0,0,1,2.34-2.51,6.86,6.86,0,0,1,3.39-.83,7.81,7.81,0,0,1,3.91,1,7.06,7.06,0,0,1,2.68,2.66,8.64,8.64,0,0,1,0,8.07,7.11,7.11,0,0,1-2.68,2.68A7.91,7.91,0,0,1,303,662Zm-.39-3a4.42,4.42,0,0,0,2.25-.56,4,4,0,0,0,1.58-1.62,5.59,5.59,0,0,0,0-5,4.15,4.15,0,0,0-1.58-1.61,4.52,4.52,0,0,0-2.25-.56,4.63,4.63,0,0,0-2.27.56,4.2,4.2,0,0,0-1.6,1.61,5.68,5.68,0,0,0,0,5,4.09,4.09,0,0,0,1.6,1.62A4.52,4.52,0,0,0,302.6,659Z"/><path class="cls-4" d="M314.05,661.81V646.86h3.5v9.86l8.26-9.86H329v14.95h-3.5V652l-8.23,9.85Z"/><path class="cls-4" d="M336.81,661.81V649l.81.84h-6.07v-3h14v3H339.5l.81-.84v12.82Z"/><path class="cls-4" d="M354.42,662a9.13,9.13,0,0,1-4.35-1,7.29,7.29,0,0,1-2.88-2.73,7.58,7.58,0,0,1-1-3.95,7.79,7.79,0,0,1,1-4,7.2,7.2,0,0,1,2.74-2.71,8.08,8.08,0,0,1,4-1,7.76,7.76,0,0,1,3.89,1,6.86,6.86,0,0,1,2.69,2.68,8.12,8.12,0,0,1,1,4.09c0,.15,0,.32,0,.51s0,.36,0,.53H348.94v-2.33h10.61l-1.37.73a4.34,4.34,0,0,0-.54-2.27,4.16,4.16,0,0,0-1.52-1.54,4.76,4.76,0,0,0-4.48,0,4,4,0,0,0-1.51,1.56,4.71,4.71,0,0,0-.55,2.34v.56a4.59,4.59,0,0,0,.62,2.38,4.1,4.1,0,0,0,1.73,1.59,5.63,5.63,0,0,0,2.58.56,6.29,6.29,0,0,0,2.27-.39,4.79,4.79,0,0,0,1.79-1.23l1.87,2.15a6.49,6.49,0,0,1-2.53,1.81A9.09,9.09,0,0,1,354.42,662Z"/><path class="cls-4" d="M518,707.39l0-7.26h21.75v7.26h-3.35v-4.18h-15v4.18Zm15.37-5.86V686.69h-7.67l-.14,3.48c0,1.3-.13,2.54-.24,3.71a24.5,24.5,0,0,1-.47,3.17,8.41,8.41,0,0,1-.88,2.38,2.76,2.76,0,0,1-1.38,1.26l-3.92-.56a2.05,2.05,0,0,0,1.75-.72,5.54,5.54,0,0,0,1.08-2.19,19.94,19.94,0,0,0,.59-3.29c.13-1.26.22-2.62.28-4.1l.22-6.22h14.37v17.92Z"/><path class="cls-4" d="M547.16,703.41a7.07,7.07,0,0,1-2.94-.57,4.64,4.64,0,0,1-2-1.6,4,4,0,0,1-.69-2.31,4.27,4.27,0,0,1,.61-2.27,4.05,4.05,0,0,1,2-1.59,9.22,9.22,0,0,1,3.64-.59h4.34v2.32h-4.09a3.61,3.61,0,0,0-2.41.58,1.84,1.84,0,0,0-.61,1.41,1.77,1.77,0,0,0,.75,1.51,3.46,3.46,0,0,0,2.11.56,4.45,4.45,0,0,0,2.3-.59,3.26,3.26,0,0,0,1.47-1.73l.59,2.1a3.85,3.85,0,0,1-1.8,2A6.65,6.65,0,0,1,547.16,703.41Zm4.7-.2v-3l-.2-.64v-5.3a3.08,3.08,0,0,0-.92-2.39,4,4,0,0,0-2.8-.85,8.08,8.08,0,0,0-2.48.39,6,6,0,0,0-2.06,1.09L542,689.94a8.33,8.33,0,0,1,2.87-1.38,12.84,12.84,0,0,1,3.46-.47,7.39,7.39,0,0,1,5,1.56,6.06,6.06,0,0,1,1.77,4.8v8.76Z"/><path class="cls-4" d="M559.5,708.65V688.26h3.34v3.53l-.12,4,.28,4v8.91Zm8.29-5.24a6.69,6.69,0,0,1-3.32-.84,6,6,0,0,1-2.38-2.53,11.09,11.09,0,0,1,0-8.61,5.75,5.75,0,0,1,2.33-2.51,6.86,6.86,0,0,1,3.39-.83,7.79,7.79,0,0,1,3.91,1,7.08,7.08,0,0,1,2.69,2.66,8.72,8.72,0,0,1,0,8.07,7.13,7.13,0,0,1-2.69,2.68A7.89,7.89,0,0,1,567.79,703.41Zm-.39-3a4.43,4.43,0,0,0,2.25-.57,4.07,4.07,0,0,0,1.59-1.62,5.68,5.68,0,0,0,0-5,4.17,4.17,0,0,0-1.59-1.61,4.52,4.52,0,0,0-2.25-.56,4.63,4.63,0,0,0-2.27.56,4.1,4.1,0,0,0-1.59,1.61,5.59,5.59,0,0,0,0,5,4,4,0,0,0,1.59,1.62A4.53,4.53,0,0,0,567.4,700.42Z"/><path class="cls-4" d="M585.82,703.41a9.13,9.13,0,0,1-4.35-1,7.29,7.29,0,0,1-2.88-2.73,7.58,7.58,0,0,1-1-4,7.69,7.69,0,0,1,1-4,7.2,7.2,0,0,1,2.74-2.71,8.08,8.08,0,0,1,4-1,7.76,7.76,0,0,1,3.89,1,6.86,6.86,0,0,1,2.69,2.68,8.12,8.12,0,0,1,1,4.09c0,.15,0,.32,0,.51s0,.36,0,.53H580.34v-2.33H591l-1.37.73A4.34,4.34,0,0,0,589,693a4.06,4.06,0,0,0-1.52-1.53,4.69,4.69,0,0,0-4.48,0,3.88,3.88,0,0,0-1.51,1.55,4.71,4.71,0,0,0-.55,2.34v.56a4.5,4.5,0,0,0,.62,2.38,4,4,0,0,0,1.73,1.59,5.63,5.63,0,0,0,2.58.56,6.29,6.29,0,0,0,2.27-.39,4.79,4.79,0,0,0,1.79-1.23l1.87,2.15a6.49,6.49,0,0,1-2.53,1.81A9.09,9.09,0,0,1,585.82,703.41Z"/><path class="cls-4" d="M599.24,703.21V690.39l.81.84H594v-3h14v3h-6.05l.82-.84v12.82Z"/><path class="cls-4" d="M616.85,703.41a9.19,9.19,0,0,1-4.36-1,7.29,7.29,0,0,1-2.88-2.73,7.67,7.67,0,0,1-1-4,7.79,7.79,0,0,1,1-4,7.16,7.16,0,0,1,2.75-2.71,8,8,0,0,1,4-1,7.82,7.82,0,0,1,3.89,1,6.93,6.93,0,0,1,2.69,2.68,8.22,8.22,0,0,1,1,4.09c0,.15,0,.32,0,.51s0,.36,0,.53H611.36v-2.33H622l-1.37.73a4.33,4.33,0,0,0-.53-2.27,4.09,4.09,0,0,0-1.53-1.53,4.27,4.27,0,0,0-2.22-.57,4.39,4.39,0,0,0-2.26.57,4,4,0,0,0-1.51,1.55,4.82,4.82,0,0,0-.55,2.34v.56a4.59,4.59,0,0,0,.62,2.38,4.06,4.06,0,0,0,1.74,1.59,5.56,5.56,0,0,0,2.57.56,6.25,6.25,0,0,0,2.27-.39,4.79,4.79,0,0,0,1.79-1.23l1.88,2.15a6.52,6.52,0,0,1-2.54,1.81A9,9,0,0,1,616.85,703.41Z"/><path class="cls-4" d="M644.88,697.31a13.78,13.78,0,0,1-2.26.82,9.33,9.33,0,0,1-2.51.33,6.61,6.61,0,0,1-4.39-1.32,5,5,0,0,1-1.57-4.09v-4.79h3.5v4.57a2.57,2.57,0,0,0,.86,2.15,3.68,3.68,0,0,0,2.36.67,8.22,8.22,0,0,0,2-.25,11.8,11.8,0,0,0,2-.7Zm-.26,5.9v-15h3.5v15Z"/><path class="cls-4" d="M652.83,708.65V688.26h3.33v3.53l-.11,4,.28,4v8.91Zm8.28-5.24a6.65,6.65,0,0,1-3.31-.84,5.9,5.9,0,0,1-2.38-2.53,9.26,9.26,0,0,1-.89-4.3,9.47,9.47,0,0,1,.86-4.31,5.77,5.77,0,0,1,2.34-2.51,6.85,6.85,0,0,1,3.38-.83,7.79,7.79,0,0,1,3.91,1,7,7,0,0,1,2.69,2.66,8.72,8.72,0,0,1,0,8.07,7.06,7.06,0,0,1-2.69,2.68A7.89,7.89,0,0,1,661.11,703.41Zm-.39-3a4.49,4.49,0,0,0,2.26-.57,4,4,0,0,0,1.58-1.62,5.59,5.59,0,0,0,0-5,4.15,4.15,0,0,0-1.58-1.61,4.59,4.59,0,0,0-2.26-.56,4.66,4.66,0,0,0-2.27.56,4.1,4.1,0,0,0-1.59,1.61,5.59,5.59,0,0,0,0,5,4,4,0,0,0,1.59,1.62A4.56,4.56,0,0,0,660.72,700.42Z"/><path class="cls-4" d="M679.15,703.41a9.17,9.17,0,0,1-4.36-1,7.29,7.29,0,0,1-2.88-2.73,7.67,7.67,0,0,1-1-4,7.79,7.79,0,0,1,1-4,7.2,7.2,0,0,1,2.74-2.71,8.08,8.08,0,0,1,4-1,7.83,7.83,0,0,1,3.9,1,6.9,6.9,0,0,1,2.68,2.68,8.12,8.12,0,0,1,1,4.09c0,.15,0,.32,0,.51s0,.36,0,.53H673.66v-2.33h10.61l-1.37.73a4.33,4.33,0,0,0-.53-2.27,4.16,4.16,0,0,0-1.53-1.53,4.3,4.3,0,0,0-2.23-.57,4.35,4.35,0,0,0-2.25.57,4,4,0,0,0-1.51,1.55,4.71,4.71,0,0,0-.55,2.34v.56a4.59,4.59,0,0,0,.62,2.38,4.1,4.1,0,0,0,1.73,1.59,5.63,5.63,0,0,0,2.58.56,6.25,6.25,0,0,0,2.27-.39,4.79,4.79,0,0,0,1.79-1.23l1.88,2.15a6.59,6.59,0,0,1-2.54,1.81A9.07,9.07,0,0,1,679.15,703.41Z"/><path class="cls-4" d="M691.09,703.06a11.85,11.85,0,0,1-3-1.16l1-2.61a9.63,9.63,0,0,0,2.46,1,11.75,11.75,0,0,0,2.75.33,7.38,7.38,0,0,0,2-.24,2.71,2.71,0,0,0,1.3-.71,1.53,1.53,0,0,0,.47-1.09,1.5,1.5,0,0,0-.77-1.36,4.32,4.32,0,0,0-2.2-.46h-2.89v-2.35h2.61a5.14,5.14,0,0,0,1.52-.2,2,2,0,0,0,1-.59,1.39,1.39,0,0,0,.34-.92,1.29,1.29,0,0,0-.41-.94,2.61,2.61,0,0,0-1.16-.62,6.9,6.9,0,0,0-1.82-.21,10.41,10.41,0,0,0-2.31.28,14.4,14.4,0,0,0-2.42.82l-.9-2.58a16.7,16.7,0,0,1,2.79-1,11.42,11.42,0,0,1,2.7-.38,10.45,10.45,0,0,1,3.64.42,5.86,5.86,0,0,1,2.52,1.46,3.12,3.12,0,0,1,.92,2.23,3.06,3.06,0,0,1-.66,1.92,4.24,4.24,0,0,1-1.79,1.33,6.57,6.57,0,0,1-2.59.48l.11-.76a6.69,6.69,0,0,1,3.92,1,3.1,3.1,0,0,1,1.43,2.7,3.59,3.59,0,0,1-.92,2.42,6.05,6.05,0,0,1-2.54,1.64,10.72,10.72,0,0,1-3.68.59A14.19,14.19,0,0,1,691.09,703.06Z"/><path class="cls-4" d="M492.5,737a8.34,8.34,0,0,1-4.09-1,7.82,7.82,0,0,1-2.82-10.64,7.42,7.42,0,0,1,2.82-2.71,8.44,8.44,0,0,1,4.09-1,8.54,8.54,0,0,1,4.13,1,7.26,7.26,0,0,1,2.83,2.69,8.22,8.22,0,0,1,0,7.93,7.36,7.36,0,0,1-2.83,2.73A8.44,8.44,0,0,1,492.5,737Zm0-3a4.58,4.58,0,0,0,2.3-.56,3.92,3.92,0,0,0,1.58-1.62,5.77,5.77,0,0,0,0-5,4,4,0,0,0-1.58-1.61,4.9,4.9,0,0,0-4.55,0,4.15,4.15,0,0,0-1.58,1.61,5.59,5.59,0,0,0,0,5,4,4,0,0,0,1.58,1.62A4.42,4.42,0,0,0,492.5,734Z"/><path class="cls-4" d="M503.93,736.81V721.86h3.5v6.08H515v-6.08h3.5v14.95H515v-5.9h-7.53v5.9Z"/><path class="cls-4" d="M521,736.79l.17-2.94.36,0,.31,0a1.72,1.72,0,0,0,1.34-.53,3.48,3.48,0,0,0,.72-1.44,12.74,12.74,0,0,0,.33-2.05c.07-.75.12-1.51.16-2.28l.25-5.77h12.09v14.95h-3.5V723.88l.82,1h-7.12l.76-1-.2,3.95a36.06,36.06,0,0,1-.32,3.68,13.12,13.12,0,0,1-.73,2.95,4.53,4.53,0,0,1-1.34,2,3.29,3.29,0,0,1-2.17.7A5,5,0,0,1,522,737C521.67,737,521.33,736.88,521,736.79Z"/><path class="cls-4" d="M545.79,737a7.07,7.07,0,0,1-2.94-.57,4.64,4.64,0,0,1-2-1.6,4,4,0,0,1-.69-2.31,4.27,4.27,0,0,1,.61-2.27,4,4,0,0,1,2-1.59,9.22,9.22,0,0,1,3.64-.59h4.34v2.32h-4.09a3.61,3.61,0,0,0-2.41.58,1.84,1.84,0,0,0-.61,1.41,1.77,1.77,0,0,0,.75,1.51,3.44,3.44,0,0,0,2.1.56,4.46,4.46,0,0,0,2.31-.59,3.35,3.35,0,0,0,1.47-1.73l.59,2.1a3.85,3.85,0,0,1-1.8,2A6.65,6.65,0,0,1,545.79,737Zm4.7-.2v-3l-.2-.64v-5.3a3.08,3.08,0,0,0-.92-2.39,4,4,0,0,0-2.8-.85,8.08,8.08,0,0,0-2.48.39,6,6,0,0,0-2.06,1.09l-1.37-2.55a8.24,8.24,0,0,1,2.87-1.38,12.79,12.79,0,0,1,3.46-.47,7.39,7.39,0,0,1,5,1.56,6.06,6.06,0,0,1,1.77,4.8v8.76Z"/><path class="cls-4" d="M558.13,736.81V721.86h3.5v9.86l8.26-9.86h3.2v14.95h-3.5V727l-8.24,9.85Zm7.26-16.71a5.08,5.08,0,0,1-3.45-1.05,3.94,3.94,0,0,1-1.23-3.07H563a2.24,2.24,0,0,0,.63,1.6,2.34,2.34,0,0,0,1.7.59,2.38,2.38,0,0,0,1.69-.59,2.18,2.18,0,0,0,.66-1.6h2.38a3.88,3.88,0,0,1-1.25,3.07A5.12,5.12,0,0,1,565.39,720.1Z"/><path class="cls-4" d="M577.79,736.81V721.86h3.5v6.08h7.53v-6.08h3.5v14.95h-3.5v-5.9h-7.53v5.9Z"/><path class="cls-4" d="M612.48,736.81V721.86h14.34v14.95h-3.48V724l.82.81h-9L616,724v12.79Z"/><path class="cls-4" d="M629.36,736.79l.17-2.94.37,0,.3,0a1.74,1.74,0,0,0,1.35-.53,3.6,3.6,0,0,0,.71-1.44,12.69,12.69,0,0,0,.34-2.05q.09-1.12.15-2.28l.25-5.77h12.1v14.95h-3.5V723.88l.81,1H635.3l.76-1-.2,3.95c-.06,1.32-.16,2.55-.32,3.68a13.12,13.12,0,0,1-.73,2.95,4.71,4.71,0,0,1-1.34,2,3.31,3.31,0,0,1-2.17.7,5,5,0,0,1-.91-.08C630.06,737,629.72,736.88,629.36,736.79Z"/><path class="cls-4" d="M654.17,737a7.07,7.07,0,0,1-2.94-.57,4.55,4.55,0,0,1-1.94-1.6,4,4,0,0,1-.69-2.31,4.35,4.35,0,0,1,.6-2.27,4,4,0,0,1,2-1.59,9.19,9.19,0,0,1,3.64-.59h4.34v2.32h-4.09a3.59,3.59,0,0,0-2.41.58,1.85,1.85,0,0,0-.62,1.41,1.78,1.78,0,0,0,.76,1.51,3.41,3.41,0,0,0,2.1.56,4.46,4.46,0,0,0,2.31-.59,3.35,3.35,0,0,0,1.47-1.73l.59,2.1a3.87,3.87,0,0,1-1.81,2A6.62,6.62,0,0,1,654.17,737Zm4.71-.2v-3l-.2-.64v-5.3a3.12,3.12,0,0,0-.92-2.39,4,4,0,0,0-2.8-.85,8.08,8.08,0,0,0-2.48.39,6,6,0,0,0-2.06,1.09l-1.37-2.55a8.24,8.24,0,0,1,2.87-1.38,12.79,12.79,0,0,1,3.46-.47,7.36,7.36,0,0,1,5,1.56,6,6,0,0,1,1.78,4.8v8.76Z"/><path class="cls-4" d="M676.57,733.85l-.76.84V721.86h3.5v12.83l-.84-.84h7.4l-.82.84V721.86h3.5v14.95h-22V721.86H670v12.83l-.81-.84Zm10.86,6V736l.82.86h-3.31v-3h5.77v6Z"/><path class="cls-4" d="M697.63,737a7.07,7.07,0,0,1-2.94-.57,4.64,4.64,0,0,1-2-1.6,4,4,0,0,1-.69-2.31,4.27,4.27,0,0,1,.61-2.27,4.05,4.05,0,0,1,2-1.59,9.22,9.22,0,0,1,3.64-.59h4.34v2.32h-4.09a3.61,3.61,0,0,0-2.41.58,1.84,1.84,0,0,0-.61,1.41,1.77,1.77,0,0,0,.75,1.51,3.44,3.44,0,0,0,2.1.56,4.46,4.46,0,0,0,2.31-.59,3.26,3.26,0,0,0,1.47-1.73l.59,2.1a3.85,3.85,0,0,1-1.8,2A6.65,6.65,0,0,1,697.63,737Zm4.7-.2v-3l-.2-.64v-5.3a3.08,3.08,0,0,0-.92-2.39,4,4,0,0,0-2.8-.85,8.08,8.08,0,0,0-2.48.39,6,6,0,0,0-2.06,1.09l-1.37-2.55a8.24,8.24,0,0,1,2.87-1.38,12.84,12.84,0,0,1,3.46-.47,7.39,7.39,0,0,1,5,1.56,6.06,6.06,0,0,1,1.77,4.8v8.76Z"/><path class="cls-4" d="M710,736.81V721.86h3.5v6.08H721v-6.08h3.5v14.95H721v-5.9h-7.54v5.9Z"/><path class="cls-4" d="M736.18,737a9.13,9.13,0,0,1-4.35-1,7.32,7.32,0,0,1-2.89-2.73,8.25,8.25,0,0,1,0-7.91,7.13,7.13,0,0,1,2.74-2.71,8.08,8.08,0,0,1,4-1,7.79,7.79,0,0,1,3.89,1,6.86,6.86,0,0,1,2.69,2.68,8.22,8.22,0,0,1,1,4.09c0,.15,0,.32,0,.51s0,.36-.05.53H730.69v-2.33h10.62l-1.38.73a4.33,4.33,0,0,0-.53-2.27,4.16,4.16,0,0,0-1.52-1.54,4.76,4.76,0,0,0-4.48,0,4.07,4.07,0,0,0-1.52,1.56,4.82,4.82,0,0,0-.54,2.34v.56a4.58,4.58,0,0,0,.61,2.38,4.06,4.06,0,0,0,1.74,1.59,5.6,5.6,0,0,0,2.58.56,6.19,6.19,0,0,0,2.26-.39,4.83,4.83,0,0,0,1.8-1.23l1.87,2.15a6.56,6.56,0,0,1-2.53,1.81A9.09,9.09,0,0,1,736.18,737Z"/><path class="cls-2" d="M219.91,500.3a7.55,7.55,0,0,1,4,2.05,7.05,7.05,0,0,1,1.86,5v10.25c5.13-1.39,7-.67,9.6,3.6,4.51-2,7.07-1.2,10,3.33a7.18,7.18,0,0,1,4.52-1,6.64,6.64,0,0,1,5.63,5.67c.07.83.11,1.66.11,2.48q0,13,0,26a21.77,21.77,0,0,1-1.31,7.91,21.1,21.1,0,0,1-15.11,13.59,23.54,23.54,0,0,1-15.33-1.46,26.42,26.42,0,0,1-8.47-5.91q-10.27-10.29-20.55-20.54a6.64,6.64,0,0,1-2.16-5.42,6.31,6.31,0,0,1,7.39-5.68,13.73,13.73,0,0,1,3.67,1.15c2.67,1.24,5.28,2.61,7.92,3.92.23.12.46.22.84.4v-1q0-18.55,0-37.13a6.62,6.62,0,0,1,2.77-5.92,17.73,17.73,0,0,1,3.09-1.32Zm-4.08,27.14v20.11c0,.26,0,.52,0,.78a1.66,1.66,0,0,1-2.5,1.46c-.82-.37-1.62-.8-2.43-1.2-2.84-1.43-5.67-2.88-8.54-4.26a10.57,10.57,0,0,0-2.71-.86,3,3,0,0,0-3.38,1.6,3.07,3.07,0,0,0,.8,3.74q10.51,10.52,21,21a21.66,21.66,0,0,0,17.27,6.6,17.48,17.48,0,0,0,13-6.87,18.06,18.06,0,0,0,3.93-11.75c0-9,0-18.07,0-27.1a2.39,2.39,0,0,0,0-.85,7.32,7.32,0,0,0-1-2.1,3,3,0,0,0-3.43-.71,3,3,0,0,0-2.08,2.83c-.06,2.61,0,5.23,0,7.84a5.47,5.47,0,0,1-.12,1.15,1.61,1.61,0,0,1-3.1,0,5,5,0,0,1-.11-1.16c0-3.57,0-7.14,0-10.71a3.31,3.31,0,1,0-6.6,0c0,.23,0,.46,0,.7,0,3.39,0,6.78,0,10.17a3.19,3.19,0,0,1-.56,1.69,1.37,1.37,0,0,1-1.71.33,1.78,1.78,0,0,1-1-1.83v-8.62c0-2.08,0-4.15,0-6.22a3.24,3.24,0,0,0-4.2-2.92,3.29,3.29,0,0,0-2.36,3.43q0,6.91,0,13.83c0,.23,0,.46,0,.69a1.67,1.67,0,1,1-3.32,0c0-.23,0-.47,0-.7q0-15,0-29.9a9.15,9.15,0,0,0,0-1.17,3.3,3.3,0,0,0-6.56.75Q215.82,517.34,215.83,527.44Z"/><line class="cls-5" x1="219.08" y1="482.31" x2="219.47" y2="492.95"/><line class="cls-5" x1="209.98" y1="484.4" x2="215.24" y2="494.34"/><line class="cls-5" x1="223.45" y1="493.67" x2="229.93" y2="485.12"/><line class="cls-5" x1="226.23" y1="496.4" x2="232.63" y2="491.96"/><line class="cls-5" x1="211.32" y1="496.33" x2="204.63" y2="492.33"/><line class="cls-5" x1="228.17" y1="500.06" x2="234.55" y2="497.3"/><line class="cls-5" x1="210.42" y1="499.71" x2="204.46" y2="499.26"/><path class="cls-1" d="M763.6,418.41a178.53,178.53,0,0,1-101,94.8,13.76,13.76,0,0,0,0,2.5,15,15,0,0,1,0,2.5,178.48,178.48,0,0,0,101-94.8,8,8,0,0,0,0-2.5c0-.59,0-1.18,0-1.77a2.56,2.56,0,0,1,0-.73Z"/><path class="cls-1" d="M57.25,507.68A178.57,178.57,0,0,1,149,403.93a10.86,10.86,0,0,0,0-2.5,13.18,13.18,0,0,1,0-2.5A178.46,178.46,0,0,0,57.25,502.68a9.09,9.09,0,0,0,0,2.5,9.53,9.53,0,0,1,0,2.5Z"/></svg>