<!-- Generator: Adobe Illustrator 23.0.3, SVG Export Plug-In . SVG Version: 6.00 Build 0)  -->
<svg version="1.1" id="Layer_1" xmlns="http://www.w3.org/2000/svg" xmlns:xlink="http://www.w3.org/1999/xlink" x="0px" y="0px"
	 viewBox="0 0 303.7 939.1" style="enable-background:new 0 0 303.7 939.1;" xml:space="preserve">
	<style type="text/css">
		.st0{fill:none;stroke:#FFCB57;stroke-width:1.6599;stroke-miterlimit:10;}
		.st1{fill:#FFCB57;}
		.st2{opacity:0.9;fill:url(#SVGID_1_);}
		.st3{opacity:0.9;fill:url(#SVGID_2_);}
		.st4{opacity:0.9;fill:url(#SVGID_3_);}
		.st5{opacity:0.9;fill:url(#SVGID_4_);}
		.st6{opacity:0.9;fill:url(#SVGID_5_);}
		.st7{fill:#FFF9DB;}
		.st8{fill:#FFD7E9;}
		.st9{opacity:0.9;fill:url(#SVGID_6_);}
		.st10{opacity:0.9;fill:url(#SVGID_7_);}
		.st11{fill:#D8F2FF;}
		.st12{opacity:0.9;fill:url(#SVGID_8_);}
		.st13{fill:none;stroke:#FF7DB9;stroke-width:2.2533;stroke-linecap:round;stroke-linejoin:round;stroke-miterlimit:10;}
		.st14{fill:#FF7DB9;}
		.st15{fill:none;stroke:#FFCB57;stroke-width:2.2533;stroke-linecap:round;stroke-linejoin:round;stroke-miterlimit:10;}
		.st16{fill:#FFCB00;}
		.st17{fill:none;stroke:#FFCB57;stroke-width:2.2533;stroke-linejoin:round;stroke-miterlimit:10;}
		.st18{fill:none;stroke:#49C4FF;stroke-width:1.7704;stroke-linecap:round;stroke-linejoin:round;stroke-miterlimit:10;}
		.st19{fill:#49C4FF;}
		.st20{fill:none;stroke:#FF7DB9;stroke-width:2.2533;stroke-linejoin:round;stroke-miterlimit:10;}
		.st21{fill:none;stroke:#49C4FF;stroke-width:1.7335;stroke-linecap:round;stroke-linejoin:round;stroke-miterlimit:10;}
		.st22{fill:#F6F0F8;}
		.st23{fill:#333343;}
		.st24{fill:#FFFFFF;}
		.st25{fill:#3E3D51;}
		.st26{fill:none;stroke:#FFCB57;stroke-width:1.4173;stroke-miterlimit:10;}
		.st27{opacity:0.9;fill:url(#SVGID_9_);}
		.st28{fill:none;stroke:#FFCB57;stroke-width:1.6611;stroke-linecap:round;stroke-linejoin:round;stroke-miterlimit:10;}
		.st29{fill:none;stroke:#FFCB57;stroke-width:3.6085;stroke-miterlimit:10;}
		.st30{opacity:0.9;fill:url(#SVGID_10_);}
		.st31{opacity:0.9;fill:url(#SVGID_11_);}
		.st32{opacity:0.9;fill:url(#SVGID_12_);}
		.st33{opacity:0.9;fill:url(#SVGID_13_);}
		.st34{opacity:0.9;fill:url(#SVGID_14_);}
		.st35{opacity:0.9;fill:url(#SVGID_15_);}
		.st36{opacity:0.9;fill:url(#SVGID_16_);}
		.st37{fill:none;stroke:#FF7DB9;stroke-width:4.8984;stroke-linecap:round;stroke-linejoin:round;stroke-miterlimit:10;}
		.st38{fill:none;stroke:#FFCB57;stroke-width:4.8984;stroke-linecap:round;stroke-linejoin:round;stroke-miterlimit:10;}
		.st39{fill:none;stroke:#FFCB57;stroke-width:4.8984;stroke-linejoin:round;stroke-miterlimit:10;}
		.st40{fill:none;stroke:#49C4FF;stroke-width:3.8488;stroke-linecap:round;stroke-linejoin:round;stroke-miterlimit:10;}
		.st41{fill:none;stroke:#FF7DB9;stroke-width:4.8984;stroke-linejoin:round;stroke-miterlimit:10;}
		.st42{fill:none;stroke:#49C4FF;stroke-width:3.7686;stroke-linecap:round;stroke-linejoin:round;stroke-miterlimit:10;}
		.st43{fill:#32A9FE;}
		.st44{fill:none;stroke:#FFCB57;stroke-width:3.0812;stroke-miterlimit:10;}
		.st45{opacity:0.9;fill:url(#SVGID_17_);}
		.st46{fill:none;stroke:#FFCB57;stroke-width:3.6111;stroke-linecap:round;stroke-linejoin:round;stroke-miterlimit:10;}
		
			.st47{fill:none;stroke:#FF7DB9;stroke-width:2.126;stroke-linecap:round;stroke-linejoin:round;stroke-miterlimit:10;stroke-dasharray:2.9517,5.4115;}
		.st48{opacity:0.9;fill:url(#SVGID_18_);}
		.st49{opacity:0.9;fill:url(#SVGID_19_);}
		.st50{opacity:0.9;fill:url(#SVGID_20_);}
		.st51{opacity:0.9;fill:url(#SVGID_21_);}
		.st52{opacity:0.9;fill:url(#SVGID_22_);}
		.st53{opacity:0.9;fill:url(#SVGID_23_);}
		.st54{opacity:0.9;fill:url(#SVGID_24_);}
		.st55{opacity:0.9;fill:url(#SVGID_25_);}
		.st56{opacity:0.9;fill:url(#SVGID_26_);}
		.st57{opacity:0.9;fill:url(#SVGID_27_);}
		.st58{opacity:0.9;fill:url(#SVGID_28_);}
		.st59{opacity:0.9;fill:url(#SVGID_29_);}
		.st60{opacity:0.9;fill:url(#SVGID_30_);}
		
			.st61{fill:none;stroke:#FF7DB9;stroke-width:1.4759;stroke-linecap:round;stroke-linejoin:round;stroke-miterlimit:10;stroke-dasharray:2.9517,5.4115;}
		.st62{opacity:0.9;fill:url(#SVGID_31_);}
		.st63{opacity:0.9;fill:url(#SVGID_32_);}
		.st64{opacity:0.9;fill:url(#SVGID_33_);}
		.st65{opacity:0.9;fill:url(#SVGID_34_);}
		.st66{opacity:0.9;fill:url(#SVGID_35_);}
		.st67{opacity:0.9;fill:url(#SVGID_36_);}
		.st68{opacity:0.9;fill:url(#SVGID_37_);}
		.st69{opacity:0.9;fill:url(#SVGID_38_);}
		.st70{opacity:0.9;fill:url(#SVGID_39_);}
		.st71{opacity:0.9;fill:url(#SVGID_40_);}
	</style>
	<g>
		<circle class="st0" cx="254.9" cy="291.5" r="21.5"/>
		<g>
			<g>
				<path class="st1" d="M249.2,302.9c-0.7,0-1.1,0-1.1,0h-0.7v-12.6l0.2-0.2c1.4-1.4,2.4-3.2,3.5-4.9c0.2-0.4,0.4-0.8,0.7-1.1l0,0
					c0.4-0.6,0.4-2,0.4-3c0-1,0-1.8,0.3-2.3c0.3-0.4,0.7-0.7,1.3-0.7c1-0.1,2,0.4,2.5,1.4c1.5,3.1,1.2,5,0.7,7.6
					c-0.1,0.4-0.1,0.7-0.2,1.1c1,0,2.1,0,3.1,0c1.1,0,2.3,0,3.5,0c0.9,0,2,0.2,2.6,0.9c0.2,0.3,0.5,0.8,0.3,1.5
					c-0.1,0.8-0.5,1.4-1.1,1.9c0.4,0.4,0.6,1,0.5,1.6c-0.1,0.7-0.5,1.4-1.1,1.8c0.3,0.4,0.5,0.8,0.5,1.4c0,0.8-0.5,1.6-1.1,2.1
					c0.4,0.5,0.5,1,0.4,1.6c-0.3,1.2-1.6,2.1-2.9,2.1C258,302.9,251.7,302.9,249.2,302.9z M248.7,301.5c2.2,0,9.1,0,12.5,0
					c0.8,0,1.5-0.6,1.6-1.1c0-0.1,0.1-0.3-0.3-0.6c-0.4-0.1-0.6-0.5-0.6-0.9c0-0.4,0.4-0.7,0.8-0.8c0.5-0.2,0.8-0.7,0.8-1.1
					c0-0.4-0.3-0.6-0.5-0.6l-0.1,0l0,0c-0.4-0.2-0.5-0.5-0.5-0.9c0.1-0.4,0.5-0.6,0.8-0.7c0.4-0.1,0.8-0.6,0.8-1
					c0-0.4-0.1-0.5-0.3-0.6l0,0c0,0,0,0-0.1,0c-0.2-0.1-0.5-0.2-0.6-0.6l0-0.1l0-0.1c-0.1-0.4,0.1-0.8,0.5-0.9l0.1,0l0.1,0
					c0.6-0.2,0.9-0.6,1-1.2l0,0c0-0.3,0-0.4-0.1-0.4c-0.1-0.2-0.5-0.3-1.6-0.4c-1.1,0-2.3,0-3.4,0c-1.3,0-2.7,0-4,0l-0.8,0l0.1-0.8
					c0.1-0.7,0.2-1.4,0.3-1.9c0.5-2.6,0.8-4.1-0.5-6.8c-0.2-0.4-0.7-0.7-1.1-0.6c-0.2,0-0.3,0.1-0.3,0.1c-0.1,0.2-0.1,1-0.1,1.6
					c0,1.3,0.1,2.8-0.6,3.8c-0.2,0.4-0.4,0.7-0.6,1.1c-1,1.8-2,3.6-3.5,5V301.5z"/>
			</g>
			<g>
				<path class="st1" d="M247.5,302.9h-2.7c-0.6,0-1.2-0.5-1.2-1.2v-10.6c0-0.6,0.5-1.2,1.2-1.2h2.7c0.6,0,1.2,0.5,1.2,1.2v10.6
					C248.7,302.3,248.2,302.9,247.5,302.9z M245,301.5h2.3v-10.2H245V301.5z"/>
			</g>
		</g>
		
			<radialGradient id="SVGID_1_" cx="1437.7361" cy="4859.0811" r="59.465" gradientTransform="matrix(0.5538 0 0 4.348000e-02 -538.4708 106.1785)" gradientUnits="userSpaceOnUse">
			<stop  offset="0.1034" style="stop-color:#E0E3E2"/>
			<stop  offset="0.2677" style="stop-color:#E9EBEA"/>
			<stop  offset="0.684" style="stop-color:#F9FAFA"/>
			<stop  offset="1" style="stop-color:#FFFFFF"/>
		</radialGradient>
		<ellipse class="st2" cx="257.7" cy="317.5" rx="46.5" ry="2.2"/>
	</g>
	<g>
		<g>
			<g>
				<g>
					<g>
						<path class="st1" d="M72.3,257.1H60.6c-0.5,0-0.9-0.4-0.9-0.9c0-0.5,0.4-0.9,0.9-0.9h11.6c0.5,0,0.9,0.4,0.9,0.9
							C73.1,256.8,72.7,257.1,72.3,257.1z"/>
					</g>
				</g>
				<g>
					<g>
						<path class="st1" d="M72.3,272.2h-4.2c-0.5,0-0.9-0.4-0.9-0.9c0-0.5,0.4-0.9,0.9-0.9h4.2c0.5,0,0.9,0.4,0.9,0.9
							C73.1,271.9,72.7,272.2,72.3,272.2z"/>
					</g>
				</g>
				<g>
					<g>
						<path class="st1" d="M72.2,260.9h-9.9c-0.5,0-0.9-0.4-0.9-0.9c0-0.5,0.4-0.9,0.9-0.9h9.9c0.5,0,0.9,0.4,0.9,0.9
							C73,260.6,72.6,260.9,72.2,260.9z"/>
					</g>
				</g>
				<g>
					<g>
						<path class="st1" d="M72.3,264.7H60.6c-0.5,0-0.9-0.4-0.9-0.9c0-0.5,0.4-0.9,0.9-0.9h11.6c0.5,0,0.9,0.4,0.9,0.9
							C73.1,264.3,72.7,264.7,72.3,264.7z"/>
					</g>
				</g>
				<path class="st1" d="M77.2,249.8c0-0.3-0.1-0.5-0.3-0.7l-10.2-10.2c0,0,0,0,0,0c-0.1-0.1-0.1-0.1-0.2-0.1c0,0,0,0-0.1,0
					c-0.1,0-0.1-0.1-0.2-0.1c0,0,0,0,0,0c-0.1,0-0.1,0-0.2,0H46.1c-0.5,0-0.9,0.4-0.9,0.9v8.7c0.3,0,0.7,0,1,0c0.2,0,0.5,0,0.7,0
					v-7.9h18.2v9.4c0,0.5,0.4,0.9,0.9,0.9h9.4V278H47v-7.9c-0.2,0-0.5,0-0.7,0c-0.3,0-0.7,0-1,0v8.7c0,0.5,0.4,0.9,0.9,0.9h30.2
					c0.5,0,0.9-0.4,0.9-0.9v-29C77.2,249.9,77.2,249.8,77.2,249.8z M66.9,248.9v-7.3l7.3,7.3H66.9z"/>
				<g>
					<path class="st1" d="M44.8,264c-0.2,0-0.4-0.1-0.6-0.2l-3.8-3.4c-0.4-0.3-0.4-0.9-0.1-1.2c0.3-0.4,0.9-0.4,1.2-0.1l3.2,2.8
						l6.1-7.2c0.3-0.4,0.9-0.4,1.2-0.1c0.4,0.3,0.4,0.9,0.1,1.2l-6.7,7.9C45.3,263.9,45.1,264,44.8,264C44.9,264,44.8,264,44.8,264z"
						/>
				</g>
				<g>
					<path class="st1" d="M46.2,271.1c-0.3,0-0.7,0-1.1,0c-6.2-0.5-10.8-5.6-10.8-11.8c0-6.2,4.6-11.3,10.8-11.8
						c0.7-0.1,1.3-0.1,1.9,0c6.2,0.4,11,5.6,11,11.8c0,6.2-4.9,11.4-11.1,11.8C46.8,271.1,46.5,271.1,46.2,271.1z M46.2,249.1
						c-0.3,0-0.6,0-0.9,0c-5.3,0.5-9.2,4.8-9.2,10.1c0,5.3,4,9.6,9.2,10.1c0.6,0.1,1.1,0.1,1.6,0c5.3-0.4,9.5-4.8,9.5-10.1
						s-4.1-9.7-9.4-10.1C46.7,249.1,46.5,249.1,46.2,249.1z"/>
				</g>
			</g>
			
				<radialGradient id="SVGID_2_" cx="1083.266" cy="4781.7373" r="59.465" gradientTransform="matrix(0.5538 0 0 4.348000e-02 -538.4708 75.9123)" gradientUnits="userSpaceOnUse">
				<stop  offset="0.1034" style="stop-color:#E0E3E2"/>
				<stop  offset="0.2677" style="stop-color:#E9EBEA"/>
				<stop  offset="0.684" style="stop-color:#F9FAFA"/>
				<stop  offset="1" style="stop-color:#FFFFFF"/>
			</radialGradient>
			<ellipse class="st3" cx="61.4" cy="283.8" rx="46.5" ry="2.2"/>
		</g>
	</g>
	<g>
		<g>
			<g>
				<g>
					<path class="st1" d="M229.6,140.6L229.6,140.6L229.6,140.6 M229.7,143.6c1,1.7,2,4.4,1.7,7.5c-0.3,3.1-2.1,5.5-4.2,6.9
						C229.2,153.9,230,149.6,229.7,143.6 M228.4,139.9c-0.3,0-0.5,0.3-0.5,0.9c0.7,9-0.2,14.2-4.3,19.9c4.5,0,9-4.2,9.5-9.5
						C233.6,145,229.8,139.9,228.4,139.9L228.4,139.9z"/>
				</g>
				<g>
					<g>
						<path class="st1" d="M239,140.6L239,140.6L239,140.6 M239.1,143.7c0.5,1,1,2.2,1.3,3.6c0.6,2.8,0.9,8.3-3.8,14.2
							c-0.5,0.6-0.5,1.4,0,2c0.3,0.4,0.8,0.7,1.3,0.7c0.2,0,0.4,0,0.6-0.1c0.2-0.1,4.6-1.9,8-7.1c-0.1,0.8-0.3,1.8-0.6,2.8
							c-1,3.2-3.4,7.7-9.1,10.7c-0.7,0.4-1,1.2-0.8,1.9c0.2,0.7,0.9,1.2,1.6,1.2c0.1,0,0.1,0,0.2,0c0.1,0,2.7-0.3,5.6-1.5
							c-2,2.1-5,4.4-9,5.2c-1.2,0.2-2.4,0.4-3.6,0.4c-5.8,0-10.7-2.6-13.1-6.9c-1.2-2.1-1.4-4.4-1.6-6.6c-0.3-2.9-0.7-6.1-3.3-8.4
							c0.6-0.4,1.2-0.5,1.7-0.5c0.8,0,1.7,0.3,2.3,0.9c1.1,1.1,1.4,2.2,1.7,3.3c0.4,1.3,0.8,3,2.6,4c0.9,0.5,2,0.8,3.2,0.8
							c3.3,0,7.2-2,9.7-5.1C237.1,155.2,239,149.7,239.1,143.7 M248.1,154L248.1,154L248.1,154 M237.8,139.9c-0.3,0-0.5,0.3-0.4,0.9
							c0.6,7.4-1.7,13.5-4.9,17.3c-2.1,2.5-5.6,4.5-8.5,4.5c-0.9,0-1.7-0.2-2.4-0.6c-2.4-1.3-1.1-4.3-3.9-7c-0.9-0.9-2.2-1.4-3.5-1.4
							c-1.5,0-3.1,0.7-4.2,2.4c5.9,3.3,2.8,9.7,6.1,15.6c3,5.5,9,7.8,14.6,7.8c1.4,0,2.7-0.1,3.9-0.4c9-1.8,14.1-10.8,12.4-10.8
							c-0.2,0-0.6,0.2-1.1,0.6c-3.7,2.8-8.3,3.3-8.3,3.3c12-6.3,11.5-19.3,9.7-19.3c-0.2,0-0.5,0.3-0.8,0.8c-3.1,6.8-8.6,9-8.6,9
							c4.5-5.6,5.1-11.3,4.1-15.5C241.1,142.8,238.8,139.9,237.8,139.9L237.8,139.9z"/>
					</g>
				</g>
			</g>
		</g>
		
			<radialGradient id="SVGID_3_" cx="1389.3831" cy="4551.9561" r="59.465" gradientTransform="matrix(0.5538 0 0 4.348000e-02 -538.4708 -14.0056)" gradientUnits="userSpaceOnUse">
			<stop  offset="0.1034" style="stop-color:#E0E3E2"/>
			<stop  offset="0.2677" style="stop-color:#E9EBEA"/>
			<stop  offset="0.684" style="stop-color:#F9FAFA"/>
			<stop  offset="1" style="stop-color:#FFFFFF"/>
		</radialGradient>
		<ellipse class="st4" cx="231" cy="183.9" rx="46.5" ry="2.2"/>
	</g>
	<g>
		<g>
			<path class="st1" d="M236.3,533.8c2.2-1.5,3.7-4,3.7-6.8c0-4.5-3.7-8.2-8.2-8.2s-8.2,3.7-8.2,8.2c0,2.8,1.5,5.3,3.7,6.8
				c-5,1.8-8.6,6.6-8.6,12.3h2.2c0-6,4.9-10.9,10.9-10.9s10.9,4.9,10.9,10.9h2.2C244.9,540.5,241.3,535.7,236.3,533.8z M231.8,533
				c-3.3,0-6-2.7-6-6c0-3.3,2.7-6,6-6c3.3,0,6,2.7,6,6C237.8,530.3,235.1,533,231.8,533z"/>
			<path class="st1" d="M247.2,528.4c2.2-1.5,3.7-4,3.7-6.8c0-4.5-3.7-8.2-8.2-8.2c-2.2,0-4.2,0.9-5.6,2.3c-0.5,0.5-1,1.1-1.4,1.8
				c0.7,0.3,1.3,0.6,1.9,1c0.4-0.6,0.9-1.2,1.5-1.6c1-0.8,2.3-1.2,3.6-1.2c3.3,0,6,2.7,6,6c0,2.7-1.9,5.1-4.4,5.8
				c-0.5,0.1-1.1,0.2-1.6,0.2c-0.2,0-0.4,0-0.6,0c0,0.8-0.2,1.5-0.4,2.3c0.3,0,0.6-0.1,0.9-0.1c0.4,0,0.9,0,1.3,0.1
				c5.4,0.6,9.6,5.2,9.6,10.8h2.2C255.8,535,252.2,530.2,247.2,528.4z"/>
			<path class="st1" d="M220.9,529.7c0.3,0,0.6,0,0.9,0.1c-0.2-0.7-0.3-1.5-0.4-2.3c-0.2,0-0.4,0-0.6,0c-0.6,0-1.1-0.1-1.6-0.2
				c-2.5-0.7-4.4-3-4.4-5.8c0-3.3,2.7-6,6-6c1.4,0,2.6,0.5,3.6,1.2c0.6,0.4,1.1,1,1.5,1.6c0.6-0.4,1.2-0.7,1.9-1
				c-0.4-0.7-0.9-1.2-1.4-1.8c-1.5-1.4-3.5-2.3-5.6-2.3c-4.5,0-8.2,3.7-8.2,8.2c0,2.8,1.5,5.3,3.7,6.8c-5,1.8-8.6,6.6-8.6,12.3h2.2
				c0-5.6,4.2-10.2,9.6-10.8C220,529.8,220.4,529.7,220.9,529.7z"/>
			<path class="st1" d="M254.8,520.8c2.2-1.5,3.7-4,3.7-6.8c0-4.5-3.7-8.2-8.2-8.2c-2.2,0-4.2,0.9-5.6,2.3c-0.5,0.5-1,1.1-1.4,1.8
				c0.7,0.3,1.3,0.6,1.9,1c0.4-0.6,0.9-1.2,1.5-1.6c1-0.8,2.3-1.2,3.6-1.2c3.3,0,6,2.7,6,6c0,2.4-1.4,4.5-3.5,5.4
				c0.1,0.5,0.1,1,0.1,1.6c0,0.5-0.1,1-0.1,1.5c4.8,1.1,8.4,5.4,8.4,10.6h2.2C263.4,527.4,259.8,522.6,254.8,520.8z"/>
			<path class="st1" d="M210.6,521c0-0.5,0.1-1.1,0.1-1.6c-2.1-0.9-3.5-3-3.5-5.4c0-3.3,2.7-6,6-6c1.4,0,2.6,0.5,3.6,1.2
				c0.6,0.4,1.1,1,1.5,1.6c0.6-0.4,1.2-0.7,1.9-1c-0.4-0.7-0.9-1.2-1.4-1.8c-1.5-1.4-3.5-2.3-5.6-2.3c-4.5,0-8.2,3.7-8.2,8.2
				c0,2.8,1.5,5.3,3.7,6.8c-5,1.8-8.6,6.6-8.6,12.3h2.2c0-5.1,3.6-9.5,8.4-10.6C210.7,521.9,210.6,521.5,210.6,521z"/>
			<path class="st1" d="M231.8,507.9c2.9,0,5.3,2.1,5.9,4.9c1.2-0.7,2.1-0.9,2.1-0.9c-0.9-3.5-4.1-6.2-7.9-6.2s-7,2.6-7.9,6.2
				c0,0,0.9,0.2,2.1,0.9C226.5,510,228.9,507.9,231.8,507.9z"/>
		</g>
		
			<radialGradient id="SVGID_4_" cx="1130.707" cy="2942.9424" r="59.465" gradientTransform="matrix(0.6388 0 0 6.044964e-02 -488.4206 375.337)" gradientUnits="userSpaceOnUse">
			<stop  offset="0.1034" style="stop-color:#E0E3E2"/>
			<stop  offset="0.2677" style="stop-color:#E9EBEA"/>
			<stop  offset="0.684" style="stop-color:#F9FAFA"/>
			<stop  offset="1" style="stop-color:#FFFFFF"/>
		</radialGradient>
		<ellipse class="st5" cx="233.8" cy="553.2" rx="53.6" ry="3"/>
	</g>
	<g>
		<g>
			<path class="st1" d="M51.5,108.4h-9c-1,0-1.9,0.8-1.9,1.9c0,1,0.8,1.9,1.9,1.9h9c1,0,1.9-0.9,1.9-1.9
				C53.4,109.3,52.5,108.4,51.5,108.4z M52.1,110.3c0,0.3-0.3,0.6-0.6,0.6h-9c-0.3,0-0.6-0.3-0.6-0.6c0-0.3,0.3-0.6,0.6-0.6h9
				C51.8,109.7,52.1,110,52.1,110.3z"/>
			<path class="st1" d="M41.3,113.1c0,1.7,1.2,3.2,2.9,3.5c0.4,1.2,1.5,2.1,2.8,2.1c1.3,0,2.4-0.8,2.8-2.1c1.7-0.3,2.9-1.8,2.9-3.5
				v-0.6H41.3V113.1z M45,115.4l-0.3,0c-1-0.1-1.8-0.7-2.1-1.6h8.7c-0.3,0.9-1.1,1.6-2.1,1.6l-0.3,0L45,115.4z M48.4,116.6
				c-0.3,0.4-0.8,0.7-1.4,0.7c-0.6,0-1.1-0.3-1.4-0.7H48.4z"/>
			<path class="st1" d="M47,77.6c-7,0-12.7,5.7-12.7,12.7c0,2.9,0.9,5.6,2.7,7.9c1.4,1.7,2.7,3.6,3.8,5.5v4.5h12.4v-4.4
				c1.2-2,2.6-4.1,3.9-5.6c1.8-2.3,2.7-5,2.7-7.9C59.8,83.3,54,77.6,47,77.6z M45.4,96.4l0.9,3.3l1.5-3.6l0.7,2.1l1.6-0.7l-2.1,9.6
				h-2L44,97.4L45.4,96.4z M52,103.3l-0.1,0.2v3.5h-2.6l2.7-12.7L50.8,94l-0.5,2.1l-1.3,0.6l-1.3-3.6l-1.3,3.2l-0.4-1.6l-2.4,1.6
				L43.2,94l-1.3,0.3l2.8,12.7h-2.6v-3.6l-0.1-0.2c-1.2-2-2.6-4-4-5.8c-1.6-2-2.5-4.5-2.5-7.1c0-6.3,5.1-11.5,11.5-11.5
				c6.3,0,11.5,5.1,11.5,11.5c0,2.6-0.8,5-2.5,7.1h0C54.7,99.1,53.2,101.3,52,103.3z"/>
			<path class="st1" d="M47.5,75.5c0.3,0,0.6-0.3,0.6-0.6v-5.5c0-0.3-0.3-0.6-0.6-0.6c-0.3,0-0.6,0.3-0.6,0.6v5.5
				C46.9,75.3,47.2,75.5,47.5,75.5z"/>
			<path class="st1" d="M55.7,77.5c0.1,0.1,0.2,0.1,0.3,0.1c0.2,0,0.4-0.1,0.5-0.3l2.9-4.7c0.2-0.3,0.1-0.6-0.2-0.8
				c-0.1-0.1-0.3-0.1-0.4-0.1c-0.2,0-0.3,0.1-0.4,0.3l-2.9,4.7c-0.1,0.1-0.1,0.3-0.1,0.4C55.5,77.3,55.5,77.4,55.7,77.5z"/>
			<path class="st1" d="M61.3,84.3c0.1,0,0.2,0,0.3-0.1l4.9-2.6c0.3-0.1,0.4-0.5,0.2-0.8c-0.1-0.3-0.5-0.4-0.8-0.2L61,83.2
				c-0.3,0.1-0.4,0.5-0.2,0.8C60.8,84.2,61,84.3,61.3,84.3z"/>
			<path class="st1" d="M68.8,91.2c-0.1-0.1-0.2-0.2-0.4-0.2l-5.5-0.4c-0.3,0-0.6,0.2-0.6,0.5c0,0.3,0.2,0.6,0.5,0.6l5.5,0.4l0,0
				c0.3,0,0.6-0.2,0.6-0.5C69,91.5,68.9,91.3,68.8,91.2z"/>
			<path class="st1" d="M65.2,102.3l-4.5-3.2C60.5,99,60.4,99,60.2,99c-0.2,0-0.3,0.1-0.4,0.2c-0.2,0.3-0.1,0.6,0.1,0.8l4.5,3.2
				c0.1,0.1,0.2,0.1,0.3,0.1c0.2,0,0.4-0.1,0.5-0.2c0.1-0.1,0.1-0.3,0.1-0.4C65.4,102.5,65.3,102.4,65.2,102.3z"/>
			<path class="st1" d="M37.7,77.3c0.1,0.2,0.3,0.3,0.5,0.3c0.1,0,0.2,0,0.3-0.1c0.3-0.2,0.4-0.5,0.2-0.8L35.8,72
				c-0.1-0.1-0.2-0.2-0.4-0.3c-0.2,0-0.3,0-0.4,0.1c-0.3,0.2-0.4,0.5-0.2,0.8L37.7,77.3z"/>
			<path class="st1" d="M27.7,81.7l4.9,2.6c0.1,0,0.2,0.1,0.3,0.1c0.2,0,0.4-0.1,0.5-0.3c0.1-0.3,0-0.6-0.2-0.8l-4.9-2.6
				c-0.3-0.1-0.6,0-0.8,0.2C27.3,81.2,27.4,81.5,27.7,81.7z"/>
			<path class="st1" d="M31.9,91.2c0-0.3-0.3-0.6-0.6-0.5L25.7,91c-0.2,0-0.3,0.1-0.4,0.2s-0.2,0.3-0.1,0.4c0,0.3,0.3,0.5,0.6,0.5
				l5.6-0.4C31.7,91.8,31.9,91.5,31.9,91.2z"/>
			<path class="st1" d="M34,99c-0.2,0-0.3,0-0.4,0.1l-4.5,3.2c-0.3,0.2-0.3,0.5-0.1,0.8c0.1,0.2,0.3,0.2,0.5,0.2c0.1,0,0.2,0,0.3-0.1
				l4.5-3.2c0.3-0.2,0.3-0.5,0.1-0.8C34.2,99.1,34.1,99.1,34,99z"/>
		</g>
		
			<radialGradient id="SVGID_5_" cx="1375.0198" cy="2536.4973" r="59.465" gradientTransform="matrix(0.5011 0 0 5.423031e-02 -642.0126 -13.0344)" gradientUnits="userSpaceOnUse">
			<stop  offset="0.1034" style="stop-color:#E0E3E2"/>
			<stop  offset="0.2677" style="stop-color:#E9EBEA"/>
			<stop  offset="0.684" style="stop-color:#F9FAFA"/>
			<stop  offset="1" style="stop-color:#FFFFFF"/>
		</radialGradient>
		<ellipse class="st6" cx="47" cy="124.5" rx="42.1" ry="2.7"/>
		<path class="st7" d="M80.9,100c0,0-0.9,8.8-7.8,9.4c6.9,0.6,7.8,9.4,7.8,9.4s0.9-8.8,7.8-9.4C81.7,108.8,80.9,100,80.9,100z"/>
		<path class="st7" d="M93.8,81.4c0,0-0.6,5.8-5.2,6.2c4.6,0.4,5.2,6.2,5.2,6.2s0.6-5.8,5.2-6.2C94.4,87.3,93.8,81.4,93.8,81.4z"/>
	</g>
	<g>
		<g>
			<path class="st8" d="M41,655.4c0.2,1.2-0.1,2.3-0.8,3.3c-0.8,1-1.7,1.6-2.9,1.8c-0.9,0.1-1.7,0-2.4-0.6c-0.7-0.5-1.2-1.2-1.3-2.1
				c-0.2-1.2,0.1-2.3,0.9-3.4c0.8-1.1,1.8-1.7,2.9-1.9c0.9-0.1,1.7,0,2.4,0.6C40.4,653.7,40.8,654.4,41,655.4z M44.2,621.9
				c0.1,0.7,0,1.9-0.5,3.5c-0.3,1.2-1,4-1.8,8.5c-0.9,4.5-1.4,7.2-1.6,8.3c-0.2,1.1-0.3,2.3-0.3,3.8c0,1.2-0.7,1.8-2,2.1
				c-1.7,0.3-2.7-0.4-3-2.1c-0.3-1.8,0.2-5.3,1.4-10.7c1.3-5.4,2.3-9.1,3.1-11.2c0.8-2.1,1.8-3.2,2.8-3.3
				C43.4,620.5,44,620.9,44.2,621.9z"/>
		</g>
		
			<radialGradient id="SVGID_6_" cx="1099.1893" cy="5551.458" r="59.465" gradientTransform="matrix(0.5538 0 0 4.348000e-02 -538.4708 377.1195)" gradientUnits="userSpaceOnUse">
			<stop  offset="0.1034" style="stop-color:#E0E3E2"/>
			<stop  offset="0.2677" style="stop-color:#E9EBEA"/>
			<stop  offset="0.684" style="stop-color:#F9FAFA"/>
			<stop  offset="1" style="stop-color:#FFFFFF"/>
		</radialGradient>
		<ellipse class="st9" cx="70.3" cy="618.5" rx="46.5" ry="2.2"/>
	</g>
	<g>
		<g>
			<g>
				<path class="st1" d="M217.4,726.8h-18.9c0,0,0,0,0,0c0,0,0,0,0,0c0,0-0.1,0-0.1,0c0,0,0,0,0,0c0,0-0.1,0-0.1,0c0,0,0,0,0,0
					c0,0,0,0-0.1,0c0,0,0,0,0,0c0,0,0,0-0.1,0c0,0,0,0,0,0c0,0,0,0-0.1,0.1c0,0,0,0,0,0l-6.8,6.8c0,0,0,0,0,0c0,0,0,0-0.1,0.1
					c0,0,0,0,0,0c0,0,0,0,0,0.1c0,0,0,0,0,0c0,0,0,0,0,0.1c0,0,0,0,0,0c0,0,0,0.1,0,0.1c0,0,0,0,0,0c0,0,0,0.1,0,0.1c0,0,0,0,0,0
					c0,0,0,0,0,0v29.7c0,1.1,0.9,2,2,2h24.3c1.1,0,2-0.9,2-2v-35.1C219.3,727.7,218.5,726.8,217.4,726.8z M197.8,729v3.9
					c0,0.4-0.3,0.7-0.7,0.7h-3.9L197.8,729z M218.1,763.9c0,0.4-0.3,0.7-0.7,0.7H193c-0.4,0-0.7-0.3-0.7-0.7v-29.1h4.8
					c1.1,0,2-0.9,2-2v-4.8h18.3c0.4,0,0.7,0.3,0.7,0.7V763.9z"/>
				<path class="st1" d="M197.1,745h16.2c0.3,0,0.6-0.3,0.6-0.6c0-0.3-0.3-0.6-0.6-0.6h-16.2c-0.3,0-0.6,0.3-0.6,0.6
					C196.5,744.7,196.7,745,197.1,745z"/>
				<path class="st1" d="M197.1,748.3h16.2c0.3,0,0.6-0.3,0.6-0.6s-0.3-0.6-0.6-0.6h-16.2c-0.3,0-0.6,0.3-0.6,0.6
					S196.7,748.3,197.1,748.3z"/>
				<path class="st1" d="M197.1,751.7h8.1c0.3,0,0.6-0.3,0.6-0.6s-0.3-0.6-0.6-0.6h-8.1c-0.3,0-0.6,0.3-0.6,0.6
					S196.7,751.7,197.1,751.7z"/>
				<path class="st1" d="M205.8,754.5c0-0.3-0.3-0.6-0.6-0.6h-8.1c-0.3,0-0.6,0.3-0.6,0.6c0,0.3,0.3,0.6,0.6,0.6h8.1
					C205.6,755.1,205.8,754.8,205.8,754.5z"/>
				<path class="st1" d="M208.5,737.7c0-0.3-0.3-0.6-0.6-0.6c-0.3,0-0.6,0.3-0.6,0.6c0,1.2,1.1,2.2,2.7,2.4v0.1
					c0,0.3,0.3,0.6,0.6,0.6c0.3,0,0.6-0.3,0.6-0.6v-0.1c1.6-0.2,2.7-1.2,2.7-2.4s-1.1-2.2-2.7-2.4v-2.4c0.8,0.2,1.4,0.6,1.4,1.2
					c0,0.3,0.3,0.6,0.6,0.6c0.3,0,0.6-0.3,0.6-0.6c0-1.2-1.1-2.2-2.7-2.4v-0.1c0-0.3-0.3-0.6-0.6-0.6c-0.3,0-0.6,0.3-0.6,0.6v0.1
					c-1.6,0.2-2.7,1.2-2.7,2.4c0,1.2,1.1,2.2,2.7,2.4v2.4C209.2,738.7,208.5,738.3,208.5,737.7z M212.7,737.7c0,0.6-0.7,1-1.4,1.2
					v-2.3C212,736.7,212.7,737.2,212.7,737.7z M208.5,734c0-0.6,0.7-1,1.4-1.2v2.3C209.2,735,208.5,734.6,208.5,734z"/>
				<path class="st1" d="M214.6,753.9c-0.3-0.2-0.7-0.1-0.9,0.2l-1.3,2.3l-0.2-0.1c-0.2-0.1-0.3-0.2-0.5-0.1c-0.2,0-0.3,0.2-0.4,0.3
					l-0.7,1.3l-0.2-0.2c-0.3-0.4-0.8-0.5-1.2-0.4c-0.5,0.1-0.8,0.4-1,0.9l-0.7,2.1l-1.7-2.2c-0.1-0.1-0.3-0.2-0.4-0.2
					c-0.2,0-0.3,0-0.5,0.2l-1.8,1.6c-0.3,0.2-0.3,0.6-0.1,0.9c0.2,0.3,0.6,0.3,0.9,0.1l1.3-1.2l1.7,2.1c0.2,0.2,0.5,0.4,0.8,0.4
					c0.1,0,0.1,0,0.2,0c0.3-0.1,0.6-0.3,0.8-0.6l0.9-2.6c0,0,0,0,0,0c0,0,0,0,0,0l0.8,1c0.1,0.2,0.3,0.2,0.6,0.2
					c0.2,0,0.4-0.2,0.5-0.3l0.7-1.5l0.1,0.1c0.1,0.1,0.3,0.2,0.5,0.1c0.2,0,0.3-0.1,0.4-0.3l1.7-2.9C215,754.4,214.9,754,214.6,753.9
					z"/>
			</g>
		</g>
		
			<radialGradient id="SVGID_7_" cx="1343.0736" cy="5901.1958" r="59.465" gradientTransform="matrix(0.5538 0 0 4.348000e-02 -538.4708 513.9788)" gradientUnits="userSpaceOnUse">
			<stop  offset="0.1034" style="stop-color:#E0E3E2"/>
			<stop  offset="0.2677" style="stop-color:#E9EBEA"/>
			<stop  offset="0.684" style="stop-color:#F9FAFA"/>
			<stop  offset="1" style="stop-color:#FFFFFF"/>
		</radialGradient>
		<ellipse class="st10" cx="205.3" cy="770.6" rx="46.5" ry="2.2"/>
		<path class="st7" d="M227.6,752c0,0-0.9,8.8-7.8,9.4c6.9,0.6,7.8,9.4,7.8,9.4s0.9-8.8,7.8-9.4C228.5,760.8,227.6,752,227.6,752z"/>
		<path class="st7" d="M233,728.4c0,0-0.6,5.8-5.2,6.2c4.6,0.4,5.2,6.2,5.2,6.2s0.6-5.8,5.2-6.2C233.5,734.2,233,728.4,233,728.4z"/>
	</g>
	<g>
		<g>
			<path class="st1" d="M75.5,458.5L75.5,458.5c-0.4-0.3-0.8-0.6-1.3-0.7l-0.2-0.1l-0.1-0.2c-0.2-0.5-0.5-0.9-0.9-1.2
				c-0.6-0.5-1.4-0.8-2.1-0.8c-0.1,0-0.1,0-0.2,0c-1.8,0.1-3.1,1.6-3,3.4l0.2,4.7c0,0.2,0.1,0.4,0.3,0.6c0.2,0.2,0.4,0.2,0.6,0.2
				l4.7-0.2c1.8-0.1,3.1-1.6,3-3.4C76.5,459.8,76.2,459,75.5,458.5z M74.5,461.8c-0.3,0.3-0.6,0.5-1,0.5l-3.8,0.2l-0.2-3.8
				c0-0.8,0.6-1.5,1.4-1.5c0.4,0,0.8,0.1,1.1,0.4c0.3,0.3,0.5,0.6,0.5,1c0,0.2,0.1,0.4,0.3,0.6c0.2,0.2,0.4,0.2,0.6,0.2
				c0.4,0,0.8,0.1,1.1,0.4c0.3,0.3,0.5,0.6,0.5,1C74.9,461.2,74.7,461.5,74.5,461.8z"/>
			<path class="st1" d="M83.6,449.5c-0.4-0.3-0.8-0.6-1.3-0.7l-0.2-0.1l-0.1-0.2c-0.2-0.5-0.5-0.9-0.9-1.2c-0.6-0.5-1.4-0.8-2.1-0.8
				c-0.1,0-0.1,0-0.2,0c-1.8,0.1-3.1,1.6-3,3.4l0.2,4.7c0,0.2,0.1,0.4,0.3,0.6c0.2,0.2,0.4,0.2,0.6,0.2l4.7-0.2
				c1.8-0.1,3.1-1.6,3-3.4C84.6,450.8,84.3,450.1,83.6,449.5z M81.6,453.3l-3.8,0.2l-0.2-3.8c0-0.4,0.1-0.8,0.4-1.1s0.6-0.5,1-0.5
				c0.4,0,0.8,0.1,1.1,0.4c0.3,0.3,0.5,0.6,0.5,1c0,0.2,0.1,0.4,0.3,0.6c0.2,0.2,0.4,0.2,0.6,0.2c0.4,0,0.8,0.1,1.1,0.4
				c0.3,0.3,0.5,0.6,0.5,1C83,452.6,82.4,453.3,81.6,453.3z"/>
			<path class="st1" d="M95.3,434.1c-0.2-0.2-0.4-0.2-0.7-0.2c-11.5,1.4-22,7.6-28.7,17l-2.6,3.6l-13.4,5c-0.2,0.1-0.3,0.2-0.4,0.4
				l-4.8,8.1c-0.2,0.3-0.2,0.6,0,0.8c0,0.1,0.1,0.2,0.2,0.3c0.1,0.1,0.3,0.2,0.5,0.2l8,0.9l4.6,4.1l-2.7,3c-0.3,0.4-0.3,0.9,0.1,1.2
				c0.2,0.2,0.4,0.2,0.6,0.2c0.2,0,0.4-0.1,0.6-0.3l2.7-3l4.6,4.1l1.7,7.8c0,0.2,0.1,0.3,0.3,0.5c0.1,0.1,0.2,0.1,0.3,0.2
				c0.3,0.1,0.6,0.1,0.8-0.1l7.5-5.5c0.2-0.1,0.3-0.3,0.3-0.5l3.6-13.8l3.3-3c8.7-7.7,13.8-18.7,14-30.3
				C95.6,434.5,95.5,434.2,95.3,434.1z M53.3,468.3l-6.4-0.7l3.9-6.6l10.6-4L53.3,468.3z M73.1,481.1l-6.2,4.6l-1.3-6.3l10.4-9.2
				L73.1,481.1z M91.3,448.1c-2.3,6-6,11.4-10.8,15.6l-15.9,14.1l-4.2-3.8l5.3-5.9c0.2-0.2,0.2-0.4,0.2-0.6c0-0.2-0.1-0.4-0.3-0.6
				c-0.4-0.3-0.9-0.3-1.2,0.1l-5.3,5.9l-4.2-3.8l12.4-17.3c3.7-5.2,8.7-9.4,14.5-12.3l0.4-0.2l0.2,0.4c0.8,1.9,1.9,3.6,3.4,4.9
				c1.5,1.4,3.3,2.4,5.2,2.9l0.4,0.1L91.3,448.1z M93.8,436.2c-0.2,3.2-0.8,6.4-1.7,9.5L92,446l-0.4-0.1c-1.7-0.5-3.3-1.4-4.7-2.6
				c-1.3-1.2-2.4-2.7-3-4.4l-0.1-0.4l0.4-0.2c3-1.3,6.1-2.2,9.2-2.7l0.5-0.1L93.8,436.2z"/>
		</g>
		<path class="st11" d="M130,444.8c-0.4-1.7-2-3-3.8-3c-0.3,0-0.7,0-1,0.1c-0.9-2-2.9-3.3-5.2-3.3c-0.6,0-1.2,0.1-1.7,0.3
			c-1.2-2.1-3.5-3.4-6.1-3.4c-3.1,0-5.7,2-6.7,4.7c-0.7-0.4-1.5-0.6-2.4-0.6c-2.7,0-4.9,2.2-4.9,4.9c0,0.2,0,0.3,0,0.5H130z"/>
		<path class="st11" d="M63.2,451.5c-0.4-1.6-1.8-2.9-3.6-2.9c-0.3,0-0.6,0-0.9,0.1c-0.9-1.8-2.7-3.1-4.9-3.1c-0.6,0-1.1,0.1-1.6,0.2
			c-1.2-1.9-3.3-3.2-5.7-3.2c-2.9,0-5.3,1.8-6.3,4.4c-0.7-0.4-1.4-0.6-2.2-0.6c-2.5,0-4.6,2.1-4.6,4.6c0,0.1,0,0.3,0,0.4H63.2z"/>
		<path class="st7" d="M68.5,497.2c0,0-0.4,3.8-3.4,4.1c3,0.3,3.4,4.1,3.4,4.1s0.4-3.8,3.4-4.1C68.9,501,68.5,497.2,68.5,497.2z"/>
	</g>
	<g>
		<g>
			<g>
				
					<radialGradient id="SVGID_8_" cx="1206.6281" cy="6281.5991" r="72.6794" gradientTransform="matrix(0.5538 0 0 4.348000e-02 -538.4708 662.8383)" gradientUnits="userSpaceOnUse">
					<stop  offset="0.1034" style="stop-color:#E0E3E2"/>
					<stop  offset="0.2677" style="stop-color:#E9EBEA"/>
					<stop  offset="0.684" style="stop-color:#F9FAFA"/>
					<stop  offset="1" style="stop-color:#FFFFFF"/>
				</radialGradient>
				<ellipse class="st12" cx="129.8" cy="936" rx="56.8" ry="2.7"/>
				<g>
					<g>
						<path class="st13" d="M128.1,891c1.7,4.7,6.2,8,11.4,8c5.3,0,9.7-3.3,11.4-8"/>
						<g>
							<path class="st14" d="M136.5,883.4c0,0.8-0.7,1.5-1.5,1.5c-0.8,0-1.5-0.7-1.5-1.5c0-0.8,0.7-1.5,1.5-1.5
								C135.9,881.9,136.5,882.6,136.5,883.4z"/>
							<path class="st14" d="M145.6,883.4c0,0.8-0.7,1.5-1.5,1.5s-1.5-0.7-1.5-1.5c0-0.8,0.7-1.5,1.5-1.5S145.6,882.6,145.6,883.4z"
								/>
						</g>
					</g>
					<g>
						<path class="st15" d="M123.1,909.2c-1.4,3.8-5.1,6.6-9.4,6.6c-4.3,0-8-2.7-9.4-6.6"/>
						<g>
							<path class="st16" d="M116.2,902.9c0,0.7,0.6,1.2,1.2,1.2c0.7,0,1.2-0.6,1.2-1.2c0-0.7-0.6-1.2-1.2-1.2
								C116.7,901.7,116.2,902.2,116.2,902.9z"/>
							<path class="st16" d="M108.8,902.9c0,0.7,0.6,1.2,1.2,1.2c0.7,0,1.2-0.6,1.2-1.2c0-0.7-0.6-1.2-1.2-1.2
								C109.3,901.7,108.8,902.2,108.8,902.9z"/>
						</g>
						<circle class="st17" cx="113.7" cy="907.6" r="16.8"/>
					</g>
					<g>
						<g>
							<path class="st18" d="M129.6,917.8c0.9,2.4,3.2,4.1,5.9,4.1c2.7,0,5.1-1.7,5.9-4.1"/>
							<g>
								<path class="st19" d="M134,913.9c0,0.4-0.4,0.8-0.8,0.8c-0.4,0-0.8-0.4-0.8-0.8c0-0.4,0.4-0.8,0.8-0.8
									C133.7,913.1,134,913.4,134,913.9z"/>
								<path class="st19" d="M138.7,913.9c0,0.4-0.4,0.8-0.8,0.8c-0.4,0-0.8-0.4-0.8-0.8c0-0.4,0.4-0.8,0.8-0.8
									C138.4,913.1,138.7,913.4,138.7,913.9z"/>
							</g>
						</g>
					</g>
					<circle class="st20" cx="138.6" cy="888.1" r="20.1"/>
					<circle class="st21" cx="136" cy="916.4" r="10.6"/>
				</g>
			</g>
		</g>
	</g>
	<g>
		<polygon class="st26" points="141.6,15.8 129.5,15.8 129.5,3.7 117.9,3.7 117.9,15.8 105.7,15.8 105.7,27.6 117.9,27.6 117.9,39.7 
			129.5,39.7 129.5,27.6 141.6,27.6 	"/>
		
			<radialGradient id="SVGID_9_" cx="6519.5352" cy="2386.6179" r="59.465" gradientTransform="matrix(0.296 0 0 5.423031e-02 -1804.7435 -86.1864)" gradientUnits="userSpaceOnUse">
			<stop  offset="0.1034" style="stop-color:#E0E3E2"/>
			<stop  offset="0.2677" style="stop-color:#E9EBEA"/>
			<stop  offset="0.684" style="stop-color:#F9FAFA"/>
			<stop  offset="1" style="stop-color:#FFFFFF"/>
		</radialGradient>
		<ellipse class="st27" cx="124.8" cy="43.2" rx="24.8" ry="2.7"/>
	</g>
	<path class="st7" d="M145.1,3.6c0,0-0.6,5.8-5.2,6.2c4.6,0.4,5.2,6.2,5.2,6.2s0.6-5.8,5.2-6.2C145.7,9.4,145.1,3.6,145.1,3.6z"/>
	<path class="st7" d="M154,14.7c0,0-0.4,3.6-3.2,3.9c2.9,0.3,3.2,3.9,3.2,3.9s0.4-3.6,3.2-3.9C154.3,18.4,154,14.7,154,14.7z"/>
	<path class="st28" d="M44.9,569.1l41.4,18.6l-41.4,18.8l0.1-16.1l33-2.5l-33.1-2.6C44.8,585.3,44.8,569,44.9,569.1z"/>
	<radialGradient id="SVGID_10_" cx="1126.9883" cy="5270.9082" r="59.0436" gradientTransform="matrix(0.5538 0 0 4.348000e-02 -538.4708 267.3347)" gradientUnits="userSpaceOnUse">
		<stop  offset="0.1034" style="stop-color:#E0E3E2"/>
		<stop  offset="0.2677" style="stop-color:#E9EBEA"/>
		<stop  offset="0.684" style="stop-color:#F9FAFA"/>
		<stop  offset="1" style="stop-color:#FFFFFF"/>
	</radialGradient>
	<ellipse class="st30" cx="85.7" cy="496.5" rx="46.2" ry="2.2"/>
	<g>
		<path class="st43" d="M105.1,55.5v3.3h-1.3v-3.3l-3.8-6.2h1.4l3,5l3-5h1.3L105.1,55.5z"/>
		<path class="st43" d="M110.3,58.4c-0.6-0.3-1-0.8-1.3-1.3c-0.3-0.6-0.5-1.2-0.5-1.9s0.2-1.3,0.5-1.9c0.3-0.6,0.8-1,1.3-1.3
			s1.2-0.5,1.9-0.5c0.7,0,1.3,0.2,1.9,0.5s1,0.7,1.3,1.3s0.5,1.2,0.5,1.9s-0.2,1.3-0.5,1.9s-0.8,1-1.3,1.3s-1.2,0.5-1.9,0.5
			C111.5,58.9,110.9,58.7,110.3,58.4z M113.5,57.4c0.4-0.2,0.7-0.5,0.9-0.9c0.2-0.4,0.3-0.8,0.3-1.3s-0.1-0.9-0.3-1.3
			c-0.2-0.4-0.5-0.7-0.9-0.9c-0.4-0.2-0.8-0.3-1.2-0.3s-0.9,0.1-1.2,0.3c-0.4,0.2-0.7,0.5-0.9,0.9c-0.2,0.4-0.3,0.8-0.3,1.3
			s0.1,0.9,0.3,1.3c0.2,0.4,0.5,0.7,0.9,0.9c0.4,0.2,0.8,0.3,1.2,0.3S113.1,57.6,113.5,57.4z"/>
		<path class="st43" d="M124.4,51.6v7.2h-1.2v-1.1c-0.3,0.4-0.6,0.7-1,0.9c-0.4,0.2-0.9,0.3-1.4,0.3c-1,0-1.7-0.3-2.3-0.8
			s-0.8-1.3-0.8-2.3v-4.1h1.3v4c0,0.7,0.2,1.2,0.5,1.6c0.3,0.4,0.8,0.5,1.4,0.5c0.7,0,1.2-0.2,1.6-0.6c0.4-0.4,0.6-1,0.6-1.8v-3.7
			H124.4z"/>
		<path class="st43" d="M136.5,52.4c0.5,0.5,0.8,1.3,0.8,2.3v4.1H136v-4c0-0.7-0.2-1.2-0.5-1.6c-0.3-0.4-0.8-0.5-1.4-0.5
			c-0.7,0-1.3,0.2-1.7,0.6c-0.4,0.4-0.6,1-0.6,1.8v3.7h-1.3v-7.2h1.2v1.1c0.3-0.4,0.6-0.7,1.1-0.9c0.4-0.2,1-0.3,1.5-0.3
			C135.3,51.6,136,51.8,136.5,52.4z"/>
		<path class="st43" d="M146.2,55.7h-5.8c0.1,0.6,0.4,1.1,0.8,1.5c0.5,0.4,1.1,0.6,1.8,0.6c0.9,0,1.5-0.3,2.1-0.9l0.7,0.8
			c-0.3,0.4-0.7,0.7-1.2,0.9s-1,0.3-1.6,0.3c-0.8,0-1.4-0.2-2-0.5c-0.6-0.3-1-0.7-1.4-1.3c-0.3-0.6-0.5-1.2-0.5-1.9
			c0-0.7,0.2-1.3,0.5-1.9s0.7-1,1.3-1.3s1.2-0.5,1.8-0.5c0.7,0,1.3,0.2,1.8,0.5c0.5,0.3,1,0.7,1.3,1.3s0.5,1.2,0.5,1.9
			C146.2,55.4,146.2,55.5,146.2,55.7z M141.1,53.2c-0.4,0.4-0.7,0.9-0.7,1.5h4.6c-0.1-0.6-0.3-1.1-0.7-1.5s-0.9-0.6-1.6-0.6
			C142.1,52.7,141.6,52.9,141.1,53.2z"/>
		<path class="st43" d="M154.5,55.7h-5.8c0.1,0.6,0.4,1.1,0.8,1.5c0.5,0.4,1.1,0.6,1.8,0.6c0.9,0,1.5-0.3,2.1-0.9l0.7,0.8
			c-0.3,0.4-0.7,0.7-1.2,0.9s-1,0.3-1.6,0.3c-0.8,0-1.4-0.2-2-0.5c-0.6-0.3-1-0.7-1.4-1.3c-0.3-0.6-0.5-1.2-0.5-1.9
			c0-0.7,0.2-1.3,0.5-1.9s0.7-1,1.3-1.3s1.2-0.5,1.8-0.5c0.7,0,1.3,0.2,1.8,0.5c0.5,0.3,1,0.7,1.3,1.3s0.5,1.2,0.5,1.9
			C154.5,55.4,154.5,55.5,154.5,55.7z M149.4,53.2c-0.4,0.4-0.7,0.9-0.7,1.5h4.6c-0.1-0.6-0.3-1.1-0.7-1.5s-0.9-0.6-1.6-0.6
			C150.3,52.7,149.8,52.9,149.4,53.2z"/>
		<path class="st43" d="M163.1,48.8v10h-1.2v-1.1c-0.3,0.4-0.7,0.7-1.1,0.9s-0.9,0.3-1.5,0.3c-0.7,0-1.3-0.2-1.9-0.5
			c-0.5-0.3-1-0.7-1.3-1.3s-0.5-1.2-0.5-1.9c0-0.7,0.2-1.4,0.5-1.9c0.3-0.5,0.7-1,1.3-1.3c0.5-0.3,1.2-0.5,1.9-0.5
			c0.5,0,1,0.1,1.4,0.3c0.4,0.2,0.8,0.5,1.1,0.9v-3.9H163.1z M160.6,57.4c0.4-0.2,0.7-0.5,0.9-0.9c0.2-0.4,0.3-0.8,0.3-1.3
			s-0.1-0.9-0.3-1.3c-0.2-0.4-0.5-0.7-0.9-0.9s-0.8-0.3-1.2-0.3c-0.5,0-0.9,0.1-1.2,0.3c-0.4,0.2-0.7,0.5-0.9,0.9
			c-0.2,0.4-0.3,0.8-0.3,1.3s0.1,0.9,0.3,1.3c0.2,0.4,0.5,0.7,0.9,0.9c0.4,0.2,0.8,0.3,1.2,0.3C159.8,57.8,160.2,57.6,160.6,57.4z"/>
	</g>
	<g>
		<path class="st43" d="M103.9,65.9h-3.5v-2h9.4v2h-3.5v8.8h-2.5V65.9z"/>
		<path class="st43" d="M118.1,74.7l-2.1-3h-0.1h-2.2v3h-2.5V63.9h4.7c1,0,1.8,0.2,2.5,0.5c0.7,0.3,1.3,0.8,1.6,1.4
			c0.4,0.6,0.6,1.3,0.6,2.1s-0.2,1.5-0.6,2.1c-0.4,0.6-0.9,1-1.6,1.3l2.4,3.5H118.1z M117.5,66.4c-0.4-0.3-1-0.5-1.7-0.5h-2v3.8h2
			c0.8,0,1.3-0.2,1.7-0.5c0.4-0.3,0.6-0.8,0.6-1.4C118.1,67.2,117.9,66.7,117.5,66.4z"/>
		<path class="st43" d="M131,72.7v2h-8.4V63.9h8.2v2h-5.7v2.4h5v2h-5v2.5H131z"/>
		<path class="st43" d="M140.1,72.4h-5l-1,2.3h-2.6l4.8-10.8h2.5l4.8,10.8h-2.6L140.1,72.4z M139.3,70.5l-1.7-4.1l-1.7,4.1H139.3z"/>
		<path class="st43" d="M146.5,65.9h-3.5v-2h9.4v2H149v8.8h-2.5V65.9z"/>
		<path class="st43" d="M163.7,74.7l0-6.5l-3.2,5.4h-1.1l-3.2-5.2v6.4h-2.4V63.9h2.1l4.1,6.7l4-6.7h2.1l0,10.8H163.7z"/>
		<path class="st43" d="M177,72.7v2h-8.4V63.9h8.2v2h-5.7v2.4h5v2h-5v2.5H177z"/>
		<path class="st43" d="M189,63.9v10.8h-2.1l-5.4-6.6v6.6H179V63.9h2.1l5.4,6.6v-6.6H189z"/>
		<path class="st43" d="M193.8,65.9h-3.5v-2h9.4v2h-3.5v8.8h-2.5V65.9z"/>
	</g>
	<g>
		<path class="st43" d="M202.8,193.1c-0.8-0.4-1.4-1-1.8-1.7c-0.4-0.7-0.6-1.6-0.6-2.5c0-0.9,0.2-1.7,0.6-2.5c0.4-0.7,1-1.3,1.8-1.7
			c0.8-0.4,1.6-0.6,2.6-0.6c0.7,0,1.4,0.1,2,0.4c0.6,0.2,1.1,0.6,1.6,1.1l-0.9,0.9c-0.7-0.7-1.6-1.1-2.7-1.1c-0.7,0-1.3,0.2-1.9,0.5
			c-0.6,0.3-1,0.8-1.3,1.3c-0.3,0.6-0.5,1.2-0.5,1.9c0,0.7,0.2,1.3,0.5,1.9c0.3,0.6,0.8,1,1.3,1.3s1.2,0.5,1.9,0.5
			c1.1,0,1.9-0.4,2.7-1.1l0.9,0.9c-0.4,0.5-1,0.9-1.6,1.1c-0.6,0.3-1.3,0.4-2,0.4C204.5,193.7,203.6,193.5,202.8,193.1z"/>
		<path class="st43" d="M213,186.7c0.4-0.2,1-0.3,1.6-0.3v1.3c-0.1,0-0.2,0-0.3,0c-0.7,0-1.3,0.2-1.7,0.6c-0.4,0.4-0.6,1-0.6,1.8v3.6
			h-1.3v-7.2h1.2v1.2C212.2,187.2,212.5,186.9,213,186.7z"/>
		<path class="st43" d="M222.6,190.5h-5.8c0.1,0.6,0.4,1.1,0.8,1.5c0.5,0.4,1.1,0.6,1.8,0.6c0.9,0,1.5-0.3,2.1-0.9l0.7,0.8
			c-0.3,0.4-0.7,0.7-1.2,0.9s-1,0.3-1.6,0.3c-0.8,0-1.4-0.2-2-0.5c-0.6-0.3-1-0.7-1.4-1.3c-0.3-0.6-0.5-1.2-0.5-1.9
			c0-0.7,0.2-1.3,0.5-1.9s0.7-1,1.3-1.3s1.2-0.5,1.8-0.5c0.7,0,1.3,0.2,1.8,0.5c0.5,0.3,1,0.7,1.3,1.3s0.5,1.2,0.5,1.9
			C222.6,190.2,222.6,190.3,222.6,190.5z M217.5,188c-0.4,0.4-0.7,0.9-0.7,1.5h4.6c-0.1-0.6-0.3-1.1-0.7-1.5s-0.9-0.6-1.6-0.6
			C218.4,187.5,217.9,187.7,217.5,188z"/>
		<path class="st43" d="M229.1,187.1c0.5,0.5,0.8,1.2,0.8,2.2v4.3h-1.2v-0.9c-0.2,0.3-0.5,0.6-0.9,0.8c-0.4,0.2-0.9,0.3-1.4,0.3
			c-0.8,0-1.4-0.2-1.9-0.6c-0.5-0.4-0.7-0.9-0.7-1.5c0-0.6,0.2-1.1,0.7-1.5s1.2-0.6,2.2-0.6h2.1v-0.3c0-0.6-0.2-1-0.5-1.3
			c-0.3-0.3-0.8-0.4-1.4-0.4c-0.4,0-0.8,0.1-1.2,0.2s-0.7,0.3-1,0.6l-0.5-1c0.4-0.3,0.8-0.5,1.3-0.7c0.5-0.2,1.1-0.2,1.6-0.2
			C227.8,186.4,228.5,186.6,229.1,187.1z M227.8,192.4c0.4-0.2,0.6-0.5,0.8-0.9v-1h-2c-1.1,0-1.6,0.4-1.6,1.1c0,0.4,0.1,0.6,0.4,0.9
			c0.3,0.2,0.7,0.3,1.2,0.3S227.4,192.6,227.8,192.4z"/>
		<path class="st43" d="M236.3,193.2c-0.2,0.2-0.4,0.3-0.7,0.4c-0.3,0.1-0.6,0.1-0.9,0.1c-0.7,0-1.3-0.2-1.7-0.6
			c-0.4-0.4-0.6-0.9-0.6-1.7v-3.9h-1.2v-1.1h1.2v-1.6h1.3v1.6h2.1v1.1h-2.1v3.9c0,0.4,0.1,0.7,0.3,0.9s0.5,0.3,0.8,0.3
			c0.4,0,0.7-0.1,1-0.3L236.3,193.2z"/>
		<path class="st43" d="M244,190.5h-5.8c0.1,0.6,0.4,1.1,0.8,1.5c0.5,0.4,1.1,0.6,1.8,0.6c0.9,0,1.5-0.3,2.1-0.9l0.7,0.8
			c-0.3,0.4-0.7,0.7-1.2,0.9s-1,0.3-1.6,0.3c-0.8,0-1.4-0.2-2-0.5c-0.6-0.3-1-0.7-1.4-1.3c-0.3-0.6-0.5-1.2-0.5-1.9
			c0-0.7,0.2-1.3,0.5-1.9s0.7-1,1.3-1.3s1.2-0.5,1.8-0.5c0.7,0,1.3,0.2,1.8,0.5c0.5,0.3,1,0.7,1.3,1.3s0.5,1.2,0.5,1.9
			C244.1,190.2,244.1,190.3,244,190.5z M239,188c-0.4,0.4-0.7,0.9-0.7,1.5h4.6c-0.1-0.6-0.3-1.1-0.7-1.5s-0.9-0.6-1.6-0.6
			C239.9,187.5,239.4,187.7,239,188z"/>
		<path class="st43" d="M254.4,187.1c0.5,0.5,0.8,1.2,0.8,2.2v4.3h-1.2v-0.9c-0.2,0.3-0.5,0.6-0.9,0.8c-0.4,0.2-0.9,0.3-1.4,0.3
			c-0.8,0-1.4-0.2-1.9-0.6c-0.5-0.4-0.7-0.9-0.7-1.5c0-0.6,0.2-1.1,0.7-1.5s1.2-0.6,2.2-0.6h2.1v-0.3c0-0.6-0.2-1-0.5-1.3
			c-0.3-0.3-0.8-0.4-1.4-0.4c-0.4,0-0.8,0.1-1.2,0.2s-0.7,0.3-1,0.6l-0.5-1c0.4-0.3,0.8-0.5,1.3-0.7c0.5-0.2,1.1-0.2,1.6-0.2
			C253.1,186.4,253.9,186.6,254.4,187.1z M253.1,192.4c0.4-0.2,0.6-0.5,0.8-0.9v-1h-2c-1.1,0-1.6,0.4-1.6,1.1c0,0.4,0.1,0.6,0.4,0.9
			c0.3,0.2,0.7,0.3,1.2,0.3S252.7,192.6,253.1,192.4z"/>
	</g>
	<g>
		<path class="st43" d="M203.6,209c-0.9-0.5-1.6-1.1-2.1-2c-0.5-0.9-0.8-1.8-0.8-2.9s0.3-2,0.8-2.9s1.2-1.5,2.1-2
			c0.9-0.5,1.9-0.7,3-0.7c0.9,0,1.8,0.2,2.5,0.5c0.8,0.3,1.4,0.8,1.9,1.4l-1.6,1.5c-0.7-0.8-1.6-1.3-2.7-1.3c-0.7,0-1.3,0.1-1.8,0.4
			s-0.9,0.7-1.2,1.2s-0.4,1.1-0.4,1.8s0.1,1.3,0.4,1.8s0.7,0.9,1.2,1.2s1.1,0.4,1.8,0.4c1.1,0,2-0.4,2.7-1.3l1.6,1.5
			c-0.5,0.6-1.2,1.1-1.9,1.4s-1.6,0.5-2.6,0.5C205.5,209.7,204.5,209.5,203.6,209z"/>
		<path class="st43" d="M219.6,207.2h-5l-1,2.3h-2.6l4.8-10.8h2.5l4.8,10.8h-2.6L219.6,207.2z M218.8,205.3l-1.7-4.1l-1.7,4.1H218.8z
			"/>
		<path class="st43" d="M234.2,209.5l0-6.5l-3.2,5.4h-1.1l-3.2-5.2v6.4h-2.4v-10.8h2.1l4.1,6.7l4-6.7h2.1l0,10.8H234.2z"/>
		<path class="st43" d="M246.3,199.1c0.7,0.3,1.3,0.8,1.6,1.4c0.4,0.6,0.6,1.3,0.6,2.1c0,0.8-0.2,1.5-0.6,2.1c-0.4,0.6-0.9,1-1.6,1.4
			c-0.7,0.3-1.5,0.5-2.5,0.5h-2.2v3h-2.5v-10.8h4.7C244.8,198.7,245.6,198.8,246.3,199.1z M245.4,204c0.4-0.3,0.6-0.8,0.6-1.4
			c0-0.6-0.2-1.1-0.6-1.4c-0.4-0.3-1-0.5-1.7-0.5h-2v3.8h2C244.4,204.5,245,204.3,245.4,204z"/>
		<path class="st43" d="M256.9,207.2h-5l-1,2.3h-2.6l4.8-10.8h2.5l4.8,10.8h-2.6L256.9,207.2z M256.1,205.3l-1.7-4.1l-1.7,4.1H256.1z
			"/>
		<path class="st43" d="M261.6,198.7h2.5v10.8h-2.5V198.7z"/>
		<path class="st43" d="M274,203.9h2.3v4.4c-0.6,0.4-1.3,0.8-2,1c-0.8,0.2-1.6,0.4-2.3,0.4c-1.1,0-2.1-0.2-3-0.7
			c-0.9-0.5-1.6-1.1-2.1-2c-0.5-0.9-0.8-1.8-0.8-2.9s0.3-2,0.8-2.9s1.2-1.5,2.1-2c0.9-0.5,1.9-0.7,3.1-0.7c0.9,0,1.8,0.2,2.6,0.5
			c0.8,0.3,1.4,0.8,2,1.4l-1.6,1.5c-0.8-0.8-1.7-1.2-2.8-1.2c-0.7,0-1.3,0.1-1.8,0.4c-0.5,0.3-1,0.7-1.3,1.2
			c-0.3,0.5-0.4,1.1-0.4,1.8c0,0.7,0.1,1.3,0.4,1.8c0.3,0.5,0.7,0.9,1.2,1.2s1.1,0.4,1.8,0.4c0.7,0,1.4-0.2,2-0.5V203.9z"/>
		<path class="st43" d="M288.6,198.7v10.8h-2.1l-5.4-6.6v6.6h-2.5v-10.8h2.1l5.4,6.6v-6.6H288.6z"/>
	</g>
	<g>
		<path class="st43" d="M51.3,631.3v3.3H56v1.2h-4.7v3.8h-1.4v-9.5h6.7v1.2H51.3z"/>
		<path class="st43" d="M64.8,632.4v7.2h-1.2v-1.1c-0.3,0.4-0.6,0.7-1,0.9c-0.4,0.2-0.9,0.3-1.4,0.3c-1,0-1.7-0.3-2.3-0.8
			s-0.8-1.3-0.8-2.3v-4.1h1.3v4c0,0.7,0.2,1.2,0.5,1.6c0.3,0.4,0.8,0.5,1.4,0.5c0.7,0,1.2-0.2,1.6-0.6c0.4-0.4,0.6-1,0.6-1.8v-3.7
			H64.8z"/>
		<path class="st43" d="M73.2,633.1c0.5,0.5,0.8,1.3,0.8,2.3v4.1h-1.3v-4c0-0.7-0.2-1.2-0.5-1.6c-0.3-0.4-0.8-0.5-1.4-0.5
			c-0.7,0-1.3,0.2-1.7,0.6c-0.4,0.4-0.6,1-0.6,1.8v3.7h-1.3v-7.2h1.2v1.1c0.3-0.4,0.6-0.7,1.1-0.9c0.4-0.2,1-0.3,1.5-0.3
			C72,632.3,72.7,632.6,73.2,633.1z"/>
		<path class="st43" d="M83.2,629.5v10H82v-1.1c-0.3,0.4-0.7,0.7-1.1,0.9s-0.9,0.3-1.5,0.3c-0.7,0-1.3-0.2-1.9-0.5
			c-0.5-0.3-1-0.7-1.3-1.3s-0.5-1.2-0.5-1.9c0-0.7,0.2-1.4,0.5-1.9c0.3-0.5,0.7-1,1.3-1.3c0.5-0.3,1.2-0.5,1.9-0.5
			c0.5,0,1,0.1,1.4,0.3c0.4,0.2,0.8,0.5,1.1,0.9v-3.9H83.2z M80.8,638.2c0.4-0.2,0.7-0.5,0.9-0.9c0.2-0.4,0.3-0.8,0.3-1.3
			s-0.1-0.9-0.3-1.3c-0.2-0.4-0.5-0.7-0.9-0.9s-0.8-0.3-1.2-0.3c-0.5,0-0.9,0.1-1.2,0.3c-0.4,0.2-0.7,0.5-0.9,0.9
			c-0.2,0.4-0.3,0.8-0.3,1.3s0.1,0.9,0.3,1.3c0.2,0.4,0.5,0.7,0.9,0.9c0.4,0.2,0.8,0.3,1.2,0.3C80,638.5,80.4,638.4,80.8,638.2z"/>
		<path class="st43" d="M86,639.4c-0.5-0.2-1-0.4-1.3-0.6l0.5-1c0.3,0.2,0.7,0.4,1.1,0.5c0.5,0.1,0.9,0.2,1.4,0.2
			c1.1,0,1.7-0.3,1.7-1c0-0.2-0.1-0.4-0.2-0.5s-0.3-0.2-0.6-0.3s-0.6-0.1-1-0.2c-0.6-0.1-1-0.2-1.4-0.3c-0.4-0.1-0.7-0.3-0.9-0.6
			S85,635,85,634.5c0-0.6,0.3-1.2,0.8-1.6s1.3-0.6,2.2-0.6c0.5,0,1,0.1,1.4,0.2c0.5,0.1,0.9,0.3,1.2,0.5l-0.6,1
			c-0.6-0.4-1.3-0.6-2.1-0.6c-0.5,0-1,0.1-1.3,0.3c-0.3,0.2-0.4,0.4-0.4,0.7c0,0.2,0.1,0.4,0.2,0.6c0.2,0.1,0.4,0.2,0.6,0.3
			c0.2,0.1,0.6,0.1,1,0.2c0.6,0.1,1,0.2,1.4,0.3c0.4,0.1,0.7,0.3,0.9,0.6s0.4,0.6,0.4,1.1c0,0.6-0.3,1.2-0.8,1.5s-1.3,0.6-2.3,0.6
			C87.2,639.6,86.6,639.6,86,639.4z"/>
	</g>
	<g>
		<path class="st43" d="M52.8,647.5h-3.5v-2h9.4v2h-3.5v8.8h-2.5V647.5z"/>
		<path class="st43" d="M67,656.3l-2.1-3h-0.1h-2.2v3h-2.5v-10.8h4.7c1,0,1.8,0.2,2.5,0.5c0.7,0.3,1.3,0.8,1.6,1.4
			c0.4,0.6,0.6,1.3,0.6,2.1s-0.2,1.5-0.6,2.1c-0.4,0.6-0.9,1-1.6,1.3l2.4,3.5H67z M66.4,648c-0.4-0.3-1-0.5-1.7-0.5h-2v3.8h2
			c0.8,0,1.3-0.2,1.7-0.5c0.4-0.3,0.6-0.8,0.6-1.4C67,648.8,66.8,648.3,66.4,648z"/>
		<path class="st43" d="M78.6,654h-5l-1,2.3h-2.6l4.8-10.8h2.5l4.8,10.8h-2.6L78.6,654z M77.9,652.1l-1.7-4.1l-1.7,4.1H77.9z"/>
		<path class="st43" d="M93.3,645.5v10.8h-2.1l-5.4-6.6v6.6h-2.5v-10.8h2.1l5.4,6.6v-6.6H93.3z"/>
		<path class="st43" d="M96.9,656.1c-0.8-0.2-1.4-0.5-1.9-0.9l0.9-1.9c0.5,0.3,1,0.6,1.7,0.8s1.3,0.3,1.9,0.3c0.7,0,1.2-0.1,1.6-0.3
			c0.3-0.2,0.5-0.5,0.5-0.8c0-0.3-0.1-0.5-0.3-0.6c-0.2-0.2-0.5-0.3-0.8-0.4c-0.3-0.1-0.7-0.2-1.3-0.3c-0.8-0.2-1.5-0.4-2-0.6
			c-0.5-0.2-1-0.5-1.4-0.9c-0.4-0.4-0.6-1-0.6-1.7c0-0.6,0.2-1.2,0.5-1.7c0.3-0.5,0.9-0.9,1.5-1.2c0.7-0.3,1.5-0.4,2.5-0.4
			c0.7,0,1.4,0.1,2,0.2c0.7,0.2,1.2,0.4,1.7,0.7l-0.8,1.9c-1-0.6-2-0.9-3-0.9c-0.7,0-1.2,0.1-1.6,0.3c-0.3,0.2-0.5,0.5-0.5,0.9
			c0,0.4,0.2,0.6,0.6,0.8s1,0.4,1.8,0.5c0.8,0.2,1.5,0.4,2,0.6s1,0.5,1.4,0.9c0.4,0.4,0.6,1,0.6,1.7c0,0.6-0.2,1.2-0.5,1.7
			s-0.9,0.9-1.6,1.2c-0.7,0.3-1.5,0.4-2.5,0.4C98.6,656.5,97.7,656.4,96.9,656.1z"/>
		<path class="st43" d="M112.9,654h-5l-1,2.3h-2.6l4.8-10.8h2.5l4.8,10.8h-2.6L112.9,654z M112.1,652.1l-1.7-4.1l-1.7,4.1H112.1z"/>
		<path class="st43" d="M119.6,655.8c-0.9-0.5-1.6-1.1-2.1-2c-0.5-0.9-0.8-1.8-0.8-2.9s0.3-2,0.8-2.9s1.2-1.5,2.1-2
			c0.9-0.5,1.9-0.7,3-0.7c0.9,0,1.8,0.2,2.5,0.5c0.8,0.3,1.4,0.8,1.9,1.4l-1.6,1.5c-0.7-0.8-1.6-1.3-2.7-1.3c-0.7,0-1.3,0.1-1.8,0.4
			s-0.9,0.7-1.2,1.2s-0.4,1.1-0.4,1.8s0.1,1.3,0.4,1.8s0.7,0.9,1.2,1.2s1.1,0.4,1.8,0.4c1.1,0,2-0.4,2.7-1.3l1.6,1.5
			c-0.5,0.6-1.2,1.1-1.9,1.4s-1.6,0.5-2.6,0.5C121.5,656.5,120.5,656.2,119.6,655.8z"/>
		<path class="st43" d="M130.9,647.5h-3.5v-2h9.4v2h-3.5v8.8h-2.5V647.5z"/>
		<path class="st43" d="M138.2,645.5h2.5v10.8h-2.5V645.5z"/>
		<path class="st43" d="M145.5,655.8c-0.9-0.5-1.6-1.2-2.1-2s-0.8-1.8-0.8-2.9s0.3-2,0.8-2.9c0.5-0.9,1.2-1.5,2.1-2
			c0.9-0.5,1.9-0.7,3-0.7c1.1,0,2.1,0.2,3,0.7c0.9,0.5,1.6,1.2,2.1,2c0.5,0.9,0.8,1.8,0.8,2.9s-0.3,2-0.8,2.9s-1.2,1.5-2.1,2
			c-0.9,0.5-1.9,0.7-3,0.7C147.4,656.5,146.4,656.2,145.5,655.8z M150.3,653.9c0.5-0.3,0.9-0.7,1.2-1.2s0.4-1.1,0.4-1.8
			s-0.1-1.3-0.4-1.8s-0.7-0.9-1.2-1.2c-0.5-0.3-1.1-0.4-1.7-0.4s-1.2,0.1-1.7,0.4s-0.9,0.7-1.2,1.2s-0.4,1.1-0.4,1.8s0.1,1.3,0.4,1.8
			s0.7,0.9,1.2,1.2s1.1,0.4,1.7,0.4S149.8,654.2,150.3,653.9z"/>
		<path class="st43" d="M166.3,645.5v10.8h-2.1l-5.4-6.6v6.6h-2.5v-10.8h2.1l5.4,6.6v-6.6H166.3z"/>
	</g>
	<g>
		<path class="st43" d="M185.1,884.4v6.6H179v-6.7l-6.8-11.5h6.5l3.7,6.3l3.7-6.3h5.9L185.1,884.4z"/>
		<path class="st43" d="M196.2,890.2c-1.6-0.8-2.8-1.9-3.7-3.4c-0.9-1.4-1.3-3.1-1.3-4.9s0.4-3.4,1.3-4.9c0.9-1.4,2.1-2.6,3.7-3.4
			c1.6-0.8,3.3-1.2,5.3-1.2c2,0,3.7,0.4,5.3,1.2s2.8,1.9,3.7,3.4c0.9,1.4,1.3,3.1,1.3,4.9s-0.4,3.4-1.3,4.9c-0.9,1.4-2.1,2.6-3.7,3.4
			s-3.3,1.2-5.3,1.2C199.5,891.4,197.8,891,196.2,890.2z M203.5,885.9c0.6-0.4,1.1-0.9,1.5-1.6c0.4-0.7,0.5-1.5,0.5-2.4
			c0-0.9-0.2-1.7-0.5-2.4c-0.4-0.7-0.9-1.2-1.5-1.6c-0.6-0.4-1.3-0.6-2.1-0.6c-0.8,0-1.4,0.2-2.1,0.6c-0.6,0.4-1.1,0.9-1.5,1.6
			c-0.4,0.7-0.5,1.5-0.5,2.4c0,0.9,0.2,1.7,0.5,2.4c0.4,0.7,0.9,1.2,1.5,1.6c0.6,0.4,1.3,0.6,2.1,0.6
			C202.2,886.5,202.9,886.3,203.5,885.9z"/>
		<path class="st43" d="M216.1,889.2c-1.6-1.5-2.3-3.6-2.3-6.3v-10h6.1v9.8c0,1.3,0.2,2.3,0.7,2.9c0.5,0.6,1.2,0.9,2.1,0.9
			c0.9,0,1.6-0.3,2.1-0.9c0.5-0.6,0.7-1.6,0.7-2.9v-9.8h6v10c0,2.7-0.8,4.8-2.3,6.3c-1.6,1.5-3.7,2.3-6.5,2.3
			C219.8,891.4,217.7,890.7,216.1,889.2z"/>
		<path class="st43" d="M190.5,922.1l-0.1-8.3l-3.9,6.6h-2.7l-3.9-6.4v8h-5.6V904h5l5.9,9.7l5.8-9.7h5l0.1,18.2H190.5z"/>
		<path class="st43" d="M211.4,919h-6.9l-1.2,3.2h-6.2L205,904h6l7.9,18.2h-6.3L211.4,919z M209.7,914.5L208,910l-1.8,4.6H209.7z"/>
		<path class="st43" d="M220,904h8.9c2,0,3.8,0.4,5.4,1.1c1.5,0.7,2.8,1.8,3.6,3.2c0.9,1.4,1.3,3,1.3,4.8c0,1.9-0.4,3.5-1.3,4.8
			c-0.9,1.4-2.1,2.4-3.6,3.2c-1.5,0.7-3.3,1.1-5.4,1.1H220V904z M228.6,917.3c1.3,0,2.4-0.4,3.2-1.1s1.2-1.8,1.2-3.2
			c0-1.4-0.4-2.4-1.2-3.2s-1.8-1.1-3.2-1.1h-2.6v8.6H228.6z"/>
		<path class="st43" d="M256.5,917.5v4.6h-15.1V904h14.8v4.6h-8.7v2.1h7.7v4.4h-7.7v2.4H256.5z"/>
		<path class="st43" d="M266.6,904h6.1v18.2h-6.1V904z"/>
		<path class="st43" d="M279.6,908.7h-5.3V904h16.8v4.7h-5.3v13.4h-6.1V908.7z"/>
	</g>
	<g>
		<path class="st43" d="M168.4,790.3c-0.8-0.4-1.4-1-1.8-1.7c-0.4-0.7-0.6-1.6-0.6-2.5c0-0.9,0.2-1.7,0.6-2.5c0.4-0.7,1-1.3,1.8-1.7
			c0.8-0.4,1.6-0.6,2.6-0.6c0.7,0,1.4,0.1,2,0.4c0.6,0.2,1.1,0.6,1.6,1.1l-0.9,0.9c-0.7-0.7-1.6-1.1-2.7-1.1c-0.7,0-1.3,0.2-1.9,0.5
			c-0.6,0.3-1,0.8-1.3,1.3c-0.3,0.6-0.5,1.2-0.5,1.9c0,0.7,0.2,1.3,0.5,1.9c0.3,0.6,0.8,1,1.3,1.3s1.2,0.5,1.9,0.5
			c1.1,0,1.9-0.4,2.7-1.1l0.9,0.9c-0.4,0.5-1,0.9-1.6,1.1c-0.6,0.3-1.3,0.4-2,0.4C170,790.9,169.1,790.7,168.4,790.3z"/>
		<path class="st43" d="M176.3,780.8h1.3v10h-1.3V780.8z"/>
		<path class="st43" d="M186.5,787.6h-5.8c0.1,0.6,0.4,1.1,0.8,1.5c0.5,0.4,1.1,0.6,1.8,0.6c0.9,0,1.5-0.3,2.1-0.9l0.7,0.8
			c-0.3,0.4-0.7,0.7-1.2,0.9s-1,0.3-1.6,0.3c-0.8,0-1.4-0.2-2-0.5c-0.6-0.3-1-0.7-1.4-1.3c-0.3-0.6-0.5-1.2-0.5-1.9
			c0-0.7,0.2-1.3,0.5-1.9s0.7-1,1.3-1.3s1.2-0.5,1.8-0.5c0.7,0,1.3,0.2,1.8,0.5c0.5,0.3,1,0.7,1.3,1.3s0.5,1.2,0.5,1.9
			C186.5,787.4,186.5,787.5,186.5,787.6z M181.4,785.2c-0.4,0.4-0.7,0.9-0.7,1.5h4.6c-0.1-0.6-0.3-1.1-0.7-1.5s-0.9-0.6-1.6-0.6
			C182.4,784.7,181.9,784.8,181.4,785.2z"/>
		<path class="st43" d="M193,784.3c0.5,0.5,0.8,1.2,0.8,2.2v4.3h-1.2v-0.9c-0.2,0.3-0.5,0.6-0.9,0.8c-0.4,0.2-0.9,0.3-1.4,0.3
			c-0.8,0-1.4-0.2-1.9-0.6c-0.5-0.4-0.7-0.9-0.7-1.5c0-0.6,0.2-1.1,0.7-1.5s1.2-0.6,2.2-0.6h2.1v-0.3c0-0.6-0.2-1-0.5-1.3
			c-0.3-0.3-0.8-0.4-1.4-0.4c-0.4,0-0.8,0.1-1.2,0.2s-0.7,0.3-1,0.6l-0.5-1c0.4-0.3,0.8-0.5,1.3-0.7c0.5-0.2,1.1-0.2,1.6-0.2
			C191.7,783.6,192.5,783.8,193,784.3z M191.7,789.5c0.4-0.2,0.6-0.5,0.8-0.9v-1h-2c-1.1,0-1.6,0.4-1.6,1.1c0,0.4,0.1,0.6,0.4,0.9
			c0.3,0.2,0.7,0.3,1.2,0.3S191.4,789.8,191.7,789.5z"/>
		<path class="st43" d="M198.4,783.9c0.4-0.2,1-0.3,1.6-0.3v1.3c-0.1,0-0.2,0-0.3,0c-0.7,0-1.3,0.2-1.7,0.6c-0.4,0.4-0.6,1-0.6,1.8
			v3.6h-1.3v-7.2h1.2v1.2C197.7,784.4,198,784.1,198.4,783.9z"/>
		<path class="st43" d="M211.7,783.6l-3.1,7.2h-1.3l-3.1-7.2h1.4l2.5,5.7l2.5-5.7H211.7z"/>
		<path class="st43" d="M212.9,782c-0.2-0.2-0.3-0.4-0.3-0.6s0.1-0.4,0.3-0.6c0.2-0.2,0.4-0.3,0.6-0.3s0.5,0.1,0.6,0.2
			c0.2,0.2,0.3,0.4,0.3,0.6c0,0.2-0.1,0.4-0.3,0.6c-0.2,0.2-0.4,0.3-0.6,0.3S213.1,782.2,212.9,782z M212.9,783.6h1.3v7.2h-1.3V783.6
			z"/>
		<path class="st43" d="M223.1,787.6h-5.8c0.1,0.6,0.4,1.1,0.8,1.5c0.5,0.4,1.1,0.6,1.8,0.6c0.9,0,1.5-0.3,2.1-0.9l0.7,0.8
			c-0.3,0.4-0.7,0.7-1.2,0.9s-1,0.3-1.6,0.3c-0.8,0-1.4-0.2-2-0.5c-0.6-0.3-1-0.7-1.4-1.3c-0.3-0.6-0.5-1.2-0.5-1.9
			c0-0.7,0.2-1.3,0.5-1.9s0.7-1,1.3-1.3s1.2-0.5,1.8-0.5c0.7,0,1.3,0.2,1.8,0.5c0.5,0.3,1,0.7,1.3,1.3s0.5,1.2,0.5,1.9
			C223.2,787.4,223.2,787.5,223.1,787.6z M218.1,785.2c-0.4,0.4-0.7,0.9-0.7,1.5h4.6c-0.1-0.6-0.3-1.1-0.7-1.5s-0.9-0.6-1.6-0.6
			C219,784.7,218.5,784.8,218.1,785.2z"/>
		<path class="st43" d="M235.7,783.6l-2.7,7.2h-1.2l-2.1-5.4l-2.1,5.4h-1.2l-2.7-7.2h1.2l2.1,5.7l2.2-5.7h1.1l2.1,5.7l2.1-5.7H235.7z
			"/>
	</g>
	<g>
		<path class="st43" d="M174.3,807.5l-2.1-3H172h-2.2v3h-2.5v-10.8h4.7c1,0,1.8,0.2,2.5,0.5c0.7,0.3,1.3,0.8,1.6,1.4
			c0.4,0.6,0.6,1.3,0.6,2.1s-0.2,1.5-0.6,2.1c-0.4,0.6-0.9,1-1.6,1.3l2.4,3.5H174.3z M173.6,799.2c-0.4-0.3-1-0.5-1.7-0.5h-2v3.8h2
			c0.8,0,1.3-0.2,1.7-0.5c0.4-0.3,0.6-0.8,0.6-1.4C174.2,800,174,799.6,173.6,799.2z"/>
		<path class="st43" d="M187.1,805.5v2h-8.4v-10.8h8.2v2h-5.7v2.4h5v2h-5v2.5H187.1z"/>
		<path class="st43" d="M196.3,797.2c0.7,0.3,1.3,0.8,1.6,1.4c0.4,0.6,0.6,1.3,0.6,2.1c0,0.8-0.2,1.5-0.6,2.1c-0.4,0.6-0.9,1-1.6,1.4
			c-0.7,0.3-1.5,0.5-2.5,0.5h-2.2v3h-2.5v-10.8h4.7C194.8,796.7,195.6,796.9,196.3,797.2z M195.4,802c0.4-0.3,0.6-0.8,0.6-1.4
			c0-0.6-0.2-1.1-0.6-1.4c-0.4-0.3-1-0.5-1.7-0.5h-2v3.8h2C194.4,802.5,195,802.4,195.4,802z"/>
		<path class="st43" d="M202.6,807c-0.9-0.5-1.6-1.2-2.1-2s-0.8-1.8-0.8-2.9s0.3-2,0.8-2.9c0.5-0.9,1.2-1.5,2.1-2
			c0.9-0.5,1.9-0.7,3-0.7c1.1,0,2.1,0.2,3,0.7c0.9,0.5,1.6,1.2,2.1,2c0.5,0.9,0.8,1.8,0.8,2.9s-0.3,2-0.8,2.9s-1.2,1.5-2.1,2
			c-0.9,0.5-1.9,0.7-3,0.7C204.6,807.7,203.5,807.5,202.6,807z M207.4,805.2c0.5-0.3,0.9-0.7,1.2-1.2s0.4-1.1,0.4-1.8
			s-0.1-1.3-0.4-1.8s-0.7-0.9-1.2-1.2c-0.5-0.3-1.1-0.4-1.7-0.4s-1.2,0.1-1.7,0.4s-0.9,0.7-1.2,1.2s-0.4,1.1-0.4,1.8s0.1,1.3,0.4,1.8
			s0.7,0.9,1.2,1.2s1.1,0.4,1.7,0.4S206.9,805.4,207.4,805.2z"/>
		<path class="st43" d="M220.4,807.5l-2.1-3h-0.1H216v3h-2.5v-10.8h4.7c1,0,1.8,0.2,2.5,0.5c0.7,0.3,1.3,0.8,1.6,1.4
			c0.4,0.6,0.6,1.3,0.6,2.1s-0.2,1.5-0.6,2.1c-0.4,0.6-0.9,1-1.6,1.3l2.4,3.5H220.4z M219.8,799.2c-0.4-0.3-1-0.5-1.7-0.5h-2v3.8h2
			c0.8,0,1.3-0.2,1.7-0.5c0.4-0.3,0.6-0.8,0.6-1.4C220.4,800,220.2,799.6,219.8,799.2z"/>
		<path class="st43" d="M227,798.8h-3.5v-2h9.4v2h-3.5v8.8H227V798.8z"/>
		<path class="st43" d="M234.3,796.7h2.5v10.8h-2.5V796.7z"/>
		<path class="st43" d="M249.3,796.7v10.8h-2.1l-5.4-6.6v6.6h-2.5v-10.8h2.1l5.4,6.6v-6.6H249.3z"/>
		<path class="st43" d="M259.2,802h2.3v4.4c-0.6,0.4-1.3,0.8-2,1c-0.8,0.2-1.6,0.4-2.3,0.4c-1.1,0-2.1-0.2-3-0.7
			c-0.9-0.5-1.6-1.1-2.1-2c-0.5-0.9-0.8-1.8-0.8-2.9s0.3-2,0.8-2.9s1.2-1.5,2.1-2c0.9-0.5,1.9-0.7,3.1-0.7c0.9,0,1.8,0.2,2.6,0.5
			c0.8,0.3,1.4,0.8,2,1.4l-1.6,1.5c-0.8-0.8-1.7-1.2-2.8-1.2c-0.7,0-1.3,0.1-1.8,0.4c-0.5,0.3-1,0.7-1.3,1.2
			c-0.3,0.5-0.4,1.1-0.4,1.8c0,0.7,0.1,1.3,0.4,1.8c0.3,0.5,0.7,0.9,1.2,1.2s1.1,0.4,1.8,0.4c0.7,0,1.4-0.2,2-0.5V802z"/>
	</g>
	<g>
		<g>
			<path class="st43" d="M22.2,144.8v3.3h-1.3v-3.3l-3.8-6.2h1.4l3,5l3-5H26L22.2,144.8z"/>
			<path class="st43" d="M27.5,147.7c-0.6-0.3-1-0.8-1.3-1.3c-0.3-0.6-0.5-1.2-0.5-1.9s0.2-1.3,0.5-1.9c0.3-0.6,0.8-1,1.3-1.3
				s1.2-0.5,1.9-0.5c0.7,0,1.3,0.2,1.9,0.5s1,0.7,1.3,1.3s0.5,1.2,0.5,1.9s-0.2,1.3-0.5,1.9s-0.8,1-1.3,1.3s-1.2,0.5-1.9,0.5
				C28.7,148.1,28.1,148,27.5,147.7z M30.6,146.7c0.4-0.2,0.7-0.5,0.9-0.9c0.2-0.4,0.3-0.8,0.3-1.3s-0.1-0.9-0.3-1.3
				c-0.2-0.4-0.5-0.7-0.9-0.9c-0.4-0.2-0.8-0.3-1.2-0.3s-0.9,0.1-1.2,0.3c-0.4,0.2-0.7,0.5-0.9,0.9c-0.2,0.4-0.3,0.8-0.3,1.3
				s0.1,0.9,0.3,1.3c0.2,0.4,0.5,0.7,0.9,0.9c0.4,0.2,0.8,0.3,1.2,0.3S30.3,146.9,30.6,146.7z"/>
			<path class="st43" d="M41.6,140.9v7.2h-1.2V147c-0.3,0.4-0.6,0.7-1,0.9c-0.4,0.2-0.9,0.3-1.4,0.3c-1,0-1.7-0.3-2.3-0.8
				s-0.8-1.3-0.8-2.3v-4.1h1.3v4c0,0.7,0.2,1.2,0.5,1.6c0.3,0.4,0.8,0.5,1.4,0.5c0.7,0,1.2-0.2,1.6-0.6c0.4-0.4,0.6-1,0.6-1.8v-3.7
				H41.6z"/>
			<path class="st43" d="M53.7,141.6c0.5,0.5,0.8,1.3,0.8,2.3v4.1h-1.3v-4c0-0.7-0.2-1.2-0.5-1.6c-0.3-0.4-0.8-0.5-1.4-0.5
				c-0.7,0-1.3,0.2-1.7,0.6c-0.4,0.4-0.6,1-0.6,1.8v3.7h-1.3v-10H49v3.9c0.3-0.3,0.6-0.6,1.1-0.8c0.4-0.2,0.9-0.3,1.5-0.3
				C52.4,140.8,53.1,141.1,53.7,141.6z"/>
			<path class="st43" d="M61.8,141.6c0.5,0.5,0.8,1.2,0.8,2.2v4.3h-1.2v-0.9c-0.2,0.3-0.5,0.6-0.9,0.8c-0.4,0.2-0.9,0.3-1.4,0.3
				c-0.8,0-1.4-0.2-1.9-0.6c-0.5-0.4-0.7-0.9-0.7-1.5c0-0.6,0.2-1.1,0.7-1.5s1.2-0.6,2.2-0.6h2.1v-0.3c0-0.6-0.2-1-0.5-1.3
				c-0.3-0.3-0.8-0.4-1.4-0.4c-0.4,0-0.8,0.1-1.2,0.2s-0.7,0.3-1,0.6l-0.5-1c0.4-0.3,0.8-0.5,1.3-0.7c0.5-0.2,1.1-0.2,1.6-0.2
				C60.5,140.8,61.2,141.1,61.8,141.6z M60.5,146.8c0.4-0.2,0.6-0.5,0.8-0.9v-1h-2c-1.1,0-1.6,0.4-1.6,1.1c0,0.4,0.1,0.6,0.4,0.9
				c0.3,0.2,0.7,0.3,1.2,0.3S60.1,147,60.5,146.8z"/>
			<path class="st43" d="M71.2,140.9l-3.1,7.2h-1.3l-3.1-7.2h1.4l2.5,5.7l2.5-5.7H71.2z"/>
			<path class="st43" d="M78.6,144.9h-5.8c0.1,0.6,0.4,1.1,0.8,1.5c0.5,0.4,1.1,0.6,1.8,0.6c0.9,0,1.5-0.3,2.1-0.9l0.7,0.8
				c-0.3,0.4-0.7,0.7-1.2,0.9s-1,0.3-1.6,0.3c-0.8,0-1.4-0.2-2-0.5c-0.6-0.3-1-0.7-1.4-1.3c-0.3-0.6-0.5-1.2-0.5-1.9
				c0-0.7,0.2-1.3,0.5-1.9s0.7-1,1.3-1.3s1.2-0.5,1.8-0.5c0.7,0,1.3,0.2,1.8,0.5c0.5,0.3,1,0.7,1.3,1.3s0.5,1.2,0.5,1.9
				C78.6,144.6,78.6,144.7,78.6,144.9z M73.5,142.5c-0.4,0.4-0.7,0.9-0.7,1.5h4.6c-0.1-0.6-0.3-1.1-0.7-1.5s-0.9-0.6-1.6-0.6
				C74.5,141.9,74,142.1,73.5,142.5z"/>
			<path class="st43" d="M89,141.6c0.5,0.5,0.8,1.2,0.8,2.2v4.3h-1.2v-0.9c-0.2,0.3-0.5,0.6-0.9,0.8c-0.4,0.2-0.9,0.3-1.4,0.3
				c-0.8,0-1.4-0.2-1.9-0.6c-0.5-0.4-0.7-0.9-0.7-1.5c0-0.6,0.2-1.1,0.7-1.5s1.2-0.6,2.2-0.6h2.1v-0.3c0-0.6-0.2-1-0.5-1.3
				c-0.3-0.3-0.8-0.4-1.4-0.4c-0.4,0-0.8,0.1-1.2,0.2s-0.7,0.3-1,0.6l-0.5-1c0.4-0.3,0.8-0.5,1.3-0.7c0.5-0.2,1.1-0.2,1.6-0.2
				C87.7,140.8,88.4,141.1,89,141.6z M87.7,146.8c0.4-0.2,0.6-0.5,0.8-0.9v-1h-2c-1.1,0-1.6,0.4-1.6,1.1c0,0.4,0.1,0.6,0.4,0.9
				c0.3,0.2,0.7,0.3,1.2,0.3S87.3,147,87.7,146.8z"/>
			<path class="st43" d="M98.1,141.6c0.5,0.5,0.8,1.3,0.8,2.3v4.1h-1.3v-4c0-0.7-0.2-1.2-0.5-1.6c-0.3-0.4-0.8-0.5-1.4-0.5
				c-0.7,0-1.3,0.2-1.7,0.6c-0.4,0.4-0.6,1-0.6,1.8v3.7h-1.3v-7.2h1.2v1.1c0.3-0.4,0.6-0.7,1.1-0.9c0.4-0.2,1-0.3,1.5-0.3
				C96.9,140.8,97.6,141.1,98.1,141.6z"/>
			<path class="st43" d="M18.5,155.8H21v10.8h-2.5V155.8z"/>
			<path class="st43" d="M23.5,155.8h4.9c1.2,0,2.2,0.2,3.1,0.7s1.6,1.1,2.1,1.9c0.5,0.8,0.8,1.8,0.8,2.8c0,1.1-0.3,2-0.8,2.8
				c-0.5,0.8-1.2,1.4-2.1,1.9c-0.9,0.4-1.9,0.7-3.1,0.7h-4.9V155.8z M28.3,164.6c1.1,0,1.9-0.3,2.6-0.9c0.6-0.6,1-1.4,1-2.5
				c0-1-0.3-1.8-1-2.5c-0.6-0.6-1.5-0.9-2.6-0.9h-2.3v6.7H28.3z"/>
			<path class="st43" d="M44.7,164.6v2h-8.4v-10.8h8.2v2h-5.7v2.4h5v2h-5v2.5H44.7z"/>
			<path class="st43" d="M53.8,164.3h-5l-1,2.3h-2.6l4.8-10.8h2.5l4.8,10.8h-2.6L53.8,164.3z M53.1,162.4l-1.7-4.1l-1.7,4.1H53.1z"/>
			<path class="st43" d="M64.4,158.8v0.6h2.1v1.1h-2.1v6.1h-1.3v-6.1h-1.2v-1.1h1.2v-0.6c0-0.7,0.2-1.3,0.6-1.7
				c0.4-0.4,1-0.6,1.7-0.6c0.3,0,0.6,0,0.8,0.1s0.5,0.2,0.6,0.3l-0.4,1c-0.3-0.2-0.6-0.3-1-0.3C64.7,157.6,64.4,158,64.4,158.8z"/>
			<path class="st43" d="M68.7,166.2c-0.6-0.3-1-0.8-1.3-1.3c-0.3-0.6-0.5-1.2-0.5-1.9s0.2-1.3,0.5-1.9c0.3-0.6,0.8-1,1.3-1.3
				s1.2-0.5,1.9-0.5c0.7,0,1.3,0.2,1.9,0.5s1,0.7,1.3,1.3s0.5,1.2,0.5,1.9s-0.2,1.3-0.5,1.9s-0.8,1-1.3,1.3s-1.2,0.5-1.9,0.5
				C69.9,166.7,69.3,166.6,68.7,166.2z M71.9,165.3c0.4-0.2,0.7-0.5,0.9-0.9c0.2-0.4,0.3-0.8,0.3-1.3s-0.1-0.9-0.3-1.3
				c-0.2-0.4-0.5-0.7-0.9-0.9c-0.4-0.2-0.8-0.3-1.2-0.3s-0.9,0.1-1.2,0.3c-0.4,0.2-0.7,0.5-0.9,0.9c-0.2,0.4-0.3,0.8-0.3,1.3
				s0.1,0.9,0.3,1.3c0.2,0.4,0.5,0.7,0.9,0.9c0.4,0.2,0.8,0.3,1.2,0.3S71.5,165.5,71.9,165.3z"/>
			<path class="st43" d="M78.4,159.7c0.4-0.2,1-0.3,1.6-0.3v1.3c-0.1,0-0.2,0-0.3,0c-0.7,0-1.3,0.2-1.7,0.6c-0.4,0.4-0.6,1-0.6,1.8
				v3.6h-1.3v-7.2h1.2v1.2C77.6,160.3,77.9,159.9,78.4,159.7z"/>
			<path class="st43" d="M18.8,180c-0.5-0.2-1-0.4-1.3-0.6l0.5-1c0.3,0.2,0.7,0.4,1.1,0.5c0.5,0.1,0.9,0.2,1.4,0.2
				c1.1,0,1.7-0.3,1.7-1c0-0.2-0.1-0.4-0.2-0.5s-0.3-0.2-0.6-0.3s-0.6-0.1-1-0.2c-0.6-0.1-1-0.2-1.4-0.3c-0.4-0.1-0.7-0.3-0.9-0.6
				s-0.4-0.7-0.4-1.2c0-0.6,0.3-1.2,0.8-1.6s1.3-0.6,2.2-0.6c0.5,0,1,0.1,1.4,0.2c0.5,0.1,0.9,0.3,1.2,0.5l-0.6,1
				c-0.6-0.4-1.3-0.6-2.1-0.6c-0.5,0-1,0.1-1.3,0.3c-0.3,0.2-0.4,0.4-0.4,0.7c0,0.2,0.1,0.4,0.2,0.6c0.2,0.1,0.4,0.2,0.6,0.3
				c0.2,0.1,0.6,0.1,1,0.2c0.6,0.1,1,0.2,1.4,0.3c0.4,0.1,0.7,0.3,0.9,0.6s0.4,0.6,0.4,1.1c0,0.6-0.3,1.2-0.8,1.5s-1.3,0.6-2.3,0.6
				C19.9,180.2,19.3,180.1,18.8,180z"/>
			<path class="st43" d="M26.3,179.7c-0.6-0.3-1-0.8-1.3-1.3c-0.3-0.6-0.5-1.2-0.5-1.9s0.2-1.3,0.5-1.9c0.3-0.6,0.8-1,1.3-1.3
				s1.2-0.5,1.9-0.5c0.7,0,1.3,0.2,1.9,0.5s1,0.7,1.3,1.3s0.5,1.2,0.5,1.9s-0.2,1.3-0.5,1.9s-0.8,1-1.3,1.3s-1.2,0.5-1.9,0.5
				C27.5,180.2,26.9,180,26.3,179.7z M29.5,178.8c0.4-0.2,0.7-0.5,0.9-0.9c0.2-0.4,0.3-0.8,0.3-1.3s-0.1-0.9-0.3-1.3
				c-0.2-0.4-0.5-0.7-0.9-0.9c-0.4-0.2-0.8-0.3-1.2-0.3s-0.9,0.1-1.2,0.3c-0.4,0.2-0.7,0.5-0.9,0.9c-0.2,0.4-0.3,0.8-0.3,1.3
				s0.1,0.9,0.3,1.3c0.2,0.4,0.5,0.7,0.9,0.9c0.4,0.2,0.8,0.3,1.2,0.3S29.1,179,29.5,178.8z"/>
			<path class="st43" d="M34.9,179.7c-0.6-0.3-1-0.8-1.3-1.3s-0.5-1.2-0.5-1.9s0.2-1.3,0.5-1.9s0.8-1,1.3-1.3c0.6-0.3,1.2-0.5,2-0.5
				c0.6,0,1.2,0.1,1.7,0.4c0.5,0.3,0.9,0.6,1.2,1.1l-1,0.6c-0.2-0.3-0.5-0.6-0.8-0.8c-0.3-0.2-0.7-0.3-1.1-0.3
				c-0.5,0-0.9,0.1-1.3,0.3c-0.4,0.2-0.7,0.5-0.9,0.9c-0.2,0.4-0.3,0.8-0.3,1.3c0,0.5,0.1,0.9,0.3,1.3c0.2,0.4,0.5,0.7,0.9,0.9
				c0.4,0.2,0.8,0.3,1.3,0.3c0.4,0,0.8-0.1,1.1-0.3c0.3-0.2,0.6-0.4,0.8-0.8l1,0.6c-0.3,0.5-0.7,0.9-1.2,1.1s-1.1,0.4-1.7,0.4
				C36.1,180.2,35.5,180,34.9,179.7z"/>
			<path class="st43" d="M41.5,171.3c-0.2-0.2-0.3-0.4-0.3-0.6s0.1-0.4,0.3-0.6c0.2-0.2,0.4-0.3,0.6-0.3s0.5,0.1,0.6,0.2
				c0.2,0.2,0.3,0.4,0.3,0.6c0,0.2-0.1,0.4-0.3,0.6c-0.2,0.2-0.4,0.3-0.6,0.3S41.7,171.5,41.5,171.3z M41.5,173h1.3v7.2h-1.3V173z"/>
			<path class="st43" d="M50.1,173.6c0.5,0.5,0.8,1.2,0.8,2.2v4.3h-1.2v-0.9c-0.2,0.3-0.5,0.6-0.9,0.8c-0.4,0.2-0.9,0.3-1.4,0.3
				c-0.8,0-1.4-0.2-1.9-0.6c-0.5-0.4-0.7-0.9-0.7-1.5c0-0.6,0.2-1.1,0.7-1.5s1.2-0.6,2.2-0.6h2.1v-0.3c0-0.6-0.2-1-0.5-1.3
				c-0.3-0.3-0.8-0.4-1.4-0.4c-0.4,0-0.8,0.1-1.2,0.2s-0.7,0.3-1,0.6l-0.5-1c0.4-0.3,0.8-0.5,1.3-0.7c0.5-0.2,1.1-0.2,1.6-0.2
				C48.8,172.9,49.6,173.1,50.1,173.6z M48.8,178.9c0.4-0.2,0.6-0.5,0.8-0.9v-1h-2c-1.1,0-1.6,0.4-1.6,1.1c0,0.4,0.1,0.6,0.4,0.9
				c0.3,0.2,0.7,0.3,1.2,0.3S48.5,179.1,48.8,178.9z"/>
			<path class="st43" d="M53.3,170.1h1.3v10h-1.3V170.1z"/>
			<path class="st43" d="M60.7,171.3c-0.2-0.2-0.3-0.4-0.3-0.6s0.1-0.4,0.3-0.6c0.2-0.2,0.4-0.3,0.6-0.3s0.5,0.1,0.6,0.2
				c0.2,0.2,0.3,0.4,0.3,0.6c0,0.2-0.1,0.4-0.3,0.6c-0.2,0.2-0.4,0.3-0.6,0.3S60.9,171.5,60.7,171.3z M60.7,173H62v7.2h-1.3V173z"/>
			<path class="st43" d="M75.6,173.7c0.5,0.5,0.8,1.3,0.8,2.3v4.1h-1.3v-4c0-0.7-0.2-1.2-0.5-1.6c-0.3-0.4-0.8-0.5-1.4-0.5
				c-0.7,0-1.2,0.2-1.6,0.6c-0.4,0.4-0.6,1-0.6,1.8v3.7h-1.3v-4c0-0.7-0.2-1.2-0.5-1.6c-0.3-0.4-0.8-0.5-1.4-0.5
				c-0.7,0-1.2,0.2-1.6,0.6c-0.4,0.4-0.6,1-0.6,1.8v3.7h-1.3V173h1.2v1.1c0.3-0.4,0.6-0.7,1-0.8c0.4-0.2,0.9-0.3,1.4-0.3
				c0.6,0,1.1,0.1,1.5,0.3c0.4,0.2,0.8,0.6,1,1c0.3-0.4,0.6-0.7,1.1-1c0.5-0.2,1-0.4,1.6-0.4C74.3,172.9,75,173.2,75.6,173.7z"/>
			<path class="st43" d="M84.4,173.4c0.5,0.3,1,0.7,1.3,1.3c0.3,0.5,0.5,1.2,0.5,1.9c0,0.7-0.2,1.4-0.5,1.9s-0.7,1-1.3,1.3
				c-0.5,0.3-1.2,0.5-1.9,0.5c-0.5,0-1-0.1-1.4-0.3s-0.8-0.5-1.1-0.9v3.7h-1.3V173H80v1.1c0.3-0.4,0.7-0.7,1.1-0.9
				c0.4-0.2,0.9-0.3,1.5-0.3C83.2,172.9,83.9,173.1,84.4,173.4z M83.7,178.8c0.4-0.2,0.7-0.5,0.9-0.9c0.2-0.4,0.3-0.8,0.3-1.3
				s-0.1-0.9-0.3-1.3c-0.2-0.4-0.5-0.7-0.9-0.9c-0.4-0.2-0.8-0.3-1.2-0.3c-0.5,0-0.9,0.1-1.2,0.3c-0.4,0.2-0.7,0.5-0.9,0.9
				c-0.2,0.4-0.3,0.8-0.3,1.3s0.1,0.9,0.3,1.3c0.2,0.4,0.5,0.7,0.9,0.9c0.4,0.2,0.8,0.3,1.2,0.3C82.9,179.1,83.3,179,83.7,178.8z"/>
			<path class="st43" d="M92.8,173.6c0.5,0.5,0.8,1.2,0.8,2.2v4.3h-1.2v-0.9c-0.2,0.3-0.5,0.6-0.9,0.8c-0.4,0.2-0.9,0.3-1.4,0.3
				c-0.8,0-1.4-0.2-1.9-0.6c-0.5-0.4-0.7-0.9-0.7-1.5c0-0.6,0.2-1.1,0.7-1.5s1.2-0.6,2.2-0.6h2.1v-0.3c0-0.6-0.2-1-0.5-1.3
				c-0.3-0.3-0.8-0.4-1.4-0.4c-0.4,0-0.8,0.1-1.2,0.2s-0.7,0.3-1,0.6l-0.5-1c0.4-0.3,0.8-0.5,1.3-0.7c0.5-0.2,1.1-0.2,1.6-0.2
				C91.5,172.9,92.3,173.1,92.8,173.6z M91.5,178.9c0.4-0.2,0.6-0.5,0.8-0.9v-1h-2c-1.1,0-1.6,0.4-1.6,1.1c0,0.4,0.1,0.6,0.4,0.9
				c0.3,0.2,0.7,0.3,1.2,0.3S91.1,179.1,91.5,178.9z"/>
			<path class="st43" d="M97.2,179.7c-0.6-0.3-1-0.8-1.3-1.3s-0.5-1.2-0.5-1.9s0.2-1.3,0.5-1.9s0.8-1,1.3-1.3c0.6-0.3,1.2-0.5,2-0.5
				c0.6,0,1.2,0.1,1.7,0.4c0.5,0.3,0.9,0.6,1.2,1.1l-1,0.6c-0.2-0.3-0.5-0.6-0.8-0.8c-0.3-0.2-0.7-0.3-1.1-0.3
				c-0.5,0-0.9,0.1-1.3,0.3c-0.4,0.2-0.7,0.5-0.9,0.9c-0.2,0.4-0.3,0.8-0.3,1.3c0,0.5,0.1,0.9,0.3,1.3c0.2,0.4,0.5,0.7,0.9,0.9
				c0.4,0.2,0.8,0.3,1.3,0.3c0.4,0,0.8-0.1,1.1-0.3c0.3-0.2,0.6-0.4,0.8-0.8l1,0.6c-0.3,0.5-0.7,0.9-1.2,1.1s-1.1,0.4-1.7,0.4
				C98.4,180.2,97.8,180,97.2,179.7z"/>
			<path class="st43" d="M107.8,179.7c-0.2,0.2-0.4,0.3-0.7,0.4c-0.3,0.1-0.6,0.1-0.9,0.1c-0.7,0-1.3-0.2-1.7-0.6
				c-0.4-0.4-0.6-0.9-0.6-1.7V174h-1.2V173h1.2v-1.6h1.3v1.6h2.1v1.1h-2.1v3.9c0,0.4,0.1,0.7,0.3,0.9s0.5,0.3,0.8,0.3
				c0.4,0,0.7-0.1,1-0.3L107.8,179.7z"/>
		</g>
	</g>
	<g>
		<path class="st43" d="M214.1,336.2h-5l-1,2.3h-2.6l4.8-10.8h2.5l4.8,10.8h-2.6L214.1,336.2z M213.3,334.3l-1.7-4.1l-1.7,4.1H213.3z
			"/>
		<path class="st43" d="M226,328.1c0.7,0.3,1.3,0.8,1.6,1.4c0.4,0.6,0.6,1.3,0.6,2.1c0,0.8-0.2,1.5-0.6,2.1c-0.4,0.6-0.9,1-1.6,1.4
			c-0.7,0.3-1.5,0.5-2.5,0.5h-2.2v3h-2.5v-10.8h4.7C224.5,327.7,225.3,327.8,226,328.1z M225.1,333c0.4-0.3,0.6-0.8,0.6-1.4
			c0-0.6-0.2-1.1-0.6-1.4c-0.4-0.3-1-0.5-1.7-0.5h-2v3.8h2C224.1,333.5,224.7,333.3,225.1,333z"/>
		<path class="st43" d="M237.2,328.1c0.7,0.3,1.3,0.8,1.6,1.4c0.4,0.6,0.6,1.3,0.6,2.1c0,0.8-0.2,1.5-0.6,2.1c-0.4,0.6-0.9,1-1.6,1.4
			c-0.7,0.3-1.5,0.5-2.5,0.5h-2.2v3H230v-10.8h4.7C235.7,327.7,236.5,327.8,237.2,328.1z M236.3,333c0.4-0.3,0.6-0.8,0.6-1.4
			c0-0.6-0.2-1.1-0.6-1.4c-0.4-0.3-1-0.5-1.7-0.5h-2v3.8h2C235.3,333.5,235.9,333.3,236.3,333z"/>
		<path class="st43" d="M248.1,338.5l-2.1-3h-0.1h-2.2v3h-2.5v-10.8h4.7c1,0,1.8,0.2,2.5,0.5c0.7,0.3,1.3,0.8,1.6,1.4
			c0.4,0.6,0.6,1.3,0.6,2.1s-0.2,1.5-0.6,2.1c-0.4,0.6-0.9,1-1.6,1.3l2.4,3.5H248.1z M247.4,330.2c-0.4-0.3-1-0.5-1.7-0.5h-2v3.8h2
			c0.8,0,1.3-0.2,1.7-0.5c0.4-0.3,0.6-0.8,0.6-1.4C248,331,247.8,330.5,247.4,330.2z"/>
		<path class="st43" d="M254.8,338c-0.9-0.5-1.6-1.2-2.1-2s-0.8-1.8-0.8-2.9s0.3-2,0.8-2.9c0.5-0.9,1.2-1.5,2.1-2
			c0.9-0.5,1.9-0.7,3-0.7c1.1,0,2.1,0.2,3,0.7c0.9,0.5,1.6,1.2,2.1,2c0.5,0.9,0.8,1.8,0.8,2.9s-0.3,2-0.8,2.9s-1.2,1.5-2.1,2
			c-0.9,0.5-1.9,0.7-3,0.7C256.7,338.7,255.7,338.4,254.8,338z M259.5,336.1c0.5-0.3,0.9-0.7,1.2-1.2s0.4-1.1,0.4-1.8
			s-0.1-1.3-0.4-1.8s-0.7-0.9-1.2-1.2c-0.5-0.3-1.1-0.4-1.7-0.4s-1.2,0.1-1.7,0.4c-0.5,0.3-0.9,0.7-1.2,1.2s-0.4,1.1-0.4,1.8
			s0.1,1.3,0.4,1.8s0.7,0.9,1.2,1.2c0.5,0.3,1.1,0.4,1.7,0.4S259,336.4,259.5,336.1z"/>
		<path class="st43" d="M275.7,327.7l-4.7,10.8h-2.5l-4.7-10.8h2.7l3.3,7.7l3.3-7.7H275.7z"/>
		<path class="st43" d="M283.4,336.2h-5l-1,2.3h-2.6l4.8-10.8h2.5l4.8,10.8h-2.6L283.4,336.2z M282.6,334.3l-1.7-4.1l-1.7,4.1H282.6z
			"/>
		<path class="st43" d="M288.1,327.7h2.5v8.8h5.4v2h-7.9V327.7z"/>
	</g>
	<g>
		<path class="st43" d="M47.4,510.6c-0.8-0.2-1.4-0.5-1.9-0.9l0.9-1.9c0.5,0.3,1,0.6,1.7,0.8s1.3,0.3,1.9,0.3c0.7,0,1.2-0.1,1.6-0.3
			c0.3-0.2,0.5-0.5,0.5-0.8c0-0.3-0.1-0.5-0.3-0.6c-0.2-0.2-0.5-0.3-0.8-0.4c-0.3-0.1-0.7-0.2-1.3-0.3c-0.8-0.2-1.5-0.4-2-0.6
			c-0.5-0.2-1-0.5-1.4-0.9c-0.4-0.4-0.6-1-0.6-1.7c0-0.6,0.2-1.2,0.5-1.7c0.3-0.5,0.9-0.9,1.5-1.2c0.7-0.3,1.5-0.4,2.5-0.4
			c0.7,0,1.4,0.1,2,0.2c0.7,0.2,1.2,0.4,1.7,0.7l-0.8,1.9c-1-0.6-2-0.9-3-0.9c-0.7,0-1.2,0.1-1.6,0.3c-0.3,0.2-0.5,0.5-0.5,0.9
			c0,0.4,0.2,0.6,0.6,0.8s1,0.4,1.8,0.5c0.8,0.2,1.5,0.4,2,0.6s1,0.5,1.4,0.9c0.4,0.4,0.6,1,0.6,1.7c0,0.6-0.2,1.2-0.5,1.7
			s-0.9,0.9-1.6,1.2c-0.7,0.3-1.5,0.4-2.5,0.4C49,510.9,48.2,510.8,47.4,510.6z"/>
		<path class="st43" d="M58.3,501.9h-3.5v-2h9.4v2h-3.5v8.8h-2.5V501.9z"/>
		<path class="st43" d="M72.2,508.4h-5l-1,2.3h-2.6l4.8-10.8H71l4.8,10.8h-2.6L72.2,508.4z M71.4,506.5l-1.7-4.1l-1.7,4.1H71.4z"/>
		<path class="st43" d="M83.8,510.7l-2.1-3h-0.1h-2.2v3h-2.5v-10.8h4.7c1,0,1.8,0.2,2.5,0.5c0.7,0.3,1.3,0.8,1.6,1.4
			c0.4,0.6,0.6,1.3,0.6,2.1s-0.2,1.5-0.6,2.1c-0.4,0.6-0.9,1-1.6,1.3l2.4,3.5H83.8z M83.2,502.4c-0.4-0.3-1-0.5-1.7-0.5h-2v3.8h2
			c0.8,0,1.3-0.2,1.7-0.5c0.4-0.3,0.6-0.8,0.6-1.4C83.8,503.2,83.6,502.8,83.2,502.4z"/>
		<path class="st43" d="M90.4,501.9h-3.5v-2h9.4v2h-3.5v8.8h-2.5V501.9z"/>
	</g>
	<g>
		<path class="st61" d="M176.4,768.2c-24.1,5.8-53.9,13.2-90.3,24.9c-25.7,8.2-52.2,17.8-66.5,42.8c-3.1,5.4-14.5,27-6.4,46.2
			c7.3,17.2,19.9,26.4,22.1,27.7c20.6,12.2,42,4.4,44.9,3.3"/>
		<path class="st61" d="M32.5,625.6c-2.4,1.7-4.5,4.1-6.7,6.5c-5.6,6-26,27.8-20.3,47.5c8.4,29.3,70.5,38.1,114.4,32.2
			c61.2-8.2,123.9-49.7,119.1-75.9c-3.3-17.7-38.3-33.3-55.5-22.5c-9.2,5.8-15.8,20.6-11.4,32.2c10,26.6,69,11.8,87.3,43.6
			c6.7,11.7,7,27.9,1.7,40.3c-5.4,12.4-16,19.4-33.3,25.3"/>
		<path class="st61" d="M168.1,576.2c-11,8.2,6.4-1.7-10.8,6.2c-19.7,9.1-36.4,14.1-51,17.5"/>
		<path class="st61" d="M97.9,429.1c36.4-24.9,87.1-6.4,96.6-3c15.6,5.7,47.1,17.1,53.8,43.6c2.8,11.1,0.5,21.7-3.2,30.7"/>
		<path class="st61" d="M238.7,347.4c-17.8,5.7-46.1,6-94.2,10.1c-78,6.6-91.7,13.4-102.6,22.9C18.3,401.1,12.5,431.6,9.8,446
			c-4.2,21.8-5.2,56.1,6.4,60.2c5.7,2,11.6-5.2,23.7-14.8"/>
		<path class="st61" d="M105.5,323.5c4.4,0.6,8.5,0.4,12.5-0.6c27.4-6.7,45.3-47.4,92.6-47.3c5.3,0,11.4,0.5,17.6,1.7"/>
		<path class="st61" d="M212.3,222.7c-6,3-12.2,5.5-18.4,7.2c-15.3,4.2-30.3,3.8-41.8-3.6c-6.5-4.2-30.9-16.4-39.8-20.9
			c-20.3-10.4-50.9-3.6-60.6,10.2c-3.5,5-5,8.8-5.4,16.1"/>
		<path class="st61" d="M88.2,137.7c50-37.6,106.7-46.2,142.2-22c2.2,1.5,31,21.7,29.9,48.9c-0.3,6.3-1.1,10.3-4.4,16.6"/>
		<path class="st61" d="M159.4,86.3c12.6,1.2,33.5,5,55.4,18c12.9,7.7,22.4,16.3,29,23.4"/>
	</g>
	<g>
		<path class="st43" d="M4.2,300.6c-0.7-0.4-1.3-1-1.7-1.7c-0.4-0.7-0.6-1.5-0.6-2.4c0-0.9,0.2-1.7,0.6-2.4c0.4-0.7,1-1.3,1.7-1.7
			c0.7-0.4,1.5-0.6,2.5-0.6c0.7,0,1.4,0.1,1.9,0.4c0.6,0.2,1.1,0.6,1.5,1.1l-0.8,0.8c-0.7-0.7-1.5-1.1-2.5-1.1
			c-0.7,0-1.3,0.2-1.8,0.5c-0.5,0.3-1,0.7-1.3,1.2s-0.5,1.1-0.5,1.8c0,0.7,0.2,1.2,0.5,1.8s0.7,0.9,1.3,1.2c0.5,0.3,1.1,0.5,1.8,0.5
			c1,0,1.9-0.4,2.5-1.1l0.8,0.8c-0.4,0.5-0.9,0.8-1.5,1.1c-0.6,0.2-1.2,0.4-1.9,0.4C5.7,301.2,4.9,301,4.2,300.6z"/>
		<path class="st43" d="M16.3,294.9c0.5,0.5,0.8,1.2,0.8,2.1v4.1h-1.2v-0.9c-0.2,0.3-0.5,0.6-0.9,0.7c-0.4,0.2-0.8,0.3-1.4,0.3
			c-0.8,0-1.4-0.2-1.8-0.6c-0.5-0.4-0.7-0.9-0.7-1.5c0-0.6,0.2-1.1,0.7-1.5c0.4-0.4,1.1-0.5,2.1-0.5h2v-0.2c0-0.5-0.2-0.9-0.5-1.2
			s-0.8-0.4-1.4-0.4c-0.4,0-0.8,0.1-1.2,0.2c-0.4,0.1-0.7,0.3-1,0.5l-0.5-0.9c0.4-0.3,0.8-0.5,1.3-0.7c0.5-0.2,1-0.2,1.6-0.2
			C15.1,294.2,15.8,294.4,16.3,294.9z M15.1,299.9c0.3-0.2,0.6-0.5,0.7-0.9v-1h-1.9c-1.1,0-1.6,0.4-1.6,1.1c0,0.3,0.1,0.6,0.4,0.8
			c0.3,0.2,0.6,0.3,1.1,0.3S14.8,300.1,15.1,299.9z"/>
		<path class="st43" d="M30,294.9c0.5,0.5,0.8,1.2,0.8,2.2v3.9h-1.2v-3.8c0-0.7-0.2-1.2-0.5-1.5s-0.7-0.5-1.3-0.5
			c-0.6,0-1.1,0.2-1.5,0.6c-0.4,0.4-0.6,1-0.6,1.7v3.5h-1.2v-3.8c0-0.7-0.2-1.2-0.5-1.5s-0.7-0.5-1.3-0.5c-0.6,0-1.1,0.2-1.5,0.6
			c-0.4,0.4-0.6,1-0.6,1.7v3.5h-1.2v-6.8h1.2v1c0.3-0.4,0.6-0.6,1-0.8c0.4-0.2,0.9-0.3,1.4-0.3c0.5,0,1,0.1,1.4,0.3
			c0.4,0.2,0.7,0.5,1,0.9c0.3-0.4,0.6-0.7,1.1-0.9c0.5-0.2,1-0.3,1.6-0.3C28.8,294.2,29.5,294.4,30,294.9z"/>
		<path class="st43" d="M38.5,294.6c0.5,0.3,0.9,0.7,1.2,1.2s0.4,1.1,0.4,1.8c0,0.7-0.1,1.3-0.4,1.8s-0.7,0.9-1.2,1.2
			c-0.5,0.3-1.1,0.4-1.8,0.4c-0.5,0-0.9-0.1-1.3-0.3c-0.4-0.2-0.8-0.5-1-0.8v3.5H33v-9.4h1.2v1.1c0.3-0.4,0.6-0.7,1-0.9
			c0.4-0.2,0.9-0.3,1.4-0.3C37.3,294.2,37.9,294.3,38.5,294.6z M37.8,299.8c0.3-0.2,0.6-0.5,0.8-0.9s0.3-0.8,0.3-1.3
			s-0.1-0.9-0.3-1.3c-0.2-0.4-0.5-0.6-0.8-0.8s-0.7-0.3-1.2-0.3c-0.4,0-0.8,0.1-1.2,0.3s-0.6,0.5-0.8,0.8c-0.2,0.4-0.3,0.8-0.3,1.3
			s0.1,0.9,0.3,1.3s0.5,0.7,0.8,0.9c0.4,0.2,0.7,0.3,1.2,0.3C37,300.1,37.4,300,37.8,299.8z"/>
		<path class="st43" d="M46.5,294.9c0.5,0.5,0.8,1.2,0.8,2.1v4.1H46v-0.9c-0.2,0.3-0.5,0.6-0.9,0.7c-0.4,0.2-0.8,0.3-1.4,0.3
			c-0.8,0-1.4-0.2-1.8-0.6c-0.5-0.4-0.7-0.9-0.7-1.5c0-0.6,0.2-1.1,0.7-1.5c0.4-0.4,1.1-0.5,2.1-0.5h2v-0.2c0-0.5-0.2-0.9-0.5-1.2
			s-0.8-0.4-1.4-0.4c-0.4,0-0.8,0.1-1.2,0.2c-0.4,0.1-0.7,0.3-1,0.5l-0.5-0.9c0.4-0.3,0.8-0.5,1.3-0.7c0.5-0.2,1-0.2,1.6-0.2
			C45.2,294.2,46,294.4,46.5,294.9z M45.2,299.9c0.3-0.2,0.6-0.5,0.7-0.9v-1h-1.9c-1.1,0-1.6,0.4-1.6,1.1c0,0.3,0.1,0.6,0.4,0.8
			c0.3,0.2,0.6,0.3,1.1,0.3S44.9,300.1,45.2,299.9z"/>
		<path class="st43" d="M49.5,292.7c-0.2-0.2-0.2-0.3-0.2-0.6c0-0.2,0.1-0.4,0.2-0.6s0.4-0.2,0.6-0.2s0.4,0.1,0.6,0.2
			c0.2,0.2,0.2,0.3,0.2,0.6c0,0.2-0.1,0.4-0.2,0.6s-0.4,0.2-0.6,0.2S49.7,292.8,49.5,292.7z M49.5,294.2h1.2v6.8h-1.2V294.2z"/>
		<path class="st43" d="M59.7,294.2v5.9c0,1.2-0.3,2.1-0.9,2.7c-0.6,0.6-1.5,0.9-2.7,0.9c-0.6,0-1.3-0.1-1.8-0.3
			c-0.6-0.2-1.1-0.4-1.4-0.8l0.6-1c0.3,0.3,0.7,0.5,1.2,0.7c0.5,0.2,1,0.2,1.5,0.2c0.8,0,1.4-0.2,1.8-0.6s0.6-1,0.6-1.7v-0.5
			c-0.3,0.4-0.7,0.6-1.1,0.8c-0.4,0.2-0.9,0.3-1.4,0.3c-0.7,0-1.2-0.1-1.8-0.4c-0.5-0.3-0.9-0.7-1.2-1.2c-0.3-0.5-0.5-1.1-0.5-1.7
			c0-0.6,0.2-1.2,0.5-1.7c0.3-0.5,0.7-0.9,1.2-1.2c0.5-0.3,1.1-0.4,1.8-0.4c0.5,0,1,0.1,1.4,0.3s0.8,0.5,1.1,0.8v-1.1H59.7z
			M57.3,299.4c0.4-0.2,0.6-0.5,0.8-0.8s0.3-0.7,0.3-1.2c0-0.7-0.2-1.2-0.7-1.6c-0.4-0.4-1-0.6-1.7-0.6c-0.7,0-1.3,0.2-1.7,0.6
			c-0.4,0.4-0.7,0.9-0.7,1.6c0,0.4,0.1,0.8,0.3,1.2s0.5,0.6,0.8,0.8c0.4,0.2,0.8,0.3,1.2,0.3C56.5,299.7,56.9,299.6,57.3,299.4z"/>
		<path class="st43" d="M67.7,294.9c0.5,0.5,0.8,1.2,0.8,2.2v3.9h-1.2v-3.8c0-0.7-0.2-1.2-0.5-1.5s-0.8-0.5-1.4-0.5
			c-0.7,0-1.2,0.2-1.6,0.6c-0.4,0.4-0.6,1-0.6,1.7v3.5H62v-6.8h1.2v1c0.3-0.4,0.6-0.6,1-0.8c0.4-0.2,0.9-0.3,1.5-0.3
			C66.5,294.2,67.2,294.4,67.7,294.9z"/>
		<path class="st43" d="M80.8,292.9c0.7,0.6,1,1.3,1,2.3s-0.3,1.8-1,2.3c-0.7,0.6-1.6,0.8-2.8,0.8h-2.2v2.7h-1.3v-9H78
			C79.2,292,80.1,292.3,80.8,292.9z M79.8,296.7c0.4-0.3,0.6-0.8,0.6-1.5s-0.2-1.2-0.6-1.5c-0.4-0.3-1.1-0.5-1.9-0.5h-2.2v4.1H78
			C78.8,297.2,79.4,297,79.8,296.7z"/>
		<path class="st43" d="M83.6,291.5h1.2v9.6h-1.2V291.5z"/>
		<path class="st43" d="M91.9,294.9c0.5,0.5,0.8,1.2,0.8,2.1v4.1h-1.2v-0.9c-0.2,0.3-0.5,0.6-0.9,0.7c-0.4,0.2-0.8,0.3-1.4,0.3
			c-0.8,0-1.4-0.2-1.8-0.6c-0.5-0.4-0.7-0.9-0.7-1.5c0-0.6,0.2-1.1,0.7-1.5c0.4-0.4,1.1-0.5,2.1-0.5h2v-0.2c0-0.5-0.2-0.9-0.5-1.2
			s-0.8-0.4-1.4-0.4c-0.4,0-0.8,0.1-1.2,0.2c-0.4,0.1-0.7,0.3-1,0.5l-0.5-0.9c0.4-0.3,0.8-0.5,1.3-0.7c0.5-0.2,1-0.2,1.6-0.2
			C90.7,294.2,91.4,294.4,91.9,294.9z M90.7,299.9c0.3-0.2,0.6-0.5,0.7-0.9v-1h-1.9c-1.1,0-1.6,0.4-1.6,1.1c0,0.3,0.1,0.6,0.4,0.8
			c0.3,0.2,0.6,0.3,1.1,0.3S90.3,300.1,90.7,299.9z"/>
		<path class="st43" d="M98.8,300.7c-0.2,0.2-0.4,0.3-0.7,0.4c-0.3,0.1-0.5,0.1-0.8,0.1c-0.7,0-1.2-0.2-1.6-0.6s-0.6-0.9-0.6-1.6
			v-3.8H94v-1h1.2v-1.5h1.2v1.5h2v1h-2v3.7c0,0.4,0.1,0.7,0.3,0.9c0.2,0.2,0.5,0.3,0.8,0.3c0.4,0,0.7-0.1,1-0.3L98.8,300.7z"/>
		<path class="st43" d="M101.7,293.6v0.6h2v1h-2v5.8h-1.2v-5.8h-1.2v-1h1.2v-0.6c0-0.7,0.2-1.2,0.6-1.6c0.4-0.4,1-0.6,1.7-0.6
			c0.3,0,0.5,0,0.8,0.1c0.2,0.1,0.4,0.2,0.6,0.3l-0.4,0.9c-0.3-0.2-0.6-0.3-1-0.3C102.1,292.4,101.7,292.8,101.7,293.6z"/>
		<path class="st43" d="M108,294.5c0.4-0.2,0.9-0.3,1.5-0.3v1.2c-0.1,0-0.2,0-0.3,0c-0.7,0-1.2,0.2-1.6,0.6c-0.4,0.4-0.6,1-0.6,1.7
			v3.4h-1.2v-6.8h1.2v1.1C107.3,295,107.6,294.7,108,294.5z"/>
		<path class="st43" d="M112.1,300.7c-0.5-0.3-1-0.7-1.3-1.2c-0.3-0.5-0.5-1.1-0.5-1.8c0-0.7,0.2-1.3,0.5-1.8s0.7-0.9,1.3-1.2
			c0.5-0.3,1.2-0.4,1.8-0.4c0.7,0,1.3,0.1,1.8,0.4c0.5,0.3,1,0.7,1.3,1.2c0.3,0.5,0.5,1.1,0.5,1.8c0,0.7-0.2,1.3-0.5,1.8
			c-0.3,0.5-0.7,0.9-1.3,1.2c-0.5,0.3-1.1,0.5-1.8,0.5C113.3,301.1,112.7,301,112.1,300.7z M115.1,299.8c0.3-0.2,0.6-0.5,0.8-0.9
			s0.3-0.8,0.3-1.3s-0.1-0.9-0.3-1.3c-0.2-0.4-0.5-0.6-0.8-0.8s-0.7-0.3-1.2-0.3c-0.4,0-0.8,0.1-1.2,0.3s-0.6,0.5-0.8,0.8
			c-0.2,0.4-0.3,0.8-0.3,1.3s0.1,0.9,0.3,1.3s0.5,0.7,0.8,0.9s0.7,0.3,1.2,0.3C114.4,300.1,114.8,300,115.1,299.8z"/>
		<path class="st43" d="M129.8,294.9c0.5,0.5,0.8,1.2,0.8,2.2v3.9h-1.2v-3.8c0-0.7-0.2-1.2-0.5-1.5s-0.7-0.5-1.3-0.5
			c-0.6,0-1.1,0.2-1.5,0.6c-0.4,0.4-0.6,1-0.6,1.7v3.5h-1.2v-3.8c0-0.7-0.2-1.2-0.5-1.5s-0.7-0.5-1.3-0.5c-0.6,0-1.1,0.2-1.5,0.6
			c-0.4,0.4-0.6,1-0.6,1.7v3.5h-1.2v-6.8h1.2v1c0.3-0.4,0.6-0.6,1-0.8c0.4-0.2,0.9-0.3,1.4-0.3c0.5,0,1,0.1,1.4,0.3
			c0.4,0.2,0.7,0.5,1,0.9c0.3-0.4,0.6-0.7,1.1-0.9c0.5-0.2,1-0.3,1.6-0.3C128.6,294.2,129.3,294.4,129.8,294.9z"/>
	</g>
	<g>
		<path class="st43" d="M30.2,308.5l-4.4,10.1h-2.3l-4.4-10.1h2.5l3.1,7.2l3.1-7.2H30.2z"/>
		<path class="st43" d="M37.4,316.5h-4.7l-0.9,2.2h-2.4l4.5-10.1h2.3l4.5,10.1h-2.5L37.4,316.5z M36.6,314.7l-1.6-3.9l-1.6,3.9H36.6z
			"/>
		<path class="st43" d="M41.8,308.5h2.3v8.2h5.1v1.9h-7.4V308.5z"/>
		<path class="st43" d="M50.5,308.5h2.3v10.1h-2.3V308.5z"/>
		<path class="st43" d="M55.2,308.5h4.6c1.1,0,2.1,0.2,2.9,0.6c0.8,0.4,1.5,1,2,1.8c0.5,0.8,0.7,1.6,0.7,2.7s-0.2,1.9-0.7,2.7
			c-0.5,0.8-1.1,1.3-2,1.8s-1.8,0.6-2.9,0.6h-4.6V308.5z M59.7,316.7c1,0,1.8-0.3,2.4-0.8c0.6-0.6,0.9-1.3,0.9-2.3
			c0-1-0.3-1.7-0.9-2.3s-1.4-0.8-2.4-0.8h-2.1v6.3H59.7z"/>
		<path class="st43" d="M73.6,316.5h-4.7l-0.9,2.2h-2.4l4.5-10.1h2.3l4.5,10.1h-2.5L73.6,316.5z M72.9,314.7l-1.6-3.9l-1.6,3.9H72.9z
			"/>
		<path class="st43" d="M79.6,310.4h-3.2v-1.9h8.8v1.9h-3.2v8.2h-2.3V310.4z"/>
		<path class="st43" d="M86.4,308.5h2.3v10.1h-2.3V308.5z"/>
		<path class="st43" d="M93.2,318.1c-0.8-0.5-1.5-1.1-2-1.9c-0.5-0.8-0.7-1.7-0.7-2.7s0.2-1.9,0.7-2.7c0.5-0.8,1.1-1.4,2-1.9
			c0.8-0.5,1.8-0.7,2.8-0.7s2,0.2,2.8,0.7s1.5,1.1,2,1.9s0.7,1.7,0.7,2.7s-0.2,1.9-0.7,2.7s-1.1,1.4-2,1.9c-0.8,0.5-1.8,0.7-2.8,0.7
			S94,318.6,93.2,318.1z M97.6,316.4c0.5-0.3,0.9-0.7,1.1-1.1c0.3-0.5,0.4-1,0.4-1.7s-0.1-1.2-0.4-1.7c-0.3-0.5-0.7-0.9-1.1-1.1
			c-0.5-0.3-1-0.4-1.6-0.4s-1.1,0.1-1.6,0.4c-0.5,0.3-0.9,0.7-1.1,1.1c-0.3,0.5-0.4,1-0.4,1.7s0.1,1.2,0.4,1.7
			c0.3,0.5,0.7,0.9,1.1,1.1c0.5,0.3,1,0.4,1.6,0.4S97.2,316.7,97.6,316.4z"/>
		<path class="st43" d="M112.6,308.5v10.1h-1.9l-5-6.1v6.1h-2.3v-10.1h1.9l5,6.1v-6.1H112.6z"/>
	</g>
	<g>
		<path class="st43" d="M172.4,559.8v3.4h4.9v1.2h-4.9v3.9H171v-9.7h6.9v1.2H172.4z"/>
		<path class="st43" d="M186.3,560.9v7.4h-1.3v-1.1c-0.3,0.4-0.6,0.7-1.1,0.9c-0.4,0.2-0.9,0.3-1.4,0.3c-1,0-1.8-0.3-2.3-0.8
			s-0.8-1.3-0.8-2.4v-4.2h1.3v4.1c0,0.7,0.2,1.3,0.5,1.6c0.3,0.4,0.8,0.5,1.5,0.5c0.7,0,1.3-0.2,1.7-0.6s0.6-1,0.6-1.8v-3.8H186.3z"
			/>
		<path class="st43" d="M195,561.7c0.6,0.5,0.8,1.3,0.8,2.4v4.2h-1.3v-4.1c0-0.7-0.2-1.3-0.5-1.6c-0.3-0.4-0.8-0.5-1.5-0.5
			c-0.7,0-1.3,0.2-1.7,0.6c-0.4,0.4-0.6,1-0.6,1.8v3.8h-1.3v-7.4h1.3v1.1c0.3-0.4,0.6-0.7,1.1-0.9c0.5-0.2,1-0.3,1.6-0.3
			C193.7,560.8,194.5,561.1,195,561.7z"/>
		<path class="st43" d="M205.3,558v10.3h-1.3v-1.2c-0.3,0.4-0.7,0.7-1.1,0.9c-0.5,0.2-1,0.3-1.5,0.3c-0.7,0-1.4-0.2-1.9-0.5
			c-0.6-0.3-1-0.8-1.3-1.3c-0.3-0.6-0.5-1.2-0.5-2s0.2-1.4,0.5-2c0.3-0.6,0.8-1,1.3-1.3c0.6-0.3,1.2-0.5,1.9-0.5c0.5,0,1,0.1,1.5,0.3
			c0.4,0.2,0.8,0.5,1.1,0.9V558H205.3z M202.8,566.9c0.4-0.2,0.7-0.5,0.9-0.9c0.2-0.4,0.3-0.8,0.3-1.4c0-0.5-0.1-1-0.3-1.4
			c-0.2-0.4-0.5-0.7-0.9-0.9c-0.4-0.2-0.8-0.3-1.3-0.3c-0.5,0-0.9,0.1-1.3,0.3s-0.7,0.5-0.9,0.9c-0.2,0.4-0.3,0.8-0.3,1.4
			c0,0.5,0.1,1,0.3,1.4s0.5,0.7,0.9,0.9c0.4,0.2,0.8,0.3,1.3,0.3C202,567.2,202.4,567.1,202.8,566.9z"/>
		<path class="st43" d="M210.2,561.2c0.5-0.2,1-0.3,1.7-0.3v1.3c-0.1,0-0.2,0-0.3,0c-0.7,0-1.3,0.2-1.7,0.6c-0.4,0.4-0.6,1-0.6,1.8
			v3.7h-1.3v-7.4h1.3v1.2C209.4,561.7,209.7,561.4,210.2,561.2z"/>
		<path class="st43" d="M218.5,561.6c0.5,0.5,0.8,1.2,0.8,2.2v4.5h-1.3v-1c-0.2,0.3-0.5,0.6-1,0.8c-0.4,0.2-0.9,0.3-1.5,0.3
			c-0.8,0-1.5-0.2-2-0.6c-0.5-0.4-0.7-0.9-0.7-1.6s0.2-1.2,0.7-1.6c0.5-0.4,1.2-0.6,2.3-0.6h2.1v-0.3c0-0.6-0.2-1-0.5-1.3
			c-0.3-0.3-0.8-0.5-1.5-0.5c-0.4,0-0.9,0.1-1.3,0.2c-0.4,0.1-0.8,0.3-1.1,0.6l-0.6-1c0.4-0.3,0.8-0.5,1.4-0.7
			c0.5-0.2,1.1-0.2,1.7-0.2C217.2,560.8,218,561.1,218.5,561.6z M217.2,567c0.4-0.2,0.6-0.5,0.8-1v-1h-2.1c-1.1,0-1.7,0.4-1.7,1.1
			c0,0.4,0.1,0.7,0.4,0.9c0.3,0.2,0.7,0.3,1.2,0.3S216.8,567.2,217.2,567z"/>
		<path class="st43" d="M221.8,559.2c-0.2-0.2-0.3-0.4-0.3-0.6s0.1-0.4,0.3-0.6c0.2-0.2,0.4-0.3,0.6-0.3s0.5,0.1,0.6,0.2
			c0.2,0.2,0.3,0.4,0.3,0.6c0,0.3-0.1,0.5-0.3,0.6s-0.4,0.3-0.6,0.3S222,559.4,221.8,559.2z M221.8,560.9h1.3v7.4h-1.3V560.9z"/>
		<path class="st43" d="M226.1,568.1c-0.6-0.2-1-0.4-1.3-0.6l0.6-1.1c0.3,0.2,0.7,0.4,1.2,0.6c0.5,0.1,0.9,0.2,1.4,0.2
			c1.2,0,1.8-0.3,1.8-1c0-0.2-0.1-0.4-0.2-0.5c-0.2-0.1-0.4-0.2-0.6-0.3s-0.6-0.1-1-0.2c-0.6-0.1-1.1-0.2-1.5-0.3
			c-0.4-0.1-0.7-0.3-1-0.6c-0.3-0.3-0.4-0.7-0.4-1.2c0-0.7,0.3-1.2,0.8-1.6c0.6-0.4,1.3-0.6,2.2-0.6c0.5,0,1,0.1,1.5,0.2
			c0.5,0.1,0.9,0.3,1.2,0.5l-0.6,1.1c-0.6-0.4-1.3-0.6-2.1-0.6c-0.6,0-1,0.1-1.3,0.3s-0.4,0.4-0.4,0.7c0,0.2,0.1,0.4,0.3,0.6
			c0.2,0.1,0.4,0.2,0.6,0.3c0.2,0.1,0.6,0.1,1,0.2c0.6,0.1,1.1,0.2,1.4,0.3s0.7,0.3,0.9,0.6s0.4,0.7,0.4,1.2c0,0.7-0.3,1.2-0.9,1.6
			c-0.6,0.4-1.3,0.6-2.3,0.6C227.2,568.4,226.6,568.3,226.1,568.1z"/>
		<path class="st43" d="M232.7,559.2c-0.2-0.2-0.3-0.4-0.3-0.6s0.1-0.4,0.3-0.6c0.2-0.2,0.4-0.3,0.6-0.3s0.5,0.1,0.6,0.2
			c0.2,0.2,0.3,0.4,0.3,0.6c0,0.3-0.1,0.5-0.3,0.6s-0.4,0.3-0.6,0.3S232.8,559.4,232.7,559.2z M232.7,560.9h1.3v7.4h-1.3V560.9z"/>
		<path class="st43" d="M242.7,561.7c0.6,0.5,0.8,1.3,0.8,2.4v4.2h-1.3v-4.1c0-0.7-0.2-1.3-0.5-1.6c-0.3-0.4-0.8-0.5-1.5-0.5
			c-0.7,0-1.3,0.2-1.7,0.6c-0.4,0.4-0.6,1-0.6,1.8v3.8h-1.3v-7.4h1.3v1.1c0.3-0.4,0.6-0.7,1.1-0.9c0.5-0.2,1-0.3,1.6-0.3
			C241.4,560.8,242.2,561.1,242.7,561.7z"/>
		<path class="st43" d="M253.1,560.9v6.4c0,1.3-0.3,2.2-1,2.9c-0.6,0.6-1.6,0.9-2.9,0.9c-0.7,0-1.4-0.1-2-0.3s-1.1-0.5-1.5-0.8l0.6-1
			c0.3,0.3,0.8,0.5,1.3,0.7c0.5,0.2,1,0.3,1.6,0.3c0.9,0,1.5-0.2,1.9-0.6c0.4-0.4,0.6-1,0.6-1.9v-0.6c-0.3,0.4-0.7,0.7-1.2,0.9
			c-0.5,0.2-1,0.3-1.5,0.3c-0.7,0-1.3-0.2-1.9-0.5c-0.6-0.3-1-0.7-1.3-1.3c-0.3-0.5-0.5-1.2-0.5-1.9c0-0.7,0.2-1.3,0.5-1.9
			c0.3-0.5,0.8-1,1.3-1.3c0.6-0.3,1.2-0.4,1.9-0.4c0.6,0,1.1,0.1,1.6,0.3c0.5,0.2,0.9,0.5,1.2,0.9v-1.1H253.1z M250.6,566.5
			c0.4-0.2,0.7-0.5,0.9-0.9c0.2-0.4,0.3-0.8,0.3-1.2c0-0.7-0.2-1.3-0.7-1.7c-0.5-0.4-1.1-0.7-1.8-0.7c-0.8,0-1.4,0.2-1.8,0.7
			c-0.5,0.4-0.7,1-0.7,1.7c0,0.5,0.1,0.9,0.3,1.2c0.2,0.4,0.5,0.7,0.9,0.9c0.4,0.2,0.8,0.3,1.3,0.3
			C249.8,566.8,250.2,566.7,250.6,566.5z"/>
		<path class="st43" d="M260.9,560.3v0.6h2.1v1.1h-2.1v6.3h-1.3V562h-1.3v-1.1h1.3v-0.7c0-0.7,0.2-1.3,0.6-1.7s1-0.6,1.8-0.6
			c0.3,0,0.6,0,0.8,0.1s0.5,0.2,0.7,0.3l-0.4,1c-0.3-0.2-0.7-0.3-1-0.3C261.3,559,260.9,559.4,260.9,560.3z"/>
		<path class="st43" d="M267.7,561.2c0.5-0.2,1-0.3,1.7-0.3v1.3c-0.1,0-0.2,0-0.3,0c-0.7,0-1.3,0.2-1.7,0.6c-0.4,0.4-0.6,1-0.6,1.8
			v3.7h-1.3v-7.4h1.3v1.2C266.9,561.7,267.3,561.4,267.7,561.2z"/>
		<path class="st43" d="M272.2,567.9c-0.6-0.3-1-0.8-1.4-1.3c-0.3-0.6-0.5-1.2-0.5-1.9s0.2-1.4,0.5-1.9c0.3-0.6,0.8-1,1.4-1.3
			c0.6-0.3,1.2-0.5,2-0.5c0.7,0,1.4,0.2,2,0.5c0.6,0.3,1,0.8,1.4,1.3c0.3,0.6,0.5,1.2,0.5,1.9s-0.2,1.4-0.5,1.9
			c-0.3,0.6-0.8,1-1.4,1.3c-0.6,0.3-1.2,0.5-2,0.5C273.4,568.4,272.7,568.2,272.2,567.9z M275.4,566.9c0.4-0.2,0.7-0.5,0.9-0.9
			c0.2-0.4,0.3-0.8,0.3-1.4c0-0.5-0.1-1-0.3-1.4c-0.2-0.4-0.5-0.7-0.9-0.9c-0.4-0.2-0.8-0.3-1.3-0.3c-0.5,0-0.9,0.1-1.3,0.3
			s-0.7,0.5-0.9,0.9c-0.2,0.4-0.3,0.8-0.3,1.4c0,0.5,0.1,1,0.3,1.4s0.5,0.7,0.9,0.9c0.4,0.2,0.8,0.3,1.3,0.3
			C274.6,567.2,275,567.1,275.4,566.9z"/>
		<path class="st43" d="M291.2,561.6c0.5,0.5,0.8,1.3,0.8,2.4v4.2h-1.3v-4.1c0-0.7-0.2-1.3-0.5-1.6c-0.3-0.4-0.8-0.5-1.4-0.5
			c-0.7,0-1.2,0.2-1.6,0.6c-0.4,0.4-0.6,1-0.6,1.8v3.8h-1.3v-4.1c0-0.7-0.2-1.3-0.5-1.6c-0.3-0.4-0.8-0.5-1.4-0.5
			c-0.7,0-1.2,0.2-1.6,0.6c-0.4,0.4-0.6,1-0.6,1.8v3.8h-1.3v-7.4h1.3v1.1c0.3-0.4,0.6-0.7,1.1-0.9c0.4-0.2,0.9-0.3,1.5-0.3
			c0.6,0,1.1,0.1,1.5,0.3c0.4,0.2,0.8,0.6,1,1c0.3-0.4,0.7-0.8,1.2-1c0.5-0.2,1.1-0.4,1.7-0.4C290,560.8,290.7,561.1,291.2,561.6z"/>
	</g>
	<g>
		<path class="st43" d="M196.2,575.3h4.9c1.2,0,2.2,0.2,3.1,0.7c0.9,0.5,1.6,1.1,2.1,1.9s0.8,1.8,0.8,2.9s-0.3,2-0.8,2.9
			c-0.5,0.8-1.2,1.5-2.1,1.9c-0.9,0.5-2,0.7-3.1,0.7h-4.9V575.3z M201,584.1c1.1,0,2-0.3,2.6-0.9c0.6-0.6,1-1.4,1-2.5
			c0-1-0.3-1.9-1-2.5c-0.6-0.6-1.5-0.9-2.6-0.9h-2.3v6.7H201z"/>
		<path class="st43" d="M211.3,585.6c-0.9-0.5-1.6-1.2-2.1-2s-0.8-1.8-0.8-2.9c0-1.1,0.3-2,0.8-2.9c0.5-0.9,1.2-1.5,2.1-2
			c0.9-0.5,1.9-0.7,3.1-0.7c1.1,0,2.1,0.2,3,0.7c0.9,0.5,1.6,1.2,2.1,2c0.5,0.9,0.8,1.8,0.8,2.9c0,1.1-0.3,2-0.8,2.9
			c-0.5,0.9-1.2,1.5-2.1,2s-1.9,0.7-3,0.7C213.2,586.3,212.2,586.1,211.3,585.6z M216.1,583.7c0.5-0.3,0.9-0.7,1.2-1.2
			s0.4-1.1,0.4-1.8c0-0.7-0.1-1.3-0.4-1.8s-0.7-0.9-1.2-1.2c-0.5-0.3-1.1-0.4-1.7-0.4c-0.6,0-1.2,0.1-1.7,0.4
			c-0.5,0.3-0.9,0.7-1.2,1.2s-0.4,1.1-0.4,1.8c0,0.7,0.1,1.3,0.4,1.8s0.7,0.9,1.2,1.2c0.5,0.3,1.1,0.4,1.7,0.4
			C215,584.2,215.6,584,216.1,583.7z"/>
		<path class="st43" d="M232.2,575.3v10.9h-2.1l-5.4-6.6v6.6h-2.5v-10.9h2.1l5.4,6.6v-6.6H232.2z"/>
		<path class="st43" d="M236.9,585.6c-0.9-0.5-1.6-1.2-2.1-2s-0.8-1.8-0.8-2.9c0-1.1,0.3-2,0.8-2.9c0.5-0.9,1.2-1.5,2.1-2
			c0.9-0.5,1.9-0.7,3.1-0.7c1.1,0,2.1,0.2,3,0.7c0.9,0.5,1.6,1.2,2.1,2c0.5,0.9,0.8,1.8,0.8,2.9c0,1.1-0.3,2-0.8,2.9
			c-0.5,0.9-1.2,1.5-2.1,2s-1.9,0.7-3,0.7C238.9,586.3,237.9,586.1,236.9,585.6z M241.7,583.7c0.5-0.3,0.9-0.7,1.2-1.2
			s0.4-1.1,0.4-1.8c0-0.7-0.1-1.3-0.4-1.8s-0.7-0.9-1.2-1.2c-0.5-0.3-1.1-0.4-1.7-0.4c-0.6,0-1.2,0.1-1.7,0.4
			c-0.5,0.3-0.9,0.7-1.2,1.2s-0.4,1.1-0.4,1.8c0,0.7,0.1,1.3,0.4,1.8s0.7,0.9,1.2,1.2c0.5,0.3,1.1,0.4,1.7,0.4
			C240.6,584.2,241.2,584,241.7,583.7z"/>
		<path class="st43" d="M254.8,586.1l-2.1-3h-0.1h-2.2v3h-2.5v-10.9h4.7c1,0,1.8,0.2,2.5,0.5c0.7,0.3,1.3,0.8,1.6,1.4
			c0.4,0.6,0.6,1.3,0.6,2.1c0,0.8-0.2,1.5-0.6,2.1c-0.4,0.6-0.9,1-1.7,1.3l2.4,3.5H254.8z M254.1,577.8c-0.4-0.3-1-0.5-1.7-0.5h-2.1
			v3.8h2.1c0.8,0,1.3-0.2,1.7-0.5c0.4-0.3,0.6-0.8,0.6-1.4C254.7,578.6,254.5,578.1,254.1,577.8z"/>
		<path class="st43" d="M260.4,586c-0.8-0.2-1.4-0.5-1.9-0.9l0.9-1.9c0.5,0.3,1,0.6,1.7,0.8c0.6,0.2,1.3,0.3,1.9,0.3
			c0.7,0,1.2-0.1,1.6-0.3c0.3-0.2,0.5-0.5,0.5-0.8c0-0.3-0.1-0.5-0.3-0.6s-0.5-0.3-0.8-0.4s-0.7-0.2-1.3-0.3c-0.8-0.2-1.5-0.4-2-0.6
			c-0.5-0.2-1-0.5-1.4-0.9s-0.6-1-0.6-1.7c0-0.6,0.2-1.2,0.5-1.7c0.3-0.5,0.9-0.9,1.5-1.2c0.7-0.3,1.5-0.5,2.5-0.5
			c0.7,0,1.4,0.1,2,0.2c0.7,0.2,1.2,0.4,1.7,0.7l-0.8,1.9c-1-0.6-2-0.9-3-0.9c-0.7,0-1.2,0.1-1.6,0.3c-0.3,0.2-0.5,0.5-0.5,0.9
			c0,0.4,0.2,0.7,0.6,0.8s1,0.4,1.8,0.5c0.8,0.2,1.5,0.4,2,0.6c0.5,0.2,1,0.5,1.4,0.9c0.4,0.4,0.6,1,0.6,1.7c0,0.6-0.2,1.2-0.5,1.7
			s-0.9,0.9-1.6,1.2c-0.7,0.3-1.5,0.5-2.5,0.5C262,586.3,261.2,586.2,260.4,586z"/>
	</g>
</svg>
