<svg xmlns="http://www.w3.org/2000/svg" xmlns:xlink="http://www.w3.org/1999/xlink" viewBox="0 0 318.56 943.92">
    <defs>
        <radialGradient id="a" cx="-1793.551" cy="4794.69" r="59.465" gradientTransform="translate(1059.496 79.557) scale(0.554 0.043)" gradientUnits="userSpaceOnUse">
            <stop offset="0.103" stop-color="#e0e3e2" />
            <stop offset="0.268" stop-color="#e9ebea" />
            <stop offset="0.684" stop-color="#f9fafa" />
            <stop offset="1" stop-color="#fff" />
        </radialGradient>
        <radialGradient id="b" cx="-1477.874" cy="4562.684" r="59.465" gradientTransform="translate(1059.496 -11.232) scale(0.554 0.043)" xlink:href="#a" />
        <radialGradient id="c" cx="-878.717" cy="2949.951" r="59.465" gradientTransform="translate(805.229 378.153) scale(0.639 0.06)" xlink:href="#a" />
        <radialGradient id="d" cx="-2171.031" cy="2544.599" r="59.465" gradientTransform="translate(1144.841 -10.234) scale(0.501 0.054)" xlink:href="#a" />
        <radialGradient id="e" cx="-1762.38" cy="5584.766" r="59.465" gradientTransform="translate(1059.496 388.729) scale(0.554 0.043)" xlink:href="#a" />
        <radialGradient id="f" cx="-1514.216" cy="5914.959" r="59.465" gradientTransform="translate(1059.496 517.94) scale(0.554 0.043)" xlink:href="#a" />
        <radialGradient id="g" cx="-1660.629" cy="6292.327" r="72.679" gradientTransform="translate(1059.496 665.612) scale(0.554 0.043)" xlink:href="#a" />
        <radialGradient id="h" cx="-1965.328" cy="2394.719" r="59.465" gradientTransform="translate(716.59 -83.386) scale(0.296 0.054)" xlink:href="#a" />
        <radialGradient id="i" cx="-1740.269" cy="5281.636" r="59.044" gradientTransform="translate(1059.496 270.108) scale(0.554 0.043)" xlink:href="#a" />
        <radialGradient id="j" cx="-1425.219" cy="4873.179" r="59.465" gradientTransform="translate(1059.496 110.271) scale(0.554 0.043)" xlink:href="#a" />
    </defs>
    <title>How it works bg-en curves-02</title>
    <g style="isolation:isolate">
        <path d="M194.337,765.709c-24.074,5.763-53.856,13.153-90.309,24.853-25.7,8.248-52.23,17.841-66.534,42.8-3.111,5.429-14.48,27.006-6.357,46.192,7.29,17.218,19.9,26.382,22.126,27.695,20.642,12.168,42.039,4.378,44.9,3.282" style="fill:none;stroke:#ff7db9;stroke-linecap:round;stroke-linejoin:round;stroke-width:1.47586778203369px;stroke-dasharray:2.951735734939575,5.411515235900879" />
        <path d="M50.531,623.066c-2.437,1.675-4.458,4.078-6.68,6.458-5.594,5.992-26,27.848-20.342,47.464,8.445,29.273,70.466,38.072,114.422,32.207,61.228-8.169,123.887-49.656,119.082-75.857-3.252-17.738-38.311-33.275-55.515-22.46-9.176,5.768-15.8,20.622-11.442,32.207,10.019,26.635,68.966,11.776,87.3,43.65,6.7,11.657,7.043,27.939,1.695,40.259-5.4,12.449-15.987,19.41-33.342,25.309" style="fill:none;stroke:#ff7db9;stroke-linecap:round;stroke-linejoin:round;stroke-width:1.47586778203369px;stroke-dasharray:2.951735734939575,5.411515235900879" />
        <path d="M217.057,555.449a228.436,228.436,0,0,1-41.834,24.493,264.076,264.076,0,0,1-51.017,17.549" style="fill:none;stroke:#ff7db9;stroke-linecap:round;stroke-linejoin:round;stroke-width:1.47586778203369px;stroke-dasharray:2.951735734939575,5.411515235900879" />
        <path d="M115.894,426.533c36.383-24.89,87.143-6.417,96.622-2.967,15.583,5.671,47.077,17.134,53.821,43.65,2.833,11.139.464,21.658-3.245,30.71" style="fill:none;stroke:#ff7db9;stroke-linecap:round;stroke-linejoin:round;stroke-width:1.47586778203369px;stroke-dasharray:2.951735734939575,5.411515235900879" />
        <path d="M256.692,344.852c-17.834,5.737-46.119,6-94.182,10.062-77.98,6.6-91.737,13.372-102.555,22.884-23.63,20.776-29.455,51.275-32.208,65.686-4.156,21.761-5.2,56.108,6.357,60.177,5.709,2.009,11.562-5.209,23.732-14.832" style="fill:none;stroke:#ff7db9;stroke-linecap:round;stroke-linejoin:round;stroke-width:1.47586778203369px;stroke-dasharray:2.951735734939575,5.411515235900879" />
        <path d="M119.46,320.04c35.374,5.121,55.032-47.046,109.16-46.916a97.2,97.2,0,0,1,17.576,1.709" style="fill:none;stroke:#ff7db9;stroke-linecap:round;stroke-linejoin:round;stroke-width:1.47586778203369px;stroke-dasharray:2.951735734939575,5.411515235900879" />
        <path d="M230.315,220.151A98.851,98.851,0,0,1,211.9,227.32c-15.251,4.163-30.339,3.751-41.817-3.613-6.547-4.2-30.853-16.352-39.785-20.931-20.291-10.4-50.862-3.615-60.6,10.17-3.544,5.017-5.048,8.845-5.442,16.134" style="fill:none;stroke:#ff7db9;stroke-linecap:round;stroke-linejoin:round;stroke-width:1.47586778203369px;stroke-dasharray:2.951735734939575,5.411515235900879" />
        <path d="M106.14,135.18c50.042-37.586,106.717-46.2,142.2-22.02,2.161,1.472,31.028,21.716,29.863,48.933a33.962,33.962,0,0,1-4.423,16.587" style="fill:none;stroke:#ff7db9;stroke-linecap:round;stroke-linejoin:round;stroke-width:1.47586778203369px;stroke-dasharray:2.951735734939575,5.411515235900879" />
        <path d="M209.585,390.781v8.073h-1.856V392.3h-3.645v6.551h-1.858v-8.073Z" style="fill:#32a9fe" />
        <path d="M212.6,398.537a3.032,3.032,0,0,1-1.217-1.136,3.325,3.325,0,0,1,0-3.3,3.046,3.046,0,0,1,1.217-1.136,3.965,3.965,0,0,1,3.512,0,3.049,3.049,0,0,1,1.211,1.136,3.325,3.325,0,0,1,0,3.3,3.049,3.049,0,0,1-1.211,1.136,3.965,3.965,0,0,1-3.512,0ZM215.5,397a1.986,1.986,0,0,0,0-2.5,1.5,1.5,0,0,0-1.136-.467,1.52,1.52,0,0,0-1.142.467,1.965,1.965,0,0,0,0,2.5,1.514,1.514,0,0,0,1.142.467A1.5,1.5,0,0,0,215.5,397Z" style="fill:#32a9fe" />
        <path d="M225.329,392.649v5.167a3.315,3.315,0,0,1-.889,2.538,3.669,3.669,0,0,1-2.595.83,6.5,6.5,0,0,1-1.707-.219,3.732,3.732,0,0,1-1.338-.634l.715-1.291a2.963,2.963,0,0,0,.992.513,3.945,3.945,0,0,0,1.2.19,1.943,1.943,0,0,0,1.378-.421,1.677,1.677,0,0,0,.444-1.275v-.265a2.519,2.519,0,0,1-1.961.773,3.293,3.293,0,0,1-1.563-.375,2.863,2.863,0,0,1-1.125-1.055,3.17,3.17,0,0,1,0-3.136,2.858,2.858,0,0,1,1.125-1.056,3.293,3.293,0,0,1,1.563-.375,2.462,2.462,0,0,1,2.053.888v-.8h1.708Zm-2.232,4.008a1.56,1.56,0,0,0,0-2.2,1.663,1.663,0,0,0-1.172-.421,1.682,1.682,0,0,0-1.176.421,1.545,1.545,0,0,0,0,2.2,1.677,1.677,0,0,0,1.176.421A1.657,1.657,0,0,0,223.1,396.657Z" style="fill:#32a9fe" />
        <path d="M229.769,396.5h-.923v2.352h-1.787V390.3h1.787v4.764h.957l1.695-2.41h1.914l-2.179,2.976,2.318,3.229h-2.122Z" style="fill:#32a9fe" />
        <path d="M239.67,392.955a2.865,2.865,0,0,1,1.114,1.118,3.7,3.7,0,0,1,0,3.357,2.861,2.861,0,0,1-1.114,1.119,3.163,3.163,0,0,1-1.574.4,2.4,2.4,0,0,1-1.869-.749v2.9h-1.8V392.65h1.719v.715a2.388,2.388,0,0,1,1.949-.808A3.161,3.161,0,0,1,239.67,392.955ZM238.921,397a1.986,1.986,0,0,0,0-2.5,1.615,1.615,0,0,0-2.272,0,1.986,1.986,0,0,0,0,2.5,1.615,1.615,0,0,0,2.272,0Z" style="fill:#32a9fe" />
        <path d="M248.442,396.26h-4.694a1.458,1.458,0,0,0,.6.911,1.991,1.991,0,0,0,1.176.334,2.383,2.383,0,0,0,.859-.144,2.082,2.082,0,0,0,.7-.456l.957,1.039a3.216,3.216,0,0,1-2.56,1,4.043,4.043,0,0,1-1.858-.41,2.99,2.99,0,0,1-1.245-1.136,3.121,3.121,0,0,1-.439-1.649,3.174,3.174,0,0,1,.433-1.644,3.032,3.032,0,0,1,1.187-1.142,3.678,3.678,0,0,1,3.34-.018,2.877,2.877,0,0,1,1.159,1.125,3.358,3.358,0,0,1,.421,1.7C248.476,395.8,248.465,395.96,248.442,396.26Zm-4.21-2a1.465,1.465,0,0,0-.507.945h3.056a1.485,1.485,0,0,0-.507-.939,1.522,1.522,0,0,0-1.015-.352A1.554,1.554,0,0,0,244.232,394.264Z" style="fill:#32a9fe" />
        <path d="M255.484,393.249a2.748,2.748,0,0,1,.709,2.053v3.552h-1.8v-3.275a1.616,1.616,0,0,0-.323-1.1,1.187,1.187,0,0,0-.935-.364,1.435,1.435,0,0,0-1.084.421,1.75,1.75,0,0,0-.4,1.252v3.067h-1.8v-6.2h1.719v.726a2.393,2.393,0,0,1,.888-.605,3.1,3.1,0,0,1,1.165-.213A2.558,2.558,0,0,1,255.484,393.249Z" style="fill:#32a9fe" />
        <path d="M263.885,392.649v6.2h-1.718v-.726a2.229,2.229,0,0,1-.848.611,2.753,2.753,0,0,1-1.067.208,2.657,2.657,0,0,1-1.943-.7,2.786,2.786,0,0,1-.722-2.088v-3.506h1.8v3.241q0,1.5,1.258,1.5a1.364,1.364,0,0,0,1.049-.421,1.772,1.772,0,0,0,.392-1.251v-3.068Z" style="fill:#32a9fe" />
        <path d="M265.455,398.624a1.094,1.094,0,0,1-.324-.807,1.052,1.052,0,0,1,.324-.8,1.19,1.19,0,0,1,1.591,0,1.058,1.058,0,0,1,.323.8,1.1,1.1,0,0,1-.323.807,1.141,1.141,0,0,1-1.591,0Z" style="fill:#32a9fe" />
        <path d="M273.539,393.439a2.533,2.533,0,0,1,1.033,1.021,3.109,3.109,0,0,1,.363,1.522,2.825,2.825,0,0,1-1.638,2.636,3.976,3.976,0,0,1-1.753.374,3.242,3.242,0,0,1-2.555-1.043,4.475,4.475,0,0,1-.929-3.063,4.948,4.948,0,0,1,.813-2.981,3.925,3.925,0,0,1,2.5-1.459l2.953-.589.242,1.546-2.607.518a3.15,3.15,0,0,0-1.575.693,2.112,2.112,0,0,0-.6,1.373,2.727,2.727,0,0,1,.969-.675,3.178,3.178,0,0,1,1.234-.237A3.227,3.227,0,0,1,273.539,393.439Zm-.87,3.708a1.606,1.606,0,0,0,.421-1.142,1.439,1.439,0,0,0-1.535-1.534,1.549,1.549,0,0,0-1.13.415,1.492,1.492,0,0,0-.427,1.119,1.56,1.56,0,0,0,.439,1.147,1.5,1.5,0,0,0,1.118.444A1.444,1.444,0,0,0,272.669,397.147Z" style="fill:#32a9fe" />
        <path d="M276.492,398.44a1.647,1.647,0,0,1-.831-1.477,1.374,1.374,0,0,1,.352-1,1.99,1.99,0,0,1,.837-.519,10.087,10.087,0,0,1,1.234-.294,6.285,6.285,0,0,0,1.021-.248.424.424,0,0,0,.317-.41.482.482,0,0,0-.3-.45,1.9,1.9,0,0,0-.83-.15,4.474,4.474,0,0,0-1.026.127,4.156,4.156,0,0,0-.889.3l-.518-1.211a5.2,5.2,0,0,1,1.165-.432,5.292,5.292,0,0,1,1.269-.156,3.7,3.7,0,0,1,2.064.531,1.7,1.7,0,0,1,.807,1.5,1.405,1.405,0,0,1-.357,1.015,2.02,2.02,0,0,1-.848.524,9.161,9.161,0,0,1-1.252.283,6.071,6.071,0,0,0-1,.248.411.411,0,0,0-.312.387.481.481,0,0,0,.317.45,2.007,2.007,0,0,0,.848.15,4.775,4.775,0,0,0,1.223-.168,4.409,4.409,0,0,0,1.026-.386l.519,1.2a5.077,5.077,0,0,1-1.287.519,5.671,5.671,0,0,1-1.435.184A3.931,3.931,0,0,1,276.492,398.44Z" style="fill:#32a9fe" />
        <path d="M24.653,302.268a2.415,2.415,0,0,1-.431,3.285,4.236,4.236,0,0,1-2.572.666H17.314v-9.142H21.4a4.088,4.088,0,0,1,2.4.614,2.006,2.006,0,0,1,.862,1.737,2.2,2.2,0,0,1-.346,1.241,2.169,2.169,0,0,1-1,.8A2.477,2.477,0,0,1,24.653,302.268Zm-5.668-1.286h2.272a2.054,2.054,0,0,0,1.254-.326,1.136,1.136,0,0,0,.431-.967,1.154,1.154,0,0,0-.431-.973,2.02,2.02,0,0,0-1.254-.333H18.985Zm4.414,2.573q0-1.332-1.8-1.332H18.985v2.69H21.6Q23.4,304.913,23.4,303.555Z" style="fill:#32a9fe" />
        <path d="M33.1,304.1H28.531l-.9,2.116H25.88l4.114-9.142h1.671l4.127,9.142H34.016Zm-.562-1.332-1.724-4-1.71,4Z" style="fill:#32a9fe" />
        <path d="M45.064,297.077v9.142H43.392v-7.7h-3.6L39.71,300.8a19.029,19.029,0,0,1-.314,3.115,3.914,3.914,0,0,1-.8,1.815,1.917,1.917,0,0,1-1.515.62,4.531,4.531,0,0,1-.927-.13l.117-1.476a1.329,1.329,0,0,0,.392.052,1.181,1.181,0,0,0,1.129-.946,11.015,11.015,0,0,0,.412-2.985l.13-3.787Z" style="fill:#32a9fe" />
        <path d="M47.649,297.077h1.672v6.491l4.91-6.491h1.58v9.142H54.14v-6.478l-4.91,6.478H47.649Z" style="fill:#32a9fe" />
        <path d="M67.343,304.782v3.382H65.775v-1.945H58.763v1.945h-1.58l.013-3.382h.391q.862-.039,1.208-1.273a15.8,15.8,0,0,0,.425-3.533l.1-2.9h6.7v7.7Zm-6.922-1.691a3.353,3.353,0,0,1-.7,1.691h4.636v-6.268H60.774l-.065,1.619A20.583,20.583,0,0,1,60.421,303.091Z" style="fill:#32a9fe" />
        <path d="M68.949,297.077H70.62v6.491l4.91-6.491h1.58v9.142H75.439v-6.478l-4.91,6.478h-1.58Z" style="fill:#32a9fe" />
        <path d="M85.5,297.469a3.011,3.011,0,0,1,1.351,1.123,3.426,3.426,0,0,1,0,3.467,2.994,2.994,0,0,1-1.351,1.13,5.066,5.066,0,0,1-2.07.392H81.368v2.638h-1.7v-9.142h3.761A5.066,5.066,0,0,1,85.5,297.469Zm-.464,4.2a1.861,1.861,0,0,0,0-2.69,2.608,2.608,0,0,0-1.684-.47H81.368v3.63h1.985A2.608,2.608,0,0,0,85.037,301.674Z" style="fill:#32a9fe" />
        <path d="M94.531,304.1H89.96l-.9,2.116h-1.75l4.114-9.142h1.671l4.127,9.142H95.445Zm-.562-1.332-1.723-4-1.711,4Z" style="fill:#32a9fe" />
        <path d="M106.741,297.077v9.142h-1.7V302.3h-4.727v3.918h-1.7v-9.142h1.7v3.774h4.727v-3.774Z" style="fill:#32a9fe" />
        <path d="M116.157,304.8v1.424H109.3v-9.142h6.674V298.5H111v2.377h4.414v1.4H111v2.52Z" style="fill:#32a9fe" />
        <path d="M18.164,318.6A3.227,3.227,0,0,1,16.9,317.39a3.483,3.483,0,0,1,0-3.453,3.217,3.217,0,0,1,1.264-1.206,3.956,3.956,0,0,1,3.611,0,3.233,3.233,0,0,1,1.263,1.2,3.5,3.5,0,0,1,0,3.461,3.235,3.235,0,0,1-1.263,1.2,3.964,3.964,0,0,1-3.611,0Zm2.984-.926a2.13,2.13,0,0,0,.823-.824,2.484,2.484,0,0,0,0-2.367,2.127,2.127,0,0,0-.823-.823,2.5,2.5,0,0,0-2.358,0,2.134,2.134,0,0,0-.823.823,2.492,2.492,0,0,0,0,2.367,2.137,2.137,0,0,0,.823.824,2.511,2.511,0,0,0,2.358,0Z" style="fill:#32a9fe" />
        <path d="M29.5,313.418H27.332v5.52H26.125v-5.52H23.964v-1.029H29.5Z" style="fill:#32a9fe" />
        <path d="M77.046,261.349H65.424a.866.866,0,0,1,0-1.732H77.046a.866.866,0,0,1,0,1.732Z" style="fill:#ffcb57" />
        <path d="M77.046,276.449H72.838a.866.866,0,0,1,0-1.732h4.208a.866.866,0,0,1,0,1.732Z" style="fill:#ffcb57" />
        <path d="M76.943,265.151H67a.866.866,0,1,1,0-1.731h9.942a.866.866,0,1,1,0,1.731Z" style="fill:#ffcb57" />
        <path d="M77.046,268.9H65.424a.866.866,0,1,1,0-1.731H77.046a.866.866,0,0,1,0,1.731Z" style="fill:#ffcb57" />
        <path d="M81.957,253.986a.864.864,0,0,0-.344-.69L71.437,243.12l-.007,0a.835.835,0,0,0-.174-.129.561.561,0,0,0-.054-.029.866.866,0,0,0-.2-.074h-.01a.872.872,0,0,0-.162-.016H50.9a.865.865,0,0,0-.866.866v8.742c.323-.029.652-.046.987-.046.248,0,.5.006.745.029V244.6H69.959v9.389a.866.866,0,0,0,.866.866h9.389v27.382H51.765v-7.86c-.249.023-.5.029-.745.029-.335,0-.664-.018-.987-.046V283.1a.865.865,0,0,0,.866.866H81.08a.865.865,0,0,0,.865-.866v-29A.861.861,0,0,0,81.957,253.986Zm-10.266-.865v-7.3l7.3,7.3Z" style="fill:#ffcb57" />
        <path d="M49.61,268.217a.868.868,0,0,1-.572-.215L45.2,264.634a.865.865,0,1,1,1.142-1.3l3.173,2.785,6.085-7.19a.866.866,0,0,1,1.322,1.119l-6.656,7.863a.866.866,0,0,1-.6.3Z" style="fill:#ffcb57" />
        <path d="M51.02,275.268c-.34,0-.688-.016-1.063-.049a11.851,11.851,0,0,1,0-23.607,10.3,10.3,0,0,1,1.887-.017,11.849,11.849,0,0,1-.022,23.643C51.569,275.261,51.3,275.268,51.02,275.268Zm0-21.974c-.289,0-.586.014-.91.042a10.12,10.12,0,0,0,0,20.158,8.513,8.513,0,0,0,1.575.018,10.118,10.118,0,0,0,.022-20.192C51.464,253.3,51.242,253.294,51.02,253.294Z" style="fill:#ffcb57" />
        <ellipse cx="66.228" cy="288.03" rx="46.49" ry="2.177" style="opacity:0.9;mix-blend-mode:darken;fill:url(#a)" />
        <path d="M216.434,201.191a4.484,4.484,0,0,1-1.75-1.678,4.9,4.9,0,0,1,.007-4.832A4.528,4.528,0,0,1,216.447,193a5.148,5.148,0,0,1,2.5-.607,5.217,5.217,0,0,1,2.05.392,4.17,4.17,0,0,1,1.567,1.136l-1.1,1.032a3.2,3.2,0,0,0-2.443-1.071,3.426,3.426,0,0,0-1.684.411,2.957,2.957,0,0,0-1.162,1.143,3.5,3.5,0,0,0,0,3.317,2.954,2.954,0,0,0,1.162,1.142,3.415,3.415,0,0,0,1.684.412,3.182,3.182,0,0,0,2.443-1.084l1.1,1.045a4.168,4.168,0,0,1-1.573,1.136,5.269,5.269,0,0,1-2.057.392A5.149,5.149,0,0,1,216.434,201.191Z" style="fill:#32a9fe" />
        <path d="M232.353,196.359a2.69,2.69,0,0,1,.882,2.188,2.847,2.847,0,0,1-.96,2.324,4.171,4.171,0,0,1-2.736.8h-3.918v-7.705h-2.677v-1.436h4.349v3.1h2.533A3.84,3.84,0,0,1,232.353,196.359ZM231,199.905a1.664,1.664,0,0,0,.529-1.332q0-1.659-2.05-1.659h-2.181v3.448h2.181A2.26,2.26,0,0,0,231,199.905Z" style="fill:#32a9fe" />
        <path d="M240.789,197.744a2.122,2.122,0,0,1,.464,1.364,2.094,2.094,0,0,1-.535,1.43,3.423,3.423,0,0,1-1.43.934,5.677,5.677,0,0,1-1.953.327,6.84,6.84,0,0,1-1.834-.255,6.114,6.114,0,0,1-1.705-.764l.549-1.241a4.783,4.783,0,0,0,1.332.621,5.124,5.124,0,0,0,1.449.215,3.326,3.326,0,0,0,1.717-.405,1.238,1.238,0,0,0,.686-1.11,1.015,1.015,0,0,0-.5-.914,2.558,2.558,0,0,0-1.371-.313h-2.129V196.3h2a1.989,1.989,0,0,0,1.189-.314.994.994,0,0,0,.43-.849,1.1,1.1,0,0,0-.581-.992,2.818,2.818,0,0,0-1.482-.353,4.84,4.84,0,0,0-1.267.177,4.916,4.916,0,0,0-1.227.515l-.535-1.371a6.228,6.228,0,0,1,1.5-.568,6.737,6.737,0,0,1,1.573-.189,5.431,5.431,0,0,1,1.874.313,3.275,3.275,0,0,1,1.365.9,2.1,2.1,0,0,1,.144,2.553,2.341,2.341,0,0,1-1.006.783A2.6,2.6,0,0,1,240.789,197.744Z" style="fill:#32a9fe" />
        <path d="M252.235,200.231v3.383h-1.567v-1.946h-7.012v1.946h-1.581l.014-3.383h.391q.863-.039,1.208-1.273a15.853,15.853,0,0,0,.425-3.532l.1-2.9h6.7v7.7Zm-6.921-1.691a3.349,3.349,0,0,1-.7,1.691h4.636v-6.268h-3.578l-.066,1.619A20.442,20.442,0,0,1,245.314,198.54Z" style="fill:#32a9fe" />
        <path d="M259.953,199.552h-4.57l-.9,2.116h-1.749l4.113-9.141h1.672l4.126,9.141h-1.776Zm-.561-1.332-1.724-4-1.711,4Z" style="fill:#32a9fe" />
        <path d="M264.053,192.527h1.672v6.49l4.91-6.49h1.58v9.141h-1.671V195.19l-4.91,6.478h-1.581Zm2.292-1.1a1.747,1.747,0,0,1-.607-1.411h1.188a.973.973,0,0,0,.314.745,1.3,1.3,0,0,0,.875.261,1.355,1.355,0,0,0,.881-.261.937.937,0,0,0,.333-.745H270.5a1.731,1.731,0,0,1-.62,1.4,3.461,3.461,0,0,1-3.539.007Z" style="fill:#32a9fe" />
        <path d="M216.781,210.135h-1.216v2.76h-1.2v-6.549h1.2v2.741h1.254l1.88-2.741h1.291l-2.236,3.172,2.32,3.377H218.7Z" style="fill:#32a9fe" />
        <path d="M225.136,211.38h-3.275l-.645,1.515h-1.254l2.947-6.549h1.2l2.956,6.549h-1.272Zm-.4-.955-1.236-2.862-1.225,2.862Z" style="fill:#32a9fe" />
        <path d="M234.08,212.9l-.009-4.341-2.152,3.593h-.543l-2.151-3.537V212.9h-1.151v-6.549h1l2.591,4.332,2.564-4.332h.992l.018,6.549Z" style="fill:#32a9fe" />
        <path d="M242.875,206.346V212.9h-1.2v-5.52h-3.4v5.52h-1.2v-6.549Z" style="fill:#32a9fe" />
        <path d="M249.059,211.38h-3.274l-.646,1.515h-1.254l2.947-6.549h1.2l2.957,6.549h-1.273Zm-.4-.955-1.235-2.862-1.226,2.862Z" style="fill:#32a9fe" />
        <path d="M257.807,206.346V212.9h-1.216v-2.807H253.2V212.9h-1.216v-6.549H253.2v2.7h3.387v-2.7Z" style="fill:#32a9fe" />
        <path d="M259.65,206.346h1.2V211l3.518-4.65H265.5V212.9h-1.2v-4.64l-3.517,4.64H259.65Z" style="fill:#32a9fe" />
        <path d="M272.337,206.346V212.9h-1.2v-1.824H269.39l-1.217,1.824h-1.281l1.4-2.021a2.107,2.107,0,0,1-1.052-.8,2.3,2.3,0,0,1-.37-1.323,2.4,2.4,0,0,1,.337-1.292,2.16,2.16,0,0,1,.954-.828,3.432,3.432,0,0,1,1.45-.285Zm-3.831,1.375a1.483,1.483,0,0,0-.014,2.007,1.591,1.591,0,0,0,1.113.351h1.534v-2.7h-1.487A1.693,1.693,0,0,0,268.506,207.721Z" style="fill:#32a9fe" />
        <path d="M239.643,143.87h0m.171,2.959a13.2,13.2,0,0,1,1.724,7.5,9.151,9.151,0,0,1-4.237,6.879c2.006-4.037,2.739-8.352,2.513-14.379m-1.356-3.688c-.33,0-.517.294-.468.937.7,9-.241,14.175-4.317,19.93,4.461,0,9.04-4.17,9.52-9.531.5-6.216-3.358-11.336-4.735-11.336Z" style="fill:#ffcb57" />
        <path d="M249.083,143.877h0m.085,3.1a14.525,14.525,0,0,1,1.287,3.635c.593,2.784.886,8.324-3.815,14.153a1.661,1.661,0,0,0,1.911,2.585,18.92,18.92,0,0,0,7.975-7.092,15.96,15.96,0,0,1-.6,2.806,17.805,17.805,0,0,1-9.1,10.7,1.661,1.661,0,0,0,.769,3.133c.053,0,.105,0,.158-.007a20.2,20.2,0,0,0,5.571-1.524,17.131,17.131,0,0,1-9,5.24,18.531,18.531,0,0,1-3.62.352c-5.817,0-10.716-2.582-13.1-6.906a16.851,16.851,0,0,1-1.649-6.577c-.313-2.877-.661-6.076-3.311-8.422a3.113,3.113,0,0,1,1.653-.469,3.524,3.524,0,0,1,2.328.905,6.526,6.526,0,0,1,1.662,3.31,5.636,5.636,0,0,0,2.591,3.981,6.5,6.5,0,0,0,3.2.782c3.26,0,7.169-2.028,9.74-5.064a25.324,25.324,0,0,0,5.357-15.524m9.007,10.272h0m-10.3-14.093c-.319,0-.5.3-.45.946.567,7.408-1.73,13.495-4.9,17.343-2.132,2.516-5.587,4.459-8.458,4.459a4.871,4.871,0,0,1-2.394-.573c-2.372-1.317-1.117-4.262-3.914-7.041a5.18,5.18,0,0,0-3.474-1.364,5.025,5.025,0,0,0-4.2,2.361c5.918,3.27,2.8,9.675,6.058,15.571,3.047,5.518,9,7.764,14.558,7.764a20.278,20.278,0,0,0,3.945-.384c8.956-1.785,14.108-10.817,12.371-10.817a2.236,2.236,0,0,0-1.125.563,18.2,18.2,0,0,1-8.3,3.255c11.959-6.256,11.495-19.32,9.747-19.32-.248,0-.523.264-.791.849a18.007,18.007,0,0,1-8.619,9.04c4.5-5.58,5.059-11.264,4.147-15.543-.9-4.247-3.213-7.109-4.2-7.109Z" style="fill:#ffcb57" />
        <ellipse cx="241.049" cy="187.153" rx="46.49" ry="2.177" style="opacity:0.9;mix-blend-mode:darken;fill:url(#b)" />
        <path d="M212.21,571.878a3.2,3.2,0,0,1-1.254-1.2,3.508,3.508,0,0,1,.005-3.461,3.235,3.235,0,0,1,1.258-1.2,3.7,3.7,0,0,1,1.792-.435,3.742,3.742,0,0,1,1.469.281,3,3,0,0,1,1.122.814l-.786.739a2.293,2.293,0,0,0-1.749-.767,2.447,2.447,0,0,0-1.207.295,2.121,2.121,0,0,0-.833.818,2.512,2.512,0,0,0,0,2.377,2.13,2.13,0,0,0,.833.819,2.457,2.457,0,0,0,1.207.294,2.281,2.281,0,0,0,1.749-.776l.786.748a2.975,2.975,0,0,1-1.127.814,3.774,3.774,0,0,1-1.474.281A3.686,3.686,0,0,1,212.21,571.878Z" style="fill:#32a9fe" />
        <path d="M224.176,568.416a1.927,1.927,0,0,1,.632,1.567,2.04,2.04,0,0,1-.688,1.665,2.99,2.99,0,0,1-1.96.571h-2.807V566.7h-1.918V565.67h3.116v2.217h1.815A2.75,2.75,0,0,1,224.176,568.416Zm-.973,2.54a1.19,1.19,0,0,0,.379-.954q0-1.188-1.469-1.188h-1.562v2.47h1.562A1.622,1.622,0,0,0,223.2,570.956Z" style="fill:#32a9fe" />
        <path d="M226.613,565.67h5.1v1h-3.9v1.609h1.937a2.815,2.815,0,0,1,1.791.491,1.71,1.71,0,0,1,.613,1.418,1.8,1.8,0,0,1-.673,1.5,3.052,3.052,0,0,1-1.919.528h-2.947Zm2.882,5.614a1.772,1.772,0,0,0,1.067-.272.918.918,0,0,0,.364-.786q0-1.01-1.431-1.01h-1.684v2.068Z" style="fill:#32a9fe" />
        <path d="M234.051,565.67h1.2v4.65l3.518-4.65H239.9v6.549h-1.2v-4.64l-3.518,4.64h-1.132Z" style="fill:#32a9fe" />
        <path d="M246.471,565.951a2.161,2.161,0,0,1,.969.8,2.463,2.463,0,0,1,0,2.484,2.147,2.147,0,0,1-.969.81,3.627,3.627,0,0,1-1.483.28H243.51v1.89h-1.216V565.67h2.694A3.61,3.61,0,0,1,246.471,565.951Zm-.332,3.012a1.333,1.333,0,0,0,0-1.927,1.867,1.867,0,0,0-1.207-.337H243.51v2.6h1.422A1.867,1.867,0,0,0,246.139,568.963Z" style="fill:#32a9fe" />
        <path d="M255.308,565.67v6.549h-1.216v-2.807h-3.387v2.807h-1.216V565.67h1.216v2.7h3.387v-2.7Z" style="fill:#32a9fe" />
        <path d="M262.615,571.2v1.02H257.7V565.67h4.781v1.02H258.92v1.7h3.162v1H258.92v1.8Z" style="fill:#32a9fe" />
        <path d="M273.5,565.67v6.549H272.28v-2.807h-3.387v2.807h-1.216V565.67h1.216v2.7h3.387v-2.7Z" style="fill:#32a9fe" />
        <path d="M280.233,570.7h-3.275l-.646,1.515h-1.253l2.947-6.549h1.2l2.957,6.549h-1.272Zm-.4-.955-1.235-2.863-1.225,2.863Z" style="fill:#32a9fe" />
        <path d="M213.056,584.462a4.485,4.485,0,0,1-1.75-1.678,4.9,4.9,0,0,1,.006-4.832,4.54,4.54,0,0,1,1.757-1.679,5.156,5.156,0,0,1,2.5-.607,5.22,5.22,0,0,1,2.05.392,4.186,4.186,0,0,1,1.567,1.136l-1.1,1.032a3.2,3.2,0,0,0-2.442-1.071,3.419,3.419,0,0,0-1.685.412,2.967,2.967,0,0,0-1.162,1.142,3.5,3.5,0,0,0,0,3.317,2.963,2.963,0,0,0,1.162,1.143,3.43,3.43,0,0,0,1.685.411,3.181,3.181,0,0,0,2.442-1.084l1.1,1.045a4.171,4.171,0,0,1-1.574,1.136,5.264,5.264,0,0,1-2.056.392A5.145,5.145,0,0,1,213.056,584.462Z" style="fill:#32a9fe" />
        <path d="M226.6,576.189a3.008,3.008,0,0,1,1.352,1.123,3.432,3.432,0,0,1,0,3.467,3,3,0,0,1-1.352,1.13,5.063,5.063,0,0,1-2.07.391h-2.063v2.638h-1.7V575.8h3.761A5.047,5.047,0,0,1,226.6,576.189Zm-.464,4.205a1.862,1.862,0,0,0,0-2.691,2.608,2.608,0,0,0-1.684-.469h-1.985v3.63h1.985A2.608,2.608,0,0,0,226.134,580.394Z" style="fill:#32a9fe" />
        <path d="M236.882,583.515v1.423h-6.856V575.8H236.7v1.423h-4.975V579.6h4.413v1.4h-4.413v2.521Z" style="fill:#32a9fe" />
        <path d="M247.838,583.5v3.382h-1.567v-1.946h-7.013v1.946h-1.58l.013-3.382h.392q.862-.039,1.208-1.273a15.815,15.815,0,0,0,.424-3.533l.1-2.9h6.7v7.7Zm-6.921-1.692a3.357,3.357,0,0,1-.705,1.692h4.636v-6.268h-3.579l-.065,1.619A20.427,20.427,0,0,1,240.917,581.81Z" style="fill:#32a9fe" />
        <path d="M251.136,584.462a4.478,4.478,0,0,1-1.75-1.678,4.9,4.9,0,0,1,.006-4.832,4.533,4.533,0,0,1,1.757-1.679,5.154,5.154,0,0,1,2.5-.607,5.224,5.224,0,0,1,2.05.392,4.186,4.186,0,0,1,1.567,1.136l-1.1,1.032a3.2,3.2,0,0,0-2.442-1.071,3.419,3.419,0,0,0-1.685.412,2.967,2.967,0,0,0-1.162,1.142,3.5,3.5,0,0,0,0,3.317,2.963,2.963,0,0,0,1.162,1.143,3.43,3.43,0,0,0,1.685.411,3.181,3.181,0,0,0,2.442-1.084l1.1,1.045a4.179,4.179,0,0,1-1.574,1.136,5.264,5.264,0,0,1-2.056.392A5.143,5.143,0,0,1,251.136,584.462Z" style="fill:#32a9fe" />
        <path d="M265.376,577.234h-3.029v7.7h-1.685v-7.7h-3.016V575.8h7.73Z" style="fill:#32a9fe" />
        <path d="M274.191,580.988a2.414,2.414,0,0,1-.431,3.284,4.234,4.234,0,0,1-2.572.666h-4.336V575.8h4.087a4.086,4.086,0,0,1,2.4.614,2.006,2.006,0,0,1,.862,1.737,2.085,2.085,0,0,1-1.345,2.037A2.465,2.465,0,0,1,274.191,580.988Zm-5.667-1.286H270.8a2.046,2.046,0,0,0,1.253-.327,1.134,1.134,0,0,0,.431-.966,1.152,1.152,0,0,0-.431-.973,2.019,2.019,0,0,0-1.253-.333h-2.272Zm4.413,2.572q0-1.332-1.8-1.332h-2.611v2.69h2.611Q272.938,583.632,272.937,582.274Z" style="fill:#32a9fe" />
        <path d="M282.64,582.823h-4.57l-.9,2.115h-1.749l4.113-9.141H281.2l4.126,9.141h-1.776Zm-.561-1.332-1.724-4-1.711,4Z" style="fill:#32a9fe" />
        <path d="M212.214,595.824a3.224,3.224,0,0,1-1.263-1.207,3.481,3.481,0,0,1,0-3.452,3.224,3.224,0,0,1,1.263-1.207,3.967,3.967,0,0,1,3.612,0,3.24,3.24,0,0,1,1.263,1.2,3.5,3.5,0,0,1,0,3.462,3.24,3.24,0,0,1-1.263,1.2,3.967,3.967,0,0,1-3.612,0Zm2.985-.926a2.127,2.127,0,0,0,.823-.823,2.484,2.484,0,0,0,0-2.367,2.13,2.13,0,0,0-.823-.824,2.5,2.5,0,0,0-2.358,0,2.137,2.137,0,0,0-.823.824,2.484,2.484,0,0,0,0,2.367,2.134,2.134,0,0,0,.823.823,2.5,2.5,0,0,0,2.358,0Z" style="fill:#32a9fe" />
        <path d="M223.741,590.645H221.57v5.521h-1.207v-5.521H218.2v-1.029h5.539Z" style="fill:#32a9fe" />
        <path d="M234.238,595.136v2.424h-1.122v-1.394h-5.025v1.394h-1.132l.01-2.424h.28q.618-.027.866-.912a11.33,11.33,0,0,0,.3-2.53l.075-2.078h4.8v5.52Zm-4.958-1.211a2.4,2.4,0,0,1-.5,1.211H232.1v-4.491h-2.564l-.046,1.161A14.833,14.833,0,0,1,229.28,593.925Z" style="fill:#32a9fe" />
        <path d="M239.955,594.65H236.68l-.646,1.516h-1.253l2.947-6.55h1.2l2.956,6.55H240.61Zm-.4-.954-1.235-2.863-1.225,2.863Z" style="fill:#32a9fe" />
        <path d="M247.248,589.9a2.148,2.148,0,0,1,.968.8,2.457,2.457,0,0,1,0,2.484,2.143,2.143,0,0,1-.968.809,3.627,3.627,0,0,1-1.483.281h-1.478v1.89H243.07v-6.55h2.695A3.627,3.627,0,0,1,247.248,589.9Zm-.332,3.013a1.336,1.336,0,0,0,0-1.928,1.873,1.873,0,0,0-1.207-.337h-1.422v2.6h1.422A1.873,1.873,0,0,0,246.916,592.91Z" style="fill:#32a9fe" />
        <path d="M249.9,589.616h1.2v4.65l3.518-4.65h1.132v6.55h-1.2v-4.641l-3.518,4.641H249.9Z" style="fill:#32a9fe" />
        <path d="M262.521,590.645h-2.17v5.521h-1.207v-5.521h-2.161v-1.029h5.538Z" style="fill:#32a9fe" />
        <path d="M268.668,595.146v1.02h-4.912v-6.55h4.781v1.02h-3.564v1.7h3.162v1h-3.162v1.806Z" style="fill:#32a9fe" />
        <path d="M275.807,589.616v6.55h-1.2v-5.521h-2.582l-.056,1.638a13.672,13.672,0,0,1-.224,2.231,2.808,2.808,0,0,1-.571,1.3,1.375,1.375,0,0,1-1.086.444,3.28,3.28,0,0,1-.664-.093l.084-1.058a.955.955,0,0,0,.281.038.847.847,0,0,0,.809-.679,7.87,7.87,0,0,0,.295-2.137l.094-2.714Z" style="fill:#32a9fe" />
        <path d="M277.846,589.616h1.2v4.65l3.518-4.65h1.132v6.55h-1.2v-4.641l-3.517,4.641h-1.133Z" style="fill:#32a9fe" />
        <path d="M246.383,537.076a8.179,8.179,0,1,0-9.022,0,13.1,13.1,0,0,0-8.575,12.268h2.181a10.9,10.9,0,1,1,21.81,0h2.181A13.1,13.1,0,0,0,246.383,537.076Zm-4.511-.818a6,6,0,1,1,6-6A6,6,0,0,1,241.872,536.258Z" style="fill:#ffcb57" />
        <path d="M257.288,531.624a8.171,8.171,0,1,0-11.546-10.966,10.321,10.321,0,0,1,1.927,1.022,6.028,6.028,0,0,1,1.464-1.625,5.986,5.986,0,1,1,3.644,10.751c-.193,0-.383-.011-.572-.029a10.3,10.3,0,0,1-.367,2.277c.312-.027.62-.067.939-.067a10.972,10.972,0,0,1,10.905,10.905h2.181A13.1,13.1,0,0,0,257.288,531.624Z" style="fill:#ffcb57" />
        <path d="M230.967,532.987c.319,0,.627.04.939.067a10.3,10.3,0,0,1-.367-2.277c-.189.018-.379.029-.572.029a5.995,5.995,0,1,1,5.107-9.126A10.329,10.329,0,0,1,238,520.658a8.23,8.23,0,0,0-1.4-1.762,8.171,8.171,0,1,0-10.147,12.728,13.1,13.1,0,0,0-8.575,12.268h2.181a10.972,10.972,0,0,1,10.905-10.905Z" style="fill:#ffcb57" />
        <path d="M264.921,523.99a8.17,8.17,0,1,0-11.546-10.965,10.325,10.325,0,0,1,1.928,1.021,6.038,6.038,0,0,1,1.464-1.624,5.989,5.989,0,1,1,6.136,10.2,8.37,8.37,0,0,1,.019,3.042,10.911,10.911,0,0,1,8.393,10.6H273.5A13.1,13.1,0,0,0,264.921,523.99Z" style="fill:#ffcb57" />
        <path d="M220.692,524.209a9.067,9.067,0,0,1,.149-1.59,5.988,5.988,0,1,1,7.6-8.573,10.325,10.325,0,0,1,1.928-1.021,8.172,8.172,0,1,0-11.546,10.965,13.1,13.1,0,0,0-8.575,12.268h2.181a10.911,10.911,0,0,1,8.393-10.6A9.021,9.021,0,0,1,220.692,524.209Z" style="fill:#ffcb57" />
        <path d="M241.872,511.177a5.987,5.987,0,0,1,5.861,4.864,6.9,6.9,0,0,1,2.056-.881,8.166,8.166,0,0,0-15.834,0,6.9,6.9,0,0,1,2.056.881A5.987,5.987,0,0,1,241.872,511.177Z" style="fill:#ffcb57" />
        <ellipse cx="243.926" cy="556.477" rx="53.623" ry="3.027" style="opacity:0.9;mix-blend-mode:darken;fill:url(#c)" />
        <path d="M22.338,136.705h1.228v4.769l3.608-4.769h1.161v6.717H27.107v-4.76l-3.608,4.76H22.338Z" style="fill:#32a9fe" />
        <path d="M35.119,143.422v-3.4l-1.727,2.859h-.518l-1.7-2.869v3.407H30.082V138.3h1.257l1.823,3.2,1.91-3.2h1.122l.01,5.124Z" style="fill:#32a9fe" />
        <path d="M41.457,138.782a2.1,2.1,0,0,1,.6,1.636v3H40.925V142.8a1.392,1.392,0,0,1-.629.513,2.442,2.442,0,0,1-.983.178,2.414,2.414,0,0,1-1.008-.2,1.553,1.553,0,0,1-.667-.547,1.391,1.391,0,0,1-.235-.791,1.354,1.354,0,0,1,.514-1.108,2.544,2.544,0,0,1,1.617-.418h1.324v-.077a1.048,1.048,0,0,0-.322-.825,1.389,1.389,0,0,0-.955-.288,2.779,2.779,0,0,0-.849.134,2.1,2.1,0,0,0-.7.375l-.47-.874a2.926,2.926,0,0,1,.969-.47,4.3,4.3,0,0,1,1.2-.163A2.5,2.5,0,0,1,41.457,138.782Zm-1.093,3.627a1.122,1.122,0,0,0,.494-.59v-.595H39.62q-1.036,0-1.036.682a.611.611,0,0,0,.259.518,1.184,1.184,0,0,0,.719.192A1.548,1.548,0,0,0,40.364,142.409Z" style="fill:#32a9fe" />
        <path d="M51.1,138.3v5.124H43.544V138.3h1.2v4.107H46.73V138.3h1.2v4.107H49.9V138.3Z" style="fill:#32a9fe" />
        <path d="M55.905,134.808h2.017v5.678l4.758-5.678h1.839v8.614H62.5v-5.678l-4.743,5.678H55.905Z" style="fill:#32a9fe" />
        <path d="M76.423,141.712v3.629H74.536v-1.919H67.89v1.919H66.019v-3.629h.4q.822-.033,1.121-1.057a13.384,13.384,0,0,0,.395-2.9l.113-2.952h7.1v6.9Zm-6.887-1.387a2.539,2.539,0,0,1-.646,1.387h4.243v-5.194H69.826l-.048,1.387A17.579,17.579,0,0,1,69.536,140.325Z" style="fill:#32a9fe" />
        <path d="M86.263,139.76H79.5a2.337,2.337,0,0,0,.928,1.508,3.04,3.04,0,0,0,1.863.557,3.14,3.14,0,0,0,2.339-.936l1.08,1.242a3.64,3.64,0,0,1-1.467,1.049,5.815,5.815,0,0,1-4.5-.21,4.051,4.051,0,0,1-1.669-1.573,4.434,4.434,0,0,1-.589-2.282,4.519,4.519,0,0,1,.572-2.267,4.07,4.07,0,0,1,1.589-1.572,4.631,4.631,0,0,1,2.291-.565,4.517,4.517,0,0,1,2.25.557,3.944,3.944,0,0,1,1.549,1.564,4.749,4.749,0,0,1,.556,2.331Q86.3,139.373,86.263,139.76ZM80.3,136.9a2.408,2.408,0,0,0-.815,1.524h4.888a2.357,2.357,0,0,0-2.436-2.1A2.43,2.43,0,0,0,80.3,136.9Z" style="fill:#32a9fe" />
        <path d="M95.538,134.808v8.614H93.731v-2.6H91.457l-1.758,2.6H87.537l2.033-2.871a2.878,2.878,0,0,1-1.428-.992,3.026,3.026,0,0,1,.557-3.945,4.631,4.631,0,0,1,2.887-.806ZM89.7,137.969q0,1.452,1.887,1.452h2.145V136.5H91.65Q89.7,136.5,89.7,137.969Z" style="fill:#32a9fe" />
        <path d="M61.581,111.681H52.617a1.895,1.895,0,1,0,0,3.789h8.964a1.895,1.895,0,1,0,0-3.789Zm.62,1.894a.621.621,0,0,1-.62.62H52.617a.62.62,0,0,1,0-1.24h8.964A.621.621,0,0,1,62.2,113.575Z" style="fill:#ffcb57" />
        <path d="M51.385,116.3a3.583,3.583,0,0,0,2.888,3.493,2.973,2.973,0,0,0,5.658,0,3.585,3.585,0,0,0,2.881-3.493v-.637H51.385Zm3.736,2.3-.294-.017a2.308,2.308,0,0,1-2.076-1.643h8.7a2.306,2.306,0,0,1-2.07,1.643l-.273.016Zm3.352,1.274a1.686,1.686,0,0,1-2.742,0Z" style="fill:#ffcb57" />
        <path d="M57.1,80.837A12.762,12.762,0,0,0,44.353,93.583a12.588,12.588,0,0,0,2.728,7.863,51.868,51.868,0,0,1,3.795,5.53v4.485h12.38v-4.376a58.984,58.984,0,0,1,3.861-5.637,12.586,12.586,0,0,0,2.729-7.865A12.761,12.761,0,0,0,57.1,80.837ZM55.525,99.616l.852,3.268,1.479-3.6.725,2.066,1.593-.728-2.05,9.563H56.147l-2.1-9.581Zm6.547,6.964-.091.151v3.455H59.428l2.724-12.705-1.247-.267-.453,2.115L59.2,99.9l-1.263-3.6L56.6,99.542,56.175,97.9,53.8,99.491,53.3,97.2l-1.349.3,2.779,12.69H52.151v-3.558l-.088-.15a53.218,53.218,0,0,0-3.98-5.821,11.32,11.32,0,0,1-2.455-7.074,11.472,11.472,0,0,1,22.943,0,11.323,11.323,0,0,1-2.455,7.076h0A60.28,60.28,0,0,0,62.072,106.58Z" style="fill:#ffcb57" />
        <path d="M57.566,78.762a.585.585,0,0,0,.584-.584V72.633a.584.584,0,1,0-1.168,0v5.545A.585.585,0,0,0,57.566,78.762Z" style="fill:#ffcb57" />
        <path d="M65.762,80.754a.589.589,0,0,0,.3.085.582.582,0,0,0,.5-.282l2.875-4.743a.584.584,0,1,0-1-.6l-2.874,4.742a.584.584,0,0,0,.2.8Z" style="fill:#ffcb57" />
        <path d="M71.344,87.532a.579.579,0,0,0,.27-.066L76.53,84.9a.584.584,0,0,0-.54-1.036l-4.917,2.567a.584.584,0,0,0,.271,1.1Z" style="fill:#ffcb57" />
        <path d="M78.915,94.465a.578.578,0,0,0-.4-.2l-5.537-.354a.584.584,0,0,0-.072,1.166l5.539.354h.033a.584.584,0,0,0,.438-.97Z" style="fill:#ffcb57" />
        <path d="M75.28,105.54l-4.549-3.171a.586.586,0,0,0-.438-.1.578.578,0,0,0-.375.241.584.584,0,0,0,.145.813l4.55,3.171a.577.577,0,0,0,.333.1.585.585,0,0,0,.479-.25.583.583,0,0,0-.145-.813Z" style="fill:#ffcb57" />
        <path d="M47.762,80.557a.582.582,0,0,0,.5.282.585.585,0,0,0,.5-.887l-2.874-4.743a.584.584,0,0,0-.8-.2.586.586,0,0,0-.2.8Z" style="fill:#ffcb57" />
        <path d="M37.8,84.9l4.916,2.566a.584.584,0,0,0,.54-1.036l-4.916-2.566A.584.584,0,0,0,37.8,84.9Z" style="fill:#ffcb57" />
        <path d="M41.967,94.46a.592.592,0,0,0-.62-.546l-5.535.354a.578.578,0,0,0-.4.2.584.584,0,0,0,.438.97l5.572-.355A.586.586,0,0,0,41.967,94.46Z" style="fill:#ffcb57" />
        <path d="M44.031,102.273a.571.571,0,0,0-.436.1l-4.549,3.17a.584.584,0,1,0,.668.959l4.549-3.171a.583.583,0,0,0-.232-1.054Z" style="fill:#ffcb57" />
        <path d="M27.514,151.358a1.731,1.731,0,0,1-.309,2.353,3.038,3.038,0,0,1-1.843.477H22.255v-6.549h2.929a2.926,2.926,0,0,1,1.721.439,1.439,1.439,0,0,1,.618,1.245,1.576,1.576,0,0,1-.248.889,1.556,1.556,0,0,1-.716.57A1.774,1.774,0,0,1,27.514,151.358Zm-4.061-.922h1.628a1.468,1.468,0,0,0,.9-.234.812.812,0,0,0,.309-.692.826.826,0,0,0-.309-.7,1.447,1.447,0,0,0-.9-.239H23.453Zm3.162,1.844q0-.956-1.291-.955H23.453v1.927h1.871Q26.615,153.252,26.615,152.28Z" style="fill:#32a9fe" />
        <path d="M37.609,147.639v6.549h-1.2v-5.52h-3.4v5.52h-1.2v-6.549Z" style="fill:#32a9fe" />
        <path d="M40.677,153.846a3.215,3.215,0,0,1-1.263-1.206,3.477,3.477,0,0,1,0-3.453,3.224,3.224,0,0,1,1.263-1.207,3.964,3.964,0,0,1,3.611,0,3.222,3.222,0,0,1,1.263,1.2,3.492,3.492,0,0,1,0,3.461,3.212,3.212,0,0,1-1.263,1.2,3.956,3.956,0,0,1-3.611,0Zm2.984-.926a2.13,2.13,0,0,0,.824-.823,2.492,2.492,0,0,0,0-2.367,2.133,2.133,0,0,0-.824-.824,2.509,2.509,0,0,0-2.357,0,2.13,2.13,0,0,0-.823.824,2.484,2.484,0,0,0,0,2.367,2.127,2.127,0,0,0,.823.823,2.5,2.5,0,0,0,2.357,0Z" style="fill:#32a9fe" />
        <path d="M52.765,147.639v6.549h-1.2v-5.52H48.985l-.056,1.637a13.7,13.7,0,0,1-.224,2.232,2.8,2.8,0,0,1-.571,1.3,1.373,1.373,0,0,1-1.086.445,3.3,3.3,0,0,1-.664-.094l.084-1.057a.957.957,0,0,0,.281.037.848.848,0,0,0,.809-.678,7.885,7.885,0,0,0,.3-2.138l.094-2.713Z" style="fill:#32a9fe" />
        <path d="M58.973,151.376a1.525,1.525,0,0,1,.332.978,1.5,1.5,0,0,1-.384,1.025,2.452,2.452,0,0,1-1.024.669,4.074,4.074,0,0,1-1.4.234,4.894,4.894,0,0,1-1.314-.183,4.368,4.368,0,0,1-1.221-.547l.393-.889a3.4,3.4,0,0,0,.954.444,3.655,3.655,0,0,0,1.039.155,2.392,2.392,0,0,0,1.23-.29.89.89,0,0,0,.491-.8.728.728,0,0,0-.355-.655,1.834,1.834,0,0,0-.983-.225H55.207v-.954h1.431a1.423,1.423,0,0,0,.852-.225.713.713,0,0,0,.309-.608.789.789,0,0,0-.417-.711,2.021,2.021,0,0,0-1.062-.253,3.442,3.442,0,0,0-.907.127,3.536,3.536,0,0,0-.88.369l-.383-.982a4.426,4.426,0,0,1,1.071-.407,4.792,4.792,0,0,1,1.128-.136,3.865,3.865,0,0,1,1.342.225,2.345,2.345,0,0,1,.978.64,1.5,1.5,0,0,1,.1,1.83,1.678,1.678,0,0,1-.721.561A1.871,1.871,0,0,1,58.973,151.376Z" style="fill:#32a9fe" />
        <path d="M65.022,152.673H61.747l-.646,1.515H59.848l2.947-6.549h1.2l2.957,6.549H65.677Zm-.4-.955-1.235-2.863-1.225,2.863Z" style="fill:#32a9fe" />
        <path d="M76.351,147.639v6.549H75.135v-2.807H71.748v2.807H70.532v-6.549h1.216v2.7h3.387v-2.7Z" style="fill:#32a9fe" />
        <path d="M82.527,152.673H79.252l-.646,1.515H77.352l2.948-6.549h1.2l2.957,6.549H83.182Zm-.4-.955-1.235-2.863-1.225,2.863Z" style="fill:#32a9fe" />
        <path d="M23.472,165.566a3.227,3.227,0,0,1-1.264-1.207,3.483,3.483,0,0,1,0-3.453,3.224,3.224,0,0,1,1.264-1.206,3.964,3.964,0,0,1,3.611,0,3.233,3.233,0,0,1,1.263,1.2,3.5,3.5,0,0,1,0,3.462,3.233,3.233,0,0,1-1.263,1.2,3.964,3.964,0,0,1-3.611,0Zm2.984-.926a2.133,2.133,0,0,0,.824-.824,2.492,2.492,0,0,0,0-2.367,2.13,2.13,0,0,0-.824-.823,2.5,2.5,0,0,0-2.358,0,2.134,2.134,0,0,0-.823.823,2.492,2.492,0,0,0,0,2.367,2.137,2.137,0,0,0,.823.824,2.511,2.511,0,0,0,2.358,0Z" style="fill:#32a9fe" />
        <path d="M30.161,159.358h5.1v1h-3.9v1.609H33.3a2.81,2.81,0,0,1,1.792.492,1.708,1.708,0,0,1,.613,1.417,1.8,1.8,0,0,1-.673,1.5,3.052,3.052,0,0,1-1.919.528H30.161Zm2.882,5.614a1.772,1.772,0,0,0,1.067-.272.92.92,0,0,0,.364-.786q0-1.009-1.431-1.01H31.359v2.068Z" style="fill:#32a9fe" />
        <path d="M45.449,159.358v6.549H37.038v-6.549h1.2v5.52h2.414v-5.52h1.2v5.52h2.4v-5.52Zm.945,5.52V167.3H45.271v-1.394H44.223v-1.029Z" style="fill:#32a9fe" />
        <path d="M52.475,164.888v1.019H47.563v-6.549h4.781v1.02H48.779v1.7h3.163v1H48.779v1.806Z" style="fill:#32a9fe" />
        <path d="M55.025,165.566a3.209,3.209,0,0,1-1.254-1.2,3.51,3.51,0,0,1,.005-3.462,3.24,3.24,0,0,1,1.258-1.2,3.678,3.678,0,0,1,1.792-.435,3.742,3.742,0,0,1,1.469.28,3,3,0,0,1,1.122.814l-.786.739a2.291,2.291,0,0,0-1.749-.767,2.447,2.447,0,0,0-1.207.3,2.121,2.121,0,0,0-.833.818,2.512,2.512,0,0,0,0,2.377,2.13,2.13,0,0,0,.833.819,2.457,2.457,0,0,0,1.207.294,2.273,2.273,0,0,0,1.749-.777l.786.749a2.975,2.975,0,0,1-1.127.814,3.774,3.774,0,0,1-1.474.281A3.686,3.686,0,0,1,55.025,165.566Z" style="fill:#32a9fe" />
        <path d="M65.228,160.387H63.057v5.52H61.85v-5.52H59.689v-1.029h5.539Z" style="fill:#32a9fe" />
        <path d="M71.543,163.077a1.731,1.731,0,0,1-.309,2.353,3.034,3.034,0,0,1-1.843.477H66.285v-6.549h2.928a2.932,2.932,0,0,1,1.722.44,1.439,1.439,0,0,1,.617,1.244,1.574,1.574,0,0,1-.248.889,1.555,1.555,0,0,1-.715.571A1.774,1.774,0,0,1,71.543,163.077Zm-4.061-.922H69.11a1.459,1.459,0,0,0,.9-.234.812.812,0,0,0,.309-.692.828.828,0,0,0-.309-.7,1.446,1.446,0,0,0-.9-.238H67.482ZM70.645,164q0-.956-1.292-.955H67.482v1.928h1.871Q70.645,164.972,70.645,164Z" style="fill:#32a9fe" />
        <path d="M74.48,165.566a3.231,3.231,0,0,1-1.263-1.207,3.483,3.483,0,0,1,0-3.453A3.228,3.228,0,0,1,74.48,159.7a3.967,3.967,0,0,1,3.612,0,3.24,3.24,0,0,1,1.263,1.2,3.5,3.5,0,0,1,0,3.462,3.24,3.24,0,0,1-1.263,1.2,3.967,3.967,0,0,1-3.612,0Zm2.985-.926a2.13,2.13,0,0,0,.823-.824,2.484,2.484,0,0,0,0-2.367,2.127,2.127,0,0,0-.823-.823,2.5,2.5,0,0,0-2.358,0,2.134,2.134,0,0,0-.823.823,2.484,2.484,0,0,0,0,2.367,2.137,2.137,0,0,0,.823.824,2.511,2.511,0,0,0,2.358,0Z" style="fill:#32a9fe" />
        <path d="M85.82,160.387H83.65v5.52H82.443v-5.52H80.281v-1.029H85.82Z" style="fill:#32a9fe" />
        <path d="M88,165.566a3.218,3.218,0,0,1-1.263-1.207,3.477,3.477,0,0,1,0-3.453A3.215,3.215,0,0,1,88,159.7a3.964,3.964,0,0,1,3.611,0,3.226,3.226,0,0,1,1.263,1.2,3.494,3.494,0,0,1,0,3.462,3.226,3.226,0,0,1-1.263,1.2,3.964,3.964,0,0,1-3.611,0Zm2.984-.926a2.133,2.133,0,0,0,.824-.824,2.492,2.492,0,0,0,0-2.367,2.13,2.13,0,0,0-.824-.823,2.5,2.5,0,0,0-2.357,0,2.127,2.127,0,0,0-.823.823,2.484,2.484,0,0,0,0,2.367,2.13,2.13,0,0,0,.823.824,2.509,2.509,0,0,0,2.357,0Z" style="fill:#32a9fe" />
        <ellipse cx="57.031" cy="127.761" rx="42.062" ry="2.715" style="opacity:0.9;mix-blend-mode:darken;fill:url(#d)" />
        <path d="M90.932,103.269s-.892,8.787-7.825,9.395c6.933.608,7.825,9.394,7.825,9.394s.891-8.786,7.824-9.394C91.823,112.056,90.932,103.269,90.932,103.269Z" style="fill:#fff9db;mix-blend-mode:multiply" />
        <path d="M103.872,84.683S103.283,90.5,98.7,90.9c4.587.4,5.176,6.215,5.176,6.215s.59-5.813,5.176-6.215C104.462,90.5,103.872,84.683,103.872,84.683Z" style="fill:#fff9db;mix-blend-mode:multiply" />
        <path d="M66.931,635.939v6.549h-1.2v-5.52h-3.4v5.52h-1.2v-6.549Z" style="fill:#32a9fe" />
        <path d="M73.513,636.219a2.16,2.16,0,0,1,.968.8,2.457,2.457,0,0,1,0,2.484,2.149,2.149,0,0,1-.968.809,3.63,3.63,0,0,1-1.483.281H70.552v1.89H69.335v-6.549h2.7A3.63,3.63,0,0,1,73.513,636.219Zm-.332,3.013a1.335,1.335,0,0,0,0-1.927,1.867,1.867,0,0,0-1.207-.337H70.552v2.6h1.422A1.867,1.867,0,0,0,73.181,639.232Z" style="fill:#32a9fe" />
        <path d="M81.442,641.468v1.02H76.53v-6.549h4.781v1.019H77.746v1.7h3.163v1H77.746v1.806Z" style="fill:#32a9fe" />
        <path d="M88.628,639.658a1.731,1.731,0,0,1-.309,2.353,3.036,3.036,0,0,1-1.843.477H83.369v-6.549H86.3a2.926,2.926,0,0,1,1.721.439,1.438,1.438,0,0,1,.618,1.245,1.571,1.571,0,0,1-.248.888,1.547,1.547,0,0,1-.716.571A1.774,1.774,0,0,1,88.628,639.658Zm-4.061-.922H86.2a1.468,1.468,0,0,0,.9-.234.814.814,0,0,0,.309-.692.826.826,0,0,0-.309-.7,1.447,1.447,0,0,0-.9-.239H84.567Zm3.162,1.843q0-.954-1.291-.954H84.567v1.927h1.871Q87.73,641.552,87.729,640.579Z" style="fill:#32a9fe" />
        <path d="M92.127,642.146a3.22,3.22,0,0,1-1.264-1.207,3.481,3.481,0,0,1,0-3.452,3.22,3.22,0,0,1,1.264-1.207,3.964,3.964,0,0,1,3.611,0,3.233,3.233,0,0,1,1.263,1.2,3.5,3.5,0,0,1,0,3.462,3.233,3.233,0,0,1-1.263,1.2,3.964,3.964,0,0,1-3.611,0Zm2.984-.926a2.13,2.13,0,0,0,.824-.823,2.492,2.492,0,0,0,0-2.367,2.133,2.133,0,0,0-.824-.824,2.511,2.511,0,0,0-2.358,0,2.137,2.137,0,0,0-.823.824,2.492,2.492,0,0,0,0,2.367,2.134,2.134,0,0,0,.823.823,2.5,2.5,0,0,0,2.358,0Z" style="fill:#32a9fe" />
        <path d="M105.674,641.459v2.423h-1.122v-1.394H99.527v1.394H98.4l.01-2.423h.28q.618-.028.866-.913a11.381,11.381,0,0,0,.3-2.53l.075-2.077h4.8v5.52Zm-4.958-1.212a2.4,2.4,0,0,1-.506,1.212h3.322v-4.491h-2.564l-.046,1.16A14.833,14.833,0,0,1,100.716,640.247Z" style="fill:#32a9fe" />
        <path d="M115.788,639.658a1.728,1.728,0,0,1-.309,2.353,3.034,3.034,0,0,1-1.843.477H110.53v-6.549h2.928a2.932,2.932,0,0,1,1.722.439,1.437,1.437,0,0,1,.617,1.245,1.563,1.563,0,0,1-.248.888,1.544,1.544,0,0,1-.715.571A1.768,1.768,0,0,1,115.788,639.658Zm-4.06-.922h1.627a1.471,1.471,0,0,0,.9-.234.816.816,0,0,0,.308-.692.828.828,0,0,0-.308-.7,1.451,1.451,0,0,0-.9-.239h-1.627Zm3.162,1.843q0-.954-1.291-.954h-1.871v1.927H113.6Q114.889,641.552,114.89,640.579Z" style="fill:#32a9fe" />
        <path d="M67.623,651.21v2.423H66.5v-1.394H61.476v1.394H60.344l.01-2.423h.28q.618-.029.866-.912a11.4,11.4,0,0,0,.3-2.531l.075-2.077h4.8v5.52ZM62.665,650a2.4,2.4,0,0,1-.506,1.211h3.322v-4.491H62.917l-.046,1.16A14.849,14.849,0,0,1,62.665,650Z" style="fill:#32a9fe" />
        <path d="M73.714,650.724H70.439l-.645,1.515H68.54l2.947-6.549h1.2l2.956,6.549H74.369Zm-.4-.955-1.235-2.863-1.226,2.863Z" style="fill:#32a9fe" />
        <path d="M81.381,645.971a2.161,2.161,0,0,1,.969.8,2.463,2.463,0,0,1,0,2.484,2.153,2.153,0,0,1-.969.81,3.627,3.627,0,0,1-1.483.28H78.42v1.89H77.2V645.69H79.9A3.61,3.61,0,0,1,81.381,645.971Zm-.332,3.012a1.333,1.333,0,0,0,0-1.927,1.867,1.867,0,0,0-1.207-.337H78.42v2.6h1.422A1.867,1.867,0,0,0,81.049,648.983Z" style="fill:#32a9fe" />
        <path d="M84.408,645.69h1.2v4.65l3.517-4.65h1.133v6.549h-1.2V647.6l-3.518,4.64H84.408Z" style="fill:#32a9fe" />
        <path d="M97.4,646.719H95.233v5.52H94.026v-5.52H91.865V645.69H97.4Z" style="fill:#32a9fe" />
        <path d="M103.925,651.219v1.02H99.013V645.69h4.781v1.02h-3.565v1.7h3.162v1h-3.162v1.805Z" style="fill:#32a9fe" />
        <path d="M111.437,645.69v6.549h-1.2v-5.52h-2.582l-.057,1.638a13.7,13.7,0,0,1-.224,2.231,2.8,2.8,0,0,1-.571,1.3,1.372,1.372,0,0,1-1.085.445,3.206,3.206,0,0,1-.664-.094l.084-1.057a.952.952,0,0,0,.281.037.848.848,0,0,0,.809-.678,7.887,7.887,0,0,0,.294-2.138l.094-2.713Z" style="fill:#32a9fe" />
        <path d="M115.063,651.9a3.211,3.211,0,0,1-1.254-1.2,3.336,3.336,0,0,1-.453-1.73,3.3,3.3,0,0,1,.458-1.731,3.242,3.242,0,0,1,1.258-1.2,3.7,3.7,0,0,1,1.792-.435,3.742,3.742,0,0,1,1.469.281,3,3,0,0,1,1.123.814l-.786.739a2.293,2.293,0,0,0-1.75-.767,2.449,2.449,0,0,0-1.207.295,2.118,2.118,0,0,0-.832.818,2.5,2.5,0,0,0,0,2.377,2.127,2.127,0,0,0,.832.819,2.46,2.46,0,0,0,1.207.294,2.281,2.281,0,0,0,1.75-.776l.786.748a2.986,2.986,0,0,1-1.128.814,3.772,3.772,0,0,1-1.473.281A3.69,3.69,0,0,1,115.063,651.9Z" style="fill:#32a9fe" />
        <path d="M123.563,649.479h-1.217v2.76h-1.2V645.69h1.2v2.741H123.6l1.881-2.741h1.291l-2.236,3.172,2.32,3.377h-1.375Z" style="fill:#32a9fe" />
        <path d="M132.479,650.724H129.2l-.645,1.515h-1.254l2.947-6.549h1.2l2.956,6.549h-1.272Zm-.4-.955-1.235-2.863-1.226,2.863Z" style="fill:#32a9fe" />
        <path d="M62.351,661.649a3.206,3.206,0,0,1-1.253-1.2,3.513,3.513,0,0,1,0-3.462,3.242,3.242,0,0,1,1.259-1.2,3.686,3.686,0,0,1,1.791-.435,3.724,3.724,0,0,1,1.469.281,2.99,2.99,0,0,1,1.123.813l-.786.739a2.292,2.292,0,0,0-1.75-.766,2.453,2.453,0,0,0-1.206.294,2.117,2.117,0,0,0-.833.819,2.5,2.5,0,0,0,0,2.376,2.11,2.11,0,0,0,.833.819,2.454,2.454,0,0,0,1.206.3,2.279,2.279,0,0,0,1.75-.777l.786.749a3,3,0,0,1-1.127.813,3.763,3.763,0,0,1-1.474.281A3.69,3.69,0,0,1,62.351,661.649Z" style="fill:#32a9fe" />
        <path d="M74.453,661.991l-.009-4.341-2.152,3.592h-.543L69.6,657.705v4.286H68.447v-6.55h1l2.591,4.332,2.564-4.332H75.6l.018,6.55Z" style="fill:#32a9fe" />
        <path d="M82.92,660.971v1.02H78.008v-6.55h4.781v1.02H79.225v1.7h3.162v1H79.225v1.806Z" style="fill:#32a9fe" />
        <path d="M89.591,656.47h-2.17v5.521H86.214V656.47H84.053v-1.029h5.538Z" style="fill:#32a9fe" />
        <path d="M93.614,659.231H92.4v2.76H91.2v-6.55h1.2v2.742h1.254l1.88-2.742h1.291l-2.236,3.172,2.321,3.378H95.532Z" style="fill:#32a9fe" />
        <path d="M102.531,660.475H99.256l-.646,1.516H97.357l2.947-6.55h1.2l2.956,6.55h-1.272Zm-.4-.954-1.235-2.863-1.225,2.863Z" style="fill:#32a9fe" />
        <g style="mix-blend-mode:multiply">
            <path d="M54.229,668.449a4.172,4.172,0,0,1-.849,3.309,4.461,4.461,0,0,1-2.9,1.825,3.258,3.258,0,0,1-3.762-2.682,4.251,4.251,0,0,1,.905-3.372,4.567,4.567,0,0,1,2.931-1.883,2.968,2.968,0,0,1,2.39.58A3.393,3.393,0,0,1,54.229,668.449Zm3.188-33.476a8.746,8.746,0,0,1-.509,3.451q-.517,1.811-1.82,8.508t-1.567,8.279a26.957,26.957,0,0,0-.314,3.816q-.056,1.731-2.04,2.064a2.275,2.275,0,0,1-2.975-2.1q-.445-2.655,1.449-10.724a90.21,90.21,0,0,1,3.126-11.151q1.233-3.083,2.805-3.346Q57.171,633.5,57.417,634.973Z" style="fill:#ffd7e9" />
        </g>
        <ellipse cx="83.49" cy="631.555" rx="46.49" ry="2.177" style="opacity:0.9;mix-blend-mode:darken;fill:url(#e)" />
        <path d="M184.415,788.978a3.211,3.211,0,0,1-1.263-1.207,3.475,3.475,0,0,1,0-3.452,3.218,3.218,0,0,1,1.263-1.207,3.964,3.964,0,0,1,3.611,0,3.226,3.226,0,0,1,1.263,1.2,3.494,3.494,0,0,1,0,3.462,3.226,3.226,0,0,1-1.263,1.2,3.964,3.964,0,0,1-3.611,0Zm2.984-.926a2.13,2.13,0,0,0,.824-.823,2.492,2.492,0,0,0,0-2.367,2.133,2.133,0,0,0-.824-.824,2.509,2.509,0,0,0-2.357,0,2.133,2.133,0,0,0-.824.824,2.492,2.492,0,0,0,0,2.367,2.13,2.13,0,0,0,.824.823,2.5,2.5,0,0,0,2.357,0Z" style="fill:#32a9fe" />
        <path d="M196.316,783.8h-2.171v5.52h-1.207V783.8h-2.161v-1.029h5.539Z" style="fill:#32a9fe" />
        <path d="M202.94,782.771v6.549h-1.207v-2.47a5.025,5.025,0,0,1-1.759.346,2.808,2.808,0,0,1-1.932-.6,2.2,2.2,0,0,1-.678-1.735v-2.086h1.206v1.955a1.351,1.351,0,0,0,.4,1.057,1.65,1.65,0,0,0,1.151.365,3.824,3.824,0,0,0,1.609-.346v-3.031Z" style="fill:#32a9fe" />
        <path d="M205.344,782.771h1.2v4.65l3.517-4.65h1.133v6.549h-1.2v-4.641l-3.518,4.641h-1.132Z" style="fill:#32a9fe" />
        <path d="M218.34,783.8h-2.171v5.52h-1.207V783.8H212.8v-1.029h5.539Z" style="fill:#32a9fe" />
        <path d="M223.963,787.8h-3.275l-.646,1.516h-1.253l2.947-6.549h1.2l2.956,6.549h-1.272Zm-.4-.954-1.235-2.863L221.1,786.85Z" style="fill:#32a9fe" />
        <path d="M233.272,782.771v6.549h-1.216v-2.807h-3.387v2.807h-1.216v-6.549h1.216v2.7h3.387v-2.7Z" style="fill:#32a9fe" />
        <path d="M240.579,788.3v1.02h-4.912v-6.549h4.781v1.019h-3.565v1.7h3.163v1h-3.163V788.3Z" style="fill:#32a9fe" />
        <path d="M251.46,782.771v6.549h-1.216v-2.807h-3.387v2.807h-1.216v-6.549h1.216v2.7h3.387v-2.7Z" style="fill:#32a9fe" />
        <path d="M258.2,787.8h-3.274l-.646,1.516h-1.254l2.947-6.549h1.2l2.957,6.549h-1.273Zm-.4-.954-1.235-2.863-1.226,2.863Z" style="fill:#32a9fe" />
        <path d="M186.871,792.8a2.158,2.158,0,0,1,.968.8,2.457,2.457,0,0,1,0,2.484,2.144,2.144,0,0,1-.968.81,3.63,3.63,0,0,1-1.483.28H183.91v1.89h-1.217v-6.549h2.695A3.63,3.63,0,0,1,186.871,792.8Zm-.332,3.012a1.335,1.335,0,0,0,0-1.927,1.868,1.868,0,0,0-1.208-.337H183.91v2.6h1.421A1.868,1.868,0,0,0,186.539,795.815Z" style="fill:#32a9fe" />
        <path d="M193.9,797.556h-3.275l-.646,1.515h-1.253l2.947-6.549h1.2l2.956,6.549h-1.272Zm-.4-.955-1.235-2.863-1.225,2.863Z" style="fill:#32a9fe" />
        <path d="M201.756,796.26a1.522,1.522,0,0,1,.332.978,1.5,1.5,0,0,1-.383,1.024,2.462,2.462,0,0,1-1.025.669,4.047,4.047,0,0,1-1.4.234,4.938,4.938,0,0,1-1.314-.182,4.37,4.37,0,0,1-1.221-.548l.393-.889a3.419,3.419,0,0,0,.954.445,3.659,3.659,0,0,0,1.039.154,2.39,2.39,0,0,0,1.23-.29.887.887,0,0,0,.491-.8.726.726,0,0,0-.355-.655,1.832,1.832,0,0,0-.983-.225H197.99v-.954h1.432a1.421,1.421,0,0,0,.851-.225.711.711,0,0,0,.309-.608.792.792,0,0,0-.416-.711,2.026,2.026,0,0,0-1.062-.252,3.612,3.612,0,0,0-1.787.5l-.384-.982a4.426,4.426,0,0,1,1.071-.407,4.858,4.858,0,0,1,1.128-.136,3.865,3.865,0,0,1,1.342.225,2.334,2.334,0,0,1,.978.641,1.5,1.5,0,0,1,.1,1.829,1.681,1.681,0,0,1-.72.561A1.858,1.858,0,0,1,201.756,796.26Z" style="fill:#32a9fe" />
        <path d="M204.689,792.522l1.544,2.189,1.544-2.189H209.2l-2.2,3.144,2.377,3.4h-1.441l-1.7-2.386-1.694,2.386h-1.4l2.367-3.358-2.217-3.191Z" style="fill:#32a9fe" />
        <path d="M211.959,798.73a3.227,3.227,0,0,1-1.264-1.207,3.483,3.483,0,0,1,0-3.453,3.217,3.217,0,0,1,1.264-1.206,3.956,3.956,0,0,1,3.611,0,3.219,3.219,0,0,1,1.263,1.2,3.5,3.5,0,0,1,0,3.461,3.228,3.228,0,0,1-1.263,1.2,3.964,3.964,0,0,1-3.611,0Zm2.984-.926a2.13,2.13,0,0,0,.823-.824,2.484,2.484,0,0,0,0-2.367,2.127,2.127,0,0,0-.823-.823,2.5,2.5,0,0,0-2.358,0,2.134,2.134,0,0,0-.823.823,2.492,2.492,0,0,0,0,2.367,2.137,2.137,0,0,0,.823.824,2.511,2.511,0,0,0,2.358,0Z" style="fill:#32a9fe" />
        <path d="M225.506,798.042v2.423h-1.123v-1.394h-5.024v1.394h-1.132l.01-2.423h.28q.618-.029.866-.912a11.4,11.4,0,0,0,.3-2.531l.074-2.077h4.8v5.52Zm-4.958-1.211a2.4,2.4,0,0,1-.506,1.211h3.322v-4.491H220.8l-.047,1.16A14.851,14.851,0,0,1,220.548,796.831Z" style="fill:#32a9fe" />
        <path d="M227.218,792.522h1.2v4.65l3.518-4.65h1.132v6.549h-1.2v-4.64l-3.518,4.64h-1.132Z" style="fill:#32a9fe" />
        <path d="M240.214,793.551h-2.171v5.52h-1.207v-5.52h-2.161v-1.029h5.539Z" style="fill:#32a9fe" />
        <path d="M246.735,798.051v1.02h-4.912v-6.549H246.6v1.02H243.04v1.7H246.2v1H243.04v1.805Z" style="fill:#32a9fe" />
        <path d="M232.96,731.364H214a.682.682,0,0,0-.079.01h0a.766.766,0,0,0-.082.023l-.014,0a.6.6,0,0,0-.073.033l0,0a.633.633,0,0,0-.07.044l-.015.011c-.023.018-.044.036-.064.055h0l-6.755,6.755h0a.664.664,0,0,0-.055.064l-.011.015a.53.53,0,0,0-.045.071l0,0a.583.583,0,0,0-.032.072l-.006.015a.584.584,0,0,0-.022.082v0a.648.648,0,0,0-.009.077v29.767a1.986,1.986,0,0,0,1.984,1.984H232.96a1.986,1.986,0,0,0,1.984-1.984V733.349A1.986,1.986,0,0,0,232.96,731.364Zm-19.548,2.162V737.4a.718.718,0,0,1-.718.717h-3.875Zm20.265,34.95a.718.718,0,0,1-.717.717H208.641a.718.718,0,0,1-.718-.717v-29.09h4.771a1.986,1.986,0,0,0,1.984-1.984v-4.771H232.96a.718.718,0,0,1,.717.718Z" style="fill:#ffcb57" />
        <path d="M212.694,749.519h16.213a.634.634,0,0,0,0-1.267H212.694a.634.634,0,0,0,0,1.267Z" style="fill:#ffcb57" />
        <path d="M212.694,752.9h16.213a.633.633,0,0,0,0-1.266H212.694a.633.633,0,0,0,0,1.266Z" style="fill:#ffcb57" />
        <path d="M212.694,756.274H220.8a.633.633,0,1,0,0-1.266h-8.106a.633.633,0,0,0,0,1.266Z" style="fill:#ffcb57" />
        <path d="M221.434,759.018a.634.634,0,0,0-.634-.633h-8.106a.634.634,0,0,0,0,1.267H220.8A.634.634,0,0,0,221.434,759.018Z" style="fill:#ffcb57" />
        <path d="M224.136,742.3a.634.634,0,0,0-1.267,0c0,1.235,1.145,2.232,2.7,2.448v.085a.634.634,0,1,0,1.267,0v-.085c1.557-.216,2.7-1.213,2.7-2.448s-1.145-2.232-2.7-2.447v-2.426c.763.159,1.435.591,1.435,1.158a.634.634,0,0,0,1.267,0c0-1.235-1.145-2.232-2.7-2.447v-.086a.634.634,0,1,0-1.267,0v.086c-1.557.215-2.7,1.212-2.7,2.447s1.145,2.232,2.7,2.447v2.426C224.808,743.3,224.136,742.866,224.136,742.3Zm4.137,0c0,.567-.672,1-1.435,1.158v-2.315C227.6,741.3,228.273,741.732,228.273,742.3Zm-4.137-3.715c0-.567.672-1,1.435-1.158v2.315C224.808,739.582,224.136,739.151,224.136,738.584Z" style="fill:#ffcb57" />
        <path d="M230.153,758.426a.634.634,0,0,0-.863.24l-1.3,2.3-.179-.137a.634.634,0,0,0-.954.221l-.658,1.332-.211-.242a1.309,1.309,0,0,0-2.223.431l-.726,2.091-1.729-2.184a.635.635,0,0,0-.913-.084l-1.836,1.6a.634.634,0,0,0,.833.955l1.335-1.165,1.651,2.085a.971.971,0,0,0,.761.369.985.985,0,0,0,.162-.014.969.969,0,0,0,.755-.639l.9-2.6a.042.042,0,0,1,.071-.014l.836.959a.633.633,0,0,0,1.045-.136l.737-1.491.144.111a.637.637,0,0,0,.513.119.629.629,0,0,0,.425-.309l1.662-2.941A.634.634,0,0,0,230.153,758.426Z" style="fill:#ffcb57" />
        <ellipse cx="220.923" cy="775.123" rx="46.49" ry="2.177" style="opacity:0.9;mix-blend-mode:darken;fill:url(#f)" />
        <path d="M243.241,756.587s-.891,8.786-7.825,9.394c6.934.608,7.825,9.394,7.825,9.394s.891-8.786,7.825-9.394C244.132,765.373,243.241,756.587,243.241,756.587Z" style="fill:#fff9db;mix-blend-mode:multiply" />
        <path d="M248.553,732.915s-.589,5.812-5.176,6.214c4.587.4,5.176,6.215,5.176,6.215s.59-5.813,5.177-6.215C249.143,738.727,248.553,732.915,248.553,732.915Z" style="fill:#fff9db;mix-blend-mode:multiply" />
        <path d="M99.266,477.606a4.478,4.478,0,0,1-1.75-1.678,4.9,4.9,0,0,1,.007-4.832,4.521,4.521,0,0,1,1.756-1.678,5.146,5.146,0,0,1,2.5-.608,5.22,5.22,0,0,1,2.05.392,4.178,4.178,0,0,1,1.567,1.136l-1.1,1.032a3.2,3.2,0,0,0-2.442-1.071,3.413,3.413,0,0,0-1.684.412,2.963,2.963,0,0,0-1.163,1.142,3.5,3.5,0,0,0,0,3.317,2.959,2.959,0,0,0,1.163,1.143,3.423,3.423,0,0,0,1.684.411,3.18,3.18,0,0,0,2.442-1.084l1.1,1.045a4.164,4.164,0,0,1-1.574,1.136,5.264,5.264,0,0,1-2.056.392A5.145,5.145,0,0,1,99.266,477.606Z" style="fill:#32a9fe" />
        <path d="M113.507,470.378h-3.03v7.7h-1.685v-7.7h-3.016v-1.437h7.731Z" style="fill:#32a9fe" />
        <path d="M120.572,475.967H116l-.9,2.115h-1.75l4.114-9.141h1.671l4.127,9.141h-1.776Zm-.562-1.332-1.724-4-1.71,4Z" style="fill:#32a9fe" />
        <path d="M130.49,469.333a3,3,0,0,1,1.351,1.123,3.426,3.426,0,0,1,0,3.467,2.988,2.988,0,0,1-1.351,1.13,5.067,5.067,0,0,1-2.07.391h-2.063v2.638h-1.7v-9.141h3.761A5.05,5.05,0,0,1,130.49,469.333Zm-.464,4.2a1.861,1.861,0,0,0,0-2.69,2.6,2.6,0,0,0-1.684-.47h-1.985v3.63h1.985A2.608,2.608,0,0,0,130.026,473.538Z" style="fill:#32a9fe" />
        <path d="M140.29,470.378h-3.029v7.7h-1.685v-7.7H132.56v-1.437h7.73Z" style="fill:#32a9fe" />
        <path d="M141.805,477.88a.976.976,0,0,1-.3-.725.952.952,0,0,1,.3-.718,1.05,1.05,0,0,1,.758-.287,1.01,1.01,0,0,1,.737.287.962.962,0,0,1,.294.718.986.986,0,0,1-.294.725,1,1,0,0,1-.737.294A1.039,1.039,0,0,1,141.805,477.88Zm-.209-8.939h1.933l-.326,6.112H141.91Z" style="fill:#32a9fe" />
        <path d="M85.6,461.705h0a3.222,3.222,0,0,0-1.33-.723l-.2-.053-.073-.195a3.22,3.22,0,0,0-3-2.078c-.055,0-.111,0-.167,0a3.213,3.213,0,0,0-3.042,3.369l.238,4.679a.867.867,0,0,0,.91.822l4.679-.238a3.21,3.21,0,0,0,1.989-5.588Zm-1.057,3.371a1.471,1.471,0,0,1-1.02.485l-3.813.194-.194-3.813a1.475,1.475,0,1,1,2.947-.15.861.861,0,0,0,.285.6.875.875,0,0,0,.625.223,1.475,1.475,0,0,1,1.17,2.462Z" style="fill:#ffcb57" />
        <path d="M93.714,452.718a3.176,3.176,0,0,0-1.33-.723l-.2-.053-.073-.195a3.22,3.22,0,0,0-3-2.078c-.056,0-.111,0-.167,0a3.213,3.213,0,0,0-3.042,3.369l.238,4.679a.867.867,0,0,0,.91.822l4.679-.238a3.21,3.21,0,0,0,1.988-5.588Zm-2.076,3.855-3.813.194-.194-3.813a1.475,1.475,0,0,1,2.947-.15.868.868,0,0,0,.91.823,1.473,1.473,0,0,1,1.548,1.4A1.477,1.477,0,0,1,91.638,456.573Z" style="fill:#ffcb57" />
        <path d="M105.4,437.3a.865.865,0,0,0-.685-.217A41.641,41.641,0,0,0,75.98,454.062l-2.611,3.628-13.355,5a.865.865,0,0,0-.443.372l-4.753,8.051a.868.868,0,0,0,.653,1.3l7.971.871,4.571,4.128-2.676,2.963a.867.867,0,1,0,1.287,1.163l2.676-2.964,4.571,4.128,1.675,7.842a.868.868,0,0,0,1.363.516l7.527-5.544a.874.874,0,0,0,.324-.479l3.615-13.794,3.344-2.965a41.648,41.648,0,0,0,13.97-30.313A.872.872,0,0,0,105.4,437.3Zm-42,34.23-6.411-.7,3.913-6.63,10.636-3.979ZM83.16,484.3l-6.2,4.565-1.348-6.306,10.425-9.245Zm18.2-32.971a39.98,39.98,0,0,1-10.789,15.65l-15.9,14.1-4.2-3.8,5.307-5.877a.867.867,0,0,0-.062-1.225.869.869,0,0,0-1.225.062l-5.308,5.877-4.2-3.8,12.415-17.252a39.98,39.98,0,0,1,14.473-12.322l.391-.2.164.406a13.4,13.4,0,0,0,8.676,7.836l.42.121Zm2.541-11.89a39.756,39.756,0,0,1-1.7,9.459l-.116.375-.377-.105a11.66,11.66,0,0,1-7.725-6.976l-.142-.365.361-.153a39.744,39.744,0,0,1,9.237-2.655l.494-.079Z" style="fill:#ffcb57" />
        <path d="M140.047,448.018a3.923,3.923,0,0,0-4.808-2.912,5.777,5.777,0,0,0-6.942-3.067,7.111,7.111,0,0,0-12.773,1.243,4.879,4.879,0,0,0-7.25,4.263c0,.16.008.317.023.473Z" style="fill:#d8f2ff;mix-blend-mode:multiply" />
        <path d="M73.274,454.745a3.684,3.684,0,0,0-4.514-2.735,5.421,5.421,0,0,0-6.518-2.879A6.677,6.677,0,0,0,50.249,450.3a4.58,4.58,0,0,0-6.807,4c0,.15.007.3.021.445Z" style="fill:#d8f2ff;mix-blend-mode:multiply" />
        <path d="M78.551,500.433s-.389,3.838-3.417,4.1c3.028.266,3.417,4.1,3.417,4.1s.389-3.837,3.418-4.1C78.94,504.271,78.551,500.433,78.551,500.433Z" style="fill:#fff9db;mix-blend-mode:multiply" />
        <path d="M188.242,888.956h-4.387V900.02H178.89V888.956H174.5v-3.917h13.739Z" style="fill:#32a9fe" />
        <path d="M189.912,885.039h4.965v7.79l5.157-7.79h4.751V900.02H199.82v-7.768l-5.136,7.768h-4.772Z" style="fill:#32a9fe" />
        <path d="M190.468,905.91l-6.014,11.279a8.284,8.284,0,0,1-2.621,3.06,5.969,5.969,0,0,1-3.413,1.049,7.693,7.693,0,0,1-2.911-.6l1.177-3.638a6.137,6.137,0,0,0,1.541.257,2.15,2.15,0,0,0,.952-.193,2.3,2.3,0,0,0,.76-.641L174.2,905.91h5.328l2.975,6.314,3.082-6.314Z" style="fill:#32a9fe" />
        <path d="M194.556,920.238a7.436,7.436,0,0,1-2.986-2.782,8.154,8.154,0,0,1,0-8.111,7.436,7.436,0,0,1,2.986-2.782,9.1,9.1,0,0,1,4.28-1,9.409,9.409,0,0,1,3.895.77,7.239,7.239,0,0,1,2.825,2.226l-3.189,2.846a4.093,4.093,0,0,0-3.274-1.754,3.347,3.347,0,0,0-2.547,1.016,4.347,4.347,0,0,0,0,5.457,3.344,3.344,0,0,0,2.547,1.017,4.092,4.092,0,0,0,3.274-1.755l3.189,2.846a7.23,7.23,0,0,1-2.825,2.226,9.393,9.393,0,0,1-3.895.77A9.091,9.091,0,0,1,194.556,920.238Z" style="fill:#32a9fe" />
        <path d="M221.563,905.91v14.981H216.6V909.827H212.04v11.064h-4.965V905.91Z" style="fill:#32a9fe" />
        <path d="M237.357,905.91v14.981h-4.965v-3.552h-1.348l-2.29,3.552h-5.286l2.954-4.28a5.136,5.136,0,0,1-2.237-1.937,5.482,5.482,0,0,1-.781-2.964,5.551,5.551,0,0,1,.845-3.082,5.46,5.46,0,0,1,2.408-2.011,8.868,8.868,0,0,1,3.681-.707Zm-8.86,5.714a1.693,1.693,0,0,0,1.926,1.9h1.969v-3.724h-1.969Q228.5,909.805,228.5,911.624Z" style="fill:#32a9fe" />
        <path d="M239.155,905.91h5.778l-.963,9.246h-3.852Zm.856,14.446a2.409,2.409,0,0,1-.792-1.819,2.337,2.337,0,0,1,.792-1.809,3.244,3.244,0,0,1,4.066,0,2.34,2.34,0,0,1,.792,1.809,2.412,2.412,0,0,1-.792,1.819,3.134,3.134,0,0,1-4.066,0Z" style="fill:#32a9fe" />
        <g style="mix-blend-mode:multiply">
            <path d="M240.247,883.578a7.033,7.033,0,0,0-1.19-3.132,6.314,6.314,0,0,0-1.715-1.6,5.632,5.632,0,0,0-2.18-.845,5.824,5.824,0,0,0-.981-.08,8.086,8.086,0,0,0-2.574.453,7.323,7.323,0,0,0-2.388,1.381,10.237,10.237,0,0,0-1.829,2.073,8.642,8.642,0,0,0-.523.9,8.512,8.512,0,0,0-.513,1.3c-.048-.064-.092-.131-.146-.19l-.148-.163c-.014-.016-.029-.031-.044-.046a7.252,7.252,0,0,0-3.47-1.908,5.4,5.4,0,0,0-.791-.124c-.271-.026-.551-.052-.827-.052-.119,0-.237,0-.354.016a7.505,7.505,0,0,0-1.136.191,7.207,7.207,0,0,0-1.206.461,5.657,5.657,0,0,0-1.529,1.108,5.362,5.362,0,0,0-.905,1.131,6.9,6.9,0,0,0-.9,3.054,7.482,7.482,0,0,0,.156,2.146,6.669,6.669,0,0,0,.722,1.849,7.369,7.369,0,0,0,.957,1.358,19.829,19.829,0,0,0,1.62,1.661,28.837,28.837,0,0,0,2.855,2.258,39.64,39.64,0,0,0,3.5,2.2c4.784,2.626,8.611,3.509,8.722,2.263a11.043,11.043,0,0,1,1.408-4.689q.141-.237.285-.471c.769-1.245,1.606-2.45,2.391-3.686a22.71,22.71,0,0,0,2.262-4.438,9.578,9.578,0,0,0,.485-2.1,9.114,9.114,0,0,0,.076-1.057A8.737,8.737,0,0,0,240.247,883.578Z" style="fill:#ffd7e9" />
            <path d="M238.489,883.455a.377.377,0,0,1,.1.538.428.428,0,0,1-.57.1.377.377,0,0,1-.1-.539.427.427,0,0,1,.569-.095Z" style="fill:#ffd7e9" />
            <path d="M238.281,885.621a.269.269,0,0,1,.072.384.306.306,0,0,1-.406.068.268.268,0,0,1-.072-.383.306.306,0,0,1,.406-.069Z" style="fill:#ffd7e9" />
            <path d="M237.553,887.866a.18.18,0,0,1,.049.26.207.207,0,0,1-.275.047.182.182,0,0,1-.049-.261.206.206,0,0,1,.275-.046Z" style="fill:#ffd7e9" />
            <path d="M236.328,889.549a.2.2,0,0,1,.054.289.228.228,0,0,1-.305.051.2.2,0,0,1-.054-.288.229.229,0,0,1,.305-.052Z" style="fill:#ffd7e9" />
        </g>
        <ellipse cx="139.84" cy="939.202" rx="56.821" ry="2.661" style="opacity:0.9;mix-blend-mode:darken;fill:url(#g)" />
        <g style="mix-blend-mode:multiply">
            <path d="M138.188,894.283a12.193,12.193,0,0,0,22.885,0" style="fill:none;stroke:#ff7db9;stroke-linecap:round;stroke-linejoin:round;stroke-width:2.25325227356481px" />
            <path d="M146.627,886.656a1.518,1.518,0,1,1-1.518-1.518A1.518,1.518,0,0,1,146.627,886.656Z" style="fill:#ff7db9" />
            <path d="M155.67,886.656a1.518,1.518,0,1,1-1.518-1.518A1.517,1.517,0,0,1,155.67,886.656Z" style="fill:#ff7db9" />
        </g>
        <g style="mix-blend-mode:multiply">
            <path d="M133.193,912.413a10.016,10.016,0,0,1-18.8,0" style="fill:none;stroke:#ffcb57;stroke-linecap:round;stroke-linejoin:round;stroke-width:2.25325227356481px" />
            <path d="M126.261,906.148a1.247,1.247,0,1,0,1.247-1.247A1.247,1.247,0,0,0,126.261,906.148Z" style="fill:#ffcb00" />
            <path d="M118.833,906.148a1.247,1.247,0,1,0,1.247-1.247A1.246,1.246,0,0,0,118.833,906.148Z" style="fill:#ffcb00" />
            <circle cx="123.756" cy="910.883" r="16.836" style="fill:none;stroke:#ffcb57;stroke-linejoin:round;stroke-width:2.25325227356481px" />
        </g>
        <g style="mix-blend-mode:multiply">
            <path d="M139.718,921.08a6.333,6.333,0,0,0,11.887,0" style="fill:none;stroke:#49c4ff;stroke-linecap:round;stroke-linejoin:round;stroke-width:1.77041250065807px" />
            <path d="M144.1,917.118a.789.789,0,1,1-.788-.788A.788.788,0,0,1,144.1,917.118Z" style="fill:#49c4ff" />
            <path d="M148.8,917.118a.789.789,0,1,1-.789-.788A.788.788,0,0,1,148.8,917.118Z" style="fill:#49c4ff" />
        </g>
        <circle cx="148.709" cy="891.342" r="20.143" style="fill:none;stroke:#ff7db9;stroke-linejoin:round;stroke-width:2.25325227356481px;mix-blend-mode:multiply" />
        <circle cx="146.078" cy="919.677" r="10.598" style="fill:none;stroke:#49c4ff;stroke-linecap:round;stroke-linejoin:round;stroke-width:1.73352890689436px;mix-blend-mode:multiply" />
        <path d="M116.385,53.718v7.331h-1.047V57.782h-4.21v3.267h-1.047V53.718h1.047v3.153h4.21V53.718Z" style="fill:#32a9fe" />
        <path d="M123.453,55.5l-2.691,6.1a2.769,2.769,0,0,1-.832,1.2,1.905,1.905,0,0,1-1.147.344,2.408,2.408,0,0,1-.791-.131,1.593,1.593,0,0,1-.633-.381l.429-.754a1.4,1.4,0,0,0,1,.408.965.965,0,0,0,.612-.193,1.647,1.647,0,0,0,.445-.665l.178-.388-2.45-5.539h1.047l1.938,4.439,1.916-4.439Z" style="fill:#32a9fe" />
        <path d="M129.212,58.7h-1.078v2.346h-1.006V58.7H126.05l-1.529,2.346h-1.193l1.905-2.87-1.759-2.68h1.068l1.5,2.345h1.089V55.5h1.006v2.345h1.089l1.5-2.345H131.8l-1.76,2.691,1.906,2.859h-1.194Z" style="fill:#32a9fe" />
        <path d="M138.7,60.169v2.168h-.942V61.049h-4.639v1.288h-.953V60.169h.293q.534-.031.733-.754a10.227,10.227,0,0,0,.273-2.042l.083-1.874h4.3v4.67Zm-4.487-.99a1.7,1.7,0,0,1-.476.99h3.11v-3.79h-2.409l-.052,1.068A11.981,11.981,0,0,1,134.212,59.179Z" style="fill:#32a9fe" />
        <path d="M143.751,56.012a2.181,2.181,0,0,1,.613,1.686v3.351h-.953v-.734a1.584,1.584,0,0,1-.717.592,2.725,2.725,0,0,1-1.1.2,2.306,2.306,0,0,1-1.492-.45,1.548,1.548,0,0,1-.026-2.361,2.634,2.634,0,0,1,1.7-.445h1.592v-.2a1.283,1.283,0,0,0-.377-.995,1.59,1.59,0,0,0-1.11-.346,2.938,2.938,0,0,0-.963.163,2.476,2.476,0,0,0-.8.435l-.419-.754a3.022,3.022,0,0,1,1.026-.529,4.3,4.3,0,0,1,1.267-.183A2.508,2.508,0,0,1,143.751,56.012Zm-1,4.068a1.464,1.464,0,0,0,.608-.728v-.774h-1.55q-1.278,0-1.277.858a.775.775,0,0,0,.324.659,1.473,1.473,0,0,0,.9.242A1.864,1.864,0,0,0,142.751,60.08Z" style="fill:#32a9fe" />
        <path d="M151.17,58.609h-4.5a1.747,1.747,0,0,0,.644,1.178,2.1,2.1,0,0,0,1.367.445,2.055,2.055,0,0,0,1.6-.671l.555.65a2.438,2.438,0,0,1-.937.67,3.539,3.539,0,0,1-2.812-.131,2.58,2.58,0,0,1-1.052-1.01,2.9,2.9,0,0,1-.372-1.466,2.952,2.952,0,0,1,.361-1.456,2.606,2.606,0,0,1,1-1.011,2.842,2.842,0,0,1,1.43-.36,2.788,2.788,0,0,1,1.419.36,2.546,2.546,0,0,1,.973,1.011,3.079,3.079,0,0,1,.351,1.487A2.881,2.881,0,0,1,151.17,58.609Zm-3.932-1.875a1.781,1.781,0,0,0-.571,1.152h3.56a1.779,1.779,0,0,0-.57-1.146,1.876,1.876,0,0,0-2.419-.006Z" style="fill:#32a9fe" />
        <path d="M160.657,55.5v5.55h-7.906V55.5h1v4.67h2.45V55.5h1.006v4.67h2.439V55.5Z" style="fill:#32a9fe" />
        <path d="M166.327,60.745a2.673,2.673,0,0,1-1.042-1.011,3.017,3.017,0,0,1,0-2.921,2.654,2.654,0,0,1,1.042-1.006,3.124,3.124,0,0,1,1.513-.36,2.908,2.908,0,0,1,1.345.3,2.166,2.166,0,0,1,.916.88l-.764.492a1.718,1.718,0,0,0-.649-.6,1.848,1.848,0,0,0-.859-.2,1.981,1.981,0,0,0-.979.241,1.7,1.7,0,0,0-.68.686,2.263,2.263,0,0,0,0,2.052,1.7,1.7,0,0,0,.68.686,1.981,1.981,0,0,0,.979.241,1.848,1.848,0,0,0,.859-.2,1.71,1.71,0,0,0,.649-.6l.764.482a2.2,2.2,0,0,1-.916.884,2.849,2.849,0,0,1-1.345.309A3.083,3.083,0,0,1,166.327,60.745Z" style="fill:#32a9fe" />
        <path d="M176.31,58.609h-4.5a1.747,1.747,0,0,0,.644,1.178,2.1,2.1,0,0,0,1.367.445,2.055,2.055,0,0,0,1.6-.671l.554.65a2.43,2.43,0,0,1-.937.67,3.536,3.536,0,0,1-2.811-.131,2.568,2.568,0,0,1-1.052-1.01,2.9,2.9,0,0,1-.372-1.466,2.941,2.941,0,0,1,.361-1.456,2.593,2.593,0,0,1,1-1.011,2.838,2.838,0,0,1,1.429-.36,2.782,2.782,0,0,1,1.419.36,2.548,2.548,0,0,1,.974,1.011,3.079,3.079,0,0,1,.35,1.487A2.633,2.633,0,0,1,176.31,58.609Zm-3.931-1.875a1.776,1.776,0,0,0-.571,1.152h3.56a1.789,1.789,0,0,0-.57-1.146,1.876,1.876,0,0,0-2.419-.006Z" style="fill:#32a9fe" />
        <path d="M110.8,71.211a2.654,2.654,0,0,1-1.032-1.011,3.06,3.06,0,0,1,0-2.921,2.621,2.621,0,0,1,1.032-1.006,3.239,3.239,0,0,1,2.968,0,2.625,2.625,0,0,1,1.026,1.006,3.053,3.053,0,0,1,0,2.921,2.658,2.658,0,0,1-1.026,1.011,3.192,3.192,0,0,1-2.968,0Zm2.444-.759a1.725,1.725,0,0,0,.665-.692,2.283,2.283,0,0,0,0-2.042,1.688,1.688,0,0,0-.665-.685,2.025,2.025,0,0,0-1.916,0,1.739,1.739,0,0,0-.67.685,2.242,2.242,0,0,0,0,2.042,1.777,1.777,0,0,0,.67.692,1.988,1.988,0,0,0,1.916,0Z" style="fill:#32a9fe" />
        <path d="M120.552,66.844h-2.031v4.67h-1v-4.67h-2.032v-.879h5.068Z" style="fill:#32a9fe" />
        <path d="M125.3,71.211a2.673,2.673,0,0,1-1.042-1.011,3.017,3.017,0,0,1,0-2.921,2.64,2.64,0,0,1,1.042-1.006,3.124,3.124,0,0,1,1.513-.36,2.9,2.9,0,0,1,1.346.3,2.176,2.176,0,0,1,.916.879l-.765.493a1.711,1.711,0,0,0-.649-.6,1.844,1.844,0,0,0-.858-.2,1.976,1.976,0,0,0-.979.241,1.707,1.707,0,0,0-.681.685,2.265,2.265,0,0,0,0,2.053,1.7,1.7,0,0,0,.681.686,1.976,1.976,0,0,0,.979.241,1.844,1.844,0,0,0,.858-.2,1.7,1.7,0,0,0,.649-.6l.765.482a2.205,2.205,0,0,1-.916.884,2.868,2.868,0,0,1-1.346.309A3.083,3.083,0,0,1,125.3,71.211Z" style="fill:#32a9fe" />
        <path d="M134.762,66.268a2.584,2.584,0,0,1,1,1,3.21,3.21,0,0,1,0,2.958,2.564,2.564,0,0,1-1,1,2.916,2.916,0,0,1-1.446.356,2.551,2.551,0,0,1-1.094-.231,2.282,2.282,0,0,1-.843-.67v2.87h-1V65.965h.963v.879a2.145,2.145,0,0,1,.848-.7,2.685,2.685,0,0,1,1.131-.235A2.926,2.926,0,0,1,134.762,66.268Zm-.571,4.184a1.771,1.771,0,0,0,.67-.692,2.242,2.242,0,0,0,0-2.042,1.732,1.732,0,0,0-.67-.685,1.9,1.9,0,0,0-.958-.241,1.856,1.856,0,0,0-.948.246,1.775,1.775,0,0,0-.67.686,2.046,2.046,0,0,0-.246,1.016,2.1,2.1,0,0,0,.241,1.02,1.724,1.724,0,0,0,.67.692,1.979,1.979,0,0,0,1.911,0Z" style="fill:#32a9fe" />
        <path d="M142.573,69.075h-4.5a1.747,1.747,0,0,0,.644,1.178,2.1,2.1,0,0,0,1.367.445,2.059,2.059,0,0,0,1.6-.671l.555.649a2.427,2.427,0,0,1-.937.67,3.24,3.24,0,0,1-1.252.231,3.276,3.276,0,0,1-1.56-.361,2.58,2.58,0,0,1-1.052-1.01,2.9,2.9,0,0,1-.372-1.466,2.941,2.941,0,0,1,.361-1.456,2.586,2.586,0,0,1,1-1.011,2.841,2.841,0,0,1,1.429-.36,2.782,2.782,0,0,1,1.419.36,2.542,2.542,0,0,1,.974,1.011,3.079,3.079,0,0,1,.351,1.487A2.9,2.9,0,0,1,142.573,69.075ZM138.641,67.2a1.776,1.776,0,0,0-.571,1.152h3.56a1.777,1.777,0,0,0-.57-1.146,1.873,1.873,0,0,0-2.419-.006Z" style="fill:#32a9fe" />
        <path d="M149.7,70.634V72.8h-.942V71.514h-4.639V72.8h-.953V70.634h.293q.534-.03.733-.753a10.238,10.238,0,0,0,.273-2.042l.083-1.874h4.3v4.669Zm-4.487-.989a1.7,1.7,0,0,1-.476.989h3.109v-3.79h-2.408l-.052,1.069A11.981,11.981,0,0,1,145.217,69.645Z" style="fill:#32a9fe" />
        <path d="M151.918,71.211a2.677,2.677,0,0,1-1.041-1.011,3.017,3.017,0,0,1,0-2.921,2.644,2.644,0,0,1,1.041-1.006,3.131,3.131,0,0,1,1.514-.36,2.9,2.9,0,0,1,1.345.3,2.17,2.17,0,0,1,.916.879l-.764.493a1.718,1.718,0,0,0-.649-.6,1.851,1.851,0,0,0-.859-.2,1.981,1.981,0,0,0-.979.241,1.7,1.7,0,0,0-.68.685,2.265,2.265,0,0,0,0,2.053,1.7,1.7,0,0,0,.68.686,1.981,1.981,0,0,0,.979.241,1.851,1.851,0,0,0,.859-.2,1.71,1.71,0,0,0,.649-.6l.764.482a2.2,2.2,0,0,1-.916.884,2.861,2.861,0,0,1-1.345.309A3.089,3.089,0,0,1,151.918,71.211Z" style="fill:#32a9fe" />
        <path d="M161.055,66.844h-2.032v4.67h-1v-4.67h-2.031v-.879h5.068Z" style="fill:#32a9fe" />
        <path d="M166.939,69.986a1.315,1.315,0,0,1-.549,1.131,2.8,2.8,0,0,1-1.639.4H162.08V65.965h2.577a2.743,2.743,0,0,1,1.539.372,1.193,1.193,0,0,1,.555,1.051,1.245,1.245,0,0,1-.236.76,1.459,1.459,0,0,1-.654.486A1.279,1.279,0,0,1,166.939,69.986Zm-3.874-1.634h1.508a1.516,1.516,0,0,0,.874-.21.693.693,0,0,0,.3-.606q0-.8-1.172-.8h-1.508Zm2.555,2.189a.681.681,0,0,0,.314-.618.738.738,0,0,0-.288-.639,1.553,1.553,0,0,0-.906-.209h-1.675V70.74h1.613A1.783,1.783,0,0,0,165.62,70.541Z" style="fill:#32a9fe" />
        <path d="M172.253,66.478a2.181,2.181,0,0,1,.613,1.686v3.35h-.953v-.733a1.589,1.589,0,0,1-.717.592,2.745,2.745,0,0,1-1.1.2,2.312,2.312,0,0,1-1.492-.45,1.444,1.444,0,0,1-.561-1.183,1.46,1.46,0,0,1,.535-1.179,2.635,2.635,0,0,1,1.7-.444h1.592v-.2a1.283,1.283,0,0,0-.377-1,1.59,1.59,0,0,0-1.11-.346,2.934,2.934,0,0,0-.963.163,2.457,2.457,0,0,0-.8.435l-.419-.754a3.023,3.023,0,0,1,1.026-.53,4.3,4.3,0,0,1,1.267-.182A2.508,2.508,0,0,1,172.253,66.478Zm-1,4.068a1.464,1.464,0,0,0,.608-.728v-.774h-1.55q-1.278,0-1.277.858a.773.773,0,0,0,.324.659,1.48,1.48,0,0,0,.9.241A1.866,1.866,0,0,0,171.253,70.546Z" style="fill:#32a9fe" />
        <path d="M181.358,69.1a1.14,1.14,0,0,1,.3.807,1.29,1.29,0,0,1-.335.874,2.2,2.2,0,0,1-.927.6,3.867,3.867,0,0,1-1.324.215,4.555,4.555,0,0,1-1.21-.162,3.7,3.7,0,0,1-1.053-.466l.3-.765a3.362,3.362,0,0,0,.911.393,3.9,3.9,0,0,0,1.037.141,2.261,2.261,0,0,0,1.136-.246.745.745,0,0,0,.424-.665.663.663,0,0,0-.34-.6,1.837,1.837,0,0,0-.958-.21h-1.016V68.29h.942a1.7,1.7,0,0,0,.89-.2.612.612,0,0,0,.325-.545.644.644,0,0,0-.382-.586,2.149,2.149,0,0,0-1.031-.21,4.148,4.148,0,0,0-1.749.429l-.272-.775a4.649,4.649,0,0,1,2.125-.513,3.592,3.592,0,0,1,1.2.189,1.963,1.963,0,0,1,.838.534,1.158,1.158,0,0,1,.3.785,1.111,1.111,0,0,1-.273.734,1.7,1.7,0,0,1-.733.492A1.757,1.757,0,0,1,181.358,69.1Z" style="fill:#32a9fe" />
        <path d="M186.934,66.478a2.185,2.185,0,0,1,.612,1.686v3.35h-.952v-.733a1.587,1.587,0,0,1-.718.592,2.737,2.737,0,0,1-1.1.2,2.31,2.31,0,0,1-1.492-.45,1.444,1.444,0,0,1-.561-1.183,1.459,1.459,0,0,1,.534-1.179,2.638,2.638,0,0,1,1.7-.444h1.591v-.2a1.283,1.283,0,0,0-.377-1,1.585,1.585,0,0,0-1.109-.346,2.944,2.944,0,0,0-.964.163,2.478,2.478,0,0,0-.8.435l-.419-.754a3.028,3.028,0,0,1,1.027-.53,4.292,4.292,0,0,1,1.266-.182A2.512,2.512,0,0,1,186.934,66.478Zm-1,4.068a1.467,1.467,0,0,0,.607-.728v-.774h-1.549q-1.278,0-1.278.858a.776.776,0,0,0,.324.659,1.484,1.484,0,0,0,.9.241A1.867,1.867,0,0,0,185.934,70.546Z" style="fill:#32a9fe" />
        <path d="M117.732,75.24v8.4h-1.92V76.824h-2.88l-.06,1.752a17.9,17.9,0,0,1-.288,2.9,3.583,3.583,0,0,1-.762,1.7,1.906,1.906,0,0,1-1.494.594,4.326,4.326,0,0,1-.96-.132l.12-1.643a1.215,1.215,0,0,0,.348.048,1.01,1.01,0,0,0,.972-.823,10.054,10.054,0,0,0,.348-2.574l.12-3.408Z" style="fill:#32a9fe" />
        <path d="M126.336,82.081V83.64h-6.5v-8.4h6.348V76.8h-4.416v1.824h3.9v1.511h-3.9v1.945Z" style="fill:#32a9fe" />
        <path d="M134.807,75.24v8.4h-1.919V80.616a5.953,5.953,0,0,1-2.028.4,3.753,3.753,0,0,1-2.593-.81,2.98,2.98,0,0,1-.9-2.334V75.24h1.919v2.412a1.714,1.714,0,0,0,.463,1.3,1.87,1.87,0,0,0,1.338.437,4.4,4.4,0,0,0,1.8-.372V75.24Z" style="fill:#32a9fe" />
        <path d="M143.4,82.081V83.64h-6.5v-8.4h6.348V76.8h-4.416v1.824h3.9v1.511h-3.9v1.945Z" style="fill:#32a9fe" />
        <path d="M152.676,75.24v8.4h-1.944V80.2h-3.817V83.64h-1.943v-8.4h1.943v3.312h3.817V75.24Z" style="fill:#32a9fe" />
        <path d="M154.775,75.24h1.932v5.473l4.008-5.473h1.824v8.4H160.62V78.18l-4.009,5.46h-1.836Z" style="fill:#32a9fe" />
        <path d="M171.131,82.081V83.64h-6.5v-8.4h6.348V76.8h-4.416v1.824h3.9v1.511h-3.9v1.945Z" style="fill:#32a9fe" />
        <polygon points="151.66 19.051 139.604 19.051 139.604 6.9 127.931 6.9 127.931 19.051 115.78 19.051 115.78 30.82 127.931 30.82 127.931 42.971 139.604 42.971 139.604 30.82 151.66 30.82 151.66 19.051" style="fill:none;stroke:#ffcb57;stroke-miterlimit:10;stroke-width:1.41732283464567px" />
        <ellipse cx="134.914" cy="46.481" rx="24.846" ry="2.715" style="opacity:0.9;mix-blend-mode:darken;fill:url(#h)" />
        <path d="M155.172,6.843s-.589,5.812-5.176,6.214c4.587.4,5.176,6.215,5.176,6.215s.59-5.813,5.176-6.215C155.762,12.655,155.172,6.843,155.172,6.843Z" style="fill:#fff9db;mix-blend-mode:multiply" />
        <path d="M164.038,17.967s-.369,3.64-3.242,3.892c2.873.252,3.242,3.893,3.242,3.893s.369-3.641,3.242-3.893C164.407,21.607,164.038,17.967,164.038,17.967Z" style="fill:#fff9db;mix-blend-mode:multiply" />
        <path d="M177.42,83.73a133.63,133.63,0,0,1,55.44,18,131.9,131.9,0,0,1,29.04,23.43" style="fill:none;stroke:#ff7db9;stroke-linecap:round;stroke-linejoin:round;stroke-width:1.47586778203369px;stroke-dasharray:2.951735734939575,5.411515235900879" />
        <path d="M63.166,581.466l41.36,18.612L63.077,618.87l.089-16.094,33-2.548-33.058-2.637S63.077,581.377,63.166,581.466Z" style="fill:none;stroke:#ffcb57;stroke-linecap:round;stroke-linejoin:round;stroke-width:1.66110236220472px" />
        <ellipse cx="95.735" cy="499.754" rx="46.161" ry="2.161" style="opacity:0.9;mix-blend-mode:darken;fill:url(#i)" />
        <path d="M228.032,337.215a4.494,4.494,0,0,1-1.76-1.688,4.852,4.852,0,0,1,.009-4.819,4.493,4.493,0,0,1,1.766-1.681,5.541,5.541,0,0,1,5.041.009,4.519,4.519,0,0,1,1.759,1.682,4.877,4.877,0,0,1-.009,4.832,4.5,4.5,0,0,1-1.766,1.674,5.53,5.53,0,0,1-5.04-.009Zm4.168-1.285a2.971,2.971,0,0,0,1.151-1.147,3.473,3.473,0,0,0,.006-3.3,2.972,2.972,0,0,0-1.147-1.151,3.492,3.492,0,0,0-3.291-.006,2.978,2.978,0,0,0-1.151,1.147,3.473,3.473,0,0,0-.006,3.3,2.978,2.978,0,0,0,1.147,1.151,3.5,3.5,0,0,0,3.291.006Z" style="fill:#32a9fe" />
        <path d="M246.159,336.289l-.006,3.382-1.567,0,0-1.946-7.013-.013,0,1.946-1.58,0,.019-3.382h.392q.863-.038,1.211-1.271a15.922,15.922,0,0,0,.43-3.532l.11-2.9,6.7.012-.014,7.7Zm-6.918-1.7a3.361,3.361,0,0,1-.708,1.69l4.636.008.011-6.268-3.578-.007-.068,1.62A20.5,20.5,0,0,1,239.241,334.585Z" style="fill:#32a9fe" />
        <path d="M249.461,337.254a4.5,4.5,0,0,1-1.759-1.687,4.852,4.852,0,0,1,.009-4.819,4.489,4.489,0,0,1,1.766-1.682,5.534,5.534,0,0,1,5.04.01,4.505,4.505,0,0,1,1.76,1.681,4.877,4.877,0,0,1-.009,4.832,4.513,4.513,0,0,1-1.766,1.675,5.537,5.537,0,0,1-5.041-.01Zm4.169-1.285a2.965,2.965,0,0,0,1.151-1.147,3.473,3.473,0,0,0,.006-3.3,2.978,2.978,0,0,0-1.147-1.151,3.492,3.492,0,0,0-3.291-.006,2.971,2.971,0,0,0-1.151,1.147,3.473,3.473,0,0,0-.006,3.3,2.978,2.978,0,0,0,1.147,1.151,3.5,3.5,0,0,0,3.291.006Z" style="fill:#32a9fe" />
        <path d="M258.814,328.607l7.117.013,0,1.4-5.446-.01,0,2.246,2.7,0a3.924,3.924,0,0,1,2.5.691,2.389,2.389,0,0,1,.852,1.979,2.511,2.511,0,0,1-.945,2.1,4.247,4.247,0,0,1-2.678.732l-4.113-.007Zm4.008,7.843a2.47,2.47,0,0,0,1.489-.376,1.285,1.285,0,0,0,.512-1.1q0-1.412-2-1.415l-2.35,0,0,2.886Z" style="fill:#32a9fe" />
        <path d="M274.229,329.027a3.007,3.007,0,0,1,1.35,1.125,3.43,3.43,0,0,1-.007,3.468,3,3,0,0,1-1.353,1.127,5.089,5.089,0,0,1-2.071.388l-2.063,0,0,2.638-1.7,0,.016-9.141,3.761.006A5.057,5.057,0,0,1,274.229,329.027Zm-.471,4.2a1.862,1.862,0,0,0,0-2.69,2.606,2.606,0,0,0-1.684-.473l-1.985,0-.006,3.63,1.985,0A2.607,2.607,0,0,0,273.758,333.231Z" style="fill:#32a9fe" />
        <path d="M284.5,336.371l0,1.424-6.856-.013.016-9.141,6.673.012,0,1.424-4.976-.009,0,2.376,4.414.009,0,1.4-4.414-.008,0,2.52Z" style="fill:#32a9fe" />
        <path d="M294.53,328.672l-.016,9.141-1.7,0,.007-3.918-4.727-.008-.007,3.918-1.7,0,.016-9.142,1.7,0-.007,3.774,4.728.008.006-3.774Z" style="fill:#32a9fe" />
        <path d="M297.1,328.677l1.672,0-.012,6.49,4.922-6.481,1.58,0-.017,9.141-1.671,0,.012-6.477-4.922,6.468-1.581,0Z" style="fill:#32a9fe" />
        <path d="M314.666,336.427l0,1.423-6.856-.012.016-9.141,6.674.012,0,1.423-4.975-.009,0,2.377,4.414.008,0,1.4-4.413-.008,0,2.52Z" style="fill:#32a9fe" />
        <circle cx="267.361" cy="296.16" r="21.471" style="fill:none;stroke:#ffcb57;stroke-miterlimit:10;stroke-width:1.65991759882391px" />
        <path d="M261.62,307.56h-1.815V294.989l.208-.2a21.964,21.964,0,0,0,3.45-4.942c.217-.379.433-.756.651-1.128l.023-.037a6.2,6.2,0,0,0,.37-3.035,4.537,4.537,0,0,1,.272-2.323,1.715,1.715,0,0,1,1.261-.741,2.449,2.449,0,0,1,2.507,1.372c1.526,3.068,1.164,4.984.662,7.636-.069.365-.139.737-.208,1.129,1.045.024,2.1.013,3.135,0,1.144-.013,2.328-.026,3.495.01a3.411,3.411,0,0,1,2.586.885,1.79,1.79,0,0,1,.346,1.49,2.732,2.732,0,0,1-1.092,1.857,1.9,1.9,0,0,1,.5,1.6,2.748,2.748,0,0,1-1.079,1.8,1.963,1.963,0,0,1,.483,1.365,2.673,2.673,0,0,1-1.1,2.066,1.76,1.76,0,0,1,.371,1.615,3.124,3.124,0,0,1-2.948,2.141C270.465,307.56,264.183,307.56,261.62,307.56Zm-.443-1.373c2.193,0,9.081,0,12.52,0a1.785,1.785,0,0,0,1.619-1.1c.026-.106.086-.347-.332-.592a.837.837,0,0,1-.595-.889.9.9,0,0,1,.818-.775,1.285,1.285,0,0,0,.8-1.122.587.587,0,0,0-.471-.624l-.051-.015-.047-.024a.8.8,0,0,1-.456-.921.993.993,0,0,1,.812-.7,1.377,1.377,0,0,0,.819-1.034.546.546,0,0,0-.285-.6l-.034-.021-.053-.023a1.1,1.1,0,0,1-.639-.568l-.023-.054-.014-.057a.835.835,0,0,1,.475-.946l.063-.032.068-.017a1.327,1.327,0,0,0,1.037-1.182l0-.013c.046-.273-.027-.363-.055-.4-.127-.156-.5-.348-1.565-.381-1.139-.035-2.308-.022-3.438-.01-1.306.015-2.656.029-3.986-.029l-.767-.033.119-.759c.111-.708.235-1.361.343-1.937.486-2.566.779-4.115-.542-6.77a1.08,1.08,0,0,0-1.093-.623.445.445,0,0,0-.285.114,6.488,6.488,0,0,0-.06,1.556,6.886,6.886,0,0,1-.593,3.819c-.212.361-.421.727-.632,1.1a24.089,24.089,0,0,1-3.478,5.038Z" style="fill:#ffcb57" />
        <path d="M259.97,307.56H257.3a1.178,1.178,0,0,1-1.177-1.176V295.769a1.178,1.178,0,0,1,1.177-1.177h2.667a1.177,1.177,0,0,1,1.176,1.177v10.615A1.177,1.177,0,0,1,259.97,307.56Zm-2.471-1.373h2.275V295.965H257.5Z" style="fill:#ffcb57" />
        <ellipse cx="270.21" cy="322.157" rx="46.49" ry="2.177" style="opacity:0.9;mix-blend-mode:darken;fill:url(#j)" />
        <path d="M41.712,311.033v8.041H39.863v-6.525h-3.63v6.525h-1.85v-8.041Z" style="fill:#32a9fe" />
        <path d="M44.716,318.758a3.02,3.02,0,0,1-1.212-1.131,3.314,3.314,0,0,1,0-3.286,3.043,3.043,0,0,1,1.212-1.132,3.961,3.961,0,0,1,3.5,0,3.047,3.047,0,0,1,1.206,1.132,3.307,3.307,0,0,1,0,3.286,3.037,3.037,0,0,1-1.206,1.131,3.953,3.953,0,0,1-3.5,0ZM47.6,317.23a1.977,1.977,0,0,0,0-2.492,1.49,1.49,0,0,0-1.131-.466,1.51,1.51,0,0,0-1.138.466,1.957,1.957,0,0,0,0,2.492,1.507,1.507,0,0,0,1.138.466A1.49,1.49,0,0,0,47.6,317.23Z" style="fill:#32a9fe" />
        <path d="M57.391,312.894v5.146a3.3,3.3,0,0,1-.884,2.527,3.651,3.651,0,0,1-2.585.827,6.48,6.48,0,0,1-1.7-.218,3.72,3.72,0,0,1-1.333-.631l.713-1.287a2.941,2.941,0,0,0,.988.512,3.938,3.938,0,0,0,1.195.189,1.939,1.939,0,0,0,1.372-.419,1.671,1.671,0,0,0,.442-1.27v-.264a2.509,2.509,0,0,1-1.953.77,3.294,3.294,0,0,1-1.557-.373,2.86,2.86,0,0,1-1.12-1.051,3.154,3.154,0,0,1,0-3.124,2.863,2.863,0,0,1,1.12-1.052,3.294,3.294,0,0,1,1.557-.373,2.453,2.453,0,0,1,2.045.885V312.9h1.7Zm-2.223,3.992a1.552,1.552,0,0,0,0-2.194A1.651,1.651,0,0,0,54,314.273a1.675,1.675,0,0,0-1.172.419,1.54,1.54,0,0,0,0,2.194,1.675,1.675,0,0,0,1.172.419A1.645,1.645,0,0,0,55.168,316.886Z" style="fill:#32a9fe" />
        <path d="M61.814,316.731H60.9v2.343H59.114v-8.523H60.9V315.3h.953l1.688-2.4h1.906l-2.17,2.964,2.309,3.216H63.467Z" style="fill:#32a9fe" />
        <path d="M71.675,313.2a2.869,2.869,0,0,1,1.109,1.114,3.678,3.678,0,0,1,0,3.344,2.855,2.855,0,0,1-1.109,1.114,3.152,3.152,0,0,1-1.568.4,2.386,2.386,0,0,1-1.861-.746V321.3H66.454V312.9h1.712v.712a2.377,2.377,0,0,1,1.941-.805A3.16,3.16,0,0,1,71.675,313.2Zm-.746,4.032a1.981,1.981,0,0,0,0-2.492,1.607,1.607,0,0,0-2.263,0,1.977,1.977,0,0,0,0,2.492,1.607,1.607,0,0,0,2.263,0Z" style="fill:#32a9fe" />
        <path d="M80.411,316.49H75.736a1.453,1.453,0,0,0,.6.907,1.98,1.98,0,0,0,1.172.333,2.383,2.383,0,0,0,.855-.143,2.069,2.069,0,0,0,.7-.454l.954,1.034a3.206,3.206,0,0,1-2.55,1,4.022,4.022,0,0,1-1.85-.408,2.981,2.981,0,0,1-1.241-1.131,3.119,3.119,0,0,1-.436-1.643,3.159,3.159,0,0,1,.43-1.637,3.025,3.025,0,0,1,1.183-1.138,3.67,3.67,0,0,1,3.326-.017,2.847,2.847,0,0,1,1.154,1.12,3.345,3.345,0,0,1,.419,1.695Q80.445,316.041,80.411,316.49ZM76.218,314.5a1.467,1.467,0,0,0-.505.942h3.044a1.485,1.485,0,0,0-.505-.936,1.515,1.515,0,0,0-1.011-.351A1.55,1.55,0,0,0,76.218,314.5Z" style="fill:#32a9fe" />
        <path d="M87.424,313.491a2.736,2.736,0,0,1,.706,2.045v3.538H86.338v-3.262a1.613,1.613,0,0,0-.321-1.1,1.182,1.182,0,0,0-.931-.362,1.427,1.427,0,0,0-1.079.419,1.738,1.738,0,0,0-.4,1.247v3.055H81.813v-6.18h1.712v.723a2.368,2.368,0,0,1,.884-.6,3.083,3.083,0,0,1,1.161-.213A2.547,2.547,0,0,1,87.424,313.491Z" style="fill:#32a9fe" />
        <path d="M95.792,312.894v6.18H94.08v-.724a2.206,2.206,0,0,1-.845.609,2.728,2.728,0,0,1-1.062.207,2.65,2.65,0,0,1-1.936-.7,2.778,2.778,0,0,1-.718-2.079v-3.492h1.792v3.227q0,1.494,1.252,1.494a1.361,1.361,0,0,0,1.046-.42,1.768,1.768,0,0,0,.39-1.246v-3.055Z" style="fill:#32a9fe" />
        <path d="M97.354,318.844a1.09,1.09,0,0,1-.321-.8,1.05,1.05,0,0,1,.321-.8,1.185,1.185,0,0,1,1.585,0,1.054,1.054,0,0,1,.322.8,1.121,1.121,0,0,1-1.907.8Z" style="fill:#32a9fe" />
        <path d="M105.406,313.681a2.518,2.518,0,0,1,1.028,1.017,3.082,3.082,0,0,1,.362,1.516,2.882,2.882,0,0,1-.43,1.568,2.849,2.849,0,0,1-1.2,1.056,3.948,3.948,0,0,1-1.746.373,3.232,3.232,0,0,1-2.545-1.039,4.458,4.458,0,0,1-.924-3.05,4.926,4.926,0,0,1,.809-2.969,3.909,3.909,0,0,1,2.487-1.454l2.941-.586.24,1.54-2.6.516a3.139,3.139,0,0,0-1.568.69,2.1,2.1,0,0,0-.6,1.367,2.721,2.721,0,0,1,.966-.672,3.149,3.149,0,0,1,1.229-.236A3.213,3.213,0,0,1,105.406,313.681Zm-.867,3.693a1.6,1.6,0,0,0,.419-1.138,1.433,1.433,0,0,0-1.528-1.528,1.542,1.542,0,0,0-1.125.414,1.481,1.481,0,0,0-.425,1.114,1.558,1.558,0,0,0,.436,1.143,1.5,1.5,0,0,0,1.114.442A1.439,1.439,0,0,0,104.539,317.374Z" style="fill:#32a9fe" />
        <path d="M108.347,318.661a1.64,1.64,0,0,1-.827-1.471,1.369,1.369,0,0,1,.35-.994,1.974,1.974,0,0,1,.834-.516,10.191,10.191,0,0,1,1.228-.294,6.131,6.131,0,0,0,1.017-.247.42.42,0,0,0,.316-.407.478.478,0,0,0-.3-.448,1.876,1.876,0,0,0-.828-.15,4.506,4.506,0,0,0-1.022.126,4.125,4.125,0,0,0-.884.3l-.517-1.206a5.409,5.409,0,0,1,2.424-.585,3.666,3.666,0,0,1,2.056.529,1.685,1.685,0,0,1,.8,1.493,1.4,1.4,0,0,1-.356,1.011,2,2,0,0,1-.844.522,9.12,9.12,0,0,1-1.247.282,5.947,5.947,0,0,0-1,.247.408.408,0,0,0-.31.385.478.478,0,0,0,.315.448,2,2,0,0,0,.845.15,4.766,4.766,0,0,0,1.217-.167,4.419,4.419,0,0,0,1.022-.385l.517,1.195a5.082,5.082,0,0,1-1.281.517,5.633,5.633,0,0,1-1.43.184A3.909,3.909,0,0,1,108.347,318.661Z" style="fill:#32a9fe" />
    </g>
</svg>
