<svg xmlns="http://www.w3.org/2000/svg" version="1.1" id="prefix__prefix__Layer_1" x="0" y="0" viewBox="0 0 1096 1114.6" xml:space="preserve"><defs id="prefix__prefix__defs1580"><radialGradient id="prefix__prefix__SVGID_4_" cx="335.253" cy="2971.443" r="129.273" gradientTransform="matrix(.6388 0 0 .06045 571.436 430.33)" gradientUnits="userSpaceOnUse"><stop offset=".103" id="prefix__prefix__stop1084" stop-color="#e0e3e2"/><stop offset=".268" id="prefix__prefix__stop1086" stop-color="#e9ebea"/><stop offset=".684" id="prefix__prefix__stop1088" stop-color="#f9fafa"/><stop offset="1" id="prefix__prefix__stop1090" stop-color="#fff"/></radialGradient></defs><style type="text/css" id="style797">.prefix__prefix__st1{fill:#fff}.prefix__prefix__st3{fill:#ffcb57}.prefix__prefix__st9{fill:#fff9db}.prefix__prefix__st10{fill:#ffd7e9}.prefix__prefix__st13{fill:#d8f2ff}.prefix__prefix__st16{fill:#ff7db9}.prefix__prefix__st18{fill:#ffcb00}.prefix__prefix__st21{fill:#49c4ff}.prefix__prefix__st45{fill:#32a9fe}.prefix__prefix__st49{fill:none;stroke:#ff7db9;stroke-width:2.126;stroke-linecap:round;stroke-linejoin:round;stroke-miterlimit:10;stroke-dasharray:2.9517,5.4115}</style><g id="prefix__prefix__g844"><ellipse class="prefix__prefix__st1" cx="294.7" cy="501.1" rx="62.2" ry="99.6" id="prefix__prefix__ellipse799"/><g id="prefix__prefix__g819"><path class="prefix__prefix__st45" d="M218.3 553.7c-1.6-.9-2.9-2.1-3.8-3.7-.9-1.6-1.4-3.3-1.4-5.2 0-1.9.5-3.7 1.4-5.2.9-1.6 2.2-2.8 3.8-3.7 1.6-.9 3.5-1.3 5.5-1.3s3.9.4 5.5 1.3 2.9 2.1 3.8 3.7c.9 1.6 1.4 3.3 1.4 5.3s-.5 3.7-1.4 5.2c-.9 1.5-2.2 2.8-3.8 3.6s-3.5 1.3-5.5 1.3-3.8-.4-5.5-1.3zm9.1-2.8c1.1-.6 1.9-1.4 2.5-2.5.6-1.1.9-2.3.9-3.6 0-1.3-.3-2.5-.9-3.6-.6-1.1-1.4-1.9-2.5-2.5-1.1-.6-2.3-.9-3.6-.9-1.3 0-2.5.3-3.6.9-1.1.6-1.9 1.4-2.5 2.5-.6 1.1-.9 2.3-.9 3.6 0 1.3.3 2.5.9 3.6.6 1.1 1.4 1.9 2.5 2.5 1.1.6 2.3.9 3.6.9 1.3 0 2.5-.3 3.6-.9z" id="prefix__prefix__path801"/><path class="prefix__prefix__st45" d="M257.7 551.7v7.4h-3.4v-4.2h-15.2v4.2h-3.4v-7.4h.9c1.2-.1 2.1-1 2.6-2.8.5-1.8.8-4.3.9-7.7l.2-6.3h14.6v16.7l2.8.1zm-15-3.7c-.3 1.7-.8 2.9-1.5 3.7h10.1v-13.6h-7.8l-.1 3.5c-.2 2.5-.4 4.7-.7 6.4z" id="prefix__prefix__path803"/><path class="prefix__prefix__st45" d="M264.9 553.8c-1.6-.9-2.9-2.1-3.8-3.7-.9-1.6-1.4-3.3-1.4-5.2 0-1.9.5-3.7 1.4-5.2.9-1.6 2.2-2.8 3.8-3.7 1.6-.9 3.5-1.3 5.5-1.3s3.9.4 5.5 1.3 2.9 2.1 3.8 3.7c.9 1.6 1.4 3.3 1.4 5.3s-.5 3.7-1.4 5.2c-.9 1.6-2.2 2.8-3.8 3.6s-3.5 1.3-5.5 1.3-3.9-.4-5.5-1.3zm9.1-2.8c1.1-.6 1.9-1.4 2.5-2.5.6-1.1.9-2.3.9-3.6 0-1.3-.3-2.5-.9-3.6-.6-1.1-1.4-1.9-2.5-2.5-1.1-.6-2.3-.9-3.6-.9-1.3 0-2.5.3-3.6.9-1.1.6-1.9 1.4-2.5 2.5-.6 1.1-.9 2.3-.9 3.6 0 1.3.3 2.5.9 3.6.6 1.1 1.4 1.9 2.5 2.5 1.1.6 2.3.9 3.6.9 1.3 0 2.5-.3 3.6-.9z" id="prefix__prefix__path805"/><path class="prefix__prefix__st45" d="M285.2 535h15.5v3h-11.8v4.9h5.9c2.4 0 4.2.5 5.4 1.5 1.2 1 1.9 2.4 1.9 4.3 0 2-.7 3.5-2.1 4.6-1.4 1.1-3.3 1.6-5.8 1.6h-8.9l-.1-19.9zm8.8 17c1.4 0 2.5-.3 3.2-.8.7-.5 1.1-1.3 1.1-2.4 0-2-1.4-3.1-4.3-3.1h-5.1v6.3h5.1z" id="prefix__prefix__path807"/><path class="prefix__prefix__st45" d="M318.8 535.9c1.3.6 2.3 1.4 2.9 2.4.7 1.1 1 2.3 1 3.8 0 1.4-.3 2.7-1 3.8-.7 1.1-1.7 1.9-2.9 2.5-1.3.6-2.8.8-4.5.8h-4.5v5.7h-3.7V535h8.2c1.7 0 3.2.3 4.5.9zm-1.1 9.1c.8-.7 1.3-1.7 1.3-2.9 0-1.3-.4-2.2-1.2-2.9-.8-.7-2.1-1-3.7-1h-4.3v7.9h4.3c1.6 0 2.8-.4 3.6-1.1z" id="prefix__prefix__path809"/><path class="prefix__prefix__st45" d="M341.1 551.9v3.1h-14.9v-19.9h14.5v3.1h-10.8v5.2h9.6v3h-9.6v5.5h11.2z" id="prefix__prefix__path811"/><path class="prefix__prefix__st45" d="M362.9 535.1V555h-3.7v-8.5h-10.3v8.5h-3.7v-19.9h3.7v8.2h10.3v-8.2h3.7z" id="prefix__prefix__path813"/><path class="prefix__prefix__st45" d="M368.5 535.1h3.6v14.1l10.7-14.1h3.4V555h-3.6v-14.1L371.9 555h-3.4v-19.9z" id="prefix__prefix__path815"/><path class="prefix__prefix__st45" d="M406.7 552v3.1h-14.9v-19.9h14.5v3.1h-10.8v5.2h9.6v3h-9.6v5.5h11.2z" id="prefix__prefix__path817"/></g><circle cx="303.8" cy="464.4" r="46.7" id="prefix__prefix__circle821" fill="none" stroke="#ffcb57" stroke-width="3.608" stroke-miterlimit="10"/><g id="prefix__prefix__g831"><g id="prefix__prefix__g825"><path class="prefix__prefix__st3" d="M291.3 489.2h-4v-27.3l.5-.4c3.1-3 5.3-6.9 7.5-10.7.5-.8.9-1.6 1.4-2.5l.1-.1c.9-1.4.9-4.3.8-6.6-.1-2.2-.1-4 .6-5.1.6-.9 1.5-1.4 2.7-1.6 2.2-.3 4.4.9 5.5 3 3.3 6.7 2.5 10.8 1.4 16.6-.1.8-.3 1.6-.5 2.5 2.3.1 4.6 0 6.8 0 2.5 0 5.1-.1 7.6 0 1.9.1 4.3.3 5.6 1.9.5.6 1 1.7.8 3.2-.3 1.7-1.1 3.1-2.4 4 .9.9 1.3 2.1 1.1 3.5-.2 1.5-1.1 3-2.3 3.9.7.8 1.1 1.8 1 3 0 1.8-1 3.5-2.4 4.5.8 1 1.1 2.2.8 3.5-.6 2.6-3.5 4.7-6.4 4.7h-26.2zm-.9-3h27.2c1.6 0 3.2-1.3 3.5-2.4.1-.2.2-.8-.7-1.3-.9-.3-1.4-1.1-1.3-1.9.1-.9.8-1.6 1.8-1.7 1-.3 1.7-1.5 1.7-2.4 0-.9-.6-1.2-1-1.4h-.1l-.1-.1c-.8-.4-1.2-1.2-1-2 .2-.8 1-1.4 1.8-1.5.9-.3 1.7-1.3 1.8-2.2.1-.8-.3-1.1-.6-1.3h-.1s-.1 0-.1-.1c-.3-.1-1.1-.4-1.4-1.2l-.1-.1v-.1c-.2-.8.2-1.7 1-2.1l.1-.1h.1c1.3-.3 2-1.2 2.3-2.6.1-.6-.1-.8-.1-.9-.3-.3-1.1-.8-3.4-.8-2.5-.1-5 0-7.5 0-2.8 0-5.8.1-8.7-.1l-1.7-.1.3-1.6c.2-1.5.5-3 .7-4.2 1.1-5.6 1.7-8.9-1.2-14.7-.5-.9-1.4-1.5-2.4-1.4-.4.1-.6.2-.6.2-.2.4-.2 2.2-.1 3.4.1 2.9.2 6.1-1.3 8.3-.5.8-.9 1.6-1.4 2.4-2.2 3.8-4.4 7.8-7.6 11v23z" id="prefix__prefix__path823"/></g><g id="prefix__prefix__g829"><path class="prefix__prefix__st3" d="M287.8 489.2H282c-1.4 0-2.6-1.1-2.6-2.6v-23.1c0-1.4 1.1-2.6 2.6-2.6h5.8c1.4 0 2.6 1.1 2.6 2.6v23.1c-.1 1.5-1.2 2.6-2.6 2.6zm-5.4-3h4.9V464h-4.9v22.2z" id="prefix__prefix__path827"/></g></g><radialGradient id="prefix__prefix__SVGID_1_" cx="-831.863" cy="5197.349" r="129.273" gradientTransform="matrix(.5538 0 0 .04348 770.707 294.979)" gradientUnits="userSpaceOnUse"><stop offset=".103" id="prefix__prefix__stop833" stop-color="#e0e3e2"/><stop offset=".268" id="prefix__prefix__stop835" stop-color="#e9ebea"/><stop offset=".684" id="prefix__prefix__stop837" stop-color="#f9fafa"/><stop offset="1" id="prefix__prefix__stop839" stop-color="#fff"/></radialGradient><ellipse cx="310" cy="521" rx="101.1" ry="4.7" id="prefix__prefix__ellipse842" opacity=".9" fill="url(#prefix__prefix__SVGID_1_)"/></g><g id="prefix__prefix__g949"><g id="prefix__prefix__g870"><g id="prefix__prefix__g868"><path class="prefix__prefix__st45" d="M891.8 416.6v17.6h-4V420h-7.9v14.2h-4v-17.6h15.9z" id="prefix__prefix__path846"/><path class="prefix__prefix__st45" d="M898.4 433.5c-1.1-.6-2-1.4-2.6-2.5-.6-1.1-1-2.2-1-3.6 0-1.3.3-2.5 1-3.6.6-1.1 1.5-1.9 2.6-2.5 1.1-.6 2.4-.9 3.8-.9s2.7.3 3.8.9c1.1.6 2 1.4 2.6 2.5.6 1.1 1 2.2 1 3.6 0 1.3-.3 2.5-1 3.6s-1.5 1.9-2.6 2.5-2.4.9-3.8.9-2.7-.3-3.8-.9zm6.3-3.4c.6-.7 1-1.6 1-2.7s-.3-2-1-2.7c-.6-.7-1.5-1-2.5-1s-1.8.3-2.5 1-1 1.6-1 2.7.3 2 1 2.7c.7.7 1.5 1 2.5 1s1.8-.3 2.5-1z" id="prefix__prefix__path848"/><path class="prefix__prefix__st45" d="M926.1 420.7v11.2c0 2.5-.6 4.3-1.9 5.5-1.3 1.2-3.2 1.8-5.6 1.8-1.3 0-2.5-.2-3.7-.5-1.2-.3-2.1-.8-2.9-1.4l1.6-2.8c.6.5 1.3.8 2.2 1.1.9.3 1.7.4 2.6.4 1.4 0 2.4-.3 3-.9.6-.6 1-1.5 1-2.8v-.6c-1 1.1-2.4 1.7-4.3 1.7-1.2 0-2.4-.3-3.4-.8s-1.8-1.3-2.4-2.3c-.6-1-.9-2.1-.9-3.4s.3-2.4.9-3.4 1.4-1.8 2.4-2.3c1-.5 2.2-.8 3.4-.8 2 0 3.4.6 4.5 1.9v-1.7l3.5.1zm-4.9 8.7c.7-.6 1-1.4 1-2.4s-.3-1.8-1-2.4-1.5-.9-2.5-.9-1.9.3-2.6.9c-.7.6-1 1.4-1 2.4s.3 1.8 1 2.4c.7.6 1.5.9 2.6.9 1 0 1.8-.3 2.5-.9z" id="prefix__prefix__path850"/><path class="prefix__prefix__st45" d="M935.7 429h-2v5.1h-3.9v-18.6h3.9v10.4h2.1l3.7-5.2h4.2l-4.7 6.5 5 7h-4.6l-3.7-5.2z" id="prefix__prefix__path852"/><path class="prefix__prefix__st45" d="M957.2 421.3c1 .6 1.8 1.4 2.4 2.4.6 1 .9 2.3.9 3.6 0 1.4-.3 2.6-.9 3.6s-1.4 1.9-2.4 2.4c-1 .6-2.2.9-3.4.9-1.7 0-3.1-.5-4.1-1.6v6.3h-3.9v-18.4h3.7v1.6c1-1.2 2.4-1.8 4.2-1.8 1.4.2 2.5.5 3.5 1zm-1.6 8.8c.6-.7 1-1.6 1-2.7s-.3-2-1-2.7c-.6-.7-1.5-1-2.5-1s-1.8.3-2.5 1c-.6.7-1 1.6-1 2.7s.3 2 1 2.7c.6.7 1.5 1 2.5 1s1.9-.3 2.5-1z" id="prefix__prefix__path854"/><path class="prefix__prefix__st45" d="M976.3 428.5h-10.2c.2.8.6 1.5 1.3 2 .7.5 1.5.7 2.6.7.7 0 1.3-.1 1.9-.3.5-.2 1-.5 1.5-1l2.1 2.3c-1.3 1.5-3.1 2.2-5.6 2.2-1.5 0-2.9-.3-4-.9-1.2-.6-2.1-1.4-2.7-2.5-.6-1.1-1-2.2-1-3.6 0-1.3.3-2.5.9-3.6s1.5-1.9 2.6-2.5c1.1-.6 2.3-.9 3.7-.9 1.3 0 2.5.3 3.6.9 1.1.6 1.9 1.4 2.5 2.4.6 1.1.9 2.3.9 3.7 0 .1-.1.5-.1 1.1zm-9.2-4.3c-.6.5-1 1.2-1.1 2.1h6.6c-.1-.9-.5-1.5-1.1-2-.6-.5-1.3-.8-2.2-.8-.8-.1-1.6.2-2.2.7z" id="prefix__prefix__path856"/><path class="prefix__prefix__st45" d="M991.6 422c1 1 1.5 2.5 1.5 4.5v7.7h-3.9V427c0-1.1-.2-1.9-.7-2.4-.5-.5-1.1-.8-2-.8-1 0-1.8.3-2.4.9s-.9 1.5-.9 2.7v6.7h-3.9v-13.5h3.7v1.6c.5-.6 1.2-1 1.9-1.3s1.6-.5 2.5-.5c1.8.1 3.2.6 4.2 1.6z" id="prefix__prefix__path858"/><path class="prefix__prefix__st45" d="M1009.9 420.7v13.5h-3.7v-1.6c-.5.6-1.1 1-1.8 1.3-.7.3-1.5.5-2.3.5-1.8 0-3.2-.5-4.2-1.5s-1.6-2.5-1.6-4.5v-7.6h3.9v7c0 2.2.9 3.3 2.7 3.3 1 0 1.7-.3 2.3-.9.6-.6.9-1.5.9-2.7v-6.7h3.8v-.1z" id="prefix__prefix__path860"/><path class="prefix__prefix__st45" d="M1013.3 433.7c-.5-.5-.7-1.1-.7-1.8s.2-1.3.7-1.7c.5-.4 1-.7 1.7-.7s1.3.2 1.7.7c.5.4.7 1 .7 1.7s-.2 1.3-.7 1.8c-.5.5-1 .7-1.7.7s-1.3-.3-1.7-.7z" id="prefix__prefix__path862"/><path class="prefix__prefix__st45" d="M1030.9 422.4c1 .5 1.7 1.3 2.2 2.2s.8 2.1.8 3.3c0 1.3-.3 2.4-.9 3.4s-1.5 1.8-2.6 2.3c-1.1.5-2.4.8-3.8.8-2.4 0-4.2-.8-5.6-2.3-1.3-1.5-2-3.7-2-6.7 0-2.7.6-4.9 1.8-6.5 1.2-1.6 3-2.7 5.4-3.2l6.4-1.3.5 3.4-5.7 1.1c-1.5.3-2.7.8-3.4 1.5-.7.7-1.2 1.7-1.3 3 .6-.6 1.3-1.1 2.1-1.5.8-.3 1.7-.5 2.7-.5 1.3.2 2.4.5 3.4 1zm-1.9 8c.6-.7.9-1.5.9-2.5s-.3-1.8-.9-2.4c-.6-.6-1.4-.9-2.4-.9s-1.8.3-2.5.9c-.6.6-.9 1.4-.9 2.4s.3 1.9 1 2.5c.6.6 1.4 1 2.4 1 .9 0 1.8-.3 2.4-1z" id="prefix__prefix__path864"/><path class="prefix__prefix__st45" d="M1037.3 433.3c-1.2-.8-1.8-1.8-1.8-3.2 0-.9.3-1.6.8-2.2.5-.5 1.1-.9 1.8-1.1.7-.2 1.6-.4 2.7-.6 1-.2 1.8-.4 2.2-.5.5-.2.7-.5.7-.9s-.2-.8-.7-1c-.4-.2-1-.3-1.8-.3-.7 0-1.4.1-2.2.3-.8.2-1.4.4-1.9.7l-1.1-2.6c.8-.4 1.6-.7 2.5-.9.9-.2 1.8-.3 2.8-.3 1.8 0 3.3.4 4.5 1.2s1.8 1.9 1.8 3.3c0 .9-.3 1.7-.8 2.2-.5.5-1.1.9-1.8 1.1-.7.2-1.6.4-2.7.6-1 .2-1.7.4-2.2.5-.5.2-.7.5-.7.8 0 .4.2.8.7 1 .5.2 1.1.3 1.8.3.9 0 1.7-.1 2.7-.4.9-.2 1.7-.5 2.2-.8l1.1 2.6c-.8.5-1.8.9-2.8 1.1-1 .3-2.1.4-3.1.4-2-.2-3.5-.6-4.7-1.3z" id="prefix__prefix__path866"/></g></g><g id="prefix__prefix__g947"><circle class="prefix__prefix__st1" cx="933.2" cy="317.3" r="83.6" id="prefix__prefix__circle872"/><g id="prefix__prefix__g898"><path class="prefix__prefix__st45" d="M849 397.9c.7.8 1 1.9 1 3.1 0 1.7-.6 3.1-1.9 4.1-1.3 1-3.2 1.4-5.6 1.4h-9.4v-19.9h8.9c2.2 0 4 .4 5.2 1.3 1.2.9 1.9 2.1 1.9 3.8 0 1-.3 1.9-.8 2.7-.5.8-1.2 1.3-2.2 1.7 1.3.4 2.3 1 2.9 1.8zm-12.3-2.8h4.9c1.2 0 2.1-.2 2.7-.7.6-.5.9-1.2.9-2.1 0-.9-.3-1.6-.9-2.1-.6-.5-1.5-.7-2.7-.7h-4.9v5.6zm9.6 5.6c0-1.9-1.3-2.9-3.9-2.9h-5.7v5.8h5.7c2.6.1 3.9-.9 3.9-2.9z" id="prefix__prefix__path874"/><path class="prefix__prefix__st45" d="M867.4 401.9h-9.9l-2 4.6h-3.8l8.9-19.9h3.6l9 19.9h-3.9l-1.9-4.6zm-1.2-2.9l-3.7-8.7-3.7 8.7h7.4z" id="prefix__prefix__path876"/><path class="prefix__prefix__st45" d="M893.4 386.6v19.9h-3.6v-16.7H882l-.2 5c-.1 2.8-.3 5-.7 6.8-.4 1.7-.9 3-1.7 3.9-.8.9-1.9 1.3-3.3 1.3-.5 0-1.2-.1-2-.3l.3-3.2c.2.1.5.1.9.1 1.2 0 2-.7 2.5-2.1.5-1.4.8-3.5.9-6.5l.3-8.2h14.4z" id="prefix__prefix__path878"/><path class="prefix__prefix__st45" d="M899 386.6h3.6v14.1l10.7-14.1h3.4v19.9h-3.6v-14.1l-10.7 14.1H899v-19.9z" id="prefix__prefix__path880"/><path class="prefix__prefix__st45" d="M941.8 403.4v7.4h-3.4v-4.2h-15.2v4.2h-3.4v-7.4h.9c1.2-.1 2.1-1 2.6-2.8.5-1.8.8-4.3.9-7.7l.2-6.3H939v16.7h2.8zm-15-3.7c-.3 1.7-.8 2.9-1.5 3.7h10.1v-13.6h-7.8l-.1 3.5c-.2 2.6-.4 4.7-.7 6.4z" id="prefix__prefix__path882"/><path class="prefix__prefix__st45" d="M945.3 386.6h3.6v14.1l10.7-14.1h3.4v19.9h-3.6v-14.1l-10.7 14.1h-3.4v-19.9z" id="prefix__prefix__path884"/><path class="prefix__prefix__st45" d="M981.3 387.5c1.3.6 2.3 1.4 2.9 2.4.7 1.1 1 2.3 1 3.8 0 1.4-.3 2.7-1 3.8-.7 1.1-1.7 1.9-2.9 2.5-1.3.6-2.8.9-4.5.9h-4.5v5.7h-3.7v-19.9h8.2c1.7-.1 3.2.2 4.5.8zm-1 9.1c.8-.7 1.2-1.7 1.2-2.9 0-1.3-.4-2.2-1.2-2.9-.8-.7-2.1-1-3.7-1h-4.3v7.9h4.3c1.6 0 2.9-.4 3.7-1.1z" id="prefix__prefix__path886"/><path class="prefix__prefix__st45" d="M1000.9 401.9H991l-2 4.6h-3.8l8.9-19.9h3.6l9 19.9h-3.9l-1.9-4.6zm-1.2-2.9l-3.7-8.7-3.7 8.7h7.4z" id="prefix__prefix__path888"/><path class="prefix__prefix__st45" d="M1027.5 386.6v19.9h-3.7V398h-10.3v8.5h-3.7v-19.9h3.7v8.2h10.3v-8.2h3.7z" id="prefix__prefix__path890"/><path class="prefix__prefix__st45" d="M1047.9 403.4v3.1H1033v-19.9h14.5v3.1h-10.8v5.2h9.6v3h-9.6v5.5h11.2z" id="prefix__prefix__path892"/><path class="prefix__prefix__st45" d="M834.9 433.4c-1.2-.6-2.1-1.5-2.7-2.6-.7-1.1-1-2.4-1-3.8s.3-2.6 1-3.8c.7-1.1 1.6-2 2.7-2.6 1.2-.6 2.5-.9 3.9-.9 1.5 0 2.8.3 3.9.9 1.2.6 2.1 1.5 2.7 2.6.7 1.1 1 2.4 1 3.8s-.3 2.7-1 3.8c-.7 1.1-1.6 2-2.7 2.6-1.2.6-2.5.9-3.9.9-1.4.1-2.7-.2-3.9-.9zm6.5-2c.8-.4 1.4-1 1.8-1.8.4-.8.7-1.6.7-2.6 0-.9-.2-1.8-.7-2.6-.4-.8-1-1.4-1.8-1.8-.8-.4-1.6-.6-2.6-.6-.9 0-1.8.2-2.6.6-.8.4-1.4 1-1.8 1.8-.4.8-.7 1.6-.7 2.6 0 .9.2 1.8.7 2.6.4.8 1 1.4 1.8 1.8.8.4 1.6.6 2.6.6s1.8-.2 2.6-.6z" id="prefix__prefix__path894"/><path class="prefix__prefix__st45" d="M859.6 422.2h-4.7v12h-2.6v-12h-4.7V420h12v2.2z" id="prefix__prefix__path896"/></g><g id="prefix__prefix__g934"><g id="prefix__prefix__g904"><g id="prefix__prefix__g902"><path class="prefix__prefix__st3" d="M962.9 309h-25.3c-1 0-1.9-.8-1.9-1.9s.8-1.9 1.9-1.9h25.3c1 0 1.9.8 1.9 1.9s-.8 1.9-1.9 1.9z" id="prefix__prefix__path900"/></g></g><g id="prefix__prefix__g910"><g id="prefix__prefix__g908"><path class="prefix__prefix__st3" d="M962.9 341.8h-9.1c-1 0-1.9-.8-1.9-1.9 0-1 .8-1.9 1.9-1.9h9.1c1 0 1.9.8 1.9 1.9 0 1-.8 1.9-1.9 1.9z" id="prefix__prefix__path906"/></g></g><g id="prefix__prefix__g916"><g id="prefix__prefix__g914"><path class="prefix__prefix__st3" d="M962.7 317.2h-21.6c-1 0-1.9-.8-1.9-1.9 0-1 .8-1.9 1.9-1.9h21.6c1 0 1.9.8 1.9 1.9 0 1.1-.9 1.9-1.9 1.9z" id="prefix__prefix__path912"/></g></g><g id="prefix__prefix__g922"><g id="prefix__prefix__g920"><path class="prefix__prefix__st3" d="M962.9 325.4h-25.3c-1 0-1.9-.8-1.9-1.9 0-1 .8-1.9 1.9-1.9h25.3c1 0 1.9.8 1.9 1.9 0 1-.8 1.9-1.9 1.9z" id="prefix__prefix__path918"/></g></g><path class="prefix__prefix__st3" d="M973.6 293c0-.6-.3-1.2-.7-1.5l-22.1-22.1c-.1-.1-.2-.2-.4-.3 0 0-.1 0-.1-.1-.1-.1-.3-.1-.4-.2h-43.7c-1 0-1.9.8-1.9 1.9v19c.7-.1 1.4-.1 2.1-.1.5 0 1.1 0 1.6.1v-17.1h39.6V293c0 1 .8 1.9 1.9 1.9h20.4v59.5H908v-17.1c-.5.1-1.1.1-1.6.1-.7 0-1.4 0-2.1-.1v19c0 1 .8 1.9 1.9 1.9h65.6c1 0 1.9-.8 1.9-1.9v-63c-.1-.2-.1-.3-.1-.3zm-22.3-1.9v-15.9l15.9 15.9h-15.9z" id="prefix__prefix__path924"/><g id="prefix__prefix__g928"><path class="prefix__prefix__st3" d="M903.3 323.9c-.5 0-.9-.2-1.2-.5l-8.3-7.3c-.8-.7-.9-1.9-.2-2.7.7-.8 1.9-.9 2.7-.2l6.9 6.1 13.2-15.6c.7-.8 1.9-.9 2.7-.2.8.7.9 1.9.2 2.7l-14.5 17.1c-.3.4-.8.6-1.3.7-.1-.1-.2-.1-.2-.1z" id="prefix__prefix__path926"/></g><g id="prefix__prefix__g932"><path class="prefix__prefix__st3" d="M906.3 339.2c-.7 0-1.5 0-2.3-.1-13.4-1.2-23.5-12.2-23.5-25.7 0-13.4 10.1-24.5 23.5-25.7 1.5-.1 2.8-.2 4.1 0 13.4.9 24 12.2 24 25.7s-10.6 24.8-24 25.7c-.6.1-1.2.1-1.8.1zm0-47.7c-.6 0-1.3 0-2 .1-11.4 1-20 10.4-20 21.9 0 11.5 8.6 20.9 20 21.9 1.2.1 2.3.1 3.4 0 11.5-.8 20.6-10.4 20.6-21.9s-9-21.2-20.5-21.9c-.5-.1-1-.1-1.5-.1z" id="prefix__prefix__path930"/></g></g><radialGradient id="prefix__prefix__SVGID_2_" cx="304.606" cy="4843.185" r="129.273" gradientTransform="matrix(.5538 0 0 .04348 770.707 156.388)" gradientUnits="userSpaceOnUse"><stop offset=".103" id="prefix__prefix__stop936" stop-color="#e0e3e2"/><stop offset=".268" id="prefix__prefix__stop938" stop-color="#e9ebea"/><stop offset=".684" id="prefix__prefix__stop940" stop-color="#f9fafa"/><stop offset="1" id="prefix__prefix__stop942" stop-color="#fff"/></radialGradient><ellipse cx="939.4" cy="367" rx="101.1" ry="4.7" id="prefix__prefix__ellipse945" opacity=".9" fill="url(#prefix__prefix__SVGID_2_)"/></g></g><g id="prefix__prefix__g1008"><path class="prefix__prefix__st1" d="M733.2 182.1c33.4 130-29.2 107.1-85 85-43.6-17.3-85-38.1-85-85s38.1-85 85-85 73.3 39.6 85 85z" id="prefix__prefix__path951"/><g id="prefix__prefix__g981"><path class="prefix__prefix__st45" d="M592.7 218.2c-1.6-.9-2.9-2.1-3.8-3.6-.9-1.6-1.4-3.3-1.4-5.3 0-1.9.5-3.7 1.4-5.3.9-1.6 2.2-2.8 3.8-3.6 1.6-.9 3.4-1.3 5.4-1.3 1.6 0 3.1.3 4.5.9 1.3.6 2.5 1.4 3.4 2.5l-2.4 2.2c-1.4-1.6-3.2-2.3-5.3-2.3-1.4 0-2.6.3-3.7.9-1.1.6-1.9 1.4-2.5 2.5-.6 1.1-.9 2.3-.9 3.6s.3 2.5.9 3.6c.6 1.1 1.4 1.9 2.5 2.5 1.1.6 2.3.9 3.7.9 2.1 0 3.9-.8 5.3-2.4l2.4 2.3c-.9 1.1-2.1 1.9-3.4 2.5-1.4.6-2.8.9-4.5.9-2-.2-3.8-.6-5.4-1.5z" id="prefix__prefix__path953"/><path class="prefix__prefix__st45" d="M627.3 207.7c1.3 1.1 1.9 2.7 1.9 4.8 0 2.2-.7 3.9-2.1 5.1-1.4 1.2-3.4 1.7-5.9 1.7h-8.5v-16.7h-5.8v-3.1h9.5v6.7h5.5c2.3-.1 4.1.4 5.4 1.5zm-2.9 7.7c.8-.7 1.1-1.6 1.1-2.9 0-2.4-1.5-3.6-4.5-3.6h-4.7v7.5h4.7c1.5 0 2.6-.3 3.4-1z" id="prefix__prefix__path955"/><path class="prefix__prefix__st45" d="M645.7 210.7c.7.8 1 1.8 1 3s-.4 2.2-1.2 3.1c-.8.9-1.8 1.6-3.1 2-1.3.5-2.7.7-4.2.7-1.3 0-2.7-.2-4-.6-1.3-.4-2.6-.9-3.7-1.7l1.2-2.7c.9.6 1.8 1 2.9 1.3 1.1.3 2.1.5 3.2.5 1.5 0 2.7-.3 3.7-.9 1-.6 1.5-1.4 1.5-2.4 0-.9-.4-1.5-1.1-2-.7-.5-1.7-.7-3-.7h-4.6v-2.9h4.3c1.1 0 2-.2 2.6-.7.6-.5.9-1.1.9-1.8 0-.9-.4-1.6-1.3-2.2-.8-.5-1.9-.8-3.2-.8-.9 0-1.8.1-2.8.4-.9.3-1.8.6-2.7 1.1l-1.2-3c1-.5 2.1-1 3.3-1.2 1.1-.3 2.3-.4 3.4-.4 1.5 0 2.8.2 4.1.7 1.2.5 2.2 1.1 3 1.9.7.8 1.1 1.8 1.1 3 0 1-.3 1.8-.8 2.6-.5.7-1.3 1.3-2.2 1.7 1.3.5 2.2 1.2 2.9 2z" id="prefix__prefix__path957"/><path class="prefix__prefix__st45" d="M670.5 216.1v7.4h-3.4v-4.2h-15.2v4.2h-3.4v-7.4h.9c1.2-.1 2.1-1 2.6-2.8.5-1.8.8-4.3.9-7.7l.2-6.3h14.6V216h2.8zm-15-3.7c-.3 1.7-.8 2.9-1.5 3.7h10v-13.6h-7.8l-.1 3.5c-.1 2.6-.3 4.7-.6 6.4z" id="prefix__prefix__path959"/><path class="prefix__prefix__st45" d="M687.3 214.6h-9.9l-2 4.6h-3.8l8.9-19.9h3.6l9 19.9h-3.9l-1.9-4.6zm-1.2-2.9l-3.7-8.7-3.7 8.7h7.4z" id="prefix__prefix__path961"/><path class="prefix__prefix__st45" d="M696.2 199.4h3.6v14.1l10.7-14.1h3.4v19.9h-3.6v-14.1l-10.7 14.1h-3.4v-19.9zm5-2.4c-.9-.7-1.3-1.7-1.3-3.1h2.6c0 .7.2 1.2.7 1.6.4.4 1.1.6 1.9.6.8 0 1.5-.2 1.9-.6.5-.4.7-.9.7-1.6h2.6c0 1.3-.5 2.3-1.3 3.1-.9.7-2.2 1.1-3.8 1.1-1.8-.1-3.1-.4-4-1.1z" id="prefix__prefix__path963"/><path class="prefix__prefix__st45" d="M593.5 237.6h-2.6v6h-2.6v-14.2h2.6v6h2.7l4.1-6h2.8l-4.9 6.9 5 7.3h-3l-4.1-6z" id="prefix__prefix__path965"/><path class="prefix__prefix__st45" d="M611.6 240.3h-7.1l-1.4 3.3h-2.7l6.4-14.2h2.6l6.4 14.2H613l-1.4-3.3zm-.8-2l-2.7-6.2-2.7 6.2h5.4z" id="prefix__prefix__path967"/><path class="prefix__prefix__st45" d="M631.1 243.6v-9.4l-4.7 7.8h-1.2l-4.7-7.7v9.3H618v-14.2h2.2l5.6 9.4 5.6-9.4h2.2v14.2h-2.5z" id="prefix__prefix__path969"/><path class="prefix__prefix__st45" d="M650.2 229.4v14.2h-2.6v-12h-7.4v12h-2.6v-14.2h12.6z" id="prefix__prefix__path971"/><path class="prefix__prefix__st45" d="M663.6 240.3h-7.1l-1.4 3.3h-2.7l6.4-14.2h2.6l6.4 14.2H665l-1.4-3.3zm-.8-2l-2.7-6.2-2.7 6.2h5.4z" id="prefix__prefix__path973"/><path class="prefix__prefix__st45" d="M682.7 229.4v14.2H680v-6.1h-7.4v6.1H670v-14.2h2.6v5.9h7.4v-5.9h2.7z" id="prefix__prefix__path975"/><path class="prefix__prefix__st45" d="M686.7 229.4h2.6v10.1l7.6-10.1h2.5v14.2h-2.6v-10.1l-7.6 10.1h-2.5v-14.2z" id="prefix__prefix__path977"/><path class="prefix__prefix__st45" d="M714.2 229.4v14.2h-2.6v-4h-3.8l-2.6 4h-2.8l3.1-4.4c-1-.4-1.8-.9-2.3-1.7-.5-.8-.8-1.8-.8-2.9 0-1.1.2-2 .7-2.8.5-.8 1.2-1.4 2.1-1.8.9-.4 1.9-.6 3.2-.6h5.8zm-8.3 3c-.6.5-.9 1.2-.9 2.2 0 .9.3 1.7.8 2.2.6.5 1.4.8 2.4.8h3.3v-5.9h-3.2c-1-.1-1.8.2-2.4.7z" id="prefix__prefix__path979"/></g><g id="prefix__prefix__g995"><g id="prefix__prefix__g993"><g id="prefix__prefix__g985"><path class="prefix__prefix__st3" d="M643.5 100c2.2 3.8 4.3 9.6 3.7 16.3-.6 6.7-4.5 12-9.2 15 4.4-8.8 6-18.2 5.5-31.3m-2.9-8c-.7 0-1.1.6-1 2 1.5 19.6-.5 30.8-9.4 43.3 9.7 0 19.7-9.1 20.7-20.7 1.1-13.5-7.3-24.6-10.3-24.6z" id="prefix__prefix__path983"/></g><g id="prefix__prefix__g991"><g id="prefix__prefix__g989"><path class="prefix__prefix__st3" d="M663.9 100.3c1.1 2.1 2.1 4.7 2.8 7.9 1.3 6.1 1.9 18.1-8.3 30.8-1 1.3-1.1 3.1-.1 4.4.7.9 1.8 1.5 2.9 1.5.5 0 .9-.1 1.3-.3.5-.2 10-4.1 17.3-15.4-.2 1.8-.6 3.8-1.3 6.1-2.1 7-7.3 16.7-19.8 23.3-1.5.8-2.3 2.6-1.8 4.2.5 1.5 1.9 2.6 3.5 2.6h.3c.3 0 5.8-.6 12.1-3.3-4.2 4.6-10.9 9.7-19.6 11.4-2.5.5-5.2.8-7.9.8-12.6 0-23.3-5.6-28.5-15-2.5-4.6-3.1-9.5-3.6-14.3-.7-6.3-1.4-13.2-7.2-18.3 1.3-.8 2.6-1 3.6-1 1.8 0 3.7.7 5.1 2 2.3 2.3 2.9 4.7 3.6 7.2.8 2.9 1.7 6.5 5.6 8.7 2 1.1 4.4 1.7 7 1.7 7.1 0 15.6-4.4 21.2-11 7.4-9 11.5-21.1 11.8-34m-2.8-8.3c-.7 0-1.1.6-1 2.1 1.2 16.1-3.8 29.3-10.7 37.7-4.6 5.5-12.1 9.7-18.4 9.7-1.9 0-3.7-.4-5.2-1.2-5.2-2.9-2.4-9.3-8.5-15.3-2-1.9-4.8-3-7.6-3-3.3 0-6.7 1.5-9.1 5.1 12.9 7.1 6.1 21 13.2 33.8 6.6 12 19.6 16.9 31.6 16.9 2.9 0 5.8-.3 8.6-.8 19.5-3.9 30.7-23.5 26.9-23.5-.5 0-1.3.4-2.4 1.2-8.1 6.1-18 7.1-18 7.1 26-13.6 25-42 21.2-42-.5 0-1.1.6-1.7 1.8-6.8 14.9-18.7 19.7-18.7 19.7 9.8-12.1 11-24.5 9-33.8-2.1-9.3-7.1-15.5-9.2-15.5z" id="prefix__prefix__path987"/></g></g></g></g><radialGradient id="prefix__prefix__SVGID_3_" cx="-224.784" cy="4430.826" r="129.273" gradientTransform="matrix(.5538 0 0 .04348 770.707 -4.977)" gradientUnits="userSpaceOnUse"><stop offset=".103" id="prefix__prefix__stop997" stop-color="#e0e3e2"/><stop offset=".268" id="prefix__prefix__stop999" stop-color="#e9ebea"/><stop offset=".684" id="prefix__prefix__stop1001" stop-color="#f9fafa"/><stop offset="1" id="prefix__prefix__stop1003" stop-color="#fff"/></radialGradient><ellipse cx="646.2" cy="187.7" rx="101.1" ry="4.7" id="prefix__prefix__ellipse1006" opacity=".9" fill="url(#prefix__prefix__SVGID_3_)"/></g><ellipse class="prefix__prefix__st1" cx="815.3" cy="603" rx="89.5" ry="110.2" id="prefix__prefix__ellipse1010"/><path class="prefix__prefix__st45" d="M716.6 643.4c-1.2-.6-2.1-1.5-2.7-2.6-.7-1.1-1-2.4-1-3.8s.3-2.7 1-3.8c.7-1.1 1.6-2 2.7-2.6 1.1-.6 2.5-.9 3.9-.9 1.2 0 2.2.2 3.2.6 1 .4 1.8 1 2.4 1.8l-1.7 1.6c-1-1.1-2.3-1.7-3.8-1.7-1 0-1.9.2-2.6.6-.8.4-1.4 1-1.8 1.8-.4.8-.7 1.6-.7 2.6s.2 1.8.7 2.6c.4.8 1 1.4 1.8 1.8.8.4 1.6.6 2.6.6 1.5 0 2.8-.6 3.8-1.7l1.7 1.6c-.7.8-1.5 1.4-2.5 1.8-1 .4-2 .6-3.2.6-1.3.1-2.6-.2-3.8-.9z" id="prefix__prefix__path1012"/><path class="prefix__prefix__st45" d="M742.7 635.9c.9.8 1.4 1.9 1.4 3.4 0 1.6-.5 2.8-1.5 3.6-1 .8-2.4 1.2-4.3 1.2h-6.1v-12H728v-2.2h6.8v4.8h3.9c1.7.1 3 .4 4 1.2zm-2.2 5.5c.5-.5.8-1.2.8-2.1 0-1.7-1.1-2.6-3.2-2.6h-3.4v5.4h3.4c1.1 0 1.9-.2 2.4-.7z" id="prefix__prefix__path1014"/><path class="prefix__prefix__st45" d="M748 629.9h11v2.2h-8.5v3.5h4.2c1.7 0 3 .4 3.9 1.1.9.7 1.3 1.7 1.3 3.1 0 1.4-.5 2.5-1.5 3.3-1 .8-2.4 1.1-4.2 1.1H748zm6.2 12.2c1 0 1.8-.2 2.3-.6.5-.4.8-1 .8-1.7 0-1.5-1-2.2-3.1-2.2h-3.7v4.5z" id="prefix__prefix__path1016"/><path class="prefix__prefix__st45" d="M764.1 629.9h2.6V640l7.6-10.1h2.5v14.2h-2.6V634l-7.6 10.1h-2.5z" id="prefix__prefix__path1018"/><path class="prefix__prefix__st45" d="M791.1 630.5c.9.4 1.6 1 2.1 1.7.5.8.7 1.7.7 2.7 0 1-.2 1.9-.7 2.7-.5.8-1.2 1.4-2.1 1.8-.9.4-2 .6-3.2.6h-3.2v4.1H782v-14.2h5.9c1.2 0 2.3.2 3.2.6zm-.7 6.6c.6-.5.9-1.2.9-2.1 0-.9-.3-1.6-.9-2.1-.6-.5-1.5-.7-2.6-.7h-3.1v5.7h3.1c1.1-.1 2-.3 2.6-.8z" id="prefix__prefix__path1020"/><path class="prefix__prefix__st45" d="M826.3 629.9v14.2h-2.6V638h-7.4v6.1h-2.6v-14.2h2.6v5.9h7.4v-5.9z" id="prefix__prefix__path1022"/><path class="prefix__prefix__st45" d="M842.2 642v2.2h-10.7V630h10.4v2.2h-7.7v3.7h6.9v2.2h-6.9v3.9z" id="prefix__prefix__path1024"/><path class="prefix__prefix__st45" d="M865.9 629.9v14.2h-2.6V638h-7.4v6.1h-2.6v-14.2h2.6v5.9h7.4v-5.9z" id="prefix__prefix__path1026"/><path class="prefix__prefix__st45" d="M880.5 640.9h-7.1l-1.4 3.3h-2.7l6.4-14.2h2.6l6.4 14.2h-2.8zm-.9-2.1l-2.7-6.2-2.7 6.2z" id="prefix__prefix__path1028"/><path class="prefix__prefix__st45" d="M718.5 670.8c-1.6-.9-2.9-2.1-3.8-3.6-.9-1.6-1.4-3.3-1.4-5.3 0-1.9.5-3.7 1.4-5.3.9-1.6 2.2-2.8 3.8-3.6 1.6-.9 3.4-1.3 5.4-1.3 1.6 0 3.1.3 4.5.9 1.3.6 2.5 1.4 3.4 2.5l-2.4 2.2c-1.4-1.6-3.2-2.3-5.3-2.3-1.4 0-2.6.3-3.7.9-1.1.6-1.9 1.4-2.5 2.5-.6 1.1-.9 2.3-.9 3.6 0 1.3.3 2.5.9 3.6.6 1.1 1.4 1.9 2.5 2.5 1.1.6 2.3.9 3.7.9 2.1 0 3.9-.8 5.3-2.4l2.4 2.3c-.9 1.1-2.1 1.9-3.4 2.5-1.4.6-2.8.9-4.5.9-2-.2-3.8-.6-5.4-1.5z" id="prefix__prefix__path1030"/><path class="prefix__prefix__st45" d="M747.9 652.8c1.3.6 2.3 1.4 2.9 2.4.7 1.1 1 2.3 1 3.8 0 1.4-.3 2.7-1 3.8-.7 1.1-1.7 1.9-2.9 2.5-1.3.6-2.8.9-4.5.9h-4.5v5.7h-3.7V652h8.2c1.7 0 3.2.2 4.5.8zm-1 9.1c.8-.7 1.2-1.7 1.2-2.9s-.4-2.2-1.2-2.9c-.8-.7-2.1-1-3.7-1h-4.3v7.9h4.3c1.7 0 2.9-.4 3.7-1.1z" id="prefix__prefix__path1032"/><path class="prefix__prefix__st45" d="M770.3 668.7v3.1h-14.9V652h14.5v3.1h-10.8v5.2h9.6v3h-9.6v5.5h11.2z" id="prefix__prefix__path1034"/><path class="prefix__prefix__st45" d="M794.1 668.7v7.4h-3.4v-4.2h-15.2v4.2H772v-7.4h.9c1.2-.1 2.1-1 2.6-2.8.5-1.8.8-4.3.9-7.7l.2-6.3h14.6v16.7h2.9zM779 665c-.3 1.7-.8 2.9-1.5 3.7h10.1v-13.6h-7.8l-.1 3.5c-.1 2.6-.3 4.7-.7 6.4z" id="prefix__prefix__path1036"/><path class="prefix__prefix__st45" d="M801.3 670.8c-1.6-.9-2.9-2.1-3.8-3.6-.9-1.6-1.4-3.3-1.4-5.3 0-1.9.5-3.7 1.4-5.3.9-1.6 2.2-2.8 3.8-3.6 1.6-.9 3.4-1.3 5.4-1.3 1.6 0 3.1.3 4.5.9 1.3.6 2.5 1.4 3.4 2.5l-2.4 2.2c-1.4-1.6-3.2-2.3-5.3-2.3-1.4 0-2.6.3-3.7.9-1.1.6-1.9 1.4-2.5 2.5-.6 1.1-.9 2.3-.9 3.6 0 1.3.3 2.5.9 3.6.6 1.1 1.4 1.9 2.5 2.5 1.1.6 2.3.9 3.7.9 2.1 0 3.9-.8 5.3-2.4l2.4 2.3c-.9 1.1-2.1 1.9-3.4 2.5-1.4.6-2.8.9-4.5.9-2-.2-3.8-.6-5.4-1.5z" id="prefix__prefix__path1038"/><path class="prefix__prefix__st45" d="M832.2 655.1h-6.6v16.7H822v-16.7h-6.6V652h16.8z" id="prefix__prefix__path1040"/><path class="prefix__prefix__st45" d="M851.4 663.2c.7.8 1 1.9 1 3.1 0 1.7-.6 3.1-1.9 4.1-1.3 1-3.2 1.4-5.6 1.4h-9.4V652h8.9c2.2 0 4 .4 5.2 1.3 1.2.9 1.9 2.1 1.9 3.8 0 1-.3 1.9-.8 2.7-.5.8-1.2 1.3-2.2 1.7 1.3.3 2.2.9 2.9 1.7zm-12.3-2.8h4.9c1.2 0 2.1-.2 2.7-.7.6-.5.9-1.2.9-2.1 0-.9-.3-1.6-.9-2.1-.6-.5-1.5-.7-2.7-.7h-4.9zm9.6 5.6c0-1.9-1.3-2.9-3.9-2.9h-5.7v5.8h5.7c2.5.1 3.9-.9 3.9-2.9z" id="prefix__prefix__path1042"/><path class="prefix__prefix__st45" d="M869.7 667.2h-9.9l-2 4.6H854l9-19.8h3.6l9 19.9h-3.9zm-1.2-2.9l-3.7-8.7-3.7 8.7z" id="prefix__prefix__path1044"/><path class="prefix__prefix__st45" d="M716.6 695.5c-1.2-.6-2.1-1.5-2.7-2.6-.7-1.1-1-2.4-1-3.8s.3-2.6 1-3.8c.7-1.1 1.6-2 2.7-2.6 1.2-.6 2.5-.9 3.9-.9 1.5 0 2.8.3 3.9.9 1.2.6 2.1 1.5 2.7 2.6.7 1.1 1 2.4 1 3.8s-.3 2.7-1 3.8c-.7 1.1-1.6 2-2.7 2.6-1.2.6-2.5.9-3.9.9s-2.7-.3-3.9-.9zm6.5-2c.8-.4 1.4-1 1.8-1.8.4-.8.7-1.6.7-2.6s-.2-1.8-.7-2.6c-.4-.8-1-1.4-1.8-1.8-.8-.4-1.6-.6-2.6-.6-.9 0-1.8.2-2.6.6-.8.4-1.4 1-1.8 1.8-.4.8-.7 1.6-.7 2.6s.2 1.8.7 2.6c.4.8 1 1.4 1.8 1.8.8.4 1.6.6 2.6.6s1.9-.2 2.6-.6z" id="prefix__prefix__path1046"/><path class="prefix__prefix__st45" d="M741.7 684.2H737v12h-2.6v-12h-4.7V682h12z" id="prefix__prefix__path1048"/><path class="prefix__prefix__st45" d="M764.5 694v5.3h-2.4v-3h-10.9v3h-2.5V694h.6c.9 0 1.5-.7 1.9-2 .4-1.3.6-3.1.7-5.5l.2-4.5h10.4v12zm-10.8-2.6c-.2 1.2-.6 2.1-1.1 2.6h7.2v-9.8h-5.6l-.1 2.5c0 1.9-.1 3.4-.4 4.7z" id="prefix__prefix__path1050"/><path class="prefix__prefix__st45" d="M777 692.9h-7.1l-1.4 3.3h-2.7l6.4-14.2h2.6l6.4 14.2h-2.8zm-.9-2l-2.7-6.2-2.7 6.2z" id="prefix__prefix__path1052"/><path class="prefix__prefix__st45" d="M792.8 682.6c.9.4 1.6 1 2.1 1.7.5.8.7 1.7.7 2.7 0 1-.2 1.9-.7 2.7-.5.8-1.2 1.4-2.1 1.8-.9.4-2 .6-3.2.6h-3.2v4.1h-2.6V682h5.9c1.1 0 2.2.2 3.1.6zm-.7 6.6c.6-.5.9-1.2.9-2.1 0-.9-.3-1.6-.9-2.1-.6-.5-1.5-.7-2.6-.7h-3.1v5.7h3.1c1.1-.1 2-.4 2.6-.8z" id="prefix__prefix__path1054"/><path class="prefix__prefix__st45" d="M798.6 682h2.6v10.1l7.6-10.1h2.5v14.2h-2.6v-10.1l-7.6 10.1h-2.5z" id="prefix__prefix__path1056"/><path class="prefix__prefix__st45" d="M826 684.2h-4.7v12h-2.6v-12H814V682h12z" id="prefix__prefix__path1058"/><path class="prefix__prefix__st45" d="M839.4 694v2.2h-10.7V682h10.4v2.2h-7.7v3.7h6.9v2.2h-6.9v3.9z" id="prefix__prefix__path1060"/><path class="prefix__prefix__st45" d="M854.9 682v14.2h-2.6v-12h-5.6l-.1 3.6c-.1 2-.2 3.6-.5 4.9-.3 1.2-.7 2.2-1.2 2.8-.6.6-1.4 1-2.4 1-.4 0-.8-.1-1.4-.2l.2-2.3c.2.1.4.1.6.1.8 0 1.4-.5 1.8-1.5.3-1 .6-2.5.6-4.6l.2-5.9h10.4z" id="prefix__prefix__path1062"/><path class="prefix__prefix__st45" d="M859.3 682h2.6v10.1l7.6-10.1h2.5v14.2h-2.6v-10.1l-7.6 10.1h-2.5z" id="prefix__prefix__path1064"/><g id="prefix__prefix__g1082"><path class="prefix__prefix__st3" d="M790.9 567.8c4.8-3.2 8-8.6 8-14.8 0-9.8-8-17.8-17.8-17.8s-17.8 8-17.8 17.8c0 6.2 3.2 11.6 8 14.8-10.9 4-18.6 14.4-18.6 26.7h4.7c0-13.1 10.6-23.7 23.7-23.7s23.7 10.6 23.7 23.7h4.7c.1-12.3-7.7-22.7-18.6-26.7zm-9.8-1.8c-7.2 0-13-5.8-13-13s5.8-13 13-13 13 5.8 13 13c.1 7.1-5.8 13-13 13z" id="prefix__prefix__path1070"/><path class="prefix__prefix__st3" d="M814.6 555.9c4.8-3.2 8-8.6 8-14.8 0-9.8-8-17.8-17.8-17.8-4.7 0-9.1 1.9-12.3 4.9-1.2 1.1-2.2 2.4-3 3.8 1.5.6 2.9 1.3 4.2 2.2.8-1.4 1.9-2.6 3.2-3.5 2.2-1.7 4.9-2.7 7.9-2.7 7.2 0 13 5.8 13 13 0 6-4 11-9.5 12.5-1.1.3-2.3.5-3.5.5-.4 0-.8 0-1.2-.1-.1 1.7-.4 3.4-.8 4.9.7-.1 1.3-.1 2-.1 1 0 1.9.1 2.8.2 11.7 1.4 20.9 11.4 20.9 23.5h4.7c.1-12-7.7-22.5-18.6-26.5z" id="prefix__prefix__path1072"/><path class="prefix__prefix__st3" d="M757.4 558.9c.7 0 1.4.1 2 .1-.4-1.6-.7-3.2-.8-4.9-.4 0-.8.1-1.2.1-1.2 0-2.4-.2-3.5-.5-5.5-1.5-9.5-6.6-9.5-12.5 0-7.2 5.8-13 13-13 3 0 5.7 1 7.9 2.7 1.3 1 2.3 2.2 3.2 3.5 1.3-.9 2.7-1.6 4.2-2.2-.8-1.4-1.9-2.7-3-3.8-3.2-3-7.5-4.9-12.3-4.9-9.8 0-17.8 8-17.8 17.8 0 6.2 3.2 11.6 8 14.8-10.9 4-18.6 14.4-18.6 26.7h4.7c0-12.1 9.1-22.1 20.9-23.5.9-.3 1.9-.4 2.8-.4z" id="prefix__prefix__path1074"/><path class="prefix__prefix__st3" d="M831.2 539.3c4.8-3.2 8-8.6 8-14.8 0-9.8-8-17.8-17.8-17.8-4.7 0-9.1 1.9-12.3 4.9-1.2 1.1-2.2 2.4-3 3.8 1.5.6 2.9 1.3 4.2 2.2.8-1.4 1.9-2.6 3.2-3.5 2.2-1.7 4.9-2.7 7.9-2.7 7.2 0 13 5.8 13 13 0 5.3-3.1 9.8-7.6 11.8.2 1.1.3 2.3.3 3.5 0 1.1-.1 2.1-.3 3.2 10.4 2.5 18.2 11.8 18.2 23h4.7c.2-12.1-7.6-22.6-18.5-26.6z" id="prefix__prefix__path1076"/><path class="prefix__prefix__st3" d="M735.1 539.8c0-1.2.1-2.3.3-3.5-4.5-2.1-7.6-6.6-7.6-11.8 0-7.2 5.8-13 13-13 3 0 5.7 1 7.9 2.7 1.3 1 2.3 2.2 3.2 3.5 1.3-.9 2.7-1.6 4.2-2.2-.8-1.4-1.9-2.7-3-3.8-3.2-3-7.5-4.9-12.3-4.9-9.8 0-17.8 8-17.8 17.8 0 6.2 3.2 11.6 8 14.8-10.9 4-18.6 14.4-18.6 26.7h4.7c0-11.2 7.8-20.6 18.2-23-.1-1.2-.2-2.2-.2-3.3z" id="prefix__prefix__path1078"/><path class="prefix__prefix__st3" d="M781.1 511.5c6.3 0 11.6 4.6 12.7 10.6 2.6-1.6 4.5-1.9 4.5-1.9-2-7.7-8.9-13.4-17.2-13.4-8.3 0-15.3 5.7-17.2 13.4 0 0 1.9.4 4.5 1.9 1.1-6.1 6.4-10.6 12.7-10.6z" id="prefix__prefix__path1080"/></g><ellipse cx="785.6" cy="610" rx="116.6" ry="6.6" id="prefix__prefix__ellipse1093" fill="url(#prefix__prefix__SVGID_4_)" opacity=".9"/><g id="prefix__prefix__g1194"><g id="prefix__prefix__g1113"><path class="prefix__prefix__st45" d="M35.7 292.1h2.7v10.4l7.8-10.4h2.5v14.6H46v-10.3l-7.8 10.3h-2.5v-14.6z" id="prefix__prefix__path1097"/><path class="prefix__prefix__st45" d="M63.4 306.7v-7.4l-3.8 6.2h-1.1l-3.7-6.2v7.4h-2.4v-11.1h2.7l4 7 4.2-7h2.4v11.1h-2.3z" id="prefix__prefix__path1099"/><path class="prefix__prefix__st45" d="M77.2 296.6c.9.8 1.3 2 1.3 3.6v6.5H76v-1.4c-.3.5-.8.9-1.4 1.1-.6.3-1.3.4-2.1.4s-1.6-.1-2.2-.4c-.6-.3-1.1-.7-1.5-1.2-.3-.5-.5-1.1-.5-1.7 0-1 .4-1.8 1.1-2.4.7-.6 1.9-.9 3.5-.9h2.9v-.2c0-.8-.2-1.4-.7-1.8-.5-.4-1.2-.6-2.1-.6-.6 0-1.2.1-1.8.3-.6.2-1.1.5-1.5.8l-1-1.9c.6-.4 1.3-.8 2.1-1 .8-.2 1.7-.4 2.6-.4 1.7 0 3 .4 3.8 1.2zm-2.4 7.9c.5-.3.9-.7 1.1-1.3v-1.3h-2.7c-1.5 0-2.3.5-2.3 1.5 0 .5.2.8.6 1.1.4.3.9.4 1.6.4.7.1 1.2-.1 1.7-.4z" id="prefix__prefix__path1101"/><path class="prefix__prefix__st45" d="M98.2 295.6v11.1H81.8v-11.1h2.6v8.9h4.3v-8.9h2.6v8.9h4.3v-8.9h2.6z" id="prefix__prefix__path1103"/><path class="prefix__prefix__st45" d="M108.6 288h4.4v12.3l10.3-12.3h4v18.7H123v-12.3l-10.3 12.3h-4V288z" id="prefix__prefix__path1105"/><path class="prefix__prefix__st45" d="M153.2 303v7.9h-4.1v-4.2h-14.4v4.2h-4.1V303h.9c1.2 0 2-.8 2.4-2.3.4-1.5.7-3.6.9-6.3l.2-6.4h15.4v15h2.8zm-14.9-3c-.3 1.4-.7 2.4-1.4 3h9.2v-11.3h-7.2l-.1 3c-.1 2.2-.3 3.9-.5 5.3z" id="prefix__prefix__path1107"/><path class="prefix__prefix__st45" d="M174.6 298.7h-14.7c.3 1.4.9 2.5 2 3.3 1.1.8 2.4 1.2 4.1 1.2 2.1 0 3.8-.7 5.1-2l2.3 2.7c-.8 1-1.9 1.8-3.2 2.3-1.3.5-2.7.8-4.3.8-2.1 0-3.9-.4-5.4-1.2-1.6-.8-2.8-2-3.6-3.4-.9-1.5-1.3-3.1-1.3-5 0-1.8.4-3.5 1.2-4.9.8-1.5 2-2.6 3.5-3.4 1.5-.8 3.1-1.2 5-1.2 1.8 0 3.5.4 4.9 1.2 1.4.8 2.6 1.9 3.4 3.4.8 1.5 1.2 3.2 1.2 5.1-.1.2-.1.6-.2 1.1zm-12.9-6.2c-1 .8-1.6 1.9-1.8 3.3h10.6c-.2-1.4-.8-2.5-1.7-3.3-1-.8-2.2-1.3-3.6-1.3-1.4.1-2.6.5-3.5 1.3z" id="prefix__prefix__path1109"/><path class="prefix__prefix__st45" d="M194.8 288v18.7h-3.9v-5.6H186l-3.8 5.6h-4.7l4.4-6.2c-1.4-.5-2.4-1.2-3.1-2.2-.7-1-1.1-2.2-1.1-3.6 0-2.2.8-3.8 2.3-5 1.5-1.2 3.6-1.8 6.3-1.8h8.5zm-12.7 6.9c0 2.1 1.4 3.2 4.1 3.2h4.7v-6.3h-4.5c-2.9-.1-4.3.9-4.3 3.1z" id="prefix__prefix__path1111"/></g><g id="prefix__prefix__g1139"><path class="prefix__prefix__st3" d="M121 237.7h-19.5c-2.3 0-4.1 1.8-4.1 4.1s1.8 4.1 4.1 4.1H121c2.3 0 4.1-1.8 4.1-4.1 0-2.2-1.9-4.1-4.1-4.1zm1.3 4.1c0 .7-.6 1.3-1.3 1.3h-19.5c-.7 0-1.3-.6-1.3-1.3 0-.7.6-1.3 1.3-1.3H121c.7 0 1.3.6 1.3 1.3z" id="prefix__prefix__path1115"/><path class="prefix__prefix__st3" d="M98.8 247.8c0 3.7 2.7 6.9 6.3 7.6.9 2.7 3.3 4.5 6.1 4.5s5.3-1.8 6.2-4.5c3.6-.7 6.3-3.9 6.3-7.6v-1.4H98.8v1.4zm8.1 4.9h-.6c-2.1-.1-3.9-1.6-4.5-3.6h18.9c-.6 2-2.4 3.4-4.5 3.6h-9.3zm7.3 2.8c-.7 1-1.8 1.5-3 1.5s-2.3-.6-3-1.5h6z" id="prefix__prefix__path1117"/><path class="prefix__prefix__st3" d="M111.2 170.7c-15.3 0-27.7 12.4-27.7 27.7 0 6.3 2.1 12.2 5.9 17.1 3 3.7 5.8 7.9 8.3 12v9.8h26.9v-9.5c2.6-4.3 5.7-8.9 8.4-12.3 3.9-4.9 5.9-10.8 5.9-17.1 0-15.3-12.4-27.7-27.7-27.7zm-3.4 40.8l1.9 7.1 3.2-7.8 1.6 4.5 3.5-1.6-4.5 20.8h-4.3l-4.6-20.8 3.2-2.2zm14.2 15.1l-.2.3v7.5h-5.6l5.9-27.6-2.7-.6-1 4.6-2.7 1.2-2.7-7.8-2.9 7-.9-3.6-5.2 3.4-1.1-5-2.9.6 6 27.6h-5.6v-7.7l-.2-.3c-2.6-4.3-5.5-8.7-8.7-12.7-3.5-4.4-5.3-9.7-5.3-15.4 0-13.8 11.2-24.9 24.9-24.9 13.8 0 24.9 11.2 24.9 24.9 0 5.6-1.8 11-5.3 15.4-2.7 3.8-6 8.6-8.7 13.1z" id="prefix__prefix__path1119"/><path class="prefix__prefix__st3" d="M112.2 166.1c.7 0 1.3-.6 1.3-1.3v-12.1c0-.7-.6-1.3-1.3-1.3-.7 0-1.3.6-1.3 1.3v12.1c.1.8.6 1.3 1.3 1.3z" id="prefix__prefix__path1121"/><path class="prefix__prefix__st3" d="M130.1 170.5c.2.1.4.2.7.2.4 0 .9-.2 1.1-.6l6.2-10.3c.4-.6.2-1.4-.4-1.7-.3-.2-.6-.2-1-.1-.3.1-.6.3-.8.6l-6.2 10.3c-.2.3-.2.6-.1 1 0 .1.2.4.5.6z" id="prefix__prefix__path1123"/><path class="prefix__prefix__st3" d="M142.2 185.2c.2 0 .4 0 .6-.1l10.7-5.6c.6-.3.9-1.1.5-1.7-.3-.6-1.1-.9-1.7-.5l-10.7 5.6c-.6.3-.9 1.1-.5 1.7.2.3.6.6 1.1.6z" id="prefix__prefix__path1125"/><path class="prefix__prefix__st3" d="M158.7 200.3c-.2-.3-.5-.4-.9-.4l-12-.8c-.7 0-1.3.5-1.3 1.2s.5 1.3 1.2 1.3l12 .8h.1c.7 0 1.2-.5 1.3-1.2-.1-.3-.2-.7-.4-.9z" id="prefix__prefix__path1127"/><path class="prefix__prefix__st3" d="M150.8 224.4l-9.9-6.9c-.3-.2-.6-.3-1-.2-.3.1-.6.2-.8.5-.4.6-.3 1.4.3 1.8l9.9 6.9c.2.1.5.2.7.2.4 0 .8-.2 1-.5.2-.3.3-.6.2-.9 0-.5-.2-.7-.4-.9z" id="prefix__prefix__path1129"/><path class="prefix__prefix__st3" d="M90.9 170c.2.4.6.6 1.1.6.2 0 .5-.1.7-.2.6-.4.8-1.1.4-1.7l-6.2-10.3c-.2-.3-.5-.5-.8-.6-.3-.1-.7 0-1 .1-.6.4-.8 1.1-.4 1.7l6.2 10.4z" id="prefix__prefix__path1131"/><path class="prefix__prefix__st3" d="M69.3 179.5l10.7 5.6c.2.1.4.1.6.1.5 0 .9-.3 1.1-.7.3-.6.1-1.4-.5-1.7l-10.7-5.6c-.6-.3-1.4-.1-1.7.5-.4.7-.2 1.5.5 1.8z" id="prefix__prefix__path1133"/><path class="prefix__prefix__st3" d="M78.3 200.3c0-.7-.7-1.2-1.3-1.2l-12 .8c-.3 0-.6.2-.9.4-.2.3-.3.6-.3.9 0 .7.6 1.2 1.3 1.2l12.1-.8c.6 0 1.2-.6 1.1-1.3z" id="prefix__prefix__path1135"/><path class="prefix__prefix__st3" d="M82.8 217.3c-.3-.1-.7 0-.9.2l-9.9 6.9c-.6.4-.7 1.2-.3 1.8.2.3.6.5 1 .5.3 0 .5-.1.7-.2l9.9-6.9c.6-.4.7-1.2.3-1.8-.2-.3-.4-.5-.8-.5z" id="prefix__prefix__path1137"/></g><g id="prefix__prefix__g1177"><path class="prefix__prefix__st45" d="M46.9 324c.5.6.7 1.3.7 2.2 0 1.2-.5 2.2-1.4 2.9-.9.7-2.3 1-4 1h-6.8v-14.2h6.4c1.6 0 2.8.3 3.7 1 .9.6 1.3 1.5 1.3 2.7 0 .7-.2 1.4-.5 1.9-.4.5-.9 1-1.6 1.2 1 .3 1.7.7 2.2 1.3zm-8.8-2h3.5c.9 0 1.5-.2 2-.5.4-.3.7-.8.7-1.5s-.2-1.2-.7-1.5c-.4-.3-1.1-.5-2-.5h-3.5v4zm6.9 4c0-1.4-.9-2.1-2.8-2.1h-4.1v4.2h4.1c1.8 0 2.8-.7 2.8-2.1z" id="prefix__prefix__path1141"/><path class="prefix__prefix__st45" d="M68.9 315.9v14.2h-2.6v-12h-7.4v12h-2.6v-14.2h12.6z" id="prefix__prefix__path1143"/><path class="prefix__prefix__st45" d="M75.5 329.4c-1.2-.6-2.1-1.5-2.7-2.6-.7-1.1-1-2.4-1-3.8s.3-2.6 1-3.8c.7-1.1 1.6-2 2.7-2.6 1.2-.6 2.5-.9 3.9-.9 1.5 0 2.8.3 3.9.9 1.2.6 2.1 1.5 2.7 2.6.7 1.1 1 2.4 1 3.8s-.3 2.7-1 3.8c-.7 1.1-1.6 2-2.7 2.6-1.2.6-2.5.9-3.9.9s-2.7-.3-3.9-.9zm6.5-2c.8-.4 1.4-1 1.8-1.8.4-.8.7-1.6.7-2.6 0-.9-.2-1.8-.7-2.6-.4-.8-1-1.4-1.8-1.8-.8-.4-1.6-.6-2.6-.6-.9 0-1.8.2-2.6.6-.8.4-1.4 1-1.8 1.8-.4.8-.7 1.6-.7 2.6 0 .9.2 1.8.7 2.6.4.8 1 1.4 1.8 1.8.8.4 1.6.6 2.6.6s1.9-.2 2.6-.6z" id="prefix__prefix__path1145"/><path class="prefix__prefix__st45" d="M101.8 315.9v14.2h-2.6v-12h-5.6l-.1 3.6c-.1 2-.2 3.6-.5 4.9-.3 1.2-.7 2.2-1.2 2.8-.6.6-1.4 1-2.4 1-.4 0-.8-.1-1.4-.2l.2-2.3c.2.1.4.1.6.1.8 0 1.4-.5 1.8-1.5.3-1 .6-2.5.6-4.6l.2-5.9h10.4z" id="prefix__prefix__path1147"/><path class="prefix__prefix__st45" d="M115.3 324c.5.6.7 1.3.7 2.1 0 .9-.3 1.6-.8 2.2-.6.6-1.3 1.1-2.2 1.5-.9.3-1.9.5-3 .5-.9 0-1.9-.1-2.9-.4-1-.3-1.8-.7-2.7-1.2l.9-1.9c.6.4 1.3.7 2.1 1 .8.2 1.5.3 2.3.3 1.1 0 2-.2 2.7-.6.7-.4 1.1-1 1.1-1.7 0-.6-.3-1.1-.8-1.4-.5-.3-1.2-.5-2.1-.5h-3.3v-2.1h3.1c.8 0 1.4-.2 1.9-.5.4-.3.7-.8.7-1.3 0-.7-.3-1.2-.9-1.5-.6-.4-1.4-.5-2.3-.5-.6 0-1.3.1-2 .3s-1.3.5-1.9.8l-.8-2.1c.7-.4 1.5-.7 2.3-.9.8-.2 1.6-.3 2.5-.3 1.1 0 2 .2 2.9.5s1.6.8 2.1 1.4c.5.6.8 1.3.8 2.1 0 .7-.2 1.3-.6 1.9-.4.5-.9.9-1.6 1.2.7.1 1.3.5 1.8 1.1z" id="prefix__prefix__path1149"/><path class="prefix__prefix__st45" d="M128.5 326.8h-7.1l-1.4 3.3h-2.7l6.4-14.2h2.6l6.4 14.2h-2.8l-1.4-3.3zm-.9-2.1l-2.7-6.2-2.7 6.2h5.4z" id="prefix__prefix__path1151"/><path class="prefix__prefix__st45" d="M153.1 315.9v14.2h-2.6V324h-7.4v6.1h-2.6v-14.2h2.6v5.9h7.4v-5.9h2.6z" id="prefix__prefix__path1153"/><path class="prefix__prefix__st45" d="M166.5 326.8h-7.1l-1.4 3.3h-2.7l6.4-14.2h2.6l6.4 14.2h-2.8l-1.4-3.3zm-.9-2.1l-2.7-6.2-2.7 6.2h5.4z" id="prefix__prefix__path1155"/><path class="prefix__prefix__st45" d="M38.1 354.8c-1.2-.6-2.1-1.5-2.7-2.6-.7-1.1-1-2.4-1-3.8s.3-2.6 1-3.8c.7-1.1 1.6-2 2.7-2.6 1.2-.6 2.5-.9 3.9-.9 1.5 0 2.8.3 3.9.9 1.2.6 2.1 1.5 2.7 2.6.7 1.1 1 2.4 1 3.8s-.3 2.7-1 3.8c-.7 1.1-1.6 2-2.7 2.6-1.2.6-2.5.9-3.9.9-1.4.1-2.7-.2-3.9-.9zm6.5-2c.8-.4 1.4-1 1.8-1.8.4-.8.7-1.6.7-2.6 0-.9-.2-1.8-.7-2.6-.4-.8-1-1.4-1.8-1.8-.8-.4-1.6-.6-2.6-.6-.9 0-1.8.2-2.6.6-.8.4-1.4 1-1.8 1.8-.4.8-.7 1.6-.7 2.6 0 .9.2 1.8.7 2.6.4.8 1 1.4 1.8 1.8.8.4 1.6.6 2.6.6 1 .1 1.9-.1 2.6-.6z" id="prefix__prefix__path1157"/><path class="prefix__prefix__st45" d="M52.7 341.4h11.1v2.2h-8.5v3.5h4.2c1.7 0 3 .4 3.9 1.1.9.7 1.3 1.7 1.3 3.1 0 1.4-.5 2.5-1.5 3.3-1 .8-2.4 1.1-4.2 1.1h-6.4v-14.3zm6.2 12.2c1 0 1.8-.2 2.3-.6.5-.4.8-1 .8-1.7 0-1.5-1-2.2-3.1-2.2h-3.7v4.5h3.7z" id="prefix__prefix__path1159"/><path class="prefix__prefix__st45" d="M85.9 341.4v14.2H67.6v-14.2h2.6v12h5.2v-12H78v12h5.2v-12h2.7zm2.1 12v5.3h-2.4v-3h-2.3v-2.2H88z" id="prefix__prefix__path1161"/><path class="prefix__prefix__st45" d="M101.2 353.4v2.2H90.5v-14.2h10.4v2.2h-7.7v3.7h6.9v2.2h-6.9v3.9h8z" id="prefix__prefix__path1163"/><path class="prefix__prefix__st45" d="M106.7 354.8c-1.2-.6-2.1-1.5-2.7-2.6-.7-1.1-1-2.4-1-3.8s.3-2.7 1-3.8c.7-1.1 1.6-2 2.7-2.6 1.2-.6 2.5-.9 3.9-.9 1.2 0 2.2.2 3.2.6 1 .4 1.8 1 2.4 1.8l-1.7 1.6c-1-1.1-2.3-1.7-3.8-1.7-1 0-1.9.2-2.6.6-.8.4-1.4 1-1.8 1.8-.4.8-.7 1.6-.7 2.6s.2 1.8.7 2.6c.4.8 1 1.4 1.8 1.8.8.4 1.6.6 2.6.6 1.5 0 2.8-.6 3.8-1.7l1.7 1.6c-.7.8-1.5 1.4-2.5 1.8-1 .4-2 .6-3.2.6-1.3.1-2.6-.2-3.8-.9z" id="prefix__prefix__path1165"/><path class="prefix__prefix__st45" d="M128.9 343.6h-4.7v12h-2.6v-12h-4.7v-2.2h12v2.2z" id="prefix__prefix__path1167"/><path class="prefix__prefix__st45" d="M142.6 349.4c.5.6.7 1.3.7 2.2 0 1.2-.5 2.2-1.4 2.9-.9.7-2.3 1-4 1h-6.8v-14.2h6.4c1.6 0 2.8.3 3.7 1 .9.6 1.3 1.5 1.3 2.7 0 .7-.2 1.4-.5 1.9-.4.5-.9 1-1.6 1.2 1.1.3 1.8.7 2.2 1.3zm-8.8-2h3.5c.9 0 1.5-.2 2-.5.4-.3.7-.8.7-1.5s-.2-1.2-.7-1.5c-.4-.3-1.1-.5-2-.5h-3.5v4zm6.9 4c0-1.4-.9-2.1-2.8-2.1h-4.1v4.2h4.1c1.8.1 2.8-.6 2.8-2.1z" id="prefix__prefix__path1169"/><path class="prefix__prefix__st45" d="M149 354.8c-1.2-.6-2.1-1.5-2.7-2.6-.7-1.1-1-2.4-1-3.8s.3-2.6 1-3.8c.7-1.1 1.6-2 2.7-2.6 1.2-.6 2.5-.9 3.9-.9 1.5 0 2.8.3 3.9.9 1.2.6 2.1 1.5 2.7 2.6.7 1.1 1 2.4 1 3.8s-.3 2.7-1 3.8c-.7 1.1-1.6 2-2.7 2.6-1.2.6-2.5.9-3.9.9-1.4.1-2.7-.2-3.9-.9zm6.5-2c.8-.4 1.4-1 1.8-1.8.4-.8.7-1.6.7-2.6 0-.9-.2-1.8-.7-2.6-.4-.8-1-1.4-1.8-1.8-.8-.4-1.6-.6-2.6-.6-.9 0-1.8.2-2.6.6-.8.4-1.4 1-1.8 1.8-.4.8-.7 1.6-.7 2.6 0 .9.2 1.8.7 2.6.4.8 1 1.4 1.8 1.8.8.4 1.6.6 2.6.6 1 .1 1.8-.1 2.6-.6z" id="prefix__prefix__path1171"/><path class="prefix__prefix__st45" d="M173.7 343.6H169v12h-2.6v-12h-4.7v-2.2h12v2.2z" id="prefix__prefix__path1173"/><path class="prefix__prefix__st45" d="M178.4 354.8c-1.2-.6-2.1-1.5-2.7-2.6-.7-1.1-1-2.4-1-3.8s.3-2.6 1-3.8c.7-1.1 1.6-2 2.7-2.6 1.2-.6 2.5-.9 3.9-.9 1.5 0 2.8.3 3.9.9 1.2.6 2.1 1.5 2.7 2.6.7 1.1 1 2.4 1 3.8s-.3 2.7-1 3.8c-.7 1.1-1.6 2-2.7 2.6-1.2.6-2.5.9-3.9.9-1.4.1-2.7-.2-3.9-.9zm6.5-2c.8-.4 1.4-1 1.8-1.8.4-.8.7-1.6.7-2.6 0-.9-.2-1.8-.7-2.6-.4-.8-1-1.4-1.8-1.8-.8-.4-1.6-.6-2.6-.6-.9 0-1.8.2-2.6.6-.8.4-1.4 1-1.8 1.8-.4.8-.7 1.6-.7 2.6 0 .9.2 1.8.7 2.6.4.8 1 1.4 1.8 1.8.8.4 1.6.6 2.6.6 1 .1 1.8-.1 2.6-.6z" id="prefix__prefix__path1175"/></g><radialGradient id="prefix__prefix__SVGID_5_" cx="-1418.666" cy="2725.407" r="129.273" gradientTransform="matrix(.5011 0 0 .05423 821.916 124.864)" gradientUnits="userSpaceOnUse"><stop offset=".103" id="prefix__prefix__stop1179" stop-color="#e0e3e2"/><stop offset=".268" id="prefix__prefix__stop1181" stop-color="#e9ebea"/><stop offset=".684" id="prefix__prefix__stop1183" stop-color="#f9fafa"/><stop offset="1" id="prefix__prefix__stop1185" stop-color="#fff"/></radialGradient><ellipse cx="111.1" cy="272.7" rx="91.4" ry="5.9" id="prefix__prefix__ellipse1188" opacity=".9" fill="url(#prefix__prefix__SVGID_5_)"/><path class="prefix__prefix__st9" d="M184.8 219.4s-1.9 19.1-17 20.4c15.1 1.3 17 20.4 17 20.4s1.9-19.1 17-20.4c-15.1-1.3-17-20.4-17-20.4z" id="prefix__prefix__path1190"/><path class="prefix__prefix__st9" d="M212.9 179s-1.3 12.6-11.3 13.5c10 .9 11.3 13.5 11.3 13.5s1.3-12.6 11.3-13.5c-10-.8-11.3-13.5-11.3-13.5z" id="prefix__prefix__path1192"/></g><g id="prefix__prefix__g1261"><ellipse class="prefix__prefix__st1" cx="590.4" cy="787.3" rx="69.8" ry="93" id="prefix__prefix__ellipse1196"/><g id="prefix__prefix__g1244"><path class="prefix__prefix__st45" d="M568.1 817v14.2h-2.6v-12h-7.4v12h-2.6V817h12.6z" id="prefix__prefix__path1198"/><path class="prefix__prefix__st45" d="M582.4 817.6c.9.4 1.6 1 2.1 1.7.5.8.7 1.7.7 2.7 0 1-.2 1.9-.7 2.7-.5.8-1.2 1.4-2.1 1.8-.9.4-2 .6-3.2.6H576v4.1h-2.6V817h5.9c1.1 0 2.2.2 3.1.6zm-.7 6.5c.6-.5.9-1.2.9-2.1 0-.9-.3-1.6-.9-2.1-.6-.5-1.5-.7-2.6-.7H576v5.7h3.1c1.1-.1 2-.3 2.6-.8z" id="prefix__prefix__path1200"/><path class="prefix__prefix__st45" d="M599.6 829v2.2h-10.7V817h10.4v2.2h-7.7v3.7h6.9v2.2h-6.9v3.9h8z" id="prefix__prefix__path1202"/><path class="prefix__prefix__st45" d="M615.2 825c.5.6.7 1.3.7 2.2 0 1.2-.5 2.2-1.4 2.9-.9.7-2.3 1-4 1h-6.8V817h6.4c1.6 0 2.8.3 3.7 1 .9.6 1.3 1.5 1.3 2.7 0 .7-.2 1.4-.5 1.9-.4.5-.9 1-1.6 1.2 1.1.2 1.8.7 2.2 1.2zm-8.8-2h3.5c.9 0 1.5-.2 2-.5.4-.3.7-.8.7-1.5s-.2-1.2-.7-1.5c-.4-.3-1.1-.5-2-.5h-3.5v4zm6.9 4c0-1.4-.9-2.1-2.8-2.1h-4.1v4.2h4.1c1.9.1 2.8-.6 2.8-2.1z" id="prefix__prefix__path1204"/><path class="prefix__prefix__st45" d="M622.9 830.5c-1.2-.6-2.1-1.5-2.7-2.6-.7-1.1-1-2.4-1-3.8s.3-2.6 1-3.8c.7-1.1 1.6-2 2.7-2.6 1.2-.6 2.5-.9 3.9-.9 1.5 0 2.8.3 3.9.9 1.2.6 2.1 1.5 2.7 2.6.7 1.1 1 2.4 1 3.8s-.3 2.7-1 3.8c-.7 1.1-1.6 2-2.7 2.6-1.2.6-2.5.9-3.9.9-1.5 0-2.8-.3-3.9-.9zm6.4-2.1c.8-.4 1.4-1 1.8-1.8.4-.8.7-1.6.7-2.6 0-.9-.2-1.8-.7-2.6s-1-1.4-1.8-1.8c-.8-.4-1.6-.6-2.6-.6-.9 0-1.8.2-2.6.6-.8.4-1.4 1-1.8 1.8-.4.8-.7 1.6-.7 2.6 0 .9.2 1.8.7 2.6.4.8 1 1.4 1.8 1.8.8.4 1.6.6 2.6.6 1 .1 1.9-.1 2.6-.6z" id="prefix__prefix__path1206"/><path class="prefix__prefix__st45" d="M652.3 829v5.3h-2.4v-3H639v3h-2.5V829h.6c.9 0 1.5-.7 1.9-2 .4-1.3.6-3.1.7-5.5l.2-4.5h10.4v12h2zm-10.8-2.7c-.2 1.2-.6 2.1-1.1 2.6h7.2v-9.8H642l-.1 2.5c0 2-.1 3.5-.4 4.7z" id="prefix__prefix__path1208"/><path class="prefix__prefix__st45" d="M674.3 825c.5.6.7 1.3.7 2.2 0 1.2-.5 2.2-1.4 2.9-.9.7-2.3 1-4 1h-6.8V817h6.4c1.6 0 2.8.3 3.7 1 .9.6 1.3 1.5 1.3 2.7 0 .7-.2 1.4-.5 1.9-.4.5-.9 1-1.6 1.2 1 .2 1.7.7 2.2 1.2zm-8.8-2h3.5c.9 0 1.5-.2 2-.5.4-.3.7-.8.7-1.5s-.2-1.2-.7-1.5c-.4-.3-1.1-.5-2-.5h-3.5v4zm6.8 4c0-1.4-.9-2.1-2.8-2.1h-4.1v4.2h4.1c1.9.1 2.8-.6 2.8-2.1z" id="prefix__prefix__path1210"/><path class="prefix__prefix__st45" d="M569.6 850.2v5.3h-2.4v-3h-10.9v3h-2.5v-5.3h.6c.9 0 1.5-.7 1.9-2 .4-1.3.6-3.1.7-5.5l.2-4.5h10.4v12h2zm-10.8-2.7c-.2 1.2-.6 2.1-1.1 2.6h7.2v-9.8h-5.6l-.1 2.5c0 2-.2 3.5-.4 4.7z" id="prefix__prefix__path1212"/><path class="prefix__prefix__st45" d="M582.8 849.1h-7.1l-1.4 3.3h-2.7l6.4-14.2h2.6l6.4 14.2h-2.8l-1.4-3.3zm-.8-2.1l-2.7-6.2-2.7 6.2h5.4z" id="prefix__prefix__path1214"/><path class="prefix__prefix__st45" d="M599.5 838.8c.9.4 1.6 1 2.1 1.7.5.8.7 1.7.7 2.7 0 1-.2 1.9-.7 2.7-.5.8-1.2 1.4-2.1 1.8s-2 .6-3.2.6h-3.2v4.1h-2.6v-14.2h5.9c1.1 0 2.2.2 3.1.6zm-.7 6.5c.6-.5.9-1.2.9-2.1 0-.9-.3-1.6-.9-2.1-.6-.5-1.5-.7-2.6-.7h-3.1v5.7h3.1c1.1-.1 2-.3 2.6-.8z" id="prefix__prefix__path1216"/><path class="prefix__prefix__st45" d="M606.1 838.2h2.6v10.1l7.6-10.1h2.5v14.2h-2.6v-10.1l-7.6 10.1h-2.5v-14.2z" id="prefix__prefix__path1218"/><path class="prefix__prefix__st45" d="M634.3 840.4h-4.7v12H627v-12h-4.7v-2.2h12v2.2z" id="prefix__prefix__path1220"/><path class="prefix__prefix__st45" d="M648.5 850.2v2.2h-10.7v-14.2h10.4v2.2h-7.7v3.7h6.9v2.2h-6.9v3.9h8z" id="prefix__prefix__path1222"/><path class="prefix__prefix__st45" d="M664.8 838.2v14.2h-2.6v-12h-5.6l-.1 3.6c-.1 2-.2 3.6-.5 4.9-.3 1.2-.7 2.2-1.2 2.8-.6.6-1.4 1-2.4 1-.4 0-.8-.1-1.4-.2l.2-2.3c.2.1.4.1.6.1.8 0 1.4-.5 1.8-1.5.3-1 .6-2.5.6-4.6l.2-5.9h10.4z" id="prefix__prefix__path1224"/><path class="prefix__prefix__st45" d="M672.7 851.7c-1.2-.6-2.1-1.5-2.7-2.6-.7-1.1-1-2.4-1-3.8s.3-2.7 1-3.8c.7-1.1 1.6-2 2.7-2.6 1.2-.6 2.5-.9 3.9-.9 1.2 0 2.2.2 3.2.6 1 .4 1.8 1 2.4 1.8l-1.7 1.6c-1-1.1-2.3-1.7-3.8-1.7-1 0-1.9.2-2.6.6-.8.4-1.4 1-1.8 1.8-.4.8-.7 1.6-.7 2.6s.2 1.8.7 2.6c.4.8 1 1.4 1.8 1.8.8.4 1.6.6 2.6.6 1.5 0 2.8-.6 3.8-1.7l1.7 1.6c-.7.8-1.5 1.4-2.5 1.8-1 .4-2 .6-3.2.6-1.3 0-2.6-.3-3.8-.9z" id="prefix__prefix__path1226"/><path class="prefix__prefix__st45" d="M691.2 846.4h-2.6v6H686v-14.2h2.6v6h2.7l4.1-6h2.8l-4.9 6.9 5 7.3h-3l-4.1-6z" id="prefix__prefix__path1228"/><path class="prefix__prefix__st45" d="M710.6 849.1h-7.1l-1.4 3.3h-2.7l6.4-14.2h2.6l6.4 14.2H712l-1.4-3.3zm-.9-2.1l-2.7-6.2-2.7 6.2h5.4z" id="prefix__prefix__path1230"/><path class="prefix__prefix__st45" d="M558.1 872.9c-1.2-.6-2.1-1.5-2.7-2.6-.7-1.1-1-2.4-1-3.8s.3-2.7 1-3.8c.7-1.1 1.6-2 2.7-2.6 1.2-.6 2.5-.9 3.9-.9 1.2 0 2.2.2 3.2.6 1 .4 1.8 1 2.4 1.8l-1.7 1.6c-1-1.1-2.3-1.7-3.8-1.7-1 0-1.9.2-2.6.6-.8.4-1.4 1-1.8 1.8-.4.8-.7 1.6-.7 2.6s.2 1.8.7 2.6c.4.8 1 1.4 1.8 1.8.8.4 1.6.6 2.6.6 1.5 0 2.8-.6 3.8-1.7l1.7 1.6c-.7.8-1.5 1.4-2.5 1.8-1 .4-2 .6-3.2.6-1.3 0-2.6-.3-3.8-.9z" id="prefix__prefix__path1232"/><path class="prefix__prefix__st45" d="M584.4 873.6v-9.4l-4.7 7.8h-1.2l-4.7-7.7v9.3h-2.5v-14.2h2.2l5.6 9.4 5.6-9.4h2.2v14.2h-2.5z" id="prefix__prefix__path1234"/><path class="prefix__prefix__st45" d="M602.8 871.4v2.2h-10.7v-14.2h10.4v2.2h-7.7v3.7h6.9v2.2h-6.9v3.9h8z" id="prefix__prefix__path1236"/><path class="prefix__prefix__st45" d="M617.3 861.6h-4.7v12H610v-12h-4.7v-2.2h12v2.2z" id="prefix__prefix__path1238"/><path class="prefix__prefix__st45" d="M626.1 867.6h-2.6v6h-2.6v-14.2h2.6v6h2.7l4.1-6h2.8l-4.9 6.9 5 7.3h-3l-4.1-6z" id="prefix__prefix__path1240"/><path class="prefix__prefix__st45" d="M645.5 870.3h-7.1l-1.4 3.3h-2.7l6.4-14.2h2.6l6.4 14.2h-2.8l-1.4-3.3zm-.9-2.1l-2.7-6.2-2.7 6.2h5.4z" id="prefix__prefix__path1242"/></g><g id="prefix__prefix__g1248"><path class="prefix__prefix__st10" d="M540.5 887.6c.4 2.6-.2 5-1.8 7.2-1.7 2.2-3.8 3.5-6.3 4-1.9.3-3.7-.1-5.3-1.2-1.6-1.1-2.6-2.7-2.9-4.6-.4-2.6.2-5 2-7.3 1.7-2.3 3.9-3.7 6.4-4.1 1.9-.3 3.7.1 5.2 1.3 1.4 1.1 2.3 2.7 2.7 4.7zm6.9-72.7c.3 1.6-.1 4.1-1.1 7.5-.8 2.6-2.1 8.8-4 18.5s-3 15.7-3.4 18c-.4 2.3-.6 5.1-.7 8.3-.1 2.5-1.6 4-4.4 4.5-3.7.6-5.9-.9-6.5-4.6-.6-3.8.4-11.6 3.1-23.3 2.7-11.7 5-19.8 6.8-24.2 1.8-4.5 3.8-6.9 6.1-7.3 2.4-.4 3.7.4 4.1 2.6z" id="prefix__prefix__path1246"/></g><radialGradient id="prefix__prefix__SVGID_6_" cx="-300.878" cy="5856.199" r="129.273" gradientTransform="matrix(.5538 0 0 .04348 770.707 552.8)" gradientUnits="userSpaceOnUse"><stop offset=".103" id="prefix__prefix__stop1250" stop-color="#e0e3e2"/><stop offset=".268" id="prefix__prefix__stop1252" stop-color="#e9ebea"/><stop offset=".684" id="prefix__prefix__stop1254" stop-color="#f9fafa"/><stop offset="1" id="prefix__prefix__stop1256" stop-color="#fff"/></radialGradient><ellipse cx="604.1" cy="807.4" rx="101.1" ry="4.7" id="prefix__prefix__ellipse1259" opacity=".9" fill="url(#prefix__prefix__SVGID_6_)"/></g><g id="prefix__prefix__g1344"><ellipse class="prefix__prefix__st1" cx="208.6" cy="903.1" rx="50.1" ry="67.9" id="prefix__prefix__ellipse1263"/><g id="prefix__prefix__g1309"><g id="prefix__prefix__g1307"><path class="prefix__prefix__st45" d="M127.5 981.8c-1.2-.6-2.1-1.5-2.7-2.6-.7-1.1-1-2.4-1-3.8s.3-2.6 1-3.8c.7-1.1 1.6-2 2.7-2.6 1.2-.6 2.5-.9 3.9-.9 1.5 0 2.8.3 3.9.9 1.2.6 2.1 1.5 2.7 2.6.7 1.1 1 2.4 1 3.8s-.3 2.7-1 3.8c-.7 1.1-1.6 2-2.7 2.6-1.2.6-2.5.9-3.9.9s-2.7-.3-3.9-.9zm6.5-2.1c.8-.4 1.4-1 1.8-1.8.4-.8.7-1.6.7-2.6s-.2-1.8-.7-2.6c-.4-.8-1-1.4-1.8-1.8-.8-.4-1.6-.6-2.6-.6-.9 0-1.8.2-2.6.6-.8.4-1.4 1-1.8 1.8-.4.8-.7 1.6-.7 2.6s.2 1.8.7 2.6c.4.8 1 1.4 1.8 1.8.8.4 1.6.6 2.6.6 1 .1 1.9-.1 2.6-.6z" id="prefix__prefix__path1265"/><path class="prefix__prefix__st45" d="M153.4 970.5h-4.7v12h-2.6v-12h-4.7v-2.2h12v2.2z" id="prefix__prefix__path1267"/><path class="prefix__prefix__st45" d="M167.8 968.3v14.2h-2.6v-5.4c-1.3.5-2.6.8-3.8.8-1.8 0-3.2-.4-4.2-1.3s-1.5-2.1-1.5-3.8v-4.5h2.6v4.3c0 1 .3 1.8.9 2.3.6.5 1.4.8 2.5.8 1.2 0 2.4-.3 3.5-.8v-6.6h2.6z" id="prefix__prefix__path1269"/><path class="prefix__prefix__st45" d="M173 968.3h2.6v10.1l7.6-10.1h2.5v14.2h-2.6v-10.1l-7.6 10.1H173v-14.2z" id="prefix__prefix__path1271"/><path class="prefix__prefix__st45" d="M201.3 970.5h-4.7v12H194v-12h-4.7v-2.2h12v2.2z" id="prefix__prefix__path1273"/><path class="prefix__prefix__st45" d="M213.5 979.2h-7.1l-1.4 3.3h-2.7l6.4-14.2h2.6l6.4 14.2h-2.8l-1.4-3.3zm-.9-2.1l-2.7-6.2-2.7 6.2h5.4z" id="prefix__prefix__path1275"/><path class="prefix__prefix__st45" d="M233.8 968.3v14.2h-2.6v-6.1h-7.4v6.1h-2.6v-14.2h2.6v5.9h7.4v-5.9h2.6z" id="prefix__prefix__path1277"/><path class="prefix__prefix__st45" d="M249.6 980.3v2.2H239v-14.2h10.4v2.2h-7.7v3.7h6.9v2.2h-6.9v3.9h7.9z" id="prefix__prefix__path1279"/><path class="prefix__prefix__st45" d="M273.3 968.3v14.2h-2.6v-6.1h-7.4v6.1h-2.6v-14.2h2.6v5.9h7.4v-5.9h2.6z" id="prefix__prefix__path1281"/><path class="prefix__prefix__st45" d="M287.9 979.2h-7.1l-1.4 3.3h-2.7l6.4-14.2h2.6l6.4 14.2h-2.8l-1.4-3.3zm-.8-2.1l-2.7-6.2-2.7 6.2h5.4z" id="prefix__prefix__path1283"/><path class="prefix__prefix__st45" d="M137.5 989.5v14.2h-2.6v-6.1h-7.4v6.1h-2.6v-14.2h2.6v5.9h7.4v-5.9h2.6z" id="prefix__prefix__path1285"/><path class="prefix__prefix__st45" d="M152.2 1000.4h-7.1l-1.4 3.3H141l6.4-14.2h2.6l6.4 14.2h-2.8l-1.4-3.3zm-.9-2.1l-2.7-6.2-2.7 6.2h5.4z" id="prefix__prefix__path1287"/><path class="prefix__prefix__st45" d="M175.7 990.1c.9.4 1.6 1 2.1 1.7.5.8.7 1.7.7 2.7 0 1-.2 1.9-.7 2.7-.5.8-1.2 1.4-2.1 1.8s-2 .6-3.2.6h-3.2v4.1h-2.6v-14.2h5.9c1.1 0 2.2.2 3.1.6zm-.7 6.5c.6-.5.9-1.2.9-2.1 0-.9-.3-1.6-.9-2.1-.6-.5-1.5-.7-2.6-.7h-3.1v5.7h3.1c1.1-.1 2-.3 2.6-.8z" id="prefix__prefix__path1289"/><path class="prefix__prefix__st45" d="M191 1000.4h-7.1l-1.4 3.3h-2.7l6.4-14.2h2.6l6.4 14.2h-2.8l-1.4-3.3zm-.9-2.1l-2.7-6.2-2.7 6.2h5.4z" id="prefix__prefix__path1291"/><path class="prefix__prefix__st45" d="M208 997.6c.5.6.7 1.3.7 2.1 0 .9-.3 1.6-.8 2.2-.6.6-1.3 1.1-2.2 1.5-.9.3-1.9.5-3 .5-.9 0-1.9-.1-2.9-.4-1-.3-1.8-.7-2.7-1.2l.9-1.9c.6.4 1.3.7 2.1 1 .8.2 1.5.3 2.3.3 1.1 0 2-.2 2.7-.6.7-.4 1.1-1 1.1-1.7 0-.6-.3-1.1-.8-1.4-.5-.3-1.2-.5-2.1-.5H200v-2.1h3.1c.8 0 1.4-.2 1.9-.5.4-.3.7-.8.7-1.3 0-.7-.3-1.2-.9-1.5-.6-.4-1.4-.5-2.3-.5-.6 0-1.3.1-2 .3-.7.2-1.3.5-1.9.8l-.8-2.1c.7-.4 1.5-.7 2.3-.9s1.6-.3 2.5-.3c1.1 0 2 .2 2.9.5.9.3 1.6.8 2.1 1.4.5.6.8 1.3.8 2.1 0 .7-.2 1.3-.6 1.9-.4.5-.9.9-1.6 1.2.7 0 1.4.5 1.8 1.1z" id="prefix__prefix__path1293"/><path class="prefix__prefix__st45" d="M214.4 989.5l3.4 4.8 3.4-4.8h3.1l-4.8 6.8 5.2 7.4h-3.1l-3.7-5.2-3.7 5.2H211l5.1-7.3-4.8-6.9h3.1z" id="prefix__prefix__path1295"/><path class="prefix__prefix__st45" d="M230.2 1003c-1.2-.6-2.1-1.5-2.7-2.6-.7-1.1-1-2.4-1-3.8s.3-2.6 1-3.8c.7-1.1 1.6-2 2.7-2.6 1.2-.6 2.5-.9 3.9-.9 1.5 0 2.8.3 3.9.9 1.2.6 2.1 1.5 2.7 2.6.7 1.1 1 2.4 1 3.8s-.3 2.7-1 3.8c-.7 1.1-1.6 2-2.7 2.6-1.2.6-2.5.9-3.9.9s-2.7-.3-3.9-.9zm6.5-2.1c.8-.4 1.4-1 1.8-1.8.4-.8.7-1.6.7-2.6 0-.9-.2-1.8-.7-2.6-.4-.8-1-1.4-1.8-1.8-.8-.4-1.6-.6-2.6-.6-.9 0-1.8.2-2.6.6-.8.4-1.4 1-1.8 1.8-.4.8-.7 1.6-.7 2.6 0 .9.2 1.8.7 2.6.4.8 1 1.4 1.8 1.8.8.4 1.6.6 2.6.6 1 .1 1.8-.1 2.6-.6z" id="prefix__prefix__path1297"/><path class="prefix__prefix__st45" d="M259.7 1001.5v5.3h-2.4v-3h-10.9v3h-2.5v-5.3h.6c.9 0 1.5-.7 1.9-2 .4-1.3.6-3.1.7-5.5l.2-4.5h10.4v12h2zm-10.8-2.7c-.2 1.2-.6 2.1-1.1 2.6h7.2v-9.8h-5.6l-.1 2.5c0 2-.2 3.5-.4 4.7z" id="prefix__prefix__path1299"/><path class="prefix__prefix__st45" d="M263.4 989.5h2.6v10.1l7.6-10.1h2.5v14.2h-2.6v-10.1l-7.6 10.1h-2.5v-14.2z" id="prefix__prefix__path1301"/><path class="prefix__prefix__st45" d="M291.6 991.7h-4.7v12h-2.6v-12h-4.7v-2.2h12v2.2z" id="prefix__prefix__path1303"/><path class="prefix__prefix__st45" d="M305.8 1001.5v2.2h-10.7v-14.2h10.4v2.2h-7.7v3.7h6.9v2.2h-6.9v3.9h8z" id="prefix__prefix__path1305"/></g></g><g id="prefix__prefix__g1327"><g id="prefix__prefix__g1325"><path class="prefix__prefix__st3" d="M233.1 856.5h-41.5c-.1 0-.1 0-.2.1-.1 0-.1.1-.2.1l-.1.1-14.7 14.7-.1.1s-.1.1-.1.2 0 .1-.1.2v65c0 2.4 1.9 4.3 4.3 4.3h52.9c2.4 0 4.3-1.9 4.3-4.3v-76.4c-.2-2.2-2.1-4.1-4.5-4.1zm-42.5 4.7v8.4c0 .9-.7 1.6-1.6 1.6h-8.4l10-10zm44 76c0 .9-.7 1.6-1.6 1.6h-52.9c-.9 0-1.6-.7-1.6-1.6V874H189c2.4 0 4.3-1.9 4.3-4.3v-10.4H233c.9 0 1.6.7 1.6 1.6v76.3z" id="prefix__prefix__path1311"/><path class="prefix__prefix__st3" d="M189 896h35.2c.8 0 1.4-.6 1.4-1.4 0-.8-.6-1.4-1.4-1.4H189c-.8 0-1.4.6-1.4 1.4 0 .8.7 1.4 1.4 1.4z" id="prefix__prefix__path1313"/><path class="prefix__prefix__st3" d="M189 903.3h35.2c.8 0 1.4-.6 1.4-1.4 0-.8-.6-1.4-1.4-1.4H189c-.8 0-1.4.6-1.4 1.4 0 .8.7 1.4 1.4 1.4z" id="prefix__prefix__path1315"/><path class="prefix__prefix__st3" d="M189 910.7h17.6c.8 0 1.4-.6 1.4-1.4 0-.8-.6-1.4-1.4-1.4H189c-.8 0-1.4.6-1.4 1.4 0 .7.7 1.4 1.4 1.4z" id="prefix__prefix__path1317"/><path class="prefix__prefix__st3" d="M208 916.6c0-.8-.6-1.4-1.4-1.4H189c-.8 0-1.4.6-1.4 1.4 0 .8.6 1.4 1.4 1.4h17.6c.8 0 1.4-.6 1.4-1.4z" id="prefix__prefix__path1319"/><path class="prefix__prefix__st3" d="M213.9 880.3c0-.8-.6-1.4-1.4-1.4s-1.4.6-1.4 1.4c0 2.7 2.5 4.9 5.9 5.3v.2c0 .8.6 1.4 1.4 1.4.8 0 1.4-.6 1.4-1.4v-.2c3.4-.5 5.9-2.6 5.9-5.3 0-2.7-2.5-4.9-5.9-5.3v-5.3c1.7.3 3.1 1.3 3.1 2.5 0 .8.6 1.4 1.4 1.4.8 0 1.4-.6 1.4-1.4 0-2.7-2.5-4.9-5.9-5.3v-.2c0-.8-.6-1.4-1.4-1.4-.8 0-1.4.6-1.4 1.4v.2c-3.4.5-5.9 2.6-5.9 5.3s2.5 4.9 5.9 5.3v5.3c-1.6-.4-3.1-1.3-3.1-2.5zm9 0c0 1.2-1.5 2.2-3.1 2.5v-5c1.6.3 3.1 1.2 3.1 2.5zm-9-8.1c0-1.2 1.5-2.2 3.1-2.5v5c-1.6-.3-3.1-1.3-3.1-2.5z" id="prefix__prefix__path1321"/><path class="prefix__prefix__st3" d="M227 915.3c-.7-.4-1.5-.1-1.9.5l-2.8 5-.4-.3c-.3-.3-.7-.3-1.2-.3-.4.1-.7.4-.9.7l-1.4 2.9-.5-.5c-.7-.8-1.7-1.1-2.7-.9-1 .2-1.8.9-2.1 1.9l-1.6 4.5-3.8-4.7c-.2-.3-.6-.5-1-.5s-.7.1-1 .3l-4 3.5c-.6.5-.6 1.4-.1 1.9.5.6 1.4.6 1.9.1l2.9-2.5 3.6 4.5c.4.5 1 .8 1.7.8h.4c.8-.1 1.4-.7 1.6-1.4l2-5.7.1-.1h.1l1.8 2.1c.3.3.8.5 1.2.5.5-.1.9-.3 1.1-.8l1.6-3.2.3.2c.3.2.7.3 1.1.3.4-.1.7-.3.9-.7l3.6-6.4c.4-.4.1-1.3-.5-1.7z" id="prefix__prefix__path1323"/></g></g><radialGradient id="prefix__prefix__SVGID_7_" cx="-1018.056" cy="6187.857" r="129.273" gradientTransform="matrix(.5538 0 0 .04348 770.707 682.585)" gradientUnits="userSpaceOnUse"><stop offset=".103" id="prefix__prefix__stop1329" stop-color="#e0e3e2"/><stop offset=".268" id="prefix__prefix__stop1331" stop-color="#e9ebea"/><stop offset=".684" id="prefix__prefix__stop1333" stop-color="#f9fafa"/><stop offset="1" id="prefix__prefix__stop1335" stop-color="#fff"/></radialGradient><ellipse cx="206.9" cy="951.6" rx="101.1" ry="4.7" id="prefix__prefix__ellipse1338" opacity=".9" fill="url(#prefix__prefix__SVGID_7_)"/><path class="prefix__prefix__st9" d="M255.4 911.3s-1.9 19.1-17 20.4c15.1 1.3 17 20.4 17 20.4s1.9-19.1 17-20.4c-15-1.3-17-20.4-17-20.4z" id="prefix__prefix__path1340"/><path class="prefix__prefix__st9" d="M267 859.9s-1.3 12.6-11.3 13.5c10 .9 11.3 13.5 11.3 13.5s1.3-12.6 11.3-13.5c-10-.9-11.3-13.5-11.3-13.5z" id="prefix__prefix__path1342"/></g><g id="prefix__prefix__g1376"><ellipse class="prefix__prefix__st1" cx="166.6" cy="695.5" rx="69.8" ry="78" id="prefix__prefix__ellipse1346"/><g id="prefix__prefix__g1360"><path class="prefix__prefix__st45" d="M199.5 733.3c-1.6-.9-2.9-2.1-3.8-3.6-.9-1.6-1.4-3.3-1.4-5.3 0-1.9.5-3.7 1.4-5.3.9-1.6 2.2-2.8 3.8-3.6 1.6-.9 3.4-1.3 5.4-1.3 1.6 0 3.1.3 4.5.9 1.3.6 2.5 1.4 3.4 2.5l-2.4 2.2c-1.4-1.6-3.2-2.3-5.3-2.3-1.4 0-2.6.3-3.7.9-1.1.6-1.9 1.4-2.5 2.5-.6 1.1-.9 2.3-.9 3.6 0 1.3.3 2.5.9 3.6.6 1.1 1.4 1.9 2.5 2.5 1.1.6 2.3.9 3.7.9 2.1 0 3.9-.8 5.3-2.4l2.4 2.3c-.9 1.1-2.1 1.9-3.4 2.5-1.4.6-2.8.9-4.5.9-1.9-.2-3.7-.7-5.4-1.5z" id="prefix__prefix__path1348"/><path class="prefix__prefix__st45" d="M230.5 717.5h-6.6v16.7h-3.7v-16.7h-6.6v-3.1h16.8v3.1z" id="prefix__prefix__path1350"/><path class="prefix__prefix__st45" d="M245.8 729.7h-9.9l-2 4.6h-3.8l8.9-19.9h3.6l9 19.9h-3.9l-1.9-4.6zm-1.2-2.9l-3.7-8.7-3.7 8.7h7.4z" id="prefix__prefix__path1352"/><path class="prefix__prefix__st45" d="M267.4 715.3c1.3.6 2.3 1.4 2.9 2.4.7 1.1 1 2.3 1 3.8 0 1.4-.3 2.7-1 3.8-.7 1.1-1.7 1.9-2.9 2.5-1.3.6-2.8.9-4.5.9h-4.5v5.7h-3.7v-19.9h8.2c1.7-.1 3.2.2 4.5.8zm-1 9.1c.8-.7 1.2-1.7 1.2-2.9s-.4-2.2-1.2-2.9c-.8-.7-2.1-1-3.7-1h-4.3v7.9h4.3c1.7-.1 2.9-.4 3.7-1.1z" id="prefix__prefix__path1354"/><path class="prefix__prefix__st45" d="M288.7 717.5h-6.6v16.7h-3.7v-16.7h-6.6v-3.1h16.8v3.1z" id="prefix__prefix__path1356"/><path class="prefix__prefix__st45" d="M292 733.9c-.4-.4-.7-1-.7-1.6 0-.6.2-1.1.7-1.6.4-.4 1-.6 1.6-.6.6 0 1.2.2 1.6.6s.6.9.6 1.6c0 .6-.2 1.1-.6 1.6s-1 .6-1.6.6c-.6 0-1.2-.2-1.6-.6zm-.4-19.5h4.2l-.7 13.3h-2.8l-.7-13.3z" id="prefix__prefix__path1358"/></g><g id="prefix__prefix__g1368"><path class="prefix__prefix__st3" d="M169.8 698.7c-.8-.7-1.8-1.3-2.9-1.6l-.4-.1-.2-.4c-.4-1-1-2-1.9-2.7-1.3-1.2-2.9-1.8-4.7-1.8h-.4c-3.8.2-6.8 3.5-6.6 7.3l.5 10.2c0 .5.3 1 .6 1.3.4.3.9.5 1.4.5l10.2-.5c3.8-.2 6.8-3.5 6.6-7.3 0-2-.8-3.7-2.2-4.9zm-2.3 7.3c-.6.6-1.4 1-2.2 1.1l-8.3.4-.4-8.3c-.1-1.8 1.3-3.3 3-3.4.9 0 1.7.2 2.3.8.6.6 1 1.4 1.1 2.2 0 .5.2 1 .6 1.3.4.3.9.5 1.4.5.8 0 1.7.2 2.3.8.6.6 1 1.4 1.1 2.2 0 1-.3 1.8-.9 2.4z" id="prefix__prefix__path1362"/><path class="prefix__prefix__st3" d="M187.5 679.2c-.8-.8-1.8-1.3-2.9-1.6l-.4-.1-.2-.5c-.4-1-1-2-1.9-2.7-1.3-1.2-2.9-1.8-4.7-1.8h-.4c-3.8.2-6.8 3.5-6.6 7.3l.6 10.2c0 .5.3 1 .6 1.3.4.3.9.5 1.4.5l10.2-.5c3.8-.2 6.8-3.5 6.6-7.3-.1-1.9-1-3.6-2.3-4.8zm-4.5 8.3l-8.3.4-.4-8.3c0-.9.2-1.7.8-2.3.6-.6 1.4-1 2.2-1.1.9 0 1.7.2 2.3.8.6.6 1 1.4 1.1 2.2 0 .5.2 1 .6 1.3.4.3.9.5 1.4.5.9 0 1.7.2 2.3.8.6.6 1 1.4 1.1 2.2 0 1.9-1.4 3.4-3.1 3.5z" id="prefix__prefix__path1364"/><path class="prefix__prefix__st3" d="M212.9 645.6c-.4-.4-.9-.5-1.5-.5-25 3-47.8 16.5-62.5 36.9l-5.7 7.9-29 10.9c-.4.2-.7.4-1 .8l-10.3 17.5c-.3.6-.4 1.2-.1 1.8.1.2.2.4.4.6.3.3.7.4 1.1.5l17.3 1.9 9.9 9-5.8 6.4c-.7.8-.6 2 .1 2.7.4.3.8.5 1.4.5.5 0 1-.2 1.3-.6l5.8-6.4 9.9 9 3.6 17c.1.4.3.7.6 1 .2.2.4.3.6.4.6.2 1.3.1 1.8-.2l16.4-12.1c.3-.3.6-.6.7-1l7.9-30 7.3-6.4c18.8-16.7 29.9-40.7 30.4-65.9 0-.8-.2-1.3-.6-1.7zm-91.3 74.5l-13.9-1.5 8.5-14.4 23.1-8.7-17.7 24.6zm42.9 27.7l-13.5 9.9-2.9-13.7 22.7-20.1-6.3 23.9zm39.6-71.7c-5 13.1-13.1 24.8-23.5 34L146 740.8l-9.1-8.3 11.5-12.8c.3-.4.5-.9.5-1.4 0-.5-.2-1-.6-1.3-.8-.7-2-.6-2.7.1L134.1 730l-9.1-8.3 27-37.5c8.1-11.3 19-20.5 31.5-26.8l.8-.4.4.9c1.6 4 4.2 7.7 7.5 10.7 3.3 2.9 7.2 5.1 11.4 6.4l.9.3-.4.8zm5.5-25.8c-.4 6.9-1.6 13.9-3.7 20.6l-.3.8-.8-.2c-3.8-1-7.3-3-10.2-5.6-2.9-2.6-5.2-5.9-6.6-9.6l-.3-.8.8-.3c6.5-2.7 13.2-4.7 20.1-5.8l1.1-.2-.1 1.1z" id="prefix__prefix__path1366"/></g><path class="prefix__prefix__st13" d="M288.2 668.9c-.9-3.8-4.3-6.6-8.3-6.6-.7 0-1.5.1-2.2.3-2-4.3-6.3-7.2-11.4-7.2-1.3 0-2.6.2-3.7.6-2.7-4.5-7.6-7.5-13.2-7.5-6.7 0-12.4 4.2-14.5 10.2-1.5-.9-3.3-1.3-5.2-1.3-5.9 0-10.6 4.7-10.6 10.6 0 .3 0 .7.1 1h69z" id="prefix__prefix__path1370"/><path class="prefix__prefix__st13" d="M143 683.6c-.8-3.6-4-6.2-7.8-6.2-.7 0-1.4.1-2 .3-1.9-4-5.9-6.8-10.7-6.8-1.2 0-2.4.2-3.5.5-2.5-4.2-7.2-7-12.4-7-6.3 0-11.6 4-13.6 9.6-1.4-.8-3.1-1.3-4.8-1.3-5.5 0-10 4.5-10 10v1H143z" id="prefix__prefix__path1372"/><path class="prefix__prefix__st9" d="M154.5 782.9s-.8 8.3-7.4 8.9c6.6.6 7.4 8.9 7.4 8.9s.8-8.3 7.4-8.9c-6.6-.6-7.4-8.9-7.4-8.9z" id="prefix__prefix__path1374"/></g><g id="prefix__prefix__g1465"><g id="prefix__prefix__g1394"><g id="prefix__prefix__g1392"><path class="prefix__prefix__st45" d="M884.9 959.3h-9.5v24.1h-10.8v-24.1H855v-8.5h29.9v8.5z" id="prefix__prefix__path1378"/><path class="prefix__prefix__st45" d="M888.5 950.8h10.8v16.9l11.2-16.9h10.3v32.6H910v-16.9l-11.2 16.9h-10.4v-32.6z" id="prefix__prefix__path1380"/><path class="prefix__prefix__st45" d="M889.7 996.1l-13.1 24.5c-1.6 2.9-3.5 5.1-5.7 6.7-2.2 1.5-4.7 2.3-7.4 2.3-2.1 0-4.2-.4-6.3-1.3l2.6-7.9c1.4.4 2.5.6 3.3.6.8 0 1.5-.1 2.1-.4.6-.3 1.1-.7 1.7-1.4l-12.5-23H866l6.5 13.7 6.7-13.7h10.5z" id="prefix__prefix__path1382"/><path class="prefix__prefix__st45" d="M898.6 1027.3c-2.8-1.4-4.9-3.5-6.5-6-1.6-2.6-2.3-5.5-2.3-8.8 0-3.3.8-6.2 2.3-8.8 1.6-2.6 3.7-4.6 6.5-6 2.8-1.4 5.9-2.2 9.3-2.2 3.2 0 6 .6 8.5 1.7s4.5 2.7 6.1 4.8l-6.9 6.2c-2-2.5-4.4-3.8-7.1-3.8-2.3 0-4.1.7-5.5 2.2-1.4 1.5-2.1 3.5-2.1 5.9 0 2.5.7 4.5 2.1 5.9 1.4 1.5 3.2 2.2 5.5 2.2 2.7 0 5.1-1.3 7.1-3.8l6.9 6.2c-1.6 2.1-3.7 3.7-6.1 4.8-2.5 1.1-5.3 1.7-8.5 1.7-3.4-.1-6.5-.8-9.3-2.2z" id="prefix__prefix__path1384"/><path class="prefix__prefix__st45" d="M957.3 996.1v32.6h-10.8v-24.1h-9.9v24.1h-10.8v-32.6h31.5z" id="prefix__prefix__path1386"/><path class="prefix__prefix__st45" d="M991.7 996.1v32.6h-10.8v-7.7H978l-5 7.7h-11.5l6.4-9.3c-2.1-1-3.7-2.4-4.9-4.2-1.1-1.8-1.7-4-1.7-6.4 0-2.6.6-4.8 1.8-6.7 1.2-1.9 3-3.3 5.2-4.4 2.3-1 4.9-1.5 8-1.5h15.4zm-19.3 12.5c0 2.8 1.4 4.1 4.2 4.1h4.3v-8.1h-4.3c-2.8 0-4.2 1.3-4.2 4z" id="prefix__prefix__path1388"/><path class="prefix__prefix__st45" d="M995.6 996.1h12.6l-2.1 20.1h-8.4l-2.1-20.1zm1.8 31.4c-1.1-1.1-1.7-2.4-1.7-4s.6-2.9 1.7-3.9 2.6-1.6 4.4-1.6c1.8 0 3.3.5 4.4 1.6 1.1 1 1.7 2.3 1.7 3.9s-.6 2.9-1.7 4-2.6 1.6-4.4 1.6c-1.7.1-3.2-.5-4.4-1.6z" id="prefix__prefix__path1390"/></g></g><g id="prefix__prefix__g1408"><path class="prefix__prefix__st10" d="M998 947.6c-.3-2.4-1.1-4.8-2.6-6.8-1-1.4-2.3-2.5-3.7-3.5-1.4-.9-3-1.5-4.7-1.8-.7-.1-1.4-.2-2.1-.2-1.9 0-3.8.4-5.6 1-1.9.7-3.7 1.7-5.2 3s-2.8 2.8-4 4.5c-.4.5-.9 1.4-1.1 2-.4.9-.8 1.9-1.1 2.8-.1-.1-.2-.3-.3-.4-.1-.1-.2-.2-.3-.4l-.1-.1c-.9-.9-2-1.7-3.1-2.4-1.4-.8-2.9-1.4-4.4-1.8-.6-.1-1.1-.2-1.7-.3-.6-.1-1.2-.1-1.8-.1h-.8c-.8.1-1.7.2-2.5.4-.9.2-1.8.6-2.6 1-1.2.6-2.4 1.5-3.3 2.4-.8.7-1.4 1.6-2 2.5-1.3 2.2-1.8 4.3-2 6.6-.1 1.6 0 3.1.3 4.7.3 1.4.9 2.7 1.6 4 .6 1.1 1.3 2 2.1 3 1.1 1.3 2.3 2.5 3.5 3.6 1.9 1.8 4 3.4 6.2 4.9 2.5 1.7 5 3.3 7.6 4.8 10.4 5.7 18.7 7.6 19 4.9.3-3.6 1.2-7.1 3.1-10.2.2-.3.4-.7.6-1 1.7-2.7 3.5-5.3 5.2-8 2-3.1 3.7-6.2 4.9-9.6.5-1.5.9-3 1.1-4.6.1-.8.2-1.5.2-2.3-.2-.8-.3-1.7-.4-2.6z" id="prefix__prefix__path1396"/><g id="prefix__prefix__g1406"><path class="prefix__prefix__st10" d="M994.1 947.3c.4.3.5.8.2 1.2-.3.4-.8.5-1.2.2-.4-.3-.5-.8-.2-1.2.3-.4.8-.4 1.2-.2z" id="prefix__prefix__path1398"/><path class="prefix__prefix__st10" d="M993.7 952c.3.2.4.6.2.8-.2.3-.6.3-.9.1-.3-.2-.4-.6-.2-.8.2-.2.6-.3.9-.1z" id="prefix__prefix__path1400"/><path class="prefix__prefix__st10" d="M992.1 956.9c.2.1.2.4.1.6-.1.2-.4.2-.6.1-.2-.1-.2-.4-.1-.6.1-.2.4-.2.6-.1z" id="prefix__prefix__path1402"/><path class="prefix__prefix__st10" d="M989.4 960.6c.2.1.3.4.1.6-.1.2-.5.3-.7.1-.2-.1-.3-.4-.1-.6.2-.2.5-.3.7-.1z" id="prefix__prefix__path1404"/></g></g><g id="prefix__prefix__g1463"><g id="prefix__prefix__g1461"><radialGradient id="prefix__prefix__SVGID_8_" cx="16.189" cy="6456.655" r="158" gradientTransform="matrix(.5538 0 0 .04348 770.707 787.77)" gradientUnits="userSpaceOnUse"><stop offset=".103" id="prefix__prefix__stop1410" stop-color="#e0e3e2"/><stop offset=".268" id="prefix__prefix__stop1412" stop-color="#e9ebea"/><stop offset=".684" id="prefix__prefix__stop1414" stop-color="#f9fafa"/><stop offset="1" id="prefix__prefix__stop1416" stop-color="#fff"/></radialGradient><ellipse cx="779.7" cy="1068.5" rx="123.5" ry="5.8" id="prefix__prefix__ellipse1419" opacity=".9" fill="url(#prefix__prefix__SVGID_8_)"/><g id="prefix__prefix__g1459"><g id="prefix__prefix__g1429"><path d="M776.1 970.9c3.7 10.1 13.5 17.4 24.9 17.4 11.4 0 21.2-7.2 24.9-17.4" id="prefix__prefix__path1421" fill="none" stroke="#ff7db9" stroke-width="4.898" stroke-linecap="round" stroke-linejoin="round" stroke-miterlimit="10"/><g id="prefix__prefix__g1427"><path class="prefix__prefix__st16" d="M794.4 954.3c0 1.8-1.5 3.3-3.3 3.3-1.8 0-3.3-1.5-3.3-3.3 0-1.8 1.5-3.3 3.3-3.3 1.8 0 3.3 1.5 3.3 3.3z" id="prefix__prefix__path1423"/><path class="prefix__prefix__st16" d="M814.1 954.3c0 1.8-1.5 3.3-3.3 3.3s-3.3-1.5-3.3-3.3c0-1.8 1.5-3.3 3.3-3.3s3.3 1.5 3.3 3.3z" id="prefix__prefix__path1425"/></g></g><g id="prefix__prefix__g1441"><path d="M765.2 1010.3c-3.1 8.3-11.1 14.3-20.4 14.3-9.4 0-17.4-5.9-20.4-14.3" id="prefix__prefix__path1431" fill="none" stroke="#ffcb57" stroke-width="4.898" stroke-linecap="round" stroke-linejoin="round" stroke-miterlimit="10"/><g id="prefix__prefix__g1437"><path class="prefix__prefix__st18" d="M750.2 996.6c0 1.5 1.2 2.7 2.7 2.7 1.5 0 2.7-1.2 2.7-2.7 0-1.5-1.2-2.7-2.7-2.7-1.5 0-2.7 1.3-2.7 2.7z" id="prefix__prefix__path1433"/><path class="prefix__prefix__st18" d="M734 996.6c0 1.5 1.2 2.7 2.7 2.7 1.5 0 2.7-1.2 2.7-2.7 0-1.5-1.2-2.7-2.7-2.7-1.5 0-2.7 1.3-2.7 2.7z" id="prefix__prefix__path1435"/></g><circle cx="744.7" cy="1006.9" r="36.6" id="prefix__prefix__circle1439" fill="none" stroke="#ffcb57" stroke-width="4.898" stroke-linejoin="round" stroke-miterlimit="10"/></g><g id="prefix__prefix__g1453"><g id="prefix__prefix__g1451"><path d="M779.4 1029.1c1.9 5.3 7 9 12.9 9s11-3.8 12.9-9" id="prefix__prefix__path1443" fill="none" stroke="#49c4ff" stroke-width="3.849" stroke-linecap="round" stroke-linejoin="round" stroke-miterlimit="10"/><g id="prefix__prefix__g1449"><path class="prefix__prefix__st21" d="M788.9 1020.5c0 .9-.8 1.7-1.7 1.7-.9 0-1.7-.8-1.7-1.7 0-.9.8-1.7 1.7-1.7 1 0 1.7.8 1.7 1.7z" id="prefix__prefix__path1445"/><path class="prefix__prefix__st21" d="M799.1 1020.5c0 .9-.8 1.7-1.7 1.7-.9 0-1.7-.8-1.7-1.7 0-.9.8-1.7 1.7-1.7 1 0 1.7.8 1.7 1.7z" id="prefix__prefix__path1447"/></g></g></g><circle cx="799" cy="964.5" r="43.8" id="prefix__prefix__circle1455" fill="none" stroke="#ff7db9" stroke-width="4.898" stroke-linejoin="round" stroke-miterlimit="10"/><circle cx="793.2" cy="1026.1" r="23" id="prefix__prefix__circle1457" fill="none" stroke="#49c4ff" stroke-width="3.769" stroke-linecap="round" stroke-linejoin="round" stroke-miterlimit="10"/></g></g></g></g><g id="prefix__prefix__g1509"><path class="prefix__prefix__st45" d="M240.1 111.7v15.9h-2.3v-7.1h-9.2v7.1h-2.3v-15.9h2.3v6.9h9.2v-6.9h2.3z" id="prefix__prefix__path1467"/><path class="prefix__prefix__st45" d="M255.5 115.6l-5.9 13.3c-.5 1.2-1.1 2.1-1.8 2.6s-1.5.8-2.5.8c-.6 0-1.2-.1-1.7-.3-.6-.2-1-.5-1.4-.8l.9-1.6c.6.6 1.3.9 2.2.9.5 0 1-.1 1.3-.4.4-.3.7-.8 1-1.4l.4-.8-5.3-12h2.3l4.2 9.7 4.2-9.7h2.1z" id="prefix__prefix__path1469"/><path class="prefix__prefix__st45" d="M268 122.5h-2.3v5.1h-2.2v-5.1h-2.3l-3.3 5.1h-2.6l4.1-6.2-3.8-5.8h2.3l3.3 5.1h2.4v-5.1h2.2v5.1h2.4l3.3-5.1h2.3l-3.8 5.8 4.1 6.2h-2.6l-3.5-5.1z" id="prefix__prefix__path1471"/><path class="prefix__prefix__st45" d="M288.6 125.7v4.7h-2v-2.8h-10.1v2.8h-2.1v-4.7h.6c.8 0 1.3-.6 1.6-1.6.3-1 .5-2.5.6-4.4l.2-4.1h9.4v10.2h1.8zm-9.7-2.1c-.2 1-.5 1.7-1 2.2h6.8v-8.2h-5.2l-.1 2.3c-.2 1.4-.3 2.7-.5 3.7z" id="prefix__prefix__path1473"/><path class="prefix__prefix__st45" d="M299.6 116.7c.9.8 1.3 2 1.3 3.7v7.3h-2.1V126c-.4.6-.9 1-1.6 1.3s-1.5.4-2.4.4c-1.4 0-2.4-.3-3.2-1-.8-.7-1.2-1.5-1.2-2.6s.4-1.9 1.2-2.6c.8-.6 2-1 3.7-1h3.5v-.4c0-.9-.3-1.7-.8-2.2-.5-.5-1.4-.8-2.4-.8-.7 0-1.4.1-2.1.4-.7.2-1.3.6-1.7.9l-.9-1.6c.6-.5 1.4-.9 2.2-1.1.9-.3 1.8-.4 2.8-.4 1.5.2 2.8.6 3.7 1.4zm-2.2 8.8c.6-.4 1-.9 1.3-1.6v-1.7h-3.4c-1.9 0-2.8.6-2.8 1.9 0 .6.2 1.1.7 1.4.5.3 1.1.5 2 .5.9.1 1.6-.1 2.2-.5z" id="prefix__prefix__path1475"/><path class="prefix__prefix__st45" d="M315.7 122.3h-9.8c.1 1.1.6 1.9 1.4 2.6.8.6 1.8 1 3 1 1.4 0 2.6-.5 3.5-1.5l1.2 1.4c-.5.6-1.2 1.1-2 1.5-.8.3-1.7.5-2.7.5-1.3 0-2.4-.3-3.4-.8s-1.7-1.3-2.3-2.2c-.5-.9-.8-2-.8-3.2 0-1.2.3-2.2.8-3.2.5-.9 1.2-1.7 2.2-2.2.9-.5 2-.8 3.1-.8s2.2.3 3.1.8c.9.5 1.6 1.3 2.1 2.2.5.9.8 2 .8 3.2-.1.2-.1.5-.2.7zm-8.5-4c-.7.6-1.1 1.5-1.2 2.5h7.7c-.1-1-.5-1.8-1.2-2.5-.7-.6-1.6-1-2.6-1s-2 .3-2.7 1z" id="prefix__prefix__path1477"/><path class="prefix__prefix__st45" d="M336.4 115.6v12.1h-17.2v-12.1h2.2v10.2h5.3v-10.2h2.2v10.2h5.3v-10.2h2.2z" id="prefix__prefix__path1479"/><path class="prefix__prefix__st45" d="M348.7 127c-1-.5-1.7-1.3-2.3-2.2-.5-.9-.8-2-.8-3.2s.3-2.2.8-3.2c.5-.9 1.3-1.7 2.3-2.2 1-.5 2.1-.8 3.3-.8 1.1 0 2.1.2 2.9.7.9.4 1.5 1.1 2 1.9l-1.7 1.1c-.4-.6-.9-1-1.4-1.3-.6-.3-1.2-.4-1.9-.4-.8 0-1.5.2-2.1.5-.6.3-1.1.8-1.5 1.5-.4.6-.5 1.4-.5 2.2 0 .8.2 1.6.5 2.2.4.6.8 1.1 1.5 1.5.6.3 1.3.5 2.1.5.7 0 1.3-.1 1.9-.4.6-.3 1-.7 1.4-1.3l1.7 1c-.5.8-1.1 1.5-2 1.9-.9.4-1.8.7-2.9.7-1.3.1-2.4-.2-3.3-.7z" id="prefix__prefix__path1481"/><path class="prefix__prefix__st45" d="M370.4 122.3h-9.8c.1 1.1.6 1.9 1.4 2.6.8.6 1.8 1 3 1 1.4 0 2.6-.5 3.5-1.5l1.2 1.4c-.5.6-1.2 1.1-2 1.5-.8.3-1.7.5-2.7.5-1.3 0-2.4-.3-3.4-.8s-1.7-1.3-2.3-2.2c-.5-.9-.8-2-.8-3.2 0-1.2.3-2.2.8-3.2.5-.9 1.2-1.7 2.2-2.2.9-.5 2-.8 3.1-.8s2.2.3 3.1.8c.9.5 1.6 1.3 2.1 2.2.5.9.8 2 .8 3.2-.2.2-.2.5-.2.7zm-8.6-4c-.7.6-1.1 1.5-1.2 2.5h7.7c-.1-1-.5-1.8-1.2-2.5-.7-.6-1.6-1-2.6-1s-2 .3-2.7 1z" id="prefix__prefix__path1483"/><path class="prefix__prefix__st45" d="M228 149.7c-1-.5-1.7-1.3-2.2-2.2-.5-.9-.8-2-.8-3.2s.3-2.2.8-3.2c.5-.9 1.3-1.7 2.2-2.2 1-.5 2-.8 3.2-.8s2.3.3 3.2.8c.9.5 1.7 1.3 2.2 2.2.5.9.8 2 .8 3.2s-.3 2.2-.8 3.2c-.5.9-1.3 1.7-2.2 2.2-.9.5-2 .8-3.2.8s-2.3-.2-3.2-.8zm5.3-1.6c.6-.4 1.1-.9 1.4-1.5a5.09 5.09 0 000-4.4c-.3-.6-.8-1.1-1.4-1.5-.6-.3-1.3-.5-2.1-.5s-1.5.2-2.1.5c-.6.3-1.1.8-1.5 1.5-.4.6-.5 1.4-.5 2.2s.2 1.6.5 2.2c.4.6.8 1.1 1.5 1.5.6.4 1.3.5 2.1.5s1.5-.2 2.1-.5z" id="prefix__prefix__path1485"/><path class="prefix__prefix__st45" d="M249.2 140.2h-4.4v10.2h-2.2v-10.2h-4.4v-1.9h11v1.9z" id="prefix__prefix__path1487"/><path class="prefix__prefix__st45" d="M259.5 149.7c-1-.5-1.7-1.3-2.3-2.2-.5-.9-.8-2-.8-3.2s.3-2.2.8-3.2c.5-.9 1.3-1.7 2.3-2.2 1-.5 2.1-.8 3.3-.8 1.1 0 2.1.2 2.9.7.9.4 1.5 1.1 2 1.9l-1.7 1.1c-.4-.6-.9-1-1.4-1.3-.6-.3-1.2-.4-1.9-.4-.8 0-1.5.2-2.1.5-.6.3-1.1.8-1.5 1.5-.4.6-.5 1.4-.5 2.2 0 .8.2 1.6.5 2.2.4.6.8 1.1 1.5 1.5.6.3 1.3.5 2.1.5.7 0 1.3-.1 1.9-.4.6-.3 1-.7 1.4-1.3l1.7 1c-.5.8-1.1 1.5-2 1.9-.9.4-1.8.7-2.9.7-1.2.1-2.3-.1-3.3-.7z" id="prefix__prefix__path1489"/><path class="prefix__prefix__st45" d="M280.1 139c.9.5 1.7 1.2 2.2 2.2.5.9.8 2 .8 3.2s-.3 2.3-.8 3.2c-.5.9-1.2 1.7-2.2 2.2-.9.5-2 .8-3.1.8-.9 0-1.7-.2-2.4-.5s-1.3-.8-1.8-1.5v6.2h-2.2v-16.5h2.1v1.9c.5-.7 1.1-1.2 1.8-1.5.7-.3 1.6-.5 2.5-.5 1.1 0 2.1.3 3.1.8zm-1.3 9.1c.6-.4 1.1-.9 1.5-1.5.4-.6.5-1.4.5-2.2s-.2-1.6-.5-2.2c-.4-.6-.8-1.1-1.5-1.5-.6-.3-1.3-.5-2.1-.5s-1.4.2-2.1.5c-.6.4-1.1.9-1.5 1.5-.4.6-.5 1.4-.5 2.2s.2 1.6.5 2.2c.3.6.8 1.1 1.5 1.5s1.3.5 2.1.5 1.5-.2 2.1-.5z" id="prefix__prefix__path1491"/><path class="prefix__prefix__st45" d="M297 145.1h-9.8c.1 1.1.6 1.9 1.4 2.6.8.6 1.8 1 3 1 1.4 0 2.6-.5 3.5-1.5l1.2 1.4c-.5.6-1.2 1.1-2 1.5-.8.3-1.7.5-2.7.5-1.3 0-2.4-.3-3.4-.8s-1.7-1.3-2.3-2.2c-.5-.9-.8-2-.8-3.2 0-1.2.3-2.2.8-3.2.5-.9 1.2-1.7 2.2-2.2.9-.5 2-.8 3.1-.8s2.2.3 3.1.8c.9.5 1.6 1.3 2.1 2.2.5.9.8 2 .8 3.2-.1.2-.1.4-.2.7zm-8.5-4.1c-.7.6-1.1 1.5-1.2 2.5h7.7c-.1-1-.5-1.8-1.2-2.5-.7-.6-1.6-1-2.6-1s-2 .4-2.7 1z" id="prefix__prefix__path1493"/><path class="prefix__prefix__st45" d="M312.5 148.5v4.7h-2v-2.8h-10.1v2.8h-2.1v-4.7h.6c.8 0 1.3-.6 1.6-1.6.3-1 .5-2.5.6-4.4l.2-4.1h9.4v10.2h1.8zm-9.7-2.2c-.2 1-.5 1.7-1 2.2h6.8v-8.2h-5.2l-.1 2.3c-.2 1.5-.3 2.7-.5 3.7z" id="prefix__prefix__path1495"/><path class="prefix__prefix__st45" d="M317.4 149.7c-1-.5-1.7-1.3-2.3-2.2-.5-.9-.8-2-.8-3.2s.3-2.2.8-3.2c.5-.9 1.3-1.7 2.3-2.2 1-.5 2.1-.8 3.3-.8 1.1 0 2.1.2 2.9.7.9.4 1.5 1.1 2 1.9l-1.7 1.1c-.4-.6-.9-1-1.4-1.3-.6-.3-1.2-.4-1.9-.4-.8 0-1.5.2-2.1.5-.6.3-1.1.8-1.5 1.5-.4.6-.5 1.4-.5 2.2 0 .8.2 1.6.5 2.2.4.6.8 1.1 1.5 1.5.6.3 1.3.5 2.1.5.7 0 1.3-.1 1.9-.4.6-.3 1-.7 1.4-1.3l1.7 1c-.5.8-1.1 1.5-2 1.9-.9.4-1.8.7-2.9.7-1.3.1-2.4-.1-3.3-.7z" id="prefix__prefix__path1497"/><path class="prefix__prefix__st45" d="M337.2 140.2h-4.4v10.2h-2.2v-10.2h-4.4v-1.9h11v1.9z" id="prefix__prefix__path1499"/><path class="prefix__prefix__st45" d="M350 147.1c0 1.1-.4 1.9-1.2 2.5-.8.6-2 .9-3.6.9h-5.8v-12.1h5.6c1.4 0 2.5.3 3.3.8.8.5 1.2 1.3 1.2 2.3 0 .6-.2 1.2-.5 1.7s-.8.8-1.4 1.1c1.6.2 2.4 1.2 2.4 2.8zm-8.4-3.6h3.3c.8 0 1.5-.2 1.9-.5.4-.3.6-.7.6-1.3 0-1.2-.9-1.7-2.5-1.7h-3.3v3.5zm5.5 4.8c.5-.3.7-.7.7-1.3 0-.6-.2-1.1-.6-1.4s-1.1-.5-2-.5h-3.6v3.6h3.5c.9 0 1.6-.1 2-.4z" id="prefix__prefix__path1501"/><path class="prefix__prefix__st45" d="M361.6 139.4c.9.8 1.3 2 1.3 3.7v7.3h-2.1v-1.6c-.4.6-.9 1-1.6 1.3s-1.5.4-2.4.4c-1.4 0-2.4-.3-3.2-1-.8-.7-1.2-1.5-1.2-2.6s.4-1.9 1.2-2.6c.8-.6 2-1 3.7-1h3.5v-.3c0-.9-.3-1.7-.8-2.2-.5-.5-1.4-.8-2.4-.8-.7 0-1.4.1-2.1.4-.7.2-1.3.6-1.7.9l-.9-1.6c.6-.5 1.4-.9 2.2-1.1.9-.3 1.8-.4 2.8-.4 1.5 0 2.8.4 3.7 1.2zm-2.2 8.9c.6-.4 1-.9 1.3-1.6V145h-3.4c-1.9 0-2.8.6-2.8 1.9 0 .6.2 1.1.7 1.4.5.3 1.1.5 2 .5.9 0 1.6-.1 2.2-.5z" id="prefix__prefix__path1503"/><path class="prefix__prefix__st45" d="M381.4 145.1c.4.5.7 1.1.7 1.8s-.2 1.3-.7 1.9-1.2 1-2 1.3c-.9.3-1.8.5-2.9.5-.9 0-1.8-.1-2.6-.4-.9-.2-1.6-.6-2.3-1l.7-1.7c.6.4 1.2.6 2 .9s1.5.3 2.3.3c1 0 1.9-.2 2.5-.5.6-.4.9-.8.9-1.4 0-.6-.2-1-.7-1.3-.5-.3-1.2-.5-2.1-.5H375v-1.6h2c.8 0 1.5-.1 1.9-.4s.7-.7.7-1.2-.3-1-.8-1.3c-.6-.3-1.3-.5-2.2-.5-1.2 0-2.5.3-3.8.9l-.6-1.7c1.5-.7 3-1.1 4.6-1.1 1 0 1.8.1 2.6.4.8.3 1.4.7 1.8 1.2.4.5.7 1.1.7 1.7 0 .6-.2 1.1-.6 1.6-.4.5-.9.8-1.6 1.1.6.2 1.2.6 1.7 1z" id="prefix__prefix__path1505"/><path class="prefix__prefix__st45" d="M393.5 139.4c.9.8 1.3 2 1.3 3.7v7.3h-2.1v-1.6c-.4.6-.9 1-1.6 1.3s-1.5.4-2.4.4c-1.4 0-2.4-.3-3.2-1-.8-.7-1.2-1.5-1.2-2.6s.4-1.9 1.2-2.6c.8-.6 2-1 3.7-1h3.5v-.3c0-.9-.3-1.7-.8-2.2-.5-.5-1.4-.8-2.4-.8-.7 0-1.4.1-2.1.4-.7.2-1.3.6-1.7.9l-.9-1.6c.6-.5 1.4-.9 2.2-1.1.9-.3 1.8-.4 2.8-.4 1.5 0 2.8.4 3.7 1.2zm-2.2 8.9c.6-.4 1-.9 1.3-1.6V145h-3.4c-1.9 0-2.8.6-2.8 1.9 0 .6.2 1.1.7 1.4.5.3 1.1.5 2 .5.9 0 1.6-.1 2.2-.5z" id="prefix__prefix__path1507"/></g><g id="prefix__prefix__g1525"><path class="prefix__prefix__st45" d="M243 158.5v18.3h-4.2V162h-6.3l-.1 3.8c-.1 2.6-.3 4.7-.6 6.3-.3 1.6-.9 2.8-1.7 3.7-.8.9-1.9 1.3-3.2 1.3-.6 0-1.3-.1-2.1-.3l.3-3.6c.2.1.5.1.8.1 1 0 1.7-.6 2.1-1.8.4-1.2.7-3.1.8-5.6l.3-7.4H243z" id="prefix__prefix__path1511"/><path class="prefix__prefix__st45" d="M261.7 173.4v3.4h-14.1v-18.3h13.8v3.4h-9.6v4h8.5v3.3h-8.5v4.2h9.9z" id="prefix__prefix__path1513"/><path class="prefix__prefix__st45" d="M280.2 158.5v18.3H276v-6.6c-1.6.6-3.1.9-4.4.9-2.5 0-4.3-.6-5.6-1.8s-2-2.9-2-5.1v-5.7h4.2v5.2c0 1.3.3 2.2 1 2.8.7.6 1.6 1 2.9 1 1.4 0 2.7-.3 3.9-.8v-8.2h4.2z" id="prefix__prefix__path1515"/><path class="prefix__prefix__st45" d="M298.8 173.4v3.4h-14.1v-18.3h13.8v3.4h-9.6v4h8.5v3.3h-8.5v4.2h9.9z" id="prefix__prefix__path1517"/><path class="prefix__prefix__st45" d="M319 158.5v18.3h-4.2v-7.5h-8.3v7.5h-4.2v-18.3h4.2v7.2h8.3v-7.2h4.2z" id="prefix__prefix__path1519"/><path class="prefix__prefix__st45" d="M323.6 158.5h4.2v11.9l8.7-11.9h4v18.3h-4.2v-11.9l-8.7 11.9h-4v-18.3z" id="prefix__prefix__path1521"/><path class="prefix__prefix__st45" d="M359.1 173.4v3.4H345v-18.3h13.8v3.4h-9.6v4h8.5v3.3h-8.5v4.2h9.9z" id="prefix__prefix__path1523"/></g><g id="prefix__prefix__g1540"><path id="prefix__prefix__polygon1527" fill="none" stroke="#ffcb57" stroke-width="3.081" stroke-miterlimit="10" d="M316.8 36.3h-26.2V9.9h-25.4v26.4h-26.4v25.6h26.4v26.4h25.4V61.9h26.2z"/><radialGradient id="prefix__prefix__SVGID_9_" cx="65.782" cy="2399.579" r="129.273" gradientTransform="matrix(.296 0 0 .05423 260.927 -34.164)" gradientUnits="userSpaceOnUse"><stop offset=".103" id="prefix__prefix__stop1529" stop-color="#e0e3e2"/><stop offset=".268" id="prefix__prefix__stop1531" stop-color="#e9ebea"/><stop offset=".684" id="prefix__prefix__stop1533" stop-color="#f9fafa"/><stop offset="1" id="prefix__prefix__stop1535" stop-color="#fff"/></radialGradient><ellipse cx="280.4" cy="96" rx="54" ry="5.9" id="prefix__prefix__ellipse1538" opacity=".9" fill="url(#prefix__prefix__SVGID_9_)"/></g><path class="prefix__prefix__st9" d="M324.4 9.8s-1.3 12.6-11.3 13.5c10 .9 11.3 13.5 11.3 13.5s1.3-12.6 11.3-13.5c-10-.9-11.3-13.5-11.3-13.5z" id="prefix__prefix__path1542"/><path class="prefix__prefix__st9" d="M343.7 34s-.8 7.9-7 8.5c6.2.5 7 8.5 7 8.5s.8-7.9 7-8.5c-6.2-.6-7-8.5-7-8.5z" id="prefix__prefix__path1544"/><path d="M562 713.1l89.9 40.5-90.1 40.9.2-35 71.7-5.5-71.9-5.7c.1-.1 0-35.3.2-35.2z" id="prefix__prefix__path1546" fill="none" stroke="#ffcb57" stroke-width="3.611" stroke-linecap="round" stroke-linejoin="round" stroke-miterlimit="10"/><path class="prefix__prefix__st49" d="M223.6 1031c14.8 20.6 34.8 35.6 57.8 48.6 5 3 10 4 15 6 15 6 29 10 44 15 15 4 31 5 46 6 41 2 81-6 122-16 23-6 44-12 65-21 6-3 11-4 17-7 16-7 33-13 49-23 8-5 15-8 23-13 5-3 10-6 15.1-9.3" id="prefix__prefix__path1548"/><path class="prefix__prefix__st49" d="M531.7 739.4c-107.3-4.8-219.3 28.2-299 101.3" id="prefix__prefix__path1550"/><path class="prefix__prefix__st49" d="M873.6 568.9c5.8 1.7 10.8 3.7 16.8 6.7 3 2 6 2 9 3 18 9 74.8 45.6 106 101 1.6 2.8 1 5 2 8 6 13 11 27 10 42-2 28-18 52-43 66-1 1-3.1 1.9-4.1 1.9-58 26-121.9 19.1-183.9 13.1-14-2-48-11-51-13-15-5-29-11-44-18-6-2-11-4-16.6-6.4" id="prefix__prefix__path1552"/><path class="prefix__prefix__st49" d="M314.2 702c7.2-2.5 26.2-12.4 34.2-16.4 46-24 90-49 138-71 2-1 3 0 5-1 62-26 126-51 194-55 3-1 5-3 8.4-3" id="prefix__prefix__path1554"/><path class="prefix__prefix__st49" d="M239.2 474.8c-.8.8-2.8 1.8-3.8 1.8-11 2-20 6-31 9-2 0-5 0-7 1-33 15-68 30-86 64-2 3-2 7-3 10-13 33-2 70 18.6 96.6" id="prefix__prefix__path1556"/><path class="prefix__prefix__st49" d="M826.5 446.9c-16.8 10.3-34.4 19.4-52.1 27.8-4 2-7 2-11 3-44 19-90 26-138 18-28-4-54-10-79-23-15-8-29-16-40-30-1-2-3-5-5-7-29-44 4-97 45-118 15-7 30-11 46-9 24 3 43 16 58 36 1 1 1 3 2 4 18 19 18 49 7 72-4 8-11 15-16 23-5 6-12 9-17 15-1 1-2 0-3 1-42 36-98 52-152 37-35-10-69-22-103.8-28.7" id="prefix__prefix__path1558"/><path class="prefix__prefix__st49" d="M709.8 158c53.6 9.7 107.6 21.7 157.6 48.7 21 12 40 26 53.5 45.2" id="prefix__prefix__path1560"/><path class="prefix__prefix__st49" d="M211 295.9c11.4-9.3 22.4-17.3 34.4-26.3 11-7 20-14 31-21 98-61 202-98 313.7-100.7" id="prefix__prefix__path1562"/><path class="prefix__prefix__st49" d="M588.2 139.7c-39.8.3-95.9-3.9-159.1-24.5-41.2-13.4-75.2-30.4-101.5-46.1" id="prefix__prefix__path1564"/><radialGradient id="prefix__prefix__SVGID_10_" cx="-1082.821" cy="5791.801" r="129.273" gradientTransform="matrix(.5538 0 0 .04348 770.707 527.6)" gradientUnits="userSpaceOnUse"><stop offset=".103" id="prefix__prefix__stop1566" stop-color="#e0e3e2"/><stop offset=".268" id="prefix__prefix__stop1568" stop-color="#e9ebea"/><stop offset=".684" id="prefix__prefix__stop1570" stop-color="#f9fafa"/><stop offset="1" id="prefix__prefix__stop1572" stop-color="#fff"/></radialGradient><ellipse cx="171" cy="779.4" rx="101.1" ry="4.7" id="prefix__prefix__ellipse1575" opacity=".9" fill="url(#prefix__prefix__SVGID_10_)"/><path class="prefix__prefix__st45" d="M805.5 640.8h-7.1l-1.4 3.3h-2.7l6.4-14.2h2.6l6.4 14.2h-2.8zm-.9-2.1l-2.7-6.2-2.7 6.2z" id="prefix__prefix__path1028-0" fill="#32a9fe"/></svg>