<svg xmlns="http://www.w3.org/2000/svg" version="1.1" id="prefix__Layer_1" x="0" y="0" viewBox="0 0 320 1002.2" xml:space="preserve"><defs id="prefix__defs1556"><radialGradient id="prefix__SVGID_3_" cx="-878.717" cy="2970.111" r="59.465" gradientTransform="matrix(.6388 0 0 .06045 805.229 397.095)" gradientUnits="userSpaceOnUse"><stop offset=".103" id="prefix__stop1033" stop-color="#e0e3e2"/><stop offset=".268" id="prefix__stop1035" stop-color="#e9ebea"/><stop offset=".684" id="prefix__stop1037" stop-color="#f9fafa"/><stop offset="1" id="prefix__stop1039" stop-color="#fff"/></radialGradient></defs><style type="text/css" id="style785">.prefix__st0{fill:none;stroke:#ff7db9;stroke-width:1.4759;stroke-linecap:round;stroke-linejoin:round;stroke-miterlimit:10;stroke-dasharray:2.9517,5.4115}.prefix__st1{fill:#fff}.prefix__st3{fill:#ffcb57}.prefix__st9{fill:#fff9db}.prefix__st10{fill:#ffd7e9}.prefix__st13{fill:#d8f2ff}.prefix__st16{fill:#ff7db9}.prefix__st18{fill:#ffcb00}.prefix__st21{fill:#49c4ff}.prefix__st45{fill:#32a9fe}</style><path class="prefix__st0" d="M106.1 155.3c50-37.6 106.7-46.2 142.2-22 2.2 1.5 31 21.7 29.9 48.9-1.7 40.1-72.4 84.5-108.1 61.6-6.5-4.2-30.9-16.4-39.8-20.9-20.3-10.4-50.9-3.6-60.6 10.2-19.9 28.2 14.2 102.3 53.8 108.1 35.4 5.1 51-48 105.1-47.9 18.7 0 47.2 6.5 54.2 25 4.1 10.7.4 23.7-5.9 32.6-14.5 20.5-42.1 18-114.4 24.2-78 6.6-91.7 13.4-102.6 22.9-23.6 20.8-29.5 51.3-32.2 65.7-4.2 21.8-5.2 56.1 6.4 60.2 5.7 2 12.6-4 23.7-14.8 40.7-39.5 41.4-50.9 58.1-62.3 36.4-24.9 87.1-6.4 96.6-3 15.6 5.7 47.1 17.1 53.8 43.6 4.5 17.9-4.3 34.2-10.6 45.3-9.4 16.7-29.6 43.9-80.5 67.4-66.6 30.7-99.1 15-131.4 49.6-5.6 6-26 27.8-20.3 47.5 8.4 29.3 70.5 38.1 114.4 32.2 61.2-8.2 123.9-49.7 119.1-75.9-3.3-17.7-38.3-33.3-55.5-22.5-9.2 5.8-15.8 20.6-11.4 32.2 10 26.6 69 11.8 87.3 43.6 6.7 11.7 7 27.9 1.7 40.3-14 32.4-63.1 27.6-175 63.6-25.7 8.2-52.2 17.8-66.5 42.8-3.1 5.4-14.5 27-6.4 46.2 7.3 17.2 19.9 26.4 22.1 27.7 20.6 12.2 42 4.4 44.9 3.3" id="prefix__path787"/><g id="prefix__g791"><ellipse class="prefix__st1" cx="77.4" cy="297.6" rx="28.6" ry="45.8" id="prefix__ellipse789"/></g><g id="prefix__g896"><g id="prefix__g817"><g id="prefix__g815"><path class="prefix__st45" d="M209.6 410.9v8.1h-1.9v-6.6h-3.6v6.6h-1.9v-8.1h7.4z" id="prefix__path793"/><path class="prefix__st45" d="M212.6 418.7c-.5-.3-.9-.7-1.2-1.1-.3-.5-.4-1-.4-1.6 0-.6.1-1.2.4-1.6s.7-.9 1.2-1.1c.5-.3 1.1-.4 1.8-.4s1.2.1 1.8.4c.5.3.9.7 1.2 1.1s.4 1 .4 1.6c0 .6-.1 1.2-.4 1.6-.3.5-.7.9-1.2 1.1-.5.3-1.1.4-1.8.4s-1.3-.1-1.8-.4zm2.9-1.5c.3-.3.4-.7.4-1.3 0-.5-.1-.9-.4-1.3-.3-.3-.7-.5-1.1-.5s-.8.2-1.1.5c-.3.3-.4.7-.4 1.3 0 .5.2.9.4 1.3.3.3.7.5 1.1.5.4-.1.8-.2 1.1-.5z" id="prefix__path795"/><path class="prefix__st45" d="M225.3 412.8v5.2c0 1.1-.3 2-.9 2.5-.6.6-1.5.8-2.6.8-.6 0-1.2-.1-1.7-.2s-1-.4-1.3-.6l.7-1.3c.3.2.6.4 1 .5.4.1.8.2 1.2.2.6 0 1.1-.1 1.4-.4.3-.3.4-.7.4-1.3v-.3c-.5.5-1.1.8-2 .8-.6 0-1.1-.1-1.6-.4-.5-.2-.8-.6-1.1-1.1-.3-.5-.4-1-.4-1.6s.1-1.1.4-1.6.7-.8 1.1-1.1c.5-.2 1-.4 1.6-.4.9 0 1.6.3 2.1.9v-.8l1.7.2zm-2.2 4c.3-.3.5-.6.5-1.1 0-.5-.2-.8-.5-1.1-.3-.3-.7-.4-1.2-.4s-.9.1-1.2.4c-.3.3-.5.6-.5 1.1 0 .5.2.8.5 1.1.3.3.7.4 1.2.4s.9-.1 1.2-.4z" id="prefix__path797"/><path class="prefix__st45" d="M229.8 416.7h-.9v2.4h-1.8v-8.6h1.8v4.8h1l1.7-2.4h1.9l-2.2 3 2.3 3.2h-2.1l-1.7-2.4z" id="prefix__path799"/><path class="prefix__st45" d="M239.7 413.1c.5.3.8.6 1.1 1.1.3.5.4 1 .4 1.7 0 .6-.1 1.2-.4 1.7-.3.5-.6.9-1.1 1.1-.5.3-1 .4-1.6.4-.8 0-1.4-.2-1.9-.7v2.9h-1.8v-8.4h1.7v.7c.4-.5 1.1-.8 1.9-.8.7-.1 1.2 0 1.7.3zm-.8 4.1c.3-.3.4-.7.4-1.3 0-.5-.1-.9-.4-1.3-.3-.3-.7-.5-1.1-.5s-.8.2-1.1.5c-.3.3-.4.7-.4 1.3 0 .5.1.9.4 1.3.3.3.7.5 1.1.5.4-.1.8-.2 1.1-.5z" id="prefix__path801"/><path class="prefix__st45" d="M248.4 416.4h-4.7c.1.4.3.7.6.9s.7.3 1.2.3c.3 0 .6 0 .9-.1.2-.1.5-.2.7-.5l1 1c-.6.7-1.4 1-2.6 1-.7 0-1.3-.1-1.9-.4-.5-.3-1-.7-1.2-1.1-.3-.5-.4-1-.4-1.6 0-.6.1-1.2.4-1.6s.7-.9 1.2-1.1c.5-.3 1.1-.4 1.7-.4.6 0 1.2.1 1.6.4.5.3.9.6 1.2 1.1s.4 1.1.4 1.7c0 0 0 .1-.1.4zm-4.2-2c-.3.2-.4.5-.5.9h3.1c-.1-.4-.2-.7-.5-.9s-.6-.4-1-.4c-.4.1-.8.2-1.1.4z" id="prefix__path803"/><path class="prefix__st45" d="M255.5 413.4c.5.5.7 1.1.7 2.1v3.6h-1.8v-3.3c0-.5-.1-.9-.3-1.1-.2-.2-.5-.4-.9-.4-.5 0-.8.1-1.1.4-.3.3-.4.7-.4 1.3v3.1h-1.8v-6.2h1.7v.7c.2-.3.5-.5.9-.6.4-.1.7-.2 1.2-.2.7-.1 1.3.1 1.8.6z" id="prefix__path805"/><path class="prefix__st45" d="M263.9 412.8v6.2h-1.7v-.7c-.2.3-.5.5-.8.6-.3.1-.7.2-1.1.2-.8 0-1.5-.2-1.9-.7-.5-.5-.7-1.2-.7-2.1v-3.5h1.8v3.2c0 1 .4 1.5 1.3 1.5.4 0 .8-.1 1-.4.3-.3.4-.7.4-1.3v-3.1h1.7v.1z" id="prefix__path807"/><path class="prefix__st45" d="M265.5 418.8c-.2-.2-.3-.5-.3-.8 0-.3.1-.6.3-.8.2-.2.5-.3.8-.3s.6.1.8.3c.2.2.3.5.3.8 0 .3-.1.6-.3.8-.2.2-.5.3-.8.3s-.6-.1-.8-.3z" id="prefix__path809"/><path class="prefix__st45" d="M273.5 413.6c.4.2.8.6 1 1s.4.9.4 1.5-.1 1.1-.4 1.6c-.3.5-.7.8-1.2 1.1s-1.1.4-1.8.4c-1.1 0-1.9-.3-2.6-1-.6-.7-.9-1.7-.9-3.1 0-1.2.3-2.2.8-3s1.4-1.2 2.5-1.5l3-.6.2 1.5-2.6.5c-.7.1-1.2.4-1.6.7-.3.3-.5.8-.6 1.4.3-.3.6-.5 1-.7.4-.2.8-.2 1.2-.2.7 0 1.2.2 1.6.4zm-.8 3.7c.3-.3.4-.7.4-1.1 0-.5-.1-.8-.4-1.1-.3-.3-.7-.4-1.1-.4-.5 0-.8.1-1.1.4-.3.3-.4.6-.4 1.1 0 .5.1.9.4 1.1.3.3.7.4 1.1.4.4.1.8-.1 1.1-.4z" id="prefix__path811"/><path class="prefix__st45" d="M276.5 418.6c-.6-.3-.8-.8-.8-1.5 0-.4.1-.8.4-1 .2-.2.5-.4.8-.5.3-.1.7-.2 1.2-.3.5-.1.8-.2 1-.2.2-.1.3-.2.3-.4s-.1-.4-.3-.4c-.2-.1-.5-.2-.8-.2-.3 0-.7 0-1 .1-.4.1-.7.2-.9.3l-.5-1.2c.4-.2.7-.3 1.2-.4.4-.1.8-.2 1.3-.2.8 0 1.5.2 2.1.5s.8.9.8 1.5c0 .4-.1.8-.4 1-.2.2-.5.4-.8.5-.3.1-.7.2-1.3.3-.5.1-.8.2-1 .2-.2.1-.3.2-.3.4s.1.4.3.4c.2.1.5.2.8.2.4 0 .8-.1 1.2-.2.4-.1.8-.2 1-.4l.5 1.2c-.4.2-.8.4-1.3.5-.5.1-1 .2-1.4.2-.9.1-1.6-.1-2.1-.4z" id="prefix__path813"/></g></g><g id="prefix__g894"><ellipse class="prefix__st1" cx="74.7" cy="297.4" rx="49.8" ry="50.5" id="prefix__ellipse819"/><g id="prefix__g845"><path class="prefix__st45" d="M24.7 322.4c.3.4.5.9.5 1.4 0 .8-.3 1.4-.9 1.9-.6.4-1.4.7-2.6.7h-4.3v-9.1h4.1c1 0 1.8.2 2.4.6.6.4.9 1 .9 1.7 0 .5-.1.9-.3 1.2-.2.3-.6.6-1 .8.4.2.8.4 1.2.8zm-5.7-1.3h2.3c.5 0 1-.1 1.3-.3.3-.2.4-.5.4-1 0-.4-.1-.8-.4-1-.3-.2-.7-.3-1.3-.3H19v2.6zm4.4 2.6c0-.9-.6-1.3-1.8-1.3H19v2.7h2.6c1.2 0 1.8-.5 1.8-1.4z" id="prefix__path821"/><path class="prefix__st45" d="M33.1 324.3h-4.6l-.9 2.1h-1.7l4.1-9.1h1.7l4.1 9.1H34l-.9-2.1zm-.6-1.4l-1.7-4-1.7 4h3.4z" id="prefix__path823"/><path class="prefix__st45" d="M45.1 317.2v9.1h-1.7v-7.7h-3.6l-.1 2.3c0 1.3-.1 2.3-.3 3.1-.2.8-.4 1.4-.8 1.8-.4.4-.9.6-1.5.6-.2 0-.5 0-.9-.1l.1-1.5c.1 0 .2.1.4.1.5 0 .9-.3 1.1-.9.2-.6.4-1.6.4-3l.1-3.8h6.8z" id="prefix__path825"/><path class="prefix__st45" d="M47.6 317.2h1.7v6.5l4.9-6.5h1.6v9.1h-1.7v-6.5l-4.9 6.5h-1.6v-9.1z" id="prefix__path827"/><path class="prefix__st45" d="M67.3 324.9v3.4h-1.6v-1.9h-7v1.9h-1.6v-3.4h.4c.6 0 1-.5 1.2-1.3.2-.8.4-2 .4-3.5l.1-2.9H66v7.7h1.3zm-6.9-1.6c-.1.8-.4 1.4-.7 1.7h4.6v-6.3h-3.6l-.1 1.6c.1 1.2 0 2.2-.2 3z" id="prefix__path829"/><path class="prefix__st45" d="M68.9 317.2h1.7v6.5l4.9-6.5h1.6v9.1h-1.7v-6.5l-4.9 6.5h-1.6v-9.1z" id="prefix__path831"/><path class="prefix__st45" d="M85.5 317.6c.6.3 1 .6 1.4 1.1.3.5.5 1.1.5 1.7 0 .7-.2 1.2-.5 1.7s-.8.9-1.4 1.1c-.6.3-1.3.4-2.1.4h-2.1v2.6h-1.7v-9.1h3.8c.8.1 1.5.3 2.1.5zm-.5 4.2c.4-.3.6-.8.6-1.3s-.2-1-.6-1.3c-.4-.3-.9-.5-1.7-.5h-2v3.6h2c.8 0 1.4-.2 1.7-.5z" id="prefix__path833"/><path class="prefix__st45" d="M94.5 324.3H90l-.9 2.1h-1.7l4.1-9.1h1.7l4.1 9.1h-1.8l-1-2.1zm-.5-1.4l-1.7-4-1.7 4H94z" id="prefix__path835"/><path class="prefix__st45" d="M106.7 317.2v9.1H105v-3.9h-4.7v3.9h-1.7v-9.1h1.7v3.8h4.7v-3.8h1.7z" id="prefix__path837"/><path class="prefix__st45" d="M116.2 325v1.4h-6.9v-9.1h6.7v1.4h-5v2.4h4.4v1.4H111v2.5h5.2z" id="prefix__path839"/><path class="prefix__st45" d="M18.2 338.8c-.5-.3-1-.7-1.3-1.2-.3-.5-.5-1.1-.5-1.7 0-.6.2-1.2.5-1.7s.7-.9 1.3-1.2c.5-.3 1.1-.4 1.8-.4s1.3.1 1.8.4c.5.3 1 .7 1.3 1.2.3.5.5 1.1.5 1.7 0 .6-.2 1.2-.5 1.7s-.7.9-1.3 1.2c-.5.3-1.1.4-1.8.4s-1.3-.2-1.8-.4zm2.9-1c.3-.2.6-.5.8-.8.2-.4.3-.7.3-1.2 0-.4-.1-.8-.3-1.2s-.5-.6-.8-.8c-.3-.2-.7-.3-1.2-.3-.4 0-.8.1-1.2.3-.3.2-.6.5-.8.8-.2.4-.3.7-.3 1.2 0 .4.1.8.3 1.2.2.4.5.6.8.8.3.2.7.3 1.2.3s.9-.1 1.2-.3z" id="prefix__path841"/><path class="prefix__st45" d="M29.5 333.6h-2.2v5.5h-1.2v-5.5H24v-1h5.5v1z" id="prefix__path843"/></g><g id="prefix__g881"><g id="prefix__g851"><g id="prefix__g849"><path class="prefix__st3" d="M77 281.5H65.4c-.5 0-.9-.4-.9-.9s.4-.9.9-.9H77c.5 0 .9.4.9.9s-.4.9-.9.9z" id="prefix__path847"/></g></g><g id="prefix__g857"><g id="prefix__g855"><path class="prefix__st3" d="M77 296.6h-4.2c-.5 0-.9-.4-.9-.9s.4-.9.9-.9H77c.5 0 .9.4.9.9s-.4.9-.9.9z" id="prefix__path853"/></g></g><g id="prefix__g863"><g id="prefix__g861"><path class="prefix__st3" d="M76.9 285.3H67c-.5 0-.9-.4-.9-.9s.4-.9.9-.9h9.9c.5 0 .9.4.9.9s-.4.9-.9.9z" id="prefix__path859"/></g></g><g id="prefix__g869"><g id="prefix__g867"><path class="prefix__st3" d="M77 289.1H65.4c-.5 0-.9-.4-.9-.9s.4-.9.9-.9H77c.5 0 .9.4.9.9s-.4.9-.9.9z" id="prefix__path865"/></g></g><path class="prefix__st3" d="M82 274.1c0-.3-.1-.5-.3-.7l-10.2-10.2c-.1-.1-.1-.1-.2-.1h-.1c-.1 0-.1-.1-.2-.1H50.9c-.5 0-.9.4-.9.9v8.7h1.7v-7.9H70v9.4c0 .5.4.9.9.9h9.4v27.4H51.8v-7.9h-1.7v8.7c0 .5.4.9.9.9h30.2c.5 0 .9-.4.9-.9v-29c-.1 0-.1 0-.1-.1zm-10.3-.8V266l7.3 7.3h-7.3z" id="prefix__path871"/><g id="prefix__g875"><path class="prefix__st3" d="M49.6 288.4c-.2 0-.4-.1-.6-.2l-3.8-3.4c-.4-.3-.4-.9-.1-1.2.3-.4.9-.4 1.2-.1l3.2 2.8 6.1-7.2c.3-.4.9-.4 1.2-.1.4.3.4.9.1 1.2l-6.7 7.9c-.1.1-.3.3-.6.3.1 0 0 0 0 0z" id="prefix__path873"/></g><g id="prefix__g879"><path class="prefix__st3" d="M51 295.4h-1.1c-6.2-.5-10.8-5.6-10.8-11.8 0-6.2 4.6-11.3 10.8-11.8.7-.1 1.3-.1 1.9 0 6.2.4 11 5.6 11 11.8 0 6.2-4.9 11.4-11.1 11.8H51zm0-21.9h-.9c-5.3.5-9.2 4.8-9.2 10.1s4 9.6 9.2 10.1c.6.1 1.1.1 1.6 0 5.3-.4 9.5-4.8 9.5-10.1s-4.1-9.7-9.4-10.1H51z" id="prefix__path877"/></g></g><radialGradient id="prefix__SVGID_1_" cx="-1793.551" cy="4814.85" r="59.465" gradientTransform="matrix(.5538 0 0 .04348 1059.496 98.84)" gradientUnits="userSpaceOnUse"><stop offset=".103" id="prefix__stop883" stop-color="#e0e3e2"/><stop offset=".268" id="prefix__stop885" stop-color="#e9ebea"/><stop offset=".684" id="prefix__stop887" stop-color="#f9fafa"/><stop offset="1" id="prefix__stop889" stop-color="#fff"/></radialGradient><ellipse cx="66.2" cy="308.2" rx="46.5" ry="2.2" id="prefix__ellipse892" opacity=".9" fill="url(#prefix__SVGID_1_)"/></g></g><ellipse class="prefix__st1" cx="261" cy="330.5" rx="40.4" ry="38.6" id="prefix__ellipse898"/><g id="prefix__g957"><path class="prefix__st1" d="M281.1 204.8c15.3 59.8-13.4 49.3-39.1 39.1-20.1-8-39.1-17.5-39.1-39.1s17.5-39.1 39.1-39.1 33.7 18.2 39.1 39.1z" id="prefix__path900"/><g id="prefix__g930"><path class="prefix__st45" d="M216.4 221.4c-.7-.4-1.3-1-1.7-1.7-.4-.7-.6-1.5-.6-2.4 0-.9.2-1.7.6-2.4.4-.7 1-1.3 1.8-1.7.7-.4 1.6-.6 2.5-.6.7 0 1.4.1 2.1.4.6.3 1.1.6 1.6 1.1l-1.1 1c-.7-.7-1.5-1.1-2.4-1.1-.6 0-1.2.1-1.7.4-.5.3-.9.7-1.2 1.1-.3.5-.4 1-.4 1.7 0 .6.1 1.2.4 1.7.3.5.7.9 1.2 1.1s1.1.4 1.7.4c1 0 1.8-.4 2.4-1.1l1.1 1c-.4.5-1 .9-1.6 1.1-.6.3-1.3.4-2.1.4-1 .2-1.8 0-2.6-.4z" id="prefix__path902"/><path class="prefix__st45" d="M232.4 216.5c.6.5.9 1.2.9 2.2 0 1-.3 1.8-1 2.3-.6.5-1.6.8-2.7.8h-3.9v-7.7H223v-1.4h4.3v3.1h2.5c1.1 0 2 .2 2.6.7zm-1.4 3.6c.4-.3.5-.7.5-1.3 0-1.1-.7-1.7-2.1-1.7h-2.2v3.4h2.2c.7 0 1.2-.1 1.6-.4z" id="prefix__path904"/><path class="prefix__st45" d="M240.8 217.9c.3.4.5.8.5 1.4 0 .5-.2 1-.5 1.4-.4.4-.8.7-1.4.9-.6.2-1.2.3-2 .3-.6 0-1.2-.1-1.8-.3-.6-.2-1.2-.4-1.7-.8l.5-1.2c.4.3.8.5 1.3.6.5.1 1 .2 1.4.2.7 0 1.3-.1 1.7-.4.5-.3.7-.6.7-1.1 0-.4-.2-.7-.5-.9-.3-.2-.8-.3-1.4-.3h-2.1v-1.3h2c.5 0 .9-.1 1.2-.3.3-.2.4-.5.4-.8 0-.4-.2-.8-.6-1-.4-.2-.9-.4-1.5-.4-.4 0-.8.1-1.3.2-.4.1-.8.3-1.2.5l-.5-1.4c.5-.3 1-.4 1.5-.6.5-.1 1.1-.2 1.6-.2.7 0 1.3.1 1.9.3.6.2 1 .5 1.4.9.3.4.5.8.5 1.4 0 .5-.1.8-.4 1.2-.2.3-.6.6-1 .8.6.2 1 .5 1.3.9z" id="prefix__path906"/><path class="prefix__st45" d="M252.2 220.4v3.4h-1.6v-1.9h-7v1.9H242v-3.4h.4c.6 0 1-.5 1.2-1.3.2-.8.4-2 .4-3.5l.1-2.9h6.7v7.7h1.4zm-6.9-1.7c-.1.8-.4 1.4-.7 1.7h4.6v-6.3h-3.6l-.1 1.6c.1 1.2 0 2.2-.2 3z" id="prefix__path908"/><path class="prefix__st45" d="M260 219.7h-4.6l-.9 2.1h-1.7l4.1-9.1h1.7l4.1 9.1h-1.8l-.9-2.1zm-.6-1.3l-1.7-4-1.7 4h3.4z" id="prefix__path910"/><path class="prefix__st45" d="M264.1 212.7h1.7v6.5l4.9-6.5h1.6v9.1h-1.7v-6.5l-4.9 6.5h-1.6v-9.1zm2.2-1.1c-.4-.3-.6-.8-.6-1.4h1.2c0 .3.1.6.3.7.2.2.5.3.9.3s.7-.1.9-.3c.2-.2.3-.4.3-.7h1.2c0 .6-.2 1.1-.6 1.4-.4.3-1 .5-1.8.5s-1.4-.2-1.8-.5z" id="prefix__path912"/><path class="prefix__st45" d="M216.8 230.3h-1.2v2.8h-1.2v-6.5h1.2v2.7h1.3l1.9-2.7h1.3l-2.2 3.2 2.3 3.4h-1.4l-2-2.9z" id="prefix__path914"/><path class="prefix__st45" d="M225.1 231.5h-3.3l-.6 1.5H220l2.9-6.5h1.2l3 6.5h-1.3l-.7-1.5zm-.4-.9l-1.2-2.9-1.2 2.9h2.4z" id="prefix__path916"/><path class="prefix__st45" d="M234.1 233.1v-4.3l-2.2 3.6h-.5l-2.2-3.5v4.3H228v-6.5h1l2.6 4.3 2.6-4.3h1v6.5h-1.1z" id="prefix__path918"/><path class="prefix__st45" d="M242.9 226.5v6.5h-1.2v-5.5h-3.4v5.5h-1.2v-6.5h5.8z" id="prefix__path920"/><path class="prefix__st45" d="M249.1 231.5h-3.3l-.6 1.5h-1.3l2.9-6.5h1.2l3 6.5h-1.3l-.6-1.5zm-.4-.9l-1.2-2.9-1.2 2.9h2.4z" id="prefix__path922"/><path class="prefix__st45" d="M257.8 226.5v6.5h-1.2v-2.8h-3.4v2.8H252v-6.5h1.2v2.7h3.4v-2.7h1.2z" id="prefix__path924"/><path class="prefix__st45" d="M259.7 226.5h1.2v4.7l3.5-4.7h1.1v6.5h-1.2v-4.6l-3.5 4.6h-1.1v-6.5z" id="prefix__path926"/><path class="prefix__st45" d="M272.3 226.5v6.5h-1.2v-1.8H269.4l-1.2 1.8h-1.3l1.4-2c-.5-.2-.8-.4-1.1-.8-.2-.4-.4-.8-.4-1.3s.1-.9.3-1.3c.2-.4.5-.6 1-.8.4-.2.9-.3 1.5-.3h2.7zm-3.8 1.4c-.3.2-.4.6-.4 1s.1.8.4 1c.3.2.6.4 1.1.4h1.5v-2.7h-1.5c-.4-.1-.8.1-1.1.3z" id="prefix__path928"/></g><g id="prefix__g944"><g id="prefix__g942"><g id="prefix__g934"><path class="prefix__st3" d="M239.79999999999998 167c1 1.7 2 4.4 1.7 7.5-.3 3.1-2.1 5.5-4.2 6.9 2-4.1 2.7-8.4 2.5-14.4m-1.3-3.7c-.3 0-.5.3-.5.9.7 9-.2 14.2-4.3 19.9 4.5 0 9-4.2 9.5-9.5.5-6.2-3.4-11.3-4.7-11.3z" id="prefix__path932"/></g><g id="prefix__g940"><g id="prefix__g938"><path class="prefix__st3" d="M249.2 167.1c.5 1 1 2.2 1.3 3.6.6 2.8.9 8.3-3.8 14.2-.5.6-.5 1.4 0 2 .3.4.8.7 1.3.7.2 0 .4 0 .6-.1.2-.1 4.6-1.9 8-7.1-.1.8-.3 1.8-.6 2.8-1 3.2-3.4 7.7-9.1 10.7-.7.4-1 1.2-.8 1.9.2.7.9 1.2 1.6 1.2h.2c.1 0 2.7-.3 5.6-1.5-2 2.1-5 4.4-9 5.2-1.2.2-2.4.4-3.6.4-5.8 0-10.7-2.6-13.1-6.9-1.2-2.1-1.4-4.4-1.6-6.6-.3-2.9-.7-6.1-3.3-8.4.6-.4 1.2-.5 1.7-.5.8 0 1.7.3 2.3.9 1.1 1.1 1.4 2.2 1.7 3.3.4 1.3.8 3 2.6 4 .9.5 2 .8 3.2.8 3.3 0 7.2-2 9.7-5.1 3-4 4.9-9.5 5.1-15.5M247.9 163.3c-.3 0-.5.3-.4.9.6 7.4-1.7 13.5-4.9 17.3-2.1 2.5-5.6 4.5-8.5 4.5-.9 0-1.7-.2-2.4-.6-2.4-1.3-1.1-4.3-3.9-7-.9-.9-2.2-1.4-3.5-1.4-1.5 0-3.1.7-4.2 2.4 5.9 3.3 2.8 9.7 6.1 15.6 3 5.5 9 7.8 14.6 7.8 1.4 0 2.7-.1 3.9-.4 9-1.8 14.1-10.8 12.4-10.8-.2 0-.6.2-1.1.6-3.7 2.8-8.3 3.3-8.3 3.3 12-6.3 11.5-19.3 9.7-19.3-.2 0-.5.3-.8.8-3.1 6.8-8.6 9-8.6 9 4.5-5.6 5.1-11.3 4.1-15.5-.9-4.3-3.2-7.2-4.2-7.2z" id="prefix__path936"/></g></g></g></g><radialGradient id="prefix__SVGID_2_" cx="-1477.874" cy="4582.844" r="59.465" gradientTransform="matrix(.5538 0 0 .04348 1059.496 8.051)" gradientUnits="userSpaceOnUse"><stop offset=".103" id="prefix__stop946" stop-color="#e0e3e2"/><stop offset=".268" id="prefix__stop948" stop-color="#e9ebea"/><stop offset=".684" id="prefix__stop950" stop-color="#f9fafa"/><stop offset="1" id="prefix__stop952" stop-color="#fff"/></radialGradient><ellipse cx="241" cy="207.3" rx="46.5" ry="2.2" id="prefix__ellipse955" opacity=".9" fill="url(#prefix__SVGID_2_)"/></g><ellipse class="prefix__st1" cx="257.6" cy="573.4" rx="41.2" ry="50.7" id="prefix__ellipse959"/><path class="prefix__st45" d="M212.2 592c-.5-.3-1-.7-1.3-1.2-.3-.5-.5-1.1-.5-1.7 0-.6.2-1.2.5-1.7s.7-.9 1.3-1.2c.5-.3 1.1-.4 1.8-.4.5 0 1 .1 1.5.3.4.2.8.5 1.1.8l-.8.7c-.5-.5-1.1-.8-1.7-.8-.4 0-.9.1-1.2.3-.4.2-.6.5-.8.8-.2.3-.3.7-.3 1.2s.1.8.3 1.2c.2.3.5.6.8.8.4.2.8.3 1.2.3.7 0 1.3-.3 1.7-.8l.8.7c-.3.4-.7.6-1.1.8-.4.2-.9.3-1.5.3-.7.1-1.3-.1-1.8-.4z" id="prefix__path961"/><path class="prefix__st45" d="M224.2 588.6c.4.4.6.9.6 1.6 0 .7-.2 1.3-.7 1.7-.5.4-1.1.6-2 .6h-2.8V587h-1.9v-1h3.1v2.2h1.8c.9-.2 1.5 0 1.9.4zm-1 2.5c.3-.2.4-.5.4-1 0-.8-.5-1.2-1.5-1.2h-1.6v2.5h1.6c.5 0 .9-.1 1.1-.3z" id="prefix__path963"/><path class="prefix__st45" d="M226.6 585.8h5.1v1h-3.9v1.6h1.9c.8 0 1.4.2 1.8.5.4.3.6.8.6 1.4 0 .6-.2 1.1-.7 1.5-.5.4-1.1.5-1.9.5h-2.9zm2.9 5.6c.5 0 .8-.1 1.1-.3.2-.2.4-.4.4-.8 0-.7-.5-1-1.4-1h-1.7v2.1z" id="prefix__path965"/><path class="prefix__st45" d="M234.1 585.8h1.2v4.6l3.5-4.6h1.1v6.5h-1.2v-4.6l-3.5 4.6h-1.1z" id="prefix__path967"/><path class="prefix__st45" d="M246.5 586.1c.4.2.7.5 1 .8.2.3.3.8.3 1.2 0 .5-.1.9-.3 1.2-.2.4-.5.6-1 .8-.4.2-.9.3-1.5.3h-1.5v1.9h-1.2v-6.5h2.7c.6 0 1.1.1 1.5.3zm-.4 3c.3-.2.4-.5.4-1 0-.4-.1-.7-.4-1-.3-.2-.7-.3-1.2-.3h-1.4v2.6h1.4c.6.1 1-.1 1.2-.3z" id="prefix__path969"/><path class="prefix__st45" d="M261.772 585.855v6.5h-1.2v-2.8h-3.4v2.8h-1.2v-6.5h1.2v2.7h3.4v-2.7z" id="prefix__path971"/><path class="prefix__st45" d="M269.072 591.455v1h-4.9v-6.5h4.8v1h-3.6v1.7h3.2v1h-3.2v1.8z" id="prefix__path973"/><path class="prefix__st45" d="M279.5 585.8v6.5h-1.2v-2.8h-3.4v2.8h-1.2v-6.5h1.2v2.7h3.4v-2.7z" id="prefix__path975"/><path class="prefix__st45" d="M286.2 590.9H283l-.6 1.5h-1.3l2.9-6.5h1.2l3 6.5h-1.3zm-.4-1l-1.2-2.9-1.2 2.9z" id="prefix__path977"/><path class="prefix__st45" d="M213.1 604.6c-.7-.4-1.3-1-1.7-1.7-.4-.7-.6-1.5-.6-2.4 0-.9.2-1.7.6-2.4.4-.7 1-1.3 1.8-1.7.7-.4 1.6-.6 2.5-.6.7 0 1.4.1 2.1.4.6.3 1.1.6 1.6 1.1l-1.1 1c-.7-.7-1.5-1.1-2.4-1.1-.6 0-1.2.1-1.7.4-.5.3-.9.7-1.2 1.1-.3.5-.4 1-.4 1.7 0 .6.1 1.2.4 1.7.3.5.7.9 1.2 1.1.5.3 1.1.4 1.7.4 1 0 1.8-.4 2.4-1.1l1.1 1c-.4.5-1 .9-1.6 1.1-.6.3-1.3.4-2.1.4-1.1.2-1.9 0-2.6-.4z" id="prefix__path979"/><path class="prefix__st45" d="M226.6 596.3c.6.3 1 .6 1.4 1.1.3.5.5 1.1.5 1.7 0 .7-.2 1.2-.5 1.7s-.8.9-1.4 1.1c-.6.3-1.3.4-2.1.4h-2.1v2.6h-1.7V596h3.8c.8 0 1.5.1 2.1.3zm-.5 4.3c.4-.3.6-.8.6-1.3 0-.6-.2-1-.6-1.3-.4-.3-.9-.5-1.7-.5h-2v3.6h2c.8-.1 1.4-.2 1.7-.5z" id="prefix__path981"/><path class="prefix__st45" d="M236.9 603.7v1.4H230V596h6.7v1.4h-5v2.4h4.4v1.4h-4.4v2.5z" id="prefix__path983"/><path class="prefix__st45" d="M247.8 603.7v3.4h-1.6v-1.9h-7v1.9h-1.6v-3.4h.4c.6 0 1-.5 1.2-1.3.2-.8.4-2 .4-3.5l.1-2.9h6.7v7.7zm-6.9-1.7c-.1.8-.4 1.4-.7 1.7h4.6v-6.3h-3.6l-.1 1.6c.1 1.2 0 2.2-.2 3z" id="prefix__path985"/><path class="prefix__st45" d="M251.1 604.6c-.7-.4-1.3-1-1.7-1.7-.4-.7-.6-1.5-.6-2.4 0-.9.2-1.7.6-2.4.4-.7 1-1.3 1.8-1.7.7-.4 1.6-.6 2.5-.6.7 0 1.4.1 2.1.4.6.3 1.1.6 1.6 1.1l-1.1 1c-.7-.7-1.5-1.1-2.4-1.1-.6 0-1.2.1-1.7.4-.5.3-.9.7-1.2 1.1-.3.5-.4 1-.4 1.7 0 .6.1 1.2.4 1.7.3.5.7.9 1.2 1.1.5.3 1.1.4 1.7.4 1 0 1.8-.4 2.4-1.1l1.1 1c-.4.5-1 .9-1.6 1.1-.6.3-1.3.4-2.1.4-1 .2-1.8 0-2.6-.4z" id="prefix__path987"/><path class="prefix__st45" d="M265.4 597.4h-3v7.7h-1.7v-7.7h-3V596h7.7z" id="prefix__path989"/><path class="prefix__st45" d="M274.2 601.1c.3.4.5.9.5 1.4 0 .8-.3 1.4-.9 1.9-.6.4-1.4.7-2.6.7h-4.3V596h4.1c1 0 1.8.2 2.4.6.6.4.9 1 .9 1.7 0 .5-.1.9-.3 1.2-.2.3-.6.6-1 .8.4.2.9.5 1.2.8zm-5.7-1.2h2.3c.5 0 1-.1 1.3-.3.3-.2.4-.5.4-1 0-.4-.1-.8-.4-1-.3-.2-.7-.3-1.3-.3h-2.3zm4.4 2.5c0-.9-.6-1.3-1.8-1.3h-2.6v2.7h2.6c1.2 0 1.8-.5 1.8-1.4z" id="prefix__path991"/><path class="prefix__st45" d="M282.6 603H278l-.9 2.1h-1.7l4.1-9.1h1.7l4.1 9.1h-1.8zm-.5-1.3l-1.7-4-1.7 4z" id="prefix__path993"/><path class="prefix__st45" d="M212.2 616c-.5-.3-1-.7-1.3-1.2-.3-.5-.5-1.1-.5-1.7 0-.6.2-1.2.5-1.7s.7-.9 1.3-1.2c.5-.3 1.1-.4 1.8-.4s1.3.1 1.8.4c.5.3 1 .7 1.3 1.2.3.5.5 1.1.5 1.7 0 .6-.2 1.2-.5 1.7s-.7.9-1.3 1.2c-.5.3-1.1.4-1.8.4-.6 0-1.2-.1-1.8-.4zm3-.9c.3-.2.6-.5.8-.8.2-.4.3-.7.3-1.2s-.1-.8-.3-1.2c-.2-.4-.5-.6-.8-.8-.3-.2-.7-.3-1.2-.3-.4 0-.8.1-1.2.3-.3.2-.6.5-.8.8-.2.4-.3.7-.3 1.2s.1.8.3 1.2c.2.4.5.6.8.8.3.2.7.3 1.2.3s.8-.1 1.2-.3z" id="prefix__path995"/><path class="prefix__st45" d="M223.7 610.8h-2.2v5.5h-1.2v-5.5h-2.2v-1h5.5v1z" id="prefix__path997"/><path class="prefix__st45" d="M234.2 615.3v2.4h-1.1v-1.4h-5v1.4H227v-2.4h.3c.4 0 .7-.3.9-.9.2-.6.3-1.4.3-2.5l.1-2.1h4.8v5.5zm-4.9-1.2c-.1.6-.3 1-.5 1.2h3.3v-4.5h-2.6v1.2c0 .8-.1 1.5-.2 2.1z" id="prefix__path999"/><path class="prefix__st45" d="M240 614.8h-3.3l-.6 1.5h-1.3l2.9-6.5h1.2l3 6.5h-1.3zm-.4-.9l-1.2-2.9-1.2 2.9z" id="prefix__path1001"/><path class="prefix__st45" d="M247.2 610.1c.4.2.7.5 1 .8.2.3.3.8.3 1.2 0 .5-.1.9-.3 1.2-.2.4-.5.6-1 .8-.4.2-.9.3-1.5.3h-1.5v1.9H243v-6.5h2.7c.6 0 1.1.1 1.5.3zm-.3 3c.3-.2.4-.5.4-1 0-.4-.1-.7-.4-1-.3-.2-.7-.3-1.2-.3h-1.4v2.6h1.4c.5 0 .9-.1 1.2-.3z" id="prefix__path1003"/><path class="prefix__st45" d="M249.9 609.8h1.2v4.6l3.5-4.6h1.1v6.5h-1.2v-4.6l-3.5 4.6h-1.1z" id="prefix__path1005"/><path class="prefix__st45" d="M262.5 610.8h-2.2v5.5h-1.2v-5.5H257v-1h5.5z" id="prefix__path1007"/><path class="prefix__st45" d="M268.7 615.3v1h-4.9v-6.5h4.8v1H265v1.7h3.2v1H265v1.8z" id="prefix__path1009"/><path class="prefix__st45" d="M275.8 609.8v6.5h-1.2v-5.5H272l-.1 1.6c0 .9-.1 1.7-.2 2.2-.1.6-.3 1-.6 1.3-.3.3-.6.4-1.1.4-.2 0-.4 0-.7-.1l.1-1.1h.3c.4 0 .7-.2.8-.7.2-.5.3-1.2.3-2.1l.1-2.7h4.9z" id="prefix__path1011"/><path class="prefix__st45" d="M277.8 609.8h1.2v4.6l3.5-4.6h1.1v6.5h-1.2v-4.6l-3.5 4.6h-1.1z" id="prefix__path1013"/><g id="prefix__g1031"><path class="prefix__st3" d="M246.4 557.2c2.2-1.5 3.7-4 3.7-6.8 0-4.5-3.7-8.2-8.2-8.2-4.5 0-8.2 3.7-8.2 8.2 0 2.8 1.5 5.3 3.7 6.8-5 1.8-8.6 6.6-8.6 12.3h2.2c0-6 4.9-10.9 10.9-10.9s10.9 4.9 10.9 10.9h2.2c0-5.6-3.6-10.4-8.6-12.3zm-4.5-.8c-3.3 0-6-2.7-6-6s2.7-6 6-6 6 2.7 6 6-2.7 6-6 6z" id="prefix__path1019"/><path class="prefix__st3" d="M257.3 551.8c2.2-1.5 3.7-4 3.7-6.8 0-4.5-3.7-8.2-8.2-8.2-2.2 0-4.2.9-5.6 2.3-.5.5-1 1.1-1.4 1.8.7.3 1.3.6 1.9 1 .4-.6.9-1.2 1.5-1.6 1-.8 2.3-1.2 3.6-1.2 3.3 0 6 2.7 6 6 0 2.7-1.9 5.1-4.4 5.8-.5.1-1.1.2-1.6.2h-.6c0 .8-.2 1.5-.4 2.3.3 0 .6-.1.9-.1.4 0 .9 0 1.3.1 5.4.6 9.6 5.2 9.6 10.8h2.2c.1-5.8-3.5-10.6-8.5-12.4z" id="prefix__path1021"/><path class="prefix__st3" d="M231 553.1c.3 0 .6 0 .9.1-.2-.7-.3-1.5-.4-2.3h-.6c-.6 0-1.1-.1-1.6-.2-2.5-.7-4.4-3-4.4-5.8 0-3.3 2.7-6 6-6 1.4 0 2.6.5 3.6 1.2.6.4 1.1 1 1.5 1.6.6-.4 1.2-.7 1.9-1-.4-.7-.9-1.2-1.4-1.8-1.5-1.4-3.5-2.3-5.6-2.3-4.5 0-8.2 3.7-8.2 8.2 0 2.8 1.5 5.3 3.7 6.8-5 1.8-8.6 6.6-8.6 12.3h2.2c0-5.6 4.2-10.2 9.6-10.8.5.1.9 0 1.4 0z" id="prefix__path1023"/><path class="prefix__st3" d="M264.9 544.2c2.2-1.5 3.7-4 3.7-6.8 0-4.5-3.7-8.2-8.2-8.2-2.2 0-4.2.9-5.6 2.3-.5.5-1 1.1-1.4 1.8.7.3 1.3.6 1.9 1 .4-.6.9-1.2 1.5-1.6 1-.8 2.3-1.2 3.6-1.2 3.3 0 6 2.7 6 6 0 2.4-1.4 4.5-3.5 5.4.1.5.1 1 .1 1.6 0 .5-.1 1-.1 1.5 4.8 1.1 8.4 5.4 8.4 10.6h2.2c0-5.8-3.6-10.6-8.6-12.4z" id="prefix__path1025"/><path class="prefix__st3" d="M220.7 544.4c0-.5.1-1.1.1-1.6-2.1-.9-3.5-3-3.5-5.4 0-3.3 2.7-6 6-6 1.4 0 2.6.5 3.6 1.2.6.4 1.1 1 1.5 1.6.6-.4 1.2-.7 1.9-1-.4-.7-.9-1.2-1.4-1.8-1.5-1.4-3.5-2.3-5.6-2.3-4.5 0-8.2 3.7-8.2 8.2 0 2.8 1.5 5.3 3.7 6.8-5 1.8-8.6 6.6-8.6 12.3h2.2c0-5.1 3.6-9.5 8.4-10.6-.1-.5-.1-.9-.1-1.4z" id="prefix__path1027"/><path class="prefix__st3" d="M241.9 531.3c2.9 0 5.3 2.1 5.9 4.9 1.2-.7 2.1-.9 2.1-.9-.9-3.5-4.1-6.2-7.9-6.2-3.8 0-7 2.6-7.9 6.2 0 0 .9.2 2.1.9.3-2.8 2.8-4.9 5.7-4.9z" id="prefix__path1029"/></g><ellipse cx="243.9" cy="576.6" rx="53.6" ry="3" id="prefix__ellipse1042" fill="url(#prefix__SVGID_3_)" opacity=".9"/><g id="prefix__g1143"><g id="prefix__g1062"><path class="prefix__st45" d="M22.3 156.9h1.2v4.8l3.6-4.8h1.2v6.7h-1.2v-4.8l-3.6 4.8h-1.2v-6.7z" id="prefix__path1046"/><path class="prefix__st45" d="M35.1 163.6v-3.4l-1.7 2.9h-.5l-1.7-2.9v3.4h-1.1v-5.1h1.3l1.8 3.2 1.9-3.2h1.1v5.1h-1.1z" id="prefix__path1048"/><path class="prefix__st45" d="M41.5 158.9c.4.4.6.9.6 1.6v3H41v-.5c-.1.2-.4.4-.6.5-.3.1-.6.2-1 .2s-.7-.1-1-.2c-.3-.1-.5-.3-.7-.5-.2-.2-.2-.5-.2-.8 0-.5.2-.8.5-1.1.3-.3.9-.4 1.6-.4h1.3v-.1c0-.4-.1-.6-.3-.8-.2-.2-.5-.3-1-.3-.3 0-.6 0-.8.1-.3.1-.5.2-.7.4l-.5-.9c.3-.2.6-.4 1-.5.4-.1.8-.2 1.2-.2.7 0 1.3.2 1.7.5zm-1.1 3.7c.2-.1.4-.3.5-.6v-.6h-1.2c-.7 0-1 .2-1 .7 0 .2.1.4.3.5.2.1.4.2.7.2.2 0 .4-.1.7-.2z" id="prefix__path1050"/><path class="prefix__st45" d="M51.1 158.5v5.1h-7.6v-5.1h1.2v4.1h2v-4.1h1.2v4.1h2v-4.1h1.2z" id="prefix__path1052"/><path class="prefix__st45" d="M55.9 155h2v5.7l4.8-5.7h1.8v8.6h-2v-5.7l-4.7 5.7h-1.9V155z" id="prefix__path1054"/><path class="prefix__st45" d="M76.4 161.9v3.6h-1.9v-1.9h-6.6v1.9H66v-3.6h.4c.5 0 .9-.4 1.1-1.1.2-.7.3-1.6.4-2.9l.1-3h7.1v6.9h1.3zm-6.9-1.4c-.1.6-.3 1.1-.6 1.4h4.2v-5.2h-3.3v1.4c-.1 1-.1 1.8-.3 2.4z" id="prefix__path1056"/><path class="prefix__st45" d="M86.3 159.9h-6.8c.1.6.4 1.1.9 1.5.5.4 1.1.6 1.9.6.9 0 1.7-.3 2.3-.9l1.1 1.2c-.4.5-.9.8-1.5 1-.6.2-1.3.4-2 .4-.9 0-1.8-.2-2.5-.6-.7-.4-1.3-.9-1.7-1.6-.4-.7-.6-1.4-.6-2.3 0-.8.2-1.6.6-2.3.4-.7.9-1.2 1.6-1.6.7-.4 1.4-.6 2.3-.6.8 0 1.6.2 2.3.6.7.4 1.2.9 1.5 1.6.4.7.6 1.4.6 2.3v.7zm-6-2.8c-.4.4-.7.9-.8 1.5h4.9c-.1-.6-.3-1.1-.8-1.5-.4-.4-1-.6-1.6-.6-.7 0-1.3.2-1.7.6z" id="prefix__path1058"/><path class="prefix__st45" d="M95.5 155v8.6h-1.8V161h-2.3l-1.8 2.6h-2.2l2-2.9c-.6-.2-1.1-.5-1.4-1-.3-.4-.5-1-.5-1.7 0-1 .3-1.8 1-2.3.7-.5 1.7-.8 2.9-.8h4.1zm-5.8 3.1c0 1 .6 1.5 1.9 1.5h2.1v-2.9h-2.1c-1.3 0-1.9.5-1.9 1.4z" id="prefix__path1060"/></g><g id="prefix__g1088"><path class="prefix__st3" d="M61.6 131.8h-9c-1 0-1.9.8-1.9 1.9 0 1 .8 1.9 1.9 1.9h9c1 0 1.9-.9 1.9-1.9 0-1-.9-1.9-1.9-1.9zm.6 1.9c0 .3-.3.6-.6.6h-9c-.3 0-.6-.3-.6-.6s.3-.6.6-.6h9c.3 0 .6.3.6.6z" id="prefix__path1064"/><path class="prefix__st3" d="M51.4 136.5c0 1.7 1.2 3.2 2.9 3.5.4 1.2 1.5 2.1 2.8 2.1 1.3 0 2.4-.8 2.8-2.1 1.7-.3 2.9-1.8 2.9-3.5v-.6H51.4v.6zm3.7 2.3h-.3c-1-.1-1.8-.7-2.1-1.6h8.7c-.3.9-1.1 1.6-2.1 1.6h-4.2zm3.4 1.2a1.75 1.75 0 01-2.8 0h2.8z" id="prefix__path1066"/><path class="prefix__st3" d="M57.1 101c-7 0-12.7 5.7-12.7 12.7 0 2.9.9 5.6 2.7 7.9 1.4 1.7 2.7 3.6 3.8 5.5v4.5h12.4v-4.4c1.2-2 2.6-4.1 3.9-5.6 1.8-2.3 2.7-5 2.7-7.9-.1-7-5.8-12.7-12.8-12.7zm-1.6 18.8l.9 3.3 1.5-3.6.7 2.1 1.6-.7-2.1 9.6h-2l-2.1-9.6 1.5-1.1zm6.6 6.9l-.1.2v3.5h-2.6l2.7-12.7-1.2-.3-.5 2.1-1.3.6-1.3-3.6-1.3 3.2-.4-1.6-2.4 1.6-.5-2.3-1.3.3 2.8 12.7h-2.6v-3.6l-.1-.2c-1.2-2-2.6-4-4-5.8-1.6-2-2.5-4.5-2.5-7.1 0-6.3 5.1-11.5 11.5-11.5 6.3 0 11.5 5.1 11.5 11.5 0 2.6-.8 5-2.5 7.1-1.2 1.7-2.7 3.9-3.9 5.9z" id="prefix__path1068"/><path class="prefix__st3" d="M57.6 98.9c.3 0 .6-.3.6-.6v-5.5c0-.3-.3-.6-.6-.6s-.6.3-.6.6v5.5c0 .4.2.6.6.6z" id="prefix__path1070"/><path class="prefix__st3" d="M65.8 100.9c.1.1.2.1.3.1.2 0 .4-.1.5-.3l2.9-4.7c.2-.3.1-.6-.2-.8-.1-.1-.3-.1-.4-.1-.2 0-.3.1-.4.3l-2.9 4.7c-.1.1-.1.3-.1.4 0 .2.1.3.3.4z" id="prefix__path1072"/><path class="prefix__st3" d="M71.3 107.7c.1 0 .2 0 .3-.1l4.9-2.6c.3-.1.4-.5.2-.8-.1-.3-.5-.4-.8-.2l-4.9 2.6c-.3.1-.4.5-.2.8.1.2.3.3.5.3z" id="prefix__path1074"/><path class="prefix__st3" d="M78.9 114.6c-.1-.1-.2-.2-.4-.2L73 114c-.3 0-.6.2-.6.5s.2.6.5.6l5.5.4c.3 0 .6-.2.6-.5.1-.1 0-.3-.1-.4z" id="prefix__path1076"/><path class="prefix__st3" d="M75.3 125.7l-4.5-3.2c-.1-.1-.3-.1-.4-.1-.2 0-.3.1-.4.2-.2.3-.1.6.1.8l4.5 3.2c.1.1.2.1.3.1.2 0 .4-.1.5-.2.1-.1.1-.3.1-.4 0-.2-.1-.3-.2-.4z" id="prefix__path1078"/><path class="prefix__st3" d="M47.8 100.7c.1.2.3.3.5.3.1 0 .2 0 .3-.1.3-.2.4-.5.2-.8l-2.9-4.7c-.1-.1-.2-.2-.4-.3-.2 0-.3 0-.4.1-.3.2-.4.5-.2.8l2.9 4.7z" id="prefix__path1080"/><path class="prefix__st3" d="M37.8 105.1l4.9 2.6c.1 0 .2.1.3.1.2 0 .4-.1.5-.3.1-.3 0-.6-.2-.8l-4.9-2.6c-.3-.1-.6 0-.8.2-.2.3-.1.6.2.8z" id="prefix__path1082"/><path class="prefix__st3" d="M42 114.6c0-.3-.3-.6-.6-.5l-5.5.4c-.2 0-.3.1-.4.2-.1.1-.2.3-.1.4 0 .3.3.5.6.5l5.6-.4c.1 0 .4-.3.4-.6z" id="prefix__path1084"/><path class="prefix__st3" d="M44 122.4c-.2 0-.3 0-.4.1l-4.5 3.2c-.3.2-.3.5-.1.8.1.2.3.2.5.2.1 0 .2 0 .3-.1l4.5-3.2c.3-.2.3-.5.1-.8-.1-.1-.2-.1-.4-.2z" id="prefix__path1086"/></g><g id="prefix__g1126"><path class="prefix__st45" d="M27.5 171.5c.2.3.3.6.3 1 0 .6-.2 1-.6 1.3-.4.3-1 .5-1.8.5h-3.1v-6.5h2.9c.7 0 1.3.1 1.7.4.4.3.6.7.6 1.2 0 .3-.1.6-.2.9-.2.2-.4.4-.7.6.4.2.7.3.9.6zm-4-.9h1.6c.4 0 .7-.1.9-.2.2-.2.3-.4.3-.7 0-.3-.1-.5-.3-.7-.2-.2-.5-.2-.9-.2h-1.6v1.8zm3.1 1.8c0-.6-.4-1-1.3-1h-1.9v1.9h1.9c.9.1 1.3-.2 1.3-.9z" id="prefix__path1090"/><path class="prefix__st45" d="M37.6 167.8v6.5h-1.2v-5.5H33v5.5h-1.2v-6.5h5.8z" id="prefix__path1092"/><path class="prefix__st45" d="M40.7 174c-.5-.3-1-.7-1.3-1.2-.3-.5-.5-1.1-.5-1.7s.2-1.2.5-1.7.7-.9 1.3-1.2c.5-.3 1.1-.4 1.8-.4s1.3.1 1.8.4c.5.3 1 .7 1.3 1.2.3.5.5 1.1.5 1.7 0 .6-.2 1.2-.5 1.7s-.7.9-1.3 1.2c-.5.3-1.1.4-1.8.4s-1.3-.1-1.8-.4zm3-.9c.3-.2.6-.5.8-.8.2-.4.3-.7.3-1.2 0-.4-.1-.8-.3-1.2-.2-.4-.5-.6-.8-.8-.3-.2-.7-.3-1.2-.3-.4 0-.8.1-1.2.3-.3.2-.6.5-.8.8-.2.4-.3.7-.3 1.2 0 .4.1.8.3 1.2.2.4.5.6.8.8.3.2.7.3 1.2.3.4 0 .8-.1 1.2-.3z" id="prefix__path1094"/><path class="prefix__st45" d="M52.8 167.8v6.5h-1.2v-5.5H49l-.1 1.6c0 .9-.1 1.7-.2 2.2-.1.6-.3 1-.6 1.3-.3.3-.6.4-1.1.4-.2 0-.4 0-.7-.1l.1-1.1h.3c.4 0 .7-.2.8-.7.2-.5.3-1.2.3-2.1l.1-2.7h4.9z" id="prefix__path1096"/><path class="prefix__st45" d="M59 171.5c.2.3.3.6.3 1s-.1.7-.4 1c-.3.3-.6.5-1 .7-.4.2-.9.2-1.4.2-.4 0-.9-.1-1.3-.2s-.8-.3-1.2-.5l.4-.9c.3.2.6.3 1 .4.3.1.7.2 1 .2.5 0 .9-.1 1.2-.3.3-.2.5-.5.5-.8 0-.3-.1-.5-.4-.7-.2-.1-.6-.2-1-.2h-1.5v-1h1.4c.4 0 .6-.1.9-.2.2-.1.3-.4.3-.6 0-.3-.1-.5-.4-.7-.3-.2-.6-.3-1.1-.3-.3 0-.6 0-.9.1-.3.1-.6.2-.9.4l-.4-1c.3-.2.7-.3 1.1-.4.4-.1.8-.1 1.1-.1.5 0 .9.1 1.3.2s.7.4 1 .6c.2.3.4.6.4 1 0 .3-.1.6-.3.9-.2.2-.4.4-.7.6.4.2.8.4 1 .6z" id="prefix__path1098"/><path class="prefix__st45" d="M65 172.8h-3.3l-.6 1.5h-1.3l2.9-6.5H64l3 6.5h-1.3l-.7-1.5zm-.4-.9l-1.2-2.9-1.2 2.9h2.4z" id="prefix__path1100"/><path class="prefix__st45" d="M76.4 167.8v6.5h-1.2v-2.8h-3.4v2.8h-1.2v-6.5h1.2v2.7h3.4v-2.7h1.2z" id="prefix__path1102"/><path class="prefix__st45" d="M82.5 172.8h-3.3l-.6 1.5h-1.3l2.9-6.5h1.2l3 6.5h-1.3l-.6-1.5zm-.4-.9l-1.2-2.9-1.2 2.9h2.4z" id="prefix__path1104"/><path class="prefix__st45" d="M23.5 185.7c-.5-.3-1-.7-1.3-1.2-.3-.5-.5-1.1-.5-1.7 0-.6.2-1.2.5-1.7s.7-.9 1.3-1.2c.5-.3 1.1-.4 1.8-.4s1.3.1 1.8.4c.5.3 1 .7 1.3 1.2.3.5.5 1.1.5 1.7s-.2 1.2-.5 1.7-.7.9-1.3 1.2c-.5.3-1.1.4-1.8.4-.7.1-1.3-.1-1.8-.4zm3-.9c.3-.2.6-.5.8-.8.2-.4.3-.7.3-1.2 0-.4-.1-.8-.3-1.2-.2-.4-.5-.6-.8-.8-.3-.2-.7-.3-1.2-.3-.4 0-.8.1-1.2.3-.3.2-.6.5-.8.8-.2.4-.3.7-.3 1.2 0 .4.1.8.3 1.2.2.4.5.6.8.8.3.2.7.3 1.2.3.4 0 .8-.1 1.2-.3z" id="prefix__path1106"/><path class="prefix__st45" d="M30.2 179.5h5.1v1h-3.9v1.6h1.9c.8 0 1.4.2 1.8.5.4.3.6.8.6 1.4 0 .6-.2 1.1-.7 1.5-.4.4-1.1.5-1.9.5h-2.9v-6.5zm2.8 5.6c.5 0 .8-.1 1.1-.3.2-.2.4-.4.4-.8 0-.7-.5-1-1.4-1h-1.7v2.1H33z" id="prefix__path1108"/><path class="prefix__st45" d="M45.4 179.5v6.5H37v-6.5h1.2v5.5h2.4v-5.5h1.2v5.5h2.4v-5.5h1.2zm1 5.5v2.4h-1.1V186h-1v-1h2.1z" id="prefix__path1110"/><path class="prefix__st45" d="M52.5 185v1h-4.9v-6.5h4.8v1h-3.6v1.7H52v1h-3.2v1.8h3.7z" id="prefix__path1112"/><path class="prefix__st45" d="M55 185.7c-.5-.3-1-.7-1.3-1.2-.3-.5-.5-1.1-.5-1.7s.2-1.2.5-1.7.7-.9 1.3-1.2c.5-.3 1.1-.4 1.8-.4.5 0 1 .1 1.5.3.4.2.8.5 1.1.8l-.8.7c-.5-.5-1.1-.8-1.7-.8-.4 0-.9.1-1.2.3-.4.2-.6.5-.8.8-.2.3-.3.7-.3 1.2 0 .4.1.8.3 1.2.2.3.5.6.8.8.4.2.8.3 1.2.3.7 0 1.3-.3 1.7-.8l.8.7c-.3.4-.7.6-1.1.8-.4.2-.9.3-1.5.3-.6.1-1.2-.1-1.8-.4z" id="prefix__path1114"/><path class="prefix__st45" d="M65.2 180.5H63v5.5h-1.2v-5.5h-2.2v-1h5.5v1z" id="prefix__path1116"/><path class="prefix__st45" d="M71.5 183.2c.2.3.3.6.3 1 0 .6-.2 1-.6 1.3-.4.3-1 .5-1.8.5h-3.1v-6.5h2.9c.7 0 1.3.1 1.7.4.4.3.6.7.6 1.2 0 .3-.1.6-.2.9-.2.2-.4.4-.7.6.4.2.7.4.9.6zm-4-.9h1.6c.4 0 .7-.1.9-.2.2-.2.3-.4.3-.7s-.1-.5-.3-.7c-.2-.2-.5-.2-.9-.2h-1.6v1.8zm3.1 1.9c0-.6-.4-1-1.3-1h-1.9v1.9h1.9c.9 0 1.3-.3 1.3-.9z" id="prefix__path1118"/><path class="prefix__st45" d="M74.5 185.7c-.5-.3-1-.7-1.3-1.2-.3-.5-.5-1.1-.5-1.7 0-.6.2-1.2.5-1.7s.7-.9 1.3-1.2c.5-.3 1.1-.4 1.8-.4s1.3.1 1.8.4c.5.3 1 .7 1.3 1.2.3.5.5 1.1.5 1.7s-.2 1.2-.5 1.7-.7.9-1.3 1.2c-.5.3-1.1.4-1.8.4-.7.1-1.3-.1-1.8-.4zm3-.9c.3-.2.6-.5.8-.8.2-.4.3-.7.3-1.2 0-.4-.1-.8-.3-1.2-.2-.4-.5-.6-.8-.8-.3-.2-.7-.3-1.2-.3-.4 0-.8.1-1.2.3-.3.2-.6.5-.8.8-.2.4-.3.7-.3 1.2 0 .4.1.8.3 1.2.2.4.5.6.8.8.3.2.7.3 1.2.3.4 0 .8-.1 1.2-.3z" id="prefix__path1120"/><path class="prefix__st45" d="M85.8 180.5h-2.2v5.5h-1.2v-5.5h-2.2v-1h5.5v1z" id="prefix__path1122"/><path class="prefix__st45" d="M88 185.7c-.5-.3-1-.7-1.3-1.2-.3-.5-.5-1.1-.5-1.7 0-.6.2-1.2.5-1.7s.7-.9 1.3-1.2c.5-.3 1.1-.4 1.8-.4s1.3.1 1.8.4c.5.3 1 .7 1.3 1.2.3.5.5 1.1.5 1.7s-.2 1.2-.5 1.7-.7.9-1.3 1.2c-.5.3-1.1.4-1.8.4-.7.1-1.3-.1-1.8-.4zm3-.9c.3-.2.6-.5.8-.8.2-.4.3-.7.3-1.2 0-.4-.1-.8-.3-1.2-.2-.4-.5-.6-.8-.8-.3-.2-.7-.3-1.2-.3-.4 0-.8.1-1.2.3-.3.2-.6.5-.8.8-.2.4-.3.7-.3 1.2 0 .4.1.8.3 1.2.2.4.5.6.8.8.3.2.7.3 1.2.3.4 0 .8-.1 1.2-.3z" id="prefix__path1124"/></g><radialGradient id="prefix__SVGID_4_" cx="-2171.031" cy="2564.758" r="59.465" gradientTransform="matrix(.5011 0 0 .05423 1144.841 8.833)" gradientUnits="userSpaceOnUse"><stop offset=".103" id="prefix__stop1128" stop-color="#e0e3e2"/><stop offset=".268" id="prefix__stop1130" stop-color="#e9ebea"/><stop offset=".684" id="prefix__stop1132" stop-color="#f9fafa"/><stop offset="1" id="prefix__stop1134" stop-color="#fff"/></radialGradient><ellipse cx="57" cy="147.9" rx="42.1" ry="2.7" id="prefix__ellipse1137" opacity=".9" fill="url(#prefix__SVGID_4_)"/><path class="prefix__st9" d="M90.9 123.4s-.9 8.8-7.8 9.4c6.9.6 7.8 9.4 7.8 9.4s.9-8.8 7.8-9.4c-6.9-.6-7.8-9.4-7.8-9.4z" id="prefix__path1139"/><path class="prefix__st9" d="M103.9 104.8s-.6 5.8-5.2 6.2c4.6.4 5.2 6.2 5.2 6.2s.6-5.8 5.2-6.2c-4.6-.3-5.2-6.2-5.2-6.2z" id="prefix__path1141"/></g><g id="prefix__g1210"><ellipse class="prefix__st1" cx="77.2" cy="642.5" rx="32.1" ry="42.8" id="prefix__ellipse1145"/><g id="prefix__g1193"><path class="prefix__st45" d="M66.9 656.1v6.5h-1.2v-5.5h-3.4v5.5h-1.2v-6.5h5.8z" id="prefix__path1147"/><path class="prefix__st45" d="M73.5 656.4c.4.2.7.5 1 .8.2.3.3.8.3 1.2 0 .5-.1.9-.3 1.2-.2.4-.5.6-1 .8-.4.2-.9.3-1.5.3h-1.5v1.9h-1.2v-6.5H72c.6 0 1.1.1 1.5.3zm-.3 3c.3-.2.4-.5.4-1 0-.4-.1-.7-.4-1-.3-.2-.7-.3-1.2-.3h-1.4v2.6H72c.5 0 .9-.1 1.2-.3z" id="prefix__path1149"/><path class="prefix__st45" d="M81.4 661.6v1h-4.9v-6.5h4.8v1h-3.6v1.7h3.2v1h-3.2v1.8h3.7z" id="prefix__path1151"/><path class="prefix__st45" d="M88.6 659.8c.2.3.3.6.3 1 0 .6-.2 1-.6 1.3-.4.3-1 .5-1.8.5h-3.1v-6.5h2.9c.7 0 1.3.1 1.7.4.4.3.6.7.6 1.2 0 .3-.1.6-.2.9-.2.2-.4.4-.7.6.4.2.7.3.9.6zm-4-.9h1.6c.4 0 .7-.1.9-.2.2-.2.3-.4.3-.7 0-.3-.1-.5-.3-.7-.2-.2-.5-.2-.9-.2h-1.6v1.8zm3.1 1.8c0-.6-.4-1-1.3-1h-1.9v1.9h1.9c.9.1 1.3-.2 1.3-.9z" id="prefix__path1153"/><path class="prefix__st45" d="M92.1 662.3c-.5-.3-1-.7-1.3-1.2-.3-.5-.5-1.1-.5-1.7s.2-1.2.5-1.7.7-.9 1.3-1.2c.5-.3 1.1-.4 1.8-.4s1.3.1 1.8.4c.5.3 1 .7 1.3 1.2.3.5.5 1.1.5 1.7s-.2 1.2-.5 1.7-.7.9-1.3 1.2c-.5.3-1.1.4-1.8.4-.6 0-1.2-.1-1.8-.4zm3-.9c.3-.2.6-.5.8-.8.2-.4.3-.7.3-1.2s-.1-.8-.3-1.2-.5-.6-.8-.8c-.3-.2-.7-.3-1.2-.3-.4 0-.8.1-1.2.3-.3.2-.6.5-.8.8-.2.4-.3.7-.3 1.2s.1.8.3 1.2c.2.4.5.6.8.8.3.2.7.3 1.2.3s.9-.1 1.2-.3z" id="prefix__path1155"/><path class="prefix__st45" d="M105.7 661.6v2.4h-1.1v-1.4h-5v1.4h-1.1v-2.4h.3c.4 0 .7-.3.9-.9.2-.6.3-1.4.3-2.5l.1-2.1h4.8v5.5h.8zm-5-1.2c-.1.6-.3 1-.5 1.2h3.3v-4.5H101v1.2c-.1.8-.2 1.5-.3 2.1z" id="prefix__path1157"/><path class="prefix__st45" d="M115.8 659.8c.2.3.3.6.3 1 0 .6-.2 1-.6 1.3-.4.3-1 .5-1.8.5h-3.1v-6.5h2.9c.7 0 1.3.1 1.7.4.4.3.6.7.6 1.2 0 .3-.1.6-.2.9-.2.2-.4.4-.7.6.4.2.7.3.9.6zm-4.1-.9h1.6c.4 0 .7-.1.9-.2.2-.2.3-.4.3-.7 0-.3-.1-.5-.3-.7-.2-.2-.5-.2-.9-.2h-1.6v1.8zm3.2 1.8c0-.6-.4-1-1.3-1h-1.9v1.9h1.9c.9.1 1.3-.2 1.3-.9z" id="prefix__path1159"/><path class="prefix__st45" d="M67.6 671.4v2.4h-1.1v-1.4h-5v1.4h-1.1v-2.4h.3c.4 0 .7-.3.9-.9.2-.6.3-1.4.3-2.5l.1-2.1h4.8v5.5h.8zm-4.9-1.2c-.1.6-.3 1-.5 1.2h3.3v-4.5h-2.6v1.2c-.1.8-.1 1.5-.2 2.1z" id="prefix__path1161"/><path class="prefix__st45" d="M73.7 670.9h-3.3l-.6 1.5h-1.3l2.9-6.5h1.2l3 6.5h-1.3l-.6-1.5zm-.4-1l-1.2-2.9-1.2 2.9h2.4z" id="prefix__path1163"/><path class="prefix__st45" d="M81.4 666.1c.4.2.7.5 1 .8.2.3.3.8.3 1.2 0 .5-.1.9-.3 1.2-.2.4-.5.6-1 .8-.4.2-.9.3-1.5.3h-1.5v1.9h-1.2v-6.5h2.7c.6.1 1.1.1 1.5.3zm-.4 3c.3-.2.4-.5.4-1 0-.4-.1-.7-.4-1-.3-.2-.7-.3-1.2-.3h-1.4v2.6h1.4c.6.1 1 0 1.2-.3z" id="prefix__path1165"/><path class="prefix__st45" d="M84.4 665.9h1.2v4.6l3.5-4.6h1.1v6.5H89v-4.6l-3.5 4.6h-1.1v-6.5z" id="prefix__path1167"/><path class="prefix__st45" d="M97.4 666.9h-2.2v5.5H94v-5.5h-2.2v-1h5.5v1z" id="prefix__path1169"/><path class="prefix__st45" d="M103.9 671.4v1H99v-6.5h4.8v1h-3.6v1.7h3.2v1h-3.2v1.8h3.7z" id="prefix__path1171"/><path class="prefix__st45" d="M111.4 665.9v6.5h-1.2v-5.5h-2.6l-.1 1.6c0 .9-.1 1.7-.2 2.2-.1.6-.3 1-.6 1.3-.3.3-.6.4-1.1.4-.2 0-.4 0-.7-.1l.1-1.1h.3c.4 0 .7-.2.8-.7.2-.5.3-1.2.3-2.1l.1-2.7h4.9z" id="prefix__path1173"/><path class="prefix__st45" d="M115.1 672.1c-.5-.3-1-.7-1.3-1.2-.3-.5-.5-1.1-.5-1.7 0-.6.2-1.2.5-1.7s.7-.9 1.3-1.2c.5-.3 1.1-.4 1.8-.4.5 0 1 .1 1.5.3.4.2.8.5 1.1.8l-.8.7c-.5-.5-1.1-.8-1.7-.8-.4 0-.9.1-1.2.3-.4.2-.6.5-.8.8-.2.3-.3.7-.3 1.2 0 .4.1.8.3 1.2.2.3.5.6.8.8.4.2.8.3 1.2.3.7 0 1.3-.3 1.7-.8l.8.7c-.3.4-.7.6-1.1.8-.4.2-.9.3-1.5.3-.7 0-1.3-.2-1.8-.4z" id="prefix__path1175"/><path class="prefix__st45" d="M123.6 669.6h-1.2v2.8h-1.2v-6.5h1.2v2.7h1.3l1.9-2.7h1.3l-2.2 3.2 2.3 3.4h-1.4l-2-2.9z" id="prefix__path1177"/><path class="prefix__st45" d="M132.5 670.9h-3.3l-.6 1.5h-1.3l2.9-6.5h1.2l3 6.5h-1.3l-.6-1.5zm-.4-1l-1.2-2.9-1.2 2.9h2.4z" id="prefix__path1179"/><path class="prefix__st45" d="M62.4 681.8c-.5-.3-1-.7-1.3-1.2-.3-.5-.5-1.1-.5-1.7s.2-1.2.5-1.7.7-.9 1.3-1.2c.5-.3 1.1-.4 1.8-.4.5 0 1 .1 1.5.3.4.2.8.5 1.1.8l-.8.7c-.5-.5-1.1-.8-1.7-.8-.4 0-.9.1-1.2.3-.4.2-.6.5-.8.8-.2.3-.3.7-.3 1.2s.1.8.3 1.2c.2.3.5.6.8.8.4.2.8.3 1.2.3.7 0 1.3-.3 1.7-.8l.8.7c-.3.4-.7.6-1.1.8-.4.2-.9.3-1.5.3-.7 0-1.3-.1-1.8-.4z" id="prefix__path1181"/><path class="prefix__st45" d="M74.5 682.2v-4.3l-2.2 3.6h-.5l-2.2-3.5v4.3h-1.2v-6.5h1l2.6 4.3 2.6-4.3h1v6.5h-1.1z" id="prefix__path1183"/><path class="prefix__st45" d="M82.9 681.1v1H78v-6.5h4.8v1h-3.6v1.7h3.2v1h-3.2v1.8h3.7z" id="prefix__path1185"/><path class="prefix__st45" d="M89.6 676.6h-2.2v5.5h-1.2v-5.5H84v-1h5.5v1z" id="prefix__path1187"/><path class="prefix__st45" d="M93.6 679.4h-1.2v2.8h-1.2v-6.5h1.2v2.7h1.3l1.9-2.7h1.3l-2.2 3.2 2.3 3.4h-1.4l-2-2.9z" id="prefix__path1189"/><path class="prefix__st45" d="M102.5 680.6h-3.3l-.6 1.5h-1.3l2.9-6.5h1.2l3 6.5h-1.3l-.6-1.5zm-.4-.9l-1.2-2.9-1.2 2.9h2.4z" id="prefix__path1191"/></g><g id="prefix__g1197"><path class="prefix__st10" d="M54.2 688.6c.2 1.2-.1 2.3-.8 3.3-.8 1-1.7 1.6-2.9 1.8-.9.1-1.7 0-2.4-.6-.7-.5-1.2-1.2-1.3-2.1-.2-1.2.1-2.3.9-3.4s1.8-1.7 2.9-1.9c.9-.1 1.7 0 2.4.6.6.6 1.1 1.4 1.2 2.3zm3.2-33.5c.1.7 0 1.9-.5 3.5-.3 1.2-1 4-1.8 8.5-.9 4.5-1.4 7.2-1.6 8.3-.2 1.1-.3 2.3-.3 3.8 0 1.2-.7 1.8-2 2.1-1.7.3-2.7-.4-3-2.1-.3-1.8.2-5.3 1.4-10.7 1.3-5.4 2.3-9.1 3.1-11.2.8-2.1 1.8-3.2 2.8-3.3 1.1-.2 1.8.2 1.9 1.1z" id="prefix__path1195"/></g><radialGradient id="prefix__SVGID_5_" cx="-1762.38" cy="5604.925" r="59.465" gradientTransform="matrix(.5538 0 0 .04348 1059.496 408.012)" gradientUnits="userSpaceOnUse"><stop offset=".103" id="prefix__stop1199" stop-color="#e0e3e2"/><stop offset=".268" id="prefix__stop1201" stop-color="#e9ebea"/><stop offset=".684" id="prefix__stop1203" stop-color="#f9fafa"/><stop offset="1" id="prefix__stop1205" stop-color="#fff"/></radialGradient><ellipse cx="83.5" cy="651.7" rx="46.5" ry="2.2" id="prefix__ellipse1208" opacity=".9" fill="url(#prefix__SVGID_5_)"/></g><g id="prefix__g1293"><ellipse class="prefix__st1" cx="221.7" cy="773" rx="23" ry="31.2" id="prefix__ellipse1212"/><g id="prefix__g1258"><g id="prefix__g1256"><path class="prefix__st45" d="M184.4 809.1c-.5-.3-1-.7-1.3-1.2-.3-.5-.5-1.1-.5-1.7s.2-1.2.5-1.7.7-.9 1.3-1.2c.5-.3 1.1-.4 1.8-.4s1.3.1 1.8.4c.5.3 1 .7 1.3 1.2.3.5.5 1.1.5 1.7s-.2 1.2-.5 1.7-.7.9-1.3 1.2c-.5.3-1.1.4-1.8.4-.6.1-1.2-.1-1.8-.4zm3-.9c.3-.2.6-.5.8-.8.2-.4.3-.7.3-1.2s-.1-.8-.3-1.2c-.2-.4-.5-.6-.8-.8-.3-.2-.7-.3-1.2-.3-.4 0-.8.1-1.2.3-.3.2-.6.5-.8.8-.2.4-.3.7-.3 1.2s.1.8.3 1.2c.2.4.5.6.8.8.3.2.7.3 1.2.3s.9-.1 1.2-.3z" id="prefix__path1214"/><path class="prefix__st45" d="M196.3 804h-2.2v5.5h-1.2V804h-2.2v-1h5.5v1z" id="prefix__path1216"/><path class="prefix__st45" d="M202.9 802.9v6.5h-1.2V807c-.6.2-1.2.3-1.8.3-.8 0-1.5-.2-1.9-.6-.5-.4-.7-1-.7-1.7v-2.1h1.2v2c0 .5.1.8.4 1.1.3.2.7.4 1.2.4.6 0 1.1-.1 1.6-.3v-3h1.2z" id="prefix__path1218"/><path class="prefix__st45" d="M205.3 802.9h1.2v4.6l3.5-4.6h1.1v6.5H210v-4.6l-3.5 4.6h-1.1v-6.5z" id="prefix__path1220"/><path class="prefix__st45" d="M218.3 804h-2.2v5.5H215V804h-2.2v-1h5.5v1z" id="prefix__path1222"/><path class="prefix__st45" d="M224 808h-3.3l-.6 1.5h-1.3l2.9-6.5h1.2l3 6.5h-1.3l-.6-1.5zm-.4-1l-1.2-2.9-1.2 2.9h2.4z" id="prefix__path1224"/><path class="prefix__st45" d="M233.3 802.9v6.5h-1.2v-2.8h-3.4v2.8h-1.2v-6.5h1.2v2.7h3.4v-2.7h1.2z" id="prefix__path1226"/><path class="prefix__st45" d="M240.6 808.5v1h-4.9V803h4.8v1h-3.6v1.7h3.2v1h-3.2v1.8h3.7z" id="prefix__path1228"/><path class="prefix__st45" d="M251.5 802.9v6.5h-1.2v-2.8h-3.4v2.8h-1.2v-6.5h1.2v2.7h3.4v-2.7h1.2z" id="prefix__path1230"/><path class="prefix__st45" d="M258.2 808h-3.3l-.6 1.5H253l2.9-6.5h1.2l3 6.5h-1.3l-.6-1.5zm-.4-1l-1.2-2.9-1.2 2.9h2.4z" id="prefix__path1232"/><path class="prefix__st45" d="M189 812.7v6.5h-1.2v-2.8h-3.4v2.8h-1.2v-6.5h1.2v2.7h3.4v-2.7h1.2z" id="prefix__path1234"/><path class="prefix__st45" d="M195.7 817.7h-3.3l-.6 1.5h-1.3l2.9-6.5h1.2l3 6.5h-1.3l-.6-1.5zm-.4-.9l-1.2-2.9-1.2 2.9h2.4z" id="prefix__path1236"/><path class="prefix__st45" d="M206.6 813c.4.2.7.5 1 .8.2.3.3.8.3 1.2 0 .5-.1.9-.3 1.2-.2.4-.5.6-1 .8-.4.2-.9.3-1.5.3h-1.5v1.9h-1.2v-6.5h2.7c.5 0 1 .1 1.5.3zm-.4 3c.3-.2.4-.5.4-1 0-.4-.1-.7-.4-1-.3-.2-.7-.3-1.2-.3h-1.4v2.6h1.4c.5 0 .9-.1 1.2-.3z" id="prefix__path1238"/><path class="prefix__st45" d="M213.6 817.7h-3.3l-.6 1.5h-1.3l2.9-6.5h1.2l3 6.5h-1.3l-.6-1.5zm-.4-.9l-1.2-2.9-1.2 2.9h2.4z" id="prefix__path1240"/><path class="prefix__st45" d="M221.4 816.4c.2.3.3.6.3 1s-.1.7-.4 1c-.3.3-.6.5-1 .7-.4.2-.9.2-1.4.2-.4 0-.9-.1-1.3-.2s-.8-.3-1.2-.5l.4-.9c.3.2.6.3 1 .4.3.1.7.2 1 .2.5 0 .9-.1 1.2-.3.3-.2.5-.5.5-.8 0-.3-.1-.5-.4-.7-.2-.1-.6-.2-1-.2h-1.5v-1h1.4c.4 0 .6-.1.9-.2.2-.1.3-.4.3-.6 0-.3-.1-.5-.4-.7-.3-.2-.6-.3-1.1-.3-.3 0-.6 0-.9.1-.3.1-.6.2-.9.4l-.4-1c.3-.2.7-.3 1.1-.4.4-.1.8-.1 1.1-.1.5 0 .9.1 1.3.2s.7.4 1 .6c.2.3.4.6.4 1 0 .3-.1.6-.3.9-.2.2-.4.4-.7.6.5.1.8.3 1 .6z" id="prefix__path1242"/><path class="prefix__st45" d="M224.4 812.7l1.5 2.2 1.5-2.2h1.4l-2.2 3.1 2.4 3.4h-1.4l-1.7-2.4-1.7 2.4h-1.4l2.4-3.4-2.2-3.2h1.4z" id="prefix__path1244"/><path class="prefix__st45" d="M231.6 818.9c-.5-.3-1-.7-1.3-1.2-.3-.5-.5-1.1-.5-1.7s.2-1.2.5-1.7.7-.9 1.3-1.2c.5-.3 1.1-.4 1.8-.4s1.3.1 1.8.4c.5.3 1 .7 1.3 1.2.3.5.5 1.1.5 1.7 0 .6-.2 1.2-.5 1.7s-.7.9-1.3 1.2c-.5.3-1.1.4-1.8.4-.6 0-1.2-.1-1.8-.4zm3-.9c.3-.2.6-.5.8-.8.2-.4.3-.7.3-1.2 0-.4-.1-.8-.3-1.2-.2-.4-.5-.6-.8-.8-.3-.2-.7-.3-1.2-.3-.4 0-.8.1-1.2.3-.3.2-.6.5-.8.8-.2.4-.3.7-.3 1.2 0 .4.1.8.3 1.2.2.4.5.6.8.8.3.2.7.3 1.2.3s.9-.1 1.2-.3z" id="prefix__path1246"/><path class="prefix__st45" d="M245.2 818.2v2.4h-1.1v-1.4h-5v1.4H238v-2.4h.3c.4 0 .7-.3.9-.9.2-.6.3-1.4.3-2.5l.1-2.1h4.8v5.5h.8zm-5-1.2c-.1.6-.3 1-.5 1.2h3.3v-4.5h-2.6v1.2c0 .8-.1 1.5-.2 2.1z" id="prefix__path1248"/><path class="prefix__st45" d="M246.9 812.7h1.2v4.6l3.5-4.6h1.1v6.5h-1.2v-4.6l-3.5 4.6h-1.1v-6.5z" id="prefix__path1250"/><path class="prefix__st45" d="M259.9 813.7h-2.2v5.5h-1.2v-5.5h-2.2v-1h5.5v1z" id="prefix__path1252"/><path class="prefix__st45" d="M266.4 818.2v1h-4.9v-6.5h4.8v1h-3.6v1.7h3.2v1h-3.2v1.8h3.7z" id="prefix__path1254"/></g></g><g id="prefix__g1276"><g id="prefix__g1274"><path class="prefix__st3" d="M233 751.5h-19-.1-.1-.1-.1l-.1.1-6.8 6.8-.1.1V788.6c0 1.1.9 2 2 2H233c1.1 0 2-.9 2-2v-35.1c-.1-1.1-.9-2-2-2zm-19.6 2.2v3.9c0 .4-.3.7-.7.7h-3.9l4.6-4.6zm20.3 34.9c0 .4-.3.7-.7.7h-24.3c-.4 0-.7-.3-.7-.7v-29.1h4.8c1.1 0 2-.9 2-2v-4.8H233c.4 0 .7.3.7.7v35.2z" id="prefix__path1260"/><path class="prefix__st3" d="M212.7 769.7h16.2c.3 0 .6-.3.6-.6s-.3-.6-.6-.6h-16.2c-.3 0-.6.3-.6.6s.2.6.6.6z" id="prefix__path1262"/><path class="prefix__st3" d="M212.7 773.1h16.2c.3 0 .6-.3.6-.6s-.3-.6-.6-.6h-16.2c-.3 0-.6.3-.6.6s.2.6.6.6z" id="prefix__path1264"/><path class="prefix__st3" d="M212.7 776.4h8.1c.3 0 .6-.3.6-.6s-.3-.6-.6-.6h-8.1c-.3 0-.6.3-.6.6 0 .4.2.6.6.6z" id="prefix__path1266"/><path class="prefix__st3" d="M221.4 779.2c0-.3-.3-.6-.6-.6h-8.1c-.3 0-.6.3-.6.6s.3.6.6.6h8.1c.4 0 .6-.3.6-.6z" id="prefix__path1268"/><path class="prefix__st3" d="M224.1 762.5c0-.3-.3-.6-.6-.6s-.6.3-.6.6c0 1.2 1.1 2.2 2.7 2.4v.1c0 .3.3.6.6.6s.6-.3.6-.6v-.1c1.6-.2 2.7-1.2 2.7-2.4s-1.1-2.2-2.7-2.4v-2.4c.8.2 1.4.6 1.4 1.2 0 .3.3.6.6.6s.6-.3.6-.6c0-1.2-1.1-2.2-2.7-2.4v-.1c0-.3-.3-.6-.6-.6s-.6.3-.6.6v.1c-1.6.2-2.7 1.2-2.7 2.4s1.1 2.2 2.7 2.4v2.4c-.7-.2-1.4-.7-1.4-1.2zm4.2 0c0 .6-.7 1-1.4 1.2v-2.3c.7.1 1.4.5 1.4 1.1zm-4.2-3.8c0-.6.7-1 1.4-1.2v2.3c-.7-.1-1.4-.5-1.4-1.1z" id="prefix__path1270"/><path class="prefix__st3" d="M230.2 778.6c-.3-.2-.7-.1-.9.2l-1.3 2.3-.2-.1c-.2-.1-.3-.2-.5-.1-.2 0-.3.2-.4.3l-.7 1.3-.2-.2c-.3-.4-.8-.5-1.2-.4-.5.1-.8.4-1 .9l-.7 2.1-1.7-2.2c-.1-.1-.3-.2-.4-.2-.2 0-.3 0-.5.2l-1.8 1.6c-.3.2-.3.6-.1.9.2.3.6.3.9.1l1.3-1.2 1.7 2.1c.2.2.5.4.8.4h.2c.3-.1.6-.3.8-.6l.9-2.6.8 1c.1.2.3.2.6.2.2 0 .4-.2.5-.3l.7-1.5.1.1c.1.1.3.2.5.1.2 0 .3-.1.4-.3l1.7-2.9c.1-.7 0-1-.3-1.2z" id="prefix__path1272"/></g></g><radialGradient id="prefix__SVGID_6_" cx="-1514.216" cy="5935.119" r="59.465" gradientTransform="matrix(.5538 0 0 .04348 1059.496 537.224)" gradientUnits="userSpaceOnUse"><stop offset=".103" id="prefix__stop1278" stop-color="#e0e3e2"/><stop offset=".268" id="prefix__stop1280" stop-color="#e9ebea"/><stop offset=".684" id="prefix__stop1282" stop-color="#f9fafa"/><stop offset="1" id="prefix__stop1284" stop-color="#fff"/></radialGradient><ellipse cx="220.9" cy="795.3" rx="46.5" ry="2.2" id="prefix__ellipse1287" opacity=".9" fill="url(#prefix__SVGID_6_)"/><path class="prefix__st9" d="M243.2 776.7s-.9 8.8-7.8 9.4c6.9.6 7.8 9.4 7.8 9.4s.9-8.8 7.8-9.4c-6.9-.6-7.8-9.4-7.8-9.4z" id="prefix__path1289"/><path class="prefix__st9" d="M248.6 753.1s-.6 5.8-5.2 6.2c4.6.4 5.2 6.2 5.2 6.2s.6-5.8 5.2-6.2c-4.7-.4-5.2-6.2-5.2-6.2z" id="prefix__path1291"/></g><g id="prefix__g1325"><ellipse class="prefix__st1" cx="84.1" cy="480.4" rx="32.1" ry="35.9" id="prefix__ellipse1295"/><g id="prefix__g1309"><path class="prefix__st45" d="M99.3 497.8c-.7-.4-1.3-1-1.7-1.7-.4-.7-.6-1.5-.6-2.4 0-.9.2-1.7.6-2.4.4-.7 1-1.3 1.8-1.7.7-.4 1.6-.6 2.5-.6.7 0 1.4.1 2.1.4.6.3 1.1.6 1.6 1.1l-1.1 1c-.7-.7-1.5-1.1-2.4-1.1-.6 0-1.2.1-1.7.4-.5.3-.9.7-1.2 1.1-.3.5-.4 1-.4 1.7 0 .6.1 1.2.4 1.7.3.5.7.9 1.2 1.1.5.3 1.1.4 1.7.4 1 0 1.8-.4 2.4-1.1l1.1 1c-.4.5-1 .9-1.6 1.1-.6.3-1.3.4-2.1.4-1.1.2-1.9 0-2.6-.4z" id="prefix__path1297"/><path class="prefix__st45" d="M113.5 490.5h-3v7.7h-1.7v-7.7h-3v-1.4h7.7v1.4z" id="prefix__path1299"/><path class="prefix__st45" d="M120.6 496.1H116l-.9 2.1h-1.7l4.1-9.1h1.7l4.1 9.1h-1.8l-.9-2.1zm-.6-1.3l-1.7-4-1.7 4h3.4z" id="prefix__path1301"/><path class="prefix__st45" d="M130.5 489.5c.6.3 1 .6 1.4 1.1.3.5.5 1.1.5 1.7 0 .7-.2 1.2-.5 1.7s-.8.9-1.4 1.1c-.6.3-1.3.4-2.1.4h-2.1v2.6h-1.7V489h3.8c.8.1 1.5.2 2.1.5zm-.5 4.2c.4-.3.6-.8.6-1.3s-.2-1-.6-1.3c-.4-.3-.9-.5-1.7-.5h-2v3.6h2c.8 0 1.3-.2 1.7-.5z" id="prefix__path1303"/><path class="prefix__st45" d="M140.3 490.5h-3v7.7h-1.7v-7.7h-3v-1.4h7.7v1.4z" id="prefix__path1305"/><path class="prefix__st45" d="M141.8 498c-.2-.2-.3-.4-.3-.7 0-.3.1-.5.3-.7.2-.2.5-.3.8-.3.3 0 .5.1.7.3.2.2.3.4.3.7 0 .3-.1.5-.3.7-.2.2-.4.3-.7.3-.3 0-.6-.1-.8-.3zm-.2-8.9h1.9l-.3 6.1h-1.3l-.3-6.1z" id="prefix__path1307"/></g><g id="prefix__g1317"><path class="prefix__st3" d="M85.6 481.9c-.4-.3-.8-.6-1.3-.7l-.2-.1-.1-.2c-.2-.5-.5-.9-.9-1.2-.6-.5-1.4-.8-2.1-.8h-.2c-1.8.1-3.1 1.6-3 3.4l.2 4.7c0 .2.1.4.3.6.2.2.4.2.6.2l4.7-.2c1.8-.1 3.1-1.6 3-3.4 0-1-.4-1.8-1-2.3zm-1.1 3.3c-.3.3-.6.5-1 .5l-3.8.2-.2-3.8c0-.8.6-1.5 1.4-1.5.4 0 .8.1 1.1.4.3.3.5.6.5 1 0 .2.1.4.3.6.2.2.4.2.6.2.4 0 .8.1 1.1.4.3.3.5.6.5 1-.1.4-.2.7-.5 1z" id="prefix__path1311"/><path class="prefix__st3" d="M93.7 472.9c-.4-.3-.8-.6-1.3-.7l-.2-.1-.1-.2c-.2-.5-.5-.9-.9-1.2-.6-.5-1.4-.8-2.1-.8h-.2c-1.8.1-3.1 1.6-3 3.4l.2 4.7c0 .2.1.4.3.6.2.2.4.2.6.2l4.7-.2c1.8-.1 3.1-1.6 3-3.4 0-1-.3-1.7-1-2.3zm-2.1 3.8l-3.8.2-.2-3.8c0-.4.1-.8.4-1.1s.6-.5 1-.5.8.1 1.1.4c.3.3.5.6.5 1 0 .2.1.4.3.6.2.2.4.2.6.2.4 0 .8.1 1.1.4.3.3.5.6.5 1 0 .9-.6 1.6-1.5 1.6z" id="prefix__path1313"/><path class="prefix__st3" d="M105.4 457.5c-.2-.2-.4-.2-.7-.2-11.5 1.4-22 7.6-28.7 17l-2.6 3.6-13.4 5c-.2.1-.3.2-.4.4l-4.8 8.1c-.2.3-.2.6 0 .8 0 .1.1.2.2.3.1.1.3.2.5.2l8 .9 4.6 4.1-2.7 3c-.3.4-.3.9.1 1.2.2.2.4.2.6.2.2 0 .4-.1.6-.3l2.7-3 4.6 4.1 1.7 7.8c0 .2.1.3.3.5.1.1.2.1.3.2.3.1.6.1.8-.1l7.5-5.5c.2-.1.3-.3.3-.5l3.6-13.8 3.3-3c8.7-7.7 13.8-18.7 14-30.3-.1-.3-.2-.6-.4-.7zm-42 34.2L57 491l3.9-6.6 10.6-4-8.1 11.3zm19.8 12.8L77 509l-1.3-6.3 10.4-9.2-2.9 11zm18.2-33c-2.3 6-6 11.4-10.8 15.6l-15.9 14.1-4.2-3.8 5.3-5.9c.2-.2.2-.4.2-.6 0-.2-.1-.4-.3-.6-.4-.3-.9-.3-1.2.1l-5.3 5.9-4.2-3.8 12.4-17.3c3.7-5.2 8.7-9.4 14.5-12.3l.4-.2.2.4c.8 1.9 1.9 3.6 3.4 4.9 1.5 1.4 3.3 2.4 5.2 2.9l.4.1-.1.5zm2.5-11.9c-.2 3.2-.8 6.4-1.7 9.5l-.1.4-.4-.1c-1.7-.5-3.3-1.4-4.7-2.6-1.3-1.2-2.4-2.7-3-4.4l-.1-.4.4-.2c3-1.3 6.1-2.2 9.2-2.7l.5-.1-.1.6z" id="prefix__path1315"/></g><path class="prefix__st13" d="M140 468.2c-.4-1.7-2-3-3.8-3-.3 0-.7 0-1 .1-.9-2-2.9-3.3-5.2-3.3-.6 0-1.2.1-1.7.3-1.2-2.1-3.5-3.4-6.1-3.4-3.1 0-5.7 2-6.7 4.7-.7-.4-1.5-.6-2.4-.6-2.7 0-4.9 2.2-4.9 4.9v.5H140z" id="prefix__path1319"/><path class="prefix__st13" d="M73.3 474.9c-.4-1.6-1.8-2.9-3.6-2.9-.3 0-.6 0-.9.1-.9-1.8-2.7-3.1-4.9-3.1-.6 0-1.1.1-1.6.2-1.2-1.9-3.3-3.2-5.7-3.2-2.9 0-5.3 1.8-6.3 4.4-.7-.4-1.4-.6-2.2-.6-2.5 0-4.6 2.1-4.6 4.6v.4h29.8z" id="prefix__path1321"/><path class="prefix__st9" d="M78.6 520.6s-.4 3.8-3.4 4.1c3 .3 3.4 4.1 3.4 4.1s.4-3.8 3.4-4.1c-3.1-.3-3.4-4.1-3.4-4.1z" id="prefix__path1323"/></g><g id="prefix__g1414"><g id="prefix__g1343"><g id="prefix__g1341"><path class="prefix__st45" d="M188.2 909.1h-4.4v11.1h-5v-11.1h-4.4v-3.9h13.7v3.9z" id="prefix__path1327"/><path class="prefix__st45" d="M189.9 905.2h5v7.8l5.2-7.8h4.8v15h-5v-7.8l-5.1 7.8H190v-15z" id="prefix__path1329"/><path class="prefix__st45" d="M190.5 926.1l-6 11.3c-.7 1.3-1.6 2.4-2.6 3.1-1 .7-2.2 1-3.4 1-1 0-1.9-.2-2.9-.6l1.2-3.6c.6.2 1.1.3 1.5.3.4 0 .7-.1 1-.2.3-.1.5-.3.8-.6l-5.7-10.6h5.3l3 6.3 3.1-6.3h4.7z" id="prefix__path1331"/><path class="prefix__st45" d="M194.6 940.4c-1.3-.7-2.3-1.6-3-2.8-.7-1.2-1.1-2.5-1.1-4.1 0-1.5.4-2.9 1.1-4.1.7-1.2 1.7-2.1 3-2.8 1.3-.7 2.7-1 4.3-1 1.5 0 2.8.3 3.9.8s2.1 1.3 2.8 2.2l-3.2 2.8c-.9-1.2-2-1.8-3.3-1.8-1.1 0-1.9.3-2.5 1-.6.7-1 1.6-1 2.7s.3 2.1 1 2.7c.6.7 1.5 1 2.5 1 1.3 0 2.3-.6 3.3-1.8l3.2 2.8c-.7 1-1.7 1.7-2.8 2.2-1.1.5-2.4.8-3.9.8-1.6.4-3.1.1-4.3-.6z" id="prefix__path1333"/><path class="prefix__st45" d="M221.6 926.1v15h-5V930H212v11.1h-5v-15h14.6z" id="prefix__path1335"/><path class="prefix__st45" d="M237.4 926.1v15h-5v-3.6H231l-2.3 3.6h-5.3l3-4.3c-1-.5-1.7-1.1-2.2-1.9-.5-.8-.8-1.8-.8-3s.3-2.2.8-3.1c.6-.9 1.4-1.5 2.4-2s2.3-.7 3.7-.7h7.1zm-8.9 5.7c0 1.3.6 1.9 1.9 1.9h2V930h-2c-1.3 0-1.9.6-1.9 1.8z" id="prefix__path1337"/><path class="prefix__st45" d="M239.2 926.1h5.8l-1 9.2h-3.9l-.9-9.2zm.8 14.4c-.5-.5-.8-1.1-.8-1.8s.3-1.3.8-1.8 1.2-.7 2-.7 1.5.2 2 .7c.5.5.8 1.1.8 1.8s-.3 1.3-.8 1.8-1.2.7-2 .7c-.8.1-1.5-.2-2-.7z" id="prefix__path1339"/></g></g><g id="prefix__g1357"><path class="prefix__st10" d="M240.2 903.7c-.2-1.1-.5-2.2-1.2-3.1-.4-.6-1.1-1.2-1.7-1.6-.7-.4-1.4-.7-2.2-.8-.3-.1-.7-.1-1-.1-.9 0-1.8.2-2.6.5-.9.3-1.7.8-2.4 1.4-.7.6-1.3 1.3-1.8 2.1-.2.2-.4.6-.5.9-.2.4-.4.9-.5 1.3 0-.1-.1-.1-.1-.2s-.1-.1-.1-.2c-.4-.4-.9-.8-1.4-1.1-.6-.4-1.3-.6-2-.8-.3-.1-.5-.1-.8-.1-.3 0-.6-.1-.8-.1h-.4c-.4 0-.8.1-1.1.2-.4.1-.8.3-1.2.5-.6.3-1.1.7-1.5 1.1-.4.3-.7.7-.9 1.1-.6 1-.8 2-.9 3.1-.1.7 0 1.4.2 2.1.1.7.4 1.3.7 1.8.3.5.6.9 1 1.4.5.6 1 1.1 1.6 1.7.9.8 1.9 1.6 2.9 2.3 1.1.8 2.3 1.5 3.5 2.2 4.8 2.6 8.6 3.5 8.7 2.3.1-1.6.6-3.3 1.4-4.7.1-.2.2-.3.3-.5.8-1.2 1.6-2.5 2.4-3.7.9-1.4 1.7-2.9 2.3-4.4.2-.7.4-1.4.5-2.1 0-.3.1-.7.1-1.1-.4-.5-.4-1-.5-1.4z" id="prefix__path1345"/><g id="prefix__g1355"><path class="prefix__st10" d="M238.5 903.6c.2.1.2.4.1.5-.1.2-.4.2-.6.1-.2-.1-.2-.4-.1-.5.1-.2.4-.2.6-.1z" id="prefix__path1347"/><path class="prefix__st10" d="M238.3 905.8c.1.1.2.3.1.4-.1.1-.3.2-.4.1-.1-.1-.2-.3-.1-.4.1-.2.3-.2.4-.1z" id="prefix__path1349"/><path class="prefix__st10" d="M237.6 908c.1.1.1.2 0 .3-.1.1-.2.1-.3 0-.1-.1-.1-.2 0-.3h.3z" id="prefix__path1351"/><path class="prefix__st10" d="M236.3 909.7c.1.1.1.2.1.3-.1.1-.2.1-.3.1-.1-.1-.1-.2-.1-.3.1-.1.2-.2.3-.1z" id="prefix__path1353"/></g></g><g id="prefix__g1412"><g id="prefix__g1410"><radialGradient id="prefix__SVGID_7_" cx="-1660.629" cy="6312.487" r="72.679" gradientTransform="matrix(.5538 0 0 .04348 1059.496 684.895)" gradientUnits="userSpaceOnUse"><stop offset=".103" id="prefix__stop1359" stop-color="#e0e3e2"/><stop offset=".268" id="prefix__stop1361" stop-color="#e9ebea"/><stop offset=".684" id="prefix__stop1363" stop-color="#f9fafa"/><stop offset="1" id="prefix__stop1365" stop-color="#fff"/></radialGradient><ellipse cx="139.8" cy="959.4" rx="56.8" ry="2.7" id="prefix__ellipse1368" opacity=".9" fill="url(#prefix__SVGID_7_)"/><g id="prefix__g1408"><g id="prefix__g1378"><path d="M138.2 914.4c1.7 4.7 6.2 8 11.4 8 5.3 0 9.7-3.3 11.4-8" id="prefix__path1370" fill="none" stroke="#ff7db9" stroke-width="2.253" stroke-linecap="round" stroke-linejoin="round" stroke-miterlimit="10"/><g id="prefix__g1376"><path class="prefix__st16" d="M146.6 906.8c0 .8-.7 1.5-1.5 1.5s-1.5-.7-1.5-1.5.7-1.5 1.5-1.5 1.5.7 1.5 1.5z" id="prefix__path1372"/><path class="prefix__st16" d="M155.7 906.8c0 .8-.7 1.5-1.5 1.5s-1.5-.7-1.5-1.5.7-1.5 1.5-1.5 1.5.7 1.5 1.5z" id="prefix__path1374"/></g></g><g id="prefix__g1390"><path d="M133.2 932.6c-1.4 3.8-5.1 6.6-9.4 6.6-4.3 0-8-2.7-9.4-6.6" id="prefix__path1380" fill="none" stroke="#ffcb57" stroke-width="2.253" stroke-linecap="round" stroke-linejoin="round" stroke-miterlimit="10"/><g id="prefix__g1386"><path class="prefix__st18" d="M126.3 926.3c0 .7.6 1.2 1.2 1.2s1.2-.6 1.2-1.2c0-.7-.6-1.2-1.2-1.2s-1.2.5-1.2 1.2z" id="prefix__path1382"/><path class="prefix__st18" d="M118.8 926.3c0 .7.6 1.2 1.2 1.2.7 0 1.2-.6 1.2-1.2 0-.7-.6-1.2-1.2-1.2s-1.2.5-1.2 1.2z" id="prefix__path1384"/></g><circle cx="123.8" cy="931" r="16.8" id="prefix__circle1388" fill="none" stroke="#ffcb57" stroke-width="2.253" stroke-linejoin="round" stroke-miterlimit="10"/></g><g id="prefix__g1402"><g id="prefix__g1400"><path d="M139.7 941.2a6.3 6.3 0 005.9 4.1c2.7 0 5.1-1.7 5.9-4.1" id="prefix__path1392" fill="none" stroke="#49c4ff" stroke-width="1.77" stroke-linecap="round" stroke-linejoin="round" stroke-miterlimit="10"/><g id="prefix__g1398"><path class="prefix__st21" d="M144.1 937.3c0 .4-.4.8-.8.8s-.8-.4-.8-.8.4-.8.8-.8.8.3.8.8z" id="prefix__path1394"/><path class="prefix__st21" d="M148.8 937.3c0 .4-.4.8-.8.8s-.8-.4-.8-.8.4-.8.8-.8.8.3.8.8z" id="prefix__path1396"/></g></g></g><circle cx="148.7" cy="911.5" r="20.1" id="prefix__circle1404" fill="none" stroke="#ff7db9" stroke-width="2.253" stroke-linejoin="round" stroke-miterlimit="10"/><circle cx="146.1" cy="939.8" r="10.6" id="prefix__circle1406" fill="none" stroke="#49c4ff" stroke-width="1.734" stroke-linecap="round" stroke-linejoin="round" stroke-miterlimit="10"/></g></g></g></g><g id="prefix__g1458"><path class="prefix__st45" d="M116.4 73.9v7.3h-1v-3.3h-4.2v3.3h-1v-7.3h1V77h4.2v-3.2h1z" id="prefix__path1416"/><path class="prefix__st45" d="M123.5 75.7l-2.7 6.1c-.2.6-.5 1-.8 1.2-.3.2-.7.3-1.1.3-.3 0-.5 0-.8-.1-.3-.1-.5-.2-.6-.4l.4-.8c.3.3.6.4 1 .4.2 0 .4-.1.6-.2s.3-.4.4-.7l.2-.4-2.5-5.5h1l1.9 4.4 1.9-4.4h1.1z" id="prefix__path1418"/><path class="prefix__st45" d="M129.2 78.9h-1.1v2.3h-1v-2.3H126l-1.5 2.3h-1.2l1.9-2.9-1.8-2.7h1.1L126 78h1.1v-2.3h1V78h1.1l1.5-2.3h1.1l-1.8 2.7 1.9 2.9h-1.2l-1.5-2.4z" id="prefix__path1420"/><path class="prefix__st45" d="M138.7 80.3v2.2h-.9v-1.3h-4.6v1.3h-1v-2.2h.3c.4 0 .6-.3.7-.8.1-.5.2-1.2.3-2l.1-1.9h4.3v4.7h.8zm-4.5-1c-.1.5-.2.8-.5 1h3.1v-3.8h-2.4l-.1 1.1c.1.7 0 1.3-.1 1.7z" id="prefix__path1422"/><path class="prefix__st45" d="M143.8 76.2c.4.4.6.9.6 1.7v3.4h-1v-.7c-.2.3-.4.5-.7.6-.3.1-.7.2-1.1.2-.6 0-1.1-.1-1.5-.5-.4-.3-.6-.7-.6-1.2s.2-.9.5-1.2c.4-.3.9-.4 1.7-.4h1.6v-.2c0-.4-.1-.8-.4-1-.3-.2-.6-.3-1.1-.3-.3 0-.6.1-1 .2-.3.1-.6.3-.8.4l-.4-.8c.3-.2.6-.4 1-.5.4-.1.8-.2 1.3-.2.9-.1 1.4.1 1.9.5zm-1 4c.3-.2.5-.4.6-.7v-.8h-1.5c-.9 0-1.3.3-1.3.9 0 .3.1.5.3.7.2.2.5.2.9.2.3 0 .7-.1 1-.3z" id="prefix__path1424"/><path class="prefix__st45" d="M151.2 78.8h-4.5c.1.5.3.9.6 1.2.4.3.8.4 1.4.4.7 0 1.2-.2 1.6-.7l.6.6c-.3.3-.6.5-.9.7-.4.2-.8.2-1.3.2-.6 0-1.1-.1-1.6-.4-.5-.2-.8-.6-1.1-1-.2-.4-.4-.9-.4-1.5 0-.5.1-1 .4-1.5.2-.4.6-.8 1-1 .4-.2.9-.4 1.4-.4.5 0 1 .1 1.4.4.4.2.7.6 1 1s.4.9.4 1.5v.5zm-4-1.9c-.3.3-.5.7-.6 1.2h3.6c-.1-.5-.2-.8-.6-1.1s-.7-.4-1.2-.4c-.4-.1-.8 0-1.2.3z" id="prefix__path1426"/><path class="prefix__st45" d="M160.7 75.7v5.5h-7.9v-5.5h1v4.7h2.5v-4.7h1v4.7h2.4v-4.7h1z" id="prefix__path1428"/><path class="prefix__st45" d="M166.3 80.9c-.4-.2-.8-.6-1-1-.3-.4-.4-.9-.4-1.5 0-.5.1-1 .4-1.5.3-.4.6-.8 1-1 .4-.2.9-.4 1.5-.4.5 0 1 .1 1.3.3.4.2.7.5.9.9l-.8.5c-.2-.3-.4-.5-.6-.6s-.5-.2-.9-.2-.7.1-1 .2c-.3.2-.5.4-.7.7-.2.3-.2.6-.2 1s.1.7.2 1c.2.3.4.5.7.7.3.2.6.2 1 .2.3 0 .6-.1.9-.2s.5-.3.6-.6l.8.5c-.2.4-.5.7-.9.9-.4.2-.8.3-1.3.3-.5.2-1 0-1.5-.2z" id="prefix__path1430"/><path class="prefix__st45" d="M176.3 78.8h-4.5c.1.5.3.9.6 1.2.4.3.8.4 1.4.4.7 0 1.2-.2 1.6-.7l.6.6c-.3.3-.6.5-.9.7-.4.2-.8.2-1.3.2-.6 0-1.1-.1-1.6-.4-.5-.2-.8-.6-1.1-1-.2-.4-.4-.9-.4-1.5 0-.5.1-1 .4-1.5.2-.4.6-.8 1-1 .4-.2.9-.4 1.4-.4.5 0 1 .1 1.4.4.4.2.7.6 1 1s.4.9.4 1.5v.5zm-3.9-1.9c-.3.3-.5.7-.6 1.2h3.6c-.1-.5-.2-.8-.6-1.1s-.7-.4-1.2-.4c-.5-.1-.9 0-1.2.3z" id="prefix__path1432"/><path class="prefix__st45" d="M110.8 91.4c-.4-.2-.8-.6-1-1-.2-.4-.4-.9-.4-1.5 0-.5.1-1 .4-1.5.2-.4.6-.8 1-1 .4-.2.9-.4 1.5-.4s1 .1 1.5.4c.4.2.8.6 1 1 .2.4.4.9.4 1.5 0 .5-.1 1-.4 1.5-.2.4-.6.8-1 1-.4.2-.9.4-1.5.4-.6-.1-1.1-.2-1.5-.4zm2.4-.8c.3-.2.5-.4.7-.7s.2-.6.2-1-.1-.7-.2-1-.4-.5-.7-.7c-.3-.2-.6-.2-1-.2s-.7.1-1 .2c-.3.2-.5.4-.7.7-.2.3-.2.6-.2 1s.1.7.2 1c.2.3.4.5.7.7s.6.2 1 .2.8 0 1-.2z" id="prefix__path1434"/><path class="prefix__st45" d="M120.6 87h-2v4.7h-1V87h-2v-.9h5.1v.9z" id="prefix__path1436"/><path class="prefix__st45" d="M125.3 91.4c-.4-.2-.8-.6-1-1-.3-.4-.4-.9-.4-1.5 0-.5.1-1 .4-1.5.3-.4.6-.8 1-1 .4-.2.9-.4 1.5-.4.5 0 1 .1 1.3.3.4.2.7.5.9.9l-.8.5c-.2-.3-.4-.5-.6-.6s-.5-.2-.9-.2-.7.1-1 .2c-.3.2-.5.4-.7.7-.2.3-.2.6-.2 1s.1.7.2 1c.2.3.4.5.7.7.3.2.6.2 1 .2.3 0 .6-.1.9-.2s.5-.3.6-.6l.8.5c-.2.4-.5.7-.9.9-.4.2-.8.3-1.3.3-.6.1-1.1 0-1.5-.2z" id="prefix__path1438"/><path class="prefix__st45" d="M134.8 86.4c.4.2.8.6 1 1 .2.4.4.9.4 1.5s-.1 1.1-.4 1.5c-.2.4-.6.8-1 1-.4.2-.9.4-1.4.4-.4 0-.8-.1-1.1-.2-.3-.2-.6-.4-.8-.7v2.9h-1v-7.6h1v.8c.2-.3.5-.5.8-.7.3-.2.7-.2 1.1-.2.5 0 .9.1 1.4.3zm-.6 4.2c.3-.2.5-.4.7-.7s.2-.6.2-1-.1-.7-.2-1-.4-.5-.7-.7c-.3-.2-.6-.2-1-.2-.3 0-.7.1-.9.2s-.5.4-.7.7c-.2.3-.2.6-.2 1s.1.7.2 1 .4.5.7.7.6.2 1 .2c.3.1.6 0 .9-.2z" id="prefix__path1440"/><path class="prefix__st45" d="M142.6 89.2h-4.5c.1.5.3.9.6 1.2.4.3.8.4 1.4.4.7 0 1.2-.2 1.6-.7l.6.6c-.3.3-.6.5-.9.7-.4.2-.8.2-1.3.2-.6 0-1.1-.1-1.6-.4-.5-.2-.8-.6-1.1-1-.2-.4-.4-.9-.4-1.5 0-.5.1-1 .4-1.5.2-.4.6-.8 1-1 .4-.2.9-.4 1.4-.4.5 0 1 .1 1.4.4.4.2.7.6 1 1s.4.9.4 1.5v.5zm-4-1.8c-.3.3-.5.7-.6 1.2h3.6c-.1-.5-.2-.8-.6-1.1s-.7-.4-1.2-.4c-.4-.2-.8 0-1.2.3z" id="prefix__path1442"/><path class="prefix__st45" d="M149.7 90.8V93h-.9v-1.3h-4.6V93h-1v-2.2h.3c.4 0 .6-.3.7-.8.1-.5.2-1.2.3-2l.1-1.9h4.3v4.7h.8zm-4.5-1c-.1.5-.2.8-.5 1h3.1V87h-2.4l-.1 1.1c.1.7 0 1.2-.1 1.7z" id="prefix__path1444"/><path class="prefix__st45" d="M151.9 91.4c-.4-.2-.8-.6-1-1-.3-.4-.4-.9-.4-1.5 0-.5.1-1 .4-1.5.3-.4.6-.8 1-1 .4-.2.9-.4 1.5-.4.5 0 1 .1 1.3.3.4.2.7.5.9.9l-.8.5c-.2-.3-.4-.5-.6-.6s-.5-.2-.9-.2-.7.1-1 .2c-.3.2-.5.4-.7.7-.2.3-.2.6-.2 1s.1.7.2 1c.2.3.4.5.7.7.3.2.6.2 1 .2.3 0 .6-.1.9-.2s.5-.3.6-.6l.8.5c-.2.4-.5.7-.9.9-.4.2-.8.3-1.3.3-.5.1-1 0-1.5-.2z" id="prefix__path1446"/><path class="prefix__st45" d="M161.1 87h-2v4.7h-1V87h-2v-.9h5.1v.9z" id="prefix__path1448"/><path class="prefix__st45" d="M166.9 90.1c0 .5-.2.9-.5 1.1-.4.3-.9.4-1.6.4h-2.7v-5.5h2.6c.7 0 1.2.1 1.5.4s.6.6.6 1.1c0 .3-.1.5-.2.8-.2.2-.4.4-.7.5.7.1 1 .5 1 1.2zm-3.8-1.6h1.5c.4 0 .7-.1.9-.2.2-.1.3-.3.3-.6 0-.5-.4-.8-1.2-.8h-1.5v1.6zm2.5 2.2c.2-.1.3-.3.3-.6s-.1-.5-.3-.6-.5-.2-.9-.2H163V91h1.6c.5-.1.8-.2 1-.3z" id="prefix__path1450"/><path class="prefix__st45" d="M172.3 86.6c.4.4.6.9.6 1.7v3.4h-1V91c-.2.3-.4.5-.7.6-.3.1-.7.2-1.1.2-.6 0-1.1-.1-1.5-.5-.4-.3-.6-.7-.6-1.2s.2-.9.5-1.2c.4-.3.9-.4 1.7-.4h1.6v-.2c0-.4-.1-.8-.4-1-.3-.2-.6-.3-1.1-.3-.3 0-.6.1-1 .2-.3.1-.6.3-.8.4l-.4-.8c.3-.2.6-.4 1-.5.4-.1.8-.2 1.3-.2.9 0 1.4.2 1.9.5zm-1 4.1c.3-.2.5-.4.6-.7v-.8h-1.5c-.9 0-1.3.3-1.3.9 0 .3.1.5.3.7.2.2.5.2.9.2.3 0 .7-.1 1-.3z" id="prefix__path1452"/><path class="prefix__st45" d="M181.4 89.3c.2.2.3.5.3.8 0 .3-.1.6-.3.9-.2.3-.5.5-.9.6-.4.1-.8.2-1.3.2-.4 0-.8-.1-1.2-.2-.4-.1-.7-.3-1.1-.5l.3-.8c.3.2.6.3.9.4.3.1.7.1 1 .1.5 0 .9-.1 1.1-.2s.4-.4.4-.7c0-.3-.1-.5-.3-.6-.2-.1-.5-.2-1-.2h-1v-.7h.9c.4 0 .7-.1.9-.2s.3-.3.3-.5c0-.3-.1-.4-.4-.6s-.6-.2-1-.2c-.6 0-1.1.1-1.7.4l-.3-.8c.7-.3 1.4-.5 2.1-.5.4 0 .8.1 1.2.2s.6.3.8.5c.2.2.3.5.3.8 0 .3-.1.5-.3.7-.2.2-.4.4-.7.5.5.2.8.3 1 .6z" id="prefix__path1454"/><path class="prefix__st45" d="M186.9 86.6c.4.4.6.9.6 1.7v3.4h-1V91c-.2.3-.4.5-.7.6-.3.1-.7.2-1.1.2-.6 0-1.1-.1-1.5-.5-.4-.3-.6-.7-.6-1.2s.2-.9.5-1.2c.4-.3.9-.4 1.7-.4h1.6v-.2c0-.4-.1-.8-.4-1-.3-.2-.6-.3-1.1-.3-.3 0-.6.1-1 .2-.3.1-.6.3-.8.4l-.4-.8c.3-.2.6-.4 1-.5.4-.1.8-.2 1.3-.2.9 0 1.5.2 1.9.5zm-1 4.1c.3-.2.5-.4.6-.7v-.8H185c-.9 0-1.3.3-1.3.9 0 .3.1.5.3.7.2.2.5.2.9.2s.8-.1 1-.3z" id="prefix__path1456"/></g><g id="prefix__g1474"><path class="prefix__st45" d="M117.7 95.4v8.4h-1.9V97h-2.9l-.1 1.8c0 1.2-.1 2.2-.3 2.9s-.4 1.3-.8 1.7c-.4.4-.9.6-1.5.6-.3 0-.6 0-1-.1l.1-1.6h.3c.5 0 .8-.3 1-.8s.3-1.4.3-2.6l.1-3.4h6.7z" id="prefix__path1460"/><path class="prefix__st45" d="M126.3 102.2v1.6h-6.5v-8.4h6.3V97h-4.4v1.8h3.9v1.5h-3.9v1.9h4.6z" id="prefix__path1462"/><path class="prefix__st45" d="M134.8 95.4v8.4h-1.9v-3c-.7.3-1.4.4-2 .4-1.1 0-2-.3-2.6-.8-.6-.5-.9-1.3-.9-2.3v-2.6h1.9v2.4c0 .6.2 1 .5 1.3.3.3.8.4 1.3.4.6 0 1.2-.1 1.8-.4v-3.8h1.9z" id="prefix__path1464"/><path class="prefix__st45" d="M143.4 102.2v1.6h-6.5v-8.4h6.3V97h-4.4v1.8h3.9v1.5h-3.9v1.9h4.6z" id="prefix__path1466"/><path class="prefix__st45" d="M152.7 95.4v8.4h-1.9v-3.4H147v3.4h-2v-8.4h1.9v3.3h3.8v-3.3h2z" id="prefix__path1468"/><path class="prefix__st45" d="M154.8 95.4h1.9v5.5l4-5.5h1.8v8.4h-1.9v-5.5l-4 5.5h-1.8v-8.4z" id="prefix__path1470"/><path class="prefix__st45" d="M171.1 102.2v1.6h-6.5v-8.4h6.3V97h-4.4v1.8h3.9v1.5h-3.9v1.9h4.6z" id="prefix__path1472"/></g><g id="prefix__g1489"><path id="prefix__polygon1476" fill="none" stroke="#ffcb57" stroke-width="1.417" stroke-miterlimit="10" d="M151.7 39.2h-12.1V27.1h-11.7v12.1h-12.1V51h12.1v12.1h11.7V51h12.1z"/><radialGradient id="prefix__SVGID_8_" cx="-1965.328" cy="2414.879" r="59.465" gradientTransform="matrix(.296 0 0 .05423 716.59 -64.319)" gradientUnits="userSpaceOnUse"><stop offset=".103" id="prefix__stop1478" stop-color="#e0e3e2"/><stop offset=".268" id="prefix__stop1480" stop-color="#e9ebea"/><stop offset=".684" id="prefix__stop1482" stop-color="#f9fafa"/><stop offset="1" id="prefix__stop1484" stop-color="#fff"/></radialGradient><ellipse cx="134.9" cy="66.6" rx="24.8" ry="2.7" id="prefix__ellipse1487" opacity=".9" fill="url(#prefix__SVGID_8_)"/></g><path class="prefix__st9" d="M155.2 27s-.6 5.8-5.2 6.2c4.6.4 5.2 6.2 5.2 6.2s.6-5.8 5.2-6.2c-4.6-.4-5.2-6.2-5.2-6.2z" id="prefix__path1491"/><path class="prefix__st9" d="M164 38.1s-.4 3.6-3.2 3.9c2.9.3 3.2 3.9 3.2 3.9s.4-3.6 3.2-3.9c-2.8-.2-3.2-3.9-3.2-3.9z" id="prefix__path1493"/><path class="prefix__st0" d="M177.4 103.9c12.6 1.2 33.5 5 55.4 18 12.9 7.7 22.4 16.3 29 23.4" id="prefix__path1495"/><path d="M63.2 601.6l41.4 18.6L63.1 639l.1-16.1 33-2.5-33.1-2.6s0-16.3.1-16.2z" id="prefix__path1497" fill="none" stroke="#ffcb57" stroke-width="1.661" stroke-linecap="round" stroke-linejoin="round" stroke-miterlimit="10"/><radialGradient id="prefix__SVGID_9_" cx="-1740.269" cy="5301.796" r="59.044" gradientTransform="matrix(.5538 0 0 .04348 1059.496 289.392)" gradientUnits="userSpaceOnUse"><stop offset=".103" id="prefix__stop1499" stop-color="#e0e3e2"/><stop offset=".268" id="prefix__stop1501" stop-color="#e9ebea"/><stop offset=".684" id="prefix__stop1503" stop-color="#f9fafa"/><stop offset="1" id="prefix__stop1505" stop-color="#fff"/></radialGradient><ellipse cx="95.7" cy="519.9" rx="46.2" ry="2.2" id="prefix__ellipse1508" opacity=".9" fill="url(#prefix__SVGID_9_)"/><g id="prefix__g1528"><path class="prefix__st45" d="M228 357.4c-.7-.4-1.3-1-1.8-1.7-.4-.7-.6-1.5-.6-2.4 0-.9.2-1.7.6-2.4.4-.7 1-1.3 1.8-1.7.7-.4 1.6-.6 2.5-.6.9 0 1.8.2 2.5.6.7.4 1.3 1 1.8 1.7.4.7.6 1.5.6 2.4 0 .9-.2 1.7-.6 2.4-.4.7-1 1.3-1.8 1.7s-1.6.6-2.5.6c-.9 0-1.7-.2-2.5-.6zm4.2-1.3c.5-.3.9-.7 1.2-1.1.3-.5.4-1 .4-1.7 0-.6-.1-1.2-.4-1.7-.3-.5-.7-.9-1.1-1.2-.5-.3-1-.4-1.6-.4-.6 0-1.2.1-1.6.4-.5.3-.9.7-1.2 1.1-.3.5-.4 1-.4 1.7 0 .6.1 1.2.4 1.7.3.5.7.9 1.1 1.2.5.3 1 .4 1.6.4.6 0 1.1-.1 1.6-.4z" id="prefix__path1510"/><path class="prefix__st45" d="M246.2 356.4v3.4h-1.6v-1.9h-7v1.9H236v-3.4h.4c.6 0 1-.4 1.2-1.3.2-.8.4-2 .4-3.5l.1-2.9h6.7v7.7h1.4zm-7-1.7c-.1.8-.4 1.4-.7 1.7h4.6v-6.3h-3.6l-.1 1.6c.1 1.3 0 2.3-.2 3z" id="prefix__path1512"/><path class="prefix__st45" d="M249.5 357.4c-.7-.4-1.3-1-1.8-1.7-.4-.7-.6-1.5-.6-2.4 0-.9.2-1.7.6-2.4.4-.7 1-1.3 1.8-1.7.7-.4 1.6-.6 2.5-.6.9 0 1.8.2 2.5.6.7.4 1.3 1 1.8 1.7.4.7.6 1.5.6 2.4 0 .9-.2 1.7-.6 2.4-.4.7-1 1.3-1.8 1.7s-1.6.6-2.5.6c-1 0-1.8-.2-2.5-.6zm4.1-1.3c.5-.3.9-.7 1.2-1.1.3-.5.4-1 .4-1.7 0-.6-.1-1.2-.4-1.7-.3-.5-.7-.9-1.1-1.2-.5-.3-1-.4-1.6-.4-.6 0-1.2.1-1.6.4-.5.3-.9.7-1.2 1.1-.3.5-.4 1-.4 1.7 0 .6.1 1.2.4 1.7.3.5.7.9 1.1 1.2.5.3 1 .4 1.6.4.6 0 1.1-.1 1.6-.4z" id="prefix__path1514"/><path class="prefix__st45" d="M258.8 348.8h7.1v1.4h-5.4v2.2h2.7c1.1 0 1.9.2 2.5.7.6.5.9 1.1.9 2 0 .9-.3 1.6-.9 2.1-.6.5-1.5.7-2.7.7h-4.1l-.1-9.1zm4 7.8c.7 0 1.1-.1 1.5-.4.3-.3.5-.6.5-1.1 0-.9-.7-1.4-2-1.4h-2.4v2.9h2.4z" id="prefix__path1516"/><path class="prefix__st45" d="M274.2 349.2c.6.3 1 .6 1.3 1.1.3.5.5 1.1.5 1.7 0 .7-.2 1.2-.5 1.7s-.8.9-1.4 1.1c-.6.3-1.3.4-2.1.4h-2.1v2.6h-1.7v-9.1h3.8c1 .1 1.6.2 2.2.5zm-.4 4.2c.4-.3.6-.8.6-1.3 0-.6-.2-1-.6-1.3-.4-.3-.9-.5-1.7-.5h-2v3.6h2c.7 0 1.3-.2 1.7-.5z" id="prefix__path1518"/><path class="prefix__st45" d="M284.5 356.5v1.4h-6.9v-9.1h6.7v1.4h-5v2.4h4.4v1.4h-4.4v2.5h5.2z" id="prefix__path1520"/><path class="prefix__st45" d="M294.5 348.8v9.1h-1.7V354h-4.7v3.9h-1.7v-9.1h1.7v3.8h4.7v-3.8h1.7z" id="prefix__path1522"/><path class="prefix__st45" d="M297.1 348.8h1.7v6.5l4.9-6.5h1.6v9.1h-1.7v-6.5l-4.9 6.5h-1.6v-9.1z" id="prefix__path1524"/><path class="prefix__st45" d="M314.7 356.6v1.4h-6.9v-9.1h6.7v1.4h-5v2.4h4.4v1.4h-4.4v2.5h5.2z" id="prefix__path1526"/></g><circle cx="267.4" cy="316.3" r="21.5" id="prefix__circle1530" fill="none" stroke="#ffcb57" stroke-width="1.66" stroke-miterlimit="10"/><g id="prefix__g1540"><g id="prefix__g1534"><path class="prefix__st3" d="M261.6 327.7h-1.8v-12.6l.2-.2c1.4-1.4 2.4-3.2 3.5-4.9.2-.4.4-.8.7-1.1.4-.6.4-2 .4-3s0-1.8.3-2.3c.3-.4.7-.7 1.3-.7 1-.1 2 .4 2.5 1.4 1.5 3.1 1.2 5 .7 7.6-.1.4-.1.7-.2 1.1h6.6c.9 0 2 .2 2.6.9.2.3.5.8.3 1.5-.1.8-.5 1.4-1.1 1.9.4.4.6 1 .5 1.6-.1.7-.5 1.4-1.1 1.8.3.4.5.8.5 1.4 0 .8-.5 1.6-1.1 2.1.4.5.5 1 .4 1.6-.3 1.2-1.6 2.1-2.9 2.1-3.4-.2-9.7-.2-12.3-.2zm-.4-1.4h12.5c.8 0 1.5-.6 1.6-1.1 0-.1.1-.3-.3-.6-.4-.1-.6-.5-.6-.9s.4-.7.8-.8c.5-.2.8-.7.8-1.1 0-.4-.3-.6-.5-.6h-.1c-.4-.2-.5-.5-.5-.9.1-.4.5-.6.8-.7.4-.1.8-.6.8-1s-.1-.5-.3-.6h-.1c-.2-.1-.5-.2-.6-.6v-.2c-.1-.4.1-.8.5-.9h.2c.6-.2.9-.6 1-1.2 0-.3 0-.4-.1-.4-.1-.2-.5-.3-1.6-.4H267.3l.1-.8c.1-.7.2-1.4.3-1.9.5-2.6.8-4.1-.5-6.8-.2-.4-.7-.7-1.1-.6-.2 0-.3.1-.3.1-.1.2-.1 1-.1 1.6 0 1.3.1 2.8-.6 3.8-.2.4-.4.7-.6 1.1-1 1.8-2 3.6-3.5 5v10.5z" id="prefix__path1532"/></g><g id="prefix__g1538"><path class="prefix__st3" d="M260 327.7h-2.7c-.6 0-1.2-.5-1.2-1.2v-10.6c0-.6.5-1.2 1.2-1.2h2.7c.6 0 1.2.5 1.2 1.2v10.6c-.1.7-.6 1.2-1.2 1.2zm-2.5-1.4h2.3v-10.2h-2.3v10.2z" id="prefix__path1536"/></g></g><radialGradient id="prefix__SVGID_10_" cx="-1425.219" cy="4893.339" r="59.465" gradientTransform="matrix(.5538 0 0 .04348 1059.496 129.554)" gradientUnits="userSpaceOnUse"><stop offset=".103" id="prefix__stop1542" stop-color="#e0e3e2"/><stop offset=".268" id="prefix__stop1544" stop-color="#e9ebea"/><stop offset=".684" id="prefix__stop1546" stop-color="#f9fafa"/><stop offset="1" id="prefix__stop1548" stop-color="#fff"/></radialGradient><ellipse cx="270.2" cy="342.3" rx="46.5" ry="2.2" id="prefix__ellipse1551" opacity=".9" fill="url(#prefix__SVGID_10_)"/><path class="prefix__st45" d="M252.736 590.91h-3.2l-.6 1.5h-1.3l2.9-6.5h1.2l3 6.5h-1.3zm-.4-1l-1.2-2.9-1.2 2.9z" id="prefix__path977-8" fill="#32a9fe"/></svg>