<svg xmlns="http://www.w3.org/2000/svg" xmlns:xlink="http://www.w3.org/1999/xlink" viewBox="0 0 1056.945 1114.56">
    <defs>
        <radialGradient id="a" cx="-832.758" cy="5197.349" r="129.273" gradientTransform="translate(770.307 294.979) scale(0.554 0.043)" gradientUnits="userSpaceOnUse">
            <stop offset="0.103" stop-color="#e0e3e2" />
            <stop offset="0.268" stop-color="#e9ebea" />
            <stop offset="0.684" stop-color="#f9fafa" />
            <stop offset="1" stop-color="#fff" />
        </radialGradient>
        <radialGradient id="b" cx="303.71" cy="4843.185" r="129.273" gradientTransform="translate(770.307 156.388) scale(0.554 0.043)" xlink:href="#a" />
        <radialGradient id="c" cx="-225.679" cy="4430.826" r="129.273" gradientTransform="translate(770.307 -4.977) scale(0.554 0.043)" xlink:href="#a" />
        <radialGradient id="d" cx="334.358" cy="2971.443" r="129.273" gradientTransform="translate(571.113 430.33) scale(0.639 0.06)" xlink:href="#a" />
        <radialGradient id="e" cx="-1419.561" cy="2725.407" r="129.273" gradientTransform="translate(821.469 124.864) scale(0.501 0.054)" xlink:href="#a" />
        <radialGradient id="f" cx="-301.773" cy="5856.199" r="129.273" gradientTransform="translate(770.307 552.8) scale(0.554 0.043)" xlink:href="#a" />
        <radialGradient id="g" cx="-1018.951" cy="6187.858" r="129.273" gradientTransform="translate(770.307 682.585) scale(0.554 0.043)" xlink:href="#a" />
        <radialGradient id="h" cx="15.294" cy="6456.655" r="158" gradientTransform="translate(770.307 787.771) scale(0.554 0.043)" xlink:href="#a" />
        <radialGradient id="i" cx="64.887" cy="2399.579" r="129.273" gradientTransform="translate(260.296 -34.164) scale(0.296 0.054)" xlink:href="#a" />
        <radialGradient id="j" cx="-1083.716" cy="5791.801" r="129.273" gradientTransform="translate(770.307 527.6) scale(0.554 0.043)" xlink:href="#a" />
    </defs>
    <title>How it works bg-en curves-02</title>
    <g style="isolation:isolate">
        <path d="M217.433,553.7a9.776,9.776,0,0,1-3.826-3.67,10.549,10.549,0,0,1,.02-10.475,9.759,9.759,0,0,1,3.839-3.655,12.031,12.031,0,0,1,10.958.02,9.808,9.808,0,0,1,3.826,3.655,10.611,10.611,0,0,1-.02,10.5,9.8,9.8,0,0,1-3.839,3.641,12.031,12.031,0,0,1-10.958-.02Zm9.061-2.794a6.467,6.467,0,0,0,2.5-2.494,7.557,7.557,0,0,0,.012-7.183,6.467,6.467,0,0,0-2.493-2.5,7.6,7.6,0,0,0-7.154-.013,6.472,6.472,0,0,0-2.5,2.493,7.55,7.55,0,0,0-.012,7.183,6.463,6.463,0,0,0,2.493,2.5,7.6,7.6,0,0,0,7.154.013Z" style="fill:#32a9fe" />
        <path d="M256.841,551.682l-.014,7.352-3.406-.006.008-4.23-15.245-.028-.008,4.23-3.435-.006.041-7.353h.852q1.875-.081,2.631-2.763a34.429,34.429,0,0,0,.936-7.677l.239-6.3,14.564.027-.03,16.749Zm-15.04-3.705a7.291,7.291,0,0,1-1.54,3.674l10.079.018.025-13.626-7.779-.015-.149,3.521A44.548,44.548,0,0,1,241.8,547.977Z" style="fill:#32a9fe" />
        <path d="M264.02,553.781a9.773,9.773,0,0,1-3.826-3.669,10.554,10.554,0,0,1,.019-10.476,9.768,9.768,0,0,1,3.84-3.655,12.031,12.031,0,0,1,10.958.02,9.822,9.822,0,0,1,3.826,3.655,10.611,10.611,0,0,1-.02,10.5,9.8,9.8,0,0,1-3.839,3.641,12.031,12.031,0,0,1-10.958-.02Zm9.061-2.794a6.465,6.465,0,0,0,2.5-2.494,7.553,7.553,0,0,0,.013-7.183,6.476,6.476,0,0,0-2.494-2.5,7.6,7.6,0,0,0-7.153-.013,6.472,6.472,0,0,0-2.5,2.493,7.553,7.553,0,0,0-.013,7.183,6.472,6.472,0,0,0,2.494,2.5,7.6,7.6,0,0,0,7.154.013Z" style="fill:#32a9fe" />
        <path d="M284.352,534.982l15.472.028-.006,3.038-11.838-.022-.008,4.883,5.876.011a8.534,8.534,0,0,1,5.434,1.5,5.191,5.191,0,0,1,1.852,4.305,5.452,5.452,0,0,1-2.053,4.552,9.238,9.238,0,0,1-5.823,1.593l-8.942-.016Zm8.713,17.05a5.378,5.378,0,0,0,3.237-.817,2.789,2.789,0,0,0,1.112-2.384q.006-3.065-4.338-3.074l-5.11-.009-.011,6.274Z" style="fill:#32a9fe" />
        <path d="M317.864,535.9a6.535,6.535,0,0,1,2.933,2.447,7.459,7.459,0,0,1-.014,7.537,6.507,6.507,0,0,1-2.942,2.45,11.031,11.031,0,0,1-4.5.844l-4.485-.008-.01,5.734-3.691-.006.036-19.873,8.176.015A10.988,10.988,0,0,1,317.864,535.9Zm-1.025,9.139a4.045,4.045,0,0,0,.01-5.848,5.671,5.671,0,0,0-3.659-1.029l-4.316-.007-.014,7.892,4.315.007A5.661,5.661,0,0,0,316.839,545.034Z" style="fill:#32a9fe" />
        <path d="M340.191,551.862l0,3.094-14.9-.027.036-19.872,14.507.026,0,3.1L329,538.158l-.01,5.167,9.6.017,0,3.038-9.6-.018-.01,5.479Z" style="fill:#32a9fe" />
        <path d="M362,535.124,361.961,555l-3.691-.007.015-8.517-10.276-.018-.016,8.517-3.691-.007.036-19.872,3.691.007-.015,8.2,10.277.018.014-8.2Z" style="fill:#32a9fe" />
        <path d="M367.589,535.134l3.634.006-.026,14.11,10.7-14.09,3.435.007-.036,19.872-3.633-.007.026-14.08-10.7,14.061-3.435-.006Z" style="fill:#32a9fe" />
        <path d="M405.771,551.982l-.006,3.094-14.9-.027.035-19.872,14.508.026-.006,3.1-10.816-.02-.01,5.167,9.595.017,0,3.038-9.595-.017-.01,5.479Z" style="fill:#32a9fe" />
        <circle cx="302.932" cy="464.445" r="46.676" style="fill:none;stroke:#ffcb57;stroke-miterlimit:10;stroke-width:3.60854504571751px" />
        <path d="M290.451,489.228h-3.946V461.9l.452-.44c3.064-2.977,5.32-6.925,7.5-10.744.471-.823.939-1.643,1.413-2.45l.052-.081c.934-1.379.862-4.273.8-6.6-.054-2.211-.1-3.958.591-5.05a3.726,3.726,0,0,1,2.741-1.612,5.328,5.328,0,0,1,5.451,2.983c3.318,6.669,2.53,10.835,1.439,16.6-.149.792-.3,1.6-.453,2.454,2.272.053,4.574.028,6.816,0,2.488-.027,5.06-.055,7.6.023,1.935.06,4.324.332,5.623,1.924a3.9,3.9,0,0,1,.751,3.24,5.943,5.943,0,0,1-2.374,4.036A4.122,4.122,0,0,1,326,469.672a5.975,5.975,0,0,1-2.344,3.921,4.267,4.267,0,0,1,1.05,2.967,5.817,5.817,0,0,1-2.394,4.492,3.828,3.828,0,0,1,.807,3.511,6.793,6.793,0,0,1-6.41,4.654C309.68,489.227,296.023,489.228,290.451,489.228Zm-.962-2.985c4.767,0,19.74,0,27.217-.01a3.879,3.879,0,0,0,3.519-2.393c.057-.229.188-.754-.722-1.287a1.817,1.817,0,0,1-1.292-1.932,1.968,1.968,0,0,1,1.778-1.686,2.792,2.792,0,0,0,1.734-2.438,1.272,1.272,0,0,0-1.024-1.356l-.11-.034-.1-.05a1.744,1.744,0,0,1-.991-2,2.16,2.16,0,0,1,1.765-1.516,3,3,0,0,0,1.782-2.247,1.186,1.186,0,0,0-.621-1.3l-.073-.046c-.037-.018-.077-.034-.117-.05a2.407,2.407,0,0,1-1.389-1.236l-.05-.117-.029-.124a1.815,1.815,0,0,1,1.032-2.057l.137-.068.148-.039a2.885,2.885,0,0,0,2.255-2.569l0-.029c.1-.592-.058-.788-.118-.862-.277-.338-1.092-.757-3.4-.828-2.475-.076-5.015-.048-7.472-.021-2.839.031-5.775.063-8.666-.063l-1.668-.073.259-1.649c.242-1.541.51-2.96.747-4.211,1.055-5.579,1.692-8.947-1.179-14.718a2.348,2.348,0,0,0-2.377-1.355.974.974,0,0,0-.619.247,14.156,14.156,0,0,0-.131,3.384c.071,2.876.152,6.132-1.289,8.3-.46.784-.915,1.581-1.373,2.381-2.181,3.817-4.433,7.757-7.561,10.953Z" style="fill:#ffcb57" />
        <path d="M286.865,489.228h-5.8a2.561,2.561,0,0,1-2.558-2.558V463.594a2.561,2.561,0,0,1,2.558-2.557h5.8a2.56,2.56,0,0,1,2.557,2.557V486.67A2.56,2.56,0,0,1,286.865,489.228Zm-5.372-2.985h4.945V464.021h-4.945Z" style="fill:#ffcb57" />
        <ellipse cx="309.126" cy="520.96" rx="101.066" ry="4.732" style="opacity:0.9;mix-blend-mode:darken;fill:url(#a)" />
        <path d="M890.931,416.6v17.551H886.9V419.911h-7.924v14.243h-4.038V416.6Z" style="fill:#32a9fe" />
        <path d="M897.488,433.464A6.6,6.6,0,0,1,894.843,431a7.225,7.225,0,0,1,0-7.173,6.636,6.636,0,0,1,2.645-2.47,8.632,8.632,0,0,1,7.635,0,6.658,6.658,0,0,1,2.634,2.47,7.225,7.225,0,0,1,0,7.173,6.649,6.649,0,0,1-2.634,2.469,8.624,8.624,0,0,1-7.635,0Zm6.293-3.335a4.317,4.317,0,0,0,0-5.441,3.254,3.254,0,0,0-2.47-1.016,3.3,3.3,0,0,0-2.483,1.016,4.276,4.276,0,0,0,0,5.441,3.294,3.294,0,0,0,2.483,1.016A3.254,3.254,0,0,0,903.781,430.129Z" style="fill:#32a9fe" />
        <path d="M925.156,420.663V431.9q0,3.711-1.931,5.517a7.972,7.972,0,0,1-5.642,1.806,14.153,14.153,0,0,1-3.712-.477,8.105,8.105,0,0,1-2.908-1.378l1.555-2.808a6.426,6.426,0,0,0,2.156,1.116,8.583,8.583,0,0,0,2.609.414,4.236,4.236,0,0,0,3-.915,3.649,3.649,0,0,0,.964-2.772v-.577a5.472,5.472,0,0,1-4.262,1.68,7.163,7.163,0,0,1-3.4-.814,6.217,6.217,0,0,1-2.445-2.293,6.883,6.883,0,0,1,0-6.82,6.223,6.223,0,0,1,2.445-2.3,7.163,7.163,0,0,1,3.4-.814,5.351,5.351,0,0,1,4.463,1.931v-1.73h3.712Zm-4.853,8.714a3.387,3.387,0,0,0,0-4.788,3.608,3.608,0,0,0-2.546-.915,3.653,3.653,0,0,0-2.557.915,3.361,3.361,0,0,0,0,4.788,3.653,3.653,0,0,0,2.557.915A3.6,3.6,0,0,0,920.3,429.377Z" style="fill:#32a9fe" />
        <path d="M934.809,429.039H932.8v5.115h-3.887V415.549H932.8v10.356h2.08l3.685-5.24h4.161l-4.738,6.47,5.04,7.02h-4.613Z" style="fill:#32a9fe" />
        <path d="M956.334,421.328a6.232,6.232,0,0,1,2.42,2.432,8.028,8.028,0,0,1,0,7.3,6.212,6.212,0,0,1-2.42,2.432,6.873,6.873,0,0,1-3.423.866,5.214,5.214,0,0,1-4.063-1.629v6.293h-3.911V420.665h3.736v1.555a5.2,5.2,0,0,1,4.238-1.756A6.876,6.876,0,0,1,956.334,421.328Zm-1.629,8.8a4.321,4.321,0,0,0,0-5.441,3.51,3.51,0,0,0-4.94,0,4.321,4.321,0,0,0,0,5.441,3.51,3.51,0,0,0,4.94,0Z" style="fill:#32a9fe" />
        <path d="M975.4,428.513H965.2a3.177,3.177,0,0,0,1.3,1.98,4.321,4.321,0,0,0,2.557.727,5.177,5.177,0,0,0,1.868-.313,4.529,4.529,0,0,0,1.517-.991l2.08,2.257a6.991,6.991,0,0,1-5.566,2.182,8.8,8.8,0,0,1-4.038-.891A6.512,6.512,0,0,1,962.213,431a6.8,6.8,0,0,1-.953-3.587,6.886,6.886,0,0,1,.94-3.572,6.584,6.584,0,0,1,2.582-2.484,8,8,0,0,1,7.259-.038,6.216,6.216,0,0,1,2.519,2.446,7.287,7.287,0,0,1,.916,3.7C975.477,427.509,975.453,427.86,975.4,428.513Zm-9.152-4.34a3.2,3.2,0,0,0-1.1,2.056h6.645a3.239,3.239,0,0,0-1.1-2.042,3.305,3.305,0,0,0-2.206-.765A3.383,3.383,0,0,0,966.251,424.173Z" style="fill:#32a9fe" />
        <path d="M990.71,421.967a5.971,5.971,0,0,1,1.542,4.464v7.723h-3.911v-7.121a3.509,3.509,0,0,0-.7-2.394,2.579,2.579,0,0,0-2.032-.79,3.113,3.113,0,0,0-2.356.915,3.792,3.792,0,0,0-.877,2.72v6.67h-3.91V420.663H982.2v1.58a5.2,5.2,0,0,1,1.93-1.316,6.736,6.736,0,0,1,2.533-.463A5.554,5.554,0,0,1,990.71,421.967Z" style="fill:#32a9fe" />
        <path d="M1008.975,420.663v13.491h-3.736v-1.58a4.825,4.825,0,0,1-1.843,1.329,5.985,5.985,0,0,1-2.32.452,5.782,5.782,0,0,1-4.224-1.53,6.066,6.066,0,0,1-1.568-4.54v-7.622H999.2v7.045q0,3.261,2.733,3.26a2.967,2.967,0,0,0,2.282-.915,3.861,3.861,0,0,0,.853-2.721v-6.669Z" style="fill:#32a9fe" />
        <path d="M1012.387,433.652a2.376,2.376,0,0,1-.7-1.754,2.287,2.287,0,0,1,.7-1.743,2.584,2.584,0,0,1,3.459,0,2.3,2.3,0,0,1,.7,1.743,2.4,2.4,0,0,1-2.432,2.457A2.345,2.345,0,0,1,1012.387,433.652Z" style="fill:#32a9fe" />
        <path d="M1029.962,422.381a5.5,5.5,0,0,1,2.244,2.22,6.737,6.737,0,0,1,.79,3.309,6.148,6.148,0,0,1-3.559,5.729,8.632,8.632,0,0,1-3.812.814,7.051,7.051,0,0,1-5.555-2.268q-2.019-2.269-2.018-6.658a10.752,10.752,0,0,1,1.767-6.481,8.526,8.526,0,0,1,5.428-3.172l6.418-1.28.526,3.36-5.667,1.128a6.849,6.849,0,0,0-3.423,1.5,4.594,4.594,0,0,0-1.315,2.985,5.948,5.948,0,0,1,2.107-1.468,6.889,6.889,0,0,1,2.683-.514A7.013,7.013,0,0,1,1029.962,422.381Zm-1.892,8.061a3.492,3.492,0,0,0,.915-2.483,3.13,3.13,0,0,0-3.336-3.336,3.369,3.369,0,0,0-2.456.9,3.235,3.235,0,0,0-.929,2.432,3.4,3.4,0,0,0,.953,2.494,3.272,3.272,0,0,0,2.432.965A3.143,3.143,0,0,0,1028.07,430.442Z" style="fill:#32a9fe" />
        <path d="M1036.381,433.252a3.577,3.577,0,0,1-1.805-3.21,2.986,2.986,0,0,1,.765-2.17,4.319,4.319,0,0,1,1.818-1.128,22.2,22.2,0,0,1,2.683-.64,13.443,13.443,0,0,0,2.219-.539.92.92,0,0,0,.689-.89,1.044,1.044,0,0,0-.651-.978,4.117,4.117,0,0,0-1.8-.327,9.777,9.777,0,0,0-2.231.276,8.911,8.911,0,0,0-1.931.651l-1.127-2.633a11.278,11.278,0,0,1,2.532-.94,11.522,11.522,0,0,1,2.759-.338,8.017,8.017,0,0,1,4.487,1.154,3.681,3.681,0,0,1,1.755,3.26,3.041,3.041,0,0,1-.777,2.206,4.373,4.373,0,0,1-1.843,1.141,20.147,20.147,0,0,1-2.721.615,13.139,13.139,0,0,0-2.181.539.892.892,0,0,0-.678.841,1.044,1.044,0,0,0,.689.978,4.356,4.356,0,0,0,1.844.326,10.392,10.392,0,0,0,2.658-.364,9.667,9.667,0,0,0,2.23-.839l1.128,2.608a11.088,11.088,0,0,1-2.8,1.128,12.319,12.319,0,0,1-3.121.4A8.529,8.529,0,0,1,1036.381,433.252Z" style="fill:#32a9fe" />
        <path d="M848.121,397.923a5.247,5.247,0,0,1-.937,7.139,9.2,9.2,0,0,1-5.592,1.448h-9.426V386.638h8.886a8.893,8.893,0,0,1,5.224,1.334,4.363,4.363,0,0,1,1.873,3.776,4.774,4.774,0,0,1-.752,2.7,4.706,4.706,0,0,1-2.172,1.731A5.376,5.376,0,0,1,848.121,397.923Zm-12.321-2.8h4.94a4.456,4.456,0,0,0,2.725-.71,2.471,2.471,0,0,0,.937-2.1,2.507,2.507,0,0,0-.937-2.114,4.388,4.388,0,0,0-2.725-.724H835.8Zm9.6,5.592q0-2.9-3.917-2.895H835.8v5.848h5.678Q845.4,403.672,845.4,400.719Z" style="fill:#32a9fe" />
        <path d="M866.488,401.911h-9.935l-1.96,4.6h-3.8l8.943-19.872h3.634l8.971,19.872h-3.861Zm-1.22-2.895-3.748-8.688-3.718,8.688Z" style="fill:#32a9fe" />
        <path d="M892.493,386.638V406.51h-3.634V389.761h-7.836l-.17,4.968a41.518,41.518,0,0,1-.681,6.771,8.5,8.5,0,0,1-1.732,3.946,4.165,4.165,0,0,1-3.293,1.348,9.916,9.916,0,0,1-2.016-.284l.256-3.207a2.926,2.926,0,0,0,.852.113,2.571,2.571,0,0,0,2.455-2.058,23.958,23.958,0,0,0,.9-6.487l.283-8.233Z" style="fill:#32a9fe" />
        <path d="M898.114,386.638h3.634v14.109l10.674-14.109h3.435V406.51h-3.633V392.429L901.549,406.51h-3.435Z" style="fill:#32a9fe" />
        <path d="M940.925,403.388v7.352h-3.407v-4.23H922.274v4.23h-3.436l.029-7.352h.851q1.875-.085,2.626-2.768a34.415,34.415,0,0,0,.923-7.68l.227-6.3h14.564v16.75Zm-15.046-3.677a7.3,7.3,0,0,1-1.533,3.677h10.078V389.761h-7.779l-.141,3.52A44.768,44.768,0,0,1,925.879,399.711Z" style="fill:#32a9fe" />
        <path d="M944.416,386.638h3.635v14.109l10.674-14.109h3.435V406.51h-3.634V392.429L947.852,406.51h-3.436Z" style="fill:#32a9fe" />
        <path d="M980.4,387.49a6.536,6.536,0,0,1,2.938,2.441,7.461,7.461,0,0,1,0,7.538,6.507,6.507,0,0,1-2.938,2.455,11,11,0,0,1-4.5.852h-4.485v5.734h-3.691V386.638H975.9A10.982,10.982,0,0,1,980.4,387.49Zm-1.008,9.141a4.046,4.046,0,0,0,0-5.849,5.676,5.676,0,0,0-3.662-1.021h-4.315v7.892h4.315A5.67,5.67,0,0,0,979.392,396.631Z" style="fill:#32a9fe" />
        <path d="M1000.031,401.911H990.1l-1.959,4.6h-3.8l8.943-19.872h3.633l8.971,19.872h-3.861Zm-1.221-2.895-3.747-8.688-3.719,8.688Z" style="fill:#32a9fe" />
        <path d="M1026.575,386.638V406.51h-3.691v-8.516h-10.276v8.516h-3.691V386.638h3.691v8.2h10.276v-8.2Z" style="fill:#32a9fe" />
        <path d="M1047.044,403.416v3.094h-14.905V386.638h14.507v3.094H1035.83V394.9h9.6v3.038h-9.6v5.479Z" style="fill:#32a9fe" />
        <path d="M834.014,433.42a7.014,7.014,0,0,1-2.747-2.624,7.569,7.569,0,0,1,0-7.506,7,7,0,0,1,2.747-2.623,8.616,8.616,0,0,1,7.85,0,7.026,7.026,0,0,1,2.746,2.613,7.6,7.6,0,0,1,0,7.526,7.029,7.029,0,0,1-2.746,2.614,8.624,8.624,0,0,1-7.85,0Zm6.487-2.014a4.617,4.617,0,0,0,1.79-1.79,5.4,5.4,0,0,0,0-5.146,4.631,4.631,0,0,0-1.79-1.79,5.45,5.45,0,0,0-5.125,0,4.644,4.644,0,0,0-1.79,1.79,5.41,5.41,0,0,0,0,5.146,4.631,4.631,0,0,0,1.79,1.79,5.443,5.443,0,0,0,5.125,0Z" style="fill:#32a9fe" />
        <path d="M858.665,422.161h-4.719v12h-2.624v-12h-4.7v-2.236h12.042Z" style="fill:#32a9fe" />
        <path d="M962.019,308.966H936.754a1.882,1.882,0,0,1,0-3.764h25.265a1.882,1.882,0,0,1,0,3.764Z" style="fill:#ffcb57" />
        <path d="M962.019,341.792h-9.148a1.882,1.882,0,1,1,0-3.763h9.148a1.882,1.882,0,1,1,0,3.763Z" style="fill:#ffcb57" />
        <path d="M961.8,317.233H940.182a1.882,1.882,0,0,1,0-3.764H961.8a1.882,1.882,0,0,1,0,3.764Z" style="fill:#ffcb57" />
        <path d="M962.019,325.387H936.754a1.882,1.882,0,0,1,0-3.764h25.265a1.882,1.882,0,0,1,0,3.764Z" style="fill:#ffcb57" />
        <path d="M972.7,292.961a1.881,1.881,0,0,0-.746-1.5l-22.123-22.123-.014-.01a1.881,1.881,0,0,0-.379-.281c-.039-.022-.077-.043-.117-.062a1.848,1.848,0,0,0-.447-.16l-.021,0a1.876,1.876,0,0,0-.352-.035H905.178a1.88,1.88,0,0,0-1.882,1.882v19.006c.7-.063,1.418-.1,2.145-.1.54,0,1.079.013,1.619.063V272.55h39.554v20.411a1.882,1.882,0,0,0,1.882,1.882h20.411v59.525H907.06V337.282c-.54.05-1.079.063-1.619.063-.727,0-1.442-.038-2.145-.1V356.25a1.88,1.88,0,0,0,1.882,1.882h65.61a1.879,1.879,0,0,0,1.882-1.882V293.21A1.859,1.859,0,0,0,972.7,292.961Zm-22.317-1.882V275.211l15.868,15.868Z" style="fill:#ffcb57" />
        <path d="M902.375,323.9a1.878,1.878,0,0,1-1.242-.468l-8.335-7.321a1.882,1.882,0,1,1,2.483-2.828l6.9,6.057,13.23-15.632a1.882,1.882,0,0,1,2.873,2.432l-14.469,17.094a1.878,1.878,0,0,1-1.3.661C902.467,323.9,902.421,323.9,902.375,323.9Z" style="fill:#ffcb57" />
        <path d="M905.441,339.227c-.739,0-1.5-.036-2.312-.108a25.764,25.764,0,0,1,0-51.32,22.4,22.4,0,0,1,4.1-.037,25.759,25.759,0,0,1-.047,51.4C906.636,339.211,906.038,339.227,905.441,339.227Zm0-47.772c-.627,0-1.274.031-1.978.093a22,22,0,0,0,0,43.822,18.522,18.522,0,0,0,3.425.039,22,22,0,0,0,.048-43.9C906.405,291.466,905.923,291.455,905.441,291.455Z" style="fill:#ffcb57" />
        <ellipse cx="938.502" cy="366.969" rx="101.066" ry="4.732" style="opacity:0.9;mix-blend-mode:darken;fill:url(#b)" />
        <path d="M591.814,218.193a9.732,9.732,0,0,1-3.8-3.648,10.657,10.657,0,0,1,.014-10.5,9.833,9.833,0,0,1,3.819-3.648,11.19,11.19,0,0,1,5.436-1.32,11.353,11.353,0,0,1,4.457.851,9.09,9.09,0,0,1,3.407,2.471l-2.385,2.242a6.952,6.952,0,0,0-5.309-2.327,7.446,7.446,0,0,0-3.662.893,6.449,6.449,0,0,0-2.527,2.484,7.612,7.612,0,0,0,0,7.211,6.435,6.435,0,0,0,2.527,2.484,7.437,7.437,0,0,0,3.662.895,6.914,6.914,0,0,0,5.309-2.356l2.385,2.27a9.068,9.068,0,0,1-3.421,2.471,11.458,11.458,0,0,1-4.471.851A11.191,11.191,0,0,1,591.814,218.193Z" style="fill:#32a9fe" />
        <path d="M626.421,207.689a5.849,5.849,0,0,1,1.916,4.755,6.191,6.191,0,0,1-2.087,5.053,9.074,9.074,0,0,1-5.947,1.732h-8.517V202.48h-5.82v-3.123h9.454v6.728h5.508A8.341,8.341,0,0,1,626.421,207.689Zm-2.953,7.707a3.614,3.614,0,0,0,1.15-2.895q0-3.6-4.457-3.606H615.42v7.495h4.741A4.9,4.9,0,0,0,623.468,215.4Z" style="fill:#32a9fe" />
        <path d="M644.76,210.7a4.614,4.614,0,0,1,1.008,2.966,4.551,4.551,0,0,1-1.164,3.11A7.451,7.451,0,0,1,641.5,218.8a12.3,12.3,0,0,1-4.245.71,14.94,14.94,0,0,1-3.988-.553,13.237,13.237,0,0,1-3.705-1.661l1.192-2.7a10.411,10.411,0,0,0,2.9,1.348,11.117,11.117,0,0,0,3.151.469,7.248,7.248,0,0,0,3.733-.88,2.694,2.694,0,0,0,1.491-2.413,2.209,2.209,0,0,0-1.079-1.988,5.566,5.566,0,0,0-2.981-.681h-4.627v-2.9h4.343a4.324,4.324,0,0,0,2.584-.681,2.164,2.164,0,0,0,.936-1.846,2.4,2.4,0,0,0-1.263-2.157,6.128,6.128,0,0,0-3.222-.767,10.53,10.53,0,0,0-2.754.384,10.728,10.728,0,0,0-2.668,1.12l-1.164-2.98a13.5,13.5,0,0,1,3.25-1.235,14.66,14.66,0,0,1,3.421-.411,11.786,11.786,0,0,1,4.074.68,7.121,7.121,0,0,1,2.967,1.945,4.36,4.36,0,0,1,1.107,2.967,4.313,4.313,0,0,1-.8,2.584,5.09,5.09,0,0,1-2.186,1.7A5.656,5.656,0,0,1,644.76,210.7Z" style="fill:#32a9fe" />
        <path d="M669.643,216.106v7.353h-3.407v-4.23H650.992v4.23h-3.436l.029-7.353h.851q1.875-.084,2.626-2.768a34.405,34.405,0,0,0,.923-7.679l.227-6.3h14.564v16.749ZM654.6,212.43a7.3,7.3,0,0,1-1.533,3.676h10.078V202.48h-7.779l-.141,3.52A44.625,44.625,0,0,1,654.6,212.43Z" style="fill:#32a9fe" />
        <path d="M686.421,214.63h-9.936l-1.959,4.6h-3.8l8.943-19.872H683.3l8.971,19.872h-3.861Zm-1.22-2.895-3.748-8.687-3.719,8.687Z" style="fill:#32a9fe" />
        <path d="M695.335,199.357h3.634v14.109l10.674-14.109h3.435v19.872h-3.633V205.148L698.77,219.229h-3.435Zm4.982-2.385a3.8,3.8,0,0,1-1.32-3.066h2.583a2.111,2.111,0,0,0,.682,1.618,2.815,2.815,0,0,0,1.9.568,2.943,2.943,0,0,0,1.916-.568,2.042,2.042,0,0,0,.724-1.618h2.555a3.766,3.766,0,0,1-1.348,3.051,7.526,7.526,0,0,1-7.694.015Z" style="fill:#32a9fe" />
        <path d="M592.568,237.636h-2.644v6h-2.6V229.4h2.6v5.96h2.726l4.087-5.96h2.807l-4.861,6.9,5.044,7.343h-2.99Z" style="fill:#32a9fe" />
        <path d="M610.731,240.342h-7.119l-1.4,3.295h-2.725L605.89,229.4h2.6l6.427,14.239h-2.766Zm-.875-2.075-2.685-6.223-2.664,6.223Z" style="fill:#32a9fe" />
        <path d="M630.175,243.637l-.02-9.438-4.678,7.811H624.3l-4.678-7.689v9.316h-2.5V229.4h2.177l5.634,9.418L630.5,229.4h2.157l.04,14.239Z" style="fill:#32a9fe" />
        <path d="M649.295,229.4v14.239h-2.6v-12h-7.383v12h-2.6V229.4Z" style="fill:#32a9fe" />
        <path d="M662.739,240.342H655.62l-1.4,3.295h-2.725L657.9,229.4h2.6l6.427,14.239h-2.766Zm-.875-2.075-2.685-6.223-2.664,6.223Z" style="fill:#32a9fe" />
        <path d="M681.756,229.4v14.239h-2.644v-6.1h-7.363v6.1h-2.644V229.4h2.644v5.879h7.363V229.4Z" style="fill:#32a9fe" />
        <path d="M685.763,229.4h2.6v10.11l7.647-10.11h2.461v14.239h-2.6V233.548l-7.647,10.089h-2.461Z" style="fill:#32a9fe" />
        <path d="M713.343,229.4v14.239h-2.6V239.67h-3.8l-2.644,3.967h-2.787l3.051-4.394a4.587,4.587,0,0,1-2.288-1.739,5.017,5.017,0,0,1-.8-2.878,5.227,5.227,0,0,1,.732-2.807,4.705,4.705,0,0,1,2.075-1.8,7.462,7.462,0,0,1,3.153-.621Zm-8.329,2.991a2.753,2.753,0,0,0-.865,2.2,2.788,2.788,0,0,0,.834,2.166,3.47,3.47,0,0,0,2.421.762h3.335v-5.878h-3.234A3.681,3.681,0,0,0,705.014,232.389Z" style="fill:#32a9fe" />
        <path d="M642.269,93.581h0m.372,6.433a28.718,28.718,0,0,1,3.747,16.3,19.894,19.894,0,0,1-9.211,14.955c4.361-8.776,5.954-18.157,5.464-31.259M639.692,92c-.717,0-1.124.638-1.018,2.035,1.516,19.563-.523,30.817-9.385,43.327,9.7,0,19.653-9.065,20.7-20.719C651.073,103.126,642.686,92,639.692,92Z" style="fill:#ffcb57" />
        <path d="M662.791,93.6h0m.184,6.729a31.614,31.614,0,0,1,2.8,7.9c1.289,6.052,1.927,18.1-8.294,30.768a3.611,3.611,0,0,0,4.155,5.619c.465-.187,10.009-4.127,17.336-15.418a34.6,34.6,0,0,1-1.3,6.1c-2.146,7.016-7.321,16.748-19.786,23.268a3.611,3.611,0,0,0,1.672,6.811c.114,0,.228,0,.344-.016a43.938,43.938,0,0,0,12.11-3.312c-4.242,4.577-10.949,9.672-19.571,11.391a40.361,40.361,0,0,1-7.871.766c-12.646,0-23.3-5.613-28.487-15.015-2.527-4.578-3.065-9.519-3.585-14.3-.681-6.252-1.438-13.207-7.2-18.308a6.768,6.768,0,0,1,3.593-1.019,7.653,7.653,0,0,1,5.06,1.967c2.317,2.329,2.947,4.694,3.613,7.2.769,2.889,1.726,6.484,5.633,8.654a14.136,14.136,0,0,0,6.959,1.7c7.087,0,15.584-4.409,21.174-11.008,7.251-8.8,11.358-20.84,11.646-33.75m17.691,56.659h0M660.174,92.018c-.692,0-1.085.65-.978,2.057,1.233,16.105-3.761,29.338-10.654,37.7-4.634,5.469-12.147,9.693-18.387,9.693a10.591,10.591,0,0,1-5.2-1.245c-5.157-2.865-2.428-9.265-8.508-15.308a11.264,11.264,0,0,0-7.554-2.964,10.923,10.923,0,0,0-9.141,5.133c12.867,7.109,6.094,21.032,13.17,33.848,6.624,12,19.554,16.881,31.648,16.881a44.066,44.066,0,0,0,8.577-.836c19.47-3.881,30.668-23.515,26.893-23.515a4.853,4.853,0,0,0-2.446,1.224c-8.069,6.13-18.034,7.076-18.034,7.076,26-13.6,24.99-42,21.19-42-.54,0-1.137.575-1.72,1.846-6.82,14.872-18.737,19.653-18.737,19.653,9.785-12.131,11-24.488,9.015-33.789-1.966-9.234-6.986-15.457-9.13-15.457Z" style="fill:#ffcb57" />
        <ellipse cx="645.326" cy="187.676" rx="101.066" ry="4.732" style="opacity:0.9;mix-blend-mode:darken;fill:url(#c)" />
        <path d="M715.743,643.433a6.975,6.975,0,0,1-2.726-2.614,7.638,7.638,0,0,1,.01-7.525,7.042,7.042,0,0,1,2.736-2.614,8.021,8.021,0,0,1,3.895-.946,8.121,8.121,0,0,1,3.193.611,6.514,6.514,0,0,1,2.441,1.769l-1.709,1.607a4.981,4.981,0,0,0-3.8-1.668,5.334,5.334,0,0,0-2.624.641,4.61,4.61,0,0,0-1.81,1.78,5.45,5.45,0,0,0,0,5.166,4.617,4.617,0,0,0,1.81,1.78,5.333,5.333,0,0,0,2.624.64,4.955,4.955,0,0,0,3.8-1.688L725.292,642a6.507,6.507,0,0,1-2.451,1.77,8.214,8.214,0,0,1-3.2.609A8.019,8.019,0,0,1,715.743,643.433Z" style="fill:#32a9fe" />
        <path d="M741.757,635.908a4.188,4.188,0,0,1,1.373,3.406,4.435,4.435,0,0,1-1.5,3.62,6.5,6.5,0,0,1-4.262,1.241h-6.1v-12H727.1v-2.237h6.774v4.82h3.945A5.975,5.975,0,0,1,741.757,635.908Zm-2.116,5.522a2.591,2.591,0,0,0,.824-2.075q0-2.583-3.193-2.583h-3.4v5.37h3.4A3.521,3.521,0,0,0,739.641,641.43Z" style="fill:#32a9fe" />
        <path d="M747.055,629.938H758.14v2.176h-8.481v3.5h4.21a6.118,6.118,0,0,1,3.895,1.067,3.718,3.718,0,0,1,1.332,3.082,3.907,3.907,0,0,1-1.464,3.264,6.625,6.625,0,0,1-4.17,1.149h-6.407Zm6.264,12.2a3.855,3.855,0,0,0,2.32-.59,2,2,0,0,0,.792-1.709q0-2.2-3.112-2.2h-3.66v4.5Z" style="fill:#32a9fe" />
        <path d="M763.224,629.938h2.6v10.109l7.647-10.109h2.462v14.237h-2.6V634.087l-7.647,10.088h-2.462Z" style="fill:#32a9fe" />
        <path d="M790.225,630.548a4.7,4.7,0,0,1,2.105,1.749,5.345,5.345,0,0,1,0,5.4,4.668,4.668,0,0,1-2.105,1.76,7.879,7.879,0,0,1-3.224.61h-3.213v4.108h-2.645V629.938H787A7.879,7.879,0,0,1,790.225,630.548ZM789.5,637.1a2.9,2.9,0,0,0,0-4.189,4.059,4.059,0,0,0-2.624-.733h-3.091v5.654h3.091A4.059,4.059,0,0,0,789.5,637.1Z" style="fill:#32a9fe" />
        <path d="M809.436,629.938v14.237h-2.644v-6.1h-7.363v6.1h-2.644V629.938h2.644v5.878h7.363v-5.878Z" style="fill:#32a9fe" />
        <path d="M825.32,641.958v2.217H814.642V629.938h10.394v2.217h-7.749v3.7h6.874v2.177h-6.874v3.925Z" style="fill:#32a9fe" />
        <path d="M848.975,629.938v14.237h-2.644v-6.1h-7.363v6.1h-2.644V629.938h2.644v5.878h7.363v-5.878Z" style="fill:#32a9fe" />
        <path d="M863.62,640.881H856.5l-1.4,3.294h-2.725l6.406-14.237h2.6l6.427,14.237h-2.765Zm-.875-2.075-2.685-6.224-2.664,6.224Z" style="fill:#32a9fe" />
        <path d="M717.582,670.789a9.73,9.73,0,0,1-3.8-3.647,10.657,10.657,0,0,1,.014-10.5,9.84,9.84,0,0,1,3.818-3.649,11.191,11.191,0,0,1,5.437-1.32,11.338,11.338,0,0,1,4.457.852,9.1,9.1,0,0,1,3.407,2.47l-2.385,2.242a6.959,6.959,0,0,0-5.309-2.328,7.447,7.447,0,0,0-3.662.895,6.449,6.449,0,0,0-2.527,2.484,7.612,7.612,0,0,0,0,7.211,6.442,6.442,0,0,0,2.527,2.484,7.447,7.447,0,0,0,3.662.894,6.917,6.917,0,0,0,5.309-2.356l2.385,2.271a9.082,9.082,0,0,1-3.421,2.47,11.44,11.44,0,0,1-4.471.852A11.181,11.181,0,0,1,717.582,670.789Z" style="fill:#32a9fe" />
        <path d="M747.022,652.8a6.543,6.543,0,0,1,2.938,2.441,7.461,7.461,0,0,1,0,7.538,6.507,6.507,0,0,1-2.938,2.455,11,11,0,0,1-4.5.852h-4.485v5.735h-3.691V651.953h8.176A11,11,0,0,1,747.022,652.8Zm-1.008,9.142a4.048,4.048,0,0,0,0-5.849,5.672,5.672,0,0,0-3.662-1.022h-4.315v7.892h4.315A5.678,5.678,0,0,0,746.014,661.947Z" style="fill:#32a9fe" />
        <path d="M769.378,668.731v3.1H754.473V651.953h14.508v3.1H758.164v5.166h9.6v3.038h-9.6v5.479Z" style="fill:#32a9fe" />
        <path d="M793.2,668.7v7.353H789.79v-4.23H774.545v4.23h-3.436l.029-7.353h.851q1.875-.086,2.627-2.768a34.424,34.424,0,0,0,.922-7.679l.227-6.3h14.564V668.7Zm-15.046-3.677a7.3,7.3,0,0,1-1.533,3.677H786.7V655.076h-7.779l-.141,3.52A44.6,44.6,0,0,1,778.15,665.026Z" style="fill:#32a9fe" />
        <path d="M800.365,670.789a9.73,9.73,0,0,1-3.8-3.647,10.657,10.657,0,0,1,.014-10.5,9.84,9.84,0,0,1,3.818-3.649,11.191,11.191,0,0,1,5.437-1.32,11.338,11.338,0,0,1,4.457.852,9.1,9.1,0,0,1,3.407,2.47l-2.385,2.242A6.959,6.959,0,0,0,806,654.905a7.447,7.447,0,0,0-3.662.895,6.449,6.449,0,0,0-2.527,2.484,7.612,7.612,0,0,0,0,7.211,6.442,6.442,0,0,0,2.527,2.484,7.447,7.447,0,0,0,3.662.894,6.917,6.917,0,0,0,5.309-2.356l2.385,2.271a9.082,9.082,0,0,1-3.421,2.47,11.44,11.44,0,0,1-4.471.852A11.181,11.181,0,0,1,800.365,670.789Z" style="fill:#32a9fe" />
        <path d="M831.323,655.076h-6.586v16.75h-3.662v-16.75h-6.558v-3.123h16.806Z" style="fill:#32a9fe" />
        <path d="M850.486,663.238a5.248,5.248,0,0,1-.937,7.14,9.209,9.209,0,0,1-5.592,1.448h-9.426V651.953h8.886a8.893,8.893,0,0,1,5.224,1.334,4.364,4.364,0,0,1,1.873,3.776,4.774,4.774,0,0,1-.752,2.7,4.714,4.714,0,0,1-2.172,1.732A5.375,5.375,0,0,1,850.486,663.238Zm-12.321-2.8H843.1a4.458,4.458,0,0,0,2.726-.71,2.469,2.469,0,0,0,.937-2.1,2.51,2.51,0,0,0-.937-2.115,4.4,4.4,0,0,0-2.726-.724h-4.939Zm9.6,5.592q0-2.895-3.917-2.895h-5.678v5.848h5.678Q847.761,668.987,847.76,666.034Z" style="fill:#32a9fe" />
        <path d="M868.853,667.227h-9.936l-1.959,4.6h-3.8l8.943-19.873h3.633l8.971,19.873H870.84Zm-1.22-2.9-3.748-8.687-3.719,8.687Z" style="fill:#32a9fe" />
        <path d="M715.753,695.491a7,7,0,0,1-2.746-2.624,7.562,7.562,0,0,1,0-7.506,7,7,0,0,1,2.746-2.623,8.618,8.618,0,0,1,7.851,0,7.023,7.023,0,0,1,2.745,2.613,7.6,7.6,0,0,1,0,7.526,7.026,7.026,0,0,1-2.745,2.614,8.626,8.626,0,0,1-7.851,0Zm6.488-2.014a4.631,4.631,0,0,0,1.79-1.79,5.408,5.408,0,0,0,0-5.145,4.647,4.647,0,0,0-1.79-1.791,5.452,5.452,0,0,0-5.126,0,4.644,4.644,0,0,0-1.789,1.791,5.408,5.408,0,0,0,0,5.145,4.628,4.628,0,0,0,1.789,1.79,5.445,5.445,0,0,0,5.126,0Z" style="fill:#32a9fe" />
        <path d="M740.811,684.233h-4.719v12h-2.624v-12h-4.7V682h12.041Z" style="fill:#32a9fe" />
        <path d="M763.631,694v5.268H761.19v-3.031H750.268v3.031h-2.461l.021-5.268h.61q1.342-.061,1.881-1.983a24.659,24.659,0,0,0,.661-5.5l.163-4.515h10.434v12Zm-10.779-2.634a5.229,5.229,0,0,1-1.1,2.634h7.221v-9.763H753.4l-.1,2.522A32.077,32.077,0,0,1,752.852,691.362Z" style="fill:#32a9fe" />
        <path d="M776.059,692.938h-7.12l-1.4,3.295h-2.725L771.217,682h2.6l6.427,14.237h-2.765Zm-.875-2.075-2.685-6.224-2.664,6.224Z" style="fill:#32a9fe" />
        <path d="M791.913,682.606a4.691,4.691,0,0,1,2.105,1.749,5.345,5.345,0,0,1,0,5.4,4.668,4.668,0,0,1-2.105,1.76,7.9,7.9,0,0,1-3.224.61h-3.213v4.108h-2.645V682h5.858A7.879,7.879,0,0,1,791.913,682.606Zm-.722,6.549a2.9,2.9,0,0,0,0-4.19,4.065,4.065,0,0,0-2.624-.732h-3.091v5.654h3.091A4.065,4.065,0,0,0,791.191,689.155Z" style="fill:#32a9fe" />
        <path d="M797.679,682h2.6V692.1L807.93,682h2.461v14.237h-2.6V686.145l-7.647,10.088h-2.461Z" style="fill:#32a9fe" />
        <path d="M825.117,684.233H820.4v12h-2.624v-12h-4.7V682h12.041Z" style="fill:#32a9fe" />
        <path d="M838.48,694.016v2.217H827.8V682H838.2v2.216h-7.749v3.7h6.874v2.177h-6.874v3.925Z" style="fill:#32a9fe" />
        <path d="M854,682v14.237h-2.6v-12h-5.613l-.122,3.56a29.736,29.736,0,0,1-.488,4.85,6.1,6.1,0,0,1-1.241,2.828,2.99,2.99,0,0,1-2.36.965,7.044,7.044,0,0,1-1.444-.2l.183-2.3a2.089,2.089,0,0,0,.611.081,1.843,1.843,0,0,0,1.759-1.474,17.2,17.2,0,0,0,.64-4.648l.2-5.9Z" style="fill:#32a9fe" />
        <path d="M858.432,682h2.6V692.1L868.683,682h2.462v14.237h-2.6V686.145l-7.647,10.088h-2.462Z" style="fill:#32a9fe" />
        <path d="M790.033,567.777a17.781,17.781,0,1,0-19.613,0,28.469,28.469,0,0,0-18.641,26.669h4.741a23.707,23.707,0,0,1,47.413,0h4.741A28.469,28.469,0,0,0,790.033,567.777ZM780.226,566a13.039,13.039,0,1,1,13.039-13.039A13.054,13.054,0,0,1,780.226,566Z" style="fill:#ffcb57" />
        <path d="M813.739,555.924a17.763,17.763,0,1,0-25.1-23.839,22.5,22.5,0,0,1,4.191,2.221,13.106,13.106,0,0,1,3.182-3.532,13.015,13.015,0,1,1,7.921,23.371c-.42,0-.833-.024-1.242-.063a22.386,22.386,0,0,1-.8,4.95c.678-.058,1.348-.145,2.041-.145a23.843,23.843,0,0,1,23.706,23.706h4.741A28.469,28.469,0,0,0,813.739,555.924Z" style="fill:#ffcb57" />
        <path d="M756.52,558.887c.693,0,1.363.087,2.04.145a22.385,22.385,0,0,1-.8-4.95c-.409.039-.823.063-1.242.063a13.03,13.03,0,1,1,11.1-19.839,22.471,22.471,0,0,1,4.191-2.221,17.766,17.766,0,1,0-25.1,23.839,28.47,28.47,0,0,0-18.642,26.669h4.741a23.843,23.843,0,0,1,23.707-23.706Z" style="fill:#ffcb57" />
        <path d="M830.333,539.329a17.762,17.762,0,1,0-25.1-23.839,22.53,22.53,0,0,1,4.191,2.221,13.1,13.1,0,0,1,3.182-3.531,13.021,13.021,0,1,1,13.341,22.169,18.21,18.21,0,0,1,.04,6.613A23.719,23.719,0,0,1,844.234,566h4.741A28.47,28.47,0,0,0,830.333,539.329Z" style="fill:#ffcb57" />
        <path d="M734.183,539.8a19.682,19.682,0,0,1,.322-3.456,13.018,13.018,0,1,1,16.523-18.638,22.562,22.562,0,0,1,4.191-2.221,17.765,17.765,0,1,0-25.1,23.839A28.47,28.47,0,0,0,711.478,566h4.741a23.719,23.719,0,0,1,18.247-23.037A19.669,19.669,0,0,1,734.183,539.8Z" style="fill:#ffcb57" />
        <path d="M780.226,511.474a13.016,13.016,0,0,1,12.743,10.573,14.987,14.987,0,0,1,4.469-1.915,17.754,17.754,0,0,0-34.423,0,15,15,0,0,1,4.469,1.915A13.016,13.016,0,0,1,780.226,511.474Z" style="fill:#ffcb57" />
        <ellipse cx="784.692" cy="609.953" rx="116.573" ry="6.579" style="opacity:0.9;mix-blend-mode:darken;fill:url(#d)" />
        <path d="M34.768,292.107h2.67v10.367l7.844-10.367h2.524v14.6H45.135V296.362l-7.843,10.347H34.768Z" style="fill:#32a9fe" />
        <path d="M62.553,306.709v-7.384L58.8,305.541H57.672L53.98,299.3v7.405H51.6V295.57h2.733l3.963,6.967,4.151-6.967H64.89l.021,11.139Z" style="fill:#32a9fe" />
        <path d="M76.332,296.623a4.558,4.558,0,0,1,1.3,3.557v6.529H75.174v-1.356a3.024,3.024,0,0,1-1.366,1.116,5.329,5.329,0,0,1-2.138.386,5.218,5.218,0,0,1-2.19-.428,3.382,3.382,0,0,1-1.45-1.189,3.012,3.012,0,0,1-.511-1.72,2.949,2.949,0,0,1,1.115-2.409,5.54,5.54,0,0,1,3.516-.908h2.878v-.167a2.279,2.279,0,0,0-.7-1.794,3.021,3.021,0,0,0-2.075-.626,6.01,6.01,0,0,0-1.846.292,4.532,4.532,0,0,0-1.533.814l-1.023-1.9A6.34,6.34,0,0,1,69.96,295.8a9.341,9.341,0,0,1,2.607-.355A5.429,5.429,0,0,1,76.332,296.623Zm-2.378,7.885a2.429,2.429,0,0,0,1.074-1.283v-1.293H72.337q-2.253,0-2.253,1.482a1.329,1.329,0,0,0,.564,1.126,2.575,2.575,0,0,0,1.564.417A3.358,3.358,0,0,0,73.954,304.508Z" style="fill:#32a9fe" />
        <path d="M97.285,295.57v11.139H80.868V295.57h2.608V304.5h4.318V295.57H90.4V304.5h4.277V295.57Z" style="fill:#32a9fe" />
        <path d="M107.74,287.983h4.384v12.344l10.345-12.344h4v18.726h-4.383V294.365l-10.31,12.344H107.74Z" style="fill:#32a9fe" />
        <path d="M152.346,302.992v7.89h-4.1v-4.173H133.795v4.173h-4.067v-7.89h.876q1.789-.071,2.438-2.3a29.12,29.12,0,0,0,.859-6.3l.245-6.417h15.43v15.009Zm-14.974-3.016a5.509,5.509,0,0,1-1.4,3.016h9.223V291.7H138l-.1,3.015A38.144,38.144,0,0,1,137.372,299.976Z" style="fill:#32a9fe" />
        <path d="M173.736,298.749H159.043a5.092,5.092,0,0,0,2.016,3.279,6.607,6.607,0,0,0,4.051,1.21,6.829,6.829,0,0,0,5.084-2.034l2.349,2.7a7.909,7.909,0,0,1-3.191,2.279,12.636,12.636,0,0,1-9.783-.456,8.819,8.819,0,0,1-3.629-3.419,9.643,9.643,0,0,1-1.28-4.962,9.811,9.811,0,0,1,1.244-4.927A8.835,8.835,0,0,1,159.359,289a10.068,10.068,0,0,1,4.979-1.228,9.82,9.82,0,0,1,4.892,1.21,8.564,8.564,0,0,1,3.366,3.4,10.315,10.315,0,0,1,1.21,5.068Q173.806,297.907,173.736,298.749Zm-12.957-6.225a5.235,5.235,0,0,0-1.771,3.315h10.625a5.172,5.172,0,0,0-1.718-3.3,5.231,5.231,0,0,0-3.577-1.262A5.292,5.292,0,0,0,160.779,292.524Z" style="fill:#32a9fe" />
        <path d="M193.9,287.983v18.726h-3.928v-5.645h-4.945l-3.822,5.645h-4.7l4.419-6.241a6.247,6.247,0,0,1-3.1-2.157,6.58,6.58,0,0,1,1.21-8.575,10.07,10.07,0,0,1,6.277-1.753Zm-12.695,6.873q0,3.156,4.1,3.157h4.664v-6.348h-4.524Q181.206,291.665,181.205,294.856Z" style="fill:#32a9fe" />
        <path d="M120.079,237.706H100.592a4.119,4.119,0,0,0,0,8.238h19.487a4.119,4.119,0,1,0,0-8.238Zm1.348,4.118a1.349,1.349,0,0,1-1.348,1.348H100.592a1.348,1.348,0,0,1,0-2.695h19.487A1.35,1.35,0,0,1,121.427,241.824Z" style="fill:#ffcb57" />
        <path d="M97.914,247.751a7.792,7.792,0,0,0,6.278,7.594,6.463,6.463,0,0,0,12.3,0,7.793,7.793,0,0,0,6.264-7.593v-1.385H97.914Zm8.121,5-.638-.037a5.017,5.017,0,0,1-4.513-3.572h18.9a5.016,5.016,0,0,1-4.5,3.572l-.592.036Zm7.289,2.771a3.667,3.667,0,0,1-5.963,0Z" style="fill:#ffcb57" />
        <path d="M110.339,170.654a27.741,27.741,0,0,0-27.711,27.71,27.365,27.365,0,0,0,5.929,17.094,112.911,112.911,0,0,1,8.251,12.02v9.751H123.72v-9.513a128.005,128.005,0,0,1,8.393-12.254,27.355,27.355,0,0,0,5.934-17.1A27.74,27.74,0,0,0,110.339,170.654Zm-3.425,40.826,1.852,7.1,3.216-7.825,1.575,4.493,3.464-1.584-4.458,20.791h-4.3l-4.562-20.83Zm14.232,15.137-.2.33v7.511H115.4l5.922-27.62-2.71-.581-.985,4.6L114.9,212.1l-2.746-7.831-2.9,7.049-.929-3.561-5.155,3.449-1.09-4.979-2.934.643,6.043,27.588H99.579v-7.736l-.191-.326a115.527,115.527,0,0,0-8.653-12.654A24.607,24.607,0,0,1,85.4,198.364a24.939,24.939,0,1,1,49.877,0,24.6,24.6,0,0,1-5.339,15.382h0A131.14,131.14,0,0,0,121.146,226.617Z" style="fill:#ffcb57" />
        <path d="M111.351,166.144a1.271,1.271,0,0,0,1.27-1.27V152.819a1.27,1.27,0,1,0-2.539,0v12.055A1.272,1.272,0,0,0,111.351,166.144Z" style="fill:#ffcb57" />
        <path d="M129.168,170.474a1.269,1.269,0,0,0,1.744-.428l6.249-10.31a1.273,1.273,0,0,0-.428-1.744,1.269,1.269,0,0,0-1.745.428l-6.247,10.309a1.268,1.268,0,0,0,.427,1.745Z" style="fill:#ffcb57" />
        <path d="M141.3,185.21a1.27,1.27,0,0,0,.587-.144l10.686-5.579a1.27,1.27,0,1,0-1.175-2.251l-10.687,5.578a1.271,1.271,0,0,0,.589,2.4Z" style="fill:#ffcb57" />
        <path d="M157.763,200.281a1.266,1.266,0,0,0-.873-.43l-12.037-.768a1.27,1.27,0,0,0-.156,2.536l12.042.769h.071a1.269,1.269,0,0,0,.953-2.108Z" style="fill:#ffcb57" />
        <path d="M149.861,224.356l-9.891-6.893a1.27,1.27,0,0,0-1.452,2.083l9.891,6.894a1.27,1.27,0,0,0,1.452-2.084Z" style="fill:#ffcb57" />
        <path d="M90.038,170.046a1.27,1.27,0,1,0,2.172-1.317L85.962,158.42a1.265,1.265,0,0,0-.785-.576,1.248,1.248,0,0,0-.96.148,1.272,1.272,0,0,0-.428,1.744Z" style="fill:#ffcb57" />
        <path d="M68.373,179.487l10.686,5.579a1.27,1.27,0,1,0,1.175-2.252l-10.687-5.578a1.269,1.269,0,1,0-1.174,2.251Z" style="fill:#ffcb57" />
        <path d="M77.439,200.27a1.287,1.287,0,0,0-1.348-1.187l-12.031.768a1.27,1.27,0,0,0,.08,2.538l12.113-.77A1.274,1.274,0,0,0,77.439,200.27Z" style="fill:#ffcb57" />
        <path d="M81.927,217.254a1.248,1.248,0,0,0-.948.209l-9.89,6.892a1.27,1.27,0,1,0,1.452,2.084l9.891-6.892a1.27,1.27,0,0,0-.5-2.293Z" style="fill:#ffcb57" />
        <path d="M46.019,323.962a3.76,3.76,0,0,1-.671,5.115,6.6,6.6,0,0,1-4.007,1.037H34.588V315.877h6.366a6.363,6.363,0,0,1,3.743.956,3.125,3.125,0,0,1,1.342,2.7,3.418,3.418,0,0,1-.539,1.932,3.368,3.368,0,0,1-1.556,1.241A3.849,3.849,0,0,1,46.019,323.962Zm-8.827-2H40.73a3.192,3.192,0,0,0,1.953-.508,1.772,1.772,0,0,0,.671-1.5,1.8,1.8,0,0,0-.671-1.516,3.15,3.15,0,0,0-1.953-.519H37.192Zm6.874,4.008q0-2.076-2.807-2.076H37.192v4.19h4.067Q44.066,328.08,44.066,325.966Z" style="fill:#32a9fe" />
        <path d="M67.965,315.877v14.237h-2.6v-12H57.979v12h-2.6V315.877Z" style="fill:#32a9fe" />
        <path d="M74.636,329.372a7,7,0,0,1-2.747-2.624,7.567,7.567,0,0,1,0-7.5,7.007,7.007,0,0,1,2.747-2.624,8.618,8.618,0,0,1,7.851,0,7.033,7.033,0,0,1,2.745,2.614,7.6,7.6,0,0,1,0,7.525,7.026,7.026,0,0,1-2.745,2.614,8.618,8.618,0,0,1-7.851,0Zm6.487-2.014a4.631,4.631,0,0,0,1.791-1.789,5.412,5.412,0,0,0,0-5.147,4.647,4.647,0,0,0-1.791-1.79,5.45,5.45,0,0,0-5.125,0,4.642,4.642,0,0,0-1.789,1.79,5.4,5.4,0,0,0,0,5.147A4.626,4.626,0,0,0,76,327.358a5.443,5.443,0,0,0,5.125,0Z" style="fill:#32a9fe" />
        <path d="M100.914,315.877v14.237h-2.6v-12H92.7l-.122,3.559a29.738,29.738,0,0,1-.488,4.851,6.086,6.086,0,0,1-1.241,2.828,2.986,2.986,0,0,1-2.36.966,7.068,7.068,0,0,1-1.444-.2l.183-2.3a2.089,2.089,0,0,0,.611.081,1.842,1.842,0,0,0,1.759-1.474,17.159,17.159,0,0,0,.64-4.648l.2-5.9Z" style="fill:#32a9fe" />
        <path d="M114.409,324a3.3,3.3,0,0,1,.722,2.125,3.26,3.26,0,0,1-.834,2.228,5.333,5.333,0,0,1-2.227,1.454,8.8,8.8,0,0,1-3.04.509,10.654,10.654,0,0,1-2.858-.4,9.493,9.493,0,0,1-2.655-1.19l.855-1.932a7.429,7.429,0,0,0,2.075.966,7.975,7.975,0,0,0,2.257.335,5.185,5.185,0,0,0,2.675-.63,1.929,1.929,0,0,0,1.068-1.728,1.582,1.582,0,0,0-.773-1.424,3.99,3.99,0,0,0-2.136-.489h-3.315v-2.074h3.112a3.094,3.094,0,0,0,1.85-.488,1.55,1.55,0,0,0,.672-1.322,1.719,1.719,0,0,0-.905-1.546,4.4,4.4,0,0,0-2.309-.549,7.554,7.554,0,0,0-1.973.274,7.7,7.7,0,0,0-1.912.8l-.834-2.136a9.628,9.628,0,0,1,2.329-.884,10.468,10.468,0,0,1,2.451-.3,8.411,8.411,0,0,1,2.919.489,5.082,5.082,0,0,1,2.125,1.392,3.125,3.125,0,0,1,.794,2.126,3.094,3.094,0,0,1-.57,1.851,3.638,3.638,0,0,1-1.566,1.22A4.055,4.055,0,0,1,114.409,324Z" style="fill:#32a9fe" />
        <path d="M127.559,326.82H120.44l-1.4,3.294h-2.725l6.407-14.237h2.6l6.427,14.237h-2.766Zm-.875-2.076L124,318.521l-2.664,6.223Z" style="fill:#32a9fe" />
        <path d="M152.189,315.877v14.237h-2.643v-6.1h-7.363v6.1h-2.645V315.877h2.645v5.878h7.363v-5.878Z" style="fill:#32a9fe" />
        <path d="M165.614,326.82h-7.12l-1.4,3.294h-2.726l6.407-14.237h2.6l6.427,14.237h-2.766Zm-.876-2.076-2.684-6.223-2.664,6.223Z" style="fill:#32a9fe" />
        <path d="M37.232,354.849a7.018,7.018,0,0,1-2.746-2.624,7.56,7.56,0,0,1,0-7.5,7.011,7.011,0,0,1,2.746-2.624,8.618,8.618,0,0,1,7.851,0,7.029,7.029,0,0,1,2.746,2.614,7.6,7.6,0,0,1,0,7.525,7.029,7.029,0,0,1-2.746,2.614,8.618,8.618,0,0,1-7.851,0Zm6.488-2.014a4.624,4.624,0,0,0,1.79-1.79,5.41,5.41,0,0,0,0-5.146,4.622,4.622,0,0,0-1.79-1.789,5.443,5.443,0,0,0-5.125,0,4.628,4.628,0,0,0-1.79,1.789,5.41,5.41,0,0,0,0,5.146,4.631,4.631,0,0,0,1.79,1.79,5.443,5.443,0,0,0,5.125,0Z" style="fill:#32a9fe" />
        <path d="M51.775,341.353H62.86v2.177H54.379v3.5h4.21a6.118,6.118,0,0,1,3.9,1.068,3.718,3.718,0,0,1,1.332,3.081,3.907,3.907,0,0,1-1.464,3.265,6.625,6.625,0,0,1-4.17,1.15H51.775Zm6.264,12.2a3.845,3.845,0,0,0,2.319-.59,2,2,0,0,0,.793-1.708q0-2.2-3.112-2.2h-3.66v4.494Z" style="fill:#32a9fe" />
        <path d="M85.009,341.353v14.239H66.723V341.353h2.6v12h5.247v-12h2.6v12h5.228v-12Zm2.054,12v5.268H84.622v-3.03H82.344v-2.238Z" style="fill:#32a9fe" />
        <path d="M100.283,353.374v2.218H89.605V341.353H100v2.218H92.25v3.7h6.874v2.177H92.25v3.925Z" style="fill:#32a9fe" />
        <path d="M105.826,354.849a6.972,6.972,0,0,1-2.725-2.614,7.638,7.638,0,0,1,.01-7.525,7.042,7.042,0,0,1,2.736-2.614,8.009,8.009,0,0,1,3.894-.946,8.125,8.125,0,0,1,3.194.61,6.527,6.527,0,0,1,2.441,1.77l-1.709,1.607a4.981,4.981,0,0,0-3.8-1.668,5.323,5.323,0,0,0-2.624.641,4.608,4.608,0,0,0-1.81,1.779,5.452,5.452,0,0,0,0,5.167,4.615,4.615,0,0,0,1.81,1.779,5.334,5.334,0,0,0,2.624.641,4.953,4.953,0,0,0,3.8-1.689l1.709,1.628a6.494,6.494,0,0,1-2.451,1.769,8.182,8.182,0,0,1-3.2.611A8.016,8.016,0,0,1,105.826,354.849Z" style="fill:#32a9fe" />
        <path d="M128.007,343.591h-4.719v12h-2.624v-12h-4.7v-2.238h12.042Z" style="fill:#32a9fe" />
        <path d="M141.736,349.438a3.76,3.76,0,0,1-.672,5.116,6.6,6.6,0,0,1-4.006,1.038h-6.753V341.353h6.366a6.364,6.364,0,0,1,3.742.957,3.123,3.123,0,0,1,1.343,2.7,3.42,3.42,0,0,1-.539,1.932,3.379,3.379,0,0,1-1.556,1.241A3.854,3.854,0,0,1,141.736,349.438Zm-8.827-2h3.538a3.189,3.189,0,0,0,1.953-.509,1.768,1.768,0,0,0,.671-1.5,1.8,1.8,0,0,0-.671-1.516,3.155,3.155,0,0,0-1.953-.518h-3.538Zm6.874,4.007q0-2.074-2.807-2.074h-4.067v4.189h4.067Q139.783,353.557,139.783,351.442Z" style="fill:#32a9fe" />
        <path d="M148.122,354.849a7,7,0,0,1-2.746-2.624,7.56,7.56,0,0,1,0-7.5,7,7,0,0,1,2.746-2.624,8.618,8.618,0,0,1,7.851,0,7.026,7.026,0,0,1,2.745,2.614,7.6,7.6,0,0,1,0,7.525,7.026,7.026,0,0,1-2.745,2.614,8.618,8.618,0,0,1-7.851,0Zm6.488-2.014a4.631,4.631,0,0,0,1.79-1.79,5.41,5.41,0,0,0,0-5.146,4.628,4.628,0,0,0-1.79-1.789,5.445,5.445,0,0,0-5.126,0A4.626,4.626,0,0,0,147.7,345.9a5.41,5.41,0,0,0,0,5.146,4.628,4.628,0,0,0,1.789,1.79,5.445,5.445,0,0,0,5.126,0Z" style="fill:#32a9fe" />
        <path d="M172.774,343.591h-4.719v12h-2.624v-12h-4.7v-2.238h12.042Z" style="fill:#32a9fe" />
        <path d="M177.512,354.849a7.018,7.018,0,0,1-2.746-2.624,7.56,7.56,0,0,1,0-7.5,7.011,7.011,0,0,1,2.746-2.624,8.618,8.618,0,0,1,7.851,0,7.029,7.029,0,0,1,2.746,2.614,7.6,7.6,0,0,1,0,7.525,7.029,7.029,0,0,1-2.746,2.614,8.618,8.618,0,0,1-7.851,0ZM184,352.835a4.624,4.624,0,0,0,1.79-1.79,5.41,5.41,0,0,0,0-5.146A4.622,4.622,0,0,0,184,344.11a5.443,5.443,0,0,0-5.125,0,4.628,4.628,0,0,0-1.79,1.789,5.41,5.41,0,0,0,0,5.146,4.631,4.631,0,0,0,1.79,1.79,5.443,5.443,0,0,0,5.125,0Z" style="fill:#32a9fe" />
        <ellipse cx="110.187" cy="272.663" rx="91.441" ry="5.902" style="opacity:0.9;mix-blend-mode:darken;fill:url(#e)" />
        <path d="M183.885,219.421s-1.937,19.1-17.01,20.422c15.073,1.322,17.01,20.423,17.01,20.423s1.938-19.1,17.011-20.423C185.823,238.522,183.885,219.421,183.885,219.421Z" style="fill:#fff9db;mix-blend-mode:multiply" />
        <path d="M212.017,179.015s-1.281,12.635-11.253,13.51c9.972.874,11.253,13.509,11.253,13.509S213.3,193.4,223.27,192.525C213.3,191.65,212.017,179.015,212.017,179.015Z" style="fill:#fff9db;mix-blend-mode:multiply" />
        <path d="M567.186,816.958V831.2h-2.6v-12H557.2v12h-2.6V816.958Z" style="fill:#32a9fe" />
        <path d="M581.494,817.568a4.7,4.7,0,0,1,2.106,1.749,5.345,5.345,0,0,1,0,5.4,4.67,4.67,0,0,1-2.106,1.76,7.872,7.872,0,0,1-3.224.61h-3.213V831.2h-2.644V816.958h5.857A7.872,7.872,0,0,1,581.494,817.568Zm-.722,6.549a2.9,2.9,0,0,0,0-4.189,4.057,4.057,0,0,0-2.624-.733h-3.091v5.654h3.091A4.057,4.057,0,0,0,580.772,824.117Z" style="fill:#32a9fe" />
        <path d="M598.732,828.978V831.2H588.054V816.958h10.393v2.217H590.7v3.7h6.875v2.177H590.7v3.925Z" style="fill:#32a9fe" />
        <path d="M614.353,825.043a3.76,3.76,0,0,1-.671,5.115,6.6,6.6,0,0,1-4.007,1.037h-6.753V816.958h6.367a6.376,6.376,0,0,1,3.742.955,3.129,3.129,0,0,1,1.343,2.706,3.419,3.419,0,0,1-.54,1.932,3.363,3.363,0,0,1-1.556,1.241A3.845,3.845,0,0,1,614.353,825.043Zm-8.827-2h3.539a3.191,3.191,0,0,0,1.952-.509,1.77,1.77,0,0,0,.672-1.506,1.8,1.8,0,0,0-.672-1.514,3.143,3.143,0,0,0-1.952-.519h-3.539Zm6.875,4.006q0-2.075-2.807-2.075h-4.068v4.191h4.068Q612.4,829.162,612.4,827.046Z" style="fill:#32a9fe" />
        <path d="M621.96,830.453a7,7,0,0,1-2.746-2.624,7.56,7.56,0,0,1,0-7.5,7,7,0,0,1,2.746-2.624,8.618,8.618,0,0,1,7.851,0,7.019,7.019,0,0,1,2.745,2.614,7.6,7.6,0,0,1,0,7.525,7.026,7.026,0,0,1-2.745,2.614,8.618,8.618,0,0,1-7.851,0Zm6.488-2.013a4.637,4.637,0,0,0,1.79-1.79,5.41,5.41,0,0,0,0-5.146,4.637,4.637,0,0,0-1.79-1.79,5.445,5.445,0,0,0-5.126,0,4.635,4.635,0,0,0-1.789,1.79,5.41,5.41,0,0,0,0,5.146,4.635,4.635,0,0,0,1.789,1.79,5.452,5.452,0,0,0,5.126,0Z" style="fill:#32a9fe" />
        <path d="M651.411,828.958v5.268h-2.44V831.2H638.048v3.031h-2.461l.021-5.268h.61q1.343-.061,1.881-1.983a24.657,24.657,0,0,0,.661-5.5l.163-4.516h10.434v12Zm-10.779-2.634a5.221,5.221,0,0,1-1.1,2.634h7.221V819.2H641.18l-.1,2.522A32.077,32.077,0,0,1,640.632,826.324Z" style="fill:#32a9fe" />
        <path d="M673.4,825.043a3.76,3.76,0,0,1-.671,5.115,6.6,6.6,0,0,1-4.007,1.037h-6.753V816.958h6.366a6.378,6.378,0,0,1,3.743.955,3.128,3.128,0,0,1,1.342,2.706,3.418,3.418,0,0,1-.539,1.932,3.368,3.368,0,0,1-1.556,1.241A3.845,3.845,0,0,1,673.4,825.043Zm-8.827-2h3.538a3.192,3.192,0,0,0,1.953-.509,1.77,1.77,0,0,0,.672-1.506,1.8,1.8,0,0,0-.672-1.514,3.144,3.144,0,0,0-1.953-.519h-3.538Zm6.874,4.006q0-2.075-2.807-2.075h-4.067v4.191h4.067Q671.446,829.162,671.445,827.046Z" style="fill:#32a9fe" />
        <path d="M568.691,850.157v5.268H566.25v-3.031H555.328v3.031h-2.461l.02-5.268h.61q1.344-.062,1.882-1.983a24.659,24.659,0,0,0,.661-5.5l.162-4.515h10.435v12Zm-10.779-2.634a5.229,5.229,0,0,1-1.1,2.634h7.221v-9.763H558.46l-.1,2.522A32.077,32.077,0,0,1,557.912,847.523Z" style="fill:#32a9fe" />
        <path d="M581.932,849.1h-7.119l-1.4,3.294h-2.726l6.407-14.237h2.6l6.427,14.237h-2.766Zm-.875-2.075-2.685-6.224-2.664,6.224Z" style="fill:#32a9fe" />
        <path d="M598.6,838.767a4.7,4.7,0,0,1,2.105,1.749,5.345,5.345,0,0,1,0,5.4,4.668,4.668,0,0,1-2.105,1.76,7.879,7.879,0,0,1-3.224.61h-3.214v4.108h-2.644V838.157h5.858A7.879,7.879,0,0,1,598.6,838.767Zm-.722,6.549a2.9,2.9,0,0,0,0-4.189,4.059,4.059,0,0,0-2.624-.733h-3.092v5.654h3.092A4.059,4.059,0,0,0,597.878,845.316Z" style="fill:#32a9fe" />
        <path d="M605.18,838.157h2.6v10.109l7.647-10.109h2.461v14.237h-2.6V842.306l-7.648,10.088H605.18Z" style="fill:#32a9fe" />
        <path d="M633.431,840.394h-4.718v12h-2.624v-12h-4.7v-2.237h12.041Z" style="fill:#32a9fe" />
        <path d="M647.608,850.177v2.217H636.929V838.157h10.394v2.217h-7.749v3.7h6.874v2.177h-6.874v3.925Z" style="fill:#32a9fe" />
        <path d="M663.94,838.157v14.237h-2.6v-12h-5.613l-.122,3.56a29.762,29.762,0,0,1-.488,4.851,6.087,6.087,0,0,1-1.241,2.827,2.986,2.986,0,0,1-2.36.966,7.059,7.059,0,0,1-1.444-.2l.183-2.3a2.089,2.089,0,0,0,.611.081,1.842,1.842,0,0,0,1.759-1.474,17.193,17.193,0,0,0,.64-4.648l.2-5.9Z" style="fill:#32a9fe" />
        <path d="M671.822,851.652a6.972,6.972,0,0,1-2.725-2.614,7.631,7.631,0,0,1,.01-7.525,7.039,7.039,0,0,1,2.735-2.614,8.024,8.024,0,0,1,3.895-.946,8.126,8.126,0,0,1,3.194.611,6.5,6.5,0,0,1,2.44,1.769l-1.708,1.607a4.984,4.984,0,0,0-3.8-1.668,5.33,5.33,0,0,0-2.623.641,4.606,4.606,0,0,0-1.811,1.78,5.45,5.45,0,0,0,0,5.166,4.613,4.613,0,0,0,1.811,1.78,5.329,5.329,0,0,0,2.623.64,4.959,4.959,0,0,0,3.8-1.688l1.708,1.627a6.5,6.5,0,0,1-2.451,1.77,8.21,8.21,0,0,1-3.2.61A8.021,8.021,0,0,1,671.822,851.652Z" style="fill:#32a9fe" />
        <path d="M690.3,846.394h-2.645v6h-2.6V838.157h2.6v5.959h2.726l4.088-5.959h2.807l-4.861,6.895,5.044,7.342h-2.99Z" style="fill:#32a9fe" />
        <path d="M709.683,849.1h-7.119l-1.4,3.294h-2.726l6.407-14.237h2.6l6.427,14.237h-2.766Zm-.875-2.075-2.685-6.224-2.664,6.224Z" style="fill:#32a9fe" />
        <path d="M557.23,872.851a6.972,6.972,0,0,1-2.725-2.614,7.631,7.631,0,0,1,.01-7.525,7.039,7.039,0,0,1,2.735-2.614,8.027,8.027,0,0,1,3.895-.946,8.126,8.126,0,0,1,3.194.611,6.5,6.5,0,0,1,2.44,1.769l-1.708,1.607a4.983,4.983,0,0,0-3.8-1.668,5.33,5.33,0,0,0-2.623.641,4.606,4.606,0,0,0-1.811,1.78,5.45,5.45,0,0,0,0,5.166,4.613,4.613,0,0,0,1.811,1.78,5.329,5.329,0,0,0,2.623.64,4.957,4.957,0,0,0,3.8-1.688l1.708,1.627a6.5,6.5,0,0,1-2.45,1.77,8.218,8.218,0,0,1-3.2.609A8.023,8.023,0,0,1,557.23,872.851Z" style="fill:#32a9fe" />
        <path d="M583.539,873.593l-.02-9.437-4.678,7.811h-1.18l-4.678-7.689v9.315h-2.5V859.356h2.177l5.633,9.417,5.573-9.417h2.157l.04,14.237Z" style="fill:#32a9fe" />
        <path d="M601.946,871.376v2.217H591.268V859.356h10.393v2.217h-7.749v3.7h6.875v2.177h-6.875v3.925Z" style="fill:#32a9fe" />
        <path d="M616.448,861.593H611.73v12h-2.624v-12h-4.7v-2.237h12.041Z" style="fill:#32a9fe" />
        <path d="M625.194,867.593H622.55v6h-2.6V859.356h2.6v5.959h2.726l4.087-5.959h2.807l-4.861,6.895,5.044,7.342h-2.99Z" style="fill:#32a9fe" />
        <path d="M644.578,870.3h-7.12l-1.4,3.294H633.33l6.406-14.237h2.6l6.427,14.237H646Zm-.875-2.075L641.018,862l-2.664,6.224Z" style="fill:#32a9fe" />
        <g style="mix-blend-mode:multiply">
            <path d="M539.574,887.633a9.075,9.075,0,0,1-1.847,7.194,9.7,9.7,0,0,1-6.307,3.967,7.081,7.081,0,0,1-8.179-5.831,9.241,9.241,0,0,1,1.969-7.33,9.921,9.921,0,0,1,6.372-4.092,6.442,6.442,0,0,1,5.2,1.26A7.377,7.377,0,0,1,539.574,887.633ZM546.5,814.86q.394,2.352-1.105,7.5-1.128,3.935-3.957,18.5t-3.407,18a58.956,58.956,0,0,0-.684,8.3q-.117,3.765-4.433,4.488-5.547.93-6.468-4.562-.967-5.77,3.15-23.313t6.8-24.242q2.679-6.7,6.1-7.273Q545.967,811.665,546.5,814.86Z" style="fill:#ffd7e9" />
        </g>
        <ellipse cx="603.185" cy="807.428" rx="101.066" ry="4.732" style="opacity:0.9;mix-blend-mode:darken;fill:url(#f)" />
        <path d="M126.645,981.754a7,7,0,0,1-2.746-2.624,7.56,7.56,0,0,1,0-7.5A7,7,0,0,1,126.645,969a8.618,8.618,0,0,1,7.851,0,7.022,7.022,0,0,1,2.746,2.614,7.6,7.6,0,0,1,0,7.525,7.029,7.029,0,0,1-2.746,2.614,8.618,8.618,0,0,1-7.851,0Zm6.488-2.013a4.631,4.631,0,0,0,1.79-1.79,5.41,5.41,0,0,0,0-5.146,4.631,4.631,0,0,0-1.79-1.79,5.445,5.445,0,0,0-5.126,0,4.635,4.635,0,0,0-1.789,1.79,5.41,5.41,0,0,0,0,5.146,4.635,4.635,0,0,0,1.789,1.79,5.452,5.452,0,0,0,5.126,0Z" style="fill:#32a9fe" />
        <path d="M152.517,970.5H147.8v12h-2.624v-12h-4.7v-2.237h12.041Z" style="fill:#32a9fe" />
        <path d="M166.917,968.259V982.5h-2.624v-5.369a10.918,10.918,0,0,1-3.823.752,6.112,6.112,0,0,1-4.2-1.312,4.783,4.783,0,0,1-1.474-3.772v-4.536h2.623v4.251a2.945,2.945,0,0,0,.875,2.3,3.6,3.6,0,0,0,2.5.793,8.313,8.313,0,0,0,3.5-.752v-6.59Z" style="fill:#32a9fe" />
        <path d="M172.144,968.259h2.6v10.109l7.648-10.109h2.461V982.5h-2.6V972.408L174.605,982.5h-2.461Z" style="fill:#32a9fe" />
        <path d="M200.4,970.5h-4.719v12h-2.624v-12h-4.7v-2.237H200.4Z" style="fill:#32a9fe" />
        <path d="M212.62,979.2H205.5l-1.4,3.294h-2.726l6.407-14.237h2.6l6.427,14.237h-2.766Zm-.875-2.075L209.06,970.9l-2.664,6.224Z" style="fill:#32a9fe" />
        <path d="M232.857,968.259V982.5h-2.644v-6.1H222.85v6.1h-2.644V968.259h2.644v5.878h7.363v-5.878Z" style="fill:#32a9fe" />
        <path d="M248.742,980.279V982.5H238.064V968.259h10.393v2.217h-7.749v3.7h6.874v2.177h-6.874v3.925Z" style="fill:#32a9fe" />
        <path d="M272.4,968.259V982.5h-2.644v-6.1H262.39v6.1h-2.644V968.259h2.644v5.878h7.363v-5.878Z" style="fill:#32a9fe" />
        <path d="M287.041,979.2h-7.119l-1.4,3.294h-2.725l6.407-14.237h2.6l6.427,14.237h-2.766Zm-.875-2.075-2.685-6.224-2.664,6.224Z" style="fill:#32a9fe" />
        <path d="M131.984,990.068a4.691,4.691,0,0,1,2.1,1.749,5.345,5.345,0,0,1,0,5.4,4.662,4.662,0,0,1-2.1,1.76,7.879,7.879,0,0,1-3.224.61h-3.213v4.108H122.9V989.458h5.858A7.879,7.879,0,0,1,131.984,990.068Zm-.722,6.549a2.9,2.9,0,0,0,0-4.189,4.059,4.059,0,0,0-2.624-.733h-3.091v5.654h3.091A4.059,4.059,0,0,0,131.262,996.617Z" style="fill:#32a9fe" />
        <path d="M147.269,1000.4H140.15l-1.4,3.294h-2.725l6.407-14.237h2.6l6.427,14.237h-2.766Zm-.875-2.075-2.685-6.224-2.664,6.224Z" style="fill:#32a9fe" />
        <path d="M164.344,997.583a3.31,3.31,0,0,1,.722,2.126,3.26,3.26,0,0,1-.834,2.227,5.323,5.323,0,0,1-2.227,1.454,8.806,8.806,0,0,1-3.041.509,10.653,10.653,0,0,1-2.857-.4,9.452,9.452,0,0,1-2.655-1.19l.854-1.932a7.414,7.414,0,0,0,2.075.966,7.948,7.948,0,0,0,2.258.336,5.2,5.2,0,0,0,2.675-.631,1.929,1.929,0,0,0,1.067-1.729,1.582,1.582,0,0,0-.772-1.423,3.983,3.983,0,0,0-2.136-.488h-3.316v-2.075h3.112a3.1,3.1,0,0,0,1.851-.488,1.552,1.552,0,0,0,.671-1.323,1.719,1.719,0,0,0-.9-1.545,4.4,4.4,0,0,0-2.309-.549,7.867,7.867,0,0,0-3.885,1.078l-.834-2.136a9.672,9.672,0,0,1,2.329-.885,10.514,10.514,0,0,1,2.451-.3,8.432,8.432,0,0,1,2.918.488,5.089,5.089,0,0,1,2.126,1.394,3.267,3.267,0,0,1,.224,3.976,3.647,3.647,0,0,1-1.566,1.221A4.051,4.051,0,0,1,164.344,997.583Z" style="fill:#32a9fe" />
        <path d="M170.72,989.458l3.356,4.759,3.356-4.759h3.092l-4.78,6.834,5.166,7.4h-3.132l-3.7-5.186L170.4,1003.7h-3.051l5.146-7.3-4.821-6.936Z" style="fill:#32a9fe" />
        <path d="M186.523,1002.953a7.011,7.011,0,0,1-2.746-2.624,7.56,7.56,0,0,1,0-7.5,7.011,7.011,0,0,1,2.746-2.624,8.618,8.618,0,0,1,7.851,0,7.022,7.022,0,0,1,2.746,2.614,7.6,7.6,0,0,1,0,7.525,7.029,7.029,0,0,1-2.746,2.614,8.618,8.618,0,0,1-7.851,0Zm6.488-2.013a4.631,4.631,0,0,0,1.79-1.79,5.41,5.41,0,0,0,0-5.146,4.631,4.631,0,0,0-1.79-1.79,5.443,5.443,0,0,0-5.125,0A4.637,4.637,0,0,0,186.1,994a5.41,5.41,0,0,0,0,5.146,4.637,4.637,0,0,0,1.79,1.79,5.45,5.45,0,0,0,5.125,0Z" style="fill:#32a9fe" />
        <path d="M215.975,1001.458v5.268h-2.441V1003.7H202.612v3.031h-2.461l.02-5.268h.61q1.342-.061,1.882-1.983a24.659,24.659,0,0,0,.661-5.5l.162-4.515h10.435v12Zm-10.78-2.634a5.221,5.221,0,0,1-1.1,2.634h7.22V991.7h-5.573l-.1,2.522A32.06,32.06,0,0,1,205.2,998.824Z" style="fill:#32a9fe" />
        <path d="M219.7,989.458h2.6v10.109l7.647-10.109h2.461V1003.7h-2.6V993.607l-7.647,10.088H219.7Z" style="fill:#32a9fe" />
        <path d="M247.948,991.7H243.23v12h-2.625v-12h-4.7v-2.237h12.041Z" style="fill:#32a9fe" />
        <path d="M262.125,1001.478v2.217H251.447V989.458H261.84v2.217h-7.749v3.7h6.875v2.177h-6.875v3.925Z" style="fill:#32a9fe" />
        <path d="M232.178,856.505H191.059l-.047,0-.045,0a1.253,1.253,0,0,0-.174.021h0a1.337,1.337,0,0,0-.178.049l-.031.011a1.336,1.336,0,0,0-.16.07l-.009,0a1.287,1.287,0,0,0-.154.1l-.032.024a1.221,1.221,0,0,0-.139.12h0L175.4,871.594h0a1.46,1.46,0,0,0-.12.139l-.024.033a1.519,1.519,0,0,0-.1.153l0,.011a1.48,1.48,0,0,0-.069.158l-.012.032a1.323,1.323,0,0,0-.049.177v.007a1.345,1.345,0,0,0-.021.169l0,.048c0,.016,0,.031,0,.046v64.616a4.319,4.319,0,0,0,4.314,4.314h52.867a4.319,4.319,0,0,0,4.314-4.314V860.819A4.319,4.319,0,0,0,232.178,856.505Zm-42.495,4.7v8.425a1.562,1.562,0,0,1-1.561,1.56H179.7Zm44.056,75.978a1.562,1.562,0,0,1-1.561,1.56H179.311a1.562,1.562,0,0,1-1.56-1.56V873.944h10.371a4.319,4.319,0,0,0,4.314-4.314V859.259h39.742a1.562,1.562,0,0,1,1.561,1.56Z" style="fill:#ffcb57" />
        <path d="M188.122,895.972h35.245a1.377,1.377,0,1,0,0-2.754H188.122a1.377,1.377,0,0,0,0,2.754Z" style="fill:#ffcb57" />
        <path d="M188.122,903.315h35.245a1.377,1.377,0,1,0,0-2.754H188.122a1.377,1.377,0,0,0,0,2.754Z" style="fill:#ffcb57" />
        <path d="M188.122,910.657h17.623a1.377,1.377,0,0,0,0-2.753H188.122a1.377,1.377,0,0,0,0,2.753Z" style="fill:#ffcb57" />
        <path d="M207.121,916.623a1.377,1.377,0,0,0-1.376-1.377H188.122a1.377,1.377,0,0,0,0,2.754h17.623A1.376,1.376,0,0,0,207.121,916.623Z" style="fill:#ffcb57" />
        <path d="M213,880.277a1.377,1.377,0,0,0-2.754,0c0,2.684,2.489,4.853,5.874,5.32v.187a1.377,1.377,0,0,0,2.754,0V885.6c3.385-.468,5.874-2.636,5.874-5.32s-2.489-4.853-5.874-5.32v-5.274c1.658.347,3.12,1.285,3.12,2.517a1.377,1.377,0,0,0,2.754,0c0-2.684-2.489-4.853-5.874-5.32v-.187a1.377,1.377,0,0,0-2.754,0v.187c-3.385.468-5.874,2.636-5.874,5.32s2.489,4.853,5.874,5.32v5.273C214.458,882.447,213,881.509,213,880.277Zm8.994,0c0,1.232-1.462,2.17-3.12,2.516V877.76C220.528,878.106,221.99,879.045,221.99,880.277ZM213,872.2c0-1.232,1.462-2.17,3.12-2.517v5.034C214.458,874.371,213,873.432,213,872.2Z" style="fill:#ffcb57" />
        <path d="M226.077,915.336a1.376,1.376,0,0,0-1.876.522l-2.831,5.01-.388-.3a1.378,1.378,0,0,0-2.075.481l-1.43,2.9-.459-.527a2.845,2.845,0,0,0-4.832.936l-1.58,4.547-3.758-4.748a1.378,1.378,0,0,0-1.985-.183l-3.99,3.481a1.377,1.377,0,1,0,1.81,2.075l2.9-2.531,3.589,4.533a2.112,2.112,0,0,0,3.649-.618l1.964-5.652a.091.091,0,0,1,.155-.03l1.817,2.083a1.376,1.376,0,0,0,2.272-.295l1.6-3.241.315.242a1.378,1.378,0,0,0,2.039-.414l3.612-6.392A1.378,1.378,0,0,0,226.077,915.336Z" style="fill:#ffcb57" />
        <ellipse cx="206.012" cy="951.633" rx="101.066" ry="4.732" style="opacity:0.9;mix-blend-mode:darken;fill:url(#g)" />
        <path d="M254.529,911.338s-1.937,19.1-17.01,20.422c15.073,1.322,17.01,20.422,17.01,20.422s1.937-19.1,17.01-20.422C256.466,930.439,254.529,911.338,254.529,911.338Z" style="fill:#fff9db;mix-blend-mode:multiply" />
        <path d="M266.078,859.876s-1.282,12.636-11.253,13.51c9.971.874,11.253,13.51,11.253,13.51s1.282-12.636,11.253-13.51C267.36,872.512,266.078,859.876,266.078,859.876Z" style="fill:#fff9db;mix-blend-mode:multiply" />
        <path d="M198.638,733.254a9.735,9.735,0,0,1-3.805-3.648,10.654,10.654,0,0,1,.015-10.5,9.837,9.837,0,0,1,3.818-3.648,11.191,11.191,0,0,1,5.437-1.32,11.333,11.333,0,0,1,4.456.852,9.087,9.087,0,0,1,3.407,2.47l-2.384,2.242a6.959,6.959,0,0,0-5.309-2.328,7.445,7.445,0,0,0-3.662.895,6.442,6.442,0,0,0-2.527,2.484,7.605,7.605,0,0,0,0,7.211,6.442,6.442,0,0,0,2.527,2.484,7.444,7.444,0,0,0,3.662.894,6.917,6.917,0,0,0,5.309-2.356l2.384,2.271a9.066,9.066,0,0,1-3.421,2.47,11.437,11.437,0,0,1-4.471.852A11.18,11.18,0,0,1,198.638,733.254Z" style="fill:#32a9fe" />
        <path d="M229.6,717.541h-6.587v16.75h-3.662v-16.75h-6.558v-3.123H229.6Z" style="fill:#32a9fe" />
        <path d="M244.955,729.691h-9.936l-1.96,4.6h-3.8l8.942-19.873h3.634l8.971,19.873h-3.861Zm-1.221-2.895-3.748-8.687-3.718,8.687Z" style="fill:#32a9fe" />
        <path d="M266.517,715.27a6.535,6.535,0,0,1,2.937,2.441,7.454,7.454,0,0,1,0,7.538,6.5,6.5,0,0,1-2.937,2.455,11,11,0,0,1-4.5.852h-4.486v5.735h-3.69V714.418h8.176A11,11,0,0,1,266.517,715.27Zm-1.009,9.141a4.045,4.045,0,0,0,0-5.848,5.667,5.667,0,0,0-3.661-1.022h-4.316v7.892h4.316A5.667,5.667,0,0,0,265.508,724.411Z" style="fill:#32a9fe" />
        <path d="M287.822,717.541h-6.586v16.75h-3.662v-16.75h-6.558v-3.123h16.806Z" style="fill:#32a9fe" />
        <path d="M291.115,733.851a2.117,2.117,0,0,1-.653-1.576,2.067,2.067,0,0,1,.653-1.561,2.283,2.283,0,0,1,1.646-.625,2.2,2.2,0,0,1,1.6.625,2.092,2.092,0,0,1,.639,1.561,2.142,2.142,0,0,1-.639,1.576,2.178,2.178,0,0,1-1.6.639A2.261,2.261,0,0,1,291.115,733.851Zm-.454-19.433h4.2l-.71,13.286h-2.811Z" style="fill:#32a9fe" />
        <path d="M168.924,698.688h0a6.989,6.989,0,0,0-2.891-1.57L165.6,697l-.159-.424a6.995,6.995,0,0,0-6.527-4.517c-.12,0-.241,0-.362.01a6.985,6.985,0,0,0-6.614,7.323l.517,10.172a1.885,1.885,0,0,0,1.979,1.788l10.172-.518a6.978,6.978,0,0,0,4.323-12.147Zm-2.3,7.327a3.186,3.186,0,0,1-2.216,1.054l-8.29.422L155.7,699.2a3.207,3.207,0,1,1,6.406-.326,1.869,1.869,0,0,0,.619,1.3,1.9,1.9,0,0,0,1.36.484,3.206,3.206,0,0,1,2.542,5.352Z" style="fill:#ffcb57" />
        <path d="M186.569,679.151a6.908,6.908,0,0,0-2.892-1.573l-.438-.115-.159-.424a6.993,6.993,0,0,0-6.526-4.516c-.12,0-.241,0-.362.009a6.986,6.986,0,0,0-6.614,7.324l.517,10.172a1.885,1.885,0,0,0,1.979,1.788l10.172-.518a6.978,6.978,0,0,0,4.323-12.147Zm-4.514,8.381-8.29.421-.421-8.289a3.207,3.207,0,0,1,6.406-.326,1.887,1.887,0,0,0,1.979,1.788,3.208,3.208,0,0,1,3.366,3.039A3.213,3.213,0,0,1,182.055,687.532Z" style="fill:#ffcb57" />
        <path d="M211.978,645.642a1.87,1.87,0,0,0-1.487-.472,90.528,90.528,0,0,0-62.475,36.9l-5.676,7.886L113.306,700.82a1.9,1.9,0,0,0-.963.808l-10.331,17.5a1.885,1.885,0,0,0,1.419,2.833l17.329,1.894,9.935,8.973-5.817,6.442a1.885,1.885,0,0,0,1.5,3.147,1.869,1.869,0,0,0,1.3-.619l5.818-6.443,9.936,8.975,3.643,17.046a1.885,1.885,0,0,0,2.962,1.124L166.4,750.448a1.9,1.9,0,0,0,.705-1.041l7.859-29.987,7.27-6.446a90.535,90.535,0,0,0,30.369-65.9A1.884,1.884,0,0,0,211.978,645.642Zm-91.3,74.413-13.937-1.524,8.506-14.412,23.124-8.652Zm42.942,27.752-13.473,9.925-2.931-13.71,22.663-20.1Zm39.559-71.677a86.921,86.921,0,0,1-23.453,34.022L145.158,740.81l-9.137-8.251,11.539-12.776a1.888,1.888,0,0,0-.135-2.663,1.888,1.888,0,0,0-2.664.136l-11.538,12.776-9.136-8.252,26.989-37.506a86.928,86.928,0,0,1,31.465-26.786l.848-.426.357.881a29.123,29.123,0,0,0,18.862,17.035l.913.264Zm5.524-25.847a86.489,86.489,0,0,1-3.7,20.564l-.251.814-.821-.228a25.345,25.345,0,0,1-16.793-15.166l-.31-.793.785-.332a86.4,86.4,0,0,1,20.081-5.773l1.075-.172Z" style="fill:#ffcb57" />
        <path d="M287.292,668.933A8.527,8.527,0,0,0,276.84,662.6a12.55,12.55,0,0,0-15.09-6.666,15.46,15.46,0,0,0-27.769,2.7A10.6,10.6,0,0,0,218.22,667.9c0,.348.018.691.051,1.029Z" style="fill:#d8f2ff;mix-blend-mode:multiply" />
        <path d="M142.133,683.556a8,8,0,0,0-9.813-5.944,11.781,11.781,0,0,0-14.169-6.259,14.515,14.515,0,0,0-26.073,2.536,9.958,9.958,0,0,0-14.8,8.7c0,.326.017.648.048.966Z" style="fill:#d8f2ff;mix-blend-mode:multiply" />
        <path d="M153.6,782.88s-.846,8.343-7.429,8.92c6.583.577,7.429,8.92,7.429,8.92s.846-8.343,7.43-8.92C154.451,791.223,153.6,782.88,153.6,782.88Z" style="fill:#fff9db;mix-blend-mode:multiply" />
        <path d="M884,959.274h-9.537v24.052H863.67V959.274h-9.538V950.76H884Z" style="fill:#32a9fe" />
        <path d="M887.63,950.76h10.793v16.934l11.213-16.934h10.327v32.566H909.17V966.438L898,983.326H887.63Z" style="fill:#32a9fe" />
        <path d="M888.839,996.132l-13.073,24.518a18.01,18.01,0,0,1-5.7,6.653,12.977,12.977,0,0,1-7.42,2.279,16.75,16.75,0,0,1-6.328-1.3l2.559-7.909a13.318,13.318,0,0,0,3.35.558,4.683,4.683,0,0,0,2.07-.419,5.009,5.009,0,0,0,1.652-1.395l-12.469-22.983h11.585l6.467,13.725,6.7-13.725Z" style="fill:#32a9fe" />
        <path d="M897.725,1027.28a16.162,16.162,0,0,1-6.489-6.048,17.713,17.713,0,0,1,0-17.633,16.162,16.162,0,0,1,6.489-6.048,19.783,19.783,0,0,1,9.3-2.163,20.435,20.435,0,0,1,8.467,1.674,15.728,15.728,0,0,1,6.142,4.839l-6.933,6.188q-3.024-3.816-7.118-3.815a7.271,7.271,0,0,0-5.536,2.209,9.453,9.453,0,0,0,0,11.864,7.269,7.269,0,0,0,5.536,2.21q4.094,0,7.118-3.815l6.933,6.187a15.719,15.719,0,0,1-6.142,4.839,20.419,20.419,0,0,1-8.467,1.675A19.807,19.807,0,0,1,897.725,1027.28Z" style="fill:#32a9fe" />
        <path d="M956.438,996.132V1028.7H945.645v-24.053h-9.91V1028.7H924.942V996.132Z" style="fill:#32a9fe" />
        <path d="M990.773,996.132V1028.7H979.979v-7.723h-2.931l-4.978,7.723H960.579l6.421-9.305a11.163,11.163,0,0,1-4.863-4.211,11.918,11.918,0,0,1-1.7-6.443,12.057,12.057,0,0,1,1.837-6.7,11.887,11.887,0,0,1,5.234-4.373,19.278,19.278,0,0,1,8-1.535Zm-19.261,12.422q0,4.142,4.187,4.141h4.28v-8.1H975.7Q971.513,1004.6,971.512,1008.554Z" style="fill:#32a9fe" />
        <path d="M994.68,996.132h12.562l-2.094,20.1h-8.374Zm1.861,31.4a5.24,5.24,0,0,1-1.721-3.954,5.08,5.08,0,0,1,1.721-3.932,7.049,7.049,0,0,1,8.84,0,5.08,5.08,0,0,1,1.721,3.932,5.24,5.24,0,0,1-1.721,3.954,6.814,6.814,0,0,1-8.84,0Z" style="fill:#32a9fe" />
        <g style="mix-blend-mode:multiply">
            <path d="M997.056,947.583a15.313,15.313,0,0,0-2.587-6.809,13.733,13.733,0,0,0-3.73-3.47A12.29,12.29,0,0,0,986,935.466a12.83,12.83,0,0,0-2.132-.172,17.557,17.557,0,0,0-5.6.984,15.931,15.931,0,0,0-5.191,3,22.231,22.231,0,0,0-3.975,4.508,17.923,17.923,0,0,0-2.254,4.785c-.1-.139-.2-.283-.316-.412s-.215-.238-.322-.355c-.031-.035-.064-.068-.1-.1a15.759,15.759,0,0,0-7.543-4.149,11.975,11.975,0,0,0-1.72-.269c-.589-.057-1.2-.113-1.8-.113-.258,0-.515.01-.769.035a16.33,16.33,0,0,0-2.47.415,15.812,15.812,0,0,0-2.62,1,12.333,12.333,0,0,0-3.324,2.408,11.649,11.649,0,0,0-1.967,2.46,14.962,14.962,0,0,0-1.951,6.64,16.3,16.3,0,0,0,.338,4.664,14.543,14.543,0,0,0,1.571,4.021,16.171,16.171,0,0,0,2.079,2.952,43.454,43.454,0,0,0,3.522,3.61,62.694,62.694,0,0,0,6.206,4.908,85.81,85.81,0,0,0,7.614,4.778c10.4,5.711,18.721,7.628,18.961,4.92a24.009,24.009,0,0,1,3.062-10.193q.3-.516.619-1.024c1.672-2.706,3.492-5.326,5.2-8.013a49.392,49.392,0,0,0,4.917-9.647,20.875,20.875,0,0,0,1.055-4.558,19.63,19.63,0,0,0,.164-2.3A18.854,18.854,0,0,0,997.056,947.583Z" style="fill:#ffd7e9" />
            <path d="M993.234,947.315a.82.82,0,0,1,.22,1.171.931.931,0,0,1-1.239.208.822.822,0,0,1-.22-1.171.933.933,0,0,1,1.239-.208Z" style="fill:#ffd7e9" />
            <path d="M992.781,952.025a.585.585,0,0,1,.157.834.664.664,0,0,1-.883.148.583.583,0,0,1-.156-.834.664.664,0,0,1,.882-.148Z" style="fill:#ffd7e9" />
            <path d="M991.2,956.9a.4.4,0,0,1,.106.567.45.45,0,0,1-.6.1.4.4,0,0,1-.107-.567.449.449,0,0,1,.6-.1Z" style="fill:#ffd7e9" />
            <path d="M988.536,960.564a.439.439,0,0,1,.118.628.5.5,0,0,1-.665.112.442.442,0,0,1-.118-.629.5.5,0,0,1,.665-.111Z" style="fill:#ffd7e9" />
        </g>
        <ellipse cx="778.777" cy="1068.506" rx="123.525" ry="5.784" style="opacity:0.9;mix-blend-mode:darken;fill:url(#h)" />
        <g style="mix-blend-mode:multiply">
            <path d="M775.185,970.855a26.507,26.507,0,0,0,49.752,0" style="fill:none;stroke:#ff7db9;stroke-linecap:round;stroke-linejoin:round;stroke-width:4.89841323104533px" />
            <path d="M793.531,954.274a3.3,3.3,0,1,1-3.3-3.3A3.3,3.3,0,0,1,793.531,954.274Z" style="fill:#ff7db9" />
            <path d="M813.191,954.274a3.3,3.3,0,1,1-3.3-3.3A3.3,3.3,0,0,1,813.191,954.274Z" style="fill:#ff7db9" />
        </g>
        <g style="mix-blend-mode:multiply">
            <path d="M764.328,1010.268a21.774,21.774,0,0,1-40.868,0" style="fill:none;stroke:#ffcb57;stroke-linecap:round;stroke-linejoin:round;stroke-width:4.89841323104533px" />
            <path d="M749.258,996.648a2.711,2.711,0,1,0,2.711-2.711A2.711,2.711,0,0,0,749.258,996.648Z" style="fill:#ffcb00" />
            <path d="M733.109,996.648a2.711,2.711,0,1,0,2.71-2.711A2.711,2.711,0,0,0,733.109,996.648Z" style="fill:#ffcb00" />
            <circle cx="743.811" cy="1006.942" r="36.6" style="fill:none;stroke:#ffcb57;stroke-linejoin:round;stroke-width:4.89841323104533px" />
        </g>
        <g style="mix-blend-mode:multiply">
            <path d="M778.511,1029.11a13.77,13.77,0,0,0,25.844,0" style="fill:none;stroke:#49c4ff;stroke-linecap:round;stroke-linejoin:round;stroke-width:3.84875325296419px" />
            <path d="M788.04,1020.5a1.714,1.714,0,1,1-1.713-1.714A1.713,1.713,0,0,1,788.04,1020.5Z" style="fill:#49c4ff" />
            <path d="M798.253,1020.5a1.714,1.714,0,1,1-1.715-1.714A1.714,1.714,0,0,1,798.253,1020.5Z" style="fill:#49c4ff" />
        </g>
        <circle cx="798.057" cy="964.46" r="43.789" style="fill:none;stroke:#ff7db9;stroke-linejoin:round;stroke-width:4.89841323104533px;mix-blend-mode:multiply" />
        <circle cx="792.338" cy="1026.059" r="23.038" style="fill:none;stroke:#49c4ff;stroke-linecap:round;stroke-linejoin:round;stroke-width:3.76857089352743px;mix-blend-mode:multiply" />
        <path d="M239.219,111.7v15.934h-2.276v-7.1h-9.151v7.1h-2.276V111.7h2.276v6.851h9.151V111.7Z" style="fill:#32a9fe" />
        <path d="M254.584,115.571l-5.85,13.27a5.981,5.981,0,0,1-1.81,2.6,4.128,4.128,0,0,1-2.493.751,5.286,5.286,0,0,1-1.718-.284,3.543,3.543,0,0,1-1.377-.831l.933-1.64a3.038,3.038,0,0,0,2.162.889,2.088,2.088,0,0,0,1.333-.422,3.618,3.618,0,0,0,.967-1.446l.387-.841-5.327-12.042h2.276l4.212,9.651,4.165-9.651Z" style="fill:#32a9fe" />
        <path d="M267.1,122.536h-2.345v5.1h-2.185v-5.1h-2.345l-3.323,5.1h-2.595l4.143-6.237-3.824-5.827h2.321l3.255,5.1h2.368v-5.1h2.185v5.1h2.368l3.255-5.1h2.344L268.9,121.42l4.143,6.215h-2.6Z" style="fill:#32a9fe" />
        <path d="M287.727,125.723v4.712h-2.048v-2.8H275.6v2.8h-2.072v-4.712h.637q1.161-.069,1.594-1.639a22.307,22.307,0,0,0,.592-4.439l.182-4.074h9.356v10.152Zm-9.754-2.151a3.7,3.7,0,0,1-1.035,2.151H283.7v-8.24h-5.236l-.114,2.321A26.246,26.246,0,0,1,277.973,123.572Z" style="fill:#32a9fe" />
        <path d="M298.711,116.686a4.745,4.745,0,0,1,1.332,3.665v7.284h-2.071v-1.594a3.453,3.453,0,0,1-1.56,1.286,5.948,5.948,0,0,1-2.4.445,5.022,5.022,0,0,1-3.244-.979,3.364,3.364,0,0,1-.057-5.133,5.721,5.721,0,0,1,3.688-.967h3.46v-.433a2.789,2.789,0,0,0-.82-2.163,3.456,3.456,0,0,0-2.413-.751,6.394,6.394,0,0,0-2.094.353,5.377,5.377,0,0,0-1.73.945L289.89,117a6.619,6.619,0,0,1,2.231-1.149,9.354,9.354,0,0,1,2.755-.4A5.457,5.457,0,0,1,298.711,116.686Zm-2.174,8.844a3.2,3.2,0,0,0,1.321-1.582v-1.685h-3.369q-2.778,0-2.777,1.866a1.69,1.69,0,0,0,.7,1.435,3.235,3.235,0,0,0,1.958.523A4.057,4.057,0,0,0,296.537,125.53Z" style="fill:#32a9fe" />
        <path d="M314.839,122.331h-9.788a3.784,3.784,0,0,0,1.4,2.561,4.565,4.565,0,0,0,2.97.968A4.476,4.476,0,0,0,312.9,124.4l1.206,1.411a5.275,5.275,0,0,1-2.037,1.457,7.682,7.682,0,0,1-6.112-.284,5.6,5.6,0,0,1-2.288-2.2,6.3,6.3,0,0,1-.808-3.186,6.39,6.39,0,0,1,.786-3.164,5.615,5.615,0,0,1,2.162-2.2,6.146,6.146,0,0,1,3.107-.787,6.026,6.026,0,0,1,3.085.787,5.513,5.513,0,0,1,2.117,2.2,6.7,6.7,0,0,1,.762,3.232A6.329,6.329,0,0,1,314.839,122.331Zm-8.548-4.075a3.854,3.854,0,0,0-1.24,2.5h7.739a3.885,3.885,0,0,0-1.24-2.492,4.075,4.075,0,0,0-5.259-.012Z" style="fill:#32a9fe" />
        <path d="M335.462,115.571v12.064H318.276V115.571h2.185v10.152h5.326V115.571h2.185v10.152h5.305V115.571Z" style="fill:#32a9fe" />
        <path d="M347.787,126.975a5.844,5.844,0,0,1-2.264-2.2,6.561,6.561,0,0,1,0-6.352,5.752,5.752,0,0,1,2.264-2.184,6.765,6.765,0,0,1,3.29-.787,6.319,6.319,0,0,1,2.925.661,4.7,4.7,0,0,1,1.991,1.912l-1.661,1.07a3.724,3.724,0,0,0-1.411-1.3,4.032,4.032,0,0,0-1.867-.432,4.313,4.313,0,0,0-2.128.523,3.745,3.745,0,0,0-1.48,1.491,4.919,4.919,0,0,0,0,4.462,3.726,3.726,0,0,0,1.48,1.491,4.313,4.313,0,0,0,2.128.524,4.033,4.033,0,0,0,1.867-.433,3.716,3.716,0,0,0,1.411-1.3l1.661,1.048A4.77,4.77,0,0,1,354,127.1a6.225,6.225,0,0,1-2.925.672A6.7,6.7,0,0,1,347.787,126.975Z" style="fill:#32a9fe" />
        <path d="M369.493,122.331H359.7a3.788,3.788,0,0,0,1.4,2.561,4.57,4.57,0,0,0,2.971.968,4.474,4.474,0,0,0,3.482-1.457l1.207,1.411a5.283,5.283,0,0,1-2.037,1.457,7.682,7.682,0,0,1-6.112-.284,5.6,5.6,0,0,1-2.288-2.2,6.291,6.291,0,0,1-.808-3.186,6.39,6.39,0,0,1,.786-3.164,5.615,5.615,0,0,1,2.162-2.2,6.146,6.146,0,0,1,3.107-.787,6.028,6.028,0,0,1,3.085.787,5.519,5.519,0,0,1,2.117,2.2,6.7,6.7,0,0,1,.762,3.232A6.329,6.329,0,0,1,369.493,122.331Zm-8.548-4.075a3.86,3.86,0,0,0-1.241,2.5h7.74a3.882,3.882,0,0,0-1.241-2.492,4.073,4.073,0,0,0-5.258-.012Z" style="fill:#32a9fe" />
        <path d="M227.086,149.727a5.786,5.786,0,0,1-2.242-2.2,6.646,6.646,0,0,1,0-6.352,5.7,5.7,0,0,1,2.242-2.185,7.017,7.017,0,0,1,6.454,0,5.728,5.728,0,0,1,2.231,2.185,6.653,6.653,0,0,1,0,6.352,5.811,5.811,0,0,1-2.231,2.2,6.931,6.931,0,0,1-6.454,0Zm5.316-1.65a3.786,3.786,0,0,0,1.445-1.5,4.973,4.973,0,0,0,0-4.44,3.713,3.713,0,0,0-1.445-1.491,4.4,4.4,0,0,0-4.166,0,3.787,3.787,0,0,0-1.457,1.491,4.873,4.873,0,0,0,0,4.44,3.863,3.863,0,0,0,1.457,1.5,4.323,4.323,0,0,0,4.166,0Z" style="fill:#32a9fe" />
        <path d="M248.279,140.235h-4.416v10.152h-2.185V140.235h-4.416v-1.912h11.017Z" style="fill:#32a9fe" />
        <path d="M258.6,149.727a5.84,5.84,0,0,1-2.265-2.2,6.561,6.561,0,0,1,0-6.352,5.757,5.757,0,0,1,2.265-2.185,6.771,6.771,0,0,1,3.289-.786,6.313,6.313,0,0,1,2.925.661,4.7,4.7,0,0,1,1.992,1.912l-1.662,1.07a3.716,3.716,0,0,0-1.411-1.3,4.027,4.027,0,0,0-1.867-.433,4.313,4.313,0,0,0-2.128.524,3.736,3.736,0,0,0-1.479,1.491,4.911,4.911,0,0,0,0,4.462,3.717,3.717,0,0,0,1.479,1.491,4.313,4.313,0,0,0,2.128.524,4.027,4.027,0,0,0,1.867-.433,3.708,3.708,0,0,0,1.411-1.3l1.662,1.048a4.766,4.766,0,0,1-1.992,1.923,6.22,6.22,0,0,1-2.925.672A6.7,6.7,0,0,1,258.6,149.727Z" style="fill:#32a9fe" />
        <path d="M279.169,138.983a5.572,5.572,0,0,1,2.174,2.162,6.978,6.978,0,0,1,0,6.431,5.547,5.547,0,0,1-2.174,2.173,6.332,6.332,0,0,1-3.141.775,5.584,5.584,0,0,1-2.379-.5,4.955,4.955,0,0,1-1.833-1.457V154.8h-2.185v-16.48h2.094v1.912a4.641,4.641,0,0,1,1.844-1.514,5.812,5.812,0,0,1,2.459-.513A6.343,6.343,0,0,1,279.169,138.983Zm-1.241,9.094a3.863,3.863,0,0,0,1.457-1.5,4.873,4.873,0,0,0,0-4.44,3.787,3.787,0,0,0-1.457-1.491,4.141,4.141,0,0,0-2.082-.524,4.028,4.028,0,0,0-2.061.536,3.874,3.874,0,0,0-1.457,1.491,4.453,4.453,0,0,0-.535,2.208,4.594,4.594,0,0,0,.524,2.22,3.762,3.762,0,0,0,1.457,1.5,4.3,4.3,0,0,0,4.154,0Z" style="fill:#32a9fe" />
        <path d="M296.15,145.083h-9.788a3.784,3.784,0,0,0,1.4,2.561,4.568,4.568,0,0,0,2.971.968,4.475,4.475,0,0,0,3.482-1.457l1.207,1.411a5.3,5.3,0,0,1-2.037,1.457,7.685,7.685,0,0,1-6.113-.284,5.6,5.6,0,0,1-2.287-2.2,6.291,6.291,0,0,1-.808-3.186,6.389,6.389,0,0,1,.785-3.164,5.631,5.631,0,0,1,2.162-2.2,6.16,6.16,0,0,1,3.108-.786,6.031,6.031,0,0,1,3.084.786,5.515,5.515,0,0,1,2.117,2.2,6.7,6.7,0,0,1,.763,3.232A6.376,6.376,0,0,1,296.15,145.083Zm-8.548-4.075a3.859,3.859,0,0,0-1.24,2.5H294.1a3.876,3.876,0,0,0-1.24-2.492,4.075,4.075,0,0,0-5.259-.012Z" style="fill:#32a9fe" />
        <path d="M311.652,148.475v4.712H309.6v-2.8H299.519v2.8h-2.071v-4.712h.637q1.161-.069,1.594-1.639a22.32,22.32,0,0,0,.591-4.439l.182-4.074h9.356v10.152Zm-9.754-2.151a3.7,3.7,0,0,1-1.036,2.151h6.761v-8.24h-5.236l-.114,2.321A26.264,26.264,0,0,1,301.9,146.324Z" style="fill:#32a9fe" />
        <path d="M316.466,149.727a5.84,5.84,0,0,1-2.265-2.2,6.568,6.568,0,0,1,0-6.352,5.757,5.757,0,0,1,2.265-2.185,6.775,6.775,0,0,1,3.29-.786,6.312,6.312,0,0,1,2.924.661,4.7,4.7,0,0,1,1.992,1.912l-1.661,1.07a3.726,3.726,0,0,0-1.412-1.3,4.026,4.026,0,0,0-1.866-.433,4.32,4.32,0,0,0-2.129.524,3.736,3.736,0,0,0-1.479,1.491,4.51,4.51,0,0,0-.535,2.22,4.556,4.556,0,0,0,.535,2.242,3.717,3.717,0,0,0,1.479,1.491,4.32,4.32,0,0,0,2.129.524,4.026,4.026,0,0,0,1.866-.433,3.718,3.718,0,0,0,1.412-1.3l1.661,1.048a4.766,4.766,0,0,1-1.992,1.923,6.218,6.218,0,0,1-2.924.672A6.7,6.7,0,0,1,316.466,149.727Z" style="fill:#32a9fe" />
        <path d="M336.327,140.235h-4.416v10.152h-2.185V140.235H325.31v-1.912h11.017Z" style="fill:#32a9fe" />
        <path d="M349.12,147.064a2.852,2.852,0,0,1-1.195,2.458,6.056,6.056,0,0,1-3.562.865h-5.805V138.323h5.6a5.968,5.968,0,0,1,3.346.807,2.6,2.6,0,0,1,1.207,2.288,2.707,2.707,0,0,1-.512,1.651,3.191,3.191,0,0,1-1.423,1.058A2.778,2.778,0,0,1,349.12,147.064Zm-8.422-3.552h3.278a3.3,3.3,0,0,0,1.9-.455,1.512,1.512,0,0,0,.648-1.32q0-1.73-2.549-1.73H340.7Zm5.554,4.758a1.476,1.476,0,0,0,.683-1.343,1.606,1.606,0,0,0-.626-1.389,3.387,3.387,0,0,0-1.969-.455H340.7V148.7h3.5A3.878,3.878,0,0,0,346.252,148.27Z" style="fill:#32a9fe" />
        <path d="M360.673,139.438A4.748,4.748,0,0,1,362,143.1v7.284h-2.071v-1.594a3.442,3.442,0,0,1-1.56,1.286,5.948,5.948,0,0,1-2.4.445,5.023,5.023,0,0,1-3.244-.979,3.138,3.138,0,0,1-1.217-2.572,3.171,3.171,0,0,1,1.16-2.562,5.729,5.729,0,0,1,3.688-.966h3.46v-.433a2.785,2.785,0,0,0-.82-2.163,3.453,3.453,0,0,0-2.412-.751,6.385,6.385,0,0,0-2.094.353,5.367,5.367,0,0,0-1.73.945l-.911-1.64a6.61,6.61,0,0,1,2.231-1.149,9.352,9.352,0,0,1,2.754-.4A5.461,5.461,0,0,1,360.673,139.438Zm-2.174,8.844a3.2,3.2,0,0,0,1.32-1.582v-1.685H356.45q-2.778,0-2.777,1.866a1.688,1.688,0,0,0,.706,1.435,3.23,3.23,0,0,0,1.957.523A4.06,4.06,0,0,0,358.5,148.282Z" style="fill:#32a9fe" />
        <path d="M380.465,145.128a2.471,2.471,0,0,1,.66,1.753,2.8,2.8,0,0,1-.729,1.9,4.781,4.781,0,0,1-2.014,1.3,8.382,8.382,0,0,1-2.88.467,9.9,9.9,0,0,1-2.629-.352,7.993,7.993,0,0,1-2.288-1.013l.66-1.662a7.344,7.344,0,0,0,1.981.853,8.446,8.446,0,0,0,2.253.308,4.918,4.918,0,0,0,2.471-.535,1.62,1.62,0,0,0,.921-1.445,1.442,1.442,0,0,0-.739-1.3,3.992,3.992,0,0,0-2.083-.455h-2.208v-1.571h2.048a3.694,3.694,0,0,0,1.935-.432,1.332,1.332,0,0,0,.706-1.184,1.4,1.4,0,0,0-.831-1.275,4.686,4.686,0,0,0-2.242-.455,9.022,9.022,0,0,0-3.8.933l-.592-1.684a10.13,10.13,0,0,1,4.621-1.116,7.835,7.835,0,0,1,2.618.41,4.239,4.239,0,0,1,1.821,1.161,2.517,2.517,0,0,1,.661,1.707,2.419,2.419,0,0,1-.592,1.594,3.665,3.665,0,0,1-1.594,1.07A3.836,3.836,0,0,1,380.465,145.128Z" style="fill:#32a9fe" />
        <path d="M392.586,139.438a4.748,4.748,0,0,1,1.331,3.665v7.284h-2.071v-1.594a3.442,3.442,0,0,1-1.56,1.286,5.948,5.948,0,0,1-2.4.445,5.025,5.025,0,0,1-3.244-.979,3.138,3.138,0,0,1-1.217-2.572,3.171,3.171,0,0,1,1.16-2.562,5.729,5.729,0,0,1,3.688-.966h3.46v-.433a2.785,2.785,0,0,0-.82-2.163,3.451,3.451,0,0,0-2.412-.751,6.385,6.385,0,0,0-2.094.353,5.367,5.367,0,0,0-1.73.945l-.911-1.64A6.61,6.61,0,0,1,386,138.607a9.352,9.352,0,0,1,2.754-.4A5.461,5.461,0,0,1,392.586,139.438Zm-2.174,8.844a3.2,3.2,0,0,0,1.32-1.582v-1.685h-3.369q-2.776,0-2.777,1.866a1.688,1.688,0,0,0,.706,1.435,3.23,3.23,0,0,0,1.957.523A4.058,4.058,0,0,0,390.412,148.282Z" style="fill:#32a9fe" />
        <path d="M242.147,158.488v18.26h-4.174V161.931h-6.261l-.13,3.809a39.057,39.057,0,0,1-.627,6.3,7.79,7.79,0,0,1-1.656,3.705,4.144,4.144,0,0,1-3.248,1.292,9.377,9.377,0,0,1-2.087-.288l.261-3.574a2.551,2.551,0,0,0,.757.1,2.2,2.2,0,0,0,2.113-1.787,21.9,21.9,0,0,0,.756-5.6l.261-7.408Z" style="fill:#32a9fe" />
        <path d="M260.851,173.357v3.391H246.712v-18.26h13.8v3.39h-9.6v3.966h8.478v3.287h-8.478v4.226Z" style="fill:#32a9fe" />
        <path d="M279.268,158.488v18.26H275.1v-6.574a13,13,0,0,1-4.409.862,8.149,8.149,0,0,1-5.635-1.761A6.475,6.475,0,0,1,263.1,164.2v-5.713h4.173v5.243a3.718,3.718,0,0,0,1.005,2.83,4.063,4.063,0,0,0,2.908.953,9.545,9.545,0,0,0,3.914-.81v-8.216Z" style="fill:#32a9fe" />
        <path d="M297.947,173.357v3.391h-14.14v-18.26h13.8v3.39h-9.6v3.966h8.478v3.287h-8.478v4.226Z" style="fill:#32a9fe" />
        <path d="M318.112,158.488v18.26h-4.226v-7.487h-8.3v7.487h-4.226v-18.26h4.226v7.2h8.3v-7.2Z" style="fill:#32a9fe" />
        <path d="M322.677,158.488h4.2v11.9l8.713-11.9h3.965v18.26h-4.174v-11.87l-8.713,11.87h-3.991Z" style="fill:#32a9fe" />
        <path d="M358.233,173.357v3.391H344.094v-18.26h13.8v3.39h-9.6v3.966h8.478v3.287h-8.478v4.226Z" style="fill:#32a9fe" />
        <polygon points="315.905 36.336 289.696 36.336 289.696 9.92 264.32 9.92 264.32 36.336 237.904 36.336 237.904 61.92 264.32 61.92 264.32 88.336 289.696 88.336 289.696 61.92 315.905 61.92 315.905 36.336" style="fill:none;stroke:#ffcb57;stroke-miterlimit:10;stroke-width:3.08116095447549px" />
        <ellipse cx="279.501" cy="95.966" rx="54.013" ry="5.902" style="opacity:0.9;mix-blend-mode:darken;fill:url(#i)" />
        <path d="M323.54,9.8s-1.282,12.636-11.253,13.51c9.971.874,11.253,13.51,11.253,13.51s1.281-12.636,11.253-13.51C324.821,22.432,323.54,9.8,323.54,9.8Z" style="fill:#fff9db;mix-blend-mode:multiply" />
        <path d="M342.813,33.979s-.8,7.914-7.048,8.462c6.246.547,7.048,8.462,7.048,8.462s.8-7.915,7.049-8.462C343.616,41.893,342.813,33.979,342.813,33.979Z" style="fill:#fff9db;mix-blend-mode:multiply" />
        <path d="M561.089,713.148,651,753.609l-90.109,40.852.2-34.988,71.736-5.538L560.959,748.2S560.894,712.953,561.089,713.148Z" style="fill:none;stroke:#ffcb57;stroke-linecap:round;stroke-linejoin:round;stroke-width:3.61112063864527px" />
        <path d="M222.7,1031c14.808,20.636,34.808,35.636,57.808,48.636,5,3,10,4,15,6,15,6,29,10,44,15,15,4,31,5,46,6,41,2,81-6,122-16,23-6,44-12,65-21,6-3,11-4,17-7,16-7,33-13,49-23,8-5,15-8,23-13,5-3,10-6,15.12-9.28" style="fill:none;stroke:#ff7db9;stroke-linecap:round;stroke-linejoin:round;stroke-width:2.1259842519685px;stroke-dasharray:2.951735734939575,5.411515235900879" />
        <path d="M530.761,739.41c-107.256-4.77-219.256,28.23-298.96,101.326" style="fill:none;stroke:#ff7db9;stroke-linecap:round;stroke-linejoin:round;stroke-width:2.1259842519685px;stroke-dasharray:2.951735734939575,5.411515235900879" />
        <path d="M872.737,568.891a101.531,101.531,0,0,1,16.768,6.749c3,2,6,2,9,3,18,9,74.76,45.6,106,101,1.553,2.755,1,5,2,8,6,13,11,27,10,42-2,28-18,52-43,66a7.542,7.542,0,0,1-4.08,1.88c-58,26-121.92,19.12-183.92,13.12-14-2-48-11-51-13a407.256,407.256,0,0,1-44-18c-6-2-11-4-16.567-6.43" style="fill:none;stroke:#ff7db9;stroke-linecap:round;stroke-linejoin:round;stroke-width:2.1259842519685px;stroke-dasharray:2.951735734939575,5.411515235900879" />
        <path d="M313.265,702c7.167-2.477,26.24-12.36,34.24-16.36,46-24,90-49,138-71,2-1,3,0,5-1,62-26,126-51,194-55,3-1,5-3,8.365-3" style="fill:none;stroke:#ff7db9;stroke-linecap:round;stroke-linejoin:round;stroke-width:2.1259842519685px;stroke-dasharray:2.951735734939575,5.411515235900879" />
        <path d="M238.318,474.844a7.547,7.547,0,0,1-3.813,1.8c-11,2-20,6-31,9-2,0-5,0-7,1-33,15-68,30-86,64-2,3-2,7-3,10-13,33-2,70,18.611,96.554" style="fill:none;stroke:#ff7db9;stroke-linecap:round;stroke-linejoin:round;stroke-width:2.1259842519685px;stroke-dasharray:2.951735734939575,5.411515235900879" />
        <path d="M825.651,446.858a524.145,524.145,0,0,1-52.146,27.782c-4,2-7,2-11,3-44,19-90,26-138,18-28-4-54-10-79-23-15-8-29-16-40-30a30.388,30.388,0,0,0-5-7c-29-44,4-97,45-118,15-7,30-11,46-9,24,3,43,16,58,36,1,1,1,3,2,4,18,19,18,49,7,72-4,8-11,15-16,23-5,6-12,9-17,15-1,1-2,0-3,1-42,36-98,52-152,37-35-10-69-22-103.789-28.662" style="fill:none;stroke:#ff7db9;stroke-linecap:round;stroke-linejoin:round;stroke-width:2.1259842519685px;stroke-dasharray:2.951735734939575,5.411515235900879" />
        <path d="M708.9,157.958c53.608,9.682,107.608,21.682,157.608,48.682,21,12,40,26,53.469,45.243" style="fill:none;stroke:#ff7db9;stroke-linecap:round;stroke-linejoin:round;stroke-width:2.1259842519685px;stroke-dasharray:2.951735734939575,5.411515235900879" />
        <path d="M210.065,295.92c11.44-9.28,22.44-17.28,34.44-26.28,11-7,20-14,31-21,98-61,202-98,313.712-100.7" style="fill:none;stroke:#ff7db9;stroke-linecap:round;stroke-linejoin:round;stroke-width:2.1259842519685px;stroke-dasharray:2.951735734939575,5.411515235900879" />
        <path d="M587.345,139.68a502.719,502.719,0,0,1-159.12-24.48,500.24,500.24,0,0,1-101.52-46.08" style="fill:none;stroke:#ff7db9;stroke-linecap:round;stroke-linejoin:round;stroke-width:2.1259842519685px;stroke-dasharray:2.951735734939575,5.411515235900879" />
        <ellipse cx="170.145" cy="779.428" rx="101.066" ry="4.732" style="opacity:0.9;mix-blend-mode:darken;fill:url(#j)" />
    </g>
</svg>
