<!-- Generator: Adobe Illustrator 23.0.3, SVG Export Plug-In . SVG Version: 6.00 Build 0)  -->
<svg version="1.1" id="Layer_1" xmlns="http://www.w3.org/2000/svg" xmlns:xlink="http://www.w3.org/1999/xlink" x="0px" y="0px" 
     viewBox="0 0 1019.7 1114.6" style="enable-background:new 0 0 1019.7 1114.6;" xml:space="preserve">
    <style type="text/css">
        .st0{fill:none;stroke:#FFCB57;stroke-width:1.6599;stroke-miterlimit:10;}
        .st1{fill:#FFCB57;}
        .st2{opacity:0.9;fill:url(#SVGID_1_);}
        .st3{opacity:0.9;fill:url(#SVGID_2_);}
        .st4{opacity:0.9;fill:url(#SVGID_3_);}
        .st5{opacity:0.9;fill:url(#SVGID_4_);}
        .st6{opacity:0.9;fill:url(#SVGID_5_);}
        .st7{fill:#FFF9DB;}
        .st8{fill:#FFD7E9;}
        .st9{opacity:0.9;fill:url(#SVGID_6_);}
        .st10{opacity:0.9;fill:url(#SVGID_7_);}
        .st11{fill:#D8F2FF;}
        .st12{opacity:0.9;fill:url(#SVGID_8_);}
        .st13{fill:none;stroke:#FF7DB9;stroke-width:2.2533;stroke-linecap:round;stroke-linejoin:round;stroke-miterlimit:10;}
        .st14{fill:#FF7DB9;}
        .st15{fill:none;stroke:#FFCB57;stroke-width:2.2533;stroke-linecap:round;stroke-linejoin:round;stroke-miterlimit:10;}
        .st16{fill:#FFCB00;}
        .st17{fill:none;stroke:#FFCB57;stroke-width:2.2533;stroke-linejoin:round;stroke-miterlimit:10;}
        .st18{fill:none;stroke:#49C4FF;stroke-width:1.7704;stroke-linecap:round;stroke-linejoin:round;stroke-miterlimit:10;}
        .st19{fill:#49C4FF;}
        .st20{fill:none;stroke:#FF7DB9;stroke-width:2.2533;stroke-linejoin:round;stroke-miterlimit:10;}
        .st21{fill:none;stroke:#49C4FF;stroke-width:1.7335;stroke-linecap:round;stroke-linejoin:round;stroke-miterlimit:10;}
        .st22{fill:#F6F0F8;}
        .st23{fill:#333343;}
        .st24{fill:#FFFFFF;}
        .st25{fill:#3E3D51;}
        .st26{fill:none;stroke:#FFCB57;stroke-width:1.4173;stroke-miterlimit:10;}
        .st27{opacity:0.9;fill:url(#SVGID_9_);}
        .st28{fill:none;stroke:#FFCB57;stroke-width:1.6611;stroke-linecap:round;stroke-linejoin:round;stroke-miterlimit:10;}
        .st29{fill:none;stroke:#FFCB57;stroke-width:3.6085;stroke-miterlimit:10;}
        .st30{opacity:0.9;fill:url(#SVGID_10_);}
        .st31{opacity:0.9;fill:url(#SVGID_11_);}
        .st32{opacity:0.9;fill:url(#SVGID_12_);}
        .st33{opacity:0.9;fill:url(#SVGID_13_);}
        .st34{opacity:0.9;fill:url(#SVGID_14_);}
        .st35{opacity:0.9;fill:url(#SVGID_15_);}
        .st36{opacity:0.9;fill:url(#SVGID_16_);}
        .st37{fill:none;stroke:#FF7DB9;stroke-width:4.8984;stroke-linecap:round;stroke-linejoin:round;stroke-miterlimit:10;}
        .st38{fill:none;stroke:#FFCB57;stroke-width:4.8984;stroke-linecap:round;stroke-linejoin:round;stroke-miterlimit:10;}
        .st39{fill:none;stroke:#FFCB57;stroke-width:4.8984;stroke-linejoin:round;stroke-miterlimit:10;}
        .st40{fill:none;stroke:#49C4FF;stroke-width:3.8488;stroke-linecap:round;stroke-linejoin:round;stroke-miterlimit:10;}
        .st41{fill:none;stroke:#FF7DB9;stroke-width:4.8984;stroke-linejoin:round;stroke-miterlimit:10;}
        .st42{fill:none;stroke:#49C4FF;stroke-width:3.7686;stroke-linecap:round;stroke-linejoin:round;stroke-miterlimit:10;}
        .st43{fill:#32A9FE;}
        .st44{fill:none;stroke:#FFCB57;stroke-width:3.0812;stroke-miterlimit:10;}
        .st45{opacity:0.9;fill:url(#SVGID_17_);}
        .st46{fill:none;stroke:#FFCB57;stroke-width:3.6111;stroke-linecap:round;stroke-linejoin:round;stroke-miterlimit:10;}
        
            .st47{fill:none;stroke:#FF7DB9;stroke-width:2.126;stroke-linecap:round;stroke-linejoin:round;stroke-miterlimit:10;stroke-dasharray:2.9517,5.4115;}
        .st48{opacity:0.9;fill:url(#SVGID_18_);}
        .st49{opacity:0.9;fill:url(#SVGID_19_);}
        .st50{opacity:0.9;fill:url(#SVGID_20_);}
        .st51{opacity:0.9;fill:url(#SVGID_21_);}
        .st52{opacity:0.9;fill:url(#SVGID_22_);}
        .st53{opacity:0.9;fill:url(#SVGID_23_);}
        .st54{opacity:0.9;fill:url(#SVGID_24_);}
        .st55{opacity:0.9;fill:url(#SVGID_25_);}
        .st56{opacity:0.9;fill:url(#SVGID_26_);}
        .st57{opacity:0.9;fill:url(#SVGID_27_);}
        .st58{opacity:0.9;fill:url(#SVGID_28_);}
        .st59{opacity:0.9;fill:url(#SVGID_29_);}
        .st60{opacity:0.9;fill:url(#SVGID_30_);}
        
            .st61{fill:none;stroke:#FF7DB9;stroke-width:1.4759;stroke-linecap:round;stroke-linejoin:round;stroke-miterlimit:10;stroke-dasharray:2.9517,5.4115;}
        .st62{opacity:0.9;fill:url(#SVGID_31_);}
        .st63{opacity:0.9;fill:url(#SVGID_32_);}
        .st64{opacity:0.9;fill:url(#SVGID_33_);}
        .st65{opacity:0.9;fill:url(#SVGID_34_);}
        .st66{opacity:0.9;fill:url(#SVGID_35_);}
        .st67{opacity:0.9;fill:url(#SVGID_36_);}
        .st68{opacity:0.9;fill:url(#SVGID_37_);}
        .st69{opacity:0.9;fill:url(#SVGID_38_);}
        .st70{opacity:0.9;fill:url(#SVGID_39_);}
        .st71{opacity:0.9;fill:url(#SVGID_40_);}
    </style>
    <g>
        <g>
            <path class="st43" d="M180.2,553.7c-1.6-0.9-2.9-2.1-3.8-3.7c-0.9-1.6-1.4-3.3-1.4-5.2c0-1.9,0.5-3.7,1.4-5.2
                c0.9-1.6,2.2-2.8,3.8-3.7c1.6-0.9,3.5-1.3,5.5-1.3c2,0,3.9,0.4,5.5,1.3c1.6,0.9,2.9,2.1,3.8,3.7c0.9,1.6,1.4,3.3,1.4,5.3
                c0,2-0.5,3.7-1.4,5.2c-0.9,1.5-2.2,2.8-3.8,3.6s-3.5,1.3-5.5,1.3C183.6,555,181.8,554.6,180.2,553.7z M189.2,550.9
                c1.1-0.6,1.9-1.4,2.5-2.5c0.6-1.1,0.9-2.3,0.9-3.6c0-1.3-0.3-2.5-0.9-3.6c-0.6-1.1-1.4-1.9-2.5-2.5c-1.1-0.6-2.3-0.9-3.6-0.9
                c-1.3,0-2.5,0.3-3.6,0.9c-1.1,0.6-1.9,1.4-2.5,2.5c-0.6,1.1-0.9,2.3-0.9,3.6c0,1.3,0.3,2.5,0.9,3.6c0.6,1.1,1.4,1.9,2.5,2.5
                c1.1,0.6,2.3,0.9,3.6,0.9C187,551.8,188.2,551.5,189.2,550.9z"/>
            <path class="st43" d="M219.6,551.7l0,7.4l-3.4,0l0-4.2l-15.2,0l0,4.2l-3.4,0l0-7.4l0.9,0c1.2-0.1,2.1-1,2.6-2.8
                c0.5-1.8,0.8-4.3,0.9-7.7l0.2-6.3l14.6,0l0,16.7L219.6,551.7z M204.5,548c-0.3,1.7-0.8,2.9-1.5,3.7l10.1,0l0-13.6l-7.8,0l-0.1,3.5
                C205.1,544.1,204.9,546.3,204.5,548z"/>
            <path class="st43" d="M226.8,553.8c-1.6-0.9-2.9-2.1-3.8-3.7c-0.9-1.6-1.4-3.3-1.4-5.2c0-1.9,0.5-3.7,1.4-5.2
                c0.9-1.6,2.2-2.8,3.8-3.7c1.6-0.9,3.5-1.3,5.5-1.3c2,0,3.9,0.4,5.5,1.3c1.6,0.9,2.9,2.1,3.8,3.7c0.9,1.6,1.4,3.3,1.4,5.3
                c0,2-0.5,3.7-1.4,5.2c-0.9,1.6-2.2,2.8-3.8,3.6s-3.5,1.3-5.5,1.3C230.2,555.1,228.4,554.7,226.8,553.8z M235.8,551
                c1.1-0.6,1.9-1.4,2.5-2.5c0.6-1.1,0.9-2.3,0.9-3.6c0-1.3-0.3-2.5-0.9-3.6c-0.6-1.1-1.4-1.9-2.5-2.5c-1.1-0.6-2.3-0.9-3.6-0.9
                c-1.3,0-2.5,0.3-3.6,0.9c-1.1,0.6-1.9,1.4-2.5,2.5c-0.6,1.1-0.9,2.3-0.9,3.6c0,1.3,0.3,2.5,0.9,3.6c0.6,1.1,1.4,1.9,2.5,2.5
                c1.1,0.6,2.3,0.9,3.6,0.9C233.6,551.9,234.8,551.6,235.8,551z"/>
            <path class="st43" d="M247.1,535l15.5,0l0,3l-11.8,0l0,4.9l5.9,0c2.4,0,4.2,0.5,5.4,1.5c1.2,1,1.9,2.4,1.9,4.3
                c0,2-0.7,3.5-2.1,4.6c-1.4,1.1-3.3,1.6-5.8,1.6l-8.9,0L247.1,535z M255.8,552c1.4,0,2.5-0.3,3.2-0.8c0.7-0.5,1.1-1.3,1.1-2.4
                c0-2-1.4-3.1-4.3-3.1l-5.1,0l0,6.3L255.8,552z"/>
            <path class="st43" d="M280.6,535.9c1.3,0.6,2.3,1.4,2.9,2.4c0.7,1.1,1,2.3,1,3.8c0,1.4-0.3,2.7-1,3.8c-0.7,1.1-1.7,1.9-2.9,2.5
                c-1.3,0.6-2.8,0.8-4.5,0.8l-4.5,0l0,5.7l-3.7,0l0-19.9l8.2,0C277.8,535,279.3,535.3,280.6,535.9z M279.6,545
                c0.8-0.7,1.3-1.7,1.3-2.9c0-1.3-0.4-2.2-1.2-2.9c-0.8-0.7-2.1-1-3.7-1l-4.3,0l0,7.9l4.3,0C277.5,546.1,278.7,545.7,279.6,545z"/>
            <path class="st43" d="M302.9,551.9l0,3.1l-14.9,0l0-19.9l14.5,0l0,3.1l-10.8,0l0,5.2l9.6,0l0,3l-9.6,0l0,5.5L302.9,551.9z"/>
            <path class="st43" d="M324.7,535.1l0,19.9l-3.7,0l0-8.5l-10.3,0l0,8.5l-3.7,0l0-19.9l3.7,0l0,8.2l10.3,0l0-8.2L324.7,535.1z"/>
            <path class="st43" d="M330.3,535.1l3.6,0l0,14.1l10.7-14.1l3.4,0l0,19.9l-3.6,0l0-14.1L333.7,555l-3.4,0L330.3,535.1z"/>
            <path class="st43" d="M368.5,552l0,3.1l-14.9,0l0-19.9l14.5,0l0,3.1l-10.8,0l0,5.2l9.6,0l0,3l-9.6,0l0,5.5L368.5,552z"/>
        </g>
        <circle class="st29" cx="265.7" cy="464.4" r="46.7"/>
        <g>
            <g>
                <path class="st1" d="M253.2,489.2c-1.5,0-2.4,0-2.5,0h-1.5v-27.3l0.5-0.4c3.1-3,5.3-6.9,7.5-10.7c0.5-0.8,0.9-1.6,1.4-2.5
                    l0.1-0.1c0.9-1.4,0.9-4.3,0.8-6.6c-0.1-2.2-0.1-4,0.6-5.1c0.6-0.9,1.5-1.4,2.7-1.6c2.2-0.3,4.4,0.9,5.5,3
                    c3.3,6.7,2.5,10.8,1.4,16.6c-0.1,0.8-0.3,1.6-0.5,2.5c2.3,0.1,4.6,0,6.8,0c2.5,0,5.1-0.1,7.6,0c1.9,0.1,4.3,0.3,5.6,1.9
                    c0.5,0.6,1,1.7,0.8,3.2c-0.3,1.7-1.1,3.1-2.4,4c0.9,0.9,1.3,2.1,1.1,3.5c-0.2,1.5-1.1,3-2.3,3.9c0.7,0.8,1.1,1.8,1,3
                    c0,1.8-1,3.5-2.4,4.5c0.8,1,1.1,2.2,0.8,3.5c-0.6,2.6-3.5,4.7-6.4,4.7C272.4,489.2,258.8,489.2,253.2,489.2z M252.2,486.2
                    c4.8,0,19.7,0,27.2,0c1.6,0,3.2-1.3,3.5-2.4c0.1-0.2,0.2-0.8-0.7-1.3c-0.9-0.3-1.4-1.1-1.3-1.9c0.1-0.9,0.8-1.6,1.8-1.7
                    c1-0.3,1.7-1.5,1.7-2.4c0-0.9-0.6-1.2-1-1.4l-0.1,0l-0.1-0.1c-0.8-0.4-1.2-1.2-1-2c0.2-0.8,1-1.4,1.8-1.5
                    c0.9-0.3,1.7-1.3,1.8-2.2c0.1-0.8-0.3-1.1-0.6-1.3l-0.1,0c0,0-0.1,0-0.1-0.1c-0.3-0.1-1.1-0.4-1.4-1.2l-0.1-0.1l0-0.1
                    c-0.2-0.8,0.2-1.7,1-2.1l0.1-0.1l0.1,0c1.3-0.3,2-1.2,2.3-2.6l0,0c0.1-0.6-0.1-0.8-0.1-0.9c-0.3-0.3-1.1-0.8-3.4-0.8
                    c-2.5-0.1-5,0-7.5,0c-2.8,0-5.8,0.1-8.7-0.1l-1.7-0.1l0.3-1.6c0.2-1.5,0.5-3,0.7-4.2c1.1-5.6,1.7-8.9-1.2-14.7
                    c-0.5-0.9-1.4-1.5-2.4-1.4c-0.4,0.1-0.6,0.2-0.6,0.2c-0.2,0.4-0.2,2.2-0.1,3.4c0.1,2.9,0.2,6.1-1.3,8.3c-0.5,0.8-0.9,1.6-1.4,2.4
                    c-2.2,3.8-4.4,7.8-7.6,11V486.2z"/>
            </g>
            <g>
                <path class="st1" d="M249.6,489.2h-5.8c-1.4,0-2.6-1.1-2.6-2.6v-23.1c0-1.4,1.1-2.6,2.6-2.6h5.8c1.4,0,2.6,1.1,2.6,2.6v23.1
                    C252.2,488.1,251,489.2,249.6,489.2z M244.2,486.2h4.9V464h-4.9V486.2z"/>
            </g>
        </g>
        
            <radialGradient id="SVGID_1_" cx="-870.0227" cy="5197.3491" r="129.2727" gradientTransform="matrix(0.5538 0 0 4.348000e-02 753.6798 294.979)" gradientUnits="userSpaceOnUse">
            <stop  offset="0.1034" style="stop-color:#E0E3E2"/>
            <stop  offset="0.2677" style="stop-color:#E9EBEA"/>
            <stop  offset="0.684" style="stop-color:#F9FAFA"/>
            <stop  offset="1" style="stop-color:#FFFFFF"/>
        </radialGradient>
        <ellipse class="st2" cx="271.9" cy="521" rx="101.1" ry="4.7"/>
    </g>
    <g>
        <g>
            <g>
                <path class="st43" d="M853.7,416.6v17.6h-4v-14.2h-7.9v14.2h-4v-17.6H853.7z"/>
                <path class="st43" d="M860.2,433.5c-1.1-0.6-2-1.4-2.6-2.5c-0.6-1.1-1-2.2-1-3.6c0-1.3,0.3-2.5,1-3.6c0.6-1.1,1.5-1.9,2.6-2.5
                    c1.1-0.6,2.4-0.9,3.8-0.9s2.7,0.3,3.8,0.9c1.1,0.6,2,1.4,2.6,2.5c0.6,1.1,1,2.2,1,3.6c0,1.3-0.3,2.5-1,3.6
                    c-0.6,1.1-1.5,1.9-2.6,2.5c-1.1,0.6-2.4,0.9-3.8,0.9S861.4,434.1,860.2,433.5z M866.5,430.1c0.6-0.7,1-1.6,1-2.7
                    c0-1.1-0.3-2-1-2.7c-0.6-0.7-1.5-1-2.5-1s-1.8,0.3-2.5,1c-0.7,0.7-1,1.6-1,2.7c0,1.1,0.3,2,1,2.7c0.7,0.7,1.5,1,2.5,1
                    C865,431.1,865.9,430.8,866.5,430.1z"/>
                <path class="st43" d="M887.9,420.7v11.2c0,2.5-0.6,4.3-1.9,5.5c-1.3,1.2-3.2,1.8-5.6,1.8c-1.3,0-2.5-0.2-3.7-0.5
                    c-1.2-0.3-2.1-0.8-2.9-1.4l1.6-2.8c0.6,0.5,1.3,0.8,2.2,1.1c0.9,0.3,1.7,0.4,2.6,0.4c1.4,0,2.4-0.3,3-0.9c0.6-0.6,1-1.5,1-2.8
                    v-0.6c-1,1.1-2.4,1.7-4.3,1.7c-1.2,0-2.4-0.3-3.4-0.8c-1-0.5-1.8-1.3-2.4-2.3c-0.6-1-0.9-2.1-0.9-3.4s0.3-2.4,0.9-3.4
                    s1.4-1.8,2.4-2.3c1-0.5,2.2-0.8,3.4-0.8c2,0,3.4,0.6,4.5,1.9v-1.7L887.9,420.7L887.9,420.7z M883,429.4c0.7-0.6,1-1.4,1-2.4
                    s-0.3-1.8-1-2.4s-1.5-0.9-2.5-0.9s-1.9,0.3-2.6,0.9c-0.7,0.6-1,1.4-1,2.4c0,1,0.3,1.8,1,2.4c0.7,0.6,1.5,0.9,2.6,0.9
                    C881.5,430.3,882.4,430,883,429.4z"/>
                <path class="st43" d="M897.5,429h-2v5.1h-3.9v-18.6h3.9v10.4h2.1l3.7-5.2h4.2l-4.7,6.5l5,7h-4.6L897.5,429z"/>
                <path class="st43" d="M919.1,421.3c1,0.6,1.8,1.4,2.4,2.4c0.6,1,0.9,2.3,0.9,3.6c0,1.4-0.3,2.6-0.9,3.6s-1.4,1.9-2.4,2.4
                    c-1,0.6-2.2,0.9-3.4,0.9c-1.7,0-3.1-0.5-4.1-1.6v6.3h-3.9v-18.4h3.7v1.6c1-1.2,2.4-1.8,4.2-1.8
                    C916.9,420.5,918,420.8,919.1,421.3z M917.4,430.1c0.6-0.7,1-1.6,1-2.7c0-1.1-0.3-2-1-2.7c-0.6-0.7-1.5-1-2.5-1s-1.8,0.3-2.5,1
                    c-0.6,0.7-1,1.6-1,2.7c0,1.1,0.3,2,1,2.7c0.6,0.7,1.5,1,2.5,1S916.8,430.8,917.4,430.1z"/>
                <path class="st43" d="M938.1,428.5h-10.2c0.2,0.8,0.6,1.5,1.3,2c0.7,0.5,1.5,0.7,2.6,0.7c0.7,0,1.3-0.1,1.9-0.3
                    c0.5-0.2,1-0.5,1.5-1l2.1,2.3c-1.3,1.5-3.1,2.2-5.6,2.2c-1.5,0-2.9-0.3-4-0.9c-1.2-0.6-2.1-1.4-2.7-2.5c-0.6-1.1-1-2.2-1-3.6
                    c0-1.3,0.3-2.5,0.9-3.6s1.5-1.9,2.6-2.5c1.1-0.6,2.3-0.9,3.7-0.9c1.3,0,2.5,0.3,3.6,0.9c1.1,0.6,1.9,1.4,2.5,2.4
                    c0.6,1.1,0.9,2.3,0.9,3.7C938.2,427.5,938.2,427.9,938.1,428.5z M929,424.2c-0.6,0.5-1,1.2-1.1,2.1h6.6c-0.1-0.9-0.5-1.5-1.1-2
                    c-0.6-0.5-1.3-0.8-2.2-0.8C930.3,423.4,929.6,423.7,929,424.2z"/>
                <path class="st43" d="M953.4,422c1,1,1.5,2.5,1.5,4.5v7.7h-3.9V427c0-1.1-0.2-1.9-0.7-2.4c-0.5-0.5-1.1-0.8-2-0.8
                    c-1,0-1.8,0.3-2.4,0.9s-0.9,1.5-0.9,2.7v6.7h-3.9v-13.5h3.7v1.6c0.5-0.6,1.2-1,1.9-1.3c0.8-0.3,1.6-0.5,2.5-0.5
                    C951.1,420.5,952.4,421,953.4,422z"/>
                <path class="st43" d="M971.7,420.7v13.5H968v-1.6c-0.5,0.6-1.1,1-1.8,1.3c-0.7,0.3-1.5,0.5-2.3,0.5c-1.8,0-3.2-0.5-4.2-1.5
                    c-1-1-1.6-2.5-1.6-4.5v-7.6h3.9v7c0,2.2,0.9,3.3,2.7,3.3c1,0,1.7-0.3,2.3-0.9c0.6-0.6,0.9-1.5,0.9-2.7v-6.7H971.7L971.7,420.7z"
                    />
                <path class="st43" d="M975.1,433.7c-0.5-0.5-0.7-1.1-0.7-1.8c0-0.7,0.2-1.3,0.7-1.7c0.5-0.4,1-0.7,1.7-0.7c0.7,0,1.3,0.2,1.7,0.7
                    c0.5,0.4,0.7,1,0.7,1.7c0,0.7-0.2,1.3-0.7,1.8c-0.5,0.5-1,0.7-1.7,0.7C976.2,434.4,975.6,434.1,975.1,433.7z"/>
                <path class="st43" d="M992.7,422.4c1,0.5,1.7,1.3,2.2,2.2s0.8,2.1,0.8,3.3c0,1.3-0.3,2.4-0.9,3.4c-0.6,1-1.5,1.8-2.6,2.3
                    c-1.1,0.5-2.4,0.8-3.8,0.8c-2.4,0-4.2-0.8-5.6-2.3c-1.3-1.5-2-3.7-2-6.7c0-2.7,0.6-4.9,1.8-6.5c1.2-1.6,3-2.7,5.4-3.2l6.4-1.3
                    l0.5,3.4l-5.7,1.1c-1.5,0.3-2.7,0.8-3.4,1.5c-0.7,0.7-1.2,1.7-1.3,3c0.6-0.6,1.3-1.1,2.1-1.5c0.8-0.3,1.7-0.5,2.7-0.5
                    C990.6,421.6,991.7,421.9,992.7,422.4z M990.8,430.4c0.6-0.7,0.9-1.5,0.9-2.5c0-1-0.3-1.8-0.9-2.4c-0.6-0.6-1.4-0.9-2.4-0.9
                    c-1,0-1.8,0.3-2.5,0.9c-0.6,0.6-0.9,1.4-0.9,2.4c0,1,0.3,1.9,1,2.5c0.6,0.6,1.4,1,2.4,1C989.4,431.4,990.2,431.1,990.8,430.4z"/>
                <path class="st43" d="M999.1,433.3c-1.2-0.8-1.8-1.8-1.8-3.2c0-0.9,0.3-1.6,0.8-2.2c0.5-0.5,1.1-0.9,1.8-1.1
                    c0.7-0.2,1.6-0.4,2.7-0.6c1-0.2,1.8-0.4,2.2-0.5c0.5-0.2,0.7-0.5,0.7-0.9c0-0.4-0.2-0.8-0.7-1c-0.4-0.2-1-0.3-1.8-0.3
                    c-0.7,0-1.4,0.1-2.2,0.3c-0.8,0.2-1.4,0.4-1.9,0.7l-1.1-2.6c0.8-0.4,1.6-0.7,2.5-0.9c0.9-0.2,1.8-0.3,2.8-0.3
                    c1.8,0,3.3,0.4,4.5,1.2s1.8,1.9,1.8,3.3c0,0.9-0.3,1.7-0.8,2.2c-0.5,0.5-1.1,0.9-1.8,1.1c-0.7,0.2-1.6,0.4-2.7,0.6
                    c-1,0.2-1.7,0.4-2.2,0.5c-0.5,0.2-0.7,0.5-0.7,0.8c0,0.4,0.2,0.8,0.7,1c0.5,0.2,1.1,0.3,1.8,0.3c0.9,0,1.7-0.1,2.7-0.4
                    c0.9-0.2,1.7-0.5,2.2-0.8l1.1,2.6c-0.8,0.5-1.8,0.9-2.8,1.1c-1,0.3-2.1,0.4-3.1,0.4C1001.9,434.4,1000.3,434,999.1,433.3z"/>
            </g>
        </g>
        <g>
            <g>
                <path class="st43" d="M810.9,397.9c0.7,0.8,1,1.9,1,3.1c0,1.7-0.6,3.1-1.9,4.1c-1.3,1-3.2,1.4-5.6,1.4h-9.4v-19.9h8.9
                    c2.2,0,4,0.4,5.2,1.3c1.2,0.9,1.9,2.1,1.9,3.8c0,1-0.3,1.9-0.8,2.7c-0.5,0.8-1.2,1.3-2.2,1.7
                    C809.2,396.5,810.2,397.1,810.9,397.9z M798.5,395.1h4.9c1.2,0,2.1-0.2,2.7-0.7c0.6-0.5,0.9-1.2,0.9-2.1c0-0.9-0.3-1.6-0.9-2.1
                    c-0.6-0.5-1.5-0.7-2.7-0.7h-4.9V395.1z M808.1,400.7c0-1.9-1.3-2.9-3.9-2.9h-5.7v5.8h5.7C806.8,403.7,808.1,402.7,808.1,400.7z"
                    />
                <path class="st43" d="M829.2,401.9h-9.9l-2,4.6h-3.8l8.9-19.9h3.6l9,19.9h-3.9L829.2,401.9z M828,399l-3.7-8.7l-3.7,8.7H828z"/>
                <path class="st43" d="M855.2,386.6v19.9h-3.6v-16.7h-7.8l-0.2,5c-0.1,2.8-0.3,5-0.7,6.8c-0.4,1.7-0.9,3-1.7,3.9
                    c-0.8,0.9-1.9,1.3-3.3,1.3c-0.5,0-1.2-0.1-2-0.3l0.3-3.2c0.2,0.1,0.5,0.1,0.9,0.1c1.2,0,2-0.7,2.5-2.1c0.5-1.4,0.8-3.5,0.9-6.5
                    l0.3-8.2H855.2z"/>
                <path class="st43" d="M860.8,386.6h3.6v14.1l10.7-14.1h3.4v19.9H875v-14.1l-10.7,14.1h-3.4V386.6z"/>
                <path class="st43" d="M903.7,403.4v7.4h-3.4v-4.2H885v4.2h-3.4l0-7.4h0.9c1.2-0.1,2.1-1,2.6-2.8c0.5-1.8,0.8-4.3,0.9-7.7l0.2-6.3
                    h14.6v16.7H903.7z M888.6,399.7c-0.3,1.7-0.8,2.9-1.5,3.7h10.1v-13.6h-7.8l-0.1,3.5C889.1,395.9,888.9,398,888.6,399.7z"/>
                <path class="st43" d="M907.2,386.6h3.6v14.1l10.7-14.1h3.4v19.9h-3.6v-14.1l-10.7,14.1h-3.4V386.6z"/>
                <path class="st43" d="M943.1,387.5c1.3,0.6,2.3,1.4,2.9,2.4c0.7,1.1,1,2.3,1,3.8c0,1.4-0.3,2.7-1,3.8c-0.7,1.1-1.7,1.9-2.9,2.5
                    c-1.3,0.6-2.8,0.9-4.5,0.9h-4.5v5.7h-3.7v-19.9h8.2C940.4,386.6,941.9,386.9,943.1,387.5z M942.1,396.6c0.8-0.7,1.2-1.7,1.2-2.9
                    c0-1.3-0.4-2.2-1.2-2.9c-0.8-0.7-2.1-1-3.7-1h-4.3v7.9h4.3C940.1,397.7,941.3,397.3,942.1,396.6z"/>
                <path class="st43" d="M962.8,401.9h-9.9l-2,4.6h-3.8l8.9-19.9h3.6l9,19.9h-3.9L962.8,401.9z M961.5,399l-3.7-8.7l-3.7,8.7H961.5z
                    "/>
                <path class="st43" d="M989.3,386.6v19.9h-3.7V398h-10.3v8.5h-3.7v-19.9h3.7v8.2h10.3v-8.2H989.3z"/>
                <path class="st43" d="M1009.8,403.4v3.1h-14.9v-19.9h14.5v3.1h-10.8v5.2h9.6v3h-9.6v5.5H1009.8z"/>
                <path class="st43" d="M796.7,433.4c-1.2-0.6-2.1-1.5-2.7-2.6c-0.7-1.1-1-2.4-1-3.8c0-1.4,0.3-2.6,1-3.8c0.7-1.1,1.6-2,2.7-2.6
                    c1.2-0.6,2.5-0.9,3.9-0.9c1.5,0,2.8,0.3,3.9,0.9c1.2,0.6,2.1,1.5,2.7,2.6c0.7,1.1,1,2.4,1,3.8c0,1.4-0.3,2.7-1,3.8
                    c-0.7,1.1-1.6,2-2.7,2.6c-1.2,0.6-2.5,0.9-3.9,0.9C799.2,434.4,797.9,434.1,796.7,433.4z M803.2,431.4c0.8-0.4,1.4-1,1.8-1.8
                    c0.4-0.8,0.7-1.6,0.7-2.6c0-0.9-0.2-1.8-0.7-2.6c-0.4-0.8-1-1.4-1.8-1.8c-0.8-0.4-1.6-0.6-2.6-0.6c-0.9,0-1.8,0.2-2.6,0.6
                    c-0.8,0.4-1.4,1-1.8,1.8c-0.4,0.8-0.7,1.6-0.7,2.6c0,0.9,0.2,1.8,0.7,2.6c0.4,0.8,1,1.4,1.8,1.8c0.8,0.4,1.6,0.6,2.6,0.6
                    C801.6,432,802.5,431.8,803.2,431.4z"/>
                <path class="st43" d="M821.4,422.2h-4.7v12h-2.6v-12h-4.7v-2.2h12V422.2z"/>
            </g>
            <g>
                <g>
                    <g>
                        <path class="st1" d="M924.8,309h-25.3c-1,0-1.9-0.8-1.9-1.9s0.8-1.9,1.9-1.9h25.3c1,0,1.9,0.8,1.9,1.9S925.8,309,924.8,309z"/>
                    </g>
                </g>
                <g>
                    <g>
                        <path class="st1" d="M924.8,341.8h-9.1c-1,0-1.9-0.8-1.9-1.9c0-1,0.8-1.9,1.9-1.9h9.1c1,0,1.9,0.8,1.9,1.9
                            C926.6,340.9,925.8,341.8,924.8,341.8z"/>
                    </g>
                </g>
                <g>
                    <g>
                        <path class="st1" d="M924.5,317.2h-21.6c-1,0-1.9-0.8-1.9-1.9c0-1,0.8-1.9,1.9-1.9h21.6c1,0,1.9,0.8,1.9,1.9
                            C926.4,316.4,925.6,317.2,924.5,317.2z"/>
                    </g>
                </g>
                <g>
                    <g>
                        <path class="st1" d="M924.8,325.4h-25.3c-1,0-1.9-0.8-1.9-1.9c0-1,0.8-1.9,1.9-1.9h25.3c1,0,1.9,0.8,1.9,1.9
                            C926.6,324.5,925.8,325.4,924.8,325.4z"/>
                    </g>
                </g>
                <path class="st1" d="M935.4,293c0-0.6-0.3-1.2-0.7-1.5l-22.1-22.1c0,0,0,0,0,0c-0.1-0.1-0.2-0.2-0.4-0.3c0,0-0.1,0-0.1-0.1
                    c-0.1-0.1-0.3-0.1-0.4-0.2c0,0,0,0,0,0c-0.1,0-0.2,0-0.4,0h-43.3c-1,0-1.9,0.8-1.9,1.9v19c0.7-0.1,1.4-0.1,2.1-0.1
                    c0.5,0,1.1,0,1.6,0.1v-17.1h39.6V293c0,1,0.8,1.9,1.9,1.9h20.4v59.5h-61.8v-17.1c-0.5,0.1-1.1,0.1-1.6,0.1c-0.7,0-1.4,0-2.1-0.1
                    v19c0,1,0.8,1.9,1.9,1.9h65.6c1,0,1.9-0.8,1.9-1.9v-63C935.4,293.1,935.4,293,935.4,293z M913.1,291.1v-15.9l15.9,15.9H913.1z"/>
                <g>
                    <path class="st1" d="M865.1,323.9c-0.5,0-0.9-0.2-1.2-0.5l-8.3-7.3c-0.8-0.7-0.9-1.9-0.2-2.7c0.7-0.8,1.9-0.9,2.7-0.2l6.9,6.1
                        l13.2-15.6c0.7-0.8,1.9-0.9,2.7-0.2c0.8,0.7,0.9,1.9,0.2,2.7l-14.5,17.1c-0.3,0.4-0.8,0.6-1.3,0.7
                        C865.2,323.9,865.2,323.9,865.1,323.9z"/>
                </g>
                <g>
                    <path class="st1" d="M868.2,339.2c-0.7,0-1.5,0-2.3-0.1c-13.4-1.2-23.5-12.2-23.5-25.7c0-13.4,10.1-24.5,23.5-25.7
                        c1.5-0.1,2.8-0.2,4.1,0c13.4,0.9,24,12.2,24,25.7c0,13.5-10.6,24.8-24,25.7C869.4,339.2,868.8,339.2,868.2,339.2z M868.2,291.5
                        c-0.6,0-1.3,0-2,0.1c-11.4,1-20,10.4-20,21.9c0,11.5,8.6,20.9,20,21.9c1.2,0.1,2.3,0.1,3.4,0c11.5-0.8,20.6-10.4,20.6-21.9
                        s-9-21.2-20.5-21.9C869.1,291.5,868.7,291.5,868.2,291.5z"/>
                </g>
            </g>
            
                <radialGradient id="SVGID_2_" cx="266.4455" cy="4843.1851" r="129.2727" gradientTransform="matrix(0.5538 0 0 4.348000e-02 753.6798 156.3876)" gradientUnits="userSpaceOnUse">
                <stop  offset="0.1034" style="stop-color:#E0E3E2"/>
                <stop  offset="0.2677" style="stop-color:#E9EBEA"/>
                <stop  offset="0.684" style="stop-color:#F9FAFA"/>
                <stop  offset="1" style="stop-color:#FFFFFF"/>
            </radialGradient>
            <ellipse class="st3" cx="901.2" cy="367" rx="101.1" ry="4.7"/>
        </g>
    </g>
    <g>
        <g>
            <path class="st43" d="M554.5,218.2c-1.6-0.9-2.9-2.1-3.8-3.6c-0.9-1.6-1.4-3.3-1.4-5.3c0-1.9,0.5-3.7,1.4-5.3
                c0.9-1.6,2.2-2.8,3.8-3.6c1.6-0.9,3.4-1.3,5.4-1.3c1.6,0,3.1,0.3,4.5,0.9s2.5,1.4,3.4,2.5l-2.4,2.2c-1.4-1.6-3.2-2.3-5.3-2.3
                c-1.4,0-2.6,0.3-3.7,0.9c-1.1,0.6-1.9,1.4-2.5,2.5c-0.6,1.1-0.9,2.3-0.9,3.6s0.3,2.5,0.9,3.6c0.6,1.1,1.4,1.9,2.5,2.5
                c1.1,0.6,2.3,0.9,3.7,0.9c2.1,0,3.9-0.8,5.3-2.4l2.4,2.3c-0.9,1.1-2.1,1.9-3.4,2.5c-1.4,0.6-2.8,0.9-4.5,0.9
                C558,219.5,556.2,219.1,554.5,218.2z"/>
            <path class="st43" d="M589.2,207.7c1.3,1.1,1.9,2.7,1.9,4.8c0,2.2-0.7,3.9-2.1,5.1c-1.4,1.2-3.4,1.7-5.9,1.7h-8.5v-16.7h-5.8v-3.1
                h9.5v6.7h5.5C586,206.1,587.9,206.6,589.2,207.7z M586.2,215.4c0.8-0.7,1.1-1.6,1.1-2.9c0-2.4-1.5-3.6-4.5-3.6h-4.7v7.5h4.7
                C584.3,216.4,585.4,216.1,586.2,215.4z"/>
            <path class="st43" d="M607.5,210.7c0.7,0.8,1,1.8,1,3c0,1.2-0.4,2.2-1.2,3.1c-0.8,0.9-1.8,1.6-3.1,2c-1.3,0.5-2.7,0.7-4.2,0.7
                c-1.3,0-2.7-0.2-4-0.6c-1.3-0.4-2.6-0.9-3.7-1.7l1.2-2.7c0.9,0.6,1.8,1,2.9,1.3c1.1,0.3,2.1,0.5,3.2,0.5c1.5,0,2.7-0.3,3.7-0.9
                c1-0.6,1.5-1.4,1.5-2.4c0-0.9-0.4-1.5-1.1-2c-0.7-0.5-1.7-0.7-3-0.7h-4.6v-2.9h4.3c1.1,0,2-0.2,2.6-0.7c0.6-0.5,0.9-1.1,0.9-1.8
                c0-0.9-0.4-1.6-1.3-2.2c-0.8-0.5-1.9-0.8-3.2-0.8c-0.9,0-1.8,0.1-2.8,0.4c-0.9,0.3-1.8,0.6-2.7,1.1l-1.2-3c1-0.5,2.1-1,3.3-1.2
                s2.3-0.4,3.4-0.4c1.5,0,2.8,0.2,4.1,0.7c1.2,0.5,2.2,1.1,3,1.9c0.7,0.8,1.1,1.8,1.1,3c0,1-0.3,1.8-0.8,2.6
                c-0.5,0.7-1.3,1.3-2.2,1.7C605.9,209.2,606.8,209.9,607.5,210.7z"/>
            <path class="st43" d="M632.4,216.1v7.4H629v-4.2h-15.2v4.2h-3.4l0-7.4h0.9c1.2-0.1,2.1-1,2.6-2.8c0.5-1.8,0.8-4.3,0.9-7.7l0.2-6.3
                h14.6v16.7H632.4z M617.3,212.4c-0.3,1.7-0.8,2.9-1.5,3.7h10.1v-13.6h-7.8L618,206C617.9,208.6,617.7,210.7,617.3,212.4z"/>
            <path class="st43" d="M649.2,214.6h-9.9l-2,4.6h-3.8l8.9-19.9h3.6l9,19.9h-3.9L649.2,214.6z M647.9,211.7l-3.7-8.7l-3.7,8.7H647.9
                z"/>
            <path class="st43" d="M658.1,199.4h3.6v14.1l10.7-14.1h3.4v19.9h-3.6v-14.1l-10.7,14.1h-3.4V199.4z M663.1,197
                c-0.9-0.7-1.3-1.7-1.3-3.1h2.6c0,0.7,0.2,1.2,0.7,1.6c0.4,0.4,1.1,0.6,1.9,0.6c0.8,0,1.5-0.2,1.9-0.6c0.5-0.4,0.7-0.9,0.7-1.6h2.6
                c0,1.3-0.5,2.3-1.3,3.1c-0.9,0.7-2.2,1.1-3.8,1.1C665.2,198,663.9,197.7,663.1,197z"/>
            <path class="st43" d="M555.3,237.6h-2.6v6h-2.6v-14.2h2.6v6h2.7l4.1-6h2.8l-4.9,6.9l5,7.3h-3L555.3,237.6z"/>
            <path class="st43" d="M573.5,240.3h-7.1l-1.4,3.3h-2.7l6.4-14.2h2.6l6.4,14.2h-2.8L573.5,240.3z M572.6,238.3l-2.7-6.2l-2.7,6.2
                H572.6z"/>
            <path class="st43" d="M592.9,243.6l0-9.4l-4.7,7.8H587l-4.7-7.7v9.3h-2.5v-14.2h2.2l5.6,9.4l5.6-9.4h2.2l0,14.2H592.9z"/>
            <path class="st43" d="M612,229.4v14.2h-2.6v-12H602v12h-2.6v-14.2H612z"/>
            <path class="st43" d="M625.5,240.3h-7.1l-1.4,3.3h-2.7l6.4-14.2h2.6l6.4,14.2h-2.8L625.5,240.3z M624.6,238.3l-2.7-6.2l-2.7,6.2
                H624.6z"/>
            <path class="st43" d="M644.5,229.4v14.2h-2.6v-6.1h-7.4v6.1h-2.6v-14.2h2.6v5.9h7.4v-5.9H644.5z"/>
            <path class="st43" d="M648.5,229.4h2.6v10.1l7.6-10.1h2.5v14.2h-2.6v-10.1l-7.6,10.1h-2.5V229.4z"/>
            <path class="st43" d="M676.1,229.4v14.2h-2.6v-4H670h-0.3l-2.6,4h-2.8l3.1-4.4c-1-0.4-1.8-0.9-2.3-1.7c-0.5-0.8-0.8-1.8-0.8-2.9
                c0-1.1,0.2-2,0.7-2.8c0.5-0.8,1.2-1.4,2.1-1.8c0.9-0.4,1.9-0.6,3.2-0.6H676.1z M667.7,232.4c-0.6,0.5-0.9,1.2-0.9,2.2
                c0,0.9,0.3,1.7,0.8,2.2c0.6,0.5,1.4,0.8,2.4,0.8h3.3v-5.9h-3.2C669.2,231.6,668.3,231.9,667.7,232.4z"/>
        </g>
        <g>
            <g>
                <g>
                    <path class="st1" d="M605,93.6L605,93.6L605,93.6 M605.4,100c2.2,3.8,4.3,9.6,3.7,16.3c-0.6,6.7-4.5,12-9.2,15
                        C604.3,122.5,605.9,113.1,605.4,100 M602.4,92c-0.7,0-1.1,0.6-1,2c1.5,19.6-0.5,30.8-9.4,43.3c9.7,0,19.7-9.1,20.7-20.7
                        C613.8,103.1,605.4,92,602.4,92L602.4,92z"/>
                </g>
                <g>
                    <g>
                        <path class="st1" d="M625.5,93.6L625.5,93.6L625.5,93.6 M625.7,100.3c1.1,2.1,2.1,4.7,2.8,7.9c1.3,6.1,1.9,18.1-8.3,30.8
                            c-1,1.3-1.1,3.1-0.1,4.4c0.7,0.9,1.8,1.5,2.9,1.5c0.5,0,0.9-0.1,1.3-0.3c0.5-0.2,10-4.1,17.3-15.4c-0.2,1.8-0.6,3.8-1.3,6.1
                            c-2.1,7-7.3,16.7-19.8,23.3c-1.5,0.8-2.3,2.6-1.8,4.2c0.5,1.5,1.9,2.6,3.5,2.6c0.1,0,0.2,0,0.3,0c0.3,0,5.8-0.6,12.1-3.3
                            c-4.2,4.6-10.9,9.7-19.6,11.4c-2.5,0.5-5.2,0.8-7.9,0.8c-12.6,0-23.3-5.6-28.5-15c-2.5-4.6-3.1-9.5-3.6-14.3
                            c-0.7-6.3-1.4-13.2-7.2-18.3c1.3-0.8,2.6-1,3.6-1c1.8,0,3.7,0.7,5.1,2c2.3,2.3,2.9,4.7,3.6,7.2c0.8,2.9,1.7,6.5,5.6,8.7
                            c2,1.1,4.4,1.7,7,1.7c7.1,0,15.6-4.4,21.2-11C621.3,125.3,625.4,113.2,625.7,100.3 M643.4,157L643.4,157L643.4,157 M622.9,92
                            c-0.7,0-1.1,0.6-1,2.1c1.2,16.1-3.8,29.3-10.7,37.7c-4.6,5.5-12.1,9.7-18.4,9.7c-1.9,0-3.7-0.4-5.2-1.2
                            c-5.2-2.9-2.4-9.3-8.5-15.3c-2-1.9-4.8-3-7.6-3c-3.3,0-6.7,1.5-9.1,5.1c12.9,7.1,6.1,21,13.2,33.8c6.6,12,19.6,16.9,31.6,16.9
                            c2.9,0,5.8-0.3,8.6-0.8c19.5-3.9,30.7-23.5,26.9-23.5c-0.5,0-1.3,0.4-2.4,1.2c-8.1,6.1-18,7.1-18,7.1c26-13.6,25-42,21.2-42
                            c-0.5,0-1.1,0.6-1.7,1.8c-6.8,14.9-18.7,19.7-18.7,19.7c9.8-12.1,11-24.5,9-33.8C630.1,98.2,625.1,92,622.9,92L622.9,92z"/>
                    </g>
                </g>
            </g>
        </g>
        
            <radialGradient id="SVGID_3_" cx="-262.9441" cy="4430.8262" r="129.2727" gradientTransform="matrix(0.5538 0 0 4.348000e-02 753.6798 -4.9767)" gradientUnits="userSpaceOnUse">
            <stop  offset="0.1034" style="stop-color:#E0E3E2"/>
            <stop  offset="0.2677" style="stop-color:#E9EBEA"/>
            <stop  offset="0.684" style="stop-color:#F9FAFA"/>
            <stop  offset="1" style="stop-color:#FFFFFF"/>
        </radialGradient>
        <ellipse class="st4" cx="608.1" cy="187.7" rx="101.1" ry="4.7"/>
    </g>
    <g>
        <g>
            <g>
                <path class="st43" d="M678.5,643.4c-1.2-0.6-2.1-1.5-2.7-2.6c-0.7-1.1-1-2.4-1-3.8c0-1.4,0.3-2.7,1-3.8c0.7-1.1,1.6-2,2.7-2.6
                    s2.5-0.9,3.9-0.9c1.2,0,2.2,0.2,3.2,0.6c1,0.4,1.8,1,2.4,1.8l-1.7,1.6c-1-1.1-2.3-1.7-3.8-1.7c-1,0-1.9,0.2-2.6,0.6
                    c-0.8,0.4-1.4,1-1.8,1.8c-0.4,0.8-0.7,1.6-0.7,2.6s0.2,1.8,0.7,2.6c0.4,0.8,1,1.4,1.8,1.8c0.8,0.4,1.6,0.6,2.6,0.6
                    c1.5,0,2.8-0.6,3.8-1.7l1.7,1.6c-0.7,0.8-1.5,1.4-2.5,1.8c-1,0.4-2,0.6-3.2,0.6C680.9,644.4,679.6,644.1,678.5,643.4z"/>
                <path class="st43" d="M704.5,635.9c0.9,0.8,1.4,1.9,1.4,3.4c0,1.6-0.5,2.8-1.5,3.6c-1,0.8-2.4,1.2-4.3,1.2H694v-12h-4.2v-2.2h6.8
                    v4.8h3.9C702.3,634.8,703.6,635.1,704.5,635.9z M702.4,641.4c0.5-0.5,0.8-1.2,0.8-2.1c0-1.7-1.1-2.6-3.2-2.6h-3.4v5.4h3.4
                    C701,642.1,701.8,641.9,702.4,641.4z"/>
                <path class="st43" d="M709.8,629.9h11.1v2.2h-8.5v3.5h4.2c1.7,0,3,0.4,3.9,1.1c0.9,0.7,1.3,1.7,1.3,3.1c0,1.4-0.5,2.5-1.5,3.3
                    c-1,0.8-2.4,1.1-4.2,1.1h-6.4V629.9z M716.1,642.1c1,0,1.8-0.2,2.3-0.6c0.5-0.4,0.8-1,0.8-1.7c0-1.5-1-2.2-3.1-2.2h-3.7v4.5
                    H716.1z"/>
                <path class="st43" d="M726,629.9h2.6V640l7.6-10.1h2.5v14.2h-2.6v-10.1l-7.6,10.1H726V629.9z"/>
                <path class="st43" d="M753,630.5c0.9,0.4,1.6,1,2.1,1.7c0.5,0.8,0.7,1.7,0.7,2.7c0,1-0.2,1.9-0.7,2.7c-0.5,0.8-1.2,1.4-2.1,1.8
                    s-2,0.6-3.2,0.6h-3.2v4.1h-2.6v-14.2h5.9C751,629.9,752,630.1,753,630.5z M752.2,637.1c0.6-0.5,0.9-1.2,0.9-2.1
                    c0-0.9-0.3-1.6-0.9-2.1c-0.6-0.5-1.5-0.7-2.6-0.7h-3.1v5.7h3.1C750.8,637.8,751.6,637.6,752.2,637.1z"/>
                <path class="st43" d="M772.2,629.9v14.2h-2.6v-6.1h-7.4v6.1h-2.6v-14.2h2.6v5.9h7.4v-5.9H772.2z"/>
                <path class="st43" d="M788.1,642v2.2h-10.7v-14.2h10.4v2.2H780v3.7h6.9v2.2H780v3.9H788.1z"/>
                <path class="st43" d="M811.7,629.9v14.2h-2.6v-6.1h-7.4v6.1h-2.6v-14.2h2.6v5.9h7.4v-5.9H811.7z"/>
                <path class="st43" d="M826.4,640.9h-7.1l-1.4,3.3h-2.7l6.4-14.2h2.6l6.4,14.2h-2.8L826.4,640.9z M825.5,638.8l-2.7-6.2l-2.7,6.2
                    H825.5z"/>
                <path class="st43" d="M680.3,670.8c-1.6-0.9-2.9-2.1-3.8-3.6c-0.9-1.6-1.4-3.3-1.4-5.3c0-1.9,0.5-3.7,1.4-5.3
                    c0.9-1.6,2.2-2.8,3.8-3.6c1.6-0.9,3.4-1.3,5.4-1.3c1.6,0,3.1,0.3,4.5,0.9c1.3,0.6,2.5,1.4,3.4,2.5l-2.4,2.2
                    c-1.4-1.6-3.2-2.3-5.3-2.3c-1.4,0-2.6,0.3-3.7,0.9c-1.1,0.6-1.9,1.4-2.5,2.5c-0.6,1.1-0.9,2.3-0.9,3.6c0,1.3,0.3,2.5,0.9,3.6
                    s1.4,1.9,2.5,2.5c1.1,0.6,2.3,0.9,3.7,0.9c2.1,0,3.9-0.8,5.3-2.4l2.4,2.3c-0.9,1.1-2.1,1.9-3.4,2.5c-1.4,0.6-2.8,0.9-4.5,0.9
                    C683.7,672.1,681.9,671.7,680.3,670.8z"/>
                <path class="st43" d="M709.8,652.8c1.3,0.6,2.3,1.4,2.9,2.4c0.7,1.1,1,2.3,1,3.8c0,1.4-0.3,2.7-1,3.8c-0.7,1.1-1.7,1.9-2.9,2.5
                    c-1.3,0.6-2.8,0.9-4.5,0.9h-4.5v5.7h-3.7V652h8.2C707,652,708.5,652.2,709.8,652.8z M708.7,661.9c0.8-0.7,1.2-1.7,1.2-2.9
                    s-0.4-2.2-1.2-2.9c-0.8-0.7-2.1-1-3.7-1h-4.3v7.9h4.3C706.7,663,707.9,662.6,708.7,661.9z"/>
                <path class="st43" d="M732.1,668.7v3.1h-14.9V652h14.5v3.1h-10.8v5.2h9.6v3h-9.6v5.5H732.1z"/>
                <path class="st43" d="M755.9,668.7v7.4h-3.4v-4.2h-15.2v4.2h-3.4l0-7.4h0.9c1.2-0.1,2.1-1,2.6-2.8c0.5-1.8,0.8-4.3,0.9-7.7
                    l0.2-6.3h14.6v16.7H755.9z M740.9,665c-0.3,1.7-0.8,2.9-1.5,3.7h10.1v-13.6h-7.8l-0.1,3.5C741.4,661.2,741.2,663.3,740.9,665z"/>
                <path class="st43" d="M763.1,670.8c-1.6-0.9-2.9-2.1-3.8-3.6c-0.9-1.6-1.4-3.3-1.4-5.3c0-1.9,0.5-3.7,1.4-5.3
                    c0.9-1.6,2.2-2.8,3.8-3.6c1.6-0.9,3.4-1.3,5.4-1.3c1.6,0,3.1,0.3,4.5,0.9c1.3,0.6,2.5,1.4,3.4,2.5l-2.4,2.2
                    c-1.4-1.6-3.2-2.3-5.3-2.3c-1.4,0-2.6,0.3-3.7,0.9c-1.1,0.6-1.9,1.4-2.5,2.5c-0.6,1.1-0.9,2.3-0.9,3.6c0,1.3,0.3,2.5,0.9,3.6
                    c0.6,1.1,1.4,1.9,2.5,2.5c1.1,0.6,2.3,0.9,3.7,0.9c2.1,0,3.9-0.8,5.3-2.4l2.4,2.3c-0.9,1.1-2.1,1.9-3.4,2.5
                    c-1.4,0.6-2.8,0.9-4.5,0.9C766.5,672.1,764.7,671.7,763.1,670.8z"/>
                <path class="st43" d="M794.1,655.1h-6.6v16.7h-3.7v-16.7h-6.6V652h16.8V655.1z"/>
                <path class="st43" d="M813.2,663.2c0.7,0.8,1,1.9,1,3.1c0,1.7-0.6,3.1-1.9,4.1c-1.3,1-3.2,1.4-5.6,1.4h-9.4V652h8.9
                    c2.2,0,4,0.4,5.2,1.3c1.2,0.9,1.9,2.1,1.9,3.8c0,1-0.3,1.9-0.8,2.7c-0.5,0.8-1.2,1.3-2.2,1.7
                    C811.6,661.8,812.6,662.4,813.2,663.2z M800.9,660.4h4.9c1.2,0,2.1-0.2,2.7-0.7c0.6-0.5,0.9-1.2,0.9-2.1c0-0.9-0.3-1.6-0.9-2.1
                    c-0.6-0.5-1.5-0.7-2.7-0.7h-4.9V660.4z M810.5,666c0-1.9-1.3-2.9-3.9-2.9h-5.7v5.8h5.7C809.2,669,810.5,668,810.5,666z"/>
                <path class="st43" d="M831.6,667.2h-9.9l-2,4.6h-3.8l8.9-19.9h3.6l9,19.9h-3.9L831.6,667.2z M830.4,664.3l-3.7-8.7l-3.7,8.7
                    H830.4z"/>
                <path class="st43" d="M678.5,695.5c-1.2-0.6-2.1-1.5-2.7-2.6c-0.7-1.1-1-2.4-1-3.8s0.3-2.6,1-3.8c0.7-1.1,1.6-2,2.7-2.6
                    c1.2-0.6,2.5-0.9,3.9-0.9c1.5,0,2.8,0.3,3.9,0.9c1.2,0.6,2.1,1.5,2.7,2.6c0.7,1.1,1,2.4,1,3.8s-0.3,2.7-1,3.8
                    c-0.7,1.1-1.6,2-2.7,2.6c-1.2,0.6-2.5,0.9-3.9,0.9C681,696.4,679.7,696.1,678.5,695.5z M685,693.5c0.8-0.4,1.4-1,1.8-1.8
                    c0.4-0.8,0.7-1.6,0.7-2.6s-0.2-1.8-0.7-2.6c-0.4-0.8-1-1.4-1.8-1.8c-0.8-0.4-1.6-0.6-2.6-0.6c-0.9,0-1.8,0.2-2.6,0.6
                    c-0.8,0.4-1.4,1-1.8,1.8c-0.4,0.8-0.7,1.6-0.7,2.6s0.2,1.8,0.7,2.6c0.4,0.8,1,1.4,1.8,1.8c0.8,0.4,1.6,0.6,2.6,0.6
                    C683.4,694.1,684.2,693.9,685,693.5z"/>
                <path class="st43" d="M703.5,684.2h-4.7v12h-2.6v-12h-4.7V682h12V684.2z"/>
                <path class="st43" d="M726.4,694v5.3h-2.4v-3H713v3h-2.5l0-5.3h0.6c0.9,0,1.5-0.7,1.9-2c0.4-1.3,0.6-3.1,0.7-5.5l0.2-4.5h10.4v12
                    H726.4z M715.6,691.4c-0.2,1.2-0.6,2.1-1.1,2.6h7.2v-9.8h-5.6l-0.1,2.5C716,688.6,715.8,690.1,715.6,691.4z"/>
                <path class="st43" d="M738.8,692.9h-7.1l-1.4,3.3h-2.7L734,682h2.6l6.4,14.2h-2.8L738.8,692.9z M737.9,690.9l-2.7-6.2l-2.7,6.2
                    H737.9z"/>
                <path class="st43" d="M754.6,682.6c0.9,0.4,1.6,1,2.1,1.7c0.5,0.8,0.7,1.7,0.7,2.7c0,1-0.2,1.9-0.7,2.7c-0.5,0.8-1.2,1.4-2.1,1.8
                    c-0.9,0.4-2,0.6-3.2,0.6h-3.2v4.1h-2.6V682h5.9C752.7,682,753.7,682.2,754.6,682.6z M753.9,689.2c0.6-0.5,0.9-1.2,0.9-2.1
                    c0-0.9-0.3-1.6-0.9-2.1c-0.6-0.5-1.5-0.7-2.6-0.7h-3.1v5.7h3.1C752.5,689.9,753.3,689.6,753.9,689.2z"/>
                <path class="st43" d="M760.4,682h2.6v10.1l7.6-10.1h2.5v14.2h-2.6v-10.1l-7.6,10.1h-2.5V682z"/>
                <path class="st43" d="M787.9,684.2h-4.7v12h-2.6v-12h-4.7V682h12V684.2z"/>
                <path class="st43" d="M801.2,694v2.2h-10.7V682h10.4v2.2h-7.7v3.7h6.9v2.2h-6.9v3.9H801.2z"/>
                <path class="st43" d="M816.7,682v14.2h-2.6v-12h-5.6l-0.1,3.6c-0.1,2-0.2,3.6-0.5,4.9c-0.3,1.2-0.7,2.2-1.2,2.8
                    c-0.6,0.6-1.4,1-2.4,1c-0.4,0-0.8-0.1-1.4-0.2l0.2-2.3c0.2,0.1,0.4,0.1,0.6,0.1c0.8,0,1.4-0.5,1.8-1.5c0.3-1,0.6-2.5,0.6-4.6
                    l0.2-5.9H816.7z"/>
                <path class="st43" d="M821.2,682h2.6v10.1l7.6-10.1h2.5v14.2h-2.6v-10.1l-7.6,10.1h-2.5V682z"/>
            </g>
        </g>
        <g>
            <path class="st1" d="M752.8,567.8c4.8-3.2,8-8.6,8-14.8c0-9.8-8-17.8-17.8-17.8s-17.8,8-17.8,17.8c0,6.2,3.2,11.6,8,14.8
                c-10.9,4-18.6,14.4-18.6,26.7h4.7c0-13.1,10.6-23.7,23.7-23.7s23.7,10.6,23.7,23.7h4.7C771.4,582.2,763.6,571.8,752.8,567.8z
                M743,566c-7.2,0-13-5.8-13-13c0-7.2,5.8-13,13-13c7.2,0,13,5.8,13,13C756,560.1,750.2,566,743,566z"/>
            <path class="st1" d="M776.5,555.9c4.8-3.2,8-8.6,8-14.8c0-9.8-8-17.8-17.8-17.8c-4.7,0-9.1,1.9-12.3,4.9c-1.2,1.1-2.2,2.4-3,3.8
                c1.5,0.6,2.9,1.3,4.2,2.2c0.8-1.4,1.9-2.6,3.2-3.5c2.2-1.7,4.9-2.7,7.9-2.7c7.2,0,13,5.8,13,13c0,6-4,11-9.5,12.5
                c-1.1,0.3-2.3,0.5-3.5,0.5c-0.4,0-0.8,0-1.2-0.1c-0.1,1.7-0.4,3.4-0.8,4.9c0.7-0.1,1.3-0.1,2-0.1c1,0,1.9,0.1,2.8,0.2
                c11.7,1.4,20.9,11.4,20.9,23.5h4.7C795.1,570.4,787.3,559.9,776.5,555.9z"/>
            <path class="st1" d="M719.3,558.9c0.7,0,1.4,0.1,2,0.1c-0.4-1.6-0.7-3.2-0.8-4.9c-0.4,0-0.8,0.1-1.2,0.1c-1.2,0-2.4-0.2-3.5-0.5
                c-5.5-1.5-9.5-6.6-9.5-12.5c0-7.2,5.8-13,13-13c3,0,5.7,1,7.9,2.7c1.3,1,2.3,2.2,3.2,3.5c1.3-0.9,2.7-1.6,4.2-2.2
                c-0.8-1.4-1.9-2.7-3-3.8c-3.2-3-7.5-4.9-12.3-4.9c-9.8,0-17.8,8-17.8,17.8c0,6.2,3.2,11.6,8,14.8c-10.9,4-18.6,14.4-18.6,26.7h4.7
                c0-12.1,9.1-22.1,20.9-23.5C717.3,559,718.3,558.9,719.3,558.9z"/>
            <path class="st1" d="M793.1,539.3c4.8-3.2,8-8.6,8-14.8c0-9.8-8-17.8-17.8-17.8c-4.7,0-9.1,1.9-12.3,4.9c-1.2,1.1-2.2,2.4-3,3.8
                c1.5,0.6,2.9,1.3,4.2,2.2c0.8-1.4,1.9-2.6,3.2-3.5c2.2-1.7,4.9-2.7,7.9-2.7c7.2,0,13,5.8,13,13c0,5.3-3.1,9.8-7.6,11.8
                c0.2,1.1,0.3,2.3,0.3,3.5c0,1.1-0.1,2.1-0.3,3.2c10.4,2.5,18.2,11.8,18.2,23h4.7C811.7,553.8,803.9,543.3,793.1,539.3z"/>
            <path class="st1" d="M696.9,539.8c0-1.2,0.1-2.3,0.3-3.5c-4.5-2.1-7.6-6.6-7.6-11.8c0-7.2,5.8-13,13-13c3,0,5.7,1,7.9,2.7
                c1.3,1,2.3,2.2,3.2,3.5c1.3-0.9,2.7-1.6,4.2-2.2c-0.8-1.4-1.9-2.7-3-3.8c-3.2-3-7.5-4.9-12.3-4.9c-9.8,0-17.8,8-17.8,17.8
                c0,6.2,3.2,11.6,8,14.8c-10.9,4-18.6,14.4-18.6,26.7h4.7c0-11.2,7.8-20.6,18.2-23C697,541.9,696.9,540.9,696.9,539.8z"/>
            <path class="st1" d="M743,511.5c6.3,0,11.6,4.6,12.7,10.6c2.6-1.6,4.5-1.9,4.5-1.9c-2-7.7-8.9-13.4-17.2-13.4s-15.3,5.7-17.2,13.4
                c0,0,1.9,0.4,4.5,1.9C731.4,516,736.6,511.5,743,511.5z"/>
        </g>
        
            <radialGradient id="SVGID_4_" cx="297.0931" cy="2971.4431" r="129.2727" gradientTransform="matrix(0.6388 0 0 6.044964e-02 557.652 430.3299)" gradientUnits="userSpaceOnUse">
            <stop  offset="0.1034" style="stop-color:#E0E3E2"/>
            <stop  offset="0.2677" style="stop-color:#E9EBEA"/>
            <stop  offset="0.684" style="stop-color:#F9FAFA"/>
            <stop  offset="1" style="stop-color:#FFFFFF"/>
        </radialGradient>
        <ellipse class="st5" cx="747.4" cy="610" rx="116.6" ry="6.6"/>
    </g>
    <g>
        <g>
            <path class="st43" d="M-2.5,292.1h2.7v10.4L8,292.1h2.5v14.6H7.9v-10.3L0,306.7h-2.5V292.1z"/>
            <path class="st43" d="M25.3,306.7v-7.4l-3.8,6.2h-1.1l-3.7-6.2v7.4h-2.4v-11.1h2.7l4,7l4.2-7h2.4l0,11.1H25.3z"/>
            <path class="st43" d="M39.1,296.6c0.9,0.8,1.3,2,1.3,3.6v6.5h-2.5v-1.4c-0.3,0.5-0.8,0.9-1.4,1.1c-0.6,0.3-1.3,0.4-2.1,0.4
                c-0.8,0-1.6-0.1-2.2-0.4c-0.6-0.3-1.1-0.7-1.5-1.2c-0.3-0.5-0.5-1.1-0.5-1.7c0-1,0.4-1.8,1.1-2.4c0.7-0.6,1.9-0.9,3.5-0.9h2.9V300
                c0-0.8-0.2-1.4-0.7-1.8c-0.5-0.4-1.2-0.6-2.1-0.6c-0.6,0-1.2,0.1-1.8,0.3c-0.6,0.2-1.1,0.5-1.5,0.8l-1-1.9c0.6-0.4,1.3-0.8,2.1-1
                c0.8-0.2,1.7-0.4,2.6-0.4C36.9,295.4,38.2,295.8,39.1,296.6z M36.7,304.5c0.5-0.3,0.9-0.7,1.1-1.3v-1.3h-2.7
                c-1.5,0-2.3,0.5-2.3,1.5c0,0.5,0.2,0.8,0.6,1.1c0.4,0.3,0.9,0.4,1.6,0.4C35.6,305,36.2,304.8,36.7,304.5z"/>
            <path class="st43" d="M60,295.6v11.1H43.6v-11.1h2.6v8.9h4.3v-8.9h2.6v8.9h4.3v-8.9H60z"/>
            <path class="st43" d="M70.5,288h4.4v12.3L85.2,288h4v18.7h-4.4v-12.3l-10.3,12.3h-4V288z"/>
            <path class="st43" d="M115.1,303v7.9H111v-4.2H96.5v4.2h-4.1V303h0.9c1.2,0,2-0.8,2.4-2.3c0.4-1.5,0.7-3.6,0.9-6.3l0.2-6.4h15.4
                v15H115.1z M100.1,300c-0.3,1.4-0.7,2.4-1.4,3h9.2v-11.3h-7.2l-0.1,3C100.5,296.9,100.4,298.6,100.1,300z"/>
            <path class="st43" d="M136.5,298.7h-14.7c0.3,1.4,0.9,2.5,2,3.3c1.1,0.8,2.4,1.2,4.1,1.2c2.1,0,3.8-0.7,5.1-2l2.3,2.7
                c-0.8,1-1.9,1.8-3.2,2.3c-1.3,0.5-2.7,0.8-4.3,0.8c-2.1,0-3.9-0.4-5.4-1.2c-1.6-0.8-2.8-2-3.6-3.4c-0.9-1.5-1.3-3.1-1.3-5
                c0-1.8,0.4-3.5,1.2-4.9c0.8-1.5,2-2.6,3.5-3.4c1.5-0.8,3.1-1.2,5-1.2c1.8,0,3.5,0.4,4.9,1.2c1.4,0.8,2.6,1.9,3.4,3.4
                c0.8,1.5,1.2,3.2,1.2,5.1C136.5,297.8,136.5,298.2,136.5,298.7z M123.5,292.5c-1,0.8-1.6,1.9-1.8,3.3h10.6
                c-0.2-1.4-0.8-2.5-1.7-3.3c-1-0.8-2.2-1.3-3.6-1.3C125.7,291.3,124.5,291.7,123.5,292.5z"/>
            <path class="st43" d="M156.6,288v18.7h-3.9v-5.6h-4.9l-3.8,5.6h-4.7l4.4-6.2c-1.4-0.5-2.4-1.2-3.1-2.2c-0.7-1-1.1-2.2-1.1-3.6
                c0-2.2,0.8-3.8,2.3-5c1.5-1.2,3.6-1.8,6.3-1.8H156.6z M143.9,294.9c0,2.1,1.4,3.2,4.1,3.2h4.7v-6.3h-4.5
                C145.4,291.7,143.9,292.7,143.9,294.9z"/>
        </g>
        <g>
            <path class="st1" d="M82.8,237.7H63.3c-2.3,0-4.1,1.8-4.1,4.1c0,2.3,1.8,4.1,4.1,4.1h19.5c2.3,0,4.1-1.8,4.1-4.1
                C86.9,239.6,85.1,237.7,82.8,237.7z M84.2,241.8c0,0.7-0.6,1.3-1.3,1.3H63.3c-0.7,0-1.3-0.6-1.3-1.3c0-0.7,0.6-1.3,1.3-1.3h19.5
                C83.6,240.5,84.2,241.1,84.2,241.8z"/>
            <path class="st1" d="M60.6,247.8c0,3.7,2.7,6.9,6.3,7.6c0.9,2.7,3.3,4.5,6.1,4.5c2.8,0,5.3-1.8,6.2-4.5c3.6-0.7,6.3-3.9,6.3-7.6
                v-1.4H60.6V247.8z M68.8,252.7l-0.6,0c-2.1-0.1-3.9-1.6-4.5-3.6h18.9c-0.6,2-2.4,3.4-4.5,3.6l-0.6,0L68.8,252.7z M76.1,255.5
                c-0.7,1-1.8,1.5-3,1.5c-1.2,0-2.3-0.6-3-1.5H76.1z"/>
            <path class="st1" d="M73.1,170.7c-15.3,0-27.7,12.4-27.7,27.7c0,6.3,2.1,12.2,5.9,17.1c3,3.7,5.8,7.9,8.3,12v9.8h26.9v-9.5
                c2.6-4.3,5.7-8.9,8.4-12.3c3.9-4.9,5.9-10.8,5.9-17.1C100.8,183.1,88.4,170.7,73.1,170.7z M69.6,211.5l1.9,7.1l3.2-7.8l1.6,4.5
                l3.5-1.6l-4.5,20.8H71l-4.6-20.8L69.6,211.5z M83.9,226.6l-0.2,0.3v7.5h-5.6l5.9-27.6l-2.7-0.6l-1,4.6l-2.7,1.2l-2.7-7.8l-2.9,7
                l-0.9-3.6l-5.2,3.4l-1.1-5l-2.9,0.6l6,27.6h-5.6v-7.7l-0.2-0.3c-2.6-4.3-5.5-8.7-8.7-12.7c-3.5-4.4-5.3-9.7-5.3-15.4
                c0-13.8,11.2-24.9,24.9-24.9c13.8,0,24.9,11.2,24.9,24.9c0,5.6-1.8,11-5.3,15.4h0C89.9,217.3,86.6,222.1,83.9,226.6z"/>
            <path class="st1" d="M74.1,166.1c0.7,0,1.3-0.6,1.3-1.3v-12.1c0-0.7-0.6-1.3-1.3-1.3c-0.7,0-1.3,0.6-1.3,1.3v12.1
                C72.8,165.6,73.4,166.1,74.1,166.1z"/>
            <path class="st1" d="M91.9,170.5c0.2,0.1,0.4,0.2,0.7,0.2c0.4,0,0.9-0.2,1.1-0.6l6.2-10.3c0.4-0.6,0.2-1.4-0.4-1.7
                c-0.3-0.2-0.6-0.2-1-0.1c-0.3,0.1-0.6,0.3-0.8,0.6l-6.2,10.3c-0.2,0.3-0.2,0.6-0.1,1C91.4,170,91.6,170.3,91.9,170.5z"/>
            <path class="st1" d="M104,185.2c0.2,0,0.4,0,0.6-0.1l10.7-5.6c0.6-0.3,0.9-1.1,0.5-1.7c-0.3-0.6-1.1-0.9-1.7-0.5l-10.7,5.6
                c-0.6,0.3-0.9,1.1-0.5,1.7C103.1,184.9,103.6,185.2,104,185.2z"/>
            <path class="st1" d="M120.5,200.3c-0.2-0.3-0.5-0.4-0.9-0.4l-12-0.8c-0.7,0-1.3,0.5-1.3,1.2c0,0.7,0.5,1.3,1.2,1.3l12,0.8l0.1,0
                c0.7,0,1.2-0.5,1.3-1.2C120.8,200.9,120.7,200.5,120.5,200.3z"/>
            <path class="st1" d="M112.6,224.4l-9.9-6.9c-0.3-0.2-0.6-0.3-1-0.2c-0.3,0.1-0.6,0.2-0.8,0.5c-0.4,0.6-0.3,1.4,0.3,1.8l9.9,6.9
                c0.2,0.1,0.5,0.2,0.7,0.2c0.4,0,0.8-0.2,1-0.5c0.2-0.3,0.3-0.6,0.2-0.9C113.1,224.8,112.9,224.6,112.6,224.4z"/>
            <path class="st1" d="M52.8,170c0.2,0.4,0.6,0.6,1.1,0.6c0.2,0,0.5-0.1,0.7-0.2c0.6-0.4,0.8-1.1,0.4-1.7l-6.2-10.3
                c-0.2-0.3-0.5-0.5-0.8-0.6c-0.3-0.1-0.7,0-1,0.1c-0.6,0.4-0.8,1.1-0.4,1.7L52.8,170z"/>
            <path class="st1" d="M31.1,179.5l10.7,5.6c0.2,0.1,0.4,0.1,0.6,0.1c0.5,0,0.9-0.3,1.1-0.7c0.3-0.6,0.1-1.4-0.5-1.7l-10.7-5.6
                c-0.6-0.3-1.4-0.1-1.7,0.5C30.2,178.4,30.5,179.2,31.1,179.5z"/>
            <path class="st1" d="M40.2,200.3c0-0.7-0.7-1.2-1.3-1.2l-12,0.8c-0.3,0-0.6,0.2-0.9,0.4c-0.2,0.3-0.3,0.6-0.3,0.9
                c0,0.7,0.6,1.2,1.3,1.2l12.1-0.8C39.7,201.6,40.2,201,40.2,200.3z"/>
            <path class="st1" d="M44.7,217.3c-0.3-0.1-0.7,0-0.9,0.2l-9.9,6.9c-0.6,0.4-0.7,1.2-0.3,1.8c0.2,0.3,0.6,0.5,1,0.5
                c0.3,0,0.5-0.1,0.7-0.2l9.9-6.9c0.6-0.4,0.7-1.2,0.3-1.8C45.3,217.5,45,217.3,44.7,217.3z"/>
        </g>
        <g>
            <path class="st43" d="M8.8,324c0.5,0.6,0.7,1.3,0.7,2.2c0,1.2-0.5,2.2-1.4,2.9c-0.9,0.7-2.3,1-4,1h-6.8v-14.2h6.4
                c1.6,0,2.8,0.3,3.7,1c0.9,0.6,1.3,1.5,1.3,2.7c0,0.7-0.2,1.4-0.5,1.9c-0.4,0.5-0.9,1-1.6,1.2C7.6,323,8.3,323.4,8.8,324z
                M-0.1,322h3.5c0.9,0,1.5-0.2,2-0.5c0.4-0.3,0.7-0.8,0.7-1.5s-0.2-1.2-0.7-1.5c-0.4-0.3-1.1-0.5-2-0.5h-3.5V322z M6.8,326
                c0-1.4-0.9-2.1-2.8-2.1h-4.1v4.2H4C5.9,328.1,6.8,327.4,6.8,326z"/>
            <path class="st43" d="M30.7,315.9v14.2h-2.6v-12h-7.4v12h-2.6v-14.2H30.7z"/>
            <path class="st43" d="M37.4,329.4c-1.2-0.6-2.1-1.5-2.7-2.6c-0.7-1.1-1-2.4-1-3.8c0-1.4,0.3-2.6,1-3.8c0.7-1.1,1.6-2,2.7-2.6
                c1.2-0.6,2.5-0.9,3.9-0.9c1.5,0,2.8,0.3,3.9,0.9c1.2,0.6,2.1,1.5,2.7,2.6c0.7,1.1,1,2.4,1,3.8c0,1.4-0.3,2.7-1,3.8
                c-0.7,1.1-1.6,2-2.7,2.6c-1.2,0.6-2.5,0.9-3.9,0.9C39.8,330.3,38.5,330,37.4,329.4z M43.9,327.4c0.8-0.4,1.4-1,1.8-1.8
                c0.4-0.8,0.7-1.6,0.7-2.6c0-0.9-0.2-1.8-0.7-2.6c-0.4-0.8-1-1.4-1.8-1.8c-0.8-0.4-1.6-0.6-2.6-0.6c-0.9,0-1.8,0.2-2.6,0.6
                c-0.8,0.4-1.4,1-1.8,1.8c-0.4,0.8-0.7,1.6-0.7,2.6c0,0.9,0.2,1.8,0.7,2.6c0.4,0.8,1,1.4,1.8,1.8c0.8,0.4,1.6,0.6,2.6,0.6
                C42.2,328,43.1,327.8,43.9,327.4z"/>
            <path class="st43" d="M63.6,315.9v14.2H61v-12h-5.6l-0.1,3.6c-0.1,2-0.2,3.6-0.5,4.9c-0.3,1.2-0.7,2.2-1.2,2.8
                c-0.6,0.6-1.4,1-2.4,1c-0.4,0-0.8-0.1-1.4-0.2l0.2-2.3c0.2,0.1,0.4,0.1,0.6,0.1c0.8,0,1.4-0.5,1.8-1.5c0.3-1,0.6-2.5,0.6-4.6
                l0.2-5.9H63.6z"/>
            <path class="st43" d="M77.1,324c0.5,0.6,0.7,1.3,0.7,2.1c0,0.9-0.3,1.6-0.8,2.2c-0.6,0.6-1.3,1.1-2.2,1.5c-0.9,0.3-1.9,0.5-3,0.5
                c-0.9,0-1.9-0.1-2.9-0.4c-1-0.3-1.8-0.7-2.7-1.2l0.9-1.9c0.6,0.4,1.3,0.7,2.1,1c0.8,0.2,1.5,0.3,2.3,0.3c1.1,0,2-0.2,2.7-0.6
                c0.7-0.4,1.1-1,1.1-1.7c0-0.6-0.3-1.1-0.8-1.4c-0.5-0.3-1.2-0.5-2.1-0.5H69v-2.1h3.1c0.8,0,1.4-0.2,1.9-0.5
                c0.4-0.3,0.7-0.8,0.7-1.3c0-0.7-0.3-1.2-0.9-1.5c-0.6-0.4-1.4-0.5-2.3-0.5c-0.6,0-1.3,0.1-2,0.3c-0.7,0.2-1.3,0.5-1.9,0.8
                l-0.8-2.1c0.7-0.4,1.5-0.7,2.3-0.9c0.8-0.2,1.6-0.3,2.5-0.3c1.1,0,2,0.2,2.9,0.5s1.6,0.8,2.1,1.4c0.5,0.6,0.8,1.3,0.8,2.1
                c0,0.7-0.2,1.3-0.6,1.9c-0.4,0.5-0.9,0.9-1.6,1.2C76,323,76.7,323.4,77.1,324z"/>
            <path class="st43" d="M90.3,326.8h-7.1l-1.4,3.3H79l6.4-14.2h2.6l6.4,14.2h-2.8L90.3,326.8z M89.4,324.7l-2.7-6.2l-2.7,6.2H89.4z"
                />
            <path class="st43" d="M114.9,315.9v14.2h-2.6V324h-7.4v6.1h-2.6v-14.2h2.6v5.9h7.4v-5.9H114.9z"/>
            <path class="st43" d="M128.3,326.8h-7.1l-1.4,3.3h-2.7l6.4-14.2h2.6l6.4,14.2h-2.8L128.3,326.8z M127.5,324.7l-2.7-6.2l-2.7,6.2
                H127.5z"/>
            <path class="st43" d="M0,354.8c-1.2-0.6-2.1-1.5-2.7-2.6c-0.7-1.1-1-2.4-1-3.8c0-1.4,0.3-2.6,1-3.8c0.7-1.1,1.6-2,2.7-2.6
                c1.2-0.6,2.5-0.9,3.9-0.9c1.5,0,2.8,0.3,3.9,0.9c1.2,0.6,2.1,1.5,2.7,2.6c0.7,1.1,1,2.4,1,3.8s-0.3,2.7-1,3.8
                c-0.7,1.1-1.6,2-2.7,2.6c-1.2,0.6-2.5,0.9-3.9,0.9C2.4,355.8,1.1,355.5,0,354.8z M6.5,352.8c0.8-0.4,1.4-1,1.8-1.8
                c0.4-0.8,0.7-1.6,0.7-2.6c0-0.9-0.2-1.8-0.7-2.6c-0.4-0.8-1-1.4-1.8-1.8c-0.8-0.4-1.6-0.6-2.6-0.6c-0.9,0-1.8,0.2-2.6,0.6
                c-0.8,0.4-1.4,1-1.8,1.8c-0.4,0.8-0.7,1.6-0.7,2.6c0,0.9,0.2,1.8,0.7,2.6c0.4,0.8,1,1.4,1.8,1.8c0.8,0.4,1.6,0.6,2.6,0.6
                C4.8,353.5,5.7,353.3,6.5,352.8z"/>
            <path class="st43" d="M14.5,341.4h11.1v2.2h-8.5v3.5h4.2c1.7,0,3,0.4,3.9,1.1c0.9,0.7,1.3,1.7,1.3,3.1c0,1.4-0.5,2.5-1.5,3.3
                c-1,0.8-2.4,1.1-4.2,1.1h-6.4V341.4z M20.8,353.6c1,0,1.8-0.2,2.3-0.6c0.5-0.4,0.8-1,0.8-1.7c0-1.5-1-2.2-3.1-2.2h-3.7v4.5H20.8z"
                />
            <path class="st43" d="M47.7,341.4v14.2H29.5v-14.2h2.6v12h5.2v-12h2.6v12h5.2v-12H47.7z M49.8,353.4v5.3h-2.4v-3h-2.3v-2.2H49.8z"
                />
            <path class="st43" d="M63,353.4v2.2H52.3v-14.2h10.4v2.2H55v3.7h6.9v2.2H55v3.9H63z"/>
            <path class="st43" d="M68.6,354.8c-1.2-0.6-2.1-1.5-2.7-2.6c-0.7-1.1-1-2.4-1-3.8s0.3-2.7,1-3.8c0.7-1.1,1.6-2,2.7-2.6
                c1.2-0.6,2.5-0.9,3.9-0.9c1.2,0,2.2,0.2,3.2,0.6c1,0.4,1.8,1,2.4,1.8l-1.7,1.6c-1-1.1-2.3-1.7-3.8-1.7c-1,0-1.9,0.2-2.6,0.6
                c-0.8,0.4-1.4,1-1.8,1.8c-0.4,0.8-0.7,1.6-0.7,2.6c0,1,0.2,1.8,0.7,2.6c0.4,0.8,1,1.4,1.8,1.8c0.8,0.4,1.6,0.6,2.6,0.6
                c1.5,0,2.8-0.6,3.8-1.7l1.7,1.6c-0.7,0.8-1.5,1.4-2.5,1.8c-1,0.4-2,0.6-3.2,0.6C71,355.8,69.7,355.5,68.6,354.8z"/>
            <path class="st43" d="M90.7,343.6H86v12h-2.6v-12h-4.7v-2.2h12V343.6z"/>
            <path class="st43" d="M104.5,349.4c0.5,0.6,0.7,1.3,0.7,2.2c0,1.2-0.5,2.2-1.4,2.9c-0.9,0.7-2.3,1-4,1H93v-14.2h6.4
                c1.6,0,2.8,0.3,3.7,1c0.9,0.6,1.3,1.5,1.3,2.7c0,0.7-0.2,1.4-0.5,1.9c-0.4,0.5-0.9,1-1.6,1.2C103.3,348.4,104,348.8,104.5,349.4z
                M95.6,347.4h3.5c0.9,0,1.5-0.2,2-0.5c0.4-0.3,0.7-0.8,0.7-1.5s-0.2-1.2-0.7-1.5c-0.4-0.3-1.1-0.5-2-0.5h-3.5V347.4z M102.5,351.4
                c0-1.4-0.9-2.1-2.8-2.1h-4.1v4.2h4.1C101.6,353.6,102.5,352.9,102.5,351.4z"/>
            <path class="st43" d="M110.9,354.8c-1.2-0.6-2.1-1.5-2.7-2.6c-0.7-1.1-1-2.4-1-3.8c0-1.4,0.3-2.6,1-3.8c0.7-1.1,1.6-2,2.7-2.6
                c1.2-0.6,2.5-0.9,3.9-0.9c1.5,0,2.8,0.3,3.9,0.9c1.2,0.6,2.1,1.5,2.7,2.6c0.7,1.1,1,2.4,1,3.8s-0.3,2.7-1,3.8
                c-0.7,1.1-1.6,2-2.7,2.6c-1.2,0.6-2.5,0.9-3.9,0.9C113.3,355.8,112,355.5,110.9,354.8z M117.3,352.8c0.8-0.4,1.4-1,1.8-1.8
                c0.4-0.8,0.7-1.6,0.7-2.6c0-0.9-0.2-1.8-0.7-2.6c-0.4-0.8-1-1.4-1.8-1.8c-0.8-0.4-1.6-0.6-2.6-0.6c-0.9,0-1.8,0.2-2.6,0.6
                c-0.8,0.4-1.4,1-1.8,1.8c-0.4,0.8-0.7,1.6-0.7,2.6c0,0.9,0.2,1.8,0.7,2.6c0.4,0.8,1,1.4,1.8,1.8c0.8,0.4,1.6,0.6,2.6,0.6
                C115.7,353.5,116.6,353.3,117.3,352.8z"/>
            <path class="st43" d="M135.5,343.6h-4.7v12h-2.6v-12h-4.7v-2.2h12V343.6z"/>
            <path class="st43" d="M140.2,354.8c-1.2-0.6-2.1-1.5-2.7-2.6c-0.7-1.1-1-2.4-1-3.8c0-1.4,0.3-2.6,1-3.8c0.7-1.1,1.6-2,2.7-2.6
                c1.2-0.6,2.5-0.9,3.9-0.9c1.5,0,2.8,0.3,3.9,0.9c1.2,0.6,2.1,1.5,2.7,2.6c0.7,1.1,1,2.4,1,3.8s-0.3,2.7-1,3.8
                c-0.7,1.1-1.6,2-2.7,2.6c-1.2,0.6-2.5,0.9-3.9,0.9C142.7,355.8,141.4,355.5,140.2,354.8z M146.7,352.8c0.8-0.4,1.4-1,1.8-1.8
                c0.4-0.8,0.7-1.6,0.7-2.6c0-0.9-0.2-1.8-0.7-2.6c-0.4-0.8-1-1.4-1.8-1.8c-0.8-0.4-1.6-0.6-2.6-0.6c-0.9,0-1.8,0.2-2.6,0.6
                c-0.8,0.4-1.4,1-1.8,1.8c-0.4,0.8-0.7,1.6-0.7,2.6c0,0.9,0.2,1.8,0.7,2.6c0.4,0.8,1,1.4,1.8,1.8c0.8,0.4,1.6,0.6,2.6,0.6
                C145.1,353.5,146,353.3,146.7,352.8z"/>
        </g>
        
            <radialGradient id="SVGID_5_" cx="-1456.826" cy="2725.4065" r="129.2727" gradientTransform="matrix(0.5011 0 0 5.423031e-02 802.876 124.8636)" gradientUnits="userSpaceOnUse">
            <stop  offset="0.1034" style="stop-color:#E0E3E2"/>
            <stop  offset="0.2677" style="stop-color:#E9EBEA"/>
            <stop  offset="0.684" style="stop-color:#F9FAFA"/>
            <stop  offset="1" style="stop-color:#FFFFFF"/>
        </radialGradient>
        <ellipse class="st6" cx="72.9" cy="272.7" rx="91.4" ry="5.9"/>
        <path class="st7" d="M146.6,219.4c0,0-1.9,19.1-17,20.4c15.1,1.3,17,20.4,17,20.4s1.9-19.1,17-20.4
            C148.6,238.5,146.6,219.4,146.6,219.4z"/>
        <path class="st7" d="M174.8,179c0,0-1.3,12.6-11.3,13.5c10,0.9,11.3,13.5,11.3,13.5s1.3-12.6,11.3-13.5
            C176,191.7,174.8,179,174.8,179z"/>
    </g>
    <g>
        <g>
            <path class="st43" d="M529.9,817v14.2h-2.6v-12h-7.4v12h-2.6V817H529.9z"/>
            <path class="st43" d="M544.2,817.6c0.9,0.4,1.6,1,2.1,1.7c0.5,0.8,0.7,1.7,0.7,2.7c0,1-0.2,1.9-0.7,2.7c-0.5,0.8-1.2,1.4-2.1,1.8
                c-0.9,0.4-2,0.6-3.2,0.6h-3.2v4.1h-2.6V817h5.9C542.2,817,543.3,817.2,544.2,817.6z M543.5,824.1c0.6-0.5,0.9-1.2,0.9-2.1
                c0-0.9-0.3-1.6-0.9-2.1c-0.6-0.5-1.5-0.7-2.6-0.7h-3.1v5.7h3.1C542,824.8,542.9,824.6,543.5,824.1z"/>
            <path class="st43" d="M561.5,829v2.2h-10.7V817h10.4v2.2h-7.7v3.7h6.9v2.2h-6.9v3.9H561.5z"/>
            <path class="st43" d="M577.1,825c0.5,0.6,0.7,1.3,0.7,2.2c0,1.2-0.5,2.2-1.4,2.9c-0.9,0.7-2.3,1-4,1h-6.8V817h6.4
                c1.6,0,2.8,0.3,3.7,1c0.9,0.6,1.3,1.5,1.3,2.7c0,0.7-0.2,1.4-0.5,1.9c-0.4,0.5-0.9,1-1.6,1.2C575.9,824,576.6,824.5,577.1,825z
                M568.3,823h3.5c0.9,0,1.5-0.2,2-0.5c0.4-0.3,0.7-0.8,0.7-1.5c0-0.7-0.2-1.2-0.7-1.5c-0.4-0.3-1.1-0.5-2-0.5h-3.5V823z M575.1,827
                c0-1.4-0.9-2.1-2.8-2.1h-4.1v4.2h4.1C574.2,829.2,575.1,828.5,575.1,827z"/>
            <path class="st43" d="M584.7,830.5c-1.2-0.6-2.1-1.5-2.7-2.6c-0.7-1.1-1-2.4-1-3.8c0-1.4,0.3-2.6,1-3.8c0.7-1.1,1.6-2,2.7-2.6
                c1.2-0.6,2.5-0.9,3.9-0.9c1.5,0,2.8,0.3,3.9,0.9c1.2,0.6,2.1,1.5,2.7,2.6c0.7,1.1,1,2.4,1,3.8c0,1.4-0.3,2.7-1,3.8
                c-0.7,1.1-1.6,2-2.7,2.6c-1.2,0.6-2.5,0.9-3.9,0.9C587.2,831.4,585.9,831.1,584.7,830.5z M591.2,828.4c0.8-0.4,1.4-1,1.8-1.8
                c0.4-0.8,0.7-1.6,0.7-2.6c0-0.9-0.2-1.8-0.7-2.6c-0.4-0.8-1-1.4-1.8-1.8c-0.8-0.4-1.6-0.6-2.6-0.6c-0.9,0-1.8,0.2-2.6,0.6
                c-0.8,0.4-1.4,1-1.8,1.8c-0.4,0.8-0.7,1.6-0.7,2.6c0,0.9,0.2,1.8,0.7,2.6c0.4,0.8,1,1.4,1.8,1.8c0.8,0.4,1.6,0.6,2.6,0.6
                C589.6,829.1,590.4,828.9,591.2,828.4z"/>
            <path class="st43" d="M614.1,829v5.3h-2.4v-3h-10.9v3h-2.5l0-5.3h0.6c0.9,0,1.5-0.7,1.9-2c0.4-1.3,0.6-3.1,0.7-5.5l0.2-4.5h10.4
                v12H614.1z M603.4,826.3c-0.2,1.2-0.6,2.1-1.1,2.6h7.2v-9.8h-5.6l-0.1,2.5C603.7,823.6,603.6,825.1,603.4,826.3z"/>
            <path class="st43" d="M636.1,825c0.5,0.6,0.7,1.3,0.7,2.2c0,1.2-0.5,2.2-1.4,2.9c-0.9,0.7-2.3,1-4,1h-6.8V817h6.4
                c1.6,0,2.8,0.3,3.7,1c0.9,0.6,1.3,1.5,1.3,2.7c0,0.7-0.2,1.4-0.5,1.9c-0.4,0.5-0.9,1-1.6,1.2C635,824,635.7,824.5,636.1,825z
                M627.3,823h3.5c0.9,0,1.5-0.2,2-0.5c0.4-0.3,0.7-0.8,0.7-1.5c0-0.7-0.2-1.2-0.7-1.5c-0.4-0.3-1.1-0.5-2-0.5h-3.5V823z M634.2,827
                c0-1.4-0.9-2.1-2.8-2.1h-4.1v4.2h4.1C633.2,829.2,634.2,828.5,634.2,827z"/>
            <path class="st43" d="M531.4,850.2v5.3H529v-3h-10.9v3h-2.5l0-5.3h0.6c0.9,0,1.5-0.7,1.9-2c0.4-1.3,0.6-3.1,0.7-5.5l0.2-4.5h10.4
                v12H531.4z M520.6,847.5c-0.2,1.2-0.6,2.1-1.1,2.6h7.2v-9.8h-5.6l-0.1,2.5C521,844.8,520.9,846.3,520.6,847.5z"/>
            <path class="st43" d="M544.7,849.1h-7.1l-1.4,3.3h-2.7l6.4-14.2h2.6l6.4,14.2h-2.8L544.7,849.1z M543.8,847l-2.7-6.2l-2.7,6.2
                H543.8z"/>
            <path class="st43" d="M561.3,838.8c0.9,0.4,1.6,1,2.1,1.7c0.5,0.8,0.7,1.7,0.7,2.7c0,1-0.2,1.9-0.7,2.7c-0.5,0.8-1.2,1.4-2.1,1.8
                s-2,0.6-3.2,0.6h-3.2v4.1h-2.6v-14.2h5.9C559.3,838.2,560.4,838.4,561.3,838.8z M560.6,845.3c0.6-0.5,0.9-1.2,0.9-2.1
                c0-0.9-0.3-1.6-0.9-2.1c-0.6-0.5-1.5-0.7-2.6-0.7h-3.1v5.7h3.1C559.1,846,560,845.8,560.6,845.3z"/>
            <path class="st43" d="M567.9,838.2h2.6v10.1l7.6-10.1h2.5v14.2H578v-10.1l-7.6,10.1h-2.5V838.2z"/>
            <path class="st43" d="M596.2,840.4h-4.7v12h-2.6v-12h-4.7v-2.2h12V840.4z"/>
            <path class="st43" d="M610.3,850.2v2.2h-10.7v-14.2h10.4v2.2h-7.7v3.7h6.9v2.2h-6.9v3.9H610.3z"/>
            <path class="st43" d="M626.7,838.2v14.2h-2.6v-12h-5.6l-0.1,3.6c-0.1,2-0.2,3.6-0.5,4.9c-0.3,1.2-0.7,2.2-1.2,2.8
                c-0.6,0.6-1.4,1-2.4,1c-0.4,0-0.8-0.1-1.4-0.2l0.2-2.3c0.2,0.1,0.4,0.1,0.6,0.1c0.8,0,1.4-0.5,1.8-1.5c0.3-1,0.6-2.5,0.6-4.6
                l0.2-5.9H626.7z"/>
            <path class="st43" d="M634.6,851.7c-1.2-0.6-2.1-1.5-2.7-2.6c-0.7-1.1-1-2.4-1-3.8c0-1.4,0.3-2.7,1-3.8c0.7-1.1,1.6-2,2.7-2.6
                c1.2-0.6,2.5-0.9,3.9-0.9c1.2,0,2.2,0.2,3.2,0.6c1,0.4,1.8,1,2.4,1.8l-1.7,1.6c-1-1.1-2.3-1.7-3.8-1.7c-1,0-1.9,0.2-2.6,0.6
                c-0.8,0.4-1.4,1-1.8,1.8c-0.4,0.8-0.7,1.6-0.7,2.6s0.2,1.8,0.7,2.6c0.4,0.8,1,1.4,1.8,1.8c0.8,0.4,1.6,0.6,2.6,0.6
                c1.5,0,2.8-0.6,3.8-1.7l1.7,1.6c-0.7,0.8-1.5,1.4-2.5,1.8c-1,0.4-2,0.6-3.2,0.6C637,852.6,635.7,852.3,634.6,851.7z"/>
            <path class="st43" d="M653,846.4h-2.6v6h-2.6v-14.2h2.6v6h2.7l4.1-6h2.8l-4.9,6.9l5,7.3h-3L653,846.4z"/>
            <path class="st43" d="M672.4,849.1h-7.1l-1.4,3.3h-2.7l6.4-14.2h2.6l6.4,14.2h-2.8L672.4,849.1z M671.5,847l-2.7-6.2l-2.7,6.2
                H671.5z"/>
            <path class="st43" d="M520,872.9c-1.2-0.6-2.1-1.5-2.7-2.6c-0.7-1.1-1-2.4-1-3.8c0-1.4,0.3-2.7,1-3.8c0.7-1.1,1.6-2,2.7-2.6
                c1.2-0.6,2.5-0.9,3.9-0.9c1.2,0,2.2,0.2,3.2,0.6c1,0.4,1.8,1,2.4,1.8l-1.7,1.6c-1-1.1-2.3-1.7-3.8-1.7c-1,0-1.9,0.2-2.6,0.6
                c-0.8,0.4-1.4,1-1.8,1.8c-0.4,0.8-0.7,1.6-0.7,2.6s0.2,1.8,0.7,2.6c0.4,0.8,1,1.4,1.8,1.8c0.8,0.4,1.6,0.6,2.6,0.6
                c1.5,0,2.8-0.6,3.8-1.7l1.7,1.6c-0.7,0.8-1.5,1.4-2.5,1.8c-1,0.4-2,0.6-3.2,0.6C522.4,873.8,521.1,873.5,520,872.9z"/>
            <path class="st43" d="M546.3,873.6l0-9.4l-4.7,7.8h-1.2l-4.7-7.7v9.3h-2.5v-14.2h2.2l5.6,9.4l5.6-9.4h2.2l0,14.2H546.3z"/>
            <path class="st43" d="M564.7,871.4v2.2H554v-14.2h10.4v2.2h-7.7v3.7h6.9v2.2h-6.9v3.9H564.7z"/>
            <path class="st43" d="M579.2,861.6h-4.7v12h-2.6v-12h-4.7v-2.2h12V861.6z"/>
            <path class="st43" d="M587.9,867.6h-2.6v6h-2.6v-14.2h2.6v6h2.7l4.1-6h2.8l-4.9,6.9l5,7.3h-3L587.9,867.6z"/>
            <path class="st43" d="M607.3,870.3h-7.1l-1.4,3.3h-2.7l6.4-14.2h2.6l6.4,14.2h-2.8L607.3,870.3z M606.4,868.2l-2.7-6.2l-2.7,6.2
                H606.4z"/>
        </g>
        <g>
            <path class="st8" d="M502.3,887.6c0.4,2.6-0.2,5-1.8,7.2c-1.7,2.2-3.8,3.5-6.3,4c-1.9,0.3-3.7-0.1-5.3-1.2
                c-1.6-1.1-2.6-2.7-2.9-4.6c-0.4-2.6,0.2-5,2-7.3c1.7-2.3,3.9-3.7,6.4-4.1c1.9-0.3,3.7,0.1,5.2,1.3C501,884,502,885.6,502.3,887.6z
                M509.2,814.9c0.3,1.6-0.1,4.1-1.1,7.5c-0.8,2.6-2.1,8.8-4,18.5c-1.9,9.7-3,15.7-3.4,18c-0.4,2.3-0.6,5.1-0.7,8.3
                c-0.1,2.5-1.6,4-4.4,4.5c-3.7,0.6-5.9-0.9-6.5-4.6c-0.6-3.8,0.4-11.6,3.1-23.3c2.7-11.7,5-19.8,6.8-24.2c1.8-4.5,3.8-6.9,6.1-7.3
                C507.5,811.9,508.9,812.7,509.2,814.9z"/>
        </g>
        
            <radialGradient id="SVGID_6_" cx="-339.0379" cy="5856.1987" r="129.2727" gradientTransform="matrix(0.5538 0 0 4.348000e-02 753.6798 552.8)" gradientUnits="userSpaceOnUse">
            <stop  offset="0.1034" style="stop-color:#E0E3E2"/>
            <stop  offset="0.2677" style="stop-color:#E9EBEA"/>
            <stop  offset="0.684" style="stop-color:#F9FAFA"/>
            <stop  offset="1" style="stop-color:#FFFFFF"/>
        </radialGradient>
        <ellipse class="st9" cx="565.9" cy="807.4" rx="101.1" ry="4.7"/>
    </g>
    <g>
        <g>
            <g>
                <path class="st43" d="M89.4,981.8c-1.2-0.6-2.1-1.5-2.7-2.6c-0.7-1.1-1-2.4-1-3.8c0-1.4,0.3-2.6,1-3.8c0.7-1.1,1.6-2,2.7-2.6
                    c1.2-0.6,2.5-0.9,3.9-0.9c1.5,0,2.8,0.3,3.9,0.9c1.2,0.6,2.1,1.5,2.7,2.6c0.7,1.1,1,2.4,1,3.8c0,1.4-0.3,2.7-1,3.8
                    c-0.7,1.1-1.6,2-2.7,2.6c-1.2,0.6-2.5,0.9-3.9,0.9C91.9,982.7,90.5,982.4,89.4,981.8z M95.9,979.7c0.8-0.4,1.4-1,1.8-1.8
                    c0.4-0.8,0.7-1.6,0.7-2.6s-0.2-1.8-0.7-2.6c-0.4-0.8-1-1.4-1.8-1.8c-0.8-0.4-1.6-0.6-2.6-0.6c-0.9,0-1.8,0.2-2.6,0.6
                    c-0.8,0.4-1.4,1-1.8,1.8c-0.4,0.8-0.7,1.6-0.7,2.6s0.2,1.8,0.7,2.6c0.4,0.8,1,1.4,1.8,1.8c0.8,0.4,1.6,0.6,2.6,0.6
                    C94.3,980.4,95.1,980.2,95.9,979.7z"/>
                <path class="st43" d="M115.3,970.5h-4.7v12h-2.6v-12h-4.7v-2.2h12V970.5z"/>
                <path class="st43" d="M129.7,968.3v14.2H127v-5.4c-1.3,0.5-2.6,0.8-3.8,0.8c-1.8,0-3.2-0.4-4.2-1.3c-1-0.9-1.5-2.1-1.5-3.8v-4.5
                    h2.6v4.3c0,1,0.3,1.8,0.9,2.3c0.6,0.5,1.4,0.8,2.5,0.8c1.2,0,2.4-0.3,3.5-0.8v-6.6H129.7z"/>
                <path class="st43" d="M134.9,968.3h2.6v10.1l7.6-10.1h2.5v14.2H145v-10.1l-7.6,10.1h-2.5V968.3z"/>
                <path class="st43" d="M163.1,970.5h-4.7v12h-2.6v-12h-4.7v-2.2h12V970.5z"/>
                <path class="st43" d="M175.4,979.2h-7.1l-1.4,3.3h-2.7l6.4-14.2h2.6l6.4,14.2h-2.8L175.4,979.2z M174.5,977.1l-2.7-6.2l-2.7,6.2
                    H174.5z"/>
                <path class="st43" d="M195.6,968.3v14.2h-2.6v-6.1h-7.4v6.1h-2.6v-14.2h2.6v5.9h7.4v-5.9H195.6z"/>
                <path class="st43" d="M211.5,980.3v2.2h-10.7v-14.2h10.4v2.2h-7.7v3.7h6.9v2.2h-6.9v3.9H211.5z"/>
                <path class="st43" d="M235.1,968.3v14.2h-2.6v-6.1h-7.4v6.1h-2.6v-14.2h2.6v5.9h7.4v-5.9H235.1z"/>
                <path class="st43" d="M249.8,979.2h-7.1l-1.4,3.3h-2.7l6.4-14.2h2.6l6.4,14.2h-2.8L249.8,979.2z M248.9,977.1l-2.7-6.2l-2.7,6.2
                    H248.9z"/>
                <path class="st43" d="M99.4,989.5v14.2h-2.6v-6.1h-7.4v6.1h-2.6v-14.2h2.6v5.9h7.4v-5.9H99.4z"/>
                <path class="st43" d="M114,1000.4h-7.1l-1.4,3.3h-2.7l6.4-14.2h2.6l6.4,14.2h-2.8L114,1000.4z M113.1,998.3l-2.7-6.2l-2.7,6.2
                    H113.1z"/>
                <path class="st43" d="M137.5,990.1c0.9,0.4,1.6,1,2.1,1.7c0.5,0.8,0.7,1.7,0.7,2.7c0,1-0.2,1.9-0.7,2.7c-0.5,0.8-1.2,1.4-2.1,1.8
                    c-0.9,0.4-2,0.6-3.2,0.6h-3.2v4.1h-2.6v-14.2h5.9C135.5,989.5,136.6,989.7,137.5,990.1z M136.8,996.6c0.6-0.5,0.9-1.2,0.9-2.1
                    c0-0.9-0.3-1.6-0.9-2.1c-0.6-0.5-1.5-0.7-2.6-0.7h-3.1v5.7h3.1C135.3,997.3,136.2,997.1,136.8,996.6z"/>
                <path class="st43" d="M152.8,1000.4h-7.1l-1.4,3.3h-2.7l6.4-14.2h2.6l6.4,14.2h-2.8L152.8,1000.4z M151.9,998.3l-2.7-6.2
                    l-2.7,6.2H151.9z"/>
                <path class="st43" d="M169.9,997.6c0.5,0.6,0.7,1.3,0.7,2.1c0,0.9-0.3,1.6-0.8,2.2c-0.6,0.6-1.3,1.1-2.2,1.5
                    c-0.9,0.3-1.9,0.5-3,0.5c-0.9,0-1.9-0.1-2.9-0.4c-1-0.3-1.8-0.7-2.7-1.2l0.9-1.9c0.6,0.4,1.3,0.7,2.1,1c0.8,0.2,1.5,0.3,2.3,0.3
                    c1.1,0,2-0.2,2.7-0.6c0.7-0.4,1.1-1,1.1-1.7c0-0.6-0.3-1.1-0.8-1.4c-0.5-0.3-1.2-0.5-2.1-0.5h-3.3v-2.1h3.1
                    c0.8,0,1.4-0.2,1.9-0.5c0.4-0.3,0.7-0.8,0.7-1.3c0-0.7-0.3-1.2-0.9-1.5c-0.6-0.4-1.4-0.5-2.3-0.5c-0.6,0-1.3,0.1-2,0.3
                    c-0.7,0.2-1.3,0.5-1.9,0.8l-0.8-2.1c0.7-0.4,1.5-0.7,2.3-0.9c0.8-0.2,1.6-0.3,2.5-0.3c1.1,0,2,0.2,2.9,0.5
                    c0.9,0.3,1.6,0.8,2.1,1.4c0.5,0.6,0.8,1.3,0.8,2.1c0,0.7-0.2,1.3-0.6,1.9c-0.4,0.5-0.9,0.9-1.6,1.2
                    C168.7,996.5,169.4,997,169.9,997.6z"/>
                <path class="st43" d="M176.2,989.5l3.4,4.8l3.4-4.8h3.1l-4.8,6.8l5.2,7.4h-3.1l-3.7-5.2l-3.7,5.2h-3.1l5.1-7.3l-4.8-6.9H176.2z"
                    />
                <path class="st43" d="M192.1,1003c-1.2-0.6-2.1-1.5-2.7-2.6c-0.7-1.1-1-2.4-1-3.8c0-1.4,0.3-2.6,1-3.8c0.7-1.1,1.6-2,2.7-2.6
                    c1.2-0.6,2.5-0.9,3.9-0.9c1.5,0,2.8,0.3,3.9,0.9s2.1,1.5,2.7,2.6c0.7,1.1,1,2.4,1,3.8c0,1.4-0.3,2.7-1,3.8
                    c-0.7,1.1-1.6,2-2.7,2.6c-1.2,0.6-2.5,0.9-3.9,0.9C194.5,1003.9,193.2,1003.6,192.1,1003z M198.5,1000.9c0.8-0.4,1.4-1,1.8-1.8
                    c0.4-0.8,0.7-1.6,0.7-2.6c0-0.9-0.2-1.8-0.7-2.6c-0.4-0.8-1-1.4-1.8-1.8c-0.8-0.4-1.6-0.6-2.6-0.6c-0.9,0-1.8,0.2-2.6,0.6
                    c-0.8,0.4-1.4,1-1.8,1.8c-0.4,0.8-0.7,1.6-0.7,2.6c0,0.9,0.2,1.8,0.7,2.6c0.4,0.8,1,1.4,1.8,1.8c0.8,0.4,1.6,0.6,2.6,0.6
                    C196.9,1001.6,197.8,1001.4,198.5,1000.9z"/>
                <path class="st43" d="M221.5,1001.5v5.3h-2.4v-3h-10.9v3h-2.5l0-5.3h0.6c0.9,0,1.5-0.7,1.9-2c0.4-1.3,0.6-3.1,0.7-5.5l0.2-4.5
                    h10.4v12H221.5z M210.7,998.8c-0.2,1.2-0.6,2.1-1.1,2.6h7.2v-9.8h-5.6l-0.1,2.5C211.1,996.1,211,997.6,210.7,998.8z"/>
                <path class="st43" d="M225.2,989.5h2.6v10.1l7.6-10.1h2.5v14.2h-2.6v-10.1l-7.6,10.1h-2.5V989.5z"/>
                <path class="st43" d="M253.5,991.7h-4.7v12h-2.6v-12h-4.7v-2.2h12V991.7z"/>
                <path class="st43" d="M267.7,1001.5v2.2H257v-14.2h10.4v2.2h-7.7v3.7h6.9v2.2h-6.9v3.9H267.7z"/>
            </g>
        </g>
        <g>
            <g>
                <path class="st1" d="M194.9,856.5h-41.1c0,0,0,0,0,0c0,0,0,0,0,0c-0.1,0-0.1,0-0.2,0c0,0,0,0,0,0c-0.1,0-0.1,0-0.2,0c0,0,0,0,0,0
                    c-0.1,0-0.1,0-0.2,0.1c0,0,0,0,0,0c-0.1,0-0.1,0.1-0.2,0.1c0,0,0,0,0,0c0,0-0.1,0.1-0.1,0.1c0,0,0,0,0,0l-14.7,14.7c0,0,0,0,0,0
                    c0,0-0.1,0.1-0.1,0.1c0,0,0,0,0,0c0,0-0.1,0.1-0.1,0.2c0,0,0,0,0,0c0,0.1,0,0.1-0.1,0.2c0,0,0,0,0,0c0,0.1,0,0.1,0,0.2
                    c0,0,0,0,0,0c0,0.1,0,0.1,0,0.2c0,0,0,0,0,0c0,0,0,0,0,0v64.6c0,2.4,1.9,4.3,4.3,4.3h52.9c2.4,0,4.3-1.9,4.3-4.3v-76.4
                    C199.2,858.4,197.3,856.5,194.9,856.5z M152.4,861.2v8.4c0,0.9-0.7,1.6-1.6,1.6h-8.4L152.4,861.2z M196.5,937.2
                    c0,0.9-0.7,1.6-1.6,1.6H142c-0.9,0-1.6-0.7-1.6-1.6v-63.2h10.4c2.4,0,4.3-1.9,4.3-4.3v-10.4h39.7c0.9,0,1.6,0.7,1.6,1.6V937.2z"
                    />
                <path class="st1" d="M150.9,896h35.2c0.8,0,1.4-0.6,1.4-1.4c0-0.8-0.6-1.4-1.4-1.4h-35.2c-0.8,0-1.4,0.6-1.4,1.4
                    C149.5,895.4,150.1,896,150.9,896z"/>
                <path class="st1" d="M150.9,903.3h35.2c0.8,0,1.4-0.6,1.4-1.4c0-0.8-0.6-1.4-1.4-1.4h-35.2c-0.8,0-1.4,0.6-1.4,1.4
                    C149.5,902.7,150.1,903.3,150.9,903.3z"/>
                <path class="st1" d="M150.9,910.7h17.6c0.8,0,1.4-0.6,1.4-1.4c0-0.8-0.6-1.4-1.4-1.4h-17.6c-0.8,0-1.4,0.6-1.4,1.4
                    C149.5,910,150.1,910.7,150.9,910.7z"/>
                <path class="st1" d="M169.9,916.6c0-0.8-0.6-1.4-1.4-1.4h-17.6c-0.8,0-1.4,0.6-1.4,1.4c0,0.8,0.6,1.4,1.4,1.4h17.6
                    C169.2,918,169.9,917.4,169.9,916.6z"/>
                <path class="st1" d="M175.7,880.3c0-0.8-0.6-1.4-1.4-1.4c-0.8,0-1.4,0.6-1.4,1.4c0,2.7,2.5,4.9,5.9,5.3v0.2
                    c0,0.8,0.6,1.4,1.4,1.4c0.8,0,1.4-0.6,1.4-1.4v-0.2c3.4-0.5,5.9-2.6,5.9-5.3c0-2.7-2.5-4.9-5.9-5.3v-5.3c1.7,0.3,3.1,1.3,3.1,2.5
                    c0,0.8,0.6,1.4,1.4,1.4c0.8,0,1.4-0.6,1.4-1.4c0-2.7-2.5-4.9-5.9-5.3v-0.2c0-0.8-0.6-1.4-1.4-1.4c-0.8,0-1.4,0.6-1.4,1.4v0.2
                    c-3.4,0.5-5.9,2.6-5.9,5.3s2.5,4.9,5.9,5.3v5.3C177.2,882.4,175.7,881.5,175.7,880.3z M184.7,880.3c0,1.2-1.5,2.2-3.1,2.5v-5
                    C183.3,878.1,184.7,879,184.7,880.3z M175.7,872.2c0-1.2,1.5-2.2,3.1-2.5v5C177.2,874.4,175.7,873.4,175.7,872.2z"/>
                <path class="st1" d="M188.8,915.3c-0.7-0.4-1.5-0.1-1.9,0.5l-2.8,5l-0.4-0.3c-0.3-0.3-0.7-0.3-1.2-0.3c-0.4,0.1-0.7,0.4-0.9,0.7
                    l-1.4,2.9l-0.5-0.5c-0.7-0.8-1.7-1.1-2.7-0.9c-1,0.2-1.8,0.9-2.1,1.9l-1.6,4.5l-3.8-4.7c-0.2-0.3-0.6-0.5-1-0.5
                    c-0.4,0-0.7,0.1-1,0.3l-4,3.5c-0.6,0.5-0.6,1.4-0.1,1.9c0.5,0.6,1.4,0.6,1.9,0.1l2.9-2.5l3.6,4.5c0.4,0.5,1,0.8,1.7,0.8
                    c0.1,0,0.2,0,0.4,0c0.8-0.1,1.4-0.7,1.6-1.4l2-5.7c0,0,0,0,0.1-0.1c0.1,0,0.1,0,0.1,0l1.8,2.1c0.3,0.3,0.8,0.5,1.2,0.5
                    c0.5-0.1,0.9-0.3,1.1-0.8l1.6-3.2l0.3,0.2c0.3,0.2,0.7,0.3,1.1,0.3c0.4-0.1,0.7-0.3,0.9-0.7l3.6-6.4
                    C189.7,916.6,189.5,915.7,188.8,915.3z"/>
            </g>
        </g>
        
            <radialGradient id="SVGID_7_" cx="-1056.2159" cy="6187.8574" r="129.2727" gradientTransform="matrix(0.5538 0 0 4.348000e-02 753.6798 682.5848)" gradientUnits="userSpaceOnUse">
            <stop  offset="0.1034" style="stop-color:#E0E3E2"/>
            <stop  offset="0.2677" style="stop-color:#E9EBEA"/>
            <stop  offset="0.684" style="stop-color:#F9FAFA"/>
            <stop  offset="1" style="stop-color:#FFFFFF"/>
        </radialGradient>
        <ellipse class="st10" cx="168.7" cy="951.6" rx="101.1" ry="4.7"/>
        <path class="st7" d="M217.3,911.3c0,0-1.9,19.1-17,20.4c15.1,1.3,17,20.4,17,20.4s1.9-19.1,17-20.4
            C219.2,930.4,217.3,911.3,217.3,911.3z"/>
        <path class="st7" d="M228.8,859.9c0,0-1.3,12.6-11.3,13.5c10,0.9,11.3,13.5,11.3,13.5s1.3-12.6,11.3-13.5
            C230.1,872.5,228.8,859.9,228.8,859.9z"/>
    </g>
    <g>
        <g>
            <path class="st43" d="M161.4,733.3c-1.6-0.9-2.9-2.1-3.8-3.6c-0.9-1.6-1.4-3.3-1.4-5.3c0-1.9,0.5-3.7,1.4-5.3
                c0.9-1.6,2.2-2.8,3.8-3.6c1.6-0.9,3.4-1.3,5.4-1.3c1.6,0,3.1,0.3,4.5,0.9c1.3,0.6,2.5,1.4,3.4,2.5l-2.4,2.2
                c-1.4-1.6-3.2-2.3-5.3-2.3c-1.4,0-2.6,0.3-3.7,0.9c-1.1,0.6-1.9,1.4-2.5,2.5c-0.6,1.1-0.9,2.3-0.9,3.6c0,1.3,0.3,2.5,0.9,3.6
                c0.6,1.1,1.4,1.9,2.5,2.5c1.1,0.6,2.3,0.9,3.7,0.9c2.1,0,3.9-0.8,5.3-2.4l2.4,2.3c-0.9,1.1-2.1,1.9-3.4,2.5
                c-1.4,0.6-2.8,0.9-4.5,0.9C164.8,734.6,163,734.1,161.4,733.3z"/>
            <path class="st43" d="M192.3,717.5h-6.6v16.7h-3.7v-16.7h-6.6v-3.1h16.8V717.5z"/>
            <path class="st43" d="M207.7,729.7h-9.9l-2,4.6H192l8.9-19.9h3.6l9,19.9h-3.9L207.7,729.7z M206.5,726.8l-3.7-8.7l-3.7,8.7H206.5z
                "/>
            <path class="st43" d="M229.3,715.3c1.3,0.6,2.3,1.4,2.9,2.4c0.7,1.1,1,2.3,1,3.8c0,1.4-0.3,2.7-1,3.8c-0.7,1.1-1.7,1.9-2.9,2.5
                c-1.3,0.6-2.8,0.9-4.5,0.9h-4.5v5.7h-3.7v-19.9h8.2C226.5,714.4,228,714.7,229.3,715.3z M228.2,724.4c0.8-0.7,1.2-1.7,1.2-2.9
                s-0.4-2.2-1.2-2.9c-0.8-0.7-2.1-1-3.7-1h-4.3v7.9h4.3C226.2,725.4,227.4,725.1,228.2,724.4z"/>
            <path class="st43" d="M250.6,717.5H244v16.7h-3.7v-16.7h-6.6v-3.1h16.8V717.5z"/>
            <path class="st43" d="M253.9,733.9c-0.4-0.4-0.7-1-0.7-1.6c0-0.6,0.2-1.1,0.7-1.6c0.4-0.4,1-0.6,1.6-0.6c0.6,0,1.2,0.2,1.6,0.6
                s0.6,0.9,0.6,1.6c0,0.6-0.2,1.1-0.6,1.6s-1,0.6-1.6,0.6C254.8,734.5,254.3,734.3,253.9,733.9z M253.4,714.4h4.2l-0.7,13.3h-2.8
                L253.4,714.4z"/>
        </g>
        <g>
            <path class="st1" d="M131.7,698.7L131.7,698.7c-0.8-0.7-1.8-1.3-2.9-1.6l-0.4-0.1l-0.2-0.4c-0.4-1-1-2-1.9-2.7
                c-1.3-1.2-2.9-1.8-4.7-1.8c-0.1,0-0.2,0-0.4,0c-3.8,0.2-6.8,3.5-6.6,7.3l0.5,10.2c0,0.5,0.3,1,0.6,1.3c0.4,0.3,0.9,0.5,1.4,0.5
                l10.2-0.5c3.8-0.2,6.8-3.5,6.6-7.3C133.9,701.6,133,699.9,131.7,698.7z M129.4,706c-0.6,0.6-1.4,1-2.2,1.1l-8.3,0.4l-0.4-8.3
                c-0.1-1.8,1.3-3.3,3-3.4c0.9,0,1.7,0.2,2.3,0.8c0.6,0.6,1,1.4,1.1,2.2c0,0.5,0.2,1,0.6,1.3c0.4,0.3,0.9,0.5,1.4,0.5
                c0.8,0,1.7,0.2,2.3,0.8c0.6,0.6,1,1.4,1.1,2.2C130.2,704.6,129.9,705.4,129.4,706z"/>
            <path class="st1" d="M149.3,679.2c-0.8-0.8-1.8-1.3-2.9-1.6l-0.4-0.1l-0.2-0.4c-0.4-1-1-2-1.9-2.7c-1.3-1.2-2.9-1.8-4.7-1.8
                c-0.1,0-0.2,0-0.4,0c-3.8,0.2-6.8,3.5-6.6,7.3l0.5,10.2c0,0.5,0.3,1,0.6,1.3c0.4,0.3,0.9,0.5,1.4,0.5l10.2-0.5
                c3.8-0.2,6.8-3.5,6.6-7.3C151.5,682.1,150.7,680.4,149.3,679.2z M144.8,687.5l-8.3,0.4l-0.4-8.3c0-0.9,0.2-1.7,0.8-2.3
                s1.4-1,2.2-1.1c0.9,0,1.7,0.2,2.3,0.8c0.6,0.6,1,1.4,1.1,2.2c0,0.5,0.2,1,0.6,1.3c0.4,0.3,0.9,0.5,1.4,0.5c0.9,0,1.7,0.2,2.3,0.8
                c0.6,0.6,1,1.4,1.1,2.2C147.9,685.9,146.6,687.4,144.8,687.5z"/>
            <path class="st1" d="M174.7,645.6c-0.4-0.4-0.9-0.5-1.5-0.5c-25,3-47.8,16.5-62.5,36.9l-5.7,7.9l-29,10.9c-0.4,0.2-0.7,0.4-1,0.8
                l-10.3,17.5c-0.3,0.6-0.4,1.2-0.1,1.8c0.1,0.2,0.2,0.4,0.4,0.6c0.3,0.3,0.7,0.4,1.1,0.5l17.3,1.9l9.9,9l-5.8,6.4
                c-0.7,0.8-0.6,2,0.1,2.7c0.4,0.3,0.8,0.5,1.4,0.5c0.5,0,1-0.2,1.3-0.6l5.8-6.4l9.9,9l3.6,17c0.1,0.4,0.3,0.7,0.6,1
                c0.2,0.2,0.4,0.3,0.6,0.4c0.6,0.2,1.3,0.1,1.8-0.2l16.4-12.1c0.3-0.3,0.6-0.6,0.7-1l7.9-30l7.3-6.4c18.8-16.7,29.9-40.7,30.4-65.9
                C175.3,646.5,175.1,646,174.7,645.6z M83.4,720.1l-13.9-1.5l8.5-14.4l23.1-8.7L83.4,720.1z M126.4,747.8l-13.5,9.9L110,744
                l22.7-20.1L126.4,747.8z M165.9,676.1c-5,13.1-13.1,24.8-23.5,34l-34.6,30.7l-9.1-8.3l11.5-12.8c0.3-0.4,0.5-0.9,0.5-1.4
                c0-0.5-0.2-1-0.6-1.3c-0.8-0.7-2-0.6-2.7,0.1L96,730l-9.1-8.3l27-37.5c8.1-11.3,19-20.5,31.5-26.8l0.8-0.4l0.4,0.9
                c1.6,4,4.2,7.7,7.5,10.7c3.3,2.9,7.2,5.1,11.4,6.4l0.9,0.3L165.9,676.1z M171.4,650.3c-0.4,6.9-1.6,13.9-3.7,20.6l-0.3,0.8
                l-0.8-0.2c-3.8-1-7.3-3-10.2-5.6c-2.9-2.6-5.2-5.9-6.6-9.6l-0.3-0.8l0.8-0.3c6.5-2.7,13.2-4.7,20.1-5.8l1.1-0.2L171.4,650.3z"/>
        </g>
        <path class="st11" d="M250,668.9c-0.9-3.8-4.3-6.6-8.3-6.6c-0.7,0-1.5,0.1-2.2,0.3c-2-4.3-6.3-7.2-11.4-7.2c-1.3,0-2.6,0.2-3.7,0.6
            c-2.7-4.5-7.6-7.5-13.2-7.5c-6.7,0-12.4,4.2-14.5,10.2c-1.5-0.9-3.3-1.3-5.2-1.3c-5.9,0-10.6,4.7-10.6,10.6c0,0.3,0,0.7,0.1,1H250z
            "/>
        <path class="st11" d="M104.9,683.6c-0.8-3.6-4-6.2-7.8-6.2c-0.7,0-1.4,0.1-2,0.3c-1.9-4-5.9-6.8-10.7-6.8c-1.2,0-2.4,0.2-3.5,0.5
            c-2.5-4.2-7.2-7-12.4-7c-6.3,0-11.6,4-13.6,9.6c-1.4-0.8-3.1-1.3-4.8-1.3c-5.5,0-10,4.5-10,10c0,0.3,0,0.6,0,1H104.9z"/>
        <path class="st7" d="M116.3,782.9c0,0-0.8,8.3-7.4,8.9c6.6,0.6,7.4,8.9,7.4,8.9s0.8-8.3,7.4-8.9
            C117.2,791.2,116.3,782.9,116.3,782.9z"/>
    </g>
    <g>
        <g>
            <g>
                <path class="st43" d="M846.7,959.3h-9.5v24.1h-10.8v-24.1h-9.5v-8.5h29.9V959.3z"/>
                <path class="st43" d="M850.4,950.8h10.8v16.9l11.2-16.9h10.3v32.6h-10.8v-16.9l-11.2,16.9h-10.4V950.8z"/>
                <path class="st43" d="M851.6,996.1l-13.1,24.5c-1.6,2.9-3.5,5.1-5.7,6.7c-2.2,1.5-4.7,2.3-7.4,2.3c-2.1,0-4.2-0.4-6.3-1.3
                    l2.6-7.9c1.4,0.4,2.5,0.6,3.3,0.6c0.8,0,1.5-0.1,2.1-0.4c0.6-0.3,1.1-0.7,1.7-1.4l-12.5-23h11.6l6.5,13.7l6.7-13.7H851.6z"/>
                <path class="st43" d="M860.5,1027.3c-2.8-1.4-4.9-3.5-6.5-6c-1.6-2.6-2.3-5.5-2.3-8.8c0-3.3,0.8-6.2,2.3-8.8
                    c1.6-2.6,3.7-4.6,6.5-6c2.8-1.4,5.9-2.2,9.3-2.2c3.2,0,6,0.6,8.5,1.7c2.5,1.1,4.5,2.7,6.1,4.8l-6.9,6.2c-2-2.5-4.4-3.8-7.1-3.8
                    c-2.3,0-4.1,0.7-5.5,2.2c-1.4,1.5-2.1,3.5-2.1,5.9c0,2.5,0.7,4.5,2.1,5.9c1.4,1.5,3.2,2.2,5.5,2.2c2.7,0,5.1-1.3,7.1-3.8l6.9,6.2
                    c-1.6,2.1-3.7,3.7-6.1,4.8c-2.5,1.1-5.3,1.7-8.5,1.7C866.3,1029.4,863.2,1028.7,860.5,1027.3z"/>
                <path class="st43" d="M919.2,996.1v32.6h-10.8v-24.1h-9.9v24.1h-10.8v-32.6H919.2z"/>
                <path class="st43" d="M953.5,996.1v32.6h-10.8v-7.7h-2.9l-5,7.7h-11.5l6.4-9.3c-2.1-1-3.7-2.4-4.9-4.2s-1.7-4-1.7-6.4
                    c0-2.6,0.6-4.8,1.8-6.7c1.2-1.9,3-3.3,5.2-4.4c2.3-1,4.9-1.5,8-1.5H953.5z M934.2,1008.6c0,2.8,1.4,4.1,4.2,4.1h4.3v-8.1h-4.3
                    C935.6,1004.6,934.2,1005.9,934.2,1008.6z"/>
                <path class="st43" d="M957.4,996.1H970l-2.1,20.1h-8.4L957.4,996.1z M959.3,1027.5c-1.1-1.1-1.7-2.4-1.7-4c0-1.6,0.6-2.9,1.7-3.9
                    c1.1-1,2.6-1.6,4.4-1.6c1.8,0,3.3,0.5,4.4,1.6c1.1,1,1.7,2.3,1.7,3.9c0,1.6-0.6,2.9-1.7,4c-1.1,1.1-2.6,1.6-4.4,1.6
                    C961.9,1029.2,960.4,1028.6,959.3,1027.5z"/>
            </g>
        </g>
        <g>
            <path class="st8" d="M959.8,947.6c-0.3-2.4-1.1-4.8-2.6-6.8c-1-1.4-2.3-2.5-3.7-3.5c-1.4-0.9-3-1.5-4.7-1.8
                c-0.7-0.1-1.4-0.2-2.1-0.2c-1.9,0-3.8,0.4-5.6,1c-1.9,0.7-3.7,1.7-5.2,3c-1.5,1.3-2.8,2.8-4,4.5c-0.4,0.5-0.9,1.4-1.1,2
                c-0.4,0.9-0.8,1.9-1.1,2.8c-0.1-0.1-0.2-0.3-0.3-0.4c-0.1-0.1-0.2-0.2-0.3-0.4c0,0-0.1-0.1-0.1-0.1c-0.9-0.9-2-1.7-3.1-2.4
                c-1.4-0.8-2.9-1.4-4.4-1.8c-0.6-0.1-1.1-0.2-1.7-0.3c-0.6-0.1-1.2-0.1-1.8-0.1c-0.3,0-0.5,0-0.8,0c-0.8,0.1-1.7,0.2-2.5,0.4
                c-0.9,0.2-1.8,0.6-2.6,1c-1.2,0.6-2.4,1.5-3.3,2.4c-0.8,0.7-1.4,1.6-2,2.5c-1.3,2.2-1.8,4.3-2,6.6c-0.1,1.6,0,3.1,0.3,4.7
                c0.3,1.4,0.9,2.7,1.6,4c0.6,1.1,1.3,2,2.1,3c1.1,1.3,2.3,2.5,3.5,3.6c1.9,1.8,4,3.4,6.2,4.9c2.5,1.7,5,3.3,7.6,4.8
                c10.4,5.7,18.7,7.6,19,4.9c0.3-3.6,1.2-7.1,3.1-10.2c0.2-0.3,0.4-0.7,0.6-1c1.7-2.7,3.5-5.3,5.2-8c2-3.1,3.7-6.2,4.9-9.6
                c0.5-1.5,0.9-3,1.1-4.6c0.1-0.8,0.2-1.5,0.2-2.3C960,949.4,959.9,948.5,959.8,947.6z"/>
            <g>
                <path class="st8" d="M956,947.3c0.4,0.3,0.5,0.8,0.2,1.2c-0.3,0.4-0.8,0.5-1.2,0.2c-0.4-0.3-0.5-0.8-0.2-1.2
                    C955,947.1,955.6,947.1,956,947.3L956,947.3L956,947.3z"/>
                <path class="st8" d="M955.5,952c0.3,0.2,0.4,0.6,0.2,0.8c-0.2,0.3-0.6,0.3-0.9,0.1c-0.3-0.2-0.4-0.6-0.2-0.8
                    C954.8,951.9,955.2,951.8,955.5,952L955.5,952L955.5,952z"/>
                <path class="st8" d="M953.9,956.9c0.2,0.1,0.2,0.4,0.1,0.6c-0.1,0.2-0.4,0.2-0.6,0.1c-0.2-0.1-0.2-0.4-0.1-0.6
                    C953.5,956.8,953.7,956.8,953.9,956.9L953.9,956.9L953.9,956.9z"/>
                <path class="st8" d="M951.3,960.6c0.2,0.1,0.3,0.4,0.1,0.6c-0.1,0.2-0.5,0.3-0.7,0.1c-0.2-0.1-0.3-0.4-0.1-0.6
                    C950.8,960.5,951.1,960.4,951.3,960.6L951.3,960.6L951.3,960.6z"/>
            </g>
        </g>
        <g>
            <g>
                
                    <radialGradient id="SVGID_8_" cx="-21.9711" cy="6456.6548" r="157.9999" gradientTransform="matrix(0.5538 0 0 4.348000e-02 753.6798 787.7706)" gradientUnits="userSpaceOnUse">
                    <stop  offset="0.1034" style="stop-color:#E0E3E2"/>
                    <stop  offset="0.2677" style="stop-color:#E9EBEA"/>
                    <stop  offset="0.684" style="stop-color:#F9FAFA"/>
                    <stop  offset="1" style="stop-color:#FFFFFF"/>
                </radialGradient>
                <ellipse class="st12" cx="741.5" cy="1068.5" rx="123.5" ry="5.8"/>
                <g>
                    <g>
                        <path class="st37" d="M737.9,970.9c3.7,10.1,13.5,17.4,24.9,17.4c11.4,0,21.2-7.2,24.9-17.4"/>
                        <g>
                            <path class="st14" d="M756.3,954.3c0,1.8-1.5,3.3-3.3,3.3c-1.8,0-3.3-1.5-3.3-3.3c0-1.8,1.5-3.3,3.3-3.3
                                C754.8,951,756.3,952.5,756.3,954.3z"/>
                            <path class="st14" d="M775.9,954.3c0,1.8-1.5,3.3-3.3,3.3c-1.8,0-3.3-1.5-3.3-3.3c0-1.8,1.5-3.3,3.3-3.3
                                C774.4,951,775.9,952.5,775.9,954.3z"/>
                        </g>
                    </g>
                    <g>
                        <path class="st38" d="M727.1,1010.3c-3.1,8.3-11.1,14.3-20.4,14.3c-9.4,0-17.4-5.9-20.4-14.3"/>
                        <g>
                            <path class="st16" d="M712,996.6c0,1.5,1.2,2.7,2.7,2.7c1.5,0,2.7-1.2,2.7-2.7c0-1.5-1.2-2.7-2.7-2.7
                                C713.2,993.9,712,995.2,712,996.6z"/>
                            <path class="st16" d="M695.8,996.6c0,1.5,1.2,2.7,2.7,2.7c1.5,0,2.7-1.2,2.7-2.7c0-1.5-1.2-2.7-2.7-2.7
                                C697.1,993.9,695.8,995.2,695.8,996.6z"/>
                        </g>
                        <circle class="st39" cx="706.5" cy="1006.9" r="36.6"/>
                    </g>
                    <g>
                        <g>
                            <path class="st40" d="M741.2,1029.1c1.9,5.3,7,9,12.9,9c5.9,0,11-3.8,12.9-9"/>
                            <g>
                                <path class="st19" d="M750.8,1020.5c0,0.9-0.8,1.7-1.7,1.7c-0.9,0-1.7-0.8-1.7-1.7c0-0.9,0.8-1.7,1.7-1.7
                                    C750,1018.8,750.8,1019.6,750.8,1020.5z"/>
                                <path class="st19" d="M761,1020.5c0,0.9-0.8,1.7-1.7,1.7c-0.9,0-1.7-0.8-1.7-1.7c0-0.9,0.8-1.7,1.7-1.7
                                    C760.2,1018.8,761,1019.6,761,1020.5z"/>
                            </g>
                        </g>
                    </g>
                    <circle class="st41" cx="760.8" cy="964.5" r="43.8"/>
                    <circle class="st42" cx="755.1" cy="1026.1" r="23"/>
                </g>
            </g>
        </g>
    </g>
    <g>
        <path class="st43" d="M202,111.7v15.9h-2.3v-7.1h-9.2v7.1h-2.3v-15.9h2.3v6.9h9.2v-6.9H202z"/>
        <path class="st43" d="M217.3,115.6l-5.9,13.3c-0.5,1.2-1.1,2.1-1.8,2.6s-1.5,0.8-2.5,0.8c-0.6,0-1.2-0.1-1.7-0.3
            c-0.6-0.2-1-0.5-1.4-0.8l0.9-1.6c0.6,0.6,1.3,0.9,2.2,0.9c0.5,0,1-0.1,1.3-0.4c0.4-0.3,0.7-0.8,1-1.4l0.4-0.8l-5.3-12h2.3l4.2,9.7
            l4.2-9.7H217.3z"/>
        <path class="st43" d="M229.8,122.5h-2.3v5.1h-2.2v-5.1H223l-3.3,5.1H217l4.1-6.2l-3.8-5.8h2.3l3.3,5.1h2.4v-5.1h2.2v5.1h2.4
            l3.3-5.1h2.3l-3.8,5.8l4.1,6.2h-2.6L229.8,122.5z"/>
        <path class="st43" d="M250.5,125.7v4.7h-2v-2.8h-10.1v2.8h-2.1v-4.7h0.6c0.8,0,1.3-0.6,1.6-1.6c0.3-1,0.5-2.5,0.6-4.4l0.2-4.1h9.4
            v10.2H250.5z M240.7,123.6c-0.2,1-0.5,1.7-1,2.2h6.8v-8.2h-5.2l-0.1,2.3C241,121.3,240.9,122.6,240.7,123.6z"/>
        <path class="st43" d="M261.4,116.7c0.9,0.8,1.3,2,1.3,3.7v7.3h-2.1V126c-0.4,0.6-0.9,1-1.6,1.3s-1.5,0.4-2.4,0.4
            c-1.4,0-2.4-0.3-3.2-1c-0.8-0.7-1.2-1.5-1.2-2.6c0-1.1,0.4-1.9,1.2-2.6c0.8-0.6,2-1,3.7-1h3.5v-0.4c0-0.9-0.3-1.7-0.8-2.2
            c-0.5-0.5-1.4-0.8-2.4-0.8c-0.7,0-1.4,0.1-2.1,0.4c-0.7,0.2-1.3,0.6-1.7,0.9l-0.9-1.6c0.6-0.5,1.4-0.9,2.2-1.1
            c0.9-0.3,1.8-0.4,2.8-0.4C259.3,115.5,260.6,115.9,261.4,116.7z M259.3,125.5c0.6-0.4,1-0.9,1.3-1.6v-1.7h-3.4
            c-1.9,0-2.8,0.6-2.8,1.9c0,0.6,0.2,1.1,0.7,1.4c0.5,0.3,1.1,0.5,2,0.5C257.9,126.1,258.7,125.9,259.3,125.5z"/>
        <path class="st43" d="M277.6,122.3h-9.8c0.1,1.1,0.6,1.9,1.4,2.6c0.8,0.6,1.8,1,3,1c1.4,0,2.6-0.5,3.5-1.5l1.2,1.4
            c-0.5,0.6-1.2,1.1-2,1.5c-0.8,0.3-1.7,0.5-2.7,0.5c-1.3,0-2.4-0.3-3.4-0.8s-1.7-1.3-2.3-2.2c-0.5-0.9-0.8-2-0.8-3.2
            c0-1.2,0.3-2.2,0.8-3.2c0.5-0.9,1.2-1.7,2.2-2.2c0.9-0.5,2-0.8,3.1-0.8s2.2,0.3,3.1,0.8c0.9,0.5,1.6,1.3,2.1,2.2
            c0.5,0.9,0.8,2,0.8,3.2C277.6,121.8,277.6,122.1,277.6,122.3z M269,118.3c-0.7,0.6-1.1,1.5-1.2,2.5h7.7c-0.1-1-0.5-1.8-1.2-2.5
            c-0.7-0.6-1.6-1-2.6-1S269.7,117.6,269,118.3z"/>
        <path class="st43" d="M298.2,115.6v12.1H281v-12.1h2.2v10.2h5.3v-10.2h2.2v10.2h5.3v-10.2H298.2z"/>
        <path class="st43" d="M310.5,127c-1-0.5-1.7-1.3-2.3-2.2c-0.5-0.9-0.8-2-0.8-3.2s0.3-2.2,0.8-3.2c0.5-0.9,1.3-1.7,2.3-2.2
            c1-0.5,2.1-0.8,3.3-0.8c1.1,0,2.1,0.2,2.9,0.7c0.9,0.4,1.5,1.1,2,1.9l-1.7,1.1c-0.4-0.6-0.9-1-1.4-1.3c-0.6-0.3-1.2-0.4-1.9-0.4
            c-0.8,0-1.5,0.2-2.1,0.5c-0.6,0.3-1.1,0.8-1.5,1.5c-0.4,0.6-0.5,1.4-0.5,2.2c0,0.8,0.2,1.6,0.5,2.2c0.4,0.6,0.8,1.1,1.5,1.5
            c0.6,0.3,1.3,0.5,2.1,0.5c0.7,0,1.3-0.1,1.9-0.4c0.6-0.3,1-0.7,1.4-1.3l1.7,1c-0.5,0.8-1.1,1.5-2,1.9c-0.9,0.4-1.8,0.7-2.9,0.7
            C312.6,127.8,311.5,127.5,310.5,127z"/>
        <path class="st43" d="M332.2,122.3h-9.8c0.1,1.1,0.6,1.9,1.4,2.6c0.8,0.6,1.8,1,3,1c1.4,0,2.6-0.5,3.5-1.5l1.2,1.4
            c-0.5,0.6-1.2,1.1-2,1.5c-0.8,0.3-1.7,0.5-2.7,0.5c-1.3,0-2.4-0.3-3.4-0.8s-1.7-1.3-2.3-2.2c-0.5-0.9-0.8-2-0.8-3.2
            c0-1.2,0.3-2.2,0.8-3.2c0.5-0.9,1.2-1.7,2.2-2.2c0.9-0.5,2-0.8,3.1-0.8s2.2,0.3,3.1,0.8c0.9,0.5,1.6,1.3,2.1,2.2
            c0.5,0.9,0.8,2,0.8,3.2C332.3,121.8,332.3,122.1,332.2,122.3z M323.7,118.3c-0.7,0.6-1.1,1.5-1.2,2.5h7.7c-0.1-1-0.5-1.8-1.2-2.5
            c-0.7-0.6-1.6-1-2.6-1S324.4,117.6,323.7,118.3z"/>
        <path class="st43" d="M189.8,149.7c-1-0.5-1.7-1.3-2.2-2.2c-0.5-0.9-0.8-2-0.8-3.2s0.3-2.2,0.8-3.2c0.5-0.9,1.3-1.7,2.2-2.2
            c1-0.5,2-0.8,3.2-0.8s2.3,0.3,3.2,0.8c0.9,0.5,1.7,1.3,2.2,2.2c0.5,0.9,0.8,2,0.8,3.2s-0.3,2.2-0.8,3.2c-0.5,0.9-1.3,1.7-2.2,2.2
            c-0.9,0.5-2,0.8-3.2,0.8S190.8,150.3,189.8,149.7z M195.1,148.1c0.6-0.4,1.1-0.9,1.4-1.5c0.3-0.6,0.5-1.4,0.5-2.2s-0.2-1.6-0.5-2.2
            c-0.3-0.6-0.8-1.1-1.4-1.5c-0.6-0.3-1.3-0.5-2.1-0.5s-1.5,0.2-2.1,0.5c-0.6,0.3-1.1,0.8-1.5,1.5c-0.4,0.6-0.5,1.4-0.5,2.2
            s0.2,1.6,0.5,2.2c0.4,0.6,0.8,1.1,1.5,1.5c0.6,0.4,1.3,0.5,2.1,0.5S194.5,148.4,195.1,148.1z"/>
        <path class="st43" d="M211,140.2h-4.4v10.2h-2.2v-10.2H200v-1.9h11V140.2z"/>
        <path class="st43" d="M221.3,149.7c-1-0.5-1.7-1.3-2.3-2.2c-0.5-0.9-0.8-2-0.8-3.2s0.3-2.2,0.8-3.2c0.5-0.9,1.3-1.7,2.3-2.2
            c1-0.5,2.1-0.8,3.3-0.8c1.1,0,2.1,0.2,2.9,0.7c0.9,0.4,1.5,1.1,2,1.9l-1.7,1.1c-0.4-0.6-0.9-1-1.4-1.3c-0.6-0.3-1.2-0.4-1.9-0.4
            c-0.8,0-1.5,0.2-2.1,0.5c-0.6,0.3-1.1,0.8-1.5,1.5c-0.4,0.6-0.5,1.4-0.5,2.2c0,0.8,0.2,1.6,0.5,2.2c0.4,0.6,0.8,1.1,1.5,1.5
            c0.6,0.3,1.3,0.5,2.1,0.5c0.7,0,1.3-0.1,1.9-0.4c0.6-0.3,1-0.7,1.4-1.3l1.7,1c-0.5,0.8-1.1,1.5-2,1.9c-0.9,0.4-1.8,0.7-2.9,0.7
            C223.4,150.5,222.3,150.3,221.3,149.7z"/>
        <path class="st43" d="M241.9,139c0.9,0.5,1.7,1.2,2.2,2.2c0.5,0.9,0.8,2,0.8,3.2s-0.3,2.3-0.8,3.2c-0.5,0.9-1.2,1.7-2.2,2.2
            c-0.9,0.5-2,0.8-3.1,0.8c-0.9,0-1.7-0.2-2.4-0.5c-0.7-0.3-1.3-0.8-1.8-1.5v6.2h-2.2v-16.5h2.1v1.9c0.5-0.7,1.1-1.2,1.8-1.5
            c0.7-0.3,1.6-0.5,2.5-0.5C239.9,138.2,241,138.5,241.9,139z M240.7,148.1c0.6-0.4,1.1-0.9,1.5-1.5c0.4-0.6,0.5-1.4,0.5-2.2
            s-0.2-1.6-0.5-2.2c-0.4-0.6-0.8-1.1-1.5-1.5c-0.6-0.3-1.3-0.5-2.1-0.5c-0.8,0-1.4,0.2-2.1,0.5c-0.6,0.4-1.1,0.9-1.5,1.5
            c-0.4,0.6-0.5,1.4-0.5,2.2s0.2,1.6,0.5,2.2c0.3,0.6,0.8,1.1,1.5,1.5s1.3,0.5,2.1,0.5C239.4,148.6,240,148.4,240.7,148.1z"/>
        <path class="st43" d="M258.9,145.1h-9.8c0.1,1.1,0.6,1.9,1.4,2.6c0.8,0.6,1.8,1,3,1c1.4,0,2.6-0.5,3.5-1.5l1.2,1.4
            c-0.5,0.6-1.2,1.1-2,1.5c-0.8,0.3-1.7,0.5-2.7,0.5c-1.3,0-2.4-0.3-3.4-0.8s-1.7-1.3-2.3-2.2c-0.5-0.9-0.8-2-0.8-3.2
            c0-1.2,0.3-2.2,0.8-3.2c0.5-0.9,1.2-1.7,2.2-2.2c0.9-0.5,2-0.8,3.1-0.8s2.2,0.3,3.1,0.8c0.9,0.5,1.6,1.3,2.1,2.2
            c0.5,0.9,0.8,2,0.8,3.2C258.9,144.6,258.9,144.8,258.9,145.1z M250.3,141c-0.7,0.6-1.1,1.5-1.2,2.5h7.7c-0.1-1-0.5-1.8-1.2-2.5
            c-0.7-0.6-1.6-1-2.6-1S251,140.4,250.3,141z"/>
        <path class="st43" d="M274.4,148.5v4.7h-2v-2.8h-10.1v2.8h-2.1v-4.7h0.6c0.8,0,1.3-0.6,1.6-1.6c0.3-1,0.5-2.5,0.6-4.4l0.2-4.1h9.4
            v10.2H274.4z M264.6,146.3c-0.2,1-0.5,1.7-1,2.2h6.8v-8.2h-5.2l-0.1,2.3C264.9,144.1,264.8,145.3,264.6,146.3z"/>
        <path class="st43" d="M279.2,149.7c-1-0.5-1.7-1.3-2.3-2.2c-0.5-0.9-0.8-2-0.8-3.2s0.3-2.2,0.8-3.2c0.5-0.9,1.3-1.7,2.3-2.2
            c1-0.5,2.1-0.8,3.3-0.8c1.1,0,2.1,0.2,2.9,0.7c0.9,0.4,1.5,1.1,2,1.9l-1.7,1.1c-0.4-0.6-0.9-1-1.4-1.3c-0.6-0.3-1.2-0.4-1.9-0.4
            c-0.8,0-1.5,0.2-2.1,0.5c-0.6,0.3-1.1,0.8-1.5,1.5c-0.4,0.6-0.5,1.4-0.5,2.2c0,0.8,0.2,1.6,0.5,2.2c0.4,0.6,0.8,1.1,1.5,1.5
            c0.6,0.3,1.3,0.5,2.1,0.5c0.7,0,1.3-0.1,1.9-0.4c0.6-0.3,1-0.7,1.4-1.3l1.7,1c-0.5,0.8-1.1,1.5-2,1.9c-0.9,0.4-1.8,0.7-2.9,0.7
            C281.3,150.5,280.2,150.3,279.2,149.7z"/>
        <path class="st43" d="M299.1,140.2h-4.4v10.2h-2.2v-10.2H288v-1.9h11V140.2z"/>
        <path class="st43" d="M311.9,147.1c0,1.1-0.4,1.9-1.2,2.5c-0.8,0.6-2,0.9-3.6,0.9h-5.8v-12.1h5.6c1.4,0,2.5,0.3,3.3,0.8
            c0.8,0.5,1.2,1.3,1.2,2.3c0,0.6-0.2,1.2-0.5,1.7s-0.8,0.8-1.4,1.1C311.1,144.5,311.9,145.5,311.9,147.1z M303.4,143.5h3.3
            c0.8,0,1.5-0.2,1.9-0.5c0.4-0.3,0.6-0.7,0.6-1.3c0-1.2-0.9-1.7-2.5-1.7h-3.3V143.5z M309,148.3c0.5-0.3,0.7-0.7,0.7-1.3
            c0-0.6-0.2-1.1-0.6-1.4s-1.1-0.5-2-0.5h-3.6v3.6h3.5C307.8,148.7,308.5,148.6,309,148.3z"/>
        <path class="st43" d="M323.4,139.4c0.9,0.8,1.3,2,1.3,3.7v7.3h-2.1v-1.6c-0.4,0.6-0.9,1-1.6,1.3s-1.5,0.4-2.4,0.4
            c-1.4,0-2.4-0.3-3.2-1c-0.8-0.7-1.2-1.5-1.2-2.6c0-1.1,0.4-1.9,1.2-2.6c0.8-0.6,2-1,3.7-1h3.5V143c0-0.9-0.3-1.7-0.8-2.2
            c-0.5-0.5-1.4-0.8-2.4-0.8c-0.7,0-1.4,0.1-2.1,0.4c-0.7,0.2-1.3,0.6-1.7,0.9l-0.9-1.6c0.6-0.5,1.4-0.9,2.2-1.1
            c0.9-0.3,1.8-0.4,2.8-0.4C321.2,138.2,322.5,138.6,323.4,139.4z M321.2,148.3c0.6-0.4,1-0.9,1.3-1.6V145h-3.4
            c-1.9,0-2.8,0.6-2.8,1.9c0,0.6,0.2,1.1,0.7,1.4c0.5,0.3,1.1,0.5,2,0.5C319.9,148.8,320.6,148.7,321.2,148.3z"/>
        <path class="st43" d="M343.2,145.1c0.4,0.5,0.7,1.1,0.7,1.8c0,0.7-0.2,1.3-0.7,1.9s-1.2,1-2,1.3c-0.9,0.3-1.8,0.5-2.9,0.5
            c-0.9,0-1.8-0.1-2.6-0.4c-0.9-0.2-1.6-0.6-2.3-1l0.7-1.7c0.6,0.4,1.2,0.6,2,0.9s1.5,0.3,2.3,0.3c1,0,1.9-0.2,2.5-0.5
            c0.6-0.4,0.9-0.8,0.9-1.4c0-0.6-0.2-1-0.7-1.3c-0.5-0.3-1.2-0.5-2.1-0.5h-2.2v-1.6h2c0.8,0,1.5-0.1,1.9-0.4s0.7-0.7,0.7-1.2
            c0-0.5-0.3-1-0.8-1.3c-0.6-0.3-1.3-0.5-2.2-0.5c-1.2,0-2.5,0.3-3.8,0.9l-0.6-1.7c1.5-0.7,3-1.1,4.6-1.1c1,0,1.8,0.1,2.6,0.4
            c0.8,0.3,1.4,0.7,1.8,1.2c0.4,0.5,0.7,1.1,0.7,1.7c0,0.6-0.2,1.1-0.6,1.6c-0.4,0.5-0.9,0.8-1.6,1.1
            C342.1,144.3,342.8,144.7,343.2,145.1z"/>
        <path class="st43" d="M355.3,139.4c0.9,0.8,1.3,2,1.3,3.7v7.3h-2.1v-1.6c-0.4,0.6-0.9,1-1.6,1.3s-1.5,0.4-2.4,0.4
            c-1.4,0-2.4-0.3-3.2-1c-0.8-0.7-1.2-1.5-1.2-2.6c0-1.1,0.4-1.9,1.2-2.6c0.8-0.6,2-1,3.7-1h3.5V143c0-0.9-0.3-1.7-0.8-2.2
            c-0.5-0.5-1.4-0.8-2.4-0.8c-0.7,0-1.4,0.1-2.1,0.4c-0.7,0.2-1.3,0.6-1.7,0.9l-0.9-1.6c0.6-0.5,1.4-0.9,2.2-1.1
            c0.9-0.3,1.8-0.4,2.8-0.4C353.2,138.2,354.4,138.6,355.3,139.4z M353.1,148.3c0.6-0.4,1-0.9,1.3-1.6V145h-3.4
            c-1.9,0-2.8,0.6-2.8,1.9c0,0.6,0.2,1.1,0.7,1.4c0.5,0.3,1.1,0.5,2,0.5C351.8,148.8,352.5,148.7,353.1,148.3z"/>
    </g>
    <g>
        <path class="st43" d="M204.9,158.5v18.3h-4.2v-14.8h-6.3l-0.1,3.8c-0.1,2.6-0.3,4.7-0.6,6.3c-0.3,1.6-0.9,2.8-1.7,3.7
            c-0.8,0.9-1.9,1.3-3.2,1.3c-0.6,0-1.3-0.1-2.1-0.3l0.3-3.6c0.2,0.1,0.5,0.1,0.8,0.1c1,0,1.7-0.6,2.1-1.8c0.4-1.2,0.7-3.1,0.8-5.6
            l0.3-7.4H204.9z"/>
        <path class="st43" d="M223.6,173.4v3.4h-14.1v-18.3h13.8v3.4h-9.6v4h8.5v3.3h-8.5v4.2H223.6z"/>
        <path class="st43" d="M242,158.5v18.3h-4.2v-6.6c-1.6,0.6-3.1,0.9-4.4,0.9c-2.5,0-4.3-0.6-5.6-1.8s-2-2.9-2-5.1v-5.7h4.2v5.2
            c0,1.3,0.3,2.2,1,2.8c0.7,0.6,1.6,1,2.9,1c1.4,0,2.7-0.3,3.9-0.8v-8.2H242z"/>
        <path class="st43" d="M260.7,173.4v3.4h-14.1v-18.3h13.8v3.4h-9.6v4h8.5v3.3h-8.5v4.2H260.7z"/>
        <path class="st43" d="M280.8,158.5v18.3h-4.2v-7.5h-8.3v7.5h-4.2v-18.3h4.2v7.2h8.3v-7.2H280.8z"/>
        <path class="st43" d="M285.4,158.5h4.2v11.9l8.7-11.9h4v18.3h-4.2v-11.9l-8.7,11.9h-4V158.5z"/>
        <path class="st43" d="M321,173.4v3.4h-14.1v-18.3h13.8v3.4H311v4h8.5v3.3H311v4.2H321z"/>
    </g>
    <g>
        <polygon class="st44" points="278.6,36.3 252.4,36.3 252.4,9.9 227.1,9.9 227.1,36.3 200.6,36.3 200.6,61.9 227.1,61.9 227.1,88.3 
            252.4,88.3 252.4,61.9 278.6,61.9 	"/>
        
            <radialGradient id="SVGID_9_" cx="27.622" cy="2399.5793" r="129.2727" gradientTransform="matrix(0.296 0 0 5.423031e-02 234.0608 -34.1638)" gradientUnits="userSpaceOnUse">
            <stop  offset="0.1034" style="stop-color:#E0E3E2"/>
            <stop  offset="0.2677" style="stop-color:#E9EBEA"/>
            <stop  offset="0.684" style="stop-color:#F9FAFA"/>
            <stop  offset="1" style="stop-color:#FFFFFF"/>
        </radialGradient>
        <ellipse class="st27" cx="242.2" cy="96" rx="54" ry="5.9"/>
    </g>
    <path class="st7" d="M286.3,9.8c0,0-1.3,12.6-11.3,13.5c10,0.9,11.3,13.5,11.3,13.5s1.3-12.6,11.3-13.5
        C287.6,22.4,286.3,9.8,286.3,9.8z"/>
    <path class="st7" d="M305.5,34c0,0-0.8,7.9-7,8.5c6.2,0.5,7,8.5,7,8.5s0.8-7.9,7-8.5C306.4,41.9,305.5,34,305.5,34z"/>
    <path class="st46" d="M523.8,713.1l89.9,40.5l-90.1,40.9l0.2-35l71.7-5.5l-71.9-5.7C523.7,748.2,523.6,713,523.8,713.1z"/>
    <path class="st47" d="M185.4,1031c14.8,20.6,34.8,35.6,57.8,48.6c5,3,10,4,15,6c15,6,29,10,44,15c15,4,31,5,46,6c41,2,81-6,122-16
        c23-6,44-12,65-21c6-3,11-4,17-7c16-7,33-13,49-23c8-5,15-8,23-13c5-3,10-6,15.1-9.3"/>
    <path class="st47" d="M493.5,739.4c-107.3-4.8-219.3,28.2-299,101.3"/>
    <path class="st47" d="M835.5,568.9c5.8,1.7,10.8,3.7,16.8,6.7c3,2,6,2,9,3c18,9,74.8,45.6,106,101c1.6,2.8,1,5,2,8c6,13,11,27,10,42
        c-2,28-18,52-43,66c-1,1-3.1,1.9-4.1,1.9c-58,26-121.9,19.1-183.9,13.1c-14-2-48-11-51-13c-15-5-29-11-44-18c-6-2-11-4-16.6-6.4"/>
    <path class="st47" d="M276,702c7.2-2.5,26.2-12.4,34.2-16.4c46-24,90-49,138-71c2-1,3,0,5-1c62-26,126-51,194-55c3-1,5-3,8.4-3"/>
    <path class="st47" d="M201.1,474.8c-0.8,0.8-2.8,1.8-3.8,1.8c-11,2-20,6-31,9c-2,0-5,0-7,1c-33,15-68,30-86,64c-2,3-2,7-3,10
        c-13,33-2,70,18.6,96.6"/>
    <path class="st47" d="M788.4,446.9c-16.8,10.3-34.4,19.4-52.1,27.8c-4,2-7,2-11,3c-44,19-90,26-138,18c-28-4-54-10-79-23
        c-15-8-29-16-40-30c-1-2-3-5-5-7c-29-44,4-97,45-118c15-7,30-11,46-9c24,3,43,16,58,36c1,1,1,3,2,4c18,19,18,49,7,72
        c-4,8-11,15-16,23c-5,6-12,9-17,15c-1,1-2,0-3,1c-42,36-98,52-152,37c-35-10-69-22-103.8-28.7"/>
    <path class="st47" d="M671.6,158c53.6,9.7,107.6,21.7,157.6,48.7c21,12,40,26,53.5,45.2"/>
    <path class="st47" d="M172.8,295.9c11.4-9.3,22.4-17.3,34.4-26.3c11-7,20-14,31-21c98-61,202-98,313.7-100.7"/>
    <path class="st47" d="M550.1,139.7c-39.8,0.3-95.9-3.9-159.1-24.5c-41.2-13.4-75.2-30.4-101.5-46.1"/>
    <radialGradient id="SVGID_10_" cx="-1120.9808" cy="5791.8013" r="129.2727" gradientTransform="matrix(0.5538 0 0 4.348000e-02 753.6798 527.6001)" gradientUnits="userSpaceOnUse">
        <stop  offset="0.1034" style="stop-color:#E0E3E2"/>
        <stop  offset="0.2677" style="stop-color:#E9EBEA"/>
        <stop  offset="0.684" style="stop-color:#F9FAFA"/>
        <stop  offset="1" style="stop-color:#FFFFFF"/>
    </radialGradient>
    <ellipse class="st30" cx="132.9" cy="779.4" rx="101.1" ry="4.7"/>
</svg>
