<!-- Generator: Adobe Illustrator 23.0.3, SVG Export Plug-In . SVG Version: 6.00 Build 0)  -->
<svg version="1.1" id="Layer_1" xmlns="http://www.w3.org/2000/svg" xmlns:xlink="http://www.w3.org/1999/xlink" x="0px" y="0px" 
     viewBox="0 0 318.6 943.9" style="enable-background:new 0 0 318.6 943.9;" xml:space="preserve">
    <style type="text/css">
        .st0{fill:none;stroke:#FFCB57;stroke-width:1.6599;stroke-miterlimit:10;}
        .st1{fill:#FFCB57;}
        .st2{opacity:0.9;fill:url(#SVGID_1_);}
        .st3{opacity:0.9;fill:url(#SVGID_2_);}
        .st4{opacity:0.9;fill:url(#SVGID_3_);}
        .st5{opacity:0.9;fill:url(#SVGID_4_);}
        .st6{opacity:0.9;fill:url(#SVGID_5_);}
        .st7{fill:#FFF9DB;}
        .st8{fill:#FFD7E9;}
        .st9{opacity:0.9;fill:url(#SVGID_6_);}
        .st10{opacity:0.9;fill:url(#SVGID_7_);}
        .st11{fill:#D8F2FF;}
        .st12{opacity:0.9;fill:url(#SVGID_8_);}
        .st13{fill:none;stroke:#FF7DB9;stroke-width:2.2533;stroke-linecap:round;stroke-linejoin:round;stroke-miterlimit:10;}
        .st14{fill:#FF7DB9;}
        .st15{fill:none;stroke:#FFCB57;stroke-width:2.2533;stroke-linecap:round;stroke-linejoin:round;stroke-miterlimit:10;}
        .st16{fill:#FFCB00;}
        .st17{fill:none;stroke:#FFCB57;stroke-width:2.2533;stroke-linejoin:round;stroke-miterlimit:10;}
        .st18{fill:none;stroke:#49C4FF;stroke-width:1.7704;stroke-linecap:round;stroke-linejoin:round;stroke-miterlimit:10;}
        .st19{fill:#49C4FF;}
        .st20{fill:none;stroke:#FF7DB9;stroke-width:2.2533;stroke-linejoin:round;stroke-miterlimit:10;}
        .st21{fill:none;stroke:#49C4FF;stroke-width:1.7335;stroke-linecap:round;stroke-linejoin:round;stroke-miterlimit:10;}
        .st22{fill:#F6F0F8;}
        .st23{fill:#333343;}
        .st24{fill:#FFFFFF;}
        .st25{fill:#3E3D51;}
        .st26{fill:none;stroke:#FFCB57;stroke-width:1.4173;stroke-miterlimit:10;}
        .st27{opacity:0.9;fill:url(#SVGID_9_);}
        .st28{fill:none;stroke:#FFCB57;stroke-width:1.6611;stroke-linecap:round;stroke-linejoin:round;stroke-miterlimit:10;}
        .st29{fill:none;stroke:#FFCB57;stroke-width:3.6085;stroke-miterlimit:10;}
        .st30{opacity:0.9;fill:url(#SVGID_10_);}
        .st31{opacity:0.9;fill:url(#SVGID_11_);}
        .st32{opacity:0.9;fill:url(#SVGID_12_);}
        .st33{opacity:0.9;fill:url(#SVGID_13_);}
        .st34{opacity:0.9;fill:url(#SVGID_14_);}
        .st35{opacity:0.9;fill:url(#SVGID_15_);}
        .st36{opacity:0.9;fill:url(#SVGID_16_);}
        .st37{fill:none;stroke:#FF7DB9;stroke-width:4.8984;stroke-linecap:round;stroke-linejoin:round;stroke-miterlimit:10;}
        .st38{fill:none;stroke:#FFCB57;stroke-width:4.8984;stroke-linecap:round;stroke-linejoin:round;stroke-miterlimit:10;}
        .st39{fill:none;stroke:#FFCB57;stroke-width:4.8984;stroke-linejoin:round;stroke-miterlimit:10;}
        .st40{fill:none;stroke:#49C4FF;stroke-width:3.8488;stroke-linecap:round;stroke-linejoin:round;stroke-miterlimit:10;}
        .st41{fill:none;stroke:#FF7DB9;stroke-width:4.8984;stroke-linejoin:round;stroke-miterlimit:10;}
        .st42{fill:none;stroke:#49C4FF;stroke-width:3.7686;stroke-linecap:round;stroke-linejoin:round;stroke-miterlimit:10;}
        .st43{fill:#32A9FE;}
        .st44{fill:none;stroke:#FFCB57;stroke-width:3.0812;stroke-miterlimit:10;}
        .st45{opacity:0.9;fill:url(#SVGID_17_);}
        .st46{fill:none;stroke:#FFCB57;stroke-width:3.6111;stroke-linecap:round;stroke-linejoin:round;stroke-miterlimit:10;}
        
            .st47{fill:none;stroke:#FF7DB9;stroke-width:2.126;stroke-linecap:round;stroke-linejoin:round;stroke-miterlimit:10;stroke-dasharray:2.9517,5.4115;}
        .st48{opacity:0.9;fill:url(#SVGID_18_);}
        .st49{opacity:0.9;fill:url(#SVGID_19_);}
        .st50{opacity:0.9;fill:url(#SVGID_20_);}
        .st51{opacity:0.9;fill:url(#SVGID_21_);}
        .st52{opacity:0.9;fill:url(#SVGID_22_);}
        .st53{opacity:0.9;fill:url(#SVGID_23_);}
        .st54{opacity:0.9;fill:url(#SVGID_24_);}
        .st55{opacity:0.9;fill:url(#SVGID_25_);}
        .st56{opacity:0.9;fill:url(#SVGID_26_);}
        .st57{opacity:0.9;fill:url(#SVGID_27_);}
        .st58{opacity:0.9;fill:url(#SVGID_28_);}
        .st59{opacity:0.9;fill:url(#SVGID_29_);}
        .st60{opacity:0.9;fill:url(#SVGID_30_);}
        
            .st61{fill:none;stroke:#FF7DB9;stroke-width:1.4759;stroke-linecap:round;stroke-linejoin:round;stroke-miterlimit:10;stroke-dasharray:2.9517,5.4115;}
        .st62{opacity:0.9;fill:url(#SVGID_31_);}
        .st63{opacity:0.9;fill:url(#SVGID_32_);}
        .st64{opacity:0.9;fill:url(#SVGID_33_);}
        .st65{opacity:0.9;fill:url(#SVGID_34_);}
        .st66{opacity:0.9;fill:url(#SVGID_35_);}
        .st67{opacity:0.9;fill:url(#SVGID_36_);}
        .st68{opacity:0.9;fill:url(#SVGID_37_);}
        .st69{opacity:0.9;fill:url(#SVGID_38_);}
        .st70{opacity:0.9;fill:url(#SVGID_39_);}
        .st71{opacity:0.9;fill:url(#SVGID_40_);}
    </style>
    <path class="st61" d="M194.3,765.7c-24.1,5.8-53.9,13.2-90.3,24.9c-25.7,8.2-52.2,17.8-66.5,42.8c-3.1,5.4-14.5,27-6.4,46.2
        c7.3,17.2,19.9,26.4,22.1,27.7c20.6,12.2,42,4.4,44.9,3.3"/>
    <path class="st61" d="M50.5,623.1c-2.4,1.7-4.5,4.1-6.7,6.5c-5.6,6-26,27.8-20.3,47.5c8.4,29.3,70.5,38.1,114.4,32.2
        c61.2-8.2,123.9-49.7,119.1-75.9c-3.3-17.7-38.3-33.3-55.5-22.5c-9.2,5.8-15.8,20.6-11.4,32.2c10,26.6,69,11.8,87.3,43.6
        c6.7,11.7,7,27.9,1.7,40.3c-5.4,12.4-16,19.4-33.3,25.3"/>
    <path class="st61" d="M217.1,555.4c-11,8.2-24.6,16.6-41.8,24.5c-19.7,9.1-36.4,14.1-51,17.5"/>
    <path class="st61" d="M115.9,426.5c36.4-24.9,87.1-6.4,96.6-3c15.6,5.7,47.1,17.1,53.8,43.6c2.8,11.1,0.5,21.7-3.2,30.7"/>
    <path class="st61" d="M256.7,344.9c-17.8,5.7-46.1,6-94.2,10.1c-78,6.6-91.7,13.4-102.6,22.9c-23.6,20.8-29.5,51.3-32.2,65.7
        c-4.2,21.8-5.2,56.1,6.4,60.2c5.7,2,11.6-5.2,23.7-14.8"/>
    <path class="st61" d="M119.5,320c35.4,5.1,55-47,109.2-46.9c5.3,0,11.4,0.5,17.6,1.7"/>
    <path class="st61" d="M230.3,220.2c-6,3-12.2,5.5-18.4,7.2c-15.3,4.2-30.3,3.8-41.8-3.6c-6.5-4.2-30.9-16.4-39.8-20.9
        c-20.3-10.4-50.9-3.6-60.6,10.2c-3.5,5-5,8.8-5.4,16.1"/>
    <path class="st61" d="M106.1,135.2c50-37.6,106.7-46.2,142.2-22c2.2,1.5,31,21.7,29.9,48.9c-0.3,6.3-1.1,10.3-4.4,16.6"/>
    <g>
        <g>
            <g>
                <path class="st43" d="M209.6,390.8v8.1h-1.9v-6.6h-3.6v6.6h-1.9v-8.1H209.6z"/>
                <path class="st43" d="M212.6,398.5c-0.5-0.3-0.9-0.7-1.2-1.1c-0.3-0.5-0.4-1-0.4-1.6c0-0.6,0.1-1.2,0.4-1.6
                    c0.3-0.5,0.7-0.9,1.2-1.1c0.5-0.3,1.1-0.4,1.8-0.4c0.7,0,1.2,0.1,1.8,0.4c0.5,0.3,0.9,0.7,1.2,1.1c0.3,0.5,0.4,1,0.4,1.6
                    c0,0.6-0.1,1.2-0.4,1.6s-0.7,0.9-1.2,1.1c-0.5,0.3-1.1,0.4-1.8,0.4S213.1,398.8,212.6,398.5z M215.5,397c0.3-0.3,0.4-0.7,0.4-1.3
                    c0-0.5-0.1-0.9-0.4-1.3c-0.3-0.3-0.7-0.5-1.1-0.5s-0.8,0.2-1.1,0.5c-0.3,0.3-0.4,0.7-0.4,1.3c0,0.5,0.2,0.9,0.4,1.3
                    c0.3,0.3,0.7,0.5,1.1,0.5C214.8,397.5,215.2,397.3,215.5,397z"/>
                <path class="st43" d="M225.3,392.6v5.2c0,1.1-0.3,2-0.9,2.5c-0.6,0.6-1.5,0.8-2.6,0.8c-0.6,0-1.2-0.1-1.7-0.2
                    c-0.5-0.1-1-0.4-1.3-0.6l0.7-1.3c0.3,0.2,0.6,0.4,1,0.5c0.4,0.1,0.8,0.2,1.2,0.2c0.6,0,1.1-0.1,1.4-0.4c0.3-0.3,0.4-0.7,0.4-1.3
                    v-0.3c-0.5,0.5-1.1,0.8-2,0.8c-0.6,0-1.1-0.1-1.6-0.4c-0.5-0.2-0.8-0.6-1.1-1.1c-0.3-0.5-0.4-1-0.4-1.6c0-0.6,0.1-1.1,0.4-1.6
                    s0.7-0.8,1.1-1.1c0.5-0.2,1-0.4,1.6-0.4c0.9,0,1.6,0.3,2.1,0.9v-0.8L225.3,392.6L225.3,392.6z M223.1,396.7
                    c0.3-0.3,0.5-0.6,0.5-1.1c0-0.5-0.2-0.8-0.5-1.1c-0.3-0.3-0.7-0.4-1.2-0.4s-0.9,0.1-1.2,0.4c-0.3,0.3-0.5,0.6-0.5,1.1
                    c0,0.5,0.2,0.8,0.5,1.1c0.3,0.3,0.7,0.4,1.2,0.4C222.4,397.1,222.8,396.9,223.1,396.7z"/>
                <path class="st43" d="M229.8,396.5h-0.9v2.4h-1.8v-8.6h1.8v4.8h1l1.7-2.4h1.9l-2.2,3l2.3,3.2h-2.1L229.8,396.5z"/>
                <path class="st43" d="M239.7,393c0.5,0.3,0.8,0.6,1.1,1.1c0.3,0.5,0.4,1,0.4,1.7c0,0.6-0.1,1.2-0.4,1.7c-0.3,0.5-0.6,0.9-1.1,1.1
                    c-0.5,0.3-1,0.4-1.6,0.4c-0.8,0-1.4-0.2-1.9-0.7v2.9h-1.8v-8.4h1.7v0.7c0.4-0.5,1.1-0.8,1.9-0.8
                    C238.7,392.6,239.2,392.7,239.7,393z M238.9,397c0.3-0.3,0.4-0.7,0.4-1.3c0-0.5-0.1-0.9-0.4-1.3c-0.3-0.3-0.7-0.5-1.1-0.5
                    s-0.8,0.2-1.1,0.5c-0.3,0.3-0.4,0.7-0.4,1.3c0,0.5,0.1,0.9,0.4,1.3c0.3,0.3,0.7,0.5,1.1,0.5S238.6,397.3,238.9,397z"/>
                <path class="st43" d="M248.4,396.3h-4.7c0.1,0.4,0.3,0.7,0.6,0.9c0.3,0.2,0.7,0.3,1.2,0.3c0.3,0,0.6,0,0.9-0.1
                    c0.2-0.1,0.5-0.2,0.7-0.5l1,1c-0.6,0.7-1.4,1-2.6,1c-0.7,0-1.3-0.1-1.9-0.4c-0.5-0.3-1-0.7-1.2-1.1c-0.3-0.5-0.4-1-0.4-1.6
                    c0-0.6,0.1-1.2,0.4-1.6s0.7-0.9,1.2-1.1c0.5-0.3,1.1-0.4,1.7-0.4c0.6,0,1.2,0.1,1.6,0.4c0.5,0.3,0.9,0.6,1.2,1.1s0.4,1.1,0.4,1.7
                    C248.5,395.8,248.5,396,248.4,396.3z M244.2,394.3c-0.3,0.2-0.4,0.5-0.5,0.9h3.1c-0.1-0.4-0.2-0.7-0.5-0.9s-0.6-0.4-1-0.4
                    C244.9,393.9,244.5,394,244.2,394.3z"/>
                <path class="st43" d="M255.5,393.2c0.5,0.5,0.7,1.1,0.7,2.1v3.6h-1.8v-3.3c0-0.5-0.1-0.9-0.3-1.1c-0.2-0.2-0.5-0.4-0.9-0.4
                    c-0.5,0-0.8,0.1-1.1,0.4c-0.3,0.3-0.4,0.7-0.4,1.3v3.1h-1.8v-6.2h1.7v0.7c0.2-0.3,0.5-0.5,0.9-0.6c0.4-0.1,0.7-0.2,1.2-0.2
                    C254.4,392.6,255,392.8,255.5,393.2z"/>
                <path class="st43" d="M263.9,392.6v6.2h-1.7v-0.7c-0.2,0.3-0.5,0.5-0.8,0.6s-0.7,0.2-1.1,0.2c-0.8,0-1.5-0.2-1.9-0.7
                    c-0.5-0.5-0.7-1.2-0.7-2.1v-3.5h1.8v3.2c0,1,0.4,1.5,1.3,1.5c0.4,0,0.8-0.1,1-0.4c0.3-0.3,0.4-0.7,0.4-1.3v-3.1H263.9
                    L263.9,392.6z"/>
                <path class="st43" d="M265.5,398.6c-0.2-0.2-0.3-0.5-0.3-0.8c0-0.3,0.1-0.6,0.3-0.8c0.2-0.2,0.5-0.3,0.8-0.3s0.6,0.1,0.8,0.3
                    c0.2,0.2,0.3,0.5,0.3,0.8c0,0.3-0.1,0.6-0.3,0.8c-0.2,0.2-0.5,0.3-0.8,0.3S265.7,398.8,265.5,398.6z"/>
                <path class="st43" d="M273.5,393.4c0.4,0.2,0.8,0.6,1,1s0.4,0.9,0.4,1.5c0,0.6-0.1,1.1-0.4,1.6c-0.3,0.5-0.7,0.8-1.2,1.1
                    s-1.1,0.4-1.8,0.4c-1.1,0-1.9-0.3-2.6-1c-0.6-0.7-0.9-1.7-0.9-3.1c0-1.2,0.3-2.2,0.8-3s1.4-1.2,2.5-1.5l3-0.6l0.2,1.5l-2.6,0.5
                    c-0.7,0.1-1.2,0.4-1.6,0.7c-0.3,0.3-0.5,0.8-0.6,1.4c0.3-0.3,0.6-0.5,1-0.7c0.4-0.2,0.8-0.2,1.2-0.2
                    C272.6,393.1,273.1,393.2,273.5,393.4z M272.7,397.1c0.3-0.3,0.4-0.7,0.4-1.1c0-0.5-0.1-0.8-0.4-1.1c-0.3-0.3-0.7-0.4-1.1-0.4
                    c-0.5,0-0.8,0.1-1.1,0.4c-0.3,0.3-0.4,0.6-0.4,1.1s0.1,0.9,0.4,1.1c0.3,0.3,0.7,0.4,1.1,0.4C272,397.6,272.4,397.4,272.7,397.1z"
                    />
                <path class="st43" d="M276.5,398.4c-0.6-0.3-0.8-0.8-0.8-1.5c0-0.4,0.1-0.8,0.4-1c0.2-0.2,0.5-0.4,0.8-0.5
                    c0.3-0.1,0.7-0.2,1.2-0.3c0.5-0.1,0.8-0.2,1-0.2c0.2-0.1,0.3-0.2,0.3-0.4c0-0.2-0.1-0.4-0.3-0.4c-0.2-0.1-0.5-0.2-0.8-0.2
                    c-0.3,0-0.7,0-1,0.1c-0.4,0.1-0.7,0.2-0.9,0.3l-0.5-1.2c0.4-0.2,0.7-0.3,1.2-0.4s0.8-0.2,1.3-0.2c0.8,0,1.5,0.2,2.1,0.5
                    c0.5,0.4,0.8,0.9,0.8,1.5c0,0.4-0.1,0.8-0.4,1c-0.2,0.2-0.5,0.4-0.8,0.5c-0.3,0.1-0.7,0.2-1.3,0.3c-0.5,0.1-0.8,0.2-1,0.2
                    c-0.2,0.1-0.3,0.2-0.3,0.4c0,0.2,0.1,0.4,0.3,0.4c0.2,0.1,0.5,0.2,0.8,0.2c0.4,0,0.8-0.1,1.2-0.2c0.4-0.1,0.8-0.2,1-0.4l0.5,1.2
                    c-0.4,0.2-0.8,0.4-1.3,0.5c-0.5,0.1-1,0.2-1.4,0.2C277.7,399,277,398.8,276.5,398.4z"/>
            </g>
        </g>
        <g>
            <g>
                <path class="st43" d="M24.7,302.3c0.3,0.4,0.5,0.9,0.5,1.4c0,0.8-0.3,1.4-0.9,1.9c-0.6,0.4-1.4,0.7-2.6,0.7h-4.3v-9.1h4.1
                    c1,0,1.8,0.2,2.4,0.6c0.6,0.4,0.9,1,0.9,1.7c0,0.5-0.1,0.9-0.3,1.2c-0.2,0.3-0.6,0.6-1,0.8C23.9,301.6,24.3,301.9,24.7,302.3z
                    M19,301h2.3c0.5,0,1-0.1,1.3-0.3c0.3-0.2,0.4-0.5,0.4-1c0-0.4-0.1-0.8-0.4-1c-0.3-0.2-0.7-0.3-1.3-0.3H19V301z M23.4,303.6
                    c0-0.9-0.6-1.3-1.8-1.3H19v2.7h2.6C22.8,304.9,23.4,304.5,23.4,303.6z"/>
                <path class="st43" d="M33.1,304.1h-4.6l-0.9,2.1h-1.7l4.1-9.1h1.7l4.1,9.1H34L33.1,304.1z M32.5,302.8l-1.7-4l-1.7,4H32.5z"/>
                <path class="st43" d="M45.1,297.1v9.1h-1.7v-7.7h-3.6l-0.1,2.3c0,1.3-0.1,2.3-0.3,3.1c-0.2,0.8-0.4,1.4-0.8,1.8
                    c-0.4,0.4-0.9,0.6-1.5,0.6c-0.2,0-0.5,0-0.9-0.1l0.1-1.5c0.1,0,0.2,0.1,0.4,0.1c0.5,0,0.9-0.3,1.1-0.9s0.4-1.6,0.4-3l0.1-3.8
                    H45.1z"/>
                <path class="st43" d="M47.6,297.1h1.7v6.5l4.9-6.5h1.6v9.1h-1.7v-6.5l-4.9,6.5h-1.6V297.1z"/>
                <path class="st43" d="M67.3,304.8v3.4h-1.6v-1.9h-7v1.9h-1.6l0-3.4h0.4c0.6,0,1-0.5,1.2-1.3c0.2-0.8,0.4-2,0.4-3.5l0.1-2.9H66
                    v7.7H67.3z M60.4,303.1c-0.1,0.8-0.4,1.4-0.7,1.7h4.6v-6.3h-3.6l-0.1,1.6C60.7,301.3,60.6,302.3,60.4,303.1z"/>
                <path class="st43" d="M68.9,297.1h1.7v6.5l4.9-6.5h1.6v9.1h-1.7v-6.5l-4.9,6.5h-1.6V297.1z"/>
                <path class="st43" d="M85.5,297.5c0.6,0.3,1,0.6,1.4,1.1c0.3,0.5,0.5,1.1,0.5,1.7c0,0.7-0.2,1.2-0.5,1.7
                    c-0.3,0.5-0.8,0.9-1.4,1.1s-1.3,0.4-2.1,0.4h-2.1v2.6h-1.7v-9.1h3.8C84.2,297.1,84.9,297.2,85.5,297.5z M85,301.7
                    c0.4-0.3,0.6-0.8,0.6-1.3c0-0.6-0.2-1-0.6-1.3c-0.4-0.3-0.9-0.5-1.7-0.5h-2v3.6h2C84.1,302.1,84.7,302,85,301.7z"/>
                <path class="st43" d="M94.5,304.1H90l-0.9,2.1h-1.7l4.1-9.1h1.7l4.1,9.1h-1.8L94.5,304.1z M94,302.8l-1.7-4l-1.7,4H94z"/>
                <path class="st43" d="M106.7,297.1v9.1H105v-3.9h-4.7v3.9h-1.7v-9.1h1.7v3.8h4.7v-3.8H106.7z"/>
                <path class="st43" d="M116.2,304.8v1.4h-6.9v-9.1h6.7v1.4h-5v2.4h4.4v1.4H111v2.5H116.2z"/>
                <path class="st43" d="M18.2,318.6c-0.5-0.3-1-0.7-1.3-1.2c-0.3-0.5-0.5-1.1-0.5-1.7c0-0.6,0.2-1.2,0.5-1.7
                    c0.3-0.5,0.7-0.9,1.3-1.2c0.5-0.3,1.1-0.4,1.8-0.4c0.7,0,1.3,0.1,1.8,0.4c0.5,0.3,1,0.7,1.3,1.2c0.3,0.5,0.5,1.1,0.5,1.7
                    c0,0.6-0.2,1.2-0.5,1.7c-0.3,0.5-0.7,0.9-1.3,1.2c-0.5,0.3-1.1,0.4-1.8,0.4C19.3,319,18.7,318.9,18.2,318.6z M21.1,317.7
                    c0.3-0.2,0.6-0.5,0.8-0.8c0.2-0.4,0.3-0.7,0.3-1.2c0-0.4-0.1-0.8-0.3-1.2c-0.2-0.4-0.5-0.6-0.8-0.8c-0.3-0.2-0.7-0.3-1.2-0.3
                    c-0.4,0-0.8,0.1-1.2,0.3c-0.3,0.2-0.6,0.5-0.8,0.8c-0.2,0.4-0.3,0.7-0.3,1.2c0,0.4,0.1,0.8,0.3,1.2c0.2,0.4,0.5,0.6,0.8,0.8
                    c0.3,0.2,0.7,0.3,1.2,0.3C20.4,318,20.8,317.9,21.1,317.7z"/>
                <path class="st43" d="M29.5,313.4h-2.2v5.5h-1.2v-5.5H24v-1h5.5V313.4z"/>
            </g>
            <g>
                <g>
                    <g>
                        <path class="st1" d="M77,261.3H65.4c-0.5,0-0.9-0.4-0.9-0.9s0.4-0.9,0.9-0.9H77c0.5,0,0.9,0.4,0.9,0.9S77.5,261.3,77,261.3z"/>
                    </g>
                </g>
                <g>
                    <g>
                        <path class="st1" d="M77,276.4h-4.2c-0.5,0-0.9-0.4-0.9-0.9c0-0.5,0.4-0.9,0.9-0.9H77c0.5,0,0.9,0.4,0.9,0.9
                            C77.9,276.1,77.5,276.4,77,276.4z"/>
                    </g>
                </g>
                <g>
                    <g>
                        <path class="st1" d="M76.9,265.2H67c-0.5,0-0.9-0.4-0.9-0.9c0-0.5,0.4-0.9,0.9-0.9h9.9c0.5,0,0.9,0.4,0.9,0.9
                            C77.8,264.8,77.4,265.2,76.9,265.2z"/>
                    </g>
                </g>
                <g>
                    <g>
                        <path class="st1" d="M77,268.9H65.4c-0.5,0-0.9-0.4-0.9-0.9c0-0.5,0.4-0.9,0.9-0.9H77c0.5,0,0.9,0.4,0.9,0.9
                            C77.9,268.5,77.5,268.9,77,268.9z"/>
                    </g>
                </g>
                <path class="st1" d="M82,254c0-0.3-0.1-0.5-0.3-0.7l-10.2-10.2c0,0,0,0,0,0c-0.1-0.1-0.1-0.1-0.2-0.1c0,0,0,0-0.1,0
                    c-0.1,0-0.1-0.1-0.2-0.1c0,0,0,0,0,0c-0.1,0-0.1,0-0.2,0H50.9c-0.5,0-0.9,0.4-0.9,0.9v8.7c0.3,0,0.7,0,1,0c0.2,0,0.5,0,0.7,0
                    v-7.9H70v9.4c0,0.5,0.4,0.9,0.9,0.9h9.4v27.4H51.8v-7.9c-0.2,0-0.5,0-0.7,0c-0.3,0-0.7,0-1,0v8.7c0,0.5,0.4,0.9,0.9,0.9h30.2
                    c0.5,0,0.9-0.4,0.9-0.9v-29C82,254.1,82,254,82,254z M71.7,253.1v-7.3l7.3,7.3H71.7z"/>
                <g>
                    <path class="st1" d="M49.6,268.2c-0.2,0-0.4-0.1-0.6-0.2l-3.8-3.4c-0.4-0.3-0.4-0.9-0.1-1.2c0.3-0.4,0.9-0.4,1.2-0.1l3.2,2.8
                        l6.1-7.2c0.3-0.4,0.9-0.4,1.2-0.1c0.4,0.3,0.4,0.9,0.1,1.2l-6.7,7.9C50.1,268.1,49.9,268.2,49.6,268.2
                        C49.7,268.2,49.6,268.2,49.6,268.2z"/>
                </g>
                <g>
                    <path class="st1" d="M51,275.3c-0.3,0-0.7,0-1.1,0c-6.2-0.5-10.8-5.6-10.8-11.8s4.6-11.3,10.8-11.8c0.7-0.1,1.3-0.1,1.9,0
                        c6.2,0.4,11,5.6,11,11.8c0,6.2-4.9,11.4-11.1,11.8C51.6,275.3,51.3,275.3,51,275.3z M51,253.3c-0.3,0-0.6,0-0.9,0
                        c-5.3,0.5-9.2,4.8-9.2,10.1c0,5.3,4,9.6,9.2,10.1c0.6,0.1,1.1,0.1,1.6,0c5.3-0.4,9.5-4.8,9.5-10.1c0-5.3-4.1-9.7-9.4-10.1
                        C51.5,253.3,51.2,253.3,51,253.3z"/>
                </g>
            </g>
            
                <radialGradient id="SVGID_1_" cx="-1793.5508" cy="4794.6904" r="59.465" gradientTransform="matrix(0.5538 0 0 4.348000e-02 1059.4963 79.5567)" gradientUnits="userSpaceOnUse">
                <stop  offset="0.1034" style="stop-color:#E0E3E2"/>
                <stop  offset="0.2677" style="stop-color:#E9EBEA"/>
                <stop  offset="0.684" style="stop-color:#F9FAFA"/>
                <stop  offset="1" style="stop-color:#FFFFFF"/>
            </radialGradient>
            <ellipse class="st2" cx="66.2" cy="288" rx="46.5" ry="2.2"/>
        </g>
    </g>
    <g>
        <g>
            <path class="st43" d="M216.4,201.2c-0.7-0.4-1.3-1-1.7-1.7c-0.4-0.7-0.6-1.5-0.6-2.4c0-0.9,0.2-1.7,0.6-2.4c0.4-0.7,1-1.3,1.8-1.7
                c0.7-0.4,1.6-0.6,2.5-0.6c0.7,0,1.4,0.1,2.1,0.4c0.6,0.3,1.1,0.6,1.6,1.1l-1.1,1c-0.7-0.7-1.5-1.1-2.4-1.1c-0.6,0-1.2,0.1-1.7,0.4
                c-0.5,0.3-0.9,0.7-1.2,1.1c-0.3,0.5-0.4,1-0.4,1.7s0.1,1.2,0.4,1.7c0.3,0.5,0.7,0.9,1.2,1.1s1.1,0.4,1.7,0.4c1,0,1.8-0.4,2.4-1.1
                l1.1,1c-0.4,0.5-1,0.9-1.6,1.1c-0.6,0.3-1.3,0.4-2.1,0.4C218,201.8,217.2,201.6,216.4,201.2z"/>
            <path class="st43" d="M232.4,196.4c0.6,0.5,0.9,1.2,0.9,2.2c0,1-0.3,1.8-1,2.3c-0.6,0.5-1.6,0.8-2.7,0.8h-3.9V194h-2.7v-1.4h4.3
                v3.1h2.5C230.9,195.6,231.8,195.9,232.4,196.4z M231,199.9c0.4-0.3,0.5-0.7,0.5-1.3c0-1.1-0.7-1.7-2.1-1.7h-2.2v3.4h2.2
                C230.1,200.4,230.6,200.2,231,199.9z"/>
            <path class="st43" d="M240.8,197.7c0.3,0.4,0.5,0.8,0.5,1.4c0,0.5-0.2,1-0.5,1.4c-0.4,0.4-0.8,0.7-1.4,0.9c-0.6,0.2-1.2,0.3-2,0.3
                c-0.6,0-1.2-0.1-1.8-0.3c-0.6-0.2-1.2-0.4-1.7-0.8l0.5-1.2c0.4,0.3,0.8,0.5,1.3,0.6c0.5,0.1,1,0.2,1.4,0.2c0.7,0,1.3-0.1,1.7-0.4
                c0.5-0.3,0.7-0.6,0.7-1.1c0-0.4-0.2-0.7-0.5-0.9c-0.3-0.2-0.8-0.3-1.4-0.3h-2.1v-1.3h2c0.5,0,0.9-0.1,1.2-0.3
                c0.3-0.2,0.4-0.5,0.4-0.8c0-0.4-0.2-0.8-0.6-1c-0.4-0.2-0.9-0.4-1.5-0.4c-0.4,0-0.8,0.1-1.3,0.2c-0.4,0.1-0.8,0.3-1.2,0.5
                l-0.5-1.4c0.5-0.3,1-0.4,1.5-0.6c0.5-0.1,1.1-0.2,1.6-0.2c0.7,0,1.3,0.1,1.9,0.3c0.6,0.2,1,0.5,1.4,0.9c0.3,0.4,0.5,0.8,0.5,1.4
                c0,0.5-0.1,0.8-0.4,1.2c-0.2,0.3-0.6,0.6-1,0.8C240.1,197.1,240.5,197.4,240.8,197.7z"/>
            <path class="st43" d="M252.2,200.2v3.4h-1.6v-1.9h-7v1.9h-1.6l0-3.4h0.4c0.6,0,1-0.5,1.2-1.3c0.2-0.8,0.4-2,0.4-3.5l0.1-2.9h6.7
                v7.7H252.2z M245.3,198.5c-0.1,0.8-0.4,1.4-0.7,1.7h4.6V194h-3.6l-0.1,1.6C245.6,196.8,245.5,197.8,245.3,198.5z"/>
            <path class="st43" d="M260,199.6h-4.6l-0.9,2.1h-1.7l4.1-9.1h1.7l4.1,9.1h-1.8L260,199.6z M259.4,198.2l-1.7-4l-1.7,4H259.4z"/>
            <path class="st43" d="M264.1,192.5h1.7v6.5l4.9-6.5h1.6v9.1h-1.7v-6.5l-4.9,6.5h-1.6V192.5z M266.3,191.4
                c-0.4-0.3-0.6-0.8-0.6-1.4h1.2c0,0.3,0.1,0.6,0.3,0.7c0.2,0.2,0.5,0.3,0.9,0.3c0.4,0,0.7-0.1,0.9-0.3c0.2-0.2,0.3-0.4,0.3-0.7h1.2
                c0,0.6-0.2,1.1-0.6,1.4c-0.4,0.3-1,0.5-1.8,0.5C267.3,191.9,266.7,191.8,266.3,191.4z"/>
            <path class="st43" d="M216.8,210.1h-1.2v2.8h-1.2v-6.5h1.2v2.7h1.3l1.9-2.7h1.3l-2.2,3.2l2.3,3.4h-1.4L216.8,210.1z"/>
            <path class="st43" d="M225.1,211.4h-3.3l-0.6,1.5H220l2.9-6.5h1.2l3,6.5h-1.3L225.1,211.4z M224.7,210.4l-1.2-2.9l-1.2,2.9H224.7z
                "/>
            <path class="st43" d="M234.1,212.9l0-4.3l-2.2,3.6h-0.5l-2.2-3.5v4.3h-1.2v-6.5h1l2.6,4.3l2.6-4.3h1l0,6.5H234.1z"/>
            <path class="st43" d="M242.9,206.3v6.5h-1.2v-5.5h-3.4v5.5h-1.2v-6.5H242.9z"/>
            <path class="st43" d="M249.1,211.4h-3.3l-0.6,1.5h-1.3l2.9-6.5h1.2l3,6.5h-1.3L249.1,211.4z M248.7,210.4l-1.2-2.9l-1.2,2.9H248.7
                z"/>
            <path class="st43" d="M257.8,206.3v6.5h-1.2v-2.8h-3.4v2.8H252v-6.5h1.2v2.7h3.4v-2.7H257.8z"/>
            <path class="st43" d="M259.7,206.3h1.2v4.7l3.5-4.7h1.1v6.5h-1.2v-4.6l-3.5,4.6h-1.1V206.3z"/>
            <path class="st43" d="M272.3,206.3v6.5h-1.2v-1.8h-1.6h-0.1l-1.2,1.8h-1.3l1.4-2c-0.5-0.2-0.8-0.4-1.1-0.8
                c-0.2-0.4-0.4-0.8-0.4-1.3c0-0.5,0.1-0.9,0.3-1.3c0.2-0.4,0.5-0.6,1-0.8c0.4-0.2,0.9-0.3,1.5-0.3H272.3z M268.5,207.7
                c-0.3,0.2-0.4,0.6-0.4,1c0,0.4,0.1,0.8,0.4,1c0.3,0.2,0.6,0.4,1.1,0.4h1.5v-2.7h-1.5C269.2,207.4,268.8,207.5,268.5,207.7z"/>
        </g>
        <g>
            <g>
                <g>
                    <path class="st1" d="M239.6,143.9L239.6,143.9L239.6,143.9 M239.8,146.8c1,1.7,2,4.4,1.7,7.5c-0.3,3.1-2.1,5.5-4.2,6.9
                        C239.3,157.2,240,152.9,239.8,146.8 M238.5,143.1c-0.3,0-0.5,0.3-0.5,0.9c0.7,9-0.2,14.2-4.3,19.9c4.5,0,9-4.2,9.5-9.5
                        C243.7,148.3,239.8,143.1,238.5,143.1L238.5,143.1z"/>
                </g>
                <g>
                    <g>
                        <path class="st1" d="M249.1,143.9L249.1,143.9L249.1,143.9 M249.2,147c0.5,1,1,2.2,1.3,3.6c0.6,2.8,0.9,8.3-3.8,14.2
                            c-0.5,0.6-0.5,1.4,0,2c0.3,0.4,0.8,0.7,1.3,0.7c0.2,0,0.4,0,0.6-0.1c0.2-0.1,4.6-1.9,8-7.1c-0.1,0.8-0.3,1.8-0.6,2.8
                            c-1,3.2-3.4,7.7-9.1,10.7c-0.7,0.4-1,1.2-0.8,1.9c0.2,0.7,0.9,1.2,1.6,1.2c0.1,0,0.1,0,0.2,0c0.1,0,2.7-0.3,5.6-1.5
                            c-2,2.1-5,4.4-9,5.2c-1.2,0.2-2.4,0.4-3.6,0.4c-5.8,0-10.7-2.6-13.1-6.9c-1.2-2.1-1.4-4.4-1.6-6.6c-0.3-2.9-0.7-6.1-3.3-8.4
                            c0.6-0.4,1.2-0.5,1.7-0.5c0.8,0,1.7,0.3,2.3,0.9c1.1,1.1,1.4,2.2,1.7,3.3c0.4,1.3,0.8,3,2.6,4c0.9,0.5,2,0.8,3.2,0.8
                            c3.3,0,7.2-2,9.7-5.1C247.1,158.4,249,152.9,249.2,147 M258.2,157.2L258.2,157.2L258.2,157.2 M247.9,143.2
                            c-0.3,0-0.5,0.3-0.4,0.9c0.6,7.4-1.7,13.5-4.9,17.3c-2.1,2.5-5.6,4.5-8.5,4.5c-0.9,0-1.7-0.2-2.4-0.6c-2.4-1.3-1.1-4.3-3.9-7
                            c-0.9-0.9-2.2-1.4-3.5-1.4c-1.5,0-3.1,0.7-4.2,2.4c5.9,3.3,2.8,9.7,6.1,15.6c3,5.5,9,7.8,14.6,7.8c1.4,0,2.7-0.1,3.9-0.4
                            c9-1.8,14.1-10.8,12.4-10.8c-0.2,0-0.6,0.2-1.1,0.6c-3.7,2.8-8.3,3.3-8.3,3.3c12-6.3,11.5-19.3,9.7-19.3
                            c-0.2,0-0.5,0.3-0.8,0.8c-3.1,6.8-8.6,9-8.6,9c4.5-5.6,5.1-11.3,4.1-15.5C251.2,146,248.9,143.2,247.9,143.2L247.9,143.2z"/>
                    </g>
                </g>
            </g>
        </g>
        
            <radialGradient id="SVGID_2_" cx="-1477.8744" cy="4562.6836" r="59.465" gradientTransform="matrix(0.5538 0 0 4.348000e-02 1059.4963 -11.232)" gradientUnits="userSpaceOnUse">
            <stop  offset="0.1034" style="stop-color:#E0E3E2"/>
            <stop  offset="0.2677" style="stop-color:#E9EBEA"/>
            <stop  offset="0.684" style="stop-color:#F9FAFA"/>
            <stop  offset="1" style="stop-color:#FFFFFF"/>
        </radialGradient>
        <ellipse class="st3" cx="241" cy="187.2" rx="46.5" ry="2.2"/>
    </g>
    <g>
        <g>
            <g>
                <path class="st43" d="M212.2,571.9c-0.5-0.3-1-0.7-1.3-1.2c-0.3-0.5-0.5-1.1-0.5-1.7s0.2-1.2,0.5-1.7c0.3-0.5,0.7-0.9,1.3-1.2
                    s1.1-0.4,1.8-0.4c0.5,0,1,0.1,1.5,0.3c0.4,0.2,0.8,0.5,1.1,0.8l-0.8,0.7c-0.5-0.5-1.1-0.8-1.7-0.8c-0.4,0-0.9,0.1-1.2,0.3
                    c-0.4,0.2-0.6,0.5-0.8,0.8c-0.2,0.3-0.3,0.7-0.3,1.2s0.1,0.8,0.3,1.2c0.2,0.3,0.5,0.6,0.8,0.8c0.4,0.2,0.8,0.3,1.2,0.3
                    c0.7,0,1.3-0.3,1.7-0.8l0.8,0.7c-0.3,0.4-0.7,0.6-1.1,0.8c-0.4,0.2-0.9,0.3-1.5,0.3C213.3,572.3,212.7,572.2,212.2,571.9z"/>
                <path class="st43" d="M224.2,568.4c0.4,0.4,0.6,0.9,0.6,1.6c0,0.7-0.2,1.3-0.7,1.7c-0.5,0.4-1.1,0.6-2,0.6h-2.8v-5.5h-1.9v-1h3.1
                    v2.2h1.8C223.2,567.9,223.8,568.1,224.2,568.4z M223.2,571c0.3-0.2,0.4-0.5,0.4-1c0-0.8-0.5-1.2-1.5-1.2h-1.6v2.5h1.6
                    C222.6,571.3,223,571.2,223.2,571z"/>
                <path class="st43" d="M226.6,565.7h5.1v1h-3.9v1.6h1.9c0.8,0,1.4,0.2,1.8,0.5c0.4,0.3,0.6,0.8,0.6,1.4c0,0.6-0.2,1.1-0.7,1.5
                    s-1.1,0.5-1.9,0.5h-2.9V565.7z M229.5,571.3c0.5,0,0.8-0.1,1.1-0.3c0.2-0.2,0.4-0.4,0.4-0.8c0-0.7-0.5-1-1.4-1h-1.7v2.1H229.5z"
                    />
                <path class="st43" d="M234.1,565.7h1.2v4.6l3.5-4.6h1.1v6.5h-1.2v-4.6l-3.5,4.6h-1.1V565.7z"/>
                <path class="st43" d="M246.5,566c0.4,0.2,0.7,0.5,1,0.8c0.2,0.3,0.3,0.8,0.3,1.2c0,0.5-0.1,0.9-0.3,1.2c-0.2,0.4-0.5,0.6-1,0.8
                    c-0.4,0.2-0.9,0.3-1.5,0.3h-1.5v1.9h-1.2v-6.5h2.7C245.6,565.7,246.1,565.8,246.5,566z M246.1,569c0.3-0.2,0.4-0.5,0.4-1
                    c0-0.4-0.1-0.7-0.4-1c-0.3-0.2-0.7-0.3-1.2-0.3h-1.4v2.6h1.4C245.5,569.3,245.9,569.2,246.1,569z"/>
                <path class="st43" d="M255.3,565.7v6.5h-1.2v-2.8h-3.4v2.8h-1.2v-6.5h1.2v2.7h3.4v-2.7H255.3z"/>
                <path class="st43" d="M262.6,571.2v1h-4.9v-6.5h4.8v1h-3.6v1.7h3.2v1h-3.2v1.8H262.6z"/>
                <path class="st43" d="M273.5,565.7v6.5h-1.2v-2.8h-3.4v2.8h-1.2v-6.5h1.2v2.7h3.4v-2.7H273.5z"/>
                <path class="st43" d="M280.2,570.7H277l-0.6,1.5h-1.3l2.9-6.5h1.2l3,6.5h-1.3L280.2,570.7z M279.8,569.7l-1.2-2.9l-1.2,2.9H279.8
                    z"/>
                <path class="st43" d="M213.1,584.5c-0.7-0.4-1.3-1-1.7-1.7c-0.4-0.7-0.6-1.5-0.6-2.4c0-0.9,0.2-1.7,0.6-2.4
                    c0.4-0.7,1-1.3,1.8-1.7c0.7-0.4,1.6-0.6,2.5-0.6c0.7,0,1.4,0.1,2.1,0.4c0.6,0.3,1.1,0.6,1.6,1.1l-1.1,1c-0.7-0.7-1.5-1.1-2.4-1.1
                    c-0.6,0-1.2,0.1-1.7,0.4c-0.5,0.3-0.9,0.7-1.2,1.1c-0.3,0.5-0.4,1-0.4,1.7c0,0.6,0.1,1.2,0.4,1.7c0.3,0.5,0.7,0.9,1.2,1.1
                    c0.5,0.3,1.1,0.4,1.7,0.4c1,0,1.8-0.4,2.4-1.1l1.1,1c-0.4,0.5-1,0.9-1.6,1.1c-0.6,0.3-1.3,0.4-2.1,0.4
                    C214.6,585.1,213.8,584.9,213.1,584.5z"/>
                <path class="st43" d="M226.6,576.2c0.6,0.3,1,0.6,1.4,1.1c0.3,0.5,0.5,1.1,0.5,1.7c0,0.7-0.2,1.2-0.5,1.7
                    c-0.3,0.5-0.8,0.9-1.4,1.1c-0.6,0.3-1.3,0.4-2.1,0.4h-2.1v2.6h-1.7v-9.1h3.8C225.3,575.8,226,575.9,226.6,576.2z M226.1,580.4
                    c0.4-0.3,0.6-0.8,0.6-1.3c0-0.6-0.2-1-0.6-1.3c-0.4-0.3-0.9-0.5-1.7-0.5h-2v3.6h2C225.2,580.9,225.8,580.7,226.1,580.4z"/>
                <path class="st43" d="M236.9,583.5v1.4H230v-9.1h6.7v1.4h-5v2.4h4.4v1.4h-4.4v2.5H236.9z"/>
                <path class="st43" d="M247.8,583.5v3.4h-1.6v-1.9h-7v1.9h-1.6l0-3.4h0.4c0.6,0,1-0.5,1.2-1.3c0.2-0.8,0.4-2,0.4-3.5l0.1-2.9h6.7
                    v7.7H247.8z M240.9,581.8c-0.1,0.8-0.4,1.4-0.7,1.7h4.6v-6.3h-3.6l-0.1,1.6C241.2,580,241.1,581,240.9,581.8z"/>
                <path class="st43" d="M251.1,584.5c-0.7-0.4-1.3-1-1.7-1.7c-0.4-0.7-0.6-1.5-0.6-2.4c0-0.9,0.2-1.7,0.6-2.4
                    c0.4-0.7,1-1.3,1.8-1.7c0.7-0.4,1.6-0.6,2.5-0.6c0.7,0,1.4,0.1,2.1,0.4c0.6,0.3,1.1,0.6,1.6,1.1l-1.1,1c-0.7-0.7-1.5-1.1-2.4-1.1
                    c-0.6,0-1.2,0.1-1.7,0.4c-0.5,0.3-0.9,0.7-1.2,1.1c-0.3,0.5-0.4,1-0.4,1.7c0,0.6,0.1,1.2,0.4,1.7c0.3,0.5,0.7,0.9,1.2,1.1
                    c0.5,0.3,1.1,0.4,1.7,0.4c1,0,1.8-0.4,2.4-1.1l1.1,1c-0.4,0.5-1,0.9-1.6,1.1c-0.6,0.3-1.3,0.4-2.1,0.4
                    C252.7,585.1,251.9,584.9,251.1,584.5z"/>
                <path class="st43" d="M265.4,577.2h-3v7.7h-1.7v-7.7h-3v-1.4h7.7V577.2z"/>
                <path class="st43" d="M274.2,581c0.3,0.4,0.5,0.9,0.5,1.4c0,0.8-0.3,1.4-0.9,1.9c-0.6,0.4-1.4,0.7-2.6,0.7h-4.3v-9.1h4.1
                    c1,0,1.8,0.2,2.4,0.6c0.6,0.4,0.9,1,0.9,1.7c0,0.5-0.1,0.9-0.3,1.2c-0.2,0.3-0.6,0.6-1,0.8C273.4,580.3,273.9,580.6,274.2,581z
                    M268.5,579.7h2.3c0.5,0,1-0.1,1.3-0.3c0.3-0.2,0.4-0.5,0.4-1c0-0.4-0.1-0.8-0.4-1c-0.3-0.2-0.7-0.3-1.3-0.3h-2.3V579.7z
                    M272.9,582.3c0-0.9-0.6-1.3-1.8-1.3h-2.6v2.7h2.6C272.3,583.6,272.9,583.2,272.9,582.3z"/>
                <path class="st43" d="M282.6,582.8h-4.6l-0.9,2.1h-1.7l4.1-9.1h1.7l4.1,9.1h-1.8L282.6,582.8z M282.1,581.5l-1.7-4l-1.7,4H282.1z
                    "/>
                <path class="st43" d="M212.2,595.8c-0.5-0.3-1-0.7-1.3-1.2c-0.3-0.5-0.5-1.1-0.5-1.7s0.2-1.2,0.5-1.7c0.3-0.5,0.7-0.9,1.3-1.2
                    c0.5-0.3,1.1-0.4,1.8-0.4c0.7,0,1.3,0.1,1.8,0.4c0.5,0.3,1,0.7,1.3,1.2c0.3,0.5,0.5,1.1,0.5,1.7c0,0.6-0.2,1.2-0.5,1.7
                    c-0.3,0.5-0.7,0.9-1.3,1.2c-0.5,0.3-1.1,0.4-1.8,0.4C213.4,596.3,212.8,596.1,212.2,595.8z M215.2,594.9c0.3-0.2,0.6-0.5,0.8-0.8
                    c0.2-0.4,0.3-0.7,0.3-1.2c0-0.4-0.1-0.8-0.3-1.2c-0.2-0.4-0.5-0.6-0.8-0.8c-0.3-0.2-0.7-0.3-1.2-0.3c-0.4,0-0.8,0.1-1.2,0.3
                    c-0.3,0.2-0.6,0.5-0.8,0.8c-0.2,0.4-0.3,0.7-0.3,1.2c0,0.4,0.1,0.8,0.3,1.2c0.2,0.4,0.5,0.6,0.8,0.8c0.3,0.2,0.7,0.3,1.2,0.3
                    C214.5,595.2,214.8,595.1,215.2,594.9z"/>
                <path class="st43" d="M223.7,590.6h-2.2v5.5h-1.2v-5.5h-2.2v-1h5.5V590.6z"/>
                <path class="st43" d="M234.2,595.1v2.4h-1.1v-1.4h-5v1.4H227l0-2.4h0.3c0.4,0,0.7-0.3,0.9-0.9c0.2-0.6,0.3-1.4,0.3-2.5l0.1-2.1
                    h4.8v5.5H234.2z M229.3,593.9c-0.1,0.6-0.3,1-0.5,1.2h3.3v-4.5h-2.6l0,1.2C229.5,592.7,229.4,593.4,229.3,593.9z"/>
                <path class="st43" d="M240,594.6h-3.3l-0.6,1.5h-1.3l2.9-6.5h1.2l3,6.5h-1.3L240,594.6z M239.6,593.7l-1.2-2.9l-1.2,2.9H239.6z"
                    />
                <path class="st43" d="M247.2,589.9c0.4,0.2,0.7,0.5,1,0.8c0.2,0.3,0.3,0.8,0.3,1.2c0,0.5-0.1,0.9-0.3,1.2c-0.2,0.4-0.5,0.6-1,0.8
                    c-0.4,0.2-0.9,0.3-1.5,0.3h-1.5v1.9h-1.2v-6.5h2.7C246.3,589.6,246.8,589.7,247.2,589.9z M246.9,592.9c0.3-0.2,0.4-0.5,0.4-1
                    c0-0.4-0.1-0.7-0.4-1c-0.3-0.2-0.7-0.3-1.2-0.3h-1.4v2.6h1.4C246.2,593.2,246.6,593.1,246.9,592.9z"/>
                <path class="st43" d="M249.9,589.6h1.2v4.6l3.5-4.6h1.1v6.5h-1.2v-4.6l-3.5,4.6h-1.1V589.6z"/>
                <path class="st43" d="M262.5,590.6h-2.2v5.5h-1.2v-5.5H257v-1h5.5V590.6z"/>
                <path class="st43" d="M268.7,595.1v1h-4.9v-6.5h4.8v1H265v1.7h3.2v1H265v1.8H268.7z"/>
                <path class="st43" d="M275.8,589.6v6.5h-1.2v-5.5H272l-0.1,1.6c0,0.9-0.1,1.7-0.2,2.2c-0.1,0.6-0.3,1-0.6,1.3
                    c-0.3,0.3-0.6,0.4-1.1,0.4c-0.2,0-0.4,0-0.7-0.1l0.1-1.1c0.1,0,0.2,0,0.3,0c0.4,0,0.7-0.2,0.8-0.7c0.2-0.5,0.3-1.2,0.3-2.1
                    l0.1-2.7H275.8z"/>
                <path class="st43" d="M277.8,589.6h1.2v4.6l3.5-4.6h1.1v6.5h-1.2v-4.6l-3.5,4.6h-1.1V589.6z"/>
            </g>
        </g>
        <g>
            <path class="st1" d="M246.4,537.1c2.2-1.5,3.7-4,3.7-6.8c0-4.5-3.7-8.2-8.2-8.2s-8.2,3.7-8.2,8.2c0,2.8,1.5,5.3,3.7,6.8
                c-5,1.8-8.6,6.6-8.6,12.3h2.2c0-6,4.9-10.9,10.9-10.9s10.9,4.9,10.9,10.9h2.2C255,543.7,251.4,538.9,246.4,537.1z M241.9,536.3
                c-3.3,0-6-2.7-6-6s2.7-6,6-6c3.3,0,6,2.7,6,6S245.2,536.3,241.9,536.3z"/>
            <path class="st1" d="M257.3,531.6c2.2-1.5,3.7-4,3.7-6.8c0-4.5-3.7-8.2-8.2-8.2c-2.2,0-4.2,0.9-5.6,2.3c-0.5,0.5-1,1.1-1.4,1.8
                c0.7,0.3,1.3,0.6,1.9,1c0.4-0.6,0.9-1.2,1.5-1.6c1-0.8,2.3-1.2,3.6-1.2c3.3,0,6,2.7,6,6c0,2.7-1.9,5.1-4.4,5.8
                c-0.5,0.1-1.1,0.2-1.6,0.2c-0.2,0-0.4,0-0.6,0c0,0.8-0.2,1.5-0.4,2.3c0.3,0,0.6-0.1,0.9-0.1c0.4,0,0.9,0,1.3,0.1
                c5.4,0.6,9.6,5.2,9.6,10.8h2.2C265.9,538.3,262.3,533.5,257.3,531.6z"/>
            <path class="st1" d="M231,533c0.3,0,0.6,0,0.9,0.1c-0.2-0.7-0.3-1.5-0.4-2.3c-0.2,0-0.4,0-0.6,0c-0.6,0-1.1-0.1-1.6-0.2
                c-2.5-0.7-4.4-3-4.4-5.8c0-3.3,2.7-6,6-6c1.4,0,2.6,0.5,3.6,1.2c0.6,0.4,1.1,1,1.5,1.6c0.6-0.4,1.2-0.7,1.9-1
                c-0.4-0.7-0.9-1.2-1.4-1.8c-1.5-1.4-3.5-2.3-5.6-2.3c-4.5,0-8.2,3.7-8.2,8.2c0,2.8,1.5,5.3,3.7,6.8c-5,1.8-8.6,6.6-8.6,12.3h2.2
                c0-5.6,4.2-10.2,9.6-10.8C230.1,533,230.5,533,231,533z"/>
            <path class="st1" d="M264.9,524c2.2-1.5,3.7-4,3.7-6.8c0-4.5-3.7-8.2-8.2-8.2c-2.2,0-4.2,0.9-5.6,2.3c-0.5,0.5-1,1.1-1.4,1.8
                c0.7,0.3,1.3,0.6,1.9,1c0.4-0.6,0.9-1.2,1.5-1.6c1-0.8,2.3-1.2,3.6-1.2c3.3,0,6,2.7,6,6c0,2.4-1.4,4.5-3.5,5.4
                c0.1,0.5,0.1,1,0.1,1.6c0,0.5-0.1,1-0.1,1.5c4.8,1.1,8.4,5.4,8.4,10.6h2.2C273.5,530.6,269.9,525.8,264.9,524z"/>
            <path class="st1" d="M220.7,524.2c0-0.5,0.1-1.1,0.1-1.6c-2.1-0.9-3.5-3-3.5-5.4c0-3.3,2.7-6,6-6c1.4,0,2.6,0.5,3.6,1.2
                c0.6,0.4,1.1,1,1.5,1.6c0.6-0.4,1.2-0.7,1.9-1c-0.4-0.7-0.9-1.2-1.4-1.8c-1.5-1.4-3.5-2.3-5.6-2.3c-4.5,0-8.2,3.7-8.2,8.2
                c0,2.8,1.5,5.3,3.7,6.8c-5,1.8-8.6,6.6-8.6,12.3h2.2c0-5.1,3.6-9.5,8.4-10.6C220.7,525.2,220.7,524.7,220.7,524.2z"/>
            <path class="st1" d="M241.9,511.2c2.9,0,5.3,2.1,5.9,4.9c1.2-0.7,2.1-0.9,2.1-0.9c-0.9-3.5-4.1-6.2-7.9-6.2s-7,2.6-7.9,6.2
                c0,0,0.9,0.2,2.1,0.9C236.5,513.3,239,511.2,241.9,511.2z"/>
        </g>
        
            <radialGradient id="SVGID_3_" cx="-878.7174" cy="2949.9509" r="59.465" gradientTransform="matrix(0.6388 0 0 6.044964e-02 805.2287 378.1534)" gradientUnits="userSpaceOnUse">
            <stop  offset="0.1034" style="stop-color:#E0E3E2"/>
            <stop  offset="0.2677" style="stop-color:#E9EBEA"/>
            <stop  offset="0.684" style="stop-color:#F9FAFA"/>
            <stop  offset="1" style="stop-color:#FFFFFF"/>
        </radialGradient>
        <ellipse class="st4" cx="243.9" cy="556.5" rx="53.6" ry="3"/>
    </g>
    <g>
        <g>
            <path class="st43" d="M22.3,136.7h1.2v4.8l3.6-4.8h1.2v6.7h-1.2v-4.8l-3.6,4.8h-1.2V136.7z"/>
            <path class="st43" d="M35.1,143.4V140l-1.7,2.9h-0.5l-1.7-2.9v3.4h-1.1v-5.1h1.3l1.8,3.2l1.9-3.2h1.1l0,5.1H35.1z"/>
            <path class="st43" d="M41.5,138.8c0.4,0.4,0.6,0.9,0.6,1.6v3h-1.1v-0.6c-0.1,0.2-0.4,0.4-0.6,0.5c-0.3,0.1-0.6,0.2-1,0.2
                c-0.4,0-0.7-0.1-1-0.2c-0.3-0.1-0.5-0.3-0.7-0.5c-0.2-0.2-0.2-0.5-0.2-0.8c0-0.5,0.2-0.8,0.5-1.1c0.3-0.3,0.9-0.4,1.6-0.4h1.3
                v-0.1c0-0.4-0.1-0.6-0.3-0.8c-0.2-0.2-0.5-0.3-1-0.3c-0.3,0-0.6,0-0.8,0.1c-0.3,0.1-0.5,0.2-0.7,0.4l-0.5-0.9
                c0.3-0.2,0.6-0.4,1-0.5c0.4-0.1,0.8-0.2,1.2-0.2C40.5,138.2,41.1,138.4,41.5,138.8z M40.4,142.4c0.2-0.1,0.4-0.3,0.5-0.6v-0.6
                h-1.2c-0.7,0-1,0.2-1,0.7c0,0.2,0.1,0.4,0.3,0.5c0.2,0.1,0.4,0.2,0.7,0.2C39.9,142.6,40.1,142.5,40.4,142.4z"/>
            <path class="st43" d="M51.1,138.3v5.1h-7.6v-5.1h1.2v4.1h2v-4.1h1.2v4.1h2v-4.1H51.1z"/>
            <path class="st43" d="M55.9,134.8h2v5.7l4.8-5.7h1.8v8.6h-2v-5.7l-4.7,5.7h-1.9V134.8z"/>
            <path class="st43" d="M76.4,141.7v3.6h-1.9v-1.9h-6.6v1.9H66v-3.6h0.4c0.5,0,0.9-0.4,1.1-1.1c0.2-0.7,0.3-1.6,0.4-2.9l0.1-3h7.1
                v6.9H76.4z M69.5,140.3c-0.1,0.6-0.3,1.1-0.6,1.4h4.2v-5.2h-3.3l0,1.4C69.7,138.9,69.7,139.7,69.5,140.3z"/>
            <path class="st43" d="M86.3,139.8h-6.8c0.1,0.6,0.4,1.1,0.9,1.5c0.5,0.4,1.1,0.6,1.9,0.6c0.9,0,1.7-0.3,2.3-0.9l1.1,1.2
                c-0.4,0.5-0.9,0.8-1.5,1c-0.6,0.2-1.3,0.4-2,0.4c-0.9,0-1.8-0.2-2.5-0.6c-0.7-0.4-1.3-0.9-1.7-1.6c-0.4-0.7-0.6-1.4-0.6-2.3
                c0-0.8,0.2-1.6,0.6-2.3c0.4-0.7,0.9-1.2,1.6-1.6c0.7-0.4,1.4-0.6,2.3-0.6c0.8,0,1.6,0.2,2.3,0.6c0.7,0.4,1.2,0.9,1.5,1.6
                c0.4,0.7,0.6,1.4,0.6,2.3C86.3,139.3,86.3,139.5,86.3,139.8z M80.3,136.9c-0.4,0.4-0.7,0.9-0.8,1.5h4.9c-0.1-0.6-0.3-1.1-0.8-1.5
                c-0.4-0.4-1-0.6-1.6-0.6C81.3,136.3,80.7,136.5,80.3,136.9z"/>
            <path class="st43" d="M95.5,134.8v8.6h-1.8v-2.6h-2.3l-1.8,2.6h-2.2l2-2.9c-0.6-0.2-1.1-0.5-1.4-1c-0.3-0.4-0.5-1-0.5-1.7
                c0-1,0.3-1.8,1-2.3c0.7-0.5,1.7-0.8,2.9-0.8H95.5z M89.7,138c0,1,0.6,1.5,1.9,1.5h2.1v-2.9h-2.1C90.3,136.5,89.7,137,89.7,138z"/>
        </g>
        <g>
            <path class="st1" d="M61.6,111.7h-9c-1,0-1.9,0.8-1.9,1.9c0,1,0.8,1.9,1.9,1.9h9c1,0,1.9-0.9,1.9-1.9
                C63.5,112.5,62.6,111.7,61.6,111.7z M62.2,113.6c0,0.3-0.3,0.6-0.6,0.6h-9c-0.3,0-0.6-0.3-0.6-0.6c0-0.3,0.3-0.6,0.6-0.6h9
                C61.9,113,62.2,113.2,62.2,113.6z"/>
            <path class="st1" d="M51.4,116.3c0,1.7,1.2,3.2,2.9,3.5c0.4,1.2,1.5,2.1,2.8,2.1c1.3,0,2.4-0.8,2.8-2.1c1.7-0.3,2.9-1.8,2.9-3.5
                v-0.6H51.4V116.3z M55.1,118.6l-0.3,0c-1-0.1-1.8-0.7-2.1-1.6h8.7c-0.3,0.9-1.1,1.6-2.1,1.6l-0.3,0L55.1,118.6z M58.5,119.9
                c-0.3,0.4-0.8,0.7-1.4,0.7c-0.6,0-1.1-0.3-1.4-0.7H58.5z"/>
            <path class="st1" d="M57.1,80.8c-7,0-12.7,5.7-12.7,12.7c0,2.9,0.9,5.6,2.7,7.9c1.4,1.7,2.7,3.6,3.8,5.5v4.5h12.4v-4.4
                c1.2-2,2.6-4.1,3.9-5.6c1.8-2.3,2.7-5,2.7-7.9C69.8,86.6,64.1,80.8,57.1,80.8z M55.5,99.6l0.9,3.3l1.5-3.6l0.7,2.1l1.6-0.7
                l-2.1,9.6h-2l-2.1-9.6L55.5,99.6z M62.1,106.6l-0.1,0.2v3.5h-2.6l2.7-12.7l-1.2-0.3l-0.5,2.1l-1.3,0.6l-1.3-3.6l-1.3,3.2l-0.4-1.6
                l-2.4,1.6l-0.5-2.3L52,97.5l2.8,12.7h-2.6v-3.6l-0.1-0.2c-1.2-2-2.6-4-4-5.8c-1.6-2-2.5-4.5-2.5-7.1c0-6.3,5.1-11.5,11.5-11.5
                c6.3,0,11.5,5.1,11.5,11.5c0,2.6-0.8,5-2.5,7.1h0C64.8,102.3,63.3,104.5,62.1,106.6z"/>
            <path class="st1" d="M57.6,78.8c0.3,0,0.6-0.3,0.6-0.6v-5.5c0-0.3-0.3-0.6-0.6-0.6c-0.3,0-0.6,0.3-0.6,0.6v5.5
                C57,78.5,57.2,78.8,57.6,78.8z"/>
            <path class="st1" d="M65.8,80.8c0.1,0.1,0.2,0.1,0.3,0.1c0.2,0,0.4-0.1,0.5-0.3l2.9-4.7c0.2-0.3,0.1-0.6-0.2-0.8
                c-0.1-0.1-0.3-0.1-0.4-0.1c-0.2,0-0.3,0.1-0.4,0.3L65.6,80c-0.1,0.1-0.1,0.3-0.1,0.4C65.5,80.5,65.6,80.7,65.8,80.8z"/>
            <path class="st1" d="M71.3,87.5c0.1,0,0.2,0,0.3-0.1l4.9-2.6c0.3-0.1,0.4-0.5,0.2-0.8c-0.1-0.3-0.5-0.4-0.8-0.2l-4.9,2.6
                c-0.3,0.1-0.4,0.5-0.2,0.8C70.9,87.4,71.1,87.5,71.3,87.5z"/>
            <path class="st1" d="M78.9,94.5c-0.1-0.1-0.2-0.2-0.4-0.2L73,93.9c-0.3,0-0.6,0.2-0.6,0.5c0,0.3,0.2,0.6,0.5,0.6l5.5,0.4l0,0
                c0.3,0,0.6-0.2,0.6-0.5C79.1,94.7,79,94.6,78.9,94.5z"/>
            <path class="st1" d="M75.3,105.5l-4.5-3.2c-0.1-0.1-0.3-0.1-0.4-0.1c-0.2,0-0.3,0.1-0.4,0.2c-0.2,0.3-0.1,0.6,0.1,0.8l4.5,3.2
                c0.1,0.1,0.2,0.1,0.3,0.1c0.2,0,0.4-0.1,0.5-0.2c0.1-0.1,0.1-0.3,0.1-0.4C75.5,105.8,75.4,105.6,75.3,105.5z"/>
            <path class="st1" d="M47.8,80.6c0.1,0.2,0.3,0.3,0.5,0.3c0.1,0,0.2,0,0.3-0.1c0.3-0.2,0.4-0.5,0.2-0.8l-2.9-4.7
                c-0.1-0.1-0.2-0.2-0.4-0.3c-0.2,0-0.3,0-0.4,0.1c-0.3,0.2-0.4,0.5-0.2,0.8L47.8,80.6z"/>
            <path class="st1" d="M37.8,84.9l4.9,2.6c0.1,0,0.2,0.1,0.3,0.1c0.2,0,0.4-0.1,0.5-0.3c0.1-0.3,0-0.6-0.2-0.8l-4.9-2.6
                c-0.3-0.1-0.6,0-0.8,0.2C37.4,84.4,37.5,84.8,37.8,84.9z"/>
            <path class="st1" d="M42,94.5c0-0.3-0.3-0.6-0.6-0.5l-5.5,0.4c-0.2,0-0.3,0.1-0.4,0.2c-0.1,0.1-0.2,0.3-0.1,0.4
                c0,0.3,0.3,0.5,0.6,0.5l5.6-0.4C41.7,95.1,42,94.8,42,94.5z"/>
            <path class="st1" d="M44,102.3c-0.2,0-0.3,0-0.4,0.1l-4.5,3.2c-0.3,0.2-0.3,0.5-0.1,0.8c0.1,0.2,0.3,0.2,0.5,0.2
                c0.1,0,0.2,0,0.3-0.1l4.5-3.2c0.3-0.2,0.3-0.5,0.1-0.8C44.3,102.4,44.2,102.3,44,102.3z"/>
        </g>
        <g>
            <path class="st43" d="M27.5,151.4c0.2,0.3,0.3,0.6,0.3,1c0,0.6-0.2,1-0.6,1.3c-0.4,0.3-1,0.5-1.8,0.5h-3.1v-6.5h2.9
                c0.7,0,1.3,0.1,1.7,0.4c0.4,0.3,0.6,0.7,0.6,1.2c0,0.3-0.1,0.6-0.2,0.9c-0.2,0.2-0.4,0.4-0.7,0.6C27,150.9,27.3,151.1,27.5,151.4z
                M23.5,150.4h1.6c0.4,0,0.7-0.1,0.9-0.2c0.2-0.2,0.3-0.4,0.3-0.7s-0.1-0.5-0.3-0.7c-0.2-0.2-0.5-0.2-0.9-0.2h-1.6V150.4z
                M26.6,152.3c0-0.6-0.4-1-1.3-1h-1.9v1.9h1.9C26.2,153.3,26.6,152.9,26.6,152.3z"/>
            <path class="st43" d="M37.6,147.6v6.5h-1.2v-5.5H33v5.5h-1.2v-6.5H37.6z"/>
            <path class="st43" d="M40.7,153.8c-0.5-0.3-1-0.7-1.3-1.2c-0.3-0.5-0.5-1.1-0.5-1.7s0.2-1.2,0.5-1.7c0.3-0.5,0.7-0.9,1.3-1.2
                c0.5-0.3,1.1-0.4,1.8-0.4c0.7,0,1.3,0.1,1.8,0.4c0.5,0.3,1,0.7,1.3,1.2c0.3,0.5,0.5,1.1,0.5,1.7c0,0.6-0.2,1.2-0.5,1.7
                c-0.3,0.5-0.7,0.9-1.3,1.2c-0.5,0.3-1.1,0.4-1.8,0.4C41.8,154.3,41.2,154.1,40.7,153.8z M43.7,152.9c0.3-0.2,0.6-0.5,0.8-0.8
                c0.2-0.4,0.3-0.7,0.3-1.2c0-0.4-0.1-0.8-0.3-1.2c-0.2-0.4-0.5-0.6-0.8-0.8c-0.3-0.2-0.7-0.3-1.2-0.3c-0.4,0-0.8,0.1-1.2,0.3
                c-0.3,0.2-0.6,0.5-0.8,0.8c-0.2,0.4-0.3,0.7-0.3,1.2c0,0.4,0.1,0.8,0.3,1.2c0.2,0.4,0.5,0.6,0.8,0.8c0.3,0.2,0.7,0.3,1.2,0.3
                C42.9,153.2,43.3,153.1,43.7,152.9z"/>
            <path class="st43" d="M52.8,147.6v6.5h-1.2v-5.5H49l-0.1,1.6c0,0.9-0.1,1.7-0.2,2.2c-0.1,0.6-0.3,1-0.6,1.3
                c-0.3,0.3-0.6,0.4-1.1,0.4c-0.2,0-0.4,0-0.7-0.1l0.1-1.1c0.1,0,0.2,0,0.3,0c0.4,0,0.7-0.2,0.8-0.7c0.2-0.5,0.3-1.2,0.3-2.1
                l0.1-2.7H52.8z"/>
            <path class="st43" d="M59,151.4c0.2,0.3,0.3,0.6,0.3,1c0,0.4-0.1,0.7-0.4,1c-0.3,0.3-0.6,0.5-1,0.7c-0.4,0.2-0.9,0.2-1.4,0.2
                c-0.4,0-0.9-0.1-1.3-0.2s-0.8-0.3-1.2-0.5l0.4-0.9c0.3,0.2,0.6,0.3,1,0.4c0.3,0.1,0.7,0.2,1,0.2c0.5,0,0.9-0.1,1.2-0.3
                c0.3-0.2,0.5-0.5,0.5-0.8c0-0.3-0.1-0.5-0.4-0.7c-0.2-0.1-0.6-0.2-1-0.2h-1.5v-1h1.4c0.4,0,0.6-0.1,0.9-0.2
                c0.2-0.1,0.3-0.4,0.3-0.6c0-0.3-0.1-0.5-0.4-0.7c-0.3-0.2-0.6-0.3-1.1-0.3c-0.3,0-0.6,0-0.9,0.1c-0.3,0.1-0.6,0.2-0.9,0.4l-0.4-1
                c0.3-0.2,0.7-0.3,1.1-0.4c0.4-0.1,0.8-0.1,1.1-0.1c0.5,0,0.9,0.1,1.3,0.2c0.4,0.1,0.7,0.4,1,0.6c0.2,0.3,0.4,0.6,0.4,1
                c0,0.3-0.1,0.6-0.3,0.9c-0.2,0.2-0.4,0.4-0.7,0.6C58.4,150.9,58.8,151.1,59,151.4z"/>
            <path class="st43" d="M65,152.7h-3.3l-0.6,1.5h-1.3l2.9-6.5H64l3,6.5h-1.3L65,152.7z M64.6,151.7l-1.2-2.9l-1.2,2.9H64.6z"/>
            <path class="st43" d="M76.4,147.6v6.5h-1.2v-2.8h-3.4v2.8h-1.2v-6.5h1.2v2.7h3.4v-2.7H76.4z"/>
            <path class="st43" d="M82.5,152.7h-3.3l-0.6,1.5h-1.3l2.9-6.5h1.2l3,6.5h-1.3L82.5,152.7z M82.1,151.7l-1.2-2.9l-1.2,2.9H82.1z"/>
            <path class="st43" d="M23.5,165.6c-0.5-0.3-1-0.7-1.3-1.2c-0.3-0.5-0.5-1.1-0.5-1.7c0-0.6,0.2-1.2,0.5-1.7
                c0.3-0.5,0.7-0.9,1.3-1.2c0.5-0.3,1.1-0.4,1.8-0.4c0.7,0,1.3,0.1,1.8,0.4c0.5,0.3,1,0.7,1.3,1.2c0.3,0.5,0.5,1.1,0.5,1.7
                s-0.2,1.2-0.5,1.7c-0.3,0.5-0.7,0.9-1.3,1.2c-0.5,0.3-1.1,0.4-1.8,0.4C24.6,166,24,165.9,23.5,165.6z M26.5,164.6
                c0.3-0.2,0.6-0.5,0.8-0.8c0.2-0.4,0.3-0.7,0.3-1.2c0-0.4-0.1-0.8-0.3-1.2c-0.2-0.4-0.5-0.6-0.8-0.8c-0.3-0.2-0.7-0.3-1.2-0.3
                c-0.4,0-0.8,0.1-1.2,0.3c-0.3,0.2-0.6,0.5-0.8,0.8c-0.2,0.4-0.3,0.7-0.3,1.2c0,0.4,0.1,0.8,0.3,1.2c0.2,0.4,0.5,0.6,0.8,0.8
                c0.3,0.2,0.7,0.3,1.2,0.3C25.7,164.9,26.1,164.8,26.5,164.6z"/>
            <path class="st43" d="M30.2,159.4h5.1v1h-3.9v1.6h1.9c0.8,0,1.4,0.2,1.8,0.5c0.4,0.3,0.6,0.8,0.6,1.4c0,0.6-0.2,1.1-0.7,1.5
                c-0.4,0.4-1.1,0.5-1.9,0.5h-2.9V159.4z M33,165c0.5,0,0.8-0.1,1.1-0.3c0.2-0.2,0.4-0.4,0.4-0.8c0-0.7-0.5-1-1.4-1h-1.7v2.1H33z"/>
            <path class="st43" d="M45.4,159.4v6.5H37v-6.5h1.2v5.5h2.4v-5.5h1.2v5.5h2.4v-5.5H45.4z M46.4,164.9v2.4h-1.1v-1.4h-1v-1H46.4z"/>
            <path class="st43" d="M52.5,164.9v1h-4.9v-6.5h4.8v1h-3.6v1.7h3.2v1h-3.2v1.8H52.5z"/>
            <path class="st43" d="M55,165.6c-0.5-0.3-1-0.7-1.3-1.2c-0.3-0.5-0.5-1.1-0.5-1.7s0.2-1.2,0.5-1.7c0.3-0.5,0.7-0.9,1.3-1.2
                c0.5-0.3,1.1-0.4,1.8-0.4c0.5,0,1,0.1,1.5,0.3c0.4,0.2,0.8,0.5,1.1,0.8l-0.8,0.7c-0.5-0.5-1.1-0.8-1.7-0.8c-0.4,0-0.9,0.1-1.2,0.3
                c-0.4,0.2-0.6,0.5-0.8,0.8c-0.2,0.3-0.3,0.7-0.3,1.2c0,0.4,0.1,0.8,0.3,1.2c0.2,0.3,0.5,0.6,0.8,0.8c0.4,0.2,0.8,0.3,1.2,0.3
                c0.7,0,1.3-0.3,1.7-0.8l0.8,0.7c-0.3,0.4-0.7,0.6-1.1,0.8c-0.4,0.2-0.9,0.3-1.5,0.3C56.2,166,55.6,165.9,55,165.6z"/>
            <path class="st43" d="M65.2,160.4h-2.2v5.5h-1.2v-5.5h-2.2v-1h5.5V160.4z"/>
            <path class="st43" d="M71.5,163.1c0.2,0.3,0.3,0.6,0.3,1c0,0.6-0.2,1-0.6,1.3c-0.4,0.3-1,0.5-1.8,0.5h-3.1v-6.5h2.9
                c0.7,0,1.3,0.1,1.7,0.4c0.4,0.3,0.6,0.7,0.6,1.2c0,0.3-0.1,0.6-0.2,0.9c-0.2,0.2-0.4,0.4-0.7,0.6C71,162.6,71.3,162.8,71.5,163.1z
                M67.5,162.2h1.6c0.4,0,0.7-0.1,0.9-0.2c0.2-0.2,0.3-0.4,0.3-0.7s-0.1-0.5-0.3-0.7c-0.2-0.2-0.5-0.2-0.9-0.2h-1.6V162.2z
                M70.6,164c0-0.6-0.4-1-1.3-1h-1.9v1.9h1.9C70.2,165,70.6,164.6,70.6,164z"/>
            <path class="st43" d="M74.5,165.6c-0.5-0.3-1-0.7-1.3-1.2c-0.3-0.5-0.5-1.1-0.5-1.7c0-0.6,0.2-1.2,0.5-1.7
                c0.3-0.5,0.7-0.9,1.3-1.2c0.5-0.3,1.1-0.4,1.8-0.4c0.7,0,1.3,0.1,1.8,0.4c0.5,0.3,1,0.7,1.3,1.2c0.3,0.5,0.5,1.1,0.5,1.7
                s-0.2,1.2-0.5,1.7c-0.3,0.5-0.7,0.9-1.3,1.2c-0.5,0.3-1.1,0.4-1.8,0.4C75.6,166,75,165.9,74.5,165.6z M77.5,164.6
                c0.3-0.2,0.6-0.5,0.8-0.8c0.2-0.4,0.3-0.7,0.3-1.2c0-0.4-0.1-0.8-0.3-1.2c-0.2-0.4-0.5-0.6-0.8-0.8c-0.3-0.2-0.7-0.3-1.2-0.3
                c-0.4,0-0.8,0.1-1.2,0.3c-0.3,0.2-0.6,0.5-0.8,0.8c-0.2,0.4-0.3,0.7-0.3,1.2c0,0.4,0.1,0.8,0.3,1.2c0.2,0.4,0.5,0.6,0.8,0.8
                c0.3,0.2,0.7,0.3,1.2,0.3C76.7,164.9,77.1,164.8,77.5,164.6z"/>
            <path class="st43" d="M85.8,160.4h-2.2v5.5h-1.2v-5.5h-2.2v-1h5.5V160.4z"/>
            <path class="st43" d="M88,165.6c-0.5-0.3-1-0.7-1.3-1.2c-0.3-0.5-0.5-1.1-0.5-1.7c0-0.6,0.2-1.2,0.5-1.7c0.3-0.5,0.7-0.9,1.3-1.2
                c0.5-0.3,1.1-0.4,1.8-0.4c0.7,0,1.3,0.1,1.8,0.4c0.5,0.3,1,0.7,1.3,1.2c0.3,0.5,0.5,1.1,0.5,1.7s-0.2,1.2-0.5,1.7
                c-0.3,0.5-0.7,0.9-1.3,1.2c-0.5,0.3-1.1,0.4-1.8,0.4C89.1,166,88.5,165.9,88,165.6z M91,164.6c0.3-0.2,0.6-0.5,0.8-0.8
                c0.2-0.4,0.3-0.7,0.3-1.2c0-0.4-0.1-0.8-0.3-1.2c-0.2-0.4-0.5-0.6-0.8-0.8c-0.3-0.2-0.7-0.3-1.2-0.3c-0.4,0-0.8,0.1-1.2,0.3
                c-0.3,0.2-0.6,0.5-0.8,0.8c-0.2,0.4-0.3,0.7-0.3,1.2c0,0.4,0.1,0.8,0.3,1.2c0.2,0.4,0.5,0.6,0.8,0.8c0.3,0.2,0.7,0.3,1.2,0.3
                C90.2,164.9,90.6,164.8,91,164.6z"/>
        </g>
        
            <radialGradient id="SVGID_4_" cx="-2171.031" cy="2544.5986" r="59.465" gradientTransform="matrix(0.5011 0 0 5.423031e-02 1144.8414 -10.2337)" gradientUnits="userSpaceOnUse">
            <stop  offset="0.1034" style="stop-color:#E0E3E2"/>
            <stop  offset="0.2677" style="stop-color:#E9EBEA"/>
            <stop  offset="0.684" style="stop-color:#F9FAFA"/>
            <stop  offset="1" style="stop-color:#FFFFFF"/>
        </radialGradient>
        <ellipse class="st5" cx="57" cy="127.8" rx="42.1" ry="2.7"/>
        <path class="st7" d="M90.9,103.3c0,0-0.9,8.8-7.8,9.4c6.9,0.6,7.8,9.4,7.8,9.4s0.9-8.8,7.8-9.4C91.8,112.1,90.9,103.3,90.9,103.3z"
            />
        <path class="st7" d="M103.9,84.7c0,0-0.6,5.8-5.2,6.2c4.6,0.4,5.2,6.2,5.2,6.2s0.6-5.8,5.2-6.2C104.5,90.5,103.9,84.7,103.9,84.7z"
            />
    </g>
    <g>
        <g>
            <path class="st43" d="M66.9,635.9v6.5h-1.2V637h-3.4v5.5h-1.2v-6.5H66.9z"/>
            <path class="st43" d="M73.5,636.2c0.4,0.2,0.7,0.5,1,0.8c0.2,0.3,0.3,0.8,0.3,1.2c0,0.5-0.1,0.9-0.3,1.2c-0.2,0.4-0.5,0.6-1,0.8
                c-0.4,0.2-0.9,0.3-1.5,0.3h-1.5v1.9h-1.2v-6.5H72C72.6,635.9,73.1,636,73.5,636.2z M73.2,639.2c0.3-0.2,0.4-0.5,0.4-1
                c0-0.4-0.1-0.7-0.4-1c-0.3-0.2-0.7-0.3-1.2-0.3h-1.4v2.6H72C72.5,639.6,72.9,639.5,73.2,639.2z"/>
            <path class="st43" d="M81.4,641.5v1h-4.9v-6.5h4.8v1h-3.6v1.7h3.2v1h-3.2v1.8H81.4z"/>
            <path class="st43" d="M88.6,639.7c0.2,0.3,0.3,0.6,0.3,1c0,0.6-0.2,1-0.6,1.3c-0.4,0.3-1,0.5-1.8,0.5h-3.1v-6.5h2.9
                c0.7,0,1.3,0.1,1.7,0.4c0.4,0.3,0.6,0.7,0.6,1.2c0,0.3-0.1,0.6-0.2,0.9c-0.2,0.2-0.4,0.4-0.7,0.6
                C88.1,639.2,88.4,639.4,88.6,639.7z M84.6,638.7h1.6c0.4,0,0.7-0.1,0.9-0.2c0.2-0.2,0.3-0.4,0.3-0.7c0-0.3-0.1-0.5-0.3-0.7
                c-0.2-0.2-0.5-0.2-0.9-0.2h-1.6V638.7z M87.7,640.6c0-0.6-0.4-1-1.3-1h-1.9v1.9h1.9C87.3,641.6,87.7,641.2,87.7,640.6z"/>
            <path class="st43" d="M92.1,642.1c-0.5-0.3-1-0.7-1.3-1.2c-0.3-0.5-0.5-1.1-0.5-1.7c0-0.6,0.2-1.2,0.5-1.7
                c0.3-0.5,0.7-0.9,1.3-1.2c0.5-0.3,1.1-0.4,1.8-0.4c0.7,0,1.3,0.1,1.8,0.4c0.5,0.3,1,0.7,1.3,1.2c0.3,0.5,0.5,1.1,0.5,1.7
                c0,0.6-0.2,1.2-0.5,1.7c-0.3,0.5-0.7,0.9-1.3,1.2c-0.5,0.3-1.1,0.4-1.8,0.4C93.3,642.6,92.7,642.4,92.1,642.1z M95.1,641.2
                c0.3-0.2,0.6-0.5,0.8-0.8c0.2-0.4,0.3-0.7,0.3-1.2c0-0.4-0.1-0.8-0.3-1.2s-0.5-0.6-0.8-0.8c-0.3-0.2-0.7-0.3-1.2-0.3
                c-0.4,0-0.8,0.1-1.2,0.3c-0.3,0.2-0.6,0.5-0.8,0.8c-0.2,0.4-0.3,0.7-0.3,1.2c0,0.4,0.1,0.8,0.3,1.2c0.2,0.4,0.5,0.6,0.8,0.8
                c0.3,0.2,0.7,0.3,1.2,0.3C94.4,641.5,94.8,641.4,95.1,641.2z"/>
            <path class="st43" d="M105.7,641.5v2.4h-1.1v-1.4h-5v1.4h-1.1l0-2.4h0.3c0.4,0,0.7-0.3,0.9-0.9c0.2-0.6,0.3-1.4,0.3-2.5l0.1-2.1
                h4.8v5.5H105.7z M100.7,640.2c-0.1,0.6-0.3,1-0.5,1.2h3.3V637H101l0,1.2C100.9,639,100.8,639.7,100.7,640.2z"/>
            <path class="st43" d="M115.8,639.7c0.2,0.3,0.3,0.6,0.3,1c0,0.6-0.2,1-0.6,1.3c-0.4,0.3-1,0.5-1.8,0.5h-3.1v-6.5h2.9
                c0.7,0,1.3,0.1,1.7,0.4c0.4,0.3,0.6,0.7,0.6,1.2c0,0.3-0.1,0.6-0.2,0.9c-0.2,0.2-0.4,0.4-0.7,0.6
                C115.3,639.2,115.6,639.4,115.8,639.7z M111.7,638.7h1.6c0.4,0,0.7-0.1,0.9-0.2c0.2-0.2,0.3-0.4,0.3-0.7c0-0.3-0.1-0.5-0.3-0.7
                c-0.2-0.2-0.5-0.2-0.9-0.2h-1.6V638.7z M114.9,640.6c0-0.6-0.4-1-1.3-1h-1.9v1.9h1.9C114.5,641.6,114.9,641.2,114.9,640.6z"/>
            <path class="st43" d="M67.6,651.2v2.4h-1.1v-1.4h-5v1.4h-1.1l0-2.4h0.3c0.4,0,0.7-0.3,0.9-0.9c0.2-0.6,0.3-1.4,0.3-2.5l0.1-2.1
                h4.8v5.5H67.6z M62.7,650c-0.1,0.6-0.3,1-0.5,1.2h3.3v-4.5h-2.6l0,1.2C62.8,648.7,62.8,649.4,62.7,650z"/>
            <path class="st43" d="M73.7,650.7h-3.3l-0.6,1.5h-1.3l2.9-6.5h1.2l3,6.5h-1.3L73.7,650.7z M73.3,649.8l-1.2-2.9l-1.2,2.9H73.3z"/>
            <path class="st43" d="M81.4,646c0.4,0.2,0.7,0.5,1,0.8c0.2,0.3,0.3,0.8,0.3,1.2c0,0.5-0.1,0.9-0.3,1.2c-0.2,0.4-0.5,0.6-1,0.8
                c-0.4,0.2-0.9,0.3-1.5,0.3h-1.5v1.9h-1.2v-6.5h2.7C80.5,645.7,81,645.8,81.4,646z M81,649c0.3-0.2,0.4-0.5,0.4-1
                c0-0.4-0.1-0.7-0.4-1c-0.3-0.2-0.7-0.3-1.2-0.3h-1.4v2.6h1.4C80.4,649.3,80.8,649.2,81,649z"/>
            <path class="st43" d="M84.4,645.7h1.2v4.6l3.5-4.6h1.1v6.5h-1.2v-4.6l-3.5,4.6h-1.1V645.7z"/>
            <path class="st43" d="M97.4,646.7h-2.2v5.5H94v-5.5h-2.2v-1h5.5V646.7z"/>
            <path class="st43" d="M103.9,651.2v1H99v-6.5h4.8v1h-3.6v1.7h3.2v1h-3.2v1.8H103.9z"/>
            <path class="st43" d="M111.4,645.7v6.5h-1.2v-5.5h-2.6l-0.1,1.6c0,0.9-0.1,1.7-0.2,2.2c-0.1,0.6-0.3,1-0.6,1.3
                c-0.3,0.3-0.6,0.4-1.1,0.4c-0.2,0-0.4,0-0.7-0.1l0.1-1.1c0.1,0,0.2,0,0.3,0c0.4,0,0.7-0.2,0.8-0.7c0.2-0.5,0.3-1.2,0.3-2.1
                l0.1-2.7H111.4z"/>
            <path class="st43" d="M115.1,651.9c-0.5-0.3-1-0.7-1.3-1.2c-0.3-0.5-0.5-1.1-0.5-1.7s0.2-1.2,0.5-1.7c0.3-0.5,0.7-0.9,1.3-1.2
                c0.5-0.3,1.1-0.4,1.8-0.4c0.5,0,1,0.1,1.5,0.3c0.4,0.2,0.8,0.5,1.1,0.8l-0.8,0.7c-0.5-0.5-1.1-0.8-1.7-0.8c-0.4,0-0.9,0.1-1.2,0.3
                c-0.4,0.2-0.6,0.5-0.8,0.8c-0.2,0.3-0.3,0.7-0.3,1.2s0.1,0.8,0.3,1.2c0.2,0.3,0.5,0.6,0.8,0.8c0.4,0.2,0.8,0.3,1.2,0.3
                c0.7,0,1.3-0.3,1.7-0.8l0.8,0.7c-0.3,0.4-0.7,0.6-1.1,0.8c-0.4,0.2-0.9,0.3-1.5,0.3C116.2,652.3,115.6,652.2,115.1,651.9z"/>
            <path class="st43" d="M123.6,649.5h-1.2v2.8h-1.2v-6.5h1.2v2.7h1.3l1.9-2.7h1.3l-2.2,3.2l2.3,3.4h-1.4L123.6,649.5z"/>
            <path class="st43" d="M132.5,650.7h-3.3l-0.6,1.5h-1.3l2.9-6.5h1.2l3,6.5h-1.3L132.5,650.7z M132.1,649.8l-1.2-2.9l-1.2,2.9H132.1
                z"/>
            <path class="st43" d="M62.4,661.6c-0.5-0.3-1-0.7-1.3-1.2c-0.3-0.5-0.5-1.1-0.5-1.7c0-0.6,0.2-1.2,0.5-1.7
                c0.3-0.5,0.7-0.9,1.3-1.2c0.5-0.3,1.1-0.4,1.8-0.4c0.5,0,1,0.1,1.5,0.3c0.4,0.2,0.8,0.5,1.1,0.8l-0.8,0.7
                c-0.5-0.5-1.1-0.8-1.7-0.8c-0.4,0-0.9,0.1-1.2,0.3c-0.4,0.2-0.6,0.5-0.8,0.8c-0.2,0.3-0.3,0.7-0.3,1.2s0.1,0.8,0.3,1.2
                c0.2,0.3,0.5,0.6,0.8,0.8c0.4,0.2,0.8,0.3,1.2,0.3c0.7,0,1.3-0.3,1.7-0.8l0.8,0.7c-0.3,0.4-0.7,0.6-1.1,0.8
                c-0.4,0.2-0.9,0.3-1.5,0.3C63.5,662.1,62.9,661.9,62.4,661.6z"/>
            <path class="st43" d="M74.5,662l0-4.3l-2.2,3.6h-0.5l-2.2-3.5v4.3h-1.2v-6.5h1l2.6,4.3l2.6-4.3h1l0,6.5H74.5z"/>
            <path class="st43" d="M82.9,661v1H78v-6.5h4.8v1h-3.6v1.7h3.2v1h-3.2v1.8H82.9z"/>
            <path class="st43" d="M89.6,656.5h-2.2v5.5h-1.2v-5.5h-2.2v-1h5.5V656.5z"/>
            <path class="st43" d="M93.6,659.2h-1.2v2.8h-1.2v-6.5h1.2v2.7h1.3l1.9-2.7h1.3l-2.2,3.2l2.3,3.4h-1.4L93.6,659.2z"/>
            <path class="st43" d="M102.5,660.5h-3.3l-0.6,1.5h-1.3l2.9-6.5h1.2l3,6.5h-1.3L102.5,660.5z M102.1,659.5l-1.2-2.9l-1.2,2.9H102.1
                z"/>
        </g>
        <g>
            <path class="st8" d="M54.2,668.4c0.2,1.2-0.1,2.3-0.8,3.3c-0.8,1-1.7,1.6-2.9,1.8c-0.9,0.1-1.7,0-2.4-0.6
                c-0.7-0.5-1.2-1.2-1.3-2.1c-0.2-1.2,0.1-2.3,0.9-3.4c0.8-1.1,1.8-1.7,2.9-1.9c0.9-0.1,1.7,0,2.4,0.6
                C53.6,666.8,54.1,667.5,54.2,668.4z M57.4,635c0.1,0.7,0,1.9-0.5,3.5c-0.3,1.2-1,4-1.8,8.5c-0.9,4.5-1.4,7.2-1.6,8.3
                c-0.2,1.1-0.3,2.3-0.3,3.8c0,1.2-0.7,1.8-2,2.1c-1.7,0.3-2.7-0.4-3-2.1c-0.3-1.8,0.2-5.3,1.4-10.7c1.3-5.4,2.3-9.1,3.1-11.2
                c0.8-2.1,1.8-3.2,2.8-3.3C56.6,633.6,57.3,634,57.4,635z"/>
        </g>
        
            <radialGradient id="SVGID_5_" cx="-1762.3796" cy="5584.7656" r="59.465" gradientTransform="matrix(0.5538 0 0 4.348000e-02 1059.4963 388.729)" gradientUnits="userSpaceOnUse">
            <stop  offset="0.1034" style="stop-color:#E0E3E2"/>
            <stop  offset="0.2677" style="stop-color:#E9EBEA"/>
            <stop  offset="0.684" style="stop-color:#F9FAFA"/>
            <stop  offset="1" style="stop-color:#FFFFFF"/>
        </radialGradient>
        <ellipse class="st6" cx="83.5" cy="631.6" rx="46.5" ry="2.2"/>
    </g>
    <g>
        <g>
            <g>
                <path class="st43" d="M184.4,789c-0.5-0.3-1-0.7-1.3-1.2c-0.3-0.5-0.5-1.1-0.5-1.7c0-0.6,0.2-1.2,0.5-1.7
                    c0.3-0.5,0.7-0.9,1.3-1.2c0.5-0.3,1.1-0.4,1.8-0.4c0.7,0,1.3,0.1,1.8,0.4c0.5,0.3,1,0.7,1.3,1.2c0.3,0.5,0.5,1.1,0.5,1.7
                    c0,0.6-0.2,1.2-0.5,1.7c-0.3,0.5-0.7,0.9-1.3,1.2c-0.5,0.3-1.1,0.4-1.8,0.4C185.6,789.4,185,789.3,184.4,789z M187.4,788.1
                    c0.3-0.2,0.6-0.5,0.8-0.8c0.2-0.4,0.3-0.7,0.3-1.2c0-0.4-0.1-0.8-0.3-1.2c-0.2-0.4-0.5-0.6-0.8-0.8c-0.3-0.2-0.7-0.3-1.2-0.3
                    c-0.4,0-0.8,0.1-1.2,0.3c-0.3,0.2-0.6,0.5-0.8,0.8c-0.2,0.4-0.3,0.7-0.3,1.2c0,0.4,0.1,0.8,0.3,1.2c0.2,0.4,0.5,0.6,0.8,0.8
                    c0.3,0.2,0.7,0.3,1.2,0.3C186.7,788.3,187.1,788.2,187.4,788.1z"/>
                <path class="st43" d="M196.3,783.8h-2.2v5.5h-1.2v-5.5h-2.2v-1h5.5V783.8z"/>
                <path class="st43" d="M202.9,782.8v6.5h-1.2v-2.5c-0.6,0.2-1.2,0.3-1.8,0.3c-0.8,0-1.5-0.2-1.9-0.6c-0.5-0.4-0.7-1-0.7-1.7v-2.1
                    h1.2v2c0,0.5,0.1,0.8,0.4,1.1c0.3,0.2,0.7,0.4,1.2,0.4c0.6,0,1.1-0.1,1.6-0.3v-3H202.9z"/>
                <path class="st43" d="M205.3,782.8h1.2v4.6l3.5-4.6h1.1v6.5H210v-4.6l-3.5,4.6h-1.1V782.8z"/>
                <path class="st43" d="M218.3,783.8h-2.2v5.5H215v-5.5h-2.2v-1h5.5V783.8z"/>
                <path class="st43" d="M224,787.8h-3.3l-0.6,1.5h-1.3l2.9-6.5h1.2l3,6.5h-1.3L224,787.8z M223.6,786.8l-1.2-2.9l-1.2,2.9H223.6z"
                    />
                <path class="st43" d="M233.3,782.8v6.5h-1.2v-2.8h-3.4v2.8h-1.2v-6.5h1.2v2.7h3.4v-2.7H233.3z"/>
                <path class="st43" d="M240.6,788.3v1h-4.9v-6.5h4.8v1h-3.6v1.7h3.2v1h-3.2v1.8H240.6z"/>
                <path class="st43" d="M251.5,782.8v6.5h-1.2v-2.8h-3.4v2.8h-1.2v-6.5h1.2v2.7h3.4v-2.7H251.5z"/>
                <path class="st43" d="M258.2,787.8h-3.3l-0.6,1.5H253l2.9-6.5h1.2l3,6.5h-1.3L258.2,787.8z M257.8,786.8l-1.2-2.9l-1.2,2.9H257.8
                    z"/>
                <path class="st43" d="M189,792.5v6.5h-1.2v-2.8h-3.4v2.8h-1.2v-6.5h1.2v2.7h3.4v-2.7H189z"/>
                <path class="st43" d="M195.7,797.6h-3.3l-0.6,1.5h-1.3l2.9-6.5h1.2l3,6.5h-1.3L195.7,797.6z M195.3,796.6l-1.2-2.9l-1.2,2.9
                    H195.3z"/>
                <path class="st43" d="M206.6,792.8c0.4,0.2,0.7,0.5,1,0.8c0.2,0.3,0.3,0.8,0.3,1.2c0,0.5-0.1,0.9-0.3,1.2c-0.2,0.4-0.5,0.6-1,0.8
                    c-0.4,0.2-0.9,0.3-1.5,0.3h-1.5v1.9h-1.2v-6.5h2.7C205.6,792.5,206.1,792.6,206.6,792.8z M206.2,795.8c0.3-0.2,0.4-0.5,0.4-1
                    c0-0.4-0.1-0.7-0.4-1c-0.3-0.2-0.7-0.3-1.2-0.3h-1.4v2.6h1.4C205.5,796.2,205.9,796,206.2,795.8z"/>
                <path class="st43" d="M213.6,797.6h-3.3l-0.6,1.5h-1.3l2.9-6.5h1.2l3,6.5h-1.3L213.6,797.6z M213.2,796.6l-1.2-2.9l-1.2,2.9
                    H213.2z"/>
                <path class="st43" d="M221.4,796.3c0.2,0.3,0.3,0.6,0.3,1c0,0.4-0.1,0.7-0.4,1c-0.3,0.3-0.6,0.5-1,0.7c-0.4,0.2-0.9,0.2-1.4,0.2
                    c-0.4,0-0.9-0.1-1.3-0.2c-0.4-0.1-0.8-0.3-1.2-0.5l0.4-0.9c0.3,0.2,0.6,0.3,1,0.4c0.3,0.1,0.7,0.2,1,0.2c0.5,0,0.9-0.1,1.2-0.3
                    c0.3-0.2,0.5-0.5,0.5-0.8c0-0.3-0.1-0.5-0.4-0.7c-0.2-0.1-0.6-0.2-1-0.2h-1.5v-1h1.4c0.4,0,0.6-0.1,0.9-0.2
                    c0.2-0.1,0.3-0.4,0.3-0.6c0-0.3-0.1-0.5-0.4-0.7c-0.3-0.2-0.6-0.3-1.1-0.3c-0.3,0-0.6,0-0.9,0.1c-0.3,0.1-0.6,0.2-0.9,0.4l-0.4-1
                    c0.3-0.2,0.7-0.3,1.1-0.4c0.4-0.1,0.8-0.1,1.1-0.1c0.5,0,0.9,0.1,1.3,0.2c0.4,0.1,0.7,0.4,1,0.6c0.2,0.3,0.4,0.6,0.4,1
                    c0,0.3-0.1,0.6-0.3,0.9c-0.2,0.2-0.4,0.4-0.7,0.6C220.9,795.8,221.2,796,221.4,796.3z"/>
                <path class="st43" d="M224.4,792.5l1.5,2.2l1.5-2.2h1.4l-2.2,3.1l2.4,3.4h-1.4l-1.7-2.4l-1.7,2.4h-1.4l2.4-3.4l-2.2-3.2H224.4z"
                    />
                <path class="st43" d="M231.6,798.7c-0.5-0.3-1-0.7-1.3-1.2c-0.3-0.5-0.5-1.1-0.5-1.7s0.2-1.2,0.5-1.7c0.3-0.5,0.7-0.9,1.3-1.2
                    c0.5-0.3,1.1-0.4,1.8-0.4c0.7,0,1.3,0.1,1.8,0.4s1,0.7,1.3,1.2c0.3,0.5,0.5,1.1,0.5,1.7s-0.2,1.2-0.5,1.7
                    c-0.3,0.5-0.7,0.9-1.3,1.2c-0.5,0.3-1.1,0.4-1.8,0.4C232.8,799.2,232.2,799,231.6,798.7z M234.6,797.8c0.3-0.2,0.6-0.5,0.8-0.8
                    c0.2-0.4,0.3-0.7,0.3-1.2s-0.1-0.8-0.3-1.2c-0.2-0.4-0.5-0.6-0.8-0.8c-0.3-0.2-0.7-0.3-1.2-0.3c-0.4,0-0.8,0.1-1.2,0.3
                    c-0.3,0.2-0.6,0.5-0.8,0.8c-0.2,0.4-0.3,0.7-0.3,1.2s0.1,0.8,0.3,1.2c0.2,0.4,0.5,0.6,0.8,0.8c0.3,0.2,0.7,0.3,1.2,0.3
                    C233.9,798.1,234.3,798,234.6,797.8z"/>
                <path class="st43" d="M245.2,798v2.4h-1.1v-1.4h-5v1.4h-1.1l0-2.4h0.3c0.4,0,0.7-0.3,0.9-0.9c0.2-0.6,0.3-1.4,0.3-2.5l0.1-2.1
                    h4.8v5.5H245.2z M240.2,796.8c-0.1,0.6-0.3,1-0.5,1.2h3.3v-4.5h-2.6l0,1.2C240.4,795.6,240.3,796.3,240.2,796.8z"/>
                <path class="st43" d="M246.9,792.5h1.2v4.6l3.5-4.6h1.1v6.5h-1.2v-4.6l-3.5,4.6h-1.1V792.5z"/>
                <path class="st43" d="M259.9,793.6h-2.2v5.5h-1.2v-5.5h-2.2v-1h5.5V793.6z"/>
                <path class="st43" d="M266.4,798.1v1h-4.9v-6.5h4.8v1h-3.6v1.7h3.2v1h-3.2v1.8H266.4z"/>
            </g>
        </g>
        <g>
            <g>
                <path class="st1" d="M233,731.4H214c0,0,0,0,0,0c0,0,0,0,0,0c0,0-0.1,0-0.1,0c0,0,0,0,0,0c0,0-0.1,0-0.1,0c0,0,0,0,0,0
                    c0,0,0,0-0.1,0c0,0,0,0,0,0c0,0,0,0-0.1,0c0,0,0,0,0,0c0,0,0,0-0.1,0.1c0,0,0,0,0,0l-6.8,6.8c0,0,0,0,0,0c0,0,0,0-0.1,0.1
                    c0,0,0,0,0,0c0,0,0,0,0,0.1c0,0,0,0,0,0c0,0,0,0,0,0.1c0,0,0,0,0,0c0,0,0,0.1,0,0.1c0,0,0,0,0,0c0,0,0,0.1,0,0.1c0,0,0,0,0,0
                    c0,0,0,0,0,0v29.7c0,1.1,0.9,2,2,2H233c1.1,0,2-0.9,2-2v-35.1C234.9,732.3,234.1,731.4,233,731.4z M213.4,733.5v3.9
                    c0,0.4-0.3,0.7-0.7,0.7h-3.9L213.4,733.5z M233.7,768.5c0,0.4-0.3,0.7-0.7,0.7h-24.3c-0.4,0-0.7-0.3-0.7-0.7v-29.1h4.8
                    c1.1,0,2-0.9,2-2v-4.8H233c0.4,0,0.7,0.3,0.7,0.7V768.5z"/>
                <path class="st1" d="M212.7,749.5h16.2c0.3,0,0.6-0.3,0.6-0.6c0-0.3-0.3-0.6-0.6-0.6h-16.2c-0.3,0-0.6,0.3-0.6,0.6
                    C212.1,749.2,212.3,749.5,212.7,749.5z"/>
                <path class="st1" d="M212.7,752.9h16.2c0.3,0,0.6-0.3,0.6-0.6s-0.3-0.6-0.6-0.6h-16.2c-0.3,0-0.6,0.3-0.6,0.6
                    S212.3,752.9,212.7,752.9z"/>
                <path class="st1" d="M212.7,756.3h8.1c0.3,0,0.6-0.3,0.6-0.6s-0.3-0.6-0.6-0.6h-8.1c-0.3,0-0.6,0.3-0.6,0.6
                    S212.3,756.3,212.7,756.3z"/>
                <path class="st1" d="M221.4,759c0-0.3-0.3-0.6-0.6-0.6h-8.1c-0.3,0-0.6,0.3-0.6,0.6c0,0.3,0.3,0.6,0.6,0.6h8.1
                    C221.2,759.7,221.4,759.4,221.4,759z"/>
                <path class="st1" d="M224.1,742.3c0-0.3-0.3-0.6-0.6-0.6s-0.6,0.3-0.6,0.6c0,1.2,1.1,2.2,2.7,2.4v0.1c0,0.3,0.3,0.6,0.6,0.6
                    s0.6-0.3,0.6-0.6v-0.1c1.6-0.2,2.7-1.2,2.7-2.4s-1.1-2.2-2.7-2.4v-2.4c0.8,0.2,1.4,0.6,1.4,1.2c0,0.3,0.3,0.6,0.6,0.6
                    s0.6-0.3,0.6-0.6c0-1.2-1.1-2.2-2.7-2.4v-0.1c0-0.3-0.3-0.6-0.6-0.6s-0.6,0.3-0.6,0.6v0.1c-1.6,0.2-2.7,1.2-2.7,2.4
                    c0,1.2,1.1,2.2,2.7,2.4v2.4C224.8,743.3,224.1,742.9,224.1,742.3z M228.3,742.3c0,0.6-0.7,1-1.4,1.2v-2.3
                    C227.6,741.3,228.3,741.7,228.3,742.3z M224.1,738.6c0-0.6,0.7-1,1.4-1.2v2.3C224.8,739.6,224.1,739.2,224.1,738.6z"/>
                <path class="st1" d="M230.2,758.4c-0.3-0.2-0.7-0.1-0.9,0.2L228,761l-0.2-0.1c-0.2-0.1-0.3-0.2-0.5-0.1c-0.2,0-0.3,0.2-0.4,0.3
                    l-0.7,1.3l-0.2-0.2c-0.3-0.4-0.8-0.5-1.2-0.4c-0.5,0.1-0.8,0.4-1,0.9l-0.7,2.1l-1.7-2.2c-0.1-0.1-0.3-0.2-0.4-0.2
                    c-0.2,0-0.3,0-0.5,0.2l-1.8,1.6c-0.3,0.2-0.3,0.6-0.1,0.9c0.2,0.3,0.6,0.3,0.9,0.1l1.3-1.2l1.7,2.1c0.2,0.2,0.5,0.4,0.8,0.4
                    c0.1,0,0.1,0,0.2,0c0.3-0.1,0.6-0.3,0.8-0.6l0.9-2.6c0,0,0,0,0,0c0,0,0,0,0,0l0.8,1c0.1,0.2,0.3,0.2,0.6,0.2
                    c0.2,0,0.4-0.2,0.5-0.3l0.7-1.5l0.1,0.1c0.1,0.1,0.3,0.2,0.5,0.1c0.2,0,0.3-0.1,0.4-0.3l1.7-2.9
                    C230.6,759,230.5,758.6,230.2,758.4z"/>
            </g>
        </g>
        
            <radialGradient id="SVGID_6_" cx="-1514.2163" cy="5914.959" r="59.465" gradientTransform="matrix(0.5538 0 0 4.348000e-02 1059.4963 517.9403)" gradientUnits="userSpaceOnUse">
            <stop  offset="0.1034" style="stop-color:#E0E3E2"/>
            <stop  offset="0.2677" style="stop-color:#E9EBEA"/>
            <stop  offset="0.684" style="stop-color:#F9FAFA"/>
            <stop  offset="1" style="stop-color:#FFFFFF"/>
        </radialGradient>
        <ellipse class="st9" cx="220.9" cy="775.1" rx="46.5" ry="2.2"/>
        <path class="st7" d="M243.2,756.6c0,0-0.9,8.8-7.8,9.4c6.9,0.6,7.8,9.4,7.8,9.4s0.9-8.8,7.8-9.4
            C244.1,765.4,243.2,756.6,243.2,756.6z"/>
        <path class="st7" d="M248.6,732.9c0,0-0.6,5.8-5.2,6.2c4.6,0.4,5.2,6.2,5.2,6.2s0.6-5.8,5.2-6.2
            C249.1,738.7,248.6,732.9,248.6,732.9z"/>
    </g>
    <g>
        <g>
            <path class="st43" d="M99.3,477.6c-0.7-0.4-1.3-1-1.7-1.7c-0.4-0.7-0.6-1.5-0.6-2.4c0-0.9,0.2-1.7,0.6-2.4c0.4-0.7,1-1.3,1.8-1.7
                c0.7-0.4,1.6-0.6,2.5-0.6c0.7,0,1.4,0.1,2.1,0.4c0.6,0.3,1.1,0.6,1.6,1.1l-1.1,1c-0.7-0.7-1.5-1.1-2.4-1.1c-0.6,0-1.2,0.1-1.7,0.4
                c-0.5,0.3-0.9,0.7-1.2,1.1c-0.3,0.5-0.4,1-0.4,1.7c0,0.6,0.1,1.2,0.4,1.7c0.3,0.5,0.7,0.9,1.2,1.1c0.5,0.3,1.1,0.4,1.7,0.4
                c1,0,1.8-0.4,2.4-1.1l1.1,1c-0.4,0.5-1,0.9-1.6,1.1c-0.6,0.3-1.3,0.4-2.1,0.4C100.8,478.2,100,478,99.3,477.6z"/>
            <path class="st43" d="M113.5,470.4h-3v7.7h-1.7v-7.7h-3v-1.4h7.7V470.4z"/>
            <path class="st43" d="M120.6,476H116l-0.9,2.1h-1.7l4.1-9.1h1.7l4.1,9.1h-1.8L120.6,476z M120,474.6l-1.7-4l-1.7,4H120z"/>
            <path class="st43" d="M130.5,469.3c0.6,0.3,1,0.6,1.4,1.1c0.3,0.5,0.5,1.1,0.5,1.7c0,0.7-0.2,1.2-0.5,1.7
                c-0.3,0.5-0.8,0.9-1.4,1.1c-0.6,0.3-1.3,0.4-2.1,0.4h-2.1v2.6h-1.7v-9.1h3.8C129.2,468.9,129.9,469.1,130.5,469.3z M130,473.5
                c0.4-0.3,0.6-0.8,0.6-1.3s-0.2-1-0.6-1.3c-0.4-0.3-0.9-0.5-1.7-0.5h-2v3.6h2C129.1,474,129.6,473.9,130,473.5z"/>
            <path class="st43" d="M140.3,470.4h-3v7.7h-1.7v-7.7h-3v-1.4h7.7V470.4z"/>
            <path class="st43" d="M141.8,477.9c-0.2-0.2-0.3-0.4-0.3-0.7c0-0.3,0.1-0.5,0.3-0.7c0.2-0.2,0.5-0.3,0.8-0.3
                c0.3,0,0.5,0.1,0.7,0.3c0.2,0.2,0.3,0.4,0.3,0.7c0,0.3-0.1,0.5-0.3,0.7c-0.2,0.2-0.4,0.3-0.7,0.3
                C142.3,478.2,142,478.1,141.8,477.9z M141.6,468.9h1.9l-0.3,6.1h-1.3L141.6,468.9z"/>
        </g>
        <g>
            <path class="st1" d="M85.6,461.7L85.6,461.7c-0.4-0.3-0.8-0.6-1.3-0.7l-0.2-0.1l-0.1-0.2c-0.2-0.5-0.5-0.9-0.9-1.2
                c-0.6-0.5-1.4-0.8-2.1-0.8c-0.1,0-0.1,0-0.2,0c-1.8,0.1-3.1,1.6-3,3.4l0.2,4.7c0,0.2,0.1,0.4,0.3,0.6c0.2,0.2,0.4,0.2,0.6,0.2
                l4.7-0.2c1.8-0.1,3.1-1.6,3-3.4C86.6,463.1,86.2,462.3,85.6,461.7z M84.5,465.1c-0.3,0.3-0.6,0.5-1,0.5l-3.8,0.2l-0.2-3.8
                c0-0.8,0.6-1.5,1.4-1.5c0.4,0,0.8,0.1,1.1,0.4c0.3,0.3,0.5,0.6,0.5,1c0,0.2,0.1,0.4,0.3,0.6c0.2,0.2,0.4,0.2,0.6,0.2
                c0.4,0,0.8,0.1,1.1,0.4c0.3,0.3,0.5,0.6,0.5,1C84.9,464.4,84.8,464.8,84.5,465.1z"/>
            <path class="st1" d="M93.7,452.7c-0.4-0.3-0.8-0.6-1.3-0.7l-0.2-0.1l-0.1-0.2c-0.2-0.5-0.5-0.9-0.9-1.2c-0.6-0.5-1.4-0.8-2.1-0.8
                c-0.1,0-0.1,0-0.2,0c-1.8,0.1-3.1,1.6-3,3.4l0.2,4.7c0,0.2,0.1,0.4,0.3,0.6c0.2,0.2,0.4,0.2,0.6,0.2l4.7-0.2
                c1.8-0.1,3.1-1.6,3-3.4C94.7,454.1,94.4,453.3,93.7,452.7z M91.6,456.6l-3.8,0.2l-0.2-3.8c0-0.4,0.1-0.8,0.4-1.1s0.6-0.5,1-0.5
                c0.4,0,0.8,0.1,1.1,0.4c0.3,0.3,0.5,0.6,0.5,1c0,0.2,0.1,0.4,0.3,0.6c0.2,0.2,0.4,0.2,0.6,0.2c0.4,0,0.8,0.1,1.1,0.4
                c0.3,0.3,0.5,0.6,0.5,1C93.1,455.8,92.5,456.5,91.6,456.6z"/>
            <path class="st1" d="M105.4,437.3c-0.2-0.2-0.4-0.2-0.7-0.2c-11.5,1.4-22,7.6-28.7,17l-2.6,3.6l-13.4,5c-0.2,0.1-0.3,0.2-0.4,0.4
                l-4.8,8.1c-0.2,0.3-0.2,0.6,0,0.8c0,0.1,0.1,0.2,0.2,0.3c0.1,0.1,0.3,0.2,0.5,0.2l8,0.9l4.6,4.1l-2.7,3c-0.3,0.4-0.3,0.9,0.1,1.2
                c0.2,0.2,0.4,0.2,0.6,0.2c0.2,0,0.4-0.1,0.6-0.3l2.7-3l4.6,4.1l1.7,7.8c0,0.2,0.1,0.3,0.3,0.5c0.1,0.1,0.2,0.1,0.3,0.2
                c0.3,0.1,0.6,0.1,0.8-0.1l7.5-5.5c0.2-0.1,0.3-0.3,0.3-0.5l3.6-13.8l3.3-3c8.7-7.7,13.8-18.7,14-30.3
                C105.7,437.7,105.6,437.5,105.4,437.3z M63.4,471.5l-6.4-0.7l3.9-6.6l10.6-4L63.4,471.5z M83.2,484.3l-6.2,4.6l-1.3-6.3l10.4-9.2
                L83.2,484.3z M101.4,451.3c-2.3,6-6,11.4-10.8,15.6l-15.9,14.1l-4.2-3.8l5.3-5.9c0.2-0.2,0.2-0.4,0.2-0.6c0-0.2-0.1-0.4-0.3-0.6
                c-0.4-0.3-0.9-0.3-1.2,0.1l-5.3,5.9l-4.2-3.8l12.4-17.3c3.7-5.2,8.7-9.4,14.5-12.3l0.4-0.2l0.2,0.4c0.8,1.9,1.9,3.6,3.4,4.9
                c1.5,1.4,3.3,2.4,5.2,2.9l0.4,0.1L101.4,451.3z M103.9,439.4c-0.2,3.2-0.8,6.4-1.7,9.5l-0.1,0.4l-0.4-0.1
                c-1.7-0.5-3.3-1.4-4.7-2.6c-1.3-1.2-2.4-2.7-3-4.4l-0.1-0.4l0.4-0.2c3-1.3,6.1-2.2,9.2-2.7l0.5-0.1L103.9,439.4z"/>
        </g>
        <path class="st11" d="M140,448c-0.4-1.7-2-3-3.8-3c-0.3,0-0.7,0-1,0.1c-0.9-2-2.9-3.3-5.2-3.3c-0.6,0-1.2,0.1-1.7,0.3
            c-1.2-2.1-3.5-3.4-6.1-3.4c-3.1,0-5.7,2-6.7,4.7c-0.7-0.4-1.5-0.6-2.4-0.6c-2.7,0-4.9,2.2-4.9,4.9c0,0.2,0,0.3,0,0.5H140z"/>
        <path class="st11" d="M73.3,454.7c-0.4-1.6-1.8-2.9-3.6-2.9c-0.3,0-0.6,0-0.9,0.1c-0.9-1.8-2.7-3.1-4.9-3.1c-0.6,0-1.1,0.1-1.6,0.2
            c-1.2-1.9-3.3-3.2-5.7-3.2c-2.9,0-5.3,1.8-6.3,4.4c-0.7-0.4-1.4-0.6-2.2-0.6c-2.5,0-4.6,2.1-4.6,4.6c0,0.1,0,0.3,0,0.4H73.3z"/>
        <path class="st7" d="M78.6,500.4c0,0-0.4,3.8-3.4,4.1c3,0.3,3.4,4.1,3.4,4.1s0.4-3.8,3.4-4.1C78.9,504.3,78.6,500.4,78.6,500.4z"/>
    </g>
    <g>
        <g>
            <g>
                <path class="st43" d="M188.2,889h-4.4V900h-5V889h-4.4V885h13.7V889z"/>
                <path class="st43" d="M189.9,885h5v7.8l5.2-7.8h4.8v15h-5v-7.8l-5.1,7.8h-4.8V885z"/>
                <path class="st43" d="M190.5,905.9l-6,11.3c-0.7,1.3-1.6,2.4-2.6,3.1c-1,0.7-2.2,1-3.4,1c-1,0-1.9-0.2-2.9-0.6l1.2-3.6
                    c0.6,0.2,1.1,0.3,1.5,0.3c0.4,0,0.7-0.1,1-0.2c0.3-0.1,0.5-0.3,0.8-0.6l-5.7-10.6h5.3l3,6.3l3.1-6.3H190.5z"/>
                <path class="st43" d="M194.6,920.2c-1.3-0.7-2.3-1.6-3-2.8c-0.7-1.2-1.1-2.5-1.1-4.1c0-1.5,0.4-2.9,1.1-4.1
                    c0.7-1.2,1.7-2.1,3-2.8c1.3-0.7,2.7-1,4.3-1c1.5,0,2.8,0.3,3.9,0.8c1.1,0.5,2.1,1.3,2.8,2.2l-3.2,2.8c-0.9-1.2-2-1.8-3.3-1.8
                    c-1.1,0-1.9,0.3-2.5,1c-0.6,0.7-1,1.6-1,2.7c0,1.1,0.3,2.1,1,2.7c0.6,0.7,1.5,1,2.5,1c1.3,0,2.3-0.6,3.3-1.8l3.2,2.8
                    c-0.7,1-1.7,1.7-2.8,2.2c-1.1,0.5-2.4,0.8-3.9,0.8C197.3,921.2,195.8,920.9,194.6,920.2z"/>
                <path class="st43" d="M221.6,905.9v15h-5v-11.1H212v11.1h-5v-15H221.6z"/>
                <path class="st43" d="M237.4,905.9v15h-5v-3.6H231l-2.3,3.6h-5.3l3-4.3c-1-0.5-1.7-1.1-2.2-1.9c-0.5-0.8-0.8-1.8-0.8-3
                    c0-1.2,0.3-2.2,0.8-3.1c0.6-0.9,1.4-1.5,2.4-2c1-0.5,2.3-0.7,3.7-0.7H237.4z M228.5,911.6c0,1.3,0.6,1.9,1.9,1.9h2v-3.7h-2
                    C229.1,909.8,228.5,910.4,228.5,911.6z"/>
                <path class="st43" d="M239.2,905.9h5.8l-1,9.2h-3.9L239.2,905.9z M240,920.4c-0.5-0.5-0.8-1.1-0.8-1.8c0-0.7,0.3-1.3,0.8-1.8
                    c0.5-0.5,1.2-0.7,2-0.7c0.8,0,1.5,0.2,2,0.7c0.5,0.5,0.8,1.1,0.8,1.8c0,0.7-0.3,1.3-0.8,1.8c-0.5,0.5-1.2,0.7-2,0.7
                    C241.2,921.1,240.5,920.9,240,920.4z"/>
            </g>
        </g>
        <g>
            <path class="st8" d="M240.2,883.6c-0.2-1.1-0.5-2.2-1.2-3.1c-0.4-0.6-1.1-1.2-1.7-1.6c-0.7-0.4-1.4-0.7-2.2-0.8
                c-0.3-0.1-0.7-0.1-1-0.1c-0.9,0-1.8,0.2-2.6,0.5c-0.9,0.3-1.7,0.8-2.4,1.4c-0.7,0.6-1.3,1.3-1.8,2.1c-0.2,0.2-0.4,0.6-0.5,0.9
                c-0.2,0.4-0.4,0.9-0.5,1.3c0-0.1-0.1-0.1-0.1-0.2c0-0.1-0.1-0.1-0.1-0.2c0,0,0,0,0,0c-0.4-0.4-0.9-0.8-1.4-1.1
                c-0.6-0.4-1.3-0.6-2-0.8c-0.3-0.1-0.5-0.1-0.8-0.1c-0.3,0-0.6-0.1-0.8-0.1c-0.1,0-0.2,0-0.4,0c-0.4,0-0.8,0.1-1.1,0.2
                c-0.4,0.1-0.8,0.3-1.2,0.5c-0.6,0.3-1.1,0.7-1.5,1.1c-0.4,0.3-0.7,0.7-0.9,1.1c-0.6,1-0.8,2-0.9,3.1c-0.1,0.7,0,1.4,0.2,2.1
                c0.1,0.7,0.4,1.3,0.7,1.8c0.3,0.5,0.6,0.9,1,1.4c0.5,0.6,1,1.1,1.6,1.7c0.9,0.8,1.9,1.6,2.9,2.3c1.1,0.8,2.3,1.5,3.5,2.2
                c4.8,2.6,8.6,3.5,8.7,2.3c0.1-1.6,0.6-3.3,1.4-4.7c0.1-0.2,0.2-0.3,0.3-0.5c0.8-1.2,1.6-2.5,2.4-3.7c0.9-1.4,1.7-2.9,2.3-4.4
                c0.2-0.7,0.4-1.4,0.5-2.1c0-0.3,0.1-0.7,0.1-1.1C240.3,884.4,240.3,884,240.2,883.6z"/>
            <g>
                <path class="st8" d="M238.5,883.5c0.2,0.1,0.2,0.4,0.1,0.5c-0.1,0.2-0.4,0.2-0.6,0.1c-0.2-0.1-0.2-0.4-0.1-0.5
                    C238,883.4,238.3,883.3,238.5,883.5L238.5,883.5L238.5,883.5z"/>
                <path class="st8" d="M238.3,885.6c0.1,0.1,0.2,0.3,0.1,0.4c-0.1,0.1-0.3,0.2-0.4,0.1c-0.1-0.1-0.2-0.3-0.1-0.4
                    C238,885.6,238.2,885.5,238.3,885.6L238.3,885.6L238.3,885.6z"/>
                <path class="st8" d="M237.6,887.9c0.1,0.1,0.1,0.2,0,0.3c-0.1,0.1-0.2,0.1-0.3,0c-0.1-0.1-0.1-0.2,0-0.3
                    C237.3,887.8,237.5,887.8,237.6,887.9L237.6,887.9L237.6,887.9z"/>
                <path class="st8" d="M236.3,889.5c0.1,0.1,0.1,0.2,0.1,0.3c-0.1,0.1-0.2,0.1-0.3,0.1c-0.1-0.1-0.1-0.2-0.1-0.3
                    C236.1,889.5,236.2,889.5,236.3,889.5L236.3,889.5L236.3,889.5z"/>
            </g>
        </g>
        <g>
            <g>
                
                    <radialGradient id="SVGID_7_" cx="-1660.6293" cy="6292.3267" r="72.6794" gradientTransform="matrix(0.5538 0 0 4.348000e-02 1059.4963 665.6118)" gradientUnits="userSpaceOnUse">
                    <stop  offset="0.1034" style="stop-color:#E0E3E2"/>
                    <stop  offset="0.2677" style="stop-color:#E9EBEA"/>
                    <stop  offset="0.684" style="stop-color:#F9FAFA"/>
                    <stop  offset="1" style="stop-color:#FFFFFF"/>
                </radialGradient>
                <ellipse class="st10" cx="139.8" cy="939.2" rx="56.8" ry="2.7"/>
                <g>
                    <g>
                        <path class="st13" d="M138.2,894.3c1.7,4.7,6.2,8,11.4,8c5.3,0,9.7-3.3,11.4-8"/>
                        <g>
                            <path class="st14" d="M146.6,886.7c0,0.8-0.7,1.5-1.5,1.5c-0.8,0-1.5-0.7-1.5-1.5c0-0.8,0.7-1.5,1.5-1.5
                                C145.9,885.1,146.6,885.8,146.6,886.7z"/>
                            <path class="st14" d="M155.7,886.7c0,0.8-0.7,1.5-1.5,1.5c-0.8,0-1.5-0.7-1.5-1.5c0-0.8,0.7-1.5,1.5-1.5
                                C155,885.1,155.7,885.8,155.7,886.7z"/>
                        </g>
                    </g>
                    <g>
                        <path class="st15" d="M133.2,912.4c-1.4,3.8-5.1,6.6-9.4,6.6c-4.3,0-8-2.7-9.4-6.6"/>
                        <g>
                            <path class="st16" d="M126.3,906.1c0,0.7,0.6,1.2,1.2,1.2s1.2-0.6,1.2-1.2c0-0.7-0.6-1.2-1.2-1.2S126.3,905.5,126.3,906.1z"/>
                            <path class="st16" d="M118.8,906.1c0,0.7,0.6,1.2,1.2,1.2c0.7,0,1.2-0.6,1.2-1.2c0-0.7-0.6-1.2-1.2-1.2
                                C119.4,904.9,118.8,905.5,118.8,906.1z"/>
                        </g>
                        <circle class="st17" cx="123.8" cy="910.9" r="16.8"/>
                    </g>
                    <g>
                        <g>
                            <path class="st18" d="M139.7,921.1c0.9,2.4,3.2,4.1,5.9,4.1c2.7,0,5.1-1.7,5.9-4.1"/>
                            <g>
                                <path class="st19" d="M144.1,917.1c0,0.4-0.4,0.8-0.8,0.8c-0.4,0-0.8-0.4-0.8-0.8c0-0.4,0.4-0.8,0.8-0.8
                                    C143.7,916.3,144.1,916.7,144.1,917.1z"/>
                                <path class="st19" d="M148.8,917.1c0,0.4-0.4,0.8-0.8,0.8c-0.4,0-0.8-0.4-0.8-0.8c0-0.4,0.4-0.8,0.8-0.8
                                    C148.4,916.3,148.8,916.7,148.8,917.1z"/>
                            </g>
                        </g>
                    </g>
                    <circle class="st20" cx="148.7" cy="891.3" r="20.1"/>
                    <circle class="st21" cx="146.1" cy="919.7" r="10.6"/>
                </g>
            </g>
        </g>
    </g>
    <g>
        <path class="st43" d="M116.4,53.7V61h-1v-3.3h-4.2V61h-1v-7.3h1v3.2h4.2v-3.2H116.4z"/>
        <path class="st43" d="M123.5,55.5l-2.7,6.1c-0.2,0.6-0.5,1-0.8,1.2c-0.3,0.2-0.7,0.3-1.1,0.3c-0.3,0-0.5,0-0.8-0.1
            c-0.3-0.1-0.5-0.2-0.6-0.4l0.4-0.8c0.3,0.3,0.6,0.4,1,0.4c0.2,0,0.4-0.1,0.6-0.2s0.3-0.4,0.4-0.7L120,61l-2.5-5.5h1l1.9,4.4
            l1.9-4.4H123.5z"/>
        <path class="st43" d="M129.2,58.7h-1.1V61h-1v-2.3H126l-1.5,2.3h-1.2l1.9-2.9l-1.8-2.7h1.1l1.5,2.3h1.1v-2.3h1v2.3h1.1l1.5-2.3h1.1
            l-1.8,2.7l1.9,2.9h-1.2L129.2,58.7z"/>
        <path class="st43" d="M138.7,60.2v2.2h-0.9V61h-4.6v1.3h-1v-2.2h0.3c0.4,0,0.6-0.3,0.7-0.8c0.1-0.5,0.2-1.2,0.3-2l0.1-1.9h4.3v4.7
            H138.7z M134.2,59.2c-0.1,0.5-0.2,0.8-0.5,1h3.1v-3.8h-2.4l-0.1,1.1C134.4,58.1,134.3,58.7,134.2,59.2z"/>
        <path class="st43" d="M143.8,56c0.4,0.4,0.6,0.9,0.6,1.7V61h-1v-0.7c-0.2,0.3-0.4,0.5-0.7,0.6c-0.3,0.1-0.7,0.2-1.1,0.2
            c-0.6,0-1.1-0.1-1.5-0.5c-0.4-0.3-0.6-0.7-0.6-1.2c0-0.5,0.2-0.9,0.5-1.2c0.4-0.3,0.9-0.4,1.7-0.4h1.6v-0.2c0-0.4-0.1-0.8-0.4-1
            c-0.3-0.2-0.6-0.3-1.1-0.3c-0.3,0-0.6,0.1-1,0.2c-0.3,0.1-0.6,0.3-0.8,0.4l-0.4-0.8c0.3-0.2,0.6-0.4,1-0.5c0.4-0.1,0.8-0.2,1.3-0.2
            C142.8,55.4,143.3,55.6,143.8,56z M142.8,60.1c0.3-0.2,0.5-0.4,0.6-0.7v-0.8h-1.5c-0.9,0-1.3,0.3-1.3,0.9c0,0.3,0.1,0.5,0.3,0.7
            c0.2,0.2,0.5,0.2,0.9,0.2C142.1,60.3,142.5,60.3,142.8,60.1z"/>
        <path class="st43" d="M151.2,58.6h-4.5c0.1,0.5,0.3,0.9,0.6,1.2c0.4,0.3,0.8,0.4,1.4,0.4c0.7,0,1.2-0.2,1.6-0.7l0.6,0.6
            c-0.3,0.3-0.6,0.5-0.9,0.7c-0.4,0.2-0.8,0.2-1.3,0.2c-0.6,0-1.1-0.1-1.6-0.4c-0.5-0.2-0.8-0.6-1.1-1c-0.2-0.4-0.4-0.9-0.4-1.5
            c0-0.5,0.1-1,0.4-1.5c0.2-0.4,0.6-0.8,1-1c0.4-0.2,0.9-0.4,1.4-0.4c0.5,0,1,0.1,1.4,0.4c0.4,0.2,0.7,0.6,1,1s0.4,0.9,0.4,1.5
            C151.2,58.4,151.2,58.5,151.2,58.6z M147.2,56.7c-0.3,0.3-0.5,0.7-0.6,1.2h3.6c-0.1-0.5-0.2-0.8-0.6-1.1s-0.7-0.4-1.2-0.4
            C148,56.3,147.6,56.4,147.2,56.7z"/>
        <path class="st43" d="M160.7,55.5V61h-7.9v-5.5h1v4.7h2.5v-4.7h1v4.7h2.4v-4.7H160.7z"/>
        <path class="st43" d="M166.3,60.7c-0.4-0.2-0.8-0.6-1-1c-0.3-0.4-0.4-0.9-0.4-1.5c0-0.5,0.1-1,0.4-1.5c0.3-0.4,0.6-0.8,1-1
            c0.4-0.2,0.9-0.4,1.5-0.4c0.5,0,1,0.1,1.3,0.3c0.4,0.2,0.7,0.5,0.9,0.9l-0.8,0.5c-0.2-0.3-0.4-0.5-0.6-0.6s-0.5-0.2-0.9-0.2
            c-0.4,0-0.7,0.1-1,0.2c-0.3,0.2-0.5,0.4-0.7,0.7c-0.2,0.3-0.2,0.6-0.2,1c0,0.4,0.1,0.7,0.2,1c0.2,0.3,0.4,0.5,0.7,0.7
            c0.3,0.2,0.6,0.2,1,0.2c0.3,0,0.6-0.1,0.9-0.2s0.5-0.3,0.6-0.6l0.8,0.5c-0.2,0.4-0.5,0.7-0.9,0.9c-0.4,0.2-0.8,0.3-1.3,0.3
            C167.3,61.1,166.8,61,166.3,60.7z"/>
        <path class="st43" d="M176.3,58.6h-4.5c0.1,0.5,0.3,0.9,0.6,1.2c0.4,0.3,0.8,0.4,1.4,0.4c0.7,0,1.2-0.2,1.6-0.7l0.6,0.6
            c-0.3,0.3-0.6,0.5-0.9,0.7c-0.4,0.2-0.8,0.2-1.3,0.2c-0.6,0-1.1-0.1-1.6-0.4c-0.5-0.2-0.8-0.6-1.1-1c-0.2-0.4-0.4-0.9-0.4-1.5
            c0-0.5,0.1-1,0.4-1.5c0.2-0.4,0.6-0.8,1-1c0.4-0.2,0.9-0.4,1.4-0.4c0.5,0,1,0.1,1.4,0.4c0.4,0.2,0.7,0.6,1,1s0.4,0.9,0.4,1.5
            C176.3,58.4,176.3,58.5,176.3,58.6z M172.4,56.7c-0.3,0.3-0.5,0.7-0.6,1.2h3.6c-0.1-0.5-0.2-0.8-0.6-1.1s-0.7-0.4-1.2-0.4
            C173.1,56.3,172.7,56.4,172.4,56.7z"/>
        <path class="st43" d="M110.8,71.2c-0.4-0.2-0.8-0.6-1-1c-0.2-0.4-0.4-0.9-0.4-1.5c0-0.5,0.1-1,0.4-1.5c0.2-0.4,0.6-0.8,1-1
            c0.4-0.2,0.9-0.4,1.5-0.4c0.6,0,1,0.1,1.5,0.4c0.4,0.2,0.8,0.6,1,1c0.2,0.4,0.4,0.9,0.4,1.5c0,0.5-0.1,1-0.4,1.5
            c-0.2,0.4-0.6,0.8-1,1c-0.4,0.2-0.9,0.4-1.5,0.4C111.7,71.6,111.2,71.5,110.8,71.2z M113.2,70.5c0.3-0.2,0.5-0.4,0.7-0.7
            s0.2-0.6,0.2-1s-0.1-0.7-0.2-1s-0.4-0.5-0.7-0.7c-0.3-0.2-0.6-0.2-1-0.2s-0.7,0.1-1,0.2c-0.3,0.2-0.5,0.4-0.7,0.7
            c-0.2,0.3-0.2,0.6-0.2,1s0.1,0.7,0.2,1c0.2,0.3,0.4,0.5,0.7,0.7s0.6,0.2,1,0.2S113,70.6,113.2,70.5z"/>
        <path class="st43" d="M120.6,66.8h-2v4.7h-1v-4.7h-2V66h5.1V66.8z"/>
        <path class="st43" d="M125.3,71.2c-0.4-0.2-0.8-0.6-1-1c-0.3-0.4-0.4-0.9-0.4-1.5c0-0.5,0.1-1,0.4-1.5c0.3-0.4,0.6-0.8,1-1
            c0.4-0.2,0.9-0.4,1.5-0.4c0.5,0,1,0.1,1.3,0.3c0.4,0.2,0.7,0.5,0.9,0.9l-0.8,0.5c-0.2-0.3-0.4-0.5-0.6-0.6s-0.5-0.2-0.9-0.2
            c-0.4,0-0.7,0.1-1,0.2c-0.3,0.2-0.5,0.4-0.7,0.7c-0.2,0.3-0.2,0.6-0.2,1c0,0.4,0.1,0.7,0.2,1c0.2,0.3,0.4,0.5,0.7,0.7
            c0.3,0.2,0.6,0.2,1,0.2c0.3,0,0.6-0.1,0.9-0.2s0.5-0.3,0.6-0.6l0.8,0.5c-0.2,0.4-0.5,0.7-0.9,0.9c-0.4,0.2-0.8,0.3-1.3,0.3
            C126.2,71.6,125.7,71.5,125.3,71.2z"/>
        <path class="st43" d="M134.8,66.3c0.4,0.2,0.8,0.6,1,1c0.2,0.4,0.4,0.9,0.4,1.5s-0.1,1.1-0.4,1.5c-0.2,0.4-0.6,0.8-1,1
            c-0.4,0.2-0.9,0.4-1.4,0.4c-0.4,0-0.8-0.1-1.1-0.2c-0.3-0.2-0.6-0.4-0.8-0.7v2.9h-1V66h1v0.9c0.2-0.3,0.5-0.5,0.8-0.7
            c0.3-0.2,0.7-0.2,1.1-0.2C133.9,65.9,134.3,66,134.8,66.3z M134.2,70.5c0.3-0.2,0.5-0.4,0.7-0.7s0.2-0.6,0.2-1s-0.1-0.7-0.2-1
            s-0.4-0.5-0.7-0.7c-0.3-0.2-0.6-0.2-1-0.2c-0.3,0-0.7,0.1-0.9,0.2s-0.5,0.4-0.7,0.7c-0.2,0.3-0.2,0.6-0.2,1s0.1,0.7,0.2,1
            s0.4,0.5,0.7,0.7s0.6,0.2,1,0.2C133.6,70.7,133.9,70.6,134.2,70.5z"/>
        <path class="st43" d="M142.6,69.1h-4.5c0.1,0.5,0.3,0.9,0.6,1.2c0.4,0.3,0.8,0.4,1.4,0.4c0.7,0,1.2-0.2,1.6-0.7l0.6,0.6
            c-0.3,0.3-0.6,0.5-0.9,0.7c-0.4,0.2-0.8,0.2-1.3,0.2c-0.6,0-1.1-0.1-1.6-0.4c-0.5-0.2-0.8-0.6-1.1-1c-0.2-0.4-0.4-0.9-0.4-1.5
            c0-0.5,0.1-1,0.4-1.5c0.2-0.4,0.6-0.8,1-1c0.4-0.2,0.9-0.4,1.4-0.4c0.5,0,1,0.1,1.4,0.4c0.4,0.2,0.7,0.6,1,1s0.4,0.9,0.4,1.5
            C142.6,68.8,142.6,68.9,142.6,69.1z M138.6,67.2c-0.3,0.3-0.5,0.7-0.6,1.2h3.6c-0.1-0.5-0.2-0.8-0.6-1.1s-0.7-0.4-1.2-0.4
            C139.4,66.8,139,66.9,138.6,67.2z"/>
        <path class="st43" d="M149.7,70.6v2.2h-0.9v-1.3h-4.6v1.3h-1v-2.2h0.3c0.4,0,0.6-0.3,0.7-0.8c0.1-0.5,0.2-1.2,0.3-2l0.1-1.9h4.3
            v4.7H149.7z M145.2,69.6c-0.1,0.5-0.2,0.8-0.5,1h3.1v-3.8h-2.4l-0.1,1.1C145.4,68.6,145.3,69.2,145.2,69.6z"/>
        <path class="st43" d="M151.9,71.2c-0.4-0.2-0.8-0.6-1-1c-0.3-0.4-0.4-0.9-0.4-1.5c0-0.5,0.1-1,0.4-1.5c0.3-0.4,0.6-0.8,1-1
            c0.4-0.2,0.9-0.4,1.5-0.4c0.5,0,1,0.1,1.3,0.3c0.4,0.2,0.7,0.5,0.9,0.9l-0.8,0.5c-0.2-0.3-0.4-0.5-0.6-0.6s-0.5-0.2-0.9-0.2
            c-0.4,0-0.7,0.1-1,0.2c-0.3,0.2-0.5,0.4-0.7,0.7c-0.2,0.3-0.2,0.6-0.2,1c0,0.4,0.1,0.7,0.2,1c0.2,0.3,0.4,0.5,0.7,0.7
            c0.3,0.2,0.6,0.2,1,0.2c0.3,0,0.6-0.1,0.9-0.2s0.5-0.3,0.6-0.6l0.8,0.5c-0.2,0.4-0.5,0.7-0.9,0.9c-0.4,0.2-0.8,0.3-1.3,0.3
            C152.9,71.6,152.4,71.5,151.9,71.2z"/>
        <path class="st43" d="M161.1,66.8h-2v4.7h-1v-4.7h-2V66h5.1V66.8z"/>
        <path class="st43" d="M166.9,70c0,0.5-0.2,0.9-0.5,1.1c-0.4,0.3-0.9,0.4-1.6,0.4h-2.7V66h2.6c0.7,0,1.2,0.1,1.5,0.4
            s0.6,0.6,0.6,1.1c0,0.3-0.1,0.5-0.2,0.8c-0.2,0.2-0.4,0.4-0.7,0.5C166.6,68.8,166.9,69.3,166.9,70z M163.1,68.4h1.5
            c0.4,0,0.7-0.1,0.9-0.2c0.2-0.1,0.3-0.3,0.3-0.6c0-0.5-0.4-0.8-1.2-0.8h-1.5V68.4z M165.6,70.5c0.2-0.1,0.3-0.3,0.3-0.6
            c0-0.3-0.1-0.5-0.3-0.6s-0.5-0.2-0.9-0.2h-1.7v1.7h1.6C165.1,70.7,165.4,70.7,165.6,70.5z"/>
        <path class="st43" d="M172.3,66.5c0.4,0.4,0.6,0.9,0.6,1.7v3.4h-1v-0.7c-0.2,0.3-0.4,0.5-0.7,0.6c-0.3,0.1-0.7,0.2-1.1,0.2
            c-0.6,0-1.1-0.1-1.5-0.5c-0.4-0.3-0.6-0.7-0.6-1.2c0-0.5,0.2-0.9,0.5-1.2c0.4-0.3,0.9-0.4,1.7-0.4h1.6v-0.2c0-0.4-0.1-0.8-0.4-1
            c-0.3-0.2-0.6-0.3-1.1-0.3c-0.3,0-0.6,0.1-1,0.2c-0.3,0.1-0.6,0.3-0.8,0.4l-0.4-0.8c0.3-0.2,0.6-0.4,1-0.5c0.4-0.1,0.8-0.2,1.3-0.2
            C171.3,65.9,171.8,66.1,172.3,66.5z M171.3,70.5c0.3-0.2,0.5-0.4,0.6-0.7V69h-1.5c-0.9,0-1.3,0.3-1.3,0.9c0,0.3,0.1,0.5,0.3,0.7
            c0.2,0.2,0.5,0.2,0.9,0.2C170.6,70.8,171,70.7,171.3,70.5z"/>
        <path class="st43" d="M181.4,69.1c0.2,0.2,0.3,0.5,0.3,0.8c0,0.3-0.1,0.6-0.3,0.9c-0.2,0.3-0.5,0.5-0.9,0.6
            c-0.4,0.1-0.8,0.2-1.3,0.2c-0.4,0-0.8-0.1-1.2-0.2c-0.4-0.1-0.7-0.3-1.1-0.5l0.3-0.8c0.3,0.2,0.6,0.3,0.9,0.4
            c0.3,0.1,0.7,0.1,1,0.1c0.5,0,0.9-0.1,1.1-0.2s0.4-0.4,0.4-0.7c0-0.3-0.1-0.5-0.3-0.6c-0.2-0.1-0.5-0.2-1-0.2h-1v-0.7h0.9
            c0.4,0,0.7-0.1,0.9-0.2s0.3-0.3,0.3-0.5c0-0.3-0.1-0.4-0.4-0.6s-0.6-0.2-1-0.2c-0.6,0-1.1,0.1-1.7,0.4l-0.3-0.8
            c0.7-0.3,1.4-0.5,2.1-0.5c0.4,0,0.8,0.1,1.2,0.2s0.6,0.3,0.8,0.5c0.2,0.2,0.3,0.5,0.3,0.8c0,0.3-0.1,0.5-0.3,0.7
            c-0.2,0.2-0.4,0.4-0.7,0.5C180.9,68.7,181.2,68.9,181.4,69.1z"/>
        <path class="st43" d="M186.9,66.5c0.4,0.4,0.6,0.9,0.6,1.7v3.4h-1v-0.7c-0.2,0.3-0.4,0.5-0.7,0.6c-0.3,0.1-0.7,0.2-1.1,0.2
            c-0.6,0-1.1-0.1-1.5-0.5c-0.4-0.3-0.6-0.7-0.6-1.2c0-0.5,0.2-0.9,0.5-1.2c0.4-0.3,0.9-0.4,1.7-0.4h1.6v-0.2c0-0.4-0.1-0.8-0.4-1
            c-0.3-0.2-0.6-0.3-1.1-0.3c-0.3,0-0.6,0.1-1,0.2c-0.3,0.1-0.6,0.3-0.8,0.4l-0.4-0.8c0.3-0.2,0.6-0.4,1-0.5c0.4-0.1,0.8-0.2,1.3-0.2
            C185.9,65.9,186.5,66.1,186.9,66.5z M185.9,70.5c0.3-0.2,0.5-0.4,0.6-0.7V69H185c-0.9,0-1.3,0.3-1.3,0.9c0,0.3,0.1,0.5,0.3,0.7
            c0.2,0.2,0.5,0.2,0.9,0.2C185.3,70.8,185.7,70.7,185.9,70.5z"/>
    </g>
    <g>
        <path class="st43" d="M117.7,75.2v8.4h-1.9v-6.8h-2.9l-0.1,1.8c0,1.2-0.1,2.2-0.3,2.9s-0.4,1.3-0.8,1.7c-0.4,0.4-0.9,0.6-1.5,0.6
            c-0.3,0-0.6,0-1-0.1l0.1-1.6c0.1,0,0.2,0,0.3,0c0.5,0,0.8-0.3,1-0.8s0.3-1.4,0.3-2.6l0.1-3.4H117.7z"/>
        <path class="st43" d="M126.3,82.1v1.6h-6.5v-8.4h6.3v1.6h-4.4v1.8h3.9v1.5h-3.9v1.9H126.3z"/>
        <path class="st43" d="M134.8,75.2v8.4h-1.9v-3c-0.7,0.3-1.4,0.4-2,0.4c-1.1,0-2-0.3-2.6-0.8c-0.6-0.5-0.9-1.3-0.9-2.3v-2.6h1.9v2.4
            c0,0.6,0.2,1,0.5,1.3c0.3,0.3,0.8,0.4,1.3,0.4c0.6,0,1.2-0.1,1.8-0.4v-3.8H134.8z"/>
        <path class="st43" d="M143.4,82.1v1.6h-6.5v-8.4h6.3v1.6h-4.4v1.8h3.9v1.5h-3.9v1.9H143.4z"/>
        <path class="st43" d="M152.7,75.2v8.4h-1.9v-3.4h-3.8v3.4H145v-8.4h1.9v3.3h3.8v-3.3H152.7z"/>
        <path class="st43" d="M154.8,75.2h1.9v5.5l4-5.5h1.8v8.4h-1.9v-5.5l-4,5.5h-1.8V75.2z"/>
        <path class="st43" d="M171.1,82.1v1.6h-6.5v-8.4h6.3v1.6h-4.4v1.8h3.9v1.5h-3.9v1.9H171.1z"/>
    </g>
    <g>
        <polygon class="st26" points="151.7,19.1 139.6,19.1 139.6,6.9 127.9,6.9 127.9,19.1 115.8,19.1 115.8,30.8 127.9,30.8 127.9,43 
            139.6,43 139.6,30.8 151.7,30.8 	"/>
        
            <radialGradient id="SVGID_8_" cx="-1965.3282" cy="2394.7195" r="59.465" gradientTransform="matrix(0.296 0 0 5.423031e-02 716.5898 -83.3857)" gradientUnits="userSpaceOnUse">
            <stop  offset="0.1034" style="stop-color:#E0E3E2"/>
            <stop  offset="0.2677" style="stop-color:#E9EBEA"/>
            <stop  offset="0.684" style="stop-color:#F9FAFA"/>
            <stop  offset="1" style="stop-color:#FFFFFF"/>
        </radialGradient>
        <ellipse class="st12" cx="134.9" cy="46.5" rx="24.8" ry="2.7"/>
    </g>
    <path class="st7" d="M155.2,6.8c0,0-0.6,5.8-5.2,6.2c4.6,0.4,5.2,6.2,5.2,6.2s0.6-5.8,5.2-6.2C155.8,12.7,155.2,6.8,155.2,6.8z"/>
    <path class="st7" d="M164,18c0,0-0.4,3.6-3.2,3.9c2.9,0.3,3.2,3.9,3.2,3.9s0.4-3.6,3.2-3.9C164.4,21.6,164,18,164,18z"/>
    <path class="st61" d="M177.4,83.7c12.6,1.2,33.5,5,55.4,18c12.9,7.7,22.4,16.3,29,23.4"/>
    <path class="st28" d="M63.2,581.5l41.4,18.6l-41.4,18.8l0.1-16.1l33-2.5l-33.1-2.6C63.1,597.6,63.1,581.4,63.2,581.5z"/>
    <radialGradient id="SVGID_9_" cx="-1740.269" cy="5281.6357" r="59.0436" gradientTransform="matrix(0.5538 0 0 4.348000e-02 1059.4963 270.1083)" gradientUnits="userSpaceOnUse">
        <stop  offset="0.1034" style="stop-color:#E0E3E2"/>
        <stop  offset="0.2677" style="stop-color:#E9EBEA"/>
        <stop  offset="0.684" style="stop-color:#F9FAFA"/>
        <stop  offset="1" style="stop-color:#FFFFFF"/>
    </radialGradient>
    <ellipse class="st27" cx="95.7" cy="499.8" rx="46.2" ry="2.2"/>
    <g>
        <path class="st43" d="M228,337.2c-0.7-0.4-1.3-1-1.8-1.7c-0.4-0.7-0.6-1.5-0.6-2.4c0-0.9,0.2-1.7,0.6-2.4c0.4-0.7,1-1.3,1.8-1.7
            c0.7-0.4,1.6-0.6,2.5-0.6c0.9,0,1.8,0.2,2.5,0.6c0.7,0.4,1.3,1,1.8,1.7c0.4,0.7,0.6,1.5,0.6,2.4c0,0.9-0.2,1.7-0.6,2.4
            c-0.4,0.7-1,1.3-1.8,1.7s-1.6,0.6-2.5,0.6C229.6,337.8,228.8,337.6,228,337.2z M232.2,335.9c0.5-0.3,0.9-0.7,1.2-1.1
            c0.3-0.5,0.4-1,0.4-1.7c0-0.6-0.1-1.2-0.4-1.7c-0.3-0.5-0.7-0.9-1.1-1.2c-0.5-0.3-1-0.4-1.6-0.4c-0.6,0-1.2,0.1-1.6,0.4
            c-0.5,0.3-0.9,0.7-1.2,1.1c-0.3,0.5-0.4,1-0.4,1.7c0,0.6,0.1,1.2,0.4,1.7c0.3,0.5,0.7,0.9,1.1,1.2c0.5,0.3,1,0.4,1.6,0.4
            C231.2,336.3,231.7,336.2,232.2,335.9z"/>
        <path class="st43" d="M246.2,336.3l0,3.4l-1.6,0l0-1.9l-7,0l0,1.9l-1.6,0l0-3.4l0.4,0c0.6,0,1-0.4,1.2-1.3c0.2-0.8,0.4-2,0.4-3.5
            l0.1-2.9l6.7,0l0,7.7L246.2,336.3z M239.2,334.6c-0.1,0.8-0.4,1.4-0.7,1.7l4.6,0l0-6.3l-3.6,0l-0.1,1.6
            C239.5,332.8,239.4,333.8,239.2,334.6z"/>
        <path class="st43" d="M249.5,337.3c-0.7-0.4-1.3-1-1.8-1.7c-0.4-0.7-0.6-1.5-0.6-2.4c0-0.9,0.2-1.7,0.6-2.4c0.4-0.7,1-1.3,1.8-1.7
            c0.7-0.4,1.6-0.6,2.5-0.6c0.9,0,1.8,0.2,2.5,0.6c0.7,0.4,1.3,1,1.8,1.7c0.4,0.7,0.6,1.5,0.6,2.4c0,0.9-0.2,1.7-0.6,2.4
            c-0.4,0.7-1,1.3-1.8,1.7s-1.6,0.6-2.5,0.6C251,337.9,250.2,337.7,249.5,337.3z M253.6,336c0.5-0.3,0.9-0.7,1.2-1.1
            c0.3-0.5,0.4-1,0.4-1.7c0-0.6-0.1-1.2-0.4-1.7c-0.3-0.5-0.7-0.9-1.1-1.2c-0.5-0.3-1-0.4-1.6-0.4c-0.6,0-1.2,0.1-1.6,0.4
            c-0.5,0.3-0.9,0.7-1.2,1.1c-0.3,0.5-0.4,1-0.4,1.7c0,0.6,0.1,1.2,0.4,1.7c0.3,0.5,0.7,0.9,1.1,1.2c0.5,0.3,1,0.4,1.6,0.4
            C252.6,336.4,253.1,336.2,253.6,336z"/>
        <path class="st43" d="M258.8,328.6l7.1,0l0,1.4l-5.4,0l0,2.2l2.7,0c1.1,0,1.9,0.2,2.5,0.7c0.6,0.5,0.9,1.1,0.9,2
            c0,0.9-0.3,1.6-0.9,2.1c-0.6,0.5-1.5,0.7-2.7,0.7l-4.1,0L258.8,328.6z M262.8,336.4c0.7,0,1.1-0.1,1.5-0.4c0.3-0.3,0.5-0.6,0.5-1.1
            c0-0.9-0.7-1.4-2-1.4l-2.4,0l0,2.9L262.8,336.4z"/>
        <path class="st43" d="M274.2,329c0.6,0.3,1,0.6,1.3,1.1c0.3,0.5,0.5,1.1,0.5,1.7c0,0.7-0.2,1.2-0.5,1.7c-0.3,0.5-0.8,0.9-1.4,1.1
            c-0.6,0.3-1.3,0.4-2.1,0.4l-2.1,0l0,2.6l-1.7,0l0-9.1l3.8,0C273,328.6,273.6,328.8,274.2,329z M273.8,333.2
            c0.4-0.3,0.6-0.8,0.6-1.3c0-0.6-0.2-1-0.6-1.3c-0.4-0.3-0.9-0.5-1.7-0.5l-2,0l0,3.6l2,0C272.8,333.7,273.4,333.5,273.8,333.2z"/>
        <path class="st43" d="M284.5,336.4l0,1.4l-6.9,0l0-9.1l6.7,0l0,1.4l-5,0l0,2.4l4.4,0l0,1.4l-4.4,0l0,2.5L284.5,336.4z"/>
        <path class="st43" d="M294.5,328.7l0,9.1l-1.7,0l0-3.9l-4.7,0l0,3.9l-1.7,0l0-9.1l1.7,0l0,3.8l4.7,0l0-3.8L294.5,328.7z"/>
        <path class="st43" d="M297.1,328.7l1.7,0l0,6.5l4.9-6.5l1.6,0l0,9.1l-1.7,0l0-6.5l-4.9,6.5l-1.6,0L297.1,328.7z"/>
        <path class="st43" d="M314.7,336.4l0,1.4l-6.9,0l0-9.1l6.7,0l0,1.4l-5,0l0,2.4l4.4,0l0,1.4l-4.4,0l0,2.5L314.7,336.4z"/>
    </g>
    <circle class="st0" cx="267.4" cy="296.2" r="21.5"/>
    <g>
        <g>
            <path class="st1" d="M261.6,307.6c-0.7,0-1.1,0-1.1,0h-0.7V295l0.2-0.2c1.4-1.4,2.4-3.2,3.5-4.9c0.2-0.4,0.4-0.8,0.7-1.1l0,0
                c0.4-0.6,0.4-2,0.4-3c0-1,0-1.8,0.3-2.3c0.3-0.4,0.7-0.7,1.3-0.7c1-0.1,2,0.4,2.5,1.4c1.5,3.1,1.2,5,0.7,7.6
                c-0.1,0.4-0.1,0.7-0.2,1.1c1,0,2.1,0,3.1,0c1.1,0,2.3,0,3.5,0c0.9,0,2,0.2,2.6,0.9c0.2,0.3,0.5,0.8,0.3,1.5
                c-0.1,0.8-0.5,1.4-1.1,1.9c0.4,0.4,0.6,1,0.5,1.6c-0.1,0.7-0.5,1.4-1.1,1.8c0.3,0.4,0.5,0.8,0.5,1.4c0,0.8-0.5,1.6-1.1,2.1
                c0.4,0.5,0.5,1,0.4,1.6c-0.3,1.2-1.6,2.1-2.9,2.1C270.5,307.6,264.2,307.6,261.6,307.6z M261.2,306.2c2.2,0,9.1,0,12.5,0
                c0.8,0,1.5-0.6,1.6-1.1c0-0.1,0.1-0.3-0.3-0.6c-0.4-0.1-0.6-0.5-0.6-0.9c0-0.4,0.4-0.7,0.8-0.8c0.5-0.2,0.8-0.7,0.8-1.1
                c0-0.4-0.3-0.6-0.5-0.6l-0.1,0l0,0c-0.4-0.2-0.5-0.5-0.5-0.9c0.1-0.4,0.5-0.6,0.8-0.7c0.4-0.1,0.8-0.6,0.8-1
                c0-0.4-0.1-0.5-0.3-0.6l0,0c0,0,0,0-0.1,0c-0.2-0.1-0.5-0.2-0.6-0.6l0-0.1l0-0.1c-0.1-0.4,0.1-0.8,0.5-0.9l0.1,0l0.1,0
                c0.6-0.2,0.9-0.6,1-1.2l0,0c0-0.3,0-0.4-0.1-0.4c-0.1-0.2-0.5-0.3-1.6-0.4c-1.1,0-2.3,0-3.4,0c-1.3,0-2.7,0-4,0l-0.8,0l0.1-0.8
                c0.1-0.7,0.2-1.4,0.3-1.9c0.5-2.6,0.8-4.1-0.5-6.8c-0.2-0.4-0.7-0.7-1.1-0.6c-0.2,0-0.3,0.1-0.3,0.1c-0.1,0.2-0.1,1-0.1,1.6
                c0,1.3,0.1,2.8-0.6,3.8c-0.2,0.4-0.4,0.7-0.6,1.1c-1,1.8-2,3.6-3.5,5V306.2z"/>
        </g>
        <g>
            <path class="st1" d="M260,307.6h-2.7c-0.6,0-1.2-0.5-1.2-1.2v-10.6c0-0.6,0.5-1.2,1.2-1.2h2.7c0.6,0,1.2,0.5,1.2,1.2v10.6
                C261.1,307,260.6,307.6,260,307.6z M257.5,306.2h2.3V296h-2.3V306.2z"/>
        </g>
    </g>
    <radialGradient id="SVGID_10_" cx="-1425.2189" cy="4873.1787" r="59.465" gradientTransform="matrix(0.5538 0 0 4.348000e-02 1059.4963 110.2709)" gradientUnits="userSpaceOnUse">
        <stop  offset="0.1034" style="stop-color:#E0E3E2"/>
        <stop  offset="0.2677" style="stop-color:#E9EBEA"/>
        <stop  offset="0.684" style="stop-color:#F9FAFA"/>
        <stop  offset="1" style="stop-color:#FFFFFF"/>
    </radialGradient>
    <ellipse class="st30" cx="270.2" cy="322.2" rx="46.5" ry="2.2"/>
    <g>
        <g>
            <path class="st43" d="M41.7,311v8h-1.8v-6.5h-3.6v6.5h-1.8v-8H41.7z"/>
            <path class="st43" d="M44.7,318.8c-0.5-0.3-0.9-0.6-1.2-1.1c-0.3-0.5-0.4-1-0.4-1.6c0-0.6,0.1-1.2,0.4-1.6
                c0.3-0.5,0.7-0.9,1.2-1.1c0.5-0.3,1.1-0.4,1.8-0.4s1.2,0.1,1.7,0.4c0.5,0.3,0.9,0.6,1.2,1.1s0.4,1,0.4,1.6s-0.1,1.2-0.4,1.6
                c-0.3,0.5-0.7,0.9-1.2,1.1c-0.5,0.3-1.1,0.4-1.7,0.4C45.8,319.2,45.2,319,44.7,318.8z M47.6,317.2c0.3-0.3,0.4-0.7,0.4-1.2
                s-0.1-0.9-0.4-1.2c-0.3-0.3-0.7-0.5-1.1-0.5c-0.5,0-0.8,0.2-1.1,0.5c-0.3,0.3-0.4,0.7-0.4,1.2s0.1,0.9,0.4,1.2
                c0.3,0.3,0.7,0.5,1.1,0.5C46.9,317.7,47.3,317.5,47.6,317.2z"/>
            <path class="st43" d="M57.4,312.9v5.1c0,1.1-0.3,2-0.9,2.5c-0.6,0.6-1.5,0.8-2.6,0.8c-0.6,0-1.2-0.1-1.7-0.2
                c-0.5-0.1-1-0.4-1.3-0.6l0.7-1.3c0.3,0.2,0.6,0.4,1,0.5c0.4,0.1,0.8,0.2,1.2,0.2c0.6,0,1.1-0.1,1.4-0.4c0.3-0.3,0.4-0.7,0.4-1.3
                V318c-0.5,0.5-1.1,0.8-2,0.8c-0.6,0-1.1-0.1-1.6-0.4c-0.5-0.2-0.8-0.6-1.1-1.1c-0.3-0.5-0.4-1-0.4-1.6c0-0.6,0.1-1.1,0.4-1.6
                c0.3-0.5,0.6-0.8,1.1-1.1c0.5-0.2,1-0.4,1.6-0.4c0.9,0,1.6,0.3,2,0.9v-0.8L57.4,312.9L57.4,312.9z M55.2,316.9
                c0.3-0.3,0.5-0.6,0.5-1.1s-0.2-0.8-0.5-1.1c-0.3-0.3-0.7-0.4-1.2-0.4c-0.5,0-0.9,0.1-1.2,0.4c-0.3,0.3-0.5,0.6-0.5,1.1
                c0,0.5,0.2,0.8,0.5,1.1c0.3,0.3,0.7,0.4,1.2,0.4C54.5,317.3,54.9,317.2,55.2,316.9z"/>
            <path class="st43" d="M61.8,316.7h-0.9v2.3h-1.8v-8.5h1.8v4.7h1l1.7-2.4h1.9l-2.2,3l2.3,3.2h-2.1L61.8,316.7z"/>
            <path class="st43" d="M71.7,313.2c0.5,0.3,0.8,0.6,1.1,1.1c0.3,0.5,0.4,1,0.4,1.7s-0.1,1.2-0.4,1.7c-0.3,0.5-0.6,0.8-1.1,1.1
                c-0.5,0.3-1,0.4-1.6,0.4c-0.8,0-1.4-0.2-1.9-0.7v2.9h-1.8v-8.4h1.7v0.7c0.4-0.5,1.1-0.8,1.9-0.8C70.7,312.8,71.2,312.9,71.7,313.2
                z M70.9,317.2c0.3-0.3,0.4-0.7,0.4-1.2s-0.1-0.9-0.4-1.2c-0.3-0.3-0.7-0.5-1.1-0.5s-0.8,0.2-1.1,0.5c-0.3,0.3-0.4,0.7-0.4,1.2
                s0.1,0.9,0.4,1.2c0.3,0.3,0.7,0.5,1.1,0.5S70.6,317.5,70.9,317.2z"/>
            <path class="st43" d="M80.4,316.5h-4.7c0.1,0.4,0.3,0.7,0.6,0.9c0.3,0.2,0.7,0.3,1.2,0.3c0.3,0,0.6,0,0.9-0.1s0.5-0.2,0.7-0.5l1,1
                c-0.6,0.7-1.4,1-2.6,1c-0.7,0-1.3-0.1-1.8-0.4c-0.5-0.3-0.9-0.6-1.2-1.1c-0.3-0.5-0.4-1-0.4-1.6c0-0.6,0.1-1.2,0.4-1.6
                s0.7-0.9,1.2-1.1c0.5-0.3,1.1-0.4,1.7-0.4c0.6,0,1.2,0.1,1.6,0.4c0.5,0.3,0.9,0.6,1.2,1.1s0.4,1.1,0.4,1.7
                C80.4,316,80.4,316.2,80.4,316.5z M76.2,314.5c-0.3,0.2-0.4,0.5-0.5,0.9h3c-0.1-0.4-0.2-0.7-0.5-0.9c-0.3-0.2-0.6-0.4-1-0.4
                C76.8,314.2,76.5,314.3,76.2,314.5z"/>
            <path class="st43" d="M87.4,313.5c0.5,0.5,0.7,1.1,0.7,2v3.5h-1.8v-3.3c0-0.5-0.1-0.9-0.3-1.1c-0.2-0.2-0.5-0.4-0.9-0.4
                c-0.5,0-0.8,0.1-1.1,0.4c-0.3,0.3-0.4,0.7-0.4,1.2v3.1h-1.8v-6.2h1.7v0.7c0.2-0.3,0.5-0.5,0.9-0.6c0.4-0.1,0.7-0.2,1.2-0.2
                C86.3,312.8,87,313,87.4,313.5z"/>
            <path class="st43" d="M95.8,312.9v6.2h-1.7v-0.7c-0.2,0.3-0.5,0.5-0.8,0.6c-0.3,0.1-0.7,0.2-1.1,0.2c-0.8,0-1.5-0.2-1.9-0.7
                c-0.5-0.5-0.7-1.2-0.7-2.1v-3.5h1.8v3.2c0,1,0.4,1.5,1.3,1.5c0.4,0,0.8-0.1,1-0.4c0.3-0.3,0.4-0.7,0.4-1.2v-3.1H95.8L95.8,312.9z"
                />
            <path class="st43" d="M97.4,318.8c-0.2-0.2-0.3-0.5-0.3-0.8c0-0.3,0.1-0.6,0.3-0.8c0.2-0.2,0.5-0.3,0.8-0.3s0.6,0.1,0.8,0.3
                c0.2,0.2,0.3,0.5,0.3,0.8c0,0.3-0.1,0.6-0.3,0.8c-0.2,0.2-0.5,0.3-0.8,0.3S97.6,319.1,97.4,318.8z"/>
            <path class="st43" d="M105.4,313.7c0.4,0.2,0.8,0.6,1,1c0.2,0.4,0.4,0.9,0.4,1.5c0,0.6-0.1,1.1-0.4,1.6c-0.3,0.5-0.7,0.8-1.2,1.1
                c-0.5,0.2-1.1,0.4-1.7,0.4c-1.1,0-1.9-0.3-2.5-1c-0.6-0.7-0.9-1.7-0.9-3.1c0-1.2,0.3-2.2,0.8-3c0.5-0.7,1.4-1.2,2.5-1.5l2.9-0.6
                l0.2,1.5l-2.6,0.5c-0.7,0.1-1.2,0.4-1.6,0.7c-0.3,0.3-0.5,0.8-0.6,1.4c0.3-0.3,0.6-0.5,1-0.7c0.4-0.2,0.8-0.2,1.2-0.2
                C104.4,313.3,105,313.4,105.4,313.7z M104.5,317.4c0.3-0.3,0.4-0.7,0.4-1.1c0-0.5-0.1-0.8-0.4-1.1c-0.3-0.3-0.6-0.4-1.1-0.4
                c-0.5,0-0.8,0.1-1.1,0.4c-0.3,0.3-0.4,0.6-0.4,1.1s0.1,0.8,0.4,1.1c0.3,0.3,0.7,0.4,1.1,0.4C103.9,317.8,104.3,317.7,104.5,317.4z
                "/>
            <path class="st43" d="M108.3,318.7c-0.6-0.3-0.8-0.8-0.8-1.5c0-0.4,0.1-0.8,0.4-1c0.2-0.2,0.5-0.4,0.8-0.5
                c0.3-0.1,0.7-0.2,1.2-0.3c0.5-0.1,0.8-0.2,1-0.2c0.2-0.1,0.3-0.2,0.3-0.4c0-0.2-0.1-0.3-0.3-0.4c-0.2-0.1-0.5-0.1-0.8-0.1
                c-0.3,0-0.7,0-1,0.1c-0.4,0.1-0.7,0.2-0.9,0.3l-0.5-1.2c0.4-0.2,0.7-0.3,1.2-0.4s0.8-0.2,1.3-0.2c0.8,0,1.5,0.2,2.1,0.5
                c0.5,0.4,0.8,0.8,0.8,1.5c0,0.4-0.1,0.8-0.4,1c-0.2,0.2-0.5,0.4-0.8,0.5s-0.7,0.2-1.2,0.3c-0.5,0.1-0.8,0.2-1,0.2
                c-0.2,0.1-0.3,0.2-0.3,0.4c0,0.2,0.1,0.3,0.3,0.4c0.2,0.1,0.5,0.1,0.8,0.1c0.4,0,0.8-0.1,1.2-0.2c0.4-0.1,0.8-0.2,1-0.4l0.5,1.2
                c-0.4,0.2-0.8,0.4-1.3,0.5c-0.5,0.1-0.9,0.2-1.4,0.2C109.6,319.2,108.9,319,108.3,318.7z"/>
        </g>
    </g>
</svg>
