<svg width="757" height="515" viewBox="0 0 757 515" fill="none" xmlns="http://www.w3.org/2000/svg">
<g clip-path="url(#clip0)">
<path d="M779 478.954H22V479.332H779V478.954Z" fill="#E0E0E0"/>
<path d="M187.662 497.106H100.198V497.485H187.662V497.106Z" fill="#E0E0E0"/>
<path d="M378.789 488.885H338.941V489.264H378.789V488.885Z" fill="#E0E0E0"/>
<path d="M470.992 488.689H393.354V489.067H470.992V488.689Z" fill="#E0E0E0"/>
<path d="M618.773 493.231H599.863V493.609H618.773V493.231Z" fill="#E0E0E0"/>
<path d="M534.565 493.231H459.137V493.609H534.565V493.231Z" fill="#E0E0E0"/>
<path d="M217.306 497.106H202.317V497.485H217.306V497.106Z" fill="#E0E0E0"/>
<path d="M696.608 493.231H631.128V493.609H696.608V493.231Z" fill="#E0E0E0"/>
<path d="M380.818 411.429H88.4797C86.1896 411.425 83.9946 410.513 82.3766 408.892C80.7587 407.271 79.8499 405.074 79.8499 402.784V-8.16074C79.8699 -10.4378 80.7874 -12.615 82.4032 -14.2194C84.019 -15.8239 86.2026 -16.7261 88.4797 -16.73H380.818C383.111 -16.73 385.31 -15.8192 386.931 -14.1979C388.552 -12.5767 389.463 -10.3778 389.463 -8.08504V402.784C389.463 405.077 388.552 407.276 386.931 408.897C385.31 410.518 383.111 411.429 380.818 411.429V411.429ZM88.4797 -16.4272C86.29 -16.4232 84.1912 -15.5505 82.6443 -14.0007C81.0973 -12.4508 80.2284 -10.3505 80.2284 -8.16074V402.784C80.2284 404.974 81.0973 407.074 82.6443 408.624C84.1912 410.174 86.29 411.047 88.4797 411.051H380.818C383.009 411.047 385.109 410.175 386.659 408.625C388.208 407.076 389.08 404.975 389.084 402.784V-8.16074C389.08 -10.3519 388.208 -12.4522 386.659 -14.0016C385.109 -15.551 383.009 -16.4232 380.818 -16.4272H88.4797Z" fill="#E0E0E0"/>
<path d="M708.311 411.429H415.958C413.666 411.425 411.47 410.513 409.849 408.893C408.229 407.272 407.317 405.076 407.313 402.784V-8.16074C407.337 -10.4391 408.258 -12.6163 409.876 -14.2204C411.494 -15.8244 413.679 -16.7261 415.958 -16.73H708.311C710.586 -16.7221 712.766 -15.8182 714.378 -14.2141C715.991 -12.6101 716.906 -10.4351 716.926 -8.16074V402.784C716.926 405.072 716.019 407.266 714.405 408.886C712.79 410.507 710.599 411.421 708.311 411.429V411.429ZM415.958 -16.4272C413.767 -16.4232 411.666 -15.551 410.117 -14.0016C408.568 -12.4522 407.695 -10.3519 407.691 -8.16074V402.784C407.695 404.975 408.568 407.076 410.117 408.625C411.666 410.175 413.767 411.047 415.958 411.051H708.311C710.502 411.047 712.603 410.175 714.152 408.625C715.702 407.076 716.574 404.975 716.578 402.784V-8.16074C716.574 -10.3519 715.702 -12.4522 714.152 -14.0016C712.603 -15.551 710.502 -16.4232 708.311 -16.4272H415.958Z" fill="#E0E0E0"/>
<path d="M138.003 107.13C131.402 92.8684 136.64 82.7246 152.764 82.7246C162.893 82.7246 175.474 86.7216 187.586 93.2166C188.979 89.5073 192.855 87.2969 199.108 87.2969C210.115 87.2969 225.3 94.1553 237.2 103.845C240.869 101.398 245.19 100.111 249.6 100.151C260.198 99.7117 272.885 103.663 283.983 110.083C284.634 109.466 285.403 108.985 286.242 108.668C287.082 108.351 287.976 108.204 288.873 108.235C294.929 107.993 303.15 111.975 307.238 117.123C307.495 117.456 307.707 117.759 307.934 118.076H134.793C134.451 116.128 134.562 114.127 135.119 112.228C135.675 110.33 136.662 108.585 138.003 107.13Z" fill="#F5F5F5"/>
<path d="M334.369 39.288C334.901 39.2271 335.437 39.1968 335.973 39.1971C335.474 33.6256 338.365 30.1131 344.527 30.1131C348.979 30.1131 354.429 31.9754 360.001 35.1245C358.411 24.3145 363.498 17.2744 375.05 17.2744C384.361 17.2744 396.14 21.8164 407.782 29.3864C408.797 25.1472 412.234 22.6037 418.002 22.6037C428.115 22.6037 442.513 30.4462 454.05 41.5287C457.113 38.7767 461.091 37.2652 465.208 37.2895C474.853 36.7899 486.813 41.3016 497.426 48.6596C497.932 47.9778 498.596 47.4288 499.361 47.0597C500.125 46.6905 500.968 46.5122 501.817 46.54C507.086 46.2826 514.353 50.325 518.562 55.7603H325.89C321.363 47.4484 324.967 40.2418 334.369 39.288Z" fill="#F5F5F5"/>
<path d="M592.778 15.6848C588.539 6.6008 591.915 0.0148926 602.256 0.0148926C608.751 0.0148926 616.805 2.57356 624.648 6.7522C625.526 4.37522 628.024 2.93691 632.036 2.93691C639.106 2.93691 648.841 7.35779 656.472 13.5349C658.831 11.969 661.605 11.1463 664.436 11.1731C671.188 10.8854 679.379 13.4138 686.495 17.547C686.911 17.1485 687.402 16.8374 687.941 16.632C688.479 16.4266 689.053 16.331 689.629 16.351C691.883 16.4322 694.096 16.9817 696.126 17.9643C698.156 18.947 699.96 20.3413 701.423 22.0587L701.877 22.6643H587.494C583.876 19.4547 587.873 15.8362 592.778 15.6848Z" fill="#F5F5F5"/>
<path d="M208.54 314.109H156.973V478.954H208.54V314.109Z" fill="#EBEBEB"/>
<path d="M191.689 478.954H276.246V256.744H191.689L191.689 478.954Z" fill="#F5F5F5"/>
<path d="M320.137 256.744H276.246V478.954H320.137V256.744Z" fill="#EBEBEB"/>
<path d="M203.059 256.744H276.246V234.655H203.059V256.744Z" fill="#F5F5F5"/>
<path d="M203.059 256.744H276.246V251.778H203.059V256.744Z" fill="#EBEBEB"/>
<path d="M308.752 234.655H276.246V256.744H308.752V234.655Z" fill="#EBEBEB"/>
<path d="M214.429 234.655H276.231V212.565H214.429V234.655Z" fill="#F5F5F5"/>
<path d="M214.429 234.655H276.231V229.689H214.429V234.655Z" fill="#EBEBEB"/>
<path d="M297.381 212.565H276.246V234.655H297.381V212.565Z" fill="#EBEBEB"/>
<path d="M257.957 181.71H253.854V212.58H257.957V181.71Z" fill="#EBEBEB"/>
<path d="M306.117 478.954H367.873V295.381H306.117V478.954Z" fill="#F5F5F5"/>
<path d="M399.925 295.381H367.873V478.954H399.925V295.381Z" fill="#EBEBEB"/>
<path d="M383.891 347.826L430.719 387.977V478.954H383.891V347.826Z" fill="#F5F5F5"/>
<path d="M455.034 387.962H430.735V478.938H455.034V387.962Z" fill="#EBEBEB"/>
<path d="M455.034 387.977H430.719L383.891 347.826H408.206L455.034 387.977Z" fill="#EBEBEB"/>
<path d="M674.534 478.954C675.183 475.317 676.729 471.899 679.032 469.01C681.334 466.12 684.321 463.85 687.721 462.406C684.736 467.383 683.381 473.168 683.845 478.954H674.534Z" fill="#EBEBEB"/>
<path d="M237.79 478.954C237.141 475.317 235.595 471.899 233.293 469.01C230.99 466.12 228.004 463.85 224.604 462.406C227.589 467.383 228.944 473.168 228.479 478.954H237.79Z" fill="#EBEBEB"/>
<path d="M129.661 478.954C129.661 478.954 128.919 459.574 120.819 453.942C124.134 461.861 123.438 478.954 123.438 478.954H129.661Z" fill="#EBEBEB"/>
<path d="M126.617 478.954C126.617 478.954 127.359 467.826 135.459 464.601C132.144 469.143 132.87 478.954 132.87 478.954H126.617Z" fill="#EBEBEB"/>
<path d="M244.725 478.954C244.725 478.954 243.907 460.604 229.221 453.942C235.792 463.359 235.413 478.954 235.413 478.954H244.725Z" fill="#EBEBEB"/>
<path d="M606.843 454.124H569.735C569.333 454.124 568.948 453.964 568.664 453.681C568.38 453.397 568.221 453.012 568.221 452.61V415.547C568.221 415.146 568.38 414.761 568.664 414.477C568.948 414.193 569.333 414.033 569.735 414.033H606.843C607.245 414.033 607.63 414.193 607.914 414.477C608.198 414.761 608.357 415.146 608.357 415.547V452.61C608.357 453.012 608.198 453.397 607.914 453.681C607.63 453.964 607.245 454.124 606.843 454.124ZM571.249 451.096H605.329V417.061H571.249V451.096Z" fill="#E0E0E0"/>
<path d="M606.843 417.061H569.735C569.333 417.061 568.948 416.902 568.664 416.618C568.38 416.334 568.221 415.949 568.221 415.547V378.424C568.221 378.023 568.38 377.638 568.664 377.354C568.948 377.07 569.333 376.91 569.735 376.91H606.843C607.245 376.91 607.63 377.07 607.914 377.354C608.198 377.638 608.357 378.023 608.357 378.424V415.547C608.357 415.949 608.198 416.334 607.914 416.618C607.63 416.902 607.245 417.061 606.843 417.061ZM571.249 414.033H605.329V379.938H571.249V414.033Z" fill="#E0E0E0"/>
<path d="M606.843 454.124C606.444 454.118 606.063 453.955 605.783 453.67L568.66 416.562C568.375 416.277 568.215 415.89 568.215 415.487C568.215 415.084 568.375 414.697 568.66 414.412C568.945 414.127 569.332 413.967 569.735 413.967C570.138 413.967 570.525 414.127 570.81 414.412L607.918 451.596C608.2 451.879 608.358 452.263 608.358 452.663C608.358 453.063 608.2 453.447 607.918 453.73C607.625 453.997 607.239 454.139 606.843 454.124Z" fill="#E0E0E0"/>
<path d="M606.843 417.061C606.446 417.06 606.065 416.902 605.783 416.622L568.66 379.499C568.378 379.215 568.22 378.831 568.22 378.431C568.22 378.031 568.378 377.648 568.66 377.364C568.801 377.222 568.968 377.11 569.153 377.033C569.337 376.956 569.535 376.916 569.735 376.916C569.935 376.916 570.133 376.956 570.317 377.033C570.502 377.11 570.669 377.222 570.81 377.364L607.918 414.472C608.132 414.684 608.277 414.955 608.336 415.249C608.395 415.544 608.365 415.85 608.25 416.128C608.135 416.406 607.939 416.643 607.689 416.809C607.438 416.975 607.144 417.063 606.843 417.061Z" fill="#E0E0E0"/>
<path d="M606.843 379.938H569.735C569.333 379.938 568.948 379.778 568.664 379.494C568.38 379.211 568.221 378.825 568.221 378.424V341.316C568.221 340.914 568.38 340.529 568.664 340.245C568.948 339.961 569.333 339.802 569.735 339.802H606.843C607.245 339.802 607.63 339.961 607.914 340.245C608.198 340.529 608.357 340.914 608.357 341.316V378.424C608.357 378.825 608.198 379.211 607.914 379.494C607.63 379.778 607.245 379.938 606.843 379.938ZM571.249 376.91H605.329V342.83H571.249V376.91Z" fill="#E0E0E0"/>
<path d="M606.843 342.83H569.735C569.333 342.83 568.948 342.67 568.664 342.387C568.38 342.103 568.221 341.717 568.221 341.316V304.238C568.221 303.837 568.38 303.452 568.664 303.168C568.948 302.884 569.333 302.724 569.735 302.724H606.843C607.245 302.724 607.63 302.884 607.914 303.168C608.198 303.452 608.357 303.837 608.357 304.238V341.361C608.345 341.755 608.18 342.129 607.898 342.403C607.615 342.677 607.237 342.83 606.843 342.83ZM571.249 339.802H605.329V305.752H571.249V339.802Z" fill="#E0E0E0"/>
<path d="M606.843 379.938C606.446 379.936 606.065 379.779 605.783 379.499L568.66 342.376C568.378 342.092 568.22 341.708 568.22 341.308C568.22 340.908 568.378 340.524 568.66 340.241C568.801 340.099 568.968 339.986 569.153 339.909C569.337 339.833 569.535 339.793 569.735 339.793C569.935 339.793 570.133 339.833 570.317 339.909C570.502 339.986 570.669 340.099 570.81 340.241L607.918 377.364C608.2 377.648 608.358 378.032 608.358 378.432C608.358 378.831 608.2 379.215 607.918 379.499C607.777 379.639 607.609 379.75 607.424 379.826C607.24 379.901 607.042 379.939 606.843 379.938Z" fill="#E0E0E0"/>
<path d="M606.843 342.83C606.444 342.824 606.063 342.661 605.783 342.376L568.66 305.267C568.375 304.982 568.215 304.596 568.215 304.193C568.215 303.789 568.375 303.403 568.66 303.118C568.945 302.833 569.332 302.672 569.735 302.672C570.138 302.672 570.525 302.833 570.81 303.118L607.918 340.241C608.2 340.525 608.358 340.908 608.358 341.308C608.358 341.708 608.2 342.092 607.918 342.376C607.778 342.519 607.611 342.632 607.426 342.71C607.242 342.788 607.043 342.829 606.843 342.83Z" fill="#E0E0E0"/>
<path d="M606.843 305.752H569.735C569.333 305.752 568.948 305.593 568.664 305.309C568.38 305.025 568.221 304.64 568.221 304.238V267.069C568.221 266.668 568.38 266.283 568.664 265.999C568.948 265.715 569.333 265.555 569.735 265.555H606.843C607.245 265.555 607.63 265.715 607.914 265.999C608.198 266.283 608.357 266.668 608.357 267.069V304.238C608.357 304.64 608.198 305.025 607.914 305.309C607.63 305.593 607.245 305.752 606.843 305.752ZM571.249 302.724H605.329V268.583H571.249V302.724Z" fill="#E0E0E0"/>
<path d="M606.843 268.583H569.735C569.333 268.583 568.948 268.424 568.664 268.14C568.38 267.856 568.221 267.471 568.221 267.069V229.961C568.221 229.56 568.38 229.175 568.664 228.891C568.948 228.607 569.333 228.447 569.735 228.447H606.843C607.245 228.447 607.63 228.607 607.914 228.891C608.198 229.175 608.357 229.56 608.357 229.961V267.069C608.357 267.471 608.198 267.856 607.914 268.14C607.63 268.424 607.245 268.583 606.843 268.583ZM571.249 265.555H605.329V231.475H571.249V265.555Z" fill="#E0E0E0"/>
<path d="M606.843 305.752C606.446 305.75 606.065 305.593 605.783 305.313L568.66 268.19C568.378 267.906 568.22 267.522 568.22 267.122C568.22 266.722 568.378 266.339 568.66 266.055C568.801 265.913 568.968 265.8 569.153 265.724C569.337 265.647 569.535 265.607 569.735 265.607C569.935 265.607 570.133 265.647 570.317 265.724C570.502 265.8 570.669 265.913 570.81 266.055L607.918 303.118C608.132 303.329 608.277 303.6 608.336 303.895C608.395 304.19 608.365 304.496 608.25 304.773C608.135 305.051 607.939 305.288 607.689 305.454C607.438 305.621 607.144 305.708 606.843 305.707V305.752Z" fill="#E0E0E0"/>
<path d="M569.735 144.587H532.612C532.21 144.587 531.825 144.427 531.541 144.143C531.257 143.859 531.098 143.474 531.098 143.073V105.904C531.098 105.503 531.257 105.118 531.541 104.834C531.825 104.55 532.21 104.39 532.612 104.39H569.735C570.136 104.39 570.522 104.55 570.805 104.834C571.089 105.118 571.249 105.503 571.249 105.904V143.012C571.257 143.216 571.224 143.42 571.152 143.61C571.079 143.801 570.969 143.975 570.827 144.122C570.686 144.269 570.516 144.386 570.329 144.466C570.141 144.546 569.939 144.587 569.735 144.587ZM534.126 141.559H568.221V107.418H534.126V141.559Z" fill="#E0E0E0"/>
<path d="M606.843 144.587H569.735C569.333 144.587 568.948 144.427 568.664 144.143C568.38 143.859 568.221 143.474 568.221 143.073C568.221 142.671 568.38 142.286 568.664 142.002C568.948 141.718 569.333 141.559 569.735 141.559H605.329V68.8868C605.329 68.4853 605.489 68.1002 605.772 67.8162C606.056 67.5323 606.442 67.3728 606.843 67.3728C607.245 67.3728 607.63 67.5323 607.914 67.8162C608.198 68.1002 608.357 68.4853 608.357 68.8868V143.073C608.357 143.474 608.198 143.859 607.914 144.143C607.63 144.427 607.245 144.587 606.843 144.587Z" fill="#E0E0E0"/>
<path d="M569.735 144.587C569.476 144.588 569.22 144.524 568.993 144.398C568.766 144.273 568.575 144.091 568.438 143.871C568.301 143.651 568.223 143.399 568.212 143.14C568.2 142.881 568.256 142.623 568.372 142.391L605.496 68.2054C605.677 67.8488 605.992 67.5786 606.373 67.4537C606.753 67.3289 607.167 67.3596 607.524 67.5392C607.884 67.7181 608.157 68.0322 608.285 68.4126C608.413 68.793 608.384 69.2086 608.206 69.568L571.082 143.754C570.957 144.004 570.764 144.214 570.526 144.361C570.288 144.508 570.015 144.586 569.735 144.587Z" fill="#E0E0E0"/>
<path d="M532.612 144.587H495.504C495.102 144.587 494.717 144.427 494.433 144.143C494.149 143.859 493.99 143.474 493.99 143.073V105.904C493.99 105.503 494.149 105.118 494.433 104.834C494.717 104.55 495.102 104.39 495.504 104.39H532.612C533.013 104.39 533.398 104.55 533.682 104.834C533.966 105.118 534.126 105.503 534.126 105.904V143.012C534.134 143.216 534.101 143.42 534.028 143.61C533.956 143.801 533.846 143.975 533.704 144.122C533.563 144.269 533.393 144.386 533.205 144.466C533.018 144.546 532.816 144.587 532.612 144.587ZM497.017 141.559H531.098V107.418H497.017V141.559Z" fill="#E0E0E0"/>
<path d="M532.612 144.587C532.315 144.583 532.027 144.492 531.782 144.325C531.537 144.158 531.346 143.923 531.233 143.649C531.12 143.375 531.09 143.074 531.147 142.783C531.204 142.493 531.344 142.225 531.552 142.013L568.66 104.89C568.801 104.748 568.968 104.635 569.153 104.558C569.337 104.481 569.535 104.442 569.735 104.442C569.935 104.442 570.133 104.481 570.317 104.558C570.502 104.635 570.669 104.748 570.81 104.89C571.092 105.173 571.25 105.557 571.25 105.957C571.25 106.357 571.092 106.741 570.81 107.024L533.732 144.148C533.585 144.294 533.41 144.408 533.217 144.483C533.025 144.559 532.818 144.594 532.612 144.587Z" fill="#E0E0E0"/>
<path d="M643.966 144.587H606.843C606.442 144.587 606.056 144.427 605.772 144.143C605.489 143.859 605.329 143.474 605.329 143.073V105.904C605.329 105.503 605.489 105.118 605.772 104.834C606.056 104.55 606.442 104.39 606.843 104.39H643.966C644.368 104.39 644.753 104.55 645.037 104.834C645.321 105.118 645.48 105.503 645.48 105.904V143.012C645.488 143.216 645.455 143.42 645.383 143.61C645.31 143.801 645.2 143.975 645.059 144.122C644.917 144.269 644.748 144.386 644.56 144.466C644.372 144.546 644.17 144.587 643.966 144.587ZM608.357 141.559H642.452V107.418H608.357V141.559Z" fill="#E0E0E0"/>
<path d="M606.843 144.587C606.547 144.583 606.258 144.492 606.013 144.325C605.768 144.158 605.577 143.923 605.464 143.649C605.351 143.375 605.322 143.074 605.378 142.783C605.435 142.492 605.576 142.225 605.783 142.013L642.891 104.89C643.032 104.748 643.2 104.635 643.384 104.558C643.569 104.481 643.766 104.442 643.966 104.442C644.166 104.442 644.364 104.481 644.549 104.558C644.733 104.635 644.9 104.748 645.041 104.89C645.323 105.173 645.482 105.557 645.482 105.957C645.482 106.357 645.323 106.741 645.041 107.024L607.918 144.148C607.776 144.288 607.609 144.399 607.424 144.474C607.24 144.55 607.042 144.588 606.843 144.587Z" fill="#E0E0E0"/>
<path d="M384.149 144.587C383.95 144.588 383.752 144.55 383.568 144.474C383.383 144.399 383.215 144.288 383.074 144.148C382.792 143.864 382.634 143.48 382.634 143.08C382.634 142.68 382.792 142.297 383.074 142.013L420.182 104.89C420.388 104.673 420.659 104.53 420.954 104.481L606.555 67.3576C606.799 67.3089 607.05 67.3207 607.288 67.392C607.525 67.4633 607.742 67.5918 607.918 67.7664L682.104 141.952C682.262 142.088 682.391 142.255 682.482 142.443C682.573 142.631 682.624 142.835 682.632 143.044C682.64 143.252 682.605 143.46 682.529 143.655C682.453 143.849 682.337 144.025 682.19 144.173C682.042 144.32 681.866 144.436 681.671 144.512C681.477 144.588 681.269 144.623 681.061 144.615C680.852 144.607 680.648 144.556 680.46 144.465C680.272 144.374 680.105 144.246 679.969 144.087L606.404 70.4916L422.014 107.418L385.209 144.208C384.917 144.466 384.538 144.601 384.149 144.587Z" fill="#E0E0E0"/>
<path d="M495.503 144.587C495.304 144.588 495.107 144.55 494.922 144.474C494.738 144.399 494.57 144.288 494.429 144.148C494.147 143.864 493.988 143.48 493.988 143.08C493.988 142.68 494.147 142.297 494.429 142.013L531.552 104.89C531.841 104.642 532.214 104.512 532.595 104.527C532.976 104.541 533.338 104.699 533.607 104.969C533.877 105.239 534.035 105.6 534.049 105.981C534.064 106.362 533.935 106.735 533.687 107.024L496.563 144.148C496.281 144.427 495.901 144.585 495.503 144.587V144.587Z" fill="#E0E0E0"/>
<path d="M495.503 144.587H458.38C457.979 144.587 457.594 144.427 457.31 144.143C457.026 143.859 456.866 143.474 456.866 143.073V105.904C456.866 105.503 457.026 105.118 457.31 104.834C457.594 104.55 457.979 104.39 458.38 104.39H495.503C495.905 104.39 496.29 104.55 496.574 104.834C496.858 105.118 497.017 105.503 497.017 105.904V143.012C497.026 143.216 496.992 143.42 496.92 143.61C496.848 143.801 496.737 143.975 496.596 144.122C496.455 144.269 496.285 144.386 496.097 144.466C495.909 144.546 495.707 144.587 495.503 144.587ZM459.894 141.559H493.989V107.418H459.894V141.559Z" fill="#E0E0E0"/>
<path d="M458.38 144.587H421.257C420.855 144.587 420.47 144.427 420.186 144.143C419.902 143.859 419.743 143.474 419.743 143.073V105.904C419.743 105.503 419.902 105.118 420.186 104.834C420.47 104.55 420.855 104.39 421.257 104.39H458.38C458.782 104.39 459.167 104.55 459.451 104.834C459.735 105.118 459.894 105.503 459.894 105.904V143.012C459.902 143.216 459.869 143.42 459.797 143.61C459.724 143.801 459.614 143.975 459.473 144.122C459.331 144.269 459.162 144.386 458.974 144.466C458.786 144.546 458.584 144.587 458.38 144.587ZM422.771 141.559H456.866V107.418H422.771V141.559Z" fill="#E0E0E0"/>
<path d="M458.38 144.587C458.181 144.588 457.983 144.55 457.799 144.474C457.614 144.399 457.447 144.288 457.305 144.148C457.023 143.864 456.865 143.48 456.865 143.08C456.865 142.68 457.023 142.297 457.305 142.013L494.368 104.89C494.658 104.642 495.03 104.512 495.411 104.527C495.792 104.541 496.154 104.699 496.423 104.969C496.693 105.239 496.851 105.6 496.866 105.981C496.88 106.362 496.751 106.735 496.503 107.024L459.395 144.148C459.124 144.417 458.762 144.573 458.38 144.587Z" fill="#E0E0E0"/>
<path d="M421.257 144.587C420.961 144.583 420.672 144.492 420.427 144.325C420.182 144.158 419.991 143.923 419.878 143.649C419.765 143.375 419.736 143.074 419.792 142.783C419.849 142.492 419.99 142.225 420.197 142.013L457.305 104.89C457.446 104.748 457.613 104.635 457.798 104.558C457.982 104.481 458.18 104.442 458.38 104.442C458.58 104.442 458.778 104.481 458.962 104.558C459.147 104.635 459.314 104.748 459.455 104.89C459.737 105.173 459.895 105.557 459.895 105.957C459.895 106.357 459.737 106.741 459.455 107.024L422.332 144.148C422.19 144.288 422.023 144.399 421.838 144.474C421.654 144.55 421.456 144.588 421.257 144.587Z" fill="#E0E0E0"/>
<path d="M421.257 144.587H384.149C383.747 144.587 383.362 144.427 383.078 144.143C382.794 143.859 382.635 143.474 382.635 143.073C382.635 142.671 382.794 142.286 383.078 142.002C383.362 141.718 383.747 141.559 384.149 141.559H419.743V105.904C419.743 105.503 419.902 105.118 420.186 104.834C420.47 104.55 420.855 104.39 421.257 104.39C421.658 104.39 422.044 104.55 422.328 104.834C422.611 105.118 422.771 105.503 422.771 105.904V143.012C422.779 143.216 422.746 143.42 422.674 143.61C422.601 143.801 422.491 143.975 422.35 144.122C422.208 144.269 422.038 144.386 421.851 144.466C421.663 144.546 421.461 144.587 421.257 144.587Z" fill="#E0E0E0"/>
<path d="M606.843 268.583C606.446 268.582 606.065 268.424 605.783 268.144L568.66 231.036C568.519 230.895 568.407 230.728 568.33 230.543C568.254 230.359 568.215 230.161 568.215 229.961C568.215 229.762 568.254 229.564 568.33 229.38C568.407 229.195 568.519 229.028 568.66 228.886C568.801 228.745 568.969 228.633 569.153 228.557C569.338 228.48 569.535 228.441 569.735 228.441C569.935 228.441 570.132 228.48 570.317 228.557C570.501 228.633 570.669 228.745 570.81 228.886L607.918 266.01C608.2 266.293 608.358 266.677 608.358 267.077C608.358 267.477 608.2 267.861 607.918 268.144C607.777 268.285 607.609 268.396 607.424 268.471C607.24 268.546 607.042 268.585 606.843 268.583V268.583Z" fill="#E0E0E0"/>
<path d="M606.843 231.475H569.735C569.333 231.475 568.948 231.316 568.664 231.032C568.38 230.748 568.221 230.363 568.221 229.961V192.838C568.221 192.436 568.38 192.051 568.664 191.767C568.948 191.483 569.333 191.324 569.735 191.324H606.843C607.245 191.324 607.63 191.483 607.914 191.767C608.198 192.051 608.357 192.436 608.357 192.838V229.961C608.357 230.363 608.198 230.748 607.914 231.032C607.63 231.316 607.245 231.475 606.843 231.475ZM571.249 228.447H605.329V194.352H571.249V228.447Z" fill="#E0E0E0"/>
<path d="M606.843 194.352H569.735C569.333 194.352 568.948 194.192 568.664 193.909C568.38 193.625 568.221 193.24 568.221 192.838V155.73C568.221 155.328 568.38 154.943 568.664 154.659C568.948 154.375 569.333 154.216 569.735 154.216H606.843C607.245 154.216 607.63 154.375 607.914 154.659C608.198 154.943 608.357 155.328 608.357 155.73V192.838C608.357 193.24 608.198 193.625 607.914 193.909C607.63 194.192 607.245 194.352 606.843 194.352ZM571.249 191.324H605.329V157.244H571.249V191.324Z" fill="#E0E0E0"/>
<path d="M606.843 231.475C606.446 231.474 606.065 231.316 605.783 231.036L568.66 193.913C568.519 193.772 568.407 193.604 568.33 193.42C568.254 193.235 568.215 193.038 568.215 192.838C568.215 192.638 568.254 192.441 568.33 192.256C568.407 192.072 568.519 191.904 568.66 191.763C568.801 191.622 568.969 191.51 569.153 191.434C569.338 191.357 569.535 191.318 569.735 191.318C569.935 191.318 570.132 191.357 570.317 191.434C570.501 191.51 570.669 191.622 570.81 191.763L607.918 228.886C608.132 229.098 608.277 229.369 608.336 229.664C608.395 229.958 608.365 230.264 608.25 230.542C608.135 230.82 607.939 231.057 607.689 231.223C607.438 231.389 607.144 231.477 606.843 231.475Z" fill="#E0E0E0"/>
<path d="M606.843 194.352C606.446 194.35 606.065 194.193 605.783 193.913L568.66 156.79C568.378 156.506 568.22 156.122 568.22 155.722C568.22 155.322 568.378 154.939 568.66 154.655C568.801 154.513 568.968 154.4 569.153 154.323C569.337 154.247 569.535 154.207 569.735 154.207C569.935 154.207 570.133 154.247 570.317 154.323C570.502 154.4 570.669 154.513 570.81 154.655L607.918 191.763C608.132 191.975 608.277 192.245 608.336 192.54C608.395 192.835 608.365 193.141 608.25 193.419C608.135 193.696 607.939 193.933 607.689 194.1C607.438 194.266 607.144 194.354 606.843 194.352V194.352Z" fill="#E0E0E0"/>
<path d="M681.09 143.073H384.149L421.257 155.73H681.09V143.073Z" fill="#E0E0E0"/>
<path d="M681.09 157.244H421.257C421.091 157.243 420.927 157.212 420.772 157.153L383.649 144.511C383.305 144.398 383.012 144.165 382.825 143.855C382.638 143.544 382.568 143.177 382.628 142.82C382.689 142.462 382.876 142.138 383.155 141.907C383.434 141.676 383.786 141.552 384.149 141.559H681.09C681.491 141.559 681.876 141.718 682.16 142.002C682.444 142.286 682.604 142.671 682.604 143.073V155.73C682.604 156.131 682.444 156.516 682.16 156.8C681.876 157.084 681.491 157.244 681.09 157.244V157.244ZM421.514 154.216H679.576V144.587H393.278L421.514 154.216Z" fill="#E0E0E0"/>
<path d="M542.256 207.796H569.735V149.401H542.256V207.796Z" fill="#E0E0E0"/>
<path d="M542.241 149.401H529.463V207.796H542.241V149.401Z" fill="#F5F5F5"/>
<path d="M573.823 478.938H627.933V452.656H573.823V478.938Z" fill="#E0E0E0"/>
<path d="M573.823 452.671H548.645V478.954H573.823V452.671Z" fill="#F5F5F5"/>
<path d="M643.966 208.311C643.565 208.311 643.18 208.151 642.896 207.868C642.612 207.584 642.452 207.199 642.452 206.797V149.401C642.452 149 642.612 148.615 642.896 148.331C643.18 148.047 643.565 147.887 643.966 147.887C644.368 147.887 644.753 148.047 645.037 148.331C645.321 148.615 645.48 149 645.48 149.401V206.797C645.48 207.199 645.321 207.584 645.037 207.868C644.753 208.151 644.368 208.311 643.966 208.311Z" fill="#E0E0E0"/>
<path d="M643.966 215.275C642.978 215.275 642.012 214.982 641.191 214.433C640.369 213.884 639.729 213.104 639.35 212.191C638.972 211.278 638.873 210.274 639.066 209.304C639.259 208.335 639.735 207.445 640.433 206.746C641.132 206.048 642.022 205.572 642.992 205.379C643.961 205.186 644.965 205.285 645.878 205.663C646.791 206.041 647.572 206.682 648.121 207.503C648.67 208.325 648.963 209.291 648.963 210.279C648.963 210.935 648.833 211.585 648.582 212.191C648.331 212.797 647.963 213.348 647.499 213.812C647.035 214.276 646.484 214.644 645.878 214.895C645.272 215.146 644.622 215.275 643.966 215.275ZM643.966 208.311C643.577 208.311 643.197 208.426 642.873 208.643C642.549 208.859 642.297 209.166 642.148 209.526C641.999 209.886 641.96 210.281 642.036 210.663C642.112 211.045 642.299 211.396 642.575 211.671C642.85 211.946 643.201 212.134 643.582 212.21C643.964 212.285 644.36 212.246 644.72 212.098C645.079 211.949 645.387 211.696 645.603 211.373C645.819 211.049 645.935 210.668 645.935 210.279C645.935 210.021 645.884 209.765 645.785 209.526C645.686 209.287 645.541 209.07 645.358 208.887C645.175 208.705 644.958 208.56 644.72 208.461C644.481 208.362 644.225 208.311 643.966 208.311V208.311Z" fill="#E0E0E0"/>
<path d="M425.92 238.44C425.519 238.44 425.133 238.28 424.85 237.996C424.566 237.712 424.406 237.327 424.406 236.926V149.401C424.406 149 424.566 148.615 424.85 148.331C425.133 148.047 425.519 147.887 425.92 147.887C426.322 147.887 426.707 148.047 426.991 148.331C427.275 148.615 427.434 149 427.434 149.401V236.926C427.434 237.327 427.275 237.712 426.991 237.996C426.707 238.28 426.322 238.44 425.92 238.44Z" fill="#E0E0E0"/>
<path d="M440.137 247.508C439.776 247.514 439.425 247.39 439.148 247.16C438.87 246.929 438.684 246.607 438.623 246.252C437.502 244.496 427.646 238.682 425.844 238.44C424.149 238.667 414.293 244.496 413.172 246.252C413.138 246.653 412.946 247.025 412.638 247.285C412.33 247.545 411.931 247.671 411.53 247.637C411.128 247.603 410.756 247.411 410.497 247.103C410.237 246.795 410.11 246.396 410.144 245.994C410.144 242.588 423.876 235.396 425.86 235.396C427.843 235.396 441.59 242.573 441.59 245.994C441.59 246.386 441.439 246.762 441.168 247.044C440.897 247.326 440.527 247.493 440.137 247.508Z" fill="#E0E0E0"/>
<path d="M456.518 356.94L478.728 334.73L473.99 325.646C474.398 324.738 474.777 323.829 475.125 322.891L484.86 319.863V288.493L475.125 285.465C474.762 284.541 474.398 283.617 473.99 282.709L478.713 273.625L456.518 251.46L447.434 256.184C446.526 255.775 445.617 255.396 444.694 255.048L441.666 245.313H410.22L407.192 255.048C406.268 255.396 405.36 255.775 404.452 256.184L395.368 251.46L373.248 273.655L377.987 282.739C377.563 283.648 377.2 284.571 376.836 285.495L367.101 288.523V319.923L376.836 322.951C377.2 323.89 377.563 324.798 377.972 325.707L373.248 334.791L395.458 357.001L404.542 352.262C405.451 352.671 406.374 353.049 407.298 353.398L410.326 363.133H441.741L444.769 353.398C445.693 353.049 446.601 352.671 447.51 352.262L456.518 356.94ZM442.513 320.71C439.245 323.981 435.08 326.208 430.545 327.111C426.01 328.014 421.309 327.552 417.037 325.783C412.765 324.014 409.113 321.018 406.544 317.173C403.975 313.329 402.604 308.809 402.604 304.185C402.604 299.561 403.975 295.041 406.544 291.197C409.113 287.352 412.765 284.356 417.037 282.587C421.309 280.818 426.01 280.356 430.545 281.259C435.08 282.162 439.245 284.389 442.513 287.66C444.683 289.832 446.402 292.411 447.573 295.249C448.744 298.087 449.344 301.128 449.338 304.198C449.333 307.268 448.722 310.306 447.54 313.14C446.359 315.973 444.63 318.546 442.453 320.71H442.513Z" fill="#E0E0E0"/>
<path d="M288.297 147.009H269.403C268.539 147.01 267.69 147.237 266.941 147.667C266.192 148.097 265.569 148.716 265.133 149.462L255.686 165.828C255.254 166.579 255.027 167.43 255.027 168.296C255.027 169.162 255.254 170.013 255.686 170.764L265.133 187.115C265.565 187.866 266.187 188.489 266.937 188.922C267.686 189.356 268.537 189.583 269.403 189.583H288.297C289.163 189.583 290.014 189.356 290.764 188.922C291.513 188.489 292.135 187.866 292.567 187.115L302.014 170.764C302.446 170.013 302.673 169.162 302.673 168.296C302.673 167.43 302.446 166.579 302.014 165.828L292.567 149.462C292.131 148.716 291.508 148.097 290.759 147.667C290.01 147.237 289.161 147.01 288.297 147.009V147.009Z" fill="#294E85"/>
<path opacity="0.5" d="M288.297 147.009H269.403C268.539 147.01 267.69 147.237 266.941 147.667C266.192 148.097 265.569 148.716 265.133 149.462L255.686 165.828C255.254 166.579 255.027 167.43 255.027 168.296C255.027 169.162 255.254 170.013 255.686 170.764L265.133 187.115C265.565 187.866 266.187 188.489 266.937 188.922C267.686 189.356 268.537 189.583 269.403 189.583H288.297C289.163 189.583 290.014 189.356 290.764 188.922C291.513 188.489 292.135 187.866 292.567 187.115L302.014 170.764C302.446 170.013 302.673 169.162 302.673 168.296C302.673 167.43 302.446 166.579 302.014 165.828L292.567 149.462C292.131 148.716 291.508 148.097 290.759 147.667C290.01 147.237 289.161 147.01 288.297 147.009V147.009Z" fill="white"/>
<path d="M167.344 92.7775L166.269 91.7026L175.353 82.6186L176.428 83.6935L167.344 92.7775ZM182.984 77.1379L181.909 76.063L200.894 57.0774L201.969 58.1372L182.984 77.1379Z" fill="#294E85"/>
<path opacity="0.5" d="M167.344 92.7775L166.269 91.7026L175.353 82.6186L176.428 83.6935L167.344 92.7775ZM182.984 77.1379L181.909 76.063L200.894 57.0774L201.969 58.1372L182.984 77.1379Z" fill="white"/>
<path d="M407.313 202.558V134.034L386.117 127.388C385.36 125.359 384.527 123.36 383.649 121.332L393.96 101.65L345.512 53.2016L325.83 63.5271C323.846 62.6339 321.863 61.8011 319.774 61.029L313.127 39.833H244.558L237.927 61.029C235.883 61.8011 233.899 62.6339 231.871 63.5271L212.189 53.2016L163.741 101.65L174.066 121.332C173.173 123.315 172.34 125.298 171.583 127.388L150.387 134.034V202.558L171.583 209.189C172.355 211.218 173.188 213.216 174.066 215.245L163.741 234.927L212.189 283.375L231.871 273.05C233.839 273.943 235.822 274.776 237.927 275.548L244.558 296.744H313.082L319.728 275.548C321.757 274.776 323.74 273.943 325.784 273.05L345.466 283.375L393.914 234.927L383.589 215.245C384.467 213.277 385.315 211.278 386.072 209.189L407.313 202.558ZM329.842 168.281C329.842 178.366 326.851 188.225 321.248 196.61C315.645 204.996 307.681 211.531 298.364 215.391C289.046 219.25 278.794 220.26 268.902 218.293C259.011 216.325 249.925 211.469 242.794 204.337C235.662 197.206 230.806 188.12 228.838 178.229C226.871 168.337 227.881 158.085 231.74 148.767C235.6 139.45 242.135 131.486 250.521 125.883C258.906 120.28 268.765 117.289 278.85 117.289C292.373 117.293 305.34 122.667 314.902 132.229C324.464 141.791 329.838 154.758 329.842 168.281V168.281Z" fill="#294E85"/>
<path opacity="0.5" d="M407.313 202.558V134.034L386.117 127.388C385.36 125.359 384.527 123.36 383.649 121.332L393.96 101.65L345.512 53.2016L325.83 63.5271C323.846 62.6339 321.863 61.8011 319.774 61.029L313.127 39.833H244.558L237.927 61.029C235.883 61.8011 233.899 62.6339 231.871 63.5271L212.189 53.2016L163.741 101.65L174.066 121.332C173.173 123.315 172.34 125.298 171.583 127.388L150.387 134.034V202.558L171.583 209.189C172.355 211.218 173.188 213.216 174.066 215.245L163.741 234.927L212.189 283.375L231.871 273.05C233.839 273.943 235.822 274.776 237.927 275.548L244.558 296.744H313.082L319.728 275.548C321.757 274.776 323.74 273.943 325.784 273.05L345.466 283.375L393.914 234.927L383.589 215.245C384.467 213.277 385.315 211.278 386.072 209.189L407.313 202.558ZM329.842 168.281C329.842 178.366 326.851 188.225 321.248 196.61C315.645 204.996 307.681 211.531 298.364 215.391C289.046 219.25 278.794 220.26 268.902 218.293C259.011 216.325 249.925 211.469 242.794 204.337C235.662 197.206 230.806 188.12 228.838 178.229C226.871 168.337 227.881 158.085 231.74 148.767C235.6 139.45 242.135 131.486 250.521 125.883C258.906 120.28 268.765 117.289 278.85 117.289C292.373 117.293 305.34 122.667 314.902 132.229C324.464 141.791 329.838 154.758 329.842 168.281V168.281Z" fill="white"/>
<path d="M309.781 292.595H247.934C247.852 292.595 247.773 292.569 247.707 292.52C247.642 292.471 247.594 292.402 247.571 292.323L241.515 273.216C241.485 273.12 241.494 273.015 241.541 272.926C241.588 272.837 241.668 272.769 241.765 272.739C241.861 272.709 241.965 272.719 242.055 272.765C242.144 272.812 242.211 272.893 242.242 272.989L248.131 291.838H309.418L315.716 271.944C315.734 271.89 315.764 271.84 315.803 271.798C315.842 271.756 315.89 271.724 315.943 271.702L318.017 270.93C319.774 270.264 321.636 269.492 323.74 268.553L325.754 267.645C325.846 267.605 325.951 267.603 326.044 267.64C326.138 267.677 326.213 267.749 326.253 267.842C326.294 267.934 326.295 268.038 326.259 268.132C326.222 268.226 326.149 268.301 326.057 268.341L324.043 269.234C321.939 270.188 320.046 270.96 318.29 271.627L316.382 272.353L310.144 292.323C310.12 292.4 310.071 292.468 310.006 292.517C309.941 292.566 309.862 292.593 309.781 292.595V292.595ZM344.603 278.167C344.503 278.164 344.407 278.126 344.331 278.061C344.294 278.026 344.265 277.983 344.245 277.937C344.225 277.89 344.215 277.839 344.215 277.788C344.215 277.738 344.225 277.687 344.245 277.64C344.265 277.594 344.294 277.551 344.331 277.516L387.873 233.988L378.199 215.518C378.172 215.466 378.158 215.409 378.158 215.351C378.158 215.293 378.172 215.236 378.199 215.185L379.107 213.171C380.016 211.127 380.788 209.25 381.469 207.463L382.241 205.389C382.263 205.336 382.295 205.288 382.337 205.249C382.379 205.209 382.429 205.18 382.483 205.162L402.392 198.939V137.698L382.71 131.551C382.656 131.543 382.604 131.524 382.558 131.493C382.512 131.463 382.473 131.424 382.444 131.377C382.415 131.331 382.397 131.278 382.39 131.224C382.383 131.169 382.388 131.114 382.405 131.062C382.422 131.009 382.449 130.961 382.487 130.921C382.524 130.88 382.569 130.848 382.62 130.827C382.671 130.806 382.725 130.796 382.78 130.799C382.835 130.801 382.889 130.815 382.938 130.84L402.832 137.047C402.906 137.075 402.971 137.124 403.017 137.189C403.063 137.254 403.088 137.331 403.089 137.41V199.257C403.09 199.337 403.066 199.416 403.019 199.481C402.973 199.546 402.907 199.595 402.832 199.621L382.892 205.828L382.181 207.736C381.499 209.537 380.667 211.415 379.788 213.489L378.971 215.336L388.676 233.882C388.724 233.946 388.749 234.023 388.749 234.102C388.749 234.181 388.724 234.258 388.676 234.322L344.951 278.061C344.858 278.138 344.739 278.176 344.618 278.167H344.603ZM213.082 278.167C212.982 278.164 212.885 278.126 212.809 278.061L169.085 234.322C169.041 234.257 169.018 234.18 169.018 234.102C169.018 234.024 169.041 233.947 169.085 233.882L178.881 215.169C178.929 215.081 179.009 215.015 179.105 214.984C179.201 214.953 179.305 214.96 179.395 215.003C179.439 215.027 179.478 215.059 179.509 215.098C179.541 215.136 179.564 215.181 179.578 215.229C179.592 215.277 179.597 215.327 179.591 215.376C179.586 215.426 179.571 215.474 179.547 215.518L169.888 233.988L213.415 277.516C213.452 277.551 213.481 277.594 213.501 277.64C213.521 277.687 213.531 277.738 213.531 277.788C213.531 277.839 213.521 277.89 213.501 277.937C213.481 277.983 213.452 278.026 213.415 278.061C213.372 278.099 213.322 278.129 213.267 278.147C213.212 278.165 213.155 278.172 213.097 278.167H213.082ZM238.82 271.369H238.684C237.17 270.779 235.519 270.082 233.687 269.265C233.634 269.251 233.584 269.226 233.541 269.192C233.498 269.157 233.463 269.113 233.439 269.063C233.415 269.014 233.402 268.959 233.401 268.904C233.4 268.849 233.411 268.794 233.433 268.744C233.456 268.693 233.489 268.648 233.53 268.612C233.572 268.576 233.621 268.549 233.674 268.534C233.727 268.518 233.783 268.515 233.838 268.523C233.892 268.532 233.944 268.553 233.99 268.583C235.807 269.386 237.427 270.097 238.956 270.658C239.003 270.676 239.046 270.703 239.083 270.739C239.119 270.774 239.148 270.816 239.168 270.863C239.187 270.909 239.198 270.959 239.198 271.01C239.198 271.06 239.188 271.111 239.168 271.157C239.136 271.228 239.082 271.288 239.014 271.326C238.946 271.364 238.867 271.379 238.79 271.369H238.82ZM278.88 224.223C264.042 224.195 249.821 218.281 239.338 207.778C228.856 197.276 222.968 183.044 222.968 168.205C222.968 168.105 223.008 168.009 223.079 167.938C223.15 167.867 223.246 167.827 223.347 167.827C223.447 167.827 223.544 167.867 223.615 167.938C223.685 168.009 223.725 168.105 223.725 168.205C223.725 179.114 226.96 189.777 233.021 198.848C239.081 207.918 247.695 214.987 257.773 219.162C267.852 223.336 278.942 224.429 289.641 222.3C300.34 220.172 310.167 214.919 317.881 207.206C325.594 199.492 330.847 189.664 332.976 178.965C335.104 168.266 334.012 157.177 329.837 147.098C325.662 137.02 318.593 128.406 309.523 122.345C300.453 116.285 289.789 113.05 278.88 113.05C278.78 113.05 278.684 113.01 278.613 112.939C278.542 112.868 278.502 112.772 278.502 112.672C278.502 112.571 278.542 112.475 278.613 112.404C278.684 112.333 278.78 112.293 278.88 112.293C293.713 112.293 307.938 118.185 318.427 128.674C328.915 139.162 334.808 153.388 334.808 168.22C334.808 183.053 328.915 197.278 318.427 207.767C307.938 218.255 293.713 224.147 278.88 224.147V224.223ZM175.928 207.978C175.849 207.975 175.773 207.949 175.709 207.903C175.644 207.857 175.594 207.794 175.565 207.721L174.853 205.828L154.854 199.575C154.778 199.55 154.712 199.501 154.666 199.435C154.619 199.37 154.595 199.292 154.596 199.212V137.365C154.597 137.286 154.623 137.208 154.669 137.143C154.714 137.079 154.779 137.029 154.854 137.002L173.975 131.036C174.072 131.007 174.176 131.016 174.266 131.061C174.356 131.106 174.425 131.184 174.46 131.279C174.485 131.377 174.472 131.481 174.424 131.571C174.377 131.66 174.298 131.729 174.202 131.763L155.308 137.698V198.985L175.217 205.207C175.27 205.224 175.319 205.254 175.358 205.293C175.398 205.333 175.427 205.381 175.444 205.434L176.231 207.509C176.266 207.601 176.263 207.703 176.224 207.794C176.184 207.885 176.111 207.956 176.019 207.993L175.928 207.978ZM175.928 129.25H175.792C175.699 129.21 175.626 129.136 175.586 129.043C175.547 128.95 175.545 128.845 175.58 128.75C176.307 126.812 177.094 124.965 177.927 123.088C177.97 122.998 178.046 122.929 178.139 122.895C178.233 122.861 178.336 122.865 178.426 122.906C178.472 122.926 178.514 122.955 178.549 122.991C178.583 123.026 178.611 123.069 178.629 123.115C178.647 123.162 178.656 123.211 178.655 123.261C178.654 123.311 178.643 123.36 178.623 123.406C177.775 125.253 177.018 127.1 176.292 129.023C176.265 129.105 176.212 129.177 176.141 129.226C176.07 129.275 175.985 129.3 175.898 129.295L175.928 129.25ZM379.092 120.605H378.91C378.867 120.581 378.828 120.549 378.796 120.51C378.765 120.472 378.742 120.427 378.728 120.379C378.714 120.331 378.709 120.281 378.715 120.232C378.72 120.182 378.735 120.134 378.759 120.09L387.843 102.604L380.576 95.3061C380.532 95.2735 380.496 95.232 380.471 95.1844C380.445 95.1368 380.429 95.0842 380.425 95.0301C380.421 94.976 380.429 94.9217 380.448 94.8709C380.467 94.8201 380.497 94.774 380.535 94.7356C380.574 94.6973 380.62 94.6676 380.671 94.6487C380.721 94.6297 380.776 94.6219 380.83 94.6257C380.884 94.6296 380.936 94.645 380.984 94.671C381.032 94.6969 381.073 94.7328 381.106 94.7762L388.676 102.346C388.724 102.409 388.749 102.486 388.749 102.566C388.749 102.645 388.724 102.722 388.676 102.785L379.395 120.514C379.355 120.563 379.304 120.601 379.246 120.624C379.187 120.648 379.124 120.657 379.062 120.65L379.092 120.605ZM169.358 102.876C169.257 102.877 169.159 102.839 169.085 102.77C169.019 102.698 168.983 102.603 168.983 102.505C168.983 102.407 169.019 102.313 169.085 102.24L212.764 58.531C212.826 58.4806 212.904 58.4531 212.984 58.4531C213.063 58.4531 213.141 58.4806 213.203 58.531L231.75 68.2358L233.597 67.4182C235.383 66.6158 237.018 65.9042 238.593 65.3137C238.639 65.2941 238.69 65.284 238.74 65.2841C238.791 65.2842 238.841 65.2944 238.887 65.3142C238.934 65.3339 238.976 65.3628 239.011 65.3992C239.047 65.4355 239.074 65.4785 239.092 65.5257C239.127 65.6201 239.122 65.7241 239.079 65.8149C239.037 65.9058 238.96 65.976 238.865 66.0102C237.351 66.6309 235.686 67.3122 233.915 68.0995L231.901 69.0079C231.848 69.0304 231.792 69.042 231.734 69.042C231.677 69.042 231.621 69.0304 231.568 69.0079L213.097 59.3334L169.63 102.876C169.543 102.911 169.445 102.911 169.358 102.876V102.876ZM374.535 89.0684C374.434 89.0694 374.336 89.0314 374.262 88.9624L344.482 59.2577L326.011 68.9322C325.962 68.9587 325.908 68.9726 325.852 68.9726C325.797 68.9726 325.742 68.9587 325.693 68.9322L323.68 68.0238C321.605 67.1003 319.728 66.3281 317.957 65.6468L315.883 64.8747C315.829 64.8533 315.781 64.8205 315.742 64.7787C315.703 64.7368 315.673 64.6869 315.655 64.6324L309.433 44.7385H248.207L242.847 61.8618C242.833 61.9093 242.81 61.9535 242.779 61.9917C242.747 62.03 242.709 62.0614 242.665 62.084C242.621 62.1067 242.573 62.1202 242.523 62.1236C242.474 62.1271 242.424 62.1204 242.378 62.1041C242.284 62.0728 242.207 62.0063 242.161 61.9186C242.116 61.8309 242.107 61.7291 242.136 61.6347L247.586 44.254C247.612 44.1782 247.661 44.1125 247.726 44.0662C247.791 44.02 247.869 43.9956 247.949 43.9966H309.796C309.876 43.9978 309.953 44.023 310.018 44.069C310.083 44.1149 310.132 44.1794 310.16 44.254L316.397 64.2388L318.305 64.9655C320.091 65.6317 321.969 66.4795 324.058 67.3576L325.905 68.1752L344.482 58.4704C344.545 58.4226 344.622 58.3966 344.702 58.3966C344.781 58.3966 344.858 58.4226 344.921 58.4704L374.762 88.4477C374.799 88.483 374.828 88.5253 374.848 88.5721C374.868 88.6189 374.878 88.6693 374.878 88.7202C374.878 88.771 374.868 88.8214 374.848 88.8682C374.828 88.9151 374.799 88.9574 374.762 88.9927C374.7 89.0518 374.62 89.089 374.535 89.0987V89.0684Z" fill="#FAFAFA"/>
<path d="M503.225 279.863L514.928 281.044L519.394 272.353L505.345 270.279L503.225 279.863Z" fill="#FF8B7B"/>
<path d="M541.302 322.86L545.481 300.62C545.966 298.04 547.454 295.757 549.62 294.273C551.785 292.788 554.451 292.223 557.032 292.701L592.112 299.272C590.019 292.264 586.297 285.85 581.251 280.555C576.204 275.26 569.977 271.234 563.077 268.807C556.177 266.38 548.801 265.619 541.551 266.588C534.301 267.557 527.383 270.228 521.363 274.382L362.211 180.181C363.038 170.221 360.624 160.261 355.329 151.785C350.035 143.309 342.143 136.771 332.83 133.145C323.517 129.52 313.282 129 303.65 131.665C294.018 134.33 285.505 140.036 279.38 147.933L314.459 154.504C317.036 154.999 319.312 156.493 320.793 158.66C322.273 160.826 322.837 163.49 322.362 166.071L318.184 188.326C317.695 190.905 316.206 193.184 314.041 194.668C311.877 196.152 309.213 196.718 306.632 196.245L271.553 189.659C273.654 196.71 277.405 203.16 282.493 208.474C287.581 213.789 293.861 217.817 300.814 220.224C307.768 222.631 315.194 223.348 322.479 222.316C329.764 221.285 336.699 218.534 342.711 214.291L501.544 308.311C500.628 318.292 502.971 328.3 508.223 336.837C513.474 345.374 521.35 351.979 530.671 355.663C539.993 359.346 550.257 359.91 559.925 357.268C569.593 354.627 578.146 348.924 584.3 341.013L549.22 334.427C546.641 333.935 544.361 332.443 542.877 330.276C541.394 328.109 540.828 325.443 541.302 322.86V322.86Z" fill="#294E85"/>
<path d="M501.664 273.81L372.625 197.436C370.279 196.047 367.252 196.823 365.864 199.169L360.604 208.055C359.216 210.401 359.992 213.428 362.338 214.816L491.377 291.19C493.722 292.579 496.749 291.802 498.138 289.457L503.397 280.571C504.785 278.225 504.009 275.198 501.664 273.81Z" fill="#294E85"/>
<path opacity="0.2" d="M501.664 273.81L372.625 197.436C370.279 196.047 367.252 196.823 365.864 199.169L360.604 208.055C359.216 210.401 359.992 213.428 362.338 214.816L491.377 291.19C493.722 292.579 496.749 291.802 498.138 289.457L503.397 280.571C504.785 278.225 504.009 275.198 501.664 273.81Z" fill="white"/>
<path d="M446.415 236.142C447.959 217.012 432.86 202.071 433.488 210.323C435.222 232.663 432.888 245.513 422.76 259.8C433.847 259.802 445.222 249.451 446.415 236.142Z" fill="#FFCB57"/>
<path d="M444.765 253.431C452.643 243.877 458.35 228.767 456.943 210.374C456.439 203.793 465.519 211.727 468.497 225.676C470.765 236.3 469.378 250.412 458.195 264.26C458.195 264.26 471.812 258.799 479.608 241.817C484.963 230.149 491.291 269.936 457.357 287.675C457.357 287.675 468.746 286.593 477.966 279.591C488.439 271.639 475.357 300.003 450.025 305.046C434.02 308.233 413.464 303.757 404.05 286.724C395.966 272.094 403.704 256.192 389 248.074C394.179 240.473 403.016 240.953 408.079 245.596C415.029 252.496 411.91 259.807 417.805 263.08C425.38 267.288 437.864 261.569 444.765 253.431Z" fill="#32A9FE"/>
</g>
<defs>
<clipPath id="clip0">
<rect width="757" height="514.21" fill="white"/>
</clipPath>
</defs>
</svg>
